<svg width="474" height="110" xmlns="http://www.w3.org/2000/svg" xmlns:xlink="http://www.w3.org/1999/xlink" xml:space="preserve" overflow="hidden"><defs><clipPath id="clip0"><rect x="58" y="76" width="474" height="110"/></clipPath><clipPath id="clip1"><rect x="59" y="76" width="472" height="110"/></clipPath><clipPath id="clip2"><rect x="59" y="76" width="472" height="110"/></clipPath></defs><g clip-path="url(#clip0)" transform="translate(-58 -76)"><g clip-path="url(#clip1)"><g clip-path="url(#clip2)"><path d="M15.9968 5.99879 131.973 5.99879 138.972 28.4826 498.9 28.4826 498.9 148.97 15.9968 148.97 15.9968 5.99879Z" stroke="#000000" stroke-width="1.4997" stroke-linecap="butt" stroke-linejoin="miter" stroke-miterlimit="4" stroke-opacity="1" fill="none" fill-rule="nonzero" transform="matrix(1.00154 0 0 1 37.5574 43.0407)"/><path d="M15.9968 28.4826 138.972 28.4826" stroke="#000000" stroke-width="1.4997" stroke-linecap="butt" stroke-linejoin="miter" stroke-miterlimit="4" stroke-opacity="1" fill="none" fill-rule="nonzero" transform="matrix(1.00154 0 0 1 37.5574 43.0407)"/><text fill="#000000" fill-opacity="1" font-family="Arial,Arial_MSFontService,sans-serif" font-style="normal" font-variant="normal" font-weight="700" font-stretch="normal" font-size="14" text-anchor="start" direction="ltr" writing-mode="lr-tb" unicode-bidi="normal" text-decoration="none" transform="matrix(1.00133 0 0 0.999799 57.5841 65)">PartDefinitions</text><path d="M319.936 48.9902 482.903 48.9902 482.903 124.68 319.936 124.68Z" stroke="#181818" stroke-width="0.499899" stroke-linecap="butt" stroke-linejoin="miter" stroke-miterlimit="4" stroke-opacity="1" fill="#FFFFFF" fill-rule="nonzero" fill-opacity="1" transform="matrix(1.00154 0 0 1 37.5574 43.0407)"/><text fill="#000000" fill-opacity="1" font-family="Arial,Arial_MSFontService,sans-serif" font-style="italic" font-variant="normal" font-weight="400" font-stretch="normal" font-size="12" text-anchor="start" direction="ltr" writing-mode="lr-tb" unicode-bidi="normal" text-decoration="none" transform="matrix(1.00133 0 0 0.999799 408.051 109)">«part def»</text><text fill="#000000" fill-opacity="1" font-family="Arial,Arial_MSFontService,sans-serif" font-style="normal" font-variant="normal" font-weight="400" font-stretch="normal" font-size="14" text-anchor="start" direction="ltr" writing-mode="lr-tb" unicode-bidi="normal" text-decoration="none" transform="matrix(1.00133 0 0 0.999799 424.072 125)">Axle</text><path d="M320.935 89.6031 481.903 89.6031" stroke="#181818" stroke-width="0.499899" stroke-linecap="butt" stroke-linejoin="miter" stroke-miterlimit="4" stroke-opacity="1" fill="none" fill-rule="nonzero" transform="matrix(1.00154 0 0 1 37.5574 43.0407)"/><text fill="#000000" fill-opacity="1" font-family="Arial,Arial_MSFontService,sans-serif" font-style="normal" font-variant="normal" font-weight="400" font-stretch="normal" font-size="14" text-anchor="start" direction="ltr" writing-mode="lr-tb" unicode-bidi="normal" text-decoration="none" transform="matrix(1.00133 0 0 0.999799 363.992 161)">mass:&gt; ISQBase::mass</text><text fill="#000000" fill-opacity="1" font-family="Arial,Arial_MSFontService,sans-serif" font-style="italic" font-variant="normal" font-weight="400" font-stretch="normal" font-size="14" text-anchor="start" direction="ltr" writing-mode="lr-tb" unicode-bidi="normal" text-decoration="none" transform="matrix(1.00133 0 0 0.999799 406.549 145)">attributes</text><path d="M31.9936 40.9918 259.948 40.9918 259.948 133.166 31.9936 133.166Z" stroke="#181818" stroke-width="0.499899" stroke-linecap="butt" stroke-linejoin="miter" stroke-miterlimit="4" stroke-opacity="1" fill="#FFFFFF" fill-rule="nonzero" fill-opacity="1" transform="matrix(1.00154 0 0 1 37.5574 43.0407)"/><text fill="#000000" fill-opacity="1" font-family="Arial,Arial_MSFontService,sans-serif" font-style="italic" font-variant="normal" font-weight="400" font-stretch="normal" font-size="12" text-anchor="start" direction="ltr" writing-mode="lr-tb" unicode-bidi="normal" text-decoration="none" transform="matrix(1.00133 0 0 0.999799 152.21 101)">«part def»</text><text fill="#000000" fill-opacity="1" font-family="Arial,Arial_MSFontService,sans-serif" font-style="normal" font-variant="normal" font-weight="400" font-stretch="normal" font-size="14" text-anchor="start" direction="ltr" writing-mode="lr-tb" unicode-bidi="normal" text-decoration="none" transform="matrix(1.00133 0 0 0.999799 149.707 117)">FrontAxle</text><path d="M32.9934 81.6047 258.948 81.6047" stroke="#181818" stroke-width="0.499899" stroke-linecap="butt" stroke-linejoin="miter" stroke-miterlimit="4" stroke-opacity="1" fill="none" fill-rule="nonzero" transform="matrix(1.00154 0 0 1 37.5574 43.0407)"/><text fill="#000000" fill-opacity="1" font-family="Arial,Arial_MSFontService,sans-serif" font-style="normal" font-variant="normal" font-weight="400" font-stretch="normal" font-size="14" text-anchor="start" direction="ltr" writing-mode="lr-tb" unicode-bidi="normal" text-decoration="none" transform="matrix(1.00133 0 0 0.999799 75.6081 153)">steeringAngle:&gt;</text><text fill="#000000" fill-opacity="1" font-family="Arial,Arial_MSFontService,sans-serif" font-style="normal" font-variant="normal" font-weight="400" font-stretch="normal" font-size="14" text-anchor="start" direction="ltr" writing-mode="lr-tb" unicode-bidi="normal" text-decoration="none" transform="matrix(1.00133 0 0 0.999799 75.6081 169)">ISQSpaceTime::angularMeasure</text><text fill="#000000" fill-opacity="1" font-family="Arial,Arial_MSFontService,sans-serif" font-style="italic" font-variant="normal" font-weight="400" font-stretch="normal" font-size="14" text-anchor="start" direction="ltr" writing-mode="lr-tb" unicode-bidi="normal" text-decoration="none" transform="matrix(1.00133 0 0 0.999799 150.708 137)">attributes</text><path d="M259.978 86.9825C273.235 86.9825 286.692 86.9825 299.76 86.9825" stroke="#181818" stroke-width="0.999799" stroke-linecap="butt" stroke-linejoin="miter" stroke-miterlimit="4" stroke-opacity="1" fill="none" fill-rule="nonzero" transform="matrix(1.00154 0 0 1 37.5574 43.0407)"/><path d="M299.9 79.9839 319.896 86.9825 299.9 93.9811 299.9 79.9839Z" stroke="#181818" stroke-width="0.999799" stroke-linecap="butt" stroke-linejoin="miter" stroke-miterlimit="4" stroke-opacity="1" fill="none" fill-rule="nonzero" transform="matrix(1.00154 0 0 1 37.5574 43.0407)"/></g></g></g></svg>