<svg width="1306" height="1852" xmlns="http://www.w3.org/2000/svg" xmlns:xlink="http://www.w3.org/1999/xlink" xml:space="preserve" overflow="hidden"><defs><clipPath id="clip0"><rect x="1191" y="68" width="1306" height="1852"/></clipPath><clipPath id="clip1"><rect x="1194" y="71" width="1301" height="1846"/></clipPath><clipPath id="clip2"><rect x="1194" y="71" width="1301" height="1846"/></clipPath><clipPath id="clip3"><rect x="426" y="71" width="2805" height="1846"/></clipPath></defs><g clip-path="url(#clip0)" transform="translate(-1191 -68)"><g clip-path="url(#clip1)"><g clip-path="url(#clip2)"><g clip-path="url(#clip3)"><path d="M2030.4 114.274C2045.4 114.274 2057.55 126.427 2057.55 141.419L2057.55 1742.18C2057.55 1757.17 2045.4 1769.33 2030.4 1769.33L798.047 1769.33C783.055 1769.33 770.902 1757.17 770.902 1742.18L770.902 141.419C770.902 126.427 783.055 114.274 798.047 114.274Z" stroke="#383838" stroke-width="4.07167" stroke-linecap="butt" stroke-linejoin="miter" stroke-miterlimit="4" stroke-opacity="1" fill="#FFFFFF" fill-rule="nonzero" fill-opacity="1" transform="matrix(1 0 0 1.00103 426.586 71.0002)"/><text fill="#000000" fill-opacity="1" font-family="Arial,Arial_MSFontService,sans-serif" font-style="italic" font-variant="normal" font-weight="400" font-stretch="normal" font-size="12" text-anchor="start" direction="ltr" writing-mode="lr-tb" unicode-bidi="normal" text-decoration="none" transform="matrix(2.71444 0 0 2.71723 1747.16 229)">«use case»</text><text fill="#000000" fill-opacity="1" font-family="Arial,Arial_MSFontService,sans-serif" font-style="normal" font-variant="normal" font-weight="400" font-stretch="normal" font-size="14" text-anchor="start" direction="ltr" writing-mode="lr-tb" unicode-bidi="normal" text-decoration="none" transform="matrix(2.71444 0 0 2.71723 1633.16 272)">transportPassenger_1</text><path d="M770.902 223.573 2057.55 223.573" stroke="#383838" stroke-width="2.71444" stroke-linecap="butt" stroke-linejoin="miter" stroke-miterlimit="4" stroke-opacity="1" fill="none" fill-rule="nonzero" transform="matrix(1 0 0 1.00103 426.586 71.0002)"/><path d="M1245.93 806.458 1463.09 806.458 1463.09 828.173 1245.93 828.173Z" fill="#555555" fill-rule="nonzero" fill-opacity="1" transform="matrix(1 0 0 1.00103 426.586 71.0002)"/><path d="M1302.93 1202.77 1520.09 1202.77 1520.09 1224.48 1302.93 1224.48Z" fill="#555555" fill-rule="nonzero" fill-opacity="1" transform="matrix(1 0 0 1.00103 426.586 71.0002)"/><path d="M1091.21 1476.93 1308.36 1476.93 1308.36 1498.64 1091.21 1498.64Z" fill="#555555" fill-rule="nonzero" fill-opacity="1" transform="matrix(1 0 0 1.00103 426.586 71.0002)"/><path d="M1080.35 849.889 1080.35 992.652 1628.67 992.652 1574.38 921.27 1628.67 849.889Z" stroke="#181818" stroke-width="1.35722" stroke-linecap="butt" stroke-linejoin="miter" stroke-miterlimit="4" stroke-opacity="1" fill="#FFFFFF" fill-rule="nonzero" fill-opacity="1" transform="matrix(1 0 0 1.00103 426.586 71.0002)"/><text fill="#000000" fill-opacity="1" font-family="Arial,Arial_MSFontService,sans-serif" font-style="italic" font-variant="normal" font-weight="400" font-stretch="normal" font-size="14" text-anchor="start" direction="ltr" writing-mode="lr-tb" unicode-bidi="normal" text-decoration="none" transform="matrix(2.71444 0 0 2.71723 1610.08 984)">«accept action»</text><text fill="#000000" fill-opacity="1" font-family="Arial,Arial_MSFontService,sans-serif" font-style="normal" font-variant="normal" font-weight="400" font-stretch="normal" font-size="14" text-anchor="start" direction="ltr" writing-mode="lr-tb" unicode-bidi="normal" text-decoration="none" transform="matrix(2.71444 0 0 2.71723 1536.79 1029)">ignitionCmd:IgnitionCmd</text><path d="M890.338 619.161 1107.49 619.161 1107.49 640.876 890.338 640.876Z" fill="#555555" fill-rule="nonzero" fill-opacity="1" transform="matrix(1 0 0 1.00103 426.586 71.0002)"/><path d="M1245.93 1015.47 1463.09 1015.47 1463.09 1037.19 1245.93 1037.19Z" fill="#555555" fill-rule="nonzero" fill-opacity="1" transform="matrix(1 0 0 1.00103 426.586 71.0002)"/><path d="M1302.93 1246.2 1520.09 1246.2 1520.09 1267.91 1302.93 1267.91Z" fill="#555555" fill-rule="nonzero" fill-opacity="1" transform="matrix(1 0 0 1.00103 426.586 71.0002)"/><text fill="#000000" fill-opacity="1" font-family="Arial,Arial_MSFontService,sans-serif" font-style="normal" font-variant="normal" font-weight="400" font-stretch="normal" font-size="14" text-anchor="start" direction="ltr" writing-mode="lr-tb" unicode-bidi="normal" text-decoration="none" transform="matrix(2.71444 0 0 2.71723 1741.73 1894)">result</text><path d="M1351.79 1753.04 1384.37 1753.04 1384.37 1785.61 1351.79 1785.61Z" stroke="#181818" stroke-width="4.07167" stroke-linecap="butt" stroke-linejoin="miter" stroke-miterlimit="4" stroke-opacity="1" fill="#FFFFFF" fill-rule="nonzero" fill-opacity="1" transform="matrix(1 0 0 1.00103 426.586 71.0002)"/><text fill="#000000" fill-opacity="1" font-family="Arial,Arial_MSFontService,sans-serif" font-style="normal" font-variant="normal" font-weight="400" font-stretch="normal" font-size="14" text-anchor="start" direction="ltr" writing-mode="lr-tb" unicode-bidi="normal" text-decoration="none" transform="matrix(2.71444 0 0 2.71723 2370.13 128)">vehicle</text><path d="M1992.4 97.9876 2024.98 97.9876 2024.98 130.561 1992.4 130.561Z" stroke="#181818" stroke-width="4.07167" stroke-linecap="butt" stroke-linejoin="miter" stroke-miterlimit="4" stroke-opacity="1" fill="#FFFFFF" fill-rule="nonzero" fill-opacity="1" transform="matrix(1 0 0 1.00103 426.586 71.0002)"/><path d="M1156.35 662.592C1171.34 662.592 1183.5 674.745 1183.5 689.736L1183.5 758.318C1183.5 773.31 1171.34 785.463 1156.35 785.463L841.478 785.463C826.486 785.463 814.333 773.31 814.333 758.318L814.333 689.736C814.333 674.745 826.486 662.592 841.478 662.592Z" stroke="#383838" stroke-width="4.07167" stroke-linecap="butt" stroke-linejoin="miter" stroke-miterlimit="4" stroke-opacity="1" fill="#FFFFFF" fill-rule="nonzero" fill-opacity="1" transform="matrix(1 0 0 1.00103 426.586 71.0002)"/><text fill="#000000" fill-opacity="1" font-family="Arial,Arial_MSFontService,sans-serif" font-style="italic" font-variant="normal" font-weight="400" font-stretch="normal" font-size="12" text-anchor="start" direction="ltr" writing-mode="lr-tb" unicode-bidi="normal" text-decoration="none" transform="matrix(2.71444 0 0 2.71723 1353.57 778)">«action»</text><text fill="#000000" fill-opacity="1" font-family="Arial,Arial_MSFontService,sans-serif" font-style="normal" font-variant="normal" font-weight="400" font-stretch="normal" font-size="14" text-anchor="start" direction="ltr" writing-mode="lr-tb" unicode-bidi="normal" text-decoration="none" transform="matrix(2.71444 0 0 2.71723 1255.85 821)">driverGetInVehicle</text><path d="M1744.03 662.592C1759.02 662.592 1771.17 674.745 1771.17 689.736L1771.17 758.318C1771.17 773.31 1759.02 785.463 1744.03 785.463L1307 785.463C1292.01 785.463 1279.86 773.31 1279.86 758.318L1279.86 689.736C1279.86 674.745 1292.01 662.592 1307 662.592Z" stroke="#383838" stroke-width="4.07167" stroke-linecap="butt" stroke-linejoin="miter" stroke-miterlimit="4" stroke-opacity="1" fill="#FFFFFF" fill-rule="nonzero" fill-opacity="1" transform="matrix(1 0 0 1.00103 426.586 71.0002)"/><text fill="#000000" fill-opacity="1" font-family="Arial,Arial_MSFontService,sans-serif" font-style="italic" font-variant="normal" font-weight="400" font-stretch="normal" font-size="12" text-anchor="start" direction="ltr" writing-mode="lr-tb" unicode-bidi="normal" text-decoration="none" transform="matrix(2.71444 0 0 2.71723 1880.17 778)">«action»</text><text fill="#000000" fill-opacity="1" font-family="Arial,Arial_MSFontService,sans-serif" font-style="normal" font-variant="normal" font-weight="400" font-stretch="normal" font-size="14" text-anchor="start" direction="ltr" writing-mode="lr-tb" unicode-bidi="normal" text-decoration="none" transform="matrix(2.71444 0 0 2.71723 1721.38 821)">passenger1GetInVehicle</text><path d="M1232.36 1289.63C1247.35 1289.63 1259.5 1301.78 1259.5 1316.77L1259.5 1385.35C1259.5 1400.35 1247.35 1412.5 1232.36 1412.5L841.478 1412.5C826.486 1412.5 814.333 1400.35 814.333 1385.35L814.333 1316.77C814.333 1301.78 826.486 1289.63 841.478 1289.63Z" stroke="#383838" stroke-width="4.07167" stroke-linecap="butt" stroke-linejoin="miter" stroke-miterlimit="4" stroke-opacity="1" fill="#FFFFFF" fill-rule="nonzero" fill-opacity="1" transform="matrix(1 0 0 1.00103 426.586 71.0002)"/><text fill="#000000" fill-opacity="1" font-family="Arial,Arial_MSFontService,sans-serif" font-style="italic" font-variant="normal" font-weight="400" font-stretch="normal" font-size="12" text-anchor="start" direction="ltr" writing-mode="lr-tb" unicode-bidi="normal" text-decoration="none" transform="matrix(2.71444 0 0 2.71723 1391.57 1406)">«action»</text><text fill="#000000" fill-opacity="1" font-family="Arial,Arial_MSFontService,sans-serif" font-style="normal" font-variant="normal" font-weight="400" font-stretch="normal" font-size="14" text-anchor="start" direction="ltr" writing-mode="lr-tb" unicode-bidi="normal" text-decoration="none" transform="matrix(2.71444 0 0 2.71723 1255.85 1449)">driverGetOutOfVehicle</text><path d="M1896.04 1289.63C1911.03 1289.63 1923.18 1301.78 1923.18 1316.77L1923.18 1385.35C1923.18 1400.35 1911.03 1412.5 1896.04 1412.5L1383.01 1412.5C1368.02 1412.5 1355.86 1400.35 1355.86 1385.35L1355.86 1316.77C1355.86 1301.78 1368.02 1289.63 1383.01 1289.63Z" stroke="#383838" stroke-width="4.07167" stroke-linecap="butt" stroke-linejoin="miter" stroke-miterlimit="4" stroke-opacity="1" fill="#FFFFFF" fill-rule="nonzero" fill-opacity="1" transform="matrix(1 0 0 1.00103 426.586 71.0002)"/><text fill="#000000" fill-opacity="1" font-family="Arial,Arial_MSFontService,sans-serif" font-style="italic" font-variant="normal" font-weight="400" font-stretch="normal" font-size="12" text-anchor="start" direction="ltr" writing-mode="lr-tb" unicode-bidi="normal" text-decoration="none" transform="matrix(2.71444 0 0 2.71723 1994.18 1406)">«action»</text><text fill="#000000" fill-opacity="1" font-family="Arial,Arial_MSFontService,sans-serif" font-style="normal" font-variant="normal" font-weight="400" font-stretch="normal" font-size="14" text-anchor="start" direction="ltr" writing-mode="lr-tb" unicode-bidi="normal" text-decoration="none" transform="matrix(2.71444 0 0 2.71723 1797.38 1449)">passenger1GetOutOfVehicle</text><path d="M1418.3 1058.9C1433.29 1058.9 1445.44 1071.05 1445.44 1086.05L1445.44 1154.63C1445.44 1169.62 1433.29 1181.77 1418.3 1181.77L954.127 1181.77C939.136 1181.77 926.983 1169.62 926.983 1154.63L926.983 1086.05C926.983 1071.05 939.136 1058.9 954.127 1058.9Z" stroke="#383838" stroke-width="4.07167" stroke-linecap="butt" stroke-linejoin="miter" stroke-miterlimit="4" stroke-opacity="1" fill="#FFFFFF" fill-rule="nonzero" fill-opacity="1" transform="matrix(1 0 0 1.00103 426.586 71.0002)"/><text fill="#000000" fill-opacity="1" font-family="Arial,Arial_MSFontService,sans-serif" font-style="italic" font-variant="normal" font-weight="400" font-stretch="normal" font-size="12" text-anchor="start" direction="ltr" writing-mode="lr-tb" unicode-bidi="normal" text-decoration="none" transform="matrix(2.71444 0 0 2.71723 1540.87 1175)">«action»</text><text fill="#000000" fill-opacity="1" font-family="Arial,Arial_MSFontService,sans-serif" font-style="normal" font-variant="normal" font-weight="400" font-stretch="normal" font-size="14" text-anchor="start" direction="ltr" writing-mode="lr-tb" unicode-bidi="normal" text-decoration="none" transform="matrix(2.71444 0 0 2.71723 1368.5 1218)">driveVehicleToDestination</text><path d="M1798.32 1058.9C1813.31 1058.9 1825.46 1071.05 1825.46 1086.05L1825.46 1154.63C1825.46 1169.62 1813.31 1181.77 1798.32 1181.77L1567.59 1181.77C1552.6 1181.77 1540.45 1169.62 1540.45 1154.63L1540.45 1086.05C1540.45 1071.05 1552.6 1058.9 1567.59 1058.9Z" stroke="#383838" stroke-width="4.07167" stroke-linecap="butt" stroke-linejoin="miter" stroke-miterlimit="4" stroke-opacity="1" fill="#FFFFFF" fill-rule="nonzero" fill-opacity="1" transform="matrix(1 0 0 1.00103 426.586 71.0002)"/><text fill="#000000" fill-opacity="1" font-family="Arial,Arial_MSFontService,sans-serif" font-style="italic" font-variant="normal" font-weight="400" font-stretch="normal" font-size="12" text-anchor="start" direction="ltr" writing-mode="lr-tb" unicode-bidi="normal" text-decoration="none" transform="matrix(2.71444 0 0 2.71723 2037.61 1175)">«action»</text><text fill="#000000" fill-opacity="1" font-family="Arial,Arial_MSFontService,sans-serif" font-style="normal" font-variant="normal" font-weight="400" font-stretch="normal" font-size="14" text-anchor="start" direction="ltr" writing-mode="lr-tb" unicode-bidi="normal" text-decoration="none" transform="matrix(2.71444 0 0 2.71723 1981.96 1218)">providePower</text><path d="M1034.2 475.295C1049.19 475.295 1061.35 487.448 1061.35 502.44L1061.35 571.022C1061.35 586.013 1049.19 598.166 1034.2 598.166L882.194 598.166C867.203 598.166 855.05 586.013 855.05 571.022L855.05 502.44C855.05 487.448 867.203 475.295 882.194 475.295Z" stroke="#383838" stroke-width="4.07167" stroke-linecap="butt" stroke-linejoin="miter" stroke-miterlimit="4" stroke-opacity="1" fill="#FFFFFF" fill-rule="nonzero" fill-opacity="1" transform="matrix(1 0 0 1.00103 426.586 71.0002)"/><text fill="#000000" fill-opacity="1" font-family="Arial,Arial_MSFontService,sans-serif" font-style="italic" font-variant="normal" font-weight="400" font-stretch="normal" font-size="12" text-anchor="start" direction="ltr" writing-mode="lr-tb" unicode-bidi="normal" text-decoration="none" transform="matrix(2.71444 0 0 2.71723 1291.14 591)">«use case»</text><text fill="#000000" fill-opacity="1" font-family="Arial,Arial_MSFontService,sans-serif" font-style="normal" font-variant="normal" font-weight="400" font-stretch="normal" font-size="14" text-anchor="start" direction="ltr" writing-mode="lr-tb" unicode-bidi="normal" text-decoration="none" transform="matrix(2.71444 0 0 2.71723 1342.71 634)">start</text><path d="M1739.96 1563.79C1754.95 1563.79 1767.1 1575.94 1767.1 1590.93L1767.1 1659.51C1767.1 1674.51 1754.95 1686.66 1739.96 1686.66L1587.95 1686.66C1572.96 1686.66 1560.81 1674.51 1560.81 1659.51L1560.81 1590.93C1560.81 1575.94 1572.96 1563.79 1587.95 1563.79Z" stroke="#383838" stroke-width="4.07167" stroke-linecap="butt" stroke-linejoin="miter" stroke-miterlimit="4" stroke-opacity="1" fill="#FFFFFF" fill-rule="nonzero" fill-opacity="1" transform="matrix(1 0 0 1.00103 426.586 71.0002)"/><text fill="#000000" fill-opacity="1" font-family="Arial,Arial_MSFontService,sans-serif" font-style="italic" font-variant="normal" font-weight="400" font-stretch="normal" font-size="12" text-anchor="start" direction="ltr" writing-mode="lr-tb" unicode-bidi="normal" text-decoration="none" transform="matrix(2.71444 0 0 2.71723 1996.89 1680)">«use case»</text><text fill="#000000" fill-opacity="1" font-family="Arial,Arial_MSFontService,sans-serif" font-style="normal" font-variant="normal" font-weight="400" font-stretch="normal" font-size="14" text-anchor="start" direction="ltr" writing-mode="lr-tb" unicode-bidi="normal" text-decoration="none" transform="matrix(2.71444 0 0 2.71723 2025.39 1723)">^done</text><path d="M16.2867 323.286 16.2867 432.585 749.187 432.585 749.187 350.431 722.042 323.286 16.2867 323.286" stroke="#181818" stroke-width="1.35722" stroke-linecap="butt" stroke-linejoin="miter" stroke-miterlimit="4" stroke-opacity="1" fill="#FAFAFA" fill-rule="nonzero" fill-opacity="1" transform="matrix(1 0 0 1.00103 426.586 71.0002)"/><path d="M722.042 323.286 722.042 350.431 749.187 350.431 722.042 323.286" stroke="#181818" stroke-width="2.71444" stroke-linecap="butt" stroke-linejoin="miter" stroke-miterlimit="4" stroke-opacity="1" fill="#FAFAFA" fill-rule="nonzero" fill-opacity="1" transform="matrix(1 0 0 1.00103 426.586 71.0002)"/><path d="M0 2.71444 35.2878 2.71444 35.2878 5.42889 0 5.42889Z" fill="#000000" fill-rule="evenodd" fill-opacity="1" transform="matrix(1 0 0 1.00103 459.159 440.993)"/><text fill="#000000" fill-opacity="1" font-family="Arial,Arial_MSFontService,sans-serif" font-style="normal" font-variant="normal" font-weight="400" font-stretch="normal" font-size="13" text-anchor="start" direction="ltr" writing-mode="lr-tb" unicode-bidi="normal" text-decoration="none" transform="matrix(2.71444 0 0 2.71723 459.159 441)">@</text><text fill="#000000" fill-opacity="1" font-family="Arial,Arial_MSFontService,sans-serif" font-style="normal" font-variant="normal" font-weight="400" font-stretch="normal" font-size="13" text-anchor="start" direction="ltr" writing-mode="lr-tb" unicode-bidi="normal" text-decoration="none" transform="matrix(2.71444 0 0 2.71723 494.447 441)">The starting snapshot of a Use Case.</text><path d="M2068.41 1433.49 2068.41 1542.79 2785.02 1542.79 2785.02 1460.64 2757.88 1433.49 2068.41 1433.49" stroke="#181818" stroke-width="1.35722" stroke-linecap="butt" stroke-linejoin="miter" stroke-miterlimit="4" stroke-opacity="1" fill="#FAFAFA" fill-rule="nonzero" fill-opacity="1" transform="matrix(1 0 0 1.00103 426.586 71.0002)"/><path d="M2757.88 1433.49 2757.88 1460.64 2785.02 1460.64 2757.88 1433.49" stroke="#181818" stroke-width="2.71444" stroke-linecap="butt" stroke-linejoin="miter" stroke-miterlimit="4" stroke-opacity="1" fill="#FAFAFA" fill-rule="nonzero" fill-opacity="1" transform="matrix(1 0 0 1.00103 426.586 71.0002)"/><path d="M0 2.71444 35.2878 2.71444 35.2878 5.42889 0 5.42889Z" fill="#000000" fill-rule="evenodd" fill-opacity="1" transform="matrix(1 0 0 1.00103 2511.28 1552.34)"/><text fill="#000000" fill-opacity="1" font-family="Arial,Arial_MSFontService,sans-serif" font-style="normal" font-variant="normal" font-weight="400" font-stretch="normal" font-size="13" text-anchor="start" direction="ltr" writing-mode="lr-tb" unicode-bidi="normal" text-decoration="none" transform="matrix(2.71444 0 0 2.71723 2511.28 1552)">@</text><text fill="#000000" fill-opacity="1" font-family="Arial,Arial_MSFontService,sans-serif" font-style="normal" font-variant="normal" font-weight="400" font-stretch="normal" font-size="13" text-anchor="start" direction="ltr" writing-mode="lr-tb" unicode-bidi="normal" text-decoration="none" transform="matrix(2.71444 0 0 2.71723 2546.57 1552)">The ending snapshot of a Use Case.</text><path d="M576.765 432C669.762 456.783 777.417 485.474 854.588 506.05" stroke="#181818" stroke-width="2.71444" stroke-linecap="butt" stroke-linejoin="miter" stroke-miterlimit="4" stroke-dasharray="19.0011 19.0011" stroke-opacity="1" fill="none" fill-rule="nonzero" transform="matrix(1 0 0 1.00103 426.586 71.0002)"/><path d="M985.587 598.422C986.836 601.164 988.085 603.824 989.225 606.322" stroke="#181818" stroke-width="2.71444" stroke-linecap="butt" stroke-linejoin="miter" stroke-miterlimit="4" stroke-dasharray="19.0011 19.0011" stroke-opacity="1" fill="none" fill-rule="nonzero" transform="matrix(1 0 0 1.00103 426.586 71.0002)"/><path d="M995.007 618.835 994.611 592.104 989.312 606.516 974.9 601.216 995.007 618.835Z" stroke="#181818" stroke-width="2.71444" stroke-linecap="butt" stroke-linejoin="miter" stroke-miterlimit="4" stroke-opacity="1" fill="#181818" fill-rule="nonzero" fill-opacity="1" transform="matrix(1 0 0 1.00103 426.586 71.0002)"/><path d="M998.915 641.528C998.915 643.537 998.915 645.844 998.915 648.395" stroke="#181818" stroke-width="2.71444" stroke-linecap="butt" stroke-linejoin="miter" stroke-miterlimit="4" stroke-dasharray="19.0011 19.0011" stroke-opacity="1" fill="none" fill-rule="nonzero" transform="matrix(1 0 0 1.00103 426.586 71.0002)"/><path d="M998.915 662.538 1009.77 638.108 998.915 648.965 988.058 638.108 998.915 662.538Z" stroke="#181818" stroke-width="2.71444" stroke-linecap="butt" stroke-linejoin="miter" stroke-miterlimit="4" stroke-opacity="1" fill="#181818" fill-rule="nonzero" fill-opacity="1" transform="matrix(1 0 0 1.00103 426.586 71.0002)"/><path d="M1073.75 640.958C1119.65 646.36 1179.53 653.96 1232.36 662.592 1243.41 664.383 1254.67 666.311 1266.04 668.292" stroke="#181818" stroke-width="2.71444" stroke-linecap="butt" stroke-linejoin="miter" stroke-miterlimit="4" stroke-dasharray="19.0011 19.0011" stroke-opacity="1" fill="none" fill-rule="nonzero" transform="matrix(1 0 0 1.00103 426.586 71.0002)"/><path d="M1279.43 670.681 1257.26 655.736 1266.06 668.318 1253.48 677.119 1279.43 670.681Z" stroke="#181818" stroke-width="2.71444" stroke-linecap="butt" stroke-linejoin="miter" stroke-miterlimit="4" stroke-opacity="1" fill="#181818" fill-rule="nonzero" fill-opacity="1" transform="matrix(1 0 0 1.00103 426.586 71.0002)"/><path d="M1183.66 772.663C1200.14 776.761 1216.53 780.833 1232.36 784.742 1256.92 790.822 1284.28 797.5 1306.9 803.01" stroke="#181818" stroke-width="2.71444" stroke-linecap="butt" stroke-linejoin="miter" stroke-miterlimit="4" stroke-dasharray="19.0011 19.0011" stroke-opacity="1" fill="none" fill-rule="nonzero" transform="matrix(1 0 0 1.00103 426.586 71.0002)"/><path d="M1320.28 806.295 1299.08 790.012 1307.08 803.113 1293.98 811.122 1320.28 806.295Z" stroke="#181818" stroke-width="2.71444" stroke-linecap="butt" stroke-linejoin="miter" stroke-miterlimit="4" stroke-opacity="1" fill="#181818" fill-rule="nonzero" fill-opacity="1" transform="matrix(1 0 0 1.00103 426.586 71.0002)"/><path d="M1411.46 785.231C1401.66 790.279 1392.4 795.057 1384.34 799.21" stroke="#181818" stroke-width="2.71444" stroke-linecap="butt" stroke-linejoin="miter" stroke-miterlimit="4" stroke-dasharray="19.0011 19.0011" stroke-opacity="1" fill="none" fill-rule="nonzero" transform="matrix(1 0 0 1.00103 426.586 71.0002)"/><path d="M1371.23 805.969 1397.92 804.448 1383.3 799.76 1387.98 785.138 1371.23 805.969Z" stroke="#181818" stroke-width="2.71444" stroke-linecap="butt" stroke-linejoin="miter" stroke-miterlimit="4" stroke-opacity="1" fill="#181818" fill-rule="nonzero" fill-opacity="1" transform="matrix(1 0 0 1.00103 426.586 71.0002)"/><path d="M1354.51 829.177C1354.51 830.779 1354.51 832.598 1354.51 834.525" stroke="#181818" stroke-width="2.71444" stroke-linecap="butt" stroke-linejoin="miter" stroke-miterlimit="4" stroke-dasharray="19.0011 19.0011" stroke-opacity="1" fill="none" fill-rule="nonzero" transform="matrix(1 0 0 1.00103 426.586 71.0002)"/><path d="M1354.51 849.156 1365.37 824.726 1354.51 835.583 1343.65 824.726 1354.51 849.156Z" stroke="#181818" stroke-width="2.71444" stroke-linecap="butt" stroke-linejoin="miter" stroke-miterlimit="4" stroke-opacity="1" fill="#181818" fill-rule="nonzero" fill-opacity="1" transform="matrix(1 0 0 1.00103 426.586 71.0002)"/><path d="M1354.51 994.433C1354.51 996.74 1354.51 998.966 1354.51 1001.11" stroke="#181818" stroke-width="2.71444" stroke-linecap="butt" stroke-linejoin="miter" stroke-miterlimit="4" stroke-dasharray="19.0011 19.0011" stroke-opacity="1" fill="none" fill-rule="nonzero" transform="matrix(1 0 0 1.00103 426.586 71.0002)"/><path d="M1354.51 1015.17 1365.37 990.741 1354.51 1001.6 1343.65 990.741 1354.51 1015.17Z" stroke="#181818" stroke-width="2.71444" stroke-linecap="butt" stroke-linejoin="miter" stroke-miterlimit="4" stroke-opacity="1" fill="#181818" fill-rule="nonzero" fill-opacity="1" transform="matrix(1 0 0 1.00103 426.586 71.0002)"/><path d="M1337.76 1037.84C1330.19 1041.8 1320.52 1046.85 1309.72 1052.52" stroke="#181818" stroke-width="2.71444" stroke-linecap="butt" stroke-linejoin="miter" stroke-miterlimit="4" stroke-dasharray="19.0011 19.0011" stroke-opacity="1" fill="none" fill-rule="nonzero" transform="matrix(1 0 0 1.00103 426.586 71.0002)"/><path d="M1297.64 1058.85 1324.32 1057.09 1309.65 1052.53 1314.21 1037.87 1297.64 1058.85Z" stroke="#181818" stroke-width="2.71444" stroke-linecap="butt" stroke-linejoin="miter" stroke-miterlimit="4" stroke-opacity="1" fill="#181818" fill-rule="nonzero" fill-opacity="1" transform="matrix(1 0 0 1.00103 426.586 71.0002)"/><path d="M1397.15 1037.27C1424.62 1042.8 1461.08 1050.59 1492.94 1058.9 1503.99 1061.78 1515.34 1064.9 1526.74 1068.13" stroke="#181818" stroke-width="2.71444" stroke-linecap="butt" stroke-linejoin="miter" stroke-miterlimit="4" stroke-dasharray="19.0011 19.0011" stroke-opacity="1" fill="none" fill-rule="nonzero" transform="matrix(1 0 0 1.00103 426.586 71.0002)"/><path d="M1540.15 1071.96 1519.67 1054.77 1527.11 1068.2 1513.67 1075.63 1540.15 1071.96Z" stroke="#181818" stroke-width="2.71444" stroke-linecap="butt" stroke-linejoin="miter" stroke-miterlimit="4" stroke-opacity="1" fill="#181818" fill-rule="nonzero" fill-opacity="1" transform="matrix(1 0 0 1.00103 426.586 71.0002)"/><path d="M1336.48 1181.54C1351.01 1187.21 1364.61 1192.53 1376.11 1197.04" stroke="#181818" stroke-width="2.71444" stroke-linecap="butt" stroke-linejoin="miter" stroke-miterlimit="4" stroke-dasharray="19.0011 19.0011" stroke-opacity="1" fill="none" fill-rule="nonzero" transform="matrix(1 0 0 1.00103 426.586 71.0002)"/><path d="M1389.5 1202.28 1370.67 1183.29 1376.85 1197.35 1362.79 1203.53 1389.5 1202.28Z" stroke="#181818" stroke-width="2.71444" stroke-linecap="butt" stroke-linejoin="miter" stroke-miterlimit="4" stroke-opacity="1" fill="#181818" fill-rule="nonzero" fill-opacity="1" transform="matrix(1 0 0 1.00103 426.586 71.0002)"/><path d="M1540.07 1169.13C1507.09 1179.86 1474.65 1190.39 1450.6 1198.21" stroke="#181818" stroke-width="2.71444" stroke-linecap="butt" stroke-linejoin="miter" stroke-miterlimit="4" stroke-dasharray="19.0011 19.0011" stroke-opacity="1" fill="none" fill-rule="nonzero" transform="matrix(1 0 0 1.00103 426.586 71.0002)"/><path d="M1436.81 1202.68 1463.4 1205.48 1449.72 1198.5 1456.7 1184.82 1436.81 1202.68Z" stroke="#181818" stroke-width="2.71444" stroke-linecap="butt" stroke-linejoin="miter" stroke-miterlimit="4" stroke-opacity="1" fill="#181818" fill-rule="nonzero" fill-opacity="1" transform="matrix(1 0 0 1.00103 426.586 71.0002)"/><path d="M1411.51 1225.16C1411.51 1227.33 1411.51 1229.75 1411.51 1232.25" stroke="#181818" stroke-width="2.71444" stroke-linecap="butt" stroke-linejoin="miter" stroke-miterlimit="4" stroke-dasharray="19.0011 19.0011" stroke-opacity="1" fill="none" fill-rule="nonzero" transform="matrix(1 0 0 1.00103 426.586 71.0002)"/><path d="M1411.51 1246.09 1422.37 1221.66 1411.51 1232.52 1400.65 1221.66 1411.51 1246.09Z" stroke="#181818" stroke-width="2.71444" stroke-linecap="butt" stroke-linejoin="miter" stroke-miterlimit="4" stroke-opacity="1" fill="#181818" fill-rule="nonzero" fill-opacity="1" transform="matrix(1 0 0 1.00103 426.586 71.0002)"/><path d="M1376.28 1268.08C1350.73 1274.07 1313.76 1282.79 1273.51 1292.26" stroke="#181818" stroke-width="2.71444" stroke-linecap="butt" stroke-linejoin="miter" stroke-miterlimit="4" stroke-dasharray="19.0011 19.0011" stroke-opacity="1" fill="none" fill-rule="nonzero" transform="matrix(1 0 0 1.00103 426.586 71.0002)"/><path d="M1259.75 1295.52 1286.01 1300.49 1272.96 1292.41 1281.04 1279.35 1259.75 1295.52Z" stroke="#181818" stroke-width="2.71444" stroke-linecap="butt" stroke-linejoin="miter" stroke-miterlimit="4" stroke-opacity="1" fill="#181818" fill-rule="nonzero" fill-opacity="1" transform="matrix(1 0 0 1.00103 426.586 71.0002)"/><path d="M1433.36 1268.24C1444.57 1272.55 1459.29 1278.26 1475.73 1284.63" stroke="#181818" stroke-width="2.71444" stroke-linecap="butt" stroke-linejoin="miter" stroke-miterlimit="4" stroke-dasharray="19.0011 19.0011" stroke-opacity="1" fill="none" fill-rule="nonzero" transform="matrix(1 0 0 1.00103 426.586 71.0002)"/><path d="M1488.63 1289.6 1469.76 1270.67 1475.97 1284.71 1461.93 1290.92 1488.63 1289.6Z" stroke="#181818" stroke-width="2.71444" stroke-linecap="butt" stroke-linejoin="miter" stroke-miterlimit="4" stroke-opacity="1" fill="#181818" fill-rule="nonzero" fill-opacity="1" transform="matrix(1 0 0 1.00103 426.586 71.0002)"/><path d="M1109.77 1412.32C1134.56 1432.33 1160.4 1453.23 1177.99 1467.45" stroke="#181818" stroke-width="2.71444" stroke-linecap="butt" stroke-linejoin="miter" stroke-miterlimit="4" stroke-dasharray="19.0011 19.0011" stroke-opacity="1" fill="none" fill-rule="nonzero" transform="matrix(1 0 0 1.00103 426.586 71.0002)"/><path d="M1188.76 1476.17 1176.6 1452.36 1178.21 1467.63 1162.94 1469.24 1188.76 1476.17Z" stroke="#181818" stroke-width="2.71444" stroke-linecap="butt" stroke-linejoin="miter" stroke-miterlimit="4" stroke-opacity="1" fill="#181818" fill-rule="nonzero" fill-opacity="1" transform="matrix(1 0 0 1.00103 426.586 71.0002)"/><path d="M1429.59 1411.97C1405.16 1419.08 1380.62 1426.36 1357.22 1433.49 1316.18 1446.03 1269.52 1461.45 1237.73 1472.17" stroke="#181818" stroke-width="2.71444" stroke-linecap="butt" stroke-linejoin="miter" stroke-miterlimit="4" stroke-dasharray="19.0011 19.0011" stroke-opacity="1" fill="none" fill-rule="nonzero" transform="matrix(1 0 0 1.00103 426.586 71.0002)"/><path d="M1224.24 1476.74 1250.86 1479.19 1237.1 1472.39 1243.9 1458.62 1224.24 1476.74Z" stroke="#181818" stroke-width="2.71444" stroke-linecap="butt" stroke-linejoin="miter" stroke-miterlimit="4" stroke-opacity="1" fill="#181818" fill-rule="nonzero" fill-opacity="1" transform="matrix(1 0 0 1.00103 426.586 71.0002)"/><path d="M1224.19 1498.99C1255 1509.63 1309.77 1528.12 1357.22 1542.07 1419.55 1560.39 1489.61 1578.85 1547.02 1593.4" stroke="#181818" stroke-width="2.71444" stroke-linecap="butt" stroke-linejoin="miter" stroke-miterlimit="4" stroke-dasharray="19.0011 19.0011" stroke-opacity="1" fill="none" fill-rule="nonzero" transform="matrix(1 0 0 1.00103 426.586 71.0002)"/><path d="M1560.59 1596.85 1539.57 1580.33 1547.43 1593.52 1534.24 1601.38 1560.59 1596.85Z" stroke="#181818" stroke-width="2.71444" stroke-linecap="butt" stroke-linejoin="miter" stroke-miterlimit="4" stroke-opacity="1" fill="#181818" fill-rule="nonzero" fill-opacity="1" transform="matrix(1 0 0 1.00103 426.586 71.0002)"/><path d="M2127.45 1542.15C2000.14 1564.11 1860.05 1588.3 1767.56 1604.26" stroke="#181818" stroke-width="2.71444" stroke-linecap="butt" stroke-linejoin="miter" stroke-miterlimit="4" stroke-dasharray="19.0011 19.0011" stroke-opacity="1" fill="none" fill-rule="nonzero" transform="matrix(1 0 0 1.00103 426.586 71.0002)"/></g></g></g><path d="M0 0 281.948 47.0311" stroke="#FFFFFF" stroke-width="20.625" stroke-linecap="butt" stroke-linejoin="miter" stroke-miterlimit="8" stroke-opacity="1" fill="none" fill-rule="evenodd" transform="matrix(1 0 0 -1 2198.5 1680.53)"/><path d="M1200.5 556.5 1278.66 575.669" stroke="#FFFFFF" stroke-width="20.625" stroke-linecap="butt" stroke-linejoin="miter" stroke-miterlimit="8" stroke-opacity="1" fill="none" fill-rule="evenodd"/></g></svg>