<?xml version="1.0" encoding="UTF-8" standalone="no"?>
<!-- Created with Inkscape (http://www.inkscape.org/) -->

<svg
   version="1.1"
   id="svg1"
   width="286.72"
   height="128"
   viewBox="0 0 286.72 128"
   xmlns="http://www.w3.org/2000/svg"
   xmlns:svg="http://www.w3.org/2000/svg">
  <defs
     id="defs1">
    <clipPath
       clipPathUnits="userSpaceOnUse"
       id="clipPath2">
      <path
         d="M 0,0 H 893.99414 V 399.02344 H 0 Z"
         transform="scale(0.31999999)"
         clip-rule="evenodd"
         id="path2" />
    </clipPath>
    <clipPath
       clipPathUnits="userSpaceOnUse"
       id="clipPath4">
      <path
         d="m 3.125,0 h 887.5 V 399.02344 H 3.125 Z"
         transform="matrix(0.33729089,0,0,0.33729089,396.38313,2486.446)"
         clip-rule="evenodd"
         id="path4" />
    </clipPath>
    <clipPath
       clipPathUnits="userSpaceOnUse"
       id="clipPath5">
      <path
         d="m 3.125,0 h 887.5 V 399.02344 H 3.125 Z"
         transform="matrix(0.33729089,0,0,0.33729089,-60.398114,-57.054118)"
         clip-rule="evenodd"
         id="path5" />
    </clipPath>
    <clipPath
       clipPathUnits="userSpaceOnUse"
       id="clipPath6">
      <path
         d="m 3.125,0 h 887.5 V 399.02344 H 3.125 Z"
         transform="matrix(0.33729089,0,0,0.33729089,-83.398115,-86.054118)"
         clip-rule="evenodd"
         id="path6" />
    </clipPath>
    <clipPath
       clipPathUnits="userSpaceOnUse"
       id="clipPath8">
      <path
         d="m 3.125,0 h 887.5 V 399.02344 H 3.125 Z"
         transform="matrix(0.33729089,0,0,0.33729089,396.88313,2486.9459)"
         clip-rule="evenodd"
         id="path8" />
    </clipPath>
    <clipPath
       clipPathUnits="userSpaceOnUse"
       id="clipPath9">
      <path
         d="m 3.125,0 h 887.5 V 399.02344 H 3.125 Z"
         transform="matrix(0.33729089,0,0,0.33729089,-5.4293646,-70.054118)"
         clip-rule="evenodd"
         id="path9" />
    </clipPath>
    <clipPath
       clipPathUnits="userSpaceOnUse"
       id="clipPath11">
      <path
         d="m 3.125,0 h 887.5 V 399.02344 H 3.125 Z"
         transform="matrix(0.33729089,0,0,0.33729089,396.88313,2486.9459)"
         clip-rule="evenodd"
         id="path11" />
    </clipPath>
    <clipPath
       clipPathUnits="userSpaceOnUse"
       id="clipPath12">
      <path
         d="m 3.125,0 h 887.5 V 399.02344 H 3.125 Z"
         transform="matrix(0.33729089,0,0,0.33729089,-248.77311,-70.054118)"
         clip-rule="evenodd"
         id="path12" />
    </clipPath>
    <clipPath
       clipPathUnits="userSpaceOnUse"
       id="clipPath14">
      <path
         d="m 3.125,0 h 887.5 V 399.02344 H 3.125 Z"
         transform="matrix(0.33729089,0,0,0.33729089,396.88313,2486.9459)"
         clip-rule="evenodd"
         id="path14" />
    </clipPath>
    <clipPath
       clipPathUnits="userSpaceOnUse"
       id="clipPath15">
      <path
         d="m 3.125,0 h 887.5 V 399.02344 H 3.125 Z"
         transform="matrix(0.33729089,0,0,0.33729089,-121.10124,-125.05412)"
         clip-rule="evenodd"
         id="path15" />
    </clipPath>
    <clipPath
       clipPathUnits="userSpaceOnUse"
       id="clipPath17">
      <path
         d="m 3.125,0 h 887.5 V 399.02344 H 3.125 Z"
         transform="matrix(0.33729089,0,0,0.33729089,396.88313,2486.9459)"
         clip-rule="evenodd"
         id="path17" />
    </clipPath>
    <clipPath
       clipPathUnits="userSpaceOnUse"
       id="clipPath18">
      <path
         d="m 3.125,0 h 887.5 V 399.02344 H 3.125 Z"
         transform="matrix(0.33729089,0,0,0.33729089,-122.77311,-17.054119)"
         clip-rule="evenodd"
         id="path18" />
    </clipPath>
    <clipPath
       clipPathUnits="userSpaceOnUse"
       id="clipPath20">
      <path
         d="m 3.125,0 h 887.5 V 399.02344 H 3.125 Z"
         transform="matrix(0.33729089,0,0,0.33729089,396.38313,2486.446)"
         clip-rule="evenodd"
         id="path20" />
    </clipPath>
  </defs>
  <g
     id="g1">
    <path
       id="path1"
       d="M 0,0 H 286 V 128 H 0 Z"
       style="fill:#ffffff;fill-opacity:1;fill-rule:nonzero;stroke:none"
       clip-path="url(#clipPath2)" />
    <path
       id="path3"
       d="m 460.13998,2501.03 h 172.47001 c 0.80505,3e-4 1.60815,0.04 2.4093,0.1184 0.80108,0.079 1.59643,0.1971 2.38598,0.354 0.78962,0.1573 1.56958,0.3526 2.33997,0.5862 0.77032,0.2337 1.52734,0.5044 2.27106,0.8123 0.74377,0.3083 1.47064,0.6521 2.1806,1.0317 0.71002,0.3794 1.39966,0.7927 2.06903,1.2398 0.66937,0.4472 1.31519,0.9262 1.93744,1.4372 0.62225,0.5108 1.21802,1.0506 1.78729,1.6196 0.56922,0.5691 1.10919,1.1651 1.61994,1.7874 0.51068,0.6223 0.98962,1.2681 1.43682,1.9375 0.44733,0.6694 0.86072,1.3591 1.24018,2.0691 0.37951,0.7102 0.72326,1.437 1.03131,2.1804 0.3081,0.7439 0.57898,1.501 0.81268,2.2713 0.23371,0.7702 0.42908,1.5502 0.58612,2.3398 0.15705,0.7898 0.27503,1.5852 0.35395,2.3865 0.0789,0.801 0.1184,1.604 0.11834,2.4089 v 57.71 c 6e-5,0.8049 -0.0394,1.6079 -0.11828,2.4091 -0.0789,0.8011 -0.19696,1.5962 -0.35401,2.3858 -0.15704,0.7898 -0.35241,1.5696 -0.58612,2.3398 -0.2337,0.7703 -0.50458,1.5274 -0.81268,2.271 -0.30805,0.7439 -0.6518,1.4707 -1.03131,2.1809 -0.37946,0.7098 -0.79285,1.3995 -1.24011,2.0686 -0.44721,0.6697 -0.92621,1.3155 -1.43689,1.9378 -0.51075,0.6223 -1.05072,1.2182 -1.61994,1.7873 -0.56927,0.5694 -1.16504,1.1094 -1.78729,1.6204 -0.62225,0.5105 -1.26807,0.9895 -1.93744,1.4365 -0.66937,0.4475 -1.35901,0.8609 -2.06897,1.2403 -0.71002,0.3796 -1.43689,0.7233 -2.18066,1.0312 -0.74372,0.3081 -1.50074,0.5791 -2.27106,0.8128 -0.77039,0.2336 -1.55035,0.4292 -2.33997,0.5861 -0.78955,0.157 -1.5849,0.2752 -2.38598,0.354 -0.80115,0.079 -1.60425,0.1184 -2.4093,0.1184 H 460.13998 c -0.80499,0 -1.60806,-0.039 -2.40924,-0.1184 -0.80114,-0.079 -1.59649,-0.197 -2.38607,-0.3542 -0.78956,-0.157 -1.56949,-0.3523 -2.33985,-0.5859 -0.77035,-0.2337 -1.52743,-0.5047 -2.27121,-0.813 -0.74374,-0.3079 -1.47058,-0.6516 -2.18054,-1.0313 -0.70996,-0.3791 -1.39963,-0.7927 -2.06903,-1.2402 -0.66934,-0.447 -1.31516,-0.926 -1.93744,-1.4365 -0.62231,-0.5108 -1.21808,-1.0508 -1.78732,-1.6202 -0.56925,-0.5691 -1.10919,-1.165 -1.61991,-1.7873 -0.51071,-0.6223 -0.98971,-1.2681 -1.43698,-1.9378 -0.44723,-0.6691 -0.86059,-1.3586 -1.24008,-2.0683 -0.37945,-0.7102 -0.72324,-1.437 -1.03134,-2.1809 -0.30805,-0.7439 -0.57892,-1.5008 -0.81259,-2.271 -0.23368,-0.7703 -0.42905,-1.5501 -0.58612,-2.3399 -0.15705,-0.7895 -0.275,-1.5849 -0.35388,-2.386 -0.0789,-0.8012 -0.11835,-1.6042 -0.11838,-2.4091 v -57.71 c 3e-5,-0.8049 0.0395,-1.6079 0.11838,-2.4092 0.0789,-0.8012 0.19683,-1.5967 0.35388,-2.3864 0.15707,-0.7894 0.35244,-1.5694 0.58612,-2.3396 0.23367,-0.7703 0.50454,-1.5274 0.81259,-2.2713 0.3081,-0.7434 0.65192,-1.4702 1.0314,-2.1804 0.37949,-0.71 0.79285,-1.3997 1.24005,-2.0691 0.44727,-0.6694 0.92627,-1.3152 1.43698,-1.9375 0.51072,-0.6223 1.05066,-1.2183 1.61991,-1.7874 0.56924,-0.569 1.16501,-1.1088 1.78729,-1.6196 0.62228,-0.5107 1.26813,-0.9897 1.93747,-1.437 0.66937,-0.4473 1.35904,-0.8606 2.069,-1.24 0.70996,-0.3796 1.4368,-0.7234 2.18054,-1.0317 0.74378,-0.3079 1.50086,-0.5786 2.27121,-0.8125 0.77036,-0.2337 1.55029,-0.429 2.33985,-0.5862 0.78958,-0.157 1.58493,-0.2747 2.3861,-0.3535 0.80115,-0.079 1.60422,-0.1184 2.40921,-0.1187 z"
       style="fill:#ffffff;fill-opacity:1;fill-rule:nonzero;stroke:#000000;stroke-width:1;stroke-linecap:butt;stroke-linejoin:miter;stroke-miterlimit:10;stroke-dasharray:none;stroke-opacity:1"
       transform="matrix(0.94873593,0,0,0.94873593,-376.06292,-2358.9807)"
       clip-path="url(#clipPath4)" />
    <text
       id="text4"
       xml:space="preserve"
       transform="matrix(0.94873593,0,0,0.94873593,57.301861,54.129292)"
       clip-path="url(#clipPath5)"><tspan
         id="tspan4"
         style="font-variant:normal;font-weight:normal;font-size:12px;font-family:Arial;writing-mode:lr-tb;fill:#000000;fill-opacity:1;fill-rule:nonzero;stroke:none"
         x="0"
         y="0">accept-action-name-compartment</tspan></text>
    <text
       id="text5"
       xml:space="preserve"
       transform="matrix(0.94873593,0,0,0.94873593,79.122788,81.642634)"
       clip-path="url(#clipPath6)"><tspan
         id="tspan5"
         style="font-variant:normal;font-weight:normal;font-size:12px;font-family:Arial;writing-mode:lr-tb;fill:#000000;fill-opacity:1;fill-rule:nonzero;stroke:none"
         x="0"
         y="0">accept-action-expression</tspan></text>
    <path
       id="path7"
       d="m 402,2546 h 46 v 15 h -46 z"
       style="fill:#ffffff;fill-opacity:1;fill-rule:nonzero;stroke:none"
       transform="matrix(0.94873593,0,0,0.94873593,-376.53729,-2359.4549)"
       clip-path="url(#clipPath8)" />
    <text
       id="text8"
       xml:space="preserve"
       transform="matrix(0.94873593,0,0,0.94873593,5.1510333,66.462859)"
       clip-path="url(#clipPath9)"><tspan
         id="tspan8"
         style="font-variant:normal;font-weight:normal;font-size:12px;font-family:Arial;writing-mode:lr-tb;fill:#000000;fill-opacity:1;fill-rule:nonzero;stroke:none"
         x="0"
         y="0">param-l*</tspan></text>
    <path
       id="path10"
       d="m 646,2546 h 46 v 15 h -46 z"
       style="fill:#ffffff;fill-opacity:1;fill-rule:nonzero;stroke:none"
       transform="matrix(0.94873593,0,0,0.94873593,-376.53729,-2359.4549)"
       clip-path="url(#clipPath11)" />
    <text
       id="text11"
       xml:space="preserve"
       transform="matrix(0.94873593,0,0,0.94873593,236.01999,66.462859)"
       clip-path="url(#clipPath12)"><tspan
         id="tspan11"
         style="font-variant:normal;font-weight:normal;font-size:12px;font-family:Arial;writing-mode:lr-tb;fill:#000000;fill-opacity:1;fill-rule:nonzero;stroke:none"
         x="0"
         y="0">param-r*</tspan></text>
    <path
       id="path13"
       d="m 518,2601 h 56 v 15 h -56 z"
       style="fill:#ffffff;fill-opacity:1;fill-rule:nonzero;stroke:none"
       transform="matrix(0.94873593,0,0,0.94873593,-376.53729,-2359.4549)"
       clip-path="url(#clipPath14)" />
    <g
       id="g14" />
    <g
       id="g15" />
    <text
       id="text15"
       xml:space="preserve"
       transform="matrix(0.94873593,0,0,0.94873593,114.8931,118.64334)"
       clip-path="url(#clipPath15)"><tspan
         id="tspan15"
         style="font-variant:normal;font-weight:normal;font-size:12px;font-family:Arial;writing-mode:lr-tb;fill:#000000;fill-opacity:1;fill-rule:nonzero;stroke:none"
         x="0"
         y="0"> param-b* </tspan></text>
    <path
       id="path16"
       d="m 520,2493 h 52 v 15 h -52 z"
       style="fill:#ffffff;fill-opacity:1;fill-rule:nonzero;stroke:none"
       transform="matrix(0.94873593,0,0,0.94873593,-376.53729,-2359.4549)"
       clip-path="url(#clipPath17)" />
    <g
       id="g17" />
    <g
       id="g18" />
    <text
       id="text18"
       xml:space="preserve"
       transform="matrix(0.94873593,0,0,0.94873593,116.47926,16.179855)"
       clip-path="url(#clipPath18)"><tspan
         id="tspan18"
         style="font-variant:normal;font-weight:normal;font-size:12px;font-family:Arial;writing-mode:lr-tb;fill:#000000;fill-opacity:1;fill-rule:nonzero;stroke:none"
         x="0"
         y="0"> param-t* </tspan></text>
    <path
       id="path19"
       d="m 452,2512.3301 h 13.09 v 10 H 452 l 3,-5 z"
       style="fill:#000000;fill-opacity:1;fill-rule:nonzero;stroke:#000000;stroke-width:1;stroke-linecap:butt;stroke-linejoin:miter;stroke-miterlimit:10;stroke-dasharray:none;stroke-opacity:1"
       transform="matrix(0.94873593,0,0,0.94873593,-376.06292,-2358.9807)"
       clip-path="url(#clipPath20)" />
  </g>
</svg>
