<?xml version="1.0" encoding="UTF-8" standalone="no"?>
<!-- Created with Inkscape (http://www.inkscape.org/) -->

<svg
   version="1.1"
   id="svg1"
   width="286.72"
   height="128"
   viewBox="0 0 286.72 128"
   xmlns="http://www.w3.org/2000/svg"
   xmlns:svg="http://www.w3.org/2000/svg">
  <defs
     id="defs1">
    <clipPath
       clipPathUnits="userSpaceOnUse"
       id="clipPath2">
      <path
         d="M 0,0 H 893.99414 V 399.02344 H 0 Z"
         transform="scale(0.31999999)"
         clip-rule="evenodd"
         id="path2" />
    </clipPath>
    <clipPath
       clipPathUnits="userSpaceOnUse"
       id="clipPath4">
      <path
         d="m 3.125,0 h 887.5 V 399.02344 H 3.125 Z"
         transform="matrix(0.33729089,0,0,0.33729089,412.38312,1157.446)"
         clip-rule="evenodd"
         id="path4" />
    </clipPath>
    <clipPath
       clipPathUnits="userSpaceOnUse"
       id="clipPath5">
      <path
         d="m 3.125,0 h 887.5 V 399.02344 H 3.125 Z"
         transform="matrix(0.33729089,0,0,0.33729089,-80.085627,-43.054029)"
         clip-rule="evenodd"
         id="path5" />
    </clipPath>
    <clipPath
       clipPathUnits="userSpaceOnUse"
       id="clipPath6">
      <path
         d="m 3.125,0 h 887.5 V 399.02344 H 3.125 Z"
         transform="matrix(0.33729089,0,0,0.33729089,-107.42938,-71.054029)"
         clip-rule="evenodd"
         id="path6" />
    </clipPath>
    <clipPath
       clipPathUnits="userSpaceOnUse"
       id="clipPath7">
      <path
         d="m 3.125,0 h 887.5 V 399.02344 H 3.125 Z"
         transform="matrix(0.33729089,0,0,0.33729089,-99.101258,-100.05403)"
         clip-rule="evenodd"
         id="path7" />
    </clipPath>
    <clipPath
       clipPathUnits="userSpaceOnUse"
       id="clipPath9">
      <path
         d="m 3.125,0 h 887.5 V 399.02344 H 3.125 Z"
         transform="matrix(0.33729089,0,0,0.33729089,412.88312,1157.9459)"
         clip-rule="evenodd"
         id="path9" />
    </clipPath>
    <clipPath
       clipPathUnits="userSpaceOnUse"
       id="clipPath10">
      <path
         d="m 3.125,0 h 887.5 V 399.02344 H 3.125 Z"
         transform="matrix(0.33729089,0,0,0.33729089,-5.4293776,-70.054029)"
         clip-rule="evenodd"
         id="path10" />
    </clipPath>
    <clipPath
       clipPathUnits="userSpaceOnUse"
       id="clipPath12">
      <path
         d="m 3.125,0 h 887.5 V 399.02344 H 3.125 Z"
         transform="matrix(0.33729089,0,0,0.33729089,412.88312,1157.9459)"
         clip-rule="evenodd"
         id="path12" />
    </clipPath>
    <clipPath
       clipPathUnits="userSpaceOnUse"
       id="clipPath13">
      <path
         d="m 3.125,0 h 887.5 V 399.02344 H 3.125 Z"
         transform="matrix(0.33729089,0,0,0.33729089,-248.77312,-70.054029)"
         clip-rule="evenodd"
         id="path13" />
    </clipPath>
    <clipPath
       clipPathUnits="userSpaceOnUse"
       id="clipPath15">
      <path
         d="m 3.125,0 h 887.5 V 399.02344 H 3.125 Z"
         transform="matrix(0.33729089,0,0,0.33729089,412.88312,1157.9459)"
         clip-rule="evenodd"
         id="path15" />
    </clipPath>
    <clipPath
       clipPathUnits="userSpaceOnUse"
       id="clipPath16">
      <path
         d="m 3.125,0 h 887.5 V 399.02344 H 3.125 Z"
         transform="matrix(0.33729089,0,0,0.33729089,-121.10125,-125.05403)"
         clip-rule="evenodd"
         id="path16" />
    </clipPath>
    <clipPath
       clipPathUnits="userSpaceOnUse"
       id="clipPath18">
      <path
         d="m 3.125,0 h 887.5 V 399.02344 H 3.125 Z"
         transform="matrix(0.33729089,0,0,0.33729089,412.88312,1157.9459)"
         clip-rule="evenodd"
         id="path18" />
    </clipPath>
    <clipPath
       clipPathUnits="userSpaceOnUse"
       id="clipPath19">
      <path
         d="m 3.125,0 h 887.5 V 399.02344 H 3.125 Z"
         transform="matrix(0.33729089,0,0,0.33729089,-122.77313,-17.054029)"
         clip-rule="evenodd"
         id="path19" />
    </clipPath>
  </defs>
  <g
     id="g1">
    <path
       id="path1"
       d="M 0,0 H 286 V 128 H 0 Z"
       style="fill:#ffffff;fill-opacity:1;fill-rule:nonzero;stroke:none"
       clip-path="url(#clipPath2)" />
    <path
       id="path3"
       d="m 476.13998,1172.03 h 172.47001 c 0.80511,2e-4 1.60821,0.04 2.4093,0.1184 0.80114,0.079 1.59649,0.1969 2.38598,0.3539 0.78955,0.1571 1.56952,0.3524 2.33991,0.5862 0.77032,0.2338 1.5274,0.5045 2.27112,0.8125 0.74371,0.3081 1.47058,0.6519 2.1806,1.0314 0.70996,0.3795 1.3996,0.7928 2.06897,1.2401 0.66937,0.4474 1.31525,0.9264 1.9375,1.437 0.62231,0.5106 1.21808,1.0505 1.78729,1.6198 0.56928,0.5693 1.10925,1.1651 1.61994,1.7873 0.51074,0.6223 0.98968,1.2681 1.43689,1.9373 0.44726,0.6694 0.86059,1.3591 1.24005,2.0692 0.37951,0.7099 0.72326,1.4367 1.03131,2.1805 0.3081,0.7438 0.57904,1.5008 0.81274,2.2711 0.23371,0.7704 0.42902,1.5505 0.58606,2.3399 0.15711,0.7896 0.27509,1.5851 0.35401,2.3861 0.0789,0.8013 0.1184,1.6044 0.11834,2.4093 v 57.7101 c 6e-5,0.805 -0.0394,1.6082 -0.11828,2.4094 -0.0789,0.801 -0.19696,1.5963 -0.35407,2.3859 -0.15704,0.7895 -0.35235,1.5694 -0.58606,2.3398 -0.2337,0.7704 -0.50464,1.5275 -0.81268,2.2711 -0.30805,0.7438 -0.65186,1.4707 -1.03131,2.1808 -0.37946,0.7098 -0.79279,1.3994 -1.24005,2.0687 -0.44721,0.6693 -0.92621,1.3152 -1.43689,1.9377 -0.51068,0.6223 -1.05072,1.218 -1.62,1.7872 -0.56921,0.5693 -1.16498,1.1094 -1.78729,1.62 -0.62225,0.5106 -1.26813,0.9896 -1.93756,1.4368 -0.66937,0.4472 -1.35901,0.8607 -2.06897,1.2402 -0.70996,0.3794 -1.43683,0.7231 -2.1806,1.0311 -0.74372,0.3081 -1.50074,0.579 -2.27106,0.8128 -0.77039,0.2337 -1.55036,0.429 -2.33991,0.5861 -0.78949,0.1571 -1.58484,0.2752 -2.38598,0.3542 -0.80109,0.079 -1.60419,0.1181 -2.4093,0.1181 H 476.13998 c -0.80502,0 -1.60809,-0.039 -2.40924,-0.1181 -0.80117,-0.079 -1.59652,-0.1971 -2.38607,-0.3542 -0.78956,-0.1571 -1.56952,-0.3524 -2.33991,-0.5861 -0.77035,-0.2338 -1.52743,-0.5047 -2.27118,-0.8128 -0.74374,-0.308 -1.47058,-0.6517 -2.18054,-1.0311 -0.70999,-0.3795 -1.39966,-0.793 -2.06903,-1.2402 -0.66934,-0.4472 -1.31513,-0.9262 -1.93741,-1.4369 -0.62231,-0.5108 -1.21808,-1.0508 -1.78732,-1.62 -0.56922,-0.5693 -1.10919,-1.1651 -1.61991,-1.7873 -0.51068,-0.6223 -0.98965,-1.2682 -1.43695,-1.9375 -0.44723,-0.6693 -0.86059,-1.3589 -1.24008,-2.0689 -0.37948,-0.7099 -0.72327,-1.4368 -1.03134,-2.1806 -0.30808,-0.7436 -0.57892,-1.5007 -0.81259,-2.2711 -0.23367,-0.7704 -0.42905,-1.5503 -0.58612,-2.3398 -0.15705,-0.7896 -0.27503,-1.5849 -0.35391,-2.3859 -0.0789,-0.8012 -0.11838,-1.6044 -0.11838,-2.4094 V 1196.61 c 0,-0.8049 0.0395,-1.608 0.11834,-2.4093 0.0789,-0.801 0.1969,-1.5965 0.35392,-2.3861 0.15707,-0.7896 0.35244,-1.5695 0.58615,-2.3399 0.23367,-0.7703 0.50451,-1.5274 0.81259,-2.2712 0.30807,-0.7438 0.65186,-1.4706 1.03134,-2.1804 0.37949,-0.7101 0.79285,-1.3998 1.24008,-2.0692 0.4473,-0.6692 0.92627,-1.315 1.43695,-1.9373 0.51072,-0.6222 1.05069,-1.218 1.61991,-1.7873 0.56924,-0.5693 1.16501,-1.1092 1.78729,-1.6198 0.62228,-0.5106 1.2681,-0.9896 1.93744,-1.437 0.66937,-0.4473 1.35904,-0.8606 2.069,-1.2401 0.70999,-0.3795 1.43683,-0.7233 2.18057,-1.0314 0.74375,-0.308 1.50083,-0.5787 2.27118,-0.8125 0.77039,-0.2336 1.55035,-0.4289 2.33991,-0.5861 0.78955,-0.1569 1.5849,-0.2749 2.38607,-0.3538 0.80115,-0.079 1.60422,-0.1184 2.40924,-0.1186 z"
       style="fill:#ffffff;fill-opacity:1;fill-rule:nonzero;stroke:#000000;stroke-width:1;stroke-linecap:butt;stroke-linejoin:miter;stroke-miterlimit:10;stroke-dasharray:none;stroke-opacity:1"
       transform="matrix(0.94873593,0,0,0.94873593,-391.24268,-1098.1106)"
       clip-path="url(#clipPath4)" />
    <text
       id="text4"
       xml:space="preserve"
       transform="matrix(0.94873593,0,0,0.94873593,75.980112,40.846904)"
       clip-path="url(#clipPath5)"><tspan
         id="tspan4"
         style="font-variant:normal;font-weight:normal;font-size:12px;font-family:Arial;writing-mode:lr-tb;fill:#000000;fill-opacity:1;fill-rule:nonzero;stroke:none"
         x="0"
         y="0">action-name-compartment</tspan></text>
    <text
       id="text5"
       xml:space="preserve"
       transform="matrix(0.94873593,0,0,0.94873593,101.92211,67.41151)"
       clip-path="url(#clipPath6)"><tspan
         id="tspan5"
         style="font-variant:normal;font-weight:normal;font-size:12px;font-family:Arial;writing-mode:lr-tb;fill:#000000;fill-opacity:1;fill-rule:nonzero;stroke:none"
         x="0"
         y="0">action-flow-view</tspan></text>
    <text
       id="text6"
       xml:space="preserve"
       transform="matrix(0.94873593,0,0,0.94873593,94.020924,94.924852)"
       clip-path="url(#clipPath7)"><tspan
         id="tspan6"
         style="font-variant:normal;font-weight:normal;font-size:12px;font-family:Arial;writing-mode:lr-tb;fill:#000000;fill-opacity:1;fill-rule:nonzero;stroke:none"
         x="0"
         y="0">compartment-stack</tspan></text>
    <path
       id="path8"
       d="m 418,1217 h 46 v 15 h -46 z"
       style="fill:#ffffff;fill-opacity:1;fill-rule:nonzero;stroke:none"
       transform="matrix(0.94873593,0,0,0.94873593,-391.71705,-1098.5849)"
       clip-path="url(#clipPath9)" />
    <text
       id="text9"
       xml:space="preserve"
       transform="matrix(0.94873593,0,0,0.94873593,5.1510456,66.462774)"
       clip-path="url(#clipPath10)"><tspan
         id="tspan9"
         style="font-variant:normal;font-weight:normal;font-size:12px;font-family:Arial;writing-mode:lr-tb;fill:#000000;fill-opacity:1;fill-rule:nonzero;stroke:none"
         x="0"
         y="0">param-l*</tspan></text>
    <path
       id="path11"
       d="m 662,1217 h 46 v 15 h -46 z"
       style="fill:#ffffff;fill-opacity:1;fill-rule:nonzero;stroke:none"
       transform="matrix(0.94873593,0,0,0.94873593,-391.71705,-1098.5849)"
       clip-path="url(#clipPath12)" />
    <text
       id="text12"
       xml:space="preserve"
       transform="matrix(0.94873593,0,0,0.94873593,236.02,66.462774)"
       clip-path="url(#clipPath13)"><tspan
         id="tspan12"
         style="font-variant:normal;font-weight:normal;font-size:12px;font-family:Arial;writing-mode:lr-tb;fill:#000000;fill-opacity:1;fill-rule:nonzero;stroke:none"
         x="0"
         y="0">param-r*</tspan></text>
    <path
       id="path14"
       d="m 534,1272 h 56 v 15 h -56 z"
       style="fill:#ffffff;fill-opacity:1;fill-rule:nonzero;stroke:none"
       transform="matrix(0.94873593,0,0,0.94873593,-391.71705,-1098.5849)"
       clip-path="url(#clipPath15)" />
    <g
       id="g15" />
    <g
       id="g16" />
    <text
       id="text16"
       xml:space="preserve"
       transform="matrix(0.94873593,0,0,0.94873593,114.89311,118.64325)"
       clip-path="url(#clipPath16)"><tspan
         id="tspan16"
         style="font-variant:normal;font-weight:normal;font-size:12px;font-family:Arial;writing-mode:lr-tb;fill:#000000;fill-opacity:1;fill-rule:nonzero;stroke:none"
         x="0"
         y="0"> param-b* </tspan></text>
    <path
       id="path17"
       d="m 536,1164 h 52 v 15 h -52 z"
       style="fill:#ffffff;fill-opacity:1;fill-rule:nonzero;stroke:none"
       transform="matrix(0.94873593,0,0,0.94873593,-391.71705,-1098.5849)"
       clip-path="url(#clipPath18)" />
    <g
       id="g18" />
    <g
       id="g19" />
    <text
       id="text19"
       xml:space="preserve"
       transform="matrix(0.94873593,0,0,0.94873593,116.47928,16.17977)"
       clip-path="url(#clipPath19)"><tspan
         id="tspan19"
         style="font-variant:normal;font-weight:normal;font-size:12px;font-family:Arial;writing-mode:lr-tb;fill:#000000;fill-opacity:1;fill-rule:nonzero;stroke:none"
         x="0"
         y="0"> param-t* </tspan></text>
  </g>
</svg>
