<?xml version="1.0" encoding="UTF-8" standalone="no"?>
<!-- Created with Inkscape (http://www.inkscape.org/) -->

<svg
   version="1.1"
   id="svg1"
   width="389.44"
   height="32"
   viewBox="0 0 389.44 32"
   xmlns="http://www.w3.org/2000/svg"
   xmlns:svg="http://www.w3.org/2000/svg">
  <defs
     id="defs1">
    <clipPath
       clipPathUnits="userSpaceOnUse"
       id="clipPath2">
      <path
         d="M 0,0 H 1214.9902 V 101 H 0 Z"
         transform="scale(0.31999999)"
         clip-rule="evenodd"
         id="path2" />
    </clipPath>
    <clipPath
       clipPathUnits="userSpaceOnUse"
       id="clipPath4">
      <path
         d="M 6.25,0 H 1209.375 V 101 H 6.25 Z"
         transform="matrix(0.33855295,0,0,0.33855295,305.22452,3108.4999)"
         clip-rule="evenodd"
         id="path4" />
    </clipPath>
    <clipPath
       clipPathUnits="userSpaceOnUse"
       id="clipPath6">
      <path
         d="M 6.25,0 H 1209.375 V 101 H 6.25 Z"
         transform="matrix(0.33855295,0,0,0.33855295,305.72451,3108.9999)"
         clip-rule="evenodd"
         id="path6" />
    </clipPath>
    <clipPath
       clipPathUnits="userSpaceOnUse"
       id="clipPath7">
      <path
         d="M 6.25,0 H 1209.375 V 101 H 6.25 Z"
         transform="matrix(0.33855295,0,0,0.33855295,-23.244236,-19.000135)"
         clip-rule="evenodd"
         id="path7" />
    </clipPath>
    <clipPath
       clipPathUnits="userSpaceOnUse"
       id="clipPath9">
      <path
         d="M 6.25,0 H 1209.375 V 101 H 6.25 Z"
         transform="matrix(0.33855295,0,0,0.33855295,305.72451,3108.9999)"
         clip-rule="evenodd"
         id="path9" />
    </clipPath>
    <clipPath
       clipPathUnits="userSpaceOnUse"
       id="clipPath10">
      <path
         d="M 6.25,0 H 1209.375 V 101 H 6.25 Z"
         transform="matrix(0.33855295,0,0,0.33855295,-290.24424,-20.000135)"
         clip-rule="evenodd"
         id="path10" />
    </clipPath>
    <clipPath
       clipPathUnits="userSpaceOnUse"
       id="clipPath11">
      <path
         d="M 6.25,0 H 1209.375 V 101 H 6.25 Z"
         transform="matrix(0.33855295,0,0,0.33855295,-198.47861,-13.000136)"
         clip-rule="evenodd"
         id="path11" />
    </clipPath>
  </defs>
  <g
     id="g1">
    <path
       id="path1"
       d="M 0,0 H 389 V 33 H 0 Z"
       style="fill:#ffffff;fill-opacity:1;fill-rule:nonzero;stroke:none"
       clip-path="url(#clipPath2)" />
    <path
       id="path3"
       d="M 428,3124 H 591.13"
       style="fill:none;stroke:#000000;stroke-width:1;stroke-linecap:butt;stroke-linejoin:miter;stroke-miterlimit:10;stroke-dasharray:none;stroke-opacity:1"
       transform="matrix(0.94519922,0,0,0.94519922,-288.49798,-2938.1517)"
       clip-path="url(#clipPath4)" />
    <path
       id="path5"
       d="m 329,3117 h 96 v 15 h -96 z"
       style="fill:#ffffff;fill-opacity:1;fill-rule:nonzero;stroke:none"
       transform="matrix(0.94519922,0,0,0.94519922,-288.97057,-2938.6243)"
       clip-path="url(#clipPath6)" />
    <text
       id="text6"
       xml:space="preserve"
       transform="matrix(0.94519922,0,0,0.94519922,21.970434,17.958913)"
       clip-path="url(#clipPath7)"><tspan
         id="tspan6"
         style="font-variant:normal;font-weight:normal;font-size:12px;font-family:Arial;writing-mode:lr-tb;fill:#000000;fill-opacity:1;fill-rule:nonzero;stroke:none"
         x="0"
         y="0">&amp;action-flow-node</tspan></text>
    <path
       id="path8"
       d="m 596,3118 h 96 v 15 h -96 z"
       style="fill:#ffffff;fill-opacity:1;fill-rule:nonzero;stroke:none"
       transform="matrix(0.94519922,0,0,0.94519922,-288.97057,-2938.6243)"
       clip-path="url(#clipPath9)" />
    <text
       id="text9"
       xml:space="preserve"
       transform="matrix(0.94519922,0,0,0.94519922,274.33863,18.904112)"
       clip-path="url(#clipPath10)"><tspan
         id="tspan9"
         style="font-variant:normal;font-weight:normal;font-size:12px;font-family:Arial;writing-mode:lr-tb;fill:#000000;fill-opacity:1;fill-rule:nonzero;stroke:none"
         x="0"
         y="0">&amp;action-flow-node</tspan></text>
    <text
       id="text10"
       xml:space="preserve"
       transform="matrix(0.94519922,0,0,0.94519922,187.60183,12.287718)"
       clip-path="url(#clipPath11)"><tspan
         id="tspan10"
         style="font-variant:normal;font-weight:normal;font-size:12px;font-family:Arial;writing-mode:lr-tb;fill:#000000;fill-opacity:1;fill-rule:nonzero;stroke:none"
         x="0"
         y="0">'='</tspan></text>
  </g>
</svg>
