<?xml version="1.0" encoding="UTF-8" standalone="no"?>
<!-- Created with Inkscape (http://www.inkscape.org/) -->

<svg
   version="1.1"
   id="svg1"
   width="272"
   height="16"
   viewBox="0 0 272 16"
   xmlns="http://www.w3.org/2000/svg"
   xmlns:svg="http://www.w3.org/2000/svg">
  <defs
     id="defs1">
    <clipPath
       clipPathUnits="userSpaceOnUse"
       id="clipPath2">
      <path
         d="M 0,0 H 849.02344 V 50.976563 H 0 Z"
         transform="scale(0.31999999)"
         clip-rule="evenodd"
         id="path2" />
    </clipPath>
    <clipPath
       clipPathUnits="userSpaceOnUse"
       id="clipPath4">
      <path
         d="m 9.375,0 h 831.25 V 50.976563 H 9.375 Z"
         transform="matrix(0.34362407,0,0,0.34362407,114.57554,1238.9999)"
         clip-rule="evenodd"
         id="path4" />
    </clipPath>
    <clipPath
       clipPathUnits="userSpaceOnUse"
       id="clipPath6">
      <path
         d="m 9.375,0 h 831.25 V 50.976563 H 9.375 Z"
         transform="matrix(0.34362407,0,0,0.34362407,115.07553,1239.5)"
         clip-rule="evenodd"
         id="path6" />
    </clipPath>
    <clipPath
       clipPathUnits="userSpaceOnUse"
       id="clipPath7">
      <path
         d="m 9.375,0 h 831.25 V 50.976563 H 9.375 Z"
         transform="matrix(0.34362407,0,0,0.34362407,-114.78386,-12.500001)"
         clip-rule="evenodd"
         id="path7" />
    </clipPath>
    <clipPath
       clipPathUnits="userSpaceOnUse"
       id="clipPath8">
      <path
         d="m 9.375,0 h 831.25 V 50.976563 H 9.375 Z"
         transform="matrix(0.34362407,0,0,0.34362407,-117.08073,-12.500001)"
         clip-rule="evenodd"
         id="path8" />
    </clipPath>
    <clipPath
       clipPathUnits="userSpaceOnUse"
       id="clipPath9">
      <path
         d="m 9.375,0 h 831.25 V 50.976563 H 9.375 Z"
         transform="matrix(0.34362407,0,0,0.34362407,-173.78386,-12.500001)"
         clip-rule="evenodd"
         id="path9" />
    </clipPath>
  </defs>
  <g
     id="g1">
    <path
       id="path1"
       d="M 0,0 H 272 V 16 H 0 Z"
       style="fill:#ffffff;fill-opacity:1;fill-rule:nonzero;stroke:none"
       clip-path="url(#clipPath2)" />
    <path
       id="path3"
       d="m 120,1240 280,1"
       style="fill:none;stroke:#000000;stroke-width:1;stroke-linecap:butt;stroke-linejoin:miter;stroke-miterlimit:10;stroke-dasharray:none;stroke-opacity:1"
       transform="matrix(0.9312502,0,0,0.9312502,-106.69849,-1153.8189)"
       clip-path="url(#clipPath4)" />
    <path
       id="path5"
       d="m 230,1241 h 61 v 14 h -61 z"
       style="fill:#ffffff;fill-opacity:1;fill-rule:nonzero;stroke:none"
       transform="matrix(0.9312502,0,0,0.9312502,-107.16411,-1154.2846)"
       clip-path="url(#clipPath6)" />
    <text
       id="text6"
       xml:space="preserve"
       transform="matrix(0.9312502,0,0,0.9312502,106.89249,11.640628)"
       clip-path="url(#clipPath7)"><tspan
         id="tspan6"
         style="font-variant:normal;font-weight:normal;font-size:12px;font-family:Arial;writing-mode:lr-tb;fill:#000000;fill-opacity:1;fill-rule:nonzero;stroke:none"
         x="0"
         y="0">'</tspan></text>
    <text
       id="text7"
       xml:space="preserve"
       transform="matrix(0.9312502,0,0,0.9312502,109.03145,11.640628)"
       clip-path="url(#clipPath8)"><tspan
         id="tspan7"
         style="font-style:italic;font-variant:normal;font-weight:normal;font-size:12px;font-family:Arial;writing-mode:lr-tb;fill:#000000;fill-opacity:1;fill-rule:nonzero;stroke:none"
         x="0"
         y="0">action flow</tspan></text>
    <text
       id="text8"
       xml:space="preserve"
       transform="matrix(0.9312502,0,0,0.9312502,161.83625,11.640628)"
       clip-path="url(#clipPath9)"><tspan
         id="tspan8"
         style="font-variant:normal;font-weight:normal;font-size:12px;font-family:Arial;writing-mode:lr-tb;fill:#000000;fill-opacity:1;fill-rule:nonzero;stroke:none"
         x="0"
         y="0">'</tspan></text>
  </g>
</svg>
