<?xml version="1.0" encoding="UTF-8" standalone="no"?>
<!-- Created with Inkscape (http://www.inkscape.org/) -->

<svg
   version="1.1"
   id="svg1"
   width="62.719997"
   height="128"
   viewBox="0 0 62.719997 128"
   xmlns="http://www.w3.org/2000/svg"
   xmlns:svg="http://www.w3.org/2000/svg">
  <defs
     id="defs1">
    <clipPath
       clipPathUnits="userSpaceOnUse"
       id="clipPath2">
      <path
         d="M 0,0 H 195.01953 V 399.02344 H 0 Z"
         transform="scale(0.31999999)"
         clip-rule="evenodd"
         id="path2" />
    </clipPath>
    <clipPath
       clipPathUnits="userSpaceOnUse"
       id="clipPath4">
      <path
         d="m 3.125,9.375 h 187.5 v 381.25 H 3.125 Z"
         transform="matrix(0.35508277,0,0,0.35508277,87.060606,1154.5615)"
         clip-rule="evenodd"
         id="path4" />
    </clipPath>
    <clipPath
       clipPathUnits="userSpaceOnUse"
       id="clipPath6">
      <path
         d="m 3.125,9.375 h 187.5 v 381.25 H 3.125 Z"
         transform="matrix(0.35508277,0,0,0.35508277,87.060606,1154.5615)"
         clip-rule="evenodd"
         id="path6" />
    </clipPath>
    <clipPath
       clipPathUnits="userSpaceOnUse"
       id="clipPath8">
      <path
         d="m 3.125,9.375 h 187.5 v 381.25 H 3.125 Z"
         transform="matrix(0.35508277,0,0,0.35508277,87.560595,1155.0614)"
         clip-rule="evenodd"
         id="path8" />
    </clipPath>
    <clipPath
       clipPathUnits="userSpaceOnUse"
       id="clipPath9">
      <path
         d="m 3.125,9.375 h 187.5 v 381.25 H 3.125 Z"
         transform="matrix(0.35508277,0,0,0.35508277,-4.4394051,-132.93856)"
         clip-rule="evenodd"
         id="path9" />
    </clipPath>
  </defs>
  <g
     id="g1">
    <path
       id="path1"
       d="M 0,0 H 62 V 128 H 0 Z"
       style="fill:#ffffff;fill-opacity:1;fill-rule:nonzero;stroke:none"
       clip-path="url(#clipPath2)" />
    <path
       id="path3"
       d="m 127.78,1173.75 c -1e-5,0.9028 -0.0801,1.797 -0.2402,2.6824 -0.16013,0.8855 -0.39724,1.7452 -0.71132,2.5793 -0.3141,0.8341 -0.69913,1.6265 -1.15512,2.3771 -0.45599,0.7507 -0.97417,1.4453 -1.55453,2.0837 -0.58037,0.6383 -1.21178,1.2084 -1.89422,1.71 -0.68244,0.5016 -1.4028,0.925 -2.16109,1.2706 -0.75828,0.3456 -1.53991,0.6065 -2.3449,0.7826 -0.80499,0.1762 -1.61787,0.2643 -2.43862,0.2643 -0.82077,0 -1.63365,-0.088 -2.43865,-0.2643 -0.80499,-0.1761 -1.58663,-0.437 -2.3449,-0.7826 -0.75829,-0.3456 -1.47865,-0.769 -2.16109,-1.2706 -0.68244,-0.5016 -1.31384,-1.0717 -1.8942,-1.71 -0.58037,-0.6384 -1.09855,-1.333 -1.55454,-2.0837 -0.45599,-0.7506 -0.84103,-1.543 -1.15513,-2.3771 -0.31409,-0.8341 -0.5512,-1.6938 -0.71133,-2.5793 -0.16011,-0.8854 -0.24017,-1.7796 -0.24016,-2.6824 -1e-5,-0.9029 0.08,-1.7971 0.24016,-2.6826 0.16013,-0.8856 0.39724,-1.7454 0.71132,-2.5795 0.31409,-0.8341 0.69913,-1.6265 1.15512,-2.3771 0.456,-0.7506 0.97418,-1.4451 1.55455,-2.0836 0.58037,-0.6384 1.21177,-1.2085 1.89421,-1.7101 0.68244,-0.5015 1.4028,-0.925 2.16109,-1.2706 0.75827,-0.3456 1.53991,-0.6063 2.34491,-0.7823 0.80499,-0.1762 1.61787,-0.2642 2.43864,-0.2642 0.82075,0 1.63363,0.088 2.43862,0.2642 0.80499,0.176 1.58662,0.4367 2.34491,0.7823 0.75829,0.3456 1.47865,0.7692 2.16109,1.2708 0.68244,0.5016 1.31384,1.0715 1.89421,1.7099 0.58036,0.6385 1.09854,1.333 1.55453,2.0836 0.45599,0.7506 0.84102,1.543 1.15512,2.3771 0.31408,0.8341 0.55119,1.6939 0.71132,2.5795 0.16013,0.8855 0.24019,1.7797 0.2402,2.6826 z"
       style="fill:none;stroke:#000000;stroke-width:1;stroke-linecap:butt;stroke-linejoin:miter;stroke-miterlimit:10;stroke-dasharray:none;stroke-opacity:1"
       transform="matrix(0.9011983,0,0,0.9011983,-78.45887,-1040.4889)"
       clip-path="url(#clipPath4)" />
    <path
       id="path5"
       d="m 115.28,1187.5 v 45.83 m 0,-36.66 H 90.279999 m 25.000001,0 h 25 m -25,36.66 -25.000001,36.67 m 25.000001,-36.67 25,36.67"
       style="fill:none;stroke:#000000;stroke-width:1;stroke-linecap:butt;stroke-linejoin:miter;stroke-miterlimit:10;stroke-dasharray:none;stroke-opacity:1"
       transform="matrix(0.9011983,0,0,0.9011983,-78.45887,-1040.4889)"
       clip-path="url(#clipPath6)" />
    <path
       id="path7"
       d="m 92,1277 h 61 v 14 H 92 Z"
       style="fill:#ffffff;fill-opacity:1;fill-rule:nonzero;stroke:none"
       transform="matrix(0.9011983,0,0,0.9011983,-78.909459,-1040.9394)"
       clip-path="url(#clipPath8)" />
    <text
       id="text8"
       xml:space="preserve"
       transform="matrix(0.9011983,0,0,0.9011983,4.0007843,119.804)"
       clip-path="url(#clipPath9)"><tspan
         id="tspan8"
         style="font-variant:normal;font-weight:normal;font-size:12px;font-family:Arial;writing-mode:lr-tb;fill:#000000;fill-opacity:1;fill-rule:nonzero;stroke:none"
         x="0"
         y="0">actor-name</tspan></text>
  </g>
</svg>
