<?xml version="1.0" encoding="UTF-8" standalone="no"?>
<!-- Created with Inkscape (http://www.inkscape.org/) -->

<svg
   version="1.1"
   id="svg1"
   width="117.44"
   height="60.16"
   viewBox="0 0 117.44 60.16"
   xmlns="http://www.w3.org/2000/svg"
   xmlns:svg="http://www.w3.org/2000/svg">
  <defs
     id="defs1">
    <clipPath
       clipPathUnits="userSpaceOnUse"
       id="clipPath2">
      <path
         d="M 0,0 H 366.01563 V 189 H 0 Z"
         transform="scale(0.31999999)"
         clip-rule="evenodd"
         id="path2" />
    </clipPath>
    <clipPath
       clipPathUnits="userSpaceOnUse"
       id="clipPath4">
      <path
         d="M 3.125,0 H 362.5 V 187.5 H 3.125 Z"
         transform="matrix(0.34603947,0,0,0.34603947,227.10914,1202.9187)"
         clip-rule="evenodd"
         id="path4" />
    </clipPath>
    <clipPath
       clipPathUnits="userSpaceOnUse"
       id="clipPath6">
      <path
         d="M 3.125,0 H 362.5 V 187.5 H 3.125 Z"
         transform="matrix(0.34603947,0,0,0.34603947,227.60913,1203.4186)"
         clip-rule="evenodd"
         id="path6" />
    </clipPath>
    <clipPath
       clipPathUnits="userSpaceOnUse"
       id="clipPath7">
      <path
         d="M 3.125,0 H 362.5 V 187.5 H 3.125 Z"
         transform="matrix(0.34603947,0,0,0.34603947,-41.390867,-19.581386)"
         clip-rule="evenodd"
         id="path7" />
    </clipPath>
    <clipPath
       clipPathUnits="userSpaceOnUse"
       id="clipPath9">
      <path
         d="M 3.125,0 H 362.5 V 187.5 H 3.125 Z"
         transform="matrix(0.34603947,0,0,0.34603947,227.60913,1203.4186)"
         clip-rule="evenodd"
         id="path9" />
    </clipPath>
    <clipPath
       clipPathUnits="userSpaceOnUse"
       id="clipPath10">
      <path
         d="M 3.125,0 H 362.5 V 187.5 H 3.125 Z"
         transform="matrix(0.34603947,0,0,0.34603947,-32.531497,-40.581386)"
         clip-rule="evenodd"
         id="path10" />
    </clipPath>
  </defs>
  <g
     id="g1">
    <path
       id="path1"
       d="M 0,0 H 117 V 60 H 0 Z"
       style="fill:#ffffff;fill-opacity:1;fill-rule:nonzero;stroke:none"
       clip-path="url(#clipPath2)" />
    <path
       id="path3"
       d="m 239.28,1205 h 102 c 0.59094,0 1.17621,0.058 1.7558,0.1729 0.57956,0.1153 1.14233,0.286 1.68829,0.512 0.54596,0.2262 1.06464,0.5035 1.556,0.8318 0.49136,0.3284 0.94598,0.7014 1.36386,1.1193 0.41788,0.4178 0.79096,0.8724 1.11923,1.3638 0.32834,0.4913 0.60556,1.01 0.8317,1.556 0.22613,0.5459 0.39685,1.1086 0.51215,1.6883 0.11529,0.5796 0.17294,1.165 0.17297,1.7559 v 42 c -3e-5,0.5909 -0.0577,1.1762 -0.17301,1.7557 -0.11526,0.5795 -0.28598,1.1423 -0.51211,1.6883 -0.22614,0.546 -0.50336,1.0647 -0.8317,1.556 -0.32827,0.4913 -0.70135,0.946 -1.11923,1.3639 -0.41788,0.4178 -0.8725,0.7908 -1.36386,1.119 -0.49136,0.3284 -1.01004,0.6056 -1.556,0.8318 -0.54596,0.2261 -1.10873,0.3969 -1.68829,0.5122 -0.57959,0.1154 -1.16486,0.1731 -1.7558,0.1731 h -102 c -0.59096,0 -1.17622,-0.058 -1.75583,-0.1731 -0.57961,-0.1153 -1.1424,-0.2861 -1.68835,-0.5122 -0.54596,-0.2262 -1.06463,-0.5034 -1.55597,-0.8318 -0.49135,-0.3282 -0.94596,-0.7012 -1.36382,-1.119 -0.41788,-0.4179 -0.79097,-0.8726 -1.11929,-1.3639 -0.32831,-0.4913 -0.60553,-1.01 -0.83168,-1.556 -0.22615,-0.546 -0.39685,-1.1088 -0.51213,-1.6883 -0.1153,-0.5795 -0.17295,-1.1648 -0.17293,-1.7557 v -42 c -2e-5,-0.5909 0.0576,-1.1763 0.17293,-1.7559 0.11528,-0.5797 0.28598,-1.1424 0.51213,-1.6883 0.22615,-0.546 0.50337,-1.0647 0.83168,-1.556 0.32832,-0.4914 0.70141,-0.946 1.11929,-1.3638 0.41786,-0.4179 0.87247,-0.7909 1.36382,-1.1193 0.49134,-0.3283 1.01001,-0.6056 1.55597,-0.8318 0.54595,-0.226 1.10874,-0.3967 1.68835,-0.512 0.57961,-0.1153 1.16487,-0.1729 1.75583,-0.1729 z"
       style="fill:none;stroke:#000000;stroke-width:1;stroke-linecap:butt;stroke-linejoin:miter;stroke-miterlimit:10;stroke-dasharray:none;stroke-opacity:1"
       transform="matrix(0.92474995,0,0,0.92474995,-210.01917,-1112.399)"
       clip-path="url(#clipPath4)" />
    <path
       id="path5"
       d="m 269,1212 h 40 v 14 h -40 z"
       style="fill:#f8f9fa;fill-opacity:1;fill-rule:nonzero;stroke:none"
       transform="matrix(0.92474995,0,0,0.92474995,-210.48153,-1112.8613)"
       clip-path="url(#clipPath6)" />
    <text
       id="text6"
       xml:space="preserve"
       transform="matrix(0.92474995,0,0,0.92474995,38.276202,18.107886)"
       clip-path="url(#clipPath7)"><tspan
         id="tspan6"
         style="font-variant:normal;font-weight:normal;font-size:12px;font-family:Arial;writing-mode:lr-tb;fill:#000000;fill-opacity:1;fill-rule:nonzero;stroke:none"
         x="0"
         y="0">«actor»</tspan></text>
    <path
       id="path8"
       d="m 260,1233 h 61 v 15 h -61 z"
       style="fill:#ffffff;fill-opacity:1;fill-rule:nonzero;stroke:none"
       transform="matrix(0.92474995,0,0,0.92474995,-210.48153,-1112.8613)"
       clip-path="url(#clipPath9)" />
    <text
       id="text9"
       xml:space="preserve"
       transform="matrix(0.92474995,0,0,0.92474995,30.0835,37.527635)"
       clip-path="url(#clipPath10)"><tspan
         id="tspan9"
         style="font-variant:normal;font-weight:normal;font-size:12px;font-family:Arial;writing-mode:lr-tb;fill:#000000;fill-opacity:1;fill-rule:nonzero;stroke:none"
         x="0"
         y="0">actor-name</tspan></text>
  </g>
</svg>
