<?xml version="1.0" encoding="UTF-8" standalone="no"?>
<!-- Created with Inkscape (http://www.inkscape.org/) -->

<svg
   version="1.1"
   id="svg1"
   width="88"
   height="80"
   viewBox="0 0 88 80"
   xmlns="http://www.w3.org/2000/svg"
   xmlns:svg="http://www.w3.org/2000/svg">
  <defs
     id="defs1">
    <clipPath
       clipPathUnits="userSpaceOnUse"
       id="clipPath2">
      <path
         d="M 0,0 H 272.99805 V 249.02344 H 0 Z"
         transform="scale(0.31999999)"
         clip-rule="evenodd"
         id="path2" />
    </clipPath>
    <clipPath
       clipPathUnits="userSpaceOnUse"
       id="clipPath4">
      <path
         d="M 3.125,3.125 H 268.75 v 243.75 H 3.125 Z"
         transform="matrix(0.34669385,0,0,0.34669385,88.825051,1486.8331)"
         clip-rule="evenodd"
         id="path4" />
    </clipPath>
    <clipPath
       clipPathUnits="userSpaceOnUse"
       id="clipPath6">
      <path
         d="M 3.125,3.125 H 268.75 v 243.75 H 3.125 Z"
         transform="matrix(0.34669385,0,0,0.34669385,88.825051,1486.8331)"
         clip-rule="evenodd"
         id="path6" />
    </clipPath>
    <clipPath
       clipPathUnits="userSpaceOnUse"
       id="clipPath7">
      <path
         d="M 3.125,3.125 H 268.75 v 243.75 H 3.125 Z"
         transform="matrix(0.34669385,0,0,0.34669385,-2.4874464,-80.666945)"
         clip-rule="evenodd"
         id="path7" />
    </clipPath>
  </defs>
  <g
     id="g1">
    <path
       id="path1"
       d="M 0,0 H 87 V 80 H 0 Z"
       style="fill:#ffffff;fill-opacity:1;fill-rule:nonzero;stroke:none"
       clip-path="url(#clipPath2)" />
    <path
       id="path3"
       d="m 143.5,1497.5 c -2e-5,0.4924 -0.048,0.9801 -0.14412,1.4631 -0.0961,0.4831 -0.23836,0.9521 -0.42682,1.407 -0.18844,0.455 -0.41946,0.8871 -0.69305,1.2965 -0.27361,0.4096 -0.58451,0.7884 -0.93273,1.1366 -0.34822,0.3483 -0.72705,0.6592 -1.13652,0.9328 -0.40947,0.2735 -0.84169,0.5045 -1.29666,0.693 -0.45495,0.1884 -0.92393,0.3308 -1.40694,0.4268 -0.48298,0.096 -0.97071,0.1442 -1.46316,0.1442 -0.49248,0 -0.98021,-0.048 -1.4632,-0.1442 -0.48298,-0.096 -0.95198,-0.2384 -1.40695,-0.4268 -0.45497,-0.1885 -0.88719,-0.4196 -1.29664,-0.6932 -0.40947,-0.2735 -0.7883,-0.5843 -1.13652,-0.9326 -0.34823,-0.3482 -0.65914,-0.727 -0.93273,-1.1364 -0.2736,-0.4096 -0.50462,-0.8418 -0.69307,-1.2969 -0.18846,-0.455 -0.33072,-0.9239 -0.42679,-1.4069 -0.0961,-0.4829 -0.1441,-0.9706 -0.1441,-1.463 0,-0.4925 0.048,-0.9802 0.1441,-1.4633 0.0961,-0.483 0.23832,-0.952 0.42678,-1.4069 0.18844,-0.455 0.41948,-0.8872 0.69308,-1.2968 0.27359,-0.4094 0.5845,-0.7882 0.93273,-1.1363 0.34822,-0.3483 0.72705,-0.6592 1.13652,-0.9329 0.40945,-0.2736 0.84167,-0.5046 1.29664,-0.693 0.45497,-0.1884 0.92397,-0.3307 1.40695,-0.4268 0.48299,-0.096 0.97072,-0.144 1.4632,-0.144 0.49245,0 0.98018,0.048 1.46316,0.144 0.48301,0.096 0.95199,0.2384 1.40694,0.4268 0.45497,0.1884 0.88719,0.4194 1.29666,0.6931 0.40947,0.2736 0.7883,0.5845 1.13652,0.9328 0.34822,0.3481 0.65912,0.7269 0.93273,1.1363 0.27359,0.4096 0.50461,0.8418 0.69305,1.2968 0.18846,0.4549 0.33074,0.9238 0.42682,1.4068 0.0961,0.4831 0.1441,0.9709 0.14412,1.4634 z"
       style="fill:none;stroke:#000000;stroke-width:1;stroke-linecap:butt;stroke-linejoin:miter;stroke-miterlimit:10;stroke-dasharray:none;stroke-opacity:1"
       transform="matrix(0.92300451,0,0,0.92300451,-81.985923,-1372.3537)"
       clip-path="url(#clipPath4)" />
    <path
       id="path5"
       d="m 136,1505 v 25 m 0,-20 h -15 m 15,0 h 15 m -15,20 -15,20 m 15,-20 15,20"
       style="fill:none;stroke:#000000;stroke-width:1;stroke-linecap:butt;stroke-linejoin:miter;stroke-miterlimit:10;stroke-dasharray:none;stroke-opacity:1"
       transform="matrix(0.92300451,0,0,0.92300451,-81.985923,-1372.3537)"
       clip-path="url(#clipPath6)" />
    <text
       id="text6"
       xml:space="preserve"
       transform="matrix(0.92300451,0,0,0.92300451,2.2959242,74.455954)"
       clip-path="url(#clipPath7)"><tspan
         id="tspan6"
         style="font-variant:normal;font-weight:normal;font-size:12px;font-family:Arial;writing-mode:lr-tb;fill:#000000;fill-opacity:1;fill-rule:nonzero;stroke:none"
         x="0"
         y="0">actor-declaration</tspan></text>
  </g>
</svg>
