<?xml version="1.0" encoding="UTF-8" standalone="no"?>
<!-- Created with Inkscape (http://www.inkscape.org/) -->

<svg
   version="1.1"
   id="svg1"
   width="315.84"
   height="35.84"
   viewBox="0 0 315.84 35.84"
   xmlns="http://www.w3.org/2000/svg"
   xmlns:svg="http://www.w3.org/2000/svg">
  <defs
     id="defs1">
    <clipPath
       clipPathUnits="userSpaceOnUse"
       id="clipPath2">
      <path
         d="M 0,0 H 987.01172 V 113 H 0 Z"
         transform="scale(0.31999999)"
         clip-rule="evenodd"
         id="path2" />
    </clipPath>
    <clipPath
       clipPathUnits="userSpaceOnUse"
       id="clipPath3">
      <path
         d="m 3.125,0 h 981.25 V 113 H 3.125 Z"
         transform="matrix(0.3369899,0,0,0.3369899,-273.78762,-24.999997)"
         clip-rule="evenodd"
         id="path3" />
    </clipPath>
    <clipPath
       clipPathUnits="userSpaceOnUse"
       id="clipPath4">
      <path
         d="m 3.125,0 h 981.25 V 113 H 3.125 Z"
         transform="matrix(0.3369899,0,0,0.3369899,-6.2719943,-24.999997)"
         clip-rule="evenodd"
         id="path4" />
    </clipPath>
    <clipPath
       clipPathUnits="userSpaceOnUse"
       id="clipPath5">
      <path
         d="m 3.125,0 h 981.25 V 113 H 3.125 Z"
         transform="matrix(0.3369899,0,0,0.3369899,-158.147,-13.999996)"
         clip-rule="evenodd"
         id="path5" />
    </clipPath>
    <clipPath
       clipPathUnits="userSpaceOnUse"
       id="clipPath7">
      <path
         d="m 3.125,0 h 981.25 V 113 H 3.125 Z"
         transform="matrix(0.3369899,0,0,0.3369899,32.353005,-560.49997)"
         clip-rule="evenodd"
         id="path7" />
    </clipPath>
  </defs>
  <g
     id="g1">
    <path
       id="path1"
       d="M 0,0 H 316 V 36 H 0 Z"
       style="fill:#ffffff;fill-opacity:1;fill-rule:nonzero;stroke:none"
       clip-path="url(#clipPath2)" />
    <text
       id="text2"
       xml:space="preserve"
       transform="matrix(0.94958332,0,0,0.94958332,259.98416,23.73958)"
       clip-path="url(#clipPath3)"><tspan
         id="tspan2"
         style="font-variant:normal;font-weight:normal;font-size:12px;font-family:Arial;writing-mode:lr-tb;fill:#000000;fill-opacity:1;fill-rule:nonzero;stroke:none"
         x="0"
         y="0">&amp;element</tspan></text>
    <text
       id="text3"
       xml:space="preserve"
       transform="matrix(0.94958332,0,0,0.94958332,5.9557812,23.73958)"
       clip-path="url(#clipPath4)"><tspan
         id="tspan3"
         style="font-variant:normal;font-weight:normal;font-size:12px;font-family:Arial;writing-mode:lr-tb;fill:#000000;fill-opacity:1;fill-rule:nonzero;stroke:none"
         x="0"
         y="0">&amp;annotation-node</tspan></text>
    <text
       id="text4"
       xml:space="preserve"
       transform="matrix(0.94958332,0,0,0.94958332,150.17375,13.294163)"
       clip-path="url(#clipPath5)"><tspan
         id="tspan4"
         style="font-variant:normal;font-weight:normal;font-size:12px;font-family:Arial;writing-mode:lr-tb;fill:#000000;fill-opacity:1;fill-rule:nonzero;stroke:none"
         x="0"
         y="0">(rel-name)?</tspan></text>
    <path
       id="path6"
       d="m 301.44858,-538.32001 -3,-0.009 0.003,-1 3,0.009 m -6.00284,0.98285 -3,-0.009 0.003,-1 3,0.009 m -6.00284,0.98285 -3,-0.009 0.003,-1 3,0.009 m -6.00287,0.98285 -2.99997,-0.009 0.003,-1 2.99997,0.009 m -6.00284,0.98285 -2.99997,-0.009 0.003,-1 2.99997,0.009 m -6.00284,0.98285 -3,-0.009 0.003,-1 3,0.009 m -6.00284,0.98285 -3,-0.009 0.003,-1 3,0.009 m -6.00284,0.98285 -3,-0.009 0.003,-1 3,0.009 m -6.00285,0.98291 -2.99999,-0.009 0.003,-1 2.99998,0.009 m -6.00285,0.98285 -2.99998,-0.009 0.003,-1 2.99998,0.009 m -6.00284,0.98284 -2.99998,-0.009 0.003,-1 2.99998,0.009 m -6.00284,0.98285 -3,-0.009 0.003,-1 3,0.009 m -6.00285,0.98285 -2.99999,-0.009 0.003,-1 2.99999,0.009 m -6.00286,0.98285 -2.99997,-0.009 0.003,-1 2.99997,0.009 m -6.00284,0.98285 -2.99998,-0.009 0.003,-1 2.99998,0.009 m -6.00284,0.98285 -3,-0.009 0.003,-1 3,0.009 m -6.00284,0.98285 -3,-0.009 0.003,-1 3,0.009 m -6.00285,0.98285 -2.99998,-0.009 0.003,-1 2.99999,0.009 m -6.00285,0.98285 -2.99997,-0.009 0.003,-1 2.99997,0.009 m -6.00283,0.98285 -2.99999,-0.009 0.003,-1 2.99998,0.009 m -6.00283,0.98285 -3,-0.009 0.003,-1 3,0.009 m -6.00283,0.98285 -3,-0.009 0.003,-1 3,0.009 m -6.00286,0.98284 -2.99998,-0.009 0.003,-1 2.99998,0.009 m -6.00284,0.98285 -3,-0.009 0.003,-1 3,0.009 m -6.00285,0.98291 -2.99999,-0.009 0.003,-1 2.99999,0.009 m -6.00284,0.98285 -2.99999,-0.009 0.003,-1 2.99999,0.009 m -6.00286,0.98285 -2.99998,-0.009 0.003,-1 2.99998,0.009 m -6.00284,0.98285 -2.45066,-0.007 0.003,-1 2.45067,0.007"
       style="fill:#000000;fill-opacity:1;fill-rule:nonzero;stroke:none"
       transform="matrix(0.94958332,0,0,0.94958332,-30.721874,532.24142)"
       clip-path="url(#clipPath7)" />
  </g>
</svg>
