<?xml version="1.0" encoding="UTF-8" standalone="no"?>
<!-- Created with Inkscape (http://www.inkscape.org/) -->

<svg
   version="1.1"
   id="svg1"
   width="283.84"
   height="97.279999"
   viewBox="0 0 283.84 97.279999"
   xmlns="http://www.w3.org/2000/svg"
   xmlns:svg="http://www.w3.org/2000/svg">
  <defs
     id="defs1">
    <clipPath
       clipPathUnits="userSpaceOnUse"
       id="clipPath2">
      <path
         d="M 0,0 H 887.98828 V 302.97852 H 0 Z"
         transform="scale(0.31999999)"
         clip-rule="evenodd"
         id="path2" />
    </clipPath>
    <clipPath
       clipPathUnits="userSpaceOnUse"
       id="clipPath4">
      <path
         d="m 3.125,0 h 881.25 V 302.97852 H 3.125 Z"
         transform="matrix(0.3384435,0,0,0.3384435,77.383912,1837.4423)"
         clip-rule="evenodd"
         id="path4" />
    </clipPath>
    <clipPath
       clipPathUnits="userSpaceOnUse"
       id="clipPath5">
      <path
         d="m 3.125,0 h 881.25 V 302.97852 H 3.125 Z"
         transform="matrix(0.3384435,0,0,0.3384435,-50.741085,-41.057613)"
         clip-rule="evenodd"
         id="path5" />
    </clipPath>
    <clipPath
       clipPathUnits="userSpaceOnUse"
       id="clipPath6">
      <path
         d="m 3.125,0 h 881.25 V 302.97852 H 3.125 Z"
         transform="matrix(0.3384435,0,0,0.3384435,-98.084835,-70.057613)"
         clip-rule="evenodd"
         id="path6" />
    </clipPath>
  </defs>
  <g
     id="g1">
    <path
       id="path1"
       d="M 0,0 H 284 V 97 H 0 Z"
       style="fill:#ffffff;fill-opacity:1;fill-rule:nonzero;stroke:none"
       clip-path="url(#clipPath2)" />
    <path
       id="path3"
       d="m 134.47,1847.49 h 183.81 c 1.24164,0 2.47134,0.1211 3.68912,0.3633 1.2178,0.2423 2.40026,0.6009 3.54739,1.0759 1.14713,0.4752 2.23691,1.0576 3.26929,1.7474 1.03241,0.6899 1.98761,1.4738 2.86557,2.3518 0.87799,0.878 1.66189,1.8332 2.35171,2.8655 0.68979,1.0324 1.27228,2.1222 1.74744,3.2693 0.47513,1.1472 0.83383,2.3297 1.07605,3.5475 0.24228,1.2179 0.3634,2.4476 0.36343,3.6893 v 44.3899 c -3e-5,1.2416 -0.12115,2.4713 -0.36337,3.6891 -0.24228,1.2178 -0.60098,2.4002 -1.07611,3.5472 -0.47516,1.1471 -1.05765,2.237 -1.74744,3.2693 -0.68982,1.0325 -1.47372,1.9877 -2.35168,2.8658 -0.87799,0.8779 -1.83319,1.6617 -2.86557,2.3515 -1.03238,0.6897 -2.12216,1.2722 -3.26929,1.7475 -1.14716,0.4752 -2.32962,0.8339 -3.54739,1.0762 -1.21781,0.2424 -2.44751,0.3635 -3.68915,0.3635 H 134.47 c -1.24165,0 -2.47137,-0.1213 -3.68916,-0.3636 -1.21779,-0.2423 -2.40026,-0.6009 -3.5474,-1.0761 -1.14713,-0.4753 -2.2369,-1.0578 -3.26929,-1.7475 -1.03239,-0.6898 -1.98758,-1.4736 -2.86555,-2.3515 -0.87798,-0.8781 -1.66189,-1.8333 -2.3517,-2.8656 -0.68983,-1.0324 -1.27233,-2.1222 -1.74748,-3.2693 -0.47516,-1.1471 -0.83385,-2.3296 -1.07608,-3.5474 -0.24223,-1.2178 -0.36335,-2.4475 -0.36334,-3.6891 V 1866.4 c -1e-5,-1.2417 0.12111,-2.4714 0.36334,-3.6893 0.24223,-1.2178 0.60092,-2.4003 1.07609,-3.5474 0.47515,-1.1472 1.05764,-2.237 1.74747,-3.2694 0.68981,-1.0323 1.47372,-1.9875 2.3517,-2.8653 0.87797,-0.8781 1.83316,-1.662 2.86556,-2.352 1.03238,-0.6898 2.12215,-1.2722 3.26928,-1.7473 1.14714,-0.4751 2.32961,-0.8337 3.5474,-1.076 1.21779,-0.2422 2.44751,-0.3633 3.68916,-0.3633 z"
       style="fill:#ffffff;fill-opacity:1;fill-rule:nonzero;stroke:#000000;stroke-width:1;stroke-linecap:butt;stroke-linejoin:miter;stroke-miterlimit:10;stroke-dasharray:none;stroke-opacity:1"
       transform="matrix(0.94550489,0,0,0.94550489,-73.166867,-1737.3107)"
       clip-path="url(#clipPath4)" />
    <text
       id="text4"
       xml:space="preserve"
       transform="matrix(0.94550489,0,0,0.94550489,47.975944,38.820174)"
       clip-path="url(#clipPath5)"><tspan
         id="tspan4"
         style="font-variant:normal;font-weight:normal;font-size:12px;font-family:Arial;writing-mode:lr-tb;fill:#000000;fill-opacity:1;fill-rule:nonzero;stroke:none"
         x="0"
         y="0">assert-constraint-name-compartment</tspan></text>
    <text
       id="text5"
       xml:space="preserve"
       transform="matrix(0.94550489,0,0,0.94550489,92.739691,66.239816)"
       clip-path="url(#clipPath6)"><tspan
         id="tspan5"
         style="font-variant:normal;font-weight:normal;font-size:12px;font-family:Arial;writing-mode:lr-tb;fill:#000000;fill-opacity:1;fill-rule:nonzero;stroke:none"
         x="0"
         y="0">compartment-stack</tspan></text>
  </g>
</svg>
