<?xml version="1.0" encoding="UTF-8" standalone="no"?>
<!-- Created with Inkscape (http://www.inkscape.org/) -->

<svg
   version="1.1"
   id="svg1"
   width="213.44"
   height="66.559998"
   viewBox="0 0 213.44 66.559998"
   xmlns="http://www.w3.org/2000/svg"
   xmlns:svg="http://www.w3.org/2000/svg">
  <defs
     id="defs1">
    <clipPath
       clipPathUnits="userSpaceOnUse"
       id="clipPath2">
      <path
         d="M 0,0 H 666.01563 V 209 H 0 Z"
         transform="scale(0.31999999)"
         clip-rule="evenodd"
         id="path2" />
    </clipPath>
    <clipPath
       clipPathUnits="userSpaceOnUse"
       id="clipPath4">
      <path
         d="M 3.125,0 H 662.5 V 209 H 3.125 Z"
         transform="matrix(0.33908878,0,0,0.33908878,398.61476,41.000002)"
         clip-rule="evenodd"
         id="path4" />
    </clipPath>
    <clipPath
       clipPathUnits="userSpaceOnUse"
       id="clipPath5">
      <path
         d="M 3.125,0 H 662.5 V 209 H 3.125 Z"
         transform="matrix(0.33908878,0,0,0.33908878,-36.182147,-24.500001)"
         clip-rule="evenodd"
         id="path5" />
    </clipPath>
    <clipPath
       clipPathUnits="userSpaceOnUse"
       id="clipPath6">
      <path
         d="M 3.125,0 H 662.5 V 209 H 3.125 Z"
         transform="matrix(0.33908878,0,0,0.33908878,-60.869646,-53.500001)"
         clip-rule="evenodd"
         id="path6" />
    </clipPath>
  </defs>
  <g
     id="g1">
    <path
       id="path1"
       d="M 0,0 H 213 V 67 H 0 Z"
       style="fill:#ffffff;fill-opacity:1;fill-rule:nonzero;stroke:none"
       clip-path="url(#clipPath2)" />
    <path
       id="path3"
       d="m 411.95001,42 h 197.84998 c 0.66974,0 1.33301,0.06533 1.98987,0.195988 0.65686,0.130657 1.29467,0.324138 1.91345,0.580436 0.61871,0.256298 1.20654,0.570492 1.76343,0.942582 0.55682,0.372089 1.07208,0.794921 1.54571,1.268501 0.47363,0.473575 0.89649,0.9888 1.26856,1.545673 0.37201,0.55687 0.68621,1.144684 0.9425,1.763443 0.25629,0.618763 0.44983,1.256577 0.58051,1.913449 C 619.93469,50.866947 620,51.530258 620,52.200001 v 47.600002 c 0,0.669747 -0.0653,1.333047 -0.19598,1.989917 -0.13068,0.65687 -0.32422,1.29468 -0.58051,1.91345 -0.25629,0.61876 -0.57049,1.20657 -0.9425,1.76344 -0.37207,0.55686 -0.79493,1.07209 -1.26856,1.54567 -0.47363,0.47357 -0.98889,0.89641 -1.54571,1.2685 -0.55689,0.37209 -1.14472,0.68628 -1.76343,0.94258 -0.61878,0.2563 -1.25659,0.44977 -1.91345,0.58044 -0.65686,0.13066 -1.32013,0.19599 -1.98987,0.196 H 411.95001 c -0.66977,-1e-5 -1.33307,-0.0653 -1.98996,-0.19601 -0.65686,-0.13066 -1.29468,-0.32414 -1.91345,-0.58043 -0.61877,-0.2563 -1.2066,-0.57049 -1.76349,-0.94259 -0.55685,-0.37209 -1.07208,-0.79492 -1.54562,-1.2685 -0.4736,-0.47358 -0.89643,-0.9888 -1.26853,-1.54567 -0.3721,-0.55686 -0.68628,-1.14468 -0.94256,-1.76344 -0.25632,-0.61876 -0.4498,-1.25657 -0.58045,-1.91345 -0.13067,-0.65686 -0.19598,-1.32016 -0.19595,-1.989907 V 52.200001 c -3e-5,-0.669743 0.0653,-1.333054 0.19592,-1.989926 0.13068,-0.656871 0.32416,-1.294689 0.58048,-1.913452 0.25628,-0.618759 0.57046,-1.206573 0.94256,-1.763447 0.3721,-0.556869 0.79493,-1.072094 1.26853,-1.545669 0.47354,-0.47358 0.98877,-0.896412 1.54565,-1.268498 0.55686,-0.372089 1.14469,-0.686287 1.76346,-0.942585 0.61877,-0.256298 1.25659,-0.449779 1.91345,-0.580436 C 410.61694,42.065331 411.28024,42 411.95001,42 Z"
       style="fill:none;stroke:#000000;stroke-width:1;stroke-linecap:butt;stroke-linejoin:miter;stroke-miterlimit:10;stroke-dasharray:none;stroke-opacity:1"
       transform="matrix(0.94370562,0,0,0.94370562,-376.17499,-38.691932)"
       clip-path="url(#clipPath4)" />
    <text
       id="text4"
       xml:space="preserve"
       transform="matrix(0.94370562,0,0,0.94370562,34.145295,23.120789)"
       clip-path="url(#clipPath5)"><tspan
         id="tspan4"
         style="font-variant:normal;font-weight:normal;font-size:12px;font-family:Arial;writing-mode:lr-tb;fill:#000000;fill-opacity:1;fill-rule:nonzero;stroke:none"
         x="0"
         y="0">attribute-name-compartment</tspan></text>
    <text
       id="text5"
       xml:space="preserve"
       transform="matrix(0.94370562,0,0,0.94370562,57.443027,50.488252)"
       clip-path="url(#clipPath6)"><tspan
         id="tspan5"
         style="font-variant:normal;font-weight:normal;font-size:12px;font-family:Arial;writing-mode:lr-tb;fill:#000000;fill-opacity:1;fill-rule:nonzero;stroke:none"
         x="0"
         y="0">compartment-stack</tspan></text>
  </g>
</svg>
