<?xml version="1.0" encoding="UTF-8" standalone="no"?>
<!-- Created with Inkscape (http://www.inkscape.org/) -->

<svg
   version="1.1"
   id="svg1"
   width="212.15999"
   height="66.559998"
   viewBox="0 0 212.15999 66.559998"
   xmlns="http://www.w3.org/2000/svg"
   xmlns:svg="http://www.w3.org/2000/svg">
  <defs
     id="defs1">
    <clipPath
       clipPathUnits="userSpaceOnUse"
       id="clipPath2">
      <path
         d="M 0,0 H 662.98828 V 209 H 0 Z"
         transform="scale(0.31999999)"
         clip-rule="evenodd"
         id="path2" />
    </clipPath>
    <clipPath
       clipPathUnits="userSpaceOnUse"
       id="clipPath4">
      <path
         d="m 3.125,0 h 656.25 V 209 H 3.125 Z"
         transform="matrix(0.33908878,0,0,0.33908878,666.86973,41.000002)"
         clip-rule="evenodd"
         id="path4" />
    </clipPath>
    <clipPath
       clipPathUnits="userSpaceOnUse"
       id="clipPath5">
      <path
         d="m 3.125,0 h 656.25 V 209 H 3.125 Z"
         transform="matrix(0.33908878,0,0,0.33908878,-26.927169,-24.500001)"
         clip-rule="evenodd"
         id="path5" />
    </clipPath>
    <clipPath
       clipPathUnits="userSpaceOnUse"
       id="clipPath6">
      <path
         d="m 3.125,0 h 656.25 V 209 H 3.125 Z"
         transform="matrix(0.33908878,0,0,0.33908878,-60.614669,-53.500001)"
         clip-rule="evenodd"
         id="path6" />
    </clipPath>
  </defs>
  <g
     id="g1">
    <path
       id="path1"
       d="M 0,0 H 212 V 67 H 0 Z"
       style="fill:#ffffff;fill-opacity:1;fill-rule:nonzero;stroke:none"
       clip-path="url(#clipPath2)" />
    <path
       id="path3"
       d="m 686.20001,41.5 h 3 v 1 h -3 z m 6,0 h 3 v 1 h -3 z m 6,0 h 3 v 1 h -3 z m 6,0 h 3 v 1 h -3 z m 6,0 h 3 v 1 h -3 z m 6,0 h 3 v 1 h -3 z m 6,0 h 3 v 1 h -3 z m 6,0 h 3 v 1 h -3 z m 6,0 h 3 v 1 h -3 z m 6,0 h 3 v 1 h -3 z m 6,0 h 3 v 1 h -3 z m 6,0 h 3 v 1 h -3 z m 6,0 h 3 v 1 h -3 z m 6,0 h 3 v 1 h -3 z m 6,0 h 3 v 1 h -3 z m 6,0 h 3 v 1 h -3 z m 6,0 h 3 v 1 h -3 z m 6,0 h 3 v 1 h -3 z m 6,0 h 3 v 1 h -3 z m 6,0 h 3 v 1 h -3 z m 6,0 h 3 v 1 h -3 z m 6,0 h 3 v 1 h -3 z m 6,0 h 3 v 1 h -3 z m 6,0 h 3 v 1 h -3 z m 6,0 h 3 v 1 h -3 z m 6,0 h 3 v 1 h -3 z m 6,0 h 3 v 1 h -3 z m 6,0 h 3 v 1 h -3 z m 6,0 h 3 v 1 h -3 z m 6,0 h 3 v 1 h -3 z m 6,0 h 3 v 1 h -3 z m 6,0 h 3 v 1 h -3 z m 5.9989,10e-4 c 1.055,0.01468 2.08533,0.181781 3.09113,0.501297 l -0.30274,0.953064 C 880.0755,42.665695 879.14142,42.51421 878.185,42.5009 l 0.0139,-0.9999 z m 5.93445,1.896568 c 0.88617,0.612415 1.66211,1.341957 2.32782,2.188618 l -0.78613,0.618103 c -0.60358,-0.767613 -1.30695,-1.428963 -2.11017,-1.984059 z m 3.88703,4.918999 c 0.39032,1.002185 0.62426,2.039539 0.70178,3.11206 l -0.99744,0.07208 c -0.0702,-0.972462 -0.28229,-1.912861 -0.63611,-2.821205 l 0.93177,-0.362938 z m 0.72961,6.114536 v 3 h -1 v -3 z m 0,6 v 3 h -1 v -3 z m 0,5.999996 v 3 h -1 v -3 z m 0,6 v 3 h -1 v -3 z m 0,6 v 3 h -1 v -3 z m 0,6 v 3 h -1 v -3 z m 0,6 v 3 h -1 v -3 z m 0,6 v 3 h -1 v -3 z m -0.34583,6.066881 c -0.27038,1.03781 -0.68731,2.01286 -1.25085,2.92513 l -0.85083,-0.52553 c 0.51093,-0.82718 0.88898,-1.71108 1.13403,-2.65172 z m -3.31347,5.3592 c -0.80176,0.70055 -1.6883,1.26881 -2.65967,1.70476 l -0.40942,-0.91232 c 0.88055,-0.3952 1.68426,-0.91036 2.41113,-1.54548 z m -5.73877,2.56329 c -0.43237,0.053 -0.86633,0.0795 -1.30194,0.0795 h -1.71228 v -1 h 1.71228 c 0.3949,10e-6 0.78833,-0.024 1.18023,-0.0721 l 0.12171,0.99257 z m -6.01422,0.0795 h -3 v -1 h 3 z m -6,0 h -3 v -1 h 3 z m -6,0 h -3 v -1 h 3 z m -6,0 h -3 v -1 h 3 z m -6,0 h -3 v -1 h 3 z m -6,0 h -3 v -1 h 3 z m -6,0 h -3 v -1 h 3 z m -6,0 h -3 v -1 h 3 z m -6,0 h -3 v -1 h 3 z m -6,0 h -3 v -1 h 3 z m -6,0 h -3 v -1 h 3 z m -6,0 h -3 v -1 h 3 z m -6,0 h -3 v -1 h 3 z m -6,0 h -3 v -1 h 3 z m -6,0 h -3 v -1 h 3 z m -6,0 h -3 v -1 h 3 z m -6,0 h -3 v -1 h 3 z m -6,0 h -3 v -1 h 3 z m -6,0 h -3 v -1 h 3 z m -6,0 h -3 v -1 h 3 z m -6,0 h -3 v -1 h 3 z m -6,0 h -3 v -1 h 3 z m -6,0 h -3 v -1 h 3 z m -6,0 h -3 v -1 h 3 z m -6,0 h -3 v -1 h 3 z m -6,0 h -3 v -1 h 3 z m -6,0 h -3 v -1 h 3 z m -6,0 h -3 v -1 h 3 z m -6,0 h -3 v -1 h 3 z m -6,0 h -3 v -1 h 3 z m -6,0 h -3 v -1 h 3 z m -6,0 h -3 v -1 h 3 z m -6,0 h -1.1377 c -0.63714,0 -1.26922,-0.0565 -1.8963,-0.16936 l 0.17725,-0.98418 c 0.56848,0.10236 1.14148,0.15354 1.71905,0.15354 h 1.1377 z m -6.05756,-1.19813 c -0.9505,-0.49222 -1.80792,-1.11307 -2.57226,-1.86255 l 0.70019,-0.71401 c 0.69293,0.67951 1.47028,1.24236 2.33191,1.68855 z m -4.48675,-4.40221 c -0.51276,-0.94581 -0.87464,-1.94624 -1.08564,-3.0013 l 0.98059,-0.19607 c 0.19123,0.95635 0.51929,1.86327 0.9842,2.72075 z M 669.5,98.856555 v -3 h 1 v 3 z m 0,-6 v -3.000008 h 1 v 3.000008 z m 0,-6.000008 v -3 h 1 v 3 z m 0,-6 v -3.000008 h 1 v 3.000008 z m 0,-6.000008 v -3 h 1 v 3 z m 0,-6 v -3 h 1 v 3 z m 0,-6.000007 v -3 h 1 v 3 z m 0,-6 v -3.000004 h 1 v 3.000004 z m 0.0867,-6.015785 c 0.13684,-1.068898 0.42853,-2.09372 0.87506,-3.074467 l 0.91016,0.414368 c -0.40479,0.889087 -0.66919,1.818119 -0.79328,2.78709 z m 2.59546,-5.726284 c 0.7121,-0.805752 1.52704,-1.488621 2.44482,-2.0486 l 0.52088,0.853661 c -0.83222,0.507728 -1.57099,1.126774 -2.21643,1.857139 z m 5.37793,-3.283741 C 678.42627,41.610249 679.30627,41.5 680.20001,41.5 h 3 v 1 h -3 c -0.81024,0 -1.60797,0.09995 -2.39319,0.299843 l -0.2467,-0.969093 z"
       style="fill:#000000;fill-opacity:1;fill-rule:nonzero;stroke:none"
       transform="matrix(0.94370562,0,0,0.94370562,-629.32871,-38.691932)"
       clip-path="url(#clipPath4)" />
    <text
       id="text4"
       xml:space="preserve"
       transform="matrix(0.94370562,0,0,0.94370562,25.411321,23.120789)"
       clip-path="url(#clipPath5)"><tspan
         id="tspan4"
         style="font-variant:normal;font-weight:normal;font-size:12px;font-family:Arial;writing-mode:lr-tb;fill:#000000;fill-opacity:1;fill-rule:nonzero;stroke:none"
         x="0"
         y="0">attribute-ref-name-compartment</tspan></text>
    <text
       id="text5"
       xml:space="preserve"
       transform="matrix(0.94370562,0,0,0.94370562,57.202404,50.488252)"
       clip-path="url(#clipPath6)"><tspan
         id="tspan5"
         style="font-variant:normal;font-weight:normal;font-size:12px;font-family:Arial;writing-mode:lr-tb;fill:#000000;fill-opacity:1;fill-rule:nonzero;stroke:none"
         x="0"
         y="0">compartment-stack</tspan></text>
  </g>
</svg>
