<?xml version="1.0" encoding="UTF-8" standalone="no"?>
<!-- Created with Inkscape (http://www.inkscape.org/) -->

<svg
   version="1.1"
   id="svg1"
   width="337.28"
   height="32"
   viewBox="0 0 337.28 32"
   xmlns="http://www.w3.org/2000/svg"
   xmlns:svg="http://www.w3.org/2000/svg">
  <defs
     id="defs1">
    <clipPath
       clipPathUnits="userSpaceOnUse"
       id="clipPath2">
      <path
         d="M 0,0 H 1055 V 101 H 0 Z"
         transform="scale(0.31999999)"
         clip-rule="evenodd"
         id="path2" />
    </clipPath>
    <clipPath
       clipPathUnits="userSpaceOnUse"
       id="clipPath4">
      <path
         d="m 3.125,0 h 1050 v 101 h -1050 z"
         transform="matrix(0.33777159,0,0,0.33777159,36.314901,69.500003)"
         clip-rule="evenodd"
         id="path4" />
    </clipPath>
    <clipPath
       clipPathUnits="userSpaceOnUse"
       id="clipPath6">
      <path
         d="m 3.125,0 h 1050 v 101 h -1050 z"
         transform="matrix(0.33777159,0,0,0.33777159,36.314901,69.500003)"
         clip-rule="evenodd"
         id="path6" />
    </clipPath>
    <clipPath
       clipPathUnits="userSpaceOnUse"
       id="clipPath7">
      <path
         d="M 420.95044,1.5258789e-5 H 672.59979 V 59.211609 H 420.95044 Z"
         transform="matrix(0.31999999,0,0,0.31999999,-136.59082,-14.198618)"
         clip-rule="evenodd"
         id="path7" />
    </clipPath>
    <clipPath
       clipPathUnits="userSpaceOnUse"
       id="clipPath8">
      <path
         d="M 18.311478,29.60582 H 290.68489 V 88.817414 H 18.311478 Z"
         transform="matrix(0.31999999,0,0,0.31999999,-7.7470821,-23.682992)"
         clip-rule="evenodd"
         id="path8" />
    </clipPath>
    <clipPath
       clipPathUnits="userSpaceOnUse"
       id="clipPath9">
      <path
         d="M 761.41724,29.60582 H 1033.7905 V 88.817414 H 761.41724 Z"
         transform="matrix(0.31999999,0,0,0.31999999,-245.54394,-23.682992)"
         clip-rule="evenodd"
         id="path9" />
    </clipPath>
  </defs>
  <g
     id="g1">
    <path
       id="path1"
       d="M 0,0 H 338 V 33 H 0 Z"
       style="fill:#ffffff;fill-opacity:1;fill-rule:nonzero;stroke:none"
       clip-path="url(#clipPath2)" />
    <path
       id="path3"
       d="m 131.89999,91.5 h 3 v 1 h -3 z m 6,0 h 3 v 1 h -3 z m 6,0 h 3 v 1 h -3 z m 6,0 h 3 v 1 h -3 z m 6,0 h 3 v 1 h -3 z m 6,0 h 3 v 1 h -3 z m 6,0 h 3 v 1 h -3 z m 6,0 h 3 v 1 h -3 z m 6,0 h 3 v 1 h -3 z m 6,0 h 3 v 1 h -3 z m 6.27698,0 h 2.99756 v 1 h -2.99756 z m 5.75231,0 h 3.2832 v 1 h -3.2832 z m 5.9904,0 h 0.0803 2.5 l 0.24432,3.8e-5 -1.5e-4,1 L 206.5,92.5 h -2.5 -0.0803 v -1 z m 5.65639,0.003 2.9739,0.0048 -0.002,1 -2.97391,-0.0048 0.002,-1 z m 5.88246,0.01007 3.41963,0.0067 -0.002,1 -3.41964,-0.0067 0.002,-1 z m 6.44232,0.01191 2.99998,0.0052 -0.002,1 -2.99998,-0.0052 z m 5.99998,0.01035 3,0.0052 -0.002,1 -3,-0.0052 z m 6,0.01035 2.99999,0.0052 -0.002,1 -2.99999,-0.0052 z m 5.99997,0.01035 3,0.0052 -0.002,1 -3,-0.0052 z m 5.99999,0.01035 3,0.0052 -0.002,1 -3,-0.0052 z m 6.00001,0.01035 2.99999,0.0052 -0.002,1 -2.99999,-0.0052 z m 5.99996,0.01035 3,0.0052 -0.002,1 -3,-0.0052 z m 6,0.01035 3,0.0052 -0.002,1 -3,-0.0052 z m 6,0.01035 3,0.0052 -0.002,1 -3,-0.0052 z m 6,0.01035 3,0.0052 -0.002,1 -3,-0.0052 z m 5.99997,0.01035 3,0.0052 -0.002,1 -3,-0.0052 z m 6,0.01035 0.66012,0.0011 -0.002,1 -0.66012,-0.0011 z"
       style="fill:#000000;fill-opacity:1;fill-rule:nonzero;stroke:none"
       transform="matrix(0.94738575,0,0,0.94738575,-34.40422,-65.843312)"
       clip-path="url(#clipPath4)" />
    <path
       id="path5"
       d="M 280.67001,96.620003 289.67999,92.139999 280.69,87.620003"
       style="fill:none;stroke:#000000;stroke-width:1;stroke-linecap:butt;stroke-linejoin:miter;stroke-miterlimit:10;stroke-dasharray:none;stroke-opacity:1"
       transform="matrix(0.94738575,0,0,0.94738575,-34.40422,-65.843312)"
       clip-path="url(#clipPath6)" />
    <text
       id="text6"
       xml:space="preserve"
       transform="translate(136.59082,14.198618)"
       clip-path="url(#clipPath7)"><tspan
         id="tspan6"
         style="font-variant:normal;font-weight:normal;font-size:11.36px;font-family:Arial;writing-mode:lr-tb;fill:#000000;fill-opacity:1;fill-rule:nonzero;stroke:none"
         x="0"
         y="0">(rel-name)?</tspan></text>
    <text
       id="text7"
       xml:space="preserve"
       transform="translate(7.7470821,23.682992)"
       clip-path="url(#clipPath8)"><tspan
         id="tspan7"
         style="font-variant:normal;font-weight:normal;font-size:11.36px;font-family:Arial;writing-mode:lr-tb;fill:#000000;fill-opacity:1;fill-rule:nonzero;stroke:none"
         x="0"
         y="0">&amp;element-node</tspan></text>
    <text
       id="text8"
       xml:space="preserve"
       transform="translate(245.54394,23.682992)"
       clip-path="url(#clipPath9)"><tspan
         id="tspan8"
         style="font-variant:normal;font-weight:normal;font-size:11.36px;font-family:Arial;writing-mode:lr-tb;fill:#000000;fill-opacity:1;fill-rule:nonzero;stroke:none"
         x="0"
         y="0">&amp;element-node</tspan></text>
  </g>
</svg>
