<?xml version="1.0" encoding="UTF-8" standalone="no"?>
<!-- Created with Inkscape (http://www.inkscape.org/) -->

<svg
   version="1.1"
   id="svg1"
   width="286.72"
   height="128"
   viewBox="0 0 286.72 128"
   xmlns="http://www.w3.org/2000/svg"
   xmlns:svg="http://www.w3.org/2000/svg">
  <defs
     id="defs1">
    <clipPath
       clipPathUnits="userSpaceOnUse"
       id="clipPath2">
      <path
         d="M 0,0 H 893.99414 V 399.02344 H 0 Z"
         transform="scale(0.31999999)"
         clip-rule="evenodd"
         id="path2" />
    </clipPath>
    <clipPath
       clipPathUnits="userSpaceOnUse"
       id="clipPath4">
      <path
         d="m 3.125,0 h 887.5 V 399.02344 H 3.125 Z"
         transform="matrix(0.33729089,0,0,0.33729089,416.38313,1576.4459)"
         clip-rule="evenodd"
         id="path4" />
    </clipPath>
    <clipPath
       clipPathUnits="userSpaceOnUse"
       id="clipPath5">
      <path
         d="m 3.125,0 h 887.5 V 399.02344 H 3.125 Z"
         transform="matrix(0.33729089,0,0,0.33729089,-85.429358,-43.054081)"
         clip-rule="evenodd"
         id="path5" />
    </clipPath>
    <clipPath
       clipPathUnits="userSpaceOnUse"
       id="clipPath6">
      <path
         d="m 3.125,0 h 887.5 V 399.02344 H 3.125 Z"
         transform="matrix(0.33729089,0,0,0.33729089,-107.42936,-71.054081)"
         clip-rule="evenodd"
         id="path6" />
    </clipPath>
    <clipPath
       clipPathUnits="userSpaceOnUse"
       id="clipPath7">
      <path
         d="m 3.125,0 h 887.5 V 399.02344 H 3.125 Z"
         transform="matrix(0.33729089,0,0,0.33729089,-99.101237,-100.05408)"
         clip-rule="evenodd"
         id="path7" />
    </clipPath>
    <clipPath
       clipPathUnits="userSpaceOnUse"
       id="clipPath9">
      <path
         d="m 3.125,0 h 887.5 V 399.02344 H 3.125 Z"
         transform="matrix(0.33729089,0,0,0.33729089,416.88315,1576.9459)"
         clip-rule="evenodd"
         id="path9" />
    </clipPath>
    <clipPath
       clipPathUnits="userSpaceOnUse"
       id="clipPath10">
      <path
         d="m 3.125,0 h 887.5 V 399.02344 H 3.125 Z"
         transform="matrix(0.33729089,0,0,0.33729089,-5.4293573,-70.054082)"
         clip-rule="evenodd"
         id="path10" />
    </clipPath>
    <clipPath
       clipPathUnits="userSpaceOnUse"
       id="clipPath12">
      <path
         d="m 3.125,0 h 887.5 V 399.02344 H 3.125 Z"
         transform="matrix(0.33729089,0,0,0.33729089,416.88315,1576.9459)"
         clip-rule="evenodd"
         id="path12" />
    </clipPath>
    <clipPath
       clipPathUnits="userSpaceOnUse"
       id="clipPath13">
      <path
         d="m 3.125,0 h 887.5 V 399.02344 H 3.125 Z"
         transform="matrix(0.33729089,0,0,0.33729089,-248.7731,-70.054082)"
         clip-rule="evenodd"
         id="path13" />
    </clipPath>
    <clipPath
       clipPathUnits="userSpaceOnUse"
       id="clipPath15">
      <path
         d="m 3.125,0 h 887.5 V 399.02344 H 3.125 Z"
         transform="matrix(0.33729089,0,0,0.33729089,416.88315,1576.9459)"
         clip-rule="evenodd"
         id="path15" />
    </clipPath>
    <clipPath
       clipPathUnits="userSpaceOnUse"
       id="clipPath16">
      <path
         d="m 3.125,0 h 887.5 V 399.02344 H 3.125 Z"
         transform="matrix(0.33729089,0,0,0.33729089,-121.10123,-125.05408)"
         clip-rule="evenodd"
         id="path16" />
    </clipPath>
    <clipPath
       clipPathUnits="userSpaceOnUse"
       id="clipPath18">
      <path
         d="m 3.125,0 h 887.5 V 399.02344 H 3.125 Z"
         transform="matrix(0.33729089,0,0,0.33729089,416.88315,1576.9459)"
         clip-rule="evenodd"
         id="path18" />
    </clipPath>
    <clipPath
       clipPathUnits="userSpaceOnUse"
       id="clipPath19">
      <path
         d="m 3.125,0 h 887.5 V 399.02344 H 3.125 Z"
         transform="matrix(0.33729089,0,0,0.33729089,-122.77311,-17.054082)"
         clip-rule="evenodd"
         id="path19" />
    </clipPath>
  </defs>
  <g
     id="g1">
    <path
       id="path1"
       d="M 0,0 H 286 V 128 H 0 Z"
       style="fill:#ffffff;fill-opacity:1;fill-rule:nonzero;stroke:none"
       clip-path="url(#clipPath2)" />
    <path
       id="path3"
       d="m 480.13998,1591.03 h 172.47001 c 0.80499,2e-4 1.60809,0.04 2.40924,0.1186 0.80108,0.079 1.59643,0.1967 2.38598,0.3537 0.78961,0.1571 1.56952,0.3524 2.33985,0.5862 0.77044,0.2338 1.52746,0.5045 2.27118,0.8125 0.74377,0.3081 1.47064,0.652 2.1806,1.0315 0.70996,0.3794 1.3996,0.7926 2.06897,1.2397 0.66937,0.4474 1.31518,0.9264 1.9375,1.4371 0.62225,0.5108 1.21802,1.0507 1.78729,1.62 0.56921,0.5692 1.10919,1.165 1.61993,1.7874 0.51069,0.6222 0.98969,1.268 1.43689,1.9373 0.44733,0.6694 0.86072,1.3591 1.24018,2.0692 0.37951,0.7098 0.72326,1.4366 1.03131,2.1803 0.3081,0.7438 0.57898,1.5009 0.81268,2.2712 0.23371,0.7704 0.42908,1.5503 0.58606,2.3397 0.15704,0.7897 0.27509,1.5851 0.35401,2.3863 0.0789,0.8011 0.1184,1.6042 0.11834,2.4093 v 57.7101 c 6e-5,0.805 -0.0394,1.608 -0.11841,2.4092 -0.0789,0.8011 -0.1969,1.5965 -0.35394,2.3859 -0.15698,0.7896 -0.35235,1.5695 -0.58606,2.3399 -0.2337,0.7704 -0.50464,1.5273 -0.81274,2.2711 -0.30805,0.7438 -0.6518,1.4707 -1.03125,2.1807 -0.37946,0.71 -0.79285,1.3996 -1.24018,2.0689 -0.4472,0.6695 -0.92614,1.3153 -1.43682,1.9377 -0.51081,0.6221 -1.05079,1.2178 -1.62,1.7871 -0.56927,0.5692 -1.16504,1.1092 -1.78729,1.6198 -0.62232,0.5107 -1.26813,0.9897 -1.9375,1.4368 -0.66937,0.4474 -1.35901,0.8608 -2.06897,1.2404 -0.70996,0.3795 -1.43683,0.7232 -2.1806,1.0312 -0.74372,0.3082 -1.50074,0.5791 -2.27112,0.8128 -0.77033,0.2336 -1.5503,0.4289 -2.33991,0.5859 -0.78955,0.1571 -1.5849,0.2751 -2.38598,0.3541 -0.80115,0.079 -1.60425,0.1184 -2.40924,0.1184 H 480.13998 c -0.80502,0 -1.60809,-0.039 -2.40927,-0.1183 -0.80114,-0.079 -1.59649,-0.197 -2.38607,-0.3541 -0.78956,-0.157 -1.56952,-0.3523 -2.33988,-0.586 -0.77035,-0.2337 -1.52743,-0.5046 -2.27118,-0.8128 -0.74374,-0.308 -1.47058,-0.6517 -2.18054,-1.0312 -0.70999,-0.3796 -1.39966,-0.793 -2.06903,-1.2404 -0.66934,-0.4471 -1.31516,-0.9261 -1.93741,-1.4368 -0.62231,-0.5106 -1.21811,-1.0506 -1.78735,-1.6198 -0.56925,-0.5693 -1.1092,-1.1651 -1.61988,-1.7873 -0.51074,-0.6222 -0.98974,-1.268 -1.43701,-1.9376 -0.4472,-0.6693 -0.86056,-1.3589 -1.24005,-2.0688 -0.37949,-0.71 -0.7233,-1.4369 -1.03137,-2.1807 -0.30805,-0.7438 -0.57892,-1.5007 -0.81259,-2.2711 -0.23368,-0.7704 -0.42905,-1.5503 -0.58609,-2.34 -0.15705,-0.7894 -0.275,-1.5847 -0.35388,-2.3858 -0.0789,-0.8012 -0.11838,-1.6042 -0.11838,-2.4092 V 1615.61 c 0,-0.8051 0.0395,-1.608 0.11834,-2.4092 0.0789,-0.8013 0.19687,-1.5967 0.35392,-2.3864 0.15704,-0.7894 0.35241,-1.5693 0.58612,-2.3397 0.23367,-0.7703 0.50454,-1.5274 0.81259,-2.2713 0.3081,-0.7436 0.65189,-1.4704 1.03137,-2.1803 0.37949,-0.71 0.79282,-1.3997 1.24005,-2.0691 0.4473,-0.6693 0.9263,-1.3151 1.43701,-1.9373 0.51072,-0.6224 1.05066,-1.2182 1.61988,-1.7874 0.56924,-0.5693 1.16504,-1.1092 1.78732,-1.6199 0.62228,-0.5108 1.2681,-0.9898 1.93744,-1.437 0.6694,-0.4472 1.35907,-0.8605 2.06903,-1.24 0.70996,-0.3795 1.4368,-0.7233 2.18054,-1.0314 0.74375,-0.308 1.5008,-0.5787 2.27115,-0.8125 0.77036,-0.2338 1.55032,-0.4291 2.33988,-0.5862 0.78958,-0.157 1.58493,-0.2749 2.3861,-0.3539 0.80115,-0.079 1.60422,-0.1182 2.40924,-0.1184 z"
       style="fill:#ffffff;fill-opacity:1;fill-rule:nonzero;stroke:#000000;stroke-width:1;stroke-linecap:butt;stroke-linejoin:miter;stroke-miterlimit:10;stroke-dasharray:none;stroke-opacity:1"
       transform="matrix(0.94873593,0,0,0.94873593,-395.03764,-1495.6309)"
       clip-path="url(#clipPath4)" />
    <text
       id="text4"
       xml:space="preserve"
       transform="matrix(0.94873593,0,0,0.94873593,81.049901,40.846954)"
       clip-path="url(#clipPath5)"><tspan
         id="tspan4"
         style="font-variant:normal;font-weight:normal;font-size:12px;font-family:Arial;writing-mode:lr-tb;fill:#000000;fill-opacity:1;fill-rule:nonzero;stroke:none"
         x="0"
         y="0">calc-name-compartment</tspan></text>
    <text
       id="text5"
       xml:space="preserve"
       transform="matrix(0.94873593,0,0,0.94873593,101.92209,67.41156)"
       clip-path="url(#clipPath6)"><tspan
         id="tspan5"
         style="font-variant:normal;font-weight:normal;font-size:12px;font-family:Arial;writing-mode:lr-tb;fill:#000000;fill-opacity:1;fill-rule:nonzero;stroke:none"
         x="0"
         y="0">action-flow-view</tspan></text>
    <text
       id="text6"
       xml:space="preserve"
       transform="matrix(0.94873593,0,0,0.94873593,94.020904,94.924902)"
       clip-path="url(#clipPath7)"><tspan
         id="tspan6"
         style="font-variant:normal;font-weight:normal;font-size:12px;font-family:Arial;writing-mode:lr-tb;fill:#000000;fill-opacity:1;fill-rule:nonzero;stroke:none"
         x="0"
         y="0">compartment-stack</tspan></text>
    <path
       id="path8"
       d="m 422,1636 h 46 v 15 h -46 z"
       style="fill:#ffffff;fill-opacity:1;fill-rule:nonzero;stroke:none"
       transform="matrix(0.94873593,0,0,0.94873593,-395.51202,-1496.1052)"
       clip-path="url(#clipPath9)" />
    <text
       id="text9"
       xml:space="preserve"
       transform="matrix(0.94873593,0,0,0.94873593,5.1510263,66.462825)"
       clip-path="url(#clipPath10)"><tspan
         id="tspan9"
         style="font-variant:normal;font-weight:normal;font-size:12px;font-family:Arial;writing-mode:lr-tb;fill:#000000;fill-opacity:1;fill-rule:nonzero;stroke:none"
         x="0"
         y="0">param-l*</tspan></text>
    <path
       id="path11"
       d="m 666,1636 h 46 v 15 h -46 z"
       style="fill:#ffffff;fill-opacity:1;fill-rule:nonzero;stroke:none"
       transform="matrix(0.94873593,0,0,0.94873593,-395.51202,-1496.1052)"
       clip-path="url(#clipPath12)" />
    <text
       id="text12"
       xml:space="preserve"
       transform="matrix(0.94873593,0,0,0.94873593,236.01998,66.462825)"
       clip-path="url(#clipPath13)"><tspan
         id="tspan12"
         style="font-variant:normal;font-weight:normal;font-size:12px;font-family:Arial;writing-mode:lr-tb;fill:#000000;fill-opacity:1;fill-rule:nonzero;stroke:none"
         x="0"
         y="0">param-r*</tspan></text>
    <path
       id="path14"
       d="m 538,1691 h 56 v 15 h -56 z"
       style="fill:#ffffff;fill-opacity:1;fill-rule:nonzero;stroke:none"
       transform="matrix(0.94873593,0,0,0.94873593,-395.51202,-1496.1052)"
       clip-path="url(#clipPath15)" />
    <g
       id="g15" />
    <g
       id="g16" />
    <text
       id="text16"
       xml:space="preserve"
       transform="matrix(0.94873593,0,0,0.94873593,114.89309,118.6433)"
       clip-path="url(#clipPath16)"><tspan
         id="tspan16"
         style="font-variant:normal;font-weight:normal;font-size:12px;font-family:Arial;writing-mode:lr-tb;fill:#000000;fill-opacity:1;fill-rule:nonzero;stroke:none"
         x="0"
         y="0"> param-b* </tspan></text>
    <path
       id="path17"
       d="m 540,1583 h 52 v 15 h -52 z"
       style="fill:#ffffff;fill-opacity:1;fill-rule:nonzero;stroke:none"
       transform="matrix(0.94873593,0,0,0.94873593,-395.51202,-1496.1052)"
       clip-path="url(#clipPath18)" />
    <g
       id="g18" />
    <g
       id="g19" />
    <text
       id="text19"
       xml:space="preserve"
       transform="matrix(0.94873593,0,0,0.94873593,116.47926,16.17982)"
       clip-path="url(#clipPath19)"><tspan
         id="tspan19"
         style="font-variant:normal;font-weight:normal;font-size:12px;font-family:Arial;writing-mode:lr-tb;fill:#000000;fill-opacity:1;fill-rule:nonzero;stroke:none"
         x="0"
         y="0"> param-t* </tspan></text>
  </g>
</svg>
