<?xml version="1.0" encoding="UTF-8" standalone="no"?>
<!-- Created with Inkscape (http://www.inkscape.org/) -->

<svg
   version="1.1"
   id="svg1"
   width="264"
   height="70.719994"
   viewBox="0 0 264 70.719994"
   xmlns="http://www.w3.org/2000/svg"
   xmlns:svg="http://www.w3.org/2000/svg">
  <defs
     id="defs1">
    <clipPath
       clipPathUnits="userSpaceOnUse"
       id="clipPath2">
      <path
         d="M 0,0 H 825 V 218.99414 H 0 Z"
         transform="scale(0.31999999)"
         clip-rule="evenodd"
         id="path2" />
    </clipPath>
    <clipPath
       clipPathUnits="userSpaceOnUse"
       id="clipPath3">
      <path
         d="m 3.125,0 h 818.75 V 218.99414 H 3.125 Z"
         transform="matrix(0.31999999,0,0,0.31999999,-125.30714,-18.034207)"
         clip-rule="evenodd"
         id="path3" />
    </clipPath>
    <clipPath
       clipPathUnits="userSpaceOnUse"
       id="clipPath5">
      <path
         d="m 3.125,0 h 818.75 V 218.99414 H 3.125 Z"
         transform="matrix(0.33824432,0,0,0.33824432,33.875113,-881.55695)"
         clip-rule="evenodd"
         id="path5" />
    </clipPath>
    <clipPath
       clipPathUnits="userSpaceOnUse"
       id="clipPath7">
      <path
         d="m 3.125,0 h 818.75 V 218.99414 H 3.125 Z"
         transform="matrix(0.33824432,0,0,0.33824432,33.875113,-881.55695)"
         clip-rule="evenodd"
         id="path7" />
    </clipPath>
    <clipPath
       clipPathUnits="userSpaceOnUse"
       id="clipPath8">
      <path
         d="m 3.125,0 h 818.75 V 218.99414 H 3.125 Z"
         transform="matrix(0.33824432,0,0,0.33824432,-4.6248881,-53.056924)"
         clip-rule="evenodd"
         id="path8" />
    </clipPath>
    <clipPath
       clipPathUnits="userSpaceOnUse"
       id="clipPath9">
      <path
         d="m 3.125,0 h 818.75 V 218.99414 H 3.125 Z"
         transform="matrix(0.33824432,0,0,0.33824432,-90.484263,-13.056924)"
         clip-rule="evenodd"
         id="path9" />
    </clipPath>
    <clipPath
       clipPathUnits="userSpaceOnUse"
       id="clipPath10">
      <path
         d="m 3.125,0 h 818.75 V 218.99414 H 3.125 Z"
         transform="matrix(0.33824432,0,0,0.33824432,-13.234263,-28.056924)"
         clip-rule="evenodd"
         id="path10" />
    </clipPath>
    <clipPath
       clipPathUnits="userSpaceOnUse"
       id="clipPath11">
      <path
         d="m 3.125,0 h 818.75 V 218.99414 H 3.125 Z"
         transform="matrix(0.33824432,0,0,0.33824432,-83.953013,-28.056924)"
         clip-rule="evenodd"
         id="path11" />
    </clipPath>
  </defs>
  <g
     id="g1">
    <path
       id="path1"
       d="M 0,0 H 264 V 70 H 0 Z"
       style="fill:#ffffff;fill-opacity:1;fill-rule:nonzero;stroke:none"
       clip-path="url(#clipPath2)" />
    <text
       id="text2"
       xml:space="preserve"
       transform="translate(125.30714,18.034207)"
       clip-path="url(#clipPath3)"><tspan
         id="tspan2"
         style="font-variant:normal;font-weight:normal;font-size:11.35px;font-family:Arial;writing-mode:lr-tb;fill:#000000;fill-opacity:1;fill-rule:nonzero;stroke:none"
         x="0"
         y="0">22</tspan></text>
    <path
       id="path4"
       d="m 37,-879 h 251 l 19,19 v 51 H 37 Z"
       style="fill:#ffffff;fill-opacity:1;fill-rule:nonzero;stroke:#000000;stroke-width:1;stroke-linecap:butt;stroke-linejoin:miter;stroke-miterlimit:10;stroke-dasharray:none;stroke-opacity:1"
       transform="matrix(0.94606166,0,0,0.94606166,-32.047946,834.00723)"
       clip-path="url(#clipPath5)" />
    <path
       id="path6"
       d="m 288,-879 v 19 h 19"
       style="fill:none;stroke:#000000;stroke-width:1;stroke-linecap:butt;stroke-linejoin:miter;stroke-miterlimit:10;stroke-dasharray:none;stroke-opacity:1"
       transform="matrix(0.94606166,0,0,0.94606166,-32.047946,834.00723)"
       clip-path="url(#clipPath7)" />
    <g
       id="g7" />
    <text
       id="text7"
       xml:space="preserve"
       transform="matrix(0.94606166,0,0,0.94606166,4.3754293,50.195122)"
       clip-path="url(#clipPath8)"><tspan
         id="tspan7"
         style="font-variant:normal;font-weight:normal;font-size:12px;font-family:Arial;writing-mode:lr-tb;fill:#000000;fill-opacity:1;fill-rule:nonzero;stroke:none"
         x="0"
         y="0"> text-block</tspan></text>
    <text
       id="text8"
       xml:space="preserve"
       transform="matrix(0.94606166,0,0,0.94606166,85.603692,12.352655)"
       clip-path="url(#clipPath9)"><tspan
         id="tspan8"
         style="font-variant:normal;font-weight:normal;font-size:12px;font-family:Arial;writing-mode:lr-tb;fill:#000000;fill-opacity:1;fill-rule:nonzero;stroke:none"
         x="0"
         y="0">'«comment»'</tspan></text>
    <g
       id="g9" />
    <text
       id="text9"
       xml:space="preserve"
       transform="matrix(0.94606166,0,0,0.94606166,12.520429,26.54358)"
       clip-path="url(#clipPath10)"><tspan
         id="tspan9"
         style="font-variant:normal;font-weight:normal;font-size:12px;font-family:Arial;writing-mode:lr-tb;fill:#000000;fill-opacity:1;fill-rule:nonzero;stroke:none"
         x="0"
         y="0">Identification </tspan></text>
    <text
       id="text10"
       xml:space="preserve"
       transform="matrix(0.94606166,0,0,0.94606166,79.424727,26.54358)"
       clip-path="url(#clipPath11)"><tspan
         id="tspan10"
         style="font-variant:normal;font-weight:normal;font-size:12px;font-family:Arial;writing-mode:lr-tb;fill:#000000;fill-opacity:1;fill-rule:nonzero;stroke:none"
         x="0"
         dx="0 0 0 0 0 0 0 0 0 0 0 0 0 0 0 0 0 0 0 -0.89062494"
         y="0">( 'locale' STRING_VALUE )?</tspan></text>
  </g>
</svg>
