<?xml version="1.0" encoding="UTF-8" standalone="no"?>
<!-- Created with Inkscape (http://www.inkscape.org/) -->

<svg
   version="1.1"
   id="svg1"
   width="212.15999"
   height="66.559998"
   viewBox="0 0 212.15999 66.559998"
   xmlns="http://www.w3.org/2000/svg"
   xmlns:svg="http://www.w3.org/2000/svg">
  <defs
     id="defs1">
    <clipPath
       clipPathUnits="userSpaceOnUse"
       id="clipPath2">
      <path
         d="M 0,0 H 662.98828 V 206.98242 H 0 Z"
         transform="scale(0.31999999)"
         clip-rule="evenodd"
         id="path2" />
    </clipPath>
    <clipPath
       clipPathUnits="userSpaceOnUse"
       id="clipPath4">
      <path
         d="m 3.125,0 h 656.25 V 206.98242 H 3.125 Z"
         transform="matrix(0.3390567,0,0,0.3390567,392.88034,2177)"
         clip-rule="evenodd"
         id="path4" />
    </clipPath>
    <clipPath
       clipPathUnits="userSpaceOnUse"
       id="clipPath5">
      <path
         d="m 3.125,0 h 656.25 V 206.98242 H 3.125 Z"
         transform="matrix(0.3390567,0,0,0.3390567,-36.244605,-24.499884)"
         clip-rule="evenodd"
         id="path5" />
    </clipPath>
    <clipPath
       clipPathUnits="userSpaceOnUse"
       id="clipPath6">
      <path
         d="m 3.125,0 h 656.25 V 206.98242 H 3.125 Z"
         transform="matrix(0.3390567,0,0,0.3390567,-60.588355,-53.499884)"
         clip-rule="evenodd"
         id="path6" />
    </clipPath>
  </defs>
  <g
     id="g1">
    <path
       id="path1"
       d="M 0,0 H 212 V 66 H 0 Z"
       style="fill:#ffffff;fill-opacity:1;fill-rule:nonzero;stroke:none"
       clip-path="url(#clipPath2)" />
    <path
       id="path3"
       d="m 406.04999,2178 h 198.15002 c 0.65985,0 1.31336,0.064 1.96057,0.1931 0.64722,0.1287 1.27564,0.3191 1.88532,0.5718 0.60962,0.2527 1.18878,0.5622 1.73755,0.9287 0.54864,0.3665 1.05633,0.7832 1.52295,1.2498 0.46661,0.4665 0.88318,0.9741 1.24975,1.5229 0.36664,0.5486 0.67627,1.1277 0.92877,1.7373 0.25251,0.6096 0.44312,1.2383 0.5719,1.8855 0.12873,0.6472 0.19312,1.301 0.19318,1.9609 v 46.9 c -6e-5,0.6599 -0.0644,1.3134 -0.19318,1.9606 -0.12878,0.6473 -0.31939,1.2757 -0.5719,1.8853 -0.2525,0.6096 -0.56213,1.1887 -0.92877,1.7375 -0.36657,0.5486 -0.78314,1.0562 -1.24975,1.5228 -0.46662,0.4665 -0.97431,0.883 -1.52295,1.2497 -0.54877,0.3665 -1.12793,0.6763 -1.73755,0.929 -0.60968,0.2524 -1.2381,0.4431 -1.88532,0.572 -0.64721,0.1286 -1.30072,0.1929 -1.96057,0.1931 H 406.04999 c -0.65991,-2e-4 -1.31348,-0.064 -1.9607,-0.1931 -0.64718,-0.1289 -1.27563,-0.3196 -1.88528,-0.572 -0.60968,-0.2527 -1.18884,-0.5625 -1.73752,-0.929 -0.54867,-0.3667 -1.05633,-0.7832 -1.52292,-1.2497 -0.46664,-0.4666 -0.88327,-0.9742 -1.24987,-1.5228 -0.36664,-0.5488 -0.67621,-1.1279 -0.92875,-1.7375 -0.25253,-0.6096 -0.44314,-1.238 -0.57187,-1.8853 C 396.06436,2236.2634 396,2235.6099 396,2234.95 v -46.9 c 0,-0.6599 0.0644,-1.3137 0.19312,-1.9609 0.12872,-0.6472 0.31933,-1.2756 0.57186,-1.8852 0.25254,-0.6099 0.56211,-1.189 0.92872,-1.7376 0.3666,-0.5488 0.78323,-1.0564 1.24987,-1.5229 0.46659,-0.4666 0.97422,-0.8833 1.52289,-1.2498 0.54868,-0.3665 1.12787,-0.676 1.73755,-0.9287 0.60965,-0.2527 1.2381,-0.4431 1.88531,-0.5718 0.64719,-0.1286 1.30076,-0.1931 1.96067,-0.1931 z"
       style="fill:none;stroke:#000000;stroke-width:1;stroke-linecap:butt;stroke-linejoin:miter;stroke-miterlimit:10;stroke-dasharray:none;stroke-opacity:1"
       transform="matrix(0.9437949,0,0,0.9437949,-370.79846,-2054.6415)"
       clip-path="url(#clipPath4)" />
    <text
       id="text4"
       xml:space="preserve"
       transform="matrix(0.9437949,0,0,0.9437949,34.207473,23.122866)"
       clip-path="url(#clipPath5)"><tspan
         id="tspan4"
         style="font-variant:normal;font-weight:normal;font-size:12px;font-family:Arial;writing-mode:lr-tb;fill:#000000;fill-opacity:1;fill-rule:nonzero;stroke:none"
         x="0"
         y="0">concern-name-compartment</tspan></text>
    <text
       id="text5"
       xml:space="preserve"
       transform="matrix(0.9437949,0,0,0.9437949,57.18298,50.492918)"
       clip-path="url(#clipPath6)"><tspan
         id="tspan5"
         style="font-variant:normal;font-weight:normal;font-size:12px;font-family:Arial;writing-mode:lr-tb;fill:#000000;fill-opacity:1;fill-rule:nonzero;stroke:none"
         x="0"
         y="0">compartment-stack</tspan></text>
  </g>
</svg>
