<?xml version="1.0" encoding="UTF-8" standalone="no"?>
<!-- Created with Inkscape (http://www.inkscape.org/) -->

<svg
   version="1.1"
   id="svg1"
   width="539.84003"
   height="64"
   viewBox="0 0 539.84003 64"
   xmlns="http://www.w3.org/2000/svg"
   xmlns:svg="http://www.w3.org/2000/svg">
  <defs
     id="defs1">
    <clipPath
       clipPathUnits="userSpaceOnUse"
       id="clipPath2">
      <path
         d="M 0,0 H 1685.9863 V 200.97656 H 0 Z"
         transform="scale(0.31999999)"
         clip-rule="evenodd"
         id="path2" />
    </clipPath>
    <clipPath
       clipPathUnits="userSpaceOnUse"
       id="clipPath3">
      <path
         d="m 3.125,0 h 1681.25 V 200.97656 H 3.125 Z"
         transform="matrix(0.33546214,0,0,0.33546214,-366.45308,-54.559759)"
         clip-rule="evenodd"
         id="path3" />
    </clipPath>
    <clipPath
       clipPathUnits="userSpaceOnUse"
       id="clipPath4">
      <path
         d="m 3.125,0 h 1681.25 V 200.97656 H 3.125 Z"
         transform="matrix(0.33546214,0,0,0.33546214,-119.45308,-54.559759)"
         clip-rule="evenodd"
         id="path4" />
    </clipPath>
    <clipPath
       clipPathUnits="userSpaceOnUse"
       id="clipPath6">
      <path
         d="m 3.125,0 h 1681.25 V 200.97656 H 3.125 Z"
         transform="matrix(0.33546214,0,0,0.33546214,97.359419,1146.9403)"
         clip-rule="evenodd"
         id="path6" />
    </clipPath>
    <clipPath
       clipPathUnits="userSpaceOnUse"
       id="clipPath8">
      <path
         d="m 3.125,0 h 1681.25 V 200.97656 H 3.125 Z"
         transform="matrix(0.33546214,0,0,0.33546214,97.359419,1146.9403)"
         clip-rule="evenodd"
         id="path8" />
    </clipPath>
    <clipPath
       clipPathUnits="userSpaceOnUse"
       id="clipPath9">
      <path
         d="m 3.125,0 h 1681.25 V 200.97656 H 3.125 Z"
         transform="matrix(0.33546214,0,0,0.33546214,-225.60933,-10.559758)"
         clip-rule="evenodd"
         id="path9" />
    </clipPath>
    <clipPath
       clipPathUnits="userSpaceOnUse"
       id="clipPath10">
      <path
         d="m 3.125,0 h 1681.25 V 200.97656 H 3.125 Z"
         transform="matrix(0.33546214,0,0,0.33546214,-447.09371,-31.559759)"
         clip-rule="evenodd"
         id="path10" />
    </clipPath>
    <clipPath
       clipPathUnits="userSpaceOnUse"
       id="clipPath11">
      <path
         d="m 3.125,0 h 1681.25 V 200.97656 H 3.125 Z"
         transform="matrix(0.33546214,0,0,0.33546214,-12.093705,-31.559759)"
         clip-rule="evenodd"
         id="path11" />
    </clipPath>
    <clipPath
       clipPathUnits="userSpaceOnUse"
       id="clipPath12">
      <path
         d="m 3.125,0 h 1681.25 V 200.97656 H 3.125 Z"
         transform="matrix(0.33546214,0,0,0.33546214,-123.12496,-21.559759)"
         clip-rule="evenodd"
         id="path12" />
    </clipPath>
    <clipPath
       clipPathUnits="userSpaceOnUse"
       id="clipPath13">
      <path
         d="m 3.125,0 h 1681.25 V 200.97656 H 3.125 Z"
         transform="matrix(0.33546214,0,0,0.33546214,-124.46871,-41.559759)"
         clip-rule="evenodd"
         id="path13" />
    </clipPath>
    <clipPath
       clipPathUnits="userSpaceOnUse"
       id="clipPath14">
      <path
         d="m 3.125,0 h 1681.25 V 200.97656 H 3.125 Z"
         transform="matrix(0.33546214,0,0,0.33546214,-369.12495,-21.559759)"
         clip-rule="evenodd"
         id="path14" />
    </clipPath>
    <clipPath
       clipPathUnits="userSpaceOnUse"
       id="clipPath15">
      <path
         d="m 3.125,0 h 1681.25 V 200.97656 H 3.125 Z"
         transform="matrix(0.33546214,0,0,0.33546214,-370.46871,-41.559759)"
         clip-rule="evenodd"
         id="path15" />
    </clipPath>
  </defs>
  <g
     id="g1">
    <path
       id="path1"
       d="M 0,0 H 540 V 64 H 0 Z"
       style="fill:#ffffff;fill-opacity:1;fill-rule:nonzero;stroke:none"
       clip-path="url(#clipPath2)" />
    <text
       id="text2"
       xml:space="preserve"
       transform="matrix(0.9539079,0,0,0.9539079,349.56249,52.044985)"
       clip-path="url(#clipPath3)"><tspan
         id="tspan2"
         style="font-variant:normal;font-weight:normal;font-size:12px;font-family:Arial;writing-mode:lr-tb;fill:#000000;fill-opacity:1;fill-rule:nonzero;stroke:none"
         x="0"
         y="0">c-adornment</tspan></text>
    <text
       id="text3"
       xml:space="preserve"
       transform="matrix(0.9539079,0,0,0.9539079,113.94724,52.044985)"
       clip-path="url(#clipPath4)"><tspan
         id="tspan3"
         style="font-variant:normal;font-weight:normal;font-size:12px;font-family:Arial;writing-mode:lr-tb;fill:#000000;fill-opacity:1;fill-rule:nonzero;stroke:none"
         x="0"
         y="0">c-adornment</tspan></text>
    <path
       id="path5"
       d="M 532.23999,1174.88 208,1174"
       style="fill:none;stroke:#000000;stroke-width:1;stroke-linecap:butt;stroke-linejoin:miter;stroke-miterlimit:10;stroke-dasharray:none;stroke-opacity:1"
       transform="matrix(0.9539079,0,0,0.9539079,-92.871919,-1094.0754)"
       clip-path="url(#clipPath6)" />
    <path
       id="path7"
       d="m 526.34998,1178.37 7.01001,-3.48 -6.98999,-3.52"
       style="fill:none;stroke:#000000;stroke-width:1;stroke-linecap:butt;stroke-linejoin:miter;stroke-miterlimit:10;stroke-dasharray:none;stroke-opacity:1"
       transform="matrix(0.9539079,0,0,0.9539079,-92.871919,-1094.0754)"
       clip-path="url(#clipPath8)" />
    <text
       id="text8"
       xml:space="preserve"
       transform="matrix(0.9539079,0,0,0.9539079,215.21052,10.073037)"
       clip-path="url(#clipPath9)"><tspan
         id="tspan8"
         style="font-variant:normal;font-weight:normal;font-size:12px;font-family:Arial;writing-mode:lr-tb;fill:#000000;fill-opacity:1;fill-rule:nonzero;stroke:none"
         x="0"
         y="0">connection-label?</tspan></text>
    <text
       id="text9"
       xml:space="preserve"
       transform="matrix(0.9539079,0,0,0.9539079,426.48622,30.105103)"
       clip-path="url(#clipPath10)"><tspan
         id="tspan9"
         style="font-variant:normal;font-weight:normal;font-size:12px;font-family:Arial;writing-mode:lr-tb;fill:#000000;fill-opacity:1;fill-rule:nonzero;stroke:none"
         x="0"
         y="0">&amp;connection-end</tspan></text>
    <text
       id="text10"
       xml:space="preserve"
       transform="matrix(0.9539079,0,0,0.9539079,11.536281,30.105103)"
       clip-path="url(#clipPath11)"><tspan
         id="tspan10"
         style="font-variant:normal;font-weight:normal;font-size:12px;font-family:Arial;writing-mode:lr-tb;fill:#000000;fill-opacity:1;fill-rule:nonzero;stroke:none"
         x="0"
         y="0">&amp;connection-end</tspan></text>
    <text
       id="text11"
       xml:space="preserve"
       transform="matrix(0.9539079,0,0,0.9539079,117.44987,20.566024)"
       clip-path="url(#clipPath12)"><tspan
         id="tspan11"
         style="font-variant:normal;font-weight:normal;font-size:12px;font-family:Arial;writing-mode:lr-tb;fill:#000000;fill-opacity:1;fill-rule:nonzero;stroke:none"
         x="0"
         y="0">rolename</tspan></text>
    <text
       id="text12"
       xml:space="preserve"
       transform="matrix(0.9539079,0,0,0.9539079,118.73169,39.644182)"
       clip-path="url(#clipPath13)"><tspan
         id="tspan12"
         style="font-variant:normal;font-weight:normal;font-size:12px;font-family:Arial;writing-mode:lr-tb;fill:#000000;fill-opacity:1;fill-rule:nonzero;stroke:none"
         x="0"
         y="0">multiplicity</tspan></text>
    <text
       id="text13"
       xml:space="preserve"
       transform="matrix(0.9539079,0,0,0.9539079,352.11121,20.566024)"
       clip-path="url(#clipPath14)"><tspan
         id="tspan13"
         style="font-variant:normal;font-weight:normal;font-size:12px;font-family:Arial;writing-mode:lr-tb;fill:#000000;fill-opacity:1;fill-rule:nonzero;stroke:none"
         x="0"
         y="0">rolename</tspan></text>
    <text
       id="text14"
       xml:space="preserve"
       transform="matrix(0.9539079,0,0,0.9539079,353.39303,39.644182)"
       clip-path="url(#clipPath15)"><tspan
         id="tspan14"
         style="font-variant:normal;font-weight:normal;font-size:12px;font-family:Arial;writing-mode:lr-tb;fill:#000000;fill-opacity:1;fill-rule:nonzero;stroke:none"
         x="0"
         y="0">multiplicity</tspan></text>
  </g>
</svg>
