<?xml version="1.0" encoding="UTF-8" standalone="no"?>
<!-- Created with Inkscape (http://www.inkscape.org/) -->

<svg
   version="1.1"
   id="svg1"
   width="138.56"
   height="134.72"
   viewBox="0 0 138.56 134.72"
   xmlns="http://www.w3.org/2000/svg"
   xmlns:svg="http://www.w3.org/2000/svg">
  <defs
     id="defs1">
    <clipPath
       clipPathUnits="userSpaceOnUse"
       id="clipPath2">
      <path
         d="M 0,0 H 431.98242 V 420.01953 H 0 Z"
         transform="scale(0.31999999)"
         clip-rule="evenodd"
         id="path2" />
    </clipPath>
    <clipPath
       clipPathUnits="userSpaceOnUse"
       id="clipPath4">
      <path
         d="m 3.125,3.125 h 425 V 418.75 h -425 z"
         transform="matrix(0.34161904,0,0,0.34161904,392.86318,386.86488)"
         clip-rule="evenodd"
         id="path4" />
    </clipPath>
    <clipPath
       clipPathUnits="userSpaceOnUse"
       id="clipPath5">
      <path
         d="m 3.125,3.125 h 425 V 418.75 h -425 z"
         transform="matrix(0.34161904,0,0,0.34161904,-7.4180612,-30.135119)"
         clip-rule="evenodd"
         id="path5" />
    </clipPath>
    <clipPath
       clipPathUnits="userSpaceOnUse"
       id="clipPath6">
      <path
         d="m 3.125,3.125 h 425 V 418.75 h -425 z"
         transform="matrix(0.34161904,0,0,0.34161904,-36.433691,-123.13511)"
         clip-rule="evenodd"
         id="path6" />
    </clipPath>
  </defs>
  <g
     id="g1">
    <path
       id="path1"
       d="M 0,0 H 138 V 134 H 0 Z"
       style="fill:#ffffff;fill-opacity:1;fill-rule:nonzero;stroke:none"
       clip-path="url(#clipPath2)" />
    <path
       id="path3"
       d="m 465,496 v -2 h 2 v 2 m -2,-8 v -2 h 2 v 2 m -2,-8 v -2 h 2 v 2 m -2,-8 v -2 h 2 v 2 m -2,-8 v -2 h 2 v 2 m -2,-8 v -2 h 2 v 2 m -2,-8 v -2 h 2 v 2 m -2,-8 v -2 h 2 v 2 m -2,-8 v -2 h 2 v 2 m -2,-8 v -2 h 2 v 2"
       style="fill:#000000;fill-opacity:1;fill-rule:nonzero;stroke:none"
       transform="matrix(0.9367159,0,0,0.9367159,-368.00119,-362.38248)"
       clip-path="url(#clipPath4)" />
    <text
       id="text4"
       xml:space="preserve"
       transform="matrix(0.9367159,0,0,0.9367159,6.9486159,28.228045)"
       clip-path="url(#clipPath5)"><tspan
         id="tspan4"
         style="font-variant:normal;font-weight:normal;font-size:12px;font-family:Arial;writing-mode:lr-tb;fill:#000000;fill-opacity:1;fill-rule:nonzero;stroke:none"
         x="0"
         y="0">&amp;connection-relationship</tspan></text>
    <text
       id="text5"
       xml:space="preserve"
       transform="matrix(0.9367159,0,0,0.9367159,34.128018,115.34262)"
       clip-path="url(#clipPath6)"><tspan
         id="tspan5"
         style="font-variant:normal;font-weight:normal;font-size:12px;font-family:Arial;writing-mode:lr-tb;fill:#000000;fill-opacity:1;fill-rule:nonzero;stroke:none"
         x="0"
         y="0">&amp;usage-node</tspan></text>
  </g>
</svg>
