<?xml version="1.0" encoding="UTF-8" standalone="no"?>
<!-- Created with Inkscape (http://www.inkscape.org/) -->

<svg
   version="1.1"
   id="svg1"
   width="213.44"
   height="69.439995"
   viewBox="0 0 213.44 69.439995"
   xmlns="http://www.w3.org/2000/svg"
   xmlns:svg="http://www.w3.org/2000/svg">
  <defs
     id="defs1">
    <clipPath
       clipPathUnits="userSpaceOnUse"
       id="clipPath2">
      <path
         d="M 0,0 H 666.01563 V 216.01563 H 0 Z"
         transform="scale(0.31999999)"
         clip-rule="evenodd"
         id="path2" />
    </clipPath>
    <clipPath
       clipPathUnits="userSpaceOnUse"
       id="clipPath4">
      <path
         d="M 3.125,0 H 662.5 V 216.01563 H 3.125 Z"
         transform="matrix(0.33984893,0,0,0.33984893,396.86136,809.00001)"
         clip-rule="evenodd"
         id="path4" />
    </clipPath>
    <clipPath
       clipPathUnits="userSpaceOnUse"
       id="clipPath5">
      <path
         d="M 3.125,0 H 662.5 V 216.01563 H 3.125 Z"
         transform="matrix(0.33984893,0,0,0.33984893,-28.591781,-25.500006)"
         clip-rule="evenodd"
         id="path5" />
    </clipPath>
    <clipPath
       clipPathUnits="userSpaceOnUse"
       id="clipPath6">
      <path
         d="M 3.125,0 H 662.5 V 216.01563 H 3.125 Z"
         transform="matrix(0.33984893,0,0,0.33984893,-60.607402,-54.500006)"
         clip-rule="evenodd"
         id="path6" />
    </clipPath>
  </defs>
  <g
     id="g1">
    <path
       id="path1"
       d="M 0,0 H 213 V 69 H 0 Z"
       style="fill:#ffffff;fill-opacity:1;fill-rule:nonzero;stroke:none"
       clip-path="url(#clipPath2)" />
    <path
       id="path3"
       d="m 410.5,810 h 197.25 c 0.68939,0 1.37219,0.0673 2.0484,0.20172 0.67621,0.13452 1.33276,0.33368 1.96973,0.59747 0.63696,0.2638 1.24206,0.58722 1.81524,0.97034 0.57325,0.383 1.10364,0.81824 1.59119,1.30579 0.48749,0.48749 0.92279,1.01788 1.30579,1.59112 0.38299,0.57325 0.70642,1.17835 0.97027,1.81531 0.26386,0.6369 0.46302,1.29352 0.5976,1.96973 0.13452,0.67621 0.20178,1.35901 0.20178,2.04852 v 49 c 0,0.68939 -0.0673,1.37219 -0.20178,2.0484 -0.13458,0.67615 -0.33374,1.3327 -0.5976,1.96967 -0.26385,0.63696 -0.58728,1.24206 -0.97027,1.8153 -0.383,0.57331 -0.8183,1.1037 -1.30579,1.59119 -0.48755,0.48749 -1.01794,0.92273 -1.59119,1.30573 -0.57318,0.38305 -1.17828,0.70654 -1.81524,0.97039 -0.63697,0.2638 -1.29352,0.46296 -1.96973,0.59748 -0.67621,0.13452 -1.35901,0.20178 -2.0484,0.20184 H 410.5 c -0.68948,-6e-5 -1.37231,-0.0673 -2.04849,-0.20184 -0.67618,-0.13459 -1.33277,-0.33374 -1.96973,-0.59754 -0.63696,-0.26385 -1.24206,-0.58734 -1.81534,-0.97033 -0.57324,-0.383 -1.1036,-0.81824 -1.59109,-1.30573 -0.48752,-0.48749 -0.92279,-1.01794 -1.30585,-1.59125 -0.38299,-0.57318 -0.70642,-1.17828 -0.97028,-1.81524 -0.26385,-0.63697 -0.46301,-1.29352 -0.5975,-1.96967 C 400.06723,870.87219 399.99997,870.18939 400,869.5 v -49 c -3e-5,-0.68951 0.0672,-1.37231 0.20172,-2.04852 0.13449,-0.67621 0.33365,-1.33283 0.59747,-1.96979 0.26386,-0.63696 0.58728,-1.24207 0.97031,-1.81531 0.38306,-0.57318 0.81833,-1.10357 1.30585,-1.59106 0.48749,-0.48755 1.01785,-0.92279 1.59109,-1.30579 0.57328,-0.38312 1.17838,-0.70654 1.81534,-0.97034 0.63696,-0.26379 1.29355,-0.46295 1.96973,-0.59747 C 409.12769,810.06726 409.81052,810 410.5,810 Z"
       style="fill:none;stroke:#000000;stroke-width:1;stroke-linecap:butt;stroke-linejoin:miter;stroke-miterlimit:10;stroke-dasharray:none;stroke-opacity:1"
       transform="matrix(0.94159481,0,0,0.94159481,-373.6826,-761.75021)"
       clip-path="url(#clipPath4)" />
    <text
       id="text4"
       xml:space="preserve"
       transform="matrix(0.94159481,0,0,0.94159481,26.921873,24.010673)"
       clip-path="url(#clipPath5)"><tspan
         id="tspan4"
         style="font-variant:normal;font-weight:normal;font-size:12px;font-family:Arial;writing-mode:lr-tb;fill:#000000;fill-opacity:1;fill-rule:nonzero;stroke:none"
         x="0"
         y="0">connection-name-compartment</tspan></text>
    <text
       id="text5"
       xml:space="preserve"
       transform="matrix(0.94159481,0,0,0.94159481,57.067615,51.316923)"
       clip-path="url(#clipPath6)"><tspan
         id="tspan5"
         style="font-variant:normal;font-weight:normal;font-size:12px;font-family:Arial;writing-mode:lr-tb;fill:#000000;fill-opacity:1;fill-rule:nonzero;stroke:none"
         x="0"
         y="0">compartment-stack</tspan></text>
  </g>
</svg>
