<?xml version="1.0" encoding="UTF-8" standalone="no"?>
<!-- Created with Inkscape (http://www.inkscape.org/) -->

<svg
   version="1.1"
   id="svg1"
   width="523.84003"
   height="69.439995"
   viewBox="0 0 523.84003 69.439995"
   xmlns="http://www.w3.org/2000/svg"
   xmlns:svg="http://www.w3.org/2000/svg">
  <defs
     id="defs1">
    <clipPath
       clipPathUnits="userSpaceOnUse"
       id="clipPath2">
      <path
         d="M 0,0 H 1637.9883 V 216.01563 H 0 Z"
         transform="scale(0.31999999)"
         clip-rule="evenodd"
         id="path2" />
    </clipPath>
    <clipPath
       clipPathUnits="userSpaceOnUse"
       id="clipPath4">
      <path
         d="m 3.125,0 h 1631.25 V 216.01563 H 3.125 Z"
         transform="matrix(0.33615451,0,0,0.33615451,77.342954,1306.1898)"
         clip-rule="evenodd"
         id="path4" />
    </clipPath>
    <clipPath
       clipPathUnits="userSpaceOnUse"
       id="clipPath6">
      <path
         d="m 3.125,0 h 1631.25 V 216.01563 H 3.125 Z"
         transform="matrix(0.33615451,0,0,0.33615451,77.342954,1306.1898)"
         clip-rule="evenodd"
         id="path6" />
    </clipPath>
    <clipPath
       clipPathUnits="userSpaceOnUse"
       id="clipPath7">
      <path
         d="m 3.125,0 h 1631.25 V 216.01563 H 3.125 Z"
         transform="matrix(0.33615451,0,0,0.33615451,-225.62579,-11.310307)"
         clip-rule="evenodd"
         id="path7" />
    </clipPath>
    <clipPath
       clipPathUnits="userSpaceOnUse"
       id="clipPath8">
      <path
         d="m 3.125,0 h 1631.25 V 216.01563 H 3.125 Z"
         transform="matrix(0.33615451,0,0,0.33615451,-26.453918,-32.310307)"
         clip-rule="evenodd"
         id="path8" />
    </clipPath>
    <clipPath
       clipPathUnits="userSpaceOnUse"
       id="clipPath9">
      <path
         d="m 3.125,0 h 1631.25 V 216.01563 H 3.125 Z"
         transform="matrix(0.33615451,0,0,0.33615451,-123.14143,-22.310307)"
         clip-rule="evenodd"
         id="path9" />
    </clipPath>
    <clipPath
       clipPathUnits="userSpaceOnUse"
       id="clipPath10">
      <path
         d="m 3.125,0 h 1631.25 V 216.01563 H 3.125 Z"
         transform="matrix(0.33615451,0,0,0.33615451,-124.48517,-42.310307)"
         clip-rule="evenodd"
         id="path10" />
    </clipPath>
    <clipPath
       clipPathUnits="userSpaceOnUse"
       id="clipPath11">
      <path
         d="m 3.125,0 h 1631.25 V 216.01563 H 3.125 Z"
         transform="matrix(0.33615451,0,0,0.33615451,-369.14142,-22.310307)"
         clip-rule="evenodd"
         id="path11" />
    </clipPath>
    <clipPath
       clipPathUnits="userSpaceOnUse"
       id="clipPath12">
      <path
         d="m 3.125,0 h 1631.25 V 216.01563 H 3.125 Z"
         transform="matrix(0.33615451,0,0,0.33615451,-370.48518,-42.310307)"
         clip-rule="evenodd"
         id="path12" />
    </clipPath>
    <clipPath
       clipPathUnits="userSpaceOnUse"
       id="clipPath13">
      <path
         d="m 3.125,0 h 1631.25 V 216.01563 H 3.125 Z"
         transform="matrix(0.33615451,0,0,0.33615451,-363.46955,-59.310307)"
         clip-rule="evenodd"
         id="path13" />
    </clipPath>
    <clipPath
       clipPathUnits="userSpaceOnUse"
       id="clipPath14">
      <path
         d="m 3.125,0 h 1631.25 V 216.01563 H 3.125 Z"
         transform="matrix(0.33615451,0,0,0.33615451,-118.46954,-58.310307)"
         clip-rule="evenodd"
         id="path14" />
    </clipPath>
    <clipPath
       clipPathUnits="userSpaceOnUse"
       id="clipPath15">
      <path
         d="m 3.125,0 h 1631.25 V 216.01563 H 3.125 Z"
         transform="matrix(0.33615451,0,0,0.33615451,-461.45393,-32.310307)"
         clip-rule="evenodd"
         id="path15" />
    </clipPath>
  </defs>
  <g
     id="g1">
    <path
       id="path1"
       d="M 0,0 H 524 V 69 H 0 Z"
       style="fill:#ffffff;fill-opacity:1;fill-rule:nonzero;stroke:none"
       clip-path="url(#clipPath2)" />
    <path
       id="path3"
       d="M 507.76001,1336.6899 H 188"
       style="fill:none;stroke:#000000;stroke-width:1;stroke-linecap:butt;stroke-linejoin:miter;stroke-miterlimit:10;stroke-dasharray:none;stroke-opacity:1"
       transform="matrix(0.95194316,0,0,0.95194316,-73.626096,-1243.4184)"
       clip-path="url(#clipPath4)" />
    <path
       id="path5"
       d="m 501.88,1340.1899 7,-3.5 -7,-3.5"
       style="fill:none;stroke:#000000;stroke-width:1;stroke-linecap:butt;stroke-linejoin:miter;stroke-miterlimit:10;stroke-dasharray:none;stroke-opacity:1"
       transform="matrix(0.95194316,0,0,0.95194316,-73.626096,-1243.4184)"
       clip-path="url(#clipPath6)" />
    <text
       id="text6"
       xml:space="preserve"
       transform="matrix(0.95194316,0,0,0.95194316,214.78293,10.766769)"
       clip-path="url(#clipPath7)"><tspan
         id="tspan6"
         style="font-variant:normal;font-weight:normal;font-size:12px;font-family:Arial;writing-mode:lr-tb;fill:#000000;fill-opacity:1;fill-rule:nonzero;stroke:none"
         x="0"
         y="0">connection-label?</tspan></text>
    <text
       id="text7"
       xml:space="preserve"
       transform="matrix(0.95194316,0,0,0.95194316,25.182626,30.757576)"
       clip-path="url(#clipPath8)"><tspan
         id="tspan7"
         style="font-variant:normal;font-weight:normal;font-size:12px;font-family:Arial;writing-mode:lr-tb;fill:#000000;fill-opacity:1;fill-rule:nonzero;stroke:none"
         x="0"
         y="0">&amp;type-node</tspan></text>
    <text
       id="text8"
       xml:space="preserve"
       transform="matrix(0.95194316,0,0,0.95194316,117.22364,21.238144)"
       clip-path="url(#clipPath9)"><tspan
         id="tspan8"
         style="font-variant:normal;font-weight:normal;font-size:12px;font-family:Arial;writing-mode:lr-tb;fill:#000000;fill-opacity:1;fill-rule:nonzero;stroke:none"
         x="0"
         y="0">rolename</tspan></text>
    <text
       id="text9"
       xml:space="preserve"
       transform="matrix(0.95194316,0,0,0.95194316,118.50281,40.277007)"
       clip-path="url(#clipPath10)"><tspan
         id="tspan9"
         style="font-variant:normal;font-weight:normal;font-size:12px;font-family:Arial;writing-mode:lr-tb;fill:#000000;fill-opacity:1;fill-rule:nonzero;stroke:none"
         x="0"
         y="0">multiplicity</tspan></text>
    <text
       id="text10"
       xml:space="preserve"
       transform="matrix(0.95194316,0,0,0.95194316,351.40165,21.238144)"
       clip-path="url(#clipPath11)"><tspan
         id="tspan10"
         style="font-variant:normal;font-weight:normal;font-size:12px;font-family:Arial;writing-mode:lr-tb;fill:#000000;fill-opacity:1;fill-rule:nonzero;stroke:none"
         x="0"
         y="0">rolename</tspan></text>
    <text
       id="text11"
       xml:space="preserve"
       transform="matrix(0.95194316,0,0,0.95194316,352.68083,40.277007)"
       clip-path="url(#clipPath12)"><tspan
         id="tspan11"
         style="font-variant:normal;font-weight:normal;font-size:12px;font-family:Arial;writing-mode:lr-tb;fill:#000000;fill-opacity:1;fill-rule:nonzero;stroke:none"
         x="0"
         y="0">multiplicity</tspan></text>
    <text
       id="text12"
       xml:space="preserve"
       transform="matrix(0.95194316,0,0,0.95194316,346.00235,56.460041)"
       clip-path="url(#clipPath13)"><tspan
         id="tspan12"
         style="font-variant:normal;font-weight:normal;font-size:12px;font-family:Arial;writing-mode:lr-tb;fill:#000000;fill-opacity:1;fill-rule:nonzero;stroke:none"
         x="0"
         y="0">c-adornment</tspan></text>
    <text
       id="text13"
       xml:space="preserve"
       transform="matrix(0.95194316,0,0,0.95194316,112.77627,55.508098)"
       clip-path="url(#clipPath14)"><tspan
         id="tspan13"
         style="font-variant:normal;font-weight:normal;font-size:12px;font-family:Arial;writing-mode:lr-tb;fill:#000000;fill-opacity:1;fill-rule:nonzero;stroke:none"
         x="0"
         y="0">c-adornment</tspan></text>
    <text
       id="text14"
       xml:space="preserve"
       transform="matrix(0.95194316,0,0,0.95194316,439.27791,30.757576)"
       clip-path="url(#clipPath15)"><tspan
         id="tspan14"
         style="font-variant:normal;font-weight:normal;font-size:12px;font-family:Arial;writing-mode:lr-tb;fill:#000000;fill-opacity:1;fill-rule:nonzero;stroke:none"
         x="0"
         y="0">&amp;type-node</tspan></text>
  </g>
</svg>
