<?xml version="1.0" encoding="UTF-8" standalone="no"?>
<!-- Created with Inkscape (http://www.inkscape.org/) -->

<svg
   version="1.1"
   id="svg1"
   width="286.72"
   height="128"
   viewBox="0 0 286.72 128"
   xmlns="http://www.w3.org/2000/svg"
   xmlns:svg="http://www.w3.org/2000/svg">
  <defs
     id="defs1">
    <clipPath
       clipPathUnits="userSpaceOnUse"
       id="clipPath2">
      <path
         d="M 0,0 H 893.99414 V 399.02344 H 0 Z"
         transform="scale(0.31999999)"
         clip-rule="evenodd"
         id="path2" />
    </clipPath>
    <clipPath
       clipPathUnits="userSpaceOnUse"
       id="clipPath4">
      <path
         d="m 3.125,0 h 887.5 V 399.02344 H 3.125 Z"
         transform="matrix(0.33729089,0,0,0.33729089,747.38318,1693.346)"
         clip-rule="evenodd"
         id="path4" />
    </clipPath>
    <clipPath
       clipPathUnits="userSpaceOnUse"
       id="clipPath6">
      <path
         d="m 3.125,0 h 887.5 V 399.02344 H 3.125 Z"
         transform="matrix(0.33729089,0,0,0.33729089,747.38318,1693.346)"
         clip-rule="evenodd"
         id="path6" />
    </clipPath>
    <clipPath
       clipPathUnits="userSpaceOnUse"
       id="clipPath7">
      <path
         d="m 3.125,0 h 887.5 V 399.02344 H 3.125 Z"
         transform="matrix(0.33729089,0,0,0.33729089,-70.085562,-43.154119)"
         clip-rule="evenodd"
         id="path7" />
    </clipPath>
    <clipPath
       clipPathUnits="userSpaceOnUse"
       id="clipPath8">
      <path
         d="m 3.125,0 h 887.5 V 399.02344 H 3.125 Z"
         transform="matrix(0.33729089,0,0,0.33729089,-116.08556,-71.154119)"
         clip-rule="evenodd"
         id="path8" />
    </clipPath>
    <clipPath
       clipPathUnits="userSpaceOnUse"
       id="clipPath9">
      <path
         d="m 3.125,0 h 887.5 V 399.02344 H 3.125 Z"
         transform="matrix(0.33729089,0,0,0.33729089,-99.101192,-100.15412)"
         clip-rule="evenodd"
         id="path9" />
    </clipPath>
    <clipPath
       clipPathUnits="userSpaceOnUse"
       id="clipPath11">
      <path
         d="m 3.125,0 h 887.5 V 399.02344 H 3.125 Z"
         transform="matrix(0.33729089,0,0,0.33729089,747.88319,1693.8458)"
         clip-rule="evenodd"
         id="path11" />
    </clipPath>
    <clipPath
       clipPathUnits="userSpaceOnUse"
       id="clipPath12">
      <path
         d="m 3.125,0 h 887.5 V 399.02344 H 3.125 Z"
         transform="matrix(0.33729089,0,0,0.33729089,-5.4293123,-70.154119)"
         clip-rule="evenodd"
         id="path12" />
    </clipPath>
    <clipPath
       clipPathUnits="userSpaceOnUse"
       id="clipPath14">
      <path
         d="m 3.125,0 h 887.5 V 399.02344 H 3.125 Z"
         transform="matrix(0.33729089,0,0,0.33729089,747.88319,1693.8458)"
         clip-rule="evenodd"
         id="path14" />
    </clipPath>
    <clipPath
       clipPathUnits="userSpaceOnUse"
       id="clipPath15">
      <path
         d="m 3.125,0 h 887.5 V 399.02344 H 3.125 Z"
         transform="matrix(0.33729089,0,0,0.33729089,-248.77306,-70.154119)"
         clip-rule="evenodd"
         id="path15" />
    </clipPath>
    <clipPath
       clipPathUnits="userSpaceOnUse"
       id="clipPath17">
      <path
         d="m 3.125,0 h 887.5 V 399.02344 H 3.125 Z"
         transform="matrix(0.33729089,0,0,0.33729089,747.88319,1693.8458)"
         clip-rule="evenodd"
         id="path17" />
    </clipPath>
    <clipPath
       clipPathUnits="userSpaceOnUse"
       id="clipPath18">
      <path
         d="m 3.125,0 h 887.5 V 399.02344 H 3.125 Z"
         transform="matrix(0.33729089,0,0,0.33729089,-121.10119,-125.15412)"
         clip-rule="evenodd"
         id="path18" />
    </clipPath>
    <clipPath
       clipPathUnits="userSpaceOnUse"
       id="clipPath20">
      <path
         d="m 3.125,0 h 887.5 V 399.02344 H 3.125 Z"
         transform="matrix(0.33729089,0,0,0.33729089,747.88319,1693.8458)"
         clip-rule="evenodd"
         id="path20" />
    </clipPath>
    <clipPath
       clipPathUnits="userSpaceOnUse"
       id="clipPath21">
      <path
         d="m 3.125,0 h 887.5 V 399.02344 H 3.125 Z"
         transform="matrix(0.33729089,0,0,0.33729089,-122.77307,-17.154119)"
         clip-rule="evenodd"
         id="path21" />
    </clipPath>
  </defs>
  <g
     id="g1">
    <path
       id="path1"
       d="M 0,0 H 286 V 128 H 0 Z"
       style="fill:#ffffff;fill-opacity:1;fill-rule:nonzero;stroke:none"
       clip-path="url(#clipPath2)" />
    <path
       id="path3"
       d="m 811.14001,1707.9301 h 172.46998 c 0.80505,10e-5 1.60815,0.039 2.4093,0.1184 0.80121,0.079 1.59649,0.1969 2.38598,0.3537 0.78962,0.1571 1.56958,0.3524 2.33991,0.5862 0.77032,0.2338 1.52734,0.5045 2.27106,0.8125 0.74371,0.3081 1.47058,0.6519 2.18054,1.0314 0.70996,0.3795 1.39959,0.7928 2.06891,1.24 0.66937,0.4472 1.31524,0.9262 1.9375,1.4369 0.62231,0.5108 1.21811,1.0507 1.78731,1.62 0.5693,0.5693 1.1093,1.1651 1.62,1.7873 0.5106,0.6223 0.9897,1.2682 1.4369,1.9375 0.4472,0.6693 0.8606,1.3589 1.2401,2.069 0.3795,0.7098 0.7232,1.4366 1.0313,2.1803 0.3081,0.7437 0.579,1.5009 0.8127,2.2713 0.2337,0.7704 0.429,1.5504 0.586,2.3399 0.1571,0.7897 0.2752,1.5852 0.3541,2.3863 0.079,0.8012 0.1184,1.6043 0.1184,2.4092 v 57.7101 c 0,0.805 -0.04,1.6081 -0.1184,2.4093 -0.079,0.8011 -0.197,1.5966 -0.354,2.386 -0.1571,0.7897 -0.3524,1.5696 -0.5861,2.3399 -0.2337,0.7704 -0.5046,1.5274 -0.8127,2.2709 -0.3081,0.7438 -0.6518,1.4707 -1.0313,2.1808 -0.3795,0.71 -0.7929,1.3995 -1.2402,2.0689 -0.4472,0.6694 -0.9262,1.3153 -1.4368,1.9376 -0.5107,0.6223 -1.0507,1.218 -1.62,1.7872 -0.5692,0.5692 -1.165,1.1093 -1.78731,1.6199 -0.62226,0.5106 -1.26813,0.9896 -1.9375,1.4367 -0.66932,0.4473 -1.35895,0.8608 -2.06897,1.2403 -0.7099,0.3795 -1.43677,0.7232 -2.18055,1.0312 -0.74371,0.3081 -1.50073,0.579 -2.27105,0.8128 -0.77033,0.2337 -1.5503,0.4291 -2.33985,0.586 -0.78949,0.1571 -1.58477,0.2752 -2.38598,0.3542 -0.80115,0.079 -1.60425,0.1182 -2.4093,0.1182 H 811.14001 c -0.80499,0 -1.60809,-0.039 -2.40924,-0.1182 -0.8012,-0.079 -1.59655,-0.1971 -2.3861,-0.3542 -0.78949,-0.1569 -1.56946,-0.3524 -2.33985,-0.5861 -0.77032,-0.2337 -1.5274,-0.5046 -2.27124,-0.8127 -0.74371,-0.308 -1.47052,-0.6517 -2.18054,-1.0312 -0.70996,-0.3795 -1.39966,-0.793 -2.06903,-1.2403 -0.66937,-0.4471 -1.31519,-0.9261 -1.93744,-1.4367 -0.62225,-0.5106 -1.21808,-1.0507 -1.78735,-1.6199 -0.56922,-0.5692 -1.1092,-1.1649 -1.61988,-1.7871 -0.51068,-0.6224 -0.98968,-1.2683 -1.43695,-1.9377 -0.4472,-0.6694 -0.86053,-1.3589 -1.23999,-2.0689 -0.37951,-0.7101 -0.72333,-1.437 -1.03143,-2.1808 -0.30805,-0.7435 -0.57886,-1.5005 -0.81256,-2.2709 -0.23371,-0.7703 -0.42914,-1.5502 -0.58618,-2.3399 -0.15705,-0.7894 -0.27497,-1.5847 -0.35382,-2.3859 -0.0789,-0.8011 -0.11841,-1.6044 -0.11841,-2.4094 V 1732.51 c 0,-0.8049 0.0394,-1.608 0.11834,-2.4092 0.0789,-0.8011 0.19684,-1.5965 0.35389,-2.3862 0.15704,-0.7896 0.35241,-1.5695 0.58612,-2.3398 0.2337,-0.7704 0.50457,-1.5276 0.81262,-2.2714 0.3081,-0.7438 0.65192,-1.4706 1.03143,-2.1804 0.37946,-0.71 0.79285,-1.3997 1.24005,-2.069 0.44733,-0.6693 0.92633,-1.3151 1.43702,-1.9374 0.51068,-0.6223 1.05065,-1.2181 1.61987,-1.7873 0.56921,-0.5692 1.16498,-1.1093 1.78723,-1.6199 0.62225,-0.5107 1.26807,-0.9897 1.93744,-1.4371 0.66937,-0.4472 1.35907,-0.8605 2.06909,-1.24 0.70996,-0.3795 1.43677,-0.7233 2.18048,-1.0313 0.74384,-0.308 1.50086,-0.5788 2.27118,-0.8125 0.77039,-0.2337 1.55035,-0.4291 2.33984,-0.5862 0.78962,-0.1568 1.58497,-0.2747 2.38617,-0.3537 0.80115,-0.079 1.60425,-0.1184 2.40924,-0.1185 z"
       style="fill:#ffffff;fill-opacity:1;fill-rule:nonzero;stroke:none"
       transform="matrix(0.94873593,0,0,0.94873593,-709.06928,-1606.5382)"
       clip-path="url(#clipPath4)" />
    <path
       id="path5"
       d="m 817.14001,1707.4301 h 3 v 1 h -3 z m 6,0 h 3 v 1 h -3 z m 6,0 h 3 v 1 h -3 z m 6,0 h 3 v 1 h -3 z m 6,0 h 3 v 1 h -3 z m 6,0 h 3 v 1 h -3 z m 6,0 h 3 v 1 h -3 z m 6,0 h 3 v 1 h -3 z m 6,0 h 3 v 1 h -3 z m 6,0 h 3 v 1 h -3 z m 6,0 h 3 v 1 h -3 z m 6,0 h 3 v 1 h -3 z m 6,0 h 3 v 1 h -3 z m 6,0 h 3 v 1 h -3 z m 6,0 h 3 v 1 h -3 z m 6,0 h 3 v 1 h -3 z m 6,0 h 3 v 1 h -3 z m 6,0 h 3 v 1 h -3 z m 6,0 h 3 v 1 h -3 z m 6,0 h 3 v 1 h -3 z m 6,0 h 3 v 1 h -3 z m 6,0 h 3 v 1 h -3 z m 6,0 h 3 v 1 h -3 z m 6,0 h 3 v 1 h -3 z m 6,0 h 3 v 1 h -3 z m 6,0 h 3 v 1 h -3 z m 6,0 h 3 v 1 h -3 z m 6,0 h 3 v 1 h -3 z m 5.95972,0.044 c 1.00629,0.06 2.00549,0.1802 2.99762,0.3605 l -0.17883,0.9839 c -0.95233,-0.1732 -1.91175,-0.2886 -2.87824,-0.3461 l 0.0594,-0.9983 z m 6.04285,1.1137 c 0.99609,0.3137 1.96863,0.688 2.9176,1.1229 l -0.41663,0.9092 c -0.91137,-0.4176 -1.84515,-0.7771 -2.80139,-1.0783 z m 5.61279,2.5632 c 0.88184,0.5427 1.72669,1.1377 2.53455,1.7848 l -0.62513,0.7805 c -0.77587,-0.6214 -1.58709,-1.1926 -2.43359,-1.7137 z m 4.84443,3.8841 c 0.7256,0.7468 1.4021,1.536 2.0295,2.3675 l -0.7983,0.6023 c -0.6022,-0.7982 -1.2517,-1.5559 -1.9485,-2.2731 z m 3.7362,4.9453 c 0.5076,0.8802 0.96,1.7879 1.3572,2.7229 l -0.9204,0.3911 c -0.3815,-0.8981 -0.8159,-1.7695 -1.3031,-2.6145 z m 2.4081,5.7068 c 0.2826,0.9997 0.5023,2.0131 0.659,3.0402 l -0.9885,0.1509 c -0.1504,-0.9862 -0.3614,-1.9593 -0.6327,-2.9192 z m 0.9329,6.017 c 0.01,0.2682 0.013,0.5368 0.013,0.8057 v 2.1687 h -1 v -2.1687 c 0,-0.2574 0,-0.5152 -0.013,-0.7734 l 0.9995,-0.032 z m 0.013,5.9744 v 3 h -1 v -3 z m 0,6 v 3 h -1 v -3 z m 0,6 v 3 h -1 v -3 z m 0,6 v 3 h -1 v -3 z m 0,6 v 3 h -1 v -3 z m 0,6 v 3 h -1 v -3 z m 0,6 v 3 h -1 v -3 z m 0,6 v 3 h -1 v -3 z m 0,6 v 3 h -1 v -3 z m -0.04,5.9609 c -0.057,1.0054 -0.1742,2.004 -0.3515,2.9957 l -0.9843,-0.1761 c 0.1701,-0.952 0.2826,-1.9107 0.3374,-2.8762 l 0.9984,0.057 z m -1.095,6.0405 c -0.3111,0.9984 -0.683,1.9732 -1.1157,2.9245 l -0.9103,-0.414 c 0.4157,-0.9137 0.7728,-1.8497 1.0713,-2.8079 z m -2.5474,5.6228 c -0.5397,0.8826 -1.132,1.7291 -1.777,2.539 l -0.7822,-0.6228 c 0.6188,-0.7771 1.1874,-1.5897 1.706,-2.438 z m -3.8691,4.8549 c -0.7452,0.7284 -1.53247,1.4074 -2.36187,2.0369 l -0.60462,-0.7966 c 0.79676,-0.6049 1.55262,-1.2566 2.26749,-1.9554 z m -4.93548,3.7515 c -0.87933,0.5104 -1.78595,0.9657 -2.71997,1.3658 l -0.3938,-0.9191 c 0.89746,-0.3846 1.76807,-0.8217 2.61182,-1.3114 z m -5.69727,2.4242 c -0.99969,0.286 -2.01336,0.5088 -3.04113,0.6686 l -0.15369,-0.9881 c 0.98639,-0.1534 1.95966,-0.3674 2.9198,-0.6419 z m -6.02056,0.9514 c -0.29047,0.01 -0.58216,0.015 -0.875,0.015 h -2.09723 v -1 h 2.09723 c 0.27911,0 0.5592,0 0.84033,-0.015 l 0.0347,0.9995 z m -5.97223,0.015 h -3 v -1 h 3 z m -6,0 h -3 v -1 h 3 z m -6,0 h -3 v -1 h 3 z m -6,0 h -3 v -1 h 3 z m -6,0 h -3 v -1 h 3 z m -6,0 h -3 v -1 h 3 z m -6,0 h -3 v -1 h 3 z m -6,0 h -3 v -1 h 3 z m -6,0 h -3 v -1 h 3 z m -6,0 h -3 v -1 h 3 z m -6,0 h -3 v -1 h 3 z m -6,0 h -3 v -1 h 3 z m -6,0 h -3 v -1 h 3 z m -6,0 h -3 v -1 h 3 z m -6,0 h -3 v -1 h 3 z m -6,0 h -3 v -1 h 3 z m -6,0 h -3 v -1 h 3 z m -6,0 h -3 v -1 h 3 z m -6,0 h -3 v -1 h 3 z m -6,0 h -3 v -1 h 3 z m -6,0 h -3 v -1 h 3 z m -6,0 h -3 v -1 h 3 z m -6,0 h -3 v -1 h 3 z m -6,0 h -3 v -1 h 3 z m -6,0 h -3 v -1 h 3 z m -6,0 h -3 v -1 h 3 z m -6,0 h -3 v -1 h 3 z m -6,0 h -3 v -1 h 3 z m -5.9795,-0.01 c -0.99493,-0.024 -1.9851,-0.1071 -2.97045,-0.2492 l 0.1427,-0.9898 c 0.94574,0.1364 1.89636,0.2162 2.85192,0.2393 l -0.0242,0.9997 z m -6.0086,-0.8811 c -1.02289,-0.2795 -2.02374,-0.6225 -3.00263,-1.0291 l 0.38355,-0.9236 c 0.94031,0.3906 1.90118,0.72 2.88263,0.9881 z m -5.73273,-2.362 c -0.89807,-0.5081 -1.76141,-1.0694 -2.59003,-1.6837 l 0.59571,-0.8033 c 0.79583,0.5903 1.62469,1.1291 2.48663,1.6166 z m -4.97381,-3.6923 c -0.75391,-0.7201 -1.46021,-1.4842 -2.11896,-2.2925 l 0.77514,-0.6318 c 0.63239,0.7758 1.31055,1.5095 2.03461,2.2012 z m -3.92634,-4.8137 c -0.54284,-0.8656 -1.03094,-1.7611 -1.46429,-2.6864 l 0.90564,-0.4241 c 0.4162,0.8887 0.88477,1.7484 1.40582,2.5793 z m -2.60766,-5.584 c -0.3241,-0.9989 -0.58441,-2.0143 -0.78095,-3.0459 l 0.9823,-0.187 c 0.18866,0.9904 0.4386,1.9651 0.74982,2.9243 z m -1.16705,-6.0489 c -0.0381,-0.5631 -0.0571,-1.1267 -0.0571,-1.6907 v -1.266 h 1 v 1.266 c -6e-5,0.542 0.0182,1.0831 0.0548,1.6233 l -0.99768,0.067 z m -0.0571,-5.9567 v -2.9999 h 1 v 2.9999 z m 0,-6 v -3 h 1 v 3 z m 0,-6 v -3 h 1 v 3 z m 0,-6 v -3 h 1 v 3 z m 0,-6 v -3 h 1 v 3 z m 0,-6 v -3 h 1 v 3 z m 0,-6 v -3 h 1 v 3 z m 0,-6 v -3 h 1 v 3 z m 0,-6 v -3 h 1 v 3 z m 0.006,-5.9816 c 0.0214,-0.9942 0.10151,-1.9835 0.24042,-2.9679 l 0.99024,0.1397 c -0.13349,0.9454 -0.21045,1.8954 -0.2309,2.8497 l -0.99976,-0.021 z m 0.8628,-6.0052 c 0.27685,-1.0248 0.61743,-2.0277 1.02167,-3.0089 l 0.92456,0.3808 c -0.38813,0.9422 -0.71509,1.9051 -0.9809,2.8888 z m 2.34601,-5.7417 c 0.50506,-0.8991 1.06353,-1.7638 1.67547,-2.594 l 0.80493,0.5933 c -0.58746,0.797 -1.12365,1.6272 -1.60858,2.4904 z m 3.67688,-4.9834 c 0.71777,-0.7561 1.47985,-1.4647 2.28625,-2.1259 l 0.63403,0.7732 c -0.77398,0.6347 -1.50567,1.315 -2.19506,2.0412 z m 4.80285,-3.9413 c 0.8645,-0.5455 1.75885,-1.0364 2.68299,-1.4725 l 0.42688,0.9043 c -0.88752,0.4189 -1.74628,0.8902 -2.5763,1.4139 z m 5.57373,-2.6233 c 0.99872,-0.3273 2.01404,-0.5907 3.04584,-0.7904 l 0.19006,0.9817 c -0.99072,0.1918 -1.96557,0.4447 -2.9245,0.7589 z m 6.05072,-1.1857 c 0.58625,-0.041 1.17334,-0.062 1.76129,-0.062 h 3 v 1 h -3 c -0.56427,0 -1.12799,0.02 -1.6911,0.059 l -0.0702,-0.9976 z"
       style="fill:#000000;fill-opacity:1;fill-rule:nonzero;stroke:none"
       transform="matrix(0.94873593,0,0,0.94873593,-709.06928,-1606.5382)"
       clip-path="url(#clipPath6)" />
    <text
       id="text6"
       xml:space="preserve"
       transform="matrix(0.94873593,0,0,0.94873593,66.492691,40.941863)"
       clip-path="url(#clipPath7)"><tspan
         id="tspan6"
         style="font-variant:normal;font-weight:normal;font-size:12px;font-family:Arial;writing-mode:lr-tb;fill:#000000;fill-opacity:1;fill-rule:nonzero;stroke:none"
         x="0"
         y="0">constraint-name-compartment</tspan></text>
    <text
       id="text7"
       xml:space="preserve"
       transform="matrix(0.94873593,0,0,0.94873593,110.13454,67.506469)"
       clip-path="url(#clipPath8)"><tspan
         id="tspan7"
         style="font-variant:normal;font-weight:normal;font-size:12px;font-family:Arial;writing-mode:lr-tb;fill:#000000;fill-opacity:1;fill-rule:nonzero;stroke:none"
         x="0"
         y="0">general-view</tspan></text>
    <text
       id="text8"
       xml:space="preserve"
       transform="matrix(0.94873593,0,0,0.94873593,94.020862,95.019811)"
       clip-path="url(#clipPath9)"><tspan
         id="tspan8"
         style="font-variant:normal;font-weight:normal;font-size:12px;font-family:Arial;writing-mode:lr-tb;fill:#000000;fill-opacity:1;fill-rule:nonzero;stroke:none"
         x="0"
         y="0">compartment-stack</tspan></text>
    <path
       id="path10"
       d="m 753,1753 h 46 v 15 h -46 z"
       style="fill:#ffffff;fill-opacity:1;fill-rule:nonzero;stroke:none"
       transform="matrix(0.94873593,0,0,0.94873593,-709.54365,-1607.0124)"
       clip-path="url(#clipPath11)" />
    <text
       id="text11"
       xml:space="preserve"
       transform="matrix(0.94873593,0,0,0.94873593,5.1509837,66.557733)"
       clip-path="url(#clipPath12)"><tspan
         id="tspan11"
         style="font-variant:normal;font-weight:normal;font-size:12px;font-family:Arial;writing-mode:lr-tb;fill:#000000;fill-opacity:1;fill-rule:nonzero;stroke:none"
         x="0"
         y="0">param-l*</tspan></text>
    <path
       id="path13"
       d="m 997,1753 h 46 v 15 h -46 z"
       style="fill:#ffffff;fill-opacity:1;fill-rule:nonzero;stroke:none"
       transform="matrix(0.94873593,0,0,0.94873593,-709.54365,-1607.0124)"
       clip-path="url(#clipPath14)" />
    <text
       id="text14"
       xml:space="preserve"
       transform="matrix(0.94873593,0,0,0.94873593,236.01994,66.557733)"
       clip-path="url(#clipPath15)"><tspan
         id="tspan14"
         style="font-variant:normal;font-weight:normal;font-size:12px;font-family:Arial;writing-mode:lr-tb;fill:#000000;fill-opacity:1;fill-rule:nonzero;stroke:none"
         x="0"
         y="0">param-r*</tspan></text>
    <path
       id="path16"
       d="m 869,1808 h 56 v 15 h -56 z"
       style="fill:#ffffff;fill-opacity:1;fill-rule:nonzero;stroke:none"
       transform="matrix(0.94873593,0,0,0.94873593,-709.54365,-1607.0124)"
       clip-path="url(#clipPath17)" />
    <g
       id="g17" />
    <g
       id="g18" />
    <text
       id="text18"
       xml:space="preserve"
       transform="matrix(0.94873593,0,0,0.94873593,114.89305,118.73821)"
       clip-path="url(#clipPath18)"><tspan
         id="tspan18"
         style="font-variant:normal;font-weight:normal;font-size:12px;font-family:Arial;writing-mode:lr-tb;fill:#000000;fill-opacity:1;fill-rule:nonzero;stroke:none"
         x="0"
         y="0"> param-b* </tspan></text>
    <path
       id="path19"
       d="m 871,1700 h 52 v 15 h -52 z"
       style="fill:#ffffff;fill-opacity:1;fill-rule:nonzero;stroke:none"
       transform="matrix(0.94873593,0,0,0.94873593,-709.54365,-1607.0124)"
       clip-path="url(#clipPath20)" />
    <g
       id="g20" />
    <g
       id="g21" />
    <text
       id="text21"
       xml:space="preserve"
       transform="matrix(0.94873593,0,0,0.94873593,116.47922,16.274729)"
       clip-path="url(#clipPath21)"><tspan
         id="tspan21"
         style="font-variant:normal;font-weight:normal;font-size:12px;font-family:Arial;writing-mode:lr-tb;fill:#000000;fill-opacity:1;fill-rule:nonzero;stroke:none"
         x="0"
         y="0"> param-t* </tspan></text>
  </g>
</svg>
