<?xml version="1.0" encoding="UTF-8" standalone="no"?>
<!-- Created with Inkscape (http://www.inkscape.org/) -->

<svg
   version="1.1"
   id="svg1"
   width="286.72"
   height="128"
   viewBox="0 0 286.72 128"
   xmlns="http://www.w3.org/2000/svg"
   xmlns:svg="http://www.w3.org/2000/svg">
  <defs
     id="defs1">
    <clipPath
       clipPathUnits="userSpaceOnUse"
       id="clipPath2">
      <path
         d="M 0,0 H 893.99414 V 399.02344 H 0 Z"
         transform="scale(0.31999999)"
         clip-rule="evenodd"
         id="path2" />
    </clipPath>
    <clipPath
       clipPathUnits="userSpaceOnUse"
       id="clipPath4">
      <path
         d="m 3.125,0 h 887.5 V 399.02344 H 3.125 Z"
         transform="matrix(0.33729089,0,0,0.33729089,415.12315,1705.446)"
         clip-rule="evenodd"
         id="path4" />
    </clipPath>
    <clipPath
       clipPathUnits="userSpaceOnUse"
       id="clipPath5">
      <path
         d="m 3.125,0 h 887.5 V 399.02344 H 3.125 Z"
         transform="matrix(0.33729089,0,0,0.33729089,-69.345631,-43.053976)"
         clip-rule="evenodd"
         id="path5" />
    </clipPath>
    <clipPath
       clipPathUnits="userSpaceOnUse"
       id="clipPath6">
      <path
         d="m 3.125,0 h 887.5 V 399.02344 H 3.125 Z"
         transform="matrix(0.33729089,0,0,0.33729089,-115.34563,-71.053976)"
         clip-rule="evenodd"
         id="path6" />
    </clipPath>
    <clipPath
       clipPathUnits="userSpaceOnUse"
       id="clipPath7">
      <path
         d="m 3.125,0 h 887.5 V 399.02344 H 3.125 Z"
         transform="matrix(0.33729089,0,0,0.33729089,-98.361262,-100.05398)"
         clip-rule="evenodd"
         id="path7" />
    </clipPath>
    <clipPath
       clipPathUnits="userSpaceOnUse"
       id="clipPath9">
      <path
         d="m 3.125,0 h 887.5 V 399.02344 H 3.125 Z"
         transform="matrix(0.33729089,0,0,0.33729089,415.62312,1705.946)"
         clip-rule="evenodd"
         id="path9" />
    </clipPath>
    <clipPath
       clipPathUnits="userSpaceOnUse"
       id="clipPath10">
      <path
         d="m 3.125,0 h 887.5 V 399.02344 H 3.125 Z"
         transform="matrix(0.33729089,0,0,0.33729089,-5.6893816,-70.053976)"
         clip-rule="evenodd"
         id="path10" />
    </clipPath>
    <clipPath
       clipPathUnits="userSpaceOnUse"
       id="clipPath12">
      <path
         d="m 3.125,0 h 887.5 V 399.02344 H 3.125 Z"
         transform="matrix(0.33729089,0,0,0.33729089,415.62312,1705.946)"
         clip-rule="evenodd"
         id="path12" />
    </clipPath>
    <clipPath
       clipPathUnits="userSpaceOnUse"
       id="clipPath13">
      <path
         d="m 3.125,0 h 887.5 V 399.02344 H 3.125 Z"
         transform="matrix(0.33729089,0,0,0.33729089,-248.03313,-70.053976)"
         clip-rule="evenodd"
         id="path13" />
    </clipPath>
    <clipPath
       clipPathUnits="userSpaceOnUse"
       id="clipPath15">
      <path
         d="m 3.125,0 h 887.5 V 399.02344 H 3.125 Z"
         transform="matrix(0.33729089,0,0,0.33729089,415.62312,1705.946)"
         clip-rule="evenodd"
         id="path15" />
    </clipPath>
    <clipPath
       clipPathUnits="userSpaceOnUse"
       id="clipPath16">
      <path
         d="m 3.125,0 h 887.5 V 399.02344 H 3.125 Z"
         transform="matrix(0.33729089,0,0,0.33729089,-121.36126,-125.05398)"
         clip-rule="evenodd"
         id="path16" />
    </clipPath>
    <clipPath
       clipPathUnits="userSpaceOnUse"
       id="clipPath18">
      <path
         d="m 3.125,0 h 887.5 V 399.02344 H 3.125 Z"
         transform="matrix(0.33729089,0,0,0.33729089,415.62312,1705.946)"
         clip-rule="evenodd"
         id="path18" />
    </clipPath>
    <clipPath
       clipPathUnits="userSpaceOnUse"
       id="clipPath19">
      <path
         d="m 3.125,0 h 887.5 V 399.02344 H 3.125 Z"
         transform="matrix(0.33729089,0,0,0.33729089,-123.03313,-17.053976)"
         clip-rule="evenodd"
         id="path19" />
    </clipPath>
  </defs>
  <g
     id="g1">
    <path
       id="path1"
       d="M 0,0 H 286 V 128 H 0 Z"
       style="fill:#ffffff;fill-opacity:1;fill-rule:nonzero;stroke:none"
       clip-path="url(#clipPath2)" />
    <path
       id="path3"
       d="m 478.87997,1720.03 h 172.47001 c 0.80505,2e-4 1.60815,0.04 2.40924,0.1184 0.8012,0.079 1.59655,0.1968 2.38604,0.3538 0.78955,0.1571 1.56952,0.3525 2.33991,0.5862 0.77032,0.2336 1.5274,0.5045 2.27112,0.8125 0.74371,0.3081 1.47058,0.652 2.18054,1.0315 0.70996,0.3794 1.3996,0.7927 2.06891,1.2398 0.66937,0.4474 1.31524,0.9266 1.93756,1.4372 0.62225,0.5106 1.21802,1.0505 1.78729,1.6197 0.56928,0.5694 1.10925,1.1652 1.61993,1.7874 0.51069,0.6222 0.98969,1.268 1.43689,1.9374 0.44727,0.6694 0.86066,1.3591 1.24012,2.069 0.37951,0.71 0.72326,1.4368 1.03131,2.1805 0.3081,0.7437 0.57898,1.5008 0.81268,2.2712 0.2337,0.7704 0.42908,1.5504 0.58612,2.3399 0.15711,0.7896 0.27509,1.585 0.35394,2.3862 0.0789,0.8011 0.11841,1.6042 0.11841,2.4093 v 57.7101 c 0,0.805 -0.0395,1.6081 -0.11841,2.4091 -0.0789,0.8012 -0.19683,1.5965 -0.35394,2.3859 -0.15704,0.7897 -0.35242,1.5697 -0.58612,2.34 -0.2337,0.7704 -0.50458,1.5273 -0.81262,2.2711 -0.30805,0.7438 -0.65186,1.4706 -1.03137,2.1805 -0.37946,0.71 -0.79279,1.3997 -1.24005,2.069 -0.44727,0.6694 -0.92621,1.3153 -1.43689,1.9376 -0.51069,0.6223 -1.05066,1.218 -1.61994,1.7873 -0.56921,0.5692 -1.16498,1.1092 -1.78729,1.62 -0.62225,0.5106 -1.26813,0.9896 -1.93756,1.4367 -0.66937,0.4474 -1.35901,0.8607 -2.06897,1.2401 -0.70996,0.3796 -1.43683,0.7233 -2.18054,1.0313 -0.74372,0.3082 -1.5008,0.5791 -2.27112,0.8127 -0.77039,0.2338 -1.55036,0.4292 -2.33991,0.5861 -0.78949,0.1571 -1.58484,0.2751 -2.38604,0.3541 -0.80109,0.079 -1.60419,0.1184 -2.40924,0.1184 H 478.87997 c -0.80502,0 -1.60809,-0.039 -2.40927,-0.1183 -0.80111,-0.079 -1.59649,-0.197 -2.38611,-0.3541 -0.78952,-0.157 -1.56948,-0.3523 -2.33984,-0.586 -0.77035,-0.2338 -1.52743,-0.5047 -2.27121,-0.8129 -0.74374,-0.308 -1.47058,-0.6517 -2.18057,-1.0313 -0.70996,-0.3794 -1.39963,-0.7927 -2.06897,-1.2401 -0.66934,-0.4471 -1.31516,-0.926 -1.93744,-1.4366 -0.62228,-0.5109 -1.21802,-1.0509 -1.78726,-1.6201 -0.56925,-0.5693 -1.10919,-1.165 -1.61991,-1.7874 -0.51071,-0.6223 -0.98968,-1.2682 -1.43695,-1.9376 -0.44723,-0.6693 -0.86062,-1.3589 -1.24014,-2.0689 -0.37949,-0.7099 -0.72327,-1.4369 -1.03134,-2.1806 -0.30804,-0.7437 -0.57892,-1.5008 -0.81259,-2.2711 -0.23371,-0.7702 -0.42908,-1.5501 -0.58615,-2.3398 -0.15702,-0.7894 -0.27494,-1.5848 -0.35382,-2.386 -0.079,-0.801 -0.11841,-1.6041 -0.11841,-2.4091 V 1744.61 c 0,-0.8051 0.0395,-1.6082 0.11838,-2.4093 0.0789,-0.8012 0.19683,-1.5966 0.35385,-2.3861 0.15707,-0.7895 0.35244,-1.5694 0.58612,-2.3397 0.2337,-0.7704 0.50458,-1.5276 0.81262,-2.2714 0.30807,-0.7437 0.65185,-1.4705 1.03134,-2.1806 0.37949,-0.7099 0.79285,-1.3996 1.24008,-2.069 0.44727,-0.6694 0.92624,-1.315 1.43695,-1.9372 0.51072,-0.6223 1.05069,-1.2181 1.61994,-1.7875 0.56924,-0.5692 1.16501,-1.1091 1.78729,-1.6197 0.62228,-0.5107 1.2681,-0.9897 1.93744,-1.4371 0.66934,-0.4472 1.35901,-0.8605 2.06897,-1.24 0.70999,-0.3794 1.43683,-0.7232 2.18057,-1.0314 0.74378,-0.308 1.50086,-0.5789 2.27121,-0.8124 0.77039,-0.2337 1.55035,-0.4292 2.33988,-0.5863 0.78958,-0.157 1.58496,-0.2749 2.3861,-0.3539 0.80115,-0.079 1.60422,-0.1182 2.40924,-0.1184 z"
       style="fill:#ffffff;fill-opacity:1;fill-rule:nonzero;stroke:#000000;stroke-width:1;stroke-linecap:butt;stroke-linejoin:miter;stroke-miterlimit:10;stroke-dasharray:none;stroke-opacity:1"
       transform="matrix(0.94873593,0,0,0.94873593,-393.84225,-1618.0179)"
       clip-path="url(#clipPath4)" />
    <text
       id="text4"
       xml:space="preserve"
       transform="matrix(0.94873593,0,0,0.94873593,65.790692,40.846854)"
       clip-path="url(#clipPath5)"><tspan
         id="tspan4"
         style="font-variant:normal;font-weight:normal;font-size:12px;font-family:Arial;writing-mode:lr-tb;fill:#000000;fill-opacity:1;fill-rule:nonzero;stroke:none"
         x="0"
         y="0">constraint-name-compartment</tspan></text>
    <text
       id="text5"
       xml:space="preserve"
       transform="matrix(0.94873593,0,0,0.94873593,109.43254,67.41146)"
       clip-path="url(#clipPath6)"><tspan
         id="tspan5"
         style="font-variant:normal;font-weight:normal;font-size:12px;font-family:Arial;writing-mode:lr-tb;fill:#000000;fill-opacity:1;fill-rule:nonzero;stroke:none"
         x="0"
         y="0">general-view</tspan></text>
    <text
       id="text6"
       xml:space="preserve"
       transform="matrix(0.94873593,0,0,0.94873593,93.318863,94.924802)"
       clip-path="url(#clipPath7)"><tspan
         id="tspan6"
         style="font-variant:normal;font-weight:normal;font-size:12px;font-family:Arial;writing-mode:lr-tb;fill:#000000;fill-opacity:1;fill-rule:nonzero;stroke:none"
         x="0"
         y="0">compartment-stack</tspan></text>
    <path
       id="path8"
       d="m 421,1765 h 46 v 15 h -46 z"
       style="fill:#ffffff;fill-opacity:1;fill-rule:nonzero;stroke:none"
       transform="matrix(0.94873593,0,0,0.94873593,-394.31659,-1618.4923)"
       clip-path="url(#clipPath9)" />
    <text
       id="text9"
       xml:space="preserve"
       transform="matrix(0.94873593,0,0,0.94873593,5.3977207,66.462724)"
       clip-path="url(#clipPath10)"><tspan
         id="tspan9"
         style="font-variant:normal;font-weight:normal;font-size:12px;font-family:Arial;writing-mode:lr-tb;fill:#000000;fill-opacity:1;fill-rule:nonzero;stroke:none"
         x="0"
         y="0">param-l*</tspan></text>
    <path
       id="path11"
       d="m 664,1765 h 46 v 15 h -46 z"
       style="fill:#ffffff;fill-opacity:1;fill-rule:nonzero;stroke:none"
       transform="matrix(0.94873593,0,0,0.94873593,-394.31659,-1618.4923)"
       clip-path="url(#clipPath12)" />
    <text
       id="text12"
       xml:space="preserve"
       transform="matrix(0.94873593,0,0,0.94873593,235.31794,66.462724)"
       clip-path="url(#clipPath13)"><tspan
         id="tspan12"
         style="font-variant:normal;font-weight:normal;font-size:12px;font-family:Arial;writing-mode:lr-tb;fill:#000000;fill-opacity:1;fill-rule:nonzero;stroke:none"
         x="0"
         y="0">param-r*</tspan></text>
    <path
       id="path14"
       d="m 537,1820 h 56 v 15 h -56 z"
       style="fill:#ffffff;fill-opacity:1;fill-rule:nonzero;stroke:none"
       transform="matrix(0.94873593,0,0,0.94873593,-394.31659,-1618.4923)"
       clip-path="url(#clipPath15)" />
    <g
       id="g15" />
    <g
       id="g16" />
    <text
       id="text16"
       xml:space="preserve"
       transform="matrix(0.94873593,0,0,0.94873593,115.13979,118.6432)"
       clip-path="url(#clipPath16)"><tspan
         id="tspan16"
         style="font-variant:normal;font-weight:normal;font-size:12px;font-family:Arial;writing-mode:lr-tb;fill:#000000;fill-opacity:1;fill-rule:nonzero;stroke:none"
         x="0"
         y="0"> param-b* </tspan></text>
    <path
       id="path17"
       d="m 539,1712 h 52 v 15 h -52 z"
       style="fill:#ffffff;fill-opacity:1;fill-rule:nonzero;stroke:none"
       transform="matrix(0.94873593,0,0,0.94873593,-394.31659,-1618.4923)"
       clip-path="url(#clipPath18)" />
    <g
       id="g18" />
    <g
       id="g19" />
    <text
       id="text19"
       xml:space="preserve"
       transform="matrix(0.94873593,0,0,0.94873593,116.72595,16.17972)"
       clip-path="url(#clipPath19)"><tspan
         id="tspan19"
         style="font-variant:normal;font-weight:normal;font-size:12px;font-family:Arial;writing-mode:lr-tb;fill:#000000;fill-opacity:1;fill-rule:nonzero;stroke:none"
         x="0"
         y="0"> param-t* </tspan></text>
  </g>
</svg>
