<?xml version="1.0" encoding="UTF-8" standalone="no"?>
<!-- Created with Inkscape (http://www.inkscape.org/) -->

<svg
   version="1.1"
   id="svg1"
   width="307.84"
   height="25.279999"
   viewBox="0 0 307.84 25.279999"
   xmlns="http://www.w3.org/2000/svg"
   xmlns:svg="http://www.w3.org/2000/svg">
  <defs
     id="defs1">
    <clipPath
       clipPathUnits="userSpaceOnUse"
       id="clipPath2">
      <path
         d="M 0,0 H 962.98828 V 77.978516 H 0 Z"
         transform="scale(0.31999999)"
         clip-rule="evenodd"
         id="path2" />
    </clipPath>
    <clipPath
       clipPathUnits="userSpaceOnUse"
       id="clipPath4">
      <path
         d="m 3.125,0 h 956.25 V 77.978516 H 3.125 Z"
         transform="matrix(0.33823835,0,0,0.33823835,126.79114,-962.00001)"
         clip-rule="evenodd"
         id="path4" />
    </clipPath>
    <clipPath
       clipPathUnits="userSpaceOnUse"
       id="clipPath6">
      <path
         d="m 3.125,0 h 956.25 V 77.978516 H 3.125 Z"
         transform="matrix(0.33823835,0,0,0.33823835,126.79114,-962.00001)"
         clip-rule="evenodd"
         id="path6" />
    </clipPath>
    <clipPath
       clipPathUnits="userSpaceOnUse"
       id="clipPath8">
      <path
         d="m 3.125,0 h 956.25 V 77.978516 H 3.125 Z"
         transform="matrix(-0.33823835,0,0,-0.33823835,365.9289,-930.28008)"
         clip-rule="evenodd"
         id="path8" />
    </clipPath>
    <clipPath
       clipPathUnits="userSpaceOnUse"
       id="clipPath10">
      <path
         d="m 3.125,0 h 956.25 V 77.978516 H 3.125 Z"
         transform="matrix(-0.33823835,0,0,-0.33823835,365.9289,-946.28011)"
         clip-rule="evenodd"
         id="path10" />
    </clipPath>
    <clipPath
       clipPathUnits="userSpaceOnUse"
       id="clipPath11">
      <path
         d="m 3.125,0 h 956.25 V 77.978516 H 3.125 Z"
         transform="matrix(0.33823835,0,0,0.33823835,-7.6619914,-15.500087)"
         clip-rule="evenodd"
         id="path11" />
    </clipPath>
    <clipPath
       clipPathUnits="userSpaceOnUse"
       id="clipPath12">
      <path
         d="m 3.125,0 h 956.25 V 77.978516 H 3.125 Z"
         transform="matrix(0.33823835,0,0,0.33823835,-235.33387,-15.500087)"
         clip-rule="evenodd"
         id="path12" />
    </clipPath>
  </defs>
  <g
     id="g1">
    <path
       id="path1"
       d="M 0,0 H 308 V 25 H 0 Z"
       style="fill:#ffffff;fill-opacity:1;fill-rule:nonzero;stroke:none"
       clip-path="url(#clipPath2)" />
    <path
       id="path3"
       d="M 359.5,-950 H 241.62"
       style="fill:none;stroke:#000000;stroke-width:1;stroke-linecap:butt;stroke-linejoin:miter;stroke-miterlimit:10;stroke-dasharray:none;stroke-opacity:1"
       transform="matrix(0.94607836,0,0,0.94607836,-119.95435,910.12739)"
       clip-path="url(#clipPath4)" />
    <path
       id="path5"
       d="m 230.62,-950 11,-5.5 v 11 z"
       style="fill:none;stroke:#000000;stroke-width:1;stroke-linecap:butt;stroke-linejoin:miter;stroke-miterlimit:10;stroke-dasharray:none;stroke-opacity:1"
       transform="matrix(0.94607836,0,0,0.94607836,-119.95435,910.12739)"
       clip-path="url(#clipPath6)" />
    <path
       id="path7"
       d="m 248.21713,-946.14001 c -1e-5,0.24633 -0.0471,0.48327 -0.1414,0.71081 -0.0942,0.22754 -0.22842,0.42835 -0.40256,0.60248 -0.17415,0.17413 -0.37498,0.30835 -0.60251,0.40253 -0.22752,0.0942 -0.46441,0.14135 -0.71067,0.14135 -0.2463,0 -0.4832,-0.0471 -0.71074,-0.14129 -0.22753,-0.0942 -0.42835,-0.22846 -0.60247,-0.40259 -0.17416,-0.17413 -0.30836,-0.37494 -0.4026,-0.60248 -0.0942,-0.22754 -0.14134,-0.46448 -0.14133,-0.71081 -1e-5,-0.24616 0.0471,-0.48304 0.14132,-0.71058 0.0942,-0.22754 0.22845,-0.4284 0.40261,-0.6026 0.17412,-0.17407 0.37494,-0.30822 0.60247,-0.40246 0.22754,-0.0943 0.46444,-0.14142 0.71074,-0.14148 0.24626,6e-5 0.48313,0.0472 0.71066,0.14148 0.22752,0.0942 0.42837,0.22839 0.60252,0.40246 0.17414,0.1742 0.30832,0.37506 0.40257,0.60254 0.0942,0.2276 0.14138,0.46448 0.14139,0.71064 z"
       style="fill:#000000;fill-opacity:1;fill-rule:nonzero;stroke:none"
       transform="matrix(-0.94607836,0,0,-0.94607836,346.19741,-880.11785)"
       clip-path="url(#clipPath8)" />
    <path
       id="path9"
       d="m 248.21713,-954.14001 c -1e-5,0.24633 -0.0471,0.48327 -0.1414,0.71087 -0.0942,0.22748 -0.22842,0.42829 -0.40256,0.60236 -0.17415,0.17419 -0.37498,0.30841 -0.60251,0.40271 -0.22752,0.0942 -0.46441,0.14123 -0.71067,0.14123 -0.2463,0 -0.4832,-0.0471 -0.71074,-0.14123 -0.22753,-0.0943 -0.42835,-0.22852 -0.60247,-0.40271 -0.17416,-0.17407 -0.30836,-0.37488 -0.4026,-0.60248 -0.0942,-0.22748 -0.14134,-0.46442 -0.14133,-0.71075 -1e-5,-0.24622 0.0471,-0.48304 0.14132,-0.71051 0.0942,-0.22748 0.22845,-0.42835 0.40261,-0.60254 0.17412,-0.17414 0.37494,-0.30829 0.60247,-0.40259 0.22754,-0.0943 0.46444,-0.14142 0.71074,-0.14148 0.24626,6e-5 0.48313,0.0472 0.71066,0.14148 0.22752,0.0943 0.42837,0.22845 0.60252,0.40259 0.17414,0.17419 0.30832,0.37506 0.40257,0.60254 0.0942,0.22747 0.14138,0.46429 0.14139,0.71051 z"
       style="fill:#000000;fill-opacity:1;fill-rule:nonzero;stroke:none"
       transform="matrix(-0.94607836,0,0,-0.94607836,346.19741,-895.25513)"
       clip-path="url(#clipPath10)" />
    <g
       id="g10" />
    <text
       id="text10"
       xml:space="preserve"
       transform="matrix(0.94607836,0,0,0.94607836,7.2488443,14.664297)"
       clip-path="url(#clipPath11)"><tspan
         id="tspan10"
         style="font-variant:normal;font-weight:normal;font-size:12px;font-family:Arial;writing-mode:lr-tb;fill:#000000;fill-opacity:1;fill-rule:nonzero;stroke:none"
         x="0"
         y="0">&amp;definition-node </tspan></text>
    <g
       id="g11" />
    <text
       id="text11"
       xml:space="preserve"
       transform="matrix(0.94607836,0,0,0.94607836,222.64428,14.664297)"
       clip-path="url(#clipPath12)"><tspan
         id="tspan11"
         style="font-variant:normal;font-weight:normal;font-size:12px;font-family:Arial;writing-mode:lr-tb;fill:#000000;fill-opacity:1;fill-rule:nonzero;stroke:none"
         x="0"
         y="0">&amp;usage-node </tspan></text>
  </g>
</svg>
