<?xml version="1.0" encoding="UTF-8" standalone="no"?>
<!-- Created with Inkscape (http://www.inkscape.org/) -->

<svg
   version="1.1"
   id="svg1"
   width="286.72"
   height="128"
   viewBox="0 0 286.72 128"
   xmlns="http://www.w3.org/2000/svg"
   xmlns:svg="http://www.w3.org/2000/svg">
  <defs
     id="defs1">
    <clipPath
       clipPathUnits="userSpaceOnUse"
       id="clipPath2">
      <path
         d="M 0,0 H 893.99414 V 399.02344 H 0 Z"
         transform="scale(0.31999999)"
         clip-rule="evenodd"
         id="path2" />
    </clipPath>
    <clipPath
       clipPathUnits="userSpaceOnUse"
       id="clipPath4">
      <path
         d="m 3.125,0 h 887.5 V 399.02344 H 3.125 Z"
         transform="matrix(0.33729089,0,0,0.33729089,286.38315,1806.4459)"
         clip-rule="evenodd"
         id="path4" />
    </clipPath>
    <clipPath
       clipPathUnits="userSpaceOnUse"
       id="clipPath5">
      <path
         d="m 3.125,0 h 887.5 V 399.02344 H 3.125 Z"
         transform="matrix(0.33729089,0,0,0.33729089,-91.757475,-57.054142)"
         clip-rule="evenodd"
         id="path5" />
    </clipPath>
    <clipPath
       clipPathUnits="userSpaceOnUse"
       id="clipPath6">
      <path
         d="m 3.125,0 h 887.5 V 399.02344 H 3.125 Z"
         transform="matrix(0.33729089,0,0,0.33729089,-94.413725,-86.054142)"
         clip-rule="evenodd"
         id="path6" />
    </clipPath>
    <clipPath
       clipPathUnits="userSpaceOnUse"
       id="clipPath8">
      <path
         d="m 3.125,0 h 887.5 V 399.02344 H 3.125 Z"
         transform="matrix(0.33729089,0,0,0.33729089,286.88316,1806.9459)"
         clip-rule="evenodd"
         id="path8" />
    </clipPath>
    <clipPath
       clipPathUnits="userSpaceOnUse"
       id="clipPath9">
      <path
         d="m 3.125,0 h 887.5 V 399.02344 H 3.125 Z"
         transform="matrix(0.33729089,0,0,0.33729089,-5.4293447,-70.054141)"
         clip-rule="evenodd"
         id="path9" />
    </clipPath>
    <clipPath
       clipPathUnits="userSpaceOnUse"
       id="clipPath11">
      <path
         d="m 3.125,0 h 887.5 V 399.02344 H 3.125 Z"
         transform="matrix(0.33729089,0,0,0.33729089,286.88316,1806.9459)"
         clip-rule="evenodd"
         id="path11" />
    </clipPath>
    <clipPath
       clipPathUnits="userSpaceOnUse"
       id="clipPath12">
      <path
         d="m 3.125,0 h 887.5 V 399.02344 H 3.125 Z"
         transform="matrix(0.33729089,0,0,0.33729089,-248.77309,-70.054141)"
         clip-rule="evenodd"
         id="path12" />
    </clipPath>
    <clipPath
       clipPathUnits="userSpaceOnUse"
       id="clipPath14">
      <path
         d="m 3.125,0 h 887.5 V 399.02344 H 3.125 Z"
         transform="matrix(0.33729089,0,0,0.33729089,286.88316,1806.9459)"
         clip-rule="evenodd"
         id="path14" />
    </clipPath>
    <clipPath
       clipPathUnits="userSpaceOnUse"
       id="clipPath15">
      <path
         d="m 3.125,0 h 887.5 V 399.02344 H 3.125 Z"
         transform="matrix(0.33729089,0,0,0.33729089,-121.10122,-125.05414)"
         clip-rule="evenodd"
         id="path15" />
    </clipPath>
    <clipPath
       clipPathUnits="userSpaceOnUse"
       id="clipPath17">
      <path
         d="m 3.125,0 h 887.5 V 399.02344 H 3.125 Z"
         transform="matrix(0.33729089,0,0,0.33729089,286.88316,1806.9459)"
         clip-rule="evenodd"
         id="path17" />
    </clipPath>
    <clipPath
       clipPathUnits="userSpaceOnUse"
       id="clipPath18">
      <path
         d="m 3.125,0 h 887.5 V 399.02344 H 3.125 Z"
         transform="matrix(0.33729089,0,0,0.33729089,-122.7731,-17.054142)"
         clip-rule="evenodd"
         id="path18" />
    </clipPath>
  </defs>
  <g
     id="g1">
    <path
       id="path1"
       d="M 0,0 H 286 V 128 H 0 Z"
       style="fill:#ffffff;fill-opacity:1;fill-rule:nonzero;stroke:none"
       clip-path="url(#clipPath2)" />
    <path
       id="path3"
       d="m 350.13998,1821.03 h 172.47001 c 0.80499,2e-4 1.60803,0.04 2.40924,0.1186 0.80114,0.079 1.59649,0.1967 2.38604,0.3537 0.78962,0.1571 1.56958,0.3526 2.33991,0.5862 0.77032,0.2336 1.5274,0.5044 2.27112,0.8124 0.74377,0.3081 1.47064,0.652 2.1806,1.0315 0.71002,0.3794 1.39966,0.7927 2.06897,1.2398 0.66937,0.4474 1.31518,0.9266 1.9375,1.4372 0.62231,0.5107 1.21808,1.0506 1.78729,1.6198 0.56928,0.5693 1.10919,1.1651 1.61987,1.7874 0.51075,0.6222 0.98969,1.2681 1.43689,1.9374 0.44727,0.6694 0.86066,1.3591 1.24018,2.0691 0.37945,0.7099 0.72326,1.4367 1.03131,2.1804 0.30804,0.7438 0.57892,1.5008 0.81262,2.2712 0.23364,0.7704 0.42902,1.5503 0.58606,2.3398 0.15704,0.7896 0.27509,1.585 0.354,2.3862 0.0789,0.8011 0.11835,1.6042 0.11841,2.4093 v 57.7101 c -6e-5,0.805 -0.0395,1.6081 -0.11841,2.4091 -0.0789,0.8013 -0.19696,1.5967 -0.354,2.3862 -0.15704,0.7895 -0.35242,1.5695 -0.58606,2.3399 -0.2337,0.7703 -0.50458,1.5272 -0.81262,2.271 -0.30811,0.7438 -0.65192,1.4707 -1.03137,2.1806 -0.37952,0.7099 -0.79291,1.3995 -1.24012,2.0688 -0.4472,0.6694 -0.9262,1.3153 -1.43689,1.9376 -0.51068,0.6223 -1.05065,1.218 -1.61993,1.7873 -0.56921,0.5693 -1.16498,1.1093 -1.78729,1.62 -0.62226,0.5107 -1.26813,0.9897 -1.9375,1.4368 -0.66937,0.4473 -1.35901,0.8606 -2.06891,1.2402 -0.71002,0.3795 -1.43689,0.7232 -2.1806,1.0312 -0.74372,0.3082 -1.5008,0.5791 -2.27112,0.8129 -0.77039,0.2336 -1.55036,0.4289 -2.33997,0.5858 -0.78955,0.1571 -1.5849,0.2751 -2.38598,0.3541 -0.80121,0.079 -1.60425,0.1184 -2.40924,0.1184 H 350.13998 c -0.80502,0 -1.60809,-0.039 -2.40927,-0.1183 -0.80114,-0.079 -1.59649,-0.197 -2.38607,-0.3541 -0.78956,-0.157 -1.56952,-0.3523 -2.33988,-0.5859 -0.77035,-0.2338 -1.52743,-0.5047 -2.27118,-0.8129 -0.74374,-0.308 -1.47058,-0.6517 -2.18057,-1.0312 -0.70996,-0.3796 -1.39963,-0.7929 -2.06897,-1.2402 -0.66934,-0.4471 -1.31516,-0.926 -1.93744,-1.4367 -0.62228,-0.5106 -1.21805,-1.0507 -1.78732,-1.62 -0.56922,-0.5692 -1.10919,-1.1649 -1.61991,-1.7874 -0.51071,-0.6222 -0.98968,-1.268 -1.43692,-1.9376 -0.44723,-0.6693 -0.86062,-1.359 -1.24011,-2.069 -0.37948,-0.7099 -0.72327,-1.4369 -1.03134,-2.1806 -0.30804,-0.7437 -0.57892,-1.5006 -0.81259,-2.271 -0.23371,-0.7704 -0.42908,-1.5503 -0.58615,-2.34 -0.15702,-0.7894 -0.275,-1.5847 -0.35388,-2.3859 -0.0789,-0.801 -0.11835,-1.6041 -0.11838,-2.4091 V 1845.61 c 3e-5,-0.8051 0.0395,-1.6082 0.11838,-2.4093 0.0789,-0.8012 0.19686,-1.5966 0.35388,-2.3861 0.15707,-0.7896 0.35244,-1.5695 0.58615,-2.3399 0.23367,-0.7704 0.50455,-1.5273 0.81259,-2.2711 0.30807,-0.7438 0.65186,-1.4706 1.03134,-2.1804 0.37949,-0.7101 0.79288,-1.3998 1.24011,-2.0692 0.44724,-0.6693 0.92621,-1.3151 1.43692,-1.9373 0.51072,-0.6222 1.05069,-1.218 1.61991,-1.7873 0.56927,-0.5692 1.16504,-1.1092 1.78732,-1.6199 0.62228,-0.5107 1.2681,-0.9897 1.93744,-1.4371 0.66934,-0.4473 1.35901,-0.8606 2.069,-1.24 0.70996,-0.3795 1.4368,-0.7234 2.18054,-1.0315 0.74375,-0.308 1.50083,-0.5788 2.27121,-0.8124 0.77036,-0.2338 1.55029,-0.4292 2.33985,-0.5863 0.78958,-0.157 1.58493,-0.2749 2.38607,-0.3538 0.80118,-0.079 1.60425,-0.1182 2.40927,-0.1184 z"
       style="fill:#ffffff;fill-opacity:1;fill-rule:nonzero;stroke:#000000;stroke-width:1;stroke-linecap:butt;stroke-linejoin:miter;stroke-miterlimit:10;stroke-dasharray:none;stroke-opacity:1"
       transform="matrix(0.94873593,0,0,0.94873593,-271.70198,-1713.8401)"
       clip-path="url(#clipPath4)" />
    <text
       id="text4"
       xml:space="preserve"
       transform="matrix(0.94873593,0,0,0.94873593,87.053613,54.129314)"
       clip-path="url(#clipPath5)"><tspan
         id="tspan4"
         style="font-variant:normal;font-weight:normal;font-size:12px;font-family:Arial;writing-mode:lr-tb;fill:#000000;fill-opacity:1;fill-rule:nonzero;stroke:none"
         x="0"
         y="0">do-action-name-comp</tspan></text>
    <text
       id="text5"
       xml:space="preserve"
       transform="matrix(0.94873593,0,0,0.94873593,89.573693,81.642656)"
       clip-path="url(#clipPath6)"><tspan
         id="tspan5"
         style="font-variant:normal;font-weight:normal;font-size:12px;font-family:Arial;writing-mode:lr-tb;fill:#000000;fill-opacity:1;fill-rule:nonzero;stroke:none"
         x="0"
         y="0">state-subaction-body</tspan></text>
    <path
       id="path7"
       d="m 292,1866 h 46 v 15 h -46 z"
       style="fill:#ffffff;fill-opacity:1;fill-rule:nonzero;stroke:none"
       transform="matrix(0.94873593,0,0,0.94873593,-272.17636,-1714.3145)"
       clip-path="url(#clipPath8)" />
    <text
       id="text8"
       xml:space="preserve"
       transform="matrix(0.94873593,0,0,0.94873593,5.1510144,66.462881)"
       clip-path="url(#clipPath9)"><tspan
         id="tspan8"
         style="font-variant:normal;font-weight:normal;font-size:12px;font-family:Arial;writing-mode:lr-tb;fill:#000000;fill-opacity:1;fill-rule:nonzero;stroke:none"
         x="0"
         y="0">param-l*</tspan></text>
    <path
       id="path10"
       d="m 536,1866 h 46 v 15 h -46 z"
       style="fill:#ffffff;fill-opacity:1;fill-rule:nonzero;stroke:none"
       transform="matrix(0.94873593,0,0,0.94873593,-272.17636,-1714.3145)"
       clip-path="url(#clipPath11)" />
    <text
       id="text11"
       xml:space="preserve"
       transform="matrix(0.94873593,0,0,0.94873593,236.01997,66.462881)"
       clip-path="url(#clipPath12)"><tspan
         id="tspan11"
         style="font-variant:normal;font-weight:normal;font-size:12px;font-family:Arial;writing-mode:lr-tb;fill:#000000;fill-opacity:1;fill-rule:nonzero;stroke:none"
         x="0"
         y="0">param-r*</tspan></text>
    <path
       id="path13"
       d="m 408,1921 h 56 v 15 h -56 z"
       style="fill:#ffffff;fill-opacity:1;fill-rule:nonzero;stroke:none"
       transform="matrix(0.94873593,0,0,0.94873593,-272.17636,-1714.3145)"
       clip-path="url(#clipPath14)" />
    <g
       id="g14" />
    <g
       id="g15" />
    <text
       id="text15"
       xml:space="preserve"
       transform="matrix(0.94873593,0,0,0.94873593,114.89308,118.64336)"
       clip-path="url(#clipPath15)"><tspan
         id="tspan15"
         style="font-variant:normal;font-weight:normal;font-size:12px;font-family:Arial;writing-mode:lr-tb;fill:#000000;fill-opacity:1;fill-rule:nonzero;stroke:none"
         x="0"
         y="0"> param-b* </tspan></text>
    <path
       id="path16"
       d="m 410,1813 h 52 v 15 h -52 z"
       style="fill:#ffffff;fill-opacity:1;fill-rule:nonzero;stroke:none"
       transform="matrix(0.94873593,0,0,0.94873593,-272.17636,-1714.3145)"
       clip-path="url(#clipPath17)" />
    <g
       id="g17" />
    <g
       id="g18" />
    <text
       id="text18"
       xml:space="preserve"
       transform="matrix(0.94873593,0,0,0.94873593,116.47925,16.179877)"
       clip-path="url(#clipPath18)"><tspan
         id="tspan18"
         style="font-variant:normal;font-weight:normal;font-size:12px;font-family:Arial;writing-mode:lr-tb;fill:#000000;fill-opacity:1;fill-rule:nonzero;stroke:none"
         x="0"
         y="0"> param-t* </tspan></text>
  </g>
</svg>
