<?xml version="1.0" encoding="UTF-8" standalone="no"?>
<!-- Created with Inkscape (http://www.inkscape.org/) -->

<svg
   version="1.1"
   id="svg1"
   width="45.439999"
   height="26.559999"
   viewBox="0 0 45.439999 26.559999"
   xmlns="http://www.w3.org/2000/svg"
   xmlns:svg="http://www.w3.org/2000/svg">
  <defs
     id="defs1">
    <clipPath
       clipPathUnits="userSpaceOnUse"
       id="clipPath2">
      <path
         d="M 0,0 H 141.01562 V 83.984375 H 0 Z"
         transform="scale(0.31999999)"
         clip-rule="evenodd"
         id="path2" />
    </clipPath>
    <clipPath
       clipPathUnits="userSpaceOnUse"
       id="clipPath4">
      <path
         d="M 3.125,0 H 137.5 V 83.984375 H 3.125 Z"
         transform="matrix(0.36051884,0,0,0.36051884,525.72379,2911.8734)"
         clip-rule="evenodd"
         id="path4" />
    </clipPath>
    <clipPath
       clipPathUnits="userSpaceOnUse"
       id="clipPath6">
      <path
         d="M 3.125,0 H 137.5 V 83.984375 H 3.125 Z"
         transform="matrix(0.36051884,0,0,0.36051884,525.72379,2911.8734)"
         clip-rule="evenodd"
         id="path6" />
    </clipPath>
    <clipPath
       clipPathUnits="userSpaceOnUse"
       id="clipPath7">
      <path
         d="M 3.125,0 H 137.5 V 83.984375 H 3.125 Z"
         transform="matrix(0.36051884,0,0,0.36051884,-44.604356,-20.626485)"
         clip-rule="evenodd"
         id="path7" />
    </clipPath>
  </defs>
  <g
     id="g1">
    <path
       id="path1"
       d="M 0,0 H 45 V 27 H 0 Z"
       style="fill:#ffffff;fill-opacity:1;fill-rule:nonzero;stroke:none"
       clip-path="url(#clipPath2)" />
    <path
       id="path3"
       d="m 550.98999,2927 c -6e-5,0.5908 -0.0577,1.176 -0.17297,1.7556 -0.1153,0.5796 -0.28601,1.1423 -0.51215,1.6882 -0.22613,0.5459 -0.50336,1.0645 -0.83166,1.556 -0.32831,0.4914 -0.70142,0.946 -1.11927,1.364 -0.4179,0.4177 -0.87249,0.7907 -1.36389,1.1191 -0.49133,0.3284 -1.01001,0.6055 -1.55597,0.8318 -0.54596,0.2263 -1.10876,0.397 -1.68829,0.5122 -0.57965,0.1152 -1.16492,0.1729 -1.7558,0.1731 -0.591,-2e-4 -1.17627,-0.058 -1.75586,-0.1731 -0.57959,-0.1152 -1.14239,-0.2859 -1.68835,-0.5122 -0.54596,-0.2263 -1.06464,-0.5034 -1.55597,-0.8315 -0.49134,-0.3284 -0.94593,-0.7017 -1.36377,-1.1194 -0.41791,-0.418 -0.79102,-0.8726 -1.11933,-1.364 -0.3283,-0.4915 -0.60553,-1.0101 -0.83166,-1.556 -0.22614,-0.5459 -0.39685,-1.1086 -0.51215,-1.6882 -0.11529,-0.5796 -0.17291,-1.1648 -0.17291,-1.7556 0,-0.5911 0.0576,-1.1765 0.17291,-1.7561 0.1153,-0.5798 0.28601,-1.1426 0.51215,-1.6885 0.22613,-0.5459 0.50336,-1.0644 0.83166,-1.5559 0.32831,-0.4912 0.70142,-0.9458 1.11933,-1.3635 0.41784,-0.418 0.87243,-0.791 1.36383,-1.1194 0.49127,-0.3284 1.00995,-0.6057 1.55591,-0.8315 0.54596,-0.2261 1.10876,-0.3968 1.68835,-0.512 0.57959,-0.1155 1.16486,-0.1731 1.75586,-0.1731 0.59088,0 1.17615,0.058 1.7558,0.1731 0.57953,0.1152 1.14233,0.2859 1.68829,0.512 0.54596,0.2258 1.06464,0.5031 1.55597,0.8315 0.4914,0.3284 0.94599,0.7014 1.36389,1.1194 0.41785,0.4177 0.79096,0.8723 1.11927,1.3638 0.3283,0.4912 0.60553,1.0097 0.83166,1.5559 0.22614,0.5459 0.39685,1.1086 0.51215,1.6882 0.11529,0.5796 0.17291,1.165 0.17297,1.7561 z"
       style="fill:#000000;fill-opacity:1;fill-rule:nonzero;stroke:#000000;stroke-width:1;stroke-linecap:butt;stroke-linejoin:miter;stroke-miterlimit:10;stroke-dasharray:none;stroke-opacity:1"
       transform="matrix(0.8876096,0,0,0.8876096,-466.63748,-2584.6068)"
       clip-path="url(#clipPath4)" />
    <path
       id="path5"
       d="m 554.98999,2927 c -6e-5,0.8535 -0.0833,1.6987 -0.24982,2.5356 -0.16656,0.8372 -0.4132,1.6502 -0.73986,2.4385 -0.32666,0.7888 -0.72712,1.5381 -1.2013,2.2478 -0.47424,0.7097 -1.01312,1.3662 -1.6167,1.97 -0.60357,0.6035 -1.26025,1.1423 -1.96997,1.6167 -0.70978,0.4744 -1.45892,0.8747 -2.24756,1.2014 -0.78863,0.3267 -1.6015,0.5733 -2.43872,0.7398 -0.83722,0.1667 -1.68255,0.25 -2.53607,0.2502 -0.85364,-2e-4 -1.69904,-0.084 -2.53619,-0.2502 -0.83722,-0.1665 -1.65009,-0.4131 -2.43872,-0.7398 -0.78864,-0.3267 -1.53779,-0.727 -2.2475,-1.2014 -0.70978,-0.4744 -1.36646,-1.0132 -1.97003,-1.6167 -0.60358,-0.6038 -1.14252,-1.2603 -1.61676,-1.97 -0.47425,-0.7097 -0.8747,-1.459 -1.2013,-2.2478 -0.32666,-0.7883 -0.57324,-1.6013 -0.73974,-2.4385 -0.16651,-0.8369 -0.24976,-1.6821 -0.24976,-2.5356 0,-0.8538 0.0833,-1.6992 0.24976,-2.5364 0.1665,-0.8371 0.41308,-1.6501 0.73974,-2.4389 0.3266,-0.7886 0.72705,-1.5379 1.2013,-2.2478 0.47424,-0.7098 1.01318,-1.3663 1.61676,-1.9698 0.60357,-0.6035 1.26025,-1.1423 1.97003,-1.6167 0.70971,-0.4741 1.45886,-0.8745 2.2475,-1.2011 0.78863,-0.3267 1.6015,-0.5733 2.43872,-0.7395 0.83715,-0.1665 1.68255,-0.2498 2.53619,-0.2498 0.85352,0 1.69885,0.083 2.53607,0.2498 0.83722,0.1662 1.65009,0.4128 2.43872,0.7395 0.78864,0.3266 1.53778,0.727 2.24756,1.2014 0.70972,0.4741 1.3664,1.0129 1.96997,1.6164 0.60358,0.6035 1.14246,1.2603 1.61664,1.97 0.47424,0.7097 0.8747,1.459 1.20136,2.2476 0.32666,0.7888 0.5733,1.6018 0.73986,2.4389 0.16651,0.8372 0.24976,1.6826 0.24982,2.5364 z"
       style="fill:none;stroke:#000000;stroke-width:1;stroke-linecap:butt;stroke-linejoin:miter;stroke-miterlimit:10;stroke-dasharray:none;stroke-opacity:1"
       transform="matrix(0.8876096,0,0,0.8876096,-466.63748,-2584.6068)"
       clip-path="url(#clipPath6)" />
    <g
       id="g6" />
    <text
       id="text6"
       xml:space="preserve"
       transform="matrix(0.8876096,0,0,0.8876096,39.591255,18.308266)"
       clip-path="url(#clipPath7)"><tspan
         id="tspan6"
         style="font-variant:normal;font-weight:normal;font-size:12px;font-family:Arial;writing-mode:lr-tb;fill:#000000;fill-opacity:1;fill-rule:nonzero;stroke:none"
         x="0"
         y="0"> </tspan></text>
  </g>
</svg>
