<?xml version="1.0" encoding="UTF-8" standalone="no"?>
<!-- Created with Inkscape (http://www.inkscape.org/) -->

<svg
   version="1.1"
   id="svg1"
   width="269.44"
   height="19.84"
   viewBox="0 0 269.44 19.84"
   xmlns="http://www.w3.org/2000/svg"
   xmlns:svg="http://www.w3.org/2000/svg">
  <defs
     id="defs1">
    <clipPath
       clipPathUnits="userSpaceOnUse"
       id="clipPath2">
      <path
         d="M 0,0 H 843 V 62.988281 H 0 Z"
         transform="scale(0.31999999)"
         clip-rule="evenodd"
         id="path2" />
    </clipPath>
    <clipPath
       clipPathUnits="userSpaceOnUse"
       id="clipPath4">
      <path
         d="M 6.25,0 H 837.5 V 62.988281 H 6.25 Z"
         transform="matrix(0.34133333,0,0,0.34133333,116.3,69.5)"
         clip-rule="evenodd"
         id="path4" />
    </clipPath>
    <clipPath
       clipPathUnits="userSpaceOnUse"
       id="clipPath6">
      <path
         d="M 6.25,0 H 837.5 V 62.988281 H 6.25 Z"
         transform="matrix(0.34133333,0,0,0.34133333,116.3,69.5)"
         clip-rule="evenodd"
         id="path6" />
    </clipPath>
    <clipPath
       clipPathUnits="userSpaceOnUse"
       id="clipPath8">
      <path
         d="M 6.25,0 H 837.5 V 62.988281 H 6.25 Z"
         transform="matrix(0.34133333,0,0,0.34133333,116.3,69.5)"
         clip-rule="evenodd"
         id="path8" />
    </clipPath>
  </defs>
  <g
     id="g1">
    <path
       id="path1"
       d="M 0,0 H 270 V 20 H 0 Z"
       style="fill:#ffffff;fill-opacity:1;fill-rule:nonzero;stroke:none"
       clip-path="url(#clipPath2)" />
    <path
       id="path3"
       d="M 123,70 H 397 V 90 H 123 Z"
       style="fill:#e6e6e6;fill-opacity:1;fill-rule:nonzero;stroke:none"
       transform="matrix(0.93749996,0,0,0.93749996,-109.03125,-65.156247)"
       clip-path="url(#clipPath4)" />
    <path
       id="path5"
       d="m 120,70 h 3 v 20 h -3 z"
       style="fill:#ffffff;fill-opacity:1;fill-rule:nonzero;stroke:none"
       transform="matrix(0.93749996,0,0,0.93749996,-109.03125,-65.156247)"
       clip-path="url(#clipPath6)" />
    <path
       id="path7"
       d="m 397,70 h 3 v 20 h -3 z"
       style="fill:#ffffff;fill-opacity:1;fill-rule:nonzero;stroke:none"
       transform="matrix(0.93749996,0,0,0.93749996,-109.03125,-65.156247)"
       clip-path="url(#clipPath8)" />
  </g>
</svg>
