<?xml version="1.0" encoding="UTF-8" standalone="no"?>
<!-- Created with Inkscape (http://www.inkscape.org/) -->

<svg
   version="1.1"
   id="svg1"
   width="348.16"
   height="34.560001"
   viewBox="0 0 348.16 34.560001"
   xmlns="http://www.w3.org/2000/svg"
   xmlns:svg="http://www.w3.org/2000/svg">
  <defs
     id="defs1">
    <clipPath
       clipPathUnits="userSpaceOnUse"
       id="clipPath2">
      <path
         d="M 0,0 H 1089 V 108.00781 H 0 Z"
         transform="scale(0.31999999)"
         clip-rule="evenodd"
         id="path2" />
    </clipPath>
    <clipPath
       clipPathUnits="userSpaceOnUse"
       id="clipPath4">
      <path
         d="M 6.25,0 H 1084.375 V 108.00781 H 6.25 Z"
         transform="matrix(0.33824432,0,0,0.33824432,320.24155,3169.9997)"
         clip-rule="evenodd"
         id="path4" />
    </clipPath>
    <clipPath
       clipPathUnits="userSpaceOnUse"
       id="clipPath5">
      <path
         d="M 6.25,0 H 1084.375 V 108.00781 H 6.25 Z"
         transform="matrix(0.33824432,0,0,0.33824432,-11.883452,-23.000262)"
         clip-rule="evenodd"
         id="path5" />
    </clipPath>
    <clipPath
       clipPathUnits="userSpaceOnUse"
       id="clipPath7">
      <path
         d="M 6.25,0 H 1084.375 V 108.00781 H 6.25 Z"
         transform="matrix(0.33824432,0,0,0.33824432,320.24155,3169.9997)"
         clip-rule="evenodd"
         id="path7" />
    </clipPath>
    <clipPath
       clipPathUnits="userSpaceOnUse"
       id="clipPath8">
      <path
         d="M 6.25,0 H 1084.375 V 108.00781 H 6.25 Z"
         transform="matrix(0.33824432,0,0,0.33824432,-265.7272,-24.000262)"
         clip-rule="evenodd"
         id="path8" />
    </clipPath>
    <clipPath
       clipPathUnits="userSpaceOnUse"
       id="clipPath10">
      <path
         d="M 6.25,0 H 1084.375 V 108.00781 H 6.25 Z"
         transform="matrix(0.33824432,0,0,0.33824432,319.74155,3169.5)"
         clip-rule="evenodd"
         id="path10" />
    </clipPath>
    <clipPath
       clipPathUnits="userSpaceOnUse"
       id="clipPath12">
      <path
         d="M 6.25,0 H 1084.375 V 108.00781 H 6.25 Z"
         transform="matrix(0.33824432,0,0,0.33824432,319.74155,3169.5)"
         clip-rule="evenodd"
         id="path12" />
    </clipPath>
    <clipPath
       clipPathUnits="userSpaceOnUse"
       id="clipPath14">
      <path
         d="M 6.25,0 H 1084.375 V 108.00781 H 6.25 Z"
         transform="matrix(0.33824432,0,0,0.33824432,320.24155,3169.9997)"
         clip-rule="evenodd"
         id="path14" />
    </clipPath>
    <clipPath
       clipPathUnits="userSpaceOnUse"
       id="clipPath15">
      <path
         d="M 6.25,0 H 1084.375 V 108.00781 H 6.25 Z"
         transform="matrix(0.33824432,0,0,0.33824432,-166.44595,-14.000263)"
         clip-rule="evenodd"
         id="path15" />
    </clipPath>
  </defs>
  <g
     id="g1">
    <path
       id="path1"
       d="M 0,0 H 348 V 35 H 0 Z"
       style="fill:#ffffff;fill-opacity:1;fill-rule:nonzero;stroke:none"
       clip-path="url(#clipPath2)" />
    <path
       id="path3"
       d="m 332,3182 h 83 v 15 h -83 z"
       style="fill:#ffffff;fill-opacity:1;fill-rule:nonzero;stroke:none"
       transform="matrix(0.94606166,0,0,0.94606166,-302.96825,-2999.0152)"
       clip-path="url(#clipPath4)" />
    <text
       id="text4"
       xml:space="preserve"
       transform="matrix(0.94606166,0,0,0.94606166,11.242478,21.759666)"
       clip-path="url(#clipPath5)"><tspan
         id="tspan4"
         style="font-variant:normal;font-weight:normal;font-size:12px;font-family:Arial;writing-mode:lr-tb;fill:#000000;fill-opacity:1;fill-rule:nonzero;stroke:none"
         x="0"
         y="0">&amp;decision-node</tspan></text>
    <path
       id="path6"
       d="m 586,3183 h 96 v 15 h -96 z"
       style="fill:#ffffff;fill-opacity:1;fill-rule:nonzero;stroke:none"
       transform="matrix(0.94606166,0,0,0.94606166,-302.96825,-2999.0152)"
       clip-path="url(#clipPath7)" />
    <text
       id="text7"
       xml:space="preserve"
       transform="matrix(0.94606166,0,0,0.94606166,251.39432,22.705728)"
       clip-path="url(#clipPath8)"><tspan
         id="tspan7"
         style="font-variant:normal;font-weight:normal;font-size:12px;font-family:Arial;writing-mode:lr-tb;fill:#000000;fill-opacity:1;fill-rule:nonzero;stroke:none"
         x="0"
         y="0">&amp;action-flow-node</tspan></text>
    <path
       id="path9"
       d="m 424.48315,3188.5 2.99994,0.019 -0.006,1 -2.99994,-0.019 m 6.00616,-0.9624 2.99994,0.019 -0.006,1 -2.99993,-0.019 m 6.00616,-0.9624 2.99994,0.019 -0.006,1 -2.99994,-0.019 m 6.00617,-0.9622 2.99994,0.019 -0.006,1 -2.99994,-0.019 m 6.0062,-0.9624 2.99994,0.019 -0.006,1 -2.99994,-0.019 m 6.00616,-0.9624 2.99994,0.019 -0.006,1 -2.99994,-0.019 m 6.00616,-0.9624 2.99994,0.019 -0.006,1 -2.99993,-0.019 m 6.00616,-0.9624 2.99994,0.019 -0.006,1 -2.99994,-0.019 m 6.00617,-0.9621 2.99994,0.019 -0.006,1 -2.99994,-0.019 m 6.00617,-0.9624 2.99994,0.019 -0.006,1 -2.99994,-0.019 m 6.00616,-0.9624 2.99994,0.019 -0.006,1 -2.99994,-0.019 m 6.00616,-0.9624 2.99994,0.019 -0.006,1 -2.99993,-0.019 m 6.00616,-0.9622 2.99994,0.019 -0.006,1 -2.99994,-0.019 m 6.00617,-0.9624 2.99997,0.019 -0.006,1 -2.99997,-0.019 m 6.0062,-0.9624 2.99994,0.019 -0.006,1 -2.99994,-0.019 m 6.0061,-0.9624 2.99994,0.019 -0.006,1 -2.99994,-0.019 m 6.00616,-0.9624 2.99988,0.019 -0.006,1 -2.99987,-0.019 m 6.0061,-0.9622 2.99988,0.019 -0.006,1 -2.99988,-0.019 m 6.00611,-0.9624 2.99994,0.019 -0.006,1 -2.99994,-0.019 m 6.00611,-0.9624 2.99993,0.019 -0.006,1 -2.99994,-0.019 m 6.0061,-0.9624 2.99994,0.019 -0.006,1 -2.99994,-0.019 m 6.0061,-0.9624 2.99994,0.019 -0.006,1 -2.99994,-0.019 m 6.0061,-0.9621 2.99994,0.019 -0.006,1 -2.99994,-0.019 m 6.00611,-0.9624 2.99994,0.019 -0.006,1 -2.99994,-0.019 m 6.00611,-0.9624 2.99993,0.019 -0.006,1 -2.99994,-0.019 m 6.0061,-0.9624 2.99994,0.019 -0.006,1 -2.99994,-0.019 m 6.0061,-0.9624 1.77307,0.011 -0.006,1 -1.77307,-0.011"
       style="fill:#000000;fill-opacity:1;fill-rule:nonzero;stroke:none"
       transform="matrix(0.94606166,0,0,0.94606166,-302.49522,-2998.5424)"
       clip-path="url(#clipPath10)" />
    <path
       id="path11"
       d="m 576.34998,3193.45 7.02002,-3.46 -6.97999,-3.54"
       style="fill:none;stroke:#000000;stroke-width:1;stroke-linecap:butt;stroke-linejoin:miter;stroke-miterlimit:10;stroke-dasharray:none;stroke-opacity:1"
       transform="matrix(0.94606166,0,0,0.94606166,-302.49522,-2998.5424)"
       clip-path="url(#clipPath12)" />
    <path
       id="path13"
       d="m 487,3173 h 26 v 15 h -26 z"
       style="fill:#ffffff;fill-opacity:1;fill-rule:nonzero;stroke:none"
       transform="matrix(0.94606166,0,0,0.94606166,-302.96825,-2999.0152)"
       clip-path="url(#clipPath14)" />
    <text
       id="text14"
       xml:space="preserve"
       transform="matrix(0.94606166,0,0,0.94606166,157.46813,13.245112)"
       clip-path="url(#clipPath15)"><tspan
         id="tspan14"
         style="font-variant:normal;font-weight:normal;font-size:12px;font-family:Arial;writing-mode:lr-tb;fill:#000000;fill-opacity:1;fill-rule:nonzero;stroke:none"
         x="0"
         y="0">'else'</tspan></text>
  </g>
</svg>
