<?xml version="1.0" encoding="UTF-8" standalone="no"?>
<!-- Created with Inkscape (http://www.inkscape.org/) -->

<svg
   version="1.1"
   id="svg1"
   width="34.560001"
   height="22.719999"
   viewBox="0 0 34.560001 22.719999"
   xmlns="http://www.w3.org/2000/svg"
   xmlns:svg="http://www.w3.org/2000/svg">
  <defs
     id="defs1">
    <clipPath
       clipPathUnits="userSpaceOnUse"
       id="clipPath2">
      <path
         d="M 0,0 H 108.00781 V 68.994141 H 0 Z"
         transform="scale(0.31999999)"
         clip-rule="evenodd"
         id="path2" />
    </clipPath>
    <clipPath
       clipPathUnits="userSpaceOnUse"
       id="clipPath4">
      <path
         d="M 3.125,3.125 H 106.25 V 68.75 H 3.125 Z"
         transform="matrix(0.38019803,0,0,0.38019803,576.61574,1606.6239)"
         clip-rule="evenodd"
         id="path4" />
    </clipPath>
  </defs>
  <g
     id="g1">
    <path
       id="path1"
       d="M 0,0 H 35 V 22 H 0 Z"
       style="fill:#ffffff;fill-opacity:1;fill-rule:nonzero;stroke:none"
       clip-path="url(#clipPath2)" />
    <path
       id="path3"
       d="m 583,1610 h 28 c 0.39777,0 0.78046,0.076 1.14801,0.2282 0.36755,0.1522 0.69196,0.369 0.97327,0.6503 0.28131,0.2813 0.49804,0.6056 0.65027,0.9732 0.15228,0.3675 0.22839,0.7504 0.22845,1.1483 v 14 c -6e-5,0.3977 -0.0762,0.7803 -0.22845,1.1478 -0.15223,0.3676 -0.36896,0.692 -0.65027,0.9734 -0.28131,0.2813 -0.60572,0.4979 -0.97327,0.6502 -0.36755,0.1523 -0.75024,0.2285 -1.14801,0.2286 h -28 c -0.39789,-10e-5 -0.78058,-0.076 -1.14807,-0.2286 -0.36762,-0.1523 -0.69202,-0.3689 -0.97327,-0.6502 -0.28131,-0.2814 -0.49811,-0.6058 -0.65033,-0.9734 -0.15228,-0.3675 -0.22839,-0.7501 -0.22833,-1.1478 v -14 c -6e-5,-0.3979 0.0761,-0.7808 0.22833,-1.1483 0.15222,-0.3676 0.36902,-0.6919 0.65033,-0.9732 0.28125,-0.2813 0.60565,-0.4981 0.97327,-0.6503 C 582.21942,1610.0761 582.60211,1610 583,1610 Z"
       style="fill:#000000;fill-opacity:1;fill-rule:nonzero;stroke:#000000;stroke-width:1;stroke-linecap:butt;stroke-linejoin:miter;stroke-miterlimit:10;stroke-dasharray:none;stroke-opacity:1"
       transform="matrix(0.84166662,0,0,0.84166662,-485.31822,-1352.2417)"
       clip-path="url(#clipPath4)" />
  </g>
</svg>
