<?xml version="1.0" encoding="UTF-8" standalone="no"?>
<!-- Created with Inkscape (http://www.inkscape.org/) -->

<svg
   version="1.1"
   id="svg1"
   width="286.72"
   height="128"
   viewBox="0 0 286.72 128"
   xmlns="http://www.w3.org/2000/svg"
   xmlns:svg="http://www.w3.org/2000/svg">
  <defs
     id="defs1">
    <clipPath
       clipPathUnits="userSpaceOnUse"
       id="clipPath2">
      <path
         d="M 0,0 H 893.99414 V 399.02344 H 0 Z"
         transform="scale(0.31999999)"
         clip-rule="evenodd"
         id="path2" />
    </clipPath>
    <clipPath
       clipPathUnits="userSpaceOnUse"
       id="clipPath4">
      <path
         d="m 3.125,0 h 887.5 V 399.02344 H 3.125 Z"
         transform="matrix(0.33729089,0,0,0.33729089,516.38313,1676.4459)"
         clip-rule="evenodd"
         id="path4" />
    </clipPath>
    <clipPath
       clipPathUnits="userSpaceOnUse"
       id="clipPath5">
      <path
         d="m 3.125,0 h 887.5 V 399.02344 H 3.125 Z"
         transform="matrix(0.33729089,0,0,0.33729089,-85.085611,-57.054078)"
         clip-rule="evenodd"
         id="path5" />
    </clipPath>
    <clipPath
       clipPathUnits="userSpaceOnUse"
       id="clipPath6">
      <path
         d="m 3.125,0 h 887.5 V 399.02344 H 3.125 Z"
         transform="matrix(0.33729089,0,0,0.33729089,-94.413741,-86.054078)"
         clip-rule="evenodd"
         id="path6" />
    </clipPath>
    <clipPath
       clipPathUnits="userSpaceOnUse"
       id="clipPath8">
      <path
         d="m 3.125,0 h 887.5 V 399.02344 H 3.125 Z"
         transform="matrix(0.33729089,0,0,0.33729089,516.88314,1676.9459)"
         clip-rule="evenodd"
         id="path8" />
    </clipPath>
    <clipPath
       clipPathUnits="userSpaceOnUse"
       id="clipPath9">
      <path
         d="m 3.125,0 h 887.5 V 399.02344 H 3.125 Z"
         transform="matrix(0.33729089,0,0,0.33729089,-5.4293606,-70.054078)"
         clip-rule="evenodd"
         id="path9" />
    </clipPath>
    <clipPath
       clipPathUnits="userSpaceOnUse"
       id="clipPath11">
      <path
         d="m 3.125,0 h 887.5 V 399.02344 H 3.125 Z"
         transform="matrix(0.33729089,0,0,0.33729089,516.88314,1676.9459)"
         clip-rule="evenodd"
         id="path11" />
    </clipPath>
    <clipPath
       clipPathUnits="userSpaceOnUse"
       id="clipPath12">
      <path
         d="m 3.125,0 h 887.5 V 399.02344 H 3.125 Z"
         transform="matrix(0.33729089,0,0,0.33729089,-248.77311,-70.054078)"
         clip-rule="evenodd"
         id="path12" />
    </clipPath>
    <clipPath
       clipPathUnits="userSpaceOnUse"
       id="clipPath14">
      <path
         d="m 3.125,0 h 887.5 V 399.02344 H 3.125 Z"
         transform="matrix(0.33729089,0,0,0.33729089,516.88314,1676.9459)"
         clip-rule="evenodd"
         id="path14" />
    </clipPath>
    <clipPath
       clipPathUnits="userSpaceOnUse"
       id="clipPath15">
      <path
         d="m 3.125,0 h 887.5 V 399.02344 H 3.125 Z"
         transform="matrix(0.33729089,0,0,0.33729089,-121.10124,-125.05408)"
         clip-rule="evenodd"
         id="path15" />
    </clipPath>
    <clipPath
       clipPathUnits="userSpaceOnUse"
       id="clipPath17">
      <path
         d="m 3.125,0 h 887.5 V 399.02344 H 3.125 Z"
         transform="matrix(0.33729089,0,0,0.33729089,516.88314,1676.9459)"
         clip-rule="evenodd"
         id="path17" />
    </clipPath>
    <clipPath
       clipPathUnits="userSpaceOnUse"
       id="clipPath18">
      <path
         d="m 3.125,0 h 887.5 V 399.02344 H 3.125 Z"
         transform="matrix(0.33729089,0,0,0.33729089,-122.77311,-17.054078)"
         clip-rule="evenodd"
         id="path18" />
    </clipPath>
  </defs>
  <g
     id="g1">
    <path
       id="path1"
       d="M 0,0 H 286 V 128 H 0 Z"
       style="fill:#ffffff;fill-opacity:1;fill-rule:nonzero;stroke:none"
       clip-path="url(#clipPath2)" />
    <path
       id="path3"
       d="m 580.14001,1691.03 h 172.46998 c 0.80499,2e-4 1.60809,0.04 2.4093,0.1186 0.80108,0.079 1.59637,0.1967 2.38592,0.3537 0.78955,0.1571 1.56952,0.3526 2.33991,0.5862 0.77032,0.2338 1.5274,0.5046 2.27112,0.8126 0.74371,0.3081 1.47058,0.6519 2.1806,1.0313 0.70996,0.3795 1.3996,0.7928 2.06897,1.24 0.66937,0.4474 1.31518,0.9264 1.93756,1.437 0.62225,0.5107 1.21802,1.0506 1.78723,1.6198 0.56928,0.5694 1.10925,1.1652 1.61993,1.7874 0.51075,0.6222 0.98969,1.2678 1.43689,1.9371 0.44727,0.6695 0.86066,1.3592 1.24012,2.0692 0.37945,0.71 0.7232,1.4368 1.03125,2.1805 0.3081,0.7437 0.57904,1.5008 0.81274,2.2712 0.2337,0.7704 0.42908,1.5504 0.58612,2.3399 0.15711,0.7896 0.27509,1.585 0.35401,2.3862 0.0789,0.8011 0.1184,1.6042 0.11834,2.4093 v 57.7101 c 6e-5,0.805 -0.0394,1.6081 -0.11834,2.4093 -0.0789,0.8011 -0.1969,1.5965 -0.35401,2.386 -0.15704,0.7895 -0.35242,1.5694 -0.58612,2.3397 -0.2337,0.7704 -0.50464,1.5273 -0.81274,2.2711 -0.30805,0.7438 -0.6518,1.4706 -1.03125,2.1805 -0.37946,0.71 -0.79285,1.3997 -1.24012,2.069 -0.4472,0.6694 -0.92614,1.3153 -1.43682,1.9376 -0.51075,0.6223 -1.05072,1.218 -1.62,1.7873 -0.56921,0.5692 -1.16498,1.1092 -1.78735,1.62 -0.62226,0.5106 -1.26813,0.9896 -1.93756,1.4367 -0.66932,0.4474 -1.35895,0.8607 -2.06891,1.2403 -0.70996,0.3795 -1.43683,0.7232 -2.18054,1.0312 -0.74372,0.3081 -1.5008,0.579 -2.27112,0.8128 -0.77039,0.2337 -1.55036,0.429 -2.33991,0.586 -0.78955,0.1571 -1.58484,0.2752 -2.38592,0.354 -0.80121,0.079 -1.60431,0.1184 -2.4093,0.1184 H 580.14001 c -0.80499,0 -1.60809,-0.039 -2.4093,-0.1183 -0.80114,-0.079 -1.59649,-0.197 -2.38611,-0.3541 -0.78961,-0.157 -1.56951,-0.3523 -2.33984,-0.586 -0.77038,-0.2338 -1.52747,-0.5047 -2.27118,-0.8128 -0.74377,-0.308 -1.47064,-0.6517 -2.1806,-1.0312 -0.70996,-0.3796 -1.3996,-0.7929 -2.06897,-1.2403 -0.66931,-0.4471 -1.31513,-0.926 -1.93738,-1.4366 -0.62225,-0.5108 -1.21802,-1.0508 -1.78729,-1.62 -0.56922,-0.5692 -1.10919,-1.1651 -1.61994,-1.7872 -0.51074,-0.6224 -0.98974,-1.2682 -1.43701,-1.9375 -0.4472,-0.6694 -0.86059,-1.3591 -1.24011,-2.0689 -0.37946,-0.7101 -0.72327,-1.437 -1.03131,-2.1808 -0.30805,-0.7438 -0.57892,-1.5007 -0.81262,-2.2711 -0.23358,-0.7703 -0.42896,-1.5502 -0.58606,-2.3397 -0.15705,-0.7896 -0.27497,-1.5849 -0.35388,-2.386 -0.0789,-0.8012 -0.11835,-1.6044 -0.11841,-2.4094 V 1715.61 c 6e-5,-0.8051 0.0395,-1.6082 0.11834,-2.4093 0.0789,-0.8012 0.19684,-1.5966 0.35389,-2.3861 0.1571,-0.7896 0.35247,-1.5696 0.58612,-2.34 0.2337,-0.7704 0.50457,-1.5275 0.81262,-2.2712 0.30804,-0.7437 0.65185,-1.4705 1.03131,-2.1806 0.37952,-0.7099 0.79291,-1.3996 1.24011,-2.0691 0.44727,-0.6693 0.92627,-1.315 1.43701,-1.9372 0.51069,-0.6222 1.05066,-1.218 1.61988,-1.7874 0.56921,-0.5692 1.16498,-1.1091 1.78729,-1.6197 0.62225,-0.5106 1.26807,-0.9898 1.93738,-1.4372 0.66937,-0.4471 1.35907,-0.8604 2.06903,-1.2399 0.70996,-0.3796 1.43683,-0.7233 2.1806,-1.0315 0.74371,-0.308 1.5008,-0.5789 2.27118,-0.8124 0.77033,-0.2337 1.55029,-0.429 2.33991,-0.5861 0.78961,-0.157 1.58496,-0.2749 2.38604,-0.3539 0.80121,-0.079 1.60431,-0.1182 2.4093,-0.1184 z"
       style="fill:#ffffff;fill-opacity:1;fill-rule:nonzero;stroke:#000000;stroke-width:1;stroke-linecap:butt;stroke-linejoin:miter;stroke-miterlimit:10;stroke-dasharray:none;stroke-opacity:1"
       transform="matrix(0.94873593,0,0,0.94873593,-489.91123,-1590.5045)"
       clip-path="url(#clipPath4)" />
    <text
       id="text4"
       xml:space="preserve"
       transform="matrix(0.94873593,0,0,0.94873593,80.723776,54.129254)"
       clip-path="url(#clipPath5)"><tspan
         id="tspan4"
         style="font-variant:normal;font-weight:normal;font-size:12px;font-family:Arial;writing-mode:lr-tb;fill:#000000;fill-opacity:1;fill-rule:nonzero;stroke:none"
         x="0"
         y="0">entry-action-name-comp</tspan></text>
    <text
       id="text5"
       xml:space="preserve"
       transform="matrix(0.94873593,0,0,0.94873593,89.573708,81.642596)"
       clip-path="url(#clipPath6)"><tspan
         id="tspan5"
         style="font-variant:normal;font-weight:normal;font-size:12px;font-family:Arial;writing-mode:lr-tb;fill:#000000;fill-opacity:1;fill-rule:nonzero;stroke:none"
         x="0"
         y="0">state-subaction-body</tspan></text>
    <path
       id="path7"
       d="m 522,1736 h 46 v 15 h -46 z"
       style="fill:#ffffff;fill-opacity:1;fill-rule:nonzero;stroke:none"
       transform="matrix(0.94873593,0,0,0.94873593,-490.38561,-1590.9788)"
       clip-path="url(#clipPath8)" />
    <text
       id="text8"
       xml:space="preserve"
       transform="matrix(0.94873593,0,0,0.94873593,5.1510295,66.462821)"
       clip-path="url(#clipPath9)"><tspan
         id="tspan8"
         style="font-variant:normal;font-weight:normal;font-size:12px;font-family:Arial;writing-mode:lr-tb;fill:#000000;fill-opacity:1;fill-rule:nonzero;stroke:none"
         x="0"
         y="0">param-l*</tspan></text>
    <path
       id="path10"
       d="m 766,1736 h 46 v 15 h -46 z"
       style="fill:#ffffff;fill-opacity:1;fill-rule:nonzero;stroke:none"
       transform="matrix(0.94873593,0,0,0.94873593,-490.38561,-1590.9788)"
       clip-path="url(#clipPath11)" />
    <text
       id="text11"
       xml:space="preserve"
       transform="matrix(0.94873593,0,0,0.94873593,236.01999,66.462821)"
       clip-path="url(#clipPath12)"><tspan
         id="tspan11"
         style="font-variant:normal;font-weight:normal;font-size:12px;font-family:Arial;writing-mode:lr-tb;fill:#000000;fill-opacity:1;fill-rule:nonzero;stroke:none"
         x="0"
         y="0">param-r*</tspan></text>
    <path
       id="path13"
       d="m 638,1791 h 56 v 15 h -56 z"
       style="fill:#ffffff;fill-opacity:1;fill-rule:nonzero;stroke:none"
       transform="matrix(0.94873593,0,0,0.94873593,-490.38561,-1590.9788)"
       clip-path="url(#clipPath14)" />
    <g
       id="g14" />
    <g
       id="g15" />
    <text
       id="text15"
       xml:space="preserve"
       transform="matrix(0.94873593,0,0,0.94873593,114.8931,118.6433)"
       clip-path="url(#clipPath15)"><tspan
         id="tspan15"
         style="font-variant:normal;font-weight:normal;font-size:12px;font-family:Arial;writing-mode:lr-tb;fill:#000000;fill-opacity:1;fill-rule:nonzero;stroke:none"
         x="0"
         y="0"> param-b* </tspan></text>
    <path
       id="path16"
       d="m 640,1683 h 52 v 15 h -52 z"
       style="fill:#ffffff;fill-opacity:1;fill-rule:nonzero;stroke:none"
       transform="matrix(0.94873593,0,0,0.94873593,-490.38561,-1590.9788)"
       clip-path="url(#clipPath17)" />
    <g
       id="g17" />
    <g
       id="g18" />
    <text
       id="text18"
       xml:space="preserve"
       transform="matrix(0.94873593,0,0,0.94873593,116.47926,16.179817)"
       clip-path="url(#clipPath18)"><tspan
         id="tspan18"
         style="font-variant:normal;font-weight:normal;font-size:12px;font-family:Arial;writing-mode:lr-tb;fill:#000000;fill-opacity:1;fill-rule:nonzero;stroke:none"
         x="0"
         y="0"> param-t* </tspan></text>
  </g>
</svg>
