<?xml version="1.0" encoding="UTF-8" standalone="no"?>
<!-- Created with Inkscape (http://www.inkscape.org/) -->

<svg
   version="1.1"
   id="svg1"
   width="213.44"
   height="69.439995"
   viewBox="0 0 213.44 69.439995"
   xmlns="http://www.w3.org/2000/svg"
   xmlns:svg="http://www.w3.org/2000/svg">
  <defs
     id="defs1">
    <clipPath
       clipPathUnits="userSpaceOnUse"
       id="clipPath2">
      <path
         d="M 0,0 H 666.01563 V 216.01563 H 0 Z"
         transform="scale(0.31999999)"
         clip-rule="evenodd"
         id="path2" />
    </clipPath>
    <clipPath
       clipPathUnits="userSpaceOnUse"
       id="clipPath4">
      <path
         d="M 3.125,0 H 662.5 V 216.01563 H 3.125 Z"
         transform="matrix(0.33907284,0,0,0.33907284,398.62002,140)"
         clip-rule="evenodd"
         id="path4" />
    </clipPath>
    <clipPath
       clipPathUnits="userSpaceOnUse"
       id="clipPath5">
      <path
         d="M 3.125,0 H 662.5 V 216.01563 H 3.125 Z"
         transform="matrix(0.33907284,0,0,0.33907284,-24.504972,-25.500004)"
         clip-rule="evenodd"
         id="path5" />
    </clipPath>
    <clipPath
       clipPathUnits="userSpaceOnUse"
       id="clipPath6">
      <path
         d="M 3.125,0 H 662.5 V 216.01563 H 3.125 Z"
         transform="matrix(0.33907284,0,0,0.33907284,-60.864352,-54.500003)"
         clip-rule="evenodd"
         id="path6" />
    </clipPath>
  </defs>
  <g
     id="g1">
    <path
       id="path1"
       d="M 0,0 H 213 V 69 H 0 Z"
       style="fill:#ffffff;fill-opacity:1;fill-rule:nonzero;stroke:none"
       clip-path="url(#clipPath2)" />
    <path
       id="path3"
       d="M 412.25,141 H 609.5 c 0.68945,0 1.37225,0.0673 2.04846,0.20174 0.67615,0.1345 1.3327,0.33366 1.96967,0.5975 0.6369,0.26384 1.242,0.58728 1.81531,0.97032 0.57324,0.38303 1.10363,0.8183 1.59118,1.3058 0.48749,0.48751 0.92273,1.01789 1.30579,1.59114 0.38299,0.57323 0.70648,1.17833 0.97033,1.8153 0.26386,0.63696 0.46302,1.29354 0.59748,1.96974 C 619.93274,150.12773 620,150.81056 620,151.5 v 49 c 0,0.68944 -0.0673,1.37224 -0.20178,2.04843 -0.13446,0.67619 -0.33362,1.33278 -0.59748,1.96973 -0.26385,0.63696 -0.58734,1.24206 -0.97033,1.81531 -0.38306,0.57324 -0.8183,1.10362 -1.30579,1.59114 -0.48755,0.48748 -1.01794,0.92274 -1.59118,1.30578 -0.57331,0.38304 -1.17841,0.70648 -1.81531,0.97032 -0.63697,0.26383 -1.29352,0.463 -1.96967,0.59751 -0.67621,0.1345 -1.35901,0.20176 -2.04846,0.20178 H 412.25 c -0.68945,-2e-5 -1.37228,-0.0673 -2.04849,-0.20178 -0.67621,-0.13451 -1.3328,-0.33368 -1.96976,-0.59751 -0.63696,-0.26384 -1.24206,-0.58728 -1.81531,-0.9703 -0.57321,-0.38304 -1.10357,-0.81832 -1.59109,-1.3058 -0.48752,-0.48752 -0.92282,-1.0179 -1.30585,-1.59116 -0.38303,-0.57323 -0.70648,-1.17833 -0.97031,-1.81529 -0.26385,-0.63695 -0.46301,-1.29354 -0.59747,-1.96973 -0.13452,-0.67619 -0.20175,-1.35899 -0.20172,-2.04843 v -49 c -3e-5,-0.68944 0.0672,-1.37227 0.20169,-2.04846 0.13449,-0.6762 0.33365,-1.33278 0.5975,-1.96974 0.26383,-0.63697 0.58725,-1.24207 0.97028,-1.8153 0.38306,-0.57325 0.81836,-1.10363 1.30588,-1.59114 0.48752,-0.4875 1.01788,-0.92277 1.59112,-1.3058 0.57322,-0.38304 1.17832,-0.70648 1.81528,-0.97032 0.63696,-0.26384 1.29355,-0.463 1.96976,-0.5975 C 410.87772,141.06725 411.56055,141 412.25,141 Z"
       style="fill:none;stroke:#000000;stroke-width:1;stroke-linecap:butt;stroke-linejoin:miter;stroke-miterlimit:10;stroke-dasharray:none;stroke-opacity:1"
       transform="matrix(0.94374998,0,0,0.94374998,-376.19764,-132.125)"
       clip-path="url(#clipPath4)" />
    <text
       id="text4"
       xml:space="preserve"
       transform="matrix(0.94374998,0,0,0.94374998,23.126567,24.065628)"
       clip-path="url(#clipPath5)"><tspan
         id="tspan4"
         style="font-variant:normal;font-weight:normal;font-size:12px;font-family:Arial;writing-mode:lr-tb;fill:#000000;fill-opacity:1;fill-rule:nonzero;stroke:none"
         x="0"
         y="0">enumeration-name-compartment</tspan></text>
    <text
       id="text5"
       xml:space="preserve"
       transform="matrix(0.94374998,0,0,0.94374998,57.440731,51.434377)"
       clip-path="url(#clipPath6)"><tspan
         id="tspan5"
         style="font-variant:normal;font-weight:normal;font-size:12px;font-family:Arial;writing-mode:lr-tb;fill:#000000;fill-opacity:1;fill-rule:nonzero;stroke:none"
         x="0"
         y="0">compartment-stack</tspan></text>
  </g>
</svg>
