<?xml version="1.0" encoding="UTF-8" standalone="no"?>
<!-- Created with Inkscape (http://www.inkscape.org/) -->

<svg
   version="1.1"
   id="svg1"
   width="212.15999"
   height="88"
   viewBox="0 0 212.15999 88"
   xmlns="http://www.w3.org/2000/svg"
   xmlns:svg="http://www.w3.org/2000/svg">
  <defs
     id="defs1">
    <clipPath
       clipPathUnits="userSpaceOnUse"
       id="clipPath2">
      <path
         d="M 0,0 H 662.98828 V 275.97656 H 0 Z"
         transform="scale(0.31999999)"
         clip-rule="evenodd"
         id="path2" />
    </clipPath>
    <clipPath
       clipPathUnits="userSpaceOnUse"
       id="clipPath4">
      <path
         d="m 3.125,0 h 656.25 V 275 H 3.125 Z"
         transform="matrix(0.3402239,0,0,0.3402239,346.86807,1325.9368)"
         clip-rule="evenodd"
         id="path4" />
    </clipPath>
    <clipPath
       clipPathUnits="userSpaceOnUse"
       id="clipPath5">
      <path
         d="m 3.125,0 h 656.25 V 275 H 3.125 Z"
         transform="matrix(0.3402239,0,0,0.3402239,-11.256895,-19.5633)"
         clip-rule="evenodd"
         id="path5" />
    </clipPath>
    <clipPath
       clipPathUnits="userSpaceOnUse"
       id="clipPath6">
      <path
         d="m 3.125,0 h 656.25 V 275 H 3.125 Z"
         transform="matrix(0.3402239,0,0,0.3402239,-60.616275,-48.5633)"
         clip-rule="evenodd"
         id="path6" />
    </clipPath>
  </defs>
  <g
     id="g1">
    <path
       id="path1"
       d="M 0,0 H 212 V 88 H 0 Z"
       style="fill:#ffffff;fill-opacity:1;fill-rule:nonzero;stroke:none"
       clip-path="url(#clipPath2)" />
    <path
       id="path3"
       d="m 359,1328 h 200.25 c 0.59094,0 1.17621,0.058 1.75574,0.173 0.57959,0.1152 1.14233,0.2859 1.68829,0.5119 0.54596,0.2262 1.06464,0.5036 1.55603,0.8318 0.4914,0.3283 0.94598,0.7014 1.36383,1.1193 0.41785,0.4178 0.79096,0.8724 1.11926,1.3638 0.32831,0.4913 0.6056,1.0098 0.83173,1.5559 0.22614,0.546 0.39685,1.1087 0.51215,1.6883 0.11529,0.5797 0.17291,1.1651 0.17297,1.756 v 42 c -6e-5,0.5909 -0.0577,1.1762 -0.17297,1.7556 -0.1153,0.5796 -0.28601,1.1424 -0.51215,1.6883 -0.22613,0.546 -0.50342,1.0646 -0.83173,1.556 -0.3283,0.4913 -0.70141,0.946 -1.11926,1.3639 -0.41785,0.4178 -0.87243,0.7909 -1.36383,1.1192 -0.49139,0.3284 -1.01007,0.6056 -1.55603,0.8317 -0.54596,0.2262 -1.1087,0.397 -1.68829,0.5123 -0.57953,0.1153 -1.1648,0.1729 -1.75574,0.173 L 359,1388 c -0.59097,-10e-5 -1.17624,-0.058 -1.75586,-0.173 -0.57956,-0.1153 -1.14233,-0.2861 -1.68832,-0.5123 -0.54596,-0.2261 -1.06464,-0.5033 -1.556,-0.8317 -0.49134,-0.3283 -0.94593,-0.7014 -1.3638,-1.1192 -0.41788,-0.4179 -0.79099,-0.8726 -1.1193,-1.3639 -0.3283,-0.4914 -0.60553,-1.01 -0.83166,-1.556 -0.22617,-0.5459 -0.39688,-1.1087 -0.51218,-1.6883 -0.11526,-0.5794 -0.17291,-1.1647 -0.17288,-1.7556 v -42 c -3e-5,-0.5909 0.0576,-1.1763 0.17288,-1.756 0.1153,-0.5796 0.28601,-1.1423 0.51218,-1.6883 0.22613,-0.5461 0.50336,-1.0646 0.83166,-1.5559 0.32831,-0.4914 0.70142,-0.946 1.1193,-1.3638 0.41787,-0.4179 0.87246,-0.791 1.3638,-1.1194 0.49136,-0.3282 1.01004,-0.6055 1.556,-0.8317 0.54599,-0.226 1.10876,-0.3967 1.68835,-0.5119 0.57959,-0.1154 1.16486,-0.173 1.75583,-0.173 z"
       style="fill:none;stroke:#000000;stroke-width:1;stroke-linecap:butt;stroke-linejoin:miter;stroke-miterlimit:10;stroke-dasharray:none;stroke-opacity:1"
       transform="matrix(0.94055705,0,0,0.94055705,-326.24921,-1247.1192)"
       clip-path="url(#clipPath4)" />
    <text
       id="text4"
       xml:space="preserve"
       transform="matrix(0.94055705,0,0,0.94055705,10.587752,18.4004)"
       clip-path="url(#clipPath5)"><tspan
         id="tspan4"
         style="font-variant:normal;font-weight:normal;font-size:12px;font-family:Arial;writing-mode:lr-tb;fill:#000000;fill-opacity:1;fill-rule:nonzero;stroke:none"
         x="0"
         y="0">event-occurrence-name-compartment</tspan></text>
    <text
       id="text5"
       xml:space="preserve"
       transform="matrix(0.94055705,0,0,0.94055705,57.013065,45.676554)"
       clip-path="url(#clipPath6)"><tspan
         id="tspan5"
         style="font-variant:normal;font-weight:normal;font-size:12px;font-family:Arial;writing-mode:lr-tb;fill:#000000;fill-opacity:1;fill-rule:nonzero;stroke:none"
         x="0"
         y="0">compartment-stack</tspan></text>
  </g>
</svg>
