<?xml version="1.0" encoding="UTF-8" standalone="no"?>
<!-- Created with Inkscape (http://www.inkscape.org/) -->

<svg
   version="1.1"
   id="svg1"
   width="283.84"
   height="97.279999"
   viewBox="0 0 283.84 97.279999"
   xmlns="http://www.w3.org/2000/svg"
   xmlns:svg="http://www.w3.org/2000/svg">
  <defs
     id="defs1">
    <clipPath
       clipPathUnits="userSpaceOnUse"
       id="clipPath2">
      <path
         d="M 0,0 H 887.98828 V 302.97852 H 0 Z"
         transform="scale(0.31999999)"
         clip-rule="evenodd"
         id="path2" />
    </clipPath>
    <clipPath
       clipPathUnits="userSpaceOnUse"
       id="clipPath4">
      <path
         d="m 3.125,0 h 881.25 V 302.97852 H 3.125 Z"
         transform="matrix(0.3384435,0,0,0.3384435,81.383915,1482.4424)"
         clip-rule="evenodd"
         id="path4" />
    </clipPath>
    <clipPath
       clipPathUnits="userSpaceOnUse"
       id="clipPath5">
      <path
         d="m 3.125,0 h 881.25 V 302.97852 H 3.125 Z"
         transform="matrix(0.3384435,0,0,0.3384435,-62.741085,-41.057739)"
         clip-rule="evenodd"
         id="path5" />
    </clipPath>
    <clipPath
       clipPathUnits="userSpaceOnUse"
       id="clipPath6">
      <path
         d="m 3.125,0 h 881.25 V 302.97852 H 3.125 Z"
         transform="matrix(0.3384435,0,0,0.3384435,-98.084835,-70.057738)"
         clip-rule="evenodd"
         id="path6" />
    </clipPath>
  </defs>
  <g
     id="g1">
    <path
       id="path1"
       d="M 0,0 H 284 V 97 H 0 Z"
       style="fill:#ffffff;fill-opacity:1;fill-rule:nonzero;stroke:none"
       clip-path="url(#clipPath2)" />
    <path
       id="path3"
       d="m 138.47,1492.49 h 183.81 c 1.24164,0 2.47134,0.1211 3.68912,0.3633 1.21777,0.2422 2.40023,0.6008 3.54739,1.0759 1.14713,0.4752 2.23691,1.0576 3.26929,1.7474 1.03241,0.6899 1.98761,1.4738 2.8656,2.3518 0.87796,0.878 1.66183,1.8332 2.35165,2.8655 0.68985,1.0324 1.27234,2.1222 1.7475,3.2693 0.47513,1.1472 0.83383,2.3297 1.07608,3.5476 0.24222,1.2179 0.36334,2.4477 0.36337,3.6892 v 44.3899 c -3e-5,1.2416 -0.12115,2.4713 -0.36337,3.6891 -0.24225,1.2178 -0.60095,2.4002 -1.07608,3.5473 -0.47516,1.147 -1.05765,2.2369 -1.74747,3.2694 -0.68985,1.0324 -1.47372,1.9876 -2.35168,2.8655 -0.87799,0.878 -1.83319,1.6618 -2.8656,2.3516 -1.03238,0.6898 -2.12216,1.2724 -3.26929,1.7476 -1.14716,0.4752 -2.32962,0.834 -3.54739,1.0763 -1.21778,0.2422 -2.44748,0.3633 -3.68912,0.3633 H 138.47 c -1.24165,0 -2.47137,-0.1211 -3.68916,-0.3634 -1.21781,-0.2424 -2.40027,-0.601 -3.54741,-1.0762 -1.14713,-0.4752 -2.23688,-1.0578 -3.26928,-1.7476 -1.03239,-0.6898 -1.98757,-1.4737 -2.86555,-2.3517 -0.87798,-0.8779 -1.66189,-1.8331 -2.35171,-2.8654 -0.68982,-1.0324 -1.27231,-2.1222 -1.74747,-3.2693 -0.47517,-1.1471 -0.83385,-2.3296 -1.07608,-3.5474 -0.24224,-1.2178 -0.36335,-2.4475 -0.36334,-3.6891 V 1511.4 c -1e-5,-1.2415 0.1211,-2.4713 0.36333,-3.6892 0.24223,-1.2179 0.60092,-2.4004 1.07609,-3.5476 0.47516,-1.1471 1.05765,-2.2369 1.74747,-3.2693 0.68982,-1.0323 1.47373,-1.9874 2.35171,-2.8653 0.87798,-0.8781 1.83316,-1.662 2.86555,-2.3518 1.0324,-0.6899 2.12215,-1.2724 3.26928,-1.7476 1.14714,-0.4751 2.3296,-0.8337 3.54741,-1.0758 1.21779,-0.2423 2.44751,-0.3634 3.68916,-0.3634 z"
       style="fill:#ffffff;fill-opacity:1;fill-rule:nonzero;stroke:#000000;stroke-width:1;stroke-linecap:butt;stroke-linejoin:miter;stroke-miterlimit:10;stroke-dasharray:none;stroke-opacity:1"
       transform="matrix(0.94550489,0,0,0.94550489,-76.94889,-1401.6565)"
       clip-path="url(#clipPath4)" />
    <text
       id="text4"
       xml:space="preserve"
       transform="matrix(0.94550489,0,0,0.94550489,59.322003,38.820293)"
       clip-path="url(#clipPath5)"><tspan
         id="tspan4"
         style="font-variant:normal;font-weight:normal;font-size:12px;font-family:Arial;writing-mode:lr-tb;fill:#000000;fill-opacity:1;fill-rule:nonzero;stroke:none"
         x="0"
         y="0">exhibit-state-name-compartment</tspan></text>
    <text
       id="text5"
       xml:space="preserve"
       transform="matrix(0.94550489,0,0,0.94550489,92.739691,66.239934)"
       clip-path="url(#clipPath6)"><tspan
         id="tspan5"
         style="font-variant:normal;font-weight:normal;font-size:12px;font-family:Arial;writing-mode:lr-tb;fill:#000000;fill-opacity:1;fill-rule:nonzero;stroke:none"
         x="0"
         y="0">compartment-stack</tspan></text>
  </g>
</svg>
