<?xml version="1.0" encoding="UTF-8" standalone="no"?>
<!-- Created with Inkscape (http://www.inkscape.org/) -->

<svg
   version="1.1"
   id="svg1"
   width="286.72"
   height="128"
   viewBox="0 0 286.72 128"
   xmlns="http://www.w3.org/2000/svg"
   xmlns:svg="http://www.w3.org/2000/svg">
  <defs
     id="defs1">
    <clipPath
       clipPathUnits="userSpaceOnUse"
       id="clipPath2">
      <path
         d="M 0,0 H 893.99414 V 399.02344 H 0 Z"
         transform="scale(0.31999999)"
         clip-rule="evenodd"
         id="path2" />
    </clipPath>
    <clipPath
       clipPathUnits="userSpaceOnUse"
       id="clipPath4">
      <path
         d="m 3.125,0 h 887.5 V 399.02344 H 3.125 Z"
         transform="matrix(0.33729089,0,0,0.33729089,37.383141,1684.346)"
         clip-rule="evenodd"
         id="path4" />
    </clipPath>
    <clipPath
       clipPathUnits="userSpaceOnUse"
       id="clipPath5">
      <path
         d="m 3.125,0 h 887.5 V 399.02344 H 3.125 Z"
         transform="matrix(0.33729089,0,0,0.33729089,-89.085611,-57.15395)"
         clip-rule="evenodd"
         id="path5" />
    </clipPath>
    <clipPath
       clipPathUnits="userSpaceOnUse"
       id="clipPath6">
      <path
         d="m 3.125,0 h 887.5 V 399.02344 H 3.125 Z"
         transform="matrix(0.33729089,0,0,0.33729089,-94.398111,-86.15395)"
         clip-rule="evenodd"
         id="path6" />
    </clipPath>
    <clipPath
       clipPathUnits="userSpaceOnUse"
       id="clipPath8">
      <path
         d="m 3.125,0 h 887.5 V 399.02344 H 3.125 Z"
         transform="matrix(0.33729089,0,0,0.33729089,37.883139,1684.8461)"
         clip-rule="evenodd"
         id="path8" />
    </clipPath>
    <clipPath
       clipPathUnits="userSpaceOnUse"
       id="clipPath9">
      <path
         d="m 3.125,0 h 887.5 V 399.02344 H 3.125 Z"
         transform="matrix(0.33729089,0,0,0.33729089,-5.4293613,-70.15395)"
         clip-rule="evenodd"
         id="path9" />
    </clipPath>
    <clipPath
       clipPathUnits="userSpaceOnUse"
       id="clipPath11">
      <path
         d="m 3.125,0 h 887.5 V 399.02344 H 3.125 Z"
         transform="matrix(0.33729089,0,0,0.33729089,37.883139,1684.8461)"
         clip-rule="evenodd"
         id="path11" />
    </clipPath>
    <clipPath
       clipPathUnits="userSpaceOnUse"
       id="clipPath12">
      <path
         d="m 3.125,0 h 887.5 V 399.02344 H 3.125 Z"
         transform="matrix(0.33729089,0,0,0.33729089,-248.77311,-70.15395)"
         clip-rule="evenodd"
         id="path12" />
    </clipPath>
    <clipPath
       clipPathUnits="userSpaceOnUse"
       id="clipPath14">
      <path
         d="m 3.125,0 h 887.5 V 399.02344 H 3.125 Z"
         transform="matrix(0.33729089,0,0,0.33729089,37.883139,1684.8461)"
         clip-rule="evenodd"
         id="path14" />
    </clipPath>
    <clipPath
       clipPathUnits="userSpaceOnUse"
       id="clipPath15">
      <path
         d="m 3.125,0 h 887.5 V 399.02344 H 3.125 Z"
         transform="matrix(0.33729089,0,0,0.33729089,-121.10123,-125.15395)"
         clip-rule="evenodd"
         id="path15" />
    </clipPath>
    <clipPath
       clipPathUnits="userSpaceOnUse"
       id="clipPath17">
      <path
         d="m 3.125,0 h 887.5 V 399.02344 H 3.125 Z"
         transform="matrix(0.33729089,0,0,0.33729089,37.883139,1684.8461)"
         clip-rule="evenodd"
         id="path17" />
    </clipPath>
    <clipPath
       clipPathUnits="userSpaceOnUse"
       id="clipPath18">
      <path
         d="m 3.125,0 h 887.5 V 399.02344 H 3.125 Z"
         transform="matrix(0.33729089,0,0,0.33729089,-122.77311,-17.15395)"
         clip-rule="evenodd"
         id="path18" />
    </clipPath>
  </defs>
  <g
     id="g1">
    <path
       id="path1"
       d="M 0,0 H 286 V 128 H 0 Z"
       style="fill:#ffffff;fill-opacity:1;fill-rule:nonzero;stroke:none"
       clip-path="url(#clipPath2)" />
    <path
       id="path3"
       d="m 101.14,1698.9301 h 172.47002 c 0.80502,0 1.60812,0.039 2.4093,0.1185 0.80111,0.079 1.59643,0.1968 2.38601,0.3537 0.78956,0.157 1.56952,0.3523 2.33988,0.586 0.77035,0.2337 1.52737,0.5046 2.27112,0.8126 0.74377,0.3082 1.47064,0.652 2.1806,1.0314 0.70996,0.3794 1.39963,0.7927 2.06897,1.2398 0.66934,0.4474 1.31519,0.9264 1.9375,1.4372 0.62228,0.5107 1.21802,1.0506 1.78726,1.6199 0.56925,0.5692 1.10922,1.165 1.61994,1.7873 0.51071,0.6223 0.98965,1.2681 1.43689,1.9374 0.44726,0.6694 0.86062,1.3591 1.24011,2.069 0.37948,0.7099 0.72323,1.4367 1.03131,2.1804 0.3081,0.7439 0.57901,1.5009 0.81268,2.2713 0.23367,0.7704 0.42905,1.5504 0.58609,2.3399 0.15708,0.7897 0.27506,1.5851 0.35401,2.3862 0.0789,0.8012 0.11831,1.6043 0.11831,2.4093 v 57.7101 c 0,0.805 -0.0395,1.608 -0.11834,2.4092 -0.0789,0.8011 -0.1969,1.5965 -0.35398,2.386 -0.15704,0.7896 -0.35242,1.5697 -0.58609,2.3398 -0.23367,0.7704 -0.50455,1.5275 -0.81265,2.2711 -0.30805,0.7438 -0.65183,1.4707 -1.03131,2.1806 -0.37949,0.71 -0.79288,1.3996 -1.24011,2.0689 -0.44724,0.6695 -0.92621,1.3153 -1.43689,1.9375 -0.51072,0.6223 -1.05069,1.2181 -1.61994,1.7873 -0.56924,0.5692 -1.16501,1.1092 -1.78729,1.6198 -0.62228,0.5107 -1.26813,0.9897 -1.9375,1.4368 -0.66934,0.4474 -1.35901,0.8607 -2.06897,1.2402 -0.70996,0.3796 -1.43683,0.7234 -2.1806,1.0315 -0.74375,0.3083 -1.50077,0.5791 -2.27112,0.8128 -0.77036,0.2335 -1.55032,0.4288 -2.33991,0.5859 -0.78955,0.1571 -1.5849,0.2752 -2.38601,0.354 -0.80115,0.079 -1.60425,0.1184 -2.40927,0.1185 H 101.14 c -0.80502,-10e-5 -1.608109,-0.039 -2.409257,-0.1184 -0.801155,-0.079 -1.596519,-0.197 -2.386077,-0.3541 -0.789559,-0.1571 -1.569512,-0.3524 -2.339875,-0.5859 -0.770355,-0.2337 -1.527412,-0.5045 -2.271164,-0.8128 -0.743751,-0.3081 -1.470604,-0.6518 -2.180572,-1.0313 -0.709969,-0.3796 -1.399628,-0.7929 -2.068985,-1.2402 -0.66935,-0.4471 -1.315178,-0.9261 -1.93747,-1.4367 -0.622291,-0.5106 -1.218063,-1.0507 -1.7873,-1.6199 -0.569237,-0.5692 -1.109199,-1.1649 -1.619896,-1.7872 -0.510704,-0.6223 -0.989677,-1.2682 -1.436935,-1.9376 -0.447243,-0.6694 -0.860603,-1.3591 -1.240097,-2.0691 -0.379494,-0.7099 -0.723274,-1.4368 -1.031342,-2.1806 -0.308067,-0.7436 -0.578941,-1.5006 -0.812629,-2.271 -0.233689,-0.7702 -0.429062,-1.5503 -0.586113,-2.3399 -0.157051,-0.7895 -0.275025,-1.5848 -0.353936,-2.3859 -0.0789,-0.8012 -0.118354,-1.6043 -0.118354,-2.4093 V 1723.51 c 0,-0.805 0.03945,-1.608 0.118354,-2.409 0.07891,-0.8013 0.196885,-1.5967 0.353936,-2.3863 0.157051,-0.7897 0.352424,-1.5696 0.586113,-2.3398 0.233688,-0.7705 0.504562,-1.5277 0.812629,-2.2715 0.308068,-0.7437 0.651848,-1.4705 1.031342,-2.1803 0.379494,-0.71 0.792854,-1.3997 1.240097,-2.0691 0.447258,-0.6693 0.926231,-1.3151 1.436935,-1.9373 0.510697,-0.6223 1.050659,-1.2181 1.619896,-1.7873 0.569237,-0.5692 1.165009,-1.1091 1.7873,-1.6199 0.622292,-0.5107 1.268113,-0.9897 1.937462,-1.4371 0.669357,-0.4472 1.359017,-0.8605 2.068985,-1.24 0.709969,-0.3794 1.436829,-0.7231 2.18058,-1.0314 0.743752,-0.308 1.500809,-0.5788 2.271164,-0.8125 0.770363,-0.2337 1.550316,-0.4291 2.339875,-0.5862 0.789558,-0.1569 1.584922,-0.2749 2.386077,-0.3537 0.801148,-0.079 1.604237,-0.1185 2.409257,-0.1185 z"
       style="fill:#ffffff;fill-opacity:1;fill-rule:nonzero;stroke:#000000;stroke-width:1;stroke-linecap:butt;stroke-linejoin:miter;stroke-miterlimit:10;stroke-dasharray:none;stroke-opacity:1"
       transform="matrix(0.94873593,0,0,0.94873593,-35.466729,-1597.9996)"
       clip-path="url(#clipPath4)" />
    <text
       id="text4"
       xml:space="preserve"
       transform="matrix(0.94873593,0,0,0.94873593,84.51872,54.224006)"
       clip-path="url(#clipPath5)"><tspan
         id="tspan4"
         style="font-variant:normal;font-weight:normal;font-size:12px;font-family:Arial;writing-mode:lr-tb;fill:#000000;fill-opacity:1;fill-rule:nonzero;stroke:none"
         x="0"
         y="0">exit-action-name-comp</tspan></text>
    <text
       id="text5"
       xml:space="preserve"
       transform="matrix(0.94873593,0,0,0.94873593,89.55888,81.737348)"
       clip-path="url(#clipPath6)"><tspan
         id="tspan5"
         style="font-variant:normal;font-weight:normal;font-size:12px;font-family:Arial;writing-mode:lr-tb;fill:#000000;fill-opacity:1;fill-rule:nonzero;stroke:none"
         x="0"
         y="0">state-subaction-body</tspan></text>
    <path
       id="path7"
       d="m 43,1744 h 46 v 15 H 43 Z"
       style="fill:#ffffff;fill-opacity:1;fill-rule:nonzero;stroke:none"
       transform="matrix(0.94873593,0,0,0.94873593,-35.941095,-1598.474)"
       clip-path="url(#clipPath8)" />
    <text
       id="text8"
       xml:space="preserve"
       transform="matrix(0.94873593,0,0,0.94873593,5.1510301,66.557573)"
       clip-path="url(#clipPath9)"><tspan
         id="tspan8"
         style="font-variant:normal;font-weight:normal;font-size:12px;font-family:Arial;writing-mode:lr-tb;fill:#000000;fill-opacity:1;fill-rule:nonzero;stroke:none"
         x="0"
         y="0">param-l*</tspan></text>
    <path
       id="path10"
       d="m 287,1744 h 46 v 15 h -46 z"
       style="fill:#ffffff;fill-opacity:1;fill-rule:nonzero;stroke:none"
       transform="matrix(0.94873593,0,0,0.94873593,-35.941095,-1598.474)"
       clip-path="url(#clipPath11)" />
    <text
       id="text11"
       xml:space="preserve"
       transform="matrix(0.94873593,0,0,0.94873593,236.01999,66.557573)"
       clip-path="url(#clipPath12)"><tspan
         id="tspan11"
         style="font-variant:normal;font-weight:normal;font-size:12px;font-family:Arial;writing-mode:lr-tb;fill:#000000;fill-opacity:1;fill-rule:nonzero;stroke:none"
         x="0"
         y="0">param-r*</tspan></text>
    <path
       id="path13"
       d="m 159,1799 h 56 v 15 h -56 z"
       style="fill:#ffffff;fill-opacity:1;fill-rule:nonzero;stroke:none"
       transform="matrix(0.94873593,0,0,0.94873593,-35.941095,-1598.474)"
       clip-path="url(#clipPath14)" />
    <g
       id="g14" />
    <g
       id="g15" />
    <text
       id="text15"
       xml:space="preserve"
       transform="matrix(0.94873593,0,0,0.94873593,114.89309,118.73805)"
       clip-path="url(#clipPath15)"><tspan
         id="tspan15"
         style="font-variant:normal;font-weight:normal;font-size:12px;font-family:Arial;writing-mode:lr-tb;fill:#000000;fill-opacity:1;fill-rule:nonzero;stroke:none"
         x="0"
         y="0"> param-b* </tspan></text>
    <path
       id="path16"
       d="m 161,1691 h 52 v 15 h -52 z"
       style="fill:#ffffff;fill-opacity:1;fill-rule:nonzero;stroke:none"
       transform="matrix(0.94873593,0,0,0.94873593,-35.941095,-1598.474)"
       clip-path="url(#clipPath17)" />
    <g
       id="g17" />
    <g
       id="g18" />
    <text
       id="text18"
       xml:space="preserve"
       transform="matrix(0.94873593,0,0,0.94873593,116.47926,16.274569)"
       clip-path="url(#clipPath18)"><tspan
         id="tspan18"
         style="font-variant:normal;font-weight:normal;font-size:12px;font-family:Arial;writing-mode:lr-tb;fill:#000000;fill-opacity:1;fill-rule:nonzero;stroke:none"
         x="0"
         y="0"> param-t* </tspan></text>
  </g>
</svg>
