<?xml version="1.0" encoding="UTF-8" standalone="no"?>
<!-- Created with Inkscape (http://www.inkscape.org/) -->

<svg
   version="1.1"
   id="svg1"
   width="213.44"
   height="66.559998"
   viewBox="0 0 213.44 66.559998"
   xmlns="http://www.w3.org/2000/svg"
   xmlns:svg="http://www.w3.org/2000/svg">
  <defs
     id="defs1">
    <clipPath
       clipPathUnits="userSpaceOnUse"
       id="clipPath2">
      <path
         d="M 0,0 H 666.01563 V 209 H 0 Z"
         transform="scale(0.31999999)"
         clip-rule="evenodd"
         id="path2" />
    </clipPath>
    <clipPath
       clipPathUnits="userSpaceOnUse"
       id="clipPath4">
      <path
         d="M 3.125,0 H 662.5 V 209 H 3.125 Z"
         transform="matrix(0.33908878,0,0,0.33908878,397.86472,2929.0001)"
         clip-rule="evenodd"
         id="path4" />
    </clipPath>
    <clipPath
       clipPathUnits="userSpaceOnUse"
       id="clipPath5">
      <path
         d="M 3.125,0 H 662.5 V 209 H 3.125 Z"
         transform="matrix(0.33908878,0,0,0.33908878,-14.572759,-24.500117)"
         clip-rule="evenodd"
         id="path5" />
    </clipPath>
    <clipPath
       clipPathUnits="userSpaceOnUse"
       id="clipPath6">
      <path
         d="M 3.125,0 H 662.5 V 209 H 3.125 Z"
         transform="matrix(0.33908878,0,0,0.33908878,-60.604009,-53.500118)"
         clip-rule="evenodd"
         id="path6" />
    </clipPath>
  </defs>
  <g
     id="g1">
    <path
       id="path1"
       d="M 0,0 H 213 V 67 H 0 Z"
       style="fill:#ffffff;fill-opacity:1;fill-rule:nonzero;stroke:none"
       clip-path="url(#clipPath2)" />
    <path
       id="path3"
       d="m 411.20001,2930 h 197.84998 c 0.66974,0 1.33301,0.065 1.98987,0.1958 0.65686,0.1306 1.29467,0.324 1.91345,0.5801 0.61871,0.2563 1.20654,0.5705 1.76349,0.9426 0.55682,0.3723 1.07208,0.7952 1.54565,1.2688 0.47357,0.4736 0.89636,0.9888 1.26843,1.5454 0.37214,0.5569 0.68634,1.1448 0.94263,1.7634 0.25629,0.6189 0.44971,1.2566 0.58038,1.9136 0.13068,0.657 0.19605,1.3203 0.19611,1.9903 v 47.6 c -6e-5,0.6695 -0.0654,1.3326 -0.19611,1.9896 -0.13067,0.6569 -0.32409,1.2946 -0.58038,1.9135 -0.25629,0.6187 -0.57049,1.2063 -0.94263,1.7632 -0.37207,0.5569 -0.79486,1.0723 -1.26843,1.5459 -0.47357,0.4736 -0.98883,0.8965 -1.54565,1.2683 -0.55695,0.3723 -1.14478,0.6865 -1.76349,0.9426 -0.61878,0.2564 -1.25659,0.45 -1.91345,0.5809 -0.65686,0.1306 -1.32013,0.1958 -1.98987,0.196 H 411.20001 c -0.66974,-2e-4 -1.33307,-0.065 -1.98996,-0.196 -0.65686,-0.1309 -1.29468,-0.3245 -1.91348,-0.5809 -0.61877,-0.2561 -1.2066,-0.5703 -1.76349,-0.9426 -0.55685,-0.3718 -1.07205,-0.7947 -1.54562,-1.2683 -0.47361,-0.4736 -0.89643,-0.989 -1.26853,-1.5459 -0.37207,-0.5569 -0.68625,-1.1445 -0.94256,-1.7634 -0.25626,-0.6189 -0.44974,-1.2566 -0.58039,-1.9136 C 401.06534,2989.1326 401,2988.4695 401,2987.8 v -47.6 c 0,-0.67 0.0653,-1.3335 0.19598,-1.9905 0.13065,-0.6568 0.32413,-1.2945 0.58039,-1.9134 0.25631,-0.6186 0.57049,-1.2063 0.94256,-1.7631 0.3721,-0.5569 0.79492,-1.0721 1.26853,-1.5457 0.47357,-0.4736 0.9888,-0.8965 1.54565,-1.2685 0.55686,-0.3721 1.14469,-0.6863 1.76346,-0.9424 0.6188,-0.2561 1.25662,-0.4497 1.91348,-0.5806 0.65689,-0.1306 1.32022,-0.1958 1.98996,-0.1958 z"
       style="fill:none;stroke:#000000;stroke-width:1;stroke-linecap:butt;stroke-linejoin:miter;stroke-miterlimit:10;stroke-dasharray:none;stroke-opacity:1"
       transform="matrix(0.94370562,0,0,0.94370562,-375.46717,-2764.1139)"
       clip-path="url(#clipPath4)" />
    <text
       id="text4"
       xml:space="preserve"
       transform="matrix(0.94370562,0,0,0.94370562,13.752395,23.120898)"
       clip-path="url(#clipPath5)"><tspan
         id="tspan4"
         style="font-variant:normal;font-weight:normal;font-size:12px;font-family:Arial;writing-mode:lr-tb;fill:#000000;fill-opacity:1;fill-rule:nonzero;stroke:none"
         x="0"
         y="0">extended-usage-name-compartment</tspan></text>
    <text
       id="text5"
       xml:space="preserve"
       transform="matrix(0.94370562,0,0,0.94370562,57.192344,50.488362)"
       clip-path="url(#clipPath6)"><tspan
         id="tspan5"
         style="font-variant:normal;font-weight:normal;font-size:12px;font-family:Arial;writing-mode:lr-tb;fill:#000000;fill-opacity:1;fill-rule:nonzero;stroke:none"
         x="0"
         y="0">compartment-stack</tspan></text>
  </g>
</svg>
