<?xml version="1.0" encoding="UTF-8" standalone="no"?>
<!-- Created with Inkscape (http://www.inkscape.org/) -->

<svg
   version="1.1"
   id="svg1"
   width="372.16"
   height="30.719999"
   viewBox="0 0 372.16 30.719999"
   xmlns="http://www.w3.org/2000/svg"
   xmlns:svg="http://www.w3.org/2000/svg">
  <defs
     id="defs1">
    <clipPath
       clipPathUnits="userSpaceOnUse"
       id="clipPath2">
      <path
         d="M 0,0 H 1160.9863 V 95.996094 H 0 Z"
         transform="scale(0.31999999)"
         clip-rule="evenodd"
         id="path2" />
    </clipPath>
    <clipPath
       clipPathUnits="userSpaceOnUse"
       id="clipPath3">
      <path
         d="m 3.125,0 h 1156.25 V 95.996094 H 3.125 Z"
         transform="matrix(0.33652582,0,0,0.33652582,-325.01203,-19.000001)"
         clip-rule="evenodd"
         id="path3" />
    </clipPath>
    <clipPath
       clipPathUnits="userSpaceOnUse"
       id="clipPath4">
      <path
         d="m 3.125,0 h 1156.25 V 95.996094 H 3.125 Z"
         transform="matrix(0.33652582,0,0,0.33652582,-11.512034,-19.000001)"
         clip-rule="evenodd"
         id="path4" />
    </clipPath>
    <clipPath
       clipPathUnits="userSpaceOnUse"
       id="clipPath6">
      <path
         d="m 3.125,0 h 1156.25 V 95.996094 H 3.125 Z"
         transform="matrix(0.33652582,0,0,0.33652582,37.30047,321.50002)"
         clip-rule="evenodd"
         id="path6" />
    </clipPath>
    <clipPath
       clipPathUnits="userSpaceOnUse"
       id="clipPath8">
      <path
         d="m 3.125,0 h 1156.25 V 95.996094 H 3.125 Z"
         transform="matrix(0.33652582,0,0,0.33652582,37.30047,321.50002)"
         clip-rule="evenodd"
         id="path8" />
    </clipPath>
    <clipPath
       clipPathUnits="userSpaceOnUse"
       id="clipPath9">
      <path
         d="m 3.125,0 h 1156.25 V 95.996094 H 3.125 Z"
         transform="matrix(0.33652582,0,0,0.33652582,-180.84016,-19.000001)"
         clip-rule="evenodd"
         id="path9" />
    </clipPath>
  </defs>
  <g
     id="g1">
    <path
       id="path1"
       d="M 0,0 H 372 V 31 H 0 Z"
       style="fill:#ffffff;fill-opacity:1;fill-rule:nonzero;stroke:none"
       clip-path="url(#clipPath2)" />
    <text
       id="text2"
       xml:space="preserve"
       transform="matrix(0.95089282,0,0,0.95089282,309.05161,18.066965)"
       clip-path="url(#clipPath3)"><tspan
         id="tspan2"
         style="font-variant:normal;font-weight:normal;font-size:12px;font-family:Arial;writing-mode:lr-tb;fill:#000000;fill-opacity:1;fill-rule:nonzero;stroke:none"
         x="0"
         y="0">&amp;port-node</tspan></text>
    <text
       id="text3"
       xml:space="preserve"
       transform="matrix(0.95089282,0,0,0.95089282,10.94671,18.066965)"
       clip-path="url(#clipPath4)"><tspan
         id="tspan3"
         style="font-variant:normal;font-weight:normal;font-size:12px;font-family:Arial;writing-mode:lr-tb;fill:#000000;fill-opacity:1;fill-rule:nonzero;stroke:none"
         x="0"
         y="0">&amp;port-node</tspan></text>
    <path
       id="path5"
       d="M 114,338 H 360"
       style="fill:none;stroke:#000000;stroke-width:1;stroke-linecap:butt;stroke-linejoin:miter;stroke-miterlimit:10;stroke-dasharray:none;stroke-opacity:1"
       transform="matrix(0.95089282,0,0,0.95089282,-35.468749,-305.71206)"
       clip-path="url(#clipPath6)" />
    <path
       id="path7"
       d="m 217,327 h 60 v 20 h -60 z"
       style="fill:#ffffff;fill-opacity:1;fill-rule:nonzero;stroke:none"
       transform="matrix(0.95089282,0,0,0.95089282,-35.468749,-305.71206)"
       clip-path="url(#clipPath8)" />
    <text
       id="text8"
       xml:space="preserve"
       transform="matrix(0.95089282,0,0,0.95089282,171.95961,18.066965)"
       clip-path="url(#clipPath9)"><tspan
         id="tspan8"
         style="font-variant:normal;font-weight:normal;font-size:12px;font-family:Arial;writing-mode:lr-tb;fill:#000000;fill-opacity:1;fill-rule:nonzero;stroke:none"
         x="0"
         y="0">flow-node*</tspan></text>
  </g>
</svg>
