<?xml version="1.0" encoding="UTF-8" standalone="no"?>
<!-- Created with Inkscape (http://www.inkscape.org/) -->

<svg
   version="1.1"
   id="svg1"
   width="67.839996"
   height="49.279999"
   viewBox="0 0 67.839996 49.279999"
   xmlns="http://www.w3.org/2000/svg"
   xmlns:svg="http://www.w3.org/2000/svg">
  <defs
     id="defs1">
    <clipPath
       clipPathUnits="userSpaceOnUse"
       id="clipPath2">
      <path
         d="M 0,0 H 212.98828 V 152.97852 H 0 Z"
         transform="scale(0.31999999)"
         clip-rule="evenodd"
         id="path2" />
    </clipPath>
    <clipPath
       clipPathUnits="userSpaceOnUse"
       id="clipPath4">
      <path
         d="m 3.125,0 h 206.25 V 152.97852 H 3.125 Z"
         transform="matrix(0.35366158,0,0,0.35366158,167.2855,380.39479)"
         clip-rule="evenodd"
         id="path4" />
    </clipPath>
    <clipPath
       clipPathUnits="userSpaceOnUse"
       id="clipPath6">
      <path
         d="m 3.125,0 h 206.25 V 152.97852 H 3.125 Z"
         transform="matrix(0.35366158,0,0,0.35366158,167.2855,380.39479)"
         clip-rule="evenodd"
         id="path6" />
    </clipPath>
    <clipPath
       clipPathUnits="userSpaceOnUse"
       id="clipPath8">
      <path
         d="m 3.125,0 h 206.25 V 152.97852 H 3.125 Z"
         transform="matrix(0.35366158,0,0,0.35366158,167.2855,380.39479)"
         clip-rule="evenodd"
         id="path8" />
    </clipPath>
    <clipPath
       clipPathUnits="userSpaceOnUse"
       id="clipPath9">
      <path
         d="m 3.125,0 h 206.25 V 152.97852 H 3.125 Z"
         transform="matrix(0.35366158,0,0,0.35366158,-15.089499,-32.105187)"
         clip-rule="evenodd"
         id="path9" />
    </clipPath>
    <clipPath
       clipPathUnits="userSpaceOnUse"
       id="clipPath11">
      <path
         d="m 3.125,0 h 206.25 V 152.97852 H 3.125 Z"
         transform="matrix(0.35366158,0,0,0.35366158,167.7855,380.89482)"
         clip-rule="evenodd"
         id="path11" />
    </clipPath>
    <clipPath
       clipPathUnits="userSpaceOnUse"
       id="clipPath12">
      <path
         d="m 3.125,0 h 206.25 V 152.97852 H 3.125 Z"
         transform="matrix(0.35366158,0,0,0.35366158,-18.214499,-19.105187)"
         clip-rule="evenodd"
         id="path12" />
    </clipPath>
  </defs>
  <g
     id="g1">
    <path
       id="path1"
       d="M 0,0 H 68 V 49 H 0 Z"
       style="fill:#ffffff;fill-opacity:1;fill-rule:nonzero;stroke:none"
       clip-path="url(#clipPath2)" />
    <path
       id="path3"
       d="m 177,421.63 21.08,-0.14001"
       style="fill:none;stroke:#000000;stroke-width:1;stroke-linecap:butt;stroke-linejoin:miter;stroke-miterlimit:10;stroke-dasharray:none;stroke-opacity:1"
       transform="matrix(0.90481977,0,0,0.90481977,-151.36323,-344.18873)"
       clip-path="url(#clipPath4)" />
    <path
       id="path5"
       d="M 230.10001,421.98001 206.2,421.62"
       style="fill:none;stroke:#000000;stroke-width:1;stroke-linecap:butt;stroke-linejoin:miter;stroke-miterlimit:10;stroke-dasharray:none;stroke-opacity:1"
       transform="matrix(0.90481977,0,0,0.90481977,-151.36323,-344.18873)"
       clip-path="url(#clipPath6)" />
    <path
       id="path7"
       d="m 198.2,421.51001 8.05999,-3.89001 -0.11999,8 z"
       style="fill:#000000;fill-opacity:1;fill-rule:nonzero;stroke:#000000;stroke-width:1;stroke-linecap:butt;stroke-linejoin:miter;stroke-miterlimit:10;stroke-dasharray:none;stroke-opacity:1"
       transform="matrix(0.90481977,0,0,0.90481977,-151.36323,-344.18873)"
       clip-path="url(#clipPath8)" />
    <text
       id="text8"
       xml:space="preserve"
       transform="matrix(0.90481977,0,0,0.90481977,13.653277,29.049408)"
       clip-path="url(#clipPath9)"><tspan
         id="tspan8"
         style="font-variant:normal;font-weight:normal;font-size:10px;font-family:Arial;writing-mode:lr-tb;fill:#000000;fill-opacity:1;fill-rule:nonzero;stroke:none"
         x="0"
         y="0">flow-label</tspan></text>
    <path
       id="path10"
       d="m 186,391 h 38 v 11 h -38 z"
       style="fill:#f8f9fa;fill-opacity:1;fill-rule:nonzero;stroke:none"
       transform="matrix(0.90481977,0,0,0.90481977,-151.81564,-344.64116)"
       clip-path="url(#clipPath11)" />
    <text
       id="text11"
       xml:space="preserve"
       transform="matrix(0.90481977,0,0,0.90481977,16.480839,17.286751)"
       clip-path="url(#clipPath12)"><tspan
         id="tspan11"
         style="font-variant:normal;font-weight:normal;font-size:10px;font-family:Arial;writing-mode:lr-tb;fill:#000000;fill-opacity:1;fill-rule:nonzero;stroke:none"
         x="0"
         y="0">'«flow»'?</tspan></text>
  </g>
</svg>
