<?xml version="1.0" encoding="UTF-8" standalone="no"?>
<!-- Created with Inkscape (http://www.inkscape.org/) -->

<svg
   version="1.1"
   id="svg1"
   width="517.44"
   height="61.439999"
   viewBox="0 0 517.44 61.439999"
   xmlns="http://www.w3.org/2000/svg"
   xmlns:svg="http://www.w3.org/2000/svg">
  <defs
     id="defs1">
    <clipPath
       clipPathUnits="userSpaceOnUse"
       id="clipPath2">
      <path
         d="M 0,0 H 1616.9922 V 191.99219 H 0 Z"
         transform="scale(0.31999999)"
         clip-rule="evenodd"
         id="path2" />
    </clipPath>
    <clipPath
       clipPathUnits="userSpaceOnUse"
       id="clipPath3">
      <path
         d="m 3.125,0 h 1612.5 V 191.99219 H 3.125 Z"
         transform="matrix(0.33612818,0,0,0.33612818,-30.075562,-52.05041)"
         clip-rule="evenodd"
         id="path3" />
    </clipPath>
    <clipPath
       clipPathUnits="userSpaceOnUse"
       id="clipPath5">
      <path
         d="m 3.125,0 h 1612.5 V 191.99219 H 3.125 Z"
         transform="matrix(0.33612818,0,0,0.33612818,16.39319,158.4496)"
         clip-rule="evenodd"
         id="path5" />
    </clipPath>
    <clipPath
       clipPathUnits="userSpaceOnUse"
       id="clipPath7">
      <path
         d="m 3.125,0 h 1612.5 V 191.99219 H 3.125 Z"
         transform="matrix(0.33612818,0,0,0.33612818,16.39319,158.4496)"
         clip-rule="evenodd"
         id="path7" />
    </clipPath>
    <clipPath
       clipPathUnits="userSpaceOnUse"
       id="clipPath9">
      <path
         d="m 3.125,0 h 1612.5 V 191.99219 H 3.125 Z"
         transform="matrix(0.33612818,0,0,0.33612818,16.893188,158.94959)"
         clip-rule="evenodd"
         id="path9" />
    </clipPath>
    <clipPath
       clipPathUnits="userSpaceOnUse"
       id="clipPath10">
      <path
         d="m 3.125,0 h 1612.5 V 191.99219 H 3.125 Z"
         transform="matrix(0.33612818,0,0,0.33612818,-243.48181,-33.050411)"
         clip-rule="evenodd"
         id="path10" />
    </clipPath>
    <clipPath
       clipPathUnits="userSpaceOnUse"
       id="clipPath11">
      <path
         d="m 3.125,0 h 1612.5 V 191.99219 H 3.125 Z"
         transform="matrix(0.33612818,0,0,0.33612818,-428.07556,-52.05041)"
         clip-rule="evenodd"
         id="path11" />
    </clipPath>
    <clipPath
       clipPathUnits="userSpaceOnUse"
       id="clipPath13">
      <path
         d="m 3.125,0 h 1612.5 V 191.99219 H 3.125 Z"
         transform="matrix(0.33612818,0,0,0.33612818,16.893188,158.94959)"
         clip-rule="evenodd"
         id="path13" />
    </clipPath>
    <clipPath
       clipPathUnits="userSpaceOnUse"
       id="clipPath14">
      <path
         d="m 3.125,0 h 1612.5 V 191.99219 H 3.125 Z"
         transform="matrix(0.33612818,0,0,0.33612818,-243.10681,-19.050411)"
         clip-rule="evenodd"
         id="path14" />
    </clipPath>
  </defs>
  <g
     id="g1">
    <path
       id="path1"
       d="M 0,0 H 517 V 61 H 0 Z"
       style="fill:#ffffff;fill-opacity:1;fill-rule:nonzero;stroke:none"
       clip-path="url(#clipPath2)" />
    <text
       id="text2"
       xml:space="preserve"
       transform="matrix(0.95201772,0,0,0.95201772,28.632468,49.552913)"
       clip-path="url(#clipPath3)"><tspan
         id="tspan2"
         style="font-variant:normal;font-weight:normal;font-size:12px;font-family:Arial;writing-mode:lr-tb;fill:#000000;fill-opacity:1;fill-rule:nonzero;stroke:none"
         x="0"
         y="0">&amp;flow-end-node</tspan></text>
    <path
       id="path4"
       d="M 135,206 H 430.88"
       style="fill:none;stroke:#000000;stroke-width:1;stroke-linecap:butt;stroke-linejoin:miter;stroke-miterlimit:10;stroke-dasharray:none;stroke-opacity:1"
       transform="matrix(0.95201772,0,0,0.95201772,-15.606607,-150.84683)"
       clip-path="url(#clipPath5)" />
    <path
       id="path6"
       d="m 439.88,206 -9,4.5 v -9 z"
       style="fill:#000000;fill-opacity:1;fill-rule:nonzero;stroke:#000000;stroke-width:1;stroke-linecap:butt;stroke-linejoin:miter;stroke-miterlimit:10;stroke-dasharray:none;stroke-opacity:1"
       transform="matrix(0.95201772,0,0,0.95201772,-15.606607,-150.84683)"
       clip-path="url(#clipPath7)" />
    <path
       id="path8"
       d="m 260,177 h 43 v 19 h -43 z"
       style="fill:#ffffff;fill-opacity:1;fill-rule:nonzero;stroke:none"
       transform="matrix(0.95201772,0,0,0.95201772,-16.082614,-151.32283)"
       clip-path="url(#clipPath9)" />
    <text
       id="text9"
       xml:space="preserve"
       transform="matrix(0.95201772,0,0,0.95201772,231.799,31.464577)"
       clip-path="url(#clipPath10)"><tspan
         id="tspan9"
         style="font-variant:normal;font-weight:normal;font-size:10px;font-family:Arial;writing-mode:lr-tb;fill:#000000;fill-opacity:1;fill-rule:nonzero;stroke:none"
         x="0"
         y="0">flow-label</tspan></text>
    <text
       id="text10"
       xml:space="preserve"
       transform="matrix(0.95201772,0,0,0.95201772,407.53552,49.552913)"
       clip-path="url(#clipPath11)"><tspan
         id="tspan10"
         style="font-variant:normal;font-weight:normal;font-size:12px;font-family:Arial;writing-mode:lr-tb;fill:#000000;fill-opacity:1;fill-rule:nonzero;stroke:none"
         x="0"
         y="0">&amp;flow-end-node</tspan></text>
    <path
       id="path12"
       d="m 260,169 h 38 v 11 h -38 z"
       style="fill:#f8f9fa;fill-opacity:1;fill-rule:nonzero;stroke:none"
       transform="matrix(0.95201772,0,0,0.95201772,-16.082614,-151.32283)"
       clip-path="url(#clipPath13)" />
    <text
       id="text13"
       xml:space="preserve"
       transform="matrix(0.95201772,0,0,0.95201772,231.44199,18.136329)"
       clip-path="url(#clipPath14)"><tspan
         id="tspan13"
         style="font-variant:normal;font-weight:normal;font-size:10px;font-family:Arial;writing-mode:lr-tb;fill:#000000;fill-opacity:1;fill-rule:nonzero;stroke:none"
         x="0"
         y="0">'«flow»'?</tspan></text>
  </g>
</svg>
