<?xml version="1.0" encoding="UTF-8" standalone="no"?>
<!-- Created with Inkscape (http://www.inkscape.org/) -->

<svg
   version="1.1"
   id="svg1"
   width="66.559998"
   height="48"
   viewBox="0 0 66.559998 48"
   xmlns="http://www.w3.org/2000/svg"
   xmlns:svg="http://www.w3.org/2000/svg">
  <defs
     id="defs1">
    <clipPath
       clipPathUnits="userSpaceOnUse"
       id="clipPath2">
      <path
         d="M 0,0 H 206.98242 V 150 H 0 Z"
         transform="scale(0.31999999)"
         clip-rule="evenodd"
         id="path2" />
    </clipPath>
    <clipPath
       clipPathUnits="userSpaceOnUse"
       id="clipPath4">
      <path
         d="m 3.125,0 h 200 v 150 h -200 z"
         transform="matrix(0.35629693,0,0,0.35629693,47.772011,380.88655)"
         clip-rule="evenodd"
         id="path4" />
    </clipPath>
    <clipPath
       clipPathUnits="userSpaceOnUse"
       id="clipPath5">
      <path
         d="m 3.125,0 h 200 v 150 h -200 z"
         transform="matrix(0.35629693,0,0,0.35629693,-18.227989,-19.113449)"
         clip-rule="evenodd"
         id="path5" />
    </clipPath>
    <clipPath
       clipPathUnits="userSpaceOnUse"
       id="clipPath6">
      <path
         d="m 3.125,0 h 200 v 150 h -200 z"
         transform="matrix(0.35629693,0,0,0.35629693,-15.10299,-31.113449)"
         clip-rule="evenodd"
         id="path6" />
    </clipPath>
    <clipPath
       clipPathUnits="userSpaceOnUse"
       id="clipPath8">
      <path
         d="m 3.125,0 h 200 v 150 h -200 z"
         transform="matrix(0.35629693,0,0,0.35629693,47.272011,380.38655)"
         clip-rule="evenodd"
         id="path8" />
    </clipPath>
    <clipPath
       clipPathUnits="userSpaceOnUse"
       id="clipPath10">
      <path
         d="m 3.125,0 h 200 v 150 h -200 z"
         transform="matrix(0.35629693,0,0,0.35629693,47.272011,380.38655)"
         clip-rule="evenodd"
         id="path10" />
    </clipPath>
    <clipPath
       clipPathUnits="userSpaceOnUse"
       id="clipPath12">
      <path
         d="m 3.125,0 h 200 v 150 h -200 z"
         transform="matrix(0.35629693,0,0,0.35629693,47.272011,380.38655)"
         clip-rule="evenodd"
         id="path12" />
    </clipPath>
  </defs>
  <g
     id="g1">
    <path
       id="path1"
       d="M 0,0 H 66 V 48 H 0 Z"
       style="fill:#ffffff;fill-opacity:1;fill-rule:nonzero;stroke:none"
       clip-path="url(#clipPath2)" />
    <path
       id="path3"
       d="m 66,391 h 38 v 11 H 66 Z"
       style="fill:#f8f9fa;fill-opacity:1;fill-rule:nonzero;stroke:none"
       transform="matrix(0.89812726,0,0,0.89812726,-42.905345,-342.08459)"
       clip-path="url(#clipPath4)" />
    <text
       id="text4"
       xml:space="preserve"
       transform="matrix(0.89812726,0,0,0.89812726,16.371054,17.16631)"
       clip-path="url(#clipPath5)"><tspan
         id="tspan4"
         style="font-variant:normal;font-weight:normal;font-size:10px;font-family:Arial;writing-mode:lr-tb;fill:#000000;fill-opacity:1;fill-rule:nonzero;stroke:none"
         x="0"
         y="0">'«flow»'?</tspan></text>
    <text
       id="text5"
       xml:space="preserve"
       transform="matrix(0.89812726,0,0,0.89812726,13.564407,27.943837)"
       clip-path="url(#clipPath6)"><tspan
         id="tspan5"
         style="font-variant:normal;font-weight:normal;font-size:10px;font-family:Arial;writing-mode:lr-tb;fill:#000000;fill-opacity:1;fill-rule:nonzero;stroke:none"
         x="0"
         y="0">flow-label</tspan></text>
    <path
       id="path7"
       d="M 113.1,421.14001 92.019997,421"
       style="fill:none;stroke:#000000;stroke-width:1;stroke-linecap:butt;stroke-linejoin:miter;stroke-miterlimit:10;stroke-dasharray:none;stroke-opacity:1"
       transform="matrix(0.89812726,0,0,0.89812726,-42.456282,-341.63553)"
       clip-path="url(#clipPath8)" />
    <path
       id="path9"
       d="M 60,421.48999 83.900002,421.13"
       style="fill:none;stroke:#000000;stroke-width:1;stroke-linecap:butt;stroke-linejoin:miter;stroke-miterlimit:10;stroke-dasharray:none;stroke-opacity:1"
       transform="matrix(0.89812726,0,0,0.89812726,-42.456282,-341.63553)"
       clip-path="url(#clipPath10)" />
    <path
       id="path11"
       d="m 91.900002,421.01999 -7.940003,4.11001 -0.120003,-8 z"
       style="fill:#000000;fill-opacity:1;fill-rule:nonzero;stroke:#000000;stroke-width:1;stroke-linecap:butt;stroke-linejoin:miter;stroke-miterlimit:10;stroke-dasharray:none;stroke-opacity:1"
       transform="matrix(0.89812726,0,0,0.89812726,-42.456282,-341.63553)"
       clip-path="url(#clipPath12)" />
  </g>
</svg>
