<?xml version="1.0" encoding="UTF-8" standalone="no"?>
<!-- Created with Inkscape (http://www.inkscape.org/) -->

<svg
   version="1.1"
   id="svg1"
   width="273.28"
   height="186.56"
   viewBox="0 0 273.28 186.56"
   xmlns="http://www.w3.org/2000/svg"
   xmlns:svg="http://www.w3.org/2000/svg">
  <defs
     id="defs1">
    <clipPath
       clipPathUnits="userSpaceOnUse"
       id="clipPath2">
      <path
         d="M 0,0 H 854.98047 V 584 H 0 Z"
         transform="scale(0.31999999)"
         clip-rule="evenodd"
         id="path2" />
    </clipPath>
    <clipPath
       clipPathUnits="userSpaceOnUse"
       id="clipPath4">
      <path
         d="m 3.125,0 h 850 v 584 h -850 z"
         transform="matrix(0.33745928,0,0,0.33745928,490.88057,3258.4456)"
         clip-rule="evenodd"
         id="path4" />
    </clipPath>
    <clipPath
       clipPathUnits="userSpaceOnUse"
       id="clipPath6">
      <path
         d="m 3.125,0 h 850 v 584 h -850 z"
         transform="matrix(0.33745928,0,0,0.33745928,491.38058,3258.9454)"
         clip-rule="evenodd"
         id="path6" />
    </clipPath>
    <clipPath
       clipPathUnits="userSpaceOnUse"
       id="clipPath7">
      <path
         d="m 3.125,0 h 850 v 584 h -850 z"
         transform="matrix(0.33745928,0,0,0.33745928,-4.9319153,-96.05457)"
         clip-rule="evenodd"
         id="path7" />
    </clipPath>
    <clipPath
       clipPathUnits="userSpaceOnUse"
       id="clipPath9">
      <path
         d="m 3.125,0 h 850 v 584 h -850 z"
         transform="matrix(0.33745928,0,0,0.33745928,491.38058,3258.9454)"
         clip-rule="evenodd"
         id="path9" />
    </clipPath>
    <clipPath
       clipPathUnits="userSpaceOnUse"
       id="clipPath10">
      <path
         d="m 3.125,0 h 850 v 584 h -850 z"
         transform="matrix(0.33745928,0,0,0.33745928,-235.27567,-93.05457)"
         clip-rule="evenodd"
         id="path10" />
    </clipPath>
    <clipPath
       clipPathUnits="userSpaceOnUse"
       id="clipPath12">
      <path
         d="m 3.125,0 h 850 v 584 h -850 z"
         transform="matrix(0.33745928,0,0,0.33745928,491.38058,3258.9454)"
         clip-rule="evenodd"
         id="path12" />
    </clipPath>
    <clipPath
       clipPathUnits="userSpaceOnUse"
       id="clipPath13">
      <path
         d="m 3.125,0 h 850 v 584 h -850 z"
         transform="matrix(0.33745928,0,0,0.33745928,-109.60379,-186.05457)"
         clip-rule="evenodd"
         id="path13" />
    </clipPath>
    <clipPath
       clipPathUnits="userSpaceOnUse"
       id="clipPath15">
      <path
         d="m 3.125,0 h 850 v 584 h -850 z"
         transform="matrix(0.33745928,0,0,0.33745928,491.38058,3258.9454)"
         clip-rule="evenodd"
         id="path15" />
    </clipPath>
    <clipPath
       clipPathUnits="userSpaceOnUse"
       id="clipPath16">
      <path
         d="m 3.125,0 h 850 v 584 h -850 z"
         transform="matrix(0.33745928,0,0,0.33745928,-116.27567,-17.054571)"
         clip-rule="evenodd"
         id="path16" />
    </clipPath>
    <clipPath
       clipPathUnits="userSpaceOnUse"
       id="clipPath18">
      <path
         d="m 3.125,0 h 850 v 584 h -850 z"
         transform="matrix(0.33745928,0,0,0.33745928,491.38058,3258.9454)"
         clip-rule="evenodd"
         id="path18" />
    </clipPath>
    <clipPath
       clipPathUnits="userSpaceOnUse"
       id="clipPath19">
      <path
         d="m 3.125,0 h 850 v 584 h -850 z"
         transform="matrix(0.33745928,0,0,0.33745928,-51.744416,-42.054571)"
         clip-rule="evenodd"
         id="path19" />
    </clipPath>
    <clipPath
       clipPathUnits="userSpaceOnUse"
       id="clipPath21">
      <path
         d="m 3.125,0 h 850 v 584 h -850 z"
         transform="matrix(0.33745928,0,0,0.33745928,491.38058,3258.9454)"
         clip-rule="evenodd"
         id="path21" />
    </clipPath>
    <clipPath
       clipPathUnits="userSpaceOnUse"
       id="clipPath22">
      <path
         d="m 3.125,0 h 850 v 584 h -850 z"
         transform="matrix(0.33745928,0,0,0.33745928,-121.76005,-79.05457)"
         clip-rule="evenodd"
         id="path22" />
    </clipPath>
    <clipPath
       clipPathUnits="userSpaceOnUse"
       id="clipPath24">
      <path
         d="m 3.125,0 h 850 v 584 h -850 z"
         transform="matrix(0.33745928,0,0,0.33745928,491.38058,3258.9454)"
         clip-rule="evenodd"
         id="path24" />
    </clipPath>
    <clipPath
       clipPathUnits="userSpaceOnUse"
       id="clipPath25">
      <path
         d="m 3.125,0 h 850 v 584 h -850 z"
         transform="matrix(0.33745928,0,0,0.33745928,-86.603795,-163.05457)"
         clip-rule="evenodd"
         id="path25" />
    </clipPath>
    <clipPath
       clipPathUnits="userSpaceOnUse"
       id="clipPath27">
      <path
         d="m 3.125,0 h 850 v 584 h -850 z"
         transform="matrix(0.33745928,0,0,0.33745928,491.38058,3258.9454)"
         clip-rule="evenodd"
         id="path27" />
    </clipPath>
    <clipPath
       clipPathUnits="userSpaceOnUse"
       id="clipPath28">
      <path
         d="m 3.125,0 h 850 v 584 h -850 z"
         transform="matrix(0.33745928,0,0,0.33745928,-119.76004,-121.05457)"
         clip-rule="evenodd"
         id="path28" />
    </clipPath>
  </defs>
  <g
     id="g1">
    <path
       id="path1"
       d="M 0,0 H 274 V 187 H 0 Z"
       style="fill:#ffffff;fill-opacity:1;fill-rule:nonzero;stroke:none"
       clip-path="url(#clipPath2)" />
    <path
       id="path3"
       d="m 561.45001,3273.03 h 144.82996 c 1.25769,3e-4 2.51233,0.062 3.76385,0.1851 1.25153,0.1233 2.49402,0.3074 3.72748,0.5525 1.23352,0.2456 2.45203,0.551 3.65552,0.9162 1.20349,0.3648 2.38617,0.7876 3.54809,1.2688 1.16193,0.4812 2.29749,1.0183 3.40662,1.6114 1.10913,0.5927 2.18652,1.2385 3.23224,1.937 1.04571,0.699 2.05469,1.4472 3.02686,2.2448 0.97216,0.7981 1.90289,1.6417 2.79217,2.5308 0.88934,0.8894 1.73291,1.8201 2.5307,2.7925 0.79785,0.9719 1.54614,1.9807 2.24481,3.0264 0.69879,1.0456 1.34455,2.1233 1.93738,3.2324 0.5929,1.1091 1.12994,2.2446 1.61121,3.4065 0.48126,1.1618 0.90448,2.3447 1.26959,3.5481 0.36505,1.2033 0.67029,2.4218 0.91559,3.6552 0.24542,1.2337 0.42975,2.4764 0.55304,3.7281 0.12329,1.2519 0.18493,2.5066 0.18487,3.7641 v 90.1702 c 6e-5,1.2576 -0.0616,2.5122 -0.18481,3.7637 -0.12335,1.2517 -0.30768,2.4941 -0.5531,3.7273 -0.2453,1.2336 -0.55054,2.4524 -0.91559,3.6557 -0.36511,1.2034 -0.78833,2.386 -1.26959,3.5479 -0.48127,1.1618 -1.01831,2.2976 -1.61121,3.4067 -0.59283,1.1091 -1.23859,2.1865 -1.93732,3.2322 -0.69867,1.0456 -1.44696,2.0547 -2.24481,3.0271 -0.79785,0.9719 -1.64142,1.9026 -2.53076,2.7917 -0.88928,0.8894 -1.82001,1.7332 -2.79217,2.531 -0.97223,0.7979 -1.98121,1.5459 -3.02692,2.2444 -1.04566,0.699 -2.12305,1.3448 -3.23224,1.9375 -1.10907,0.593 -2.24463,1.1299 -3.40656,1.6111 -1.16192,0.4815 -2.3446,0.9048 -3.54809,1.27 -1.20349,0.365 -2.422,0.6702 -3.65546,0.9156 -1.23346,0.2453 -2.47595,0.4299 -3.72748,0.5532 -1.25158,0.1233 -2.50622,0.1848 -3.76391,0.1848 H 561.45001 c -1.25763,0 -2.5122,-0.061 -3.76385,-0.1848 -1.25159,-0.1233 -2.49414,-0.3079 -3.72766,-0.5532 -1.23346,-0.2454 -2.45197,-0.5506 -3.65546,-0.9156 -1.20349,-0.3652 -2.38623,-0.7885 -3.54816,-1.27 -1.16186,-0.4812 -2.29736,-1.0181 -3.40655,-1.6108 -1.10919,-0.5928 -2.18659,-1.2385 -3.2323,-1.9375 -1.04572,-0.6985 -2.05463,-1.4468 -3.02674,-2.2447 -0.97222,-0.7978 -1.90295,-1.6416 -2.79223,-2.531 -0.88928,-0.8891 -1.73285,-1.8198 -2.5307,-2.7917 -0.79785,-0.9724 -1.54615,-1.9815 -2.24488,-3.0271 -0.69867,-1.0457 -1.34448,-2.1231 -1.93731,-3.2322 -0.59284,-1.1091 -1.12995,-2.2449 -1.61121,-3.4067 -0.48126,-1.1619 -0.90442,-2.3445 -1.26953,-3.5481 -0.36505,-1.2034 -0.67023,-2.4219 -0.91559,-3.6555 -0.2453,-1.2332 -0.42962,-2.4759 -0.55292,-3.7276 -0.12329,-1.2512 -0.18493,-2.5058 -0.18493,-3.7634 v -90.1702 c 0,-1.2575 0.0616,-2.5122 0.18493,-3.7639 0.12323,-1.2517 0.30756,-2.4944 0.55286,-3.728 0.24536,-1.2337 0.5506,-2.4522 0.91565,-3.6555 0.36511,-1.2034 0.78827,-2.3863 1.26953,-3.5481 0.48126,-1.1619 1.01837,-2.2971 1.61121,-3.4063 0.59283,-1.1091 1.23864,-2.1865 1.93731,-3.2322 0.69873,-1.0456 1.44703,-2.0546 2.24488,-3.0268 0.79785,-0.9722 1.64142,-1.9028 2.5307,-2.7922 0.88928,-0.8894 1.82001,-1.733 2.79217,-2.5308 0.97217,-0.7976 1.98108,-1.5459 3.0268,-2.2449 1.04571,-0.6985 2.12311,-1.3442 3.2323,-1.937 1.10919,-0.593 2.24469,-1.1301 3.40655,-1.6113 1.16193,-0.4812 2.34467,-0.9043 3.54816,-1.2693 1.20349,-0.365 2.422,-0.6704 3.65546,-0.9158 1.23352,-0.2453 2.47607,-0.4294 3.72766,-0.5527 1.25165,-0.1233 2.50622,-0.1848 3.76385,-0.1851 z"
       style="fill:#ffffff;fill-opacity:1;fill-rule:nonzero;stroke:#000000;stroke-width:1;stroke-linecap:butt;stroke-linejoin:miter;stroke-miterlimit:10;stroke-dasharray:none;stroke-opacity:1"
       transform="matrix(0.94826252,0,0,0.94826252,-465.48365,-3089.8618)"
       clip-path="url(#clipPath4)" />
    <path
       id="path5"
       d="m 496,3344 h 46 v 15 h -46 z"
       style="fill:#ffffff;fill-opacity:1;fill-rule:nonzero;stroke:none"
       transform="matrix(0.94826252,0,0,0.94826252,-465.95779,-3090.3358)"
       clip-path="url(#clipPath6)" />
    <text
       id="text6"
       xml:space="preserve"
       transform="matrix(0.94826252,0,0,0.94826252,4.6767504,91.084949)"
       clip-path="url(#clipPath7)"><tspan
         id="tspan6"
         style="font-variant:normal;font-weight:normal;font-size:12px;font-family:Arial;writing-mode:lr-tb;fill:#000000;fill-opacity:1;fill-rule:nonzero;stroke:none"
         x="0"
         y="0">param-l*</tspan></text>
    <path
       id="path8"
       d="m 727,3341 h 46 v 15 h -46 z"
       style="fill:#ffffff;fill-opacity:1;fill-rule:nonzero;stroke:none"
       transform="matrix(0.94826252,0,0,0.94826252,-465.95779,-3090.3358)"
       clip-path="url(#clipPath9)" />
    <text
       id="text9"
       xml:space="preserve"
       transform="matrix(0.94826252,0,0,0.94826252,223.1031,88.240161)"
       clip-path="url(#clipPath10)"><tspan
         id="tspan9"
         style="font-variant:normal;font-weight:normal;font-size:12px;font-family:Arial;writing-mode:lr-tb;fill:#000000;fill-opacity:1;fill-rule:nonzero;stroke:none"
         x="0"
         y="0">param-r*</tspan></text>
    <path
       id="path11"
       d="m 601,3434 h 56 v 15 h -56 z"
       style="fill:#ffffff;fill-opacity:1;fill-rule:nonzero;stroke:none"
       transform="matrix(0.94826252,0,0,0.94826252,-465.95779,-3090.3358)"
       clip-path="url(#clipPath12)" />
    <g
       id="g12" />
    <g
       id="g13" />
    <text
       id="text13"
       xml:space="preserve"
       transform="matrix(0.94826252,0,0,0.94826252,103.93317,176.42858)"
       clip-path="url(#clipPath13)"><tspan
         id="tspan13"
         style="font-variant:normal;font-weight:normal;font-size:12px;font-family:Arial;writing-mode:lr-tb;fill:#000000;fill-opacity:1;fill-rule:nonzero;stroke:none"
         x="0"
         y="0"> param-b* </tspan></text>
    <path
       id="path14"
       d="m 608,3265 h 52 v 15 h -52 z"
       style="fill:#ffffff;fill-opacity:1;fill-rule:nonzero;stroke:none"
       transform="matrix(0.94826252,0,0,0.94826252,-465.95779,-3090.3358)"
       clip-path="url(#clipPath15)" />
    <g
       id="g15" />
    <g
       id="g16" />
    <text
       id="text16"
       xml:space="preserve"
       transform="matrix(0.94826252,0,0,0.94826252,110.25986,16.17221)"
       clip-path="url(#clipPath16)"><tspan
         id="tspan16"
         style="font-variant:normal;font-weight:normal;font-size:12px;font-family:Arial;writing-mode:lr-tb;fill:#000000;fill-opacity:1;fill-rule:nonzero;stroke:none"
         x="0"
         y="0"> param-t* </tspan></text>
    <path
       id="path17"
       d="m 543,3290 h 185 v 14 H 543 Z"
       style="fill:#fbfbfb;fill-opacity:1;fill-rule:nonzero;stroke:none"
       transform="matrix(0.94826252,0,0,0.94826252,-465.95779,-3090.3358)"
       clip-path="url(#clipPath18)" />
    <text
       id="text18"
       xml:space="preserve"
       transform="matrix(0.94826252,0,0,0.94826252,49.06729,39.878773)"
       clip-path="url(#clipPath19)"><tspan
         id="tspan18"
         style="font-variant:normal;font-weight:normal;font-size:12px;font-family:Arial;writing-mode:lr-tb;fill:#000000;fill-opacity:1;fill-rule:nonzero;stroke:none"
         x="0"
         y="0">for-loop-action-name-compartment</tspan></text>
    <path
       id="path20"
       d="m 613,3327 h 43 v 14 h -43 z"
       style="fill:#fbfbfb;fill-opacity:1;fill-rule:nonzero;stroke:none"
       transform="matrix(0.94826252,0,0,0.94826252,-465.95779,-3090.3358)"
       clip-path="url(#clipPath21)" />
    <text
       id="text21"
       xml:space="preserve"
       transform="matrix(0.94826252,0,0,0.94826252,115.46049,74.964486)"
       clip-path="url(#clipPath22)"><tspan
         id="tspan21"
         style="font-variant:normal;font-weight:normal;font-size:12px;font-family:Arial;writing-mode:lr-tb;fill:#000000;fill-opacity:1;fill-rule:nonzero;stroke:none"
         x="0"
         y="0">iteration</tspan></text>
    <path
       id="path23"
       d="m 578,3411 h 102 v 14 H 578 Z"
       style="fill:#fbfbfb;fill-opacity:1;fill-rule:nonzero;stroke:none"
       transform="matrix(0.94826252,0,0,0.94826252,-465.95779,-3090.3358)"
       clip-path="url(#clipPath24)" />
    <text
       id="text24"
       xml:space="preserve"
       transform="matrix(0.94826252,0,0,0.94826252,82.123133,154.61854)"
       clip-path="url(#clipPath25)"><tspan
         id="tspan24"
         style="font-variant:normal;font-weight:normal;font-size:12px;font-family:Arial;writing-mode:lr-tb;fill:#000000;fill-opacity:1;fill-rule:nonzero;stroke:none"
         x="0"
         y="0">compartment-stack</tspan></text>
    <path
       id="path26"
       d="m 611,3369 h 53 v 14 h -53 z"
       style="fill:#fbfbfb;fill-opacity:1;fill-rule:nonzero;stroke:none"
       transform="matrix(0.94826252,0,0,0.94826252,-465.95779,-3090.3358)"
       clip-path="url(#clipPath27)" />
    <text
       id="text27"
       xml:space="preserve"
       transform="matrix(0.94826252,0,0,0.94826252,113.56396,114.79151)"
       clip-path="url(#clipPath28)"><tspan
         id="tspan27"
         style="font-variant:normal;font-weight:normal;font-size:12px;font-family:Arial;writing-mode:lr-tb;fill:#000000;fill-opacity:1;fill-rule:nonzero;stroke:none"
         x="0"
         y="0">loop-body</tspan></text>
  </g>
</svg>
