<?xml version="1.0" encoding="UTF-8" standalone="no"?>
<!-- Created with Inkscape (http://www.inkscape.org/) -->

<svg
   version="1.1"
   id="svg1"
   width="61.439999"
   height="6.7199998"
   viewBox="0 0 61.439999 6.7199998"
   xmlns="http://www.w3.org/2000/svg"
   xmlns:svg="http://www.w3.org/2000/svg">
  <defs
     id="defs1">
    <clipPath
       clipPathUnits="userSpaceOnUse"
       id="clipPath2">
      <path
         d="M 0,0 H 191.99219 V 20.996094 H 0 Z"
         transform="scale(0.31999999)"
         clip-rule="evenodd"
         id="path2" />
    </clipPath>
    <clipPath
       clipPathUnits="userSpaceOnUse"
       id="clipPath4">
      <path
         d="m 3.125,0 h 187.5 V 20.996094 H 3.125 Z"
         transform="matrix(0,-0.35593583,0.35593583,0,337.23999,2889.0227)"
         clip-rule="evenodd"
         id="path4" />
    </clipPath>
  </defs>
  <g
     id="g1">
    <path
       id="path1"
       d="M 0,0 H 61 V 7 H 0 Z"
       style="fill:#ffffff;fill-opacity:1;fill-rule:nonzero;stroke:none"
       clip-path="url(#clipPath2)" />
    <path
       id="path3"
       d="m 338.48999,2823.75 h 3.5 c 0.20709,0 0.38385,0.073 0.5303,0.2195 0.14646,0.1465 0.21967,0.3232 0.2197,0.5305 v 61 c -3e-5,0.2068 -0.0732,0.3835 -0.2197,0.53 -0.14645,0.1465 -0.32321,0.2198 -0.5303,0.22 h -3.5 c -0.20712,-2e-4 -0.38391,-0.073 -0.53036,-0.22 -0.14646,-0.1465 -0.21967,-0.3232 -0.21964,-0.53 v -61 c -3e-5,-0.2073 0.0732,-0.384 0.21964,-0.5305 0.14645,-0.1463 0.32324,-0.2195 0.53036,-0.2195 z"
       style="fill:#000000;fill-opacity:1;fill-rule:nonzero;stroke:none"
       transform="matrix(0,0.89903843,-0.89903843,0,2597.3424,-303.19171)"
       clip-path="url(#clipPath4)" />
  </g>
</svg>
