<?xml version="1.0" encoding="UTF-8" standalone="no"?>
<!-- Created with Inkscape (http://www.inkscape.org/) -->

<svg
   version="1.1"
   id="svg1"
   width="405.44"
   height="192"
   viewBox="0 0 405.44 192"
   xmlns="http://www.w3.org/2000/svg"
   xmlns:svg="http://www.w3.org/2000/svg">
  <defs
     id="defs1">
    <clipPath
       clipPathUnits="userSpaceOnUse"
       id="clipPath2">
      <path
         d="M 0,0 H 1266.0156 V 600 H 0 Z"
         transform="scale(0.31999999)"
         clip-rule="evenodd"
         id="path2" />
    </clipPath>
    <clipPath
       clipPathUnits="userSpaceOnUse"
       id="clipPath4">
      <path
         d="M 3.125,0 H 1262.5 V 600 H 3.125 Z"
         transform="matrix(0.33690845,0,0,0.33690845,76.893851,1140.4473)"
         clip-rule="evenodd"
         id="path4" />
    </clipPath>
    <clipPath
       clipPathUnits="userSpaceOnUse"
       id="clipPath5">
      <path
         d="M 3.125,0 H 1262.5 V 600 H 3.125 Z"
         transform="matrix(0.33690845,0,0,0.33690845,-172.59053,-107.0528)"
         clip-rule="evenodd"
         id="path5" />
    </clipPath>
    <clipPath
       clipPathUnits="userSpaceOnUse"
       id="clipPath7">
      <path
         d="M 3.125,0 H 1262.5 V 600 H 3.125 Z"
         transform="matrix(0.33690845,0,0,0.33690845,76.893851,1140.4473)"
         clip-rule="evenodd"
         id="path7" />
    </clipPath>
    <clipPath
       clipPathUnits="userSpaceOnUse"
       id="clipPath8">
      <path
         d="M 3.125,0 H 1262.5 V 600 H 3.125 Z"
         transform="matrix(0.33690845,0,0,0.33690845,-13.574896,-196.0528)"
         clip-rule="evenodd"
         id="path8" />
    </clipPath>
    <clipPath
       clipPathUnits="userSpaceOnUse"
       id="clipPath10">
      <path
         d="M 3.125,0 H 1262.5 V 600 H 3.125 Z"
         transform="matrix(0.33690845,0,0,0.33690845,76.893851,1140.4473)"
         clip-rule="evenodd"
         id="path10" />
    </clipPath>
    <clipPath
       clipPathUnits="userSpaceOnUse"
       id="clipPath11">
      <path
         d="M 3.125,0 H 1262.5 V 600 H 3.125 Z"
         transform="matrix(0.33690845,0,0,0.33690845,-234.90302,-196.0528)"
         clip-rule="evenodd"
         id="path11" />
    </clipPath>
    <clipPath
       clipPathUnits="userSpaceOnUse"
       id="clipPath13">
      <path
         d="M 3.125,0 H 1262.5 V 600 H 3.125 Z"
         transform="matrix(0.33690845,0,0,0.33690845,76.893851,1140.4473)"
         clip-rule="evenodd"
         id="path13" />
    </clipPath>
    <clipPath
       clipPathUnits="userSpaceOnUse"
       id="clipPath14">
      <path
         d="M 3.125,0 H 1262.5 V 600 H 3.125 Z"
         transform="matrix(0.33690845,0,0,0.33690845,-237.5749,-17.052801)"
         clip-rule="evenodd"
         id="path14" />
    </clipPath>
    <linearGradient
       x1="0"
       y1="0"
       x2="0"
       y2="1"
       gradientUnits="userSpaceOnUse"
       gradientTransform="matrix(188.99999,0,0,20,79.999997,1154)"
       spreadMethod="pad"
       id="linearGradient16">
      <stop
         style="stop-opacity:1;stop-color:#ffffff"
         offset="0"
         id="stop15" />
      <stop
         style="stop-opacity:1;stop-color:#ffffff"
         offset="1"
         id="stop16" />
    </linearGradient>
    <clipPath
       clipPathUnits="userSpaceOnUse"
       id="clipPath16">
      <path
         d="M 3.125,0 H 1262.5 V 600 H 3.125 Z"
         transform="matrix(0.33690845,0,0,0.33690845,76.893851,1140.4473)"
         clip-rule="evenodd"
         id="path16" />
    </clipPath>
    <clipPath
       clipPathUnits="userSpaceOnUse"
       id="clipPath17">
      <path
         d="M 3.125,0 H 1262.5 V 600 H 3.125 Z"
         transform="matrix(0.33690845,0,0,0.33690845,-4.6061458,-27.052801)"
         clip-rule="evenodd"
         id="path17" />
    </clipPath>
  </defs>
  <g
     id="g1">
    <path
       id="path1"
       d="M 0,0 H 405 V 192 H 0 Z"
       style="fill:#ffffff;fill-opacity:1;fill-rule:nonzero;stroke:none"
       clip-path="url(#clipPath2)" />
    <path
       id="path3"
       d="m 85,1154 h 410 c 0.66299,0 1.30078,0.1268 1.91336,0.3805 0.61258,0.2538 1.15329,0.615 1.62213,1.0839 0.46881,0.4687 0.83008,1.0095 1.08383,1.6222 0.25373,0.6124 0.38062,1.2502 0.38068,1.9134 v 170 c -6e-5,0.663 -0.12695,1.3008 -0.38068,1.9133 -0.25375,0.6126 -0.61502,1.1534 -1.08383,1.6222 -0.46884,0.4688 -1.00955,0.8301 -1.62213,1.0839 -0.61258,0.2537 -1.25037,0.3805 -1.91336,0.3806 H 85 c -0.663048,-10e-5 -1.300858,-0.1269 -1.913429,-0.3806 -0.612564,-0.2538 -1.153267,-0.6151 -1.622109,-1.0839 -0.468849,-0.4688 -0.830139,-1.0096 -1.083877,-1.6222 C 80.126854,1330.3008 79.999992,1329.663 80,1329 v -170 c -8e-6,-0.6632 0.126854,-1.301 0.380585,-1.9134 0.253738,-0.6127 0.615028,-1.1535 1.083877,-1.6222 0.468842,-0.4689 1.009545,-0.8301 1.622109,-1.0839 C 83.699142,1154.1268 84.336952,1154 85,1154 Z"
       style="fill:#ffffff;fill-opacity:1;fill-rule:nonzero;stroke:#000000;stroke-width:1;stroke-linecap:butt;stroke-linejoin:miter;stroke-miterlimit:10;stroke-dasharray:none;stroke-opacity:1"
       transform="matrix(0.94981289,0,0,0.94981289,-73.034771,-1083.2115)"
       clip-path="url(#clipPath4)" />
    <text
       id="text4"
       xml:space="preserve"
       transform="matrix(0.94981289,0,0,0.94981289,163.92871,101.68013)"
       clip-path="url(#clipPath5)"><tspan
         id="tspan4"
         style="font-variant:normal;font-weight:normal;font-size:12px;font-family:Arial;writing-mode:lr-tb;fill:#000000;fill-opacity:1;fill-rule:nonzero;stroke:none"
         x="0"
         y="0">frameless-view</tspan></text>
    <path
       id="path6"
       d="m 88,1321 h 182 v 20 H 88 Z"
       style="fill:#ffffff;fill-opacity:1;fill-rule:nonzero;stroke:none"
       transform="matrix(0.94981289,0,0,0.94981289,-73.034771,-1083.2115)"
       clip-path="url(#clipPath7)" />
    <text
       id="text7"
       xml:space="preserve"
       transform="matrix(0.94981289,0,0,0.94981289,12.893611,186.21348)"
       clip-path="url(#clipPath8)"><tspan
         id="tspan7"
         style="font-variant:normal;font-weight:normal;font-size:12px;font-family:Arial;writing-mode:lr-tb;fill:#000000;fill-opacity:1;fill-rule:nonzero;stroke:none"
         x="0"
         y="0">view-frame-info-compartment-bl?</tspan></text>
    <path
       id="path9"
       d="m 309,1321 h 184 v 20 H 309 Z"
       style="fill:#ffffff;fill-opacity:1;fill-rule:nonzero;stroke:none"
       transform="matrix(0.94981289,0,0,0.94981289,-73.034771,-1083.2115)"
       clip-path="url(#clipPath10)" />
    <text
       id="text10"
       xml:space="preserve"
       transform="matrix(0.94981289,0,0,0.94981289,223.11392,186.21348)"
       clip-path="url(#clipPath11)"><tspan
         id="tspan10"
         style="font-variant:normal;font-weight:normal;font-size:12px;font-family:Arial;writing-mode:lr-tb;fill:#000000;fill-opacity:1;fill-rule:nonzero;stroke:none"
         x="0"
         y="0">view-frame-info-compartment-br?</tspan></text>
    <path
       id="path12"
       d="m 311,1142 h 182 v 20 H 311 Z"
       style="fill:#ffffff;fill-opacity:1;fill-rule:nonzero;stroke:none"
       transform="matrix(0.94981289,0,0,0.94981289,-73.034771,-1083.2115)"
       clip-path="url(#clipPath13)" />
    <text
       id="text13"
       xml:space="preserve"
       transform="matrix(0.94981289,0,0,0.94981289,225.6517,16.19697)"
       clip-path="url(#clipPath14)"><tspan
         id="tspan13"
         style="font-variant:normal;font-weight:normal;font-size:12px;font-family:Arial;writing-mode:lr-tb;fill:#000000;fill-opacity:1;fill-rule:nonzero;stroke:none"
         x="0"
         y="0">view-frame-info-compartment-tr?</tspan></text>
    <path
       id="path15"
       d="M 85.040001,1154 H 269 v 14.96 c 0,2.78 -2.26001,5.04 -5.04001,5.04 H 80 v -14.96 c 0,-2.78 2.260002,-5.04 5.040001,-5.04 z"
       style="fill:url(#linearGradient16);fill-opacity:1;fill-rule:nonzero;stroke:#000000;stroke-width:1;stroke-linecap:butt;stroke-linejoin:miter;stroke-miterlimit:10;stroke-dasharray:none;stroke-opacity:1"
       transform="matrix(0.94981289,0,0,0.94981289,-73.034771,-1083.2115)"
       clip-path="url(#clipPath16)" />
    <text
       id="text16"
       xml:space="preserve"
       transform="matrix(0.94981289,0,0,0.94981289,4.3749767,25.695099)"
       clip-path="url(#clipPath17)"><tspan
         id="tspan16"
         style="font-variant:normal;font-weight:normal;font-size:12px;font-family:Arial;writing-mode:lr-tb;fill:#000000;fill-opacity:1;fill-rule:nonzero;stroke:none"
         x="0"
         y="0">view-frame-name-compartment</tspan></text>
  </g>
</svg>
