<?xml version="1.0" encoding="UTF-8" standalone="no"?>
<!-- Created with Inkscape (http://www.inkscape.org/) -->

<svg
   version="1.1"
   id="svg1"
   width="256"
   height="104"
   viewBox="0 0 256 104"
   xmlns="http://www.w3.org/2000/svg"
   xmlns:svg="http://www.w3.org/2000/svg">
  <defs
     id="defs1">
    <clipPath
       clipPathUnits="userSpaceOnUse"
       id="clipPath2">
      <path
         d="M 0,0 H 800.97656 V 326 H 0 Z"
         transform="scale(0.31999999)"
         clip-rule="evenodd"
         id="path2" />
    </clipPath>
    <clipPath
       clipPathUnits="userSpaceOnUse"
       id="clipPath4">
      <path
         d="m 3.125,0 h 793.75 V 326 H 3.125 Z"
         transform="matrix(0.33830202,0,0,0.33830202,75.164897,1768.9729)"
         clip-rule="evenodd"
         id="path4" />
    </clipPath>
    <clipPath
       clipPathUnits="userSpaceOnUse"
       id="clipPath5">
      <path
         d="m 3.125,0 h 793.75 V 326 H 3.125 Z"
         transform="matrix(0.33830202,0,0,0.33830202,-41.631981,-44.52715)"
         clip-rule="evenodd"
         id="path5" />
    </clipPath>
    <clipPath
       clipPathUnits="userSpaceOnUse"
       id="clipPath6">
      <path
         d="m 3.125,0 h 793.75 V 326 H 3.125 Z"
         transform="matrix(0.33830202,0,0,0.33830202,-83.319481,-73.52715)"
         clip-rule="evenodd"
         id="path6" />
    </clipPath>
  </defs>
  <g
     id="g1">
    <path
       id="path1"
       d="M 0,0 H 256 V 105 H 0 Z"
       style="fill:#ffffff;fill-opacity:1;fill-rule:nonzero;stroke:none"
       clip-path="url(#clipPath2)" />
    <path
       id="path3"
       d="m 102.86,1771.03 h 215.28001 c 0.80503,2e-4 1.60813,0.04 2.40928,0.1184 0.80114,0.079 1.59649,0.1969 2.38601,0.3538 0.78958,0.1571 1.56952,0.3525 2.33988,0.5861 0.77035,0.2337 1.5274,0.5046 2.27115,0.8126 0.74377,0.3082 1.47064,0.652 2.1806,1.0315 0.70996,0.3794 1.39963,0.7927 2.06897,1.2398 0.66934,0.4474 1.31518,0.9266 1.93747,1.4372 0.62228,0.5106 1.21805,1.0505 1.78729,1.6197 0.56924,0.5692 1.10922,1.1651 1.61993,1.7874 0.51069,0.6222 0.98966,1.268 1.43689,1.9374 0.44727,0.6694 0.86063,1.3591 1.24012,2.069 0.37948,0.71 0.72323,1.4368 1.03131,2.1805 0.30807,0.7439 0.57898,1.5009 0.81268,2.2713 0.23367,0.7703 0.42902,1.5502 0.58606,2.3398 0.15707,0.7896 0.27509,1.585 0.354,2.3862 0.0789,0.8011 0.11835,1.6042 0.11835,2.4093 v 57.7101 c 0,0.805 -0.0395,1.608 -0.11835,2.4091 -0.0789,0.8012 -0.19693,1.5965 -0.354,2.3859 -0.15704,0.7897 -0.35242,1.5697 -0.58609,2.34 -0.23367,0.7704 -0.50458,1.5273 -0.81265,2.271 -0.30808,0.7437 -0.65183,1.4707 -1.03131,2.1805 -0.37949,0.7101 -0.79285,1.3997 -1.24012,2.069 -0.44723,0.6694 -0.9262,1.3153 -1.43692,1.9376 -0.51071,0.6224 -1.05066,1.2181 -1.6199,1.7874 -0.56924,0.5692 -1.16501,1.1092 -1.78729,1.6198 -0.62229,0.5108 -1.26813,0.9898 -1.93747,1.4369 -0.66934,0.4474 -1.35901,0.8607 -2.06897,1.2401 -0.70996,0.3796 -1.43683,0.7234 -2.1806,1.0314 -0.74375,0.3082 -1.5008,0.5791 -2.27115,0.8129 -0.77036,0.2336 -1.5503,0.4289 -2.33988,0.5859 -0.78952,0.1572 -1.58487,0.2753 -2.38601,0.3541 -0.80115,0.079 -1.60425,0.1183 -2.40928,0.1183 H 102.86 c -0.80502,0 -1.60811,-0.039 -2.40926,-0.1183 -0.80115,-0.079 -1.596507,-0.1969 -2.386066,-0.3541 -0.789558,-0.157 -1.569511,-0.3523 -2.339874,-0.5859 -0.770363,-0.2338 -1.527412,-0.5047 -2.271164,-0.8129 -0.743744,-0.308 -1.470604,-0.6518 -2.180572,-1.0314 -0.709969,-0.3794 -1.399628,-0.7927 -2.068985,-1.2401 -0.66935,-0.4471 -1.315171,-0.9261 -1.937462,-1.4369 -0.622299,-0.5106 -1.218071,-1.0506 -1.787308,-1.6198 -0.569237,-0.5693 -1.109207,-1.165 -1.619911,-1.7874 -0.510704,-0.6223 -0.989678,-1.2682 -1.436928,-1.9376 -0.44725,-0.6693 -0.860618,-1.3589 -1.240097,-2.0689 -0.379486,-0.7099 -0.723267,-1.4367 -1.031342,-2.1805 -0.308067,-0.7437 -0.578941,-1.5006 -0.812622,-2.271 -0.233688,-0.7704 -0.429061,-1.5503 -0.58612,-2.34 -0.157051,-0.7894 -0.275032,-1.5848 -0.353935,-2.386 -0.0789,-0.8011 -0.118355,-1.6041 -0.118355,-2.4091 V 1795.61 c 0,-0.8051 0.03945,-1.6082 0.118355,-2.4093 0.0789,-0.8012 0.196884,-1.5966 0.353935,-2.3861 0.157059,-0.7896 0.352432,-1.5695 0.58612,-2.3397 0.233681,-0.7704 0.504555,-1.5276 0.812622,-2.2715 0.308075,-0.7437 0.651856,-1.4705 1.031342,-2.1805 0.379479,-0.7098 0.792847,-1.3995 1.240097,-2.0688 0.44725,-0.6693 0.926224,-1.3152 1.436928,-1.9374 0.510704,-0.6224 1.050674,-1.2182 1.619911,-1.7875 0.569237,-0.5692 1.165009,-1.1091 1.787308,-1.6197 0.622291,-0.5107 1.26812,-0.9897 1.937469,-1.4371 0.66935,-0.4472 1.359017,-0.8605 2.068985,-1.24 0.709969,-0.3794 1.436821,-0.7232 2.180565,-1.0314 0.743752,-0.308 1.500801,-0.5789 2.271164,-0.8125 0.770363,-0.2336 1.550316,-0.4291 2.339867,-0.5862 0.789558,-0.157 1.584915,-0.2749 2.386063,-0.3539 0.80115,-0.079 1.60425,-0.1182 2.40927,-0.1184 z"
       style="fill:#ffffff;fill-opacity:1;fill-rule:nonzero;stroke:#000000;stroke-width:1;stroke-linecap:butt;stroke-linejoin:miter;stroke-miterlimit:10;stroke-dasharray:none;stroke-opacity:1"
       transform="matrix(0.94590031,0,0,0.94590031,-71.098499,-1673.272)"
       clip-path="url(#clipPath4)" />
    <text
       id="text4"
       xml:space="preserve"
       transform="matrix(0.94590031,0,0,0.94590031,39.379704,42.118245)"
       clip-path="url(#clipPath5)"><tspan
         id="tspan4"
         style="font-variant:normal;font-weight:normal;font-size:12px;font-family:Arial;writing-mode:lr-tb;fill:#000000;fill-opacity:1;fill-rule:nonzero;stroke:none"
         x="0"
         y="0">frame-concern-name-compartment</tspan></text>
    <text
       id="text5"
       xml:space="preserve"
       transform="matrix(0.94590031,0,0,0.94590031,78.811923,69.549354)"
       clip-path="url(#clipPath6)"><tspan
         id="tspan5"
         style="font-variant:normal;font-weight:normal;font-size:12px;font-family:Arial;writing-mode:lr-tb;fill:#000000;fill-opacity:1;fill-rule:nonzero;stroke:none"
         x="0"
         y="0">compartment-stack</tspan></text>
  </g>
</svg>
