<?xml version="1.0" encoding="UTF-8" standalone="no"?>
<!-- Created with Inkscape (http://www.inkscape.org/) -->

<svg
   version="1.1"
   id="svg1"
   width="286.72"
   height="236.16"
   viewBox="0 0 286.72 236.16"
   xmlns="http://www.w3.org/2000/svg"
   xmlns:svg="http://www.w3.org/2000/svg">
  <defs
     id="defs1">
    <clipPath
       clipPathUnits="userSpaceOnUse"
       id="clipPath2">
      <path
         d="M 0,0 H 893.99414 V 737.98828 H 0 Z"
         transform="scale(0.31999999)"
         clip-rule="evenodd"
         id="path2" />
    </clipPath>
    <clipPath
       clipPathUnits="userSpaceOnUse"
       id="clipPath4">
      <path
         d="m 3.125,0 h 887.5 V 737.5 H 3.125 Z"
         transform="matrix(0.33728135,0,0,0.33728135,341.95742,3528.4461)"
         clip-rule="evenodd"
         id="path4" />
    </clipPath>
    <clipPath
       clipPathUnits="userSpaceOnUse"
       id="clipPath6">
      <path
         d="m 3.125,0 h 887.5 V 737.5 H 3.125 Z"
         transform="matrix(0.33728135,0,0,0.33728135,342.45746,3528.9461)"
         clip-rule="evenodd"
         id="path6" />
    </clipPath>
    <clipPath
       clipPathUnits="userSpaceOnUse"
       id="clipPath7">
      <path
         d="m 3.125,0 h 887.5 V 737.5 H 3.125 Z"
         transform="matrix(0.33728135,0,0,0.33728135,-5.8550451,-126.05394)"
         clip-rule="evenodd"
         id="path7" />
    </clipPath>
    <clipPath
       clipPathUnits="userSpaceOnUse"
       id="clipPath9">
      <path
         d="m 3.125,0 h 887.5 V 737.5 H 3.125 Z"
         transform="matrix(0.33728135,0,0,0.33728135,342.45746,3528.9461)"
         clip-rule="evenodd"
         id="path9" />
    </clipPath>
    <clipPath
       clipPathUnits="userSpaceOnUse"
       id="clipPath10">
      <path
         d="m 3.125,0 h 887.5 V 737.5 H 3.125 Z"
         transform="matrix(0.33728135,0,0,0.33728135,-248.1988,-125.05394)"
         clip-rule="evenodd"
         id="path10" />
    </clipPath>
    <clipPath
       clipPathUnits="userSpaceOnUse"
       id="clipPath12">
      <path
         d="m 3.125,0 h 887.5 V 737.5 H 3.125 Z"
         transform="matrix(0.33728135,0,0,0.33728135,342.45746,3528.9461)"
         clip-rule="evenodd"
         id="path12" />
    </clipPath>
    <clipPath
       clipPathUnits="userSpaceOnUse"
       id="clipPath13">
      <path
         d="m 3.125,0 h 887.5 V 737.5 H 3.125 Z"
         transform="matrix(0.33728135,0,0,0.33728135,-116.52693,-237.05395)"
         clip-rule="evenodd"
         id="path13" />
    </clipPath>
    <clipPath
       clipPathUnits="userSpaceOnUse"
       id="clipPath15">
      <path
         d="m 3.125,0 h 887.5 V 737.5 H 3.125 Z"
         transform="matrix(0.33728135,0,0,0.33728135,342.45746,3528.9461)"
         clip-rule="evenodd"
         id="path15" />
    </clipPath>
    <clipPath
       clipPathUnits="userSpaceOnUse"
       id="clipPath16">
      <path
         d="m 3.125,0 h 887.5 V 737.5 H 3.125 Z"
         transform="matrix(0.33728135,0,0,0.33728135,-123.19879,-17.053942)"
         clip-rule="evenodd"
         id="path16" />
    </clipPath>
    <clipPath
       clipPathUnits="userSpaceOnUse"
       id="clipPath18">
      <path
         d="m 3.125,0 h 887.5 V 737.5 H 3.125 Z"
         transform="matrix(0.33728135,0,0,0.33728135,342.45746,3528.9461)"
         clip-rule="evenodd"
         id="path18" />
    </clipPath>
    <clipPath
       clipPathUnits="userSpaceOnUse"
       id="clipPath19">
      <path
         d="m 3.125,0 h 887.5 V 737.5 H 3.125 Z"
         transform="matrix(0.33728135,0,0,0.33728135,-65.995675,-42.053941)"
         clip-rule="evenodd"
         id="path19" />
    </clipPath>
    <clipPath
       clipPathUnits="userSpaceOnUse"
       id="clipPath21">
      <path
         d="m 3.125,0 h 887.5 V 737.5 H 3.125 Z"
         transform="matrix(0.33728135,0,0,0.33728135,342.45746,3528.9461)"
         clip-rule="evenodd"
         id="path21" />
    </clipPath>
    <clipPath
       clipPathUnits="userSpaceOnUse"
       id="clipPath22">
      <path
         d="m 3.125,0 h 887.5 V 737.5 H 3.125 Z"
         transform="matrix(0.33728135,0,0,0.33728135,-121.02692,-79.053941)"
         clip-rule="evenodd"
         id="path22" />
    </clipPath>
    <clipPath
       clipPathUnits="userSpaceOnUse"
       id="clipPath24">
      <path
         d="m 3.125,0 h 887.5 V 737.5 H 3.125 Z"
         transform="matrix(0.33728135,0,0,0.33728135,342.45746,3528.9461)"
         clip-rule="evenodd"
         id="path24" />
    </clipPath>
    <clipPath
       clipPathUnits="userSpaceOnUse"
       id="clipPath25">
      <path
         d="m 3.125,0 h 887.5 V 737.5 H 3.125 Z"
         transform="matrix(0.33728135,0,0,0.33728135,-93.526925,-209.05394)"
         clip-rule="evenodd"
         id="path25" />
    </clipPath>
    <clipPath
       clipPathUnits="userSpaceOnUse"
       id="clipPath26">
      <path
         d="m 3.125,0 h 887.5 V 737.5 H 3.125 Z"
         transform="matrix(0.33728135,0,0,0.33728135,-118.68318,-169.05394)"
         clip-rule="evenodd"
         id="path26" />
    </clipPath>
    <clipPath
       clipPathUnits="userSpaceOnUse"
       id="clipPath28">
      <path
         d="m 3.125,0 h 887.5 V 737.5 H 3.125 Z"
         transform="matrix(0.33728135,0,0,0.33728135,342.45746,3528.9461)"
         clip-rule="evenodd"
         id="path28" />
    </clipPath>
    <clipPath
       clipPathUnits="userSpaceOnUse"
       id="clipPath29">
      <path
         d="m 3.125,0 h 887.5 V 737.5 H 3.125 Z"
         transform="matrix(0.33728135,0,0,0.33728135,-126.35504,-121.05394)"
         clip-rule="evenodd"
         id="path29" />
    </clipPath>
  </defs>
  <g
     id="g1">
    <path
       id="path1"
       d="M 0,0 H 286 V 236 H 0 Z"
       style="fill:#ffffff;fill-opacity:1;fill-rule:nonzero;stroke:none"
       clip-path="url(#clipPath2)" />
    <path
       id="path3"
       d="m 431.03,3543.03 h 121.82999 c 1.63427,0 3.26458,0.08 4.89099,0.2405 1.6264,0.1602 3.24102,0.3997 4.84393,0.7183 1.6029,0.3191 3.18634,0.7155 4.75024,1.1899 1.56397,0.4744 3.10089,1.0244 4.61072,1.6497 1.50989,0.6255 2.98548,1.3235 4.42682,2.0937 1.44135,0.7703 2.84143,1.6094 4.20026,2.5171 1.35888,0.9085 2.66998,1.8809 3.93329,2.9175 1.2633,1.0369 2.47277,2.1328 3.62835,3.2883 1.15558,1.1555 2.25183,2.3653 3.28864,3.6287 1.0368,1.2634 2.00915,2.5744 2.91705,3.9331 0.90802,1.3589 1.74719,2.759 2.51758,4.2002 0.77038,1.4414 1.46826,2.917 2.09369,4.4267 0.62543,1.5101 1.17535,3.0469 1.64978,4.6106 0.47442,1.5642 0.87103,3.1477 1.18988,4.7505 0.31885,1.6031 0.55835,3.2178 0.71857,4.844 0.16021,1.6267 0.24029,3.2571 0.24023,4.8911 v 117.1702 c 6e-5,1.6343 -0.08,3.2646 -0.24023,4.8909 -0.16022,1.6262 -0.39972,3.2407 -0.71857,4.8435 -0.31885,1.6028 -0.71546,3.1863 -1.18982,4.7505 -0.47443,1.5639 -1.02441,3.1008 -1.64984,4.6106 -0.62543,1.51 -1.32331,2.9856 -2.09375,4.427 -0.77033,1.4411 -1.6095,2.841 -2.51752,4.1997 -0.9079,1.3591 -1.88025,2.6704 -2.91705,3.9338 -1.03681,1.2632 -2.13306,2.4727 -3.28864,3.6282 -1.15558,1.1557 -2.36505,2.2519 -3.62835,3.2888 -1.26331,1.0369 -2.57441,2.009 -3.93329,2.9165 -1.35883,0.9082 -2.75891,1.7476 -4.20026,2.5181 -1.44134,0.7705 -2.91693,1.4685 -4.42682,2.0937 -1.50983,0.6257 -3.04675,1.1758 -4.61072,1.6502 -1.5639,0.4743 -3.14727,0.8708 -4.75018,1.1894 -1.6029,0.3191 -3.21759,0.5586 -4.84399,0.719 -1.62641,0.1599 -3.25672,0.24 -4.89099,0.24 H 431.03 c -1.63428,0 -3.26462,-0.08 -4.89105,-0.24 -1.62641,-0.1604 -3.24106,-0.3999 -4.844,-0.719 -1.60287,-0.3186 -3.18625,-0.7151 -4.75015,-1.1894 -1.56393,-0.4744 -3.10083,-1.0245 -4.61075,-1.6502 -1.50986,-0.6252 -2.98547,-1.3232 -4.42679,-2.0935 -1.44131,-0.7707 -2.8414,-1.6101 -4.20028,-2.5183 -1.35886,-0.9075 -2.66993,-1.8796 -3.93323,-2.9165 -1.26334,-1.0369 -2.47281,-2.1331 -3.62842,-3.2888 -1.15561,-1.1555 -2.2518,-2.365 -3.28857,-3.6284 -1.03681,-1.2635 -2.00919,-2.5745 -2.91715,-3.9336 -0.90793,-1.3587 -1.7471,-2.7588 -2.51752,-4.2 -0.77038,-1.4411 -1.46829,-2.9167 -2.09371,-4.4267 -0.6254,-1.5098 -1.17533,-3.0467 -1.64972,-4.6106 -0.4744,-1.5642 -0.87104,-3.1477 -1.18985,-4.7505 -0.31882,-1.6028 -0.55835,-3.2173 -0.71854,-4.8435 -0.16019,-1.6263 -0.24027,-3.2566 -0.24027,-4.8909 v -117.1702 c 0,-1.634 0.0801,-3.2644 0.2403,-4.8911 0.16019,-1.6262 0.39969,-3.2409 0.71851,-4.844 0.31881,-1.6028 0.71545,-3.1863 1.18985,-4.7502 0.47439,-1.564 1.02432,-3.1008 1.64972,-4.6109 0.62542,-1.5097 1.32333,-2.9853 2.09371,-4.4267 0.77042,-1.4412 1.60959,-2.8413 2.51752,-4.2002 0.90796,-1.3587 1.88034,-2.6697 2.91715,-3.9331 1.03677,-1.2634 2.13296,-2.4729 3.28857,-3.6284 1.15561,-1.1556 2.36508,-2.2515 3.62842,-3.2884 1.2633,-1.0368 2.57437,-2.0092 3.93323,-2.9174 1.35888,-0.9078 2.75897,-1.7469 4.20028,-2.5174 1.44132,-0.7702 2.91693,-1.4682 4.42679,-2.0937 1.50992,-0.6253 3.04682,-1.1751 4.61075,-1.6494 1.5639,-0.4744 3.14728,-0.8709 4.75015,-1.19 1.60294,-0.3188 3.21759,-0.5583 4.844,-0.7182 1.62643,-0.1604 3.25677,-0.2408 4.89105,-0.2408 z"
       style="fill:#ffffff;fill-opacity:1;fill-rule:nonzero;stroke:#000000;stroke-width:1;stroke-linecap:butt;stroke-linejoin:miter;stroke-miterlimit:10;stroke-dasharray:none;stroke-opacity:1"
       transform="matrix(0.94876278,0,0,0.94876278,-324.43647,-3347.6583)"
       clip-path="url(#clipPath4)" />
    <path
       id="path5"
       d="m 348,3644 h 46 v 15 h -46 z"
       style="fill:#ffffff;fill-opacity:1;fill-rule:nonzero;stroke:none"
       transform="matrix(0.94876278,0,0,0.94876278,-324.91089,-3348.1327)"
       clip-path="url(#clipPath6)" />
    <text
       id="text6"
       xml:space="preserve"
       transform="matrix(0.94876278,0,0,0.94876278,5.5550489,119.59529)"
       clip-path="url(#clipPath7)"><tspan
         id="tspan6"
         style="font-variant:normal;font-weight:normal;font-size:12px;font-family:Arial;writing-mode:lr-tb;fill:#000000;fill-opacity:1;fill-rule:nonzero;stroke:none"
         x="0"
         y="0">param-l*</tspan></text>
    <path
       id="path8"
       d="m 591,3643 h 46 v 15 h -46 z"
       style="fill:#ffffff;fill-opacity:1;fill-rule:nonzero;stroke:none"
       transform="matrix(0.94876278,0,0,0.94876278,-324.91089,-3348.1327)"
       clip-path="url(#clipPath9)" />
    <text
       id="text9"
       xml:space="preserve"
       transform="matrix(0.94876278,0,0,0.94876278,235.48178,118.64652)"
       clip-path="url(#clipPath10)"><tspan
         id="tspan9"
         style="font-variant:normal;font-weight:normal;font-size:12px;font-family:Arial;writing-mode:lr-tb;fill:#000000;fill-opacity:1;fill-rule:nonzero;stroke:none"
         x="0"
         y="0">param-r*</tspan></text>
    <path
       id="path11"
       d="m 459,3755 h 56 v 15 h -56 z"
       style="fill:#ffffff;fill-opacity:1;fill-rule:nonzero;stroke:none"
       transform="matrix(0.94876278,0,0,0.94876278,-324.91089,-3348.1327)"
       clip-path="url(#clipPath12)" />
    <g
       id="g12" />
    <g
       id="g13" />
    <text
       id="text13"
       xml:space="preserve"
       transform="matrix(0.94876278,0,0,0.94876278,110.55641,224.90796)"
       clip-path="url(#clipPath13)"><tspan
         id="tspan13"
         style="font-variant:normal;font-weight:normal;font-size:12px;font-family:Arial;writing-mode:lr-tb;fill:#000000;fill-opacity:1;fill-rule:nonzero;stroke:none"
         x="0"
         y="0"> param-b* </tspan></text>
    <path
       id="path14"
       d="m 466,3535 h 52 v 15 h -52 z"
       style="fill:#ffffff;fill-opacity:1;fill-rule:nonzero;stroke:none"
       transform="matrix(0.94876278,0,0,0.94876278,-324.91089,-3348.1327)"
       clip-path="url(#clipPath15)" />
    <g
       id="g15" />
    <g
       id="g16" />
    <text
       id="text16"
       xml:space="preserve"
       transform="matrix(0.94876278,0,0,0.94876278,116.88643,16.180145)"
       clip-path="url(#clipPath16)"><tspan
         id="tspan16"
         style="font-variant:normal;font-weight:normal;font-size:12px;font-family:Arial;writing-mode:lr-tb;fill:#000000;fill-opacity:1;fill-rule:nonzero;stroke:none"
         x="0"
         y="0"> param-t* </tspan></text>
    <path
       id="path17"
       d="m 408,3560 h 173 v 14 H 408 Z"
       style="fill:#fbfbfb;fill-opacity:1;fill-rule:nonzero;stroke:none"
       transform="matrix(0.94876278,0,0,0.94876278,-324.91089,-3348.1327)"
       clip-path="url(#clipPath18)" />
    <text
       id="text18"
       xml:space="preserve"
       transform="matrix(0.94876278,0,0,0.94876278,62.61424,39.899214)"
       clip-path="url(#clipPath19)"><tspan
         id="tspan18"
         style="font-variant:normal;font-weight:normal;font-size:12px;font-family:Arial;writing-mode:lr-tb;fill:#000000;fill-opacity:1;fill-rule:nonzero;stroke:none"
         x="0"
         y="0">ifelse-action-name-compartment</tspan></text>
    <path
       id="path20"
       d="m 463,3597 h 59 v 14 h -59 z"
       style="fill:#fbfbfb;fill-opacity:1;fill-rule:nonzero;stroke:none"
       transform="matrix(0.94876278,0,0,0.94876278,-324.91089,-3348.1327)"
       clip-path="url(#clipPath21)" />
    <text
       id="text21"
       xml:space="preserve"
       transform="matrix(0.94876278,0,0,0.94876278,114.82584,75.003437)"
       clip-path="url(#clipPath22)"><tspan
         id="tspan21"
         style="font-variant:normal;font-weight:normal;font-size:12px;font-family:Arial;writing-mode:lr-tb;fill:#000000;fill-opacity:1;fill-rule:nonzero;stroke:none"
         x="0"
         y="0">if-condition</tspan></text>
    <path
       id="path23"
       d="m 436,3727 h 102 v 14 H 436 Z"
       style="fill:#fbfbfb;fill-opacity:1;fill-rule:nonzero;stroke:none"
       transform="matrix(0.94876278,0,0,0.94876278,-324.91089,-3348.1327)"
       clip-path="url(#clipPath24)" />
    <text
       id="text24"
       xml:space="preserve"
       transform="matrix(0.94876278,0,0,0.94876278,88.734865,198.3426)"
       clip-path="url(#clipPath25)"><tspan
         id="tspan24"
         style="font-variant:normal;font-weight:normal;font-size:12px;font-family:Arial;writing-mode:lr-tb;fill:#000000;fill-opacity:1;fill-rule:nonzero;stroke:none"
         x="0"
         y="0">compartment-stack</tspan></text>
    <text
       id="text25"
       xml:space="preserve"
       transform="matrix(0.94876278,0,0,0.94876278,112.60218,160.39209)"
       clip-path="url(#clipPath26)"><tspan
         id="tspan25"
         style="font-variant:normal;font-weight:normal;font-size:12px;font-family:Arial;writing-mode:lr-tb;fill:#000000;fill-opacity:1;fill-rule:nonzero;stroke:none"
         x="0"
         y="0">else-body?</tspan></text>
    <path
       id="path27"
       d="m 469,3639 h 53 v 14 h -53 z"
       style="fill:#fbfbfb;fill-opacity:1;fill-rule:nonzero;stroke:none"
       transform="matrix(0.94876278,0,0,0.94876278,-324.91089,-3348.1327)"
       clip-path="url(#clipPath28)" />
    <text
       id="text28"
       xml:space="preserve"
       transform="matrix(0.94876278,0,0,0.94876278,119.88096,114.85147)"
       clip-path="url(#clipPath29)"><tspan
         id="tspan28"
         style="font-variant:normal;font-weight:normal;font-size:12px;font-family:Arial;writing-mode:lr-tb;fill:#000000;fill-opacity:1;fill-rule:nonzero;stroke:none"
         x="0"
         y="0">then-body</tspan></text>
  </g>
</svg>
