<?xml version="1.0" encoding="UTF-8" standalone="no"?>
<!-- Created with Inkscape (http://www.inkscape.org/) -->

<svg
   version="1.1"
   id="svg1"
   width="424"
   height="33.279999"
   viewBox="0 0 424 33.279999"
   xmlns="http://www.w3.org/2000/svg"
   xmlns:svg="http://www.w3.org/2000/svg">
  <defs
     id="defs1">
    <clipPath
       clipPathUnits="userSpaceOnUse"
       id="clipPath2">
      <path
         d="M 0,0 H 1325.9766 V 104.98047 H 0 Z"
         transform="scale(0.31999999)"
         clip-rule="evenodd"
         id="path2" />
    </clipPath>
    <clipPath
       clipPathUnits="userSpaceOnUse"
       id="clipPath4">
      <path
         d="m 6.25,0 h 1312.5 V 104.98047 H 6.25 Z"
         transform="matrix(0.3383155,0,0,0.3383155,76.23162,350.50002)"
         clip-rule="evenodd"
         id="path4" />
    </clipPath>
    <clipPath
       clipPathUnits="userSpaceOnUse"
       id="clipPath6">
      <path
         d="m 6.25,0 h 1312.5 V 104.98047 H 6.25 Z"
         transform="matrix(0.3383155,0,0,0.3383155,76.23162,350.50002)"
         clip-rule="evenodd"
         id="path6" />
    </clipPath>
    <clipPath
       clipPathUnits="userSpaceOnUse"
       id="clipPath7">
      <path
         d="m 6.25,0 h 1312.5 V 104.98047 H 6.25 Z"
         transform="matrix(0.3383155,0,0,0.3383155,-140.64337,-11.999979)"
         clip-rule="evenodd"
         id="path7" />
    </clipPath>
    <clipPath
       clipPathUnits="userSpaceOnUse"
       id="clipPath8">
      <path
         d="M 6.25,23.646484 H 343.66846 V 104.98047 H 6.25 Z"
         transform="matrix(0.31999999,0,0,0.31999999,-7.8286721,-19.861568)"
         clip-rule="evenodd"
         id="path8" />
    </clipPath>
    <clipPath
       clipPathUnits="userSpaceOnUse"
       id="clipPath9">
      <path
         d="M 976.21411,23.646484 H 1316.1335 V 104.98047 H 976.21411 Z"
         transform="matrix(0.31999999,0,0,0.31999999,-319.23491,-19.861568)"
         clip-rule="evenodd"
         id="path9" />
    </clipPath>
  </defs>
  <g
     id="g1">
    <path
       id="path1"
       d="M 0,0 H 424 V 34 H 0 Z"
       style="fill:#ffffff;fill-opacity:1;fill-rule:nonzero;stroke:none"
       clip-path="url(#clipPath2)" />
    <path
       id="path3"
       d="m 190.75999,367.5 h 10 v 1 h -10 m 20,-1 h 10 v 1 h -10 m 20,-1 h 10 v 1 h -10 m 20,-1 h 10.00002 v 1 h -10.00002 m 20.00002,-1 h 10 v 1 h -10 m 20,-1 h 10 v 1 h -10 m 20,-1 h 10 v 1 h -10 m 20,-1 h 10 v 1 h -10 m 20,-1 h 10 v 1 h -10 m 20,-1 h 10 v 1 h -10 m 20,-1 h 10 v 1 h -10"
       style="fill:#000000;fill-opacity:1;fill-rule:nonzero;stroke:none"
       transform="matrix(0.94586262,0,0,0.94586262,-72.10464,-331.52487)"
       clip-path="url(#clipPath4)" />
    <path
       id="path5"
       d="m 399.13,372.5 9,-4.5 -9,-4.5"
       style="fill:none;stroke:#000000;stroke-width:1;stroke-linecap:butt;stroke-linejoin:miter;stroke-miterlimit:10;stroke-dasharray:none;stroke-opacity:1"
       transform="matrix(0.94586262,0,0,0.94586262,-72.10464,-331.52487)"
       clip-path="url(#clipPath6)" />
    <text
       id="text6"
       xml:space="preserve"
       transform="matrix(0.94586262,0,0,0.94586262,133.02931,11.350332)"
       clip-path="url(#clipPath7)"><tspan
         id="tspan6"
         style="font-variant:normal;font-weight:normal;font-size:12px;font-family:Arial;writing-mode:lr-tb;fill:#000000;fill-opacity:1;fill-rule:nonzero;stroke:none"
         x="0"
         dx="0 0 0 0 0 -0.21679699"
         y="0">'«' VisibilityIndicator? 'import' '»'</tspan></text>
    <text
       id="text7"
       xml:space="preserve"
       transform="translate(7.8286721,19.861568)"
       clip-path="url(#clipPath8)"><tspan
         id="tspan7"
         style="font-variant:normal;font-weight:normal;font-size:11.35px;font-family:Arial;writing-mode:lr-tb;fill:#000000;fill-opacity:1;fill-rule:nonzero;stroke:none"
         x="0"
         y="0">&amp;namespace-node</tspan></text>
    <text
       id="text8"
       xml:space="preserve"
       transform="translate(319.23491,19.861568)"
       clip-path="url(#clipPath9)"><tspan
         id="tspan8"
         style="font-variant:normal;font-weight:normal;font-size:11.35px;font-family:Arial;writing-mode:lr-tb;fill:#000000;fill-opacity:1;fill-rule:nonzero;stroke:none"
         x="0"
         y="0">&amp;namespace-node</tspan></text>
  </g>
</svg>
