<?xml version="1.0" encoding="UTF-8" standalone="no"?>
<!-- Created with Inkscape (http://www.inkscape.org/) -->

<svg
   version="1.1"
   id="svg1"
   width="193.27998"
   height="124.15999"
   viewBox="0 0 193.27998 124.15999"
   xmlns="http://www.w3.org/2000/svg"
   xmlns:svg="http://www.w3.org/2000/svg">
  <defs
     id="defs1">
    <clipPath
       clipPathUnits="userSpaceOnUse"
       id="clipPath2">
      <path
         d="M 0,0 H 605 V 387.01172 H 0 Z"
         transform="scale(0.31999999)"
         clip-rule="evenodd"
         id="path2" />
    </clipPath>
    <clipPath
       clipPathUnits="userSpaceOnUse"
       id="clipPath4">
      <path
         d="m 3.125,0 h 600 v 387.01172 h -600 z"
         transform="matrix(0.34089459,0,0,0.34089459,476.86639,179.93469)"
         clip-rule="evenodd"
         id="path4" />
    </clipPath>
    <clipPath
       clipPathUnits="userSpaceOnUse"
       id="clipPath5">
      <path
         d="m 3.125,0 h 600 v 387.01172 h -600 z"
         transform="matrix(0.34089459,0,0,0.34089459,-69.102386,-65.565308)"
         clip-rule="evenodd"
         id="path5" />
    </clipPath>
    <clipPath
       clipPathUnits="userSpaceOnUse"
       id="clipPath6">
      <path
         d="m 3.125,0 h 600 v 387.01172 h -600 z"
         transform="matrix(0.34089459,0,0,0.34089459,-37.102385,-94.565308)"
         clip-rule="evenodd"
         id="path6" />
    </clipPath>
    <clipPath
       clipPathUnits="userSpaceOnUse"
       id="clipPath8">
      <path
         d="m 3.125,0 h 600 v 387.01172 h -600 z"
         transform="matrix(0.34089459,0,0,-0.34089459,476.86639,204.0653)"
         clip-rule="evenodd"
         id="path8" />
    </clipPath>
    <clipPath
       clipPathUnits="userSpaceOnUse"
       id="clipPath9">
      <path
         d="m 3.125,0 h 600 v 387.01172 h -600 z"
         transform="matrix(0.34089459,0,0,0.34089459,-4.6336351,-15.565307)"
         clip-rule="evenodd"
         id="path9" />
    </clipPath>
  </defs>
  <g
     id="g1">
    <path
       id="path1"
       d="M 0,0 H 194 V 124 H 0 Z"
       style="fill:#ffffff;fill-opacity:1;fill-rule:nonzero;stroke:none"
       clip-path="url(#clipPath2)" />
    <path
       id="path3"
       d="m 500,201.5 h 10 v 1 h -10 z m 20,0 h 10 v 1 h -10 z m 20,0 h 10 v 1 h -10 z m 20,0 h 10 v 1 h -10 z m 20,0 h 10 v 1 h -10 z m 20,0 h 10 v 1 h -10 z m 20,0 h 10 v 1 h -10 z m 20,0 h 10 v 1 h -10 z m 20,0 h 10 v 1 h -10 z m 20.5,0.5 v 10 h -1 v -10 z m 0,20 v 10 h -1 v -10 z m 0,20 v 10 h -1 v -10 z m 0,20 v 10 h -1 v -10 z m 0,20 v 10 h -1 v -10 z m 0,20 v 7.5 H 677 v -1 h 3 v 0.5 h -0.5 v -7 z m -13.5,7.5 h -10 v -1 h 10 z m -20,0 h -10 v -1 h 10 z m -20,0 h -10 v -1 h 10 z m -20,0 h -10 v -1 h 10 z m -20,0 h -10 v -1 h 10 z m -20,0 h -10 v -1 h 10 z m -20,0 h -10 v -1 h 10 z m -20,0 h -10 v -1 h 10 z m -20,0 h -10 v -1 h 10 z m -20,0 h -7.5 V 306 h 1 v 3 H 480 v -0.5 h 7 z M 479.5,296 v -10 h 1 v 10 z m 0,-20 v -10 h 1 v 10 z m 0,-20 v -10 h 1 v 10 z m 0,-20 v -10 h 1 v 10 z m 0,-20 v -10 h 1 v 10 z m 0.5,-14.5 h 10 v 1 h -10 z"
       style="fill:#000000;fill-opacity:1;fill-rule:nonzero;stroke:none"
       transform="matrix(0.93870655,0,0,0.93870655,-447.6376,-168.90587)"
       clip-path="url(#clipPath4)" />
    <text
       id="text4"
       xml:space="preserve"
       transform="matrix(0.93870655,0,0,0.93870655,64.866862,61.546584)"
       clip-path="url(#clipPath5)"><tspan
         id="tspan4"
         style="font-variant:normal;font-weight:normal;font-size:12px;font-family:Arial;writing-mode:lr-tb;fill:#000000;fill-opacity:1;fill-rule:nonzero;stroke:none"
         x="0"
         y="0">general-view</tspan></text>
    <text
       id="text5"
       xml:space="preserve"
       transform="matrix(0.93870655,0,0,0.93870655,34.828252,88.769074)"
       clip-path="url(#clipPath6)"><tspan
         id="tspan5"
         style="font-variant:normal;font-weight:normal;font-size:12px;font-family:Arial;writing-mode:lr-tb;fill:#000000;fill-opacity:1;fill-rule:nonzero;stroke:none"
         x="0"
         y="0">(package-compartment)*</tspan></text>
    <path
       id="path7"
       d="m 500,181.5 h 10 v 1 h -10 z m 20,0 h 10 v 1 h -10 z m 20,0 h 10 v 1 h -10 z m 20,0 h 10 v 1 h -10 z m 10.5,10.5 v 10 h -1 V 192 Z M 560,202.5 h -10 v -1 h 10 z m -20,0 h -10 v -1 h 10 z m -20,0 h -10 v -1 h 10 z m -20,0 h -10 v -1 h 10 z M 479.5,202 v -10 h 1 v 10 z m 0.5,-20.5 h 10 v 1 h -10 z"
       style="fill:#000000;fill-opacity:1;fill-rule:nonzero;stroke:none"
       transform="matrix(0.93870655,0,0,-0.93870655,-447.6376,191.55743)"
       clip-path="url(#clipPath8)" />
    <g
       id="g8" />
    <text
       id="text8"
       xml:space="preserve"
       transform="matrix(0.93870655,0,0,0.93870655,4.3496236,14.611256)"
       clip-path="url(#clipPath9)"><tspan
         id="tspan8"
         style="font-variant:normal;font-weight:normal;font-size:12px;font-family:Arial;writing-mode:lr-tb;fill:#000000;fill-opacity:1;fill-rule:nonzero;stroke:none"
         x="0"
         y="0"> Identification</tspan></text>
  </g>
</svg>
