<?xml version="1.0" encoding="UTF-8" standalone="no"?>
<!-- Created with Inkscape (http://www.inkscape.org/) -->

<svg
   version="1.1"
   id="svg1"
   width="262.72"
   height="97.279999"
   viewBox="0 0 262.72 97.279999"
   xmlns="http://www.w3.org/2000/svg"
   xmlns:svg="http://www.w3.org/2000/svg">
  <defs
     id="defs1">
    <clipPath
       clipPathUnits="userSpaceOnUse"
       id="clipPath2">
      <path
         d="M 0,0 H 818.99414 V 302.97852 H 0 Z"
         transform="scale(0.31999999)"
         clip-rule="evenodd"
         id="path2" />
    </clipPath>
    <clipPath
       clipPathUnits="userSpaceOnUse"
       id="clipPath4">
      <path
         d="m 3.125,0 h 812.5 V 302.97852 H 3.125 Z"
         transform="matrix(0.33767383,0,0,0.33767383,76.374641,2638.4702)"
         clip-rule="evenodd"
         id="path4" />
    </clipPath>
    <clipPath
       clipPathUnits="userSpaceOnUse"
       id="clipPath5">
      <path
         d="m 3.125,0 h 812.5 V 302.97852 H 3.125 Z"
         transform="matrix(0.33767383,0,0,0.33767383,-48.250366,-40.030084)"
         clip-rule="evenodd"
         id="path5" />
    </clipPath>
    <clipPath
       clipPathUnits="userSpaceOnUse"
       id="clipPath6">
      <path
         d="m 3.125,0 h 812.5 V 302.97852 H 3.125 Z"
         transform="matrix(0.33767383,0,0,0.33767383,-96.609746,-69.030084)"
         clip-rule="evenodd"
         id="path6" />
    </clipPath>
  </defs>
  <g
     id="g1">
    <path
       id="path1"
       d="M 0,0 H 262 V 97 H 0 Z"
       style="fill:#ffffff;fill-opacity:1;fill-rule:nonzero;stroke:none"
       clip-path="url(#clipPath2)" />
    <path
       id="path3"
       d="m 130.58,2647.46 h 186.73 c 1.24167,0 2.47137,0.1211 3.68915,0.3632 1.21777,0.2422 2.40023,0.6009 3.54736,1.0757 1.14712,0.4754 2.23688,1.0579 3.26929,1.7476 1.03238,0.6897 1.98758,1.4736 2.86557,2.3518 0.87796,0.8779 1.66183,1.833 2.35165,2.8655 0.68985,1.0324 1.27234,2.122 1.7475,3.2693 0.47519,1.1472 0.83389,2.3295 1.07611,3.5476 0.24225,1.218 0.36337,2.4477 0.36337,3.6892 v 44.3901 c 0,1.2415 -0.12112,2.4712 -0.36337,3.689 -0.24222,1.2175 -0.60092,2.3999 -1.07611,3.5471 -0.47516,1.147 -1.05765,2.2368 -1.7475,3.2693 -0.68982,1.0325 -1.47369,1.9875 -2.35165,2.8657 -0.87799,0.8779 -1.83319,1.6619 -2.86557,2.3516 -1.03241,0.6897 -2.12217,1.2722 -3.26929,1.7475 -1.14713,0.4751 -2.32959,0.8338 -3.54736,1.0762 -1.21778,0.2422 -2.44748,0.3633 -3.68915,0.3635 H 130.58 c -1.24165,-2e-4 -2.47137,-0.1213 -3.68916,-0.3635 -1.2178,-0.2424 -2.40026,-0.6011 -3.54739,-1.0762 -1.14714,-0.4753 -2.23691,-1.0578 -3.26929,-1.7475 -1.03239,-0.6897 -1.98757,-1.4737 -2.86556,-2.3516 -0.87798,-0.8782 -1.66188,-1.8332 -2.3517,-2.8657 -0.68982,-1.0325 -1.27232,-2.1223 -1.74748,-3.2693 -0.47516,-1.1472 -0.83385,-2.3296 -1.07609,-3.5471 -0.24223,-1.2178 -0.36334,-2.4475 -0.36333,-3.689 v -44.3901 c -1e-5,-1.2415 0.12111,-2.4712 0.36334,-3.6892 0.24223,-1.2181 0.60092,-2.4004 1.07608,-3.5476 0.47516,-1.1473 1.05766,-2.2369 1.74748,-3.2693 0.68982,-1.0325 1.47372,-1.9876 2.3517,-2.8655 0.87799,-0.8782 1.83317,-1.6621 2.86556,-2.3521 1.03238,-0.6897 2.12215,-1.2719 3.26929,-1.7473 1.14713,-0.4748 2.32959,-0.8335 3.54739,-1.0757 1.21779,-0.2421 2.44751,-0.3632 3.68916,-0.3632 z"
       style="fill:#ffffff;fill-opacity:1;fill-rule:nonzero;stroke:#000000;stroke-width:1;stroke-linecap:butt;stroke-linejoin:miter;stroke-miterlimit:10;stroke-dasharray:none;stroke-opacity:1"
       transform="matrix(0.94766002,0,0,0.94766002,-72.377194,-2500.3727)"
       clip-path="url(#clipPath4)" />
    <text
       id="text4"
       xml:space="preserve"
       transform="matrix(0.94766002,0,0,0.94766002,45.724943,37.93491)"
       clip-path="url(#clipPath5)"><tspan
         id="tspan4"
         style="font-variant:normal;font-weight:normal;font-size:12px;font-family:Arial;writing-mode:lr-tb;fill:#000000;fill-opacity:1;fill-rule:nonzero;stroke:none"
         x="0"
         y="0">include-use-case-name-compartment</tspan></text>
    <text
       id="text5"
       xml:space="preserve"
       transform="matrix(0.94766002,0,0,0.94766002,91.553194,65.417051)"
       clip-path="url(#clipPath6)"><tspan
         id="tspan5"
         style="font-variant:normal;font-weight:normal;font-size:12px;font-family:Arial;writing-mode:lr-tb;fill:#000000;fill-opacity:1;fill-rule:nonzero;stroke:none"
         x="0"
         y="0">compartment-stack</tspan></text>
  </g>
</svg>
