<?xml version="1.0" encoding="UTF-8" standalone="no"?>
<!-- Created with Inkscape (http://www.inkscape.org/) -->

<svg
   version="1.1"
   id="svg1"
   width="520"
   height="94.720001"
   viewBox="0 0 520 94.720001"
   xmlns="http://www.w3.org/2000/svg"
   xmlns:svg="http://www.w3.org/2000/svg">
  <defs
     id="defs1">
    <clipPath
       clipPathUnits="userSpaceOnUse"
       id="clipPath2">
      <path
         d="M 0,0 H 1625.9766 V 297 H 0 Z"
         transform="scale(0.31999999)"
         clip-rule="evenodd"
         id="path2" />
    </clipPath>
    <clipPath
       clipPathUnits="userSpaceOnUse"
       id="clipPath3">
      <path
         d="m 3.125,0 h 1618.75 V 297 H 3.125 Z"
         transform="matrix(0.33548897,0,0,0.33548897,-440.9094,-47.000002)"
         clip-rule="evenodd"
         id="path3" />
    </clipPath>
    <clipPath
       clipPathUnits="userSpaceOnUse"
       id="clipPath4">
      <path
         d="m 3.125,0 h 1618.75 V 297 H 3.125 Z"
         transform="matrix(0.33548897,0,0,0.33548897,-33.909393,-48.000002)"
         clip-rule="evenodd"
         id="path4" />
    </clipPath>
    <clipPath
       clipPathUnits="userSpaceOnUse"
       id="clipPath6">
      <path
         d="m 3.125,0 h 1618.75 V 297 H 3.125 Z"
         transform="matrix(0.33548897,0,0,0.33548897,117.40311,316.50002)"
         clip-rule="evenodd"
         id="path6" />
    </clipPath>
    <clipPath
       clipPathUnits="userSpaceOnUse"
       id="clipPath8">
      <path
         d="m 3.125,0 h 1618.75 V 297 H 3.125 Z"
         transform="matrix(0.33548897,0,0,0.33548897,117.90311,317)"
         clip-rule="evenodd"
         id="path8" />
    </clipPath>
    <clipPath
       clipPathUnits="userSpaceOnUse"
       id="clipPath9">
      <path
         d="m 3.125,0 h 1618.75 V 297 H 3.125 Z"
         transform="matrix(0.33548897,0,0,0.33548897,-230.40939,-35.000002)"
         clip-rule="evenodd"
         id="path9" />
    </clipPath>
    <clipPath
       clipPathUnits="userSpaceOnUse"
       id="clipPath11">
      <path
         d="m 3.125,0 h 1618.75 V 297 H 3.125 Z"
         transform="matrix(0.33548897,0,0,0.33548897,117.90311,317)"
         clip-rule="evenodd"
         id="path11" />
    </clipPath>
    <clipPath
       clipPathUnits="userSpaceOnUse"
       id="clipPath12">
      <path
         d="m 3.125,0 h 1618.75 V 297 H 3.125 Z"
         transform="matrix(0.33548897,0,0,0.33548897,-241.0969,-18.000002)"
         clip-rule="evenodd"
         id="path12" />
    </clipPath>
    <clipPath
       clipPathUnits="userSpaceOnUse"
       id="clipPath13">
      <path
         d="m 3.125,0 h 1618.75 V 297 H 3.125 Z"
         transform="matrix(0.33548897,0,0,0.33548897,-100.08127,-37.000003)"
         clip-rule="evenodd"
         id="path13" />
    </clipPath>
    <clipPath
       clipPathUnits="userSpaceOnUse"
       id="clipPath14">
      <path
         d="m 3.125,0 h 1618.75 V 297 H 3.125 Z"
         transform="matrix(0.33548897,0,0,0.33548897,-101.42502,-57.000002)"
         clip-rule="evenodd"
         id="path14" />
    </clipPath>
    <clipPath
       clipPathUnits="userSpaceOnUse"
       id="clipPath15">
      <path
         d="m 3.125,0 h 1618.75 V 297 H 3.125 Z"
         transform="matrix(0.33548897,0,0,0.33548897,-377.08128,-37.000003)"
         clip-rule="evenodd"
         id="path15" />
    </clipPath>
    <clipPath
       clipPathUnits="userSpaceOnUse"
       id="clipPath16">
      <path
         d="m 3.125,0 h 1618.75 V 297 H 3.125 Z"
         transform="matrix(0.33548897,0,0,0.33548897,-374.42502,-57.000002)"
         clip-rule="evenodd"
         id="path16" />
    </clipPath>
    <clipPath
       clipPathUnits="userSpaceOnUse"
       id="clipPath18">
      <path
         d="m 3.125,0 h 1618.75 V 297 H 3.125 Z"
         transform="matrix(0.33548897,0,0,0.33548897,117.40311,316.50002)"
         clip-rule="evenodd"
         id="path18" />
    </clipPath>
    <clipPath
       clipPathUnits="userSpaceOnUse"
       id="clipPath19">
      <path
         d="m 3.125,0 h 1618.75 V 297 H 3.125 Z"
         transform="matrix(0.33548897,0,0,0.33548897,-309.73752,-49.000002)"
         clip-rule="evenodd"
         id="path19" />
    </clipPath>
  </defs>
  <g
     id="g1">
    <path
       id="path1"
       d="M 0,0 H 520 V 95 H 0 Z"
       style="fill:#ffffff;fill-opacity:1;fill-rule:nonzero;stroke:none"
       clip-path="url(#clipPath2)" />
    <text
       id="text2"
       xml:space="preserve"
       transform="matrix(0.95383161,0,0,0.95383161,420.55332,44.830088)"
       clip-path="url(#clipPath3)"><tspan
         id="tspan2"
         style="font-variant:normal;font-weight:normal;font-size:12px;font-family:Arial;writing-mode:lr-tb;fill:#000000;fill-opacity:1;fill-rule:nonzero;stroke:none"
         x="0"
         y="0">&amp;port-node</tspan></text>
    <text
       id="text3"
       xml:space="preserve"
       transform="matrix(0.95383161,0,0,0.95383161,32.343851,45.783919)"
       clip-path="url(#clipPath4)"><tspan
         id="tspan3"
         style="font-variant:normal;font-weight:normal;font-size:12px;font-family:Arial;writing-mode:lr-tb;fill:#000000;fill-opacity:1;fill-rule:nonzero;stroke:none"
         x="0"
         y="0">&amp;port-node</tspan></text>
    <path
       id="path5"
       d="M 230.77,361 H 538.46002"
       style="fill:none;stroke:#000000;stroke-width:1;stroke-linecap:butt;stroke-linejoin:miter;stroke-miterlimit:10;stroke-dasharray:none;stroke-opacity:1"
       transform="matrix(0.95383161,0,0,0.95383161,-111.9828,-301.88772)"
       clip-path="url(#clipPath6)" />
    <path
       id="path7"
       d="m 348,341 h 76 v 15 h -76 z"
       style="fill:#ffffff;fill-opacity:1;fill-rule:nonzero;stroke:none"
       transform="matrix(0.95383161,0,0,0.95383161,-112.45971,-302.36462)"
       clip-path="url(#clipPath8)" />
    <text
       id="text8"
       xml:space="preserve"
       transform="matrix(0.95383161,0,0,0.95383161,219.77176,33.384108)"
       clip-path="url(#clipPath9)"><tspan
         id="tspan8"
         style="font-variant:normal;font-weight:normal;font-size:12px;font-family:Arial;writing-mode:lr-tb;fill:#000000;fill-opacity:1;fill-rule:nonzero;stroke:none"
         x="0"
         y="0">interface-label</tspan></text>
    <path
       id="path10"
       d="m 359,326 h 59 v 11 h -59 z"
       style="fill:#f8f9fa;fill-opacity:1;fill-rule:nonzero;stroke:none"
       transform="matrix(0.95383161,0,0,0.95383161,-112.45971,-302.36462)"
       clip-path="url(#clipPath11)" />
    <text
       id="text11"
       xml:space="preserve"
       transform="matrix(0.95383161,0,0,0.95383161,229.96584,17.168971)"
       clip-path="url(#clipPath12)"><tspan
         id="tspan11"
         style="font-variant:normal;font-weight:normal;font-size:10px;font-family:Arial;writing-mode:lr-tb;fill:#000000;fill-opacity:1;fill-rule:nonzero;stroke:none"
         x="0"
         y="0">'«interface»'?</tspan></text>
    <text
       id="text12"
       xml:space="preserve"
       transform="matrix(0.95383161,0,0,0.95383161,95.460681,35.291772)"
       clip-path="url(#clipPath13)"><tspan
         id="tspan12"
         style="font-variant:normal;font-weight:normal;font-size:12px;font-family:Arial;writing-mode:lr-tb;fill:#000000;fill-opacity:1;fill-rule:nonzero;stroke:none"
         x="0"
         y="0">rolename</tspan></text>
    <text
       id="text13"
       xml:space="preserve"
       transform="matrix(0.95383161,0,0,0.95383161,96.742392,54.368404)"
       clip-path="url(#clipPath14)"><tspan
         id="tspan13"
         style="font-variant:normal;font-weight:normal;font-size:12px;font-family:Arial;writing-mode:lr-tb;fill:#000000;fill-opacity:1;fill-rule:nonzero;stroke:none"
         x="0"
         y="0">multiplicity</tspan></text>
    <text
       id="text14"
       xml:space="preserve"
       transform="matrix(0.95383161,0,0,0.95383161,359.67204,35.291772)"
       clip-path="url(#clipPath15)"><tspan
         id="tspan14"
         style="font-variant:normal;font-weight:normal;font-size:12px;font-family:Arial;writing-mode:lr-tb;fill:#000000;fill-opacity:1;fill-rule:nonzero;stroke:none"
         x="0"
         y="0">rolename</tspan></text>
    <text
       id="text15"
       xml:space="preserve"
       transform="matrix(0.95383161,0,0,0.95383161,357.13842,54.368404)"
       clip-path="url(#clipPath16)"><tspan
         id="tspan15"
         style="font-variant:normal;font-weight:normal;font-size:12px;font-family:Arial;writing-mode:lr-tb;fill:#000000;fill-opacity:1;fill-rule:nonzero;stroke:none"
         x="0"
         y="0">multiplicity</tspan></text>
    <path
       id="path17"
       d="m 426,346.5 h 60 v 30 h -60 z"
       style="fill:#ffffff;fill-opacity:1;fill-rule:nonzero;stroke:none"
       transform="matrix(0.95383161,0,0,0.95383161,-111.9828,-301.88772)"
       clip-path="url(#clipPath18)" />
    <text
       id="text18"
       xml:space="preserve"
       transform="matrix(0.95383161,0,0,0.95383161,295.43744,46.737751)"
       clip-path="url(#clipPath19)"><tspan
         id="tspan18"
         style="font-variant:normal;font-weight:normal;font-size:12px;font-family:Arial;writing-mode:lr-tb;fill:#000000;fill-opacity:1;fill-rule:nonzero;stroke:none"
         x="0"
         y="0">flow-node*</tspan></text>
  </g>
</svg>
