<?xml version="1.0" encoding="UTF-8" standalone="no"?>
<!-- Created with Inkscape (http://www.inkscape.org/) -->

<svg
   version="1.1"
   id="svg1"
   width="213.44"
   height="69.439995"
   viewBox="0 0 213.44 69.439995"
   xmlns="http://www.w3.org/2000/svg"
   xmlns:svg="http://www.w3.org/2000/svg">
  <defs
     id="defs1">
    <clipPath
       clipPathUnits="userSpaceOnUse"
       id="clipPath2">
      <path
         d="M 0,0 H 666.01563 V 216.01563 H 0 Z"
         transform="scale(0.31999999)"
         clip-rule="evenodd"
         id="path2" />
    </clipPath>
    <clipPath
       clipPathUnits="userSpaceOnUse"
       id="clipPath4">
      <path
         d="M 3.125,0 H 662.5 V 216.01563 H 3.125 Z"
         transform="matrix(0.33984893,0,0,0.33984893,396.86136,990.99998)"
         clip-rule="evenodd"
         id="path4" />
    </clipPath>
    <clipPath
       clipPathUnits="userSpaceOnUse"
       id="clipPath5">
      <path
         d="M 3.125,0 H 662.5 V 216.01563 H 3.125 Z"
         transform="matrix(0.33984893,0,0,0.33984893,-34.607402,-25.500029)"
         clip-rule="evenodd"
         id="path5" />
    </clipPath>
    <clipPath
       clipPathUnits="userSpaceOnUse"
       id="clipPath6">
      <path
         d="M 3.125,0 H 662.5 V 216.01563 H 3.125 Z"
         transform="matrix(0.33984893,0,0,0.33984893,-60.623032,-54.50003)"
         clip-rule="evenodd"
         id="path6" />
    </clipPath>
  </defs>
  <g
     id="g1">
    <path
       id="path1"
       d="M 0,0 H 213 V 69 H 0 Z"
       style="fill:#ffffff;fill-opacity:1;fill-rule:nonzero;stroke:none"
       clip-path="url(#clipPath2)" />
    <path
       id="path3"
       d="m 410.5,992 h 197.25 c 0.68939,0 1.37219,0.0672 2.0484,0.20166 0.67621,0.13452 1.33276,0.33368 1.96973,0.59747 0.63696,0.26386 1.24206,0.58728 1.81524,0.9704 0.57325,0.383 1.10364,0.81824 1.59119,1.30579 0.48749,0.48749 0.92279,1.01788 1.30579,1.59106 0.38299,0.57324 0.70642,1.17835 0.97027,1.81537 0.26386,0.6369 0.46302,1.29352 0.5976,1.96975 0.13452,0.6762 0.20178,1.359 0.20178,2.0485 v 49 c 0,0.6894 -0.0673,1.3722 -0.20178,2.0483 -0.13458,0.6763 -0.33374,1.3329 -0.5976,1.9698 -0.26385,0.6369 -0.58728,1.242 -0.97027,1.8154 -0.383,0.5731 -0.8183,1.1035 -1.30579,1.5911 -0.48755,0.4874 -1.01794,0.9227 -1.59119,1.3058 -0.57318,0.3829 -1.17828,0.7064 -1.81524,0.9702 -0.63697,0.2638 -1.29352,0.463 -1.96973,0.5975 -0.67621,0.1345 -1.35901,0.2018 -2.0484,0.2019 H 410.5 c -0.68948,-10e-5 -1.37231,-0.067 -2.04849,-0.2019 -0.67618,-0.1345 -1.33277,-0.3337 -1.96973,-0.5975 -0.63696,-0.2638 -1.24206,-0.5873 -1.81534,-0.9704 -0.57324,-0.3829 -1.1036,-0.8182 -1.59109,-1.3056 -0.48752,-0.4876 -0.92279,-1.018 -1.30585,-1.5911 -0.38299,-0.5734 -0.70642,-1.1785 -0.97028,-1.8154 -0.26385,-0.6369 -0.46301,-1.2935 -0.5975,-1.9698 -0.13449,-0.6761 -0.20175,-1.3589 -0.20172,-2.0483 v -49 c -3e-5,-0.6895 0.0672,-1.3723 0.20172,-2.0485 0.13449,-0.67623 0.33365,-1.33285 0.59747,-1.96975 0.26386,-0.63702 0.58728,-1.24213 0.97031,-1.81537 0.38306,-0.57318 0.81833,-1.10357 1.30585,-1.59106 0.48749,-0.48755 1.01785,-0.92285 1.59109,-1.30585 0.57328,-0.38306 1.17838,-0.70648 1.81534,-0.97034 0.63696,-0.26379 1.29355,-0.46295 1.96973,-0.59741 C 409.12769,992.06726 409.81052,992 410.5,992 Z"
       style="fill:none;stroke:#000000;stroke-width:1;stroke-linecap:butt;stroke-linejoin:miter;stroke-miterlimit:10;stroke-dasharray:none;stroke-opacity:1"
       transform="matrix(0.94159481,0,0,0.94159481,-373.6826,-933.12044)"
       clip-path="url(#clipPath4)" />
    <text
       id="text4"
       xml:space="preserve"
       transform="matrix(0.94159481,0,0,0.94159481,32.58615,24.010695)"
       clip-path="url(#clipPath5)"><tspan
         id="tspan4"
         style="font-variant:normal;font-weight:normal;font-size:12px;font-family:Arial;writing-mode:lr-tb;fill:#000000;fill-opacity:1;fill-rule:nonzero;stroke:none"
         x="0"
         y="0">interface-name-compartment</tspan></text>
    <text
       id="text5"
       xml:space="preserve"
       transform="matrix(0.94159481,0,0,0.94159481,57.082332,51.316945)"
       clip-path="url(#clipPath6)"><tspan
         id="tspan5"
         style="font-variant:normal;font-weight:normal;font-size:12px;font-family:Arial;writing-mode:lr-tb;fill:#000000;fill-opacity:1;fill-rule:nonzero;stroke:none"
         x="0"
         y="0">compartment-stack</tspan></text>
  </g>
</svg>
