<?xml version="1.0" encoding="UTF-8" standalone="no"?>
<!-- Created with Inkscape (http://www.inkscape.org/) -->

<svg
   version="1.1"
   id="svg1"
   width="212.15999"
   height="66.559998"
   viewBox="0 0 212.15999 66.559998"
   xmlns="http://www.w3.org/2000/svg"
   xmlns:svg="http://www.w3.org/2000/svg">
  <defs
     id="defs1">
    <clipPath
       clipPathUnits="userSpaceOnUse"
       id="clipPath2">
      <path
         d="M 0,0 H 662.98828 V 206.98242 H 0 Z"
         transform="scale(0.31999999)"
         clip-rule="evenodd"
         id="path2" />
    </clipPath>
    <clipPath
       clipPathUnits="userSpaceOnUse"
       id="clipPath4">
      <path
         d="m 3.125,0 h 656.25 V 206.98242 H 3.125 Z"
         transform="matrix(0.3390567,0,0,0.3390567,666.88039,462.00002)"
         clip-rule="evenodd"
         id="path4" />
    </clipPath>
    <clipPath
       clipPathUnits="userSpaceOnUse"
       id="clipPath5">
      <path
         d="m 3.125,0 h 656.25 V 206.98242 H 3.125 Z"
         transform="matrix(0.3390567,0,0,0.3390567,-46.260238,-24.500007)"
         clip-rule="evenodd"
         id="path5" />
    </clipPath>
    <clipPath
       clipPathUnits="userSpaceOnUse"
       id="clipPath6">
      <path
         d="m 3.125,0 h 656.25 V 206.98242 H 3.125 Z"
         transform="matrix(0.3390567,0,0,0.3390567,-60.603988,-53.500007)"
         clip-rule="evenodd"
         id="path6" />
    </clipPath>
  </defs>
  <g
     id="g1">
    <path
       id="path1"
       d="M 0,0 H 212 V 66 H 0 Z"
       style="fill:#ffffff;fill-opacity:1;fill-rule:nonzero;stroke:none"
       clip-path="url(#clipPath2)" />
    <path
       id="path3"
       d="m 686.04999,462.5 h 3 v 1 h -3 z m 6,0 h 3 v 1 h -3 z m 6,0 h 3 v 1 h -3 z m 6,0 h 3 v 1 h -3 z m 6,0 h 3 v 1 h -3 z m 6,0 h 3 v 1 h -3 z m 6,0 h 3 v 1 h -3 z m 6,0 h 3 v 1 h -3 z m 6,0 h 3 v 1 h -3 z m 6,0 h 3 v 1 h -3 z m 6,0 h 3 v 1 h -3 z m 6,0 h 3 v 1 h -3 z m 6,0 h 3 v 1 h -3 z m 6,0 h 3 v 1 h -3 z m 6,0 h 3 v 1 h -3 z m 6,0 h 3 v 1 h -3 z m 6,0 h 3 v 1 h -3 z m 6,0 h 3 v 1 h -3 z m 6,0 h 3 v 1 h -3 z m 6,0 h 3 v 1 h -3 z m 6,0 h 3 v 1 h -3 z m 6,0 h 3 v 1 h -3 z m 6,0 h 3 v 1 h -3 z m 6,0 h 3 v 1 h -3 z m 6,0 h 3 v 1 h -3 z m 6,0 h 3 v 1 h -3 z m 6,0 h 3 v 1 h -3 z m 6,0 h 3 v 1 h -3 z m 6,0 h 3 v 1 h -3 z m 6,0 h 3 v 1 h -3 z m 6,0 h 3 v 1 h -3 z m 6,0 h 3 v 1 h -3 z m 6,0 h 0.15002 c 0.9961,0 1.9726,0.13828 2.92945,0.41486 l -0.27771,0.96069 C 879.98553,463.62518 879.10162,463.5 878.20001,463.5 h -0.15002 z m 5.96368,1.74637 c 0.89911,0.59381 1.68878,1.30862 2.36908,2.14444 l -0.77551,0.63128 c -0.61585,-0.75659 -1.33075,-1.40368 -2.14472,-1.94131 z m 3.96942,4.85461 c 0.4032,0.99912 0.64771,2.03574 0.73352,3.10984 l -0.99682,0.0797 c -0.0777,-0.97232 -0.29901,-1.91077 -0.66406,-2.81528 l 0.92736,-0.37421 z m 0.76691,6.11423 v 3 h -1 v -3 z m 0,6 v 3 h -1 v -3 z m 0,6 v 3 h -1 v -3 z m 0,6 v 3 h -1 v -3 z m 0,6 v 3 h -1 v -3 z m 0,6 v 3 h -1 v -3 z m 0,6 v 3 h -1 v -3 z m 0,6 v 2.7348 c 0,0.0874 -10e-4,0.17542 -0.003,0.2641 l -0.99963,-0.0253 c 0.002,-0.079 0.003,-0.15857 0.003,-0.23883 v -2.7348 h 1 z m -0.55042,6.09796 c -0.34002,1.01093 -0.82232,1.94879 -1.44689,2.81372 l -0.81067,-0.58545 c 0.56524,-0.78277 1.00183,-1.63183 1.30969,-2.54712 z m -3.69012,5.09229 c -0.85333,0.63672 -1.78192,1.13293 -2.78564,1.48864 l -0.33399,-0.9425 c 0.90845,-0.32196 1.74896,-0.77118 2.52161,-1.34766 z m -5.89087,2.08624 c -0.13904,0.005 -0.2785,0.008 -0.41839,0.008 h -2.58069 v -1 h 2.58032 c 0.12616,-6e-5 0.25256,-0.003 0.37933,-0.008 l 0.0394,0.99927 z m -5.99908,0.008 h -3 v -1 h 3 z m -6,0 h -3 v -1 h 3 z m -6,0 h -3 v -1 h 3 z m -6,0 h -3 v -1 h 3 z m -6,0 h -3 v -1 h 3 z m -6,0 h -3 v -1 h 3 z m -6,0 h -3 v -1 h 3 z m -6,0 h -3 v -1 h 3 z m -6,0 h -3 v -1 h 3 z m -6,0 h -3 v -1 h 3 z m -6,0 h -3 v -1 h 3 z m -6,0 h -3 v -1 h 3 z m -6,0 h -3 v -1 h 3 z m -6,0 h -3 v -1 h 3 z m -6,0 h -3 v -1 h 3 z m -6,0 h -3 v -1 h 3 z m -6,0 h -3 v -1 h 3 z m -6,0 h -3 v -1 h 3 z m -6,0 h -3 v -1 h 3 z m -6,0 h -3 v -1 h 3 z m -6,0 h -3 v -1 h 3 z m -6,0 h -3 v -1 h 3 z m -6,0 h -3 v -1 h 3 z m -6,0 h -3 v -1 h 3 z m -6,0 h -3 v -1 h 3 z m -6,0 h -3 v -1 h 3 z m -6,0 h -3 v -1 h 3 z m -6,0 h -3 v -1 h 3 z m -6,0 h -3 v -1 h 3 z m -6,0 h -3 v -1 h 3 z m -6,0 h -3 v -1 h 3 z m -6,0 h -3 v -1 h 3 z m -6,0 h -0.56952 c -0.8421,0 -1.67243,-0.0994 -2.49085,-0.29828 l 0.23609,-0.97168 c 0.74072,0.17999 1.49231,0.26996 2.25476,0.26996 h 0.56952 z m -6.00745,-1.50946 c -0.922,-0.55457 -1.74005,-1.23431 -2.45416,-2.03931 l 0.74804,-0.66357 c 0.64643,0.72864 1.38691,1.34393 2.2215,1.84595 z m -4.17456,-4.69287 c -0.44427,-0.98242 -0.73126,-2.00873 -0.86096,-3.07898 l 0.9928,-0.12024 c 0.11737,0.96893 0.37713,1.89795 0.77929,2.78711 z M 669.5,518.20398 v -3 h 1 v 3 z m 0,-6 v -3.00003 h 1 v 3.00003 z m 0,-6.00003 v -3 h 1 v 3 z m 0,-6 v -3 h 1 v 3 z m 0,-5.99997 v -3 h 1 v 3 z m 0,-6 v -3 h 1 v 3 z m 0,-6 v -3 h 1 v 3 z m 0,-6 v -3 h 1 v 3 z m 0.41357,-6.07934 c 0.297,-1.02911 0.74042,-1.99072 1.33033,-2.8848 l 0.83471,0.55072 c -0.53399,0.80933 -0.93536,1.67978 -1.20422,2.61136 z m 3.4737,-5.25485 c 0.82269,-0.67002 1.72589,-1.20383 2.70947,-1.60144 l 0.37476,0.92712 c -0.89045,0.35996 -1.70801,0.84317 -2.45276,1.44971 z m 5.81921,-2.33628 c 0.28082,-0.0226 0.56201,-0.0338 0.84351,-0.0338 h 3 v 1 h -3 c -0.25507,0 -0.50958,0.0102 -0.76355,0.0306 l -0.08,-0.99677 z"
       style="fill:#000000;fill-opacity:1;fill-rule:nonzero;stroke:none"
       transform="matrix(0.9437949,0,0,0.9437949,-629.39831,-436.03326)"
       clip-path="url(#clipPath4)" />
    <text
       id="text4"
       xml:space="preserve"
       transform="matrix(0.9437949,0,0,0.9437949,43.660177,23.122982)"
       clip-path="url(#clipPath5)"><tspan
         id="tspan4"
         style="font-variant:normal;font-weight:normal;font-size:12px;font-family:Arial;writing-mode:lr-tb;fill:#000000;fill-opacity:1;fill-rule:nonzero;stroke:none"
         x="0"
         y="0">item-name-compartment</tspan></text>
    <text
       id="text5"
       xml:space="preserve"
       transform="matrix(0.9437949,0,0,0.9437949,57.197735,50.493034)"
       clip-path="url(#clipPath6)"><tspan
         id="tspan5"
         style="font-variant:normal;font-weight:normal;font-size:12px;font-family:Arial;writing-mode:lr-tb;fill:#000000;fill-opacity:1;fill-rule:nonzero;stroke:none"
         x="0"
         y="0">compartment-stack</tspan></text>
  </g>
</svg>
