<?xml version="1.0" encoding="UTF-8" standalone="no"?>
<!-- Created with Inkscape (http://www.inkscape.org/) -->

<svg
   version="1.1"
   id="svg1"
   width="212.15999"
   height="66.559998"
   viewBox="0 0 212.15999 66.559998"
   xmlns="http://www.w3.org/2000/svg"
   xmlns:svg="http://www.w3.org/2000/svg">
  <defs
     id="defs1">
    <clipPath
       clipPathUnits="userSpaceOnUse"
       id="clipPath2">
      <path
         d="M 0,0 H 662.98828 V 209 H 0 Z"
         transform="scale(0.31999999)"
         clip-rule="evenodd"
         id="path2" />
    </clipPath>
    <clipPath
       clipPathUnits="userSpaceOnUse"
       id="clipPath4">
      <path
         d="m 3.125,0 h 656.25 V 209 H 3.125 Z"
         transform="matrix(0.3402801,0,0,0.3402801,398.84947,460.43664)"
         clip-rule="evenodd"
         id="path4" />
    </clipPath>
    <clipPath
       clipPathUnits="userSpaceOnUse"
       id="clipPath5">
      <path
         d="m 3.125,0 h 656.25 V 209 H 3.125 Z"
         transform="matrix(0.3402801,0,0,0.3402801,-46.291161,-26.063362)"
         clip-rule="evenodd"
         id="path5" />
    </clipPath>
    <clipPath
       clipPathUnits="userSpaceOnUse"
       id="clipPath6">
      <path
         d="m 3.125,0 h 656.25 V 209 H 3.125 Z"
         transform="matrix(0.3402801,0,0,0.3402801,-60.63491,-55.063362)"
         clip-rule="evenodd"
         id="path6" />
    </clipPath>
  </defs>
  <g
     id="g1">
    <path
       id="path1"
       d="M 0,0 H 212 V 67 H 0 Z"
       style="fill:#ffffff;fill-opacity:1;fill-rule:nonzero;stroke:none"
       clip-path="url(#clipPath2)" />
    <path
       id="path3"
       d="m 412.04999,463 h 198.15002 c 0.65985,3e-5 1.31336,0.0644 1.96057,0.19312 0.64722,0.12872 1.27564,0.31933 1.88532,0.57186 0.60968,0.25254 1.18884,0.56208 1.73749,0.92868 0.5487,0.36664 1.05639,0.78327 1.52301,1.24988 0.46661,0.46662 0.88324,0.97428 1.24987,1.52295 0.36658,0.54868 0.67615,1.12784 0.92865,1.73749 0.25257,0.60965 0.44324,1.2381 0.57196,1.88534 0.12873,0.64722 0.19306,1.30079 0.19312,1.96067 v 46.90002 c -6e-5,0.65985 -0.0644,1.31342 -0.19312,1.96063 -0.12872,0.64716 -0.31939,1.27558 -0.57196,1.88526 -0.2525,0.60968 -0.56207,1.18884 -0.92865,1.73755 -0.36663,0.54864 -0.78326,1.05633 -1.24987,1.52295 -0.46662,0.46661 -0.97431,0.88318 -1.52301,1.24981 -0.54865,0.36664 -1.12781,0.67621 -1.73749,0.92871 -0.60968,0.25251 -1.2381,0.44318 -1.88532,0.5719 C 611.51337,529.93561 610.85986,530 610.20001,530 H 412.04999 c -0.65991,0 -1.31348,-0.0644 -1.96067,-0.19318 -0.64724,-0.12872 -1.27569,-0.31939 -1.88534,-0.5719 -0.60965,-0.2525 -1.18884,-0.56207 -1.73752,-0.92871 -0.54867,-0.36663 -1.05633,-0.7832 -1.52292,-1.24981 -0.46661,-0.46662 -0.88324,-0.97431 -1.24988,-1.52295 -0.3666,-0.54871 -0.67617,-1.12787 -0.92871,-1.73755 -0.2525,-0.60968 -0.44311,-1.2381 -0.57187,-1.88532 -0.12875,-0.64715 -0.19311,-1.30072 -0.19308,-1.96057 v -46.90002 c -3e-5,-0.65988 0.0643,-1.31345 0.19305,-1.9607 0.12876,-0.64721 0.3194,-1.27566 0.5719,-1.88531 0.25254,-0.60965 0.56211,-1.18884 0.92871,-1.73752 0.36664,-0.54867 0.78327,-1.0563 1.24988,-1.52292 0.46659,-0.46661 0.97425,-0.88324 1.52292,-1.24984 0.54868,-0.36661 1.12787,-0.67618 1.73752,-0.92872 0.60965,-0.25253 1.2381,-0.44314 1.88531,-0.5719 0.64722,-0.12869 1.30079,-0.19305 1.9607,-0.19308 z"
       style="fill:none;stroke:#000000;stroke-width:1;stroke-linecap:butt;stroke-linejoin:miter;stroke-miterlimit:10;stroke-dasharray:none;stroke-opacity:1"
       transform="matrix(0.94040172,0,0,0.94040172,-375.07873,-432.99541)"
       clip-path="url(#clipPath4)" />
    <text
       id="text4"
       xml:space="preserve"
       transform="matrix(0.94040172,0,0,0.94040172,43.532287,24.51003)"
       clip-path="url(#clipPath5)"><tspan
         id="tspan4"
         style="font-variant:normal;font-weight:normal;font-size:12px;font-family:Arial;writing-mode:lr-tb;fill:#000000;fill-opacity:1;fill-rule:nonzero;stroke:none"
         x="0"
         y="0">item-name-compartment</tspan></text>
    <text
       id="text5"
       xml:space="preserve"
       transform="matrix(0.94040172,0,0,0.94040172,57.021174,51.78168)"
       clip-path="url(#clipPath6)"><tspan
         id="tspan5"
         style="font-variant:normal;font-weight:normal;font-size:12px;font-family:Arial;writing-mode:lr-tb;fill:#000000;fill-opacity:1;fill-rule:nonzero;stroke:none"
         x="0"
         y="0">compartment-stack</tspan></text>
  </g>
</svg>
