<?xml version="1.0" encoding="UTF-8" standalone="no"?>
<!-- Created with Inkscape (http://www.inkscape.org/) -->

<svg
   version="1.1"
   id="svg1"
   width="97.279999"
   height="166.72"
   viewBox="0 0 97.279999 166.72"
   xmlns="http://www.w3.org/2000/svg"
   xmlns:svg="http://www.w3.org/2000/svg">
  <defs
     id="defs1">
    <clipPath
       clipPathUnits="userSpaceOnUse"
       id="clipPath2">
      <path
         d="M 0,0 H 302.97852 V 518.99414 H 0 Z"
         transform="scale(0.31999999)"
         clip-rule="evenodd"
         id="path2" />
    </clipPath>
    <clipPath
       clipPathUnits="userSpaceOnUse"
       id="clipPath4">
      <path
         d="M 3.125,9.375 H 300 v 500 H 3.125 Z"
         transform="matrix(0.3487244,0,0,0.3487244,47.319831,395.14093)"
         clip-rule="evenodd"
         id="path4" />
    </clipPath>
    <clipPath
       clipPathUnits="userSpaceOnUse"
       id="clipPath6">
      <path
         d="M 3.125,9.375 H 300 v 500 H 3.125 Z"
         transform="matrix(0.3487244,0,0,0.3487244,47.819834,395.64095)"
         clip-rule="evenodd"
         id="path6" />
    </clipPath>
    <clipPath
       clipPathUnits="userSpaceOnUse"
       id="clipPath7">
      <path
         d="M 3.125,9.375 H 300 v 500 H 3.125 Z"
         transform="matrix(0.3487244,0,0,0.3487244,-11.148916,-23.359055)"
         clip-rule="evenodd"
         id="path7" />
    </clipPath>
    <clipPath
       clipPathUnits="userSpaceOnUse"
       id="clipPath9">
      <path
         d="M 3.125,9.375 H 300 v 500 H 3.125 Z"
         transform="matrix(0.3487244,0,0,0.3487244,47.819834,395.64095)"
         clip-rule="evenodd"
         id="path9" />
    </clipPath>
    <clipPath
       clipPathUnits="userSpaceOnUse"
       id="clipPath10">
      <path
         d="M 3.125,9.375 H 300 v 500 H 3.125 Z"
         transform="matrix(0.3487244,0,0,0.3487244,-26.836417,-88.359055)"
         clip-rule="evenodd"
         id="path10" />
    </clipPath>
  </defs>
  <g
     id="g1">
    <path
       id="path1"
       d="M 0,0 H 97 V 166 H 0 Z"
       style="fill:#ffffff;fill-opacity:1;fill-rule:nonzero;stroke:none"
       clip-path="url(#clipPath2)" />
    <path
       id="path3"
       d="m 99.5,570 v -3 h 1 v 3 m -1,-6 v -3 h 1 v 3 m -1,-6 v -3 h 1 v 3 m -1,-6 v -3 h 1 v 3 m -1,-6 v -3 h 1 v 3 m -1,-6 v -3 h 1 v 3 m -1,-6 v -3 h 1 v 3 m -1,-6 v -3 h 1 v 3 m -1,-6 v -3 h 1 v 3 m -1,-6 v -3 h 1 v 3 m -1,-6 v -3 h 1 v 3 m -1,-6 v -3 h 1 v 3 m -1,-6 v -3 h 1 v 3 m -1,-6 v -3 h 1 v 3 m -1,-6 v -3 h 1 v 3 m -1,-6 v -3 h 1 v 3 m -1,-6 v -3 h 1 v 3 m -1,-6 v -3 h 1 v 3 m -1,-6 v -3 h 1 v 3 m -1,-6 v -3 h 1 v 3 m -1,-6 v -3 h 1 v 3 m -1,-6 v -3 h 1 v 3 m -1,-6 v -3 h 1 v 3 m -1,-6 v -3 h 1 v 3 m -1,-6 v -3 h 1 v 3"
       style="fill:#000000;fill-opacity:1;fill-rule:nonzero;stroke:none"
       transform="matrix(0.91763004,0,0,0.91763004,-43.422098,-362.59319)"
       clip-path="url(#clipPath4)" />
    <path
       id="path5"
       d="m 59,408 h 82 v 15 H 59 Z"
       style="fill:#ffffff;fill-opacity:1;fill-rule:nonzero;stroke:none"
       transform="matrix(0.91763004,0,0,0.91763004,-43.880916,-363.05202)"
       clip-path="url(#clipPath6)" />
    <text
       id="text6"
       xml:space="preserve"
       transform="matrix(0.91763004,0,0,0.91763004,10.23058,21.434971)"
       clip-path="url(#clipPath7)"><tspan
         id="tspan6"
         style="font-variant:normal;font-weight:normal;font-size:12px;font-family:Arial;writing-mode:lr-tb;fill:#000000;fill-opacity:1;fill-rule:nonzero;stroke:none"
         x="0"
         y="0">&amp;sq-head-node</tspan></text>
    <path
       id="path8"
       d="m 75,473 h 50 v 15 H 75 Z"
       style="fill:#ffffff;fill-opacity:1;fill-rule:nonzero;stroke:none"
       transform="matrix(0.91763004,0,0,0.91763004,-43.880916,-363.05202)"
       clip-path="url(#clipPath9)" />
    <text
       id="text9"
       xml:space="preserve"
       transform="matrix(0.91763004,0,0,0.91763004,24.625902,81.080923)"
       clip-path="url(#clipPath10)"><tspan
         id="tspan9"
         style="font-variant:normal;font-weight:normal;font-size:12px;font-family:Arial;writing-mode:lr-tb;fill:#000000;fill-opacity:1;fill-rule:nonzero;stroke:none"
         x="0"
         y="0">sq-proxy*</tspan></text>
  </g>
</svg>
