<?xml version="1.0" encoding="UTF-8" standalone="no"?>
<!-- Created with Inkscape (http://www.inkscape.org/) -->

<svg
   version="1.1"
   id="svg1"
   width="515.84003"
   height="88"
   viewBox="0 0 515.84003 88"
   xmlns="http://www.w3.org/2000/svg"
   xmlns:svg="http://www.w3.org/2000/svg">
  <defs
     id="defs1">
    <clipPath
       clipPathUnits="userSpaceOnUse"
       id="clipPath2">
      <path
         d="M 0,0 H 1613 V 275.97656 H 0 Z"
         transform="scale(0.31999999)"
         clip-rule="evenodd"
         id="path2" />
    </clipPath>
    <clipPath
       clipPathUnits="userSpaceOnUse"
       id="clipPath4">
      <path
         d="M 3.125,0 H 1612.5 V 275.97656 H 3.125 Z"
         transform="matrix(0.33618945,0,0,0.33618945,20.35253,58.449411)"
         clip-rule="evenodd"
         id="path4" />
    </clipPath>
    <clipPath
       clipPathUnits="userSpaceOnUse"
       id="clipPath6">
      <path
         d="M 3.125,0 H 1612.5 V 275.97656 H 3.125 Z"
         transform="matrix(0.33618945,0,0,0.33618945,20.35253,58.449411)"
         clip-rule="evenodd"
         id="path6" />
    </clipPath>
    <clipPath
       clipPathUnits="userSpaceOnUse"
       id="clipPath8">
      <path
         d="M 3.125,0 H 1612.5 V 275.97656 H 3.125 Z"
         transform="matrix(0.33618945,0,0,0.33618945,20.852529,58.949405)"
         clip-rule="evenodd"
         id="path8" />
    </clipPath>
    <clipPath
       clipPathUnits="userSpaceOnUse"
       id="clipPath9">
      <path
         d="M 3.125,0 H 1612.5 V 275.97656 H 3.125 Z"
         transform="matrix(0.33618945,0,0,0.33618945,-232.13185,-30.050595)"
         clip-rule="evenodd"
         id="path9" />
    </clipPath>
    <clipPath
       clipPathUnits="userSpaceOnUse"
       id="clipPath10">
      <path
         d="M 3.125,0 H 1612.5 V 275.97656 H 3.125 Z"
         transform="matrix(0.33618945,0,0,0.33618945,-426.44435,-49.050595)"
         clip-rule="evenodd"
         id="path10" />
    </clipPath>
    <clipPath
       clipPathUnits="userSpaceOnUse"
       id="clipPath11">
      <path
         d="M 3.125,0 H 1612.5 V 275.97656 H 3.125 Z"
         transform="matrix(0.33618945,0,0,0.33618945,-29.444346,-49.050595)"
         clip-rule="evenodd"
         id="path11" />
    </clipPath>
    <clipPath
       clipPathUnits="userSpaceOnUse"
       id="clipPath13">
      <path
         d="M 3.125,0 H 1612.5 V 275.97656 H 3.125 Z"
         transform="matrix(0.33618945,0,0,0.33618945,20.852529,58.949405)"
         clip-rule="evenodd"
         id="path13" />
    </clipPath>
    <clipPath
       clipPathUnits="userSpaceOnUse"
       id="clipPath14">
      <path
         d="M 3.125,0 H 1612.5 V 275.97656 H 3.125 Z"
         transform="matrix(0.33618945,0,0,0.33618945,-235.14747,-19.050594)"
         clip-rule="evenodd"
         id="path14" />
    </clipPath>
  </defs>
  <g
     id="g1">
    <path
       id="path1"
       d="M 0,0 H 516 V 88 H 0 Z"
       style="fill:#ffffff;fill-opacity:1;fill-rule:nonzero;stroke:none"
       clip-path="url(#clipPath2)" />
    <path
       id="path3"
       d="M 139,103 H 437.13"
       style="fill:none;stroke:#000000;stroke-width:1;stroke-linecap:butt;stroke-linejoin:miter;stroke-miterlimit:10;stroke-dasharray:none;stroke-opacity:1"
       transform="matrix(0.95184422,0,0,0.95184422,-19.372438,-55.634734)"
       clip-path="url(#clipPath4)" />
    <path
       id="path5"
       d="m 443.88,103 -9,4.5 2.25,-4.5 -2.25,-4.5 z"
       style="fill:none;stroke:#000000;stroke-width:1;stroke-linecap:butt;stroke-linejoin:miter;stroke-miterlimit:10;stroke-dasharray:none;stroke-opacity:1"
       transform="matrix(0.95184422,0,0,0.95184422,-19.372438,-55.634734)"
       clip-path="url(#clipPath6)" />
    <path
       id="path7"
       d="m 253,74 h 65 v 19 h -65 z"
       style="fill:#ffffff;fill-opacity:1;fill-rule:nonzero;stroke:none"
       transform="matrix(0.95184422,0,0,0.95184422,-19.848359,-56.11065)"
       clip-path="url(#clipPath8)" />
    <text
       id="text8"
       xml:space="preserve"
       transform="matrix(0.95184422,0,0,0.95184422,220.95336,28.603485)"
       clip-path="url(#clipPath9)"><tspan
         id="tspan8"
         style="font-variant:normal;font-weight:normal;font-size:10px;font-family:Arial;writing-mode:lr-tb;fill:#000000;fill-opacity:1;fill-rule:nonzero;stroke:none"
         x="0"
         y="0">message-label</tspan></text>
    <text
       id="text9"
       xml:space="preserve"
       transform="matrix(0.95184422,0,0,0.95184422,405.90859,46.688525)"
       clip-path="url(#clipPath10)"><tspan
         id="tspan9"
         style="font-variant:normal;font-weight:normal;font-size:12px;font-family:Arial;writing-mode:lr-tb;fill:#000000;fill-opacity:1;fill-rule:nonzero;stroke:none"
         x="0"
         y="0">&amp;msg-end-node</tspan></text>
    <text
       id="text10"
       xml:space="preserve"
       transform="matrix(0.95184422,0,0,0.95184422,28.026431,46.688525)"
       clip-path="url(#clipPath11)"><tspan
         id="tspan10"
         style="font-variant:normal;font-weight:normal;font-size:12px;font-family:Arial;writing-mode:lr-tb;fill:#000000;fill-opacity:1;fill-rule:nonzero;stroke:none"
         x="0"
         y="0">&amp;msg-end-node</tspan></text>
    <path
       id="path12"
       d="m 256,69 h 61 v 11 h -61 z"
       style="fill:#f8f9fa;fill-opacity:1;fill-rule:nonzero;stroke:none"
       transform="matrix(0.95184422,0,0,0.95184422,-19.848359,-56.11065)"
       clip-path="url(#clipPath13)" />
    <text
       id="text13"
       xml:space="preserve"
       transform="matrix(0.95184422,0,0,0.95184422,223.82376,18.133198)"
       clip-path="url(#clipPath14)"><tspan
         id="tspan13"
         style="font-variant:normal;font-weight:normal;font-size:10px;font-family:Arial;writing-mode:lr-tb;fill:#000000;fill-opacity:1;fill-rule:nonzero;stroke:none"
         x="0"
         y="0">'«message»'?</tspan></text>
  </g>
</svg>
