<?xml version="1.0" encoding="UTF-8" standalone="no"?>
<!-- Created with Inkscape (http://www.inkscape.org/) -->

<svg
   version="1.1"
   id="svg1"
   width="120"
   height="33.279999"
   viewBox="0 0 120 33.279999"
   xmlns="http://www.w3.org/2000/svg"
   xmlns:svg="http://www.w3.org/2000/svg">
  <defs
     id="defs1">
    <clipPath
       clipPathUnits="userSpaceOnUse"
       id="clipPath2">
      <path
         d="M 0,0 H 375 V 104.98047 H 0 Z"
         transform="scale(0.31999999)"
         clip-rule="evenodd"
         id="path2" />
    </clipPath>
    <clipPath
       clipPathUnits="userSpaceOnUse"
       id="clipPath4">
      <path
         d="m 3.125,0 h 368.75 V 104.98047 H 3.125 Z"
         transform="matrix(0.3429434,0,0,0.3429434,97.347635,1529.5001)"
         clip-rule="evenodd"
         id="path4" />
    </clipPath>
    <clipPath
       clipPathUnits="userSpaceOnUse"
       id="clipPath5">
      <path
         d="m 3.125,0 h 368.75 V 104.98047 H 3.125 Z"
         transform="matrix(0.3429434,0,0,0.3429434,-15.792986,-22.999911)"
         clip-rule="evenodd"
         id="path5" />
    </clipPath>
  </defs>
  <g
     id="g1">
    <path
       id="path1"
       d="M 0,0 H 120 V 34 H 0 Z"
       style="fill:#ffffff;fill-opacity:1;fill-rule:nonzero;stroke:none"
       clip-path="url(#clipPath2)" />
    <path
       id="path3"
       d="m 210,1550.5 c 0,0.4268 -0.0416,0.8494 -0.12491,1.2679 -0.0833,0.4186 -0.20657,0.8251 -0.36989,1.2194 -0.16331,0.3943 -0.36354,0.7689 -0.60066,1.1238 -0.23711,0.3548 -0.50656,0.6832 -0.80835,0.9851 -0.3018,0.3018 -0.63013,0.5712 -0.985,0.8082 -0.35486,0.2372 -0.72945,0.4374 -1.12375,0.6007 -0.3943,0.1634 -0.80076,0.2867 -1.21936,0.3699 -0.41859,0.083 -0.84128,0.1249 -1.26808,0.125 -0.4268,-10e-5 -0.84949,-0.042 -1.26808,-0.1251 -0.41863,-0.083 -0.82507,-0.2064 -1.21938,-0.3698 -0.39431,-0.1633 -0.7689,-0.3635 -1.12376,-0.6006 -0.35487,-0.2371 -0.6832,-0.5065 -0.98497,-0.8083 -0.3018,-0.3019 -0.57126,-0.6303 -0.80838,-0.9851 -0.23712,-0.3549 -0.43735,-0.7295 -0.60066,-1.1238 -0.16332,-0.3943 -0.28662,-0.8008 -0.36989,-1.2194 -0.0833,-0.4185 -0.1249,-0.8411 -0.12488,-1.2679 -2e-5,-0.4269 0.0416,-0.8495 0.12488,-1.2681 0.0833,-0.4188 0.20657,-0.8253 0.36989,-1.2194 0.16331,-0.3945 0.36354,-0.769 0.60066,-1.1238 0.23712,-0.3549 0.50658,-0.6833 0.80838,-0.9849 0.30177,-0.3019 0.6301,-0.5713 0.98497,-0.8085 0.35486,-0.2371 0.72945,-0.4373 1.12376,-0.6007 0.39431,-0.1632 0.80075,-0.2865 1.21936,-0.3697 0.4186,-0.083 0.8413,-0.1249 1.2681,-0.1249 0.4268,0 0.84949,0.042 1.26808,0.1249 0.4186,0.083 0.82506,0.2065 1.21936,0.3699 0.3943,0.1633 0.76889,0.3635 1.12377,0.6005 0.35485,0.2372 0.68318,0.5066 0.98498,0.8085 0.30179,0.3016 0.57124,0.6299 0.80835,0.9848 0.23712,0.3548 0.43735,0.7294 0.60066,1.1239 0.16332,0.3941 0.28662,0.8006 0.36989,1.2193 0.0833,0.4186 0.12491,0.8413 0.12491,1.2682 z"
       style="fill:#000000;fill-opacity:1;fill-rule:nonzero;stroke:#000000;stroke-width:1;stroke-linecap:butt;stroke-linejoin:miter;stroke-miterlimit:10;stroke-dasharray:none;stroke-opacity:1"
       transform="matrix(0.93309855,0,0,0.93309855,-90.834937,-1427.1743)"
       clip-path="url(#clipPath4)" />
    <text
       id="text4"
       xml:space="preserve"
       transform="matrix(0.93309855,0,0,0.93309855,14.736412,21.461184)"
       clip-path="url(#clipPath5)"><tspan
         id="tspan4"
         style="font-variant:normal;font-weight:normal;font-size:12px;font-family:Arial;writing-mode:lr-tb;fill:#000000;fill-opacity:1;fill-rule:nonzero;stroke:none"
         x="0"
         y="0">cdot-def-label</tspan></text>
  </g>
</svg>
