<?xml version="1.0" encoding="UTF-8" standalone="no"?>
<!-- Created with Inkscape (http://www.inkscape.org/) -->

<svg
   version="1.1"
   id="svg1"
   width="85.440002"
   height="30.719999"
   viewBox="0 0 85.440002 30.719999"
   xmlns="http://www.w3.org/2000/svg"
   xmlns:svg="http://www.w3.org/2000/svg">
  <defs
     id="defs1">
    <clipPath
       clipPathUnits="userSpaceOnUse"
       id="clipPath2">
      <path
         d="M 0,0 H 266.99219 V 95.996094 H 0 Z"
         transform="scale(0.31999999)"
         clip-rule="evenodd"
         id="path2" />
    </clipPath>
    <clipPath
       clipPathUnits="userSpaceOnUse"
       id="clipPath4">
      <path
         d="m 3.125,0 h 262.5 V 95.996094 H 3.125 Z"
         transform="matrix(0.34702527,0,0,0.34702527,130.32181,763.41552)"
         clip-rule="evenodd"
         id="path4" />
    </clipPath>
    <clipPath
       clipPathUnits="userSpaceOnUse"
       id="clipPath5">
      <path
         d="m 3.125,0 h 262.5 V 95.996094 H 3.125 Z"
         transform="matrix(0.34702527,0,0,0.34702527,-6.1625619,-20.084452)"
         clip-rule="evenodd"
         id="path5" />
    </clipPath>
  </defs>
  <g
     id="g1">
    <path
       id="path1"
       d="M 0,0 H 85 V 31 H 0 Z"
       style="fill:#ffffff;fill-opacity:1;fill-rule:nonzero;stroke:none"
       clip-path="url(#clipPath2)" />
    <path
       id="path3"
       d="m 212,776 c -2e-5,0.39392 -0.0385,0.78406 -0.11533,1.17041 -0.0769,0.38641 -0.19067,0.76166 -0.34144,1.12561 -0.15077,0.36395 -0.33559,0.70978 -0.55446,1.03735 -0.21889,0.32758 -0.46761,0.63062 -0.74616,0.90924 -0.27857,0.27851 -0.58166,0.52723 -0.90922,0.7461 -0.32758,0.21893 -0.67336,0.40375 -1.03732,0.5545 -0.36397,0.15082 -0.73915,0.26459 -1.12555,0.34143 C 206.78412,781.96155 206.39395,782 206,782 c -0.39397,0 -0.78416,-0.0385 -1.17056,-0.1153 -0.3864,-0.0768 -0.7616,-0.19067 -1.12557,-0.34149 -0.36397,-0.15075 -0.70974,-0.33557 -1.03732,-0.5545 -0.32756,-0.21887 -0.63063,-0.46759 -0.90921,-0.7461 -0.27858,-0.27862 -0.52731,-0.58166 -0.7462,-0.90924 -0.21887,-0.32757 -0.40369,-0.6734 -0.55444,-1.03735 -0.15078,-0.36395 -0.26459,-0.73914 -0.34144,-1.12555 C 200.03841,776.78406 199.99998,776.39392 200,776 c -2e-5,-0.39398 0.0384,-0.78424 0.11526,-1.17065 0.0769,-0.38642 0.19065,-0.7616 0.34142,-1.12555 0.15076,-0.36396 0.33557,-0.70972 0.55446,-1.0373 0.21889,-0.32757 0.46762,-0.63061 0.7462,-0.90924 0.27858,-0.27862 0.58165,-0.52734 0.90922,-0.74621 0.32758,-0.21881 0.67336,-0.40363 1.03733,-0.55445 0.36397,-0.15069 0.73915,-0.26452 1.12555,-0.34137 C 205.21584,770.03839 205.60603,770 206,770 c 0.39395,0 0.78412,0.0384 1.17052,0.11523 0.3864,0.0769 0.76158,0.19068 1.12555,0.34137 0.36396,0.15082 0.70974,0.33564 1.03732,0.55445 0.32756,0.21887 0.63065,0.46759 0.90922,0.74621 0.27855,0.27863 0.52727,0.58167 0.74616,0.90924 0.21889,0.32758 0.4037,0.67334 0.55447,1.0373 0.15078,0.36395 0.26458,0.73913 0.34143,1.12555 0.0769,0.38641 0.11531,0.77667 0.11533,1.17065 z"
       style="fill:#000000;fill-opacity:1;fill-rule:nonzero;stroke:#000000;stroke-width:1;stroke-linecap:butt;stroke-linejoin:miter;stroke-miterlimit:10;stroke-dasharray:none;stroke-opacity:1"
       transform="matrix(0.922123,0,0,0.922123,-120.17274,-703.96301)"
       clip-path="url(#clipPath4)" />
    <text
       id="text4"
       xml:space="preserve"
       transform="matrix(0.922123,0,0,0.922123,5.6826401,18.520335)"
       clip-path="url(#clipPath5)"><tspan
         id="tspan4"
         style="font-variant:normal;font-weight:normal;font-size:12px;font-family:Arial;writing-mode:lr-tb;fill:#000000;fill-opacity:1;fill-rule:nonzero;stroke:none"
         x="0"
         y="0">cdot-label</tspan></text>
  </g>
</svg>
