<?xml version="1.0" encoding="UTF-8" standalone="no"?>
<!-- Created with Inkscape (http://www.inkscape.org/) -->

<svg
   version="1.1"
   id="svg1"
   width="61.439999"
   height="22.719999"
   viewBox="0 0 61.439999 22.719999"
   xmlns="http://www.w3.org/2000/svg"
   xmlns:svg="http://www.w3.org/2000/svg">
  <defs
     id="defs1">
    <clipPath
       clipPathUnits="userSpaceOnUse"
       id="clipPath2">
      <path
         d="M 0,0 H 191.99219 V 72 H 0 Z"
         transform="scale(0.31999999)"
         clip-rule="evenodd"
         id="path2" />
    </clipPath>
    <clipPath
       clipPathUnits="userSpaceOnUse"
       id="clipPath4">
      <path
         d="m 3.125,0 h 187.5 V 71.875 H 3.125 Z"
         transform="matrix(0,0.35284995,-0.35284995,0,93.602644,119.27439)"
         clip-rule="evenodd"
         id="path4" />
    </clipPath>
    <clipPath
       clipPathUnits="userSpaceOnUse"
       id="clipPath5">
      <path
         d="m 3.125,0 h 187.5 V 71.875 H 3.125 Z"
         transform="matrix(0.35284995,0,0,0.35284995,-2.7255936,-12.102657)"
         clip-rule="evenodd"
         id="path5" />
    </clipPath>
  </defs>
  <g
     id="g1">
    <path
       id="path1"
       d="M 0,0 H 61 V 23 H 0 Z"
       style="fill:#ffffff;fill-opacity:1;fill-rule:nonzero;stroke:none"
       clip-path="url(#clipPath2)" />
    <path
       id="path3"
       d="m 76,153 c -8e-6,0.39781 -0.07613,0.78049 -0.228371,1.14803 -0.152244,0.36753 -0.369011,0.69197 -0.650314,0.97328 -0.281303,0.28129 -0.605728,0.49807 -0.973274,0.65031 C 73.780495,155.92386 73.39782,155.99998 73,156 c -0.397835,-2e-5 -0.780518,-0.0761 -1.148056,-0.22838 -0.367546,-0.15224 -0.691963,-0.36902 -0.973267,-0.65031 C 70.597366,154.84 70.380592,154.51556 70.228355,154.14803 70.076111,153.78049 69.999992,153.39781 70,153 c -8e-6,-0.39784 0.07611,-0.78053 0.228355,-1.14807 0.152237,-0.36754 0.369011,-0.69197 0.650322,-0.97327 0.281304,-0.28129 0.605721,-0.49808 0.973267,-0.65031 C 72.219482,150.07611 72.602165,150 73,150 c 0.39782,0 0.780495,0.0761 1.148041,0.22835 0.367546,0.15223 0.691971,0.36902 0.973274,0.65031 0.281303,0.2813 0.49807,0.60573 0.650314,0.97327 C 75.923874,152.21947 75.999992,152.60216 76,153 Z"
       style="fill:#000000;fill-opacity:1;fill-rule:nonzero;stroke:#000000;stroke-width:1;stroke-linecap:butt;stroke-linejoin:miter;stroke-miterlimit:10;stroke-dasharray:none;stroke-opacity:1"
       transform="matrix(0,-0.90690105,0.90690105,0,-108.17007,84.888336)"
       clip-path="url(#clipPath4)" />
    <text
       id="text4"
       xml:space="preserve"
       transform="matrix(0.90690105,0,0,0.90690105,2.4718437,10.975912)"
       clip-path="url(#clipPath5)"><tspan
         id="tspan4"
         style="font-variant:normal;font-weight:normal;font-size:12px;font-family:Arial;writing-mode:lr-tb;fill:#000000;fill-opacity:1;fill-rule:nonzero;stroke:none"
         x="0"
         y="0">(rel-name)?</tspan></text>
  </g>
</svg>
