<?xml version="1.0" encoding="UTF-8" standalone="no"?>
<!-- Created with Inkscape (http://www.inkscape.org/) -->

<svg
   version="1.1"
   id="svg1"
   width="356.16"
   height="28.16"
   viewBox="0 0 356.16 28.16"
   xmlns="http://www.w3.org/2000/svg"
   xmlns:svg="http://www.w3.org/2000/svg">
  <defs
     id="defs1">
    <clipPath
       clipPathUnits="userSpaceOnUse"
       id="clipPath2">
      <path
         d="M 0,0 H 1112.9883 V 87.011719 H 0 Z"
         transform="scale(0.31999999)"
         clip-rule="evenodd"
         id="path2" />
    </clipPath>
    <clipPath
       clipPathUnits="userSpaceOnUse"
       id="clipPath4">
      <path
         d="m 3.125,0 h 1106.25 V 87.011719 H 3.125 Z"
         transform="matrix(0.3370715,0,0,0.3370715,35.822927,233.49998)"
         clip-rule="evenodd"
         id="path4" />
    </clipPath>
    <clipPath
       clipPathUnits="userSpaceOnUse"
       id="clipPath6">
      <path
         d="m 3.125,0 h 1106.25 V 87.011719 H 3.125 Z"
         transform="matrix(0.3370715,0,0,0.3370715,35.822927,233.49998)"
         clip-rule="evenodd"
         id="path6" />
    </clipPath>
    <clipPath
       clipPathUnits="userSpaceOnUse"
       id="clipPath7">
      <path
         d="M 817.85931,17.800415 H 1090.7985 V 77.13501 H 817.85931 Z"
         transform="matrix(0.31999999,0,0,0.31999999,-263.61044,-19.929419)"
         clip-rule="evenodd"
         id="path7" />
    </clipPath>
    <clipPath
       clipPathUnits="userSpaceOnUse"
       id="clipPath8">
      <path
         d="M 19.809067,17.800415 H 384.71678 V 77.13501 H 19.809067 Z"
         transform="matrix(0.31999999,0,0,0.31999999,-7.7510764,-19.929419)"
         clip-rule="evenodd"
         id="path8" />
    </clipPath>
  </defs>
  <g
     id="g1">
    <path
       id="path1"
       d="M 0,0 H 356 V 28 H 0 Z"
       style="fill:#ffffff;fill-opacity:1;fill-rule:nonzero;stroke:none"
       clip-path="url(#clipPath2)" />
    <path
       id="path3"
       d="m 170,250.5 h 3 v 1 h -3 m 6,-1 h 3 v 1 h -3 m 6,-1 h 3 v 1 h -3 m 6,-1 h 3 v 1 h -3 m 6,-1 h 3 v 1 h -3 m 6,-1 h 3 v 1 h -3 m 6,-1 h 3 v 1 h -3 m 6,-1 h 3 v 1 h -3 m 6,-1 h 3 v 1 h -3 m 6,-1 h 3 v 1 h -3 m 6,-1 h 3 v 1 h -3 m 6,-1 h 3 v 1 h -3 m 6,-1 h 3 v 1 h -3 m 6,-1 h 3 v 1 h -3 m 6,-1 h 3 v 1 h -3 m 6,-1 h 3 v 1 h -3 m 6,-1 h 3 v 1 h -3 m 6,-1 h 3 v 1 h -3 m 6,-1 h 3 v 1 h -3 m 6,-1 h 3 v 1 h -3 m 6,-1 h 3 v 1 h -3 m 6,-1 h 3 v 1 h -3 m 6,-1 h 3 v 1 h -3"
       style="fill:#000000;fill-opacity:1;fill-rule:nonzero;stroke:none"
       transform="matrix(0.94935343,0,0,0.94935343,-34.008619,-221.67401)"
       clip-path="url(#clipPath4)" />
    <path
       id="path5"
       d="m 299.88,255.5 9,-4.5 -9,-4.5"
       style="fill:none;stroke:#000000;stroke-width:1;stroke-linecap:butt;stroke-linejoin:miter;stroke-miterlimit:10;stroke-dasharray:none;stroke-opacity:1"
       transform="matrix(0.94935343,0,0,0.94935343,-34.008619,-221.67401)"
       clip-path="url(#clipPath6)" />
    <text
       id="text6"
       xml:space="preserve"
       transform="translate(263.61044,19.929419)"
       clip-path="url(#clipPath7)"><tspan
         id="tspan6"
         style="font-variant:normal;font-weight:normal;font-size:11.39px;font-family:Arial;writing-mode:lr-tb;fill:#000000;fill-opacity:1;fill-rule:nonzero;stroke:none"
         x="0"
         y="0">&amp;element-node</tspan></text>
    <text
       id="text7"
       xml:space="preserve"
       transform="translate(7.7510764,19.929419)"
       clip-path="url(#clipPath8)"><tspan
         id="tspan7"
         style="font-variant:normal;font-weight:normal;font-size:11.39px;font-family:Arial;writing-mode:lr-tb;fill:#000000;fill-opacity:1;fill-rule:nonzero;stroke:none"
         x="0"
         y="0">&amp;n-ary-association-dot</tspan></text>
  </g>
</svg>
