<?xml version="1.0" encoding="UTF-8" standalone="no"?>
<!-- Created with Inkscape (http://www.inkscape.org/) -->

<svg
   version="1.1"
   id="svg1"
   width="517.44"
   height="66.559998"
   viewBox="0 0 517.44 66.559998"
   xmlns="http://www.w3.org/2000/svg"
   xmlns:svg="http://www.w3.org/2000/svg">
  <defs
     id="defs1">
    <clipPath
       clipPathUnits="userSpaceOnUse"
       id="clipPath2">
      <path
         d="M 0,0 H 1616.9922 V 206.98242 H 0 Z"
         transform="scale(0.31999999)"
         clip-rule="evenodd"
         id="path2" />
    </clipPath>
    <clipPath
       clipPathUnits="userSpaceOnUse"
       id="clipPath4">
      <path
         d="m 3.125,0 h 1612.5 V 206.98242 H 3.125 Z"
         transform="matrix(0.33618021,0,0,0.33618021,97.351123,1438.4494)"
         clip-rule="evenodd"
         id="path4" />
    </clipPath>
    <clipPath
       clipPathUnits="userSpaceOnUse"
       id="clipPath5">
      <path
         d="m 3.125,0 h 1612.5 V 206.98242 H 3.125 Z"
         transform="matrix(0.33618021,0,0,0.33618021,-11.102002,-32.050544)"
         clip-rule="evenodd"
         id="path5" />
    </clipPath>
    <clipPath
       clipPathUnits="userSpaceOnUse"
       id="clipPath6">
      <path
         d="m 3.125,0 h 1612.5 V 206.98242 H 3.125 Z"
         transform="matrix(0.33618021,0,0,0.33618021,-362.13326,-20.050544)"
         clip-rule="evenodd"
         id="path6" />
    </clipPath>
    <clipPath
       clipPathUnits="userSpaceOnUse"
       id="clipPath7">
      <path
         d="m 3.125,0 h 1612.5 V 206.98242 H 3.125 Z"
         transform="matrix(0.33618021,0,0,0.33618021,-363.47701,-40.050544)"
         clip-rule="evenodd"
         id="path7" />
    </clipPath>
    <clipPath
       clipPathUnits="userSpaceOnUse"
       id="clipPath8">
      <path
         d="m 3.125,0 h 1612.5 V 206.98242 H 3.125 Z"
         transform="matrix(0.33618021,0,0,0.33618021,-356.46138,-57.050544)"
         clip-rule="evenodd"
         id="path8" />
    </clipPath>
    <clipPath
       clipPathUnits="userSpaceOnUse"
       id="clipPath9">
      <path
         d="m 3.125,0 h 1612.5 V 206.98242 H 3.125 Z"
         transform="matrix(0.33618021,0,0,0.33618021,-454.44576,-30.050544)"
         clip-rule="evenodd"
         id="path9" />
    </clipPath>
  </defs>
  <g
     id="g1">
    <path
       id="path1"
       d="M 0,0 H 517 V 66 H 0 Z"
       style="fill:#ffffff;fill-opacity:1;fill-rule:nonzero;stroke:none"
       clip-path="url(#clipPath2)" />
    <path
       id="path3"
       d="M 523,1466.6899 263,1467"
       style="fill:none;stroke:#000000;stroke-width:1;stroke-linecap:butt;stroke-linejoin:miter;stroke-miterlimit:10;stroke-dasharray:none;stroke-opacity:1"
       transform="matrix(0.95187039,0,0,0.95187039,-92.665651,-1369.2174)"
       clip-path="url(#clipPath4)" />
    <text
       id="text4"
       xml:space="preserve"
       transform="matrix(0.95187039,0,0,0.95187039,10.567667,30.507964)"
       clip-path="url(#clipPath5)"><tspan
         id="tspan4"
         style="font-variant:normal;font-weight:normal;font-size:12px;font-family:Arial;writing-mode:lr-tb;fill:#000000;fill-opacity:1;fill-rule:nonzero;stroke:none"
         x="0"
         y="0">&amp;n-ary-def- connection-dot</tspan></text>
    <text
       id="text5"
       xml:space="preserve"
       transform="matrix(0.95187039,0,0,0.95187039,344.70393,19.085519)"
       clip-path="url(#clipPath6)"><tspan
         id="tspan5"
         style="font-variant:normal;font-weight:normal;font-size:12px;font-family:Arial;writing-mode:lr-tb;fill:#000000;fill-opacity:1;fill-rule:nonzero;stroke:none"
         x="0"
         y="0">rolename</tspan></text>
    <text
       id="text6"
       xml:space="preserve"
       transform="matrix(0.95187039,0,0,0.95187039,345.983,38.122927)"
       clip-path="url(#clipPath7)"><tspan
         id="tspan6"
         style="font-variant:normal;font-weight:normal;font-size:12px;font-family:Arial;writing-mode:lr-tb;fill:#000000;fill-opacity:1;fill-rule:nonzero;stroke:none"
         x="0"
         y="0">multiplicity</tspan></text>
    <text
       id="text7"
       xml:space="preserve"
       transform="matrix(0.95187039,0,0,0.95187039,339.30503,54.304724)"
       clip-path="url(#clipPath8)"><tspan
         id="tspan7"
         style="font-variant:normal;font-weight:normal;font-size:12px;font-family:Arial;writing-mode:lr-tb;fill:#000000;fill-opacity:1;fill-rule:nonzero;stroke:none"
         x="0"
         y="0">c-adornment</tspan></text>
    <text
       id="text8"
       xml:space="preserve"
       transform="matrix(0.95187039,0,0,0.95187039,432.57346,28.604223)"
       clip-path="url(#clipPath9)"><tspan
         id="tspan8"
         style="font-variant:normal;font-weight:normal;font-size:12px;font-family:Arial;writing-mode:lr-tb;fill:#000000;fill-opacity:1;fill-rule:nonzero;stroke:none"
         x="0"
         y="0">&amp;type-node</tspan></text>
  </g>
</svg>
