<?xml version="1.0" encoding="UTF-8" standalone="no"?>
<!-- Created with Inkscape (http://www.inkscape.org/) -->

<svg
   version="1.1"
   id="svg1"
   width="241.27998"
   height="25.279999"
   viewBox="0 0 241.27998 25.279999"
   xmlns="http://www.w3.org/2000/svg"
   xmlns:svg="http://www.w3.org/2000/svg">
  <defs
     id="defs1">
    <clipPath
       clipPathUnits="userSpaceOnUse"
       id="clipPath2">
      <path
         d="M 0,0 H 755 V 77.978516 H 0 Z"
         transform="scale(0.31999999)"
         clip-rule="evenodd"
         id="path2" />
    </clipPath>
    <clipPath
       clipPathUnits="userSpaceOnUse"
       id="clipPath4">
      <path
         d="m 3.125,0 h 750 v 77.978516 h -750 z"
         transform="matrix(0.33801943,0,0,0.33801943,128.8869,-761.00008)"
         clip-rule="evenodd"
         id="path4" />
    </clipPath>
    <clipPath
       clipPathUnits="userSpaceOnUse"
       id="clipPath6">
      <path
         d="m 3.125,0 h 750 v 77.978516 h -750 z"
         transform="matrix(0.33801943,0,0,0.33801943,128.8869,-761.00008)"
         clip-rule="evenodd"
         id="path6" />
    </clipPath>
    <clipPath
       clipPathUnits="userSpaceOnUse"
       id="clipPath7">
      <path
         d="m 3.125,0 h 750 v 77.978516 h -750 z"
         transform="matrix(0.33801943,0,0,0.33801943,-165.2381,-15.499982)"
         clip-rule="evenodd"
         id="path7" />
    </clipPath>
    <clipPath
       clipPathUnits="userSpaceOnUse"
       id="clipPath8">
      <path
         d="m 3.125,0 h 750 v 77.978516 h -750 z"
         transform="matrix(0.33801943,0,0,0.33801943,-5.2537226,-15.499982)"
         clip-rule="evenodd"
         id="path8" />
    </clipPath>
  </defs>
  <g
     id="g1">
    <path
       id="path1"
       d="M 0,0 H 242 V 25 H 0 Z"
       style="fill:#ffffff;fill-opacity:1;fill-rule:nonzero;stroke:none"
       clip-path="url(#clipPath2)" />
    <path
       id="path3"
       d="M 213.49001,-749 H 291.5"
       style="fill:none;stroke:#000000;stroke-width:1;stroke-linecap:butt;stroke-linejoin:miter;stroke-miterlimit:10;stroke-dasharray:none;stroke-opacity:1"
       transform="matrix(0.9466911,0,0,0.9466911,-122.01608,720.432)"
       clip-path="url(#clipPath4)" />
    <path
       id="path5"
       d="m 202.49001,-749 5.5,-3.23999 5.5,3.23999 -5.5,3.23999 z"
       style="fill:none;stroke:#000000;stroke-width:1;stroke-linecap:butt;stroke-linejoin:miter;stroke-miterlimit:10;stroke-dasharray:none;stroke-opacity:1"
       transform="matrix(0.9466911,0,0,0.9466911,-122.01608,720.432)"
       clip-path="url(#clipPath6)" />
    <g
       id="g6" />
    <text
       id="text6"
       xml:space="preserve"
       transform="matrix(0.9466911,0,0,0.9466911,156.42944,14.673695)"
       clip-path="url(#clipPath7)"><tspan
         id="tspan6"
         style="font-variant:normal;font-weight:normal;font-size:12px;font-family:Arial;writing-mode:lr-tb;fill:#000000;fill-opacity:1;fill-rule:nonzero;stroke:none"
         x="0"
         y="0">&amp;usage-node </tspan></text>
    <g
       id="g7" />
    <text
       id="text7"
       xml:space="preserve"
       transform="matrix(0.9466911,0,0,0.9466911,4.9736524,14.673695)"
       clip-path="url(#clipPath8)"><tspan
         id="tspan7"
         style="font-variant:normal;font-weight:normal;font-size:12px;font-family:Arial;writing-mode:lr-tb;fill:#000000;fill-opacity:1;fill-rule:nonzero;stroke:none"
         x="0"
         y="0">&amp;type-node </tspan></text>
  </g>
</svg>
