<?xml version="1.0" encoding="UTF-8" standalone="no"?>
<!-- Created with Inkscape (http://www.inkscape.org/) -->

<svg
   version="1.1"
   id="svg1"
   width="212.15999"
   height="89.279999"
   viewBox="0 0 212.15999 89.279999"
   xmlns="http://www.w3.org/2000/svg"
   xmlns:svg="http://www.w3.org/2000/svg">
  <defs
     id="defs1">
    <clipPath
       clipPathUnits="userSpaceOnUse"
       id="clipPath2">
      <path
         d="M 0,0 H 662.98828 V 279.00391 H 0 Z"
         transform="scale(0.31999999)"
         clip-rule="evenodd"
         id="path2" />
    </clipPath>
    <clipPath
       clipPathUnits="userSpaceOnUse"
       id="clipPath4">
      <path
         d="m 3.125,0 h 656.25 V 278.125 H 3.125 Z"
         transform="matrix(0.33907284,0,0,0.33907284,398.875,239.94039)"
         clip-rule="evenodd"
         id="path4" />
    </clipPath>
    <clipPath
       clipPathUnits="userSpaceOnUse"
       id="clipPath5">
      <path
         d="m 3.125,0 h 656.25 V 278.125 H 3.125 Z"
         transform="matrix(0.33907284,0,0,0.33907284,-27.921886,-19.559606)"
         clip-rule="evenodd"
         id="path5" />
    </clipPath>
    <clipPath
       clipPathUnits="userSpaceOnUse"
       id="clipPath6">
      <path
         d="m 3.125,0 h 656.25 V 278.125 H 3.125 Z"
         transform="matrix(0.33907284,0,0,0.33907284,-71.593756,-48.559606)"
         clip-rule="evenodd"
         id="path6" />
    </clipPath>
    <clipPath
       clipPathUnits="userSpaceOnUse"
       id="clipPath7">
      <path
         d="m 3.125,0 h 656.25 V 278.125 H 3.125 Z"
         transform="matrix(0.33907284,0,0,0.33907284,-60.609386,-77.559605)"
         clip-rule="evenodd"
         id="path7" />
    </clipPath>
  </defs>
  <g
     id="g1">
    <path
       id="path1"
       d="M 0,0 H 212 V 89 H 0 Z"
       style="fill:#ffffff;fill-opacity:1;fill-rule:nonzero;stroke:none"
       clip-path="url(#clipPath2)" />
    <path
       id="path3"
       d="m 415.5,242 h 191.25 c 0.88641,0 1.76428,0.0865 2.63367,0.25938 0.86938,0.17293 1.71356,0.42901 2.53247,0.76822 0.81897,0.33922 1.59698,0.75505 2.33398,1.24753 0.737,0.49248 1.41895,1.05211 2.04578,1.67891 0.62677,0.62679 1.1864,1.30869 1.67889,2.04573 0.4925,0.73702 0.90833,1.51502 1.24756,2.33397 0.33923,0.81895 0.59534,1.66312 0.76825,2.53252 0.17291,0.8694 0.25934,1.74731 0.2594,2.63374 v 63 c -6e-5,0.88641 -0.0865,1.76431 -0.2594,2.6337 -0.17291,0.86941 -0.42902,1.71356 -0.76825,2.5325 -0.33923,0.81894 -0.75506,1.59692 -1.24756,2.33395 -0.49249,0.73703 -1.05212,1.41898 -1.67889,2.04578 -0.62683,0.6268 -1.30878,1.1864 -2.04578,1.67886 -0.737,0.49246 -1.51501,0.90833 -2.33398,1.24756 -0.81891,0.3392 -1.66309,0.59528 -2.53247,0.76822 C 608.51428,331.91351 607.63641,332 606.75,332 H 415.5 c -0.88644,0 -1.76434,-0.0865 -2.63373,-0.25943 -0.86941,-0.17294 -1.71359,-0.42902 -2.53253,-0.76822 -0.81894,-0.33923 -1.59689,-0.75506 -2.33392,-1.24753 -0.73706,-0.49246 -1.41898,-1.05209 -2.04578,-1.67889 -0.6268,-0.6268 -1.18643,-1.30875 -1.67892,-2.04578 -0.49247,-0.73703 -0.90833,-1.51501 -1.24753,-2.33395 -0.33924,-0.81894 -0.59531,-1.66309 -0.76822,-2.5325 -0.17294,-0.86939 -0.2594,-1.74729 -0.25937,-2.6337 v -63 c -3e-5,-0.88643 0.0864,-1.76434 0.25937,-2.63374 0.17291,-0.8694 0.42898,-1.71357 0.76822,-2.53252 0.3392,-0.81895 0.75506,-1.59695 1.24753,-2.33398 0.49249,-0.73703 1.05212,-1.41893 1.67892,-2.04572 0.6268,-0.6268 1.30872,-1.18643 2.04575,-1.67891 0.73703,-0.49248 1.51501,-0.90831 2.33395,-1.24753 0.81894,-0.33921 1.66312,-0.59527 2.53253,-0.7682 C 413.73566,242.08647 414.61356,242 415.5,242 Z"
       style="fill:none;stroke:#000000;stroke-width:1;stroke-linecap:butt;stroke-linejoin:miter;stroke-miterlimit:10;stroke-dasharray:none;stroke-opacity:1"
       transform="matrix(0.94374998,0,0,0.94374998,-376.43827,-226.44374)"
       clip-path="url(#clipPath4)" />
    <text
       id="text4"
       xml:space="preserve"
       transform="matrix(0.94374998,0,0,0.94374998,26.351279,18.459378)"
       clip-path="url(#clipPath5)"><tspan
         id="tspan4"
         style="font-variant:normal;font-weight:normal;font-size:12px;font-family:Arial;writing-mode:lr-tb;fill:#000000;fill-opacity:1;fill-rule:nonzero;stroke:none"
         x="0"
         y="0">occurrence-name-compartment</tspan></text>
    <text
       id="text5"
       xml:space="preserve"
       transform="matrix(0.94374998,0,0,0.94374998,67.566606,45.828127)"
       clip-path="url(#clipPath6)"><tspan
         id="tspan5"
         style="font-variant:normal;font-weight:normal;font-size:12px;font-family:Arial;writing-mode:lr-tb;fill:#000000;fill-opacity:1;fill-rule:nonzero;stroke:none"
         x="0"
         y="0">sequence-view</tspan></text>
    <text
       id="text6"
       xml:space="preserve"
       transform="matrix(0.94374998,0,0,0.94374998,57.200107,73.196876)"
       clip-path="url(#clipPath7)"><tspan
         id="tspan6"
         style="font-variant:normal;font-weight:normal;font-size:12px;font-family:Arial;writing-mode:lr-tb;fill:#000000;fill-opacity:1;fill-rule:nonzero;stroke:none"
         x="0"
         y="0">compartment-stack</tspan></text>
  </g>
</svg>
