<?xml version="1.0" encoding="UTF-8" standalone="no"?>
<!-- Created with Inkscape (http://www.inkscape.org/) -->

<svg
   version="1.1"
   id="svg1"
   width="212.15999"
   height="89.279999"
   viewBox="0 0 212.15999 89.279999"
   xmlns="http://www.w3.org/2000/svg"
   xmlns:svg="http://www.w3.org/2000/svg">
  <defs
     id="defs1">
    <clipPath
       clipPathUnits="userSpaceOnUse"
       id="clipPath2">
      <path
         d="M 0,0 H 662.98828 V 279.00391 H 0 Z"
         transform="scale(0.31999999)"
         clip-rule="evenodd"
         id="path2" />
    </clipPath>
    <clipPath
       clipPathUnits="userSpaceOnUse"
       id="clipPath4">
      <path
         d="m 3.125,0 h 656.25 V 278.125 H 3.125 Z"
         transform="matrix(0.33907284,0,0,0.33907284,666.875,239.94039)"
         clip-rule="evenodd"
         id="path4" />
    </clipPath>
    <clipPath
       clipPathUnits="userSpaceOnUse"
       id="clipPath5">
      <path
         d="m 3.125,0 h 656.25 V 278.125 H 3.125 Z"
         transform="matrix(0.33907284,0,0,0.33907284,-27.921879,-19.559606)"
         clip-rule="evenodd"
         id="path5" />
    </clipPath>
    <clipPath
       clipPathUnits="userSpaceOnUse"
       id="clipPath6">
      <path
         d="m 3.125,0 h 656.25 V 278.125 H 3.125 Z"
         transform="matrix(0.33907284,0,0,0.33907284,-71.593749,-48.559606)"
         clip-rule="evenodd"
         id="path6" />
    </clipPath>
    <clipPath
       clipPathUnits="userSpaceOnUse"
       id="clipPath7">
      <path
         d="m 3.125,0 h 656.25 V 278.125 H 3.125 Z"
         transform="matrix(0.33907284,0,0,0.33907284,-60.609379,-77.559605)"
         clip-rule="evenodd"
         id="path7" />
    </clipPath>
  </defs>
  <g
     id="g1">
    <path
       id="path1"
       d="M 0,0 H 212 V 89 H 0 Z"
       style="fill:#ffffff;fill-opacity:1;fill-rule:nonzero;stroke:none"
       clip-path="url(#clipPath2)" />
    <path
       id="path3"
       d="m 689.5,241.5 h 3 v 1 h -3 z m 6,0 h 3 v 1 h -3 z m 6,0 h 3 v 1 h -3 z m 6,0 h 3 v 1 h -3 z m 6,0 h 3 v 1 h -3 z m 6,0 h 3 v 1 h -3 z m 6,0 h 3 v 1 h -3 z m 6,0 h 3 v 1 h -3 z m 6,0 h 3 v 1 h -3 z m 6,0 h 3 v 1 h -3 z m 6,0 h 3 v 1 h -3 z m 6,0 h 3 v 1 h -3 z m 6,0 h 3 v 1 h -3 z m 6,0 h 3 v 1 h -3 z m 6,0 h 3 v 1 h -3 z m 6,0 h 3 v 1 h -3 z m 6,0 h 3 v 1 h -3 z m 6,0 h 3 v 1 h -3 z m 6,0 h 3 v 1 h -3 z m 6,0 h 3 v 1 h -3 z m 6,0 h 3 v 1 h -3 z m 6,0 h 3 v 1 h -3 z m 6,0 h 3 v 1 h -3 z m 6,0 h 3 v 1 h -3 z m 6,0 h 3 v 1 h -3 z m 6,0 h 3 v 1 h -3 z m 6,0 h 3 v 1 h -3 z m 6,0 h 3 v 1 h -3 z m 6,0 h 3 v 1 h -3 z m 6,0 h 3 v 1 h -3 z m 6,0 h 3 v 1 h -3 z m 5.99139,0.0197 c 1.04059,0.0552 2.06232,0.22446 3.06525,0.5078 l -0.27185,0.96234 c -0.93134,-0.26312 -1.88013,-0.4203 -2.84637,-0.47154 l 0.053,-0.9986 z m 5.98334,1.70119 c 0.92493,0.50656 1.78168,1.10991 2.57031,1.81006 l -0.66394,0.7478 c -0.7323,-0.65016 -1.52789,-1.21042 -2.38672,-1.68078 z m 4.68421,4.16524 c 0.60369,0.84898 1.10644,1.75409 1.50824,2.71533 l -0.92261,0.38565 c -0.37311,-0.89259 -0.83997,-1.73309 -1.40058,-2.52148 z m 2.39556,5.78242 c 0.13031,0.77162 0.19544,1.54877 0.1955,2.33147 v 0.68094 h -1 v -0.68088 c -6e-5,-0.72667 -0.0606,-1.44833 -0.18158,-2.16502 z m 0.1955,6.01241 v 3 h -1 v -3 z m 0,6 v 3 h -1 v -3 z m 0,6 v 3 h -1 v -3 z m 0,6 v 3 h -1 v -3 z m 0,6 v 3 h -1 v -3 z m 0,6 v 3 h -1 v -3 z m 0,6 v 3 h -1 v -3 z m 0,6 v 3 h -1 v -3 z m 0,6 v 3 h -1 v -3 z m 0,6 v 3 h -1 v -3 z m -0.0162,5.99151 c -0.0499,1.0391 -0.21369,2.06003 -0.49128,3.06281 l -0.96374,-0.26679 c 0.25775,-0.93093 0.40979,-1.87893 0.45611,-2.84399 l 0.99891,0.048 z m -1.67041,5.98941 c -0.50153,0.9271 -1.10022,1.7866 -1.79602,2.5785 l -0.75123,-0.66004 c 0.64606,-0.73535 1.20197,-1.53345 1.66773,-2.39429 z m -4.14032,4.70484 c -0.84632,0.60861 -1.74958,1.11636 -2.70972,1.52325 l -0.39014,-0.92071 c 0.8913,-0.37772 1.72998,-0.84918 2.51599,-1.41443 z m -5.7707,2.42566 C 876.35754,332.43079 875.55676,332.5 874.75,332.5 h -0.61182 v -1 H 874.75 c 0.74915,0 1.49274,-0.0643 2.23077,-0.19284 l 0.17163,0.98517 z m -6.01422,0.20767 h -3 v -1 h 3 z m -6,0 h -3 v -1 h 3 z m -6,0 h -3 v -1 h 3 z m -6,0 h -3 v -1 h 3 z m -6,0 h -3 v -1 h 3 z m -6,0 h -3 v -1 h 3 z m -6,0 h -3 v -1 h 3 z m -6,0 h -3 v -1 h 3 z m -6,0 h -3 v -1 h 3 z m -6,0 h -3 v -1 h 3 z m -6,0 h -3 v -1 h 3 z m -6,0 h -3 v -1 h 3 z m -6,0 h -3 v -1 h 3 z m -6,0 h -3 v -1 h 3 z m -6,0 h -3 v -1 h 3 z m -6,0 h -3 v -1 h 3 z m -6,0 h -3 v -1 h 3 z m -6,0 h -3 v -1 h 3 z m -6,0 h -3 v -1 h 3 z m -6,0 h -3 v -1 h 3 z m -6,0 h -3 v -1 h 3 z m -6,0 h -3 v -1 h 3 z m -6,0 h -3 v -1 h 3 z m -6,0 h -3 v -1 h 3 z m -6,0 h -3 v -1 h 3 z m -6,0 h -3 v -1 h 3 z m -6,0 h -3 v -1 h 3 z m -6,0 h -3 v -1 h 3 z m -6,0 h -3 v -1 h 3 z m -6,0 h -3 v -1 h 3 z m -6,0 h -3 v -1 h 3 z m -6,0 h -1.63818 c -0.45319,0 -0.90521,-0.0219 -1.35608,-0.0659 l 0.0969,-0.9953 c 0.41877,0.0408 0.83844,0.0612 1.25916,0.0612 h 1.63818 v 1 z m -6.07611,-0.72202 c -0.99548,-0.3327 -1.94159,-0.77182 -2.83832,-1.31738 l 0.51978,-0.85431 c 0.8327,0.50656 1.71118,0.91434 2.63556,1.22327 z m -5.33124,-3.2499 c -0.75909,-0.73954 -1.42565,-1.55478 -1.99969,-2.44568 l 0.84058,-0.54163 c 0.53302,0.82727 1.15197,1.58426 1.85687,2.271 z m -3.38476,-5.23493 c -0.36456,-1.0007 -0.61182,-2.0296 -0.7417,-3.0867 l 0.99255,-0.12195 c 0.12061,0.98166 0.35016,1.93711 0.68872,2.86631 z m -0.84607,-6.08584 v -3 h 1 v 3 z m 0,-6 v -3 h 1 v 3 z m 0,-6 v -3 h 1 v 3 z m 0,-6 v -3 h 1 v 3 z m 0,-6 v -3 h 1 v 3 z m 0,-6.00003 v -3 h 1 v 3 z m 0,-6 v -3 h 1 v 3 z m 0,-6 v -3 h 1 v 3 z m 0,-6 v -3 h 1 v 3 z m 0,-6 v -3 h 1 v 3 z m 0,-6 v -1.70728 c 0,-0.42947 0.0197,-0.85822 0.0592,-1.28621 l 0.99573,0.0918 c -0.0366,0.39711 -0.0549,0.79524 -0.0549,1.19438 v 1.70728 h -1 z m 0.69843,-6.07392 c 0.32769,-0.99821 0.7622,-1.94751 1.30365,-2.8479 l 0.85693,0.51535 c -0.50275,0.83606 -0.90625,1.71755 -1.21051,2.64444 z m 3.22265,-5.35014 c 0.73584,-0.76317 1.54773,-1.4341 2.43573,-2.01276 l 0.54602,0.8378 c -0.82477,0.53745 -1.57873,1.16046 -2.2619,1.86905 z m 5.21485,-3.41104 c 1.00018,-0.37062 2.02929,-0.62361 3.08728,-0.75898 l 0.12695,0.99192 c -0.98255,0.1257 -1.93817,0.36061 -2.86682,0.70474 z M 683.5,241.5 h 3 v 1 h -3 z"
       style="fill:#000000;fill-opacity:1;fill-rule:nonzero;stroke:none"
       transform="matrix(0.94374998,0,0,0.94374998,-629.36327,-226.44374)"
       clip-path="url(#clipPath4)" />
    <text
       id="text4"
       xml:space="preserve"
       transform="matrix(0.94374998,0,0,0.94374998,26.351273,18.459378)"
       clip-path="url(#clipPath5)"><tspan
         id="tspan4"
         style="font-variant:normal;font-weight:normal;font-size:12px;font-family:Arial;writing-mode:lr-tb;fill:#000000;fill-opacity:1;fill-rule:nonzero;stroke:none"
         x="0"
         y="0">occurrence-name-compartment</tspan></text>
    <text
       id="text5"
       xml:space="preserve"
       transform="matrix(0.94374998,0,0,0.94374998,67.566599,45.828127)"
       clip-path="url(#clipPath6)"><tspan
         id="tspan5"
         style="font-variant:normal;font-weight:normal;font-size:12px;font-family:Arial;writing-mode:lr-tb;fill:#000000;fill-opacity:1;fill-rule:nonzero;stroke:none"
         x="0"
         y="0">sequence-view</tspan></text>
    <text
       id="text6"
       xml:space="preserve"
       transform="matrix(0.94374998,0,0,0.94374998,57.2001,73.196876)"
       clip-path="url(#clipPath7)"><tspan
         id="tspan6"
         style="font-variant:normal;font-weight:normal;font-size:12px;font-family:Arial;writing-mode:lr-tb;fill:#000000;fill-opacity:1;fill-rule:nonzero;stroke:none"
         x="0"
         y="0">compartment-stack</tspan></text>
  </g>
</svg>
