<?xml version="1.0" encoding="UTF-8" standalone="no"?>
<!-- Created with Inkscape (http://www.inkscape.org/) -->

<svg
   version="1.1"
   id="svg1"
   width="289.28"
   height="29.440001"
   viewBox="0 0 289.28 29.440001"
   xmlns="http://www.w3.org/2000/svg"
   xmlns:svg="http://www.w3.org/2000/svg">
  <defs
     id="defs1">
    <clipPath
       clipPathUnits="userSpaceOnUse"
       id="clipPath2">
      <path
         d="M 0,0 H 905 V 89.990234 H 0 Z"
         transform="scale(0.31999999)"
         clip-rule="evenodd"
         id="path2" />
    </clipPath>
    <clipPath
       clipPathUnits="userSpaceOnUse"
       id="clipPath3">
      <path
         d="M 6.25,8.8466797 H 342.82947 V 89.990235 H 6.25 Z"
         transform="matrix(0.31999999,0,0,0.31999999,-7.8158191,-15.084497)"
         clip-rule="evenodd"
         id="path3" />
    </clipPath>
    <clipPath
       clipPathUnits="userSpaceOnUse"
       id="clipPath4">
      <path
         d="M 617.07703,8.8466797 H 894.27344 V 89.990235 H 617.07703 Z"
         transform="matrix(0.31999999,0,0,0.31999999,-203.42517,-15.084497)"
         clip-rule="evenodd"
         id="path4" />
    </clipPath>
    <clipPath
       clipPathUnits="userSpaceOnUse"
       id="clipPath6">
      <path
         d="M 6.25,0 H 900 V 89.990234 H 6.25 Z"
         transform="matrix(0.33910966,0,0,0.33910966,76.243215,519.49998)"
         clip-rule="evenodd"
         id="path6" />
    </clipPath>
    <clipPath
       clipPathUnits="userSpaceOnUse"
       id="clipPath8">
      <path
         d="M 6.25,0 H 900 V 89.990234 H 6.25 Z"
         transform="matrix(0.33910966,0,0,0.33910966,76.243215,519.49998)"
         clip-rule="evenodd"
         id="path8" />
    </clipPath>
    <clipPath
       clipPathUnits="userSpaceOnUse"
       id="clipPath10">
      <path
         d="M 6.25,0 H 900 V 89.990234 H 6.25 Z"
         transform="matrix(0.33910966,0,0,0.33910966,76.243215,519.49998)"
         clip-rule="evenodd"
         id="path10" />
    </clipPath>
  </defs>
  <g
     id="g1">
    <path
       id="path1"
       d="M 0,0 H 290 V 29 H 0 Z"
       style="fill:#ffffff;fill-opacity:1;fill-rule:nonzero;stroke:none"
       clip-path="url(#clipPath2)" />
    <text
       id="text2"
       xml:space="preserve"
       transform="translate(7.8158191,15.084497)"
       clip-path="url(#clipPath3)"><tspan
         id="tspan2"
         style="font-variant:normal;font-weight:normal;font-size:11.32px;font-family:Arial;writing-mode:lr-tb;fill:#000000;fill-opacity:1;fill-rule:nonzero;stroke:none"
         x="0"
         y="0">&amp;namespace-node</tspan></text>
    <text
       id="text3"
       xml:space="preserve"
       transform="translate(203.42517,15.084497)"
       clip-path="url(#clipPath4)"><tspan
         id="tspan3"
         style="font-variant:normal;font-weight:normal;font-size:11.32px;font-family:Arial;writing-mode:lr-tb;fill:#000000;fill-opacity:1;fill-rule:nonzero;stroke:none"
         x="0"
         y="0">&amp;element-node</tspan></text>
    <path
       id="path5"
       d="m 205,532 h 80"
       style="fill:none;stroke:#000000;stroke-width:1;stroke-linecap:butt;stroke-linejoin:miter;stroke-miterlimit:10;stroke-dasharray:none;stroke-opacity:1"
       transform="matrix(0.94364751,0,0,0.94364751,-71.94672,-490.22486)"
       clip-path="url(#clipPath6)" />
    <path
       id="path7"
       d="m 205,532 c -2e-5,0.45959 -0.0448,0.91479 -0.13451,1.3656 -0.0897,0.45081 -0.22245,0.88855 -0.39834,1.31317 -0.17589,0.42462 -0.39151,0.828 -0.64687,1.21015 -0.25535,0.3822 -0.54553,0.73577 -0.87053,1.06079 -0.32499,0.32501 -0.67859,0.61517 -1.06076,0.87048 -0.38217,0.25543 -0.78558,0.47107 -1.21022,0.64691 -0.42463,0.17591 -0.86236,0.30872 -1.31315,0.39838 C 198.91483,538.95514 198.45961,539 198,539 c -0.45964,0 -0.91486,-0.0449 -1.36566,-0.13452 -0.45081,-0.0897 -0.88852,-0.22247 -1.31316,-0.39838 -0.42465,-0.17584 -0.82806,-0.39148 -1.21022,-0.64691 -0.38215,-0.25531 -0.73573,-0.54547 -1.06073,-0.87048 -0.325,-0.32502 -0.61519,-0.67859 -0.87056,-1.06079 -0.25535,-0.38215 -0.47098,-0.78553 -0.64686,-1.21015 -0.17589,-0.42462 -0.30866,-0.86236 -0.39833,-1.31317 -0.0897,-0.45081 -0.1345,-0.90601 -0.13448,-1.3656 -2e-5,-0.45966 0.0448,-0.91486 0.13448,-1.36566 0.0897,-0.45081 0.22244,-0.88855 0.39833,-1.31317 0.17588,-0.42462 0.39151,-0.82807 0.64686,-1.21021 0.25537,-0.38214 0.54556,-0.73572 0.87056,-1.06073 0.325,-0.32501 0.67859,-0.61523 1.06075,-0.8706 0.38215,-0.25531 0.78557,-0.47095 1.21022,-0.64685 0.42462,-0.17585 0.86233,-0.3086 1.31314,-0.39826 0.4508,-0.0897 0.90602,-0.13446 1.36566,-0.13452 0.45961,6e-5 0.91483,0.0449 1.36562,0.13452 0.45079,0.0897 0.88852,0.22241 1.31315,0.39826 0.42464,0.1759 0.82805,0.39154 1.21024,0.64691 0.38215,0.25531 0.73575,0.54553 1.06074,0.87054 0.325,0.32501 0.61518,0.67859 0.87052,1.06073 0.25535,0.38214 0.47097,0.78559 0.64686,1.21021 0.17591,0.42462 0.30869,0.86236 0.39836,1.31317 0.0897,0.4508 0.13449,0.906 0.13451,1.36566 z"
       style="fill:none;stroke:#000000;stroke-width:1;stroke-linecap:butt;stroke-linejoin:miter;stroke-miterlimit:10;stroke-dasharray:none;stroke-opacity:1"
       transform="matrix(0.94364751,0,0,0.94364751,-71.94672,-490.22486)"
       clip-path="url(#clipPath8)" />
    <path
       id="path9"
       d="m 191,532 h 14 m -7,-7 v 14"
       style="fill:none;stroke:#000000;stroke-width:1;stroke-linecap:butt;stroke-linejoin:miter;stroke-miterlimit:10;stroke-dasharray:none;stroke-opacity:1"
       transform="matrix(0.94364751,0,0,0.94364751,-71.94672,-490.22486)"
       clip-path="url(#clipPath10)" />
  </g>
</svg>
