<?xml version="1.0" encoding="UTF-8" standalone="no"?>
<!-- Created with Inkscape (http://www.inkscape.org/) -->

<svg
   version="1.1"
   id="svg1"
   width="146.56"
   height="58.559998"
   viewBox="0 0 146.56 58.559998"
   xmlns="http://www.w3.org/2000/svg"
   xmlns:svg="http://www.w3.org/2000/svg">
  <defs
     id="defs1">
    <clipPath
       clipPathUnits="userSpaceOnUse"
       id="clipPath2">
      <path
         d="M 0,0 H 458.98438 V 183.00781 H 0 Z"
         transform="scale(0.31999999)"
         clip-rule="evenodd"
         id="path2" />
    </clipPath>
    <clipPath
       clipPathUnits="userSpaceOnUse"
       id="clipPath4">
      <path
         d="M 3.125,0 H 456.25 V 183.00781 H 3.125 Z"
         transform="matrix(0,-0.34338059,0.34338059,0,671.92701,2365.1539)"
         clip-rule="evenodd"
         id="path4" />
    </clipPath>
    <clipPath
       clipPathUnits="userSpaceOnUse"
       id="clipPath6">
      <path
         d="M 3.125,0 H 456.25 V 183.00781 H 3.125 Z"
         transform="matrix(0.34338059,0,0,0.34338059,629.3462,2259.4269)"
         clip-rule="evenodd"
         id="path6" />
    </clipPath>
    <clipPath
       clipPathUnits="userSpaceOnUse"
       id="clipPath7">
      <path
         d="M 3.125,0 H 456.25 V 183.00781 H 3.125 Z"
         transform="matrix(0.34338059,0,0,0.34338059,-36.966302,-34.573147)"
         clip-rule="evenodd"
         id="path7" />
    </clipPath>
    <clipPath
       clipPathUnits="userSpaceOnUse"
       id="clipPath9">
      <path
         d="M 3.125,0 H 456.25 V 183.00781 H 3.125 Z"
         transform="matrix(0,0.34338059,-0.34338059,0,775.07304,2175.8462)"
         clip-rule="evenodd"
         id="path9" />
    </clipPath>
    <clipPath
       clipPathUnits="userSpaceOnUse"
       id="clipPath10">
      <path
         d="M 3.125,0 H 456.25 V 183.00781 H 3.125 Z"
         transform="matrix(0,0.34338059,-0.34338059,0,40.760541,-119.1538)"
         clip-rule="evenodd"
         id="path10" />
    </clipPath>
    <clipPath
       clipPathUnits="userSpaceOnUse"
       id="clipPath12">
      <path
         d="M 3.125,0 H 456.25 V 183.00781 H 3.125 Z"
         transform="matrix(0.34338059,0,0,0.34338059,628.84623,2258.9271)"
         clip-rule="evenodd"
         id="path12" />
    </clipPath>
  </defs>
  <g
     id="g1">
    <path
       id="path1"
       d="M 0,0 H 147 V 59 H 0 Z"
       style="fill:#ffffff;fill-opacity:1;fill-rule:nonzero;stroke:none"
       clip-path="url(#clipPath2)" />
    <path
       id="path3"
       d="m 687.75,2239 h 31.5 c 0.44318,0 0.88208,0.043 1.31677,0.1296 0.43476,0.087 0.85681,0.2146 1.2663,0.3841 0.40948,0.1696 0.79846,0.3774 1.16693,0.6235 0.36847,0.2463 0.70947,0.5264 1.02289,0.8396 0.31335,0.3135 0.59314,0.6543 0.83941,1.0227 0.24622,0.3684 0.45417,0.7576 0.62378,1.167 0.16962,0.4097 0.29767,0.8318 0.38416,1.2664 0.0865,0.4348 0.1297,0.8737 0.12976,1.3171 v 89.5 c -6e-5,0.4431 -0.0433,0.8818 -0.12976,1.3167 -0.0865,0.4345 -0.21454,0.8566 -0.38409,1.2661 -0.16962,0.4094 -0.37757,0.7983 -0.62385,1.167 -0.24627,0.3684 -0.52606,0.7094 -0.83941,1.0229 -0.31342,0.3132 -0.65442,0.593 -1.02289,0.8394 -0.36853,0.2461 -0.75751,0.4541 -1.16699,0.6237 -0.40949,0.1697 -0.83155,0.2976 -1.26624,0.3843 -0.43469,0.087 -0.87359,0.1299 -1.31677,0.1299 h -31.5 c -0.44324,0 -0.8822,-0.043 -1.31696,-0.1299 -0.43463,-0.087 -0.85675,-0.2146 -1.26623,-0.3843 -0.40949,-0.1696 -0.79852,-0.3776 -1.16699,-0.6237 -0.36847,-0.2464 -0.70941,-0.5262 -1.02283,-0.8394 -0.31342,-0.3135 -0.5932,-0.6545 -0.83948,-1.0229 -0.24627,-0.3687 -0.45416,-0.7576 -0.62378,-1.167 -0.16961,-0.4095 -0.29767,-0.8316 -0.38415,-1.2661 -0.0864,-0.4349 -0.12964,-0.8736 -0.12958,-1.3167 v -89.5 c -6e-5,-0.4434 0.0431,-0.8823 0.12958,-1.3171 0.0865,-0.4346 0.21454,-0.8567 0.38415,-1.2664 0.16962,-0.4094 0.37751,-0.7986 0.62378,-1.167 0.24628,-0.3684 0.52606,-0.7092 0.83948,-1.0227 0.31342,-0.3132 0.65436,-0.5933 1.02283,-0.8396 0.36847,-0.2461 0.7575,-0.4539 1.16699,-0.6235 0.40948,-0.1695 0.8316,-0.2974 1.26623,-0.3841 0.43476,-0.086 0.87372,-0.1296 1.31696,-0.1296 z"
       style="fill:#ffffff;fill-opacity:1;fill-rule:nonzero;stroke:#000000;stroke-width:1;stroke-linecap:butt;stroke-linejoin:miter;stroke-miterlimit:10;stroke-dasharray:none;stroke-opacity:1"
       transform="matrix(0,0.93191052,-0.93191052,0,2204.1118,-626.17585)"
       clip-path="url(#clipPath4)" />
    <path
       id="path5"
       d="m 666,2283 h 64 v 15 h -64 z"
       style="fill:#ffffff;fill-opacity:1;fill-rule:nonzero;stroke:none"
       transform="matrix(0.93191052,0,0,0.93191052,-586.49434,-2105.5837)"
       clip-path="url(#clipPath6)" />
    <text
       id="text6"
       xml:space="preserve"
       transform="matrix(0.93191052,0,0,0.93191052,34.449286,32.219079)"
       clip-path="url(#clipPath7)"><tspan
         id="tspan6"
         style="font-variant:normal;font-weight:normal;font-size:12px;font-family:Arial;writing-mode:lr-tb;fill:#000000;fill-opacity:1;fill-rule:nonzero;stroke:none"
         x="0"
         y="0">param-label</tspan></text>
    <path
       id="path8"
       d="m 734,2284 h 20 v 15 h -20 z"
       style="fill:#ffffff;fill-opacity:1;fill-rule:nonzero;stroke:none"
       transform="matrix(0,-0.93191052,0.93191052,0,-2027.694,722.29872)"
       clip-path="url(#clipPath9)" />
    <text
       id="text9"
       xml:space="preserve"
       transform="matrix(0,-0.93191052,0.93191052,0,111.04068,37.985177)"
       clip-path="url(#clipPath10)"><tspan
         id="tspan9"
         style="font-variant:normal;font-weight:normal;font-size:12px;font-family:Arial;writing-mode:lr-tb;fill:#000000;fill-opacity:1;fill-rule:nonzero;stroke:none"
         x="0"
         y="0">pdv</tspan></text>
    <path
       id="path11"
       d="M 632,2313 H 782"
       style="fill:none;stroke:#000000;stroke-width:1;stroke-linecap:butt;stroke-linejoin:miter;stroke-miterlimit:10;stroke-dasharray:none;stroke-opacity:1"
       transform="matrix(0.93191052,0,0,0.93191052,-586.02842,-2105.1179)"
       clip-path="url(#clipPath12)" />
  </g>
</svg>
