<?xml version="1.0" encoding="UTF-8" standalone="no"?>
<!-- Created with Inkscape (http://www.inkscape.org/) -->

<svg
   version="1.1"
   id="svg1"
   width="101.44"
   height="146.56"
   viewBox="0 0 101.44 146.56"
   xmlns="http://www.w3.org/2000/svg"
   xmlns:svg="http://www.w3.org/2000/svg">
  <defs
     id="defs1">
    <clipPath
       clipPathUnits="userSpaceOnUse"
       id="clipPath2">
      <path
         d="M 0,0 H 314.99023 V 458.98438 H 0 Z"
         transform="scale(0.31999999)"
         clip-rule="evenodd"
         id="path2" />
    </clipPath>
    <clipPath
       clipPathUnits="userSpaceOnUse"
       id="clipPath4">
      <path
         d="M 3.125,6.25 H 312.5 V 453.125 H 3.125 Z"
         transform="matrix(-0.34740632,0,0,-0.34740632,587.16383,2421.2568)"
         clip-rule="evenodd"
         id="path4" />
    </clipPath>
    <clipPath
       clipPathUnits="userSpaceOnUse"
       id="clipPath6">
      <path
         d="M 3.125,6.25 H 312.5 V 453.125 H 3.125 Z"
         transform="matrix(0,-0.34740632,0.34740632,0,459.23854,2372.3667)"
         clip-rule="evenodd"
         id="path6" />
    </clipPath>
    <clipPath
       clipPathUnits="userSpaceOnUse"
       id="clipPath7">
      <path
         d="M 3.125,6.25 H 312.5 V 453.125 H 3.125 Z"
         transform="matrix(0,-0.34740632,0.34740632,0,-56.073951,22.366704)"
         clip-rule="evenodd"
         id="path7" />
    </clipPath>
    <clipPath
       clipPathUnits="userSpaceOnUse"
       id="clipPath9">
      <path
         d="M 3.125,6.25 H 312.5 V 453.125 H 3.125 Z"
         transform="matrix(0.34740632,0,0,0.34740632,521.31601,2258.2429)"
         clip-rule="evenodd"
         id="path9" />
    </clipPath>
    <clipPath
       clipPathUnits="userSpaceOnUse"
       id="clipPath10">
      <path
         d="M 3.125,6.25 H 312.5 V 453.125 H 3.125 Z"
         transform="matrix(0.34740632,0,0,0.34740632,-40.340239,-87.757108)"
         clip-rule="evenodd"
         id="path10" />
    </clipPath>
    <clipPath
       clipPathUnits="userSpaceOnUse"
       id="clipPath12">
      <path
         d="M 3.125,6.25 H 312.5 V 453.125 H 3.125 Z"
         transform="matrix(0.34740632,0,0,0.34740632,521.31601,2258.2429)"
         clip-rule="evenodd"
         id="path12" />
    </clipPath>
    <clipPath
       clipPathUnits="userSpaceOnUse"
       id="clipPath13">
      <path
         d="M 3.125,6.25 H 312.5 V 453.125 H 3.125 Z"
         transform="matrix(0.34740632,0,0,0.34740632,-23.668368,-43.757107)"
         clip-rule="evenodd"
         id="path13" />
    </clipPath>
    <clipPath
       clipPathUnits="userSpaceOnUse"
       id="clipPath15">
      <path
         d="M 3.125,6.25 H 312.5 V 453.125 H 3.125 Z"
         transform="matrix(0.34740632,0,0,0.34740632,520.81602,2257.743)"
         clip-rule="evenodd"
         id="path15" />
    </clipPath>
  </defs>
  <g
     id="g1">
    <path
       id="path1"
       d="M 0,0 H 101 V 147 H 0 Z"
       style="fill:#ffffff;fill-opacity:1;fill-rule:nonzero;stroke:none"
       clip-path="url(#clipPath2)" />
    <path
       id="path3"
       d="m 538.23999,2288 h 31.5 c 0.44318,2e-4 0.88214,0.044 1.31683,0.1296 0.4347,0.086 0.85675,0.2144 1.26624,0.3838 0.40948,0.1697 0.79846,0.3777 1.16693,0.6238 0.36853,0.2463 0.70953,0.5264 1.02295,0.8396 0.31341,0.3132 0.5932,0.6541 0.83942,1.0225 0.24621,0.3684 0.45416,0.7575 0.62378,1.1672 0.16961,0.4094 0.2976,0.8315 0.38409,1.2661 0.0865,0.4348 0.1297,0.874 0.12976,1.3174 v 89.5 c -6e-5,0.4431 -0.0433,0.8818 -0.12976,1.3167 -0.0865,0.4348 -0.21448,0.8569 -0.38409,1.2663 -0.16962,0.4094 -0.37757,0.7986 -0.62378,1.167 -0.24622,0.3687 -0.52601,0.7097 -0.83942,1.0229 -0.31342,0.3133 -0.65442,0.5931 -1.02295,0.8394 -0.36847,0.2463 -0.75745,0.4541 -1.16693,0.6238 -0.40949,0.1697 -0.83154,0.2976 -1.26624,0.384 -0.43469,0.087 -0.87365,0.1299 -1.31683,0.1299 h -31.5 c -0.44318,0 -0.88214,-0.043 -1.31689,-0.1299 -0.4347,-0.086 -0.85675,-0.2143 -1.26624,-0.384 -0.40948,-0.1697 -0.79846,-0.3777 -1.16699,-0.624 -0.36853,-0.2461 -0.70947,-0.5259 -1.02289,-0.8392 -0.31342,-0.3132 -0.5932,-0.6542 -0.83948,-1.0229 -0.24621,-0.3684 -0.4541,-0.7576 -0.62372,-1.167 -0.16961,-0.4094 -0.29766,-0.8315 -0.38415,-1.2663 -0.0864,-0.4349 -0.12964,-0.8736 -0.12964,-1.3167 v -89.5 c 0,-0.4434 0.0432,-0.8826 0.12964,-1.3174 0.0865,-0.4346 0.21454,-0.8567 0.38415,-1.2661 0.16962,-0.4097 0.37751,-0.7986 0.62372,-1.167 0.24628,-0.3686 0.52606,-0.7095 0.83948,-1.0227 0.31342,-0.3132 0.65436,-0.593 1.02289,-0.8393 0.36853,-0.2464 0.75751,-0.4544 1.16699,-0.6241 0.40949,-0.1694 0.83154,-0.2973 1.26624,-0.3838 0.43475,-0.086 0.87371,-0.1294 1.31689,-0.1296 z"
       style="fill:#ffffff;fill-opacity:1;fill-rule:nonzero;stroke:#000000;stroke-width:1;stroke-linecap:butt;stroke-linejoin:miter;stroke-miterlimit:10;stroke-dasharray:none;stroke-opacity:1"
       transform="matrix(-0.92111158,0,0,-0.92111158,540.8434,2230.2477)"
       clip-path="url(#clipPath4)" />
    <path
       id="path5"
       d="m 515,2339 h 64 v 15 h -64 z"
       style="fill:#ffffff;fill-opacity:1;fill-rule:nonzero;stroke:none"
       transform="matrix(0,0.92111158,-0.92111158,0,2185.2144,-423.00994)"
       clip-path="url(#clipPath6)" />
    <text
       id="text6"
       xml:space="preserve"
       transform="matrix(0,0.92111158,-0.92111158,0,20.60223,51.650366)"
       clip-path="url(#clipPath7)"><tspan
         id="tspan6"
         style="font-variant:normal;font-weight:normal;font-size:12px;font-family:Arial;writing-mode:lr-tb;fill:#000000;fill-opacity:1;fill-rule:nonzero;stroke:none"
         x="0"
         y="0">param-label</tspan></text>
    <path
       id="path8"
       d="m 562,2335 h 46 v 15 h -46 z"
       style="fill:#ffffff;fill-opacity:1;fill-rule:nonzero;stroke:none"
       transform="matrix(0.92111158,0,0,0.92111158,-480.19021,-2080.0937)"
       clip-path="url(#clipPath9)" />
    <text
       id="text9"
       xml:space="preserve"
       transform="matrix(0.92111158,0,0,0.92111158,37.157861,80.834088)"
       clip-path="url(#clipPath10)"><tspan
         id="tspan9"
         style="font-variant:normal;font-weight:normal;font-size:12px;font-family:Arial;writing-mode:lr-tb;fill:#000000;fill-opacity:1;fill-rule:nonzero;stroke:none"
         x="0"
         y="0">param-r*</tspan></text>
    <path
       id="path11"
       d="m 545,2291 h 20 v 15 h -20 z"
       style="fill:#ffffff;fill-opacity:1;fill-rule:nonzero;stroke:none"
       transform="matrix(0.92111158,0,0,0.92111158,-480.19021,-2080.0937)"
       clip-path="url(#clipPath12)" />
    <text
       id="text12"
       xml:space="preserve"
       transform="matrix(0.92111158,0,0,0.92111158,21.801208,40.305178)"
       clip-path="url(#clipPath13)"><tspan
         id="tspan12"
         style="font-variant:normal;font-weight:normal;font-size:12px;font-family:Arial;writing-mode:lr-tb;fill:#000000;fill-opacity:1;fill-rule:nonzero;stroke:none"
         x="0"
         y="0">pdh</tspan></text>
    <path
       id="path14"
       d="m 531.48999,2262 v 150"
       style="fill:none;stroke:#000000;stroke-width:1;stroke-linecap:butt;stroke-linejoin:miter;stroke-miterlimit:10;stroke-dasharray:none;stroke-opacity:1"
       transform="matrix(0.92111158,0,0,0.92111158,-479.72967,-2079.6332)"
       clip-path="url(#clipPath15)" />
  </g>
</svg>
