<?xml version="1.0" encoding="UTF-8" standalone="no"?>
<!-- Created with Inkscape (http://www.inkscape.org/) -->

<svg
   version="1.1"
   id="svg1"
   width="118.72"
   height="70.719994"
   viewBox="0 0 118.72 70.719994"
   xmlns="http://www.w3.org/2000/svg"
   xmlns:svg="http://www.w3.org/2000/svg">
  <defs
     id="defs1">
    <clipPath
       clipPathUnits="userSpaceOnUse"
       id="clipPath2">
      <path
         d="M 0,0 H 372 V 218.99414 H 0 Z"
         transform="scale(0.31999999)"
         clip-rule="evenodd"
         id="path2" />
    </clipPath>
    <clipPath
       clipPathUnits="userSpaceOnUse"
       id="clipPath4">
      <path
         d="M 3.125,0 H 368.75 V 218.75 H 3.125 Z"
         transform="matrix(0.34439991,0,0,0.34439991,245.34542,2388.4238)"
         clip-rule="evenodd"
         id="path4" />
    </clipPath>
    <clipPath
       clipPathUnits="userSpaceOnUse"
       id="clipPath5">
      <path
         d="M 3.125,0 H 368.75 V 218.75 H 3.125 Z"
         transform="matrix(0.34439991,0,0,0.34439991,-10.467065,-62.076066)"
         clip-rule="evenodd"
         id="path5" />
    </clipPath>
    <clipPath
       clipPathUnits="userSpaceOnUse"
       id="clipPath7">
      <path
         d="M 3.125,0 H 368.75 V 218.75 H 3.125 Z"
         transform="matrix(0,0.34439991,-0.34439991,0,360.57624,2331.3456)"
         clip-rule="evenodd"
         id="path7" />
    </clipPath>
    <clipPath
       clipPathUnits="userSpaceOnUse"
       id="clipPath9">
      <path
         d="M 3.125,0 H 368.75 V 218.75 H 3.125 Z"
         transform="matrix(0.34439991,0,0,0.34439991,245.84543,2388.9239)"
         clip-rule="evenodd"
         id="path9" />
    </clipPath>
    <clipPath
       clipPathUnits="userSpaceOnUse"
       id="clipPath10">
      <path
         d="M 3.125,0 H 368.75 V 218.75 H 3.125 Z"
         transform="matrix(0.34439991,0,0,0.34439991,-75.467064,-33.076067)"
         clip-rule="evenodd"
         id="path10" />
    </clipPath>
  </defs>
  <g
     id="g1">
    <path
       id="path1"
       d="M 0,0 H 119 V 70 H 0 Z"
       style="fill:#ffffff;fill-opacity:1;fill-rule:nonzero;stroke:none"
       clip-path="url(#clipPath2)" />
    <path
       id="path3"
       d="M 369,2400 H 291"
       style="fill:none;stroke:#000000;stroke-width:1;stroke-linecap:butt;stroke-linejoin:miter;stroke-miterlimit:10;stroke-dasharray:none;stroke-opacity:1"
       transform="matrix(0.92915235,0,0,0.92915235,-227.96327,-2219.2096)"
       clip-path="url(#clipPath4)" />
    <text
       id="text4"
       xml:space="preserve"
       transform="matrix(0.92915235,0,0,0.92915235,9.725498,57.678123)"
       clip-path="url(#clipPath5)"><tspan
         id="tspan4"
         style="font-variant:normal;font-weight:normal;font-size:12px;font-family:Arial;writing-mode:lr-tb;fill:#000000;fill-opacity:1;fill-rule:nonzero;stroke:none"
         x="0"
         y="0">param-label</tspan></text>
    <path
       id="path6"
       d="m 319.25,2400 h 24.5 c 0.69617,0 1.36584,0.1331 2.00903,0.3994 0.64319,0.2664 1.21094,0.6458 1.70325,1.138 0.49228,0.4921 0.87161,1.06 1.13803,1.7033 0.26645,0.6433 0.39966,1.313 0.39969,2.0093 v 24.5 c -3e-5,0.696 -0.13324,1.3655 -0.39969,2.0088 -0.26642,0.6431 -0.64575,1.2107 -1.13803,1.7031 -0.49231,0.4922 -1.06006,0.8716 -1.70325,1.138 -0.64319,0.2666 -1.31286,0.3999 -2.00903,0.4001 h -24.5 c -0.6962,-2e-4 -1.36591,-0.1335 -2.00912,-0.4001 -0.64322,-0.2664 -1.21097,-0.6458 -1.70322,-1.138 -0.49231,-0.4924 -0.87167,-1.06 -1.13809,-1.7031 -0.26639,-0.6433 -0.3996,-1.3128 -0.39957,-2.0088 v -24.5 c -3e-5,-0.6963 0.13318,-1.366 0.39957,-2.0093 0.26642,-0.6433 0.64578,-1.2112 1.13809,-1.7033 0.49225,-0.4922 1.06,-0.8716 1.70322,-1.138 0.64321,-0.2663 1.31292,-0.3994 2.00912,-0.3994 z"
       style="fill:#ffffff;fill-opacity:1;fill-rule:nonzero;stroke:#000000;stroke-width:1;stroke-linecap:butt;stroke-linejoin:miter;stroke-miterlimit:10;stroke-dasharray:none;stroke-opacity:1"
       transform="matrix(0,-0.92915235,0.92915235,0,-2166.1752,335.03026)"
       clip-path="url(#clipPath7)" />
    <path
       id="path8"
       d="m 321,2411 h 20 v 15 h -20 z"
       style="fill:#ffffff;fill-opacity:1;fill-rule:nonzero;stroke:none"
       transform="matrix(0.92915235,0,0,0.92915235,-228.42786,-2219.6743)"
       clip-path="url(#clipPath9)" />
    <text
       id="text9"
       xml:space="preserve"
       transform="matrix(0.92915235,0,0,0.92915235,70.1204,30.732705)"
       clip-path="url(#clipPath10)"><tspan
         id="tspan9"
         style="font-variant:normal;font-weight:normal;font-size:12px;font-family:Arial;writing-mode:lr-tb;fill:#000000;fill-opacity:1;fill-rule:nonzero;stroke:none"
         x="0"
         y="0">pdv</tspan></text>
  </g>
</svg>
