<?xml version="1.0" encoding="UTF-8" standalone="no"?>
<!-- Created with Inkscape (http://www.inkscape.org/) -->

<svg
   version="1.1"
   id="svg1"
   width="149.43999"
   height="77.439995"
   viewBox="0 0 149.43999 77.439995"
   xmlns="http://www.w3.org/2000/svg"
   xmlns:svg="http://www.w3.org/2000/svg">
  <defs
     id="defs1">
    <clipPath
       clipPathUnits="userSpaceOnUse"
       id="clipPath2">
      <path
         d="M 0,0 H 464.99023 V 239.99023 H 0 Z"
         transform="scale(0.31999999)"
         clip-rule="evenodd"
         id="path2" />
    </clipPath>
    <clipPath
       clipPathUnits="userSpaceOnUse"
       id="clipPath4">
      <path
         d="M 3.125,0 H 462.5 V 239.99023 H 3.125 Z"
         transform="matrix(0,0.34214373,-0.34214373,0,747.66934,2304.1113)"
         clip-rule="evenodd"
         id="path4" />
    </clipPath>
    <clipPath
       clipPathUnits="userSpaceOnUse"
       id="clipPath6">
      <path
         d="M 3.125,0 H 462.5 V 239.99023 H 3.125 Z"
         transform="matrix(0.34214373,0,0,0.34214373,628.84131,2350.6207)"
         clip-rule="evenodd"
         id="path6" />
    </clipPath>
    <clipPath
       clipPathUnits="userSpaceOnUse"
       id="clipPath7">
      <path
         d="M 3.125,0 H 462.5 V 239.99023 H 3.125 Z"
         transform="matrix(0.34214373,0,0,0.34214373,-44.47118,-40.379216)"
         clip-rule="evenodd"
         id="path7" />
    </clipPath>
    <clipPath
       clipPathUnits="userSpaceOnUse"
       id="clipPath9">
      <path
         d="M 3.125,0 H 462.5 V 239.99023 H 3.125 Z"
         transform="matrix(0.34214373,0,0,0.34214373,628.84131,2350.6207)"
         clip-rule="evenodd"
         id="path9" />
    </clipPath>
    <clipPath
       clipPathUnits="userSpaceOnUse"
       id="clipPath10">
      <path
         d="M 3.125,0 H 462.5 V 239.99023 H 3.125 Z"
         transform="matrix(0.34214373,0,0,0.34214373,-55.14306,-65.379216)"
         clip-rule="evenodd"
         id="path10" />
    </clipPath>
    <clipPath
       clipPathUnits="userSpaceOnUse"
       id="clipPath12">
      <path
         d="M 3.125,0 H 462.5 V 239.99023 H 3.125 Z"
         transform="matrix(0,0.34214373,-0.34214373,0,790.47521,2264.3601)"
         clip-rule="evenodd"
         id="path12" />
    </clipPath>
    <clipPath
       clipPathUnits="userSpaceOnUse"
       id="clipPath13">
      <path
         d="M 3.125,0 H 462.5 V 239.99023 H 3.125 Z"
         transform="matrix(0,0.34214373,-0.34214373,0,47.162718,-127.63984)"
         clip-rule="evenodd"
         id="path13" />
    </clipPath>
    <clipPath
       clipPathUnits="userSpaceOnUse"
       id="clipPath15">
      <path
         d="M 3.125,0 H 462.5 V 239.99023 H 3.125 Z"
         transform="matrix(0.34214373,0,0,0.34214373,628.34131,2350.1209)"
         clip-rule="evenodd"
         id="path15" />
    </clipPath>
  </defs>
  <g
     id="g1">
    <path
       id="path1"
       d="M 0,0 H 149 V 77 H 0 Z"
       style="fill:#ffffff;fill-opacity:1;fill-rule:nonzero;stroke:none"
       clip-path="url(#clipPath2)" />
    <path
       id="path3"
       d="M 695.15997,2332.8999 H 726.88 c 0.44587,0 0.8874,0.044 1.32459,0.1306 0.43732,0.087 0.86188,0.2156 1.27374,0.3862 0.41193,0.1707 0.80323,0.3797 1.17389,0.6275 0.37067,0.2475 0.71369,0.529 1.02893,0.8442 0.31525,0.3152 0.59668,0.6582 0.84436,1.0288 0.24768,0.3706 0.45685,0.762 0.62751,1.1739 0.17059,0.4121 0.29943,0.8366 0.38641,1.2739 0.087,0.4372 0.13055,0.8789 0.13055,1.3249 v 94.18 c 0,0.4455 -0.0435,0.8872 -0.13049,1.3244 -0.087,0.4373 -0.21582,0.8619 -0.38641,1.2737 -0.1706,0.4119 -0.37983,0.803 -0.62757,1.1738 -0.24762,0.3709 -0.52905,0.7139 -0.84424,1.0293 -0.31524,0.3152 -0.65826,0.5965 -1.02893,0.8443 -0.37072,0.2478 -0.76202,0.4568 -1.17395,0.6274 -0.41186,0.1707 -0.83648,0.2993 -1.2738,0.3865 -0.43719,0.087 -0.87872,0.1304 -1.32459,0.1306 h -31.72003 c -0.44586,-2e-4 -0.88739,-0.044 -1.3247,-0.1308 -0.43732,-0.087 -0.86188,-0.2156 -1.27381,-0.3863 -0.41186,-0.1706 -0.80316,-0.3796 -1.17389,-0.6274 -0.37066,-0.2478 -0.71362,-0.5291 -1.02887,-0.8443 -0.31524,-0.3154 -0.59674,-0.6584 -0.84448,-1.0293 -0.24768,-0.3706 -0.45685,-0.7617 -0.6275,-1.1735 -0.17059,-0.4119 -0.29938,-0.8367 -0.38629,-1.274 -0.087,-0.4372 -0.1305,-0.8789 -0.13043,-1.3244 v -94.18 c -7e-5,-0.446 0.0435,-0.8874 0.13043,-1.3247 0.0869,-0.4372 0.2157,-0.862 0.38629,-1.2741 0.17065,-0.4119 0.37982,-0.8033 0.62744,-1.1739 0.24774,-0.3706 0.52924,-0.7136 0.84448,-1.0288 0.31525,-0.3152 0.65821,-0.5967 1.02893,-0.8442 0.37073,-0.2478 0.76203,-0.4568 1.17389,-0.6275 0.41193,-0.1706 0.83649,-0.2993 1.27375,-0.3862 0.43731,-0.087 0.8789,-0.1306 1.32476,-0.1306 z"
       style="fill:#ffffff;fill-opacity:1;fill-rule:nonzero;stroke:#000000;stroke-width:1;stroke-linecap:butt;stroke-linejoin:miter;stroke-miterlimit:10;stroke-dasharray:none;stroke-opacity:1"
       transform="matrix(0,-0.93527942,0.93527942,0,-2154.9879,699.27975)"
       clip-path="url(#clipPath4)" />
    <path
       id="path5"
       d="m 673,2380 h 64 v 15 h -64 z"
       style="fill:#ffffff;fill-opacity:1;fill-rule:nonzero;stroke:none"
       transform="matrix(0.93527942,0,0,0.93527942,-588.14234,-2198.4872)"
       clip-path="url(#clipPath6)" />
    <text
       id="text6"
       xml:space="preserve"
       transform="matrix(0.93527942,0,0,0.93527942,41.592979,37.76585)"
       clip-path="url(#clipPath7)"><tspan
         id="tspan6"
         style="font-variant:normal;font-weight:normal;font-size:12px;font-family:Arial;writing-mode:lr-tb;fill:#000000;fill-opacity:1;fill-rule:nonzero;stroke:none"
         x="0"
         y="0">param-label</tspan></text>
    <path
       id="path8"
       d="m 684,2405 h 56 v 15 h -56 z"
       style="fill:#ffffff;fill-opacity:1;fill-rule:nonzero;stroke:none"
       transform="matrix(0.93527942,0,0,0.93527942,-588.14234,-2198.4872)"
       clip-path="url(#clipPath9)" />
    <g
       id="g9" />
    <g
       id="g10" />
    <text
       id="text10"
       xml:space="preserve"
       transform="matrix(0.93527942,0,0,0.93527942,51.574169,61.147835)"
       clip-path="url(#clipPath10)"><tspan
         id="tspan10"
         style="font-variant:normal;font-weight:normal;font-size:12px;font-family:Arial;writing-mode:lr-tb;fill:#000000;fill-opacity:1;fill-rule:nonzero;stroke:none"
         x="0"
         y="0"> param-b* </tspan></text>
    <path
       id="path11"
       d="m 743,2381 h 20 v 15 h -20 z"
       style="fill:#ffffff;fill-opacity:1;fill-rule:nonzero;stroke:none"
       transform="matrix(0,-0.93527942,0.93527942,0,-2117.8094,739.3152)"
       clip-path="url(#clipPath12)" />
    <text
       id="text12"
       xml:space="preserve"
       transform="matrix(0,-0.93527942,0.93527942,0,119.37892,44.11032)"
       clip-path="url(#clipPath13)"><tspan
         id="tspan12"
         style="font-variant:normal;font-weight:normal;font-size:12px;font-family:Arial;writing-mode:lr-tb;fill:#000000;fill-opacity:1;fill-rule:nonzero;stroke:none"
         x="0"
         y="0">pdv</tspan></text>
    <path
       id="path14"
       d="M 782.98999,2364.24 H 632"
       style="fill:none;stroke:#000000;stroke-width:1;stroke-linecap:butt;stroke-linejoin:miter;stroke-miterlimit:10;stroke-dasharray:none;stroke-opacity:1"
       transform="matrix(0.93527942,0,0,0.93527942,-587.6747,-2198.0197)"
       clip-path="url(#clipPath15)" />
  </g>
</svg>
