<?xml version="1.0" encoding="UTF-8" standalone="no"?>
<!-- Created with Inkscape (http://www.inkscape.org/) -->

<svg
   version="1.1"
   id="svg1"
   width="104"
   height="80"
   viewBox="0 0 104 80"
   xmlns="http://www.w3.org/2000/svg"
   xmlns:svg="http://www.w3.org/2000/svg">
  <defs
     id="defs1">
    <clipPath
       clipPathUnits="userSpaceOnUse"
       id="clipPath2">
      <path
         d="M 0,0 H 324.02344 V 251 H 0 Z"
         transform="scale(0.31999999)"
         clip-rule="evenodd"
         id="path2" />
    </clipPath>
    <clipPath
       clipPathUnits="userSpaceOnUse"
       id="clipPath4">
      <path
         d="m 3.125,0 h 318.75 V 250 H 3.125 Z"
         transform="matrix(0.34454638,0,0,0.34454638,240.32194,2284.4232)"
         clip-rule="evenodd"
         id="path4" />
    </clipPath>
    <clipPath
       clipPathUnits="userSpaceOnUse"
       id="clipPath5">
      <path
         d="m 3.125,0 h 318.75 V 250 H 3.125 Z"
         transform="matrix(0.34454638,0,0,0.34454638,-36.490586,-20.076788)"
         clip-rule="evenodd"
         id="path5" />
    </clipPath>
    <clipPath
       clipPathUnits="userSpaceOnUse"
       id="clipPath7">
      <path
         d="m 3.125,0 h 318.75 V 250 H 3.125 Z"
         transform="matrix(-0.34454638,0,0,-0.34454638,306.63812,2372.5768)"
         clip-rule="evenodd"
         id="path7" />
    </clipPath>
    <clipPath
       clipPathUnits="userSpaceOnUse"
       id="clipPath9">
      <path
         d="m 3.125,0 h 318.75 V 250 H 3.125 Z"
         transform="matrix(0.34454638,0,0,0.34454638,240.82192,2284.9232)"
         clip-rule="evenodd"
         id="path9" />
    </clipPath>
    <clipPath
       clipPathUnits="userSpaceOnUse"
       id="clipPath10">
      <path
         d="m 3.125,0 h 318.75 V 250 H 3.125 Z"
         transform="matrix(0.34454638,0,0,0.34454638,-22.162466,-47.076788)"
         clip-rule="evenodd"
         id="path10" />
    </clipPath>
  </defs>
  <g
     id="g1">
    <path
       id="path1"
       d="M 0,0 H 104 V 81 H 0 Z"
       style="fill:#ffffff;fill-opacity:1;fill-rule:nonzero;stroke:none"
       clip-path="url(#clipPath2)" />
    <path
       id="path3"
       d="m 255.98,2289 v 78"
       style="fill:none;stroke:#000000;stroke-width:1;stroke-linecap:butt;stroke-linejoin:miter;stroke-miterlimit:10;stroke-dasharray:none;stroke-opacity:1"
       transform="matrix(0.92875737,0,0,0.92875737,-223.20077,-2121.6749)"
       clip-path="url(#clipPath4)" />
    <text
       id="text4"
       xml:space="preserve"
       transform="matrix(0.92875737,0,0,0.92875737,33.890901,18.646465)"
       clip-path="url(#clipPath5)"><tspan
         id="tspan4"
         style="font-variant:normal;font-weight:normal;font-size:12px;font-family:Arial;writing-mode:lr-tb;fill:#000000;fill-opacity:1;fill-rule:nonzero;stroke:none"
         x="0"
         y="0">param-label</tspan></text>
    <path
       id="path6"
       d="m 261.22998,2311 h 24.5 c 0.69617,0 1.36585,0.1331 2.00903,0.3994 0.64319,0.2664 1.21094,0.6458 1.70325,1.1382 0.49228,0.4922 0.87161,1.0598 1.13806,1.7029 0.26642,0.6433 0.39963,1.3132 0.39966,2.0095 v 24.5 c -3e-5,0.696 -0.13324,1.3657 -0.39966,2.0088 -0.26645,0.6431 -0.64578,1.2109 -1.13806,1.7034 -0.49231,0.4924 -1.06006,0.8715 -1.70325,1.1379 -0.64318,0.2664 -1.31286,0.3997 -2.00903,0.3999 h -24.5 c -0.6962,-2e-4 -1.36591,-0.1335 -2.00909,-0.3999 -0.64322,-0.2664 -1.21094,-0.6455 -1.70322,-1.1379 -0.49231,-0.4925 -0.87167,-1.0603 -1.13809,-1.7034 -0.26642,-0.6431 -0.3996,-1.3128 -0.39958,-2.0088 v -24.5 c -2e-5,-0.6963 0.13316,-1.3662 0.39958,-2.0095 0.26642,-0.6431 0.64578,-1.2107 1.13809,-1.7029 0.49228,-0.4924 1.06,-0.8718 1.70322,-1.1382 0.64318,-0.2663 1.31289,-0.3994 2.00909,-0.3994 z"
       style="fill:#ffffff;fill-opacity:1;fill-rule:nonzero;stroke:#000000;stroke-width:1;stroke-linecap:butt;stroke-linejoin:miter;stroke-miterlimit:10;stroke-dasharray:none;stroke-opacity:1"
       transform="matrix(-0.92875737,0,0,-0.92875737,284.79241,2203.5482)"
       clip-path="url(#clipPath7)" />
    <path
       id="path8"
       d="m 263,2321 h 20 v 15 h -20 z"
       style="fill:#ffffff;fill-opacity:1;fill-rule:nonzero;stroke:none"
       transform="matrix(0.92875737,0,0,0.92875737,-223.66513,-2122.1393)"
       clip-path="url(#clipPath9)" />
    <text
       id="text9"
       xml:space="preserve"
       transform="matrix(0.92875737,0,0,0.92875737,20.583554,43.722914)"
       clip-path="url(#clipPath10)"><tspan
         id="tspan9"
         style="font-variant:normal;font-weight:normal;font-size:12px;font-family:Arial;writing-mode:lr-tb;fill:#000000;fill-opacity:1;fill-rule:nonzero;stroke:none"
         x="0"
         y="0">pdh</tspan></text>
  </g>
</svg>
