<?xml version="1.0" encoding="UTF-8" standalone="no"?>
<!-- Created with Inkscape (http://www.inkscape.org/) -->

<svg
   version="1.1"
   id="svg1"
   width="97.279999"
   height="146.56"
   viewBox="0 0 97.279999 146.56"
   xmlns="http://www.w3.org/2000/svg"
   xmlns:svg="http://www.w3.org/2000/svg">
  <defs
     id="defs1">
    <clipPath
       clipPathUnits="userSpaceOnUse"
       id="clipPath2">
      <path
         d="M 0,0 H 305 V 458.98438 H 0 Z"
         transform="scale(0.31999999)"
         clip-rule="evenodd"
         id="path2" />
    </clipPath>
    <clipPath
       clipPathUnits="userSpaceOnUse"
       id="clipPath4">
      <path
         d="m 3.125,6.25 h 300 v 446.875 h -300 z"
         transform="matrix(0.34690797,0,0,0.34690797,383.32116,2256.7478)"
         clip-rule="evenodd"
         id="path4" />
    </clipPath>
    <clipPath
       clipPathUnits="userSpaceOnUse"
       id="clipPath6">
      <path
         d="m 3.125,6.25 h 300 v 446.875 h -300 z"
         transform="matrix(0,0.34690797,-0.34690797,0,549.87179,2266.6391)"
         clip-rule="evenodd"
         id="path6" />
    </clipPath>
    <clipPath
       clipPathUnits="userSpaceOnUse"
       id="clipPath7">
      <path
         d="m 3.125,6.25 h 300 v 446.875 h -300 z"
         transform="matrix(0,0.34690797,-0.34690797,0,119.55929,-82.360915)"
         clip-rule="evenodd"
         id="path7" />
    </clipPath>
    <clipPath
       clipPathUnits="userSpaceOnUse"
       id="clipPath9">
      <path
         d="m 3.125,6.25 h 300 v 446.875 h -300 z"
         transform="matrix(0.34690797,0,0,0.34690797,383.82115,2257.2479)"
         clip-rule="evenodd"
         id="path9" />
    </clipPath>
    <clipPath
       clipPathUnits="userSpaceOnUse"
       id="clipPath10">
      <path
         d="m 3.125,6.25 h 300 v 446.875 h -300 z"
         transform="matrix(0.34690797,0,0,0.34690797,-21.491355,-86.752164)"
         clip-rule="evenodd"
         id="path10" />
    </clipPath>
    <clipPath
       clipPathUnits="userSpaceOnUse"
       id="clipPath12">
      <path
         d="m 3.125,6.25 h 300 v 446.875 h -300 z"
         transform="matrix(0.34690797,0,0,0.34690797,383.82115,2257.2479)"
         clip-rule="evenodd"
         id="path12" />
    </clipPath>
    <clipPath
       clipPathUnits="userSpaceOnUse"
       id="clipPath13">
      <path
         d="m 3.125,6.25 h 300 v 446.875 h -300 z"
         transform="matrix(0.34690797,0,0,0.34690797,-61.163235,-45.752164)"
         clip-rule="evenodd"
         id="path13" />
    </clipPath>
    <clipPath
       clipPathUnits="userSpaceOnUse"
       id="clipPath15">
      <path
         d="m 3.125,6.25 h 300 v 446.875 h -300 z"
         transform="matrix(0.34690797,0,0,0.34690797,383.32116,2256.7478)"
         clip-rule="evenodd"
         id="path15" />
    </clipPath>
  </defs>
  <g
     id="g1">
    <path
       id="path1"
       d="M 0,0 H 98 V 147 H 0 Z"
       style="fill:#ffffff;fill-opacity:1;fill-rule:nonzero;stroke:none"
       clip-path="url(#clipPath2)" />
    <path
       id="path3"
       d="m 439.75,2288 h 31.5 c 0.44318,2e-4 0.88211,0.044 1.31677,0.1296 0.43473,0.086 0.85681,0.2144 1.26627,0.3838 0.40945,0.1697 0.79846,0.3777 1.16699,0.6238 0.3685,0.2463 0.70947,0.5264 1.02292,0.8396 0.31338,0.3132 0.5932,0.6541 0.83945,1.0225 0.24621,0.3684 0.45413,0.7575 0.62375,1.1672 0.16961,0.4094 0.29766,0.8315 0.38412,1.2661 0.0865,0.4348 0.1297,0.874 0.12973,1.3174 v 89.5 c -3e-5,0.4431 -0.0433,0.8818 -0.12976,1.3167 -0.0865,0.4348 -0.21448,0.8569 -0.38409,1.2663 -0.16962,0.4094 -0.37754,0.7986 -0.62375,1.167 -0.24625,0.3687 -0.52607,0.7097 -0.83945,1.0229 -0.31345,0.3133 -0.65442,0.5931 -1.02295,0.8394 -0.3685,0.2463 -0.75751,0.4541 -1.16696,0.6238 -0.40946,0.1697 -0.83154,0.2976 -1.26624,0.384 -0.43469,0.087 -0.87362,0.1299 -1.3168,0.1299 h -31.5 c -0.44324,0 -0.8822,-0.043 -1.31689,-0.1299 -0.43473,-0.086 -0.85682,-0.2143 -1.26627,-0.384 -0.40945,-0.1697 -0.79846,-0.3777 -1.16696,-0.624 -0.3685,-0.2461 -0.70947,-0.5259 -1.02286,-0.8392 -0.31338,-0.3132 -0.59323,-0.6542 -0.83948,-1.0229 -0.24624,-0.3684 -0.45416,-0.7576 -0.62378,-1.167 -0.16961,-0.4094 -0.29763,-0.8315 -0.38409,-1.2663 -0.0865,-0.4349 -0.1297,-0.8736 -0.12967,-1.3167 v -89.5 c -3e-5,-0.4434 0.0432,-0.8826 0.12967,-1.3174 0.0865,-0.4346 0.21448,-0.8567 0.38409,-1.2661 0.16962,-0.4097 0.37754,-0.7986 0.62378,-1.167 0.24625,-0.3686 0.5261,-0.7095 0.83948,-1.0227 0.31339,-0.3132 0.65436,-0.593 1.02286,-0.8393 0.3685,-0.2464 0.75751,-0.4544 1.16696,-0.6241 0.40945,-0.1694 0.83154,-0.2973 1.26627,-0.3838 0.43469,-0.086 0.87365,-0.1294 1.31689,-0.1296 z"
       style="fill:#ffffff;fill-opacity:1;fill-rule:nonzero;stroke:#000000;stroke-width:1;stroke-linecap:butt;stroke-linejoin:miter;stroke-miterlimit:10;stroke-dasharray:none;stroke-opacity:1"
       transform="matrix(0.92243481,0,0,0.92243481,-353.58878,-2081.7027)"
       clip-path="url(#clipPath4)" />
    <path
       id="path5"
       d="m 430,2338 h 64 v 15 h -64 z"
       style="fill:#ffffff;fill-opacity:1;fill-rule:nonzero;stroke:none"
       transform="matrix(0,-0.92243481,0.92243481,0,-2090.8268,507.22088)"
       clip-path="url(#clipPath6)" />
    <text
       id="text6"
       xml:space="preserve"
       transform="matrix(0,-0.92243481,0.92243481,0,75.972575,110.28565)"
       clip-path="url(#clipPath7)"><tspan
         id="tspan6"
         style="font-variant:normal;font-weight:normal;font-size:12px;font-family:Arial;writing-mode:lr-tb;fill:#000000;fill-opacity:1;fill-rule:nonzero;stroke:none"
         x="0"
         y="0">param-label</tspan></text>
    <path
       id="path8"
       d="m 405,2333 h 46 v 15 h -46 z"
       style="fill:#ffffff;fill-opacity:1;fill-rule:nonzero;stroke:none"
       transform="matrix(0.92243481,0,0,0.92243481,-354.04999,-2082.164)"
       clip-path="url(#clipPath9)" />
    <text
       id="text9"
       xml:space="preserve"
       transform="matrix(0.92243481,0,0,0.92243481,19.824374,80.023216)"
       clip-path="url(#clipPath10)"><tspan
         id="tspan9"
         style="font-variant:normal;font-weight:normal;font-size:12px;font-family:Arial;writing-mode:lr-tb;fill:#000000;fill-opacity:1;fill-rule:nonzero;stroke:none"
         x="0"
         y="0">param-l*</tspan></text>
    <path
       id="path11"
       d="m 445,2292 h 20 v 15 h -20 z"
       style="fill:#ffffff;fill-opacity:1;fill-rule:nonzero;stroke:none"
       transform="matrix(0.92243481,0,0,0.92243481,-354.04999,-2082.164)"
       clip-path="url(#clipPath12)" />
    <text
       id="text12"
       xml:space="preserve"
       transform="matrix(0.92243481,0,0,0.92243481,56.419097,42.203389)"
       clip-path="url(#clipPath13)"><tspan
         id="tspan12"
         style="font-variant:normal;font-weight:normal;font-size:12px;font-family:Arial;writing-mode:lr-tb;fill:#000000;fill-opacity:1;fill-rule:nonzero;stroke:none"
         x="0"
         y="0">pdh</tspan></text>
    <path
       id="path14"
       d="M 478,2411 V 2261"
       style="fill:none;stroke:#000000;stroke-width:1;stroke-linecap:butt;stroke-linejoin:miter;stroke-miterlimit:10;stroke-dasharray:none;stroke-opacity:1"
       transform="matrix(0.92243481,0,0,0.92243481,-353.58878,-2081.7027)"
       clip-path="url(#clipPath15)" />
  </g>
</svg>
