<?xml version="1.0" encoding="UTF-8" standalone="no"?>
<!-- Created with Inkscape (http://www.inkscape.org/) -->

<svg
   version="1.1"
   id="svg1"
   width="102.72"
   height="80"
   viewBox="0 0 102.72 80"
   xmlns="http://www.w3.org/2000/svg"
   xmlns:svg="http://www.w3.org/2000/svg">
  <defs
     id="defs1">
    <clipPath
       clipPathUnits="userSpaceOnUse"
       id="clipPath2">
      <path
         d="M 0,0 H 320.99609 V 251 H 0 Z"
         transform="scale(0.31999999)"
         clip-rule="evenodd"
         id="path2" />
    </clipPath>
    <clipPath
       clipPathUnits="userSpaceOnUse"
       id="clipPath4">
      <path
         d="M 3.125,0 H 318.75 V 250 H 3.125 Z"
         transform="matrix(0.34743222,0,0,0.34743222,73.321019,2283.4141)"
         clip-rule="evenodd"
         id="path4" />
    </clipPath>
    <clipPath
       clipPathUnits="userSpaceOnUse"
       id="clipPath6">
      <path
         d="M 3.125,0 H 318.75 V 250 H 3.125 Z"
         transform="matrix(0.34743222,0,0,0.34743222,73.321019,2283.4141)"
         clip-rule="evenodd"
         id="path6" />
    </clipPath>
    <clipPath
       clipPathUnits="userSpaceOnUse"
       id="clipPath8">
      <path
         d="M 3.125,0 H 318.75 V 250 H 3.125 Z"
         transform="matrix(0.34743222,0,0,0.34743222,73.821012,2283.9141)"
         clip-rule="evenodd"
         id="path8" />
    </clipPath>
    <clipPath
       clipPathUnits="userSpaceOnUse"
       id="clipPath9">
      <path
         d="M 3.125,0 H 318.75 V 250 H 3.125 Z"
         transform="matrix(0.34743222,0,0,0.34743222,-68.163362,-49.085889)"
         clip-rule="evenodd"
         id="path9" />
    </clipPath>
    <clipPath
       clipPathUnits="userSpaceOnUse"
       id="clipPath10">
      <path
         d="M 3.125,0 H 318.75 V 250 H 3.125 Z"
         transform="matrix(0.34743222,0,0,0.34743222,-10.491487,-15.08589)"
         clip-rule="evenodd"
         id="path10" />
    </clipPath>
  </defs>
  <g
     id="g1">
    <path
       id="path1"
       d="M 0,0 H 103 V 81 H 0 Z"
       style="fill:#ffffff;fill-opacity:1;fill-rule:nonzero;stroke:none"
       clip-path="url(#clipPath2)" />
    <path
       id="path3"
       d="M 168.99001,2366.5 169,2289"
       style="fill:none;stroke:#000000;stroke-width:1;stroke-linecap:butt;stroke-linejoin:miter;stroke-miterlimit:10;stroke-dasharray:none;stroke-opacity:1"
       transform="matrix(0.92104291,0,0,0.92104291,-67.531805,-2103.1224)"
       clip-path="url(#clipPath4)" />
    <path
       id="path5"
       d="m 139.25,2310 h 24.5 c 0.69618,0 1.36587,0.1331 2.00908,0.3994 0.64319,0.2664 1.21092,0.6458 1.70322,1.138 0.49227,0.4921 0.87162,1.0598 1.13806,1.7031 0.2664,0.6433 0.39962,1.3132 0.39964,2.0095 v 24.5 c -2e-5,0.696 -0.13324,1.3657 -0.39964,2.0088 -0.26644,0.6431 -0.64579,1.2109 -1.13806,1.7034 -0.4923,0.4924 -1.06003,0.8715 -1.70322,1.1379 -0.64321,0.2664 -1.3129,0.3997 -2.00908,0.3999 h -24.5 c -0.69621,-2e-4 -1.36591,-0.1335 -2.00911,-0.3999 -0.6432,-0.2664 -1.21094,-0.6455 -1.70322,-1.1379 -0.49229,-0.4925 -0.87164,-1.0603 -1.13806,-1.7034 C 134.13321,2341.1157 134,2340.446 134,2339.75 v -24.5 c 0,-0.6963 0.13321,-1.3662 0.39961,-2.0095 0.26642,-0.6433 0.64577,-1.211 1.13806,-1.7031 0.49228,-0.4922 1.06002,-0.8716 1.70322,-1.138 0.6432,-0.2663 1.3129,-0.3994 2.00911,-0.3994 z"
       style="fill:#ffffff;fill-opacity:1;fill-rule:nonzero;stroke:#000000;stroke-width:1;stroke-linecap:butt;stroke-linejoin:miter;stroke-miterlimit:10;stroke-dasharray:none;stroke-opacity:1"
       transform="matrix(0.92104291,0,0,0.92104291,-67.531805,-2103.1224)"
       clip-path="url(#clipPath6)" />
    <path
       id="path7"
       d="m 142,2322 h 20 v 15 h -20 z"
       style="fill:#ffffff;fill-opacity:1;fill-rule:nonzero;stroke:none"
       transform="matrix(0.92104291,0,0,0.92104291,-67.99232,-2103.5829)"
       clip-path="url(#clipPath8)" />
    <text
       id="text8"
       xml:space="preserve"
       transform="matrix(0.92104291,0,0,0.92104291,62.781381,45.21021)"
       clip-path="url(#clipPath9)"><tspan
         id="tspan8"
         style="font-variant:normal;font-weight:normal;font-size:12px;font-family:Arial;writing-mode:lr-tb;fill:#000000;fill-opacity:1;fill-rule:nonzero;stroke:none"
         x="0"
         y="0">pdh</tspan></text>
    <text
       id="text9"
       xml:space="preserve"
       transform="matrix(0.92104291,0,0,0.92104291,9.6631096,13.894752)"
       clip-path="url(#clipPath10)"><tspan
         id="tspan9"
         style="font-variant:normal;font-weight:normal;font-size:12px;font-family:Arial;writing-mode:lr-tb;fill:#000000;fill-opacity:1;fill-rule:nonzero;stroke:none"
         x="0"
         y="0">param-label</tspan></text>
  </g>
</svg>
