<?xml version="1.0" encoding="UTF-8" standalone="no"?>
<!-- Created with Inkscape (http://www.inkscape.org/) -->

<svg
   version="1.1"
   id="svg1"
   width="289.28"
   height="126.72"
   viewBox="0 0 289.28 126.72"
   xmlns="http://www.w3.org/2000/svg"
   xmlns:svg="http://www.w3.org/2000/svg">
  <defs
     id="defs1">
    <clipPath
       clipPathUnits="userSpaceOnUse"
       id="clipPath2">
      <path
         d="M 0,0 H 905 V 395.99609 H 0 Z"
         transform="scale(0.31999999)"
         clip-rule="evenodd"
         id="path2" />
    </clipPath>
    <clipPath
       clipPathUnits="userSpaceOnUse"
       id="clipPath4">
      <path
         d="m 3.125,0 h 900 v 395.99609 h -900 z"
         transform="matrix(0.33760583,0,0,0.33760583,97.067907,546.90149)"
         clip-rule="evenodd"
         id="path4" />
    </clipPath>
    <clipPath
       clipPathUnits="userSpaceOnUse"
       id="clipPath5">
      <path
         d="m 3.125,0 h 900 v 395.99609 h -900 z"
         transform="matrix(0.33760583,0,0,0.33760583,-63.728967,-36.598488)"
         clip-rule="evenodd"
         id="path5" />
    </clipPath>
    <clipPath
       clipPathUnits="userSpaceOnUse"
       id="clipPath6">
      <path
         d="m 3.125,0 h 900 v 395.99609 h -900 z"
         transform="matrix(0.33760583,0,0,0.33760583,-83.728973,-69.598489)"
         clip-rule="evenodd"
         id="path6" />
    </clipPath>
    <clipPath
       clipPathUnits="userSpaceOnUse"
       id="clipPath7">
      <path
         d="m 3.125,0 h 900 v 395.99609 h -900 z"
         transform="matrix(0.33760583,0,0,0.33760583,-87.400842,-103.59849)"
         clip-rule="evenodd"
         id="path7" />
    </clipPath>
    <clipPath
       clipPathUnits="userSpaceOnUse"
       id="clipPath9">
      <path
         d="m 3.125,0 h 900 v 395.99609 h -900 z"
         transform="matrix(0.33760583,0,0,0.33760583,97.067907,546.90149)"
         clip-rule="evenodd"
         id="path9" />
    </clipPath>
    <clipPath
       clipPathUnits="userSpaceOnUse"
       id="clipPath10">
      <path
         d="m 3.125,0 h 900 v 395.99609 h -900 z"
         transform="matrix(0.33760583,0,0,0.33760583,-5.4164671,-68.598488)"
         clip-rule="evenodd"
         id="path10" />
    </clipPath>
    <clipPath
       clipPathUnits="userSpaceOnUse"
       id="clipPath12">
      <path
         d="m 3.125,0 h 900 v 395.99609 h -900 z"
         transform="matrix(0.33760583,0,0,0.33760583,97.067907,546.90149)"
         clip-rule="evenodd"
         id="path12" />
    </clipPath>
    <clipPath
       clipPathUnits="userSpaceOnUse"
       id="clipPath13">
      <path
         d="m 3.125,0 h 900 v 395.99609 h -900 z"
         transform="matrix(0.33760583,0,0,0.33760583,-240.26022,-68.598488)"
         clip-rule="evenodd"
         id="path13" />
    </clipPath>
    <clipPath
       clipPathUnits="userSpaceOnUse"
       id="clipPath15">
      <path
         d="m 3.125,0 h 900 v 395.99609 h -900 z"
         transform="matrix(0.33760583,0,0,0.33760583,97.067907,546.90149)"
         clip-rule="evenodd"
         id="path15" />
    </clipPath>
    <clipPath
       clipPathUnits="userSpaceOnUse"
       id="clipPath16">
      <path
         d="m 3.125,0 h 900 v 395.99609 h -900 z"
         transform="matrix(0.33760583,0,0,0.33760583,-120.58834,-12.598488)"
         clip-rule="evenodd"
         id="path16" />
    </clipPath>
    <clipPath
       clipPathUnits="userSpaceOnUse"
       id="clipPath18">
      <path
         d="m 3.125,0 h 900 v 395.99609 h -900 z"
         transform="matrix(0.33760583,0,0,0.33760583,97.067907,546.90149)"
         clip-rule="evenodd"
         id="path18" />
    </clipPath>
    <clipPath
       clipPathUnits="userSpaceOnUse"
       id="clipPath19">
      <path
         d="m 3.125,0 h 900 v 395.99609 h -900 z"
         transform="matrix(0.33760583,0,0,0.33760583,-118.91648,-127.59849)"
         clip-rule="evenodd"
         id="path19" />
    </clipPath>
  </defs>
  <g
     id="g1">
    <path
       id="path1"
       d="M 0,0 H 290 V 127 H 0 Z"
       style="fill:#ffffff;fill-opacity:1;fill-rule:nonzero;stroke:none"
       clip-path="url(#clipPath2)" />
    <path
       id="path3"
       d="M 123.09,556.75 H 349.19001 V 670 H 123.09 Z"
       style="fill:#ffffff;fill-opacity:1;fill-rule:nonzero;stroke:#000000;stroke-width:1;stroke-linecap:butt;stroke-linejoin:miter;stroke-miterlimit:10;stroke-dasharray:none;stroke-opacity:1"
       transform="matrix(0.9478509,0,0,0.9478509,-92.005903,-518.38107)"
       clip-path="url(#clipPath4)" />
    <text
       id="text4"
       xml:space="preserve"
       transform="matrix(0.9478509,0,0,0.9478509,60.405559,34.68991)"
       clip-path="url(#clipPath5)"><tspan
         id="tspan4"
         style="font-variant:normal;font-weight:normal;font-size:12px;font-family:Arial;writing-mode:lr-tb;fill:#000000;fill-opacity:1;fill-rule:nonzero;stroke:none"
         x="0"
         y="0">part-def-name-compartment</tspan></text>
    <text
       id="text5"
       xml:space="preserve"
       transform="matrix(0.9478509,0,0,0.9478509,79.362582,65.96899)"
       clip-path="url(#clipPath6)"><tspan
         id="tspan5"
         style="font-variant:normal;font-weight:normal;font-size:12px;font-family:Arial;writing-mode:lr-tb;fill:#000000;fill-opacity:1;fill-rule:nonzero;stroke:none"
         x="0"
         y="0">interconnection-view</tspan></text>
    <text
       id="text6"
       xml:space="preserve"
       transform="matrix(0.9478509,0,0,0.9478509,82.842967,98.19592)"
       clip-path="url(#clipPath7)"><tspan
         id="tspan6"
         style="font-variant:normal;font-weight:normal;font-size:12px;font-family:Arial;writing-mode:lr-tb;fill:#000000;fill-opacity:1;fill-rule:nonzero;stroke:none"
         x="0"
         y="0">compartment-stack</tspan></text>
    <path
       id="path8"
       d="m 100.19,605.64001 h 38.13001 v 13.5 H 100.19 Z"
       style="fill:#ffffff;fill-opacity:1;fill-rule:nonzero;stroke:#ffffff;stroke-width:1;stroke-linecap:butt;stroke-linejoin:miter;stroke-miterlimit:10;stroke-dasharray:none;stroke-opacity:1"
       transform="matrix(0.9478509,0,0,0.9478509,-92.005903,-518.38107)"
       clip-path="url(#clipPath9)" />
    <text
       id="text9"
       xml:space="preserve"
       transform="matrix(0.9478509,0,0,0.9478509,5.1340032,65.021139)"
       clip-path="url(#clipPath10)"><tspan
         id="tspan9"
         style="font-variant:normal;font-weight:normal;font-size:12px;font-family:Arial;writing-mode:lr-tb;fill:#000000;fill-opacity:1;fill-rule:nonzero;stroke:none"
         x="0"
         y="0">port-l*</tspan></text>
    <path
       id="path11"
       d="M 335.57001,605.64001 H 372.19 v 13.5 h -36.61999 z"
       style="fill:#ffffff;fill-opacity:1;fill-rule:nonzero;stroke:#ffffff;stroke-width:1;stroke-linecap:butt;stroke-linejoin:miter;stroke-miterlimit:10;stroke-dasharray:none;stroke-opacity:1"
       transform="matrix(0.9478509,0,0,0.9478509,-92.005903,-518.38107)"
       clip-path="url(#clipPath12)" />
    <text
       id="text12"
       xml:space="preserve"
       transform="matrix(0.9478509,0,0,0.9478509,227.73087,65.021139)"
       clip-path="url(#clipPath13)"><tspan
         id="tspan12"
         style="font-variant:normal;font-weight:normal;font-size:12px;font-family:Arial;writing-mode:lr-tb;fill:#000000;fill-opacity:1;fill-rule:nonzero;stroke:none"
         x="0"
         y="0">port-r*</tspan></text>
    <path
       id="path14"
       d="m 215.19,548.96002 h 39 v 13.5 h -39 z"
       style="fill:#ffffff;fill-opacity:1;fill-rule:nonzero;stroke:#ffffff;stroke-width:1;stroke-linecap:butt;stroke-linejoin:miter;stroke-miterlimit:10;stroke-dasharray:none;stroke-opacity:1"
       transform="matrix(0.9478509,0,0,0.9478509,-92.005903,-518.38107)"
       clip-path="url(#clipPath15)" />
    <text
       id="text15"
       xml:space="preserve"
       transform="matrix(0.9478509,0,0,0.9478509,114.29977,11.941488)"
       clip-path="url(#clipPath16)"><tspan
         id="tspan15"
         style="font-variant:normal;font-weight:normal;font-size:12px;font-family:Arial;writing-mode:lr-tb;fill:#000000;fill-opacity:1;fill-rule:nonzero;stroke:none"
         x="0"
         y="0">port-t*</tspan></text>
    <path
       id="path17"
       d="m 214.19,664.59003 h 41 v 13.5 h -41 z"
       style="fill:#ffffff;fill-opacity:1;fill-rule:nonzero;stroke:#ffffff;stroke-width:1;stroke-linecap:butt;stroke-linejoin:miter;stroke-miterlimit:10;stroke-dasharray:none;stroke-opacity:1"
       transform="matrix(0.9478509,0,0,0.9478509,-92.005903,-518.38107)"
       clip-path="url(#clipPath18)" />
    <text
       id="text18"
       xml:space="preserve"
       transform="matrix(0.9478509,0,0,0.9478509,112.71509,120.94434)"
       clip-path="url(#clipPath19)"><tspan
         id="tspan18"
         style="font-variant:normal;font-weight:normal;font-size:12px;font-family:Arial;writing-mode:lr-tb;fill:#000000;fill-opacity:1;fill-rule:nonzero;stroke:none"
         x="0"
         y="0">port-b*</tspan></text>
  </g>
</svg>
