<?xml version="1.0" encoding="UTF-8" standalone="no"?>
<!-- Created with Inkscape (http://www.inkscape.org/) -->

<svg
   version="1.1"
   id="svg1"
   width="280"
   height="128"
   viewBox="0 0 280 128"
   xmlns="http://www.w3.org/2000/svg"
   xmlns:svg="http://www.w3.org/2000/svg">
  <defs
     id="defs1">
    <clipPath
       clipPathUnits="userSpaceOnUse"
       id="clipPath2">
      <path
         d="M 0,0 H 875.97656 V 399.02344 H 0 Z"
         transform="scale(0.31999999)"
         clip-rule="evenodd"
         id="path2" />
    </clipPath>
    <clipPath
       clipPathUnits="userSpaceOnUse"
       id="clipPath4">
      <path
         d="m 3.125,0 h 868.75 V 399.02344 H 3.125 Z"
         transform="matrix(0.33854385,0,0,0.33854385,377.87259,544.94207)"
         clip-rule="evenodd"
         id="path4" />
    </clipPath>
    <clipPath
       clipPathUnits="userSpaceOnUse"
       id="clipPath5">
      <path
         d="m 3.125,0 h 868.75 V 399.02344 H 3.125 Z"
         transform="matrix(0.33854385,0,0,0.33854385,-81.768036,-38.557919)"
         clip-rule="evenodd"
         id="path5" />
    </clipPath>
    <clipPath
       clipPathUnits="userSpaceOnUse"
       id="clipPath6">
      <path
         d="m 3.125,0 h 868.75 V 399.02344 H 3.125 Z"
         transform="matrix(0.33854385,0,0,0.33854385,-91.424287,-71.55792)"
         clip-rule="evenodd"
         id="path6" />
    </clipPath>
    <clipPath
       clipPathUnits="userSpaceOnUse"
       id="clipPath7">
      <path
         d="m 3.125,0 h 868.75 V 399.02344 H 3.125 Z"
         transform="matrix(0.33854385,0,0,0.33854385,-95.111787,-105.55792)"
         clip-rule="evenodd"
         id="path7" />
    </clipPath>
    <clipPath
       clipPathUnits="userSpaceOnUse"
       id="clipPath9">
      <path
         d="m 3.125,0 h 868.75 V 399.02344 H 3.125 Z"
         transform="matrix(0.33854385,0,0,0.33854385,377.87259,544.94207)"
         clip-rule="evenodd"
         id="path9" />
    </clipPath>
    <clipPath
       clipPathUnits="userSpaceOnUse"
       id="clipPath10">
      <path
         d="m 3.125,0 h 868.75 V 399.02344 H 3.125 Z"
         transform="matrix(0.33854385,0,0,0.33854385,-127.28366,-12.557919)"
         clip-rule="evenodd"
         id="path10" />
    </clipPath>
    <clipPath
       clipPathUnits="userSpaceOnUse"
       id="clipPath12">
      <path
         d="m 3.125,0 h 868.75 V 399.02344 H 3.125 Z"
         transform="matrix(0.33854385,0,0,0.33854385,377.87259,544.94207)"
         clip-rule="evenodd"
         id="path12" />
    </clipPath>
    <clipPath
       clipPathUnits="userSpaceOnUse"
       id="clipPath13">
      <path
         d="m 3.125,0 h 868.75 V 399.02344 H 3.125 Z"
         transform="matrix(0.33854385,0,0,0.33854385,-256.95553,-70.557919)"
         clip-rule="evenodd"
         id="path13" />
    </clipPath>
    <clipPath
       clipPathUnits="userSpaceOnUse"
       id="clipPath15">
      <path
         d="m 3.125,0 h 868.75 V 399.02344 H 3.125 Z"
         transform="matrix(0.33854385,0,0,0.33854385,377.87259,544.94207)"
         clip-rule="evenodd"
         id="path15" />
    </clipPath>
    <clipPath
       clipPathUnits="userSpaceOnUse"
       id="clipPath16">
      <path
         d="m 3.125,0 h 868.75 V 399.02344 H 3.125 Z"
         transform="matrix(0.33854385,0,0,0.33854385,-5.1117867,-70.557919)"
         clip-rule="evenodd"
         id="path16" />
    </clipPath>
    <clipPath
       clipPathUnits="userSpaceOnUse"
       id="clipPath18">
      <path
         d="m 3.125,0 h 868.75 V 399.02344 H 3.125 Z"
         transform="matrix(0.33854385,0,0,0.33854385,377.87259,544.94207)"
         clip-rule="evenodd"
         id="path18" />
    </clipPath>
    <clipPath
       clipPathUnits="userSpaceOnUse"
       id="clipPath19">
      <path
         d="m 3.125,0 h 868.75 V 399.02344 H 3.125 Z"
         transform="matrix(0.33854385,0,0,0.33854385,-129.61178,-129.55792)"
         clip-rule="evenodd"
         id="path19" />
    </clipPath>
  </defs>
  <g
     id="g1">
    <path
       id="path1"
       d="M 0,0 H 280 V 128 H 0 Z"
       style="fill:#ffffff;fill-opacity:1;fill-rule:nonzero;stroke:none"
       clip-path="url(#clipPath2)" />
    <path
       id="path3"
       d="m 420.33002,556 h 208.82 c 1.12281,0 2.23481,0.10956 3.336,0.32861 1.1012,0.21906 2.17047,0.5434 3.20777,0.97303 1.03735,0.42962 2.02282,0.95636 2.95642,1.5802 0.93353,0.62378 1.7973,1.33264 2.59125,2.12658 0.79388,0.79395 1.50274,1.65772 2.12658,2.59125 0.62384,0.93359 1.15058,1.91907 1.58026,2.95636 0.42969,1.03735 0.75403,2.10663 0.97309,3.20789 0.21905,1.10125 0.32861,2.21325 0.32861,3.33606 v 79.80004 c 0,1.12275 -0.10956,2.23475 -0.32861,3.33594 -0.21906,1.10126 -0.5434,2.17053 -0.97309,3.20783 -0.42968,1.03735 -0.95642,2.02282 -1.58026,2.95636 -0.62384,0.93365 -1.3327,1.79742 -2.12658,2.59137 -0.79395,0.79388 -1.65772,1.50274 -2.59125,2.12652 -0.9336,0.62378 -1.91907,1.15051 -2.95642,1.5802 -1.0373,0.42969 -2.10657,0.75409 -3.20783,0.97315 -1.10113,0.21905 -2.21313,0.32855 -3.33594,0.32861 h -208.82 c -1.12284,-6e-5 -2.23487,-0.10956 -3.33612,-0.32861 -1.10123,-0.21906 -2.17051,-0.54346 -3.20786,-0.97315 -1.03732,-0.42969 -2.0228,-0.95642 -2.95636,-1.5802 -0.93356,-0.62378 -1.7973,-1.33264 -2.59122,-2.12652 -0.79394,-0.79395 -1.50283,-1.65772 -2.12664,-2.59131 -0.62381,-0.93354 -1.15055,-1.91901 -1.5802,-2.95636 -0.42966,-1.03736 -0.75403,-2.10663 -0.97306,-3.20789 -0.21905,-1.10119 -0.32858,-2.21319 -0.32855,-3.33594 v -79.80004 c -3e-5,-1.12281 0.1095,-2.23481 0.32855,-3.33606 0.21903,-1.10126 0.5434,-2.17054 0.97309,-3.20789 0.42965,-1.03729 0.95639,-2.02277 1.5802,-2.95636 0.62381,-0.93353 1.33267,-1.7973 2.12664,-2.59125 0.79392,-0.79394 1.65766,-1.5028 2.59122,-2.12658 0.93357,-0.62384 1.91901,-1.15058 2.95633,-1.5802 1.03735,-0.42963 2.10666,-0.75397 3.20789,-0.97303 C 418.09515,556.10956 419.20718,556 420.33002,556 Z"
       style="fill:#ffffff;fill-opacity:1;fill-rule:nonzero;stroke:#000000;stroke-width:1;stroke-linecap:butt;stroke-linejoin:miter;stroke-miterlimit:10;stroke-dasharray:none;stroke-opacity:1"
       transform="matrix(0.94522463,0,0,0.94522463,-357.17448,-515.09267)"
       clip-path="url(#clipPath4)" />
    <text
       id="text4"
       xml:space="preserve"
       transform="matrix(0.94522463,0,0,0.94522463,77.289162,36.445895)"
       clip-path="url(#clipPath5)"><tspan
         id="tspan4"
         style="font-variant:normal;font-weight:normal;font-size:12px;font-family:Arial;writing-mode:lr-tb;fill:#000000;fill-opacity:1;fill-rule:nonzero;stroke:none"
         x="0"
         y="0">part-name-compartment</tspan></text>
    <text
       id="text5"
       xml:space="preserve"
       transform="matrix(0.94522463,0,0,0.94522463,86.416488,67.638308)"
       clip-path="url(#clipPath6)"><tspan
         id="tspan5"
         style="font-variant:normal;font-weight:normal;font-size:12px;font-family:Arial;writing-mode:lr-tb;fill:#000000;fill-opacity:1;fill-rule:nonzero;stroke:none"
         x="0"
         y="0">interconnection-view</tspan></text>
    <text
       id="text6"
       xml:space="preserve"
       transform="matrix(0.94522463,0,0,0.94522463,89.902004,99.775945)"
       clip-path="url(#clipPath7)"><tspan
         id="tspan6"
         style="font-variant:normal;font-weight:normal;font-size:12px;font-family:Arial;writing-mode:lr-tb;fill:#000000;fill-opacity:1;fill-rule:nonzero;stroke:none"
         x="0"
         y="0">compartment-stack</tspan></text>
    <path
       id="path8"
       d="m 503,547 h 38 v 14.12 h -38 z"
       style="fill:#ffffff;fill-opacity:1;fill-rule:nonzero;stroke:#ffffff;stroke-width:1;stroke-linecap:butt;stroke-linejoin:miter;stroke-miterlimit:10;stroke-dasharray:none;stroke-opacity:1"
       transform="matrix(0.94522463,0,0,0.94522463,-357.17448,-515.09267)"
       clip-path="url(#clipPath9)" />
    <text
       id="text9"
       xml:space="preserve"
       transform="matrix(0.94522463,0,0,0.94522463,120.31165,11.870054)"
       clip-path="url(#clipPath10)"><tspan
         id="tspan9"
         style="font-variant:normal;font-weight:normal;font-size:12px;font-family:Arial;writing-mode:lr-tb;fill:#000000;fill-opacity:1;fill-rule:nonzero;stroke:none"
         x="0"
         y="0">port-t*</tspan></text>
    <path
       id="path11"
       d="M 633.02002,605.33002 H 671 v 14.12 h -37.97998 z"
       style="fill:#ffffff;fill-opacity:1;fill-rule:nonzero;stroke:#ffffff;stroke-width:1;stroke-linecap:butt;stroke-linejoin:miter;stroke-miterlimit:10;stroke-dasharray:none;stroke-opacity:1"
       transform="matrix(0.94522463,0,0,0.94522463,-357.17448,-515.09267)"
       clip-path="url(#clipPath12)" />
    <text
       id="text12"
       xml:space="preserve"
       transform="matrix(0.94522463,0,0,0.94522463,242.8807,66.693083)"
       clip-path="url(#clipPath13)"><tspan
         id="tspan12"
         style="font-variant:normal;font-weight:normal;font-size:12px;font-family:Arial;writing-mode:lr-tb;fill:#000000;fill-opacity:1;fill-rule:nonzero;stroke:none"
         x="0"
         y="0">port-r*</tspan></text>
    <path
       id="path14"
       d="m 381,605.33002 h 36.98001 v 14.12 H 381 Z"
       style="fill:#ffffff;fill-opacity:1;fill-rule:nonzero;stroke:#ffffff;stroke-width:1;stroke-linecap:butt;stroke-linejoin:miter;stroke-miterlimit:10;stroke-dasharray:none;stroke-opacity:1"
       transform="matrix(0.94522463,0,0,0.94522463,-357.17448,-515.09267)"
       clip-path="url(#clipPath15)" />
    <text
       id="text15"
       xml:space="preserve"
       transform="matrix(0.94522463,0,0,0.94522463,4.8317867,66.693083)"
       clip-path="url(#clipPath16)"><tspan
         id="tspan15"
         style="font-variant:normal;font-weight:normal;font-size:12px;font-family:Arial;writing-mode:lr-tb;fill:#000000;fill-opacity:1;fill-rule:nonzero;stroke:none"
         x="0"
         y="0">port-l*</tspan></text>
    <path
       id="path17"
       d="m 501,663.89001 h 50 V 678 h -50 z"
       style="fill:#ffffff;fill-opacity:1;fill-rule:nonzero;stroke:#ffffff;stroke-width:1;stroke-linecap:butt;stroke-linejoin:miter;stroke-miterlimit:10;stroke-dasharray:none;stroke-opacity:1"
       transform="matrix(0.94522463,0,0,0.94522463,-357.17448,-515.09267)"
       clip-path="url(#clipPath18)" />
    <text
       id="text18"
       xml:space="preserve"
       transform="matrix(0.94522463,0,0,0.94522463,122.51225,122.46134)"
       clip-path="url(#clipPath19)"><tspan
         id="tspan18"
         style="font-variant:normal;font-weight:normal;font-size:12px;font-family:Arial;writing-mode:lr-tb;fill:#000000;fill-opacity:1;fill-rule:nonzero;stroke:none"
         x="0"
         y="0">port-b*</tspan></text>
  </g>
</svg>
