<?xml version="1.0" encoding="UTF-8" standalone="no"?>
<!-- Created with Inkscape (http://www.inkscape.org/) -->

<svg
   version="1.1"
   id="svg1"
   width="280"
   height="128"
   viewBox="0 0 280 128"
   xmlns="http://www.w3.org/2000/svg"
   xmlns:svg="http://www.w3.org/2000/svg">
  <defs
     id="defs1">
    <clipPath
       clipPathUnits="userSpaceOnUse"
       id="clipPath2">
      <path
         d="M 0,0 H 875.97656 V 399.02344 H 0 Z"
         transform="scale(0.31999999)"
         clip-rule="evenodd"
         id="path2" />
    </clipPath>
    <clipPath
       clipPathUnits="userSpaceOnUse"
       id="clipPath4">
      <path
         d="m 3.125,0 h 868.75 V 399.02344 H 3.125 Z"
         transform="matrix(0.33854385,0,0,0.33854385,676.8726,545.03213)"
         clip-rule="evenodd"
         id="path4" />
    </clipPath>
    <clipPath
       clipPathUnits="userSpaceOnUse"
       id="clipPath6">
      <path
         d="m 3.125,0 h 868.75 V 399.02344 H 3.125 Z"
         transform="matrix(0.33854385,0,0,0.33854385,676.8726,545.03213)"
         clip-rule="evenodd"
         id="path6" />
    </clipPath>
    <clipPath
       clipPathUnits="userSpaceOnUse"
       id="clipPath7">
      <path
         d="m 3.125,0 h 868.75 V 399.02344 H 3.125 Z"
         transform="matrix(0.33854385,0,0,0.33854385,-81.768011,-38.467911)"
         clip-rule="evenodd"
         id="path7" />
    </clipPath>
    <clipPath
       clipPathUnits="userSpaceOnUse"
       id="clipPath8">
      <path
         d="m 3.125,0 h 868.75 V 399.02344 H 3.125 Z"
         transform="matrix(0.33854385,0,0,0.33854385,-91.424261,-71.46791)"
         clip-rule="evenodd"
         id="path8" />
    </clipPath>
    <clipPath
       clipPathUnits="userSpaceOnUse"
       id="clipPath9">
      <path
         d="m 3.125,0 h 868.75 V 399.02344 H 3.125 Z"
         transform="matrix(0.33854385,0,0,0.33854385,-95.111761,-105.46791)"
         clip-rule="evenodd"
         id="path9" />
    </clipPath>
    <clipPath
       clipPathUnits="userSpaceOnUse"
       id="clipPath11">
      <path
         d="m 3.125,0 h 868.75 V 399.02344 H 3.125 Z"
         transform="matrix(0.33854385,0,0,0.33854385,676.8726,545.03213)"
         clip-rule="evenodd"
         id="path11" />
    </clipPath>
    <clipPath
       clipPathUnits="userSpaceOnUse"
       id="clipPath12">
      <path
         d="m 3.125,0 h 868.75 V 399.02344 H 3.125 Z"
         transform="matrix(0.33854385,0,0,0.33854385,-127.28363,-12.46791)"
         clip-rule="evenodd"
         id="path12" />
    </clipPath>
    <clipPath
       clipPathUnits="userSpaceOnUse"
       id="clipPath14">
      <path
         d="m 3.125,0 h 868.75 V 399.02344 H 3.125 Z"
         transform="matrix(0.33854385,0,0,0.33854385,676.8726,545.03213)"
         clip-rule="evenodd"
         id="path14" />
    </clipPath>
    <clipPath
       clipPathUnits="userSpaceOnUse"
       id="clipPath15">
      <path
         d="m 3.125,0 h 868.75 V 399.02344 H 3.125 Z"
         transform="matrix(0.33854385,0,0,0.33854385,-256.95551,-70.467911)"
         clip-rule="evenodd"
         id="path15" />
    </clipPath>
    <clipPath
       clipPathUnits="userSpaceOnUse"
       id="clipPath17">
      <path
         d="m 3.125,0 h 868.75 V 399.02344 H 3.125 Z"
         transform="matrix(0.33854385,0,0,0.33854385,676.8726,545.03213)"
         clip-rule="evenodd"
         id="path17" />
    </clipPath>
    <clipPath
       clipPathUnits="userSpaceOnUse"
       id="clipPath18">
      <path
         d="m 3.125,0 h 868.75 V 399.02344 H 3.125 Z"
         transform="matrix(0.33854385,0,0,0.33854385,-5.1117606,-70.467911)"
         clip-rule="evenodd"
         id="path18" />
    </clipPath>
    <clipPath
       clipPathUnits="userSpaceOnUse"
       id="clipPath20">
      <path
         d="m 3.125,0 h 868.75 V 399.02344 H 3.125 Z"
         transform="matrix(0.33854385,0,0,0.33854385,676.8726,545.03213)"
         clip-rule="evenodd"
         id="path20" />
    </clipPath>
    <clipPath
       clipPathUnits="userSpaceOnUse"
       id="clipPath21">
      <path
         d="m 3.125,0 h 868.75 V 399.02344 H 3.125 Z"
         transform="matrix(0.33854385,0,0,0.33854385,-129.61176,-129.46791)"
         clip-rule="evenodd"
         id="path21" />
    </clipPath>
  </defs>
  <g
     id="g1">
    <path
       id="path1"
       d="M 0,0 H 280 V 128 H 0 Z"
       style="fill:#ffffff;fill-opacity:1;fill-rule:nonzero;stroke:none"
       clip-path="url(#clipPath2)" />
    <path
       id="path3"
       d="m 719.32996,556.09003 h 208.82006 c 1.12275,0 2.23468,0.10949 3.33594,0.32855 1.1012,0.21905 2.17047,0.5434 3.20783,0.97302 1.03729,0.42975 2.02276,0.95648 2.95636,1.58026 0.93365,0.62378 1.79742,1.33264 2.59137,2.12659 0.79388,0.79388 1.50274,1.65765 2.12652,2.59125 0.62378,0.93353 1.15051,1.919 1.5802,2.95636 0.42969,1.03735 0.75409,2.10663 0.97315,3.20782 0.21905,1.10126 0.32861,2.21332 0.32861,3.33612 v 79.80005 c 0,1.12274 -0.10956,2.23474 -0.32861,3.336 -0.21906,1.10114 -0.54346,2.17041 -0.97315,3.20776 -0.42969,1.03736 -0.95642,2.02283 -1.5802,2.95636 -0.62378,0.9336 -1.33264,1.79737 -2.12652,2.59137 -0.79395,0.79395 -1.65772,1.50281 -2.59137,2.12659 -0.93354,0.62378 -1.91901,1.15051 -2.9563,1.58014 -1.03736,0.42969 -2.10663,0.75409 -3.20789,0.97314 -1.10126,0.21906 -2.21319,0.32862 -3.33594,0.32862 H 719.32996 c -1.12281,0 -2.23487,-0.10956 -3.33612,-0.32862 -1.10126,-0.21905 -2.17054,-0.54345 -3.20789,-0.97314 -1.03729,-0.42963 -2.02271,-0.95636 -2.95624,-1.58014 -0.93365,-0.62378 -1.79742,-1.33264 -2.59131,-2.12659 -0.79394,-0.794 -1.50287,-1.65777 -2.12671,-2.59137 -0.62377,-0.93353 -1.15051,-1.919 -1.5802,-2.95636 -0.42962,-1.03735 -0.75396,-2.10662 -0.97302,-3.20782 -0.21899,-1.1012 -0.32849,-2.2132 -0.32849,-3.33594 V 573.19 c 0,-1.1228 0.1095,-2.2348 0.32849,-3.33606 0.21906,-1.10125 0.5434,-2.17053 0.97302,-3.20782 0.42969,-1.03736 0.95643,-2.02283 1.58027,-2.95636 0.62384,-0.9336 1.3327,-1.79736 2.12664,-2.59125 0.79389,-0.79401 1.65766,-1.50287 2.59125,-2.12665 0.93353,-0.62378 1.91901,-1.15051 2.9563,-1.5802 1.03735,-0.42962 2.10669,-0.75403 3.20795,-0.97308 1.10125,-0.21906 2.21325,-0.32855 3.33606,-0.32855 z"
       style="fill:#ffffff;fill-opacity:1;fill-rule:nonzero;stroke:none"
       transform="matrix(0.94522463,0,0,0.94522463,-639.79665,-515.17779)"
       clip-path="url(#clipPath4)" />
    <path
       id="path5"
       d="m 725.32996,555.59003 h 3 v 1 h -3 z m 6,0 h 3 v 1 h -3 z m 6,0 h 3 v 1 h -3 z m 6,0 h 3 v 1 h -3 z m 6,0 h 3 v 1 h -3 z m 6,0 h 3 v 1 h -3 z m 6,0 h 3 v 1 h -3 z m 6,0 h 3 v 1 h -3 z m 6,0 h 3 v 1 h -3 z m 6,0 h 3 v 1 h -3 z m 6,0 h 3 v 1 h -3 z m 6,0 h 3 v 1 h -3 z m 6,0 h 3 v 1 h -3 z m 6,0 h 3 v 1 h -3 z m 6,0 h 3 v 1 h -3 z m 6,0 h 3 v 1 h -3 z m 6,0 h 3 v 1 h -3 z m 6,0 h 3 v 1 h -3 z m 6,0 h 3 v 1 h -3 z m 6,0 h 3 v 1 h -3 z m 6,0 h 3 v 1 h -3 z m 6,0 h 3 v 1 h -3 z m 6,0 h 3 v 1 h -3 z m 6,0 h 3 v 1 h -3 z m 6,0 h 3 v 1 h -3 z m 6,0 h 3 v 1 h -3 z m 6,0 h 3 v 1 h -3 z m 6,0 h 3 v 1 h -3 z m 6,0 h 3 v 1 h -3 z m 6,0 h 3 v 1 h -3 z m 6,0 h 3 v 1 h -3 z m 6,0 h 3 v 1 h -3 z m 6,0 h 3 v 1 h -3 z m 6,0 h 3 v 1 h -3 z m 5.98028,0.0383 c 1.02728,0.0679 2.04083,0.22467 3.04077,0.47045 l -0.23864,0.97107 c -0.94312,-0.23175 -1.89911,-0.3797 -2.86805,-0.44372 l 0.0659,-0.9978 z m 6.03827,1.50116 c 0.94275,0.42254 1.84131,0.92425 2.69574,1.505 l -0.56213,0.82703 c -0.80591,-0.54779 -1.65345,-1.021 -2.54267,-1.41956 z m 5.12427,3.49432 c 0.75067,0.73608 1.42999,1.5332 2.03796,2.3913 l -0.81592,0.57812 c -0.5733,-0.8092 -1.21405,-1.56103 -1.92224,-2.25543 z m 3.59845,5.06457 c 0.45025,0.95563 0.81152,1.94391 1.08392,2.96473 l -0.96619,0.25781 c -0.25689,-0.96283 -0.59771,-1.89496 -1.0224,-2.79639 z m 1.6159,6.01471 c 0.0419,0.49463 0.0629,0.9903 0.0629,1.487 v 1.49237 h -1 v -1.49249 c 6e-5,-0.46814 -0.0197,-0.93561 -0.0593,-1.4024 l 0.99646,-0.0845 z m 0.0629,5.97937 v 3 h -1 v -3 z m 0,6 v 3 h -1 v -3 z m 0,6 v 3 h -1 v -3 z m 0,6 v 3 h -1 v -3 z m 0,6 v 3 h -1 v -3 z m 0,6 v 3 h -1 v -3 z m 0,6 v 3 h -1 v -3 z m 0,6 v 3 h -1 v -3 z m 0,6 v 3 h -1 v -3 z m 0,6 v 3 h -1 v -3 z m 0,6 v 3 h -1 v -3 z m 0,6 v 3 h -1 v -3 z m 0,6 v 3 h -1 v -3 z m -0.20557,5.98938 c -0.16119,1.04584 -0.41461,2.06861 -0.76013,3.06836 l -0.94519,-0.32666 c 0.32599,-0.9433 0.565,-1.90796 0.71704,-2.89404 z m -2.0288,5.90058 c -0.50898,0.9115 -1.09449,1.77081 -1.75654,2.578 l -0.77319,-0.63415 c 0.62445,-0.76136 1.17664,-1.57184 1.65668,-2.4314 z m -3.96155,4.82312 c -0.79633,0.67755 -1.6463,1.27936 -2.55005,1.8053 l -0.50305,-0.86426 c 0.85229,-0.49603 1.65399,-1.06354 2.40503,-1.70264 z m -5.34522,3.11871 c -0.99835,0.36603 -2.02142,0.63941 -3.06915,0.82001 l -0.16992,-0.98548 c 0.9884,-0.17034 1.95337,-0.42816 2.89483,-0.77337 z m -6.06372,1.07581 h -3 v -1 h 3 z m -6,0 h -3 v -1 h 3 z m -6,0 h -3 v -1 h 3 z m -6,0 h -3 v -1 h 3 z m -6,0 h -3 v -1 h 3 z m -6,0 h -3 v -1 h 3 z m -6,0 h -3 v -1 h 3 z m -6,0 h -3 v -1 h 3 z m -6,0 h -3 v -1 h 3 z m -6,0 h -3 v -1 h 3 z m -6,0 h -3 v -1 h 3 z m -6,0 h -3 v -1 h 3 z m -6,0 h -3 v -1 h 3 z m -6,0 h -3 v -1 h 3 z m -6,0 h -3 v -1 h 3 z m -6,0 h -3 v -1 h 3 z m -6,0 h -3 v -1 h 3 z m -6,0 h -3 v -1 h 3 z m -6,0 h -3 v -1 h 3 z m -6,0 h -3 v -1 h 3 z m -6,0 h -3 v -1 h 3 z m -6,0 h -3 v -1 h 3 z m -6,0 h -3 v -1 h 3 z m -6,0 h -3 v -1 h 3 z m -6,0 h -3 v -1 h 3 z m -6,0 h -3 v -1 h 3 z m -6,0 h -3 v -1 h 3 z m -6,0 h -3 v -1 h 3 z m -6,0 h -3 v -1 h 3 z m -6,0 h -3 v -1 h 3 z m -6,0 h -3 v -1 h 3 z m -6,0 h -3 v -1 h 3 z m -6,0 h -3 v -1 h 3 z m -6,0 h -3 v -1 h 3 z m -6,0 h -3 v -1 h 3 z m -5.98022,-0.0386 c -1.02759,-0.0682 -2.04126,-0.22528 -3.04102,-0.47131 l 0.23902,-0.97107 c 0.94311,0.23212 1.89916,0.38031 2.86816,0.44458 l -0.0662,0.9978 z m -6.03797,-1.50287 c -0.94275,-0.42291 -1.84118,-0.9248 -2.69537,-1.50573 l 0.56238,-0.82691 c 0.80584,0.54804 1.65326,1.02149 2.54229,1.42029 z m -5.12329,-3.49579 c -0.75067,-0.73657 -1.42981,-1.53387 -2.03735,-2.3919 l 0.81616,-0.57788 c 0.57318,0.80951 1.21368,1.56152 1.92151,2.25604 z m -3.59692,-5.06543 c -0.45026,-0.95605 -0.81134,-1.94451 -1.08331,-2.96533 l 0.9663,-0.25744 c 0.2566,0.96295 0.59717,1.8952 1.02167,2.79675 z m -1.61426,-6.01513 c -0.0417,-0.49311 -0.0625,-0.98718 -0.0625,-1.48212 v -1.49731 h 1 v 1.49731 c 0,0.46674 0.0197,0.93268 0.059,1.39789 l -0.99646,0.0842 z m -0.0625,-5.97943 v -3 h 1 v 3 z m 0,-6 v -3 h 1 v 3 z m 0,-6 v -3 h 1 v 3 z m 0,-6 v -3 h 1 v 3 z m 0,-6 v -3 h 1 v 3 z m 0,-6 v -3 h 1 v 3 z m 0,-6 v -3 h 1 v 3 z m 0,-6 v -3 h 1 v 3 z m 0,-6 v -3 h 1 v 3 z m 0,-6 v -3 h 1 v 3 z m 0,-6 v -3 h 1 v 3 z m 0,-6 v -3 h 1 v 3 z m 0,-6 v -3 h 1 v 3 z m 0.20624,-5.98938 c 0.16144,-1.04566 0.41522,-2.06848 0.76135,-3.06848 l 0.94495,0.32702 c -0.32636,0.94293 -0.56568,1.90766 -0.71802,2.89404 z m 2.03058,-5.90021 c 0.50934,-0.91132 1.09515,-1.77051 1.75738,-2.57745 l 0.77307,0.6344 c -0.62463,0.76116 -1.17712,1.57147 -1.65753,2.43096 z m 3.96301,-4.82196 c 0.79657,-0.67725 1.64679,-1.27875 2.5506,-1.80451 l 0.50281,0.86438 c -0.85254,0.49592 -1.65442,1.06324 -2.40571,1.70197 z m 5.34631,-3.11719 c 0.99836,-0.36566 2.02143,-0.63867 3.06909,-0.81909 l 0.16968,0.98547 c -0.98828,0.17017 -1.95324,0.42768 -2.89489,0.77259 z m 6.05384,-1.07397 h 3 v 1 h -3 z"
       style="fill:#000000;fill-opacity:1;fill-rule:nonzero;stroke:none"
       transform="matrix(0.94522463,0,0,0.94522463,-639.79665,-515.17779)"
       clip-path="url(#clipPath6)" />
    <text
       id="text6"
       xml:space="preserve"
       transform="matrix(0.94522463,0,0,0.94522463,77.289138,36.360817)"
       clip-path="url(#clipPath7)"><tspan
         id="tspan6"
         style="font-variant:normal;font-weight:normal;font-size:12px;font-family:Arial;writing-mode:lr-tb;fill:#000000;fill-opacity:1;fill-rule:nonzero;stroke:none"
         x="0"
         y="0">part-name-compartment</tspan></text>
    <text
       id="text7"
       xml:space="preserve"
       transform="matrix(0.94522463,0,0,0.94522463,86.416463,67.553229)"
       clip-path="url(#clipPath8)"><tspan
         id="tspan7"
         style="font-variant:normal;font-weight:normal;font-size:12px;font-family:Arial;writing-mode:lr-tb;fill:#000000;fill-opacity:1;fill-rule:nonzero;stroke:none"
         x="0"
         y="0">interconnection-view</tspan></text>
    <text
       id="text8"
       xml:space="preserve"
       transform="matrix(0.94522463,0,0,0.94522463,89.901979,99.690867)"
       clip-path="url(#clipPath9)"><tspan
         id="tspan8"
         style="font-variant:normal;font-weight:normal;font-size:12px;font-family:Arial;writing-mode:lr-tb;fill:#000000;fill-opacity:1;fill-rule:nonzero;stroke:none"
         x="0"
         y="0">compartment-stack</tspan></text>
    <path
       id="path10"
       d="m 802,547.09003 h 38 v 14.12 h -38 z"
       style="fill:#ffffff;fill-opacity:1;fill-rule:nonzero;stroke:#ffffff;stroke-width:1;stroke-linecap:butt;stroke-linejoin:miter;stroke-miterlimit:10;stroke-dasharray:none;stroke-opacity:1"
       transform="matrix(0.94522463,0,0,0.94522463,-639.79665,-515.17779)"
       clip-path="url(#clipPath11)" />
    <text
       id="text11"
       xml:space="preserve"
       transform="matrix(0.94522463,0,0,0.94522463,120.31162,11.784976)"
       clip-path="url(#clipPath12)"><tspan
         id="tspan11"
         style="font-variant:normal;font-weight:normal;font-size:12px;font-family:Arial;writing-mode:lr-tb;fill:#000000;fill-opacity:1;fill-rule:nonzero;stroke:none"
         x="0"
         y="0">port-t*</tspan></text>
    <path
       id="path13"
       d="M 932.02002,605.41998 H 970 v 14.12 h -37.97998 z"
       style="fill:#ffffff;fill-opacity:1;fill-rule:nonzero;stroke:#ffffff;stroke-width:1;stroke-linecap:butt;stroke-linejoin:miter;stroke-miterlimit:10;stroke-dasharray:none;stroke-opacity:1"
       transform="matrix(0.94522463,0,0,0.94522463,-639.79665,-515.17779)"
       clip-path="url(#clipPath14)" />
    <text
       id="text14"
       xml:space="preserve"
       transform="matrix(0.94522463,0,0,0.94522463,242.88068,66.608005)"
       clip-path="url(#clipPath15)"><tspan
         id="tspan14"
         style="font-variant:normal;font-weight:normal;font-size:12px;font-family:Arial;writing-mode:lr-tb;fill:#000000;fill-opacity:1;fill-rule:nonzero;stroke:none"
         x="0"
         y="0">port-r*</tspan></text>
    <path
       id="path16"
       d="m 680,605.41998 h 36.97998 v 14.12 H 680 Z"
       style="fill:#ffffff;fill-opacity:1;fill-rule:nonzero;stroke:#ffffff;stroke-width:1;stroke-linecap:butt;stroke-linejoin:miter;stroke-miterlimit:10;stroke-dasharray:none;stroke-opacity:1"
       transform="matrix(0.94522463,0,0,0.94522463,-639.79665,-515.17779)"
       clip-path="url(#clipPath17)" />
    <text
       id="text17"
       xml:space="preserve"
       transform="matrix(0.94522463,0,0,0.94522463,4.831762,66.608005)"
       clip-path="url(#clipPath18)"><tspan
         id="tspan17"
         style="font-variant:normal;font-weight:normal;font-size:12px;font-family:Arial;writing-mode:lr-tb;fill:#000000;fill-opacity:1;fill-rule:nonzero;stroke:none"
         x="0"
         y="0">port-l*</tspan></text>
    <path
       id="path19"
       d="m 800,663.97998 h 50 v 14.10999 h -50 z"
       style="fill:#ffffff;fill-opacity:1;fill-rule:nonzero;stroke:#ffffff;stroke-width:1;stroke-linecap:butt;stroke-linejoin:miter;stroke-miterlimit:10;stroke-dasharray:none;stroke-opacity:1"
       transform="matrix(0.94522463,0,0,0.94522463,-639.79665,-515.17779)"
       clip-path="url(#clipPath20)" />
    <text
       id="text20"
       xml:space="preserve"
       transform="matrix(0.94522463,0,0,0.94522463,122.51223,122.37626)"
       clip-path="url(#clipPath21)"><tspan
         id="tspan20"
         style="font-variant:normal;font-weight:normal;font-size:12px;font-family:Arial;writing-mode:lr-tb;fill:#000000;fill-opacity:1;fill-rule:nonzero;stroke:none"
         x="0"
         y="0">port-b*</tspan></text>
  </g>
</svg>
