<?xml version="1.0" encoding="UTF-8" standalone="no"?>
<!-- Created with Inkscape (http://www.inkscape.org/) -->

<svg
   version="1.1"
   id="svg1"
   width="42.560001"
   height="19.84"
   viewBox="0 0 42.560001 19.84"
   xmlns="http://www.w3.org/2000/svg"
   xmlns:svg="http://www.w3.org/2000/svg">
  <defs
     id="defs1">
    <clipPath
       clipPathUnits="userSpaceOnUse"
       id="clipPath2">
      <path
         d="M 0,0 H 134 V 62.988281 H 0 Z"
         transform="scale(0.31999999)"
         clip-rule="evenodd"
         id="path2" />
    </clipPath>
    <clipPath
       clipPathUnits="userSpaceOnUse"
       id="clipPath4">
      <path
         d="M 3.125,0 H 131.25 V 62.988281 H 3.125 Z"
         transform="matrix(0.36450332,0,0,0.36450332,456.37133,67.860928)"
         clip-rule="evenodd"
         id="path4" />
    </clipPath>
    <clipPath
       clipPathUnits="userSpaceOnUse"
       id="clipPath6">
      <path
         d="M 3.125,0 H 131.25 V 62.988281 H 3.125 Z"
         transform="matrix(0.36450332,0,0,0.36450332,456.37133,67.860928)"
         clip-rule="evenodd"
         id="path6" />
    </clipPath>
    <clipPath
       clipPathUnits="userSpaceOnUse"
       id="clipPath8">
      <path
         d="M 3.125,0 H 131.25 V 62.988281 H 3.125 Z"
         transform="matrix(0.36450332,0,0,0.36450332,456.37133,67.860928)"
         clip-rule="evenodd"
         id="path8" />
    </clipPath>
    <clipPath
       clipPathUnits="userSpaceOnUse"
       id="clipPath10">
      <path
         d="M 3.125,0 H 131.25 V 62.988281 H 3.125 Z"
         transform="matrix(0.36450332,0,0,0.36450332,456.37133,67.860928)"
         clip-rule="evenodd"
         id="path10" />
    </clipPath>
  </defs>
  <g
     id="g1">
    <path
       id="path1"
       d="M 0,0 H 43 V 20 H 0 Z"
       style="fill:#ffffff;fill-opacity:1;fill-rule:nonzero;stroke:none"
       clip-path="url(#clipPath2)" />
    <path
       id="path3"
       d="m 479.64999,79 h 10.11002"
       style="fill:none;stroke:#000000;stroke-width:1;stroke-linecap:butt;stroke-linejoin:miter;stroke-miterlimit:10;stroke-dasharray:none;stroke-opacity:1"
       transform="matrix(0.87790691,0,0,0.87790691,-400.65154,-59.575578)"
       clip-path="url(#clipPath4)" />
    <path
       id="path5"
       d="m 481.88,83.5 9,-4.5 -9,-4.5"
       style="fill:none;stroke:#000000;stroke-width:1;stroke-linecap:butt;stroke-linejoin:miter;stroke-miterlimit:10;stroke-dasharray:none;stroke-opacity:1"
       transform="matrix(0.87790691,0,0,0.87790691,-400.65154,-59.575578)"
       clip-path="url(#clipPath6)" />
    <path
       id="path7"
       d="M 481,79 H 470.89001"
       style="fill:none;stroke:#000000;stroke-width:1;stroke-linecap:butt;stroke-linejoin:miter;stroke-miterlimit:10;stroke-dasharray:none;stroke-opacity:1"
       transform="matrix(0.87790691,0,0,0.87790691,-400.65154,-59.575578)"
       clip-path="url(#clipPath8)" />
    <path
       id="path9"
       d="m 478.76999,74.5 -9,4.5 9,4.5"
       style="fill:none;stroke:#000000;stroke-width:1;stroke-linecap:butt;stroke-linejoin:miter;stroke-miterlimit:10;stroke-dasharray:none;stroke-opacity:1"
       transform="matrix(0.87790691,0,0,0.87790691,-400.65154,-59.575578)"
       clip-path="url(#clipPath10)" />
  </g>
</svg>
