<?xml version="1.0" encoding="UTF-8" standalone="no"?>
<!-- Created with Inkscape (http://www.inkscape.org/) -->

<svg
   version="1.1"
   id="svg1"
   width="19.84"
   height="42.560001"
   viewBox="0 0 19.84 42.560001"
   xmlns="http://www.w3.org/2000/svg"
   xmlns:svg="http://www.w3.org/2000/svg">
  <defs
     id="defs1">
    <clipPath
       clipPathUnits="userSpaceOnUse"
       id="clipPath2">
      <path
         d="M 0,0 H 62.988281 V 134 H 0 Z"
         transform="scale(0.31999999)"
         clip-rule="evenodd"
         id="path2" />
    </clipPath>
    <clipPath
       clipPathUnits="userSpaceOnUse"
       id="clipPath4">
      <path
         d="m 3.125,12.5 h 56.25 V 125 H 3.125 Z"
         transform="matrix(0.42114603,0,0,0.42114603,547.36301,50.919592)"
         clip-rule="evenodd"
         id="path4" />
    </clipPath>
    <clipPath
       clipPathUnits="userSpaceOnUse"
       id="clipPath6">
      <path
         d="m 3.125,12.5 h 56.25 V 125 H 3.125 Z"
         transform="matrix(0.42114603,0,0,0.42114603,547.36301,50.919592)"
         clip-rule="evenodd"
         id="path6" />
    </clipPath>
    <clipPath
       clipPathUnits="userSpaceOnUse"
       id="clipPath8">
      <path
         d="m 3.125,12.5 h 56.25 V 125 H 3.125 Z"
         transform="matrix(0.42114603,0,0,0.42114603,547.36301,50.919592)"
         clip-rule="evenodd"
         id="path8" />
    </clipPath>
    <clipPath
       clipPathUnits="userSpaceOnUse"
       id="clipPath10">
      <path
         d="m 3.125,12.5 h 56.25 V 125 H 3.125 Z"
         transform="matrix(0.42114603,0,0,0.42114603,547.36301,50.919592)"
         clip-rule="evenodd"
         id="path10" />
    </clipPath>
  </defs>
  <g
     id="g1">
    <path
       id="path1"
       d="M 0,0 H 20 V 43 H 0 Z"
       style="fill:#ffffff;fill-opacity:1;fill-rule:nonzero;stroke:none"
       clip-path="url(#clipPath2)" />
    <path
       id="path3"
       d="M 560,87.5 V 69.739998"
       style="fill:none;stroke:#000000;stroke-width:1;stroke-linecap:butt;stroke-linejoin:miter;stroke-miterlimit:10;stroke-dasharray:none;stroke-opacity:1"
       transform="matrix(0.75983142,0,0,0.75983142,-415.90361,-38.690306)"
       clip-path="url(#clipPath4)" />
    <path
       id="path5"
       d="m 564.5,77.620003 -4.5,-9 -4.5,9"
       style="fill:none;stroke:#000000;stroke-width:1;stroke-linecap:butt;stroke-linejoin:miter;stroke-miterlimit:10;stroke-dasharray:none;stroke-opacity:1"
       transform="matrix(0.75983142,0,0,0.75983142,-415.90361,-38.690306)"
       clip-path="url(#clipPath6)" />
    <path
       id="path7"
       d="M 560,70.5 V 88.260002"
       style="fill:none;stroke:#000000;stroke-width:1;stroke-linecap:butt;stroke-linejoin:miter;stroke-miterlimit:10;stroke-dasharray:none;stroke-opacity:1"
       transform="matrix(0.75983142,0,0,0.75983142,-415.90361,-38.690306)"
       clip-path="url(#clipPath8)" />
    <path
       id="path9"
       d="m 555.5,80.379997 4.5,9 4.5,-9"
       style="fill:none;stroke:#000000;stroke-width:1;stroke-linecap:butt;stroke-linejoin:miter;stroke-miterlimit:10;stroke-dasharray:none;stroke-opacity:1"
       transform="matrix(0.75983142,0,0,0.75983142,-415.90361,-38.690306)"
       clip-path="url(#clipPath10)" />
  </g>
</svg>
