<?xml version="1.0" encoding="UTF-8" standalone="no"?>
<!-- Created with Inkscape (http://www.inkscape.org/) -->

<svg
   version="1.1"
   id="svg1"
   width="283.84"
   height="97.279999"
   viewBox="0 0 283.84 97.279999"
   xmlns="http://www.w3.org/2000/svg"
   xmlns:svg="http://www.w3.org/2000/svg">
  <defs
     id="defs1">
    <clipPath
       clipPathUnits="userSpaceOnUse"
       id="clipPath2">
      <path
         d="M 0,0 H 887.98828 V 302.97852 H 0 Z"
         transform="scale(0.31999999)"
         clip-rule="evenodd"
         id="path2" />
    </clipPath>
    <clipPath
       clipPathUnits="userSpaceOnUse"
       id="clipPath4">
      <path
         d="m 3.125,0 h 881.25 V 302.97852 H 3.125 Z"
         transform="matrix(0.3384435,0,0,0.3384435,85.383911,1284.4423)"
         clip-rule="evenodd"
         id="path4" />
    </clipPath>
    <clipPath
       clipPathUnits="userSpaceOnUse"
       id="clipPath5">
      <path
         d="m 3.125,0 h 881.25 V 302.97852 H 3.125 Z"
         transform="matrix(0.3384435,0,0,0.3384435,-56.412965,-41.05768)"
         clip-rule="evenodd"
         id="path5" />
    </clipPath>
    <clipPath
       clipPathUnits="userSpaceOnUse"
       id="clipPath6">
      <path
         d="m 3.125,0 h 881.25 V 302.97852 H 3.125 Z"
         transform="matrix(0.3384435,0,0,0.3384435,-98.100469,-70.05768)"
         clip-rule="evenodd"
         id="path6" />
    </clipPath>
  </defs>
  <g
     id="g1">
    <path
       id="path1"
       d="M 0,0 H 284 V 97 H 0 Z"
       style="fill:#ffffff;fill-opacity:1;fill-rule:nonzero;stroke:none"
       clip-path="url(#clipPath2)" />
    <path
       id="path3"
       d="m 142.47,1294.49 h 183.81 c 1.24164,10e-5 2.47134,0.1212 3.68915,0.3633 1.2178,0.2423 2.40023,0.6009 3.54736,1.076 1.14713,0.4752 2.23691,1.0576 3.26929,1.7473 1.03238,0.69 1.98758,1.4739 2.86557,2.3518 0.87796,0.8781 1.66183,1.8332 2.35168,2.8655 0.68982,1.0325 1.27231,2.1222 1.74747,3.2693 0.47516,1.1472 0.83386,2.3297 1.07608,3.5476 0.24225,1.2178 0.36337,2.4475 0.3634,3.6892 v 44.3899 c -3e-5,1.2416 -0.12115,2.4712 -0.36337,3.6891 -0.24225,1.2177 -0.60095,2.4002 -1.07611,3.5473 -0.47516,1.1472 -1.05765,2.2369 -1.74747,3.2692 -0.68985,1.0324 -1.47372,1.9877 -2.35168,2.8657 -0.87799,0.878 -1.83319,1.6618 -2.86557,2.3516 -1.03238,0.6898 -2.12216,1.2724 -3.26929,1.7476 -1.14713,0.4752 -2.32956,0.8338 -3.54736,1.076 -1.21781,0.2423 -2.44751,0.3634 -3.68915,0.3636 H 142.47 c -1.24165,-2e-4 -2.47137,-0.1213 -3.68916,-0.3636 -1.21779,-0.2422 -2.40026,-0.6008 -3.5474,-1.076 -1.14714,-0.4752 -2.2369,-1.0578 -3.2693,-1.7476 -1.03238,-0.6898 -1.98756,-1.4736 -2.86554,-2.3516 -0.87799,-0.878 -1.66189,-1.8333 -2.35171,-2.8657 -0.68983,-1.0323 -1.27231,-2.122 -1.74746,-3.2691 -0.47517,-1.1471 -0.83386,-2.3296 -1.07609,-3.5474 -0.24223,-1.2179 -0.36335,-2.4475 -0.36334,-3.6891 V 1313.4 c -1e-5,-1.2417 0.12111,-2.4714 0.36334,-3.6892 0.24223,-1.2179 0.60092,-2.4004 1.07608,-3.5476 0.47515,-1.1471 1.05764,-2.2368 1.74747,-3.2693 0.68982,-1.0323 1.47372,-1.9874 2.35171,-2.8655 0.87798,-0.8779 1.83316,-1.6618 2.86556,-2.3518 1.03239,-0.6898 2.12214,-1.2722 3.26928,-1.7474 1.14714,-0.4751 2.32959,-0.8337 3.54738,-1.0759 1.21779,-0.2421 2.44753,-0.3632 3.68918,-0.3633 z"
       style="fill:#ffffff;fill-opacity:1;fill-rule:nonzero;stroke:#000000;stroke-width:1;stroke-linecap:butt;stroke-linejoin:miter;stroke-miterlimit:10;stroke-dasharray:none;stroke-opacity:1"
       transform="matrix(0.94550489,0,0,0.94550489,-80.730905,-1214.4465)"
       clip-path="url(#clipPath4)" />
    <text
       id="text4"
       xml:space="preserve"
       transform="matrix(0.94550489,0,0,0.94550489,53.338734,38.820237)"
       clip-path="url(#clipPath5)"><tspan
         id="tspan4"
         style="font-variant:normal;font-weight:normal;font-size:12px;font-family:Arial;writing-mode:lr-tb;fill:#000000;fill-opacity:1;fill-rule:nonzero;stroke:none"
         x="0"
         y="0">perform-action-name-compartment</tspan></text>
    <text
       id="text5"
       xml:space="preserve"
       transform="matrix(0.94550489,0,0,0.94550489,92.754473,66.239879)"
       clip-path="url(#clipPath6)"><tspan
         id="tspan5"
         style="font-variant:normal;font-weight:normal;font-size:12px;font-family:Arial;writing-mode:lr-tb;fill:#000000;fill-opacity:1;fill-rule:nonzero;stroke:none"
         x="0"
         y="0">compartment-stack</tspan></text>
  </g>
</svg>
