<?xml version="1.0" encoding="UTF-8" standalone="no"?>
<!-- Created with Inkscape (http://www.inkscape.org/) -->

<svg
   version="1.1"
   id="svg1"
   width="102.72"
   height="46.720001"
   viewBox="0 0 102.72 46.720001"
   xmlns="http://www.w3.org/2000/svg"
   xmlns:svg="http://www.w3.org/2000/svg">
  <defs
     id="defs1">
    <clipPath
       clipPathUnits="userSpaceOnUse"
       id="clipPath2">
      <path
         d="M 0,0 H 320.99609 V 147 H 0 Z"
         transform="scale(0.31999999)"
         clip-rule="evenodd"
         id="path2" />
    </clipPath>
    <clipPath
       clipPathUnits="userSpaceOnUse"
       id="clipPath4">
      <path
         d="M 3.125,0 H 318.75 V 146.875 H 3.125 Z"
         transform="matrix(0.34622952,0,0,0.34622952,97.32941,132.24803)"
         clip-rule="evenodd"
         id="path4" />
    </clipPath>
    <clipPath
       clipPathUnits="userSpaceOnUse"
       id="clipPath5">
      <path
         d="M 3.125,0 H 318.75 V 146.875 H 3.125 Z"
         transform="matrix(0.34622952,0,0,0.34622952,-61.998718,-36.251961)"
         clip-rule="evenodd"
         id="path5" />
    </clipPath>
    <clipPath
       clipPathUnits="userSpaceOnUse"
       id="clipPath7">
      <path
         d="M 3.125,0 H 318.75 V 146.875 H 3.125 Z"
         transform="matrix(0.34622952,0,0,0.34622952,97.32941,132.24803)"
         clip-rule="evenodd"
         id="path7" />
    </clipPath>
    <clipPath
       clipPathUnits="userSpaceOnUse"
       id="clipPath9">
      <path
         d="M 3.125,0 H 318.75 V 146.875 H 3.125 Z"
         transform="matrix(0.34622952,0,0,0.34622952,97.32941,132.24803)"
         clip-rule="evenodd"
         id="path9" />
    </clipPath>
    <clipPath
       clipPathUnits="userSpaceOnUse"
       id="clipPath11">
      <path
         d="M 3.125,0 H 318.75 V 146.875 H 3.125 Z"
         transform="matrix(0.34622952,0,0,0.34622952,97.829408,132.74804)"
         clip-rule="evenodd"
         id="path11" />
    </clipPath>
    <clipPath
       clipPathUnits="userSpaceOnUse"
       id="clipPath12">
      <path
         d="M 3.125,0 H 318.75 V 146.875 H 3.125 Z"
         transform="matrix(0.34622952,0,0,0.34622952,-4.1549675,-13.25196)"
         clip-rule="evenodd"
         id="path12" />
    </clipPath>
  </defs>
  <g
     id="g1">
    <path
       id="path1"
       d="M 0,0 H 103 V 47 H 0 Z"
       style="fill:#ffffff;fill-opacity:1;fill-rule:nonzero;stroke:none"
       clip-path="url(#clipPath2)" />
    <path
       id="path3"
       d="m 158.5,150.83 h 21 c 0.59673,0 1.17076,0.11418 1.72208,0.34253 0.5513,0.22836 1.03793,0.55353 1.4599,0.97548 0.42195,0.42195 0.7471,0.90858 0.97548,1.4599 0.22834,0.55131 0.34252,1.12534 0.34254,1.72209 v 21 c -2e-5,0.59673 -0.1142,1.17073 -0.34254,1.72205 -0.22838,0.55131 -0.55353,1.03796 -0.97548,1.45993 -0.42197,0.42193 -0.9086,0.74708 -1.45992,0.97546 -0.55131,0.22837 -1.12533,0.34255 -1.72206,0.34256 h -21 c -0.59676,-1e-5 -1.17078,-0.11419 -1.72209,-0.34256 -0.55132,-0.22838 -1.03795,-0.55353 -1.4599,-0.97546 -0.42195,-0.42197 -0.74712,-0.9086 -0.9755,-1.45992 C 154.11417,177.50075 153.99998,176.92673 154,176.33 v -21 c -2e-5,-0.59675 0.11417,-1.17078 0.34251,-1.72209 0.22838,-0.55132 0.55355,-1.03795 0.9755,-1.4599 0.42195,-0.42195 0.90858,-0.74712 1.4599,-0.97548 0.55131,-0.22835 1.12533,-0.34253 1.72209,-0.34253 z"
       style="fill:#ffffff;fill-opacity:1;fill-rule:nonzero;stroke:#000000;stroke-width:1;stroke-linecap:butt;stroke-linejoin:miter;stroke-miterlimit:10;stroke-dasharray:none;stroke-opacity:1"
       transform="matrix(0.92424236,0,0,0.92424236,-89.955964,-122.22923)"
       clip-path="url(#clipPath4)" />
    <text
       id="text4"
       xml:space="preserve"
       transform="matrix(0.92424236,0,0,0.92424236,57.301841,33.505598)"
       clip-path="url(#clipPath5)"><tspan
         id="tspan4"
         style="font-variant:normal;font-weight:normal;font-size:12px;font-family:Arial;writing-mode:lr-tb;fill:#000000;fill-opacity:1;fill-rule:nonzero;stroke:none"
         x="0"
         y="0">pdv</tspan></text>
    <path
       id="path6"
       d="m 134,165.83 h 20"
       style="fill:none;stroke:#000000;stroke-width:1;stroke-linecap:butt;stroke-linejoin:miter;stroke-miterlimit:10;stroke-dasharray:none;stroke-opacity:1"
       transform="matrix(0.92424236,0,0,0.92424236,-89.955964,-122.22923)"
       clip-path="url(#clipPath7)" />
    <path
       id="path8"
       d="m 184,165.83 h 20"
       style="fill:none;stroke:#000000;stroke-width:1;stroke-linecap:butt;stroke-linejoin:miter;stroke-miterlimit:10;stroke-dasharray:none;stroke-opacity:1"
       transform="matrix(0.92424236,0,0,0.92424236,-89.955964,-122.22923)"
       clip-path="url(#clipPath9)" />
    <path
       id="path10"
       d="m 102,135 h 50 v 14 h -50 z"
       style="fill:#f8f9fa;fill-opacity:1;fill-rule:nonzero;stroke:none"
       transform="matrix(0.92424236,0,0,0.92424236,-90.418083,-122.69136)"
       clip-path="url(#clipPath11)" />
    <text
       id="text11"
       xml:space="preserve"
       transform="matrix(0.92424236,0,0,0.92424236,3.840197,12.248023)"
       clip-path="url(#clipPath12)"><tspan
         id="tspan11"
         style="font-variant:normal;font-weight:normal;font-size:12px;font-family:Arial;writing-mode:lr-tb;fill:#000000;fill-opacity:1;fill-rule:nonzero;stroke:none"
         x="0"
         y="0">port-label</tspan></text>
  </g>
</svg>
