<?xml version="1.0" encoding="UTF-8" standalone="no"?>
<!-- Created with Inkscape (http://www.inkscape.org/) -->

<svg
   version="1.1"
   id="svg1"
   width="149.43999"
   height="46.720001"
   viewBox="0 0 149.43999 46.720001"
   xmlns="http://www.w3.org/2000/svg"
   xmlns:svg="http://www.w3.org/2000/svg">
  <defs
     id="defs1">
    <clipPath
       clipPathUnits="userSpaceOnUse"
       id="clipPath2">
      <path
         d="M 0,0 H 464.99023 V 147 H 0 Z"
         transform="scale(0.31999999)"
         clip-rule="evenodd"
         id="path2" />
    </clipPath>
    <clipPath
       clipPathUnits="userSpaceOnUse"
       id="clipPath4">
      <path
         d="M 3.125,0 H 462.5 V 146.875 H 3.125 Z"
         transform="matrix(0,-0.34326276,0.34326276,0,338.99229,510.08393)"
         clip-rule="evenodd"
         id="path4" />
    </clipPath>
    <clipPath
       clipPathUnits="userSpaceOnUse"
       id="clipPath6">
      <path
         d="M 3.125,0 H 462.5 V 146.875 H 3.125 Z"
         transform="matrix(0,-0.34326276,0.34326276,0,341.58231,509.15391)"
         clip-rule="evenodd"
         id="path6" />
    </clipPath>
    <clipPath
       clipPathUnits="userSpaceOnUse"
       id="clipPath7">
      <path
         d="M 3.125,0 H 462.5 V 146.875 H 3.125 Z"
         transform="matrix(0,0.34326276,-0.34326276,0,31.483098,-118.06747)"
         clip-rule="evenodd"
         id="path7" />
    </clipPath>
    <clipPath
       clipPathUnits="userSpaceOnUse"
       id="clipPath8">
      <path
         d="M 3.125,0 H 462.5 V 146.875 H 3.125 Z"
         transform="matrix(0.34326276,0,0,0.34326276,-43.988296,-24.567685)"
         clip-rule="evenodd"
         id="path8" />
    </clipPath>
    <clipPath
       clipPathUnits="userSpaceOnUse"
       id="clipPath10">
      <path
         d="M 3.125,0 H 462.5 V 146.875 H 3.125 Z"
         transform="matrix(0.34326276,0,0,0.34326276,284.49609,407.9323)"
         clip-rule="evenodd"
         id="path10" />
    </clipPath>
    <clipPath
       clipPathUnits="userSpaceOnUse"
       id="clipPath12">
      <path
         d="M 3.125,0 H 462.5 V 146.875 H 3.125 Z"
         transform="matrix(0.34326276,0,0,0.34326276,284.49609,407.9323)"
         clip-rule="evenodd"
         id="path12" />
    </clipPath>
    <clipPath
       clipPathUnits="userSpaceOnUse"
       id="clipPath14">
      <path
         d="M 3.125,0 H 462.5 V 146.875 H 3.125 Z"
         transform="matrix(0.34326276,0,0,0.34326276,284.49609,407.9323)"
         clip-rule="evenodd"
         id="path14" />
    </clipPath>
    <clipPath
       clipPathUnits="userSpaceOnUse"
       id="clipPath15">
      <path
         d="M 3.125,0 H 462.5 V 146.875 H 3.125 Z"
         transform="matrix(0.34326276,0,0,0.34326276,-62.488295,-45.567684)"
         clip-rule="evenodd"
         id="path15" />
    </clipPath>
  </defs>
  <g
     id="g1">
    <path
       id="path1"
       d="M 0,0 H 149 V 47 H 0 Z"
       style="fill:#ffffff;fill-opacity:1;fill-rule:nonzero;stroke:none"
       clip-path="url(#clipPath2)" />
    <path
       id="path3"
       d="m 352.89999,417.59 h 19.82999 c 0.56357,0 1.10568,0.10781 1.62634,0.32345 0.52066,0.21567 0.98029,0.52277 1.37882,0.9213 0.39847,0.39847 0.70556,0.85806 0.92126,1.37875 0.21567,0.52069 0.32355,1.06287 0.32358,1.6265 v 19.82998 c -3e-5,0.56354 -0.10791,1.10565 -0.32358,1.62635 -0.2157,0.52069 -0.52279,0.98031 -0.92126,1.37884 -0.39853,0.39847 -0.85816,0.70557 -1.37882,0.92127 -0.52066,0.21566 -1.06277,0.32351 -1.62634,0.32354 h -19.82999 c -0.56359,-3e-5 -1.10574,-0.10791 -1.62643,-0.32357 -0.52072,-0.21567 -0.98032,-0.52277 -1.37878,-0.92124 -0.39853,-0.39853 -0.70566,-0.85815 -0.92133,-1.37887 -0.21567,-0.52067 -0.32349,-1.06278 -0.32346,-1.62632 V 421.84 c -3e-5,-0.56363 0.10779,-1.10581 0.32346,-1.6265 0.21567,-0.52069 0.5228,-0.98028 0.92133,-1.37875 0.39846,-0.39853 0.85806,-0.70563 1.37878,-0.9213 0.52069,-0.21564 1.06284,-0.32345 1.62643,-0.32345 z"
       style="fill:#ffffff;fill-opacity:1;fill-rule:nonzero;stroke:none"
       transform="matrix(0,0.93223043,-0.93223043,0,475.51576,-316.01893)"
       clip-path="url(#clipPath4)" />
    <path
       id="path5"
       d="m 349.64999,384.59 h 28 c 0.39396,0 0.78412,0.0384 1.17051,0.11526 0.38638,0.0769 0.76156,0.19071 1.12554,0.34143 0.36399,0.15079 0.70975,0.3356 1.03733,0.55445 0.32754,0.2189 0.63064,0.46762 0.90924,0.74618 0.27856,0.27857 0.52728,0.58164 0.74618,0.90921 0.21885,0.32755 0.40366,0.67334 0.55442,1.03732 0.15078,0.36399 0.26458,0.73917 0.34146,1.12555 0.0769,0.38642 0.11529,0.77661 0.11532,1.1706 v 78.82998 c -3e-5,0.39395 -0.0385,0.78412 -0.11532,1.1705 -0.0769,0.38639 -0.19068,0.76157 -0.34146,1.12555 -0.15076,0.36396 -0.33557,0.70972 -0.55445,1.0373 -0.21887,0.32757 -0.46759,0.63064 -0.74615,0.90924 -0.2786,0.27856 -0.5817,0.52728 -0.90924,0.74615 -0.32758,0.2189 -0.67334,0.40372 -1.03729,0.55451 -0.36399,0.15075 -0.73917,0.26455 -1.12555,0.3414 -0.38642,0.0769 -0.77658,0.11532 -1.17054,0.11535 h -28 c -0.39401,-3e-5 -0.78421,-0.0385 -1.17059,-0.11532 -0.38641,-0.0769 -0.7616,-0.19068 -1.12555,-0.34143 -0.36398,-0.15079 -0.70978,-0.33561 -1.03732,-0.55451 -0.32761,-0.21887 -0.63068,-0.46759 -0.90921,-0.74615 -0.2786,-0.2786 -0.52732,-0.58167 -0.74619,-0.90924 -0.21887,-0.32758 -0.40368,-0.67334 -0.55447,-1.0373 -0.15076,-0.36398 -0.26456,-0.73916 -0.3414,-1.12558 -0.0768,-0.38635 -0.11527,-0.77652 -0.11527,-1.17047 V 390.59 c 0,-0.39399 0.0384,-0.78418 0.11527,-1.1706 0.0768,-0.38638 0.19064,-0.76156 0.3414,-1.12555 0.15079,-0.36398 0.3356,-0.70977 0.55447,-1.03732 0.21887,-0.32757 0.46759,-0.63064 0.74619,-0.90921 0.27853,-0.27856 0.5816,-0.52728 0.90921,-0.74618 0.32754,-0.21885 0.67334,-0.40366 1.03732,-0.55445 0.36395,-0.15072 0.73914,-0.26455 1.12555,-0.34143 0.38638,-0.0768 0.77658,-0.11526 1.17059,-0.11526 z"
       style="fill:#ffffff;fill-opacity:1;fill-rule:nonzero;stroke:#000000;stroke-width:1;stroke-linecap:butt;stroke-linejoin:miter;stroke-miterlimit:10;stroke-dasharray:none;stroke-opacity:1"
       transform="matrix(0,0.93223043,-0.93223043,0,474.64877,-318.43342)"
       clip-path="url(#clipPath6)" />
    <text
       id="text6"
       xml:space="preserve"
       transform="matrix(0,-0.93223043,0.93223043,0,110.06609,29.349502)"
       clip-path="url(#clipPath7)"><tspan
         id="tspan6"
         style="font-variant:normal;font-weight:normal;font-size:12px;font-family:Arial;writing-mode:lr-tb;fill:#000000;fill-opacity:1;fill-rule:nonzero;stroke:none"
         x="0"
         y="0">pdv</tspan></text>
    <text
       id="text7"
       xml:space="preserve"
       transform="matrix(0.93223043,0,0,0.93223043,41.007228,22.902744)"
       clip-path="url(#clipPath8)"><tspan
         id="tspan7"
         style="font-variant:normal;font-weight:normal;font-size:12px;font-family:Arial;writing-mode:lr-tb;fill:#000000;fill-opacity:1;fill-rule:nonzero;stroke:none"
         x="0"
         y="0">port-label</tspan></text>
    <path
       id="path9"
       d="m 409.64999,430 h 30"
       style="fill:none;stroke:#000000;stroke-width:1;stroke-linecap:butt;stroke-linejoin:miter;stroke-miterlimit:10;stroke-dasharray:none;stroke-opacity:1"
       transform="matrix(0.93223043,0,0,0.93223043,-265.21591,-380.2869)"
       clip-path="url(#clipPath10)" />
    <path
       id="path11"
       d="m 287.64999,430 h 30"
       style="fill:none;stroke:#000000;stroke-width:1;stroke-linecap:butt;stroke-linejoin:miter;stroke-miterlimit:10;stroke-dasharray:none;stroke-opacity:1"
       transform="matrix(0.93223043,0,0,0.93223043,-265.21591,-380.2869)"
       clip-path="url(#clipPath12)" />
    <path
       id="path13"
       d="m 343.64999,442.92999 h 43 v 13.5 h -43 z"
       style="fill:#ffffff;fill-opacity:1;fill-rule:nonzero;stroke:#ffffff;stroke-width:1;stroke-linecap:butt;stroke-linejoin:miter;stroke-miterlimit:10;stroke-dasharray:none;stroke-opacity:1"
       transform="matrix(0.93223043,0,0,0.93223043,-265.21591,-380.2869)"
       clip-path="url(#clipPath14)" />
    <text
       id="text14"
       xml:space="preserve"
       transform="matrix(0.93223043,0,0,0.93223043,58.25349,42.479582)"
       clip-path="url(#clipPath15)"><tspan
         id="tspan14"
         style="font-variant:normal;font-weight:normal;font-size:12px;font-family:Arial;writing-mode:lr-tb;fill:#000000;fill-opacity:1;fill-rule:nonzero;stroke:none"
         x="0"
         y="0">port-b*</tspan></text>
  </g>
</svg>
