<?xml version="1.0" encoding="UTF-8" standalone="no"?>
<!-- Created with Inkscape (http://www.inkscape.org/) -->

<svg
   version="1.1"
   id="svg1"
   width="66.559998"
   height="149.43999"
   viewBox="0 0 66.559998 149.43999"
   xmlns="http://www.w3.org/2000/svg"
   xmlns:svg="http://www.w3.org/2000/svg">
  <defs
     id="defs1">
    <clipPath
       clipPathUnits="userSpaceOnUse"
       id="clipPath2">
      <path
         d="M 0,0 H 206.98242 V 464.99023 H 0 Z"
         transform="scale(0.31999999)"
         clip-rule="evenodd"
         id="path2" />
    </clipPath>
    <clipPath
       clipPathUnits="userSpaceOnUse"
       id="clipPath4">
      <path
         d="m 3.125,12.5 h 200 v 440.625 h -200 z"
         transform="matrix(0.35631383,0,0,0.35631383,328.25026,221.9326)"
         clip-rule="evenodd"
         id="path4" />
    </clipPath>
    <clipPath
       clipPathUnits="userSpaceOnUse"
       id="clipPath6">
      <path
         d="m 3.125,12.5 h 200 v 440.625 h -200 z"
         transform="matrix(0.35631383,0,0,0.35631383,328.25026,221.9326)"
         clip-rule="evenodd"
         id="path6" />
    </clipPath>
    <clipPath
       clipPathUnits="userSpaceOnUse"
       id="clipPath7">
      <path
         d="m 3.125,12.5 h 200 v 440.625 h -200 z"
         transform="matrix(0.35631383,0,0,0.35631383,-12.234134,-50.567418)"
         clip-rule="evenodd"
         id="path7" />
    </clipPath>
    <clipPath
       clipPathUnits="userSpaceOnUse"
       id="clipPath8">
      <path
         d="m 3.125,12.5 h 200 v 440.625 h -200 z"
         transform="matrix(0,0.35631383,-0.35631383,0,111.75303,-25.079744)"
         clip-rule="evenodd"
         id="path8" />
    </clipPath>
    <clipPath
       clipPathUnits="userSpaceOnUse"
       id="clipPath10">
      <path
         d="m 3.125,12.5 h 200 v 440.625 h -200 z"
         transform="matrix(0.35631383,0,0,0.35631383,328.25026,221.9326)"
         clip-rule="evenodd"
         id="path10" />
    </clipPath>
    <clipPath
       clipPathUnits="userSpaceOnUse"
       id="clipPath12">
      <path
         d="m 3.125,12.5 h 200 v 440.625 h -200 z"
         transform="matrix(0.35631383,0,0,0.35631383,328.25026,221.9326)"
         clip-rule="evenodd"
         id="path12" />
    </clipPath>
    <clipPath
       clipPathUnits="userSpaceOnUse"
       id="clipPath14">
      <path
         d="m 3.125,12.5 h 200 v 440.625 h -200 z"
         transform="matrix(0.35631383,0,0,0.35631383,328.25026,221.9326)"
         clip-rule="evenodd"
         id="path14" />
    </clipPath>
    <clipPath
       clipPathUnits="userSpaceOnUse"
       id="clipPath16">
      <path
         d="m 3.125,12.5 h 200 v 440.625 h -200 z"
         transform="matrix(0.35631383,0,0,0.35631383,328.75025,222.43258)"
         clip-rule="evenodd"
         id="path16" />
    </clipPath>
    <clipPath
       clipPathUnits="userSpaceOnUse"
       id="clipPath17">
      <path
         d="m 3.125,12.5 h 200 v 440.625 h -200 z"
         transform="matrix(0.35631383,0,0,0.35631383,-34.077883,-85.567418)"
         clip-rule="evenodd"
         id="path17" />
    </clipPath>
  </defs>
  <g
     id="g1">
    <path
       id="path1"
       d="M 0,0 H 66 V 149 H 0 Z"
       style="fill:#ffffff;fill-opacity:1;fill-rule:nonzero;stroke:none"
       clip-path="url(#clipPath2)" />
    <path
       id="path3"
       d="M 339.73001,290.82999 H 359.56 c 0.56354,0 1.10565,0.10785 1.62634,0.32351 0.52069,0.21567 0.98032,0.52274 1.37885,0.92127 0.39846,0.3985 0.70556,0.85809 0.92126,1.37878 0.21567,0.52066 0.32352,1.06281 0.32355,1.62644 v 19.82998 c -3e-5,0.56357 -0.10788,1.10569 -0.32355,1.62638 -0.2157,0.52069 -0.5228,0.98028 -0.92126,1.37881 -0.39853,0.3985 -0.85816,0.7056 -1.37882,0.92127 -0.52072,0.21566 -1.06283,0.32351 -1.62637,0.32354 h -19.82999 c -0.5636,-3e-5 -1.10574,-0.10788 -1.62643,-0.32354 -0.52066,-0.21567 -0.98026,-0.52277 -1.37879,-0.92127 -0.39856,-0.39853 -0.70566,-0.85812 -0.92132,-1.37881 -0.21567,-0.52069 -0.32349,-1.06281 -0.32346,-1.62638 v -19.82998 c -3e-5,-0.56363 0.10782,-1.10578 0.32349,-1.62644 0.21563,-0.52069 0.52273,-0.98028 0.92129,-1.37878 0.39853,-0.39853 0.85813,-0.7056 1.37879,-0.92127 0.52069,-0.21566 1.06283,-0.32351 1.62643,-0.32351 z"
       style="fill:#ffffff;fill-opacity:1;fill-rule:nonzero;stroke:none"
       transform="matrix(0.89808467,0,0,0.89808467,-294.79653,-199.31427)"
       clip-path="url(#clipPath4)" />
    <path
       id="path5"
       d="m 337.48001,259.17001 h 28 c 0.39395,0 0.78412,0.0384 1.1705,0.11527 0.38639,0.0769 0.76157,0.19067 1.12555,0.34143 0.36399,0.15076 0.70975,0.33557 1.03733,0.55444 0.32754,0.2189 0.63061,0.46762 0.90921,0.74622 0.27853,0.27856 0.52725,0.58163 0.74612,0.90921 0.2189,0.32754 0.40372,0.67331 0.55447,1.03729 0.15076,0.36398 0.26459,0.7392 0.34146,1.12561 0.0769,0.38638 0.11533,0.77658 0.11536,1.17053 V 344 c -3e-5,0.39395 -0.0385,0.78412 -0.11532,1.1705 -0.0769,0.38638 -0.19071,0.76157 -0.34147,1.12555 -0.15078,0.36395 -0.3356,0.70972 -0.55444,1.03729 -0.2189,0.32761 -0.46765,0.63068 -0.74618,0.90927 -0.2786,0.2786 -0.58167,0.52732 -0.90921,0.74616 -0.32758,0.2189 -0.67334,0.40372 -1.03733,0.55447 -0.36398,0.15076 -0.73916,0.26456 -1.12555,0.34143 -0.38638,0.0769 -0.77655,0.1153 -1.1705,0.11533 h -28 c -0.39401,-3e-5 -0.78421,-0.0385 -1.17059,-0.11536 -0.38642,-0.0768 -0.7616,-0.19064 -1.12558,-0.3414 -0.36399,-0.15075 -0.70978,-0.33557 -1.03733,-0.55447 -0.32754,-0.21884 -0.63061,-0.46756 -0.90917,-0.74616 -0.2786,-0.27859 -0.52732,-0.58166 -0.74616,-0.90924 -0.2189,-0.3276 -0.40375,-0.67337 -0.55447,-1.03732 -0.15079,-0.36398 -0.26459,-0.73917 -0.34143,-1.12555 -0.0769,-0.38638 -0.1153,-0.77655 -0.11527,-1.1705 v -78.82999 c -3e-5,-0.39395 0.0384,-0.78415 0.1153,-1.17053 0.0768,-0.38641 0.19061,-0.76163 0.3414,-1.12561 0.15072,-0.36398 0.33554,-0.70975 0.55444,-1.03729 0.21887,-0.32758 0.46759,-0.63065 0.74619,-0.90921 0.27856,-0.2786 0.58163,-0.52732 0.90917,-0.74622 0.32755,-0.21884 0.67334,-0.40365 1.03733,-0.55441 0.36398,-0.15076 0.73916,-0.26459 1.12558,-0.34146 0.38638,-0.0768 0.77658,-0.11527 1.17059,-0.11527 z"
       style="fill:#ffffff;fill-opacity:1;fill-rule:nonzero;stroke:#000000;stroke-width:1;stroke-linecap:butt;stroke-linejoin:miter;stroke-miterlimit:10;stroke-dasharray:none;stroke-opacity:1"
       transform="matrix(0.89808467,0,0,0.89808467,-294.79653,-199.31427)"
       clip-path="url(#clipPath6)" />
    <text
       id="text6"
       xml:space="preserve"
       transform="matrix(0.89808467,0,0,0.89808467,10.987288,45.413823)"
       clip-path="url(#clipPath7)"><tspan
         id="tspan6"
         style="font-variant:normal;font-weight:normal;font-size:12px;font-family:Arial;writing-mode:lr-tb;fill:#000000;fill-opacity:1;fill-rule:nonzero;stroke:none"
         x="0"
         y="0">pdh</tspan></text>
    <text
       id="text7"
       xml:space="preserve"
       transform="matrix(0,-0.89808467,0.89808467,0,22.523734,100.36368)"
       clip-path="url(#clipPath8)"><tspan
         id="tspan7"
         style="font-variant:normal;font-weight:normal;font-size:12px;font-family:Arial;writing-mode:lr-tb;fill:#000000;fill-opacity:1;fill-rule:nonzero;stroke:none"
         x="0"
         y="0">port-label</tspan></text>
    <path
       id="path9"
       d="M 350.48001,259 V 229"
       style="fill:none;stroke:#000000;stroke-width:1;stroke-linecap:butt;stroke-linejoin:miter;stroke-miterlimit:10;stroke-dasharray:none;stroke-opacity:1"
       transform="matrix(0.89808467,0,0,0.89808467,-294.79653,-199.31427)"
       clip-path="url(#clipPath10)" />
    <path
       id="path11"
       d="M 351.48001,380 V 350"
       style="fill:none;stroke:#000000;stroke-width:1;stroke-linecap:butt;stroke-linejoin:miter;stroke-miterlimit:10;stroke-dasharray:none;stroke-opacity:1"
       transform="matrix(0.89808467,0,0,0.89808467,-294.79653,-199.31427)"
       clip-path="url(#clipPath12)" />
    <path
       id="path13"
       d="m 361,298.12 h 37.48001 v 11.76001 H 361 Z"
       style="fill:none;stroke:#ffffff;stroke-width:1;stroke-linecap:butt;stroke-linejoin:miter;stroke-miterlimit:10;stroke-dasharray:none;stroke-opacity:1"
       transform="matrix(0.89808467,0,0,0.89808467,-294.79653,-199.31427)"
       clip-path="url(#clipPath14)" />
    <path
       id="path15"
       d="m 363,297 h 33 v 15 h -33 z"
       style="fill:#ffffff;fill-opacity:1;fill-rule:nonzero;stroke:none"
       transform="matrix(0.89808467,0,0,0.89808467,-295.24556,-199.76329)"
       clip-path="url(#clipPath16)" />
    <text
       id="text16"
       xml:space="preserve"
       transform="matrix(0.89808467,0,0,0.89808467,30.604824,76.846786)"
       clip-path="url(#clipPath17)"><tspan
         id="tspan16"
         style="font-variant:normal;font-weight:normal;font-size:12px;font-family:Arial;writing-mode:lr-tb;fill:#000000;fill-opacity:1;fill-rule:nonzero;stroke:none"
         x="0"
         y="0">port-r*</tspan></text>
  </g>
</svg>
