<?xml version="1.0" encoding="UTF-8" standalone="no"?>
<!-- Created with Inkscape (http://www.inkscape.org/) -->

<svg
   version="1.1"
   id="svg1"
   width="101.44"
   height="45.439999"
   viewBox="0 0 101.44 45.439999"
   xmlns="http://www.w3.org/2000/svg"
   xmlns:svg="http://www.w3.org/2000/svg">
  <defs
     id="defs1">
    <clipPath
       clipPathUnits="userSpaceOnUse"
       id="clipPath2">
      <path
         d="M 0,0 H 314.99023 V 141.01562 H 0 Z"
         transform="scale(0.31999999)"
         clip-rule="evenodd"
         id="path2" />
    </clipPath>
    <clipPath
       clipPathUnits="userSpaceOnUse"
       id="clipPath4">
      <path
         d="M 3.125,0 H 312.5 V 140.625 H 3.125 Z"
         transform="matrix(0.34794927,0,0,0.34794927,61.612754,577.24596)"
         clip-rule="evenodd"
         id="path4" />
    </clipPath>
    <clipPath
       clipPathUnits="userSpaceOnUse"
       id="clipPath6">
      <path
         d="M 3.125,0 H 312.5 V 140.625 H 3.125 Z"
         transform="matrix(0.34794927,0,0,0.34794927,61.612754,577.24596)"
         clip-rule="evenodd"
         id="path6" />
    </clipPath>
    <clipPath
       clipPathUnits="userSpaceOnUse"
       id="clipPath8">
      <path
         d="M 3.125,0 H 312.5 V 140.625 H 3.125 Z"
         transform="matrix(0.34794927,0,0,0.34794927,61.612754,577.24596)"
         clip-rule="evenodd"
         id="path8" />
    </clipPath>
    <clipPath
       clipPathUnits="userSpaceOnUse"
       id="clipPath9">
      <path
         d="M 3.125,0 H 312.5 V 140.625 H 3.125 Z"
         transform="matrix(0.34794927,0,0,0.34794927,-2.8559992,-13.254027)"
         clip-rule="evenodd"
         id="path9" />
    </clipPath>
    <clipPath
       clipPathUnits="userSpaceOnUse"
       id="clipPath10">
      <path
         d="M 3.125,0 H 312.5 V 140.625 H 3.125 Z"
         transform="matrix(0.34794927,0,0,0.34794927,-58.215374,-36.254027)"
         clip-rule="evenodd"
         id="path10" />
    </clipPath>
    <clipPath
       clipPathUnits="userSpaceOnUse"
       id="clipPath12">
      <path
         d="M 3.125,0 H 312.5 V 140.625 H 3.125 Z"
         transform="matrix(0.34794927,0,0,0.34794927,61.612754,577.24596)"
         clip-rule="evenodd"
         id="path12" />
    </clipPath>
    <clipPath
       clipPathUnits="userSpaceOnUse"
       id="clipPath14">
      <path
         d="M 3.125,0 H 312.5 V 140.625 H 3.125 Z"
         transform="matrix(0.34794927,0,0,0.34794927,61.612754,577.24596)"
         clip-rule="evenodd"
         id="path14" />
    </clipPath>
  </defs>
  <g
     id="g1">
    <path
       id="path1"
       d="M 0,0 H 101 V 45 H 0 Z"
       style="fill:#ffffff;fill-opacity:1;fill-rule:nonzero;stroke:none"
       clip-path="url(#clipPath2)" />
    <path
       id="path3"
       d="m 118.54,595.83002 h 19.82999 c 0.56359,0 1.1057,0.10779 1.62638,0.32342 0.5207,0.21576 0.9803,0.52289 1.37881,0.92139 0.39852,0.3985 0.70561,0.85803 0.9213,1.37872 0.21565,0.52069 0.3235,1.06281 0.32351,1.62647 v 19.83001 c -1e-5,0.56354 -0.10786,1.10566 -0.32351,1.62635 -0.21569,0.52069 -0.52278,0.98028 -0.9213,1.37884 -0.39851,0.3985 -0.85811,0.70557 -1.37881,0.92121 -0.52068,0.21563 -1.06279,0.32354 -1.62638,0.3236 H 118.54 c -0.56359,-6e-5 -1.10573,-0.10797 -1.62643,-0.3236 -0.52068,-0.21564 -0.98027,-0.52271 -1.37878,-0.92121 -0.39852,-0.39856 -0.70562,-0.85815 -0.92129,-1.37884 -0.21568,-0.52069 -0.32351,-1.06281 -0.3235,-1.62635 v -19.83001 c -1e-5,-0.56366 0.10782,-1.10584 0.3235,-1.62653 0.21567,-0.52063 0.52277,-0.98016 0.92129,-1.37866 0.39851,-0.3985 0.8581,-0.70563 1.37878,-0.92133 0.5207,-0.21563 1.06284,-0.32348 1.62643,-0.32348 z"
       style="fill:#ffffff;fill-opacity:1;fill-rule:nonzero;stroke:none"
       transform="matrix(0.91967427,0,0,0.91967427,-56.663665,-530.87826)"
       clip-path="url(#clipPath4)" />
    <path
       id="path5"
       d="m 120.54,595.83002 h 19.82999 c 0.56359,0 1.10572,0.10779 1.62639,0.32342 0.52068,0.21576 0.98029,0.52289 1.3788,0.92139 0.39852,0.3985 0.7056,0.85803 0.92128,1.37872 0.21569,0.52069 0.32352,1.06281 0.32353,1.62647 v 19.83001 c -1e-5,0.56354 -0.10784,1.10566 -0.32353,1.62635 -0.21568,0.52069 -0.52276,0.98028 -0.92128,1.37884 -0.39851,0.3985 -0.85812,0.70557 -1.3788,0.92121 -0.52067,0.21563 -1.0628,0.32354 -1.62639,0.3236 H 120.54 c -0.56359,-6e-5 -1.10573,-0.10797 -1.62642,-0.3236 -0.52068,-0.21564 -0.98028,-0.52271 -1.37879,-0.92121 -0.39852,-0.39856 -0.70562,-0.85815 -0.92129,-1.37884 -0.21568,-0.52069 -0.32351,-1.06281 -0.3235,-1.62635 v -19.83001 c -1e-5,-0.56366 0.10782,-1.10584 0.3235,-1.62653 0.21567,-0.52063 0.52277,-0.98016 0.92129,-1.37866 0.39851,-0.3985 0.85811,-0.70563 1.3788,-0.92133 0.52068,-0.21563 1.06282,-0.32348 1.62641,-0.32348 z"
       style="fill:#ffffff;fill-opacity:1;fill-rule:nonzero;stroke:none"
       transform="matrix(0.91967427,0,0,0.91967427,-56.663665,-530.87826)"
       clip-path="url(#clipPath6)" />
    <path
       id="path7"
       d="m 126.54,595.33002 h 3.00001 v 1 H 126.54 Z m 6.00001,0 h 3 v 1 h -3 z m 6,0 h 1.82998 c 0.4251,0 0.84266,0.056 1.25271,0.16815 l -0.26371,0.9646 c -0.32371,-0.0885 -0.65338,-0.13275 -0.989,-0.13275 h -1.82998 z m 5.87234,2.25567 c 0.47176,0.76453 0.70764,1.59595 0.70764,2.49433 v 0.66436 h -1 v -0.66436 c 0,-0.70923 -0.18621,-1.3656 -0.55865,-1.96918 z m 0.70764,6.15869 v 3 h -1 v -3 z m 0,6 v 3 h -1 v -3 z m 0,6 v 3 h -1 v -3 z m -0.42846,6.13715 c -0.52106,1.14215 -1.36264,1.95062 -2.52474,2.42554 l -0.37829,-0.92566 c 0.91746,-0.37494 1.58188,-1.01325 1.99324,-1.91492 z m -5.65027,2.7785 h -3 v -1 h 3 z m -6,0 h -3 v -1 h 3 z m -5.99999,0 h -3 v -1 h 3 z m -6,0 H 120.54 c -0.96906,0 -1.85514,-0.27118 -2.65823,-0.81353 l 0.55966,-0.82874 c 0.63402,0.42816 1.33355,0.64227 2.09857,0.64227 h 0.50127 z m -5.12805,-3.67504 c -0.0821,-0.35358 -0.12321,-0.71192 -0.12322,-1.07496 v -1.9931 h 1 v 1.9931 c 10e-6,0.28663 0.0324,0.56952 0.0973,0.84864 l -0.97406,0.22632 z M 115.79,614.91693 v -3 h 1 v 3 z m 0,-6 v -3 h 1 v 3 z m 0,-6 v -2.83691 c 0,-0.0565 10e-4,-0.11304 0.003,-0.16962 l 0.99936,0.0356 c -0.002,0.0446 -0.002,0.0892 -0.002,0.13398 v 2.83691 h -1 z m 1.31536,-6.11804 c 0.8392,-0.87848 1.8645,-1.36359 3.07592,-1.45532 l 0.0755,0.99719 c -0.95637,0.0725 -1.76582,0.45538 -2.42834,1.14893 z m 3.43464,-1.46887 h 3 v 1 h -3 z"
       style="fill:#000000;fill-opacity:1;fill-rule:nonzero;stroke:none"
       transform="matrix(0.91967427,0,0,0.91967427,-56.663665,-530.87826)"
       clip-path="url(#clipPath8)" />
    <text
       id="text8"
       xml:space="preserve"
       transform="matrix(0.91967427,0,0,0.91967427,2.626589,12.189388)"
       clip-path="url(#clipPath9)"><tspan
         id="tspan8"
         style="font-variant:normal;font-weight:normal;font-size:12px;font-family:Arial;writing-mode:lr-tb;fill:#000000;fill-opacity:1;fill-rule:nonzero;stroke:none"
         x="0"
         y="0">port-label</tspan></text>
    <text
       id="text9"
       xml:space="preserve"
       transform="matrix(0.91967427,0,0,0.91967427,53.539182,33.341896)"
       clip-path="url(#clipPath10)"><tspan
         id="tspan9"
         style="font-variant:normal;font-weight:normal;font-size:12px;font-family:Arial;writing-mode:lr-tb;fill:#000000;fill-opacity:1;fill-rule:nonzero;stroke:none"
         x="0"
         y="0">pdv</tspan></text>
    <path
       id="path11"
       d="M 93.739998,609 114.74,609.34003"
       style="fill:none;stroke:#000000;stroke-width:1;stroke-linecap:butt;stroke-linejoin:miter;stroke-miterlimit:10;stroke-dasharray:none;stroke-opacity:1"
       transform="matrix(0.91967427,0,0,0.91967427,-56.663665,-530.87826)"
       clip-path="url(#clipPath12)" />
    <path
       id="path13"
       d="m 145.74,610 h 21"
       style="fill:none;stroke:#000000;stroke-width:1;stroke-linecap:butt;stroke-linejoin:miter;stroke-miterlimit:10;stroke-dasharray:none;stroke-opacity:1"
       transform="matrix(0.91967427,0,0,0.91967427,-56.663665,-530.87826)"
       clip-path="url(#clipPath14)" />
  </g>
</svg>
