<?xml version="1.0" encoding="UTF-8" standalone="no"?>
<!-- Created with Inkscape (http://www.inkscape.org/) -->

<svg
   version="1.1"
   id="svg1"
   width="149.43999"
   height="48"
   viewBox="0 0 149.43999 48"
   xmlns="http://www.w3.org/2000/svg"
   xmlns:svg="http://www.w3.org/2000/svg">
  <defs
     id="defs1">
    <clipPath
       clipPathUnits="userSpaceOnUse"
       id="clipPath2">
      <path
         d="M 0,0 H 464.99023 V 150 H 0 Z"
         transform="scale(0.31999999)"
         clip-rule="evenodd"
         id="path2" />
    </clipPath>
    <clipPath
       clipPathUnits="userSpaceOnUse"
       id="clipPath4">
      <path
         d="M 3.125,0 H 462.5 V 150 H 3.125 Z"
         transform="matrix(0,-0.34329432,0.34329432,0,138.66371,515.5013)"
         clip-rule="evenodd"
         id="path4" />
    </clipPath>
    <clipPath
       clipPathUnits="userSpaceOnUse"
       id="clipPath6">
      <path
         d="M 3.125,0 H 462.5 V 150 H 3.125 Z"
         transform="matrix(0,-0.34329432,0.34329432,0,141.25373,514.57127)"
         clip-rule="evenodd"
         id="path6" />
    </clipPath>
    <clipPath
       clipPathUnits="userSpaceOnUse"
       id="clipPath7">
      <path
         d="M 3.125,0 H 462.5 V 150 H 3.125 Z"
         transform="matrix(0,0.34329432,-0.34329432,0,38.99172,-117.66483)"
         clip-rule="evenodd"
         id="path7" />
    </clipPath>
    <clipPath
       clipPathUnits="userSpaceOnUse"
       id="clipPath8">
      <path
         d="M 3.125,0 H 462.5 V 150 H 3.125 Z"
         transform="matrix(0.34329432,0,0,0.34329432,-46.405627,-31.576239)"
         clip-rule="evenodd"
         id="path8" />
    </clipPath>
    <clipPath
       clipPathUnits="userSpaceOnUse"
       id="clipPath10">
      <path
         d="M 3.125,0 H 462.5 V 150 H 3.125 Z"
         transform="matrix(0.34329432,0,0,0.34329432,91.578757,405.92373)"
         clip-rule="evenodd"
         id="path10" />
    </clipPath>
    <clipPath
       clipPathUnits="userSpaceOnUse"
       id="clipPath12">
      <path
         d="M 3.125,0 H 462.5 V 150 H 3.125 Z"
         transform="matrix(0.34329432,0,0,0.34329432,91.578757,405.92373)"
         clip-rule="evenodd"
         id="path12" />
    </clipPath>
    <clipPath
       clipPathUnits="userSpaceOnUse"
       id="clipPath14">
      <path
         d="M 3.125,0 H 462.5 V 150 H 3.125 Z"
         transform="matrix(0.34329432,0,0,0.34329432,91.578757,405.92373)"
         clip-rule="evenodd"
         id="path14" />
    </clipPath>
    <clipPath
       clipPathUnits="userSpaceOnUse"
       id="clipPath15">
      <path
         d="M 3.125,0 H 462.5 V 150 H 3.125 Z"
         transform="matrix(0.34329432,0,0,0.34329432,-63.077502,-12.576239)"
         clip-rule="evenodd"
         id="path15" />
    </clipPath>
  </defs>
  <g
     id="g1">
    <path
       id="path1"
       d="M 0,0 H 149 V 48 H 0 Z"
       style="fill:#ffffff;fill-opacity:1;fill-rule:nonzero;stroke:none"
       clip-path="url(#clipPath2)" />
    <path
       id="path3"
       d="m 159.99,423 h 19.83001 c 0.56357,0 1.10569,0.10782 1.6264,0.32346 0.52068,0.21566 0.98029,0.52279 1.3788,0.92132 0.39851,0.39853 0.7056,0.85813 0.92128,1.37879 0.21568,0.52069 0.32352,1.06283 0.32352,1.62643 v 19.82999 c 0,0.56356 -0.10785,1.10568 -0.32353,1.62637 -0.21567,0.52066 -0.52276,0.98025 -0.92127,1.37878 -0.39851,0.3985 -0.85812,0.7056 -1.3788,0.92127 -0.52071,0.2157 -1.06283,0.32355 -1.6264,0.32358 H 159.99 c -0.56359,-3e-5 -1.10574,-0.10788 -1.62641,-0.32355 -0.52069,-0.2157 -0.98029,-0.5228 -1.3788,-0.9213 -0.39852,-0.39853 -0.70562,-0.85812 -0.9213,-1.37881 -0.21567,-0.52066 -0.3235,-1.06278 -0.32349,-1.62634 V 427.25 c -1e-5,-0.5636 0.10782,-1.10574 0.32351,-1.62643 0.21566,-0.52066 0.52276,-0.98026 0.92128,-1.37879 0.39851,-0.39853 0.85811,-0.70563 1.37878,-0.92129 C 158.88426,423.10782 159.42641,423 159.99,423 Z"
       style="fill:#ffffff;fill-opacity:1;fill-rule:nonzero;stroke:none"
       transform="matrix(0,0.93214473,-0.93214473,0,480.52182,-129.25465)"
       clip-path="url(#clipPath4)" />
    <path
       id="path5"
       d="m 156.74,390 h 28.00001 c 0.39396,0 0.78414,0.0384 1.17054,0.11523 0.38639,0.0769 0.76157,0.19068 1.12555,0.34144 0.36397,0.15075 0.70975,0.33557 1.03733,0.55447 0.32756,0.21887 0.63063,0.46759 0.90921,0.74618 0.27858,0.27857 0.52729,0.58164 0.74617,0.90921 0.21887,0.32755 0.40368,0.67334 0.55444,1.03733 0.15077,0.36398 0.26459,0.73916 0.34144,1.12558 0.0769,0.38638 0.11532,0.77658 0.11532,1.17056 v 78.83002 c 0,0.39395 -0.0384,0.78415 -0.11532,1.17053 -0.0768,0.38638 -0.19067,0.76157 -0.34144,1.12552 -0.15076,0.36398 -0.33557,0.70978 -0.55446,1.03732 -0.21886,0.32758 -0.46757,0.63068 -0.74615,0.90927 -0.27858,0.27854 -0.58167,0.52725 -0.90923,0.7461 -0.32758,0.2189 -0.67336,0.40371 -1.03732,0.55447 -0.36397,0.15079 -0.73915,0.26459 -1.12555,0.34146 -0.3864,0.0769 -0.77657,0.11533 -1.17053,0.11533 H 156.74 c -0.39396,0 -0.78414,-0.0385 -1.17054,-0.11533 -0.3864,-0.0769 -0.7616,-0.19067 -1.12557,-0.34143 -0.36398,-0.15076 -0.70976,-0.33557 -1.03732,-0.55447 -0.32758,-0.21888 -0.63065,-0.46759 -0.90921,-0.74613 -0.27858,-0.27859 -0.52731,-0.58169 -0.74619,-0.90927 -0.21888,-0.32754 -0.4037,-0.67331 -0.55447,-1.03729 -0.15076,-0.36398 -0.26456,-0.73917 -0.34141,-1.12558 -0.0769,-0.38638 -0.1153,-0.77655 -0.11529,-1.1705 L 150.74,396 c -1e-5,-0.39398 0.0384,-0.78418 0.11529,-1.17056 0.0769,-0.38642 0.19065,-0.7616 0.34141,-1.12558 0.15077,-0.36399 0.33559,-0.70978 0.55447,-1.03733 0.21888,-0.32757 0.46761,-0.63064 0.74619,-0.90921 0.27856,-0.27859 0.58163,-0.52731 0.90921,-0.74618 0.32756,-0.2189 0.67334,-0.40372 1.03731,-0.55447 0.36397,-0.15076 0.73916,-0.26456 1.12556,-0.34141 C 155.95584,390.03842 156.34604,390 156.74,390 Z"
       style="fill:#ffffff;fill-opacity:1;fill-rule:nonzero;stroke:#000000;stroke-width:1;stroke-linecap:butt;stroke-linejoin:miter;stroke-miterlimit:10;stroke-dasharray:none;stroke-opacity:1"
       transform="matrix(0,0.93214473,-0.93214473,0,479.6549,-131.66892)"
       clip-path="url(#clipPath6)" />
    <text
       id="text6"
       xml:space="preserve"
       transform="matrix(0,-0.93214473,0.93214473,0,109.68065,36.345926)"
       clip-path="url(#clipPath7)"><tspan
         id="tspan6"
         style="font-variant:normal;font-weight:normal;font-size:12px;font-family:Arial;writing-mode:lr-tb;fill:#000000;fill-opacity:1;fill-rule:nonzero;stroke:none"
         x="0"
         y="0">pdv</tspan></text>
    <text
       id="text7"
       xml:space="preserve"
       transform="matrix(0.93214473,0,0,0.93214473,43.256761,29.433625)"
       clip-path="url(#clipPath8)"><tspan
         id="tspan7"
         style="font-variant:normal;font-weight:normal;font-size:12px;font-family:Arial;writing-mode:lr-tb;fill:#000000;fill-opacity:1;fill-rule:nonzero;stroke:none"
         x="0"
         y="0">port-label</tspan></text>
    <path
       id="path9"
       d="m 216.74001,435 h 30"
       style="fill:none;stroke:#000000;stroke-width:1;stroke-linecap:butt;stroke-linejoin:miter;stroke-miterlimit:10;stroke-dasharray:none;stroke-opacity:1"
       transform="matrix(0.93214473,0,0,0.93214473,-85.364656,-378.37967)"
       clip-path="url(#clipPath10)" />
    <path
       id="path11"
       d="M 94.739998,435 H 124.74"
       style="fill:none;stroke:#000000;stroke-width:1;stroke-linecap:butt;stroke-linejoin:miter;stroke-miterlimit:10;stroke-dasharray:none;stroke-opacity:1"
       transform="matrix(0.93214473,0,0,0.93214473,-85.364656,-378.37967)"
       clip-path="url(#clipPath12)" />
    <path
       id="path13"
       d="m 151.74,408 h 39 v 13.5 h -39 z"
       style="fill:#ffffff;fill-opacity:1;fill-rule:nonzero;stroke:#ffffff;stroke-width:1;stroke-linecap:butt;stroke-linejoin:miter;stroke-miterlimit:10;stroke-dasharray:none;stroke-opacity:1"
       transform="matrix(0.93214473,0,0,0.93214473,-85.364656,-378.37967)"
       clip-path="url(#clipPath14)" />
    <text
       id="text14"
       xml:space="preserve"
       transform="matrix(0.93214473,0,0,0.93214473,58.797361,11.722875)"
       clip-path="url(#clipPath15)"><tspan
         id="tspan14"
         style="font-variant:normal;font-weight:normal;font-size:12px;font-family:Arial;writing-mode:lr-tb;fill:#000000;fill-opacity:1;fill-rule:nonzero;stroke:none"
         x="0"
         y="0">port-t*</tspan></text>
  </g>
</svg>
