<?xml version="1.0" encoding="UTF-8" standalone="no"?>
<!-- Created with Inkscape (http://www.inkscape.org/) -->

<svg
   version="1.1"
   id="svg1"
   width="64"
   height="149.43999"
   viewBox="0 0 64 149.43999"
   xmlns="http://www.w3.org/2000/svg"
   xmlns:svg="http://www.w3.org/2000/svg">
  <defs
     id="defs1">
    <clipPath
       clipPathUnits="userSpaceOnUse"
       id="clipPath2">
      <path
         d="M 0,0 H 200.97656 V 464.99023 H 0 Z"
         transform="scale(0.31999999)"
         clip-rule="evenodd"
         id="path2" />
    </clipPath>
    <clipPath
       clipPathUnits="userSpaceOnUse"
       id="clipPath4">
      <path
         d="m 3.125,12.5 h 193.75 V 453.125 H 3.125 Z"
         transform="matrix(0.35563521,0,0,0.35563521,110.78043,221.9432)"
         clip-rule="evenodd"
         id="path4" />
    </clipPath>
    <clipPath
       clipPathUnits="userSpaceOnUse"
       id="clipPath6">
      <path
         d="m 3.125,12.5 h 193.75 V 453.125 H 3.125 Z"
         transform="matrix(0.35563521,0,0,0.35563521,110.78043,221.9432)"
         clip-rule="evenodd"
         id="path6" />
    </clipPath>
    <clipPath
       clipPathUnits="userSpaceOnUse"
       id="clipPath7">
      <path
         d="m 3.125,12.5 h 193.75 V 453.125 H 3.125 Z"
         transform="matrix(0.35563521,0,0,0.35563521,-37.703951,-50.556801)"
         clip-rule="evenodd"
         id="path7" />
    </clipPath>
    <clipPath
       clipPathUnits="userSpaceOnUse"
       id="clipPath8">
      <path
         d="m 3.125,12.5 h 193.75 V 453.125 H 3.125 Z"
         transform="matrix(0,0.35563521,-0.35563521,0,107.5724,-52.719576)"
         clip-rule="evenodd"
         id="path8" />
    </clipPath>
    <clipPath
       clipPathUnits="userSpaceOnUse"
       id="clipPath10">
      <path
         d="m 3.125,12.5 h 193.75 V 453.125 H 3.125 Z"
         transform="matrix(0.35563521,0,0,0.35563521,110.78043,221.9432)"
         clip-rule="evenodd"
         id="path10" />
    </clipPath>
    <clipPath
       clipPathUnits="userSpaceOnUse"
       id="clipPath12">
      <path
         d="m 3.125,12.5 h 193.75 V 453.125 H 3.125 Z"
         transform="matrix(0.35563521,0,0,0.35563521,111.28043,222.4432)"
         clip-rule="evenodd"
         id="path12" />
    </clipPath>
    <clipPath
       clipPathUnits="userSpaceOnUse"
       id="clipPath13">
      <path
         d="m 3.125,12.5 h 193.75 V 453.125 H 3.125 Z"
         transform="matrix(0.35563521,0,0,0.35563521,-4.70395,-86.556802)"
         clip-rule="evenodd"
         id="path13" />
    </clipPath>
    <clipPath
       clipPathUnits="userSpaceOnUse"
       id="clipPath15">
      <path
         d="m 3.125,12.5 h 193.75 V 453.125 H 3.125 Z"
         transform="matrix(0.35563521,0,0,0.35563521,110.78043,221.9432)"
         clip-rule="evenodd"
         id="path15" />
    </clipPath>
    <clipPath
       clipPathUnits="userSpaceOnUse"
       id="clipPath17">
      <path
         d="m 3.125,12.5 h 193.75 V 453.125 H 3.125 Z"
         transform="matrix(0.35563521,0,0,0.35563521,110.78043,221.9432)"
         clip-rule="evenodd"
         id="path17" />
    </clipPath>
  </defs>
  <g
     id="g1">
    <path
       id="path1"
       d="M 0,0 H 64 V 149 H 0 Z"
       style="fill:#ffffff;fill-opacity:1;fill-rule:nonzero;stroke:none"
       clip-path="url(#clipPath2)" />
    <path
       id="path3"
       d="m 146.99,290.82999 h 19.83001 c 0.56356,0 1.10569,0.10785 1.62639,0.32351 0.52067,0.21567 0.98028,0.52274 1.3788,0.92127 0.39851,0.3985 0.70559,0.85809 0.92128,1.37878 0.21568,0.52066 0.32351,1.06281 0.32353,1.62644 v 19.82998 c -2e-5,0.56357 -0.10785,1.10569 -0.32353,1.62638 -0.21569,0.52069 -0.52277,0.98028 -0.92128,1.37881 -0.39852,0.3985 -0.85813,0.7056 -1.3788,0.92127 -0.5207,0.21566 -1.06283,0.32351 -1.62639,0.32354 H 146.99 c -0.56358,-3e-5 -1.10572,-0.10788 -1.62641,-0.32354 -0.52069,-0.21567 -0.98029,-0.52277 -1.3788,-0.92127 -0.39852,-0.39853 -0.70562,-0.85812 -0.9213,-1.37881 -0.21567,-0.52069 -0.3235,-1.06281 -0.32349,-1.62638 v -19.82998 c -1e-5,-0.56363 0.10782,-1.10578 0.32351,-1.62644 0.21566,-0.52069 0.52276,-0.98028 0.92128,-1.37878 0.39851,-0.39853 0.85811,-0.7056 1.3788,-0.92127 0.52069,-0.21566 1.06283,-0.32351 1.62641,-0.32351 z"
       style="fill:#ffffff;fill-opacity:1;fill-rule:nonzero;stroke:none"
       transform="matrix(0.89979839,0,0,0.89979839,-99.680053,-199.70413)"
       clip-path="url(#clipPath4)" />
    <path
       id="path5"
       d="m 144.74,259.17001 h 28.00001 c 0.39396,0 0.78413,0.0384 1.17053,0.11527 0.38638,0.0769 0.76156,0.19067 1.12553,0.34143 0.36398,0.15076 0.70976,0.33557 1.03734,0.55444 0.32758,0.2189 0.63065,0.46762 0.90923,0.74622 0.27858,0.27856 0.52729,0.58163 0.74618,0.90921 0.21887,0.32754 0.40369,0.67331 0.55444,1.03729 0.15076,0.36398 0.26458,0.7392 0.34145,1.12561 0.0769,0.38638 0.11528,0.77658 0.1153,1.17053 V 344 c -2e-5,0.39395 -0.0384,0.78412 -0.1153,1.1705 -0.0769,0.38638 -0.19069,0.76157 -0.34145,1.12555 -0.15075,0.36395 -0.33557,0.70972 -0.55445,1.03729 -0.21888,0.32761 -0.46759,0.63068 -0.74617,0.90927 -0.27858,0.2786 -0.58165,0.52732 -0.90921,0.74616 -0.3276,0.2189 -0.67338,0.40372 -1.03736,0.55447 -0.36397,0.15076 -0.73915,0.26456 -1.12553,0.34143 -0.3864,0.0769 -0.77657,0.1153 -1.17053,0.11533 L 144.74,350 c -0.39396,-3e-5 -0.78414,-0.0385 -1.17054,-0.11536 -0.3864,-0.0768 -0.7616,-0.19064 -1.12557,-0.3414 -0.36396,-0.15075 -0.70974,-0.33557 -1.03732,-0.55447 -0.32758,-0.21884 -0.63065,-0.46756 -0.90922,-0.74616 -0.27859,-0.27859 -0.5273,-0.58166 -0.74618,-0.90924 -0.21888,-0.3276 -0.4037,-0.67337 -0.55445,-1.03732 -0.15076,-0.36398 -0.26458,-0.73917 -0.34143,-1.12555 -0.0769,-0.38638 -0.1153,-0.77655 -0.11529,-1.1705 v -78.82999 c -1e-5,-0.39395 0.0384,-0.78415 0.11529,-1.17053 0.0769,-0.38641 0.19067,-0.76163 0.34143,-1.12561 0.15075,-0.36398 0.33557,-0.70975 0.55445,-1.03729 0.21888,-0.32758 0.46759,-0.63065 0.74618,-0.90921 0.27857,-0.2786 0.58164,-0.52732 0.9092,-0.74622 0.32758,-0.21884 0.67336,-0.40365 1.03733,-0.55441 0.36397,-0.15076 0.73916,-0.26459 1.12556,-0.34146 0.3864,-0.0768 0.7766,-0.11527 1.17056,-0.11527 z"
       style="fill:#ffffff;fill-opacity:1;fill-rule:nonzero;stroke:#000000;stroke-width:1;stroke-linecap:butt;stroke-linejoin:miter;stroke-miterlimit:10;stroke-dasharray:none;stroke-opacity:1"
       transform="matrix(0.89979839,0,0,0.89979839,-99.680053,-199.70413)"
       clip-path="url(#clipPath6)" />
    <text
       id="text6"
       xml:space="preserve"
       transform="matrix(0.89979839,0,0,0.89979839,33.925954,45.490928)"
       clip-path="url(#clipPath7)"><tspan
         id="tspan6"
         style="font-variant:normal;font-weight:normal;font-size:12px;font-family:Arial;writing-mode:lr-tb;fill:#000000;fill-opacity:1;fill-rule:nonzero;stroke:none"
         x="0"
         y="0">pdh</tspan></text>
    <text
       id="text7"
       xml:space="preserve"
       transform="matrix(0,-0.89979839,0.89979839,0,47.43699,96.793475)"
       clip-path="url(#clipPath8)"><tspan
         id="tspan7"
         style="font-variant:normal;font-weight:normal;font-size:12px;font-family:Arial;writing-mode:lr-tb;fill:#000000;fill-opacity:1;fill-rule:nonzero;stroke:none"
         x="0"
         y="0">port-label</tspan></text>
    <path
       id="path9"
       d="m 114,298.70999 h 36 V 310.47 h -36 z"
       style="fill:none;stroke:#ffffff;stroke-width:1;stroke-linecap:butt;stroke-linejoin:miter;stroke-miterlimit:10;stroke-dasharray:none;stroke-opacity:1"
       transform="matrix(0.89979839,0,0,0.89979839,-99.680053,-199.70413)"
       clip-path="url(#clipPath10)" />
    <path
       id="path11"
       d="m 116,298 h 32 v 15 h -32 z"
       style="fill:#ffffff;fill-opacity:1;fill-rule:nonzero;stroke:none"
       transform="matrix(0.89979839,0,0,0.89979839,-100.12995,-200.15403)"
       clip-path="url(#clipPath12)" />
    <text
       id="text12"
       xml:space="preserve"
       transform="matrix(0.89979839,0,0,0.89979839,4.2326066,77.883671)"
       clip-path="url(#clipPath13)"><tspan
         id="tspan12"
         style="font-variant:normal;font-weight:normal;font-size:12px;font-family:Arial;writing-mode:lr-tb;fill:#000000;fill-opacity:1;fill-rule:nonzero;stroke:none"
         x="0"
         y="0">port-l*</tspan></text>
    <path
       id="path14"
       d="M 157.74,259 V 229"
       style="fill:none;stroke:#000000;stroke-width:1;stroke-linecap:butt;stroke-linejoin:miter;stroke-miterlimit:10;stroke-dasharray:none;stroke-opacity:1"
       transform="matrix(0.89979839,0,0,0.89979839,-99.680053,-199.70413)"
       clip-path="url(#clipPath15)" />
    <path
       id="path16"
       d="M 158.74,380 V 350"
       style="fill:none;stroke:#000000;stroke-width:1;stroke-linecap:butt;stroke-linejoin:miter;stroke-miterlimit:10;stroke-dasharray:none;stroke-opacity:1"
       transform="matrix(0.89979839,0,0,0.89979839,-99.680053,-199.70413)"
       clip-path="url(#clipPath17)" />
  </g>
</svg>
