<?xml version="1.0" encoding="UTF-8" standalone="no"?>
<!-- Created with Inkscape (http://www.inkscape.org/) -->

<svg
   version="1.1"
   id="svg1"
   width="78.719994"
   height="56"
   viewBox="0 0 78.719994 56"
   xmlns="http://www.w3.org/2000/svg"
   xmlns:svg="http://www.w3.org/2000/svg">
  <defs
     id="defs1">
    <clipPath
       clipPathUnits="userSpaceOnUse"
       id="clipPath2">
      <path
         d="M 0,0 H 245.99609 V 176 H 0 Z"
         transform="scale(0.31999999)"
         clip-rule="evenodd"
         id="path2" />
    </clipPath>
    <clipPath
       clipPathUnits="userSpaceOnUse"
       id="clipPath4">
      <path
         d="M 3.125,0 H 243.75 V 175 H 3.125 Z"
         transform="matrix(0.35173682,0,0,0.35173682,61.040679,497.23414)"
         clip-rule="evenodd"
         id="path4" />
    </clipPath>
    <clipPath
       clipPathUnits="userSpaceOnUse"
       id="clipPath6">
      <path
         d="M 3.125,0 H 243.75 V 175 H 3.125 Z"
         transform="matrix(0.35173682,0,0,0.35173682,61.040679,497.23414)"
         clip-rule="evenodd"
         id="path6" />
    </clipPath>
    <clipPath
       clipPathUnits="userSpaceOnUse"
       id="clipPath8">
      <path
         d="M 3.125,0 H 243.75 V 175 H 3.125 Z"
         transform="matrix(0.35173682,0,0,0.35173682,61.040679,497.23414)"
         clip-rule="evenodd"
         id="path8" />
    </clipPath>
    <clipPath
       clipPathUnits="userSpaceOnUse"
       id="clipPath9">
      <path
         d="M 3.125,0 H 243.75 V 175 H 3.125 Z"
         transform="matrix(0.35173682,0,0,0.35173682,-3.4280731,-13.265857)"
         clip-rule="evenodd"
         id="path9" />
    </clipPath>
    <clipPath
       clipPathUnits="userSpaceOnUse"
       id="clipPath10">
      <path
         d="M 3.125,0 H 243.75 V 175 H 3.125 Z"
         transform="matrix(0.35173682,0,0,0.35173682,-58.443697,-36.265856)"
         clip-rule="evenodd"
         id="path10" />
    </clipPath>
    <clipPath
       clipPathUnits="userSpaceOnUse"
       id="clipPath12">
      <path
         d="M 3.125,0 H 243.75 V 175 H 3.125 Z"
         transform="matrix(0.35173682,0,0,0.35173682,61.040679,497.23414)"
         clip-rule="evenodd"
         id="path12" />
    </clipPath>
    <clipPath
       clipPathUnits="userSpaceOnUse"
       id="clipPath14">
      <path
         d="M 3.125,0 H 243.75 V 175 H 3.125 Z"
         transform="matrix(0.35173682,0,0,0.35173682,61.040679,497.23414)"
         clip-rule="evenodd"
         id="path14" />
    </clipPath>
  </defs>
  <g
     id="g1">
    <path
       id="path1"
       d="M 0,0 H 79 V 57 H 0 Z"
       style="fill:#ffffff;fill-opacity:1;fill-rule:nonzero;stroke:none"
       clip-path="url(#clipPath2)" />
    <path
       id="path3"
       d="m 117.99,515.83002 h 19.82999 c 0.56357,0 1.1057,0.10785 1.62641,0.32348 0.52067,0.21564 0.98028,0.52277 1.37879,0.92127 0.39852,0.3985 0.7056,0.85809 0.92128,1.37878 0.21569,0.52069 0.32352,1.06287 0.32352,1.62647 v 19.83001 c 0,0.56354 -0.10783,1.10566 -0.32352,1.62635 -0.21568,0.52069 -0.52276,0.98034 -0.92128,1.37884 -0.39851,0.3985 -0.85812,0.70557 -1.37879,0.92121 -0.52071,0.21569 -1.06284,0.32354 -1.62641,0.3236 H 117.99 c -0.56359,-6e-5 -1.10573,-0.10791 -1.62641,-0.3236 -0.5207,-0.21564 -0.9803,-0.52271 -1.3788,-0.92121 -0.39852,-0.3985 -0.70562,-0.85815 -0.9213,-1.37884 -0.21567,-0.52069 -0.3235,-1.06281 -0.32349,-1.62635 v -19.83001 c -10e-6,-0.5636 0.10782,-1.10578 0.3235,-1.62647 0.21567,-0.52069 0.52277,-0.98028 0.92129,-1.37878 0.3985,-0.3985 0.8581,-0.70563 1.37879,-0.92127 0.52068,-0.21563 1.06283,-0.32348 1.62642,-0.32348 z"
       style="fill:#ffffff;fill-opacity:1;fill-rule:nonzero;stroke:none"
       transform="matrix(0.90977107,0,0,0.90977107,-55.533044,-452.36924)"
       clip-path="url(#clipPath4)" />
    <path
       id="path5"
       d="m 119.99,515.83002 h 19.82999 c 0.56358,0 1.10571,0.10785 1.62639,0.32348 0.52068,0.21564 0.98029,0.52277 1.37881,0.92127 0.3985,0.3985 0.70559,0.85809 0.92127,1.37878 0.21567,0.52069 0.32352,1.06287 0.32353,1.62647 v 19.83001 c -1e-5,0.56354 -0.10786,1.10566 -0.32353,1.62635 -0.21568,0.52069 -0.52277,0.98034 -0.92127,1.37884 -0.39852,0.3985 -0.85813,0.70557 -1.37881,0.92121 -0.52068,0.21569 -1.06281,0.32354 -1.62639,0.3236 H 119.99 c -0.56359,-6e-5 -1.10574,-0.10791 -1.62642,-0.3236 -0.52068,-0.21564 -0.98028,-0.52271 -1.37879,-0.92121 -0.39852,-0.3985 -0.70562,-0.85815 -0.92129,-1.37884 -0.21568,-0.52069 -0.32351,-1.06281 -0.3235,-1.62635 v -19.83001 c -10e-6,-0.5636 0.10782,-1.10578 0.3235,-1.62647 0.21567,-0.52069 0.52277,-0.98028 0.92129,-1.37878 0.39851,-0.3985 0.85811,-0.70563 1.37879,-0.92127 0.52068,-0.21563 1.06283,-0.32348 1.62642,-0.32348 z"
       style="fill:#ffffff;fill-opacity:1;fill-rule:nonzero;stroke:none"
       transform="matrix(0.90977107,0,0,0.90977107,-55.533044,-452.36924)"
       clip-path="url(#clipPath6)" />
    <path
       id="path7"
       d="m 125.99,515.33002 h 2.99999 v 1 H 125.99 Z m 5.99999,0 h 3 v 1 h -3 z m 6,0 h 1.83 c 0.4251,0 0.84265,0.056 1.2527,0.16815 l -0.2637,0.9646 c -0.32372,-0.0885 -0.65338,-0.13275 -0.989,-0.13275 h -1.83 z m 5.87238,2.25561 c 0.47175,0.76459 0.70762,1.59601 0.70762,2.49439 v 0.66436 h -1 v -0.66436 c 0,-0.70923 -0.18622,-1.36566 -0.55867,-1.96924 z m 0.70762,6.15875 v 3 h -1 v -3 z m 0,6 v 3 h -1 v -3 z m 0,6 v 3 h -1 v -3 z m -0.42847,6.13715 c -0.52105,1.14215 -1.36264,1.95062 -2.52474,2.42554 l -0.3783,-0.92566 c 0.91748,-0.37494 1.58189,-1.01325 1.99325,-1.91492 z m -5.65026,2.7785 h -3 v -1 h 3 z m -6,0 h -3 v -1 h 3 z m -6,0 h -3 v -1 h 3 z m -6,0 H 119.99 c -0.96905,0 -1.85513,-0.27118 -2.65824,-0.81347 l 0.55964,-0.82874 c 0.63402,0.42816 1.33356,0.64221 2.0986,0.64221 h 0.50126 z m -5.12804,-3.67504 c -0.0821,-0.35364 -0.12322,-0.71198 -0.12322,-1.07496 v -1.9931 h 1 v 1.9931 c 0,0.28656 0.0324,0.56946 0.0973,0.84864 l -0.97406,0.22632 z M 115.24,534.91693 v -3 h 1 v 3 z m 0,-6 v -3 h 1 v 3 z m 0,-6 v -2.83691 c 0,-0.0565 0.001,-0.11304 0.003,-0.16962 l 0.99936,0.0356 c -0.002,0.0446 -0.002,0.0892 -0.002,0.13398 v 2.83691 h -1 z m 1.31535,-6.11804 c 0.8392,-0.87854 1.86452,-1.36365 3.07595,-1.45532 l 0.0755,0.99719 c -0.95635,0.0724 -1.76579,0.45538 -2.42832,1.14893 l -0.7231,-0.6908 z m 3.43465,-1.46887 h 3 v 1 h -3 z"
       style="fill:#000000;fill-opacity:1;fill-rule:nonzero;stroke:none"
       transform="matrix(0.90977107,0,0,0.90977107,-55.533044,-452.36924)"
       clip-path="url(#clipPath8)" />
    <text
       id="text8"
       xml:space="preserve"
       transform="matrix(0.90977107,0,0,0.90977107,3.1187617,12.068893)"
       clip-path="url(#clipPath9)"><tspan
         id="tspan8"
         style="font-variant:normal;font-weight:normal;font-size:12px;font-family:Arial;writing-mode:lr-tb;fill:#000000;fill-opacity:1;fill-rule:nonzero;stroke:none"
         x="0"
         y="0">port-label</tspan></text>
    <text
       id="text9"
       xml:space="preserve"
       transform="matrix(0.90977107,0,0,0.90977107,53.170385,32.993627)"
       clip-path="url(#clipPath10)"><tspan
         id="tspan9"
         style="font-variant:normal;font-weight:normal;font-size:12px;font-family:Arial;writing-mode:lr-tb;fill:#000000;fill-opacity:1;fill-rule:nonzero;stroke:none"
         x="0"
         y="0">pdh</tspan></text>
    <path
       id="path11"
       d="m 130.74,544 v 11"
       style="fill:none;stroke:#000000;stroke-width:1;stroke-linecap:butt;stroke-linejoin:miter;stroke-miterlimit:10;stroke-dasharray:none;stroke-opacity:1"
       transform="matrix(0.90977107,0,0,0.90977107,-55.533044,-452.36924)"
       clip-path="url(#clipPath12)" />
    <path
       id="path13"
       d="m 129.74,505 v 11"
       style="fill:none;stroke:#000000;stroke-width:1;stroke-linecap:butt;stroke-linejoin:miter;stroke-miterlimit:10;stroke-dasharray:none;stroke-opacity:1"
       transform="matrix(0.90977107,0,0,0.90977107,-55.533044,-452.36924)"
       clip-path="url(#clipPath14)" />
  </g>
</svg>
