<?xml version="1.0" encoding="UTF-8" standalone="no"?>
<!-- Created with Inkscape (http://www.inkscape.org/) -->

<svg
   version="1.1"
   id="svg1"
   width="101.44"
   height="48"
   viewBox="0 0 101.44 48"
   xmlns="http://www.w3.org/2000/svg"
   xmlns:svg="http://www.w3.org/2000/svg">
  <defs
     id="defs1">
    <clipPath
       clipPathUnits="userSpaceOnUse"
       id="clipPath2">
      <path
         d="M 0,0 H 318 V 150 H 0 Z"
         transform="scale(0.31999999)"
         clip-rule="evenodd"
         id="path2" />
    </clipPath>
    <clipPath
       clipPathUnits="userSpaceOnUse"
       id="clipPath4">
      <path
         d="m 3.125,0 h 312.5 V 150 H 3.125 Z"
         transform="matrix(0.34641407,0,0,0.34641407,291.65405,148.74746)"
         clip-rule="evenodd"
         id="path4" />
    </clipPath>
    <clipPath
       clipPathUnits="userSpaceOnUse"
       id="clipPath5">
      <path
         d="m 3.125,0 h 312.5 V 150 H 3.125 Z"
         transform="matrix(0.34641407,0,0,0.34641407,-28.674062,-19.75254)"
         clip-rule="evenodd"
         id="path5" />
    </clipPath>
    <clipPath
       clipPathUnits="userSpaceOnUse"
       id="clipPath7">
      <path
         d="m 3.125,0 h 312.5 V 150 H 3.125 Z"
         transform="matrix(0.34641407,0,0,0.34641407,291.65405,148.74746)"
         clip-rule="evenodd"
         id="path7" />
    </clipPath>
    <clipPath
       clipPathUnits="userSpaceOnUse"
       id="clipPath9">
      <path
         d="m 3.125,0 h 312.5 V 150 H 3.125 Z"
         transform="matrix(0.34641407,0,0,0.34641407,291.65405,148.74746)"
         clip-rule="evenodd"
         id="path9" />
    </clipPath>
    <clipPath
       clipPathUnits="userSpaceOnUse"
       id="clipPath11">
      <path
         d="m 3.125,0 h 312.5 V 150 H 3.125 Z"
         transform="matrix(0.34641407,0,0,0.34641407,292.15406,149.24746)"
         clip-rule="evenodd"
         id="path11" />
    </clipPath>
    <clipPath
       clipPathUnits="userSpaceOnUse"
       id="clipPath12">
      <path
         d="m 3.125,0 h 312.5 V 150 H 3.125 Z"
         transform="matrix(0.34641407,0,0,0.34641407,-54.830312,-41.752539)"
         clip-rule="evenodd"
         id="path12" />
    </clipPath>
  </defs>
  <g
     id="g1">
    <path
       id="path1"
       d="M 0,0 H 102 V 48 H 0 Z"
       style="fill:#ffffff;fill-opacity:1;fill-rule:nonzero;stroke:none"
       clip-path="url(#clipPath2)" />
    <path
       id="path3"
       d="m 319.32999,150.83 h 21 c 0.59671,0 1.17074,0.11418 1.72204,0.34253 0.5513,0.22836 1.03797,0.55353 1.45993,0.97548 0.42197,0.42195 0.7471,0.90858 0.97547,1.4599 0.22836,0.55131 0.34253,1.12534 0.34256,1.72209 v 21 c -3e-5,0.59673 -0.1142,1.17073 -0.34256,1.72205 -0.22837,0.55131 -0.5535,1.03796 -0.97547,1.45993 -0.42196,0.42193 -0.90863,0.74708 -1.45993,0.97546 -0.5513,0.22837 -1.12533,0.34255 -1.72204,0.34256 h -21 c -0.59677,-1e-5 -1.17081,-0.11419 -1.72214,-0.34256 -0.55133,-0.22838 -1.03796,-0.55353 -1.4599,-0.97546 -0.42197,-0.42197 -0.7471,-0.9086 -0.97546,-1.45992 -0.22837,-0.55131 -0.34253,-1.12533 -0.3425,-1.72206 v -21 c -3e-5,-0.59675 0.11413,-1.17078 0.3425,-1.72209 0.22836,-0.55132 0.55349,-1.03795 0.97546,-1.4599 0.42194,-0.42195 0.90857,-0.74712 1.4599,-0.97548 0.55133,-0.22835 1.12537,-0.34253 1.72214,-0.34253 z"
       style="fill:#ffffff;fill-opacity:1;fill-rule:nonzero;stroke:#000000;stroke-width:1;stroke-linecap:butt;stroke-linejoin:miter;stroke-miterlimit:10;stroke-dasharray:none;stroke-opacity:1"
       transform="matrix(0.92374998,0,0,0.92374998,-269.41542,-137.40546)"
       clip-path="url(#clipPath4)" />
    <text
       id="text4"
       xml:space="preserve"
       transform="matrix(0.92374998,0,0,0.92374998,26.487664,18.246408)"
       clip-path="url(#clipPath5)"><tspan
         id="tspan4"
         style="font-variant:normal;font-weight:normal;font-size:12px;font-family:Arial;writing-mode:lr-tb;fill:#000000;fill-opacity:1;fill-rule:nonzero;stroke:none"
         x="0"
         y="0">pdv</tspan></text>
    <path
       id="path6"
       d="m 294.82999,165.83 h 20"
       style="fill:none;stroke:#000000;stroke-width:1;stroke-linecap:butt;stroke-linejoin:miter;stroke-miterlimit:10;stroke-dasharray:none;stroke-opacity:1"
       transform="matrix(0.92374998,0,0,0.92374998,-269.41542,-137.40546)"
       clip-path="url(#clipPath7)" />
    <path
       id="path8"
       d="m 344.82999,165.83 h 20"
       style="fill:none;stroke:#000000;stroke-width:1;stroke-linecap:butt;stroke-linejoin:miter;stroke-miterlimit:10;stroke-dasharray:none;stroke-opacity:1"
       transform="matrix(0.92374998,0,0,0.92374998,-269.41542,-137.40546)"
       clip-path="url(#clipPath9)" />
    <path
       id="path10"
       d="m 347,180 h 50 v 14 h -50 z"
       style="fill:#f8f9fa;fill-opacity:1;fill-rule:nonzero;stroke:none"
       transform="matrix(0.92374998,0,0,0.92374998,-269.87731,-137.86734)"
       clip-path="url(#clipPath11)" />
    <text
       id="text11"
       xml:space="preserve"
       transform="matrix(0.92374998,0,0,0.92374998,50.6495,38.568907)"
       clip-path="url(#clipPath12)"><tspan
         id="tspan11"
         style="font-variant:normal;font-weight:normal;font-size:12px;font-family:Arial;writing-mode:lr-tb;fill:#000000;fill-opacity:1;fill-rule:nonzero;stroke:none"
         x="0"
         y="0">port-label</tspan></text>
  </g>
</svg>
