<?xml version="1.0" encoding="UTF-8" standalone="no"?>
<!-- Created with Inkscape (http://www.inkscape.org/) -->

<svg
   version="1.1"
   id="svg1"
   width="125.43999"
   height="53.439999"
   viewBox="0 0 125.43999 53.439999"
   xmlns="http://www.w3.org/2000/svg"
   xmlns:svg="http://www.w3.org/2000/svg">
  <defs
     id="defs1">
    <clipPath
       clipPathUnits="userSpaceOnUse"
       id="clipPath2">
      <path
         d="M 0,0 H 393 V 164.99023 H 0 Z"
         transform="scale(0.31999999)"
         clip-rule="evenodd"
         id="path2" />
    </clipPath>
    <clipPath
       clipPathUnits="userSpaceOnUse"
       id="clipPath4">
      <path
         d="m 3.125,0 h 387.5 V 164.99023 H 3.125 Z"
         transform="matrix(0.34382635,0,0,0.34382635,280.58276,593.75889)"
         clip-rule="evenodd"
         id="path4" />
    </clipPath>
    <clipPath
       clipPathUnits="userSpaceOnUse"
       id="clipPath6">
      <path
         d="m 3.125,0 h 387.5 V 164.99023 H 3.125 Z"
         transform="matrix(0.34382635,0,0,0.34382635,280.58276,593.75889)"
         clip-rule="evenodd"
         id="path6" />
    </clipPath>
    <clipPath
       clipPathUnits="userSpaceOnUse"
       id="clipPath8">
      <path
         d="m 3.125,0 h 387.5 V 164.99023 H 3.125 Z"
         transform="matrix(0.34382635,0,0,0.34382635,280.58276,593.75889)"
         clip-rule="evenodd"
         id="path8" />
    </clipPath>
    <clipPath
       clipPathUnits="userSpaceOnUse"
       id="clipPath9">
      <path
         d="m 3.125,0 h 387.5 V 164.99023 H 3.125 Z"
         transform="matrix(0.34382635,0,0,0.34382635,-29.245367,-19.741157)"
         clip-rule="evenodd"
         id="path9" />
    </clipPath>
    <clipPath
       clipPathUnits="userSpaceOnUse"
       id="clipPath11">
      <path
         d="m 3.125,0 h 387.5 V 164.99023 H 3.125 Z"
         transform="matrix(0.34382635,0,0,0.34382635,280.58276,593.75889)"
         clip-rule="evenodd"
         id="path11" />
    </clipPath>
    <clipPath
       clipPathUnits="userSpaceOnUse"
       id="clipPath13">
      <path
         d="m 3.125,0 h 387.5 V 164.99023 H 3.125 Z"
         transform="matrix(0.34382635,0,0,0.34382635,280.58276,593.75889)"
         clip-rule="evenodd"
         id="path13" />
    </clipPath>
    <clipPath
       clipPathUnits="userSpaceOnUse"
       id="clipPath15">
      <path
         d="m 3.125,0 h 387.5 V 164.99023 H 3.125 Z"
         transform="matrix(0.34382635,0,0,0.34382635,281.08276,594.25884)"
         clip-rule="evenodd"
         id="path15" />
    </clipPath>
    <clipPath
       clipPathUnits="userSpaceOnUse"
       id="clipPath16">
      <path
         d="m 3.125,0 h 387.5 V 164.99023 H 3.125 Z"
         transform="matrix(0.34382635,0,0,0.34382635,-53.917237,-42.741158)"
         clip-rule="evenodd"
         id="path16" />
    </clipPath>
  </defs>
  <g
     id="g1">
    <path
       id="path1"
       d="M 0,0 H 126 V 53 H 0 Z"
       style="fill:#ffffff;fill-opacity:1;fill-rule:nonzero;stroke:none"
       clip-path="url(#clipPath2)" />
    <path
       id="path3"
       d="M 308.54001,595.83002 H 328.37 c 0.56356,0 1.10571,0.10779 1.62637,0.32342 0.52069,0.21576 0.98028,0.52289 1.37881,0.92139 0.39853,0.3985 0.7056,0.85803 0.92127,1.37872 0.21567,0.52069 0.32351,1.06281 0.32355,1.62647 v 19.83001 c -4e-5,0.56354 -0.10788,1.10566 -0.32355,1.62635 -0.21567,0.52069 -0.52274,0.98028 -0.92127,1.37884 -0.39853,0.3985 -0.85812,0.70557 -1.37881,0.92121 -0.52066,0.21563 -1.06281,0.32354 -1.62637,0.3236 h -19.82999 c -0.5636,-6e-5 -1.10574,-0.10797 -1.62644,-0.3236 -0.52069,-0.21564 -0.98028,-0.52271 -1.37878,-0.92121 -0.39853,-0.39856 -0.70563,-0.85815 -0.9213,-1.37884 -0.21566,-0.52069 -0.32348,-1.06281 -0.32348,-1.62635 v -19.83001 c 0,-0.56366 0.10782,-1.10584 0.32348,-1.62653 0.21567,-0.52063 0.52277,-0.98016 0.9213,-1.37866 0.3985,-0.3985 0.85809,-0.70563 1.37878,-0.92133 0.5207,-0.21563 1.06284,-0.32348 1.62644,-0.32348 z"
       style="fill:#ffffff;fill-opacity:1;fill-rule:nonzero;stroke:none"
       transform="matrix(0.93070233,0,0,0.93070233,-261.13903,-552.61278)"
       clip-path="url(#clipPath4)" />
    <path
       id="path5"
       d="M 310.54001,595.83002 H 330.37 c 0.56356,0 1.10568,0.10779 1.62637,0.32342 0.52066,0.21576 0.98028,0.52289 1.37881,0.92139 0.3985,0.3985 0.70557,0.85803 0.92124,1.37872 0.2157,0.52069 0.32354,1.06281 0.32358,1.62647 v 19.83001 c -4e-5,0.56354 -0.10788,1.10566 -0.32358,1.62635 -0.21567,0.52069 -0.52274,0.98028 -0.92124,1.37884 -0.39853,0.3985 -0.85815,0.70557 -1.37881,0.92121 -0.52069,0.21563 -1.06281,0.32354 -1.62637,0.3236 h -19.82999 c -0.5636,-6e-5 -1.10574,-0.10797 -1.62644,-0.3236 -0.52069,-0.21564 -0.98028,-0.52271 -1.37878,-0.92121 -0.39853,-0.39856 -0.70563,-0.85815 -0.9213,-1.37884 -0.21569,-0.52069 -0.32351,-1.06281 -0.32348,-1.62635 v -19.83001 c -3e-5,-0.56366 0.10779,-1.10584 0.32348,-1.62653 0.21567,-0.52063 0.52277,-0.98016 0.9213,-1.37866 0.3985,-0.3985 0.85809,-0.70563 1.37878,-0.92133 0.5207,-0.21563 1.06284,-0.32348 1.62644,-0.32348 z"
       style="fill:#ffffff;fill-opacity:1;fill-rule:nonzero;stroke:none"
       transform="matrix(0.93070233,0,0,0.93070233,-261.13903,-552.61278)"
       clip-path="url(#clipPath6)" />
    <path
       id="path7"
       d="m 316.54001,595.33002 h 3 v 1 h -3 z m 6,0 h 3 v 1 h -3 z m 6,0 H 330.37 c 0.42507,0 0.84265,0.056 1.25271,0.16815 l -0.26367,0.9646 c -0.32373,-0.0885 -0.65341,-0.13275 -0.98904,-0.13275 h -1.82999 z m 5.87237,2.25567 c 0.47171,0.76453 0.70758,1.59595 0.70762,2.49433 v 0.66436 h -1 v -0.66436 c -4e-5,-0.70923 -0.18622,-1.3656 -0.55863,-1.96918 z m 0.70762,6.15869 v 3 h -1 v -3 z m 0,6 v 3 h -1 v -3 z m 0,6 v 3 h -1 v -3 z m -0.42847,6.13715 c -0.52103,1.14221 -1.36261,1.95075 -2.52481,2.42554 l -0.37824,-0.92566 c 0.91751,-0.37488 1.58191,-1.01318 1.99326,-1.91492 z m -5.6503,2.7785 h -3 v -1 h 3 z m -6,0 h -3 v -1 h 3 z m -6,0 h -3 v -1 h 3 z m -6,0 h -0.50122 c -0.96906,0 -1.85513,-0.27118 -2.65827,-0.81347 l 0.55964,-0.82874 c 0.63406,0.42816 1.33358,0.64221 2.09863,0.64221 h 0.50122 z m -5.12802,-3.67517 c -0.0821,-0.35357 -0.1232,-0.71185 -0.1232,-1.07483 v -1.99316 h 1 v 1.99316 c 0,0.28656 0.0324,0.5694 0.0973,0.84851 l -0.97406,0.22632 z m -0.1232,-6.06799 v -3 h 1 v 3 z m 0,-6 v -3 h 1 v 3 z m 0,-6 v -2.83685 c 0,-0.0568 0.001,-0.11341 0.003,-0.16968 l 0.99939,0.0358 c -0.002,0.0449 -0.002,0.0895 -0.002,0.13391 v 2.83685 h -1 z m 1.3154,-6.11804 c 0.8392,-0.87842 1.8645,-1.36353 3.07589,-1.45526 l 0.0756,0.99719 c -0.95639,0.0725 -1.76587,0.45544 -2.42838,1.14886 l -0.72308,-0.69079 z m 3.4346,-1.46881 h 3 v 1 h -3 z"
       style="fill:#000000;fill-opacity:1;fill-rule:nonzero;stroke:none"
       transform="matrix(0.93070233,0,0,0.93070233,-261.13903,-552.61278)"
       clip-path="url(#clipPath8)" />
    <text
       id="text8"
       xml:space="preserve"
       transform="matrix(0.93070233,0,0,0.93070233,27.218731,18.373141)"
       clip-path="url(#clipPath9)"><tspan
         id="tspan8"
         style="font-variant:normal;font-weight:normal;font-size:12px;font-family:Arial;writing-mode:lr-tb;fill:#000000;fill-opacity:1;fill-rule:nonzero;stroke:none"
         x="0"
         y="0">pdv</tspan></text>
    <path
       id="path10"
       d="m 283.73999,609 21,0.34003"
       style="fill:none;stroke:#000000;stroke-width:1;stroke-linecap:butt;stroke-linejoin:miter;stroke-miterlimit:10;stroke-dasharray:none;stroke-opacity:1"
       transform="matrix(0.93070233,0,0,0.93070233,-261.13903,-552.61278)"
       clip-path="url(#clipPath11)" />
    <path
       id="path12"
       d="m 335.73999,610 h 21"
       style="fill:none;stroke:#000000;stroke-width:1;stroke-linecap:butt;stroke-linejoin:miter;stroke-miterlimit:10;stroke-dasharray:none;stroke-opacity:1"
       transform="matrix(0.93070233,0,0,0.93070233,-261.13903,-552.61278)"
       clip-path="url(#clipPath13)" />
    <path
       id="path14"
       d="m 335,626 h 50 v 14 h -50 z"
       style="fill:#f8f9fa;fill-opacity:1;fill-rule:nonzero;stroke:none"
       transform="matrix(0.93070233,0,0,0.93070233,-261.60438,-553.07809)"
       clip-path="url(#clipPath15)" />
    <text
       id="text15"
       xml:space="preserve"
       transform="matrix(0.93070233,0,0,0.93070233,50.180898,39.779295)"
       clip-path="url(#clipPath16)"><tspan
         id="tspan15"
         style="font-variant:normal;font-weight:normal;font-size:12px;font-family:Arial;writing-mode:lr-tb;fill:#000000;fill-opacity:1;fill-rule:nonzero;stroke:none"
         x="0"
         y="0">port-label</tspan></text>
  </g>
</svg>
