<?xml version="1.0" encoding="UTF-8" standalone="no"?>
<!-- Created with Inkscape (http://www.inkscape.org/) -->

<svg
   version="1.1"
   id="svg1"
   width="82.559998"
   height="56"
   viewBox="0 0 82.559998 56"
   xmlns="http://www.w3.org/2000/svg"
   xmlns:svg="http://www.w3.org/2000/svg">
  <defs
     id="defs1">
    <clipPath
       clipPathUnits="userSpaceOnUse"
       id="clipPath2">
      <path
         d="M 0,0 H 258.00781 V 176 H 0 Z"
         transform="scale(0.31999999)"
         clip-rule="evenodd"
         id="path2" />
    </clipPath>
    <clipPath
       clipPathUnits="userSpaceOnUse"
       id="clipPath4">
      <path
         d="M 3.125,0 H 256.25 V 175 H 3.125 Z"
         transform="matrix(0.34962539,0,0,0.34962539,72.173071,53.237421)"
         clip-rule="evenodd"
         id="path4" />
    </clipPath>
    <clipPath
       clipPathUnits="userSpaceOnUse"
       id="clipPath5">
      <path
         d="M 3.125,0 H 256.25 V 175 H 3.125 Z"
         transform="matrix(0.34962539,0,0,0.34962539,-61.811301,-34.262574)"
         clip-rule="evenodd"
         id="path5" />
    </clipPath>
    <clipPath
       clipPathUnits="userSpaceOnUse"
       id="clipPath7">
      <path
         d="M 3.125,0 H 256.25 V 175 H 3.125 Z"
         transform="matrix(0.34962539,0,0,0.34962539,72.173071,53.237421)"
         clip-rule="evenodd"
         id="path7" />
    </clipPath>
    <clipPath
       clipPathUnits="userSpaceOnUse"
       id="clipPath9">
      <path
         d="M 3.125,0 H 256.25 V 175 H 3.125 Z"
         transform="matrix(0.34962539,0,0,0.34962539,72.173071,53.237421)"
         clip-rule="evenodd"
         id="path9" />
    </clipPath>
    <clipPath
       clipPathUnits="userSpaceOnUse"
       id="clipPath11">
      <path
         d="M 3.125,0 H 256.25 V 175 H 3.125 Z"
         transform="matrix(0.34962539,0,0,0.34962539,72.673073,53.737426)"
         clip-rule="evenodd"
         id="path11" />
    </clipPath>
    <clipPath
       clipPathUnits="userSpaceOnUse"
       id="clipPath12">
      <path
         d="M 3.125,0 H 256.25 V 175 H 3.125 Z"
         transform="matrix(0.34962539,0,0,0.34962539,-4.3113015,-13.262574)"
         clip-rule="evenodd"
         id="path12" />
    </clipPath>
  </defs>
  <g
     id="g1">
    <path
       id="path1"
       d="M 0,0 H 83 V 57 H 0 Z"
       style="fill:#ffffff;fill-opacity:1;fill-rule:nonzero;stroke:none"
       clip-path="url(#clipPath2)" />
    <path
       id="path3"
       d="m 133.36999,69.830002 h 21 c 0.59673,0 1.17075,0.114181 1.72207,0.342537 0.55131,0.228363 1.03794,0.55352 1.4599,0.975479 0.42195,0.421951 0.7471,0.908584 0.97548,1.4599 0.22836,0.551315 0.34254,1.125343 0.34255,1.722084 v 21 c -1e-5,0.596733 -0.11419,1.170753 -0.34255,1.722061 -0.22838,0.551315 -0.55353,1.037956 -0.97548,1.459915 -0.42196,0.421944 -0.90859,0.747101 -1.4599,0.975472 -0.55132,0.228355 -1.12534,0.342544 -1.72207,0.342552 h -21 c -0.59675,-8e-6 -1.17077,-0.114197 -1.72209,-0.342552 -0.55131,-0.228371 -1.03795,-0.553528 -1.4599,-0.975472 -0.42196,-0.421959 -0.74713,-0.9086 -0.97548,-1.459915 -0.22836,-0.551308 -0.34254,-1.125328 -0.34253,-1.722061 v -21 c -1e-5,-0.596741 0.11417,-1.170769 0.34252,-1.722084 0.22836,-0.551316 0.55353,-1.037949 0.97549,-1.4599 0.42195,-0.421959 0.90859,-0.747116 1.4599,-0.975487 0.55132,-0.228355 1.12534,-0.342529 1.72209,-0.342529 z"
       style="fill:#ffffff;fill-opacity:1;fill-rule:nonzero;stroke:#000000;stroke-width:1;stroke-linecap:butt;stroke-linejoin:miter;stroke-miterlimit:10;stroke-dasharray:none;stroke-opacity:1"
       transform="matrix(0.91526531,0,0,0.91526531,-66.057508,-48.726365)"
       clip-path="url(#clipPath4)" />
    <text
       id="text4"
       xml:space="preserve"
       transform="matrix(0.91526531,0,0,0.91526531,56.57374,31.359345)"
       clip-path="url(#clipPath5)"><tspan
         id="tspan4"
         style="font-variant:normal;font-weight:normal;font-size:12px;font-family:Arial;writing-mode:lr-tb;fill:#000000;fill-opacity:1;fill-rule:nonzero;stroke:none"
         x="0"
         y="0">pdh</tspan></text>
    <path
       id="path6"
       d="m 143.86999,100 v 11"
       style="fill:none;stroke:#000000;stroke-width:1;stroke-linecap:butt;stroke-linejoin:miter;stroke-miterlimit:10;stroke-dasharray:none;stroke-opacity:1"
       transform="matrix(0.91526531,0,0,0.91526531,-66.057508,-48.726365)"
       clip-path="url(#clipPath7)" />
    <path
       id="path8"
       d="M 143.86999,59 V 70"
       style="fill:none;stroke:#000000;stroke-width:1;stroke-linecap:butt;stroke-linejoin:miter;stroke-miterlimit:10;stroke-dasharray:none;stroke-opacity:1"
       transform="matrix(0.91526531,0,0,0.91526531,-66.057508,-48.726365)"
       clip-path="url(#clipPath9)" />
    <path
       id="path10"
       d="m 77,56 h 50 V 70 H 77 Z"
       style="fill:#f8f9fa;fill-opacity:1;fill-rule:nonzero;stroke:none"
       transform="matrix(0.91526531,0,0,0.91526531,-66.515143,-49.184002)"
       clip-path="url(#clipPath11)" />
    <text
       id="text11"
       xml:space="preserve"
       transform="matrix(0.91526531,0,0,0.91526531,3.9459847,12.138774)"
       clip-path="url(#clipPath12)"><tspan
         id="tspan11"
         style="font-variant:normal;font-weight:normal;font-size:12px;font-family:Arial;writing-mode:lr-tb;fill:#000000;fill-opacity:1;fill-rule:nonzero;stroke:none"
         x="0"
         y="0">port-label</tspan></text>
  </g>
</svg>
