<?xml version="1.0" encoding="UTF-8" standalone="no"?>
<!-- Created with Inkscape (http://www.inkscape.org/) -->

<svg
   version="1.1"
   id="svg1"
   width="385.28"
   height="19.84"
   viewBox="0 0 385.28 19.84"
   xmlns="http://www.w3.org/2000/svg"
   xmlns:svg="http://www.w3.org/2000/svg">
  <defs
     id="defs1">
    <clipPath
       clipPathUnits="userSpaceOnUse"
       id="clipPath2">
      <path
         d="M 0,0 H 1202.9785 V 62.988281 H 0 Z"
         transform="scale(0.31999999)"
         clip-rule="evenodd"
         id="path2" />
    </clipPath>
    <clipPath
       clipPathUnits="userSpaceOnUse"
       id="clipPath3">
      <path
         d="M 9.375,0 H 1193.75 V 62.988281 H 9.375 Z"
         transform="matrix(0.34133333,0,0,0.34133333,-19.813542,-13.999995)"
         clip-rule="evenodd"
         id="path3" />
    </clipPath>
    <clipPath
       clipPathUnits="userSpaceOnUse"
       id="clipPath4">
      <path
         d="M 9.375,0 H 1193.75 V 62.988281 H 9.375 Z"
         transform="matrix(0.34133333,0,0,0.34133333,-233.9698,-13.999995)"
         clip-rule="evenodd"
         id="path4" />
    </clipPath>
    <clipPath
       clipPathUnits="userSpaceOnUse"
       id="clipPath6">
      <path
         d="M 9.375,0 H 1193.75 V 62.988281 H 9.375 Z"
         transform="matrix(0,-0.34133333,0.34133333,0,238,-574.48332)"
         clip-rule="evenodd"
         id="path6" />
    </clipPath>
    <clipPath
       clipPathUnits="userSpaceOnUse"
       id="clipPath8">
      <path
         d="M 9.375,0 H 1193.75 V 62.988281 H 9.375 Z"
         transform="matrix(0.34133333,0,0,0.34133333,113.98333,-719.50002)"
         clip-rule="evenodd"
         id="path8" />
    </clipPath>
  </defs>
  <g
     id="g1">
    <path
       id="path1"
       d="M 0,0 H 385 V 20 H 0 Z"
       style="fill:#ffffff;fill-opacity:1;fill-rule:nonzero;stroke:none"
       clip-path="url(#clipPath2)" />
    <g
       id="g2" />
    <text
       id="text2"
       xml:space="preserve"
       transform="matrix(0.93749996,0,0,0.93749996,18.575195,13.124995)"
       clip-path="url(#clipPath3)"><tspan
         id="tspan2"
         style="font-variant:normal;font-weight:normal;font-size:12px;font-family:Arial;writing-mode:lr-tb;fill:#000000;fill-opacity:1;fill-rule:nonzero;stroke:none"
         x="0"
         y="0">&amp;occurrence-node </tspan></text>
    <g
       id="g3" />
    <text
       id="text3"
       xml:space="preserve"
       transform="matrix(0.93749996,0,0,0.93749996,219.34668,13.124995)"
       clip-path="url(#clipPath4)"><tspan
         id="tspan3"
         style="font-variant:normal;font-weight:normal;font-size:12px;font-family:Arial;writing-mode:lr-tb;fill:#000000;fill-opacity:1;fill-rule:nonzero;stroke:none"
         x="0"
         y="0">&amp;timeslice-or-snapshot-node </tspan></text>
    <path
       id="path5"
       d="m 248.5,-709 5.66,-4.10999 c 2.10999,2.89002 1.69001,6.90998 -0.98001,9.31 -2.65999,2.39997 -6.69999,2.39997 -9.35998,0 -2.67002,-2.40002 -3.09001,-6.41998 -0.98001,-9.31 z"
       style="fill:#000000;fill-opacity:1;fill-rule:nonzero;stroke:#000000;stroke-width:1;stroke-linecap:butt;stroke-linejoin:miter;stroke-miterlimit:10;stroke-dasharray:none;stroke-opacity:1"
       transform="matrix(0,0.93749996,-0.93749996,0,-538.57809,-223.12499)"
       clip-path="url(#clipPath6)" />
    <path
       id="path7"
       d="m 341.5,-709 h -93"
       style="fill:none;stroke:#000000;stroke-width:1;stroke-linecap:butt;stroke-linejoin:miter;stroke-miterlimit:10;stroke-dasharray:none;stroke-opacity:1"
       transform="matrix(0.93749996,0,0,0.93749996,-106.85937,674.53124)"
       clip-path="url(#clipPath8)" />
  </g>
</svg>
