<?xml version="1.0" encoding="UTF-8" standalone="no"?>
<!-- Created with Inkscape (http://www.inkscape.org/) -->

<svg
   version="1.1"
   id="svg1"
   width="82.559998"
   height="56"
   viewBox="0 0 82.559998 56"
   xmlns="http://www.w3.org/2000/svg"
   xmlns:svg="http://www.w3.org/2000/svg">
  <defs
     id="defs1">
    <clipPath
       clipPathUnits="userSpaceOnUse"
       id="clipPath2">
      <path
         d="M 0,0 H 258.00781 V 176 H 0 Z"
         transform="scale(0.31999999)"
         clip-rule="evenodd"
         id="path2" />
    </clipPath>
    <clipPath
       clipPathUnits="userSpaceOnUse"
       id="clipPath4">
      <path
         d="M 3.125,0 H 256.25 V 175 H 3.125 Z"
         transform="matrix(0.34962539,0,0,0.34962539,300.80308,53.237421)"
         clip-rule="evenodd"
         id="path4" />
    </clipPath>
    <clipPath
       clipPathUnits="userSpaceOnUse"
       id="clipPath5">
      <path
         d="M 3.125,0 H 256.25 V 175 H 3.125 Z"
         transform="matrix(0.34962539,0,0,0.34962539,-8.1813226,-34.262574)"
         clip-rule="evenodd"
         id="path5" />
    </clipPath>
    <clipPath
       clipPathUnits="userSpaceOnUse"
       id="clipPath7">
      <path
         d="M 3.125,0 H 256.25 V 175 H 3.125 Z"
         transform="matrix(0.34962539,0,0,0.34962539,300.80308,53.237421)"
         clip-rule="evenodd"
         id="path7" />
    </clipPath>
    <clipPath
       clipPathUnits="userSpaceOnUse"
       id="clipPath9">
      <path
         d="M 3.125,0 H 256.25 V 175 H 3.125 Z"
         transform="matrix(0.34962539,0,0,0.34962539,300.80308,53.237421)"
         clip-rule="evenodd"
         id="path9" />
    </clipPath>
    <clipPath
       clipPathUnits="userSpaceOnUse"
       id="clipPath11">
      <path
         d="M 3.125,0 H 256.25 V 175 H 3.125 Z"
         transform="matrix(0.34962539,0,0,0.34962539,301.30305,53.737426)"
         clip-rule="evenodd"
         id="path11" />
    </clipPath>
    <clipPath
       clipPathUnits="userSpaceOnUse"
       id="clipPath12">
      <path
         d="M 3.125,0 H 256.25 V 175 H 3.125 Z"
         transform="matrix(0.34962539,0,0,0.34962539,-34.681322,-13.262574)"
         clip-rule="evenodd"
         id="path12" />
    </clipPath>
  </defs>
  <g
     id="g1">
    <path
       id="path1"
       d="M 0,0 H 83 V 57 H 0 Z"
       style="fill:#ffffff;fill-opacity:1;fill-rule:nonzero;stroke:none"
       clip-path="url(#clipPath2)" />
    <path
       id="path3"
       d="m 308.5,69.830002 h 21 c 0.59671,0 1.17072,0.114181 1.72202,0.342537 0.5513,0.228363 1.03796,0.55352 1.45993,0.975479 0.42193,0.421951 0.7471,0.908584 0.97549,1.4599 0.22836,0.551315 0.34253,1.125343 0.34256,1.722084 v 21 c -3e-5,0.596733 -0.1142,1.170753 -0.34256,1.722061 -0.22839,0.551315 -0.55356,1.037956 -0.97549,1.459915 -0.42197,0.421944 -0.90863,0.747101 -1.45993,0.975472 -0.5513,0.228355 -1.12531,0.342544 -1.72202,0.342552 h -21 c -0.59677,-8e-6 -1.17081,-0.114197 -1.72211,-0.342552 -0.55133,-0.228371 -1.03796,-0.553528 -1.4599,-0.975472 -0.42196,-0.421959 -0.74716,-0.9086 -0.97552,-1.459915 -0.22833,-0.551308 -0.3425,-1.125328 -0.34247,-1.722061 v -21 c -3e-5,-0.596741 0.11414,-1.170769 0.34247,-1.722084 0.22836,-0.551316 0.55356,-1.037949 0.97552,-1.4599 0.42194,-0.421959 0.90857,-0.747116 1.4599,-0.975487 0.5513,-0.228355 1.12534,-0.342529 1.72211,-0.342529 z"
       style="fill:#ffffff;fill-opacity:1;fill-rule:nonzero;stroke:#000000;stroke-width:1;stroke-linecap:butt;stroke-linejoin:miter;stroke-miterlimit:10;stroke-dasharray:none;stroke-opacity:1"
       transform="matrix(0.91526531,0,0,0.91526531,-275.31462,-48.726365)"
       clip-path="url(#clipPath4)" />
    <text
       id="text4"
       xml:space="preserve"
       transform="matrix(0.91526531,0,0,0.91526531,7.4880808,31.359345)"
       clip-path="url(#clipPath5)"><tspan
         id="tspan4"
         style="font-variant:normal;font-weight:normal;font-size:12px;font-family:Arial;writing-mode:lr-tb;fill:#000000;fill-opacity:1;fill-rule:nonzero;stroke:none"
         x="0"
         y="0">pdh</tspan></text>
    <path
       id="path6"
       d="m 319,100 v 11"
       style="fill:none;stroke:#000000;stroke-width:1;stroke-linecap:butt;stroke-linejoin:miter;stroke-miterlimit:10;stroke-dasharray:none;stroke-opacity:1"
       transform="matrix(0.91526531,0,0,0.91526531,-275.31462,-48.726365)"
       clip-path="url(#clipPath7)" />
    <path
       id="path8"
       d="M 319,59 V 70"
       style="fill:none;stroke:#000000;stroke-width:1;stroke-linecap:butt;stroke-linejoin:miter;stroke-miterlimit:10;stroke-dasharray:none;stroke-opacity:1"
       transform="matrix(0.91526531,0,0,0.91526531,-275.31462,-48.726365)"
       clip-path="url(#clipPath9)" />
    <path
       id="path10"
       d="m 336,56 h 50 v 14 h -50 z"
       style="fill:#f8f9fa;fill-opacity:1;fill-rule:nonzero;stroke:none"
       transform="matrix(0.91526531,0,0,0.91526531,-275.77223,-49.184002)"
       clip-path="url(#clipPath11)" />
    <text
       id="text11"
       xml:space="preserve"
       transform="matrix(0.91526531,0,0,0.91526531,31.742611,12.138774)"
       clip-path="url(#clipPath12)"><tspan
         id="tspan11"
         style="font-variant:normal;font-weight:normal;font-size:12px;font-family:Arial;writing-mode:lr-tb;fill:#000000;fill-opacity:1;fill-rule:nonzero;stroke:none"
         x="0"
         y="0">port-label</tspan></text>
  </g>
</svg>
