<?xml version="1.0" encoding="UTF-8" standalone="no"?>
<!-- Created with Inkscape (http://www.inkscape.org/) -->

<svg
   version="1.1"
   id="svg1"
   width="280"
   height="101.44"
   viewBox="0 0 280 101.44"
   xmlns="http://www.w3.org/2000/svg"
   xmlns:svg="http://www.w3.org/2000/svg">
  <defs
     id="defs1">
    <clipPath
       clipPathUnits="userSpaceOnUse"
       id="clipPath2">
      <path
         d="M 0,0 H 875.97656 V 314.99023 H 0 Z"
         transform="scale(0.31999999)"
         clip-rule="evenodd"
         id="path2" />
    </clipPath>
    <clipPath
       clipPathUnits="userSpaceOnUse"
       id="clipPath4">
      <path
         d="m 3.125,0 h 868.75 V 314.99023 H 3.125 Z"
         transform="matrix(0.33738743,0,0,0.33738743,377.87939,686.83496)"
         clip-rule="evenodd"
         id="path4" />
    </clipPath>
    <clipPath
       clipPathUnits="userSpaceOnUse"
       id="clipPath5">
      <path
         d="m 3.125,0 h 868.75 V 314.99023 H 3.125 Z"
         transform="matrix(0.33738743,0,0,0.33738743,-81.761209,-39.664991)"
         clip-rule="evenodd"
         id="path5" />
    </clipPath>
    <clipPath
       clipPathUnits="userSpaceOnUse"
       id="clipPath6">
      <path
         d="m 3.125,0 h 868.75 V 314.99023 H 3.125 Z"
         transform="matrix(0.33738743,0,0,0.33738743,-95.104959,-73.664991)"
         clip-rule="evenodd"
         id="path6" />
    </clipPath>
    <clipPath
       clipPathUnits="userSpaceOnUse"
       id="clipPath8">
      <path
         d="m 3.125,0 h 868.75 V 314.99023 H 3.125 Z"
         transform="matrix(0.33738743,0,0,0.33738743,377.87939,686.83496)"
         clip-rule="evenodd"
         id="path8" />
    </clipPath>
    <clipPath
       clipPathUnits="userSpaceOnUse"
       id="clipPath9">
      <path
         d="m 3.125,0 h 868.75 V 314.99023 H 3.125 Z"
         transform="matrix(0.33738743,0,0,0.33738743,-126.27683,-11.66499)"
         clip-rule="evenodd"
         id="path9" />
    </clipPath>
    <clipPath
       clipPathUnits="userSpaceOnUse"
       id="clipPath11">
      <path
         d="m 3.125,0 h 868.75 V 314.99023 H 3.125 Z"
         transform="matrix(0.33738743,0,0,0.33738743,377.87939,686.83496)"
         clip-rule="evenodd"
         id="path11" />
    </clipPath>
    <clipPath
       clipPathUnits="userSpaceOnUse"
       id="clipPath12">
      <path
         d="m 3.125,0 h 868.75 V 314.99023 H 3.125 Z"
         transform="matrix(0.33738743,0,0,0.33738743,-256.44871,-56.664991)"
         clip-rule="evenodd"
         id="path12" />
    </clipPath>
    <clipPath
       clipPathUnits="userSpaceOnUse"
       id="clipPath14">
      <path
         d="m 3.125,0 h 868.75 V 314.99023 H 3.125 Z"
         transform="matrix(0.33738743,0,0,0.33738743,377.87939,686.83496)"
         clip-rule="evenodd"
         id="path14" />
    </clipPath>
    <clipPath
       clipPathUnits="userSpaceOnUse"
       id="clipPath15">
      <path
         d="m 3.125,0 h 868.75 V 314.99023 H 3.125 Z"
         transform="matrix(0.33738743,0,0,0.33738743,-5.1049591,-56.664991)"
         clip-rule="evenodd"
         id="path15" />
    </clipPath>
    <clipPath
       clipPathUnits="userSpaceOnUse"
       id="clipPath17">
      <path
         d="m 3.125,0 h 868.75 V 314.99023 H 3.125 Z"
         transform="matrix(0.33738743,0,0,0.33738743,377.87939,686.83496)"
         clip-rule="evenodd"
         id="path17" />
    </clipPath>
    <clipPath
       clipPathUnits="userSpaceOnUse"
       id="clipPath18">
      <path
         d="m 3.125,0 h 868.75 V 314.99023 H 3.125 Z"
         transform="matrix(0.33738743,0,0,0.33738743,-124.60496,-101.66499)"
         clip-rule="evenodd"
         id="path18" />
    </clipPath>
  </defs>
  <g
     id="g1">
    <path
       id="path1"
       d="M 0,0 H 280 V 101 H 0 Z"
       style="fill:#ffffff;fill-opacity:1;fill-rule:nonzero;stroke:none"
       clip-path="url(#clipPath2)" />
    <path
       id="path3"
       d="m 416.28,696.87 h 216.92001 c 0.85687,0 1.70551,0.0835 2.5459,0.25067 0.84039,0.16723 1.65637,0.41479 2.448,0.74267 0.79169,0.32794 1.5437,0.72986 2.25616,1.20587 0.71247,0.47614 1.37165,1.01709 1.9776,1.62299 0.6059,0.6059 1.14685,1.26508 1.62293,1.97754 0.47601,0.71246 0.87799,1.46448 1.20593,2.25616 0.32794,0.79163 0.5755,1.60767 0.74268,2.44806 0.16717,0.84046 0.25079,1.68915 0.25079,2.54602 v 60.92005 c 0,0.85687 -0.0836,1.70544 -0.25079,2.54583 -0.16718,0.84046 -0.41474,1.6565 -0.74268,2.44812 -0.32794,0.79163 -0.72992,1.54371 -1.20593,2.25617 -0.47608,0.71246 -1.01703,1.37164 -1.62293,1.97754 -0.60595,0.60589 -1.26513,1.14685 -1.9776,1.62286 -0.71246,0.47608 -1.46447,0.87805 -2.25616,1.206 -0.79163,0.32794 -1.60761,0.57543 -2.448,0.74261 -0.84039,0.16724 -1.68903,0.25085 -2.5459,0.25085 H 416.28 c -0.8569,0 -1.70557,-0.0836 -2.54599,-0.25085 -0.84042,-0.16718 -1.65643,-0.41467 -2.44809,-0.74261 -0.79166,-0.32795 -1.54373,-0.72992 -2.25617,-1.206 -0.71246,-0.47601 -1.37164,-1.01697 -1.97753,-1.62286 -0.60593,-0.6059 -1.14689,-1.26508 -1.62293,-1.97754 -0.47604,-0.71246 -0.87805,-1.46454 -1.20596,-2.25617 -0.32791,-0.79162 -0.57544,-1.60766 -0.74259,-2.44805 -0.16717,-0.8404 -0.25076,-1.68903 -0.25073,-2.5459 v -60.92005 c -3e-5,-0.85687 0.0836,-1.70556 0.25073,-2.54602 0.16715,-0.84039 0.41468,-1.65643 0.74259,-2.44806 0.32791,-0.79168 0.72992,-1.54376 1.20596,-2.25622 0.47604,-0.71247 1.01703,-1.37158 1.62296,-1.97748 0.60586,-0.6059 1.26504,-1.14685 1.97747,-1.62299 0.71247,-0.47601 1.46454,-0.87799 2.2562,-1.20593 0.79166,-0.32788 1.6077,-0.57544 2.44812,-0.74261 0.84042,-0.16712 1.68906,-0.25067 2.54596,-0.25067 z"
       style="fill:#ffffff;fill-opacity:1;fill-rule:nonzero;stroke:#000000;stroke-width:1;stroke-linecap:butt;stroke-linejoin:miter;stroke-miterlimit:10;stroke-dasharray:none;stroke-opacity:1"
       transform="matrix(0.94846447,0,0,0.94846447,-358.40518,-651.43856)"
       clip-path="url(#clipPath4)" />
    <text
       id="text4"
       xml:space="preserve"
       transform="matrix(0.94846447,0,0,0.94846447,77.547602,37.620835)"
       clip-path="url(#clipPath5)"><tspan
         id="tspan4"
         style="font-variant:normal;font-weight:normal;font-size:12px;font-family:Arial;writing-mode:lr-tb;fill:#000000;fill-opacity:1;fill-rule:nonzero;stroke:none"
         x="0"
         y="0">port-name-compartment</tspan></text>
    <text
       id="text5"
       xml:space="preserve"
       transform="matrix(0.94846447,0,0,0.94846447,90.203675,69.868627)"
       clip-path="url(#clipPath6)"><tspan
         id="tspan5"
         style="font-variant:normal;font-weight:normal;font-size:12px;font-family:Arial;writing-mode:lr-tb;fill:#000000;fill-opacity:1;fill-rule:nonzero;stroke:none"
         x="0"
         y="0">compartment-stack</tspan></text>
    <path
       id="path7"
       d="m 503,690 h 36 v 10.78003 h -36 z"
       style="fill:#ffffff;fill-opacity:1;fill-rule:nonzero;stroke:#ffffff;stroke-width:1;stroke-linecap:butt;stroke-linejoin:miter;stroke-miterlimit:10;stroke-dasharray:none;stroke-opacity:1"
       transform="matrix(0.94846447,0,0,0.94846447,-358.40518,-651.43856)"
       clip-path="url(#clipPath8)" />
    <text
       id="text8"
       xml:space="preserve"
       transform="matrix(0.94846447,0,0,0.94846447,119.76909,11.063829)"
       clip-path="url(#clipPath9)"><tspan
         id="tspan8"
         style="font-variant:normal;font-weight:normal;font-size:12px;font-family:Arial;writing-mode:lr-tb;fill:#000000;fill-opacity:1;fill-rule:nonzero;stroke:none"
         x="0"
         y="0">port-t*</tspan></text>
    <path
       id="path10"
       d="M 633.02002,734.53003 H 670 v 10.78003 h -36.97998 z"
       style="fill:#ffffff;fill-opacity:1;fill-rule:nonzero;stroke:#ffffff;stroke-width:1;stroke-linecap:butt;stroke-linejoin:miter;stroke-miterlimit:10;stroke-dasharray:none;stroke-opacity:1"
       transform="matrix(0.94846447,0,0,0.94846447,-358.40518,-651.43856)"
       clip-path="url(#clipPath11)" />
    <text
       id="text11"
       xml:space="preserve"
       transform="matrix(0.94846447,0,0,0.94846447,243.23249,53.744731)"
       clip-path="url(#clipPath12)"><tspan
         id="tspan11"
         style="font-variant:normal;font-weight:normal;font-size:12px;font-family:Arial;writing-mode:lr-tb;fill:#000000;fill-opacity:1;fill-rule:nonzero;stroke:none"
         x="0"
         y="0">port-r*</tspan></text>
    <path
       id="path13"
       d="m 381,734.53003 h 36.98001 v 10.78003 H 381 Z"
       style="fill:#ffffff;fill-opacity:1;fill-rule:nonzero;stroke:#ffffff;stroke-width:1;stroke-linecap:butt;stroke-linejoin:miter;stroke-miterlimit:10;stroke-dasharray:none;stroke-opacity:1"
       transform="matrix(0.94846447,0,0,0.94846447,-358.40518,-651.43856)"
       clip-path="url(#clipPath14)" />
    <text
       id="text14"
       xml:space="preserve"
       transform="matrix(0.94846447,0,0,0.94846447,4.8418723,53.744731)"
       clip-path="url(#clipPath15)"><tspan
         id="tspan14"
         style="font-variant:normal;font-weight:normal;font-size:12px;font-family:Arial;writing-mode:lr-tb;fill:#000000;fill-opacity:1;fill-rule:nonzero;stroke:none"
         x="0"
         y="0">port-l*</tspan></text>
    <path
       id="path16"
       d="m 501,779.22998 h 40 V 790 h -40 z"
       style="fill:#ffffff;fill-opacity:1;fill-rule:nonzero;stroke:#ffffff;stroke-width:1;stroke-linecap:butt;stroke-linejoin:miter;stroke-miterlimit:10;stroke-dasharray:none;stroke-opacity:1"
       transform="matrix(0.94846447,0,0,0.94846447,-358.40518,-651.43856)"
       clip-path="url(#clipPath17)" />
    <text
       id="text17"
       xml:space="preserve"
       transform="matrix(0.94846447,0,0,0.94846447,118.18338,96.425632)"
       clip-path="url(#clipPath18)"><tspan
         id="tspan17"
         style="font-variant:normal;font-weight:normal;font-size:12px;font-family:Arial;writing-mode:lr-tb;fill:#000000;fill-opacity:1;fill-rule:nonzero;stroke:none"
         x="0"
         y="0">port-b*</tspan></text>
  </g>
</svg>
