<?xml version="1.0" encoding="UTF-8" standalone="no"?>
<!-- Created with Inkscape (http://www.inkscape.org/) -->

<svg
   version="1.1"
   id="svg1"
   width="97.279999"
   height="56"
   viewBox="0 0 97.279999 56"
   xmlns="http://www.w3.org/2000/svg"
   xmlns:svg="http://www.w3.org/2000/svg">
  <defs
     id="defs1">
    <clipPath
       clipPathUnits="userSpaceOnUse"
       id="clipPath2">
      <path
         d="M 0,0 H 302.97852 V 174.02344 H 0 Z"
         transform="scale(0.31999999)"
         clip-rule="evenodd"
         id="path2" />
    </clipPath>
    <clipPath
       clipPathUnits="userSpaceOnUse"
       id="clipPath3">
      <path
         d="M 3.125,0 H 300 V 171.875 H 3.125 Z"
         transform="matrix(0.34874928,0,0,0.34874928,-37.42832,-20.089842)"
         clip-rule="evenodd"
         id="path3" />
    </clipPath>
    <clipPath
       clipPathUnits="userSpaceOnUse"
       id="clipPath5">
      <path
         d="M 3.125,0 H 300 V 171.875 H 3.125 Z"
         transform="matrix(0.34874928,0,0,0.34874928,301.05608,498.4102)"
         clip-rule="evenodd"
         id="path5" />
    </clipPath>
    <clipPath
       clipPathUnits="userSpaceOnUse"
       id="clipPath7">
      <path
         d="M 3.125,0 H 300 V 171.875 H 3.125 Z"
         transform="matrix(0.34874928,0,0,0.34874928,301.05608,498.4102)"
         clip-rule="evenodd"
         id="path7" />
    </clipPath>
    <clipPath
       clipPathUnits="userSpaceOnUse"
       id="clipPath9">
      <path
         d="M 3.125,0 H 300 V 171.875 H 3.125 Z"
         transform="matrix(0.34874928,0,0,0.34874928,301.05608,498.4102)"
         clip-rule="evenodd"
         id="path9" />
    </clipPath>
    <clipPath
       clipPathUnits="userSpaceOnUse"
       id="clipPath10">
      <path
         d="M 3.125,0 H 300 V 171.875 H 3.125 Z"
         transform="matrix(0.34874928,0,0,0.34874928,-8.42832,-35.089841)"
         clip-rule="evenodd"
         id="path10" />
    </clipPath>
    <clipPath
       clipPathUnits="userSpaceOnUse"
       id="clipPath12">
      <path
         d="M 3.125,0 H 300 V 171.875 H 3.125 Z"
         transform="matrix(0.34874928,0,0,0.34874928,301.05608,498.4102)"
         clip-rule="evenodd"
         id="path12" />
    </clipPath>
    <clipPath
       clipPathUnits="userSpaceOnUse"
       id="clipPath14">
      <path
         d="M 3.125,0 H 300 V 171.875 H 3.125 Z"
         transform="matrix(0.34874928,0,0,0.34874928,301.05608,498.4102)"
         clip-rule="evenodd"
         id="path14" />
    </clipPath>
  </defs>
  <g
     id="g1">
    <path
       id="path1"
       d="M 0,0 H 97 V 56 H 0 Z"
       style="fill:#ffffff;fill-opacity:1;fill-rule:nonzero;stroke:none"
       clip-path="url(#clipPath2)" />
    <text
       id="text2"
       xml:space="preserve"
       transform="matrix(0.91756457,0,0,0.91756457,34.3429,18.433727)"
       clip-path="url(#clipPath3)"><tspan
         id="tspan2"
         style="font-variant:normal;font-weight:normal;font-size:12px;font-family:Arial;writing-mode:lr-tb;fill:#000000;fill-opacity:1;fill-rule:nonzero;stroke:none"
         x="0"
         y="0">port-label</tspan></text>
    <path
       id="path4"
       d="m 307.98999,515.83002 h 19.82999 c 0.56356,0 1.10568,0.10785 1.62637,0.32348 0.52069,0.21564 0.98029,0.52277 1.37881,0.92127 0.3985,0.3985 0.70557,0.85809 0.92124,1.37878 0.2157,0.52069 0.32355,1.06287 0.32358,1.62647 v 19.83001 c -3e-5,0.56354 -0.10788,1.10566 -0.32355,1.62635 -0.21567,0.52069 -0.52277,0.98034 -0.92127,1.37884 -0.39852,0.3985 -0.85812,0.70557 -1.37881,0.92121 -0.52069,0.21569 -1.06281,0.32354 -1.62637,0.3236 h -19.82999 c -0.56363,-6e-5 -1.10577,-0.10791 -1.62643,-0.3236 -0.5207,-0.21564 -0.98029,-0.52271 -1.37879,-0.92121 -0.39853,-0.3985 -0.70566,-0.85815 -0.92132,-1.37884 -0.21567,-0.52069 -0.32349,-1.06281 -0.32346,-1.62635 v -19.83001 c -3e-5,-0.5636 0.10779,-1.10578 0.32346,-1.62647 0.21566,-0.52069 0.52279,-0.98028 0.92132,-1.37878 0.3985,-0.3985 0.85809,-0.70563 1.37879,-0.92127 0.52066,-0.21563 1.0628,-0.32348 1.62643,-0.32348 z"
       style="fill:#ffffff;fill-opacity:1;fill-rule:nonzero;stroke:none"
       transform="matrix(0.91756457,0,0,0.91756457,-276.23839,-457.32354)"
       clip-path="url(#clipPath5)" />
    <path
       id="path6"
       d="m 309.98999,515.83002 h 19.82999 c 0.56356,0 1.10568,0.10785 1.62634,0.32348 0.52066,0.21564 0.98029,0.52277 1.37881,0.92127 0.39853,0.3985 0.70563,0.85809 0.9213,1.37878 0.21567,0.52069 0.32352,1.06287 0.32355,1.62647 v 19.83001 c -3e-5,0.56354 -0.10785,1.10566 -0.32352,1.62635 -0.2157,0.52069 -0.5228,0.98034 -0.92133,1.37884 -0.39852,0.3985 -0.85815,0.70557 -1.37881,0.92121 -0.52066,0.21569 -1.06278,0.32354 -1.62634,0.3236 h -19.82999 c -0.56363,-6e-5 -1.10577,-0.10791 -1.62643,-0.3236 -0.52073,-0.21564 -0.98032,-0.52271 -1.37882,-0.92121 -0.39853,-0.3985 -0.70563,-0.85815 -0.92129,-1.37884 -0.21567,-0.52069 -0.32349,-1.06281 -0.32346,-1.62635 v -19.83001 c -3e-5,-0.5636 0.10779,-1.10578 0.32346,-1.62647 0.21566,-0.52069 0.52276,-0.98028 0.92129,-1.37878 0.3985,-0.3985 0.85809,-0.70563 1.37882,-0.92127 0.52066,-0.21563 1.0628,-0.32348 1.62643,-0.32348 z"
       style="fill:#ffffff;fill-opacity:1;fill-rule:nonzero;stroke:none"
       transform="matrix(0.91756457,0,0,0.91756457,-276.23839,-457.32354)"
       clip-path="url(#clipPath7)" />
    <path
       id="path8"
       d="m 315.98999,515.33002 h 3 v 1 h -3 z m 6,0 h 3 v 1 h -3 z m 6,0 h 1.82999 c 0.42508,0 0.84265,0.056 1.25271,0.16815 l -0.26373,0.9646 c -0.3237,-0.0885 -0.65338,-0.13275 -0.98898,-0.13275 h -1.82999 z m 5.87235,2.25561 c 0.47177,0.76459 0.70764,1.59601 0.70764,2.49439 v 0.66436 h -1 v -0.66436 c 0,-0.70923 -0.18622,-1.36566 -0.55866,-1.96924 z m 0.70764,6.15875 v 3 h -1 v -3 z m 0,6 v 3 h -1 v -3 z m 0,6 v 3 h -1 v -3 z m -0.42847,6.13715 c -0.52103,1.14221 -1.36261,1.95075 -2.52478,2.42554 l -0.37824,-0.92566 c 0.91745,-0.37488 1.58188,-1.01318 1.99323,-1.91492 z m -5.6503,2.7785 h -3 v -1 h 3 z m -6,0 h -3 v -1 h 3 z m -6,0 h -3 v -1 h 3 z m -6,0 h -0.50122 c -0.96909,0 -1.85516,-0.27118 -2.65826,-0.81353 l 0.55963,-0.82874 c 0.63403,0.42816 1.33359,0.64227 2.09863,0.64227 h 0.50122 z m -5.12802,-3.67511 c -0.0821,-0.35357 -0.1232,-0.71191 -0.1232,-1.07489 v -1.99316 h 1 v 1.99316 c 0,0.28656 0.0324,0.56946 0.0973,0.84858 l -0.97406,0.22631 z m -0.1232,-6.06805 v -3 h 1 v 3 z m 0,-6 v -3 h 1 v 3 z m 0,-6 v -2.83685 c 0,-0.0568 0.001,-0.11341 0.003,-0.16968 l 0.99939,0.0358 c -0.002,0.0449 -0.002,0.0895 -0.002,0.13391 v 2.83685 h -1 z m 1.31537,-6.11798 c 0.8392,-0.87854 1.86453,-1.36365 3.07596,-1.45532 l 0.0754,0.99719 c -0.95633,0.0724 -1.76578,0.45538 -2.42832,1.14893 l -0.72308,-0.6908 z m 3.43463,-1.46887 h 3 v 1 h -3 z"
       style="fill:#000000;fill-opacity:1;fill-rule:nonzero;stroke:none"
       transform="matrix(0.91756457,0,0,0.91756457,-276.23839,-457.32354)"
       clip-path="url(#clipPath9)" />
    <text
       id="text9"
       xml:space="preserve"
       transform="matrix(0.91756457,0,0,0.91756457,7.7335278,32.197195)"
       clip-path="url(#clipPath10)"><tspan
         id="tspan9"
         style="font-variant:normal;font-weight:normal;font-size:12px;font-family:Arial;writing-mode:lr-tb;fill:#000000;fill-opacity:1;fill-rule:nonzero;stroke:none"
         x="0"
         y="0">pdh</tspan></text>
    <path
       id="path11"
       d="m 320.73999,544 v 11"
       style="fill:none;stroke:#000000;stroke-width:1;stroke-linecap:butt;stroke-linejoin:miter;stroke-miterlimit:10;stroke-dasharray:none;stroke-opacity:1"
       transform="matrix(0.91756457,0,0,0.91756457,-276.23839,-457.32354)"
       clip-path="url(#clipPath12)" />
    <path
       id="path13"
       d="m 319.73999,505 v 11"
       style="fill:none;stroke:#000000;stroke-width:1;stroke-linecap:butt;stroke-linejoin:miter;stroke-miterlimit:10;stroke-dasharray:none;stroke-opacity:1"
       transform="matrix(0.91756457,0,0,0.91756457,-276.23839,-457.32354)"
       clip-path="url(#clipPath14)" />
  </g>
</svg>
