<?xml version="1.0" encoding="UTF-8" standalone="no"?>
<!-- Created with Inkscape (http://www.inkscape.org/) -->

<svg
   version="1.1"
   id="svg1"
   width="89.279999"
   height="41.279999"
   viewBox="0 0 89.279999 41.279999"
   xmlns="http://www.w3.org/2000/svg"
   xmlns:svg="http://www.w3.org/2000/svg">
  <defs
     id="defs1">
    <clipPath
       clipPathUnits="userSpaceOnUse"
       id="clipPath2">
      <path
         d="M 0,0 H 279.00391 V 129.00391 H 0 Z"
         transform="scale(0.31999999)"
         clip-rule="evenodd"
         id="path2" />
    </clipPath>
    <clipPath
       clipPathUnits="userSpaceOnUse"
       id="clipPath4">
      <path
         d="M 3.125,0 H 275 V 129.00391 H 3.125 Z"
         transform="matrix(0.34827211,0,0,0.34827211,278.82186,37.911653)"
         clip-rule="evenodd"
         id="path4" />
    </clipPath>
    <clipPath
       clipPathUnits="userSpaceOnUse"
       id="clipPath6">
      <path
         d="M 3.125,0 H 275 V 129.00391 H 3.125 Z"
         transform="matrix(0.34827211,0,0,0.34827211,279.32186,38.411651)"
         clip-rule="evenodd"
         id="path6" />
    </clipPath>
    <clipPath
       clipPathUnits="userSpaceOnUse"
       id="clipPath7">
      <path
         d="M 3.125,0 H 275 V 129.00391 H 3.125 Z"
         transform="matrix(0.34827211,0,0,0.34827211,-31.818771,-26.58835)"
         clip-rule="evenodd"
         id="path7" />
    </clipPath>
    <clipPath
       clipPathUnits="userSpaceOnUse"
       id="clipPath9">
      <path
         d="M 3.125,0 H 275 V 129.00391 H 3.125 Z"
         transform="matrix(0.34827211,0,0,0.34827211,278.82186,37.911653)"
         clip-rule="evenodd"
         id="path9" />
    </clipPath>
  </defs>
  <g
     id="g1">
    <path
       id="path1"
       d="M 0,0 H 89 V 41 H 0 Z"
       style="fill:#ffffff;fill-opacity:1;fill-rule:nonzero;stroke:none"
       clip-path="url(#clipPath2)" />
    <path
       id="path3"
       d="m 298,59.5 c -3e-5,0.525288 -0.0513,1.045528 -0.15375,1.560722 -0.10245,0.515194 -0.25421,1.015442 -0.45523,1.500744 -0.20102,0.485302 -0.44745,0.946331 -0.73929,1.383087 -0.29184,0.436764 -0.62347,0.840863 -0.9949,1.2123 -0.37146,0.371437 -0.77557,0.703064 -1.21231,0.994896 -0.43674,0.291832 -0.89777,0.538261 -1.38309,0.73928 -0.48532,0.201012 -0.98556,0.352761 -1.50073,0.455246 C 291.0455,67.448761 290.52527,67.5 290,67.5 c -0.5253,0 -1.04556,-0.05124 -1.56073,-0.153725 -0.51523,-0.102485 -1.01547,-0.254234 -1.50076,-0.455246 -0.48532,-0.201019 -0.94635,-0.447441 -1.38309,-0.739273 -0.43677,-0.291832 -0.84085,-0.623466 -1.21228,-0.994903 -0.37143,-0.371437 -0.70309,-0.775536 -0.99493,-1.2123 -0.29184,-0.43676 -0.53827,-0.897789 -0.73929,-1.383091 -0.20102,-0.485302 -0.35279,-0.985546 -0.45523,-1.50074 C 282.05121,60.545528 281.99997,60.025288 282,59.5 c -3e-5,-0.525288 0.0512,-1.045532 0.15369,-1.56073 0.10244,-0.515194 0.25421,-1.015442 0.45523,-1.500744 0.20102,-0.485306 0.44745,-0.946338 0.73929,-1.383098 0.29184,-0.43676 0.6235,-0.840855 0.99493,-1.212285 0.37143,-0.371433 0.77551,-0.703067 1.21228,-0.994903 0.43674,-0.291836 0.89777,-0.538265 1.38309,-0.739281 0.48529,-0.201019 0.98553,-0.352768 1.50076,-0.455242 C 288.95444,51.551239 289.4747,51.5 290,51.5 c 0.52527,0 1.0455,0.05124 1.5607,0.153717 0.51517,0.102474 1.01541,0.254223 1.50073,0.455242 0.48532,0.201016 0.94635,0.447445 1.38309,0.739281 0.43674,0.291836 0.84085,0.62347 1.21231,0.994903 0.37143,0.37143 0.70303,0.775525 0.99487,1.212285 0.29184,0.43676 0.5383,0.897792 0.73932,1.383098 0.20102,0.485302 0.35278,0.98555 0.45523,1.500744 0.10248,0.515198 0.15372,1.035442 0.15375,1.56073 z"
       style="fill:#000000;fill-opacity:1;fill-rule:nonzero;stroke:#000000;stroke-width:1;stroke-linecap:butt;stroke-linejoin:miter;stroke-miterlimit:10;stroke-dasharray:none;stroke-opacity:1"
       transform="matrix(0.91882175,0,0,0.91882175,-256.18759,-34.834051)"
       clip-path="url(#clipPath4)" />
    <path
       id="path5"
       d="m 311,54 h 59 v 15 h -59 z"
       style="fill:#ffffff;fill-opacity:1;fill-rule:nonzero;stroke:none"
       transform="matrix(0.91882175,0,0,0.91882175,-256.647,-35.29346)"
       clip-path="url(#clipPath6)" />
    <text
       id="text6"
       xml:space="preserve"
       transform="matrix(0.91882175,0,0,0.91882175,29.235779,24.429954)"
       clip-path="url(#clipPath7)"><tspan
         id="tspan6"
         style="font-variant:normal;font-weight:normal;font-size:12px;font-family:Arial;writing-mode:lr-tb;fill:#000000;fill-opacity:1;fill-rule:nonzero;stroke:none"
         x="0"
         y="0">proxy-label</tspan></text>
    <path
       id="path8"
       d="M 290,80 V 40"
       style="fill:none;stroke:#000000;stroke-width:1;stroke-linecap:butt;stroke-linejoin:miter;stroke-miterlimit:10;stroke-dasharray:none;stroke-opacity:1"
       transform="matrix(0.91882175,0,0,0.91882175,-256.18759,-34.834051)"
       clip-path="url(#clipPath9)" />
  </g>
</svg>
