<?xml version="1.0" encoding="UTF-8" standalone="no"?>
<!-- Created with Inkscape (http://www.inkscape.org/) -->

<svg
   version="1.1"
   id="svg1"
   width="92.159996"
   height="38.719997"
   viewBox="0 0 92.159996 38.719997"
   xmlns="http://www.w3.org/2000/svg"
   xmlns:svg="http://www.w3.org/2000/svg">
  <defs
     id="defs1">
    <clipPath
       clipPathUnits="userSpaceOnUse"
       id="clipPath2">
      <path
         d="M 0,0 H 287.98828 V 120.01953 H 0 Z"
         transform="scale(0.31999999)"
         clip-rule="evenodd"
         id="path2" />
    </clipPath>
    <clipPath
       clipPathUnits="userSpaceOnUse"
       id="clipPath4">
      <path
         d="m 3.125,0 h 281.25 V 120.01953 H 3.125 Z"
         transform="matrix(0.34785562,0,0,0.34785562,77.308915,118.41295)"
         clip-rule="evenodd"
         id="path4" />
    </clipPath>
    <clipPath
       clipPathUnits="userSpaceOnUse"
       id="clipPath6">
      <path
         d="m 3.125,0 h 281.25 V 120.01953 H 3.125 Z"
         transform="matrix(0.34785562,0,0,0.34785562,77.308915,118.41295)"
         clip-rule="evenodd"
         id="path6" />
    </clipPath>
    <clipPath
       clipPathUnits="userSpaceOnUse"
       id="clipPath8">
      <path
         d="m 3.125,0 h 281.25 V 120.01953 H 3.125 Z"
         transform="matrix(0.34785562,0,0,0.34785562,77.808916,118.91295)"
         clip-rule="evenodd"
         id="path8" />
    </clipPath>
    <clipPath
       clipPathUnits="userSpaceOnUse"
       id="clipPath9">
      <path
         d="m 3.125,0 h 281.25 V 120.01953 H 3.125 Z"
         transform="matrix(0.34785562,0,0,0.34785562,-5.3317091,-20.087052)"
         clip-rule="evenodd"
         id="path9" />
    </clipPath>
  </defs>
  <g
     id="g1">
    <path
       id="path1"
       d="M 0,0 H 92 V 38 H 0 Z"
       style="fill:#ffffff;fill-opacity:1;fill-rule:nonzero;stroke:none"
       clip-path="url(#clipPath2)" />
    <path
       id="path3"
       d="M 173,150 H 132.69"
       style="fill:none;stroke:#000000;stroke-width:1;stroke-linecap:butt;stroke-linejoin:miter;stroke-miterlimit:10;stroke-dasharray:none;stroke-opacity:1"
       transform="matrix(0.91992185,0,0,0.91992185,-71.11816,-108.93066)"
       clip-path="url(#clipPath4)" />
    <path
       id="path5"
       d="m 161,150 c 0,0.52528 -0.0512,1.04553 -0.15373,1.56071 -0.1025,0.5152 -0.25424,1.01545 -0.45526,1.50075 -0.20101,0.48529 -0.44744,0.94632 -0.73929,1.38307 -0.29183,0.43677 -0.62346,0.84087 -0.99489,1.21231 -0.37145,0.37143 -0.77554,0.70307 -1.2123,0.99489 -0.43675,0.29186 -0.89778,0.53829 -1.38308,0.73929 -0.48531,0.20102 -0.98555,0.35277 -1.50074,0.45525 -0.51519,0.10248 -1.03543,0.15371 -1.56071,0.15373 -0.52528,-2e-5 -1.04553,-0.0513 -1.56073,-0.15373 -0.5152,-0.10248 -1.01544,-0.25423 -1.50075,-0.45525 -0.4853,-0.201 -0.94633,-0.44743 -1.3831,-0.73927 -0.43675,-0.29184 -0.84084,-0.62348 -1.21228,-0.99491 -0.37145,-0.37144 -0.70308,-0.77554 -0.9949,-1.21231 -0.29184,-0.43675 -0.53827,-0.89778 -0.73929,-1.38307 -0.20102,-0.4853 -0.35277,-0.98555 -0.45525,-1.50075 C 145.05124,151.04553 145,150.52528 145,150 c 0,-0.52528 0.0512,-1.04553 0.1537,-1.56075 0.10248,-0.51519 0.25423,-1.01544 0.45525,-1.50074 0.20102,-0.48531 0.44745,-0.94634 0.73929,-1.38309 0.29182,-0.43675 0.62345,-0.84085 0.9949,-1.21228 0.37144,-0.37145 0.77553,-0.70308 1.21228,-0.9949 0.43677,-0.29183 0.8978,-0.53826 1.3831,-0.73928 0.48531,-0.201 0.98555,-0.35275 1.50075,-0.45524 C 151.95447,142.05124 152.47472,142 153,142 c 0.52528,0 1.04552,0.0512 1.56071,0.15372 0.51519,0.10249 1.01543,0.25424 1.50074,0.45524 0.4853,0.20102 0.94633,0.44745 1.38308,0.73928 0.43676,0.29182 0.84085,0.62345 1.2123,0.9949 0.37143,0.37143 0.70306,0.77553 0.9949,1.21228 0.29184,0.43675 0.53827,0.89778 0.73928,1.38309 0.20102,0.4853 0.35276,0.98555 0.45526,1.50074 C 160.94876,148.95447 161,149.47472 161,150 Z"
       style="fill:#000000;fill-opacity:1;fill-rule:nonzero;stroke:#000000;stroke-width:1;stroke-linecap:butt;stroke-linejoin:miter;stroke-miterlimit:10;stroke-dasharray:none;stroke-opacity:1"
       transform="matrix(0.91992185,0,0,0.91992185,-71.11816,-108.93066)"
       clip-path="url(#clipPath6)" />
    <path
       id="path7"
       d="m 83,128 h 59 v 15 H 83 Z"
       style="fill:#ffffff;fill-opacity:1;fill-rule:nonzero;stroke:none"
       transform="matrix(0.91992185,0,0,0.91992185,-71.578122,-109.39062)"
       clip-path="url(#clipPath8)" />
    <text
       id="text8"
       xml:space="preserve"
       transform="matrix(0.91992185,0,0,0.91992185,4.9047557,18.478518)"
       clip-path="url(#clipPath9)"><tspan
         id="tspan8"
         style="font-variant:normal;font-weight:normal;font-size:12px;font-family:Arial;writing-mode:lr-tb;fill:#000000;fill-opacity:1;fill-rule:nonzero;stroke:none"
         x="0"
         y="0">proxy-label</tspan></text>
  </g>
</svg>
