<?xml version="1.0" encoding="UTF-8" standalone="no"?>
<!-- Created with Inkscape (http://www.inkscape.org/) -->

<svg
   version="1.1"
   id="svg1"
   width="149.43999"
   height="41.279999"
   viewBox="0 0 149.43999 41.279999"
   xmlns="http://www.w3.org/2000/svg"
   xmlns:svg="http://www.w3.org/2000/svg">
  <defs
     id="defs1">
    <clipPath
       clipPathUnits="userSpaceOnUse"
       id="clipPath2">
      <path
         d="M 0,0 H 464.99023 V 129.00391 H 0 Z"
         transform="scale(0.31999999)"
         clip-rule="evenodd"
         id="path2" />
    </clipPath>
    <clipPath
       clipPathUnits="userSpaceOnUse"
       id="clipPath4">
      <path
         d="M 3.125,0 H 462.5 V 129.00391 H 3.125 Z"
         transform="matrix(0.34330634,0,0,0.34330634,188.33236,128.99999)"
         clip-rule="evenodd"
         id="path4" />
    </clipPath>
    <clipPath
       clipPathUnits="userSpaceOnUse"
       id="clipPath6">
      <path
         d="M 3.125,0 H 462.5 V 129.00391 H 3.125 Z"
         transform="matrix(0.34330634,0,0,0.34330634,188.83235,129.49999)"
         clip-rule="evenodd"
         id="path6" />
    </clipPath>
    <clipPath
       clipPathUnits="userSpaceOnUse"
       id="clipPath7">
      <path
         d="M 3.125,0 H 462.5 V 129.00391 H 3.125 Z"
         transform="matrix(0.34330634,0,0,0.34330634,-5.3082719,-25.500006)"
         clip-rule="evenodd"
         id="path7" />
    </clipPath>
    <clipPath
       clipPathUnits="userSpaceOnUse"
       id="clipPath9">
      <path
         d="M 3.125,0 H 462.5 V 129.00391 H 3.125 Z"
         transform="matrix(0.34330634,0,0,0.34330634,188.33236,128.99999)"
         clip-rule="evenodd"
         id="path9" />
    </clipPath>
  </defs>
  <g
     id="g1">
    <path
       id="path1"
       d="M 0,0 H 149 V 41 H 0 Z"
       style="fill:#ffffff;fill-opacity:1;fill-rule:nonzero;stroke:none"
       clip-path="url(#clipPath2)" />
    <path
       id="path3"
       d="m 279,150.5 c -3e-5,0.52528 -0.0513,1.04552 -0.15375,1.5607 -0.10251,0.5152 -0.25424,1.01544 -0.45526,1.50075 -0.20102,0.4853 -0.44745,0.94635 -0.73929,1.3831 -0.29184,0.43677 -0.62344,0.84087 -0.99487,1.21229 -0.37143,0.37142 -0.77554,0.70305 -1.21228,0.99489 -0.43677,0.29184 -0.8978,0.53827 -1.38312,0.73928 -0.48532,0.20102 -0.98556,0.35276 -1.50073,0.45524 -0.5152,0.1025 -1.03543,0.15373 -1.5607,0.15375 -0.5253,-2e-5 -1.04556,-0.0513 -1.56076,-0.15375 -0.5152,-0.10248 -1.01544,-0.25422 -1.50073,-0.45524 -0.48532,-0.20101 -0.94635,-0.44744 -1.38312,-0.73928 -0.43674,-0.29184 -0.84082,-0.62347 -1.21225,-0.99489 -0.37143,-0.37142 -0.70309,-0.77552 -0.99493,-1.21229 -0.29181,-0.43675 -0.53824,-0.8978 -0.73926,-1.3831 -0.20102,-0.48531 -0.35275,-0.98555 -0.45526,-1.50075 C 263.05124,151.54552 263,151.02528 263,150.5 c 0,-0.52528 0.0512,-1.04553 0.15369,-1.56073 0.10251,-0.5152 0.25424,-1.01544 0.45526,-1.50075 0.20102,-0.4853 0.44745,-0.94633 0.73926,-1.3831 0.29184,-0.43675 0.6235,-0.84084 0.99493,-1.21228 0.37143,-0.37145 0.77551,-0.70308 1.21225,-0.9949 0.43677,-0.29184 0.8978,-0.53827 1.38312,-0.73929 0.48529,-0.20102 0.98553,-0.35277 1.50073,-0.45523 C 269.95444,142.55124 270.4747,142.5 271,142.5 c 0.52527,0 1.0455,0.0512 1.5607,0.15372 0.51517,0.10246 1.01541,0.25421 1.50073,0.45523 0.48532,0.20102 0.94635,0.44745 1.38312,0.73929 0.43674,0.29182 0.84085,0.62345 1.21228,0.9949 0.37143,0.37144 0.70303,0.77553 0.99487,1.21228 0.29184,0.43677 0.53827,0.8978 0.73929,1.3831 0.20102,0.48531 0.35275,0.98555 0.45526,1.50075 0.10248,0.5152 0.15372,1.03545 0.15375,1.56073 z"
       style="fill:#000000;fill-opacity:1;fill-rule:nonzero;stroke:#000000;stroke-width:1;stroke-linecap:butt;stroke-linejoin:miter;stroke-miterlimit:10;stroke-dasharray:none;stroke-opacity:1"
       transform="matrix(0.93211209,0,0,0.93211209,-175.54687,-120.24245)"
       clip-path="url(#clipPath4)" />
    <path
       id="path5"
       d="m 194,144 h 59 v 15 h -59 z"
       style="fill:#ffffff;fill-opacity:1;fill-rule:nonzero;stroke:none"
       transform="matrix(0.93211209,0,0,0.93211209,-176.01292,-120.70851)"
       clip-path="url(#clipPath6)" />
    <text
       id="text6"
       xml:space="preserve"
       transform="matrix(0.93211209,0,0,0.93211209,4.9479044,23.768864)"
       clip-path="url(#clipPath7)"><tspan
         id="tspan6"
         style="font-variant:normal;font-weight:normal;font-size:12px;font-family:Arial;writing-mode:lr-tb;fill:#000000;fill-opacity:1;fill-rule:nonzero;stroke:none"
         x="0"
         y="0">proxy-label</tspan></text>
    <path
       id="path8"
       d="M 271,170 V 130"
       style="fill:none;stroke:#000000;stroke-width:1;stroke-linecap:butt;stroke-linejoin:miter;stroke-miterlimit:10;stroke-dasharray:none;stroke-opacity:1"
       transform="matrix(0.93211209,0,0,0.93211209,-175.54687,-120.24245)"
       clip-path="url(#clipPath9)" />
  </g>
</svg>
