<?xml version="1.0" encoding="UTF-8" standalone="no"?>
<!-- Created with Inkscape (http://www.inkscape.org/) -->

<svg
   version="1.1"
   id="svg1"
   width="92.159996"
   height="65.279999"
   viewBox="0 0 92.159996 65.279999"
   xmlns="http://www.w3.org/2000/svg"
   xmlns:svg="http://www.w3.org/2000/svg">
  <defs
     id="defs1">
    <clipPath
       clipPathUnits="userSpaceOnUse"
       id="clipPath2">
      <path
         d="M 0,0 H 287.98828 V 204.00391 H 0 Z"
         transform="scale(0.31999999)"
         clip-rule="evenodd"
         id="path2" />
    </clipPath>
    <clipPath
       clipPathUnits="userSpaceOnUse"
       id="clipPath4">
      <path
         d="m 3.125,3.125 h 281.25 v 200 H 3.125 Z"
         transform="matrix(0.34777356,0,0,0.34777356,77.32075,27.326413)"
         clip-rule="evenodd"
         id="path4" />
    </clipPath>
    <clipPath
       clipPathUnits="userSpaceOnUse"
       id="clipPath6">
      <path
         d="m 3.125,3.125 h 281.25 v 200 H 3.125 Z"
         transform="matrix(0.34777356,0,0,0.34777356,77.32075,27.326413)"
         clip-rule="evenodd"
         id="path6" />
    </clipPath>
    <clipPath
       clipPathUnits="userSpaceOnUse"
       id="clipPath8">
      <path
         d="m 3.125,3.125 h 281.25 v 200 H 3.125 Z"
         transform="matrix(0.34777356,0,0,0.34777356,77.820751,27.826412)"
         clip-rule="evenodd"
         id="path8" />
    </clipPath>
    <clipPath
       clipPathUnits="userSpaceOnUse"
       id="clipPath9">
      <path
         d="m 3.125,3.125 h 281.25 v 200 H 3.125 Z"
         transform="matrix(0.34777356,0,0,0.34777356,-5.3198736,-57.173588)"
         clip-rule="evenodd"
         id="path9" />
    </clipPath>
  </defs>
  <g
     id="g1">
    <path
       id="path1"
       d="M 0,0 H 92 V 65 H 0 Z"
       style="fill:#ffffff;fill-opacity:1;fill-rule:nonzero;stroke:none"
       clip-path="url(#clipPath2)" />
    <path
       id="path3"
       d="M 173,60 H 132.69"
       style="fill:none;stroke:#000000;stroke-width:1;stroke-linecap:butt;stroke-linejoin:miter;stroke-miterlimit:10;stroke-dasharray:none;stroke-opacity:1"
       transform="matrix(0.92013891,0,0,0.92013891,-71.145831,-25.144096)"
       clip-path="url(#clipPath4)" />
    <path
       id="path5"
       d="m 161,60 c 0,0.525288 -0.0512,1.045525 -0.15373,1.560719 -0.1025,0.515193 -0.25424,1.015438 -0.45526,1.50074 -0.20101,0.485302 -0.44744,0.946338 -0.73929,1.383098 -0.29183,0.43676 -0.62346,0.840859 -0.99489,1.212296 -0.37145,0.371429 -0.77554,0.703056 -1.2123,0.994888 -0.43675,0.29184 -0.89778,0.538269 -1.38308,0.739281 -0.48531,0.201019 -0.98555,0.352768 -1.50074,0.455253 C 154.04552,67.948753 153.52528,67.999992 153,68 c -0.52528,-8e-6 -1.04553,-0.05125 -1.56073,-0.153725 -0.5152,-0.102485 -1.01544,-0.254234 -1.50075,-0.455246 -0.4853,-0.201019 -0.94633,-0.447448 -1.3831,-0.73928 -0.43675,-0.291832 -0.84084,-0.623467 -1.21228,-0.994896 -0.37145,-0.371437 -0.70308,-0.775536 -0.9949,-1.212296 -0.29184,-0.43676 -0.53827,-0.897796 -0.73929,-1.383098 -0.20102,-0.485302 -0.35277,-0.985547 -0.45525,-1.50074 C 145.05124,61.045525 145,60.525288 145,60 c 0,-0.525288 0.0512,-1.045532 0.1537,-1.560726 0.10248,-0.515198 0.25423,-1.01545 0.45525,-1.500752 0.20102,-0.485302 0.44745,-0.946334 0.73929,-1.383091 0.29182,-0.436763 0.62345,-0.840858 0.9949,-1.212291 0.37144,-0.371434 0.77553,-0.703068 1.21228,-0.994904 0.43677,-0.291836 0.8978,-0.538265 1.3831,-0.739281 0.48531,-0.201015 0.98555,-0.352764 1.50075,-0.455242 C 151.95447,52.051239 152.47472,52 153,52 c 0.52528,0 1.04552,0.05124 1.56071,0.153713 0.51519,0.102478 1.01543,0.254227 1.50074,0.455242 0.4853,0.201016 0.94633,0.447445 1.38308,0.739281 0.43676,0.291836 0.84085,0.62347 1.2123,0.994904 0.37143,0.371433 0.70306,0.775528 0.9949,1.212288 0.29184,0.43676 0.53827,0.897792 0.73928,1.383094 0.20102,0.485302 0.35276,0.985554 0.45526,1.500748 C 160.94876,58.954468 161,59.474712 161,60 Z"
       style="fill:#000000;fill-opacity:1;fill-rule:nonzero;stroke:#000000;stroke-width:1;stroke-linecap:butt;stroke-linejoin:miter;stroke-miterlimit:10;stroke-dasharray:none;stroke-opacity:1"
       transform="matrix(0.92013891,0,0,0.92013891,-71.145831,-25.144096)"
       clip-path="url(#clipPath6)" />
    <path
       id="path7"
       d="m 83,74 h 59 V 89 H 83 Z"
       style="fill:#ffffff;fill-opacity:1;fill-rule:nonzero;stroke:none"
       transform="matrix(0.92013891,0,0,0.92013891,-71.605901,-25.604164)"
       clip-path="url(#clipPath8)" />
    <text
       id="text8"
       xml:space="preserve"
       transform="matrix(0.92013891,0,0,0.92013891,4.8950227,52.607643)"
       clip-path="url(#clipPath9)"><tspan
         id="tspan8"
         style="font-variant:normal;font-weight:normal;font-size:12px;font-family:Arial;writing-mode:lr-tb;fill:#000000;fill-opacity:1;fill-rule:nonzero;stroke:none"
         x="0"
         y="0">proxy-label</tspan></text>
  </g>
</svg>
