<?xml version="1.0" encoding="UTF-8" standalone="no"?>
<!-- Created with Inkscape (http://www.inkscape.org/) -->

<svg
   version="1.1"
   id="svg1"
   width="280"
   height="25.279999"
   viewBox="0 0 280 25.279999"
   xmlns="http://www.w3.org/2000/svg"
   xmlns:svg="http://www.w3.org/2000/svg">
  <defs
     id="defs1">
    <clipPath
       clipPathUnits="userSpaceOnUse"
       id="clipPath2">
      <path
         d="M 0,0 H 875.97656 V 77.978516 H 0 Z"
         transform="scale(0.31999999)"
         clip-rule="evenodd"
         id="path2" />
    </clipPath>
    <clipPath
       clipPathUnits="userSpaceOnUse"
       id="clipPath4">
      <path
         d="m 3.125,0 h 868.75 V 77.978516 H 3.125 Z"
         transform="matrix(0.33736433,0,0,0.33736433,128.88953,-841.00003)"
         clip-rule="evenodd"
         id="path4" />
    </clipPath>
    <clipPath
       clipPathUnits="userSpaceOnUse"
       id="clipPath6">
      <path
         d="m 3.125,0 h 868.75 V 77.978516 H 3.125 Z"
         transform="matrix(0.33736433,0,0,0.33736433,128.88953,-841.00003)"
         clip-rule="evenodd"
         id="path6" />
    </clipPath>
    <clipPath
       clipPathUnits="userSpaceOnUse"
       id="clipPath8">
      <path
         d="m 3.125,0 h 868.75 V 77.978516 H 3.125 Z"
         transform="matrix(0.33736433,0,0,0.33736433,128.88953,-841.00003)"
         clip-rule="evenodd"
         id="path8" />
    </clipPath>
    <clipPath
       clipPathUnits="userSpaceOnUse"
       id="clipPath9">
      <path
         d="m 3.125,0 h 868.75 V 77.978516 H 3.125 Z"
         transform="matrix(0.33736433,0,0,0.33736433,-5.2354625,-15.49998)"
         clip-rule="evenodd"
         id="path9" />
    </clipPath>
    <clipPath
       clipPathUnits="userSpaceOnUse"
       id="clipPath10">
      <path
         d="m 3.125,0 h 868.75 V 77.978516 H 3.125 Z"
         transform="matrix(0.33736433,0,0,0.33736433,-215.23546,-15.49998)"
         clip-rule="evenodd"
         id="path10" />
    </clipPath>
  </defs>
  <g
     id="g1">
    <path
       id="path1"
       d="M 0,0 H 280 V 25 H 0 Z"
       style="fill:#ffffff;fill-opacity:1;fill-rule:nonzero;stroke:none"
       clip-path="url(#clipPath2)" />
    <path
       id="path3"
       d="M 341.5,-829 H 223.62"
       style="fill:none;stroke:#000000;stroke-width:1;stroke-linecap:butt;stroke-linejoin:miter;stroke-miterlimit:10;stroke-dasharray:none;stroke-opacity:1"
       transform="matrix(0.9485294,0,0,0.9485294,-122.25551,797.71325)"
       clip-path="url(#clipPath4)" />
    <path
       id="path5"
       d="m 212.62,-829 11,-5.5 v 11 z"
       style="fill:none;stroke:#000000;stroke-width:1;stroke-linecap:butt;stroke-linejoin:miter;stroke-miterlimit:10;stroke-dasharray:none;stroke-opacity:1"
       transform="matrix(0.9485294,0,0,0.9485294,-122.25551,797.71325)"
       clip-path="url(#clipPath6)" />
    <path
       id="path7"
       d="m 227.5,-835 v 12"
       style="fill:none;stroke:#000000;stroke-width:1;stroke-linecap:butt;stroke-linejoin:miter;stroke-miterlimit:10;stroke-dasharray:none;stroke-opacity:1"
       transform="matrix(0.9485294,0,0,0.9485294,-122.25551,797.71325)"
       clip-path="url(#clipPath8)" />
    <g
       id="g8" />
    <text
       id="text8"
       xml:space="preserve"
       transform="matrix(0.9485294,0,0,0.9485294,4.9659901,14.702187)"
       clip-path="url(#clipPath9)"><tspan
         id="tspan8"
         style="font-variant:normal;font-weight:normal;font-size:12px;font-family:Arial;writing-mode:lr-tb;fill:#000000;fill-opacity:1;fill-rule:nonzero;stroke:none"
         x="0"
         y="0">&amp;usage-node </tspan></text>
    <g
       id="g9" />
    <text
       id="text9"
       xml:space="preserve"
       transform="matrix(0.9485294,0,0,0.9485294,204.15716,14.702187)"
       clip-path="url(#clipPath10)"><tspan
         id="tspan9"
         style="font-variant:normal;font-weight:normal;font-size:12px;font-family:Arial;writing-mode:lr-tb;fill:#000000;fill-opacity:1;fill-rule:nonzero;stroke:none"
         x="0"
         y="0">&amp;usage-node </tspan></text>
  </g>
</svg>
