<?xml version="1.0" encoding="UTF-8" standalone="no"?>
<!-- Created with Inkscape (http://www.inkscape.org/) -->

<svg
   version="1.1"
   id="svg1"
   width="307.84"
   height="25.279999"
   viewBox="0 0 307.84 25.279999"
   xmlns="http://www.w3.org/2000/svg"
   xmlns:svg="http://www.w3.org/2000/svg">
  <defs
     id="defs1">
    <clipPath
       clipPathUnits="userSpaceOnUse"
       id="clipPath2">
      <path
         d="M 0,0 H 962.98828 V 77.978516 H 0 Z"
         transform="scale(0.31999999)"
         clip-rule="evenodd"
         id="path2" />
    </clipPath>
    <clipPath
       clipPathUnits="userSpaceOnUse"
       id="clipPath4">
      <path
         d="m 3.125,0 h 956.25 V 77.978516 H 3.125 Z"
         transform="matrix(0.33823835,0,0,0.33823835,119.04113,-877.00003)"
         clip-rule="evenodd"
         id="path4" />
    </clipPath>
    <clipPath
       clipPathUnits="userSpaceOnUse"
       id="clipPath6">
      <path
         d="m 3.125,0 h 956.25 V 77.978516 H 3.125 Z"
         transform="matrix(0.33823835,0,0,0.33823835,119.04113,-877.00003)"
         clip-rule="evenodd"
         id="path6" />
    </clipPath>
    <clipPath
       clipPathUnits="userSpaceOnUse"
       id="clipPath8">
      <path
         d="m 3.125,0 h 956.25 V 77.978516 H 3.125 Z"
         transform="matrix(-0.33823835,0,0,-0.33823835,358.17889,-845.2801)"
         clip-rule="evenodd"
         id="path8" />
    </clipPath>
    <clipPath
       clipPathUnits="userSpaceOnUse"
       id="clipPath10">
      <path
         d="m 3.125,0 h 956.25 V 77.978516 H 3.125 Z"
         transform="matrix(-0.33823835,0,0,-0.33823835,358.17889,-861.28003)"
         clip-rule="evenodd"
         id="path10" />
    </clipPath>
    <clipPath
       clipPathUnits="userSpaceOnUse"
       id="clipPath11">
      <path
         d="m 3.125,0 h 956.25 V 77.978516 H 3.125 Z"
         transform="matrix(0.33823835,0,0,0.33823835,-15.083868,-15.500011)"
         clip-rule="evenodd"
         id="path11" />
    </clipPath>
    <clipPath
       clipPathUnits="userSpaceOnUse"
       id="clipPath12">
      <path
         d="m 3.125,0 h 956.25 V 77.978516 H 3.125 Z"
         transform="matrix(0.33823835,0,0,0.33823835,-235.08387,-15.500011)"
         clip-rule="evenodd"
         id="path12" />
    </clipPath>
    <clipPath
       clipPathUnits="userSpaceOnUse"
       id="clipPath14">
      <path
         d="m 3.125,0 h 956.25 V 77.978516 H 3.125 Z"
         transform="matrix(-0.33823835,0,0,-0.33823835,370.17892,-845.2801)"
         clip-rule="evenodd"
         id="path14" />
    </clipPath>
    <clipPath
       clipPathUnits="userSpaceOnUse"
       id="clipPath16">
      <path
         d="m 3.125,0 h 956.25 V 77.978516 H 3.125 Z"
         transform="matrix(-0.33823835,0,0,-0.33823835,370.17892,-861.28003)"
         clip-rule="evenodd"
         id="path16" />
    </clipPath>
  </defs>
  <g
     id="g1">
    <path
       id="path1"
       d="M 0,0 H 308 V 25 H 0 Z"
       style="fill:#ffffff;fill-opacity:1;fill-rule:nonzero;stroke:none"
       clip-path="url(#clipPath2)" />
    <path
       id="path3"
       d="M 351.75,-865 H 233.87"
       style="fill:none;stroke:#000000;stroke-width:1;stroke-linecap:butt;stroke-linejoin:miter;stroke-miterlimit:10;stroke-dasharray:none;stroke-opacity:1"
       transform="matrix(0.94607836,0,0,0.94607836,-112.62224,829.71075)"
       clip-path="url(#clipPath4)" />
    <path
       id="path5"
       d="m 222.87,-865 11,-5.5 v 11 z"
       style="fill:none;stroke:#000000;stroke-width:1;stroke-linecap:butt;stroke-linejoin:miter;stroke-miterlimit:10;stroke-dasharray:none;stroke-opacity:1"
       transform="matrix(0.94607836,0,0,0.94607836,-112.62224,829.71075)"
       clip-path="url(#clipPath6)" />
    <path
       id="path7"
       d="m 240.46713,-861.14001 c -3e-5,0.24633 -0.0472,0.48327 -0.1414,0.71081 -0.0942,0.2276 -0.22844,0.42841 -0.40256,0.60248 -0.17415,0.17413 -0.37498,0.30835 -0.60251,0.40253 -0.22752,0.0942 -0.46441,0.14135 -0.71067,0.14135 -0.2463,0 -0.48319,-0.0471 -0.71071,-0.14129 -0.22754,-0.0942 -0.42838,-0.22846 -0.6025,-0.40259 -0.17415,-0.17407 -0.30835,-0.37488 -0.40257,-0.60248 -0.0942,-0.22754 -0.14137,-0.46448 -0.14136,-0.71081 -1e-5,-0.24622 0.0471,-0.4831 0.14135,-0.71064 0.0942,-0.22748 0.22843,-0.42828 0.40258,-0.60248 0.17412,-0.17413 0.37496,-0.30828 0.6025,-0.40252 0.22752,-0.0943 0.46441,-0.14142 0.71071,-0.14148 0.24626,6e-5 0.48316,0.0472 0.71069,0.14148 0.22751,0.0942 0.42834,0.22839 0.60251,0.40246 0.17412,0.17426 0.30829,0.37506 0.40254,0.60254 0.0942,0.22754 0.14137,0.46442 0.1414,0.71064 z"
       style="fill:#000000;fill-opacity:1;fill-rule:nonzero;stroke:none"
       transform="matrix(-0.94607836,0,0,-0.94607836,338.8653,-799.70121)"
       clip-path="url(#clipPath8)" />
    <path
       id="path9"
       d="m 240.46713,-869.14001 c -3e-5,0.24633 -0.0472,0.48327 -0.1414,0.71081 -0.0942,0.22754 -0.22844,0.42841 -0.40256,0.60254 -0.17415,0.17413 -0.37498,0.30835 -0.60251,0.40259 -0.22752,0.0942 -0.46441,0.14123 -0.71067,0.14123 -0.2463,0 -0.48319,-0.0471 -0.71071,-0.14123 -0.22754,-0.0942 -0.42838,-0.22846 -0.6025,-0.40259 -0.17415,-0.17413 -0.30835,-0.375 -0.40257,-0.6026 -0.0942,-0.22748 -0.14137,-0.46442 -0.14136,-0.71075 -1e-5,-0.24616 0.0471,-0.48304 0.14135,-0.71051 0.0942,-0.22754 0.22843,-0.42841 0.40258,-0.60261 0.17412,-0.17407 0.37496,-0.30822 0.6025,-0.40246 0.22752,-0.0943 0.46441,-0.14148 0.71071,-0.14154 0.24626,6e-5 0.48316,0.0472 0.71069,0.14148 0.22751,0.0943 0.42834,0.22845 0.60251,0.40252 0.17412,0.1742 0.30829,0.37507 0.40254,0.60261 0.0942,0.22747 0.14137,0.46435 0.1414,0.71051 z"
       style="fill:#000000;fill-opacity:1;fill-rule:nonzero;stroke:none"
       transform="matrix(-0.94607836,0,0,-0.94607836,338.8653,-814.8384)"
       clip-path="url(#clipPath10)" />
    <g
       id="g10" />
    <text
       id="text10"
       xml:space="preserve"
       transform="matrix(0.94607836,0,0,0.94607836,14.270521,14.664225)"
       clip-path="url(#clipPath11)"><tspan
         id="tspan10"
         style="font-variant:normal;font-weight:normal;font-size:12px;font-family:Arial;writing-mode:lr-tb;fill:#000000;fill-opacity:1;fill-rule:nonzero;stroke:none"
         x="0"
         y="0">&amp;usage-node </tspan></text>
    <g
       id="g11" />
    <text
       id="text11"
       xml:space="preserve"
       transform="matrix(0.94607836,0,0,0.94607836,222.40776,14.664225)"
       clip-path="url(#clipPath12)"><tspan
         id="tspan11"
         style="font-variant:normal;font-weight:normal;font-size:12px;font-family:Arial;writing-mode:lr-tb;fill:#000000;fill-opacity:1;fill-rule:nonzero;stroke:none"
         x="0"
         y="0">&amp;usage-node </tspan></text>
    <path
       id="path13"
       d="m 246.46713,-861.14001 c -1e-5,0.24633 -0.0471,0.48327 -0.14139,0.71081 -0.0942,0.2276 -0.22843,0.42841 -0.40257,0.60248 -0.17415,0.17413 -0.375,0.30835 -0.60252,0.40253 -0.22753,0.0942 -0.46442,0.14135 -0.71066,0.14135 -0.24628,0 -0.48319,-0.0471 -0.71073,-0.14129 -0.22752,-0.0942 -0.42836,-0.22846 -0.60248,-0.40259 -0.17415,-0.17407 -0.30835,-0.37488 -0.40258,-0.60248 -0.0943,-0.22754 -0.14136,-0.46448 -0.14135,-0.71081 -1e-5,-0.24622 0.0471,-0.4831 0.14133,-0.71064 0.0942,-0.22748 0.22845,-0.42828 0.4026,-0.60248 0.17412,-0.17413 0.37496,-0.30828 0.60248,-0.40252 0.22754,-0.0943 0.46445,-0.14142 0.71073,-0.14148 0.24624,6e-5 0.48313,0.0472 0.71066,0.14148 0.22752,0.0942 0.42837,0.22839 0.60252,0.40246 0.17414,0.17426 0.30834,0.37506 0.40259,0.60254 0.0942,0.22754 0.14136,0.46442 0.14137,0.71064 z"
       style="fill:#000000;fill-opacity:1;fill-rule:nonzero;stroke:none"
       transform="matrix(-0.94607836,0,0,-0.94607836,350.21827,-799.70121)"
       clip-path="url(#clipPath14)" />
    <path
       id="path15"
       d="m 246.46713,-869.14001 c -1e-5,0.24633 -0.0471,0.48327 -0.14139,0.71081 -0.0942,0.22754 -0.22843,0.42841 -0.40257,0.60254 -0.17415,0.17413 -0.375,0.30835 -0.60252,0.40259 -0.22753,0.0942 -0.46442,0.14123 -0.71066,0.14123 -0.24628,0 -0.48319,-0.0471 -0.71073,-0.14123 -0.22752,-0.0942 -0.42836,-0.22846 -0.60248,-0.40259 -0.17415,-0.17413 -0.30835,-0.375 -0.40258,-0.6026 -0.0943,-0.22748 -0.14136,-0.46442 -0.14135,-0.71075 -1e-5,-0.24616 0.0471,-0.48304 0.14133,-0.71051 0.0942,-0.22754 0.22845,-0.42841 0.4026,-0.60261 0.17412,-0.17407 0.37496,-0.30822 0.60248,-0.40246 0.22754,-0.0943 0.46445,-0.14148 0.71073,-0.14154 0.24624,6e-5 0.48313,0.0472 0.71066,0.14148 0.22752,0.0943 0.42837,0.22845 0.60252,0.40252 0.17414,0.1742 0.30834,0.37507 0.40259,0.60261 0.0942,0.22747 0.14136,0.46435 0.14137,0.71051 z"
       style="fill:#000000;fill-opacity:1;fill-rule:nonzero;stroke:none"
       transform="matrix(-0.94607836,0,0,-0.94607836,350.21827,-814.8384)"
       clip-path="url(#clipPath16)" />
  </g>
</svg>
