<?xml version="1.0" encoding="UTF-8" standalone="no"?>
<!-- Created with Inkscape (http://www.inkscape.org/) -->

<svg
   version="1.1"
   id="svg1"
   width="286.72"
   height="128"
   viewBox="0 0 286.72 128"
   xmlns="http://www.w3.org/2000/svg"
   xmlns:svg="http://www.w3.org/2000/svg">
  <defs
     id="defs1">
    <clipPath
       clipPathUnits="userSpaceOnUse"
       id="clipPath2">
      <path
         d="M 0,0 H 893.99414 V 399.02344 H 0 Z"
         transform="scale(0.31999999)"
         clip-rule="evenodd"
         id="path2" />
    </clipPath>
    <clipPath
       clipPathUnits="userSpaceOnUse"
       id="clipPath4">
      <path
         d="m 3.125,0 h 887.5 V 399.02344 H 3.125 Z"
         transform="matrix(0.33729089,0,0,0.33729089,767.38315,1936.446)"
         clip-rule="evenodd"
         id="path4" />
    </clipPath>
    <clipPath
       clipPathUnits="userSpaceOnUse"
       id="clipPath6">
      <path
         d="m 3.125,0 h 887.5 V 399.02344 H 3.125 Z"
         transform="matrix(0.33729089,0,0,0.33729089,767.38315,1936.446)"
         clip-rule="evenodd"
         id="path6" />
    </clipPath>
    <clipPath
       clipPathUnits="userSpaceOnUse"
       id="clipPath7">
      <path
         d="m 3.125,0 h 887.5 V 399.02344 H 3.125 Z"
         transform="matrix(0.33729089,0,0,0.33729089,-64.069976,-43.054036)"
         clip-rule="evenodd"
         id="path7" />
    </clipPath>
    <clipPath
       clipPathUnits="userSpaceOnUse"
       id="clipPath8">
      <path
         d="m 3.125,0 h 887.5 V 399.02344 H 3.125 Z"
         transform="matrix(0.33729089,0,0,0.33729089,-116.0856,-71.054036)"
         clip-rule="evenodd"
         id="path8" />
    </clipPath>
    <clipPath
       clipPathUnits="userSpaceOnUse"
       id="clipPath9">
      <path
         d="m 3.125,0 h 887.5 V 399.02344 H 3.125 Z"
         transform="matrix(0.33729089,0,0,0.33729089,-99.085595,-100.05404)"
         clip-rule="evenodd"
         id="path9" />
    </clipPath>
    <clipPath
       clipPathUnits="userSpaceOnUse"
       id="clipPath11">
      <path
         d="m 3.125,0 h 887.5 V 399.02344 H 3.125 Z"
         transform="matrix(0.33729089,0,0,0.33729089,767.88316,1936.9459)"
         clip-rule="evenodd"
         id="path11" />
    </clipPath>
    <clipPath
       clipPathUnits="userSpaceOnUse"
       id="clipPath12">
      <path
         d="m 3.125,0 h 887.5 V 399.02344 H 3.125 Z"
         transform="matrix(0.33729089,0,0,0.33729089,-5.4293453,-70.054036)"
         clip-rule="evenodd"
         id="path12" />
    </clipPath>
    <clipPath
       clipPathUnits="userSpaceOnUse"
       id="clipPath14">
      <path
         d="m 3.125,0 h 887.5 V 399.02344 H 3.125 Z"
         transform="matrix(0.33729089,0,0,0.33729089,767.88316,1936.9459)"
         clip-rule="evenodd"
         id="path14" />
    </clipPath>
    <clipPath
       clipPathUnits="userSpaceOnUse"
       id="clipPath15">
      <path
         d="m 3.125,0 h 887.5 V 399.02344 H 3.125 Z"
         transform="matrix(0.33729089,0,0,0.33729089,-248.77309,-70.054036)"
         clip-rule="evenodd"
         id="path15" />
    </clipPath>
    <clipPath
       clipPathUnits="userSpaceOnUse"
       id="clipPath17">
      <path
         d="m 3.125,0 h 887.5 V 399.02344 H 3.125 Z"
         transform="matrix(0.33729089,0,0,0.33729089,767.88316,1936.9459)"
         clip-rule="evenodd"
         id="path17" />
    </clipPath>
    <clipPath
       clipPathUnits="userSpaceOnUse"
       id="clipPath18">
      <path
         d="m 3.125,0 h 887.5 V 399.02344 H 3.125 Z"
         transform="matrix(0.33729089,0,0,0.33729089,-121.10122,-125.05404)"
         clip-rule="evenodd"
         id="path18" />
    </clipPath>
    <clipPath
       clipPathUnits="userSpaceOnUse"
       id="clipPath20">
      <path
         d="m 3.125,0 h 887.5 V 399.02344 H 3.125 Z"
         transform="matrix(0.33729089,0,0,0.33729089,767.88316,1936.9459)"
         clip-rule="evenodd"
         id="path20" />
    </clipPath>
    <clipPath
       clipPathUnits="userSpaceOnUse"
       id="clipPath21">
      <path
         d="m 3.125,0 h 887.5 V 399.02344 H 3.125 Z"
         transform="matrix(0.33729089,0,0,0.33729089,-122.7731,-17.054036)"
         clip-rule="evenodd"
         id="path21" />
    </clipPath>
  </defs>
  <g
     id="g1">
    <path
       id="path1"
       d="M 0,0 H 286 V 128 H 0 Z"
       style="fill:#ffffff;fill-opacity:1;fill-rule:nonzero;stroke:none"
       clip-path="url(#clipPath2)" />
    <path
       id="path3"
       d="m 831.14001,1951.03 h 172.46989 c 0.8051,2e-4 1.6082,0.04 2.4093,0.1186 0.8011,0.079 1.5965,0.1969 2.3859,0.3537 0.7896,0.1571 1.5696,0.3526 2.34,0.5862 0.7703,0.2336 1.5273,0.5044 2.271,0.8124 0.7438,0.3081 1.4707,0.652 2.1806,1.0315 0.71,0.3794 1.3997,0.7927 2.069,1.24 0.6694,0.4474 1.3152,0.9262 1.9375,1.4369 0.6224,0.5107 1.2181,1.0506 1.7873,1.6198 0.5692,0.5694 1.1092,1.1652 1.62,1.7874 0.5106,0.6223 0.9895,1.268 1.4367,1.9374 0.4473,0.6693 0.8608,1.359 1.2403,2.069 0.3795,0.7099 0.7232,1.4367 1.0312,2.1805 0.3081,0.7437 0.579,1.5008 0.8128,2.2712 0.2337,0.7704 0.4291,1.5504 0.586,2.3399 0.1571,0.7896 0.2751,1.585 0.354,2.3862 0.079,0.8011 0.1184,1.6042 0.1184,2.4093 v 57.7102 c 0,0.8052 -0.039,1.6083 -0.1184,2.4093 -0.079,0.8011 -0.1969,1.5963 -0.354,2.3857 -0.1569,0.7897 -0.3523,1.5697 -0.586,2.3401 -0.2338,0.7703 -0.5047,1.5272 -0.8128,2.271 -0.308,0.7438 -0.6517,1.4706 -1.0312,2.1806 -0.3795,0.71 -0.793,1.3996 -1.2403,2.0689 -0.4472,0.6695 -0.9261,1.3155 -1.4368,1.9378 -0.5107,0.6223 -1.0507,1.218 -1.6199,1.7871 -0.5692,0.5691 -1.1649,1.1091 -1.7873,1.6199 -0.6223,0.5105 -1.2681,0.9895 -1.9375,1.4367 -0.6693,0.4475 -1.359,0.8609 -2.0689,1.2403 -0.71,0.3796 -1.4369,0.7233 -2.1807,1.0312 -0.7437,0.3081 -1.5007,0.5791 -2.271,0.8128 -0.7704,0.2338 -1.5504,0.4292 -2.34,0.5861 -0.7894,0.1573 -1.5848,0.2754 -2.3859,0.3543 -0.8011,0.079 -1.6042,0.1181 -2.4093,0.1181 H 831.14001 c -0.80499,0 -1.60809,-0.039 -2.40918,-0.1181 -0.8012,-0.079 -1.59655,-0.197 -2.38616,-0.3543 -0.78956,-0.1569 -1.56952,-0.3523 -2.33985,-0.5861 -0.77038,-0.2337 -1.52746,-0.5047 -2.27124,-0.8128 -0.74371,-0.3079 -1.47052,-0.6516 -2.18048,-1.0312 -0.70996,-0.3794 -1.39966,-0.7928 -2.06909,-1.2403 -0.66931,-0.4472 -1.31513,-0.9262 -1.93744,-1.4367 -0.62225,-0.5108 -1.21802,-1.0508 -1.78729,-1.6199 -0.56922,-0.5691 -1.10919,-1.1651 -1.61988,-1.7874 -0.51068,-0.6223 -0.98968,-1.268 -1.43701,-1.9375 -0.4472,-0.6693 -0.86053,-1.3589 -1.24011,-2.0689 -0.37946,-0.71 -0.72321,-1.4368 -1.03131,-2.1806 -0.30805,-0.7438 -0.57886,-1.5007 -0.81256,-2.271 -0.23371,-0.7704 -0.42908,-1.5504 -0.58618,-2.3399 -0.15705,-0.7895 -0.27497,-1.5848 -0.35382,-2.3859 -0.0789,-0.801 -0.11841,-1.6041 -0.11841,-2.4093 V 1975.61 c 0,-0.8051 0.0395,-1.6082 0.11841,-2.4093 0.0788,-0.8012 0.19677,-1.5966 0.35382,-2.3861 0.1571,-0.7896 0.35247,-1.5695 0.58618,-2.3399 0.2337,-0.7704 0.50451,-1.5274 0.8125,-2.2712 0.3081,-0.7437 0.65191,-1.4705 1.03137,-2.1804 0.37952,-0.71 0.79291,-1.3997 1.24011,-2.0691 0.44733,-0.6692 0.92633,-1.315 1.43701,-1.9373 0.51069,-0.6222 1.05066,-1.218 1.61988,-1.7873 0.56927,-0.5692 1.16504,-1.1092 1.78729,-1.6199 0.62231,-0.5107 1.26813,-0.9897 1.93744,-1.437 0.66943,-0.4472 1.35913,-0.8605 2.06909,-1.24 0.70996,-0.3795 1.43677,-0.7233 2.18048,-1.0315 0.74378,-0.308 1.50086,-0.5787 2.27124,-0.8124 0.77033,-0.2337 1.55029,-0.4291 2.33978,-0.5862 0.78962,-0.1569 1.58503,-0.2749 2.38623,-0.3537 0.80109,-0.079 1.60419,-0.1185 2.40918,-0.1187 z"
       style="fill:#ffffff;fill-opacity:1;fill-rule:nonzero;stroke:none"
       transform="matrix(0.94873593,0,0,0.94873593,-728.04397,-1837.1759)"
       clip-path="url(#clipPath4)" />
    <path
       id="path5"
       d="m 837.14001,1950.53 h 3 v 1 h -3 z m 6,0 h 3 v 1 h -3 z m 6,0 h 3 v 1 h -3 z m 6,0 h 3 v 1 h -3 z m 6,0 h 3 v 1 h -3 z m 6,0 h 3 v 1 h -3 z m 6,0 h 3 v 1 h -3 z m 6,0 h 3 v 1 h -3 z m 6,0 h 3 v 1 h -3 z m 6,0 h 3 v 1 h -3 z m 6,0 h 3 v 1 h -3 z m 6,0 h 3 v 1 h -3 z m 6,0 h 3 v 1 h -3 z m 6,0 h 3 v 1 h -3 z m 6,0 h 3 v 1 h -3 z m 6,0 h 3 v 1 h -3 z m 6,0 h 3 v 1 h -3 z m 6,0 h 3 v 1 h -3 z m 6,0 h 3 v 1 h -3 z m 6,0 h 3 v 1 h -3 z m 6,0 h 3 v 1 h -3 z m 6,0 h 3 v 1 h -3 z m 6,0 h 3 v 1 h -3 z m 6,0 h 3 v 1 h -3 z m 6,0 h 3 v 1 h -3 z m 6,0 h 3 v 1 h -3 z m 6,0 h 3 v 1 h -3 z m 6,0 h 2.99999 v 1 h -2.99999 z m 5.95979,0.044 c 1.0062,0.06 2.0054,0.1801 2.9974,0.3604 l -0.1787,0.9839 c -0.9522,-0.173 -1.9116,-0.2882 -2.8783,-0.346 l 0.06,-0.9983 z m 6.0427,1.1137 c 0.9959,0.3133 1.9685,0.6877 2.9178,1.123 l -0.4168,0.909 c -0.9111,-0.4178 -1.8448,-0.7771 -2.8012,-1.0782 z m 5.6128,2.563 c 0.8812,0.5421 1.7261,1.1371 2.5347,1.785 l -0.6253,0.7803 c -0.7754,-0.6212 -1.5865,-1.1924 -2.4334,-1.7135 z m 4.8444,3.8841 c 0.7259,0.7475 1.4024,1.5365 2.0296,2.3675 l -0.7983,0.6025 c -0.6024,-0.7983 -1.252,-1.556 -1.9486,-2.2732 z m 3.7362,4.9456 c 0.5077,0.8802 0.9601,1.7878 1.3572,2.7225 l -0.9204,0.3911 c -0.3817,-0.8983 -0.816,-1.7696 -1.303,-2.6141 z m 2.4081,5.7064 c 0.2826,0.9995 0.5022,2.0129 0.6591,3.0404 l -0.9885,0.1509 c -0.1506,-0.986 -0.3615,-1.959 -0.633,-2.9193 z m 0.933,6.0175 c 0.01,0.268 0.013,0.5365 0.013,0.8054 v 2.1687 h -1 v -2.1687 c 0,-0.2575 0,-0.5153 -0.012,-0.7732 l 0.9995,-0.032 z m 0.013,5.9741 v 3 h -1 v -3 z m 0,6 v 3 h -1 v -3 z m 0,6 v 3 h -1 v -3 z m 0,6 v 3 h -1 v -3 z m 0,6 v 3 h -1 v -3 z m 0,6 v 3 h -1 v -3 z m 0,6 v 3 h -1 v -3 z m 0,6 v 3 h -1 v -3 z m 0,6 v 3 h -1 v -3 z m -0.04,5.961 c -0.057,1.0059 -0.1741,2.0044 -0.3515,2.9955 l -0.9844,-0.176 c 0.1703,-0.952 0.2829,-1.9108 0.3376,-2.8761 l 0.9983,0.057 z m -1.0949,6.0406 c -0.3108,0.9973 -0.6827,1.9721 -1.1158,2.9244 l -0.9102,-0.4141 c 0.4154,-0.9132 0.7725,-1.8492 1.0712,-2.8079 z m -2.5475,5.6227 c -0.5401,0.8834 -1.1325,1.7298 -1.7768,2.5391 l -0.7824,-0.623 c 0.6193,-0.7778 1.188,-1.5905 1.7062,-2.4379 z m -3.8689,4.8548 c -0.7447,0.7278 -1.532,1.4068 -2.3618,2.0369 l -0.6048,-0.7964 c 0.7962,-0.6045 1.552,-1.2564 2.2676,-1.9558 z m -4.9356,3.7515 c -0.8793,0.5107 -1.786,0.966 -2.7201,1.3659 l -0.3935,-0.9194 c 0.8974,-0.3843 1.7679,-0.8213 2.6114,-1.3113 z m -5.6974,2.4243 c -1.0002,0.2861 -2.0138,0.509 -3.0411,0.6687 l -0.1536,-0.9883 c 0.987,-0.1536 1.9602,-0.3674 2.9197,-0.6418 z m -6.0204,0.9514 c -0.2905,0.01 -0.5822,0.015 -0.8751,0.015 h -2.0971 v -1 h 2.0971 c 0.2791,0 0.5593,0 0.8404,-0.015 l 0.035,0.9995 z m -5.97224,0.015 h -3 v -1 h 3 z m -6,0 h -3 v -1 h 3 z m -6,0 h -3 v -1 h 3 z m -6,0 h -3 v -1 h 3 z m -6,0 h -3 v -1 h 3 z m -6,0 h -3 v -1 h 3 z m -6,0 h -3 v -1 h 3 z m -6,0 h -3 v -1 h 3 z m -6,0 h -3 v -1 h 3 z m -6,0 h -3 v -1 h 3 z m -6,0 h -3 v -1 h 3 z m -6,0 h -3 v -1 h 3 z m -6,0 h -3 v -1 h 3 z m -6,0 h -3 v -1 h 3 z m -6,0 h -3 v -1 h 3 z m -6,0 h -3 v -1 h 3 z m -6,0 h -3 v -1 h 3 z m -6,0 h -3 v -1 h 3 z m -6,0 h -3 v -1 h 3 z m -6,0 h -3 v -1 h 3 z m -6,0 h -3 v -1 h 3 z m -6,0 h -3 v -1 h 3 z m -6,0 h -3 v -1 h 3 z m -6,0 h -3 v -1 h 3 z m -6,0 h -3 v -1 h 3 z m -6,0 h -3 v -1 h 3 z m -6,0 h -3 v -1 h 3 z m -6,0 h -3 v -1 h 3 z m -5.97962,-0.01 c -0.99548,-0.024 -1.98553,-0.1072 -2.97021,-0.249 l 0.14245,-0.9897 c 0.94623,0.1362 1.89698,0.216 2.85218,0.2392 l -0.0244,0.9995 z m -6.00866,-0.8808 c -1.02283,-0.2798 -2.02369,-0.6231 -3.00257,-1.0296 l 0.38367,-0.9233 c 0.94025,0.3906 1.90112,0.7202 2.88269,0.9885 z m -5.73261,-2.3621 c -0.89764,-0.5076 -1.76099,-1.0688 -2.59003,-1.6838 l 0.59571,-0.8033 c 0.79535,0.5899 1.62426,1.1287 2.48663,1.6165 z m -4.97369,-3.6926 c -0.75422,-0.7202 -1.46058,-1.4844 -2.11908,-2.2923 l 0.77514,-0.6318 c 0.63275,0.7764 1.31092,1.51 2.03449,2.2009 z m -3.92646,-4.8134 c -0.54254,-0.8653 -1.03057,-1.7607 -1.46411,-2.6864 l 0.90552,-0.4241 c 0.41589,0.8879 0.88452,1.7476 1.40588,2.5793 z m -2.6076,-5.584 c -0.32416,-0.9992 -0.58441,-2.0145 -0.78089,-3.0456 l 0.9823,-0.1873 c 0.18866,0.9901 0.43854,1.965 0.74976,2.9243 z m -1.16699,-6.0488 c -0.0381,-0.5633 -0.0571,-1.1269 -0.0571,-1.6909 v -1.2659 h 1 v 1.2659 c 0,0.5419 0.0183,1.0831 0.0548,1.6235 l -0.99768,0.067 z m -0.0571,-5.9568 v -3 h 1 v 3 z m 0,-6 v -3 h 1 v 3 z m 0,-6 v -3 h 1 v 3 z m 0,-6 v -3 h 1 v 3 z m 0,-6 v -3 h 1 v 3 z m 0,-6 v -3 h 1 v 3 z m 0,-6 v -3 h 1 v 3 z m 0,-6 v -3 h 1 v 3 z m 0,-6 v -3 h 1 v 3 z m 0.006,-5.9815 c 0.0214,-0.9942 0.10151,-1.9834 0.24042,-2.9679 l 0.99024,0.1396 c -0.13349,0.9456 -0.21045,1.8955 -0.2309,2.8497 l -0.99976,-0.021 z m 0.8628,-6.0054 c 0.27698,-1.025 0.61749,-2.0281 1.02154,-3.0092 l 0.92469,0.3809 c -0.38819,0.9425 -0.71515,1.9055 -0.9809,2.889 z m 2.34595,-5.7418 c 0.50518,-0.8991 1.06365,-1.7637 1.67553,-2.5939 l 0.80493,0.5933 c -0.58734,0.7969 -1.12359,1.627 -1.60864,2.4903 z m 3.67675,-4.9833 c 0.71814,-0.7565 1.48023,-1.4652 2.28632,-2.126 l 0.63403,0.7734 c -0.77441,0.6349 -1.5061,1.3152 -2.19513,2.0411 z m 4.8028,-3.9413 c 0.8645,-0.5457 1.75891,-1.0365 2.68329,-1.4725 l 0.42663,0.9045 c -0.88751,0.4186 -1.74621,0.8899 -2.57611,1.4137 z m 5.57379,-2.6232 c 0.9986,-0.3274 2.01392,-0.5909 3.04596,-0.7905 l 0.18994,0.9817 c -0.99054,0.1916 -1.96533,0.4447 -2.92438,0.759 z m 6.05078,-1.1859 c 0.5863,-0.041 1.1734,-0.062 1.76135,-0.062 h 3.00006 v 1 h -2.99993 c -0.5644,2e-4 -1.12824,0.02 -1.69141,0.06 l -0.0701,-0.9976 z"
       style="fill:#000000;fill-opacity:1;fill-rule:nonzero;stroke:none"
       transform="matrix(0.94873593,0,0,0.94873593,-728.04397,-1837.1759)"
       clip-path="url(#clipPath6)" />
    <text
       id="text6"
       xml:space="preserve"
       transform="matrix(0.94873593,0,0,0.94873593,60.785488,40.846911)"
       clip-path="url(#clipPath7)"><tspan
         id="tspan6"
         style="font-variant:normal;font-weight:normal;font-size:12px;font-family:Arial;writing-mode:lr-tb;fill:#000000;fill-opacity:1;fill-rule:nonzero;stroke:none"
         x="0"
         y="0">requirement-name-compartment</tspan></text>
    <text
       id="text7"
       xml:space="preserve"
       transform="matrix(0.94873593,0,0,0.94873593,110.13458,67.411517)"
       clip-path="url(#clipPath8)"><tspan
         id="tspan7"
         style="font-variant:normal;font-weight:normal;font-size:12px;font-family:Arial;writing-mode:lr-tb;fill:#000000;fill-opacity:1;fill-rule:nonzero;stroke:none"
         x="0"
         y="0">general-view</tspan></text>
    <text
       id="text8"
       xml:space="preserve"
       transform="matrix(0.94873593,0,0,0.94873593,94.006064,94.924859)"
       clip-path="url(#clipPath9)"><tspan
         id="tspan8"
         style="font-variant:normal;font-weight:normal;font-size:12px;font-family:Arial;writing-mode:lr-tb;fill:#000000;fill-opacity:1;fill-rule:nonzero;stroke:none"
         x="0"
         y="0">compartment-stack</tspan></text>
    <path
       id="path10"
       d="m 773,1996 h 46 v 15 h -46 z"
       style="fill:#ffffff;fill-opacity:1;fill-rule:nonzero;stroke:none"
       transform="matrix(0.94873593,0,0,0.94873593,-728.51834,-1837.6502)"
       clip-path="url(#clipPath11)" />
    <text
       id="text11"
       xml:space="preserve"
       transform="matrix(0.94873593,0,0,0.94873593,5.151015,66.462781)"
       clip-path="url(#clipPath12)"><tspan
         id="tspan11"
         style="font-variant:normal;font-weight:normal;font-size:12px;font-family:Arial;writing-mode:lr-tb;fill:#000000;fill-opacity:1;fill-rule:nonzero;stroke:none"
         x="0"
         y="0">param-l*</tspan></text>
    <path
       id="path13"
       d="m 1017,1996 h 46 v 15 h -46 z"
       style="fill:#ffffff;fill-opacity:1;fill-rule:nonzero;stroke:none"
       transform="matrix(0.94873593,0,0,0.94873593,-728.51834,-1837.6502)"
       clip-path="url(#clipPath14)" />
    <text
       id="text14"
       xml:space="preserve"
       transform="matrix(0.94873593,0,0,0.94873593,236.01997,66.462781)"
       clip-path="url(#clipPath15)"><tspan
         id="tspan14"
         style="font-variant:normal;font-weight:normal;font-size:12px;font-family:Arial;writing-mode:lr-tb;fill:#000000;fill-opacity:1;fill-rule:nonzero;stroke:none"
         x="0"
         y="0">param-r*</tspan></text>
    <path
       id="path16"
       d="m 889,2051 h 56 v 15 h -56 z"
       style="fill:#ffffff;fill-opacity:1;fill-rule:nonzero;stroke:none"
       transform="matrix(0.94873593,0,0,0.94873593,-728.51834,-1837.6502)"
       clip-path="url(#clipPath17)" />
    <g
       id="g17" />
    <g
       id="g18" />
    <text
       id="text18"
       xml:space="preserve"
       transform="matrix(0.94873593,0,0,0.94873593,114.89308,118.64326)"
       clip-path="url(#clipPath18)"><tspan
         id="tspan18"
         style="font-variant:normal;font-weight:normal;font-size:12px;font-family:Arial;writing-mode:lr-tb;fill:#000000;fill-opacity:1;fill-rule:nonzero;stroke:none"
         x="0"
         y="0"> param-b* </tspan></text>
    <path
       id="path19"
       d="m 891,1943 h 52 v 15 h -52 z"
       style="fill:#ffffff;fill-opacity:1;fill-rule:nonzero;stroke:none"
       transform="matrix(0.94873593,0,0,0.94873593,-728.51834,-1837.6502)"
       clip-path="url(#clipPath20)" />
    <g
       id="g20" />
    <g
       id="g21" />
    <text
       id="text21"
       xml:space="preserve"
       transform="matrix(0.94873593,0,0,0.94873593,116.47925,16.179777)"
       clip-path="url(#clipPath21)"><tspan
         id="tspan21"
         style="font-variant:normal;font-weight:normal;font-size:12px;font-family:Arial;writing-mode:lr-tb;fill:#000000;fill-opacity:1;fill-rule:nonzero;stroke:none"
         x="0"
         y="0"> param-t* </tspan></text>
  </g>
</svg>
