<?xml version="1.0" encoding="UTF-8" standalone="no"?>
<!-- Created with Inkscape (http://www.inkscape.org/) -->

<svg
   version="1.1"
   id="svg1"
   width="286.72"
   height="128"
   viewBox="0 0 286.72 128"
   xmlns="http://www.w3.org/2000/svg"
   xmlns:svg="http://www.w3.org/2000/svg">
  <defs
     id="defs1">
    <clipPath
       clipPathUnits="userSpaceOnUse"
       id="clipPath2">
      <path
         d="M 0,0 H 893.99414 V 399.02344 H 0 Z"
         transform="scale(0.31999999)"
         clip-rule="evenodd"
         id="path2" />
    </clipPath>
    <clipPath
       clipPathUnits="userSpaceOnUse"
       id="clipPath4">
      <path
         d="m 3.125,0 h 887.5 V 399.02344 H 3.125 Z"
         transform="matrix(0.33729089,0,0,0.33729089,406.38315,1936.446)"
         clip-rule="evenodd"
         id="path4" />
    </clipPath>
    <clipPath
       clipPathUnits="userSpaceOnUse"
       id="clipPath5">
      <path
         d="m 3.125,0 h 887.5 V 399.02344 H 3.125 Z"
         transform="matrix(0.33729089,0,0,0.33729089,-64.070012,-43.054036)"
         clip-rule="evenodd"
         id="path5" />
    </clipPath>
    <clipPath
       clipPathUnits="userSpaceOnUse"
       id="clipPath6">
      <path
         d="m 3.125,0 h 887.5 V 399.02344 H 3.125 Z"
         transform="matrix(0.33729089,0,0,0.33729089,-116.08563,-71.054036)"
         clip-rule="evenodd"
         id="path6" />
    </clipPath>
    <clipPath
       clipPathUnits="userSpaceOnUse"
       id="clipPath7">
      <path
         d="m 3.125,0 h 887.5 V 399.02344 H 3.125 Z"
         transform="matrix(0.33729089,0,0,0.33729089,-99.085631,-100.05404)"
         clip-rule="evenodd"
         id="path7" />
    </clipPath>
    <clipPath
       clipPathUnits="userSpaceOnUse"
       id="clipPath9">
      <path
         d="m 3.125,0 h 887.5 V 399.02344 H 3.125 Z"
         transform="matrix(0.33729089,0,0,0.33729089,406.88311,1936.9459)"
         clip-rule="evenodd"
         id="path9" />
    </clipPath>
    <clipPath
       clipPathUnits="userSpaceOnUse"
       id="clipPath10">
      <path
         d="m 3.125,0 h 887.5 V 399.02344 H 3.125 Z"
         transform="matrix(0.33729089,0,0,0.33729089,-5.4293812,-70.054036)"
         clip-rule="evenodd"
         id="path10" />
    </clipPath>
    <clipPath
       clipPathUnits="userSpaceOnUse"
       id="clipPath12">
      <path
         d="m 3.125,0 h 887.5 V 399.02344 H 3.125 Z"
         transform="matrix(0.33729089,0,0,0.33729089,406.88311,1936.9459)"
         clip-rule="evenodd"
         id="path12" />
    </clipPath>
    <clipPath
       clipPathUnits="userSpaceOnUse"
       id="clipPath13">
      <path
         d="m 3.125,0 h 887.5 V 399.02344 H 3.125 Z"
         transform="matrix(0.33729089,0,0,0.33729089,-248.77313,-70.054036)"
         clip-rule="evenodd"
         id="path13" />
    </clipPath>
    <clipPath
       clipPathUnits="userSpaceOnUse"
       id="clipPath15">
      <path
         d="m 3.125,0 h 887.5 V 399.02344 H 3.125 Z"
         transform="matrix(0.33729089,0,0,0.33729089,406.88311,1936.9459)"
         clip-rule="evenodd"
         id="path15" />
    </clipPath>
    <clipPath
       clipPathUnits="userSpaceOnUse"
       id="clipPath16">
      <path
         d="m 3.125,0 h 887.5 V 399.02344 H 3.125 Z"
         transform="matrix(0.33729089,0,0,0.33729089,-121.10126,-125.05404)"
         clip-rule="evenodd"
         id="path16" />
    </clipPath>
    <clipPath
       clipPathUnits="userSpaceOnUse"
       id="clipPath18">
      <path
         d="m 3.125,0 h 887.5 V 399.02344 H 3.125 Z"
         transform="matrix(0.33729089,0,0,0.33729089,406.88311,1936.9459)"
         clip-rule="evenodd"
         id="path18" />
    </clipPath>
    <clipPath
       clipPathUnits="userSpaceOnUse"
       id="clipPath19">
      <path
         d="m 3.125,0 h 887.5 V 399.02344 H 3.125 Z"
         transform="matrix(0.33729089,0,0,0.33729089,-122.77313,-17.054036)"
         clip-rule="evenodd"
         id="path19" />
    </clipPath>
  </defs>
  <g
     id="g1">
    <path
       id="path1"
       d="M 0,0 H 286 V 128 H 0 Z"
       style="fill:#ffffff;fill-opacity:1;fill-rule:nonzero;stroke:none"
       clip-path="url(#clipPath2)" />
    <path
       id="path3"
       d="m 470.13998,1951.03 h 172.47001 c 0.80505,2e-4 1.60815,0.04 2.4093,0.1186 0.80108,0.079 1.59643,0.1969 2.38598,0.3537 0.78962,0.1571 1.56958,0.3526 2.33991,0.5862 0.77038,0.2336 1.5274,0.5044 2.27112,0.8124 0.74383,0.3081 1.4707,0.652 2.18066,1.0315 0.70996,0.3794 1.3996,0.7927 2.06891,1.24 0.66937,0.4474 1.31518,0.9262 1.9375,1.4369 0.62225,0.5107 1.21802,1.0506 1.78729,1.6198 0.56928,0.5694 1.10919,1.1652 1.61987,1.7874 0.51069,0.6223 0.98969,1.268 1.43689,1.9374 0.44733,0.6693 0.86072,1.359 1.24018,2.069 0.37951,0.7099 0.72326,1.4367 1.03131,2.1805 0.30817,0.7437 0.57904,1.5008 0.81268,2.2712 0.23371,0.7704 0.42908,1.5504 0.58612,2.3399 0.15711,0.7896 0.27509,1.585 0.35395,2.3862 0.0789,0.8011 0.11834,1.6042 0.11834,2.4093 v 57.7102 c 0,0.8052 -0.0394,1.6083 -0.11834,2.4093 -0.0789,0.8011 -0.19684,1.5963 -0.35395,2.3857 -0.15704,0.7897 -0.35241,1.5697 -0.58612,2.3401 -0.23364,0.7703 -0.50451,1.5272 -0.81268,2.271 -0.30805,0.7438 -0.6518,1.4706 -1.03125,2.1806 -0.37952,0.71 -0.79291,1.3996 -1.24017,2.0689 -0.44721,0.6695 -0.92621,1.3155 -1.43689,1.9378 -0.51069,0.6223 -1.05066,1.218 -1.61994,1.7871 -0.56927,0.5691 -1.16504,1.1091 -1.78729,1.6199 -0.62232,0.5105 -1.26813,0.9895 -1.9375,1.4367 -0.66931,0.4475 -1.35895,0.8609 -2.06891,1.2403 -0.70996,0.3796 -1.43683,0.7233 -2.18066,1.0312 -0.74372,0.3081 -1.50074,0.5791 -2.27112,0.8128 -0.77033,0.2338 -1.55029,0.4292 -2.33991,0.5861 -0.78955,0.1573 -1.5849,0.2754 -2.38598,0.3543 -0.80115,0.079 -1.60425,0.1181 -2.4093,0.1181 H 470.13998 c -0.80502,0 -1.60809,-0.039 -2.40924,-0.1181 -0.80114,-0.079 -1.59652,-0.197 -2.3861,-0.3543 -0.78956,-0.1569 -1.56949,-0.3523 -2.33985,-0.5861 -0.77035,-0.2337 -1.52743,-0.5047 -2.27121,-0.8128 -0.74374,-0.3079 -1.47058,-0.6516 -2.18057,-1.0312 -0.70996,-0.3794 -1.39963,-0.7928 -2.069,-1.2403 -0.66934,-0.4472 -1.31516,-0.9262 -1.93744,-1.4367 -0.62228,-0.5108 -1.21808,-1.0508 -1.78732,-1.6199 -0.56922,-0.5691 -1.10916,-1.1651 -1.61988,-1.7874 -0.51071,-0.6223 -0.98971,-1.268 -1.43698,-1.9375 -0.44723,-0.6693 -0.86056,-1.3589 -1.24005,-2.0689 -0.37948,-0.71 -0.7233,-1.4368 -1.03137,-2.1806 -0.30808,-0.7438 -0.57895,-1.5007 -0.81262,-2.271 -0.23368,-0.7704 -0.42902,-1.5504 -0.58609,-2.3399 -0.15708,-0.7895 -0.27503,-1.5848 -0.35392,-2.3859 -0.0789,-0.801 -0.11834,-1.6041 -0.11834,-2.4093 V 1975.61 c 0,-0.8051 0.0395,-1.6082 0.11834,-2.4093 0.0789,-0.8012 0.19684,-1.5966 0.35392,-2.3861 0.15707,-0.7896 0.35244,-1.5695 0.58612,-2.3399 0.2337,-0.7704 0.50458,-1.5274 0.81262,-2.2712 0.30811,-0.7437 0.65189,-1.4705 1.03137,-2.1804 0.37949,-0.71 0.79282,-1.3997 1.24005,-2.0691 0.44727,-0.6692 0.92627,-1.315 1.43698,-1.9373 0.51072,-0.6222 1.05066,-1.218 1.61991,-1.7873 0.56924,-0.5692 1.16504,-1.1092 1.78732,-1.6199 0.62228,-0.5107 1.26807,-0.9897 1.93741,-1.437 0.66937,-0.4472 1.35904,-0.8605 2.069,-1.24 0.70999,-0.3795 1.43683,-0.7233 2.18054,-1.0315 0.74378,-0.308 1.50086,-0.5787 2.27121,-0.8124 0.77036,-0.2337 1.55032,-0.4291 2.33988,-0.5862 0.78958,-0.1569 1.58493,-0.2749 2.38607,-0.3537 0.80115,-0.079 1.60422,-0.1185 2.40924,-0.1187 z"
       style="fill:#ffffff;fill-opacity:1;fill-rule:nonzero;stroke:#000000;stroke-width:1;stroke-linecap:butt;stroke-linejoin:miter;stroke-miterlimit:10;stroke-dasharray:none;stroke-opacity:1"
       transform="matrix(0.94873593,0,0,0.94873593,-385.5503,-1837.1759)"
       clip-path="url(#clipPath4)" />
    <text
       id="text4"
       xml:space="preserve"
       transform="matrix(0.94873593,0,0,0.94873593,60.785522,40.846911)"
       clip-path="url(#clipPath5)"><tspan
         id="tspan4"
         style="font-variant:normal;font-weight:normal;font-size:12px;font-family:Arial;writing-mode:lr-tb;fill:#000000;fill-opacity:1;fill-rule:nonzero;stroke:none"
         x="0"
         y="0">requirement-name-compartment</tspan></text>
    <text
       id="text5"
       xml:space="preserve"
       transform="matrix(0.94873593,0,0,0.94873593,110.13461,67.411517)"
       clip-path="url(#clipPath6)"><tspan
         id="tspan5"
         style="font-variant:normal;font-weight:normal;font-size:12px;font-family:Arial;writing-mode:lr-tb;fill:#000000;fill-opacity:1;fill-rule:nonzero;stroke:none"
         x="0"
         y="0">general-view</tspan></text>
    <text
       id="text6"
       xml:space="preserve"
       transform="matrix(0.94873593,0,0,0.94873593,94.006098,94.924859)"
       clip-path="url(#clipPath7)"><tspan
         id="tspan6"
         style="font-variant:normal;font-weight:normal;font-size:12px;font-family:Arial;writing-mode:lr-tb;fill:#000000;fill-opacity:1;fill-rule:nonzero;stroke:none"
         x="0"
         y="0">compartment-stack</tspan></text>
    <path
       id="path8"
       d="m 412,1996 h 46 v 15 h -46 z"
       style="fill:#ffffff;fill-opacity:1;fill-rule:nonzero;stroke:none"
       transform="matrix(0.94873593,0,0,0.94873593,-386.02463,-1837.6502)"
       clip-path="url(#clipPath9)" />
    <text
       id="text9"
       xml:space="preserve"
       transform="matrix(0.94873593,0,0,0.94873593,5.151049,66.462781)"
       clip-path="url(#clipPath10)"><tspan
         id="tspan9"
         style="font-variant:normal;font-weight:normal;font-size:12px;font-family:Arial;writing-mode:lr-tb;fill:#000000;fill-opacity:1;fill-rule:nonzero;stroke:none"
         x="0"
         y="0">param-l*</tspan></text>
    <path
       id="path11"
       d="m 656,1996 h 46 v 15 h -46 z"
       style="fill:#ffffff;fill-opacity:1;fill-rule:nonzero;stroke:none"
       transform="matrix(0.94873593,0,0,0.94873593,-386.02463,-1837.6502)"
       clip-path="url(#clipPath12)" />
    <text
       id="text12"
       xml:space="preserve"
       transform="matrix(0.94873593,0,0,0.94873593,236.02001,66.462781)"
       clip-path="url(#clipPath13)"><tspan
         id="tspan12"
         style="font-variant:normal;font-weight:normal;font-size:12px;font-family:Arial;writing-mode:lr-tb;fill:#000000;fill-opacity:1;fill-rule:nonzero;stroke:none"
         x="0"
         y="0">param-r*</tspan></text>
    <path
       id="path14"
       d="m 528,2051 h 56 v 15 h -56 z"
       style="fill:#ffffff;fill-opacity:1;fill-rule:nonzero;stroke:none"
       transform="matrix(0.94873593,0,0,0.94873593,-386.02463,-1837.6502)"
       clip-path="url(#clipPath15)" />
    <g
       id="g15" />
    <g
       id="g16" />
    <text
       id="text16"
       xml:space="preserve"
       transform="matrix(0.94873593,0,0,0.94873593,114.89312,118.64326)"
       clip-path="url(#clipPath16)"><tspan
         id="tspan16"
         style="font-variant:normal;font-weight:normal;font-size:12px;font-family:Arial;writing-mode:lr-tb;fill:#000000;fill-opacity:1;fill-rule:nonzero;stroke:none"
         x="0"
         y="0"> param-b* </tspan></text>
    <path
       id="path17"
       d="m 530,1943 h 52 v 15 h -52 z"
       style="fill:#ffffff;fill-opacity:1;fill-rule:nonzero;stroke:none"
       transform="matrix(0.94873593,0,0,0.94873593,-386.02463,-1837.6502)"
       clip-path="url(#clipPath18)" />
    <g
       id="g18" />
    <g
       id="g19" />
    <text
       id="text19"
       xml:space="preserve"
       transform="matrix(0.94873593,0,0,0.94873593,116.47928,16.179777)"
       clip-path="url(#clipPath19)"><tspan
         id="tspan19"
         style="font-variant:normal;font-weight:normal;font-size:12px;font-family:Arial;writing-mode:lr-tb;fill:#000000;fill-opacity:1;fill-rule:nonzero;stroke:none"
         x="0"
         y="0"> param-t* </tspan></text>
  </g>
</svg>
