<?xml version="1.0" encoding="UTF-8" standalone="no"?>
<!-- Created with Inkscape (http://www.inkscape.org/) -->

<svg
   version="1.1"
   id="svg1"
   width="283.84"
   height="97.279999"
   viewBox="0 0 283.84 97.279999"
   xmlns="http://www.w3.org/2000/svg"
   xmlns:svg="http://www.w3.org/2000/svg">
  <defs
     id="defs1">
    <clipPath
       clipPathUnits="userSpaceOnUse"
       id="clipPath2">
      <path
         d="M 0,0 H 887.98828 V 302.97852 H 0 Z"
         transform="scale(0.31999999)"
         clip-rule="evenodd"
         id="path2" />
    </clipPath>
    <clipPath
       clipPathUnits="userSpaceOnUse"
       id="clipPath4">
      <path
         d="m 3.125,0 h 881.25 V 302.97852 H 3.125 Z"
         transform="matrix(0.3384435,0,0,0.3384435,77.383912,2067.4424)"
         clip-rule="evenodd"
         id="path4" />
    </clipPath>
    <clipPath
       clipPathUnits="userSpaceOnUse"
       id="clipPath5">
      <path
         d="m 3.125,0 h 881.25 V 302.97852 H 3.125 Z"
         transform="matrix(0.3384435,0,0,0.3384435,-55.06921,-41.057636)"
         clip-rule="evenodd"
         id="path5" />
    </clipPath>
    <clipPath
       clipPathUnits="userSpaceOnUse"
       id="clipPath6">
      <path
         d="m 3.125,0 h 881.25 V 302.97852 H 3.125 Z"
         transform="matrix(0.3384435,0,0,0.3384435,-109.08483,-70.057636)"
         clip-rule="evenodd"
         id="path6" />
    </clipPath>
  </defs>
  <g
     id="g1">
    <path
       id="path1"
       d="M 0,0 H 284 V 97 H 0 Z"
       style="fill:#ffffff;fill-opacity:1;fill-rule:nonzero;stroke:none"
       clip-path="url(#clipPath2)" />
    <path
       id="path3"
       d="m 134.47,2077.49 h 206.62 c 1.24163,0 2.47134,0.1211 3.68914,0.3633 1.21778,0.2422 2.40024,0.6008 3.54737,1.0759 1.14712,0.4751 2.23691,1.0576 3.26928,1.7476 1.03238,0.6897 1.98758,1.4736 2.86557,2.3515 0.87796,0.878 1.66187,1.833 2.35166,2.8655 0.68985,1.0325 1.27234,2.1221 1.74753,3.2693 0.47516,1.1472 0.83386,2.3296 1.07608,3.5476 0.24225,1.218 0.36337,2.4477 0.36337,3.6892 v 44.3901 c 0,1.2415 -0.12112,2.4712 -0.36337,3.689 -0.24222,1.2175 -0.60089,2.3999 -1.07605,3.5471 -0.47519,1.1472 -1.05771,2.2368 -1.74756,3.2693 -0.68979,1.0325 -1.4737,1.9878 -2.35166,2.8657 -0.87799,0.878 -1.83319,1.6619 -2.86557,2.3516 -1.03237,0.6897 -2.12216,1.2722 -3.26928,1.7476 -1.14713,0.4751 -2.32959,0.8337 -3.5474,1.0759 -1.21777,0.2424 -2.44748,0.3635 -3.68911,0.3638 H 134.47 c -1.24165,-3e-4 -2.47137,-0.1214 -3.68916,-0.3638 -1.21779,-0.2422 -2.40026,-0.6008 -3.5474,-1.0759 -1.14713,-0.4754 -2.2369,-1.0579 -3.26929,-1.7476 -1.03239,-0.6897 -1.98758,-1.4736 -2.86555,-2.3516 -0.87798,-0.8779 -1.66189,-1.8332 -2.3517,-2.8657 -0.68983,-1.0325 -1.27233,-2.1221 -1.74748,-3.2693 -0.47516,-1.1472 -0.83385,-2.3296 -1.07608,-3.5471 -0.24223,-1.2178 -0.36335,-2.4475 -0.36334,-3.689 v -44.3901 c -1e-5,-1.2415 0.12111,-2.4712 0.36334,-3.6892 0.24223,-1.218 0.60092,-2.4004 1.07609,-3.5476 0.47515,-1.1472 1.05764,-2.2368 1.74747,-3.2693 0.68981,-1.0325 1.47372,-1.9875 2.3517,-2.8655 0.87797,-0.8779 1.83316,-1.6618 2.86556,-2.3515 1.03238,-0.69 2.12215,-1.2725 3.26928,-1.7476 1.14714,-0.4751 2.32961,-0.8337 3.5474,-1.0759 1.21779,-0.2422 2.44751,-0.3633 3.68916,-0.3633 z"
       style="fill:#ffffff;fill-opacity:1;fill-rule:nonzero;stroke:#000000;stroke-width:1;stroke-linecap:butt;stroke-linejoin:miter;stroke-miterlimit:10;stroke-dasharray:none;stroke-opacity:1"
       transform="matrix(0.94550489,0,0,0.94550489,-73.166867,-1954.7769)"
       clip-path="url(#clipPath4)" />
    <text
       id="text4"
       xml:space="preserve"
       transform="matrix(0.94550489,0,0,0.94550489,52.068207,38.820196)"
       clip-path="url(#clipPath5)"><tspan
         id="tspan4"
         style="font-variant:normal;font-weight:normal;font-size:12px;font-family:Arial;writing-mode:lr-tb;fill:#000000;fill-opacity:1;fill-rule:nonzero;stroke:none"
         x="0"
         y="0">satisfy-requirement-name-compartment</tspan></text>
    <text
       id="text5"
       xml:space="preserve"
       transform="matrix(0.94550489,0,0,0.94550489,103.14024,66.239837)"
       clip-path="url(#clipPath6)"><tspan
         id="tspan5"
         style="font-variant:normal;font-weight:normal;font-size:12px;font-family:Arial;writing-mode:lr-tb;fill:#000000;fill-opacity:1;fill-rule:nonzero;stroke:none"
         x="0"
         y="0">compartment-stack</tspan></text>
  </g>
</svg>
