<?xml version="1.0" encoding="UTF-8" standalone="no"?>
<!-- Created with Inkscape (http://www.inkscape.org/) -->

<svg
   version="1.1"
   id="svg1"
   width="97.279999"
   height="49.279999"
   viewBox="0 0 97.279999 49.279999"
   xmlns="http://www.w3.org/2000/svg"
   xmlns:svg="http://www.w3.org/2000/svg">
  <defs
     id="defs1">
    <clipPath
       clipPathUnits="userSpaceOnUse"
       id="clipPath2">
      <path
         d="M 0,0 H 302.97852 V 155 H 0 Z"
         transform="scale(0.31999999)"
         clip-rule="evenodd"
         id="path2" />
    </clipPath>
    <clipPath
       clipPathUnits="userSpaceOnUse"
       id="clipPath3">
      <path
         d="M 3.125,0 H 300 V 155 H 3.125 Z"
         transform="matrix(0.34877799,0,0,0.34877799,-25.063299,-33.08994)"
         clip-rule="evenodd"
         id="path3" />
    </clipPath>
    <clipPath
       clipPathUnits="userSpaceOnUse"
       id="clipPath5">
      <path
         d="M 3.125,0 H 300 V 155 H 3.125 Z"
         transform="matrix(0.34877799,0,0,0.34877799,47.3117,459.41005)"
         clip-rule="evenodd"
         id="path5" />
    </clipPath>
    <clipPath
       clipPathUnits="userSpaceOnUse"
       id="clipPath7">
      <path
         d="M 3.125,0 H 300 V 155 H 3.125 Z"
         transform="matrix(0.34877799,0,0,0.34877799,47.3117,459.41005)"
         clip-rule="evenodd"
         id="path7" />
    </clipPath>
    <clipPath
       clipPathUnits="userSpaceOnUse"
       id="clipPath9">
      <path
         d="M 3.125,0 H 300 V 155 H 3.125 Z"
         transform="matrix(0.34877799,0,0,0.34877799,47.3117,459.41005)"
         clip-rule="evenodd"
         id="path9" />
    </clipPath>
    <clipPath
       clipPathUnits="userSpaceOnUse"
       id="clipPath11">
      <path
         d="M 3.125,0 H 300 V 155 H 3.125 Z"
         transform="matrix(0.34877799,0,0,0.34877799,47.811701,459.91006)"
         clip-rule="evenodd"
         id="path11" />
    </clipPath>
    <clipPath
       clipPathUnits="userSpaceOnUse"
       id="clipPath12">
      <path
         d="M 3.125,0 H 300 V 155 H 3.125 Z"
         transform="matrix(0.34877799,0,0,0.34877799,-4.188299,-19.089941)"
         clip-rule="evenodd"
         id="path12" />
    </clipPath>
  </defs>
  <g
     id="g1">
    <path
       id="path1"
       d="M 0,0 H 97 V 50 H 0 Z"
       style="fill:#ffffff;fill-opacity:1;fill-rule:nonzero;stroke:none"
       clip-path="url(#clipPath2)" />
    <text
       id="text2"
       xml:space="preserve"
       transform="matrix(0.91748905,0,0,0.91748905,22.995302,30.359658)"
       clip-path="url(#clipPath3)"><tspan
         id="tspan2"
         style="font-variant:normal;font-weight:normal;font-size:10px;font-family:Arial;writing-mode:lr-tb;fill:#000000;fill-opacity:1;fill-rule:nonzero;stroke:none"
         x="0"
         y="0">flow-label</tspan></text>
    <path
       id="path4"
       d="M 123.1,502.14001 102.02,502"
       style="fill:none;stroke:#000000;stroke-width:1;stroke-linecap:butt;stroke-linejoin:miter;stroke-miterlimit:10;stroke-dasharray:none;stroke-opacity:1"
       transform="matrix(0.91748905,0,0,0.91748905,-43.407967,-421.50369)"
       clip-path="url(#clipPath5)" />
    <path
       id="path6"
       d="M 70,502.48999 93.900002,502.13"
       style="fill:none;stroke:#000000;stroke-width:1;stroke-linecap:butt;stroke-linejoin:miter;stroke-miterlimit:10;stroke-dasharray:none;stroke-opacity:1"
       transform="matrix(0.91748905,0,0,0.91748905,-43.407967,-421.50369)"
       clip-path="url(#clipPath7)" />
    <path
       id="path8"
       d="m 101.9,502.01999 -7.940001,4.11001 -0.120003,-8 z"
       style="fill:#000000;fill-opacity:1;fill-rule:nonzero;stroke:#000000;stroke-width:1;stroke-linecap:butt;stroke-linejoin:miter;stroke-miterlimit:10;stroke-dasharray:none;stroke-opacity:1"
       transform="matrix(0.91748905,0,0,0.91748905,-43.407967,-421.50369)"
       clip-path="url(#clipPath9)" />
    <path
       id="path10"
       d="m 52,470 h 91 v 11 H 52 Z"
       style="fill:#f8f9fa;fill-opacity:1;fill-rule:nonzero;stroke:none"
       transform="matrix(0.91748905,0,0,0.91748905,-43.866712,-421.96244)"
       clip-path="url(#clipPath11)" />
    <text
       id="text11"
       xml:space="preserve"
       transform="matrix(0.91748905,0,0,0.91748905,3.8427185,17.514812)"
       clip-path="url(#clipPath12)"><tspan
         id="tspan11"
         style="font-variant:normal;font-weight:normal;font-size:10px;font-family:Arial;writing-mode:lr-tb;fill:#000000;fill-opacity:1;fill-rule:nonzero;stroke:none"
         x="0"
         y="0">'«succession flow»'?</tspan></text>
  </g>
</svg>
