<?xml version="1.0" encoding="UTF-8" standalone="no"?>
<!-- Created with Inkscape (http://www.inkscape.org/) -->

<svg
   version="1.1"
   id="svg1"
   width="212.15999"
   height="66.559998"
   viewBox="0 0 212.15999 66.559998"
   xmlns="http://www.w3.org/2000/svg"
   xmlns:svg="http://www.w3.org/2000/svg">
  <defs
     id="defs1">
    <clipPath
       clipPathUnits="userSpaceOnUse"
       id="clipPath2">
      <path
         d="M 0,0 H 662.98828 V 209 H 0 Z"
         transform="scale(0.31999999)"
         clip-rule="evenodd"
         id="path2" />
    </clipPath>
    <clipPath
       clipPathUnits="userSpaceOnUse"
       id="clipPath4">
      <path
         d="m 3.125,0 h 656.25 V 209 H 3.125 Z"
         transform="matrix(0.33908878,0,0,0.33908878,398.61972,360.99999)"
         clip-rule="evenodd"
         id="path4" />
    </clipPath>
    <clipPath
       clipPathUnits="userSpaceOnUse"
       id="clipPath5">
      <path
         d="m 3.125,0 h 656.25 V 209 H 3.125 Z"
         transform="matrix(0.33908878,0,0,0.33908878,-33.505258,-24.499988)"
         clip-rule="evenodd"
         id="path5" />
    </clipPath>
    <clipPath
       clipPathUnits="userSpaceOnUse"
       id="clipPath6">
      <path
         d="m 3.125,0 h 656.25 V 209 H 3.125 Z"
         transform="matrix(0.33908878,0,0,0.33908878,-60.864638,-53.499988)"
         clip-rule="evenodd"
         id="path6" />
    </clipPath>
  </defs>
  <g
     id="g1">
    <path
       id="path1"
       d="M 0,0 H 212 V 67 H 0 Z"
       style="fill:#ffffff;fill-opacity:1;fill-rule:nonzero;stroke:none"
       clip-path="url(#clipPath2)" />
    <path
       id="path3"
       d="m 411.95001,362 h 197.84998 c 0.66974,0 1.33301,0.0653 1.98987,0.19598 0.65686,0.13065 1.29467,0.32413 1.91345,0.58039 0.61871,0.25631 1.20654,0.57052 1.76343,0.94262 0.55682,0.37207 1.07208,0.7949 1.54571,1.2685 0.47363,0.47357 0.89649,0.9888 1.26856,1.54568 0.37201,0.55686 0.68621,1.14466 0.9425,1.76343 0.25629,0.61877 0.44983,1.25659 0.58051,1.91345 0.13067,0.65689 0.19598,1.32019 0.19598,1.98996 v 47.59998 c 0,0.66974 -0.0653,1.33304 -0.19598,1.9899 -0.13068,0.65686 -0.32422,1.29467 -0.58051,1.91342 -0.25629,0.61877 -0.57049,1.2066 -0.9425,1.76346 -0.37207,0.55688 -0.79493,1.07211 -1.26856,1.54571 -0.47363,0.47354 -0.98889,0.89636 -1.54571,1.26846 -0.55689,0.37208 -1.14472,0.68625 -1.76343,0.94257 -0.61878,0.25632 -1.25659,0.4498 -1.91345,0.58045 C 611.133,429.93466 610.46973,430 609.79999,430 H 411.95001 c -0.66977,0 -1.33307,-0.0653 -1.98996,-0.19601 -0.65686,-0.13068 -1.29468,-0.32416 -1.91345,-0.58048 -0.61877,-0.25632 -1.2066,-0.57049 -1.76349,-0.94257 -0.55685,-0.3721 -1.07208,-0.79492 -1.54562,-1.26846 -0.4736,-0.4736 -0.89643,-0.98883 -1.26853,-1.54571 -0.3721,-0.55686 -0.68628,-1.14469 -0.94256,-1.76346 -0.25632,-0.61875 -0.4498,-1.25656 -0.58045,-1.91342 -0.13067,-0.65686 -0.19598,-1.32016 -0.19595,-1.9899 v -47.59998 c -3e-5,-0.66977 0.0653,-1.33307 0.19592,-1.98996 0.13068,-0.65686 0.32416,-1.29468 0.58048,-1.91345 0.25628,-0.61877 0.57046,-1.2066 0.94256,-1.76346 0.3721,-0.55685 0.79493,-1.07208 1.26853,-1.54565 0.47354,-0.4736 0.98877,-0.89643 1.54565,-1.2685 0.55686,-0.3721 1.14469,-0.68631 1.76346,-0.94262 0.61877,-0.25626 1.25659,-0.44974 1.91345,-0.58039 C 410.61694,362.06534 411.28024,362 411.95001,362 Z"
       style="fill:none;stroke:#000000;stroke-width:1;stroke-linecap:butt;stroke-linejoin:miter;stroke-miterlimit:10;stroke-dasharray:none;stroke-opacity:1"
       transform="matrix(0.94370562,0,0,0.94370562,-376.17967,-340.67772)"
       clip-path="url(#clipPath4)" />
    <text
       id="text4"
       xml:space="preserve"
       transform="matrix(0.94370562,0,0,0.94370562,31.6191,23.120776)"
       clip-path="url(#clipPath5)"><tspan
         id="tspan4"
         style="font-variant:normal;font-weight:normal;font-size:12px;font-family:Arial;writing-mode:lr-tb;fill:#000000;fill-opacity:1;fill-rule:nonzero;stroke:none"
         x="0"
         y="0">snapshot-name-compartment</tspan></text>
    <text
       id="text5"
       xml:space="preserve"
       transform="matrix(0.94370562,0,0,0.94370562,57.438301,50.488239)"
       clip-path="url(#clipPath6)"><tspan
         id="tspan5"
         style="font-variant:normal;font-weight:normal;font-size:12px;font-family:Arial;writing-mode:lr-tb;fill:#000000;fill-opacity:1;fill-rule:nonzero;stroke:none"
         x="0"
         y="0">compartment-stack</tspan></text>
  </g>
</svg>
