<?xml version="1.0" encoding="UTF-8" standalone="no"?>
<!-- Created with Inkscape (http://www.inkscape.org/) -->

<svg
   version="1.1"
   id="svg1"
   width="136"
   height="30.719999"
   viewBox="0 0 136 30.719999"
   xmlns="http://www.w3.org/2000/svg"
   xmlns:svg="http://www.w3.org/2000/svg">
  <defs
     id="defs1">
    <clipPath
       clipPathUnits="userSpaceOnUse"
       id="clipPath2">
      <path
         d="M 0,0 H 425.97656 V 95.996094 H 0 Z"
         transform="scale(0.31999999)"
         clip-rule="evenodd"
         id="path2" />
    </clipPath>
    <clipPath
       clipPathUnits="userSpaceOnUse"
       id="clipPath4">
      <path
         d="m 3.125,0 h 418.75 V 95.996094 H 3.125 Z"
         transform="matrix(0.34296649,0,0,0.34296649,307.35164,347.92821)"
         clip-rule="evenodd"
         id="path4" />
    </clipPath>
    <clipPath
       clipPathUnits="userSpaceOnUse"
       id="clipPath5">
      <path
         d="m 3.125,0 h 418.75 V 95.996094 H 3.125 Z"
         transform="matrix(0.34296649,0,0,0.34296649,-18.117099,-20.071793)"
         clip-rule="evenodd"
         id="path5" />
    </clipPath>
    <clipPath
       clipPathUnits="userSpaceOnUse"
       id="clipPath7">
      <path
         d="m 3.125,0 h 418.75 V 95.996094 H 3.125 Z"
         transform="matrix(0.34296649,0,0,0.34296649,306.85164,347.4282)"
         clip-rule="evenodd"
         id="path7" />
    </clipPath>
  </defs>
  <g
     id="g1">
    <path
       id="path1"
       d="M 0,0 H 136 V 31 H 0 Z"
       style="fill:#ffffff;fill-opacity:1;fill-rule:nonzero;stroke:none"
       clip-path="url(#clipPath2)" />
    <path
       id="path3"
       d="m 325,357 h 123 v 15 H 325 Z"
       style="fill:#ffffff;fill-opacity:1;fill-rule:nonzero;stroke:none"
       transform="matrix(0.93303571,0,0,0.93303571,-286.77006,-324.62944)"
       clip-path="url(#clipPath4)" />
    <text
       id="text4"
       xml:space="preserve"
       transform="matrix(0.93303571,0,0,0.93303571,16.9039,18.7277)"
       clip-path="url(#clipPath5)"><tspan
         id="tspan4"
         style="font-variant:normal;font-weight:normal;font-size:12px;font-family:Arial;writing-mode:lr-tb;fill:#000000;fill-opacity:1;fill-rule:nonzero;stroke:none"
         x="0"
         y="0">sq-ev-occurrence-label</tspan></text>
    <path
       id="path6"
       d="m 310,362 h 2.48001 L 314.25,363.48001 316.01999,362 H 318.5 l -3.01001,2.5 3.01001,2.5 h -2.48001 L 314.25,365.51999 312.48001,367 H 310 l 2.82999,-2.5 z"
       style="fill:#000000;fill-opacity:1;fill-rule:nonzero;stroke:#000000;stroke-width:1;stroke-linecap:butt;stroke-linejoin:miter;stroke-miterlimit:10;stroke-dasharray:none;stroke-opacity:1"
       transform="matrix(0.93303571,0,0,0.93303571,-286.30354,-324.16292)"
       clip-path="url(#clipPath7)" />
  </g>
</svg>
