<?xml version="1.0" encoding="UTF-8" standalone="no"?>
<!-- Created with Inkscape (http://www.inkscape.org/) -->

<svg
   version="1.1"
   id="svg1"
   width="149.43999"
   height="41.279999"
   viewBox="0 0 149.43999 41.279999"
   xmlns="http://www.w3.org/2000/svg"
   xmlns:svg="http://www.w3.org/2000/svg">
  <defs
     id="defs1">
    <clipPath
       clipPathUnits="userSpaceOnUse"
       id="clipPath2">
      <path
         d="M 0,0 H 464.99023 V 129.00391 H 0 Z"
         transform="scale(0.31999999)"
         clip-rule="evenodd"
         id="path2" />
    </clipPath>
    <clipPath
       clipPathUnits="userSpaceOnUse"
       id="clipPath4">
      <path
         d="M 3.125,0 H 462.5 V 129.00391 H 3.125 Z"
         transform="matrix(0.34330634,0,0,0.34330634,458.33236,139)"
         clip-rule="evenodd"
         id="path4" />
    </clipPath>
    <clipPath
       clipPathUnits="userSpaceOnUse"
       id="clipPath6">
      <path
         d="M 3.125,0 H 462.5 V 129.00391 H 3.125 Z"
         transform="matrix(0.34330634,0,0,0.34330634,458.83236,139.49998)"
         clip-rule="evenodd"
         id="path6" />
    </clipPath>
    <clipPath
       clipPathUnits="userSpaceOnUse"
       id="clipPath7">
      <path
         d="M 3.125,0 H 462.5 V 129.00391 H 3.125 Z"
         transform="matrix(0.34330634,0,0,0.34330634,-5.3082746,-25.500014)"
         clip-rule="evenodd"
         id="path7" />
    </clipPath>
    <clipPath
       clipPathUnits="userSpaceOnUse"
       id="clipPath9">
      <path
         d="M 3.125,0 H 462.5 V 129.00391 H 3.125 Z"
         transform="matrix(0.34330634,0,0,0.34330634,458.33236,139)"
         clip-rule="evenodd"
         id="path9" />
    </clipPath>
  </defs>
  <g
     id="g1">
    <path
       id="path1"
       d="M 0,0 H 149 V 41 H 0 Z"
       style="fill:#ffffff;fill-opacity:1;fill-rule:nonzero;stroke:none"
       clip-path="url(#clipPath2)" />
    <path
       id="path3"
       d="m 548,160.5 c -6e-5,0.52528 -0.0513,1.04552 -0.15375,1.56071 -0.10254,0.51519 -0.25427,1.01543 -0.45526,1.50074 -0.20099,0.4853 -0.44745,0.94633 -0.73926,1.38308 -0.29181,0.43677 -0.62347,0.84087 -0.99493,1.21231 -0.37146,0.37143 -0.77557,0.70305 -1.21228,0.99488 -0.43683,0.29184 -0.89783,0.53827 -1.38312,0.73929 -0.48529,0.20103 -0.98553,0.35278 -1.50073,0.45526 C 541.04553,168.44876 540.52533,168.5 540,168.5 c -0.52527,0 -1.04553,-0.0512 -1.56073,-0.15373 -0.5152,-0.10248 -1.0155,-0.25423 -1.50079,-0.45526 -0.48529,-0.20102 -0.94635,-0.44745 -1.38312,-0.73928 -0.43677,-0.29182 -0.84088,-0.62346 -1.21228,-0.99489 -0.37146,-0.37144 -0.70307,-0.77554 -0.99487,-1.21231 -0.29187,-0.43675 -0.53833,-0.89778 -0.73932,-1.38308 -0.20099,-0.48531 -0.35273,-0.98555 -0.4552,-1.50074 -0.10248,-0.51519 -0.15375,-1.03543 -0.15369,-1.56071 -6e-5,-0.52528 0.0512,-1.04553 0.15369,-1.56073 0.10247,-0.5152 0.25421,-1.01546 0.4552,-1.50076 0.20099,-0.48531 0.44745,-0.94634 0.73932,-1.38309 0.2918,-0.43677 0.62341,-0.84087 0.99487,-1.21228 0.3714,-0.37143 0.77551,-0.70306 1.21228,-0.99492 0.43677,-0.29182 0.89783,-0.53825 1.38312,-0.73927 0.48529,-0.20101 0.98559,-0.35276 1.50079,-0.45523 0.5152,-0.10248 1.03546,-0.15372 1.56073,-0.15372 0.52533,0 1.04553,0.0512 1.56067,0.15372 0.5152,0.10247 1.01544,0.25422 1.50073,0.45523 0.48529,0.20102 0.94629,0.44745 1.38306,0.73927 0.43677,0.29186 0.84088,0.62349 1.21234,0.99492 0.37146,0.37141 0.70306,0.77551 0.99487,1.21228 0.29187,0.43675 0.53833,0.89778 0.73932,1.38309 0.20099,0.4853 0.35272,0.98556 0.45526,1.50076 0.10248,0.5152 0.15369,1.03545 0.15375,1.56073 z"
       style="fill:#000000;fill-opacity:1;fill-rule:nonzero;stroke:#000000;stroke-width:1;stroke-linecap:butt;stroke-linejoin:miter;stroke-miterlimit:10;stroke-dasharray:none;stroke-opacity:1"
       transform="matrix(0.93211209,0,0,0.93211209,-427.21713,-129.56358)"
       clip-path="url(#clipPath4)" />
    <path
       id="path5"
       d="m 464,154 h 59 v 15 h -59 z"
       style="fill:#ffffff;fill-opacity:1;fill-rule:nonzero;stroke:none"
       transform="matrix(0.93211209,0,0,0.93211209,-427.68319,-130.02962)"
       clip-path="url(#clipPath6)" />
    <text
       id="text6"
       xml:space="preserve"
       transform="matrix(0.93211209,0,0,0.93211209,4.9479069,23.768871)"
       clip-path="url(#clipPath7)"><tspan
         id="tspan6"
         style="font-variant:normal;font-weight:normal;font-size:12px;font-family:Arial;writing-mode:lr-tb;fill:#000000;fill-opacity:1;fill-rule:nonzero;stroke:none"
         x="0"
         y="0">proxy-label</tspan></text>
    <path
       id="path8"
       d="M 540,180 V 140"
       style="fill:none;stroke:#000000;stroke-width:1;stroke-linecap:butt;stroke-linejoin:miter;stroke-miterlimit:10;stroke-dasharray:none;stroke-opacity:1"
       transform="matrix(0.93211209,0,0,0.93211209,-427.21713,-129.56358)"
       clip-path="url(#clipPath9)" />
  </g>
</svg>
