<?xml version="1.0" encoding="UTF-8" standalone="no"?>
<!-- Created with Inkscape (http://www.inkscape.org/) -->

<svg
   version="1.1"
   id="svg1"
   width="112"
   height="40"
   viewBox="0 0 112 40"
   xmlns="http://www.w3.org/2000/svg"
   xmlns:svg="http://www.w3.org/2000/svg">
  <defs
     id="defs1">
    <clipPath
       clipPathUnits="userSpaceOnUse"
       id="clipPath2">
      <path
         d="M 0,0 H 350.97656 V 125.97656 H 0 Z"
         transform="scale(0.31999999)"
         clip-rule="evenodd"
         id="path2" />
    </clipPath>
    <clipPath
       clipPathUnits="userSpaceOnUse"
       id="clipPath4">
      <path
         d="m 3.125,0 h 343.75 V 125.97656 H 3.125 Z"
         transform="matrix(0.34512292,0,0,0.34512292,76.833858,339)"
         clip-rule="evenodd"
         id="path4" />
    </clipPath>
    <clipPath
       clipPathUnits="userSpaceOnUse"
       id="clipPath6">
      <path
         d="m 3.125,0 h 343.75 V 125.97656 H 3.125 Z"
         transform="matrix(0.34512292,0,0,0.34512292,77.333863,339.5)"
         clip-rule="evenodd"
         id="path6" />
    </clipPath>
    <clipPath
       clipPathUnits="userSpaceOnUse"
       id="clipPath7">
      <path
         d="m 3.125,0 h 343.75 V 125.97656 H 3.125 Z"
         transform="matrix(0.34512292,0,0,0.34512292,-49.306762,-24.499992)"
         clip-rule="evenodd"
         id="path7" />
    </clipPath>
  </defs>
  <g
     id="g1">
    <path
       id="path1"
       d="M 0,0 H 112 V 40 H 0 Z"
       style="fill:#ffffff;fill-opacity:1;fill-rule:nonzero;stroke:none"
       clip-path="url(#clipPath2)" />
    <path
       id="path3"
       d="m 86,340 h 28 c 0.39396,3e-5 0.78413,0.0385 1.17052,0.1153 0.3864,0.0768 0.76159,0.19064 1.12557,0.3414 0.36398,0.15078 0.70975,0.3356 1.03732,0.55447 0.32756,0.21887 0.63064,0.46759 0.90922,0.74618 0.27857,0.27857 0.5273,0.58164 0.74618,0.90918 0.21886,0.32758 0.40368,0.67334 0.55445,1.03733 0.15076,0.36398 0.26458,0.73916 0.34144,1.12558 0.0769,0.38638 0.11529,0.77658 0.1153,1.17056 v 28 c -1e-5,0.39395 -0.0384,0.78412 -0.1153,1.1705 -0.0769,0.38638 -0.19068,0.7616 -0.34144,1.12558 -0.15077,0.36398 -0.33559,0.70975 -0.55447,1.03736 -0.21886,0.32754 -0.46759,0.63058 -0.74616,0.90917 -0.27858,0.27857 -0.58166,0.52729 -0.90922,0.74619 -0.32757,0.21884 -0.67334,0.40366 -1.03732,0.55444 -0.36398,0.15076 -0.73917,0.26459 -1.12556,0.34146 -0.3864,0.0768 -0.77657,0.11527 -1.17053,0.1153 H 86 c -0.393974,-3e-5 -0.784157,-0.0385 -1.170547,-0.11533 -0.386399,-0.0769 -0.761582,-0.19067 -1.125557,-0.34143 -0.363984,-0.15078 -0.709763,-0.3356 -1.037331,-0.55444 -0.327568,-0.2189 -0.630638,-0.46762 -0.90921,-0.74619 -0.27858,-0.27859 -0.527306,-0.58163 -0.746186,-0.90917 -0.218879,-0.32761 -0.403694,-0.67338 -0.554458,-1.03736 -0.150765,-0.36398 -0.264572,-0.7392 -0.341438,-1.12558 C 80.038422,374.78412 79.999992,374.39395 80,374 v -28 c -8e-6,-0.39398 0.03842,-0.78418 0.115273,-1.17056 0.07687,-0.38642 0.190673,-0.7616 0.341438,-1.12558 0.150764,-0.36399 0.335579,-0.70975 0.554458,-1.03733 0.21888,-0.32754 0.467606,-0.63061 0.746186,-0.90918 0.278572,-0.27859 0.581642,-0.52731 0.90921,-0.74618 0.327568,-0.21887 0.673347,-0.40369 1.037331,-0.55447 0.363975,-0.15076 0.739158,-0.26456 1.125557,-0.3414 C 85.215843,340.03845 85.606026,340.00003 86,340 Z"
       style="fill:#ffffff;fill-opacity:1;fill-rule:nonzero;stroke:#000000;stroke-width:1;stroke-linecap:butt;stroke-linejoin:miter;stroke-miterlimit:10;stroke-dasharray:none;stroke-opacity:1"
       transform="matrix(0.92720585,0,0,0.92720585,-71.240803,-314.32278)"
       clip-path="url(#clipPath4)" />
    <path
       id="path5"
       d="m 127,353 h 66 v 15 h -66 z"
       style="fill:#ffffff;fill-opacity:1;fill-rule:nonzero;stroke:none"
       transform="matrix(0.92720585,0,0,0.92720585,-71.70441,-314.78639)"
       clip-path="url(#clipPath6)" />
    <text
       id="text6"
       xml:space="preserve"
       transform="matrix(0.92720585,0,0,0.92720585,45.717518,22.716536)"
       clip-path="url(#clipPath7)"><tspan
         id="tspan6"
         style="font-variant:normal;font-weight:normal;font-size:12px;font-family:Arial;writing-mode:lr-tb;fill:#000000;fill-opacity:1;fill-rule:nonzero;stroke:none"
         x="0"
         y="0">sq-port-label</tspan></text>
  </g>
</svg>
