<?xml version="1.0" encoding="UTF-8" standalone="no"?>
<!-- Created with Inkscape (http://www.inkscape.org/) -->

<svg
   version="1.1"
   id="svg1"
   width="155.84"
   height="93.440002"
   viewBox="0 0 155.84 93.440002"
   xmlns="http://www.w3.org/2000/svg"
   xmlns:svg="http://www.w3.org/2000/svg">
  <defs
     id="defs1">
    <clipPath
       clipPathUnits="userSpaceOnUse"
       id="clipPath2">
      <path
         d="M 0,0 H 488 V 291.01563 H 0 Z"
         transform="scale(0.31999999)"
         clip-rule="evenodd"
         id="path2" />
    </clipPath>
    <clipPath
       clipPathUnits="userSpaceOnUse"
       id="clipPath4">
      <path
         d="M 3.125,0 H 487.5 V 290.625 H 3.125 Z"
         transform="matrix(0.34068941,0,0,0.34068941,76.857616,217.93534)"
         clip-rule="evenodd"
         id="path4" />
    </clipPath>
    <clipPath
       clipPathUnits="userSpaceOnUse"
       id="clipPath6">
      <path
         d="M 3.125,0 H 487.5 V 290.625 H 3.125 Z"
         transform="matrix(0.34068941,0,0,0.34068941,77.357612,218.43533)"
         clip-rule="evenodd"
         id="path6" />
    </clipPath>
    <clipPath
       clipPathUnits="userSpaceOnUse"
       id="clipPath7">
      <path
         d="M 3.125,0 H 487.5 V 290.625 H 3.125 Z"
         transform="matrix(0.34068941,0,0,0.34068941,-18.283014,-45.564669)"
         clip-rule="evenodd"
         id="path7" />
    </clipPath>
    <clipPath
       clipPathUnits="userSpaceOnUse"
       id="clipPath9">
      <path
         d="M 3.125,0 H 487.5 V 290.625 H 3.125 Z"
         transform="matrix(0.34068941,0,0,0.34068941,77.357612,218.43533)"
         clip-rule="evenodd"
         id="path9" />
    </clipPath>
    <clipPath
       clipPathUnits="userSpaceOnUse"
       id="clipPath10">
      <path
         d="M 3.125,0 H 487.5 V 290.625 H 3.125 Z"
         transform="matrix(0.34068941,0,0,0.34068941,-58.298639,-85.564669)"
         clip-rule="evenodd"
         id="path10" />
    </clipPath>
  </defs>
  <g
     id="g1">
    <path
       id="path1"
       d="M 0,0 H 156 V 93 H 0 Z"
       style="fill:#ffffff;fill-opacity:1;fill-rule:nonzero;stroke:none"
       clip-path="url(#clipPath2)" />
    <path
       id="path3"
       d="m 92,220 h 136 c 0.78792,0 1.56827,0.0769 2.34105,0.23058 0.7728,0.15371 1.52318,0.38133 2.25113,0.68286 0.72795,0.30153 1.41949,0.67115 2.07463,1.1089 0.65514,0.43776 1.26129,0.93521 1.81845,1.49235 0.55714,0.55715 1.0546,1.1633 1.49236,1.81844 0.43772,0.65514 0.80737,1.34668 1.1089,2.07463 0.30153,0.72795 0.52916,1.47832 0.68287,2.25113 0.15372,0.7728 0.23059,1.55316 0.23061,2.34111 v 56 c -2e-5,0.78793 -0.0769,1.56827 -0.23061,2.34103 -0.15371,0.7728 -0.38134,1.5232 -0.68287,2.25113 -0.30153,0.72797 -0.67118,1.41953 -1.10894,2.07465 -0.43772,0.65515 -0.93518,1.26129 -1.49232,1.81845 -0.55716,0.55716 -1.16331,1.0546 -1.81845,1.49234 -0.65514,0.43774 -1.34668,0.80737 -2.07463,1.10892 -0.72795,0.30151 -1.47833,0.52914 -2.25112,0.68286 C 229.56827,299.9231 228.78792,299.99997 228,300 H 92 c -0.787933,-3e-5 -1.568298,-0.0769 -2.341087,-0.23062 -0.772789,-0.15372 -1.523163,-0.38135 -2.251122,-0.68286 -0.727951,-0.30155 -1.419494,-0.67118 -2.074638,-1.10895 -0.655144,-0.43771 -1.261284,-0.93515 -1.818436,-1.49231 -0.557152,-0.55716 -1.054611,-1.1633 -1.492363,-1.81845 -0.437752,-0.65512 -0.807396,-1.34668 -1.108925,-2.07465 -0.301521,-0.72793 -0.529144,-1.47833 -0.682861,-2.25113 C 80.076851,289.56827 79.999992,288.78793 80,288 v -56 c -8e-6,-0.78795 0.07685,-1.56831 0.230568,-2.34111 0.153717,-0.77281 0.38134,-1.52318 0.682861,-2.25113 0.301529,-0.72795 0.671173,-1.41949 1.108925,-2.07463 0.437752,-0.65514 0.935211,-1.26129 1.492363,-1.81844 0.557152,-0.55714 1.163292,-1.05459 1.818428,-1.49235 0.655144,-0.43775 1.346695,-0.80737 2.074646,-1.1089 0.727959,-0.30153 1.478333,-0.52915 2.251122,-0.68286 C 90.431702,220.07686 91.212067,220 92,220 Z"
       style="fill:#ffffff;fill-opacity:1;fill-rule:nonzero;stroke:#000000;stroke-width:1;stroke-linecap:butt;stroke-linejoin:miter;stroke-miterlimit:10;stroke-dasharray:none;stroke-opacity:1"
       transform="matrix(0.9392719,0,0,0.9392719,-72.190199,-204.70054)"
       clip-path="url(#clipPath4)" />
    <path
       id="path5"
       d="m 96,253 h 128 v 15 H 96 Z"
       style="fill:#ffffff;fill-opacity:1;fill-rule:nonzero;stroke:none"
       transform="matrix(0.9392719,0,0,0.9392719,-72.659831,-205.17017)"
       clip-path="url(#clipPath6)" />
    <text
       id="text6"
       xml:space="preserve"
       transform="matrix(0.9392719,0,0,0.9392719,17.172721,42.797613)"
       clip-path="url(#clipPath7)"><tspan
         id="tspan6"
         style="font-variant:normal;font-weight:normal;font-size:12px;font-family:Arial;writing-mode:lr-tb;fill:#000000;fill-opacity:1;fill-rule:nonzero;stroke:none"
         x="0"
         y="0">part-name-compartment</tspan></text>
    <path
       id="path8"
       d="m 136,293 h 48 v 15 h -48 z"
       style="fill:#ffffff;fill-opacity:1;fill-rule:nonzero;stroke:none"
       transform="matrix(0.9392719,0,0,0.9392719,-72.659831,-205.17017)"
       clip-path="url(#clipPath9)" />
    <g
       id="g9" />
    <g
       id="g10" />
    <text
       id="text10"
       xml:space="preserve"
       transform="matrix(0.9392719,0,0,0.9392719,54.758273,80.368489)"
       clip-path="url(#clipPath10)"><tspan
         id="tspan10"
         style="font-variant:normal;font-weight:normal;font-size:12px;font-family:Arial;writing-mode:lr-tb;fill:#000000;fill-opacity:1;fill-rule:nonzero;stroke:none"
         x="0"
         y="0"> sq-port* </tspan></text>
  </g>
</svg>
