<?xml version="1.0" encoding="UTF-8" standalone="no"?>
<!-- Created with Inkscape (http://www.inkscape.org/) -->

<svg
   version="1.1"
   id="svg1"
   width="89.279999"
   height="41.279999"
   viewBox="0 0 89.279999 41.279999"
   xmlns="http://www.w3.org/2000/svg"
   xmlns:svg="http://www.w3.org/2000/svg">
  <defs
     id="defs1">
    <clipPath
       clipPathUnits="userSpaceOnUse"
       id="clipPath2">
      <path
         d="M 0,0 H 279.00391 V 129.00391 H 0 Z"
         transform="scale(0.31999999)"
         clip-rule="evenodd"
         id="path2" />
    </clipPath>
    <clipPath
       clipPathUnits="userSpaceOnUse"
       id="clipPath4">
      <path
         d="M 3.125,0 H 275 V 129.00391 H 3.125 Z"
         transform="matrix(0.34827211,0,0,0.34827211,548.82187,47.911653)"
         clip-rule="evenodd"
         id="path4" />
    </clipPath>
    <clipPath
       clipPathUnits="userSpaceOnUse"
       id="clipPath6">
      <path
         d="M 3.125,0 H 275 V 129.00391 H 3.125 Z"
         transform="matrix(0.34827211,0,0,0.34827211,549.32187,48.411651)"
         clip-rule="evenodd"
         id="path6" />
    </clipPath>
    <clipPath
       clipPathUnits="userSpaceOnUse"
       id="clipPath7">
      <path
         d="M 3.125,0 H 275 V 129.00391 H 3.125 Z"
         transform="matrix(0.34827211,0,0,0.34827211,-31.818759,-26.58835)"
         clip-rule="evenodd"
         id="path7" />
    </clipPath>
    <clipPath
       clipPathUnits="userSpaceOnUse"
       id="clipPath9">
      <path
         d="M 3.125,0 H 275 V 129.00391 H 3.125 Z"
         transform="matrix(0.34827211,0,0,0.34827211,548.82187,47.911653)"
         clip-rule="evenodd"
         id="path9" />
    </clipPath>
  </defs>
  <g
     id="g1">
    <path
       id="path1"
       d="M 0,0 H 89 V 41 H 0 Z"
       style="fill:#ffffff;fill-opacity:1;fill-rule:nonzero;stroke:none"
       clip-path="url(#clipPath2)" />
    <path
       id="path3"
       d="m 568,70.5 c -6e-5,0.525291 -0.0513,1.045532 -0.15375,1.560722 -0.10248,0.51519 -0.25427,1.015442 -0.45532,1.50074 -0.20099,0.485299 -0.44739,0.946328 -0.73926,1.383088 -0.29181,0.43676 -0.62341,0.840858 -0.99487,1.212295 -0.37146,0.37143 -0.77557,0.703064 -1.21234,0.994904 -0.43677,0.291832 -0.89783,0.538261 -1.38312,0.73928 -0.48529,0.201012 -0.98547,0.352761 -1.50067,0.455246 C 561.04553,78.448753 560.52533,78.499992 560,78.5 c -0.52533,-8e-6 -1.04559,-0.05125 -1.56079,-0.153725 -0.5152,-0.102485 -1.01544,-0.254234 -1.50073,-0.455246 -0.48529,-0.201019 -0.94635,-0.447448 -1.38312,-0.73928 -0.43677,-0.29184 -0.84088,-0.623474 -1.21228,-0.994904 -0.3714,-0.371437 -0.70307,-0.775535 -0.99487,-1.212295 -0.29187,-0.43676 -0.53833,-0.897789 -0.73932,-1.383088 -0.20099,-0.485298 -0.35273,-0.98555 -0.4552,-1.50074 C 552.05121,71.545532 551.99994,71.025291 552,70.5 c -6e-5,-0.525291 0.0512,-1.04554 0.15369,-1.56073 0.10241,-0.51519 0.25415,-1.015442 0.45514,-1.500748 0.20105,-0.485298 0.44751,-0.946334 0.73931,-1.383094 0.29187,-0.43676 0.62354,-0.840851 0.99494,-1.212288 0.3714,-0.371437 0.77551,-0.703064 1.21228,-0.9949 0.43677,-0.291836 0.89783,-0.538262 1.38312,-0.739281 0.48529,-0.201015 0.98553,-0.352764 1.50073,-0.455242 0.5152,-0.102474 1.03546,-0.153713 1.56079,-0.153717 0.52533,4e-6 1.04553,0.05124 1.56067,0.153721 0.5152,0.102474 1.01538,0.254223 1.50067,0.455238 0.48529,0.201019 0.94635,0.447445 1.38312,0.739277 0.43677,0.291832 0.84088,0.623467 1.21234,0.994904 0.37146,0.371437 0.70306,0.775528 0.99487,1.212288 0.29187,0.43676 0.53827,0.897796 0.73926,1.383094 0.20105,0.485306 0.35284,0.985558 0.45532,1.500748 0.10248,0.51519 0.15369,1.035439 0.15375,1.56073 z"
       style="fill:#000000;fill-opacity:1;fill-rule:nonzero;stroke:#000000;stroke-width:1;stroke-linecap:butt;stroke-linejoin:miter;stroke-miterlimit:10;stroke-dasharray:none;stroke-opacity:1"
       transform="matrix(0.91882175,0,0,0.91882175,-504.26947,-44.022269)"
       clip-path="url(#clipPath4)" />
    <path
       id="path5"
       d="m 581,64 h 59 v 15 h -59 z"
       style="fill:#ffffff;fill-opacity:1;fill-rule:nonzero;stroke:none"
       transform="matrix(0.91882175,0,0,0.91882175,-504.72888,-44.481678)"
       clip-path="url(#clipPath6)" />
    <text
       id="text6"
       xml:space="preserve"
       transform="matrix(0.91882175,0,0,0.91882175,29.235768,24.429954)"
       clip-path="url(#clipPath7)"><tspan
         id="tspan6"
         style="font-variant:normal;font-weight:normal;font-size:12px;font-family:Arial;writing-mode:lr-tb;fill:#000000;fill-opacity:1;fill-rule:nonzero;stroke:none"
         x="0"
         y="0">proxy-label</tspan></text>
    <path
       id="path8"
       d="M 560,90 V 50"
       style="fill:none;stroke:#000000;stroke-width:1;stroke-linecap:butt;stroke-linejoin:miter;stroke-miterlimit:10;stroke-dasharray:none;stroke-opacity:1"
       transform="matrix(0.91882175,0,0,0.91882175,-504.26947,-44.022269)"
       clip-path="url(#clipPath9)" />
  </g>
</svg>
