<?xml version="1.0" encoding="UTF-8" standalone="no"?>
<!-- Created with Inkscape (http://www.inkscape.org/) -->

<svg
   version="1.1"
   id="svg1"
   width="450.55997"
   height="16"
   viewBox="0 0 450.55997 16"
   xmlns="http://www.w3.org/2000/svg"
   xmlns:svg="http://www.w3.org/2000/svg">
  <defs
     id="defs1">
    <clipPath
       clipPathUnits="userSpaceOnUse"
       id="clipPath2">
      <path
         d="M 0,0 H 1409 V 50.976563 H 0 Z"
         transform="scale(0.31999999)"
         clip-rule="evenodd"
         id="path2" />
    </clipPath>
    <clipPath
       clipPathUnits="userSpaceOnUse"
       id="clipPath4">
      <path
         d="M 18.75,0 H 1390.625 V 50.976563 H 18.75 Z"
         transform="matrix(0.34362415,0,0,0.34362415,21.758389,1957.9999)"
         clip-rule="evenodd"
         id="path4" />
    </clipPath>
    <clipPath
       clipPathUnits="userSpaceOnUse"
       id="clipPath6">
      <path
         d="M 18.75,0 H 1390.625 V 50.976563 H 18.75 Z"
         transform="matrix(0.34362415,0,0,0.34362415,21.758389,1957.9999)"
         clip-rule="evenodd"
         id="path6" />
    </clipPath>
    <clipPath
       clipPathUnits="userSpaceOnUse"
       id="clipPath7">
      <path
         d="M 18.75,0 H 1390.625 V 50.976563 H 18.75 Z"
         transform="matrix(0.34362415,0,0,0.34362415,-13.538486,-11.500039)"
         clip-rule="evenodd"
         id="path7" />
    </clipPath>
    <clipPath
       clipPathUnits="userSpaceOnUse"
       id="clipPath8">
      <path
         d="M 18.75,0 H 1390.625 V 50.976563 H 18.75 Z"
         transform="matrix(0.34362415,0,0,0.34362415,-352.53849,-11.500039)"
         clip-rule="evenodd"
         id="path8" />
    </clipPath>
  </defs>
  <g
     id="g1">
    <path
       id="path1"
       d="M 0,0 H 451 V 16 H 0 Z"
       style="fill:#ffffff;fill-opacity:1;fill-rule:nonzero;stroke:none"
       clip-path="url(#clipPath2)" />
    <path
       id="path3"
       d="M 160,1966 H 357.76001"
       style="fill:none;stroke:#000000;stroke-width:1;stroke-linecap:butt;stroke-linejoin:miter;stroke-miterlimit:10;stroke-dasharray:none;stroke-opacity:1"
       transform="matrix(0.93124998,0,0,0.93124998,-20.262499,-1823.3874)"
       clip-path="url(#clipPath4)" />
    <path
       id="path5"
       d="m 351.88,1969.5 7,-3.5 -7,-3.5"
       style="fill:none;stroke:#000000;stroke-width:1;stroke-linecap:butt;stroke-linejoin:miter;stroke-miterlimit:10;stroke-dasharray:none;stroke-opacity:1"
       transform="matrix(0.93124998,0,0,0.93124998,-20.262499,-1823.3874)"
       clip-path="url(#clipPath6)" />
    <text
       id="text6"
       xml:space="preserve"
       transform="matrix(0.93124998,0,0,0.93124998,12.607715,10.709411)"
       clip-path="url(#clipPath7)"><tspan
         id="tspan6"
         style="font-variant:normal;font-weight:normal;font-size:12px;font-family:Arial;writing-mode:lr-tb;fill:#000000;fill-opacity:1;fill-rule:nonzero;stroke:none"
         x="0"
         y="0">&amp;state-transition-node</tspan></text>
    <text
       id="text7"
       xml:space="preserve"
       transform="matrix(0.93124998,0,0,0.93124998,328.30146,10.709411)"
       clip-path="url(#clipPath8)"><tspan
         id="tspan7"
         style="font-variant:normal;font-weight:normal;font-size:12px;font-family:Arial;writing-mode:lr-tb;fill:#000000;fill-opacity:1;fill-rule:nonzero;stroke:none"
         x="0"
         y="0">&amp;state-transition-node</tspan></text>
  </g>
</svg>
