<?xml version="1.0" encoding="UTF-8" standalone="no"?>
<!-- Created with Inkscape (http://www.inkscape.org/) -->

<svg
   version="1.1"
   id="svg1"
   width="118.72"
   height="60.16"
   viewBox="0 0 118.72 60.16"
   xmlns="http://www.w3.org/2000/svg"
   xmlns:svg="http://www.w3.org/2000/svg">
  <defs
     id="defs1">
    <clipPath
       clipPathUnits="userSpaceOnUse"
       id="clipPath2">
      <path
         d="M 0,0 H 368.99414 V 189 H 0 Z"
         transform="scale(0.31999999)"
         clip-rule="evenodd"
         id="path2" />
    </clipPath>
    <clipPath
       clipPathUnits="userSpaceOnUse"
       id="clipPath4">
      <path
         d="m 3.125,0 h 362.5 V 187.5 H 3.125 Z"
         transform="matrix(0.34307156,0,0,0.34307156,567.1338,1202.9279)"
         clip-rule="evenodd"
         id="path4" />
    </clipPath>
    <clipPath
       clipPathUnits="userSpaceOnUse"
       id="clipPath6">
      <path
         d="m 3.125,0 h 362.5 V 187.5 H 3.125 Z"
         transform="matrix(0.34307156,0,0,0.34307156,567.63384,1203.4278)"
         clip-rule="evenodd"
         id="path6" />
    </clipPath>
    <clipPath
       clipPathUnits="userSpaceOnUse"
       id="clipPath7">
      <path
         d="m 3.125,0 h 362.5 V 187.5 H 3.125 Z"
         transform="matrix(0.34307156,0,0,0.34307156,-24.366166,-19.572153)"
         clip-rule="evenodd"
         id="path7" />
    </clipPath>
    <clipPath
       clipPathUnits="userSpaceOnUse"
       id="clipPath9">
      <path
         d="m 3.125,0 h 362.5 V 187.5 H 3.125 Z"
         transform="matrix(0.34307156,0,0,0.34307156,567.63384,1203.4278)"
         clip-rule="evenodd"
         id="path9" />
    </clipPath>
    <clipPath
       clipPathUnits="userSpaceOnUse"
       id="clipPath10">
      <path
         d="m 3.125,0 h 362.5 V 187.5 H 3.125 Z"
         transform="matrix(0.34307156,0,0,0.34307156,-13.334916,-40.572152)"
         clip-rule="evenodd"
         id="path10" />
    </clipPath>
  </defs>
  <g
     id="g1">
    <path
       id="path1"
       d="M 0,0 H 118 V 60 H 0 Z"
       style="fill:#ffffff;fill-opacity:1;fill-rule:nonzero;stroke:none"
       clip-path="url(#clipPath2)" />
    <path
       id="path3"
       d="m 579.28003,1205 h 102 c 0.59088,0 1.17615,0.058 1.75574,0.1729 0.57953,0.1153 1.14233,0.286 1.68835,0.512 0.54596,0.2262 1.06458,0.5035 1.55597,0.8318 0.49139,0.3284 0.94598,0.7014 1.36383,1.1193 0.41779,0.4178 0.79089,0.8724 1.11926,1.3638 0.32825,0.4913 0.60547,1.01 0.83167,1.556 0.22613,0.5459 0.39685,1.1086 0.51214,1.6883 0.11536,0.5796 0.17304,1.165 0.17304,1.7559 v 42 c 0,0.5909 -0.0577,1.1762 -0.17304,1.7557 -0.11529,0.5795 -0.28601,1.1423 -0.51214,1.6883 -0.2262,0.546 -0.50342,1.0647 -0.83167,1.556 -0.32837,0.4913 -0.70147,0.946 -1.11926,1.3639 -0.41785,0.4178 -0.87244,0.7908 -1.36383,1.119 -0.49139,0.3284 -1.01001,0.6056 -1.55597,0.8318 -0.54602,0.2261 -1.10882,0.3969 -1.68835,0.5122 -0.57959,0.1154 -1.16486,0.1731 -1.75574,0.1731 h -102 c -0.591,0 -1.17627,-0.058 -1.75586,-0.1731 -0.57965,-0.1153 -1.1424,-0.2861 -1.68835,-0.5122 -0.54596,-0.2262 -1.06464,-0.5034 -1.55597,-0.8318 -0.4914,-0.3282 -0.94599,-0.7012 -1.36377,-1.119 -0.41791,-0.4179 -0.79096,-0.8726 -1.11927,-1.3639 -0.32837,-0.4913 -0.60559,-1.01 -0.83172,-1.556 -0.22614,-0.546 -0.39685,-1.1088 -0.51215,-1.6883 -0.11529,-0.5795 -0.17291,-1.1648 -0.17291,-1.7557 v -42 c 0,-0.5909 0.0576,-1.1763 0.17291,-1.7559 0.1153,-0.5797 0.28601,-1.1424 0.51215,-1.6883 0.22613,-0.546 0.50335,-1.0647 0.83172,-1.556 0.32831,-0.4914 0.70136,-0.946 1.11927,-1.3638 0.41778,-0.4179 0.87237,-0.7909 1.36377,-1.1193 0.49133,-0.3283 1.01001,-0.6056 1.55597,-0.8318 0.54595,-0.226 1.1087,-0.3967 1.68835,-0.512 0.57959,-0.1153 1.16486,-0.1729 1.75586,-0.1729 z"
       style="fill:none;stroke:#000000;stroke-width:1;stroke-linecap:butt;stroke-linejoin:miter;stroke-miterlimit:10;stroke-dasharray:none;stroke-opacity:1"
       transform="matrix(0.93274998,0,0,0.93274998,-528.99404,-1122.031)"
       clip-path="url(#clipPath4)" />
    <path
       id="path5"
       d="m 592,1212 h 75 v 14 h -75 z"
       style="fill:#f8f9fa;fill-opacity:1;fill-rule:nonzero;stroke:none"
       transform="matrix(0.93274998,0,0,0.93274998,-529.46045,-1122.4973)"
       clip-path="url(#clipPath6)" />
    <text
       id="text6"
       xml:space="preserve"
       transform="matrix(0.93274998,0,0,0.93274998,22.727541,18.255925)"
       clip-path="url(#clipPath7)"><tspan
         id="tspan6"
         style="font-variant:normal;font-weight:normal;font-size:12px;font-family:Arial;writing-mode:lr-tb;fill:#000000;fill-opacity:1;fill-rule:nonzero;stroke:none"
         x="0"
         y="0">«stakeholder»</tspan></text>
    <path
       id="path8"
       d="m 581,1233 h 96 v 15 h -96 z"
       style="fill:#ffffff;fill-opacity:1;fill-rule:nonzero;stroke:none"
       transform="matrix(0.93274998,0,0,0.93274998,-529.46045,-1122.4973)"
       clip-path="url(#clipPath9)" />
    <text
       id="text9"
       xml:space="preserve"
       transform="matrix(0.93274998,0,0,0.93274998,12.438143,37.843674)"
       clip-path="url(#clipPath10)"><tspan
         id="tspan9"
         style="font-variant:normal;font-weight:normal;font-size:12px;font-family:Arial;writing-mode:lr-tb;fill:#000000;fill-opacity:1;fill-rule:nonzero;stroke:none"
         x="0"
         y="0">stakeholder-name</tspan></text>
  </g>
</svg>
