<?xml version="1.0" encoding="UTF-8" standalone="no"?>
<!-- Created with Inkscape (http://www.inkscape.org/) -->

<svg
   version="1.1"
   id="svg1"
   width="41.279999"
   height="22.719999"
   viewBox="0 0 41.279999 22.719999"
   xmlns="http://www.w3.org/2000/svg"
   xmlns:svg="http://www.w3.org/2000/svg">
  <defs
     id="defs1">
    <clipPath
       clipPathUnits="userSpaceOnUse"
       id="clipPath2">
      <path
         d="M 0,0 H 129.00391 V 68.994141 H 0 Z"
         transform="scale(0.31999999)"
         clip-rule="evenodd"
         id="path2" />
    </clipPath>
    <clipPath
       clipPathUnits="userSpaceOnUse"
       id="clipPath4">
      <path
         d="M 3.125,0 H 125 V 68.75 H 3.125 Z"
         transform="matrix(0.37191285,0,0,0.37191285,535.65102,2857.8377)"
         clip-rule="evenodd"
         id="path4" />
    </clipPath>
    <clipPath
       clipPathUnits="userSpaceOnUse"
       id="clipPath5">
      <path
         d="M 3.125,0 H 125 V 68.75 H 3.125 Z"
         transform="matrix(0.37191285,0,0,0.37191285,-41.677086,-14.662011)"
         clip-rule="evenodd"
         id="path5" />
    </clipPath>
  </defs>
  <g
     id="g1">
    <path
       id="path1"
       d="M 0,0 H 41 V 22 H 0 Z"
       style="fill:#ffffff;fill-opacity:1;fill-rule:nonzero;stroke:none"
       clip-path="url(#clipPath2)" />
    <path
       id="path3"
       d="m 558.98999,2870 c 0,0.6565 -0.064,1.3069 -0.19214,1.9507 -0.12811,0.6438 -0.31781,1.269 -0.56909,1.8757 -0.25128,0.6067 -0.55933,1.1831 -0.92413,1.7293 -0.36481,0.5459 -0.7793,1.051 -1.24359,1.5153 -0.4643,0.4642 -0.96949,0.8787 -1.51545,1.2432 -0.54596,0.365 -1.12219,0.6731 -1.72882,0.9243 -0.60663,0.2515 -1.23193,0.4412 -1.87591,0.5691 -0.64398,0.1282 -1.29431,0.1924 -1.95087,0.1924 -0.65662,0 -1.30695,-0.064 -1.95093,-0.1921 -0.64398,-0.1282 -1.26935,-0.3179 -1.87597,-0.5691 -0.60663,-0.2513 -1.18287,-0.5594 -1.72882,-0.9243 -0.54596,-0.3648 -1.05109,-0.7793 -1.51539,-1.2435 -0.46429,-0.4643 -0.87884,-0.9694 -1.24365,-1.5156 -0.36481,-0.5459 -0.67279,-1.1223 -0.92407,-1.729 -0.25128,-0.6067 -0.44098,-1.2319 -0.56903,-1.8757 -0.12811,-0.6438 -0.19214,-1.2942 -0.19214,-1.9507 0,-0.6567 0.064,-1.3071 0.19214,-1.9514 0.12805,-0.6441 0.31775,-1.2693 0.56903,-1.8757 0.25128,-0.6067 0.55926,-1.1829 0.92407,-1.7291 0.36481,-0.5459 0.77936,-1.051 1.24365,-1.5151 0.4643,-0.4641 0.96943,-0.8787 1.51539,-1.2436 0.54595,-0.3648 1.12219,-0.6729 1.72882,-0.9241 0.60662,-0.2512 1.23199,-0.4409 1.87597,-0.5691 0.64398,-0.1279 1.29431,-0.1919 1.95093,-0.1919 0.65656,0 1.30689,0.064 1.95087,0.1919 0.64398,0.1282 1.26928,0.3179 1.87591,0.5691 0.60663,0.2512 1.18286,0.5593 1.72882,0.9241 0.54596,0.3649 1.05115,0.7795 1.51545,1.2436 0.46429,0.4641 0.87878,0.9692 1.24359,1.5151 0.3648,0.5462 0.67285,1.1224 0.92413,1.7291 0.25128,0.6064 0.44098,1.2319 0.56909,1.8762 0.12811,0.6438 0.19214,1.2942 0.19214,1.9509 z"
       style="fill:#000000;fill-opacity:1;fill-rule:nonzero;stroke:#000000;stroke-width:1;stroke-linecap:butt;stroke-linejoin:miter;stroke-miterlimit:10;stroke-dasharray:none;stroke-opacity:1"
       transform="matrix(0.8604166,0,0,0.8604166,-460.88303,-2458.931)"
       clip-path="url(#clipPath4)" />
    <g
       id="g4" />
    <text
       id="text4"
       xml:space="preserve"
       transform="matrix(0.8604166,0,0,0.8604166,35.859657,12.615438)"
       clip-path="url(#clipPath5)"><tspan
         id="tspan4"
         style="font-variant:normal;font-weight:normal;font-size:12px;font-family:Arial;writing-mode:lr-tb;fill:#000000;fill-opacity:1;fill-rule:nonzero;stroke:none"
         x="0"
         y="0"> </tspan></text>
  </g>
</svg>
