<?xml version="1.0" encoding="UTF-8" standalone="no"?>
<!-- Created with Inkscape (http://www.inkscape.org/) -->

<svg
   version="1.1"
   id="svg1"
   width="272"
   height="16"
   viewBox="0 0 272 16"
   xmlns="http://www.w3.org/2000/svg"
   xmlns:svg="http://www.w3.org/2000/svg">
  <defs
     id="defs1">
    <clipPath
       clipPathUnits="userSpaceOnUse"
       id="clipPath2">
      <path
         d="M 0,0 H 849.02344 V 50.976563 H 0 Z"
         transform="scale(0.31999999)"
         clip-rule="evenodd"
         id="path2" />
    </clipPath>
    <clipPath
       clipPathUnits="userSpaceOnUse"
       id="clipPath4">
      <path
         d="m 3.125,0 h 843.75 V 50.976563 H 3.125 Z"
         transform="matrix(0.3390068,0,0,0.3390068,116.74659,1438.9999)"
         clip-rule="evenodd"
         id="path4" />
    </clipPath>
    <clipPath
       clipPathUnits="userSpaceOnUse"
       id="clipPath6">
      <path
         d="m 3.125,0 h 843.75 V 50.976563 H 3.125 Z"
         transform="matrix(0.3390068,0,0,0.3390068,117.24659,1439.4999)"
         clip-rule="evenodd"
         id="path6" />
    </clipPath>
    <clipPath
       clipPathUnits="userSpaceOnUse"
       id="clipPath7">
      <path
         d="m 3.125,0 h 843.75 V 50.976563 H 3.125 Z"
         transform="matrix(0.3390068,0,0,0.3390068,-101.94091,-12.50012)"
         clip-rule="evenodd"
         id="path7" />
    </clipPath>
    <clipPath
       clipPathUnits="userSpaceOnUse"
       id="clipPath8">
      <path
         d="m 3.125,0 h 843.75 V 50.976563 H 3.125 Z"
         transform="matrix(0.3390068,0,0,0.3390068,-104.23779,-12.50012)"
         clip-rule="evenodd"
         id="path8" />
    </clipPath>
    <clipPath
       clipPathUnits="userSpaceOnUse"
       id="clipPath9">
      <path
         d="m 3.125,0 h 843.75 V 50.976563 H 3.125 Z"
         transform="matrix(0.3390068,0,0,0.3390068,-154.26904,-12.50012)"
         clip-rule="evenodd"
         id="path9" />
    </clipPath>
    <clipPath
       clipPathUnits="userSpaceOnUse"
       id="clipPath10">
      <path
         d="m 3.125,0 h 843.75 V 50.976563 H 3.125 Z"
         transform="matrix(0.3390068,0,0,0.3390068,-182.28465,-12.50012)"
         clip-rule="evenodd"
         id="path10" />
    </clipPath>
  </defs>
  <g
     id="g1">
    <path
       id="path1"
       d="M 0,0 H 272 V 16 H 0 Z"
       style="fill:#ffffff;fill-opacity:1;fill-rule:nonzero;stroke:none"
       clip-path="url(#clipPath2)" />
    <path
       id="path3"
       d="M 120,1440 H 400"
       style="fill:none;stroke:#000000;stroke-width:1;stroke-linecap:butt;stroke-linejoin:miter;stroke-miterlimit:10;stroke-dasharray:none;stroke-opacity:1"
       transform="matrix(0.94393382,0,0,0.94393382,-110.20105,-1358.3207)"
       clip-path="url(#clipPath4)" />
    <path
       id="path5"
       d="m 219,1441 h 83 v 14 h -83 z"
       style="fill:#ffffff;fill-opacity:1;fill-rule:nonzero;stroke:none"
       transform="matrix(0.94393382,0,0,0.94393382,-110.67302,-1358.7926)"
       clip-path="url(#clipPath6)" />
    <text
       id="text6"
       xml:space="preserve"
       transform="matrix(0.94393382,0,0,0.94393382,96.225471,11.799286)"
       clip-path="url(#clipPath7)"><tspan
         id="tspan6"
         style="font-variant:normal;font-weight:normal;font-size:12px;font-family:Arial;writing-mode:lr-tb;fill:#000000;fill-opacity:1;fill-rule:nonzero;stroke:none"
         x="0"
         y="0">'</tspan></text>
    <text
       id="text7"
       xml:space="preserve"
       transform="matrix(0.94393382,0,0,0.94393382,98.393574,11.799286)"
       clip-path="url(#clipPath8)"><tspan
         id="tspan7"
         style="font-style:italic;font-variant:normal;font-weight:normal;font-size:12px;font-family:Arial;writing-mode:lr-tb;fill:#000000;fill-opacity:1;fill-rule:nonzero;stroke:none"
         x="0"
         y="0">state tran</tspan></text>
    <text
       id="text8"
       xml:space="preserve"
       transform="matrix(0.94393382,0,0,0.94393382,145.61976,11.799286)"
       clip-path="url(#clipPath9)"><tspan
         id="tspan8"
         style="font-style:italic;font-variant:normal;font-weight:normal;font-size:12px;font-family:Arial;writing-mode:lr-tb;fill:#000000;fill-opacity:1;fill-rule:nonzero;stroke:none"
         x="0"
         y="0">sition</tspan></text>
    <text
       id="text9"
       xml:space="preserve"
       transform="matrix(0.94393382,0,0,0.94393382,172.06465,11.799286)"
       clip-path="url(#clipPath10)"><tspan
         id="tspan9"
         style="font-variant:normal;font-weight:normal;font-size:12px;font-family:Arial;writing-mode:lr-tb;fill:#000000;fill-opacity:1;fill-rule:nonzero;stroke:none"
         x="0"
         y="0">'</tspan></text>
  </g>
</svg>
