<?xml version="1.0" encoding="UTF-8" standalone="no"?>
<!-- Created with Inkscape (http://www.inkscape.org/) -->

<svg
   version="1.1"
   id="svg1"
   width="212.15999"
   height="168"
   viewBox="0 0 212.15999 168"
   xmlns="http://www.w3.org/2000/svg"
   xmlns:svg="http://www.w3.org/2000/svg">
  <defs
     id="defs1">
    <clipPath
       clipPathUnits="userSpaceOnUse"
       id="clipPath2">
      <path
         d="M 0,0 H 662.98828 V 525 H 0 Z"
         transform="scale(0.31999999)"
         clip-rule="evenodd"
         id="path2" />
    </clipPath>
    <clipPath
       clipPathUnits="userSpaceOnUse"
       id="clipPath4">
      <path
         d="m 3.125,3.125 h 656.25 v 518.75 H 3.125 Z"
         transform="matrix(0.3390664,0,0,0.3390664,398.87715,1284.8808)"
         clip-rule="evenodd"
         id="path4" />
    </clipPath>
    <clipPath
       clipPathUnits="userSpaceOnUse"
       id="clipPath5">
      <path
         d="m 3.125,3.125 h 656.25 v 518.75 H 3.125 Z"
         transform="matrix(0.3390664,0,0,0.3390664,-44.591655,-20.619201)"
         clip-rule="evenodd"
         id="path5" />
    </clipPath>
    <clipPath
       clipPathUnits="userSpaceOnUse"
       id="clipPath6">
      <path
         d="m 3.125,3.125 h 656.25 v 518.75 H 3.125 Z"
         transform="matrix(0.3390664,0,0,0.3390664,-65.263536,-49.619201)"
         clip-rule="evenodd"
         id="path6" />
    </clipPath>
    <clipPath
       clipPathUnits="userSpaceOnUse"
       id="clipPath7">
      <path
         d="m 3.125,3.125 h 656.25 v 518.75 H 3.125 Z"
         transform="matrix(0.3390664,0,0,0.3390664,-71.919786,-78.619201)"
         clip-rule="evenodd"
         id="path7" />
    </clipPath>
    <clipPath
       clipPathUnits="userSpaceOnUse"
       id="clipPath8">
      <path
         d="m 3.125,3.125 h 656.25 v 518.75 H 3.125 Z"
         transform="matrix(0.3390664,0,0,0.3390664,-58.263536,-106.6192)"
         clip-rule="evenodd"
         id="path8" />
    </clipPath>
    <clipPath
       clipPathUnits="userSpaceOnUse"
       id="clipPath9">
      <path
         d="m 3.125,3.125 h 656.25 v 518.75 H 3.125 Z"
         transform="matrix(0.3390664,0,0,0.3390664,-69.263535,-135.6192)"
         clip-rule="evenodd"
         id="path9" />
    </clipPath>
    <clipPath
       clipPathUnits="userSpaceOnUse"
       id="clipPath10">
      <path
         d="m 3.125,3.125 h 656.25 v 518.75 H 3.125 Z"
         transform="matrix(0.3390664,0,0,0.3390664,-60.607286,-164.6192)"
         clip-rule="evenodd"
         id="path10" />
    </clipPath>
  </defs>
  <g
     id="g1">
    <path
       id="path1"
       d="M 0,0 H 212 V 168 H 0 Z"
       style="fill:#ffffff;fill-opacity:1;fill-rule:nonzero;stroke:none"
       clip-path="url(#clipPath2)" />
    <path
       id="path3"
       d="m 427.79999,1288 h 166.65002 c 0.84503,0 1.68799,0.042 2.52887,0.1244 0.84088,0.083 1.67572,0.2065 2.50446,0.3713 0.82873,0.1649 1.6474,0.37 2.45593,0.6153 0.80859,0.2453 1.60321,0.5296 2.38385,0.8529 0.7807,0.3235 1.54364,0.6843 2.28882,1.0826 0.7453,0.3983 1.46918,0.8323 2.17169,1.3016 0.70258,0.4695 1.38049,0.9723 2.03363,1.5084 0.6532,0.536 1.27857,1.1027 1.87604,1.7001 0.59753,0.5976 1.1643,1.2228 1.70032,1.876 0.53607,0.6532 1.03875,1.331 1.50817,2.0335 0.46949,0.7026 0.90339,1.4265 1.30164,2.1717 0.39838,0.7453 0.75922,1.5083 1.08258,2.289 0.32337,0.7807 0.60773,1.5754 0.85303,2.384 0.2453,0.8085 0.45032,1.6271 0.61517,2.4558 0.16486,0.8287 0.28876,1.6636 0.37158,2.5045 0.0828,0.841 0.12415,1.6839 0.12421,2.529 V 1434.2 c -6e-5,0.8449 -0.0414,1.6878 -0.12421,2.5288 -0.0828,0.8409 -0.20672,1.6756 -0.37158,2.5044 -0.16485,0.8287 -0.36987,1.6474 -0.61517,2.456 -0.2453,0.8086 -0.52966,1.6032 -0.85303,2.3838 -0.32336,0.7808 -0.6842,1.5437 -1.08252,2.2888 -0.39825,0.7453 -0.83215,1.4691 -1.30163,2.1717 -0.46943,0.7026 -0.97217,1.3806 -1.50824,2.0338 -0.53602,0.6532 -1.10279,1.2785 -1.70032,1.8759 -0.59747,0.5976 -1.22284,1.1643 -1.87604,1.7004 -0.65314,0.536 -1.33105,1.0388 -2.03363,1.5081 -0.70251,0.4696 -1.42639,0.9035 -2.17163,1.3018 -0.74524,0.3983 -1.50818,0.7592 -2.28888,1.0824 -0.78064,0.3235 -1.57526,0.6079 -2.38379,0.8531 -0.80859,0.2453 -1.62726,0.4504 -2.45599,0.6152 -0.82874,0.1649 -1.66358,0.2888 -2.50452,0.3715 -0.84088,0.083 -1.68378,0.1243 -2.52881,0.1243 H 427.79999 c -0.84497,0 -1.68793,-0.041 -2.52884,-0.1241 -0.84091,-0.083 -1.67575,-0.2067 -2.50452,-0.3716 -0.82876,-0.1648 -1.64743,-0.3699 -2.45599,-0.6151 -0.80863,-0.2453 -1.60327,-0.5297 -2.38394,-0.8532 -0.78064,-0.3232 -1.54358,-0.6841 -2.28879,-1.0824 -0.74521,-0.3983 -1.46909,-0.8323 -2.17169,-1.3017 -0.70255,-0.4695 -1.38044,-0.9722 -2.0336,-1.5082 -0.65317,-0.5362 -1.27851,-1.1029 -1.87601,-1.7005 -0.5975,-0.5974 -1.16428,-1.2227 -1.70032,-1.8759 -0.53604,-0.6532 -1.03879,-1.3312 -1.50824,-2.0338 -0.46945,-0.7026 -0.90332,-1.4264 -1.30163,-2.1717 -0.39832,-0.7451 -0.75916,-1.508 -1.08252,-2.2888 -0.32334,-0.7806 -0.60767,-1.5752 -0.85294,-2.3838 -0.2453,-0.8086 -0.45038,-1.6273 -0.61523,-2.456 -0.16483,-0.8288 -0.28867,-1.6635 -0.37146,-2.5044 C 402.04141,1435.8878 402,1435.0449 402,1434.2 v -120.3999 c 0,-0.8451 0.0414,-1.688 0.12424,-2.529 0.0828,-0.8409 0.20663,-1.6758 0.37146,-2.5045 0.16488,-0.8287 0.36996,-1.6473 0.61523,-2.4558 0.2453,-0.8086 0.52963,-1.6033 0.85297,-2.384 0.32336,-0.7807 0.6842,-1.5437 1.08252,-2.289 0.39831,-0.7452 0.83218,-1.4691 1.30163,-2.1717 0.46945,-0.7025 0.97223,-1.3803 1.50827,-2.0335 0.53604,-0.6532 1.10279,-1.2784 1.70029,-1.876 0.5975,-0.5974 1.22284,-1.1641 1.87601,-1.7001 0.65316,-0.5361 1.33105,-1.0389 2.0336,-1.5084 0.7026,-0.4693 1.42648,-0.9033 2.17169,-1.3016 0.74521,-0.3983 1.50812,-0.7591 2.28876,-1.0826 0.78067,-0.3233 1.57531,-0.6076 2.38394,-0.8529 0.80859,-0.2453 1.62726,-0.4504 2.45602,-0.6153 0.82877,-0.1648 1.66361,-0.2885 2.50455,-0.3713 0.84091,-0.083 1.68384,-0.1244 2.52881,-0.1244 z"
       style="fill:none;stroke:#000000;stroke-width:1;stroke-linecap:butt;stroke-linejoin:miter;stroke-miterlimit:10;stroke-dasharray:none;stroke-opacity:1"
       transform="matrix(0.9437679,0,0,0.9437679,-376.44745,-1212.6293)"
       clip-path="url(#clipPath4)" />
    <text
       id="text4"
       xml:space="preserve"
       transform="matrix(0.9437679,0,0,0.9437679,42.084173,19.45974)"
       clip-path="url(#clipPath5)"><tspan
         id="tspan4"
         style="font-variant:normal;font-weight:normal;font-size:12px;font-family:Arial;writing-mode:lr-tb;fill:#000000;fill-opacity:1;fill-rule:nonzero;stroke:none"
         x="0"
         y="0">state-name-compartment</tspan></text>
    <text
       id="text5"
       xml:space="preserve"
       transform="matrix(0.9437679,0,0,0.9437679,61.59363,46.829009)"
       clip-path="url(#clipPath6)"><tspan
         id="tspan5"
         style="font-variant:normal;font-weight:normal;font-size:12px;font-family:Arial;writing-mode:lr-tb;fill:#000000;fill-opacity:1;fill-rule:nonzero;stroke:none"
         x="0"
         y="0">state-entry-action</tspan></text>
    <text
       id="text6"
       xml:space="preserve"
       transform="matrix(0.9437679,0,0,0.9437679,67.875585,74.198278)"
       clip-path="url(#clipPath7)"><tspan
         id="tspan6"
         style="font-variant:normal;font-weight:normal;font-size:12px;font-family:Arial;writing-mode:lr-tb;fill:#000000;fill-opacity:1;fill-rule:nonzero;stroke:none"
         x="0"
         y="0">state-do-action</tspan></text>
    <text
       id="text7"
       xml:space="preserve"
       transform="matrix(0.9437679,0,0,0.9437679,54.987255,100.62378)"
       clip-path="url(#clipPath8)"><tspan
         id="tspan7"
         style="font-variant:normal;font-weight:normal;font-size:12px;font-family:Arial;writing-mode:lr-tb;fill:#000000;fill-opacity:1;fill-rule:nonzero;stroke:none"
         x="0"
         y="0">state-transition-view</tspan></text>
    <text
       id="text8"
       xml:space="preserve"
       transform="matrix(0.9437679,0,0,0.9437679,65.368701,127.99305)"
       clip-path="url(#clipPath9)"><tspan
         id="tspan8"
         style="font-variant:normal;font-weight:normal;font-size:12px;font-family:Arial;writing-mode:lr-tb;fill:#000000;fill-opacity:1;fill-rule:nonzero;stroke:none"
         x="0"
         y="0">state-exit-action</tspan></text>
    <text
       id="text9"
       xml:space="preserve"
       transform="matrix(0.9437679,0,0,0.9437679,57.199211,155.36232)"
       clip-path="url(#clipPath10)"><tspan
         id="tspan9"
         style="font-variant:normal;font-weight:normal;font-size:12px;font-family:Arial;writing-mode:lr-tb;fill:#000000;fill-opacity:1;fill-rule:nonzero;stroke:none"
         x="0"
         y="0">compartment-stack</tspan></text>
  </g>
</svg>
