<?xml version="1.0" encoding="UTF-8" standalone="no"?>
<!-- Created with Inkscape (http://www.inkscape.org/) -->

<svg
   version="1.1"
   id="svg1"
   width="212.15999"
   height="89.279999"
   viewBox="0 0 212.15999 89.279999"
   xmlns="http://www.w3.org/2000/svg"
   xmlns:svg="http://www.w3.org/2000/svg">
  <defs
     id="defs1">
    <clipPath
       clipPathUnits="userSpaceOnUse"
       id="clipPath2">
      <path
         d="M 0,0 H 662.98828 V 279.00391 H 0 Z"
         transform="scale(0.31999999)"
         clip-rule="evenodd"
         id="path2" />
    </clipPath>
    <clipPath
       clipPathUnits="userSpaceOnUse"
       id="clipPath4">
      <path
         d="m 3.125,0 h 656.25 V 278.125 H 3.125 Z"
         transform="matrix(0.33907284,0,0,0.33907284,765.25496,1387.9404)"
         clip-rule="evenodd"
         id="path4" />
    </clipPath>
    <clipPath
       clipPathUnits="userSpaceOnUse"
       id="clipPath5">
      <path
         d="m 3.125,0 h 656.25 V 278.125 H 3.125 Z"
         transform="matrix(0.33907284,0,0,0.33907284,-44.213798,-19.55961)"
         clip-rule="evenodd"
         id="path5" />
    </clipPath>
    <clipPath
       clipPathUnits="userSpaceOnUse"
       id="clipPath6">
      <path
         d="m 3.125,0 h 656.25 V 278.125 H 3.125 Z"
         transform="matrix(0.33907284,0,0,0.33907284,-57.885678,-48.55961)"
         clip-rule="evenodd"
         id="path6" />
    </clipPath>
    <clipPath
       clipPathUnits="userSpaceOnUse"
       id="clipPath7">
      <path
         d="m 3.125,0 h 656.25 V 278.125 H 3.125 Z"
         transform="matrix(0.33907284,0,0,0.33907284,-60.229428,-77.55961)"
         clip-rule="evenodd"
         id="path7" />
    </clipPath>
  </defs>
  <g
     id="g1">
    <path
       id="path1"
       d="M 0,0 H 212 V 89 H 0 Z"
       style="fill:#ffffff;fill-opacity:1;fill-rule:nonzero;stroke:none"
       clip-path="url(#clipPath2)" />
    <path
       id="path3"
       d="m 787.88,1389.5 h 3 v 1 h -3 z m 6,0 h 3 v 1 h -3 z m 6,0 h 3 v 1 h -3 z m 6,0 h 3 v 1 h -3 z m 6,0 h 3 v 1 h -3 z m 6,0 h 3 v 1 h -3 z m 6,0 h 3 v 1 h -3 z m 6,0 h 3 v 1 h -3 z m 6,0 h 3 v 1 h -3 z m 6,0 h 3 v 1 h -3 z m 6,0 h 3 v 1 h -3 z m 6,0 h 3 v 1 h -3 z m 6,0 h 3 v 1 h -3 z m 6,0 h 3 v 1 h -3 z m 6,0 h 3 v 1 h -3 z m 6,0 h 3 v 1 h -3 z m 6,0 h 3 v 1 h -3 z m 6,0 h 3 v 1 h -3 z m 6,0 h 3 v 1 h -3 z m 6,0 h 3 v 1 h -3 z m 6,0 h 3 v 1 h -3 z m 6,0 h 3 v 1 h -3 z m 6,0 h 3 v 1 h -3 z m 6,0 h 3 v 1 h -3 z m 6,0 h 3 v 1 h -3 z m 6,0 h 3 v 1 h -3 z m 6,0 h 3 v 1 h -3 z m 6,0 h 3 v 1 h -3 z m 6,0 h 3 v 1 h -3 z m 6,0 h 3 v 1 h -3 z m 6,0 h 3 v 1 h -3 z m 5.9914,0.02 c 1.04077,0.055 2.0625,0.2243 3.06518,0.5076 l -0.27185,0.9625 c -0.93139,-0.2631 -1.88018,-0.4203 -2.84631,-0.4716 l 0.053,-0.9985 z m 5.98334,1.7011 c 0.92505,0.5065 1.78186,1.1098 2.57043,1.8101 l -0.66394,0.7478 c -0.73218,-0.6502 -1.52777,-1.2103 -2.38672,-1.6807 z m 4.68426,4.1653 c 0.60364,0.849 1.10639,1.754 1.50824,2.7152 l -0.92261,0.3858 c -0.3731,-0.8925 -0.83996,-1.7329 -1.40057,-2.5214 z m 2.39551,5.7825 c 0.13031,0.7716 0.19543,1.5487 0.19549,2.3314 v 0.6808 h -1 v -0.6808 c -6e-5,-0.7266 -0.0605,-1.4482 -0.18157,-2.1649 z m 0.19549,6.0122 v 3 h -1 v -3 z m 0,6 v 3 h -1 v -3 z m 0,6 v 3 h -1 v -3 z m 0,6 v 3 h -1 v -3 z m 0,6 v 3 h -1 v -3 z m 0,6 v 3 h -1 v -3 z m 0,6 v 3 h -1 v -3 z m 0,6 v 3 h -1 v -3 z m 0,6 v 3 h -1 v -3 z m 0,6 v 3 h -1 v -3 z m -0.0162,5.9914 c -0.0499,1.0395 -0.21362,2.0605 -0.49121,3.063 l -0.96375,-0.2668 c 0.25776,-0.9308 0.40973,-1.8788 0.45606,-2.844 l 0.9989,0.048 z m -1.67035,5.9894 c -0.50152,0.9272 -1.10016,1.7868 -1.7959,2.5786 l -0.75122,-0.6599 c 0.64594,-0.7352 1.20185,-1.5334 1.6676,-2.3945 z m -4.14032,4.7051 c -0.84625,0.6084 -1.74945,1.1161 -2.70953,1.5231 l -0.39026,-0.9207 c 0.89123,-0.3778 1.72992,-0.8493 2.51605,-1.4144 z m -5.77069,2.4255 c -0.79492,0.1386 -1.59576,0.2078 -2.40247,0.2078 h -0.61169 v -1 h 0.61169 c 0.74927,0 1.49286,-0.064 2.23084,-0.1929 z m -6.01416,0.2078 h -3 v -1 h 3 z m -6,0 h -3 v -1 h 3 z m -6,0 h -3 v -1 h 3 z m -6,0 h -3 v -1 h 3 z m -6,0 h -3 v -1 h 3 z m -6,0 h -3 v -1 h 3 z m -6,0 h -3 v -1 h 3 z m -6,0 h -3 v -1 h 3 z m -6,0 h -3 v -1 h 3 z m -6,0 h -3 v -1 h 3 z m -6,0 h -3 v -1 h 3 z m -6,0 h -3 v -1 h 3 z m -6,0 h -3 v -1 h 3 z m -6,0 h -3 v -1 h 3 z m -6,0 h -3 v -1 h 3 z m -6,0 h -3 v -1 h 3 z m -6,0 h -3 v -1 h 3 z m -6,0 h -3 v -1 h 3 z m -6,0 h -3 v -1 h 3 z m -6,0 h -3 v -1 h 3 z m -6,0 h -3 v -1 h 3 z m -6,0 h -3 v -1 h 3 z m -6,0 h -3 v -1 h 3 z m -6,0 h -3 v -1 h 3 z m -6,0 h -3 v -1 h 3 z m -6,0 h -3 v -1 h 3 z m -6,0 h -3 v -1 h 3 z m -6,0 h -3 v -1 h 3 z m -6,0 h -3 v -1 h 3 z m -6,0 h -3 v -1 h 3 z m -6,0 h -3 v -1 h 3 z m -6,0 h -1.63831 c -0.45318,0 -0.90509,-0.022 -1.35583,-0.066 l 0.0967,-0.9953 c 0.41888,0.041 0.83862,0.061 1.25915,0.061 h 1.63831 v 1 z m -6.07611,-0.7218 c -0.99518,-0.3328 -1.94128,-0.772 -2.83826,-1.3175 l 0.51966,-0.8542 c 0.83245,0.5063 1.71099,0.914 2.63574,1.2232 z m -5.33142,-3.2501 c -0.7591,-0.7394 -1.4256,-1.5547 -1.99963,-2.4457 l 0.84069,-0.5415 c 0.53302,0.8274 1.15192,1.5843 1.85669,2.2709 z m -3.38471,-5.235 c -0.36456,-1.0007 -0.61175,-2.0295 -0.74169,-3.0864 l 0.99255,-0.1221 c 0.12067,0.9817 0.35022,1.9371 0.68872,2.8662 z m -0.84607,-6.0857 v -3 h 1 v 3 z m 0,-6 v -3 h 1 v 3 z m 0,-6 v -3 h 1 v 3 z m 0,-6 v -3 h 1 v 3 z m 0,-6 v -3 h 1 v 3 z m 0,-6 v -3 h 1 v 3 z m 0,-6 v -3 h 1 v 3 z m 0,-6 v -3 h 1 v 3 z m 0,-6 v -3 h 1 v 3 z m 0,-6 v -3 h 1 v 3 z m 0,-6 v -1.7074 c 0,-0.4294 0.0197,-0.8581 0.0592,-1.286 l 0.99573,0.092 c -0.0366,0.397 -0.0549,0.795 -0.0549,1.1942 v 1.7074 h -1 z m 0.69837,-6.074 c 0.3277,-0.998 0.76221,-1.9472 1.30353,-2.8476 l 0.85705,0.5151 c -0.50262,0.8361 -0.90613,1.7177 -1.21051,2.6445 z m 3.22259,-5.3501 c 0.73584,-0.7632 1.54773,-1.4341 2.43567,-2.0128 l 0.54602,0.8379 c -0.82476,0.5375 -1.57873,1.1605 -2.26184,1.869 z m 5.21473,-3.4111 c 1.0003,-0.3706 2.02941,-0.6237 3.08734,-0.759 l 0.12695,0.9919 c -0.98242,0.1259 -1.93805,0.3607 -2.86688,0.7048 z m 4.86431,-0.8722 h 3 v 1 h -3 z"
       style="fill:#000000;fill-opacity:1;fill-rule:nonzero;stroke:none"
       transform="matrix(0.94374998,0,0,0.94374998,-722.20935,-1309.8687)"
       clip-path="url(#clipPath4)" />
    <text
       id="text4"
       xml:space="preserve"
       transform="matrix(0.94374998,0,0,0.94374998,41.726771,18.459382)"
       clip-path="url(#clipPath5)"><tspan
         id="tspan4"
         style="font-variant:normal;font-weight:normal;font-size:12px;font-family:Arial;writing-mode:lr-tb;fill:#000000;fill-opacity:1;fill-rule:nonzero;stroke:none"
         x="0"
         y="0">state-name-compartment</tspan></text>
    <text
       id="text5"
       xml:space="preserve"
       transform="matrix(0.94374998,0,0,0.94374998,54.629607,45.828131)"
       clip-path="url(#clipPath6)"><tspan
         id="tspan5"
         style="font-variant:normal;font-weight:normal;font-size:12px;font-family:Arial;writing-mode:lr-tb;fill:#000000;fill-opacity:1;fill-rule:nonzero;stroke:none"
         x="0"
         y="0">state-transition-view</tspan></text>
    <text
       id="text6"
       xml:space="preserve"
       transform="matrix(0.94374998,0,0,0.94374998,56.841521,73.19688)"
       clip-path="url(#clipPath7)"><tspan
         id="tspan6"
         style="font-variant:normal;font-weight:normal;font-size:12px;font-family:Arial;writing-mode:lr-tb;fill:#000000;fill-opacity:1;fill-rule:nonzero;stroke:none"
         x="0"
         y="0">compartment-stack</tspan></text>
  </g>
</svg>
