<?xml version="1.0" encoding="UTF-8" standalone="no"?>
<!-- Created with Inkscape (http://www.inkscape.org/) -->

<svg
   version="1.1"
   id="svg1"
   width="118.72"
   height="60.16"
   viewBox="0 0 118.72 60.16"
   xmlns="http://www.w3.org/2000/svg"
   xmlns:svg="http://www.w3.org/2000/svg">
  <defs
     id="defs1">
    <clipPath
       clipPathUnits="userSpaceOnUse"
       id="clipPath2">
      <path
         d="M 0,0 H 368.99414 V 189 H 0 Z"
         transform="scale(0.31999999)"
         clip-rule="evenodd"
         id="path2" />
    </clipPath>
    <clipPath
       clipPathUnits="userSpaceOnUse"
       id="clipPath4">
      <path
         d="m 3.125,0 h 362.5 V 187.5 H 3.125 Z"
         transform="matrix(0.34307156,0,0,0.34307156,397.13381,1202.9279)"
         clip-rule="evenodd"
         id="path4" />
    </clipPath>
    <clipPath
       clipPathUnits="userSpaceOnUse"
       id="clipPath6">
      <path
         d="m 3.125,0 h 362.5 V 187.5 H 3.125 Z"
         transform="matrix(0.34307156,0,0,0.34307156,397.6338,1203.4278)"
         clip-rule="evenodd"
         id="path6" />
    </clipPath>
    <clipPath
       clipPathUnits="userSpaceOnUse"
       id="clipPath7">
      <path
         d="m 3.125,0 h 362.5 V 187.5 H 3.125 Z"
         transform="matrix(0.34307156,0,0,0.34307156,-37.366202,-19.572153)"
         clip-rule="evenodd"
         id="path7" />
    </clipPath>
    <clipPath
       clipPathUnits="userSpaceOnUse"
       id="clipPath9">
      <path
         d="m 3.125,0 h 362.5 V 187.5 H 3.125 Z"
         transform="matrix(0.34307156,0,0,0.34307156,397.6338,1203.4278)"
         clip-rule="evenodd"
         id="path9" />
    </clipPath>
    <clipPath
       clipPathUnits="userSpaceOnUse"
       id="clipPath10">
      <path
         d="m 3.125,0 h 362.5 V 187.5 H 3.125 Z"
         transform="matrix(0.34307156,0,0,0.34307156,-26.834952,-40.572152)"
         clip-rule="evenodd"
         id="path10" />
    </clipPath>
  </defs>
  <g
     id="g1">
    <path
       id="path1"
       d="M 0,0 H 118 V 60 H 0 Z"
       style="fill:#ffffff;fill-opacity:1;fill-rule:nonzero;stroke:none"
       clip-path="url(#clipPath2)" />
    <path
       id="path3"
       d="m 409.28,1205 h 102.00003 c 0.59091,0 1.17615,0.058 1.75574,0.1729 0.57959,0.1153 1.14239,0.286 1.68835,0.512 0.54596,0.2262 1.06458,0.5035 1.55597,0.8318 0.49139,0.3284 0.94598,0.7014 1.36389,1.1193 0.41779,0.4178 0.7909,0.8724 1.11926,1.3638 0.32825,0.4913 0.60547,1.01 0.83167,1.556 0.22613,0.5459 0.39685,1.1086 0.51215,1.6883 0.11529,0.5796 0.17297,1.165 0.17297,1.7559 v 42 c 0,0.5909 -0.0577,1.1762 -0.17297,1.7557 -0.1153,0.5795 -0.28602,1.1423 -0.51215,1.6883 -0.2262,0.546 -0.50342,1.0647 -0.83167,1.556 -0.32836,0.4913 -0.70147,0.946 -1.11926,1.3639 -0.41791,0.4178 -0.8725,0.7908 -1.36389,1.119 -0.49139,0.3284 -1.01001,0.6056 -1.55597,0.8318 -0.54596,0.2261 -1.10876,0.3969 -1.68835,0.5122 -0.57959,0.1154 -1.16483,0.1731 -1.75574,0.1731 H 409.28 c -0.59097,0 -1.17624,-0.058 -1.75586,-0.1731 -0.57962,-0.1153 -1.1424,-0.2861 -1.68836,-0.5122 -0.54595,-0.2262 -1.0646,-0.5034 -1.55596,-0.8318 -0.49134,-0.3282 -0.94593,-0.7012 -1.36377,-1.119 -0.41788,-0.4179 -0.79096,-0.8726 -1.1193,-1.3639 -0.32834,-0.4913 -0.60556,-1.01 -0.83169,-1.556 -0.22617,-0.546 -0.39688,-1.1088 -0.51215,-1.6883 -0.11532,-0.5795 -0.17294,-1.1648 -0.17291,-1.7557 v -42 c -3e-5,-0.5909 0.0576,-1.1763 0.17291,-1.7559 0.11527,-0.5797 0.28598,-1.1424 0.51215,-1.6883 0.22613,-0.546 0.50335,-1.0647 0.83169,-1.556 0.32834,-0.4914 0.70142,-0.946 1.1193,-1.3638 0.41784,-0.4179 0.87243,-0.7909 1.3638,-1.1193 0.49136,-0.3283 1.01001,-0.6056 1.55597,-0.8318 0.54592,-0.226 1.10873,-0.3967 1.68835,-0.512 0.57959,-0.1153 1.16486,-0.1729 1.75583,-0.1729 z"
       style="fill:none;stroke:#000000;stroke-width:1;stroke-linecap:butt;stroke-linejoin:miter;stroke-miterlimit:10;stroke-dasharray:none;stroke-opacity:1"
       transform="matrix(0.93274998,0,0,0.93274998,-370.42655,-1122.031)"
       clip-path="url(#clipPath4)" />
    <path
       id="path5"
       d="m 435,1212 h 51 v 14 h -51 z"
       style="fill:#f8f9fa;fill-opacity:1;fill-rule:nonzero;stroke:none"
       transform="matrix(0.93274998,0,0,0.93274998,-370.89292,-1122.4973)"
       clip-path="url(#clipPath6)" />
    <text
       id="text6"
       xml:space="preserve"
       transform="matrix(0.93274998,0,0,0.93274998,34.853324,18.255925)"
       clip-path="url(#clipPath7)"><tspan
         id="tspan6"
         style="font-variant:normal;font-weight:normal;font-size:12px;font-family:Arial;writing-mode:lr-tb;fill:#000000;fill-opacity:1;fill-rule:nonzero;stroke:none"
         x="0"
         y="0">«subject»</tspan></text>
    <path
       id="path8"
       d="m 424,1233 h 73 v 15 h -73 z"
       style="fill:#ffffff;fill-opacity:1;fill-rule:nonzero;stroke:none"
       transform="matrix(0.93274998,0,0,0.93274998,-370.89292,-1122.4973)"
       clip-path="url(#clipPath9)" />
    <text
       id="text9"
       xml:space="preserve"
       transform="matrix(0.93274998,0,0,0.93274998,25.030301,37.843674)"
       clip-path="url(#clipPath10)"><tspan
         id="tspan9"
         style="font-variant:normal;font-weight:normal;font-size:12px;font-family:Arial;writing-mode:lr-tb;fill:#000000;fill-opacity:1;fill-rule:nonzero;stroke:none"
         x="0"
         y="0">subject-name</tspan></text>
  </g>
</svg>
