<?xml version="1.0" encoding="UTF-8" standalone="no"?>
<!-- Created with Inkscape (http://www.inkscape.org/) -->

<svg
   version="1.1"
   id="svg1"
   width="24"
   height="24"
   viewBox="0 0 24 24"
   xmlns="http://www.w3.org/2000/svg"
   xmlns:svg="http://www.w3.org/2000/svg">
  <defs
     id="defs1">
    <clipPath
       clipPathUnits="userSpaceOnUse"
       id="clipPath2">
      <path
         d="M 0,0 H 75 V 75 H 0 Z"
         transform="scale(0.31999999)"
         clip-rule="evenodd"
         id="path2" />
    </clipPath>
    <clipPath
       clipPathUnits="userSpaceOnUse"
       id="clipPath4">
      <path
         d="m 3.125,3.125 h 68.75 v 68.75 H 3.125 Z"
         transform="matrix(0.39628483,0,0,0.39628483,614.59321,2910.5232)"
         clip-rule="evenodd"
         id="path4" />
    </clipPath>
    <clipPath
       clipPathUnits="userSpaceOnUse"
       id="clipPath6">
      <path
         d="m 3.125,3.125 h 68.75 v 68.75 H 3.125 Z"
         transform="matrix(0.39628483,0,0,0.39628483,614.59321,2910.5232)"
         clip-rule="evenodd"
         id="path6" />
    </clipPath>
    <clipPath
       clipPathUnits="userSpaceOnUse"
       id="clipPath8">
      <path
         d="m 3.125,3.125 h 68.75 v 68.75 H 3.125 Z"
         transform="matrix(0.39628483,0,0,0.39628483,614.59321,2910.5232)"
         clip-rule="evenodd"
         id="path8" />
    </clipPath>
  </defs>
  <g
     id="g1">
    <path
       id="path1"
       d="M 0,0 H 24 V 24 H 0 Z"
       style="fill:#ffffff;fill-opacity:1;fill-rule:nonzero;stroke:none"
       clip-path="url(#clipPath2)" />
    <path
       id="path3"
       d="m 640.57001,2925.25 c -6e-5,0.7385 -0.0721,1.4702 -0.21619,2.1946 -0.14416,0.7246 -0.3576,1.428 -0.64026,2.1103 -0.28265,0.6824 -0.62921,1.3304 -1.03955,1.9444 -0.4104,0.6145 -0.87677,1.1828 -1.39911,1.7053 -0.5224,0.5222 -1.09063,0.9885 -1.70483,1.3989 -0.6142,0.4104 -1.26257,0.7571 -1.94501,1.0396 -0.68243,0.2827 -1.38586,0.4963 -2.11035,0.6406 -0.72449,0.1443 -1.45606,0.2163 -2.1947,0.2163 -0.73871,0 -1.47028,-0.072 -2.19483,-0.2163 -0.72455,-0.1443 -1.42804,-0.3579 -2.11047,-0.6406 -0.6825,-0.2825 -1.33081,-0.6292 -1.94501,-1.0396 -0.61419,-0.4104 -1.18243,-0.8767 -1.70471,-1.3989 -0.52228,-0.5225 -0.98865,-1.0908 -1.39905,-1.7053 -0.4104,-0.614 -0.75696,-1.2622 -1.03961,-1.9446 -0.28265,-0.6824 -0.49609,-1.3858 -0.6402,-2.1101 -0.1441,-0.7244 -0.21618,-1.4561 -0.21612,-2.1946 -6e-5,-0.739 0.072,-1.4707 0.21612,-2.1953 0.14411,-0.7246 0.35755,-1.428 0.6402,-2.1104 0.28265,-0.6826 0.62921,-1.331 1.03961,-1.945 0.4104,-0.6143 0.87677,-1.1824 1.39905,-1.7046 0.52228,-0.5222 1.09052,-0.9888 1.70471,-1.3992 0.6142,-0.4104 1.26251,-0.7568 1.94501,-1.0393 0.68243,-0.2827 1.38592,-0.4961 2.11047,-0.6401 0.72455,-0.1441 1.45612,-0.2161 2.19483,-0.2161 0.73864,0 1.47021,0.072 2.1947,0.2161 0.72449,0.144 1.42792,0.3574 2.11035,0.6401 0.68244,0.2825 1.33081,0.6289 1.94501,1.0393 0.6142,0.4104 1.18243,0.877 1.70483,1.3992 0.52234,0.5222 0.98871,1.0903 1.39911,1.7043 0.41034,0.6143 0.7569,1.2627 1.03955,1.9453 0.28266,0.6824 0.4961,1.3858 0.64026,2.1106 0.1441,0.7244 0.21613,1.4561 0.21619,2.1951 z"
       style="fill:#ffffff;fill-opacity:1;fill-rule:nonzero;stroke:#000000;stroke-width:1;stroke-linecap:butt;stroke-linejoin:miter;stroke-miterlimit:10;stroke-dasharray:none;stroke-opacity:1"
       transform="matrix(0.80749997,0,0,0.80749997,-496.284,-2350.2474)"
       clip-path="url(#clipPath4)" />
    <path
       id="path5"
       d="m 621.28003,2933.29 16.07996,-16.08"
       style="fill:none;stroke:#000000;stroke-width:1;stroke-linecap:butt;stroke-linejoin:miter;stroke-miterlimit:10;stroke-dasharray:none;stroke-opacity:1"
       transform="matrix(0.80749997,0,0,0.80749997,-496.284,-2350.2474)"
       clip-path="url(#clipPath6)" />
    <path
       id="path7"
       d="m 621.28003,2917.21 16.07996,16.08"
       style="fill:none;stroke:#000000;stroke-width:1;stroke-linecap:butt;stroke-linejoin:miter;stroke-miterlimit:10;stroke-dasharray:none;stroke-opacity:1"
       transform="matrix(0.80749997,0,0,0.80749997,-496.284,-2350.2474)"
       clip-path="url(#clipPath8)" />
  </g>
</svg>
