<?xml version="1.0" encoding="UTF-8" standalone="no"?>
<!-- Created with Inkscape (http://www.inkscape.org/) -->

<svg
   version="1.1"
   id="svg1"
   width="272"
   height="16"
   viewBox="0 0 272 16"
   xmlns="http://www.w3.org/2000/svg"
   xmlns:svg="http://www.w3.org/2000/svg">
  <defs
     id="defs1">
    <clipPath
       clipPathUnits="userSpaceOnUse"
       id="clipPath2">
      <path
         d="M 0,0 H 849.02344 V 50.976563 H 0 Z"
         transform="scale(0.31999999)"
         clip-rule="evenodd"
         id="path2" />
    </clipPath>
    <clipPath
       clipPathUnits="userSpaceOnUse"
       id="clipPath4">
      <path
         d="m 3.125,0 h 843.75 V 50.976563 H 3.125 Z"
         transform="matrix(0.3390068,0,0,0.3390068,116.74659,558.99995)"
         clip-rule="evenodd"
         id="path4" />
    </clipPath>
    <clipPath
       clipPathUnits="userSpaceOnUse"
       id="clipPath6">
      <path
         d="m 3.125,0 h 843.75 V 50.976563 H 3.125 Z"
         transform="matrix(0.3390068,0,0,0.3390068,117.24659,559.49998)"
         clip-rule="evenodd"
         id="path6" />
    </clipPath>
    <clipPath
       clipPathUnits="userSpaceOnUse"
       id="clipPath7">
      <path
         d="m 3.125,0 h 843.75 V 50.976563 H 3.125 Z"
         transform="matrix(0.3390068,0,0,0.3390068,-114.61279,-12.500017)"
         clip-rule="evenodd"
         id="path7" />
    </clipPath>
    <clipPath
       clipPathUnits="userSpaceOnUse"
       id="clipPath8">
      <path
         d="m 3.125,0 h 843.75 V 50.976563 H 3.125 Z"
         transform="matrix(0.3390068,0,0,0.3390068,-116.90966,-12.500017)"
         clip-rule="evenodd"
         id="path8" />
    </clipPath>
    <clipPath
       clipPathUnits="userSpaceOnUse"
       id="clipPath9">
      <path
         d="m 3.125,0 h 843.75 V 50.976563 H 3.125 Z"
         transform="matrix(0.3390068,0,0,0.3390068,-163.59716,-12.500017)"
         clip-rule="evenodd"
         id="path9" />
    </clipPath>
    <clipPath
       clipPathUnits="userSpaceOnUse"
       id="clipPath10">
      <path
         d="m 3.125,0 h 843.75 V 50.976563 H 3.125 Z"
         transform="matrix(0.3390068,0,0,0.3390068,-169.59715,-12.500017)"
         clip-rule="evenodd"
         id="path10" />
    </clipPath>
  </defs>
  <g
     id="g1">
    <path
       id="path1"
       d="M 0,0 H 272 V 16 H 0 Z"
       style="fill:#ffffff;fill-opacity:1;fill-rule:nonzero;stroke:none"
       clip-path="url(#clipPath2)" />
    <path
       id="path3"
       d="M 120,560 H 400"
       style="fill:none;stroke:#000000;stroke-width:1;stroke-linecap:butt;stroke-linejoin:miter;stroke-miterlimit:10;stroke-dasharray:none;stroke-opacity:1"
       transform="matrix(0.94393382,0,0,0.94393382,-110.20105,-527.65896)"
       clip-path="url(#clipPath4)" />
    <path
       id="path5"
       d="m 232,561 h 57 v 14 h -57 z"
       style="fill:#ffffff;fill-opacity:1;fill-rule:nonzero;stroke:none"
       transform="matrix(0.94393382,0,0,0.94393382,-110.67302,-528.13095)"
       clip-path="url(#clipPath6)" />
    <text
       id="text6"
       xml:space="preserve"
       transform="matrix(0.94393382,0,0,0.94393382,108.18689,11.799189)"
       clip-path="url(#clipPath7)"><tspan
         id="tspan6"
         style="font-variant:normal;font-weight:normal;font-size:12px;font-family:Arial;writing-mode:lr-tb;fill:#000000;fill-opacity:1;fill-rule:nonzero;stroke:none"
         x="0"
         y="0">'</tspan></text>
    <text
       id="text7"
       xml:space="preserve"
       transform="matrix(0.94393382,0,0,0.94393382,110.35498,11.799189)"
       clip-path="url(#clipPath8)"><tspan
         id="tspan7"
         style="font-style:italic;font-variant:normal;font-weight:normal;font-size:12px;font-family:Arial;writing-mode:lr-tb;fill:#000000;fill-opacity:1;fill-rule:nonzero;stroke:none"
         x="0"
         y="0">timeslice</tspan></text>
    <text
       id="text8"
       xml:space="preserve"
       transform="matrix(0.94393382,0,0,0.94393382,154.42489,11.799189)"
       clip-path="url(#clipPath9)"><tspan
         id="tspan8"
         style="font-style:italic;font-variant:normal;font-weight:normal;font-size:12px;font-family:Arial;writing-mode:lr-tb;fill:#000000;fill-opacity:1;fill-rule:nonzero;stroke:none"
         x="0"
         y="0">s</tspan></text>
    <text
       id="text9"
       xml:space="preserve"
       transform="matrix(0.94393382,0,0,0.94393382,160.08849,11.799189)"
       clip-path="url(#clipPath10)"><tspan
         id="tspan9"
         style="font-variant:normal;font-weight:normal;font-size:12px;font-family:Arial;writing-mode:lr-tb;fill:#000000;fill-opacity:1;fill-rule:nonzero;stroke:none"
         x="0"
         y="0">'</tspan></text>
  </g>
</svg>
