<?xml version="1.0" encoding="UTF-8" standalone="no"?>
<!-- Created with Inkscape (http://www.inkscape.org/) -->

<svg
   version="1.1"
   id="svg1"
   width="433.28"
   height="30.719999"
   viewBox="0 0 433.28 30.719999"
   xmlns="http://www.w3.org/2000/svg"
   xmlns:svg="http://www.w3.org/2000/svg">
  <defs
     id="defs1">
    <clipPath
       clipPathUnits="userSpaceOnUse"
       id="clipPath2">
      <path
         d="M 0,0 H 1352.9785 V 95.996094 H 0 Z"
         transform="scale(0.31999999)"
         clip-rule="evenodd"
         id="path2" />
    </clipPath>
    <clipPath
       clipPathUnits="userSpaceOnUse"
       id="clipPath3">
      <path
         d="M 3.125,0 H 1350 V 95.996094 H 3.125 Z"
         transform="matrix(0.33670147,0,0,0.33670147,-20.748556,-24.499958)"
         clip-rule="evenodd"
         id="path3" />
    </clipPath>
    <clipPath
       clipPathUnits="userSpaceOnUse"
       id="clipPath4">
      <path
         d="M 3.125,0 H 1350 V 95.996094 H 3.125 Z"
         transform="matrix(0.33670147,0,0,0.33670147,-328.92044,-24.499958)"
         clip-rule="evenodd"
         id="path4" />
    </clipPath>
    <clipPath
       clipPathUnits="userSpaceOnUse"
       id="clipPath6">
      <path
         d="M 3.125,0 H 1350 V 95.996094 H 3.125 Z"
         transform="matrix(0.33670147,0,0,0.33670147,87.376435,1212.0001)"
         clip-rule="evenodd"
         id="path6" />
    </clipPath>
    <clipPath
       clipPathUnits="userSpaceOnUse"
       id="clipPath8">
      <path
         d="M 3.125,0 H 1350 V 95.996094 H 3.125 Z"
         transform="matrix(0.33670147,0,0,0.33670147,87.376435,1212.0001)"
         clip-rule="evenodd"
         id="path8" />
    </clipPath>
    <clipPath
       clipPathUnits="userSpaceOnUse"
       id="clipPath10">
      <path
         d="M 3.125,0 H 1350 V 95.996094 H 3.125 Z"
         transform="matrix(0.33670147,0,0,0.33670147,87.876444,1212.5)"
         clip-rule="evenodd"
         id="path10" />
    </clipPath>
    <clipPath
       clipPathUnits="userSpaceOnUse"
       id="clipPath11">
      <path
         d="M 3.125,0 H 1350 V 95.996094 H 3.125 Z"
         transform="matrix(0.33670147,0,0,0.33670147,-167.26419,-12.499958)"
         clip-rule="evenodd"
         id="path11" />
    </clipPath>
  </defs>
  <g
     id="g1">
    <path
       id="path1"
       d="M 0,0 H 433 V 31 H 0 Z"
       style="fill:#ffffff;fill-opacity:1;fill-rule:nonzero;stroke:none"
       clip-path="url(#clipPath2)" />
    <text
       id="text2"
       xml:space="preserve"
       transform="matrix(0.95039676,0,0,0.95039676,19.71936,23.284681)"
       clip-path="url(#clipPath3)"><tspan
         id="tspan2"
         style="font-variant:normal;font-weight:normal;font-size:12px;font-family:Arial;writing-mode:lr-tb;fill:#000000;fill-opacity:1;fill-rule:nonzero;stroke:none"
         x="0"
         y="0">&amp;decision-node</tspan></text>
    <text
       id="text3"
       xml:space="preserve"
       transform="matrix(0.95039676,0,0,0.95039676,312.60492,23.284681)"
       clip-path="url(#clipPath4)"><tspan
         id="tspan3"
         style="font-variant:normal;font-weight:normal;font-size:12px;font-family:Arial;writing-mode:lr-tb;fill:#000000;fill-opacity:1;fill-rule:nonzero;stroke:none"
         x="0"
         y="0">&amp;state-transition-node</tspan></text>
    <path
       id="path5"
       d="M 211,1233 H 408.76001"
       style="fill:none;stroke:#000000;stroke-width:1;stroke-linecap:butt;stroke-linejoin:miter;stroke-miterlimit:10;stroke-dasharray:none;stroke-opacity:1"
       transform="matrix(0.95039676,0,0,0.95039676,-83.042281,-1151.881)"
       clip-path="url(#clipPath6)" />
    <path
       id="path7"
       d="m 402.88,1236.5 7,-3.5 -7,-3.5"
       style="fill:none;stroke:#000000;stroke-width:1;stroke-linecap:butt;stroke-linejoin:miter;stroke-miterlimit:10;stroke-dasharray:none;stroke-opacity:1"
       transform="matrix(0.95039676,0,0,0.95039676,-83.042281,-1151.881)"
       clip-path="url(#clipPath8)" />
    <path
       id="path9"
       d="m 255,1214 h 93 v 15 h -93 z"
       style="fill:#ffffff;fill-opacity:1;fill-rule:nonzero;stroke:none"
       transform="matrix(0.95039676,0,0,0.95039676,-83.517488,-1152.3561)"
       clip-path="url(#clipPath10)" />
    <text
       id="text10"
       xml:space="preserve"
       transform="matrix(0.95039676,0,0,0.95039676,158.96734,11.87992)"
       clip-path="url(#clipPath11)"><tspan
         id="tspan10"
         style="font-variant:normal;font-weight:normal;font-size:12px;font-family:Arial;writing-mode:lr-tb;fill:#000000;fill-opacity:1;fill-rule:nonzero;stroke:none"
         x="0"
         y="0">guard-expression</tspan></text>
  </g>
</svg>
