<?xml version="1.0" encoding="UTF-8" standalone="no"?>
<!-- Created with Inkscape (http://www.inkscape.org/) -->

<svg
   version="1.1"
   id="svg1"
   width="433.28"
   height="26.559999"
   viewBox="0 0 433.28 26.559999"
   xmlns="http://www.w3.org/2000/svg"
   xmlns:svg="http://www.w3.org/2000/svg">
  <defs
     id="defs1">
    <clipPath
       clipPathUnits="userSpaceOnUse"
       id="clipPath2">
      <path
         d="M 0,0 H 1352.9785 V 83.984375 H 0 Z"
         transform="scale(0.31999999)"
         clip-rule="evenodd"
         id="path2" />
    </clipPath>
    <clipPath
       clipPathUnits="userSpaceOnUse"
       id="clipPath4">
      <path
         d="M 3.125,0 H 1350 V 83.984375 H 3.125 Z"
         transform="matrix(0.33672342,0,0,0.33672342,87.361571,1155.5)"
         clip-rule="evenodd"
         id="path4" />
    </clipPath>
    <clipPath
       clipPathUnits="userSpaceOnUse"
       id="clipPath6">
      <path
         d="M 3.125,0 H 1350 V 83.984375 H 3.125 Z"
         transform="matrix(0.33672342,0,0,0.33672342,87.361571,1155.5)"
         clip-rule="evenodd"
         id="path6" />
    </clipPath>
    <clipPath
       clipPathUnits="userSpaceOnUse"
       id="clipPath8">
      <path
         d="M 3.125,0 H 1350 V 83.984375 H 3.125 Z"
         transform="matrix(0.33672342,0,0,0.33672342,87.861568,1156)"
         clip-rule="evenodd"
         id="path8" />
    </clipPath>
    <clipPath
       clipPathUnits="userSpaceOnUse"
       id="clipPath9">
      <path
         d="M 3.125,0 H 1350 V 83.984375 H 3.125 Z"
         transform="matrix(0.33672342,0,0,0.33672342,-183.60719,-11.000046)"
         clip-rule="evenodd"
         id="path9" />
    </clipPath>
    <clipPath
       clipPathUnits="userSpaceOnUse"
       id="clipPath10">
      <path
         d="M 3.125,0 H 1350 V 83.984375 H 3.125 Z"
         transform="matrix(0.33672342,0,0,0.33672342,-25.107181,-21.000046)"
         clip-rule="evenodd"
         id="path10" />
    </clipPath>
    <clipPath
       clipPathUnits="userSpaceOnUse"
       id="clipPath11">
      <path
         d="M 3.125,0 H 1350 V 83.984375 H 3.125 Z"
         transform="matrix(0.33672342,0,0,0.33672342,-328.93531,-21.000046)"
         clip-rule="evenodd"
         id="path11" />
    </clipPath>
  </defs>
  <g
     id="g1">
    <path
       id="path1"
       d="M 0,0 H 433 V 27 H 0 Z"
       style="fill:#ffffff;fill-opacity:1;fill-rule:nonzero;stroke:none"
       clip-path="url(#clipPath2)" />
    <path
       id="path3"
       d="M 211,1173 H 408.76001"
       style="fill:none;stroke:#000000;stroke-width:1;stroke-linecap:butt;stroke-linejoin:miter;stroke-miterlimit:10;stroke-dasharray:none;stroke-opacity:1"
       transform="matrix(0.95033481,0,0,0.95033481,-83.022742,-1098.1119)"
       clip-path="url(#clipPath4)" />
    <path
       id="path5"
       d="m 402.88,1176.5 7,-3.5 -7,-3.5"
       style="fill:none;stroke:#000000;stroke-width:1;stroke-linecap:butt;stroke-linejoin:miter;stroke-miterlimit:10;stroke-dasharray:none;stroke-opacity:1"
       transform="matrix(0.95033481,0,0,0.95033481,-83.022742,-1098.1119)"
       clip-path="url(#clipPath6)" />
    <path
       id="path7"
       d="m 271,1156 h 79 v 15 h -79 z"
       style="fill:#ffffff;fill-opacity:1;fill-rule:nonzero;stroke:none"
       transform="matrix(0.95033481,0,0,0.95033481,-83.497907,-1098.587)"
       clip-path="url(#clipPath8)" />
    <text
       id="text8"
       xml:space="preserve"
       transform="matrix(0.95033481,0,0,0.95033481,174.4883,10.453727)"
       clip-path="url(#clipPath9)"><tspan
         id="tspan8"
         style="font-variant:normal;font-weight:normal;font-size:12px;font-family:Arial;writing-mode:lr-tb;fill:#000000;fill-opacity:1;fill-rule:nonzero;stroke:none"
         x="0"
         y="0">transition-label</tspan></text>
    <text
       id="text9"
       xml:space="preserve"
       transform="matrix(0.95033481,0,0,0.95033481,23.860228,19.957075)"
       clip-path="url(#clipPath10)"><tspan
         id="tspan9"
         style="font-variant:normal;font-weight:normal;font-size:12px;font-family:Arial;writing-mode:lr-tb;fill:#000000;fill-opacity:1;fill-rule:nonzero;stroke:none"
         x="0"
         y="0">&amp;state-source</tspan></text>
    <text
       id="text10"
       xml:space="preserve"
       transform="matrix(0.95033481,0,0,0.95033481,312.59868,19.957075)"
       clip-path="url(#clipPath11)"><tspan
         id="tspan10"
         style="font-variant:normal;font-weight:normal;font-size:12px;font-family:Arial;writing-mode:lr-tb;fill:#000000;fill-opacity:1;fill-rule:nonzero;stroke:none"
         x="0"
         y="0">&amp;state-transition-node</tspan></text>
  </g>
</svg>
