<?xml version="1.0" encoding="UTF-8" standalone="no"?>
<!-- Created with Inkscape (http://www.inkscape.org/) -->

<svg
   version="1.1"
   id="svg1"
   width="289.28"
   height="32"
   viewBox="0 0 289.28 32"
   xmlns="http://www.w3.org/2000/svg"
   xmlns:svg="http://www.w3.org/2000/svg">
  <defs
     id="defs1">
    <clipPath
       clipPathUnits="userSpaceOnUse"
       id="clipPath2">
      <path
         d="M 0,0 H 905 V 101 H 0 Z"
         transform="scale(0.31999999)"
         clip-rule="evenodd"
         id="path2" />
    </clipPath>
    <clipPath
       clipPathUnits="userSpaceOnUse"
       id="clipPath3">
      <path
         d="M 3.125,19.266968 H 341.37463 V 101 H 3.125 Z"
         transform="matrix(0.31999999,0,0,0.31999999,-6.8143451,-18.487144)"
         clip-rule="evenodd"
         id="path3" />
    </clipPath>
    <clipPath
       clipPathUnits="userSpaceOnUse"
       id="clipPath4">
      <path
         d="M 617.04102,19.266968 H 895.67151 V 101 H 617.04102 Z"
         transform="matrix(0.31999999,0,0,0.31999999,-203.43935,-18.487144)"
         clip-rule="evenodd"
         id="path4" />
    </clipPath>
    <clipPath
       clipPathUnits="userSpaceOnUse"
       id="clipPath6">
      <path
         d="m 3.125,0 h 900 v 101 h -900 z"
         transform="matrix(0.33736433,0,0,0.33736433,77.332362,555.99997)"
         clip-rule="evenodd"
         id="path6" />
    </clipPath>
    <clipPath
       clipPathUnits="userSpaceOnUse"
       id="clipPath8">
      <path
         d="m 3.125,0 h 900 v 101 h -900 z"
         transform="matrix(0.33736433,0,0,0.33736433,77.332362,555.99997)"
         clip-rule="evenodd"
         id="path8" />
    </clipPath>
  </defs>
  <g
     id="g1">
    <path
       id="path1"
       d="M 0,0 H 290 V 33 H 0 Z"
       style="fill:#ffffff;fill-opacity:1;fill-rule:nonzero;stroke:none"
       clip-path="url(#clipPath2)" />
    <text
       id="text2"
       xml:space="preserve"
       transform="translate(6.8143451,18.487144)"
       clip-path="url(#clipPath3)"><tspan
         id="tspan2"
         style="font-variant:normal;font-weight:normal;font-size:11.38px;font-family:Arial;writing-mode:lr-tb;fill:#000000;fill-opacity:1;fill-rule:nonzero;stroke:none"
         x="0"
         y="0">&amp;namespace-node</tspan></text>
    <text
       id="text3"
       xml:space="preserve"
       transform="translate(203.43935,18.487144)"
       clip-path="url(#clipPath4)"><tspan
         id="tspan3"
         style="font-variant:normal;font-weight:normal;font-size:11.38px;font-family:Arial;writing-mode:lr-tb;fill:#000000;fill-opacity:1;fill-rule:nonzero;stroke:none"
         x="0"
         y="0">&amp;element-node</tspan></text>
    <path
       id="path5"
       d="m 205,572 h 81"
       style="fill:none;stroke:#000000;stroke-width:1;stroke-linecap:butt;stroke-linejoin:miter;stroke-miterlimit:10;stroke-dasharray:none;stroke-opacity:1"
       transform="matrix(0.9485294,0,0,0.9485294,-73.352019,-527.38232)"
       clip-path="url(#clipPath6)" />
    <path
       id="path7"
       d="m 205,572 c -2e-5,0.45959 -0.0448,0.91479 -0.13451,1.3656 -0.0897,0.45075 -0.22245,0.88849 -0.39834,1.31311 -0.17589,0.42462 -0.39151,0.82806 -0.64687,1.21021 -0.25535,0.38214 -0.54553,0.73577 -0.87053,1.06079 -0.32499,0.32501 -0.67859,0.61517 -1.06076,0.87054 -0.38217,0.25537 -0.78558,0.47101 -1.21022,0.64685 -0.42463,0.17591 -0.86236,0.30866 -1.31315,0.39832 -0.45079,0.0897 -0.90601,0.13452 -1.36562,0.13458 -0.45964,-6e-5 -0.91486,-0.0449 -1.36566,-0.13458 -0.45081,-0.0897 -0.88852,-0.22241 -1.31316,-0.39832 -0.42465,-0.17584 -0.82806,-0.39148 -1.21022,-0.64685 -0.38215,-0.25537 -0.73573,-0.54553 -1.06073,-0.87054 -0.325,-0.32502 -0.61519,-0.67865 -0.87056,-1.06079 -0.25535,-0.38215 -0.47098,-0.78559 -0.64686,-1.21021 -0.17589,-0.42462 -0.30866,-0.86236 -0.39833,-1.31311 -0.0897,-0.45081 -0.1345,-0.90601 -0.13448,-1.3656 -2e-5,-0.45966 0.0448,-0.91486 0.13448,-1.36566 0.0897,-0.45087 0.22244,-0.88855 0.39833,-1.31317 0.17588,-0.42462 0.39151,-0.82801 0.64686,-1.21021 0.25537,-0.38214 0.54556,-0.73572 0.87056,-1.06073 0.325,-0.32501 0.67859,-0.61517 1.06075,-0.87054 0.38215,-0.25537 0.78557,-0.47101 1.21022,-0.64685 0.42462,-0.17591 0.86233,-0.30866 1.31314,-0.39832 C 197.08514,565.04486 197.54036,565 198,565 c 0.45961,0 0.91483,0.0449 1.36562,0.13452 0.45079,0.0897 0.88852,0.22241 1.31315,0.39832 0.42464,0.17584 0.82805,0.39148 1.21024,0.64685 0.38215,0.25537 0.73575,0.54553 1.06074,0.87054 0.325,0.32501 0.61518,0.67859 0.87052,1.06073 0.25535,0.3822 0.47097,0.78559 0.64686,1.21021 0.17591,0.42462 0.30869,0.8623 0.39836,1.31317 0.0897,0.4508 0.13449,0.906 0.13451,1.36566 z"
       style="fill:none;stroke:#000000;stroke-width:1;stroke-linecap:butt;stroke-linejoin:miter;stroke-miterlimit:10;stroke-dasharray:none;stroke-opacity:1"
       transform="matrix(0.9485294,0,0,0.9485294,-73.352019,-527.38232)"
       clip-path="url(#clipPath8)" />
  </g>
</svg>
