<?xml version="1.0" encoding="UTF-8" standalone="no"?>
<!-- Created with Inkscape (http://www.inkscape.org/) -->

<svg
   version="1.1"
   id="svg1"
   width="286.72"
   height="128"
   viewBox="0 0 286.72 128"
   xmlns="http://www.w3.org/2000/svg"
   xmlns:svg="http://www.w3.org/2000/svg">
  <defs
     id="defs1">
    <clipPath
       clipPathUnits="userSpaceOnUse"
       id="clipPath2">
      <path
         d="M 0,0 H 893.99414 V 399.02344 H 0 Z"
         transform="scale(0.31999999)"
         clip-rule="evenodd"
         id="path2" />
    </clipPath>
    <clipPath
       clipPathUnits="userSpaceOnUse"
       id="clipPath4">
      <path
         d="m 3.125,0 h 887.5 V 399.02344 H 3.125 Z"
         transform="matrix(0.33729089,0,0,0.33729089,404.38312,2505.416)"
         clip-rule="evenodd"
         id="path4" />
    </clipPath>
    <clipPath
       clipPathUnits="userSpaceOnUse"
       id="clipPath5">
      <path
         d="m 3.125,0 h 887.5 V 399.02344 H 3.125 Z"
         transform="matrix(0.33729089,0,0,0.33729089,-71.741871,-43.083969)"
         clip-rule="evenodd"
         id="path5" />
    </clipPath>
    <clipPath
       clipPathUnits="userSpaceOnUse"
       id="clipPath6">
      <path
         d="m 3.125,0 h 887.5 V 399.02344 H 3.125 Z"
         transform="matrix(0.33729089,0,0,0.33729089,-107.42937,-71.083969)"
         clip-rule="evenodd"
         id="path6" />
    </clipPath>
    <clipPath
       clipPathUnits="userSpaceOnUse"
       id="clipPath7">
      <path
         d="m 3.125,0 h 887.5 V 399.02344 H 3.125 Z"
         transform="matrix(0.33729089,0,0,0.33729089,-99.085621,-100.08397)"
         clip-rule="evenodd"
         id="path7" />
    </clipPath>
    <clipPath
       clipPathUnits="userSpaceOnUse"
       id="clipPath9">
      <path
         d="m 3.125,0 h 887.5 V 399.02344 H 3.125 Z"
         transform="matrix(0.33729089,0,0,0.33729089,404.88313,2505.9161)"
         clip-rule="evenodd"
         id="path9" />
    </clipPath>
    <clipPath
       clipPathUnits="userSpaceOnUse"
       id="clipPath10">
      <path
         d="m 3.125,0 h 887.5 V 399.02344 H 3.125 Z"
         transform="matrix(0.33729089,0,0,0.33729089,-5.4293712,-70.083968)"
         clip-rule="evenodd"
         id="path10" />
    </clipPath>
    <clipPath
       clipPathUnits="userSpaceOnUse"
       id="clipPath12">
      <path
         d="m 3.125,0 h 887.5 V 399.02344 H 3.125 Z"
         transform="matrix(0.33729089,0,0,0.33729089,404.88313,2505.9161)"
         clip-rule="evenodd"
         id="path12" />
    </clipPath>
    <clipPath
       clipPathUnits="userSpaceOnUse"
       id="clipPath13">
      <path
         d="m 3.125,0 h 887.5 V 399.02344 H 3.125 Z"
         transform="matrix(0.33729089,0,0,0.33729089,-248.77312,-70.083968)"
         clip-rule="evenodd"
         id="path13" />
    </clipPath>
    <clipPath
       clipPathUnits="userSpaceOnUse"
       id="clipPath15">
      <path
         d="m 3.125,0 h 887.5 V 399.02344 H 3.125 Z"
         transform="matrix(0.33729089,0,0,0.33729089,404.88313,2505.9161)"
         clip-rule="evenodd"
         id="path15" />
    </clipPath>
    <clipPath
       clipPathUnits="userSpaceOnUse"
       id="clipPath16">
      <path
         d="m 3.125,0 h 887.5 V 399.02344 H 3.125 Z"
         transform="matrix(0.33729089,0,0,0.33729089,-121.10125,-125.08396)"
         clip-rule="evenodd"
         id="path16" />
    </clipPath>
    <clipPath
       clipPathUnits="userSpaceOnUse"
       id="clipPath18">
      <path
         d="m 3.125,0 h 887.5 V 399.02344 H 3.125 Z"
         transform="matrix(0.33729089,0,0,0.33729089,404.88313,2505.9161)"
         clip-rule="evenodd"
         id="path18" />
    </clipPath>
    <clipPath
       clipPathUnits="userSpaceOnUse"
       id="clipPath19">
      <path
         d="m 3.125,0 h 887.5 V 399.02344 H 3.125 Z"
         transform="matrix(0.33729089,0,0,0.33729089,-122.77312,-17.083969)"
         clip-rule="evenodd"
         id="path19" />
    </clipPath>
  </defs>
  <g
     id="g1">
    <path
       id="path1"
       d="M 0,0 H 286 V 128 H 0 Z"
       style="fill:#ffffff;fill-opacity:1;fill-rule:nonzero;stroke:none"
       clip-path="url(#clipPath2)" />
    <path
       id="path3"
       d="m 468.13998,2520 h 172.47001 c 0.80499,0 1.60809,0.04 2.4093,0.1184 0.80108,0.079 1.59643,0.197 2.38598,0.354 0.78962,0.157 1.56958,0.3526 2.33991,0.5862 0.77038,0.2336 1.5274,0.5046 2.27112,0.8125 0.74377,0.3081 1.47064,0.6518 2.1806,1.0315 0.70996,0.3794 1.3996,0.7927 2.06897,1.2397 0.66937,0.4475 1.31525,0.9265 1.9375,1.437 0.62231,0.5108 1.21808,1.0508 1.78729,1.6199 0.56928,0.5694 1.10925,1.1653 1.61994,1.7876 0.51068,0.6223 0.98962,1.2681 1.43682,1.9373 0.44727,0.6694 0.86066,1.3591 1.24018,2.0691 0.37945,0.7099 0.72326,1.4367 1.03131,2.1804 0.3081,0.7439 0.57898,1.5012 0.81262,2.2715 0.2337,0.7705 0.42902,1.5505 0.58606,2.3398 0.15704,0.7898 0.27509,1.5852 0.354,2.3862 0.0789,0.8011 0.11835,1.604 0.11841,2.409 v 57.7099 c -6e-5,0.8052 -0.0395,1.6082 -0.11841,2.4092 -0.0789,0.801 -0.19696,1.5965 -0.354,2.3858 -0.15704,0.7898 -0.35236,1.5698 -0.58606,2.34 -0.23364,0.7703 -0.50452,1.5274 -0.81262,2.271 -0.30805,0.7439 -0.65186,1.4707 -1.03131,2.181 -0.37952,0.7099 -0.79291,1.3996 -1.24018,2.0688 -0.4472,0.6694 -0.92614,1.3152 -1.43682,1.9375 -0.51075,0.6226 -1.05072,1.2183 -1.62,1.7874 -0.56921,0.569 -1.16498,1.1091 -1.78723,1.6198 -0.62232,0.511 -1.26819,0.99 -1.93756,1.437 -0.66931,0.4473 -1.35895,0.8606 -2.06891,1.24 -0.70996,0.3797 -1.43683,0.7234 -2.1806,1.0313 -0.74372,0.3081 -1.50074,0.5791 -2.27112,0.813 -0.77033,0.2336 -1.55036,0.4287 -2.33997,0.5857 -0.78955,0.1572 -1.58484,0.2754 -2.38592,0.3542 -0.80121,0.079 -1.60431,0.1184 -2.4093,0.1184 H 468.13998 c -0.80502,0 -1.60809,-0.04 -2.40924,-0.1184 -0.80114,-0.079 -1.59652,-0.197 -2.3861,-0.3542 -0.78956,-0.157 -1.56949,-0.3521 -2.33985,-0.5857 -0.77035,-0.2339 -1.52743,-0.5049 -2.27121,-0.813 -0.74374,-0.3079 -1.47058,-0.6516 -2.18057,-1.0313 -0.70993,-0.3794 -1.3996,-0.7927 -2.06897,-1.24 -0.66934,-0.447 -1.31516,-0.926 -1.93744,-1.437 -0.62228,-0.5107 -1.21808,-1.0508 -1.78732,-1.6198 -0.56922,-0.5691 -1.10919,-1.1648 -1.61991,-1.7872 -0.51068,-0.6223 -0.98965,-1.2683 -1.43692,-1.9377 -0.44723,-0.6692 -0.86059,-1.3589 -1.24008,-2.0688 -0.37948,-0.7103 -0.72326,-1.4371 -1.03134,-2.181 -0.30807,-0.7436 -0.57895,-1.5007 -0.81262,-2.271 -0.23367,-0.7702 -0.42908,-1.5502 -0.58615,-2.34 -0.15702,-0.7893 -0.275,-1.5848 -0.35392,-2.3858 -0.0789,-0.801 -0.11831,-1.604 -0.11834,-2.4092 v -57.7099 c 3e-5,-0.805 0.0395,-1.6079 0.11834,-2.409 0.0789,-0.801 0.1969,-1.5964 0.35392,-2.3862 0.15707,-0.7893 0.35241,-1.5693 0.58609,-2.3398 0.23367,-0.7703 0.50454,-1.5276 0.81262,-2.2715 0.30807,-0.7437 0.65189,-1.4705 1.03137,-2.1807 0.37949,-0.7097 0.79285,-1.3994 1.24008,-2.0688 0.44727,-0.6692 0.92624,-1.315 1.43695,-1.9373 0.51072,-0.6223 1.05069,-1.2182 1.61994,-1.7876 0.56924,-0.5691 1.16501,-1.1091 1.78732,-1.6199 0.62228,-0.5105 1.2681,-0.9895 1.93744,-1.437 0.66934,-0.447 1.35901,-0.8603 2.069,-1.2397 0.70996,-0.3797 1.4368,-0.7234 2.18054,-1.0315 0.74375,-0.3079 1.50083,-0.5789 2.27118,-0.8125 0.77036,-0.2336 1.55032,-0.4292 2.33985,-0.5862 0.78958,-0.157 1.58496,-0.2751 2.3861,-0.354 0.80115,-0.079 1.60422,-0.1184 2.40924,-0.1184 z"
       style="fill:#ffffff;fill-opacity:1;fill-rule:nonzero;stroke:#000000;stroke-width:1;stroke-linecap:butt;stroke-linejoin:miter;stroke-miterlimit:10;stroke-dasharray:none;stroke-opacity:1"
       transform="matrix(0.94873593,0,0,0.94873593,-383.6528,-2376.9782)"
       clip-path="url(#clipPath4)" />
    <text
       id="text4"
       xml:space="preserve"
       transform="matrix(0.94873593,0,0,0.94873593,68.064091,40.875309)"
       clip-path="url(#clipPath5)"><tspan
         id="tspan4"
         style="font-variant:normal;font-weight:normal;font-size:12px;font-family:Arial;writing-mode:lr-tb;fill:#000000;fill-opacity:1;fill-rule:nonzero;stroke:none"
         x="0"
         y="0">use-case-name-compartment</tspan></text>
    <text
       id="text5"
       xml:space="preserve"
       transform="matrix(0.94873593,0,0,0.94873593,101.9221,67.439915)"
       clip-path="url(#clipPath6)"><tspan
         id="tspan5"
         style="font-variant:normal;font-weight:normal;font-size:12px;font-family:Arial;writing-mode:lr-tb;fill:#000000;fill-opacity:1;fill-rule:nonzero;stroke:none"
         x="0"
         y="0">action-flow-view</tspan></text>
    <text
       id="text6"
       xml:space="preserve"
       transform="matrix(0.94873593,0,0,0.94873593,94.006089,94.953257)"
       clip-path="url(#clipPath7)"><tspan
         id="tspan6"
         style="font-variant:normal;font-weight:normal;font-size:12px;font-family:Arial;writing-mode:lr-tb;fill:#000000;fill-opacity:1;fill-rule:nonzero;stroke:none"
         x="0"
         y="0">compartment-stack</tspan></text>
    <path
       id="path8"
       d="m 410,2565 h 46 v 15 h -46 z"
       style="fill:#ffffff;fill-opacity:1;fill-rule:nonzero;stroke:none"
       transform="matrix(0.94873593,0,0,0.94873593,-384.12717,-2377.4526)"
       clip-path="url(#clipPath9)" />
    <text
       id="text9"
       xml:space="preserve"
       transform="matrix(0.94873593,0,0,0.94873593,5.1510395,66.491179)"
       clip-path="url(#clipPath10)"><tspan
         id="tspan9"
         style="font-variant:normal;font-weight:normal;font-size:12px;font-family:Arial;writing-mode:lr-tb;fill:#000000;fill-opacity:1;fill-rule:nonzero;stroke:none"
         x="0"
         y="0">param-l*</tspan></text>
    <path
       id="path11"
       d="m 654,2565 h 46 v 15 h -46 z"
       style="fill:#ffffff;fill-opacity:1;fill-rule:nonzero;stroke:none"
       transform="matrix(0.94873593,0,0,0.94873593,-384.12717,-2377.4526)"
       clip-path="url(#clipPath12)" />
    <text
       id="text12"
       xml:space="preserve"
       transform="matrix(0.94873593,0,0,0.94873593,236.02,66.491179)"
       clip-path="url(#clipPath13)"><tspan
         id="tspan12"
         style="font-variant:normal;font-weight:normal;font-size:12px;font-family:Arial;writing-mode:lr-tb;fill:#000000;fill-opacity:1;fill-rule:nonzero;stroke:none"
         x="0"
         y="0">param-r*</tspan></text>
    <path
       id="path14"
       d="m 526,2620 h 56 v 15 h -56 z"
       style="fill:#ffffff;fill-opacity:1;fill-rule:nonzero;stroke:none"
       transform="matrix(0.94873593,0,0,0.94873593,-384.12717,-2377.4526)"
       clip-path="url(#clipPath15)" />
    <g
       id="g15" />
    <g
       id="g16" />
    <text
       id="text16"
       xml:space="preserve"
       transform="matrix(0.94873593,0,0,0.94873593,114.89311,118.67165)"
       clip-path="url(#clipPath16)"><tspan
         id="tspan16"
         style="font-variant:normal;font-weight:normal;font-size:12px;font-family:Arial;writing-mode:lr-tb;fill:#000000;fill-opacity:1;fill-rule:nonzero;stroke:none"
         x="0"
         y="0"> param-b* </tspan></text>
    <path
       id="path17"
       d="m 528,2512 h 52 v 15 h -52 z"
       style="fill:#ffffff;fill-opacity:1;fill-rule:nonzero;stroke:none"
       transform="matrix(0.94873593,0,0,0.94873593,-384.12717,-2377.4526)"
       clip-path="url(#clipPath18)" />
    <g
       id="g18" />
    <g
       id="g19" />
    <text
       id="text19"
       xml:space="preserve"
       transform="matrix(0.94873593,0,0,0.94873593,116.47927,16.208175)"
       clip-path="url(#clipPath19)"><tspan
         id="tspan19"
         style="font-variant:normal;font-weight:normal;font-size:12px;font-family:Arial;writing-mode:lr-tb;fill:#000000;fill-opacity:1;fill-rule:nonzero;stroke:none"
         x="0"
         y="0"> param-t* </tspan></text>
  </g>
</svg>
