<?xml version="1.0" encoding="UTF-8" standalone="no"?>
<!-- Created with Inkscape (http://www.inkscape.org/) -->

<svg
   version="1.1"
   id="svg1"
   width="256"
   height="104"
   viewBox="0 0 256 104"
   xmlns="http://www.w3.org/2000/svg"
   xmlns:svg="http://www.w3.org/2000/svg">
  <defs
     id="defs1">
    <clipPath
       clipPathUnits="userSpaceOnUse"
       id="clipPath2">
      <path
         d="M 0,0 H 800.97656 V 326 H 0 Z"
         transform="scale(0.31999999)"
         clip-rule="evenodd"
         id="path2" />
    </clipPath>
    <clipPath
       clipPathUnits="userSpaceOnUse"
       id="clipPath4">
      <path
         d="m 3.125,0 h 793.75 V 326 H 3.125 Z"
         transform="matrix(0.33830202,0,0,0.33830202,436.88489,1768.9729)"
         clip-rule="evenodd"
         id="path4" />
    </clipPath>
    <clipPath
       clipPathUnits="userSpaceOnUse"
       id="clipPath5">
      <path
         d="m 3.125,0 h 793.75 V 326 H 3.125 Z"
         transform="matrix(0.33830202,0,0,0.33830202,-32.240093,-44.52715)"
         clip-rule="evenodd"
         id="path5" />
    </clipPath>
    <clipPath
       clipPathUnits="userSpaceOnUse"
       id="clipPath6">
      <path
         d="m 3.125,0 h 793.75 V 326 H 3.125 Z"
         transform="matrix(0.33830202,0,0,0.33830202,-83.583843,-73.52715)"
         clip-rule="evenodd"
         id="path6" />
    </clipPath>
  </defs>
  <g
     id="g1">
    <path
       id="path1"
       d="M 0,0 H 256 V 105 H 0 Z"
       style="fill:#ffffff;fill-opacity:1;fill-rule:nonzero;stroke:none"
       clip-path="url(#clipPath2)" />
    <path
       id="path3"
       d="m 464.57999,1771.03 h 215.28 c 0.80505,2e-4 1.60815,0.04 2.40924,0.1184 0.80108,0.079 1.59643,0.1969 2.38598,0.3538 0.78961,0.1571 1.56958,0.3525 2.33991,0.5861 0.77038,0.2337 1.52746,0.5046 2.27118,0.8126 0.74377,0.3082 1.47064,0.652 2.1806,1.0315 0.70996,0.3794 1.3996,0.7927 2.06897,1.2398 0.66937,0.4474 1.31525,0.9266 1.9375,1.4372 0.62231,0.5106 1.21808,1.0505 1.78729,1.6197 0.56928,0.5692 1.10919,1.1651 1.61987,1.7874 0.51075,0.6222 0.98969,1.268 1.43689,1.9374 0.44733,0.6694 0.86066,1.3591 1.24012,2.069 0.37951,0.71 0.72326,1.4368 1.03131,2.1805 0.3081,0.7439 0.57898,1.5009 0.81268,2.2713 0.2337,0.7703 0.42908,1.5502 0.58606,2.3398 0.1571,0.7896 0.27515,1.585 0.35407,2.3862 0.0789,0.8011 0.1184,1.6042 0.11834,2.4093 v 57.7101 c 6e-5,0.805 -0.0394,1.608 -0.11834,2.4091 -0.0789,0.8012 -0.1969,1.5965 -0.35401,2.3859 -0.15704,0.7897 -0.35235,1.5697 -0.58606,2.34 -0.2337,0.7704 -0.50458,1.5273 -0.81268,2.271 -0.30805,0.7437 -0.6518,1.4707 -1.03137,2.1805 -0.37946,0.7101 -0.79279,1.3997 -1.24012,2.069 -0.4472,0.6694 -0.92614,1.3153 -1.43682,1.9376 -0.51069,0.6224 -1.05066,1.2181 -1.61994,1.7874 -0.56921,0.5692 -1.16498,1.1092 -1.78729,1.6198 -0.62225,0.5108 -1.26813,0.9898 -1.9375,1.4369 -0.66937,0.4474 -1.35901,0.8607 -2.06891,1.2401 -0.71002,0.3796 -1.43689,0.7234 -2.18066,1.0314 -0.74372,0.3082 -1.5008,0.5791 -2.27118,0.8129 -0.77033,0.2336 -1.5503,0.4289 -2.33991,0.5859 -0.78955,0.1572 -1.58484,0.2753 -2.38592,0.3541 -0.80115,0.079 -1.60425,0.1183 -2.4093,0.1183 h -215.28 c -0.80503,0 -1.6081,-0.039 -2.40924,-0.1183 -0.80118,-0.079 -1.59656,-0.1969 -2.38614,-0.3541 -0.78952,-0.157 -1.56946,-0.3523 -2.33985,-0.5859 -0.77035,-0.2338 -1.52743,-0.5047 -2.27118,-0.8129 -0.74374,-0.308 -1.47058,-0.6518 -2.18054,-1.0314 -0.70999,-0.3794 -1.39966,-0.7927 -2.069,-1.2401 -0.66934,-0.4471 -1.31515,-0.9261 -1.93744,-1.4369 -0.62231,-0.5106 -1.21808,-1.0506 -1.78732,-1.6198 -0.56924,-0.5693 -1.10919,-1.165 -1.6199,-1.7874 -0.51072,-0.6223 -0.98969,-1.2682 -1.43695,-1.9376 -0.44724,-0.6693 -0.8606,-1.3589 -1.24009,-2.0689 -0.37948,-0.7099 -0.72326,-1.4367 -1.03134,-2.1805 -0.30807,-0.7437 -0.57892,-1.5006 -0.81259,-2.271 -0.23367,-0.7704 -0.42908,-1.5503 -0.58615,-2.34 -0.15701,-0.7894 -0.27499,-1.5848 -0.35391,-2.386 C 440.03945,1854.9281 440,1854.1251 440,1853.3201 V 1795.61 c 0,-0.8051 0.0395,-1.6082 0.11835,-2.4093 0.0789,-0.8012 0.1969,-1.5966 0.35391,-2.3861 0.15707,-0.7896 0.35245,-1.5695 0.58612,-2.3397 0.23367,-0.7704 0.50455,-1.5276 0.81259,-2.2715 0.30808,-0.7437 0.65186,-1.4705 1.03134,-2.1805 0.37949,-0.7098 0.79285,-1.3995 1.24009,-2.0688 0.44726,-0.6693 0.92623,-1.3152 1.43695,-1.9374 0.51071,-0.6224 1.05069,-1.2182 1.6199,-1.7875 0.56924,-0.5692 1.16501,-1.1091 1.78729,-1.6197 0.62232,-0.5107 1.26813,-0.9897 1.93747,-1.4371 0.66937,-0.4472 1.35904,-0.8605 2.069,-1.24 0.70996,-0.3794 1.4368,-0.7232 2.18054,-1.0314 0.74378,-0.308 1.50086,-0.5789 2.27121,-0.8125 0.77036,-0.2336 1.55033,-0.4291 2.33985,-0.5862 0.78958,-0.157 1.58496,-0.2749 2.38611,-0.3539 0.80117,-0.079 1.60424,-0.1182 2.40927,-0.1184 z"
       style="fill:#ffffff;fill-opacity:1;fill-rule:nonzero;stroke:#000000;stroke-width:1;stroke-linecap:butt;stroke-linejoin:miter;stroke-miterlimit:10;stroke-dasharray:none;stroke-opacity:1"
       transform="matrix(0.94590031,0,0,0.94590031,-413.24955,-1673.272)"
       clip-path="url(#clipPath4)" />
    <text
       id="text4"
       xml:space="preserve"
       transform="matrix(0.94590031,0,0,0.94590031,30.495914,42.118245)"
       clip-path="url(#clipPath5)"><tspan
         id="tspan4"
         style="font-variant:normal;font-weight:normal;font-size:12px;font-family:Arial;writing-mode:lr-tb;fill:#000000;fill-opacity:1;fill-rule:nonzero;stroke:none"
         x="0"
         y="0">verify-requirement-name-compartment</tspan></text>
    <text
       id="text5"
       xml:space="preserve"
       transform="matrix(0.94590031,0,0,0.94590031,79.061983,69.549354)"
       clip-path="url(#clipPath6)"><tspan
         id="tspan5"
         style="font-variant:normal;font-weight:normal;font-size:12px;font-family:Arial;writing-mode:lr-tb;fill:#000000;fill-opacity:1;fill-rule:nonzero;stroke:none"
         x="0"
         y="0">compartment-stack</tspan></text>
  </g>
</svg>
