<?xml version="1.0" encoding="UTF-8" standalone="no"?>
<!-- Created with Inkscape (http://www.inkscape.org/) -->

<svg
   version="1.1"
   id="svg1"
   width="286.72"
   height="128"
   viewBox="0 0 286.72 128"
   xmlns="http://www.w3.org/2000/svg"
   xmlns:svg="http://www.w3.org/2000/svg">
  <defs
     id="defs1">
    <clipPath
       clipPathUnits="userSpaceOnUse"
       id="clipPath2">
      <path
         d="M 0,0 H 893.99414 V 399.02344 H 0 Z"
         transform="scale(0.31999999)"
         clip-rule="evenodd"
         id="path2" />
    </clipPath>
    <clipPath
       clipPathUnits="userSpaceOnUse"
       id="clipPath4">
      <path
         d="m 3.125,0 h 887.5 V 399.02344 H 3.125 Z"
         transform="matrix(0.33729089,0,0,0.33729089,403.38315,2375.4159)"
         clip-rule="evenodd"
         id="path4" />
    </clipPath>
    <clipPath
       clipPathUnits="userSpaceOnUse"
       id="clipPath5">
      <path
         d="m 3.125,0 h 887.5 V 399.02344 H 3.125 Z"
         transform="matrix(0.33729089,0,0,0.33729089,-67.413724,-43.084108)"
         clip-rule="evenodd"
         id="path5" />
    </clipPath>
    <clipPath
       clipPathUnits="userSpaceOnUse"
       id="clipPath6">
      <path
         d="m 3.125,0 h 887.5 V 399.02344 H 3.125 Z"
         transform="matrix(0.33729089,0,0,0.33729089,-107.42935,-71.084108)"
         clip-rule="evenodd"
         id="path6" />
    </clipPath>
    <clipPath
       clipPathUnits="userSpaceOnUse"
       id="clipPath7">
      <path
         d="m 3.125,0 h 887.5 V 399.02344 H 3.125 Z"
         transform="matrix(0.33729089,0,0,0.33729089,-99.101224,-100.08411)"
         clip-rule="evenodd"
         id="path7" />
    </clipPath>
    <clipPath
       clipPathUnits="userSpaceOnUse"
       id="clipPath9">
      <path
         d="m 3.125,0 h 887.5 V 399.02344 H 3.125 Z"
         transform="matrix(0.33729089,0,0,0.33729089,403.88315,2375.9159)"
         clip-rule="evenodd"
         id="path9" />
    </clipPath>
    <clipPath
       clipPathUnits="userSpaceOnUse"
       id="clipPath10">
      <path
         d="m 3.125,0 h 887.5 V 399.02344 H 3.125 Z"
         transform="matrix(0.33729089,0,0,0.33729089,-5.4293442,-70.084108)"
         clip-rule="evenodd"
         id="path10" />
    </clipPath>
    <clipPath
       clipPathUnits="userSpaceOnUse"
       id="clipPath12">
      <path
         d="m 3.125,0 h 887.5 V 399.02344 H 3.125 Z"
         transform="matrix(0.33729089,0,0,0.33729089,403.88315,2375.9159)"
         clip-rule="evenodd"
         id="path12" />
    </clipPath>
    <clipPath
       clipPathUnits="userSpaceOnUse"
       id="clipPath13">
      <path
         d="m 3.125,0 h 887.5 V 399.02344 H 3.125 Z"
         transform="matrix(0.33729089,0,0,0.33729089,-248.77309,-70.084108)"
         clip-rule="evenodd"
         id="path13" />
    </clipPath>
    <clipPath
       clipPathUnits="userSpaceOnUse"
       id="clipPath15">
      <path
         d="m 3.125,0 h 887.5 V 399.02344 H 3.125 Z"
         transform="matrix(0.33729089,0,0,0.33729089,403.88315,2375.9159)"
         clip-rule="evenodd"
         id="path15" />
    </clipPath>
    <clipPath
       clipPathUnits="userSpaceOnUse"
       id="clipPath16">
      <path
         d="m 3.125,0 h 887.5 V 399.02344 H 3.125 Z"
         transform="matrix(0.33729089,0,0,0.33729089,-121.10122,-125.08411)"
         clip-rule="evenodd"
         id="path16" />
    </clipPath>
    <clipPath
       clipPathUnits="userSpaceOnUse"
       id="clipPath18">
      <path
         d="m 3.125,0 h 887.5 V 399.02344 H 3.125 Z"
         transform="matrix(0.33729089,0,0,0.33729089,403.88315,2375.9159)"
         clip-rule="evenodd"
         id="path18" />
    </clipPath>
    <clipPath
       clipPathUnits="userSpaceOnUse"
       id="clipPath19">
      <path
         d="m 3.125,0 h 887.5 V 399.02344 H 3.125 Z"
         transform="matrix(0.33729089,0,0,0.33729089,-122.7731,-17.084108)"
         clip-rule="evenodd"
         id="path19" />
    </clipPath>
  </defs>
  <g
     id="g1">
    <path
       id="path1"
       d="M 0,0 H 286 V 128 H 0 Z"
       style="fill:#ffffff;fill-opacity:1;fill-rule:nonzero;stroke:none"
       clip-path="url(#clipPath2)" />
    <path
       id="path3"
       d="m 467.13998,2390 h 172.47001 c 0.80505,0 1.60815,0.04 2.4093,0.1184 0.80114,0.079 1.59649,0.1968 2.38598,0.3538 0.78955,0.157 1.56952,0.3525 2.33991,0.5861 0.77032,0.2337 1.52734,0.5047 2.27106,0.8125 0.74377,0.3084 1.47064,0.6521 2.1806,1.0318 0.70996,0.3791 1.3996,0.7925 2.06891,1.2395 0.66937,0.4475 1.31524,0.9267 1.93756,1.4372 0.62231,0.5108 1.21808,1.0508 1.78729,1.6199 0.56928,0.5691 1.10925,1.1651 1.61993,1.7874 0.51069,0.6223 0.98963,1.268 1.43683,1.9372 0.44727,0.6697 0.86066,1.3594 1.24012,2.0694 0.37951,0.7102 0.72332,1.437 1.03137,2.1804 0.30804,0.7439 0.57898,1.501 0.81268,2.2712 0.2337,0.7703 0.42908,1.5503 0.58612,2.3399 0.15704,0.7895 0.27509,1.5849 0.35401,2.3862 0.0789,0.8013 0.11834,1.6042 0.11834,2.4092 v 57.7099 c 0,0.805 -0.0394,1.6082 -0.11834,2.4092 -0.0789,0.801 -0.19697,1.5965 -0.35401,2.3858 -0.15704,0.7898 -0.35242,1.5698 -0.58612,2.34 -0.2337,0.7703 -0.50458,1.5274 -0.81262,2.271 -0.30805,0.7439 -0.6518,1.4707 -1.03137,2.181 -0.37946,0.7099 -0.79285,1.3996 -1.24018,2.0688 -0.4472,0.6694 -0.92614,1.3152 -1.43683,1.9375 -0.51068,0.6226 -1.05065,1.2183 -1.61993,1.7874 -0.56921,0.569 -1.16498,1.1091 -1.78729,1.6198 -0.62232,0.5108 -1.26819,0.9898 -1.93756,1.4368 -0.66931,0.4475 -1.35895,0.8608 -2.06891,1.2402 -0.70996,0.3797 -1.43683,0.7234 -2.1806,1.0313 -0.74372,0.3081 -1.50074,0.5791 -2.27106,0.813 -0.77039,0.2336 -1.55036,0.4287 -2.33991,0.5857 -0.78949,0.1572 -1.58484,0.2754 -2.38598,0.3542 -0.80115,0.079 -1.60425,0.1184 -2.4093,0.1184 H 467.13998 c -0.80502,0 -1.60809,-0.04 -2.40927,-0.1184 -0.80114,-0.079 -1.59652,-0.197 -2.38611,-0.3542 -0.78952,-0.157 -1.56948,-0.3521 -2.33984,-0.5857 -0.77035,-0.2339 -1.5274,-0.5049 -2.27118,-0.813 -0.74374,-0.3079 -1.47058,-0.6516 -2.18054,-1.0313 -0.70999,-0.3794 -1.39966,-0.7927 -2.069,-1.2402 -0.66934,-0.447 -1.31516,-0.926 -1.93744,-1.4368 -0.62231,-0.5107 -1.21811,-1.0508 -1.78735,-1.6198 -0.56922,-0.5691 -1.1092,-1.1648 -1.61991,-1.7872 -0.51071,-0.6223 -0.98968,-1.2683 -1.43695,-1.9377 -0.44723,-0.6692 -0.86059,-1.3589 -1.24008,-2.0688 -0.37949,-0.7103 -0.72327,-1.4371 -1.03134,-2.181 -0.30805,-0.7436 -0.57889,-1.5007 -0.81256,-2.271 -0.23371,-0.7702 -0.42911,-1.5502 -0.58618,-2.34 -0.15702,-0.7893 -0.27497,-1.5848 -0.35385,-2.3858 -0.0789,-0.801 -0.11835,-1.6042 -0.11838,-2.4092 v -57.7099 c 3e-5,-0.805 0.0395,-1.6079 0.11838,-2.4092 0.0789,-0.8013 0.19683,-1.5967 0.35385,-2.3862 0.15707,-0.7896 0.35247,-1.5696 0.58618,-2.3399 0.23367,-0.7702 0.50451,-1.5273 0.81256,-2.2712 0.30807,-0.7434 0.65185,-1.4702 1.03134,-2.1804 0.37949,-0.71 0.79285,-1.3997 1.24008,-2.0694 0.44727,-0.6692 0.92624,-1.3149 1.43695,-1.9372 0.51071,-0.6223 1.05069,-1.2183 1.61994,-1.7874 0.56924,-0.5691 1.16501,-1.1091 1.78729,-1.6199 0.62231,-0.5105 1.26813,-0.9897 1.93747,-1.4372 0.66934,-0.447 1.35901,-0.8604 2.06897,-1.2398 0.70999,-0.3794 1.43683,-0.7231 2.18057,-1.0315 0.74378,-0.3078 1.50086,-0.5788 2.27121,-0.8127 0.77036,-0.2336 1.55029,-0.4289 2.33985,-0.5859 0.78958,-0.157 1.58493,-0.2749 2.3861,-0.3538 0.80115,-0.079 1.60422,-0.1184 2.40924,-0.1184 z"
       style="fill:#ffffff;fill-opacity:1;fill-rule:nonzero;stroke:#000000;stroke-width:1;stroke-linecap:butt;stroke-linejoin:miter;stroke-miterlimit:10;stroke-dasharray:none;stroke-opacity:1"
       transform="matrix(0.94873593,0,0,0.94873593,-382.70409,-2253.6424)"
       clip-path="url(#clipPath4)" />
    <text
       id="text4"
       xml:space="preserve"
       transform="matrix(0.94873593,0,0,0.94873593,63.957822,40.875441)"
       clip-path="url(#clipPath5)"><tspan
         id="tspan4"
         style="font-variant:normal;font-weight:normal;font-size:12px;font-family:Arial;writing-mode:lr-tb;fill:#000000;fill-opacity:1;fill-rule:nonzero;stroke:none"
         x="0"
         y="0">verification-name-compartment</tspan></text>
    <text
       id="text5"
       xml:space="preserve"
       transform="matrix(0.94873593,0,0,0.94873593,101.92208,67.440047)"
       clip-path="url(#clipPath6)"><tspan
         id="tspan5"
         style="font-variant:normal;font-weight:normal;font-size:12px;font-family:Arial;writing-mode:lr-tb;fill:#000000;fill-opacity:1;fill-rule:nonzero;stroke:none"
         x="0"
         y="0">action-flow-view</tspan></text>
    <text
       id="text6"
       xml:space="preserve"
       transform="matrix(0.94873593,0,0,0.94873593,94.020892,94.953389)"
       clip-path="url(#clipPath7)"><tspan
         id="tspan6"
         style="font-variant:normal;font-weight:normal;font-size:12px;font-family:Arial;writing-mode:lr-tb;fill:#000000;fill-opacity:1;fill-rule:nonzero;stroke:none"
         x="0"
         y="0">compartment-stack</tspan></text>
    <path
       id="path8"
       d="m 409,2435 h 46 v 15 h -46 z"
       style="fill:#ffffff;fill-opacity:1;fill-rule:nonzero;stroke:none"
       transform="matrix(0.94873593,0,0,0.94873593,-383.17846,-2254.1168)"
       clip-path="url(#clipPath9)" />
    <text
       id="text9"
       xml:space="preserve"
       transform="matrix(0.94873593,0,0,0.94873593,5.1510139,66.491311)"
       clip-path="url(#clipPath10)"><tspan
         id="tspan9"
         style="font-variant:normal;font-weight:normal;font-size:12px;font-family:Arial;writing-mode:lr-tb;fill:#000000;fill-opacity:1;fill-rule:nonzero;stroke:none"
         x="0"
         y="0">param-l*</tspan></text>
    <path
       id="path11"
       d="m 653,2435 h 46 v 15 h -46 z"
       style="fill:#ffffff;fill-opacity:1;fill-rule:nonzero;stroke:none"
       transform="matrix(0.94873593,0,0,0.94873593,-383.17846,-2254.1168)"
       clip-path="url(#clipPath12)" />
    <text
       id="text12"
       xml:space="preserve"
       transform="matrix(0.94873593,0,0,0.94873593,236.01997,66.491311)"
       clip-path="url(#clipPath13)"><tspan
         id="tspan12"
         style="font-variant:normal;font-weight:normal;font-size:12px;font-family:Arial;writing-mode:lr-tb;fill:#000000;fill-opacity:1;fill-rule:nonzero;stroke:none"
         x="0"
         y="0">param-r*</tspan></text>
    <path
       id="path14"
       d="m 525,2490 h 56 v 15 h -56 z"
       style="fill:#ffffff;fill-opacity:1;fill-rule:nonzero;stroke:none"
       transform="matrix(0.94873593,0,0,0.94873593,-383.17846,-2254.1168)"
       clip-path="url(#clipPath15)" />
    <g
       id="g15" />
    <g
       id="g16" />
    <text
       id="text16"
       xml:space="preserve"
       transform="matrix(0.94873593,0,0,0.94873593,114.89308,118.67179)"
       clip-path="url(#clipPath16)"><tspan
         id="tspan16"
         style="font-variant:normal;font-weight:normal;font-size:12px;font-family:Arial;writing-mode:lr-tb;fill:#000000;fill-opacity:1;fill-rule:nonzero;stroke:none"
         x="0"
         y="0"> param-b* </tspan></text>
    <path
       id="path17"
       d="m 527,2382 h 52 v 15 h -52 z"
       style="fill:#ffffff;fill-opacity:1;fill-rule:nonzero;stroke:none"
       transform="matrix(0.94873593,0,0,0.94873593,-383.17846,-2254.1168)"
       clip-path="url(#clipPath18)" />
    <g
       id="g18" />
    <g
       id="g19" />
    <text
       id="text19"
       xml:space="preserve"
       transform="matrix(0.94873593,0,0,0.94873593,116.47925,16.208307)"
       clip-path="url(#clipPath19)"><tspan
         id="tspan19"
         style="font-variant:normal;font-weight:normal;font-size:12px;font-family:Arial;writing-mode:lr-tb;fill:#000000;fill-opacity:1;fill-rule:nonzero;stroke:none"
         x="0"
         y="0"> param-t* </tspan></text>
  </g>
</svg>
