<?xml version="1.0" encoding="UTF-8" standalone="no"?>
<!-- Created with Inkscape (http://www.inkscape.org/) -->

<svg
   version="1.1"
   id="svg1"
   width="317.44"
   height="136"
   viewBox="0 0 317.44 136"
   xmlns="http://www.w3.org/2000/svg"
   xmlns:svg="http://www.w3.org/2000/svg">
  <defs
     id="defs1">
    <clipPath
       clipPathUnits="userSpaceOnUse"
       id="clipPath2">
      <path
         d="M 0,0 H 993 V 425.97656 H 0 Z"
         transform="scale(0.31999999)"
         clip-rule="evenodd"
         id="path2" />
    </clipPath>
    <clipPath
       clipPathUnits="userSpaceOnUse"
       id="clipPath4">
      <path
         d="m 3.125,0 h 987.5 V 425 H 3.125 Z"
         transform="matrix(0.3376742,0,0,0.3376742,74.371105,2376.4147)"
         clip-rule="evenodd"
         id="path4" />
    </clipPath>
    <clipPath
       clipPathUnits="userSpaceOnUse"
       id="clipPath5">
      <path
         d="m 3.125,0 h 987.5 V 425 H 3.125 Z"
         transform="matrix(0.3376742,0,0,0.3376742,-72.082015,-42.085252)"
         clip-rule="evenodd"
         id="path5" />
    </clipPath>
    <clipPath
       clipPathUnits="userSpaceOnUse"
       id="clipPath6">
      <path
         d="m 3.125,0 h 987.5 V 425 H 3.125 Z"
         transform="matrix(0.3376742,0,0,0.3376742,-122.44139,-70.085252)"
         clip-rule="evenodd"
         id="path6" />
    </clipPath>
    <clipPath
       clipPathUnits="userSpaceOnUse"
       id="clipPath7">
      <path
         d="m 3.125,0 h 987.5 V 425 H 3.125 Z"
         transform="matrix(0.3376742,0,0,0.3376742,-114.09764,-99.085252)"
         clip-rule="evenodd"
         id="path7" />
    </clipPath>
    <clipPath
       clipPathUnits="userSpaceOnUse"
       id="clipPath9">
      <path
         d="m 3.125,0 h 987.5 V 425 H 3.125 Z"
         transform="matrix(0.3376742,0,0,0.3376742,74.87111,2376.9148)"
         clip-rule="evenodd"
         id="path9" />
    </clipPath>
    <clipPath
       clipPathUnits="userSpaceOnUse"
       id="clipPath10">
      <path
         d="m 3.125,0 h 987.5 V 425 H 3.125 Z"
         transform="matrix(0.3376742,0,0,0.3376742,-137.78514,-17.085252)"
         clip-rule="evenodd"
         id="path10" />
    </clipPath>
    <clipPath
       clipPathUnits="userSpaceOnUse"
       id="clipPath12">
      <path
         d="m 3.125,0 h 987.5 V 425 H 3.125 Z"
         transform="matrix(0.3376742,0,0,0.3376742,74.87111,2376.9148)"
         clip-rule="evenodd"
         id="path12" />
    </clipPath>
    <clipPath
       clipPathUnits="userSpaceOnUse"
       id="clipPath13">
      <path
         d="m 3.125,0 h 987.5 V 425 H 3.125 Z"
         transform="matrix(0.3376742,0,0,0.3376742,-6.4413902,-69.085252)"
         clip-rule="evenodd"
         id="path13" />
    </clipPath>
    <clipPath
       clipPathUnits="userSpaceOnUse"
       id="clipPath15">
      <path
         d="m 3.125,0 h 987.5 V 425 H 3.125 Z"
         transform="matrix(0.3376742,0,0,0.3376742,74.87111,2376.9148)"
         clip-rule="evenodd"
         id="path15" />
    </clipPath>
    <clipPath
       clipPathUnits="userSpaceOnUse"
       id="clipPath16">
      <path
         d="m 3.125,0 h 987.5 V 425 H 3.125 Z"
         transform="matrix(0.3376742,0,0,0.3376742,-279.78514,-69.085252)"
         clip-rule="evenodd"
         id="path16" />
    </clipPath>
    <clipPath
       clipPathUnits="userSpaceOnUse"
       id="clipPath18">
      <path
         d="m 3.125,0 h 987.5 V 425 H 3.125 Z"
         transform="matrix(0.3376742,0,0,0.3376742,74.87111,2376.9148)"
         clip-rule="evenodd"
         id="path18" />
    </clipPath>
    <clipPath
       clipPathUnits="userSpaceOnUse"
       id="clipPath19">
      <path
         d="m 3.125,0 h 987.5 V 425 H 3.125 Z"
         transform="matrix(0.3376742,0,0,0.3376742,-136.11327,-123.08525)"
         clip-rule="evenodd"
         id="path19" />
    </clipPath>
  </defs>
  <g
     id="g1">
    <path
       id="path1"
       d="M 0,0 H 318 V 136 H 0 Z"
       style="fill:#ffffff;fill-opacity:1;fill-rule:nonzero;stroke:none"
       clip-path="url(#clipPath2)" />
    <path
       id="path3"
       d="M 114.96,2390.6399 H 364.74 V 2496.2 H 114.96 Z"
       style="fill:#ffffff;fill-opacity:1;fill-rule:nonzero;stroke:#000000;stroke-width:1;stroke-linecap:butt;stroke-linejoin:miter;stroke-miterlimit:10;stroke-dasharray:none;stroke-opacity:1"
       transform="matrix(0.94765897,0,0,0.94765897,-70.478445,-2252.0307)"
       clip-path="url(#clipPath4)" />
    <text
       id="text4"
       xml:space="preserve"
       transform="matrix(0.94765897,0,0,0.94765897,68.309168,39.882467)"
       clip-path="url(#clipPath5)"><tspan
         id="tspan4"
         style="font-variant:normal;font-weight:normal;font-size:12px;font-family:Arial;writing-mode:lr-tb;fill:#000000;fill-opacity:1;fill-rule:nonzero;stroke:none"
         x="0"
         y="0">verification-def-name-compartment</tspan></text>
    <text
       id="text5"
       xml:space="preserve"
       transform="matrix(0.94765897,0,0,0.94765897,116.03268,66.416918)"
       clip-path="url(#clipPath6)"><tspan
         id="tspan5"
         style="font-variant:normal;font-weight:normal;font-size:12px;font-family:Arial;writing-mode:lr-tb;fill:#000000;fill-opacity:1;fill-rule:nonzero;stroke:none"
         x="0"
         y="0">action-flow-view</tspan></text>
    <text
       id="text6"
       xml:space="preserve"
       transform="matrix(0.94765897,0,0,0.94765897,108.12565,93.899028)"
       clip-path="url(#clipPath7)"><tspan
         id="tspan6"
         style="font-variant:normal;font-weight:normal;font-size:12px;font-family:Arial;writing-mode:lr-tb;fill:#000000;fill-opacity:1;fill-rule:nonzero;stroke:none"
         x="0"
         y="0">compartment-stack</tspan></text>
    <path
       id="path8"
       d="m 213,2383 h 52 v 15 h -52 z"
       style="fill:#ffffff;fill-opacity:1;fill-rule:nonzero;stroke:none"
       transform="matrix(0.94765897,0,0,0.94765897,-70.952279,-2252.5046)"
       clip-path="url(#clipPath9)" />
    <g
       id="g9" />
    <g
       id="g10" />
    <text
       id="text10"
       xml:space="preserve"
       transform="matrix(0.94765897,0,0,0.94765897,130.57332,16.190992)"
       clip-path="url(#clipPath10)"><tspan
         id="tspan10"
         style="font-variant:normal;font-weight:normal;font-size:12px;font-family:Arial;writing-mode:lr-tb;fill:#000000;fill-opacity:1;fill-rule:nonzero;stroke:none"
         x="0"
         y="0"> param-t* </tspan></text>
    <path
       id="path11"
       d="m 81,2435 h 46 v 15 H 81 Z"
       style="fill:#ffffff;fill-opacity:1;fill-rule:nonzero;stroke:none"
       transform="matrix(0.94765897,0,0,0.94765897,-70.952279,-2252.5046)"
       clip-path="url(#clipPath12)" />
    <text
       id="text12"
       xml:space="preserve"
       transform="matrix(0.94765897,0,0,0.94765897,6.1042412,65.469259)"
       clip-path="url(#clipPath13)"><tspan
         id="tspan12"
         style="font-variant:normal;font-weight:normal;font-size:12px;font-family:Arial;writing-mode:lr-tb;fill:#000000;fill-opacity:1;fill-rule:nonzero;stroke:none"
         x="0"
         y="0">param-l*</tspan></text>
    <path
       id="path14"
       d="m 355,2435 h 46 v 15 h -46 z"
       style="fill:#ffffff;fill-opacity:1;fill-rule:nonzero;stroke:none"
       transform="matrix(0.94765897,0,0,0.94765897,-70.952279,-2252.5046)"
       clip-path="url(#clipPath15)" />
    <text
       id="text15"
       xml:space="preserve"
       transform="matrix(0.94765897,0,0,0.94765897,265.1409,65.469259)"
       clip-path="url(#clipPath16)"><tspan
         id="tspan15"
         style="font-variant:normal;font-weight:normal;font-size:12px;font-family:Arial;writing-mode:lr-tb;fill:#000000;fill-opacity:1;fill-rule:nonzero;stroke:none"
         x="0"
         y="0">param-r*</tspan></text>
    <path
       id="path17"
       d="m 211,2489 h 56 v 15 h -56 z"
       style="fill:#ffffff;fill-opacity:1;fill-rule:nonzero;stroke:none"
       transform="matrix(0.94765897,0,0,0.94765897,-70.952279,-2252.5046)"
       clip-path="url(#clipPath18)" />
    <g
       id="g18" />
    <g
       id="g19" />
    <text
       id="text19"
       xml:space="preserve"
       transform="matrix(0.94765897,0,0,0.94765897,128.98896,116.64284)"
       clip-path="url(#clipPath19)"><tspan
         id="tspan19"
         style="font-variant:normal;font-weight:normal;font-size:12px;font-family:Arial;writing-mode:lr-tb;fill:#000000;fill-opacity:1;fill-rule:nonzero;stroke:none"
         x="0"
         y="0"> param-b* </tspan></text>
  </g>
</svg>
