<?xml version="1.0" encoding="UTF-8" standalone="no"?>
<!-- Created with Inkscape (http://www.inkscape.org/) -->

<svg
   version="1.1"
   id="svg1"
   width="212.15999"
   height="66.559998"
   viewBox="0 0 212.15999 66.559998"
   xmlns="http://www.w3.org/2000/svg"
   xmlns:svg="http://www.w3.org/2000/svg">
  <defs
     id="defs1">
    <clipPath
       clipPathUnits="userSpaceOnUse"
       id="clipPath2">
      <path
         d="M 0,0 H 662.98828 V 206.98242 H 0 Z"
         transform="scale(0.31999999)"
         clip-rule="evenodd"
         id="path2" />
    </clipPath>
    <clipPath
       clipPathUnits="userSpaceOnUse"
       id="clipPath4">
      <path
         d="m 3.125,0 h 656.25 V 206.98242 H 3.125 Z"
         transform="matrix(0.3390567,0,0,0.3390567,393.88038,2749.9698)"
         clip-rule="evenodd"
         id="path4" />
    </clipPath>
    <clipPath
       clipPathUnits="userSpaceOnUse"
       id="clipPath5">
      <path
         d="m 3.125,0 h 656.25 V 206.98242 H 3.125 Z"
         transform="matrix(0.3390567,0,0,0.3390567,-32.588361,-23.53)"
         clip-rule="evenodd"
         id="path5" />
    </clipPath>
    <clipPath
       clipPathUnits="userSpaceOnUse"
       id="clipPath6">
      <path
         d="m 3.125,0 h 656.25 V 206.98242 H 3.125 Z"
         transform="matrix(0.3390567,0,0,0.3390567,-60.60399,-52.53)"
         clip-rule="evenodd"
         id="path6" />
    </clipPath>
  </defs>
  <g
     id="g1">
    <path
       id="path1"
       d="M 0,0 H 212 V 66 H 0 Z"
       style="fill:#ffffff;fill-opacity:1;fill-rule:nonzero;stroke:none"
       clip-path="url(#clipPath2)" />
    <path
       id="path3"
       d="m 407.04999,2750.97 h 198.15002 c 0.65985,0 1.31342,0.064 1.96063,0.1928 0.64722,0.1287 1.27564,0.3194 1.88526,0.5718 0.60968,0.2525 1.18884,0.562 1.73749,0.9287 0.5487,0.3667 1.05639,0.7835 1.52301,1.25 0.46661,0.4666 0.88324,0.9744 1.24987,1.523 0.36658,0.5486 0.67615,1.1277 0.92865,1.7375 0.25257,0.6096 0.44324,1.2381 0.57196,1.8853 0.12873,0.6472 0.19312,1.301 0.19312,1.9609 v 46.8999 c 0,0.6597 -0.0644,1.313 -0.19312,1.9602 -0.12872,0.6472 -0.31939,1.2757 -0.57196,1.8853 -0.2525,0.6096 -0.56207,1.1889 -0.92865,1.7375 -0.36663,0.5486 -0.78326,1.0564 -1.24987,1.5232 -0.46662,0.4666 -0.97431,0.8831 -1.52301,1.2495 -0.54865,0.3667 -1.12781,0.6763 -1.73749,0.9287 -0.60962,0.2527 -1.23804,0.4434 -1.88526,0.5721 -0.64721,0.1289 -1.30078,0.1933 -1.96063,0.1936 H 407.04999 c -0.65991,-3e-4 -1.31348,-0.065 -1.96067,-0.1936 -0.64724,-0.1287 -1.27569,-0.3191 -1.88537,-0.5718 -0.60965,-0.2525 -1.18884,-0.562 -1.73752,-0.9287 -0.54867,-0.3665 -1.0563,-0.783 -1.52292,-1.2495 -0.46664,-0.4668 -0.88324,-0.9746 -1.24985,-1.5235 -0.3666,-0.5486 -0.67617,-1.1277 -0.92871,-1.7373 -0.25253,-0.6096 -0.44317,-1.2383 -0.5719,-1.8855 -0.12872,-0.6472 -0.19308,-1.3005 -0.19305,-1.9602 V 2761.02 c -3e-5,-0.6599 0.0643,-1.3137 0.19305,-1.9609 0.12873,-0.6472 0.31937,-1.2759 0.5719,-1.8855 0.25254,-0.6096 0.56208,-1.189 0.92868,-1.7376 0.36661,-0.5485 0.78324,-1.0561 1.24988,-1.5227 0.46662,-0.4665 0.97428,-0.8833 1.52295,-1.25 0.54868,-0.3667 1.12787,-0.6762 1.73752,-0.9287 0.60965,-0.2524 1.2381,-0.4431 1.88531,-0.5718 0.64722,-0.1286 1.30079,-0.1928 1.9607,-0.1928 z"
       style="fill:none;stroke:#000000;stroke-width:1;stroke-linecap:butt;stroke-linejoin:miter;stroke-miterlimit:10;stroke-dasharray:none;stroke-opacity:1"
       transform="matrix(0.9437949,0,0,0.9437949,-371.74229,-2595.4075)"
       clip-path="url(#clipPath4)" />
    <text
       id="text4"
       xml:space="preserve"
       transform="matrix(0.9437949,0,0,0.9437949,30.756729,22.207494)"
       clip-path="url(#clipPath5)"><tspan
         id="tspan4"
         style="font-variant:normal;font-weight:normal;font-size:12px;font-family:Arial;writing-mode:lr-tb;fill:#000000;fill-opacity:1;fill-rule:nonzero;stroke:none"
         x="0"
         y="0">viewpoint-name-compartment</tspan></text>
    <text
       id="text5"
       xml:space="preserve"
       transform="matrix(0.9437949,0,0,0.9437949,57.197737,49.577546)"
       clip-path="url(#clipPath6)"><tspan
         id="tspan5"
         style="font-variant:normal;font-weight:normal;font-size:12px;font-family:Arial;writing-mode:lr-tb;fill:#000000;fill-opacity:1;fill-rule:nonzero;stroke:none"
         x="0"
         y="0">compartment-stack</tspan></text>
  </g>
</svg>
