<?xml version="1.0" encoding="UTF-8" standalone="no"?>
<!-- Created with Inkscape (http://www.inkscape.org/) -->

<svg
   version="1.1"
   id="svg1"
   width="212.15999"
   height="66.559998"
   viewBox="0 0 212.15999 66.559998"
   xmlns="http://www.w3.org/2000/svg"
   xmlns:svg="http://www.w3.org/2000/svg">
  <defs
     id="defs1">
    <clipPath
       clipPathUnits="userSpaceOnUse"
       id="clipPath2">
      <path
         d="M 0,0 H 662.98828 V 206.98242 H 0 Z"
         transform="scale(0.31999999)"
         clip-rule="evenodd"
         id="path2" />
    </clipPath>
    <clipPath
       clipPathUnits="userSpaceOnUse"
       id="clipPath4">
      <path
         d="m 3.125,0 h 656.25 V 206.98242 H 3.125 Z"
         transform="matrix(0.3390567,0,0,0.3390567,394.88037,2830)"
         clip-rule="evenodd"
         id="path4" />
    </clipPath>
    <clipPath
       clipPathUnits="userSpaceOnUse"
       id="clipPath5">
      <path
         d="m 3.125,0 h 656.25 V 206.98242 H 3.125 Z"
         transform="matrix(0.3390567,0,0,0.3390567,-45.588368,-24.500039)"
         clip-rule="evenodd"
         id="path5" />
    </clipPath>
    <clipPath
       clipPathUnits="userSpaceOnUse"
       id="clipPath6">
      <path
         d="m 3.125,0 h 656.25 V 206.98242 H 3.125 Z"
         transform="matrix(0.3390567,0,0,0.3390567,-60.588367,-53.500039)"
         clip-rule="evenodd"
         id="path6" />
    </clipPath>
  </defs>
  <g
     id="g1">
    <path
       id="path1"
       d="M 0,0 H 212 V 66 H 0 Z"
       style="fill:#ffffff;fill-opacity:1;fill-rule:nonzero;stroke:none"
       clip-path="url(#clipPath2)" />
    <path
       id="path3"
       d="m 408.04999,2831 h 198.15002 c 0.65985,2e-4 1.31342,0.064 1.96063,0.1931 0.64716,0.1287 1.27564,0.3194 1.88532,0.5715 0.60962,0.2527 1.18878,0.5621 1.73749,0.9285 0.54864,0.367 1.05627,0.7837 1.52289,1.2503 0.46661,0.4665 0.88317,0.9738 1.24975,1.5224 0.36664,0.5491 0.67627,1.1282 0.92883,1.7378 0.25251,0.6099 0.44318,1.2383 0.5719,1.8855 0.12879,0.6472 0.19318,1.301 0.19318,1.9609 v 46.9 c 0,0.6599 -0.0644,1.3134 -0.19318,1.9606 -0.12872,0.647 -0.31939,1.2754 -0.5719,1.8851 -0.25256,0.6096 -0.56213,1.1887 -0.92877,1.7373 -0.36664,0.549 -0.7832,1.0566 -1.24981,1.5232 -0.46662,0.4665 -0.97425,0.883 -1.52289,1.2495 -0.54871,0.3667 -1.12787,0.6762 -1.73755,0.9289 -0.60968,0.2527 -1.2381,0.4434 -1.88526,0.5723 -0.64721,0.1286 -1.30078,0.1929 -1.96063,0.1931 H 408.04999 c -0.65991,-2e-4 -1.31348,-0.065 -1.96073,-0.1934 -0.64718,-0.1286 -1.2756,-0.3193 -1.88525,-0.572 -0.60965,-0.2527 -1.18884,-0.5622 -1.73752,-0.9289 -0.54867,-0.3665 -1.05633,-0.783 -1.52295,-1.2495 -0.46664,-0.4666 -0.88324,-0.9742 -1.24984,-1.523 -0.36664,-0.5486 -0.67621,-1.1277 -0.92875,-1.7373 -0.25253,-0.6096 -0.44317,-1.238 -0.5719,-1.8853 C 398.06436,2889.2634 398,2888.6099 398,2887.95 v -46.9 c 0,-0.6599 0.0644,-1.3137 0.19305,-1.9609 0.12873,-0.6472 0.31937,-1.2756 0.5719,-1.8855 0.25254,-0.6096 0.56211,-1.1887 0.92875,-1.7375 0.3666,-0.5486 0.7832,-1.0562 1.24984,-1.5227 0.46662,-0.4666 0.97425,-0.8833 1.52292,-1.25 0.54871,-0.3665 1.1279,-0.6761 1.73755,-0.9288 0.60965,-0.2521 1.2381,-0.4428 1.88528,-0.5717 0.64722,-0.1284 1.30079,-0.1927 1.9607,-0.1929 z"
       style="fill:none;stroke:#000000;stroke-width:1;stroke-linecap:butt;stroke-linejoin:miter;stroke-miterlimit:10;stroke-dasharray:none;stroke-opacity:1"
       transform="matrix(0.9437949,0,0,0.9437949,-372.68608,-2670.9396)"
       clip-path="url(#clipPath4)" />
    <text
       id="text4"
       xml:space="preserve"
       transform="matrix(0.9437949,0,0,0.9437949,43.026069,23.123012)"
       clip-path="url(#clipPath5)"><tspan
         id="tspan4"
         style="font-variant:normal;font-weight:normal;font-size:12px;font-family:Arial;writing-mode:lr-tb;fill:#000000;fill-opacity:1;fill-rule:nonzero;stroke:none"
         x="0"
         y="0">view-name-compartment</tspan></text>
    <text
       id="text5"
       xml:space="preserve"
       transform="matrix(0.9437949,0,0,0.9437949,57.182992,50.493064)"
       clip-path="url(#clipPath6)"><tspan
         id="tspan5"
         style="font-variant:normal;font-weight:normal;font-size:12px;font-family:Arial;writing-mode:lr-tb;fill:#000000;fill-opacity:1;fill-rule:nonzero;stroke:none"
         x="0"
         y="0">compartment-stack</tspan></text>
  </g>
</svg>
