<?xml version="1.0" encoding="UTF-8" standalone="no"?>
<!-- Created with Inkscape (http://www.inkscape.org/) -->

<svg
   version="1.1"
   id="svg1"
   width="264"
   height="234.56"
   viewBox="0 0 264 234.56"
   xmlns="http://www.w3.org/2000/svg"
   xmlns:svg="http://www.w3.org/2000/svg">
  <defs
     id="defs1">
    <clipPath
       clipPathUnits="userSpaceOnUse"
       id="clipPath2">
      <path
         d="M 0,0 H 825 V 731.98242 H 0 Z"
         transform="scale(0.31999999)"
         clip-rule="evenodd"
         id="path2" />
    </clipPath>
    <clipPath
       clipPathUnits="userSpaceOnUse"
       id="clipPath4">
      <path
         d="m 3.125,3.125 h 818.75 V 731.25 H 3.125 Z"
         transform="matrix(0.33762004,0,0,0.33762004,87.382832,3267.3901)"
         clip-rule="evenodd"
         id="path4" />
    </clipPath>
    <clipPath
       clipPathUnits="userSpaceOnUse"
       id="clipPath6">
      <path
         d="m 3.125,3.125 h 818.75 V 731.25 H 3.125 Z"
         transform="matrix(0.33762004,0,0,0.33762004,87.88283,3267.8899)"
         clip-rule="evenodd"
         id="path6" />
    </clipPath>
    <clipPath
       clipPathUnits="userSpaceOnUse"
       id="clipPath7">
      <path
         d="m 3.125,3.125 h 818.75 V 731.25 H 3.125 Z"
         transform="matrix(0.33762004,0,0,0.33762004,-5.4296697,-119.11004)"
         clip-rule="evenodd"
         id="path7" />
    </clipPath>
    <clipPath
       clipPathUnits="userSpaceOnUse"
       id="clipPath9">
      <path
         d="m 3.125,3.125 h 818.75 V 731.25 H 3.125 Z"
         transform="matrix(0.33762004,0,0,0.33762004,87.88283,3267.8899)"
         clip-rule="evenodd"
         id="path9" />
    </clipPath>
    <clipPath
       clipPathUnits="userSpaceOnUse"
       id="clipPath10">
      <path
         d="m 3.125,3.125 h 818.75 V 731.25 H 3.125 Z"
         transform="matrix(0.33762004,0,0,0.33762004,-225.77342,-119.11004)"
         clip-rule="evenodd"
         id="path10" />
    </clipPath>
    <clipPath
       clipPathUnits="userSpaceOnUse"
       id="clipPath12">
      <path
         d="m 3.125,3.125 h 818.75 V 731.25 H 3.125 Z"
         transform="matrix(0.33762004,0,0,0.33762004,87.88283,3267.8899)"
         clip-rule="evenodd"
         id="path12" />
    </clipPath>
    <clipPath
       clipPathUnits="userSpaceOnUse"
       id="clipPath13">
      <path
         d="m 3.125,3.125 h 818.75 V 731.25 H 3.125 Z"
         transform="matrix(0.33762004,0,0,0.33762004,-108.77342,-18.110046)"
         clip-rule="evenodd"
         id="path13" />
    </clipPath>
    <clipPath
       clipPathUnits="userSpaceOnUse"
       id="clipPath15">
      <path
         d="m 3.125,3.125 h 818.75 V 731.25 H 3.125 Z"
         transform="matrix(0.33762004,0,0,0.33762004,87.88283,3267.8899)"
         clip-rule="evenodd"
         id="path15" />
    </clipPath>
    <clipPath
       clipPathUnits="userSpaceOnUse"
       id="clipPath16">
      <path
         d="m 3.125,3.125 h 818.75 V 731.25 H 3.125 Z"
         transform="matrix(0.33762004,0,0,0.33762004,-71.914045,-43.110046)"
         clip-rule="evenodd"
         id="path16" />
    </clipPath>
    <clipPath
       clipPathUnits="userSpaceOnUse"
       id="clipPath18">
      <path
         d="m 3.125,3.125 h 818.75 V 731.25 H 3.125 Z"
         transform="matrix(0.33762004,0,0,0.33762004,87.88283,3267.8899)"
         clip-rule="evenodd"
         id="path18" />
    </clipPath>
    <clipPath
       clipPathUnits="userSpaceOnUse"
       id="clipPath19">
      <path
         d="m 3.125,3.125 h 818.75 V 731.25 H 3.125 Z"
         transform="matrix(0.33762004,0,0,0.33762004,-102.60155,-57.110046)"
         clip-rule="evenodd"
         id="path19" />
    </clipPath>
    <clipPath
       clipPathUnits="userSpaceOnUse"
       id="clipPath21">
      <path
         d="m 3.125,3.125 h 818.75 V 731.25 H 3.125 Z"
         transform="matrix(0.33762004,0,0,0.33762004,87.88283,3267.8899)"
         clip-rule="evenodd"
         id="path21" />
    </clipPath>
    <clipPath
       clipPathUnits="userSpaceOnUse"
       id="clipPath22">
      <path
         d="m 3.125,3.125 h 818.75 V 731.25 H 3.125 Z"
         transform="matrix(0.33762004,0,0,0.33762004,-92.58592,-80.110046)"
         clip-rule="evenodd"
         id="path22" />
    </clipPath>
    <clipPath
       clipPathUnits="userSpaceOnUse"
       id="clipPath24">
      <path
         d="m 3.125,3.125 h 818.75 V 731.25 H 3.125 Z"
         transform="matrix(0.33762004,0,0,0.33762004,87.88283,3267.8899)"
         clip-rule="evenodd"
         id="path24" />
    </clipPath>
    <clipPath
       clipPathUnits="userSpaceOnUse"
       id="clipPath25">
      <path
         d="m 3.125,3.125 h 818.75 V 731.25 H 3.125 Z"
         transform="matrix(0.33762004,0,0,0.33762004,-80.10155,-210.11004)"
         clip-rule="evenodd"
         id="path25" />
    </clipPath>
    <clipPath
       clipPathUnits="userSpaceOnUse"
       id="clipPath27">
      <path
         d="m 3.125,3.125 h 818.75 V 731.25 H 3.125 Z"
         transform="matrix(0.33762004,0,0,0.33762004,87.88283,3267.8899)"
         clip-rule="evenodd"
         id="path27" />
    </clipPath>
    <clipPath
       clipPathUnits="userSpaceOnUse"
       id="clipPath28">
      <path
         d="m 3.125,3.125 h 818.75 V 731.25 H 3.125 Z"
         transform="matrix(0.33762004,0,0,0.33762004,-93.257799,-170.11004)"
         clip-rule="evenodd"
         id="path28" />
    </clipPath>
    <clipPath
       clipPathUnits="userSpaceOnUse"
       id="clipPath30">
      <path
         d="m 3.125,3.125 h 818.75 V 731.25 H 3.125 Z"
         transform="matrix(0.33762004,0,0,0.33762004,87.88283,3267.8899)"
         clip-rule="evenodd"
         id="path30" />
    </clipPath>
    <clipPath
       clipPathUnits="userSpaceOnUse"
       id="clipPath31">
      <path
         d="m 3.125,3.125 h 818.75 V 731.25 H 3.125 Z"
         transform="matrix(0.33762004,0,0,0.33762004,-112.2578,-122.11004)"
         clip-rule="evenodd"
         id="path31" />
    </clipPath>
    <clipPath
       clipPathUnits="userSpaceOnUse"
       id="clipPath33">
      <path
         d="m 3.125,3.125 h 818.75 V 731.25 H 3.125 Z"
         transform="matrix(0.33762004,0,0,0.33762004,87.88283,3267.8899)"
         clip-rule="evenodd"
         id="path33" />
    </clipPath>
    <clipPath
       clipPathUnits="userSpaceOnUse"
       id="clipPath34">
      <path
         d="m 3.125,3.125 h 818.75 V 731.25 H 3.125 Z"
         transform="matrix(0.33762004,0,0,0.33762004,-103.10155,-236.11005)"
         clip-rule="evenodd"
         id="path34" />
    </clipPath>
  </defs>
  <g
     id="g1">
    <path
       id="path1"
       d="M 0,0 H 264 V 234 H 0 Z"
       style="fill:#ffffff;fill-opacity:1;fill-rule:nonzero;stroke:none"
       clip-path="url(#clipPath2)" />
    <path
       id="path3"
       d="m 162.45999,3283.03 h 121.83002 c 1.63431,3e-4 3.26468,0.08 4.89108,0.2403 1.62644,0.1604 3.24106,0.3996 4.8439,0.7182 1.60291,0.3191 3.18631,0.7156 4.75022,1.19 1.5639,0.4743 3.1008,1.0244 4.61065,1.6496 1.50989,0.6258 2.98548,1.3238 4.42679,2.094 1.44132,0.7705 2.8414,1.6096 4.20026,2.5174 1.35886,0.9079 2.66995,1.8803 3.93329,2.9172 1.26333,1.0366 2.47278,2.1328 3.62838,3.2883 1.15564,1.1558 2.25184,2.3653 3.28858,3.6284 1.0368,1.2635 2.00918,2.5743 2.91711,3.9329 0.90799,1.3591 1.74717,2.7595 2.51755,4.2007 0.77042,1.4411 1.46832,2.9167 2.09372,4.4265 0.62543,1.51 1.17535,3.0469 1.64978,4.6108 0.47443,1.564 0.87103,3.1475 1.18985,4.7503 0.31882,1.603 0.55835,3.2178 0.71857,4.8442 0.16018,1.6265 0.24026,3.2569 0.24026,4.8911 v 117.1702 c 0,1.6345 -0.0801,3.2649 -0.24029,4.8911 -0.16019,1.6265 -0.39972,3.241 -0.71854,4.8435 -0.31882,1.603 -0.71542,3.1865 -1.18982,4.7505 -0.47446,1.5637 -1.02438,3.1006 -1.64981,4.6104 -0.6254,1.51 -1.3233,2.9856 -2.09369,4.4272 -0.77038,1.4412 -1.60956,2.8413 -2.51755,4.2 -0.90796,1.3591 -1.88034,2.6701 -2.91711,3.9335 -1.03677,1.2635 -2.13297,2.4727 -3.28857,3.6282 -1.15561,1.1558 -2.36509,2.252 -3.62839,3.2886 -1.26334,1.0366 -2.57443,2.009 -3.93332,2.917 -1.35886,0.9079 -2.75894,1.7471 -4.20026,2.5176 -1.44131,0.7702 -2.9169,1.4682 -4.42679,2.0935 -1.50985,0.6255 -3.04675,1.1755 -4.61065,1.6499 -1.56391,0.4743 -3.14731,0.8711 -4.75022,1.1897 -1.60284,0.3191 -3.21746,0.5586 -4.8439,0.7187 -1.6264,0.1604 -3.25677,0.2405 -4.89108,0.2405 H 162.45999 c -1.63428,0 -3.26462,-0.08 -4.89104,-0.2402 -1.62642,-0.1604 -3.24108,-0.3999 -4.84397,-0.719 -1.60288,-0.3186 -3.18628,-0.7154 -4.7502,-1.1897 -1.56391,-0.4744 -3.1008,-1.0244 -4.61071,-1.6499 -1.50987,-0.6253 -2.98547,-1.3233 -4.42677,-2.0935 -1.44131,-0.7705 -2.8414,-1.6097 -4.20027,-2.5176 -1.35886,-0.908 -2.66994,-1.8804 -3.93326,-2.917 -1.26332,-1.0366 -2.47279,-2.1328 -3.62842,-3.2886 -1.15561,-1.1555 -2.25181,-2.365 -3.28859,-3.6284 -1.03678,-1.2634 -2.00915,-2.5745 -2.91712,-3.9336 -0.90795,-1.3586 -1.74713,-2.7588 -2.51752,-4.1999 -0.77039,-1.4417 -1.4683,-2.9173 -2.09372,-4.4273 -0.62541,-1.5095 -1.17532,-3.0464 -1.64973,-4.6103 -0.4744,-1.5642 -0.87102,-3.1477 -1.18986,-4.7505 -0.31883,-1.6026 -0.55833,-3.2171 -0.71852,-4.8435 -0.16019,-1.6263 -0.24028,-3.2564 -0.24029,-4.8909 v -117.1702 c 1e-5,-1.6342 0.0801,-3.2646 0.24029,-4.8911 0.16019,-1.6264 0.39969,-3.2412 0.71852,-4.8442 0.31884,-1.6028 0.71546,-3.1863 1.18986,-4.7503 0.47441,-1.5639 1.02432,-3.1008 1.64973,-4.6108 0.62542,-1.5098 1.32333,-2.9854 2.09372,-4.4268 0.77039,-1.4411 1.60957,-2.8413 2.51752,-4.2004 0.90797,-1.3586 1.88034,-2.6694 2.91712,-3.9326 1.03679,-1.2634 2.13298,-2.4729 3.28859,-3.6287 1.15563,-1.1555 2.3651,-2.2517 3.62842,-3.2883 1.26332,-1.0369 2.5744,-2.0093 3.93326,-2.9172 1.35887,-0.9078 2.75896,-1.7469 4.20027,-2.5174 1.4413,-0.7702 2.9169,-1.4682 4.42677,-2.094 1.50991,-0.6252 3.0468,-1.1753 4.61071,-1.6496 1.56392,-0.4744 3.14732,-0.8709 4.7502,-1.19 1.60289,-0.3186 3.21755,-0.5578 4.84397,-0.718 1.62642,-0.1601 3.25676,-0.2402 4.89104,-0.2405 z"
       style="fill:#ffffff;fill-opacity:1;fill-rule:nonzero;stroke:#000000;stroke-width:1;stroke-linecap:butt;stroke-linejoin:miter;stroke-miterlimit:10;stroke-dasharray:none;stroke-opacity:1"
       transform="matrix(0.947811,0,0,0.947811,-82.822409,-3096.8683)"
       clip-path="url(#clipPath4)" />
    <path
       id="path5"
       d="m 93,3376 h 46 v 15 H 93 Z"
       style="fill:#ffffff;fill-opacity:1;fill-rule:nonzero;stroke:none"
       transform="matrix(0.947811,0,0,0.947811,-83.296313,-3097.342)"
       clip-path="url(#clipPath6)" />
    <text
       id="text6"
       xml:space="preserve"
       transform="matrix(0.947811,0,0,0.947811,5.1463007,112.89381)"
       clip-path="url(#clipPath7)"><tspan
         id="tspan6"
         style="font-variant:normal;font-weight:normal;font-size:12px;font-family:Arial;writing-mode:lr-tb;fill:#000000;fill-opacity:1;fill-rule:nonzero;stroke:none"
         x="0"
         y="0">param-l*</tspan></text>
    <path
       id="path8"
       d="m 314,3376 h 46 v 15 h -46 z"
       style="fill:#ffffff;fill-opacity:1;fill-rule:nonzero;stroke:none"
       transform="matrix(0.947811,0,0,0.947811,-83.296313,-3097.342)"
       clip-path="url(#clipPath9)" />
    <text
       id="text9"
       xml:space="preserve"
       transform="matrix(0.947811,0,0,0.947811,213.99053,112.89381)"
       clip-path="url(#clipPath10)"><tspan
         id="tspan9"
         style="font-variant:normal;font-weight:normal;font-size:12px;font-family:Arial;writing-mode:lr-tb;fill:#000000;fill-opacity:1;fill-rule:nonzero;stroke:none"
         x="0"
         y="0">param-r*</tspan></text>
    <path
       id="path11"
       d="m 197,3275 h 52 v 15 h -52 z"
       style="fill:#ffffff;fill-opacity:1;fill-rule:nonzero;stroke:none"
       transform="matrix(0.947811,0,0,0.947811,-83.296313,-3097.342)"
       clip-path="url(#clipPath12)" />
    <g
       id="g12" />
    <g
       id="g13" />
    <text
       id="text13"
       xml:space="preserve"
       transform="matrix(0.947811,0,0,0.947811,103.09664,17.164901)"
       clip-path="url(#clipPath13)"><tspan
         id="tspan13"
         style="font-variant:normal;font-weight:normal;font-size:12px;font-family:Arial;writing-mode:lr-tb;fill:#000000;fill-opacity:1;fill-rule:nonzero;stroke:none"
         x="0"
         y="0"> param-t* </tspan></text>
    <path
       id="path14"
       d="m 160,3300 h 131 v 14 H 160 Z"
       style="fill:#fbfbfb;fill-opacity:1;fill-rule:nonzero;stroke:none"
       transform="matrix(0.947811,0,0,0.947811,-83.296313,-3097.342)"
       clip-path="url(#clipPath15)" />
    <text
       id="text15"
       xml:space="preserve"
       transform="matrix(0.947811,0,0,0.947811,68.160923,40.860176)"
       clip-path="url(#clipPath16)"><tspan
         id="tspan15"
         style="font-variant:normal;font-weight:normal;font-size:12px;font-family:Arial;writing-mode:lr-tb;fill:#000000;fill-opacity:1;fill-rule:nonzero;stroke:none"
         x="0"
         y="0">while- loop-action-name-</tspan></text>
    <path
       id="path17"
       d="m 190,3314 h 71 v 14 h -71 z"
       style="fill:#fbfbfb;fill-opacity:1;fill-rule:nonzero;stroke:none"
       transform="matrix(0.947811,0,0,0.947811,-83.296313,-3097.342)"
       clip-path="url(#clipPath18)" />
    <text
       id="text18"
       xml:space="preserve"
       transform="matrix(0.947811,0,0,0.947811,97.246877,54.12953)"
       clip-path="url(#clipPath19)"><tspan
         id="tspan18"
         style="font-variant:normal;font-weight:normal;font-size:12px;font-family:Arial;writing-mode:lr-tb;fill:#000000;fill-opacity:1;fill-rule:nonzero;stroke:none"
         x="0"
         y="0">compartment</tspan></text>
    <path
       id="path20"
       d="m 180,3337 h 87 v 14 h -87 z"
       style="fill:#fbfbfb;fill-opacity:1;fill-rule:nonzero;stroke:none"
       transform="matrix(0.947811,0,0,0.947811,-83.296313,-3097.342)"
       clip-path="url(#clipPath21)" />
    <text
       id="text21"
       xml:space="preserve"
       transform="matrix(0.947811,0,0,0.947811,87.753953,75.929183)"
       clip-path="url(#clipPath22)"><tspan
         id="tspan21"
         style="font-variant:normal;font-weight:normal;font-size:12px;font-family:Arial;writing-mode:lr-tb;fill:#000000;fill-opacity:1;fill-rule:nonzero;stroke:none"
         x="0"
         y="0">while-condition?</tspan></text>
    <path
       id="path23"
       d="m 168,3467 h 102 v 14 H 168 Z"
       style="fill:#fbfbfb;fill-opacity:1;fill-rule:nonzero;stroke:none"
       transform="matrix(0.947811,0,0,0.947811,-83.296313,-3097.342)"
       clip-path="url(#clipPath24)" />
    <text
       id="text24"
       xml:space="preserve"
       transform="matrix(0.947811,0,0,0.947811,75.92113,199.14461)"
       clip-path="url(#clipPath25)"><tspan
         id="tspan24"
         style="font-variant:normal;font-weight:normal;font-size:12px;font-family:Arial;writing-mode:lr-tb;fill:#000000;fill-opacity:1;fill-rule:nonzero;stroke:none"
         x="0"
         y="0">compartment-stack</tspan></text>
    <path
       id="path26"
       d="m 181,3427 h 81 v 14 h -81 z"
       style="fill:#fbfbfb;fill-opacity:1;fill-rule:nonzero;stroke:none"
       transform="matrix(0.947811,0,0,0.947811,-83.296313,-3097.342)"
       clip-path="url(#clipPath27)" />
    <text
       id="text27"
       xml:space="preserve"
       transform="matrix(0.947811,0,0,0.947811,88.390768,161.23217)"
       clip-path="url(#clipPath28)"><tspan
         id="tspan27"
         style="font-variant:normal;font-weight:normal;font-size:12px;font-family:Arial;writing-mode:lr-tb;fill:#000000;fill-opacity:1;fill-rule:nonzero;stroke:none"
         x="0"
         y="0">until-condition?</tspan></text>
    <path
       id="path29"
       d="m 200,3379 h 53 v 14 h -53 z"
       style="fill:#fbfbfb;fill-opacity:1;fill-rule:nonzero;stroke:none"
       transform="matrix(0.947811,0,0,0.947811,-83.296313,-3097.342)"
       clip-path="url(#clipPath30)" />
    <text
       id="text30"
       xml:space="preserve"
       transform="matrix(0.947811,0,0,0.947811,106.39918,115.73724)"
       clip-path="url(#clipPath31)"><tspan
         id="tspan30"
         style="font-variant:normal;font-weight:normal;font-size:12px;font-family:Arial;writing-mode:lr-tb;fill:#000000;fill-opacity:1;fill-rule:nonzero;stroke:none"
         x="0"
         y="0">loop-body</tspan></text>
    <path
       id="path32"
       d="m 191,3493 h 56 v 15 h -56 z"
       style="fill:#ffffff;fill-opacity:1;fill-rule:nonzero;stroke:none"
       transform="matrix(0.947811,0,0,0.947811,-83.296313,-3097.342)"
       clip-path="url(#clipPath33)" />
    <g
       id="g33" />
    <g
       id="g34" />
    <text
       id="text34"
       xml:space="preserve"
       transform="matrix(0.947811,0,0,0.947811,97.720783,223.7877)"
       clip-path="url(#clipPath34)"><tspan
         id="tspan34"
         style="font-variant:normal;font-weight:normal;font-size:12px;font-family:Arial;writing-mode:lr-tb;fill:#000000;fill-opacity:1;fill-rule:nonzero;stroke:none"
         x="0"
         y="0"> param-b* </tspan></text>
  </g>
</svg>
