<svg width="1280" height="720" xmlns="http://www.w3.org/2000/svg" xmlns:xlink="http://www.w3.org/1999/xlink" overflow="hidden"><g><rect x="0" y="0" width="1280" height="720" fill="#FFFFFF"/><rect x="85.5001" y="111.5" width="249" height="80" stroke="#0E2841" stroke-linejoin="round" stroke-miterlimit="10" fill="none"/><text font-family="Aptos,Aptos_MSFontService,sans-serif" font-weight="400" font-size="21.3333" transform="translate(97.512 132)">Programmatic Authoring</text><text font-family="Aptos,Aptos_MSFontService,sans-serif" font-weight="400" font-size="21.3333" transform="translate(150.799 157)">Environment</text><text font-family="Aptos,Aptos_MSFontService,sans-serif" font-weight="400" font-size="21.3333" transform="translate(118.159 183)">(</text><text font-family="Aptos,Aptos_MSFontService,sans-serif" font-style="italic" font-weight="400" font-size="21.3333" transform="translate(124.492 183)">Service Consumer</text><text font-family="Aptos,Aptos_MSFontService,sans-serif" font-weight="400" font-size="21.3333" transform="translate(294.045 183)">)</text><rect x="381.5" y="111.5" width="253" height="80" stroke="#0E2841" stroke-linejoin="round" stroke-miterlimit="10" fill="none"/><text font-family="Aptos,Aptos_MSFontService,sans-serif" font-weight="400" font-size="21.3333" transform="translate(415.658 132)">Graphical Authoring</text><text font-family="Aptos,Aptos_MSFontService,sans-serif" font-weight="400" font-size="21.3333" transform="translate(449.065 157)">Environment</text><text font-family="Aptos,Aptos_MSFontService,sans-serif" font-weight="400" font-size="21.3333" transform="translate(416.418 183)">(</text><text font-family="Aptos,Aptos_MSFontService,sans-serif" font-style="italic" font-weight="400" font-size="21.3333" transform="translate(422.751 183)">Service Consumer</text><text font-family="Aptos,Aptos_MSFontService,sans-serif" font-weight="400" font-size="21.3333" transform="translate(592.305 183)">)</text><rect x="670.5" y="111.5" width="253" height="80" stroke="#0E2841" stroke-linejoin="round" stroke-miterlimit="10" fill="none"/><text font-family="Aptos,Aptos_MSFontService,sans-serif" font-weight="400" font-size="21.3333" transform="translate(717.225 132)">Textual Authoring</text><text font-family="Aptos,Aptos_MSFontService,sans-serif" font-weight="400" font-size="21.3333" transform="translate(737.912 157)">Environment</text><text font-family="Aptos,Aptos_MSFontService,sans-serif" font-weight="400" font-size="21.3333" transform="translate(705.265 183)">(</text><text font-family="Aptos,Aptos_MSFontService,sans-serif" font-style="italic" font-weight="400" font-size="21.3333" transform="translate(711.598 183)">Service Consumer</text><text font-family="Aptos,Aptos_MSFontService,sans-serif" font-weight="400" font-size="21.3333" transform="translate(881.152 183)">)</text><rect x="74.5001" y="362.5" width="769" height="312" stroke="#0E2841" stroke-linejoin="round" stroke-miterlimit="10" fill="none"/><rect x="134.5" y="326.5" width="240" height="80" stroke="#0E2841" stroke-linejoin="round" stroke-miterlimit="10" fill="#FFFFFF"/><text font-family="Aptos,Aptos_MSFontService,sans-serif" font-weight="400" font-size="21.3333" transform="translate(193.744 360)">OSLC 3.0 API</text><text font-family="Aptos,Aptos_MSFontService,sans-serif" font-weight="400" font-size="21.3333" transform="translate(219.204 385)">(PSM 2)</text><rect x="421.5" y="326.5" width="240" height="80" stroke="#0E2841" stroke-linejoin="round" stroke-miterlimit="10" fill="#FFFFFF"/><text font-family="Aptos,Aptos_MSFontService,sans-serif" font-weight="400" font-size="21.3333" transform="translate(490.853 360)">REST/HTTP</text><text font-family="Aptos,Aptos_MSFontService,sans-serif" font-weight="400" font-size="21.3333" transform="translate(506.446 385)">(PSM 1)</text><rect x="909.5" y="227.5" width="205" height="150" stroke="#0E2841" stroke-linejoin="round" stroke-miterlimit="10" fill="none"/><text font-family="Aptos,Aptos_MSFontService,sans-serif" font-weight="400" font-size="21.3333" transform="translate(922.848 260)">API Definition (PIM)</text><path d="M0.105637-0.994405 2.09445-0.783131 1.88317 1.20568-0.105637 0.994405ZM8.06087-0.149309 10.0497 0.0619647 9.83841 2.05077 7.8496 1.8395ZM16.0161 0.695786 18.0049 0.90706 17.7936 2.89587 15.8048 2.6846ZM23.9713 1.54088 25.9602 1.75216 25.7489 3.74097 23.7601 3.52969ZM31.9266 2.38598 33.9154 2.59725 33.7041 4.58606 31.7153 4.37479ZM39.8818 3.23107 41.8706 3.44235 41.6594 5.43116 39.6706 5.21988ZM47.8371 4.07617 49.8259 4.28744 49.6146 6.27625 47.6258 6.06498ZM55.7923 4.92126 57.7811 5.13254 57.5698 7.12135 55.581 6.91007ZM63.7475 5.76636 65.7364 5.97763 65.5251 7.96644 63.5363 7.75517ZM71.7028 6.61146 73.6916 6.82273 73.4803 8.81154 71.4915 8.60026ZM79.658 7.45655 81.6468 7.66782 81.4356 9.65663 79.4467 9.44536ZM87.6133 8.30165 89.6021 8.51292 89.3908 10.5017 87.402 10.2905ZM95.5685 9.14674 97.5573 9.35802 97.346 11.3468 95.3572 11.1356ZM103.524 9.99184 105.513 10.2031 105.301 12.1919 103.312 11.9806ZM111.479 10.8369 113.468 11.0482 113.257 13.037 111.268 12.8257ZM119.434 11.682 121.423 11.8933 121.212 13.8821 119.223 13.6708ZM127.389 12.5271 129.378 12.7384 129.167 14.7272 127.178 14.5159ZM135.345 13.3722 137.334 13.5835 137.122 15.5723 135.133 15.361ZM143.3 14.2173 145.289 14.4286 145.077 16.4174 143.089 16.2061ZM151.255 15.0624 153.244 15.2737 153.033 17.2625 151.044 17.0512ZM159.21 15.9075 161.199 16.1188 160.988 18.1076 158.999 17.8963ZM167.166 16.7526 169.154 16.9639 168.943 18.9527 166.954 18.7414ZM175.121 17.5977 177.11 17.809 176.898 19.7978 174.91 19.5865ZM183.076 18.4428 185.065 18.6541 184.854 20.6429 182.865 20.4316ZM191.031 19.2879 193.02 19.4992 192.809 21.488 190.82 21.2767ZM198.987 20.133 200.975 20.3443 200.764 22.3331 198.775 22.1218ZM206.942 20.9781 208.931 21.1894 208.719 23.1782 206.731 22.9669ZM214.897 21.8232 216.886 22.0345 216.675 24.0233 214.686 23.812ZM222.852 22.6683 224.841 22.8796 224.63 24.8684 222.641 24.6571ZM230.808 23.5134 232.796 23.7247 232.585 25.7135 230.596 25.5022ZM238.763 24.3585 240.752 24.5697 240.54 26.5586 238.552 26.3473ZM246.718 25.2036 248.707 25.4148 248.496 27.4037 246.507 27.1924ZM254.673 26.0487 256.662 26.2599 256.451 28.2488 254.462 28.0375ZM262.629 26.8938 264.617 27.105 264.406 29.0938 262.417 28.8826ZM270.584 27.7389 272.573 27.9501 272.361 29.9389 270.372 29.7277ZM278.539 28.584 280.528 28.7952 280.317 30.784 278.328 30.5728ZM286.494 29.429 288.483 29.6403 288.272 31.6291 286.283 31.4179ZM294.45 30.2741 296.438 30.4854 296.227 32.4742 294.238 32.263ZM302.405 31.1192 304.394 31.3305 304.182 33.3193 302.194 33.1081ZM310.36 31.9643 312.349 32.1756 312.138 34.1644 310.149 33.9531ZM318.315 32.8094 320.304 33.0207 320.093 35.0095 318.104 34.7982ZM326.271 33.6545 328.259 33.8658 328.048 35.8546 326.059 35.6433ZM334.226 34.4996 336.215 34.7109 336.003 36.6997 334.014 36.4884ZM342.181 35.3447 344.17 35.556 343.959 37.5448 341.97 37.3335ZM350.136 36.1898 352.125 36.4011 351.914 38.3899 349.925 38.1786ZM358.092 37.0349 360.08 37.2462 359.869 39.235 357.88 39.0237ZM366.047 37.88 368.036 38.0913 367.824 40.0801 365.836 39.8688ZM374.002 38.7251 375.991 38.9364 375.78 40.9252 373.791 40.7139ZM381.957 39.5702 383.946 39.7815 383.735 41.7703 381.746 41.559ZM389.913 40.4153 391.901 40.6266 391.69 42.6154 389.701 42.4041ZM397.868 41.2604 399.857 41.4717 399.645 43.4605 397.656 43.2492ZM405.823 42.1055 407.812 42.3167 407.601 44.3056 405.612 44.0943ZM413.778 42.9506 415.767 43.1618 415.556 45.1507 413.567 44.9394ZM421.734 43.7957 423.722 44.0069 423.511 45.9958 421.522 45.7845ZM429.689 44.6408 431.678 44.852 431.466 46.8408 429.477 46.6296ZM437.644 45.4859 439.633 45.6971 439.422 47.6859 437.433 47.4747ZM445.599 46.331 447.588 46.5422 447.377 48.531 445.388 48.3198ZM453.554 47.176 455.543 47.3873 455.332 49.3761 453.343 49.1649ZM461.51 48.0211 463.499 48.2324 463.287 50.2212 461.298 50.01ZM469.465 48.8662 471.454 49.0775 471.242 51.0663 469.254 50.855ZM477.42 49.7113 479.409 49.9226 479.198 51.9114 477.209 51.7001ZM485.375 50.5564 487.364 50.7677 487.153 52.7565 485.164 52.5452ZM493.331 51.4015 495.319 51.6128 495.108 53.6016 493.119 53.3903ZM501.286 52.2466 503.275 52.4579 503.063 54.4467 501.075 54.2354ZM509.241 53.0917 511.23 53.303 511.019 55.2918 509.03 55.0805ZM517.196 53.9368 519.185 54.1481 518.974 56.1369 516.985 55.9256ZM525.151 54.7819 527.14 54.9932 526.929 56.982 524.94 56.7707ZM533.107 55.627 535.096 55.8383 534.884 57.8271 532.895 57.6158ZM541.062 56.4721 543.051 56.6834 542.84 58.6722 540.851 58.4609ZM549.017 57.3172 551.006 57.5285 550.795 59.5173 548.806 59.306ZM556.972 58.1623 558.961 58.3736 558.75 60.3624 556.761 60.1511ZM564.928 59.0074 566.916 59.2187 566.705 61.2075 564.716 60.9962ZM572.883 59.8525 574.872 60.0637 574.66 62.0526 572.672 61.8413ZM580.838 60.6976 582.827 60.9088 582.616 62.8976 580.627 62.6864ZM588.793 61.5427 590.782 61.7539 590.571 63.7427 588.582 63.5315ZM596.748 62.3878 598.737 62.599 598.526 64.5878 596.537 64.3766ZM604.704 63.2329 606.693 63.4441 606.481 65.4329 604.492 65.2217ZM612.659 64.078 614.648 64.2892 614.437 66.278 612.448 66.0668ZM620.614 64.923 622.603 65.1343 622.392 67.1231 620.403 66.9119ZM628.569 65.7682 630.558 65.9794 630.347 67.9682 628.358 67.757ZM636.525 66.6132 638.513 66.8245 638.302 68.8133 636.313 68.6021ZM644.48 67.4583 646.408 67.6632 646.197 69.652 644.269 69.4471ZM645.401 64.5393 652.933 69.362 644.556 72.4945Z" transform="matrix(1 0 0 -1 254 325.362)"/><path d="M0.175903-0.984407 2.14472-0.632602 1.79291 1.33621-0.175903 0.984407ZM8.05116 0.422813 10.02 0.774618 9.66817 2.74343 7.69936 2.39163ZM15.9264 1.83003 17.8952 2.18184 17.5434 4.15065 15.5746 3.79885ZM23.8017 3.23725 25.7705 3.58906 25.4187 5.55787 23.4499 5.20607ZM31.6769 4.64447 33.6458 4.99628 33.294 6.9651 31.3251 6.61329ZM39.5522 6.05169 41.521 6.4035 41.1692 8.37232 39.2004 8.02051ZM47.4275 7.45892 49.3963 7.81072 49.0445 9.77954 47.0757 9.42773ZM55.3027 8.86614 57.2715 9.21794 56.9197 11.1868 54.9509 10.835ZM63.178 10.2734 65.1468 10.6252 64.795 12.594 62.8262 12.2422ZM71.0532 11.6806 73.022 12.0324 72.6702 14.0012 70.7014 13.6494ZM78.9285 13.0878 80.8973 13.4396 80.5455 15.4084 78.5767 15.0566ZM86.8037 14.495 88.7726 14.8468 88.4208 16.8156 86.4519 16.4638ZM94.679 15.9022 96.6478 16.254 96.296 18.2229 94.3272 17.8711ZM102.554 17.3095 104.523 17.6613 104.171 19.6301 102.202 19.2783ZM110.43 18.7167 112.398 19.0685 112.047 21.0373 110.078 20.6855ZM118.305 20.1239 120.274 20.4757 119.922 22.4445 117.953 22.0927ZM126.18 21.5311 128.149 21.8829 127.797 23.8517 125.828 23.4999ZM134.055 22.9383 136.024 23.2901 135.672 25.259 133.704 24.9072ZM141.931 24.3456 143.899 24.6974 143.548 26.6662 141.579 26.3144ZM149.806 25.7528 151.775 26.1046 151.423 28.0734 149.454 27.7216ZM157.681 27.16 159.65 27.5118 159.298 29.4806 157.329 29.1288ZM165.556 28.5672 167.525 28.919 167.173 30.8878 165.205 30.536ZM173.432 29.9744 175.4 30.3262 175.049 32.2951 173.08 31.9433ZM181.307 31.3817 183.276 31.7335 182.924 33.7023 180.955 33.3505ZM189.182 32.7889 191.151 33.1407 190.799 35.1095 188.83 34.7577ZM197.057 34.1961 199.026 34.5479 198.674 36.5167 196.706 36.1649ZM204.933 35.6033 206.901 35.9551 206.55 37.9239 204.581 37.5721ZM212.808 37.0105 214.777 37.3624 214.425 39.3312 212.456 38.9794ZM220.683 38.4178 222.652 38.7696 222.3 40.7384 220.331 40.3866ZM228.558 39.825 230.527 40.1768 230.175 42.1456 228.207 41.7938ZM236.434 41.2322 238.403 41.584 238.051 43.5528 236.082 43.201ZM238.48 38.5503 245.651 43.8951 237.072 46.4255Z" transform="matrix(1 0 0 -1 663 345.895)"/><path d="M406.5 593.5C406.5 598.471 390.382 602.5 370.5 602.5 350.618 602.5 334.5 598.471 334.5 593.5 334.5 588.529 350.618 584.5 370.5 584.5 390.382 584.5 406.5 588.529 406.5 593.5L406.5 652.5C406.5 657.471 390.382 661.5 370.5 661.5 350.618 661.5 334.5 657.471 334.5 652.5L334.5 593.5" stroke="#0E2841" stroke-linejoin="round" stroke-miterlimit="10" fill="none" fill-rule="evenodd"/><path d="M578.5 603.5C578.5 608.471 562.382 612.5 542.5 612.5 522.618 612.5 506.5 608.471 506.5 603.5 506.5 598.529 522.618 594.5 542.5 594.5 562.382 594.5 578.5 598.529 578.5 603.5L578.5 662.5C578.5 667.471 562.382 671.5 542.5 671.5 522.618 671.5 506.5 667.471 506.5 662.5L506.5 603.5" stroke="#0E2841" stroke-linejoin="round" stroke-miterlimit="10" fill="none" fill-rule="evenodd"/><path d="M793.5 593.5C793.5 598.471 777.382 602.5 757.5 602.5 737.618 602.5 721.5 598.471 721.5 593.5 721.5 588.529 737.618 584.5 757.5 584.5 777.382 584.5 793.5 588.529 793.5 593.5L793.5 652.5C793.5 657.471 777.382 661.5 757.5 661.5 737.618 661.5 721.5 657.471 721.5 652.5L721.5 593.5" stroke="#0E2841" stroke-linejoin="round" stroke-miterlimit="10" fill="none" fill-rule="evenodd"/><path d="M308.834 202.128 407.436 290.674 406.768 291.418 308.166 202.872ZM408.782 287.179 412.062 295.501 403.437 293.132Z" fill="#0E2841"/><path d="M376.924 295.469 373.942 292.802 374.609 292.057 377.59 294.723ZM371.706 290.802 368.725 288.135 369.391 287.39 372.373 290.057ZM366.488 286.135 363.507 283.469 364.174 282.723 367.155 285.39ZM361.271 281.469 358.289 278.802 358.956 278.057 361.938 280.723ZM356.053 276.802 353.072 274.135 353.739 273.39 356.72 276.057ZM350.836 272.136 347.854 269.469 348.521 268.724 351.502 271.39ZM345.618 267.469 342.637 264.802 343.303 264.057 346.285 266.724ZM340.401 262.802 337.419 260.136 338.086 259.39 341.067 262.057ZM335.183 258.136 332.202 255.469 332.868 254.724 335.85 257.39ZM329.966 253.469 326.984 250.802 327.651 250.057 330.632 252.724ZM324.748 248.802 321.767 246.136 322.433 245.391 325.415 248.057ZM319.531 244.136 316.549 241.469 317.216 240.724 320.197 243.391ZM314.313 239.469 311.332 236.803 311.998 236.057 314.98 238.724ZM309.095 234.803 306.114 232.136 306.781 231.391 309.762 234.057ZM303.878 230.136 300.896 227.469 301.563 226.724 304.545 229.391ZM298.66 225.469 295.679 222.803 296.346 222.057 299.327 224.724ZM293.796 225.815 290.5 217.5 299.13 219.852Z" fill="#0E2841"/><path d="M0.499998-0.00135175 0.725964 83.5813-0.274032 83.584-0.499998 0.00135175ZM4.22235 82.2386 0.243989 90.2493-3.77762 82.2602Z" fill="#0E2841" transform="matrix(-1 0 0 1 501.744 203.5)"/><path d="M0.5-6.15757e-07 0.500005 4-0.499995 4-0.5 6.15757e-07ZM0.500009 7 0.500014 11-0.499986 11-0.499991 7ZM0.500017 14 0.500022 18-0.499978 18-0.499983 14ZM0.500026 21 0.500031 25-0.499969 25-0.499974 21ZM0.500035 28 0.500039 32-0.499961 32-0.499965 28ZM0.500043 35 0.500048 39-0.499952 39-0.499957 35ZM0.500052 42 0.500057 46-0.499943 46-0.499948 42ZM0.50006 49 0.500065 53-0.499935 53-0.49994 49ZM0.500069 56 0.500074 60-0.499926 60-0.499931 56ZM0.500078 63 0.500082 67-0.499917 67-0.499922 63ZM0.500086 70 0.500091 74-0.499909 74-0.499914 70ZM0.500095 77 0.500097 78.5835-0.499903 78.5835-0.499905 77ZM4.00009 77.2502 0.000104987 85.2502-3.9999 77.2502Z" fill="#0E2841" transform="matrix(1 0 0 -1 526.5 288.75)"/><text font-family="Aptos,Aptos_MSFontService,sans-serif" font-weight="400" font-size="21.3333" transform="translate(248.542 655)">RDBMS</text><rect x="421.5" y="455.5" width="240" height="80" stroke="#0E2841" stroke-linejoin="round" stroke-miterlimit="10" fill="none"/><text font-family="Aptos,Aptos_MSFontService,sans-serif" font-weight="400" font-size="21.3333" transform="translate(440.62 502)">Model CRUD Services</text><path d="M0.202148-0.457314 60.3396 26.1254 59.9353 27.04-0.202148 0.457314ZM60.5351 22.3851 66.235 29.278 57.3007 29.7022Z" fill="#0E2841" transform="matrix(-1 0 0 1 467.735 555.5)"/><path d="M0.499997-0.0018544 0.64787 39.8687-0.352123 39.8724-0.499997 0.0018544ZM4.1429 38.5224 0.172598 46.5372-3.85704 38.5521Z" fill="#0E2841" transform="matrix(-1 0 0 1 541.673 541.5)"/><path d="M630.715 551.049 701.709 584.861 701.28 585.764 630.285 551.951ZM702.011 581.128 707.513 588.179 698.571 588.35Z" fill="#0E2841"/><text font-family="Aptos,Aptos_MSFontService,sans-serif" font-weight="400" font-size="21.3333" transform="translate(433.7 649)">NoSQL</text><text font-family="Aptos,Aptos_MSFontService,sans-serif" font-weight="400" font-size="21.3333" transform="translate(629.987 649)">GraphDB</text><path d="M533 406.5 533 448.974 532 448.974 532 406.5ZM536.5 447.641 532.5 455.641 528.5 447.641Z" fill="#0E2841"/><path d="M729.053 573.674 725.403 572.038 725.812 571.126 729.462 572.762ZM722.665 570.811 719.015 569.175 719.424 568.262 723.074 569.899ZM716.278 567.948 712.628 566.312 713.037 565.399 716.687 567.035ZM709.89 565.084 706.24 563.448 706.649 562.536 710.299 564.172ZM703.503 562.221 699.853 560.585 700.262 559.672 703.912 561.309ZM697.115 559.358 693.465 557.722 693.874 556.809 697.524 558.445ZM690.727 556.494 687.077 554.858 687.486 553.946 691.136 555.582ZM684.34 553.631 680.69 551.995 681.099 551.082 684.749 552.719ZM677.952 550.768 674.302 549.132 674.711 548.219 678.361 549.855ZM671.565 547.904 667.915 546.268 668.324 545.356 671.974 546.992ZM665.177 545.041 664.379 544.683 664.788 543.771 665.586 544.129ZM664.164 548.422 658.5 541.5 667.436 541.122Z" fill="#0E2841"/><path d="M0.205183-0.45596 3.85287 1.18551 3.4425 2.09743-0.205183 0.45596ZM6.58863 2.41661 10.2363 4.05807 9.82594 4.96999 6.17826 3.32853ZM12.9721 5.28917 16.6198 6.93064 16.2094 7.84256 12.5617 6.20109ZM19.3555 8.16174 23.0032 9.8032 22.5928 10.7151 18.9452 9.07366ZM25.739 11.0343 29.3866 12.6758 28.9763 13.5877 25.3286 11.9462ZM32.1224 13.9069 35.7701 15.5483 35.3597 16.4603 31.712 14.8188ZM38.5058 16.7794 42.1535 18.4209 41.7432 19.3328 38.0955 17.6914ZM45.0048 15.8659 50.6587 22.7965 41.7219 23.1613Z" fill="#0E2841" transform="matrix(1 0 0 -1 381.5 568.297)"/><path d="M0.5-1.1114e-06 0.500009 4-0.499991 4-0.5 1.1114e-06ZM0.500016 7 0.500024 11-0.499976 11-0.499984 7ZM0.500031 14 0.50004 18-0.49996 18-0.499969 14ZM0.500047 21 0.500056 25-0.499944 25-0.499953 21ZM0.500062 28 0.500071 32-0.499929 32-0.499938 28ZM0.500078 35 0.500087 39-0.499913 39-0.499922 35ZM4.00009 39.2319 0.000104987 47.2319-3.99991 39.2319Z" fill="#0E2841" transform="matrix(1 0 0 -1 564.5 586.732)"/><path d="M555 456.878 555 452.878 556 452.878 556 456.878ZM555 449.878 555 445.878 556 445.878 556 449.878ZM555 442.878 555 438.878 556 438.878 556 442.878ZM555 435.878 555 431.878 556 431.878 556 435.878ZM555 428.878 555 424.878 556 424.878 556 428.878ZM555 421.878 555 417.878 556 417.878 556 421.878ZM551.5 416.5 555.5 408.5 559.5 416.5Z" fill="#0E2841"/><rect x="888.5" y="447.5" width="254" height="81" stroke="#0E2841" stroke-linejoin="round" stroke-miterlimit="10" fill="none"/><text font-family="Aptos,Aptos_MSFontService,sans-serif" font-weight="400" font-size="21.3333" transform="translate(954.029 482)">KerML</text><text font-family="Aptos,Aptos_MSFontService,sans-serif" font-weight="400" font-size="21.3333" transform="translate(1011.74 482)">-</text><text font-family="Aptos,Aptos_MSFontService,sans-serif" font-weight="400" font-size="21.3333" transform="translate(1019.08 482)">based</text><text font-family="Aptos,Aptos_MSFontService,sans-serif" font-weight="400" font-size="21.3333" transform="translate(962.596 507)">Metamodel</text><text font-family="Aptos,Aptos_MSFontService,sans-serif" font-style="italic" font-weight="400" font-size="21.3333" transform="translate(139.924 497)">Systems Modeling API</text><text font-family="Aptos,Aptos_MSFontService,sans-serif" font-style="italic" font-weight="400" font-size="21.3333" transform="translate(139.924 522)">and Services Provider</text><text font-family="Aptos,Aptos_MSFontService,sans-serif" font-weight="400" font-size="21.3333" transform="translate(139.924 548)">(Pilot Implementation)</text><text font-family="Aptos,Aptos_MSFontService,sans-serif" font-weight="400" font-size="21.3333" transform="translate(1027.72 562)">Schema</text><text font-family="Aptos,Aptos_MSFontService,sans-serif" font-weight="400" font-size="21.3333" transform="translate(1027.72 587)">influenced</text><text font-family="Aptos,Aptos_MSFontService,sans-serif" font-weight="400" font-size="21.3333" transform="translate(1027.72 613)">by</text><path d="M923 150 925 150 925 152 923 152ZM931 150 933 150 933 152 931 152ZM939 150 941 150 941 152 939 152ZM947 150 949 150 949 152 947 152ZM955 150 957 150 957 152 955 152ZM963 150 965 150 965 152 963 152ZM971 150 973 150 973 152 971 152ZM979 150 981 150 981 152 979 152ZM987 150 989 150 989 152 987 152ZM995 150 997 150 997 152 995 152ZM1003 150 1005 150 1005 152 1003 152ZM1011 150 1013 150 1013 152 1011 152ZM1019 150 1021 150 1021 152 1019 152ZM1027 150 1029 150 1029 152 1027 152ZM1035 150 1037 150 1037 152 1035 152ZM1043 150 1045 150 1045 152 1043 152ZM1051 150 1053 150 1053 152 1051 152ZM1059 150 1061 150 1061 152 1059 152ZM1067 150 1069 150 1069 152 1067 152ZM1075 150 1077 150 1077 152 1075 152ZM1083 150 1085 150 1085 152 1083 152ZM1091 150 1093 150 1093 152 1091 152ZM1099 150 1101 150 1101 152 1099 152ZM1107 150 1109 150 1109 152 1107 152ZM1115 150 1117 150 1117 152 1115 152ZM1123 150 1125 150 1125 152 1123 152ZM1128.59 154.406 1128.59 156.406 1126.59 156.406 1126.59 154.406ZM1128.59 162.406 1128.59 164.406 1126.59 164.406 1126.59 162.406ZM1128.59 170.406 1128.59 172.406 1126.59 172.406 1126.59 170.406ZM1128.59 178.406 1128.59 180.406 1126.59 180.406 1126.59 178.406ZM1128.59 186.406 1128.59 188.406 1126.59 188.406 1126.59 186.406ZM1128.59 194.406 1128.59 196.406 1126.59 196.406 1126.59 194.406ZM1128.59 202.406 1128.59 204.406 1126.59 204.406 1126.59 202.406ZM1128.59 210.406 1128.59 212.406 1126.59 212.406 1126.59 210.406ZM1128.59 218.406 1128.59 220.406 1126.59 220.406 1126.59 218.406ZM1128.59 226.406 1128.59 228.406 1126.59 228.406 1126.59 226.406ZM1128.59 234.406 1128.59 236.406 1126.59 236.406 1126.59 234.406ZM1128.59 242.406 1128.59 244.406 1126.59 244.406 1126.59 242.406ZM1128.59 250.406 1128.59 252.406 1126.59 252.406 1126.59 250.406ZM1128.59 258.406 1128.59 260.406 1126.59 260.406 1126.59 258.406ZM1128.59 266.406 1128.59 268.406 1126.59 268.406 1126.59 266.406ZM1128.59 274.406 1128.59 276.406 1126.59 276.406 1126.59 274.406ZM1128.59 282.406 1128.59 284.406 1126.59 284.406 1126.59 282.406ZM1128.59 290.406 1128.59 292.406 1126.59 292.406 1126.59 290.406ZM1128.59 298.406 1128.59 300.406 1126.59 300.406 1126.59 298.406ZM1128.59 306.406 1128.59 308.406 1126.59 308.406 1126.59 306.406ZM1128.59 314.406 1128.59 316.406 1126.59 316.406 1126.59 314.406ZM1128.59 322.406 1128.59 324.406 1126.59 324.406 1126.59 322.406ZM1128.59 330.406 1128.59 332.406 1126.59 332.406 1126.59 330.406ZM1128.59 338.406 1128.59 340.406 1126.59 340.406 1126.59 338.406ZM1128.59 346.406 1128.59 348.406 1126.59 348.406 1126.59 346.406ZM1128.59 354.406 1128.59 356.406 1126.59 356.406 1126.59 354.406ZM1128.59 362.406 1128.59 364.406 1126.59 364.406 1126.59 362.406ZM1128.59 370.406 1128.59 372.406 1126.59 372.406 1126.59 370.406ZM1128.59 378.406 1128.59 380.406 1126.59 380.406 1126.59 378.406ZM1128.59 386.406 1128.59 388.406 1126.59 388.406 1126.59 386.406ZM1128.59 394.406 1128.59 396.406 1126.59 396.406 1126.59 394.406ZM1128.59 402.406 1128.59 404.406 1126.59 404.406 1126.59 402.406ZM1128.59 410.406 1128.59 412.406 1126.59 412.406 1126.59 410.406ZM1128.59 418.406 1128.59 420.406 1126.59 420.406 1126.59 418.406ZM1128.59 426.406 1128.59 428.406 1126.59 428.406 1126.59 426.406ZM1128.59 434.406 1128.59 436.406 1126.59 436.406 1126.59 434.406ZM923 155C920.791 155 919 153.209 919 151 919 148.791 920.791 147 923 147 925.209 147 927 148.791 927 151 927 153.209 925.209 155 923 155ZM1131.59 439.463 1127.59 447.463 1123.59 439.463Z"/><path d="M0-1 2-1 2 1 0 1ZM8-1 10-1 10 1 8 1ZM16-1 18-1 18 1 16 1ZM24-1 26-1 26 1 24 1ZM32-1 34-1 34 1 32 1ZM40-1 42-1 42 1 40 1ZM48-1 50-1 50 1 48 1ZM56-1 58-1 58 1 56 1ZM64-1 66-1 66 1 64 1ZM72-1 74-1 74 1 72 1ZM80-1 82-1 82 1 80 1ZM88-1 90-1 90 1 88 1ZM96-1 98-1 98 1 96 1ZM104-1 106-1 106 1 104 1ZM112-1 114-1 114 1 112 1ZM120-1 122-1 122 1 120 1ZM128-1 130-1 130 1 128 1ZM136-1 138-1 138 1 136 1ZM144-1 146-1 146 1 144 1ZM152-1 154-1 154 1 152 1ZM160-1 162-1 162 1 160 1ZM168-1 170-1 170 1 168 1ZM176-1 178-1 178 1 176 1ZM184-1 186-1 186 1 184 1ZM192.122 0.878425 192.122 2.87843 190.122 2.87843 190.122 0.878425ZM192.122 8.87842 192.122 10.8784 190.122 10.8784 190.122 8.87842ZM192.122 16.8784 192.122 18.8784 190.122 18.8784 190.122 16.8784ZM192.122 24.8784 192.122 26.8784 190.122 26.8784 190.122 24.8784ZM192.122 32.8784 192.122 34.8784 190.122 34.8784 190.122 32.8784ZM192.122 40.8784 192.122 42.8784 190.122 42.8784 190.122 40.8784ZM192.122 48.8784 192.122 50.8784 190.122 50.8784 190.122 48.8784ZM192.122 56.8784 192.122 58.8784 190.122 58.8784 190.122 56.8784ZM192.122 64.8784 192.122 66.8784 190.122 66.8784 190.122 64.8784ZM192.122 72.8784 192.122 74.8784 190.122 74.8784 190.122 72.8784ZM192.122 80.8784 192.122 82.4722 190.122 82.4722 190.122 80.8784ZM0 4C-2.20914 4-4 2.20914-4 0-4-2.20914-2.20914-4 0-4 2.20914-4 4-2.20914 4 0 4 2.20914 2.20914 4 0 4ZM195.122 81.1389 191.122 89.1389 187.122 81.1389Z" transform="matrix(1 0 0 -1 824 617.139)"/><text font-family="Aptos,Aptos_MSFontService,sans-serif" font-weight="400" font-size="21.3333" transform="translate(958.612 174)">Active validation</text><text font-family="Aptos,Aptos_MSFontService,sans-serif" font-weight="400" font-size="21.3333" transform="translate(958.612 199)">based on</text><path d="M85.5001 238 144.478 238 144.478 239 85.5001 239ZM143.145 234.5 151.145 238.5 143.145 242.5Z" fill="#0E2841"/><text font-family="Aptos,Aptos_MSFontService,sans-serif" font-weight="400" font-size="17.7733" transform="translate(79.3537 223)">Request</text><path d="M7.99656e-07-0.5 4-0.499994 4 0.500006-7.99656e-07 0.5ZM7-0.499989 11-0.499982 11 0.500018 7 0.500011ZM14-0.499978 18-0.499971 18 0.500029 14 0.500022ZM21-0.499966 25-0.49996 25 0.50004 21 0.500034ZM28-0.499955 32-0.499949 32 0.500051 28 0.500045ZM35-0.499944 39-0.499938 39 0.500062 35 0.500056ZM42-0.499933 46-0.499926 46 0.500074 42 0.500067ZM49-0.499922 53-0.499915 53 0.500085 49 0.500078ZM56-0.49991 58.9784-0.499906 58.9784 0.500094 56 0.50009ZM57.645-3.99991 65.645 0.000104987 57.645 4.00009Z" fill="#0E2841" transform="matrix(-1 0 0 1 148.145 256.5)"/><text font-family="Aptos,Aptos_MSFontService,sans-serif" font-weight="400" font-size="17.7733" transform="translate(76.0146 273)">Response</text><path d="M0.324116-0.380722 95.2924 80.4676 94.6442 81.229-0.324116 0.380722ZM96.546 76.9382 100.045 85.1699 91.3601 83.0298Z" fill="#0E2841" transform="matrix(-1 0 0 1 733.545 212.5)"/><path d="M0.327441-0.377865 3.35036 2.24167 2.69548 2.9974-0.327441 0.377865ZM5.61756 4.20631 8.64048 6.82584 7.9856 7.58157 4.96267 4.96204ZM10.9077 8.79049 13.9306 11.41 13.2757 12.1658 10.2528 9.54622ZM16.1978 13.3747 19.2207 15.9942 18.5658 16.7499 15.5429 14.1304ZM21.4879 17.9589 24.5108 20.5784 23.8559 21.3341 20.833 18.7146ZM26.778 22.543 29.8009 25.1626 29.146 25.9183 26.1231 23.2988ZM32.0681 27.1272 35.091 29.7467 34.4362 30.5025 31.4132 27.8829ZM37.3582 31.7114 40.3812 34.3309 39.7263 35.0867 36.7034 32.4671ZM42.6484 36.2956 45.6713 38.9151 45.0164 39.6708 41.9935 37.0513ZM47.9385 40.8797 50.9614 43.4993 50.3065 44.255 47.2836 41.6355ZM53.2286 45.4639 56.2515 48.0835 55.5966 48.8392 52.5737 46.2197ZM58.5187 50.0481 61.5416 52.6676 60.8867 53.4234 57.8638 50.8038ZM63.8088 54.6323 66.8317 57.2518 66.1768 58.0075 63.1539 55.388ZM69.0989 59.2165 72.1218 61.836 71.4669 62.5917 68.444 59.9722ZM74.389 63.8006 77.4119 66.4202 76.7571 67.1759 73.7341 64.5564ZM79.6791 68.3848 82.7021 71.0044 82.0472 71.7601 79.0243 69.1406ZM84.9693 72.969 85.2696 73.2292 84.6147 73.985 84.3144 73.7247ZM86.5541 69.711 89.9804 77.973 81.315 75.7569Z" fill="#0E2841" transform="matrix(1 0 0 -1 612.5 286.473)"/><rect x="937.5" y="310.5" width="152" height="45" stroke="#0E2841" stroke-linejoin="round" stroke-miterlimit="10" fill="none"/><text font-family="Aptos,Aptos_MSFontService,sans-serif" font-style="italic" font-weight="400" font-size="21.3333" transform="translate(991.304 339)">Data</text><text font-family="Aptos,Aptos_MSFontService,sans-serif" font-weight="400" font-size="21.3333" transform="translate(762.842 293)">Conforms to</text><path d="M1013.8 447.798 1013.76 445.799 1015.76 445.76 1015.8 447.76ZM1013.64 439.8 1013.6 437.8 1015.6 437.762 1015.64 439.761ZM1013.49 431.801 1013.45 429.802 1015.45 429.763 1015.49 431.763ZM1013.33 423.803 1013.29 421.803 1015.29 421.764 1015.33 423.764ZM1013.18 415.804 1013.14 413.805 1015.14 413.766 1015.18 415.766ZM1013.02 407.806 1012.98 405.806 1014.98 405.768 1015.02 407.767ZM1012.87 399.807 1012.83 397.808 1014.83 397.769 1014.87 399.769ZM1012.71 391.809 1012.67 389.809 1014.67 389.771 1014.71 391.77ZM1012.56 383.81 1012.52 381.811 1014.52 381.772 1014.56 383.772ZM1012.4 375.812 1012.36 373.812 1014.36 373.773 1014.4 375.773ZM1012.25 367.813 1012.21 365.814 1014.21 365.775 1014.25 367.775ZM1009.16 363.076 1013 355 1017.15 362.921Z"/><text font-family="Aptos,Aptos_MSFontService,sans-serif" font-weight="400" font-size="21.3333" transform="translate(928.238 411)">Realizes</text></g></svg>