<?xml version="1.0" encoding="UTF-8" standalone="no"?>
<!-- Created with Inkscape (http://www.inkscape.org/) -->

<svg
   version="1.1"
   id="svg1"
   width="352"
   height="166.72"
   viewBox="0 0 352 166.72"
   xmlns="http://www.w3.org/2000/svg"
   xmlns:svg="http://www.w3.org/2000/svg">
  <defs
     id="defs1">
    <clipPath
       clipPathUnits="userSpaceOnUse"
       id="clipPath2">
      <path
         d="M 0,0 H 1097.9981 V 518.99414 H 0 Z"
         transform="scale(0.31999999)"
         clip-rule="evenodd"
         id="path2" />
    </clipPath>
    <clipPath
       clipPathUnits="userSpaceOnUse"
       id="clipPath4">
      <path
         d="M 3.125,0 H 1093.75 V 518.75 H 3.125 Z"
         transform="matrix(0.33693848,0,0,0.33693848,395.87738,1507.947)"
         clip-rule="evenodd"
         id="path4" />
    </clipPath>
    <clipPath
       clipPathUnits="userSpaceOnUse"
       id="clipPath6">
      <path
         d="M 3.125,0 H 1093.75 V 518.75 H 3.125 Z"
         transform="matrix(0.33693848,0,0,0.33693848,395.87738,1507.947)"
         clip-rule="evenodd"
         id="path6" />
    </clipPath>
    <clipPath
       clipPathUnits="userSpaceOnUse"
       id="clipPath8">
      <path
         d="M 3.125,0 H 1093.75 V 518.75 H 3.125 Z"
         transform="matrix(0.33693848,0,0,0.33693848,395.87738,1507.947)"
         clip-rule="evenodd"
         id="path8" />
    </clipPath>
    <clipPath
       clipPathUnits="userSpaceOnUse"
       id="clipPath10">
      <path
         d="M 3.125,0 H 1093.75 V 518.75 H 3.125 Z"
         transform="matrix(0.33693848,0,0,0.33693848,395.87738,1507.947)"
         clip-rule="evenodd"
         id="path10" />
    </clipPath>
    <clipPath
       clipPathUnits="userSpaceOnUse"
       id="clipPath12">
      <path
         d="M 3.125,0 H 1093.75 V 518.75 H 3.125 Z"
         transform="matrix(0.33693848,0,0,0.33693848,395.87738,1507.947)"
         clip-rule="evenodd"
         id="path12" />
    </clipPath>
    <clipPath
       clipPathUnits="userSpaceOnUse"
       id="clipPath14">
      <path
         d="M 3.125,0 H 1093.75 V 518.75 H 3.125 Z"
         transform="matrix(0.33693848,0,0,0.33693848,395.87738,1507.947)"
         clip-rule="evenodd"
         id="path14" />
    </clipPath>
    <clipPath
       clipPathUnits="userSpaceOnUse"
       id="clipPath16">
      <path
         d="M 3.125,0 H 1093.75 V 518.75 H 3.125 Z"
         transform="matrix(0.33693848,0,0,0.33693848,395.87738,1507.947)"
         clip-rule="evenodd"
         id="path16" />
    </clipPath>
    <clipPath
       clipPathUnits="userSpaceOnUse"
       id="clipPath18">
      <path
         d="M 3.125,0 H 1093.75 V 518.75 H 3.125 Z"
         transform="matrix(0.33693848,0,0,0.33693848,395.87738,1507.947)"
         clip-rule="evenodd"
         id="path18" />
    </clipPath>
    <clipPath
       clipPathUnits="userSpaceOnUse"
       id="clipPath19">
      <path
         d="M 3.125,0 H 1093.75 V 518.75 H 3.125 Z"
         transform="matrix(0.33693848,0,0,0.33693848,-22.544477,-52.552885)"
         clip-rule="evenodd"
         id="path19" />
    </clipPath>
    <clipPath
       clipPathUnits="userSpaceOnUse"
       id="clipPath21">
      <path
         d="M 3.125,0 H 1093.75 V 518.75 H 3.125 Z"
         transform="matrix(0.33693848,0,0,-0.33693848,395.87738,1532.0529)"
         clip-rule="evenodd"
         id="path21" />
    </clipPath>
    <clipPath
       clipPathUnits="userSpaceOnUse"
       id="clipPath26">
      <path
         d="M 3.125,0 H 1093.75 V 518.75 H 3.125 Z"
         transform="matrix(0.33693848,0,0,0.33693848,-4.6225975,-15.552885)"
         clip-rule="evenodd"
         id="path26" />
    </clipPath>
    <clipPath
       clipPathUnits="userSpaceOnUse"
       id="clipPath28">
      <path
         d="M 3.125,0 H 1093.75 V 518.75 H 3.125 Z"
         transform="matrix(0.33693848,0,0,0.33693848,395.87738,1507.947)"
         clip-rule="evenodd"
         id="path28" />
    </clipPath>
    <clipPath
       clipPathUnits="userSpaceOnUse"
       id="clipPath29">
      <path
         d="M 3.125,0 H 1093.75 V 518.75 H 3.125 Z"
         transform="matrix(0.33693848,0,0,0.33693848,-22.544477,-142.55289)"
         clip-rule="evenodd"
         id="path29" />
    </clipPath>
    <clipPath
       clipPathUnits="userSpaceOnUse"
       id="clipPath31">
      <path
         d="M 3.125,0 H 1093.75 V 518.75 H 3.125 Z"
         transform="matrix(0.33693848,0,0,-0.33693848,395.87738,1712.0531)"
         clip-rule="evenodd"
         id="path31" />
    </clipPath>
    <clipPath
       clipPathUnits="userSpaceOnUse"
       id="clipPath36">
      <path
         d="M 3.125,0 H 1093.75 V 518.75 H 3.125 Z"
         transform="matrix(0.33693848,0,0,0.33693848,-4.6225975,-105.55288)"
         clip-rule="evenodd"
         id="path36" />
    </clipPath>
    <clipPath
       clipPathUnits="userSpaceOnUse"
       id="clipPath38">
      <path
         d="M 3.125,0 H 1093.75 V 518.75 H 3.125 Z"
         transform="matrix(0.33693848,0,0,0.33693848,395.87738,1507.947)"
         clip-rule="evenodd"
         id="path38" />
    </clipPath>
    <clipPath
       clipPathUnits="userSpaceOnUse"
       id="clipPath39">
      <path
         d="M 3.125,0 H 1093.75 V 518.75 H 3.125 Z"
         transform="matrix(0.33693848,0,0,0.33693848,-276.54447,-62.552885)"
         clip-rule="evenodd"
         id="path39" />
    </clipPath>
    <clipPath
       clipPathUnits="userSpaceOnUse"
       id="clipPath41">
      <path
         d="M 3.125,0 H 1093.75 V 518.75 H 3.125 Z"
         transform="matrix(0.33693848,0,0,-0.33693848,395.87738,1552.053)"
         clip-rule="evenodd"
         id="path41" />
    </clipPath>
    <clipPath
       clipPathUnits="userSpaceOnUse"
       id="clipPath46">
      <path
         d="M 3.125,0 H 1093.75 V 518.75 H 3.125 Z"
         transform="matrix(0.33693848,0,0,0.33693848,-258.6226,-25.552885)"
         clip-rule="evenodd"
         id="path46" />
    </clipPath>
    <clipPath
       clipPathUnits="userSpaceOnUse"
       id="clipPath48">
      <path
         d="M 3.125,0 H 1093.75 V 518.75 H 3.125 Z"
         transform="matrix(0.33693848,0,0,0.33693848,395.87738,1507.947)"
         clip-rule="evenodd"
         id="path48" />
    </clipPath>
    <clipPath
       clipPathUnits="userSpaceOnUse"
       id="clipPath49">
      <path
         d="M 3.125,0 H 1093.75 V 518.75 H 3.125 Z"
         transform="matrix(0.33693848,0,0,0.33693848,-276.54447,-152.55289)"
         clip-rule="evenodd"
         id="path49" />
    </clipPath>
    <clipPath
       clipPathUnits="userSpaceOnUse"
       id="clipPath51">
      <path
         d="M 3.125,0 H 1093.75 V 518.75 H 3.125 Z"
         transform="matrix(0.33693848,0,0,-0.33693848,395.87738,1732.053)"
         clip-rule="evenodd"
         id="path51" />
    </clipPath>
    <clipPath
       clipPathUnits="userSpaceOnUse"
       id="clipPath56">
      <path
         d="M 3.125,0 H 1093.75 V 518.75 H 3.125 Z"
         transform="matrix(0.33693848,0,0,0.33693848,-258.6226,-115.55289)"
         clip-rule="evenodd"
         id="path56" />
    </clipPath>
  </defs>
  <g
     id="g1">
    <path
       id="path1"
       d="M 0,0 H 351 V 166 H 0 Z"
       style="fill:#ffffff;fill-opacity:1;fill-rule:nonzero;stroke:none"
       clip-path="url(#clipPath2)" />
    <path
       id="path3"
       d="m 585.38928,1596.1664 4.43579,-2.3074 0.46143,0.8872 -4.43579,2.3074 m 8.41009,-5.502 4.43579,-2.3073 0.46143,0.8872 -4.43579,2.3073 m 8.41009,-5.5019 4.4358,-2.3074 0.46142,0.8872 -4.43579,2.3074 m 8.41016,-5.502 4.43573,-2.3073 0.46142,0.8872 -4.43573,2.3074 m 8.4101,-5.502 4.43573,-2.3074 0.46142,0.8872 -4.43573,2.3074 m 8.4101,-5.5019 4.43579,-2.3074 0.46143,0.8872 -4.4358,2.3074 m 8.4101,-5.502 4.43579,-2.3074 0.46143,0.8872 -4.43579,2.3074 m 8.41009,-5.5019 4.43579,-2.3074 0.46143,0.8872 -4.43579,2.3074"
       style="fill:#000000;fill-opacity:1;fill-rule:nonzero;stroke:none"
       transform="matrix(0.94972822,0,0,0.94972822,-375.97592,-1432.1398)"
       clip-path="url(#clipPath4)" />
    <path
       id="path5"
       d="m 647.78998,1570.47 7.22003,-9.95 -12.29999,0.19"
       style="fill:none;stroke:#000000;stroke-width:1;stroke-linecap:butt;stroke-linejoin:miter;stroke-miterlimit:10;stroke-dasharray:none;stroke-opacity:1"
       transform="matrix(0.94972822,0,0,0.94972822,-375.97592,-1432.1398)"
       clip-path="url(#clipPath6)" />
    <path
       id="path7"
       d="m 585.96002,1598 c -6e-5,0.3977 -0.0762,0.7803 -0.22845,1.1478 -0.15222,0.3676 -0.36896,0.692 -0.65027,0.9734 -0.28131,0.2813 -0.60578,0.4981 -0.97327,0.6503 -0.36755,0.1522 -0.75024,0.2284 -1.14801,0.2285 -0.39789,-10e-5 -0.78058,-0.076 -1.14813,-0.2285 -0.36755,-0.1522 -0.69196,-0.369 -0.97321,-0.6503 -0.28131,-0.2814 -0.4981,-0.6058 -0.65039,-0.9734 -0.15222,-0.3675 -0.22833,-0.7501 -0.22827,-1.1478 -6e-5,-0.3979 0.0761,-0.7806 0.22827,-1.1482 0.15229,-0.3675 0.36908,-0.6919 0.65039,-0.9731 0.28125,-0.2814 0.60566,-0.4982 0.97321,-0.6504 0.36755,-0.1522 0.75024,-0.2283 1.14813,-0.2283 0.39777,0 0.78046,0.076 1.14801,0.2283 0.36749,0.1522 0.69196,0.369 0.97327,0.6504 0.28131,0.2812 0.49805,0.6056 0.65027,0.9731 0.15222,0.3676 0.22839,0.7503 0.22845,1.1482 z"
       style="fill:#000000;fill-opacity:1;fill-rule:nonzero;stroke:#000000;stroke-width:1;stroke-linecap:butt;stroke-linejoin:miter;stroke-miterlimit:10;stroke-dasharray:none;stroke-opacity:1"
       transform="matrix(0.94972822,0,0,0.94972822,-375.97592,-1432.1398)"
       clip-path="url(#clipPath8)" />
    <path
       id="path9"
       d="m 585.80927,1599.0665 4.33447,2.4925 -0.49854,0.8669 -4.33447,-2.4924 m 9.16748,4.118 4.33441,2.4925 -0.49853,0.8669 -4.33441,-2.4924 m 9.16741,4.1179 4.33448,2.4925 -0.49854,0.867 -4.33447,-2.4926 m 9.16748,4.1181 4.33447,2.4924 -0.49853,0.8669 -4.33448,-2.4924 m 9.16749,4.1181 4.33447,2.4924 -0.49854,0.8669 -4.33447,-2.4924 m 9.16742,4.118 4.33447,2.4925 -0.49853,0.8669 -4.33448,-2.4924 m 9.16748,4.1179 4.33448,2.4926 -0.49854,0.8669 -4.33447,-2.4926 m 9.16748,4.1181 4.33441,2.4924 -0.49853,0.867 -4.33441,-2.4925"
       style="fill:#000000;fill-opacity:1;fill-rule:nonzero;stroke:none"
       transform="matrix(0.94972822,0,0,0.94972822,-375.97592,-1432.1398)"
       clip-path="url(#clipPath10)" />
    <path
       id="path11"
       d="m 642.75,1638.73 12.28003,0.7099 -6.79004,-10.25"
       style="fill:none;stroke:#000000;stroke-width:1;stroke-linecap:butt;stroke-linejoin:miter;stroke-miterlimit:10;stroke-dasharray:none;stroke-opacity:1"
       transform="matrix(0.94972822,0,0,0.94972822,-375.97592,-1432.1398)"
       clip-path="url(#clipPath12)" />
    <path
       id="path13"
       d="m 509.75064,1639.5667 4.33377,-2.4937 0.49878,0.8667 -4.33383,2.4937 m 8.16885,-5.8539 4.3338,-2.4937 0.49878,0.8667 -4.3338,2.4937 m 8.16883,-5.854 4.3338,-2.4937 0.49878,0.8667 -4.33381,2.4937 m 8.16883,-5.8539 4.33386,-2.4937 0.49878,0.8667 -4.33386,2.4937 m 8.16888,-5.854 4.3338,-2.4936 0.49878,0.8667 -4.3338,2.4936 m 8.16882,-5.8539 4.33381,-2.4937 0.49877,0.8667 -4.3338,2.4937 m 8.16883,-5.8539 4.3338,-2.4936 0.49878,0.8667 -4.3338,2.4936 m 8.16882,-5.854 4.3338,-2.4937 0.49878,0.8668 -4.3338,2.4936 m 8.16882,-5.8539 1.02912,-0.5921 0.49877,0.8667 -1.02911,0.5921"
       style="fill:#000000;fill-opacity:1;fill-rule:nonzero;stroke:none"
       transform="matrix(0.94972822,0,0,0.94972822,-375.97592,-1432.1398)"
       clip-path="url(#clipPath14)" />
    <path
       id="path15"
       d="m 508.24872,1554.5663 4.33758,2.487 -0.49743,0.8675 -4.33759,-2.4871 m 9.17255,4.1067 4.33758,2.4872 -0.49743,0.8674 -4.33759,-2.4872 m 9.17255,4.1069 4.33758,2.487 -0.49743,0.8674 -4.33759,-2.487 m 9.17255,4.1067 4.33758,2.487 -0.49743,0.8675 -4.33759,-2.4871 m 9.17261,4.1067 4.33752,2.4872 -0.49743,0.8674 -4.33753,-2.4872 m 9.17255,4.1068 4.33752,2.4871 -0.49743,0.8674 -4.33753,-2.487 m 9.17255,4.1067 4.33752,2.487 -0.49743,0.8675 -4.33753,-2.4871 m 9.17255,4.1068 4.33752,2.4871 -0.49743,0.8674 -4.33753,-2.4871 m 9.17255,4.1067 2.95904,1.6967 -0.49743,0.8674 -2.95905,-1.6966"
       style="fill:#000000;fill-opacity:1;fill-rule:nonzero;stroke:none"
       transform="matrix(0.94972822,0,0,0.94972822,-375.97592,-1432.1398)"
       clip-path="url(#clipPath16)" />
    <path
       id="path17"
       d="m 399,1530 h 109 v 50 H 399 Z"
       style="fill:none;stroke:#000000;stroke-width:1;stroke-linecap:butt;stroke-linejoin:miter;stroke-miterlimit:10;stroke-dasharray:none;stroke-opacity:1"
       transform="matrix(0.94972822,0,0,0.94972822,-375.97592,-1432.1398)"
       clip-path="url(#clipPath18)" />
    <text
       id="text18"
       xml:space="preserve"
       transform="matrix(0.94972822,0,0,0.94972822,21.411126,49.910958)"
       clip-path="url(#clipPath19)"><tspan
         id="tspan18"
         style="font-variant:normal;font-weight:normal;font-size:16px;font-family:Arial;writing-mode:lr-tb;fill:#000000;fill-opacity:1;fill-rule:nonzero;stroke:none"
         x="0"
         y="0">Package1</tspan></text>
    <path
       id="path20"
       d="m 399,1510 h 50 v 20 h -50 z"
       style="fill:none;stroke:#000000;stroke-width:1;stroke-linecap:butt;stroke-linejoin:miter;stroke-miterlimit:10;stroke-dasharray:none;stroke-opacity:1"
       transform="matrix(0.94972822,0,0,-0.94972822,-375.97592,1455.0339)"
       clip-path="url(#clipPath21)" />
    <g
       id="g21" />
    <g
       id="g22" />
    <g
       id="g23" />
    <g
       id="g24" />
    <g
       id="g25" />
    <g
       id="g26" />
    <text
       id="text26"
       xml:space="preserve"
       transform="matrix(0.94972822,0,0,0.94972822,4.3902113,14.771014)"
       clip-path="url(#clipPath26)"><tspan
         id="tspan26"
         style="font-variant:normal;font-weight:normal;font-size:12px;font-family:Arial;writing-mode:lr-tb;fill:#000000;fill-opacity:1;fill-rule:nonzero;stroke:none"
         x="0"
         y="0">          </tspan></text>
    <path
       id="path27"
       d="m 399,1620 h 109 v 50 H 399 Z"
       style="fill:none;stroke:#000000;stroke-width:1;stroke-linecap:butt;stroke-linejoin:miter;stroke-miterlimit:10;stroke-dasharray:none;stroke-opacity:1"
       transform="matrix(0.94972822,0,0,0.94972822,-375.97592,-1432.1398)"
       clip-path="url(#clipPath28)" />
    <text
       id="text28"
       xml:space="preserve"
       transform="matrix(0.94972822,0,0,0.94972822,21.411126,135.3865)"
       clip-path="url(#clipPath29)"><tspan
         id="tspan28"
         style="font-variant:normal;font-weight:normal;font-size:16px;font-family:Arial;writing-mode:lr-tb;fill:#000000;fill-opacity:1;fill-rule:nonzero;stroke:none"
         x="0"
         y="0">Package2</tspan></text>
    <path
       id="path30"
       d="m 399,1600 h 50 v 20 h -50 z"
       style="fill:none;stroke:#000000;stroke-width:1;stroke-linecap:butt;stroke-linejoin:miter;stroke-miterlimit:10;stroke-dasharray:none;stroke-opacity:1"
       transform="matrix(0.94972822,0,0,-0.94972822,-375.97592,1625.9851)"
       clip-path="url(#clipPath31)" />
    <g
       id="g31" />
    <g
       id="g32" />
    <g
       id="g33" />
    <g
       id="g34" />
    <g
       id="g35" />
    <g
       id="g36" />
    <text
       id="text36"
       xml:space="preserve"
       transform="matrix(0.94972822,0,0,0.94972822,4.3902113,100.24655)"
       clip-path="url(#clipPath36)"><tspan
         id="tspan36"
         style="font-variant:normal;font-weight:normal;font-size:12px;font-family:Arial;writing-mode:lr-tb;fill:#000000;fill-opacity:1;fill-rule:nonzero;stroke:none"
         x="0"
         y="0">          </tspan></text>
    <path
       id="path37"
       d="m 653.40997,1540 h 109 v 50 h -109 z"
       style="fill:none;stroke:#000000;stroke-width:1;stroke-linecap:butt;stroke-linejoin:miter;stroke-miterlimit:10;stroke-dasharray:none;stroke-opacity:1"
       transform="matrix(0.94972822,0,0,0.94972822,-375.97592,-1432.1398)"
       clip-path="url(#clipPath38)" />
    <text
       id="text38"
       xml:space="preserve"
       transform="matrix(0.94972822,0,0,0.94972822,262.64209,59.40824)"
       clip-path="url(#clipPath39)"><tspan
         id="tspan38"
         style="font-variant:normal;font-weight:normal;font-size:16px;font-family:Arial;writing-mode:lr-tb;fill:#000000;fill-opacity:1;fill-rule:nonzero;stroke:none"
         x="0"
         y="0">Package3</tspan></text>
    <path
       id="path40"
       d="m 653.40997,1520 h 50 v 20 h -50 z"
       style="fill:none;stroke:#000000;stroke-width:1;stroke-linecap:butt;stroke-linejoin:miter;stroke-miterlimit:10;stroke-dasharray:none;stroke-opacity:1"
       transform="matrix(0.94972822,0,0,-0.94972822,-375.97592,1474.0285)"
       clip-path="url(#clipPath41)" />
    <g
       id="g41" />
    <g
       id="g42" />
    <g
       id="g43" />
    <g
       id="g44" />
    <g
       id="g45" />
    <g
       id="g46" />
    <text
       id="text46"
       xml:space="preserve"
       transform="matrix(0.94972822,0,0,0.94972822,245.62118,24.268296)"
       clip-path="url(#clipPath46)"><tspan
         id="tspan46"
         style="font-variant:normal;font-weight:normal;font-size:12px;font-family:Arial;writing-mode:lr-tb;fill:#000000;fill-opacity:1;fill-rule:nonzero;stroke:none"
         x="0"
         y="0">          </tspan></text>
    <path
       id="path47"
       d="m 653.40997,1630 h 109 v 50 h -109 z"
       style="fill:none;stroke:#000000;stroke-width:1;stroke-linecap:butt;stroke-linejoin:miter;stroke-miterlimit:10;stroke-dasharray:none;stroke-opacity:1"
       transform="matrix(0.94972822,0,0,0.94972822,-375.97592,-1432.1398)"
       clip-path="url(#clipPath48)" />
    <text
       id="text48"
       xml:space="preserve"
       transform="matrix(0.94972822,0,0,0.94972822,262.64209,144.88378)"
       clip-path="url(#clipPath49)"><tspan
         id="tspan48"
         style="font-variant:normal;font-weight:normal;font-size:16px;font-family:Arial;writing-mode:lr-tb;fill:#000000;fill-opacity:1;fill-rule:nonzero;stroke:none"
         x="0"
         y="0">Package4</tspan></text>
    <path
       id="path50"
       d="m 653.40997,1610 h 50 v 20 h -50 z"
       style="fill:none;stroke:#000000;stroke-width:1;stroke-linecap:butt;stroke-linejoin:miter;stroke-miterlimit:10;stroke-dasharray:none;stroke-opacity:1"
       transform="matrix(0.94972822,0,0,-0.94972822,-375.97592,1644.9796)"
       clip-path="url(#clipPath51)" />
    <g
       id="g51" />
    <g
       id="g52" />
    <g
       id="g53" />
    <g
       id="g54" />
    <g
       id="g55" />
    <g
       id="g56" />
    <text
       id="text56"
       xml:space="preserve"
       transform="matrix(0.94972822,0,0,0.94972822,245.62118,109.74384)"
       clip-path="url(#clipPath56)"><tspan
         id="tspan56"
         style="font-variant:normal;font-weight:normal;font-size:12px;font-family:Arial;writing-mode:lr-tb;fill:#000000;fill-opacity:1;fill-rule:nonzero;stroke:none"
         x="0"
         y="0">          </tspan></text>
  </g>
</svg>
