<?xml version="1.0" encoding="UTF-8" standalone="no"?>
<!-- Created with Inkscape (http://www.inkscape.org/) -->

<svg
   version="1.1"
   id="svg1"
   width="348.16"
   height="89.279999"
   viewBox="0 0 348.16 89.279999"
   xmlns="http://www.w3.org/2000/svg"
   xmlns:svg="http://www.w3.org/2000/svg">
  <defs
     id="defs1">
    <clipPath
       clipPathUnits="userSpaceOnUse"
       id="clipPath2">
      <path
         d="M 0,0 H 1089 V 279.00391 H 0 Z"
         transform="scale(0.31999999)"
         clip-rule="evenodd"
         id="path2" />
    </clipPath>
    <clipPath
       clipPathUnits="userSpaceOnUse"
       id="clipPath4">
      <path
         d="M 3.125,0 H 1087.5 V 279.00391 H 3.125 Z"
         transform="matrix(0.33660271,0,0,0.33660271,395.87717,1367.9482)"
         clip-rule="evenodd"
         id="path4" />
    </clipPath>
    <clipPath
       clipPathUnits="userSpaceOnUse"
       id="clipPath5">
      <path
         d="M 3.125,0 H 1087.5 V 279.00391 H 3.125 Z"
         transform="matrix(0.33660271,0,0,0.33660271,-32.544742,-62.551879)"
         clip-rule="evenodd"
         id="path5" />
    </clipPath>
    <clipPath
       clipPathUnits="userSpaceOnUse"
       id="clipPath7">
      <path
         d="M 3.125,0 H 1087.5 V 279.00391 H 3.125 Z"
         transform="matrix(0.33660271,0,0,-0.33660271,395.87717,1392.0519)"
         clip-rule="evenodd"
         id="path7" />
    </clipPath>
    <clipPath
       clipPathUnits="userSpaceOnUse"
       id="clipPath12">
      <path
         d="M 3.125,0 H 1087.5 V 279.00391 H 3.125 Z"
         transform="matrix(0.33660271,0,0,0.33660271,-4.6228617,-15.551879)"
         clip-rule="evenodd"
         id="path12" />
    </clipPath>
    <clipPath
       clipPathUnits="userSpaceOnUse"
       id="clipPath14">
      <path
         d="M 3.125,0 H 1087.5 V 279.00391 H 3.125 Z"
         transform="matrix(0.33660271,0,0,0.33660271,395.87717,1367.9482)"
         clip-rule="evenodd"
         id="path14" />
    </clipPath>
    <clipPath
       clipPathUnits="userSpaceOnUse"
       id="clipPath15">
      <path
         d="M 3.125,0 H 1087.5 V 279.00391 H 3.125 Z"
         transform="matrix(0.33660271,0,0,0.33660271,-262.54474,-62.551879)"
         clip-rule="evenodd"
         id="path15" />
    </clipPath>
    <clipPath
       clipPathUnits="userSpaceOnUse"
       id="clipPath17">
      <path
         d="M 3.125,0 H 1087.5 V 279.00391 H 3.125 Z"
         transform="matrix(0.33660271,0,0,-0.33660271,395.87717,1392.0519)"
         clip-rule="evenodd"
         id="path17" />
    </clipPath>
    <clipPath
       clipPathUnits="userSpaceOnUse"
       id="clipPath22">
      <path
         d="M 3.125,0 H 1087.5 V 279.00391 H 3.125 Z"
         transform="matrix(0.33660271,0,0,0.33660271,-234.62286,-15.551879)"
         clip-rule="evenodd"
         id="path22" />
    </clipPath>
    <clipPath
       clipPathUnits="userSpaceOnUse"
       id="clipPath24">
      <path
         d="M 3.125,0 H 1087.5 V 279.00391 H 3.125 Z"
         transform="matrix(0.33660271,0,0,0.33660271,395.87717,1367.9482)"
         clip-rule="evenodd"
         id="path24" />
    </clipPath>
    <clipPath
       clipPathUnits="userSpaceOnUse"
       id="clipPath26">
      <path
         d="M 3.125,0 H 1087.5 V 279.00391 H 3.125 Z"
         transform="matrix(0.33660271,0,0,0.33660271,395.87717,1367.9482)"
         clip-rule="evenodd"
         id="path26" />
    </clipPath>
  </defs>
  <g
     id="g1">
    <path
       id="path1"
       d="M 0,0 H 348 V 89 H 0 Z"
       style="fill:#ffffff;fill-opacity:1;fill-rule:nonzero;stroke:none"
       clip-path="url(#clipPath2)" />
    <path
       id="path3"
       d="m 399,1390 h 130 v 70 H 399 Z"
       style="fill:none;stroke:#000000;stroke-width:1;stroke-linecap:butt;stroke-linejoin:miter;stroke-miterlimit:10;stroke-dasharray:none;stroke-opacity:1"
       transform="matrix(0.95067561,0,0,0.95067561,-376.35077,-1300.475)"
       clip-path="url(#clipPath4)" />
    <text
       id="text4"
       xml:space="preserve"
       transform="matrix(0.95067561,0,0,0.95067561,30.939492,59.466546)"
       clip-path="url(#clipPath5)"><tspan
         id="tspan4"
         style="font-variant:normal;font-weight:normal;font-size:16px;font-family:Arial;writing-mode:lr-tb;fill:#000000;fill-opacity:1;fill-rule:nonzero;stroke:none"
         x="0"
         y="0">Package2</tspan></text>
    <path
       id="path6"
       d="m 399,1370 h 50 v 20 h -50 z"
       style="fill:none;stroke:#000000;stroke-width:1;stroke-linecap:butt;stroke-linejoin:miter;stroke-miterlimit:10;stroke-dasharray:none;stroke-opacity:1"
       transform="matrix(0.95067561,0,0,-0.95067561,-376.35077,1323.3898)"
       clip-path="url(#clipPath7)" />
    <g
       id="g7" />
    <g
       id="g8" />
    <g
       id="g9" />
    <g
       id="g10" />
    <g
       id="g11" />
    <g
       id="g12" />
    <text
       id="text12"
       xml:space="preserve"
       transform="matrix(0.95067561,0,0,0.95067561,4.3948419,14.784792)"
       clip-path="url(#clipPath12)"><tspan
         id="tspan12"
         style="font-variant:normal;font-weight:normal;font-size:12px;font-family:Arial;writing-mode:lr-tb;fill:#000000;fill-opacity:1;fill-rule:nonzero;stroke:none"
         x="0"
         y="0">          </tspan></text>
    <path
       id="path13"
       d="m 629,1390 h 130 v 70 H 629 Z"
       style="fill:none;stroke:#000000;stroke-width:1;stroke-linecap:butt;stroke-linejoin:miter;stroke-miterlimit:10;stroke-dasharray:none;stroke-opacity:1"
       transform="matrix(0.95067561,0,0,0.95067561,-376.35077,-1300.475)"
       clip-path="url(#clipPath14)" />
    <text
       id="text14"
       xml:space="preserve"
       transform="matrix(0.95067561,0,0,0.95067561,249.59488,59.466546)"
       clip-path="url(#clipPath15)"><tspan
         id="tspan14"
         style="font-variant:normal;font-weight:normal;font-size:16px;font-family:Arial;writing-mode:lr-tb;fill:#000000;fill-opacity:1;fill-rule:nonzero;stroke:none"
         x="0"
         y="0">Package1</tspan></text>
    <path
       id="path16"
       d="m 629,1370 h 50 v 20 h -50 z"
       style="fill:none;stroke:#000000;stroke-width:1;stroke-linecap:butt;stroke-linejoin:miter;stroke-miterlimit:10;stroke-dasharray:none;stroke-opacity:1"
       transform="matrix(0.95067561,0,0,-0.95067561,-376.35077,1323.3898)"
       clip-path="url(#clipPath17)" />
    <g
       id="g17" />
    <g
       id="g18" />
    <g
       id="g19" />
    <g
       id="g20" />
    <g
       id="g21" />
    <g
       id="g22" />
    <text
       id="text22"
       xml:space="preserve"
       transform="matrix(0.95067561,0,0,0.95067561,223.05023,14.784792)"
       clip-path="url(#clipPath22)"><tspan
         id="tspan22"
         style="font-variant:normal;font-weight:normal;font-size:12px;font-family:Arial;writing-mode:lr-tb;fill:#000000;fill-opacity:1;fill-rule:nonzero;stroke:none"
         x="0"
         y="0">          </tspan></text>
    <path
       id="path23"
       d="m 529,1424.5 h 10 v 1 h -10 m 20,-1 h 10 v 1 h -10 m 20,-1 h 10 v 1 h -10 m 20,-1 h 10 v 1 h -10 m 20,-1 h 10 v 1 h -10"
       style="fill:#000000;fill-opacity:1;fill-rule:nonzero;stroke:none"
       transform="matrix(0.95067561,0,0,0.95067561,-376.35077,-1300.475)"
       clip-path="url(#clipPath24)" />
    <path
       id="path25"
       d="m 618.88,1429.5 9,-4.5 -9,-4.5"
       style="fill:none;stroke:#000000;stroke-width:1;stroke-linecap:butt;stroke-linejoin:miter;stroke-miterlimit:10;stroke-dasharray:none;stroke-opacity:1"
       transform="matrix(0.95067561,0,0,0.95067561,-376.35077,-1300.475)"
       clip-path="url(#clipPath26)" />
  </g>
</svg>
