<?xml version="1.0" encoding="UTF-8" standalone="no"?>
<!-- Created with Inkscape (http://www.inkscape.org/) -->

<svg
   version="1.1"
   id="svg1"
   width="330.56"
   height="126.72"
   viewBox="0 0 330.56 126.72"
   xmlns="http://www.w3.org/2000/svg"
   xmlns:svg="http://www.w3.org/2000/svg">
  <defs
     id="defs1">
    <clipPath
       clipPathUnits="userSpaceOnUse"
       id="clipPath2">
      <path
         d="M 0,0 H 1031.9824 V 395.99609 H 0 Z"
         transform="scale(0.31999999)"
         clip-rule="evenodd"
         id="path2" />
    </clipPath>
    <clipPath
       clipPathUnits="userSpaceOnUse"
       id="clipPath4">
      <path
         d="m 3.125,0 h 1025 v 395.99609 h -1025 z"
         transform="matrix(0.3376384,0,0,0.3376384,426.54759,-582.05511)"
         clip-rule="evenodd"
         id="path4" />
    </clipPath>
    <clipPath
       clipPathUnits="userSpaceOnUse"
       id="clipPath5">
      <path
         d="m 3.125,0 h 1025 v 395.99609 h -1025 z"
         transform="matrix(0.3376384,0,0,0.3376384,-242.76487,-62.555104)"
         clip-rule="evenodd"
         id="path5" />
    </clipPath>
    <clipPath
       clipPathUnits="userSpaceOnUse"
       id="clipPath6">
      <path
         d="m 3.125,0 h 1025 v 395.99609 h -1025 z"
         transform="matrix(0.3376384,0,0,0.3376384,-221.43676,-82.555104)"
         clip-rule="evenodd"
         id="path6" />
    </clipPath>
    <clipPath
       clipPathUnits="userSpaceOnUse"
       id="clipPath8">
      <path
         d="m 3.125,0 h 1025 v 395.99609 h -1025 z"
         transform="matrix(0.3376384,0,0,0.3376384,426.54759,-582.05511)"
         clip-rule="evenodd"
         id="path8" />
    </clipPath>
    <clipPath
       clipPathUnits="userSpaceOnUse"
       id="clipPath9">
      <path
         d="m 3.125,0 h 1025 v 395.99609 h -1025 z"
         transform="matrix(0.3376384,0,0,0.3376384,-196.95237,-45.555105)"
         clip-rule="evenodd"
         id="path9" />
    </clipPath>
    <clipPath
       clipPathUnits="userSpaceOnUse"
       id="clipPath11">
      <path
         d="m 3.125,0 h 1025 v 395.99609 h -1025 z"
         transform="matrix(0.3376384,0,0,0.3376384,426.54759,-582.05511)"
         clip-rule="evenodd"
         id="path11" />
    </clipPath>
    <clipPath
       clipPathUnits="userSpaceOnUse"
       id="clipPath12">
      <path
         d="m 3.125,0 h 1025 v 395.99609 h -1025 z"
         transform="matrix(0.3376384,0,0,0.3376384,-196.95237,-105.55511)"
         clip-rule="evenodd"
         id="path12" />
    </clipPath>
    <clipPath
       clipPathUnits="userSpaceOnUse"
       id="clipPath14">
      <path
         d="m 3.125,0 h 1025 v 395.99609 h -1025 z"
         transform="matrix(0.3376384,0,0,0.3376384,426.54759,-582.05511)"
         clip-rule="evenodd"
         id="path14" />
    </clipPath>
    <clipPath
       clipPathUnits="userSpaceOnUse"
       id="clipPath16">
      <path
         d="m 3.125,0 h 1025 v 395.99609 h -1025 z"
         transform="matrix(0.3376384,0,0,0.3376384,426.54759,-582.05511)"
         clip-rule="evenodd"
         id="path16" />
    </clipPath>
    <clipPath
       clipPathUnits="userSpaceOnUse"
       id="clipPath17">
      <path
         d="m 3.125,0 h 1025 v 395.99609 h -1025 z"
         transform="matrix(0.3376384,0,0,0.3376384,-4.952375,-68.555104)"
         clip-rule="evenodd"
         id="path17" />
    </clipPath>
    <clipPath
       clipPathUnits="userSpaceOnUse"
       id="clipPath18">
      <path
         d="m 3.125,0 h 1025 v 395.99609 h -1025 z"
         transform="matrix(0.3376384,0,0,0.3376384,-48.108625,-44.555104)"
         clip-rule="evenodd"
         id="path18" />
    </clipPath>
    <clipPath
       clipPathUnits="userSpaceOnUse"
       id="clipPath20">
      <path
         d="m 3.125,0 h 1025 v 395.99609 h -1025 z"
         transform="matrix(0.3376384,0,0,0.3376384,426.54759,-582.05511)"
         clip-rule="evenodd"
         id="path20" />
    </clipPath>
  </defs>
  <g
     id="g1">
    <path
       id="path1"
       d="M 0,0 H 330 V 127 H 0 Z"
       style="fill:#ffffff;fill-opacity:1;fill-rule:nonzero;stroke:none"
       clip-path="url(#clipPath2)" />
    <path
       id="path3"
       d="m 618.07001,-580 h 147 c 0.42682,0 0.84948,0.0417 1.26806,0.125 0.41858,0.0832 0.82502,0.20648 1.21936,0.36987 0.39429,0.16333 0.76886,0.36353 1.12378,0.60065 0.3548,0.23712 0.68317,0.50653 0.98499,0.80829 0.30182,0.30182 0.57123,0.63013 0.80835,0.98504 0.23712,0.35486 0.43732,0.72944 0.60058,1.12372 0.16333,0.39435 0.28663,0.80078 0.36994,1.21936 0.0833,0.41864 0.12488,0.84131 0.12494,1.26807 v 117 c -6e-5,0.42682 -0.0417,0.84955 -0.12494,1.26816 -0.0833,0.41858 -0.20661,0.82501 -0.36994,1.21933 -0.16326,0.39432 -0.36346,0.76889 -0.60058,1.12375 -0.23712,0.35489 -0.50653,0.68319 -0.80835,0.98498 -0.30182,0.30179 -0.63019,0.57126 -0.98505,0.80838 -0.35486,0.23712 -0.72943,0.43735 -1.12372,0.60065 -0.39434,0.1633 -0.80078,0.28659 -1.21936,0.36987 -0.41858,0.0833 -0.84124,0.12488 -1.26806,0.12488 h -147 c -0.42682,0 -0.84949,-0.0416 -1.26813,-0.12488 -0.41864,-0.0833 -0.82507,-0.20657 -1.21942,-0.36987 -0.39429,-0.1633 -0.76886,-0.36353 -1.12372,-0.60068 -0.35492,-0.23709 -0.68323,-0.50656 -0.98499,-0.80835 -0.30181,-0.30179 -0.57122,-0.63009 -0.80834,-0.98498 -0.23713,-0.35486 -0.43738,-0.72943 -0.60071,-1.12375 -0.16327,-0.39432 -0.28656,-0.80075 -0.36988,-1.21936 -0.0833,-0.41861 -0.12487,-0.84131 -0.12481,-1.26813 v -117 c -6e-5,-0.42676 0.0416,-0.84943 0.12481,-1.26807 0.0833,-0.41858 0.20661,-0.82501 0.36988,-1.21936 0.16333,-0.39428 0.36358,-0.76886 0.60071,-1.12372 0.23712,-0.35491 0.50653,-0.68322 0.80834,-0.98504 0.30176,-0.30176 0.63007,-0.57117 0.98499,-0.80829 0.35486,-0.23712 0.72943,-0.43732 1.12372,-0.60065 0.39435,-0.16339 0.80078,-0.28668 1.21942,-0.36987 0.41864,-0.0833 0.84131,-0.125 1.26813,-0.125 z"
       style="fill:#ffffff;fill-opacity:1;fill-rule:nonzero;stroke:#000000;stroke-width:1;stroke-linecap:butt;stroke-linejoin:miter;stroke-miterlimit:10;stroke-dasharray:none;stroke-opacity:1"
       transform="matrix(0.94775945,0,0,0.94775945,-404.26451,551.64823)"
       clip-path="url(#clipPath4)" />
    <text
       id="text4"
       xml:space="preserve"
       transform="matrix(0.94775945,0,0,0.94775945,230.0827,59.287191)"
       clip-path="url(#clipPath5)"><tspan
         id="tspan4"
         style="font-variant:normal;font-weight:normal;font-size:16px;font-family:Arial;writing-mode:lr-tb;fill:#000000;fill-opacity:1;fill-rule:nonzero;stroke:none"
         x="0"
         y="0">«part»</tspan></text>
    <text
       id="text5"
       xml:space="preserve"
       transform="matrix(0.94775945,0,0,0.94775945,209.86878,78.24238)"
       clip-path="url(#clipPath6)"><tspan
         id="tspan5"
         style="font-variant:normal;font-weight:normal;font-size:16px;font-family:Arial;writing-mode:lr-tb;fill:#000000;fill-opacity:1;fill-rule:nonzero;stroke:none"
         x="0"
         y="0">part1 : Part1</tspan></text>
    <path
       id="path7"
       d="m 604.57001,-550 h 14 c 0.39776,6e-5 0.78039,0.0762 1.14801,0.22845 0.36749,0.15223 0.69195,0.36896 0.97333,0.65027 0.28125,0.28131 0.49798,0.60572 0.65026,0.97327 0.15223,0.36755 0.22834,0.75024 0.2284,1.14801 v 14 c -6e-5,0.39783 -0.0762,0.78052 -0.2284,1.14813 -0.15228,0.36749 -0.36901,0.6919 -0.65026,0.97321 -0.28138,0.28131 -0.60584,0.49811 -0.97333,0.65039 -0.36762,0.15216 -0.75025,0.22827 -1.14801,0.22827 h -14 c -0.39789,0 -0.78058,-0.0761 -1.14813,-0.22827 -0.36762,-0.15228 -0.69202,-0.36908 -0.97327,-0.65039 -0.28131,-0.28131 -0.49811,-0.60572 -0.65033,-0.97321 -0.15228,-0.36761 -0.22833,-0.7503 -0.22827,-1.14813 v -14 c -6e-5,-0.39777 0.0761,-0.78046 0.22833,-1.14801 0.15216,-0.36755 0.36896,-0.69196 0.65027,-0.97327 0.28125,-0.28131 0.60565,-0.49804 0.97327,-0.65027 0.36755,-0.15228 0.75024,-0.22839 1.14813,-0.22845 z"
       style="fill:#ffffff;fill-opacity:1;fill-rule:nonzero;stroke:#000000;stroke-width:1;stroke-linecap:butt;stroke-linejoin:miter;stroke-miterlimit:10;stroke-dasharray:none;stroke-opacity:1"
       transform="matrix(0.94775945,0,0,0.94775945,-404.26451,551.64823)"
       clip-path="url(#clipPath8)" />
    <text
       id="text8"
       xml:space="preserve"
       transform="matrix(0.94775945,0,0,0.94775945,186.66347,43.175281)"
       clip-path="url(#clipPath9)"><tspan
         id="tspan8"
         style="font-variant:normal;font-weight:normal;font-size:12px;font-family:Arial;writing-mode:lr-tb;fill:#000000;fill-opacity:1;fill-rule:nonzero;stroke:none"
         x="0"
         y="0">p1 : P1</tspan></text>
    <path
       id="path10"
       d="m 604.57001,-490 h 14 c 0.39776,3e-5 0.78039,0.0762 1.14801,0.22842 0.36749,0.15226 0.69195,0.36902 0.97333,0.6503 0.28125,0.28134 0.49798,0.60578 0.65026,0.97333 0.15223,0.36752 0.22834,0.75015 0.2284,1.14795 v 14 c -6e-5,0.39786 -0.0762,0.78055 -0.2284,1.1481 -0.15228,0.36752 -0.36901,0.69196 -0.65026,0.97324 -0.28138,0.28134 -0.60584,0.49811 -0.97333,0.65033 -0.36762,0.15222 -0.75025,0.22833 -1.14801,0.22833 h -14 c -0.39789,0 -0.78058,-0.0761 -1.14813,-0.22833 -0.36762,-0.15222 -0.69202,-0.36899 -0.97327,-0.65033 -0.28131,-0.28128 -0.49811,-0.60572 -0.65033,-0.97324 -0.15228,-0.36755 -0.22833,-0.75024 -0.22827,-1.1481 v -14 c -6e-5,-0.3978 0.0761,-0.78043 0.22833,-1.14795 0.15216,-0.36755 0.36896,-0.69199 0.65027,-0.97333 0.28125,-0.28128 0.60565,-0.49804 0.97327,-0.6503 0.36755,-0.15225 0.75024,-0.22839 1.14813,-0.22842 z"
       style="fill:#ffffff;fill-opacity:1;fill-rule:nonzero;stroke:#000000;stroke-width:1;stroke-linecap:butt;stroke-linejoin:miter;stroke-miterlimit:10;stroke-dasharray:none;stroke-opacity:1"
       transform="matrix(0.94775945,0,0,0.94775945,-404.26451,551.64823)"
       clip-path="url(#clipPath11)" />
    <text
       id="text11"
       xml:space="preserve"
       transform="matrix(0.94775945,0,0,0.94775945,186.66347,100.04085)"
       clip-path="url(#clipPath12)"><tspan
         id="tspan11"
         style="font-variant:normal;font-weight:normal;font-size:12px;font-family:Arial;writing-mode:lr-tb;fill:#000000;fill-opacity:1;fill-rule:nonzero;stroke:none"
         x="0"
         y="0">p2 : P2</tspan></text>
    <path
       id="path13"
       d="m 429.66,-550 h 112.99997 l 19,19 v 31 H 429.66 Z"
       style="fill:#ffffff;fill-opacity:1;fill-rule:nonzero;stroke:#000000;stroke-width:1;stroke-linecap:butt;stroke-linejoin:miter;stroke-miterlimit:10;stroke-dasharray:none;stroke-opacity:1"
       transform="matrix(0.94775945,0,0,0.94775945,-404.26451,551.64823)"
       clip-path="url(#clipPath14)" />
    <path
       id="path15"
       d="m 542.65997,-550 v 19 h 19"
       style="fill:none;stroke:#000000;stroke-width:1;stroke-linecap:butt;stroke-linejoin:miter;stroke-miterlimit:10;stroke-dasharray:none;stroke-opacity:1"
       transform="matrix(0.94775945,0,0,0.94775945,-404.26451,551.64823)"
       clip-path="url(#clipPath16)" />
    <text
       id="text16"
       xml:space="preserve"
       transform="matrix(0.94775945,0,0,0.94775945,4.6936602,64.973748)"
       clip-path="url(#clipPath17)"><tspan
         id="tspan16"
         style="font-variant:normal;font-weight:normal;font-size:12px;font-family:Arial;writing-mode:lr-tb;fill:#000000;fill-opacity:1;fill-rule:nonzero;stroke:none"
         x="0"
         y="0">documentation-text</tspan></text>
    <text
       id="text17"
       xml:space="preserve"
       transform="matrix(0.94775945,0,0,0.94775945,45.595404,42.227521)"
       clip-path="url(#clipPath18)"><tspan
         id="tspan17"
         style="font-variant:normal;font-weight:normal;font-size:12px;font-family:Arial;writing-mode:lr-tb;fill:#000000;fill-opacity:1;fill-rule:nonzero;stroke:none"
         x="0"
         y="0">«doc»</tspan></text>
    <path
       id="path19"
       d="m 561.66498,-516 2.99988,0.03 -0.01,1 -2.99988,-0.03 m 6.0097,-0.93988 2.99988,0.03 -0.01,1 -2.99988,-0.03 m 6.00971,-0.93988 2.99988,0.03 -0.01,1 -2.99988,-0.03 m 6.0097,-0.93994 2.99988,0.0301 -0.01,1 -2.99988,-0.0301 m 6.00971,-0.93988 2.99988,0.03 -0.01,1 -2.99988,-0.03 m 6.0097,-0.93988 2.99988,0.03 -0.01,1 -2.99988,-0.03 m 6.00971,-0.93988 2.99987,0.03 -0.01,1 -2.99988,-0.03 m 6.0097,-0.93994 2.99988,0.0301 -0.01,1 -2.99988,-0.0301 m 6.00977,-0.93989 1.91241,0.0192 -0.01,1 -1.91241,-0.0192"
       style="fill:#000000;fill-opacity:1;fill-rule:nonzero;stroke:none"
       transform="matrix(0.94775945,0,0,0.94775945,-404.26451,551.64823)"
       clip-path="url(#clipPath20)" />
  </g>
</svg>
