<?xml version="1.0" encoding="UTF-8" standalone="no"?>
<!-- Created with Inkscape (http://www.inkscape.org/) -->

<svg
   version="1.1"
   id="svg1"
   width="137.28"
   height="69.439995"
   viewBox="0 0 137.28 69.439995"
   xmlns="http://www.w3.org/2000/svg"
   xmlns:svg="http://www.w3.org/2000/svg">
  <defs
     id="defs1">
    <clipPath
       clipPathUnits="userSpaceOnUse"
       id="clipPath2">
      <path
         d="M 0,0 H 429.00391 V 216.01563 H 0 Z"
         transform="scale(0.31999999)"
         clip-rule="evenodd"
         id="path2" />
    </clipPath>
    <clipPath
       clipPathUnits="userSpaceOnUse"
       id="clipPath4">
      <path
         d="M 3.125,0 H 425 V 216.01563 H 3.125 Z"
         transform="matrix(0.34172612,0,0,0.34172612,476.85727,-802.0679)"
         clip-rule="evenodd"
         id="path4" />
    </clipPath>
    <clipPath
       clipPathUnits="userSpaceOnUse"
       id="clipPath6">
      <path
         d="M 3.125,0 H 425 V 216.01563 H 3.125 Z"
         transform="matrix(0.34172612,0,0,0.34172612,476.85727,-802.0679)"
         clip-rule="evenodd"
         id="path6" />
    </clipPath>
    <clipPath
       clipPathUnits="userSpaceOnUse"
       id="clipPath7">
      <path
         d="M 3.125,0 H 425 V 216.01563 H 3.125 Z"
         transform="matrix(0.34172612,0,0,0.34172612,-4.6426972,-55.567915)"
         clip-rule="evenodd"
         id="path7" />
    </clipPath>
    <clipPath
       clipPathUnits="userSpaceOnUse"
       id="clipPath8">
      <path
         d="M 3.125,0 H 425 V 216.01563 H 3.125 Z"
         transform="matrix(0.34172612,0,0,0.34172612,-51.783327,-18.567915)"
         clip-rule="evenodd"
         id="path8" />
    </clipPath>
    <clipPath
       clipPathUnits="userSpaceOnUse"
       id="clipPath9">
      <path
         d="M 3.125,0 H 425 V 216.01563 H 3.125 Z"
         transform="matrix(0.34172612,0,0,0.34172612,-29.861447,-32.567915)"
         clip-rule="evenodd"
         id="path9" />
    </clipPath>
  </defs>
  <g
     id="g1">
    <path
       id="path1"
       d="M 0,0 H 137 V 69 H 0 Z"
       style="fill:#ffffff;fill-opacity:1;fill-rule:nonzero;stroke:none"
       clip-path="url(#clipPath2)" />
    <path
       id="path3"
       d="m 480,-800 h 121 l 19,19 v 51 H 480 Z"
       style="fill:#ffffff;fill-opacity:1;fill-rule:nonzero;stroke:#000000;stroke-width:1;stroke-linecap:butt;stroke-linejoin:miter;stroke-miterlimit:10;stroke-dasharray:none;stroke-opacity:1"
       transform="matrix(0.93642239,0,0,0.93642239,-446.53982,751.07434)"
       clip-path="url(#clipPath4)" />
    <path
       id="path5"
       d="m 601,-800 v 19 h 19"
       style="fill:none;stroke:#000000;stroke-width:1;stroke-linecap:butt;stroke-linejoin:miter;stroke-miterlimit:10;stroke-dasharray:none;stroke-opacity:1"
       transform="matrix(0.93642239,0,0,0.93642239,-446.53982,751.07434)"
       clip-path="url(#clipPath6)" />
    <text
       id="text6"
       xml:space="preserve"
       transform="matrix(0.93642239,0,0,0.93642239,4.3475256,52.03504)"
       clip-path="url(#clipPath7)"><tspan
         id="tspan6"
         style="font-variant:normal;font-weight:normal;font-size:12px;font-family:Arial;writing-mode:lr-tb;fill:#000000;fill-opacity:1;fill-rule:nonzero;stroke:none"
         x="0"
         y="0">Ceci n'est pas une pipe.</tspan></text>
    <text
       id="text7"
       xml:space="preserve"
       transform="matrix(0.93642239,0,0,0.93642239,48.491067,17.387411)"
       clip-path="url(#clipPath8)"><tspan
         id="tspan7"
         style="font-variant:normal;font-weight:normal;font-size:12px;font-family:Arial;writing-mode:lr-tb;fill:#000000;fill-opacity:1;fill-rule:nonzero;stroke:none"
         x="0"
         y="0">«doc»</tspan></text>
    <g
       id="g8" />
    <text
       id="text8"
       xml:space="preserve"
       transform="matrix(0.93642239,0,0,0.93642239,27.962928,30.497325)"
       clip-path="url(#clipPath9)"><tspan
         id="tspan8"
         style="font-variant:normal;font-weight:normal;font-size:12px;font-family:Arial;writing-mode:lr-tb;fill:#000000;fill-opacity:1;fill-rule:nonzero;stroke:none"
         x="0"
         y="0"> locale &quot;fr_BE&quot;</tspan></text>
  </g>
</svg>
