<?xml version="1.0" encoding="UTF-8" standalone="no"?>
<!-- Created with Inkscape (http://www.inkscape.org/) -->

<svg
   version="1.1"
   id="svg1"
   width="373.44"
   height="145.28"
   viewBox="0 0 373.44 145.28"
   xmlns="http://www.w3.org/2000/svg"
   xmlns:svg="http://www.w3.org/2000/svg">
  <defs
     id="defs1">
    <clipPath
       clipPathUnits="userSpaceOnUse"
       id="clipPath2">
      <path
         d="M 0,0 H 1166.9922 V 455 H 0 Z"
         transform="scale(0.31999999)"
         clip-rule="evenodd"
         id="path2" />
    </clipPath>
    <clipPath
       clipPathUnits="userSpaceOnUse"
       id="clipPath4">
      <path
         d="m 3.125,0 h 1162.5 V 455 H 3.125 Z"
         transform="matrix(0.33691478,0,0,0.33691478,395.89284,-422.05288)"
         clip-rule="evenodd"
         id="path4" />
    </clipPath>
    <clipPath
       clipPathUnits="userSpaceOnUse"
       id="clipPath5">
      <path
         d="m 3.125,0 h 1162.5 V 455 H 3.125 Z"
         transform="matrix(0.33691478,0,0,0.33691478,-267.63838,-72.55286)"
         clip-rule="evenodd"
         id="path5" />
    </clipPath>
    <clipPath
       clipPathUnits="userSpaceOnUse"
       id="clipPath6">
      <path
         d="m 3.125,0 h 1162.5 V 455 H 3.125 Z"
         transform="matrix(0.33691478,0,0,0.33691478,-271.20088,-92.55286)"
         clip-rule="evenodd"
         id="path6" />
    </clipPath>
    <clipPath
       clipPathUnits="userSpaceOnUse"
       id="clipPath8">
      <path
         d="m 3.125,0 h 1162.5 V 455 H 3.125 Z"
         transform="matrix(-0.33691478,0,0,-0.33691478,813.4271,-177.94714)"
         clip-rule="evenodd"
         id="path8" />
    </clipPath>
    <clipPath
       clipPathUnits="userSpaceOnUse"
       id="clipPath9">
      <path
         d="m 3.125,0 h 1162.5 V 455 H 3.125 Z"
         transform="matrix(0.33691478,0,0,0.33691478,-220.60713,-125.55286)"
         clip-rule="evenodd"
         id="path9" />
    </clipPath>
    <clipPath
       clipPathUnits="userSpaceOnUse"
       id="clipPath11">
      <path
         d="m 3.125,0 h 1162.5 V 455 H 3.125 Z"
         transform="matrix(-0.33691478,0,0,-0.33691478,813.4271,-357.94716)"
         clip-rule="evenodd"
         id="path11" />
    </clipPath>
    <clipPath
       clipPathUnits="userSpaceOnUse"
       id="clipPath12">
      <path
         d="m 3.125,0 h 1162.5 V 455 H 3.125 Z"
         transform="matrix(0.33691478,0,0,0.33691478,-220.60713,-35.55286)"
         clip-rule="evenodd"
         id="path12" />
    </clipPath>
    <clipPath
       clipPathUnits="userSpaceOnUse"
       id="clipPath14">
      <path
         d="m 3.125,0 h 1162.5 V 455 H 3.125 Z"
         transform="matrix(0.33691478,0,0,0.33691478,395.89284,-422.05288)"
         clip-rule="evenodd"
         id="path14" />
    </clipPath>
    <clipPath
       clipPathUnits="userSpaceOnUse"
       id="clipPath16">
      <path
         d="m 3.125,0 h 1162.5 V 455 H 3.125 Z"
         transform="matrix(0.33691478,0,0,0.33691478,395.89284,-422.05288)"
         clip-rule="evenodd"
         id="path16" />
    </clipPath>
    <clipPath
       clipPathUnits="userSpaceOnUse"
       id="clipPath17">
      <path
         d="m 3.125,0 h 1162.5 V 455 H 3.125 Z"
         transform="matrix(0.33691478,0,0,0.33691478,-4.607131,-78.55286)"
         clip-rule="evenodd"
         id="path17" />
    </clipPath>
    <clipPath
       clipPathUnits="userSpaceOnUse"
       id="clipPath18">
      <path
         d="m 3.125,0 h 1162.5 V 455 H 3.125 Z"
         transform="matrix(0.33691478,0,0,0.33691478,-4.607131,-92.55286)"
         clip-rule="evenodd"
         id="path18" />
    </clipPath>
    <clipPath
       clipPathUnits="userSpaceOnUse"
       id="clipPath19">
      <path
         d="m 3.125,0 h 1162.5 V 455 H 3.125 Z"
         transform="matrix(0.33691478,0,0,0.33691478,-4.607131,-107.55286)"
         clip-rule="evenodd"
         id="path19" />
    </clipPath>
    <clipPath
       clipPathUnits="userSpaceOnUse"
       id="clipPath20">
      <path
         d="m 3.125,0 h 1162.5 V 455 H 3.125 Z"
         transform="matrix(0.33691478,0,0,0.33691478,-62.763381,-54.55286)"
         clip-rule="evenodd"
         id="path20" />
    </clipPath>
    <clipPath
       clipPathUnits="userSpaceOnUse"
       id="clipPath22">
      <path
         d="m 3.125,0 h 1162.5 V 455 H 3.125 Z"
         transform="matrix(0.33691478,0,0,0.33691478,395.89284,-422.05288)"
         clip-rule="evenodd"
         id="path22" />
    </clipPath>
    <clipPath
       clipPathUnits="userSpaceOnUse"
       id="clipPath24">
      <path
         d="m 3.125,0 h 1162.5 V 455 H 3.125 Z"
         transform="matrix(0.33691478,0,0,0.33691478,395.89284,-422.05288)"
         clip-rule="evenodd"
         id="path24" />
    </clipPath>
    <clipPath
       clipPathUnits="userSpaceOnUse"
       id="clipPath26">
      <path
         d="m 3.125,0 h 1162.5 V 455 H 3.125 Z"
         transform="matrix(0.33691478,0,0,0.33691478,395.89284,-422.05288)"
         clip-rule="evenodd"
         id="path26" />
    </clipPath>
    <clipPath
       clipPathUnits="userSpaceOnUse"
       id="clipPath28">
      <path
         d="m 3.125,0 h 1162.5 V 455 H 3.125 Z"
         transform="matrix(0.33691478,0,0,0.33691478,395.89284,-422.05288)"
         clip-rule="evenodd"
         id="path28" />
    </clipPath>
    <clipPath
       clipPathUnits="userSpaceOnUse"
       id="clipPath30">
      <path
         d="m 3.125,0 h 1162.5 V 455 H 3.125 Z"
         transform="matrix(0.33691478,0,0,0.33691478,395.89284,-422.05288)"
         clip-rule="evenodd"
         id="path30" />
    </clipPath>
  </defs>
  <g
     id="g1">
    <path
       id="path1"
       d="M 0,0 H 373 V 146 H 0 Z"
       style="fill:#ffffff;fill-opacity:1;fill-rule:nonzero;stroke:none"
       clip-path="url(#clipPath2)" />
    <path
       id="path3"
       d="m 614.65997,-420 h 171 v 150 h -171 z"
       style="fill:#ffffff;fill-opacity:1;fill-rule:nonzero;stroke:#000000;stroke-width:1;stroke-linecap:butt;stroke-linejoin:miter;stroke-miterlimit:10;stroke-dasharray:none;stroke-opacity:1"
       transform="matrix(0.94979503,0,0,0.94979503,-376.01705,400.86373)"
       clip-path="url(#clipPath4)" />
    <text
       id="text4"
       xml:space="preserve"
       transform="matrix(0.94979503,0,0,0.94979503,254.2016,68.910346)"
       clip-path="url(#clipPath5)"><tspan
         id="tspan4"
         style="font-variant:normal;font-weight:normal;font-size:16px;font-family:Arial;writing-mode:lr-tb;fill:#000000;fill-opacity:1;fill-rule:nonzero;stroke:none"
         x="0"
         y="0">«calc def»</tspan></text>
    <text
       id="text5"
       xml:space="preserve"
       transform="matrix(0.94979503,0,0,0.94979503,257.58525,87.906246)"
       clip-path="url(#clipPath6)"><tspan
         id="tspan5"
         style="font-variant:normal;font-weight:normal;font-size:16px;font-family:Arial;writing-mode:lr-tb;fill:#000000;fill-opacity:1;fill-rule:nonzero;stroke:none"
         x="0"
         y="0">CalcDef1</tspan></text>
    <path
       id="path7"
       d="m 597.65997,-310 h 14 c 0.39777,0 0.7804,0.0761 1.14795,0.22839 0.3675,0.15226 0.69196,0.36902 0.97333,0.6503 0.28125,0.28131 0.49799,0.60575 0.65027,0.9733 0.15228,0.36752 0.22839,0.75021 0.22845,1.14801 v 14 c -6e-5,0.39786 -0.0762,0.78055 -0.22845,1.14807 -0.15228,0.36755 -0.36902,0.69199 -0.65027,0.97327 -0.28137,0.28131 -0.60583,0.49808 -0.97333,0.65033 -0.36755,0.15222 -0.75018,0.22833 -1.14795,0.22833 h -14 c -0.39789,0 -0.78058,-0.0761 -1.14813,-0.22833 -0.36749,-0.15225 -0.69189,-0.36902 -0.9732,-0.65033 -0.28132,-0.28128 -0.49811,-0.60572 -0.6504,-0.97327 -0.15216,-0.36752 -0.22827,-0.75021 -0.22827,-1.14807 v -14 c 0,-0.3978 0.0761,-0.78049 0.22827,-1.14801 0.15229,-0.36755 0.36908,-0.69199 0.6504,-0.9733 0.28131,-0.28128 0.60571,-0.49804 0.9732,-0.6503 0.36755,-0.15225 0.75024,-0.22839 1.14813,-0.22839 z"
       style="fill:#ffffff;fill-opacity:1;fill-rule:nonzero;stroke:#000000;stroke-width:1;stroke-linecap:butt;stroke-linejoin:miter;stroke-miterlimit:10;stroke-dasharray:none;stroke-opacity:1"
       transform="matrix(-0.94979503,0,0,-0.94979503,772.58902,-169.01331)"
       clip-path="url(#clipPath8)" />
    <text
       id="text8"
       xml:space="preserve"
       transform="matrix(0.94979503,0,0,0.94979503,209.53156,119.24948)"
       clip-path="url(#clipPath9)"><tspan
         id="tspan8"
         style="font-variant:normal;font-weight:normal;font-size:12px;font-family:Arial;writing-mode:lr-tb;fill:#000000;fill-opacity:1;fill-rule:nonzero;stroke:none"
         x="0"
         y="0">:Real</tspan></text>
    <path
       id="path10"
       d="m 597.65997,-400 h 14 c 0.39777,3e-5 0.7804,0.0762 1.14795,0.22842 0.3675,0.15226 0.69196,0.36899 0.97333,0.65027 0.28125,0.28131 0.49799,0.60575 0.65027,0.9733 0.15228,0.36752 0.22839,0.75021 0.22845,1.14801 v 14 c -6e-5,0.39786 -0.0762,0.78058 -0.22845,1.14813 -0.15228,0.36753 -0.36902,0.69193 -0.65027,0.97321 -0.28137,0.28134 -0.60583,0.49811 -0.97333,0.65033 -0.36755,0.15222 -0.75018,0.22833 -1.14795,0.22833 h -14 c -0.39789,0 -0.78058,-0.0761 -1.14813,-0.22833 -0.36749,-0.15222 -0.69189,-0.36899 -0.9732,-0.65033 -0.28132,-0.28128 -0.49811,-0.60568 -0.6504,-0.97321 -0.15216,-0.36755 -0.22827,-0.75027 -0.22827,-1.14813 v -14 c 0,-0.3978 0.0761,-0.78049 0.22827,-1.14801 0.15229,-0.36755 0.36908,-0.69199 0.6504,-0.9733 0.28131,-0.28128 0.60571,-0.49801 0.9732,-0.65027 0.36755,-0.15225 0.75024,-0.22839 1.14813,-0.22842 z"
       style="fill:#ffffff;fill-opacity:1;fill-rule:nonzero;stroke:#000000;stroke-width:1;stroke-linecap:butt;stroke-linejoin:miter;stroke-miterlimit:10;stroke-dasharray:none;stroke-opacity:1"
       transform="matrix(-0.94979503,0,0,-0.94979503,772.58902,-339.97643)"
       clip-path="url(#clipPath11)" />
    <text
       id="text11"
       xml:space="preserve"
       transform="matrix(0.94979503,0,0,0.94979503,209.53156,33.76793)"
       clip-path="url(#clipPath12)"><tspan
         id="tspan11"
         style="font-variant:normal;font-weight:normal;font-size:12px;font-family:Arial;writing-mode:lr-tb;fill:#000000;fill-opacity:1;fill-rule:nonzero;stroke:none"
         x="0"
         y="0">x:Real</tspan></text>
    <path
       id="path13"
       d="m 399,-380 h 141 l 19,19 v 51 H 399 Z"
       style="fill:#ffffff;fill-opacity:1;fill-rule:nonzero;stroke:#000000;stroke-width:1;stroke-linecap:butt;stroke-linejoin:miter;stroke-miterlimit:10;stroke-dasharray:none;stroke-opacity:1"
       transform="matrix(0.94979503,0,0,0.94979503,-376.01705,400.86373)"
       clip-path="url(#clipPath14)" />
    <path
       id="path15"
       d="m 540,-380 v 19 h 19"
       style="fill:none;stroke:#000000;stroke-width:1;stroke-linecap:butt;stroke-linejoin:miter;stroke-miterlimit:10;stroke-dasharray:none;stroke-opacity:1"
       transform="matrix(0.94979503,0,0,0.94979503,-376.01705,400.86373)"
       clip-path="url(#clipPath16)" />
    <text
       id="text16"
       xml:space="preserve"
       transform="matrix(0.94979503,0,0,0.94979503,4.3758301,74.609116)"
       clip-path="url(#clipPath17)"><tspan
         id="tspan16"
         style="font-variant:normal;font-weight:normal;font-size:12px;font-family:Arial;writing-mode:lr-tb;fill:#000000;fill-opacity:1;fill-rule:nonzero;stroke:none"
         x="0"
         y="0">language=&quot;Python&quot;</tspan></text>
    <g
       id="g17" />
    <g
       id="g18" />
    <text
       id="text18"
       xml:space="preserve"
       transform="matrix(0.94979503,0,0,0.94979503,4.3758301,87.906246)"
       clip-path="url(#clipPath18)"><tspan
         id="tspan18"
         style="font-variant:normal;font-weight:normal;font-size:12px;font-family:Arial;writing-mode:lr-tb;fill:#000000;fill-opacity:1;fill-rule:nonzero;stroke:none"
         x="0"
         y="0">def square(x:float) -&gt; float: </tspan></text>
    <g
       id="g19" />
    <text
       id="text19"
       xml:space="preserve"
       transform="matrix(0.94979503,0,0,0.94979503,4.3758301,102.15317)"
       clip-path="url(#clipPath19)"><tspan
         id="tspan19"
         style="font-variant:normal;font-weight:normal;font-size:12px;font-family:Arial;writing-mode:lr-tb;fill:#000000;fill-opacity:1;fill-rule:nonzero;stroke:none"
         x="0"
         y="0">  return x**2</tspan></text>
    <text
       id="text20"
       xml:space="preserve"
       transform="matrix(0.94979503,0,0,0.94979503,59.612347,51.814035)"
       clip-path="url(#clipPath20)"><tspan
         id="tspan20"
         style="font-variant:normal;font-weight:normal;font-size:12px;font-family:Arial;writing-mode:lr-tb;fill:#000000;fill-opacity:1;fill-rule:nonzero;stroke:none"
         x="0"
         y="0">«rep»</tspan></text>
    <path
       id="path21"
       d="m 560.41577,-338.70941 2.99646,-0.14536 0.0485,0.99884 -2.99646,0.14536 m 5.94452,-1.28955 2.99646,-0.14533 0.0485,0.99884 -2.99646,0.14533 m 5.94446,-1.28952 2.99646,-0.14536 0.0485,0.99884 -2.99646,0.14536 m 5.94452,-1.28955 2.99646,-0.14533 0.0485,0.99884 -2.99646,0.14533 m 5.94445,-1.28952 2.99652,-0.14536 0.0485,0.99884 -2.99652,0.14536 m 5.94451,-1.28955 2.99646,-0.14533 0.0485,0.99884 -2.99646,0.14533 m 5.94445,-1.28952 2.99653,-0.14536 0.0485,0.99884 -2.99652,0.14536 m 5.94452,-1.28955 2.99646,-0.14533 0.0485,0.99884 -2.99646,0.14533 m 5.94452,-1.28952 2.99646,-0.14536 0.0485,0.99884 -2.99646,0.14536 m 5.94446,-1.28955 0.28338,-0.0137 0.0485,0.99884 -0.28338,0.0137"
       style="fill:#000000;fill-opacity:1;fill-rule:nonzero;stroke:none"
       transform="matrix(0.94979503,0,0,0.94979503,-376.01705,400.86373)"
       clip-path="url(#clipPath22)" />
    <path
       id="path23"
       d="m 596.03998,-390.5 h 17.76001"
       style="fill:none;stroke:#000000;stroke-width:1;stroke-linecap:butt;stroke-linejoin:miter;stroke-miterlimit:10;stroke-dasharray:none;stroke-opacity:1"
       transform="matrix(0.94979503,0,0,0.94979503,-376.01705,400.86373)"
       clip-path="url(#clipPath24)" />
    <path
       id="path25"
       d="m 606.91998,-386.5 8,-4 -8,-4"
       style="fill:none;stroke:#000000;stroke-width:1;stroke-linecap:butt;stroke-linejoin:miter;stroke-miterlimit:10;stroke-dasharray:none;stroke-opacity:1"
       transform="matrix(0.94979503,0,0,0.94979503,-376.01705,400.86373)"
       clip-path="url(#clipPath26)" />
    <path
       id="path27"
       d="m 597.71002,-300.5 h 17.75995"
       style="fill:none;stroke:#000000;stroke-width:1;stroke-linecap:butt;stroke-linejoin:miter;stroke-miterlimit:10;stroke-dasharray:none;stroke-opacity:1"
       transform="matrix(0.94979503,0,0,0.94979503,-376.01705,400.86373)"
       clip-path="url(#clipPath28)" />
    <path
       id="path29"
       d="m 604.59003,-304.5 -8,4 8,4"
       style="fill:none;stroke:#000000;stroke-width:1;stroke-linecap:butt;stroke-linejoin:miter;stroke-miterlimit:10;stroke-dasharray:none;stroke-opacity:1"
       transform="matrix(0.94979503,0,0,0.94979503,-376.01705,400.86373)"
       clip-path="url(#clipPath30)" />
  </g>
</svg>
