<?xml version="1.0" encoding="UTF-8" standalone="no"?>
<!-- Created with Inkscape (http://www.inkscape.org/) -->

<svg
   version="1.1"
   id="svg1"
   width="345.28"
   height="110.72"
   viewBox="0 0 345.28 110.72"
   xmlns="http://www.w3.org/2000/svg"
   xmlns:svg="http://www.w3.org/2000/svg">
  <defs
     id="defs1">
    <clipPath
       clipPathUnits="userSpaceOnUse"
       id="clipPath2">
      <path
         d="M 0,0 H 1079.9805 V 345.01953 H 0 Z"
         transform="scale(0.31999999)"
         clip-rule="evenodd"
         id="path2" />
    </clipPath>
    <clipPath
       clipPathUnits="userSpaceOnUse"
       id="clipPath4">
      <path
         d="m 3.125,0 h 1075 v 345.01953 h -1075 z"
         transform="matrix(0.33677438,0,0,0.33677438,426.89146,-722.05243)"
         clip-rule="evenodd"
         id="path4" />
    </clipPath>
    <clipPath
       clipPathUnits="userSpaceOnUse"
       id="clipPath6">
      <path
         d="m 3.125,0 h 1075 v 345.01953 h -1075 z"
         transform="matrix(0.33677438,0,0,0.33677438,426.89146,-722.05243)"
         clip-rule="evenodd"
         id="path6" />
    </clipPath>
    <clipPath
       clipPathUnits="userSpaceOnUse"
       id="clipPath8">
      <path
         d="m 3.125,0 h 1075 v 345.01953 h -1075 z"
         transform="matrix(0.33677438,0,0,0.33677438,426.89146,-722.05243)"
         clip-rule="evenodd"
         id="path8" />
    </clipPath>
    <clipPath
       clipPathUnits="userSpaceOnUse"
       id="clipPath9">
      <path
         d="m 3.125,0 h 1075 v 345.01953 h -1075 z"
         transform="matrix(0.33677438,0,0,0.33677438,-246.42102,-23.552449)"
         clip-rule="evenodd"
         id="path9" />
    </clipPath>
    <clipPath
       clipPathUnits="userSpaceOnUse"
       id="clipPath10">
      <path
         d="m 3.125,0 h 1075 v 345.01953 h -1075 z"
         transform="matrix(0.33677438,0,0,0.33677438,-225.0929,-42.552449)"
         clip-rule="evenodd"
         id="path10" />
    </clipPath>
    <clipPath
       clipPathUnits="userSpaceOnUse"
       id="clipPath11">
      <path
         d="m 723.35828,161.98511 h 145.49805 v 44.54016 H 723.35828 Z"
         transform="matrix(0.33677438,0,0,0.33677438,-243.42102,-65.552449)"
         clip-rule="evenodd"
         id="path11" />
    </clipPath>
    <clipPath
       clipPathUnits="userSpaceOnUse"
       id="clipPath13">
      <path
         d="m 536.28943,224.34143 h 516.66627 v 44.54016 H 536.28943 Z"
         transform="matrix(0.33677438,0,0,0.33677438,427.39148,-721.55245)"
         clip-rule="evenodd"
         id="path13" />
    </clipPath>
    <clipPath
       clipPathUnits="userSpaceOnUse"
       id="clipPath23">
      <path
         d="m 536.28943,224.34143 h 516.66627 v 44.54016 H 536.28943 Z"
         transform="matrix(0.33677438,0,0,0.33677438,-180.60852,-86.552449)"
         clip-rule="evenodd"
         id="path23" />
    </clipPath>
    <clipPath
       clipPathUnits="userSpaceOnUse"
       id="clipPath24">
      <path
         d="m 542.22803,286.69763 h 329.59753 v 44.54028 H 542.22803 Z"
         transform="matrix(0.33677438,0,0,0.33677438,-182.60852,-107.55245)"
         clip-rule="evenodd"
         id="path24" />
    </clipPath>
    <clipPath
       clipPathUnits="userSpaceOnUse"
       id="clipPath26">
      <path
         d="m 3.125,0 h 1075 v 345.01953 h -1075 z"
         transform="matrix(0.33677438,0,0,0.33677438,426.89146,-722.05243)"
         clip-rule="evenodd"
         id="path26" />
    </clipPath>
    <clipPath
       clipPathUnits="userSpaceOnUse"
       id="clipPath28">
      <path
         d="m 3.125,0 h 1075 v 345.01953 h -1075 z"
         transform="matrix(0.33677438,0,0,0.33677438,426.89146,-722.05243)"
         clip-rule="evenodd"
         id="path28" />
    </clipPath>
    <clipPath
       clipPathUnits="userSpaceOnUse"
       id="clipPath29">
      <path
         d="m 3.125,0 h 1075 v 345.01953 h -1075 z"
         transform="matrix(0.33677438,0,0,0.33677438,-4.6085197,-59.552449)"
         clip-rule="evenodd"
         id="path29" />
    </clipPath>
    <clipPath
       clipPathUnits="userSpaceOnUse"
       id="clipPath30">
      <path
         d="m 3.125,0 h 1075 v 345.01953 h -1075 z"
         transform="matrix(0.33677438,0,0,0.33677438,-4.6085197,-73.552449)"
         clip-rule="evenodd"
         id="path30" />
    </clipPath>
    <clipPath
       clipPathUnits="userSpaceOnUse"
       id="clipPath31">
      <path
         d="m 3.125,0 h 1075 v 345.01953 h -1075 z"
         transform="matrix(0.33677438,0,0,0.33677438,-31.764769,-35.552449)"
         clip-rule="evenodd"
         id="path31" />
    </clipPath>
    <clipPath
       clipPathUnits="userSpaceOnUse"
       id="clipPath33">
      <path
         d="m 3.125,0 h 1075 v 345.01953 h -1075 z"
         transform="matrix(0.33677438,0,0,0.33677438,426.89146,-722.05243)"
         clip-rule="evenodd"
         id="path33" />
    </clipPath>
  </defs>
  <g
     id="g1">
    <path
       id="path1"
       d="M 0,0 H 346 V 110 H 0 Z"
       style="fill:#ffffff;fill-opacity:1;fill-rule:nonzero;stroke:none"
       clip-path="url(#clipPath2)" />
    <path
       id="path3"
       d="m 787.19,-670 v -45 c 0,-3.33331 -1.66668,-5 -5,-5 h -173 c -3.33331,0 -5,1.66669 -5,5 v 45"
       style="fill:none;stroke:#000000;stroke-width:1;stroke-linecap:butt;stroke-linejoin:miter;stroke-miterlimit:10;stroke-dasharray:none;stroke-opacity:1"
       transform="matrix(0.950191,0,0,0.950191,-405.62842,686.08772)"
       clip-path="url(#clipPath4)" />
    <path
       id="path5"
       d="m 604.19,-670 v 57 c 0,3.33331 1.66669,5 5,5 h 173 c 3.33332,0 5,-1.66669 5,-5 v -57"
       style="fill:none;stroke:#000000;stroke-width:1;stroke-linecap:butt;stroke-linejoin:miter;stroke-miterlimit:10;stroke-dasharray:none;stroke-opacity:1"
       transform="matrix(0.950191,0,0,0.950191,-405.62842,686.08772)"
       clip-path="url(#clipPath6)" />
    <path
       id="path7"
       d="m 604.19,-670 h 183"
       style="fill:none;stroke:#000000;stroke-width:1;stroke-linecap:butt;stroke-linejoin:miter;stroke-miterlimit:10;stroke-dasharray:none;stroke-opacity:1"
       transform="matrix(0.950191,0,0,0.950191,-405.62842,686.08772)"
       clip-path="url(#clipPath8)" />
    <text
       id="text8"
       xml:space="preserve"
       transform="matrix(0.950191,0,0,0.950191,234.14704,22.379325)"
       clip-path="url(#clipPath9)"><tspan
         id="tspan8"
         style="font-variant:normal;font-weight:normal;font-size:16px;font-family:Arial;writing-mode:lr-tb;fill:#000000;fill-opacity:1;fill-rule:nonzero;stroke:none"
         x="0"
         y="0">«part»</tspan></text>
    <text
       id="text9"
       xml:space="preserve"
       transform="matrix(0.950191,0,0,0.950191,213.88125,40.432954)"
       clip-path="url(#clipPath10)"><tspan
         id="tspan9"
         style="font-variant:normal;font-weight:normal;font-size:16px;font-family:Arial;writing-mode:lr-tb;fill:#000000;fill-opacity:1;fill-rule:nonzero;stroke:none"
         x="0"
         y="0">part1 : Part1</tspan></text>
    <text
       id="text10"
       xml:space="preserve"
       transform="matrix(0.950191,0,0,0.950191,231.29646,62.287347)"
       clip-path="url(#clipPath11)"><tspan
         id="tspan10"
         style="font-style:italic;font-variant:normal;font-weight:normal;font-size:12px;font-family:Arial;writing-mode:lr-tb;fill:#000000;fill-opacity:1;fill-rule:nonzero;stroke:none"
         x="0"
         y="0">attributes</tspan></text>
    <path
       id="path12"
       d="m 608,-646 h 174 v 15 H 608 Z"
       style="fill:#e6e6e6;fill-opacity:1;fill-rule:nonzero;stroke:none"
       transform="matrix(0.950191,0,0,0.950191,-406.10354,685.61264)"
       clip-path="url(#clipPath13)" />
    <g
       id="g13" />
    <g
       id="g14" />
    <g
       id="g15" />
    <g
       id="g16" />
    <g
       id="g17" />
    <g
       id="g18" />
    <g
       id="g19" />
    <g
       id="g20" />
    <g
       id="g21" />
    <g
       id="g22" />
    <g
       id="g23" />
    <text
       id="text23"
       xml:space="preserve"
       transform="matrix(0.950191,0,0,0.950191,171.61259,82.241358)"
       clip-path="url(#clipPath23)"><tspan
         id="tspan23"
         style="font-variant:normal;font-weight:normal;font-size:12px;font-family:Arial;writing-mode:lr-tb;fill:#000000;fill-opacity:1;fill-rule:nonzero;stroke:none"
         x="0"
         dx="0 0 0 0 0 0 0 0 0 0 0 0 0 0 -0.66210926"
         y="0"> attribute1 : Attribute1                  </tspan></text>
    <text
       id="text24"
       xml:space="preserve"
       transform="matrix(0.950191,0,0,0.950191,173.51297,102.19537)"
       clip-path="url(#clipPath24)"><tspan
         id="tspan24"
         style="font-variant:normal;font-weight:normal;font-size:12px;font-family:Arial;writing-mode:lr-tb;fill:#000000;fill-opacity:1;fill-rule:nonzero;stroke:none"
         x="0"
         dx="0 0 0 0 0 0 0 0 0 0 0 0 0 -0.6621089"
         y="0">attribute2 : Attribute2</tspan></text>
    <path
       id="path25"
       d="m 430,-699.5 h 111 l 19,19 v 35 H 430 Z"
       style="fill:#ffffff;fill-opacity:1;fill-rule:nonzero;stroke:#000000;stroke-width:1;stroke-linecap:butt;stroke-linejoin:miter;stroke-miterlimit:10;stroke-dasharray:none;stroke-opacity:1"
       transform="matrix(0.950191,0,0,0.950191,-405.62842,686.08772)"
       clip-path="url(#clipPath26)" />
    <path
       id="path27"
       d="m 541,-699.5 v 19 h 19"
       style="fill:none;stroke:#000000;stroke-width:1;stroke-linecap:butt;stroke-linejoin:miter;stroke-miterlimit:10;stroke-dasharray:none;stroke-opacity:1"
       transform="matrix(0.950191,0,0,0.950191,-405.62842,686.08772)"
       clip-path="url(#clipPath28)" />
    <text
       id="text28"
       xml:space="preserve"
       transform="matrix(0.950191,0,0,0.950191,4.3789739,56.586201)"
       clip-path="url(#clipPath29)"><tspan
         id="tspan28"
         style="font-variant:normal;font-weight:normal;font-size:12px;font-family:Arial;writing-mode:lr-tb;fill:#000000;fill-opacity:1;fill-rule:nonzero;stroke:none"
         x="0"
         y="0">The annotated element</tspan></text>
    <text
       id="text29"
       xml:space="preserve"
       transform="matrix(0.950191,0,0,0.950191,4.3789739,69.888875)"
       clip-path="url(#clipPath30)"><tspan
         id="tspan29"
         style="font-variant:normal;font-weight:normal;font-size:12px;font-family:Arial;writing-mode:lr-tb;fill:#000000;fill-opacity:1;fill-rule:nonzero;stroke:none"
         x="0"
         y="0">is attribute1.</tspan></text>
    <text
       id="text30"
       xml:space="preserve"
       transform="matrix(0.950191,0,0,0.950191,30.182598,33.781617)"
       clip-path="url(#clipPath31)"><tspan
         id="tspan30"
         style="font-variant:normal;font-weight:normal;font-size:12px;font-family:Arial;writing-mode:lr-tb;fill:#000000;fill-opacity:1;fill-rule:nonzero;stroke:none"
         x="0"
         y="0">«comment»</tspan></text>
    <path
       id="path32"
       d="m 560.21271,-663.45251 2.71509,1.27606 -0.42542,0.90503 -2.71509,-1.27607 m 5.85553,1.64716 2.71509,1.27606 -0.42541,0.90503 -2.71509,-1.27606 m 5.85559,1.64709 2.71509,1.27613 -0.42542,0.90503 -2.71509,-1.27613 m 5.85553,1.64716 2.71509,1.27606 -0.42541,0.90503 -2.71509,-1.27606 m 5.85559,1.64715 2.71509,1.27607 -0.42542,0.90503 -2.71509,-1.27607 m 5.85553,1.64716 2.71509,1.27606 -0.42541,0.90503 -2.71509,-1.27606 m 5.85559,1.64709 2.71503,1.27613 -0.42542,0.90503 -2.71503,-1.27613 m 5.85553,1.64716 2.71509,1.27606 -0.42541,0.90503 -2.71509,-1.27606 m 5.85559,1.64715 2.71503,1.27607 -0.42542,0.90503 -2.71503,-1.27607 m 5.85553,1.6471 1.12873,0.53052 -0.42542,0.90502 -1.12872,-0.53051"
       style="fill:#000000;fill-opacity:1;fill-rule:nonzero;stroke:none"
       transform="matrix(0.950191,0,0,0.950191,-405.62842,686.08772)"
       clip-path="url(#clipPath33)" />
  </g>
</svg>
