<?xml version="1.0" encoding="UTF-8" standalone="no"?>
<!-- Created with Inkscape (http://www.inkscape.org/) -->

<svg
   version="1.1"
   id="svg1"
   width="348.16"
   height="89.279999"
   viewBox="0 0 348.16 89.279999"
   xmlns="http://www.w3.org/2000/svg"
   xmlns:svg="http://www.w3.org/2000/svg">
  <defs
     id="defs1">
    <clipPath
       clipPathUnits="userSpaceOnUse"
       id="clipPath2">
      <path
         d="M 0,0 H 1085.9863 V 279.00391 H 0 Z"
         transform="scale(0.31999999)"
         clip-rule="evenodd"
         id="path2" />
    </clipPath>
    <clipPath
       clipPathUnits="userSpaceOnUse"
       id="clipPath4">
      <path
         d="m 3.125,0 h 1081.25 V 279.00391 H 3.125 Z"
         transform="matrix(0.33708184,0,0,0.33708184,345.8681,2877.9465)"
         clip-rule="evenodd"
         id="path4" />
    </clipPath>
    <clipPath
       clipPathUnits="userSpaceOnUse"
       id="clipPath5">
      <path
         d="m 3.125,0 h 1081.25 V 279.00391 H 3.125 Z"
         transform="matrix(0.33708184,0,0,0.33708184,-27.553788,-62.553499)"
         clip-rule="evenodd"
         id="path5" />
    </clipPath>
    <clipPath
       clipPathUnits="userSpaceOnUse"
       id="clipPath7">
      <path
         d="m 3.125,0 h 1081.25 V 279.00391 H 3.125 Z"
         transform="matrix(0.33708184,0,0,-0.33708184,345.8681,2902.0531)"
         clip-rule="evenodd"
         id="path7" />
    </clipPath>
    <clipPath
       clipPathUnits="userSpaceOnUse"
       id="clipPath12">
      <path
         d="m 3.125,0 h 1081.25 V 279.00391 H 3.125 Z"
         transform="matrix(0.33708184,0,0,0.33708184,-4.6319086,-15.553498)"
         clip-rule="evenodd"
         id="path12" />
    </clipPath>
    <clipPath
       clipPathUnits="userSpaceOnUse"
       id="clipPath14">
      <path
         d="m 3.125,0 h 1081.25 V 279.00391 H 3.125 Z"
         transform="matrix(0.33708184,0,0,0.33708184,345.8681,2877.9465)"
         clip-rule="evenodd"
         id="path14" />
    </clipPath>
    <clipPath
       clipPathUnits="userSpaceOnUse"
       id="clipPath15">
      <path
         d="m 3.125,0 h 1081.25 V 279.00391 H 3.125 Z"
         transform="matrix(0.33708184,0,0,0.33708184,-253.55379,-62.553499)"
         clip-rule="evenodd"
         id="path15" />
    </clipPath>
    <clipPath
       clipPathUnits="userSpaceOnUse"
       id="clipPath17">
      <path
         d="m 3.125,0 h 1081.25 V 279.00391 H 3.125 Z"
         transform="matrix(0.33708184,0,0,-0.33708184,345.8681,2902.0531)"
         clip-rule="evenodd"
         id="path17" />
    </clipPath>
    <clipPath
       clipPathUnits="userSpaceOnUse"
       id="clipPath22">
      <path
         d="m 3.125,0 h 1081.25 V 279.00391 H 3.125 Z"
         transform="matrix(0.33708184,0,0,0.33708184,-235.63191,-15.553498)"
         clip-rule="evenodd"
         id="path22" />
    </clipPath>
    <clipPath
       clipPathUnits="userSpaceOnUse"
       id="clipPath24">
      <path
         d="m 3.125,0 h 1081.25 V 279.00391 H 3.125 Z"
         transform="matrix(0.33708184,0,0,0.33708184,345.8681,2877.9465)"
         clip-rule="evenodd"
         id="path24" />
    </clipPath>
    <clipPath
       clipPathUnits="userSpaceOnUse"
       id="clipPath26">
      <path
         d="m 3.125,0 h 1081.25 V 279.00391 H 3.125 Z"
         transform="matrix(0.33708184,0,0,0.33708184,345.8681,2877.9465)"
         clip-rule="evenodd"
         id="path26" />
    </clipPath>
    <clipPath
       clipPathUnits="userSpaceOnUse"
       id="clipPath28">
      <path
         d="m 3.125,0 h 1081.25 V 279.00391 H 3.125 Z"
         transform="matrix(0.33708184,0,0,0.33708184,346.36809,2878.4465)"
         clip-rule="evenodd"
         id="path28" />
    </clipPath>
    <clipPath
       clipPathUnits="userSpaceOnUse"
       id="clipPath30">
      <path
         d="m 3.125,0 h 1081.25 V 279.00391 H 3.125 Z"
         transform="matrix(0.33708184,0,0,0.33708184,346.36809,2878.4465)"
         clip-rule="evenodd"
         id="path30" />
    </clipPath>
    <clipPath
       clipPathUnits="userSpaceOnUse"
       id="clipPath31">
      <path
         d="m 3.125,0 h 1081.25 V 279.00391 H 3.125 Z"
         transform="matrix(0.33708184,0,0,0.33708184,-129.77254,-46.553499)"
         clip-rule="evenodd"
         id="path31" />
    </clipPath>
  </defs>
  <g
     id="g1">
    <path
       id="path1"
       d="M 0,0 H 348 V 89 H 0 Z"
       style="fill:#ffffff;fill-opacity:1;fill-rule:nonzero;stroke:none"
       clip-path="url(#clipPath2)" />
    <path
       id="path3"
       d="m 349,2900 h 119 v 70 H 349 Z"
       style="fill:none;stroke:#000000;stroke-width:1;stroke-linecap:butt;stroke-linejoin:miter;stroke-miterlimit:10;stroke-dasharray:none;stroke-opacity:1"
       transform="matrix(0.94932431,0,0,0.94932431,-328.341,-2732.1046)"
       clip-path="url(#clipPath4)" />
    <text
       id="text4"
       xml:space="preserve"
       transform="matrix(0.94932431,0,0,0.94932431,26.157481,59.383557)"
       clip-path="url(#clipPath5)"><tspan
         id="tspan4"
         style="font-variant:normal;font-weight:normal;font-size:16px;font-family:Arial;writing-mode:lr-tb;fill:#000000;fill-opacity:1;fill-rule:nonzero;stroke:none"
         x="0"
         y="0">Package2</tspan></text>
    <path
       id="path6"
       d="m 349,2880 h 50 v 20 h -50 z"
       style="fill:none;stroke:#000000;stroke-width:1;stroke-linecap:butt;stroke-linejoin:miter;stroke-miterlimit:10;stroke-dasharray:none;stroke-opacity:1"
       transform="matrix(0.94932431,0,0,-0.94932431,-328.341,2754.9896)"
       clip-path="url(#clipPath7)" />
    <g
       id="g7" />
    <g
       id="g8" />
    <g
       id="g9" />
    <g
       id="g10" />
    <g
       id="g11" />
    <g
       id="g12" />
    <text
       id="text12"
       xml:space="preserve"
       transform="matrix(0.94932431,0,0,0.94932431,4.3971834,14.765314)"
       clip-path="url(#clipPath12)"><tspan
         id="tspan12"
         style="font-variant:normal;font-weight:normal;font-size:12px;font-family:Arial;writing-mode:lr-tb;fill:#000000;fill-opacity:1;fill-rule:nonzero;stroke:none"
         x="0"
         y="0">          </tspan></text>
    <path
       id="path13"
       d="m 580,2900 h 110 v 70 H 580 Z"
       style="fill:none;stroke:#000000;stroke-width:1;stroke-linecap:butt;stroke-linejoin:miter;stroke-miterlimit:10;stroke-dasharray:none;stroke-opacity:1"
       transform="matrix(0.94932431,0,0,0.94932431,-328.341,-2732.1046)"
       clip-path="url(#clipPath14)" />
    <text
       id="text14"
       xml:space="preserve"
       transform="matrix(0.94932431,0,0,0.94932431,240.70478,59.383557)"
       clip-path="url(#clipPath15)"><tspan
         id="tspan14"
         style="font-variant:normal;font-weight:normal;font-size:16px;font-family:Arial;writing-mode:lr-tb;fill:#000000;fill-opacity:1;fill-rule:nonzero;stroke:none"
         x="0"
         y="0">Package1</tspan></text>
    <path
       id="path16"
       d="m 580,2880 h 50 v 20 h -50 z"
       style="fill:none;stroke:#000000;stroke-width:1;stroke-linecap:butt;stroke-linejoin:miter;stroke-miterlimit:10;stroke-dasharray:none;stroke-opacity:1"
       transform="matrix(0.94932431,0,0,-0.94932431,-328.341,2754.9896)"
       clip-path="url(#clipPath17)" />
    <g
       id="g17" />
    <g
       id="g18" />
    <g
       id="g19" />
    <g
       id="g20" />
    <g
       id="g21" />
    <g
       id="g22" />
    <text
       id="text22"
       xml:space="preserve"
       transform="matrix(0.94932431,0,0,0.94932431,223.6911,14.765314)"
       clip-path="url(#clipPath22)"><tspan
         id="tspan22"
         style="font-variant:normal;font-weight:normal;font-size:12px;font-family:Arial;writing-mode:lr-tb;fill:#000000;fill-opacity:1;fill-rule:nonzero;stroke:none"
         x="0"
         y="0">          </tspan></text>
    <path
       id="path23"
       d="m 468,2934.5 h 3 v 1 h -3 m 6,-1 h 3 v 1 h -3 m 6,-1 h 3 v 1 h -3 m 6,-1 h 3 v 1 h -3 m 6,-1 h 3 v 1 h -3 m 6,-1 h 3 v 1 h -3 m 6,-1 h 3 v 1 h -3 m 6,-1 h 3 v 1 h -3 m 6,-1 h 3 v 1 h -3 m 6,-1 h 3 v 1 h -3 m 6,-1 h 3 v 1 h -3 m 6,-1 h 3 v 1 h -3 m 6,-1 h 3 v 1 h -3 m 6,-1 h 3 v 1 h -3 m 6,-1 h 3 v 1 h -3 m 6,-1 h 3 v 1 h -3 m 6,-1 h 3 v 1 h -3 m 6,-1 h 3 v 1 h -3 m 6,-1 h 1.76001 v 1 H 576"
       style="fill:#000000;fill-opacity:1;fill-rule:nonzero;stroke:none"
       transform="matrix(0.94932431,0,0,0.94932431,-328.341,-2732.1046)"
       clip-path="url(#clipPath24)" />
    <path
       id="path25"
       d="m 569.88,2939.5 9,-4.5 -9,-4.5"
       style="fill:none;stroke:#000000;stroke-width:1;stroke-linecap:butt;stroke-linejoin:miter;stroke-miterlimit:10;stroke-dasharray:none;stroke-opacity:1"
       transform="matrix(0.94932431,0,0,0.94932431,-328.341,-2732.1046)"
       clip-path="url(#clipPath26)" />
    <path
       id="path27"
       d="m 476,2914 h 99 v 15 h -99 z"
       style="fill:#ffffff;fill-opacity:1;fill-rule:nonzero;stroke:none"
       transform="matrix(0.94932431,0,0,0.94932431,-328.81565,-2732.5792)"
       clip-path="url(#clipPath28)" />
    <path
       id="path29"
       d="m 476,2914 h 99 v 14 h -99 z"
       style="fill:#f8f9fa;fill-opacity:1;fill-rule:nonzero;stroke:none"
       transform="matrix(0.94932431,0,0,0.94932431,-328.81565,-2732.5792)"
       clip-path="url(#clipPath30)" />
    <text
       id="text30"
       xml:space="preserve"
       transform="matrix(0.94932431,0,0,0.94932431,123.19623,44.194368)"
       clip-path="url(#clipPath31)"><tspan
         id="tspan30"
         style="font-variant:normal;font-weight:normal;font-size:12px;font-family:Arial;writing-mode:lr-tb;fill:#000000;fill-opacity:1;fill-rule:nonzero;stroke:none"
         x="0"
         y="0">«private import» **</tspan></text>
  </g>
</svg>
