<?xml version="1.0" encoding="UTF-8" standalone="no"?>
<!-- Created with Inkscape (http://www.inkscape.org/) -->

<svg
   version="1.1"
   id="svg1"
   width="145.28"
   height="78.719994"
   viewBox="0 0 145.28 78.719994"
   xmlns="http://www.w3.org/2000/svg"
   xmlns:svg="http://www.w3.org/2000/svg">
  <defs
     id="defs1">
    <clipPath
       clipPathUnits="userSpaceOnUse"
       id="clipPath2">
      <path
         d="M 0,0 H 455 V 245.99609 H 0 Z"
         transform="scale(0.31999999)"
         clip-rule="evenodd"
         id="path2" />
    </clipPath>
    <clipPath
       clipPathUnits="userSpaceOnUse"
       id="clipPath4">
      <path
         d="m 3.125,0 h 450 v 245.99609 h -450 z"
         transform="matrix(0.34348444,0,0,0.34348444,156.8423,47.92661)"
         clip-rule="evenodd"
         id="path4" />
    </clipPath>
    <clipPath
       clipPathUnits="userSpaceOnUse"
       id="clipPath5">
      <path
         d="m 3.125,0 h 450 v 245.99609 h -450 z"
         transform="matrix(0.34348444,0,0,0.34348444,-42.579591,-57.57339)"
         clip-rule="evenodd"
         id="path5" />
    </clipPath>
    <clipPath
       clipPathUnits="userSpaceOnUse"
       id="clipPath7">
      <path
         d="m 3.125,0 h 450 v 245.99609 h -450 z"
         transform="matrix(0.34348444,0,0,-0.34348444,156.8423,72.073389)"
         clip-rule="evenodd"
         id="path7" />
    </clipPath>
    <clipPath
       clipPathUnits="userSpaceOnUse"
       id="clipPath17">
      <path
         d="m 3.125,0 h 450 v 245.99609 h -450 z"
         transform="matrix(0.34348444,0,0,0.34348444,-4.6577109,-15.57339)"
         clip-rule="evenodd"
         id="path17" />
    </clipPath>
  </defs>
  <g
     id="g1">
    <path
       id="path1"
       d="M 0,0 H 146 V 79 H 0 Z"
       style="fill:#ffffff;fill-opacity:1;fill-rule:nonzero;stroke:none"
       clip-path="url(#clipPath2)" />
    <path
       id="path3"
       d="m 160,70 h 150 v 60 H 160 Z"
       style="fill:none;stroke:#000000;stroke-width:1;stroke-linecap:butt;stroke-linejoin:miter;stroke-miterlimit:10;stroke-dasharray:none;stroke-opacity:1"
       transform="matrix(0.93162876,0,0,0.93162876,-146.1188,-44.649808)"
       clip-path="url(#clipPath4)" />
    <text
       id="text4"
       xml:space="preserve"
       transform="matrix(0.93162876,0,0,0.93162876,39.668372,53.637026)"
       clip-path="url(#clipPath5)"><tspan
         id="tspan4"
         style="font-variant:normal;font-weight:normal;font-size:16px;font-family:Arial;writing-mode:lr-tb;fill:#000000;fill-opacity:1;fill-rule:nonzero;stroke:none"
         x="0"
         y="0">Package1</tspan></text>
    <path
       id="path6"
       d="m 160,50 h 90 v 20 h -90 z"
       style="fill:none;stroke:#000000;stroke-width:1;stroke-linecap:butt;stroke-linejoin:miter;stroke-miterlimit:10;stroke-dasharray:none;stroke-opacity:1"
       transform="matrix(0.93162876,0,0,-0.93162876,-146.1188,67.145642)"
       clip-path="url(#clipPath7)" />
    <g
       id="g7" />
    <g
       id="g8" />
    <g
       id="g9" />
    <g
       id="g10" />
    <g
       id="g11" />
    <g
       id="g12" />
    <g
       id="g13" />
    <g
       id="g14" />
    <g
       id="g15" />
    <g
       id="g16" />
    <g
       id="g17" />
    <text
       id="text17"
       xml:space="preserve"
       transform="matrix(0.93162876,0,0,0.93162876,4.3392574,14.508618)"
       clip-path="url(#clipPath17)"><tspan
         id="tspan17"
         style="font-variant:normal;font-weight:normal;font-size:12px;font-family:Arial;writing-mode:lr-tb;fill:#000000;fill-opacity:1;fill-rule:nonzero;stroke:none"
         x="0"
         y="0">                    </tspan></text>
  </g>
</svg>
