<?xml version="1.0" encoding="UTF-8" standalone="no"?>
<!-- Created with Inkscape (http://www.inkscape.org/) -->

<svg
   version="1.1"
   id="svg1"
   width="204.15999"
   height="118.72"
   viewBox="0 0 204.15999 118.72"
   xmlns="http://www.w3.org/2000/svg"
   xmlns:svg="http://www.w3.org/2000/svg">
  <defs
     id="defs1">
    <clipPath
       clipPathUnits="userSpaceOnUse"
       id="clipPath2">
      <path
         d="M 0,0 H 639 V 368.99414 H 0 Z"
         transform="scale(0.31999999)"
         clip-rule="evenodd"
         id="path2" />
    </clipPath>
    <clipPath
       clipPathUnits="userSpaceOnUse"
       id="clipPath4">
      <path
         d="M 3.125,0 H 637.5 V 368.75 H 3.125 Z"
         transform="matrix(0.33888964,0,0,0.33888964,156.88143,1337.9409)"
         clip-rule="evenodd"
         id="path4" />
    </clipPath>
    <clipPath
       clipPathUnits="userSpaceOnUse"
       id="clipPath6">
      <path
         d="M 3.125,0 H 637.5 V 368.75 H 3.125 Z"
         transform="matrix(0.33888964,0,0,0.33888964,156.88143,1337.9409)"
         clip-rule="evenodd"
         id="path6" />
    </clipPath>
    <clipPath
       clipPathUnits="userSpaceOnUse"
       id="clipPath8">
      <path
         d="M 3.125,0 H 637.5 V 368.75 H 3.125 Z"
         transform="matrix(0.33888964,0,0,-0.33888964,156.88143,1362.0592)"
         clip-rule="evenodd"
         id="path8" />
    </clipPath>
    <clipPath
       clipPathUnits="userSpaceOnUse"
       id="clipPath9">
      <path
         d="M 3.125,0 H 637.5 V 368.75 H 3.125 Z"
         transform="matrix(0.33888964,0,0,0.33888964,-4.618565,-17.558979)"
         clip-rule="evenodd"
         id="path9" />
    </clipPath>
    <clipPath
       clipPathUnits="userSpaceOnUse"
       id="clipPath10">
      <path
         d="M 243.79193,72.468994 H 391.33258 V 116.7312 H 243.79193 Z"
         transform="matrix(0.33888964,0,0,0.33888964,-82.602945,-35.558978)"
         clip-rule="evenodd"
         id="path10" />
    </clipPath>
    <clipPath
       clipPathUnits="userSpaceOnUse"
       id="clipPath11">
      <path
         d="M 25.431763,131.48511 H 305.75903 v 44.26245 H 25.431763 Z"
         transform="matrix(0.33888964,0,0,0.33888964,-8.618565,-55.558978)"
         clip-rule="evenodd"
         id="path11" />
    </clipPath>
    <clipPath
       clipPathUnits="userSpaceOnUse"
       id="clipPath12">
      <path
         d="M 25.431763,131.48511 H 305.75903 v 44.26245 H 25.431763 Z"
         transform="matrix(0.33888964,0,0,0.33888964,-31.290445,-55.558978)"
         clip-rule="evenodd"
         id="path12" />
    </clipPath>
    <clipPath
       clipPathUnits="userSpaceOnUse"
       id="clipPath13">
      <path
         d="M 25.431763,131.48511 H 305.75903 v 44.26245 H 25.431763 Z"
         transform="matrix(0.33888964,0,0,0.33888964,-34.634195,-55.558978)"
         clip-rule="evenodd"
         id="path13" />
    </clipPath>
    <clipPath
       clipPathUnits="userSpaceOnUse"
       id="clipPath14">
      <path
         d="M 25.431763,131.48511 H 305.75903 v 44.26245 H 25.431763 Z"
         transform="matrix(0.33888964,0,0,0.33888964,-52.634195,-55.558978)"
         clip-rule="evenodd"
         id="path14" />
    </clipPath>
    <clipPath
       clipPathUnits="userSpaceOnUse"
       id="clipPath15">
      <path
         d="M 25.431763,190.50146 H 305.75903 v 44.26221 H 25.431763 Z"
         transform="matrix(0.33888964,0,0,0.33888964,-8.618565,-75.558979)"
         clip-rule="evenodd"
         id="path15" />
    </clipPath>
    <clipPath
       clipPathUnits="userSpaceOnUse"
       id="clipPath16">
      <path
         d="M 25.431763,190.50146 H 305.75903 v 44.26221 H 25.431763 Z"
         transform="matrix(0.33888964,0,0,0.33888964,-31.290445,-75.558979)"
         clip-rule="evenodd"
         id="path16" />
    </clipPath>
    <clipPath
       clipPathUnits="userSpaceOnUse"
       id="clipPath17">
      <path
         d="M 25.431763,190.50146 H 305.75903 v 44.26221 H 25.431763 Z"
         transform="matrix(0.33888964,0,0,0.33888964,-34.634195,-75.558979)"
         clip-rule="evenodd"
         id="path17" />
    </clipPath>
    <clipPath
       clipPathUnits="userSpaceOnUse"
       id="clipPath18">
      <path
         d="M 25.431763,190.50146 H 305.75903 v 44.26221 H 25.431763 Z"
         transform="matrix(0.33888964,0,0,0.33888964,-52.634195,-75.558979)"
         clip-rule="evenodd"
         id="path18" />
    </clipPath>
    <clipPath
       clipPathUnits="userSpaceOnUse"
       id="clipPath19">
      <path
         d="M 25.431763,249.51758 H 352.97204 v 44.26221 H 25.431763 Z"
         transform="matrix(0.33888964,0,0,0.33888964,-8.618565,-95.558979)"
         clip-rule="evenodd"
         id="path19" />
    </clipPath>
    <clipPath
       clipPathUnits="userSpaceOnUse"
       id="clipPath20">
      <path
         d="M 25.431763,249.51758 H 352.97204 v 44.26221 H 25.431763 Z"
         transform="matrix(0.33888964,0,0,0.33888964,-31.290445,-95.558979)"
         clip-rule="evenodd"
         id="path20" />
    </clipPath>
    <clipPath
       clipPathUnits="userSpaceOnUse"
       id="clipPath21">
      <path
         d="M 25.431763,308.53418 H 352.97204 v 44.26221 H 25.431763 Z"
         transform="matrix(0.33888964,0,0,0.33888964,-8.618565,-115.55898)"
         clip-rule="evenodd"
         id="path21" />
    </clipPath>
    <clipPath
       clipPathUnits="userSpaceOnUse"
       id="clipPath22">
      <path
         d="M 25.431763,308.53418 H 352.97204 v 44.26221 H 25.431763 Z"
         transform="matrix(0.33888964,0,0,0.33888964,-31.290445,-115.55898)"
         clip-rule="evenodd"
         id="path22" />
    </clipPath>
  </defs>
  <g
     id="g1">
    <path
       id="path1"
       d="M 0,0 H 204 V 118 H 0 Z"
       style="fill:#ffffff;fill-opacity:1;fill-rule:nonzero;stroke:none"
       clip-path="url(#clipPath2)" />
    <path
       id="path3"
       d="M 160,1360 H 370"
       style="fill:none;stroke:#000000;stroke-width:1;stroke-linecap:butt;stroke-linejoin:miter;stroke-miterlimit:10;stroke-dasharray:none;stroke-opacity:1"
       transform="matrix(0.94426015,0,0,0.94426015,-148.13688,-1263.3643)"
       clip-path="url(#clipPath4)" />
    <path
       id="path5"
       d="m 160,1360 v 100 h 210 v -100"
       style="fill:none;stroke:#000000;stroke-width:1;stroke-linecap:butt;stroke-linejoin:miter;stroke-miterlimit:10;stroke-dasharray:none;stroke-opacity:1"
       transform="matrix(0.94426015,0,0,0.94426015,-148.13688,-1263.3643)"
       clip-path="url(#clipPath6)" />
    <path
       id="path7"
       d="m 160,1340 h 90 v 20 h -90 z"
       style="fill:none;stroke:#000000;stroke-width:1;stroke-linecap:butt;stroke-linejoin:miter;stroke-miterlimit:10;stroke-dasharray:none;stroke-opacity:1"
       transform="matrix(0.94426015,0,0,-0.94426015,-148.13688,1286.1382)"
       clip-path="url(#clipPath8)" />
    <text
       id="text8"
       xml:space="preserve"
       transform="matrix(0.94426015,0,0,0.94426015,4.3611269,16.580244)"
       clip-path="url(#clipPath9)"><tspan
         id="tspan8"
         style="font-variant:normal;font-weight:normal;font-size:16px;font-family:Arial;writing-mode:lr-tb;fill:#000000;fill-opacity:1;fill-rule:nonzero;stroke:none"
         x="0"
         y="0">Package1</tspan></text>
    <text
       id="text9"
       xml:space="preserve"
       transform="matrix(0.94426015,0,0,0.94426015,77.998669,33.576926)"
       clip-path="url(#clipPath10)"><tspan
         id="tspan9"
         style="font-style:italic;font-variant:normal;font-weight:normal;font-size:12px;font-family:Arial;writing-mode:lr-tb;fill:#000000;fill-opacity:1;fill-rule:nonzero;stroke:none"
         x="0"
         y="0">members</tspan></text>
    <text
       id="text10"
       xml:space="preserve"
       transform="matrix(0.94426015,0,0,0.94426015,8.1381675,52.462129)"
       clip-path="url(#clipPath11)"><tspan
         id="tspan10"
         style="font-variant:normal;font-weight:700;font-size:12px;font-family:Arial;writing-mode:lr-tb;fill:#000000;fill-opacity:1;fill-rule:nonzero;stroke:none"
         x="0"
         y="0">part</tspan></text>
    <text
       id="text11"
       xml:space="preserve"
       transform="matrix(0.94426015,0,0,0.94426015,29.54632,52.462129)"
       clip-path="url(#clipPath12)"><tspan
         id="tspan11"
         style="font-variant:normal;font-weight:normal;font-size:12px;font-family:Arial;writing-mode:lr-tb;fill:#000000;fill-opacity:1;fill-rule:nonzero;stroke:none"
         x="0"
         y="0"> </tspan></text>
    <text
       id="text12"
       xml:space="preserve"
       transform="matrix(0.94426015,0,0,0.94426015,32.70369,52.462129)"
       clip-path="url(#clipPath13)"><tspan
         id="tspan12"
         style="font-variant:normal;font-weight:700;font-size:12px;font-family:Arial;writing-mode:lr-tb;fill:#000000;fill-opacity:1;fill-rule:nonzero;stroke:none"
         x="0"
         y="0">def</tspan></text>
    <text
       id="text13"
       xml:space="preserve"
       transform="matrix(0.94426015,0,0,0.94426015,49.700373,52.462129)"
       clip-path="url(#clipPath14)"><tspan
         id="tspan13"
         style="font-variant:normal;font-weight:normal;font-size:12px;font-family:Arial;writing-mode:lr-tb;fill:#000000;fill-opacity:1;fill-rule:nonzero;stroke:none"
         x="0"
         y="0"> PartDef1</tspan></text>
    <text
       id="text14"
       xml:space="preserve"
       transform="matrix(0.94426015,0,0,0.94426015,8.1381675,71.347333)"
       clip-path="url(#clipPath15)"><tspan
         id="tspan14"
         style="font-variant:normal;font-weight:700;font-size:12px;font-family:Arial;writing-mode:lr-tb;fill:#000000;fill-opacity:1;fill-rule:nonzero;stroke:none"
         x="0"
         y="0">part</tspan></text>
    <text
       id="text15"
       xml:space="preserve"
       transform="matrix(0.94426015,0,0,0.94426015,29.54632,71.347333)"
       clip-path="url(#clipPath16)"><tspan
         id="tspan15"
         style="font-variant:normal;font-weight:normal;font-size:12px;font-family:Arial;writing-mode:lr-tb;fill:#000000;fill-opacity:1;fill-rule:nonzero;stroke:none"
         x="0"
         y="0"> </tspan></text>
    <text
       id="text16"
       xml:space="preserve"
       transform="matrix(0.94426015,0,0,0.94426015,32.70369,71.347333)"
       clip-path="url(#clipPath17)"><tspan
         id="tspan16"
         style="font-variant:normal;font-weight:700;font-size:12px;font-family:Arial;writing-mode:lr-tb;fill:#000000;fill-opacity:1;fill-rule:nonzero;stroke:none"
         x="0"
         y="0">def</tspan></text>
    <g
       id="g17" />
    <text
       id="text17"
       xml:space="preserve"
       transform="matrix(0.94426015,0,0,0.94426015,49.700373,71.347333)"
       clip-path="url(#clipPath18)"><tspan
         id="tspan17"
         style="font-variant:normal;font-weight:normal;font-size:12px;font-family:Arial;writing-mode:lr-tb;fill:#000000;fill-opacity:1;fill-rule:nonzero;stroke:none"
         x="0"
         y="0"> PartDef2</tspan></text>
    <text
       id="text18"
       xml:space="preserve"
       transform="matrix(0.94426015,0,0,0.94426015,8.1381675,90.232536)"
       clip-path="url(#clipPath19)"><tspan
         id="tspan18"
         style="font-variant:normal;font-weight:700;font-size:12px;font-family:Arial;writing-mode:lr-tb;fill:#000000;fill-opacity:1;fill-rule:nonzero;stroke:none"
         x="0"
         y="0">part</tspan></text>
    <text
       id="text19"
       xml:space="preserve"
       transform="matrix(0.94426015,0,0,0.94426015,29.54632,90.232536)"
       clip-path="url(#clipPath20)"><tspan
         id="tspan19"
         style="font-variant:normal;font-weight:normal;font-size:12px;font-family:Arial;writing-mode:lr-tb;fill:#000000;fill-opacity:1;fill-rule:nonzero;stroke:none"
         x="0"
         y="0"> part1 : PartDef1</tspan></text>
    <text
       id="text20"
       xml:space="preserve"
       transform="matrix(0.94426015,0,0,0.94426015,8.1381675,109.11774)"
       clip-path="url(#clipPath21)"><tspan
         id="tspan20"
         style="font-variant:normal;font-weight:700;font-size:12px;font-family:Arial;writing-mode:lr-tb;fill:#000000;fill-opacity:1;fill-rule:nonzero;stroke:none"
         x="0"
         y="0">part</tspan></text>
    <text
       id="text21"
       xml:space="preserve"
       transform="matrix(0.94426015,0,0,0.94426015,29.54632,109.11774)"
       clip-path="url(#clipPath22)"><tspan
         id="tspan21"
         style="font-variant:normal;font-weight:normal;font-size:12px;font-family:Arial;writing-mode:lr-tb;fill:#000000;fill-opacity:1;fill-rule:nonzero;stroke:none"
         x="0"
         y="0"> part2 : PartDef2</tspan></text>
  </g>
</svg>
