<?xml version="1.0" encoding="UTF-8" standalone="no"?>
<!-- Created with Inkscape (http://www.inkscape.org/) -->

<svg
   version="1.1"
   id="svg1"
   width="155.84"
   height="136"
   viewBox="0 0 155.84 136"
   xmlns="http://www.w3.org/2000/svg"
   xmlns:svg="http://www.w3.org/2000/svg">
  <defs
     id="defs1">
    <clipPath
       clipPathUnits="userSpaceOnUse"
       id="clipPath2">
      <path
         d="M 0,0 H 488 V 422.99805 H 0 Z"
         transform="scale(0.31999999)"
         clip-rule="evenodd"
         id="path2" />
    </clipPath>
    <clipPath
       clipPathUnits="userSpaceOnUse"
       id="clipPath4">
      <path
         d="M 3.125,3.125 H 487.5 v 418.75 H 3.125 Z"
         transform="matrix(0.34064639,0,0,-0.34064639,156.86815,693.12907)"
         clip-rule="evenodd"
         id="path4" />
    </clipPath>
    <clipPath
       clipPathUnits="userSpaceOnUse"
       id="clipPath5">
      <path
         d="M 3.125,3.125 H 487.5 v 418.75 H 3.125 Z"
         transform="matrix(0.34064639,0,0,0.34064639,-4.6318476,-18.629035)"
         clip-rule="evenodd"
         id="path5" />
    </clipPath>
    <clipPath
       clipPathUnits="userSpaceOnUse"
       id="clipPath7">
      <path
         d="M 3.125,3.125 H 487.5 v 418.75 H 3.125 Z"
         transform="matrix(0.34064639,0,0,0.34064639,156.86815,666.87093)"
         clip-rule="evenodd"
         id="path7" />
    </clipPath>
    <clipPath
       clipPathUnits="userSpaceOnUse"
       id="clipPath9">
      <path
         d="M 3.125,3.125 H 487.5 v 418.75 H 3.125 Z"
         transform="matrix(0.34064639,0,0,0.34064639,156.86815,666.87093)"
         clip-rule="evenodd"
         id="path9" />
    </clipPath>
    <clipPath
       clipPathUnits="userSpaceOnUse"
       id="clipPath10">
      <path
         d="M 3.125,3.125 H 487.5 v 418.75 H 3.125 Z"
         transform="matrix(0.34064639,0,0,0.34064639,-62.772477,-79.629035)"
         clip-rule="evenodd"
         id="path10" />
    </clipPath>
    <clipPath
       clipPathUnits="userSpaceOnUse"
       id="clipPath11">
      <path
         d="M 3.125,3.125 H 487.5 v 418.75 H 3.125 Z"
         transform="matrix(0.34064639,0,0,0.34064639,-35.209977,-98.629036)"
         clip-rule="evenodd"
         id="path11" />
    </clipPath>
    <clipPath
       clipPathUnits="userSpaceOnUse"
       id="clipPath12">
      <path
         d="M 3.125,3.125 H 487.5 v 418.75 H 3.125 Z"
         transform="matrix(0.34064639,0,0,0.34064639,-39.663098,-117.62903)"
         clip-rule="evenodd"
         id="path12" />
    </clipPath>
    <clipPath
       clipPathUnits="userSpaceOnUse"
       id="clipPath13">
      <path
         d="M 3.125,3.125 H 487.5 v 418.75 H 3.125 Z"
         transform="matrix(0.34064639,0,0,0.34064639,-60.991228,-117.62903)"
         clip-rule="evenodd"
         id="path13" />
    </clipPath>
    <clipPath
       clipPathUnits="userSpaceOnUse"
       id="clipPath15">
      <path
         d="M 3.125,3.125 H 487.5 v 418.75 H 3.125 Z"
         transform="matrix(0.34064639,0,0,-0.34064639,156.86815,758.58898)"
         clip-rule="evenodd"
         id="path15" />
    </clipPath>
    <clipPath
       clipPathUnits="userSpaceOnUse"
       id="clipPath19">
      <path
         d="M 3.125,3.125 H 487.5 v 418.75 H 3.125 Z"
         transform="matrix(0.34064639,0,0,0.34064639,-24.631847,-49.629036)"
         clip-rule="evenodd"
         id="path19" />
    </clipPath>
  </defs>
  <g
     id="g1">
    <path
       id="path1"
       d="M 0,0 H 156 V 135 H 0 Z"
       style="fill:#ffffff;fill-opacity:1;fill-rule:nonzero;stroke:none"
       clip-path="url(#clipPath2)" />
    <path
       id="path3"
       d="m 160,670 h 90 v 20 h -90 z"
       style="fill:none;stroke:#000000;stroke-width:1;stroke-linecap:butt;stroke-linejoin:miter;stroke-miterlimit:10;stroke-dasharray:none;stroke-opacity:1"
       transform="matrix(0.93939052,0,0,-0.93939052,-147.36045,651.11888)"
       clip-path="url(#clipPath4)" />
    <text
       id="text4"
       xml:space="preserve"
       transform="matrix(0.93939052,0,0,0.93939052,4.3511137,17.499939)"
       clip-path="url(#clipPath5)"><tspan
         id="tspan4"
         style="font-variant:normal;font-weight:normal;font-size:16px;font-family:Arial;writing-mode:lr-tb;fill:#000000;fill-opacity:1;fill-rule:nonzero;stroke:none"
         x="0"
         y="0">Package1</tspan></text>
    <path
       id="path6"
       d="M 160,689.82001 H 320 V 808 H 160 Z"
       style="fill:none;stroke:#000000;stroke-width:1;stroke-linecap:butt;stroke-linejoin:miter;stroke-miterlimit:10;stroke-dasharray:none;stroke-opacity:1"
       transform="matrix(0.93939052,0,0,0.93939052,-147.36045,-626.45223)"
       clip-path="url(#clipPath7)" />
    <path
       id="path8"
       d="M 180,722.54999 H 310 V 798 H 180 Z"
       style="fill:none;stroke:#000000;stroke-width:1;stroke-linecap:butt;stroke-linejoin:miter;stroke-miterlimit:10;stroke-dasharray:none;stroke-opacity:1"
       transform="matrix(0.93939052,0,0,0.93939052,-147.36045,-626.45223)"
       clip-path="url(#clipPath9)" />
    <text
       id="text9"
       xml:space="preserve"
       transform="matrix(0.93939052,0,0,0.93939052,58.96787,74.802761)"
       clip-path="url(#clipPath10)"><tspan
         id="tspan9"
         style="font-variant:normal;font-weight:normal;font-size:16px;font-family:Arial;writing-mode:lr-tb;fill:#000000;fill-opacity:1;fill-rule:nonzero;stroke:none"
         x="0"
         y="0">«alias»</tspan></text>
    <text
       id="text10"
       xml:space="preserve"
       transform="matrix(0.93939052,0,0,0.93939052,33.075919,92.651181)"
       clip-path="url(#clipPath11)"><tspan
         id="tspan10"
         style="font-variant:normal;font-weight:normal;font-size:16px;font-family:Arial;writing-mode:lr-tb;fill:#000000;fill-opacity:1;fill-rule:nonzero;stroke:none"
         x="0"
         y="0">Package2Alias</tspan></text>
    <text
       id="text11"
       xml:space="preserve"
       transform="matrix(0.93939052,0,0,0.93939052,37.259138,110.4996)"
       clip-path="url(#clipPath12)"><tspan
         id="tspan11"
         style="font-variant:normal;font-weight:700;font-size:16px;font-family:Arial;writing-mode:lr-tb;fill:#000000;fill-opacity:1;fill-rule:nonzero;stroke:none"
         x="0"
         y="0">for</tspan></text>
    <text
       id="text12"
       xml:space="preserve"
       transform="matrix(0.93939052,0,0,0.93939052,57.294581,110.4996)"
       clip-path="url(#clipPath13)"><tspan
         id="tspan12"
         style="font-variant:normal;font-weight:normal;font-size:16px;font-family:Arial;writing-mode:lr-tb;fill:#000000;fill-opacity:1;fill-rule:nonzero;stroke:none"
         x="0"
         y="0"> Package2</tspan></text>
    <path
       id="path14"
       d="m 180,702.72998 h 50 v 20 h -50 z"
       style="fill:none;stroke:#000000;stroke-width:1;stroke-linecap:butt;stroke-linejoin:miter;stroke-miterlimit:10;stroke-dasharray:none;stroke-opacity:1"
       transform="matrix(0.93939052,0,0,-0.93939052,-147.36045,712.6113)"
       clip-path="url(#clipPath15)" />
    <g
       id="g15" />
    <g
       id="g16" />
    <g
       id="g17" />
    <g
       id="g18" />
    <g
       id="g19" />
    <text
       id="text19"
       xml:space="preserve"
       transform="matrix(0.93939052,0,0,0.93939052,23.138924,46.621046)"
       clip-path="url(#clipPath19)"><tspan
         id="tspan19"
         style="font-variant:normal;font-weight:normal;font-size:12px;font-family:Arial;writing-mode:lr-tb;fill:#000000;fill-opacity:1;fill-rule:nonzero;stroke:none"
         x="0"
         y="0">         </tspan></text>
  </g>
</svg>
