<?xml version="1.0" encoding="UTF-8" standalone="no"?>
<!-- Created with Inkscape (http://www.inkscape.org/) -->

<svg
   version="1.1"
   id="svg1"
   width="204.15999"
   height="60.16"
   viewBox="0 0 204.15999 60.16"
   xmlns="http://www.w3.org/2000/svg"
   xmlns:svg="http://www.w3.org/2000/svg">
  <defs
     id="defs1">
    <clipPath
       clipPathUnits="userSpaceOnUse"
       id="clipPath2">
      <path
         d="M 0,0 H 639 V 189 H 0 Z"
         transform="scale(0.31999999)"
         clip-rule="evenodd"
         id="path2" />
    </clipPath>
    <clipPath
       clipPathUnits="userSpaceOnUse"
       id="clipPath4">
      <path
         d="M 3.125,0 H 637.5 V 189 H 3.125 Z"
         transform="matrix(0.33889332,0,0,0.33889332,156.88027,1237.941)"
         clip-rule="evenodd"
         id="path4" />
    </clipPath>
    <clipPath
       clipPathUnits="userSpaceOnUse"
       id="clipPath6">
      <path
         d="M 3.125,0 H 637.5 V 189 H 3.125 Z"
         transform="matrix(0.33889332,0,0,0.33889332,156.88027,1237.941)"
         clip-rule="evenodd"
         id="path6" />
    </clipPath>
    <clipPath
       clipPathUnits="userSpaceOnUse"
       id="clipPath7">
      <path
         d="M 167.07245,72.468262 H 468.05213 V 116.72998 H 167.07245 Z"
         transform="matrix(0.33889332,0,0,0.33889332,-56.932235,-35.559032)"
         clip-rule="evenodd"
         id="path7" />
    </clipPath>
    <clipPath
       clipPathUnits="userSpaceOnUse"
       id="clipPath8">
      <path
         d="M 25.434937,131.48389 H 60.8443 v 47.21264 H 25.434937 Z"
         transform="matrix(0.33889332,0,0,0.33889332,-8.6197355,-57.559033)"
         clip-rule="evenodd"
         id="path8" />
    </clipPath>
    <clipPath
       clipPathUnits="userSpaceOnUse"
       id="clipPath10">
      <path
         d="M 3.125,0 H 637.5 V 189 H 3.125 Z"
         transform="matrix(0.33889332,0,0,-0.33889332,156.88027,1262.0591)"
         clip-rule="evenodd"
         id="path10" />
    </clipPath>
    <clipPath
       clipPathUnits="userSpaceOnUse"
       id="clipPath11">
      <path
         d="M 3.125,0 H 637.5 V 189 H 3.125 Z"
         transform="matrix(0.33889332,0,0,0.33889332,-4.6197355,-17.559033)"
         clip-rule="evenodd"
         id="path11" />
    </clipPath>
  </defs>
  <g
     id="g1">
    <path
       id="path1"
       d="M 0,0 H 204 V 60 H 0 Z"
       style="fill:#ffffff;fill-opacity:1;fill-rule:nonzero;stroke:none"
       clip-path="url(#clipPath2)" />
    <path
       id="path3"
       d="M 160,1260 H 370"
       style="fill:none;stroke:#000000;stroke-width:1;stroke-linecap:butt;stroke-linejoin:miter;stroke-miterlimit:10;stroke-dasharray:none;stroke-opacity:1"
       transform="matrix(0.94424991,0,0,0.94424991,-148.13418,-1168.9257)"
       clip-path="url(#clipPath4)" />
    <path
       id="path5"
       d="m 160,1260 v 40 h 210 v -40"
       style="fill:none;stroke:#000000;stroke-width:1;stroke-linecap:butt;stroke-linejoin:miter;stroke-miterlimit:10;stroke-dasharray:none;stroke-opacity:1"
       transform="matrix(0.94424991,0,0,0.94424991,-148.13418,-1168.9257)"
       clip-path="url(#clipPath6)" />
    <text
       id="text6"
       xml:space="preserve"
       transform="matrix(0.94424991,0,0,0.94424991,53.758258,33.576613)"
       clip-path="url(#clipPath7)"><tspan
         id="tspan6"
         style="font-style:italic;font-variant:normal;font-weight:normal;font-size:12px;font-family:Arial;writing-mode:lr-tb;fill:#000000;fill-opacity:1;fill-rule:nonzero;stroke:none"
         x="0"
         y="0">compartment stack</tspan></text>
    <text
       id="text7"
       xml:space="preserve"
       transform="matrix(0.94424991,0,0,0.94424991,8.1391845,54.350112)"
       clip-path="url(#clipPath8)"><tspan
         id="tspan7"
         style="font-variant:normal;font-weight:700;font-size:14px;font-family:Arial;writing-mode:lr-tb;fill:#000000;fill-opacity:1;fill-rule:nonzero;stroke:none"
         x="0"
         y="0">...</tspan></text>
    <path
       id="path9"
       d="m 160,1240 h 90 v 20 h -90 z"
       style="fill:none;stroke:#000000;stroke-width:1;stroke-linecap:butt;stroke-linejoin:miter;stroke-miterlimit:10;stroke-dasharray:none;stroke-opacity:1"
       transform="matrix(0.94424991,0,0,-0.94424991,-148.13418,1191.6992)"
       clip-path="url(#clipPath10)" />
    <text
       id="text10"
       xml:space="preserve"
       transform="matrix(0.94424991,0,0,0.94424991,4.3621848,16.580115)"
       clip-path="url(#clipPath11)"><tspan
         id="tspan10"
         style="font-variant:normal;font-weight:normal;font-size:16px;font-family:Arial;writing-mode:lr-tb;fill:#000000;fill-opacity:1;fill-rule:nonzero;stroke:none"
         x="0"
         y="0">Package1</tspan></text>
  </g>
</svg>
