<?xml version="1.0" encoding="UTF-8" standalone="no"?>
<!-- Created with Inkscape (http://www.inkscape.org/) -->

<svg
   version="1.1"
   id="svg1"
   width="174.71999"
   height="232"
   viewBox="0 0 174.71999 232"
   xmlns="http://www.w3.org/2000/svg"
   xmlns:svg="http://www.w3.org/2000/svg">
  <defs
     id="defs1">
    <clipPath
       clipPathUnits="userSpaceOnUse"
       id="clipPath2">
      <path
         d="M 0,0 H 545.99609 V 725.97656 H 0 Z"
         transform="scale(0.31999999)"
         clip-rule="evenodd"
         id="path2" />
    </clipPath>
    <clipPath
       clipPathUnits="userSpaceOnUse"
       id="clipPath4">
      <path
         d="M 3.125,6.25 H 543.75 V 721.875 H 3.125 Z"
         transform="matrix(0.34170908,0,0,0.34170908,156.86396,385.79647)"
         clip-rule="evenodd"
         id="path4" />
    </clipPath>
    <clipPath
       clipPathUnits="userSpaceOnUse"
       id="clipPath6">
      <path
         d="M 3.125,6.25 H 543.75 V 721.875 H 3.125 Z"
         transform="matrix(0.34170908,0,0,-0.34170908,156.86396,414.2035)"
         clip-rule="evenodd"
         id="path6" />
    </clipPath>
    <clipPath
       clipPathUnits="userSpaceOnUse"
       id="clipPath7">
      <path
         d="M 3.125,6.25 H 543.75 V 721.875 H 3.125 Z"
         transform="matrix(0.34170908,0,0,0.34170908,-4.6360259,-19.703559)"
         clip-rule="evenodd"
         id="path7" />
    </clipPath>
    <clipPath
       clipPathUnits="userSpaceOnUse"
       id="clipPath9">
      <path
         d="M 3.125,6.25 H 543.75 V 721.875 H 3.125 Z"
         transform="matrix(0.34170908,0,0,0.34170908,156.86396,385.79647)"
         clip-rule="evenodd"
         id="path9" />
    </clipPath>
    <clipPath
       clipPathUnits="userSpaceOnUse"
       id="clipPath10">
      <path
         d="M 3.125,6.25 H 543.75 V 721.875 H 3.125 Z"
         transform="matrix(0.34170908,0,0,0.34170908,-45.557906,-84.703559)"
         clip-rule="evenodd"
         id="path10" />
    </clipPath>
    <clipPath
       clipPathUnits="userSpaceOnUse"
       id="clipPath12">
      <path
         d="M 3.125,6.25 H 543.75 V 721.875 H 3.125 Z"
         transform="matrix(0.34170908,0,0,-0.34170908,156.86396,474.20353)"
         clip-rule="evenodd"
         id="path12" />
    </clipPath>
    <clipPath
       clipPathUnits="userSpaceOnUse"
       id="clipPath17">
      <path
         d="M 3.125,6.25 H 543.75 V 721.875 H 3.125 Z"
         transform="matrix(0.34170908,0,0,0.34170908,-29.636026,-47.703559)"
         clip-rule="evenodd"
         id="path17" />
    </clipPath>
    <clipPath
       clipPathUnits="userSpaceOnUse"
       id="clipPath19">
      <path
         d="M 3.125,6.25 H 543.75 V 721.875 H 3.125 Z"
         transform="matrix(0.34170908,0,0,0.34170908,156.86396,385.79647)"
         clip-rule="evenodd"
         id="path19" />
    </clipPath>
    <clipPath
       clipPathUnits="userSpaceOnUse"
       id="clipPath20">
      <path
         d="M 3.125,6.25 H 543.75 V 721.875 H 3.125 Z"
         transform="matrix(0.34170908,0,0,0.34170908,-73.448525,-199.70356)"
         clip-rule="evenodd"
         id="path20" />
    </clipPath>
    <clipPath
       clipPathUnits="userSpaceOnUse"
       id="clipPath21">
      <path
         d="M 3.125,6.25 H 543.75 V 721.875 H 3.125 Z"
         transform="matrix(0.34170908,0,0,0.34170908,-52.120406,-219.70356)"
         clip-rule="evenodd"
         id="path21" />
    </clipPath>
    <clipPath
       clipPathUnits="userSpaceOnUse"
       id="clipPath23">
      <path
         d="M 3.125,6.25 H 543.75 V 721.875 H 3.125 Z"
         transform="matrix(0.34170908,0,0,0.34170908,156.86396,385.79647)"
         clip-rule="evenodd"
         id="path23" />
    </clipPath>
    <clipPath
       clipPathUnits="userSpaceOnUse"
       id="clipPath24">
      <path
         d="M 3.125,6.25 H 543.75 V 721.875 H 3.125 Z"
         transform="matrix(0.34170908,0,0,0.34170908,-60.104776,-139.70356)"
         clip-rule="evenodd"
         id="path24" />
    </clipPath>
    <clipPath
       clipPathUnits="userSpaceOnUse"
       id="clipPath25">
      <path
         d="M 3.125,6.25 H 543.75 V 721.875 H 3.125 Z"
         transform="matrix(0.34170908,0,0,0.34170908,-77.011026,-159.70356)"
         clip-rule="evenodd"
         id="path25" />
    </clipPath>
  </defs>
  <g
     id="g1">
    <path
       id="path1"
       d="M 0,0 H 175 V 232 H 0 Z"
       style="fill:#ffffff;fill-opacity:1;fill-rule:nonzero;stroke:none"
       clip-path="url(#clipPath2)" />
    <path
       id="path3"
       d="M 160,410 H 340 V 630 H 160 Z"
       style="fill:none;stroke:#000000;stroke-width:1;stroke-linecap:butt;stroke-linejoin:miter;stroke-miterlimit:10;stroke-dasharray:none;stroke-opacity:1"
       transform="matrix(0.93646908,0,0,0.93646908,-146.89825,-361.28647)"
       clip-path="url(#clipPath4)" />
    <path
       id="path5"
       d="m 160,390 h 90 v 20 h -90 z"
       style="fill:none;stroke:#000000;stroke-width:1;stroke-linecap:butt;stroke-linejoin:miter;stroke-miterlimit:10;stroke-dasharray:none;stroke-opacity:1"
       transform="matrix(0.93646908,0,0,-0.93646908,-146.89825,387.88877)"
       clip-path="url(#clipPath6)" />
    <text
       id="text6"
       xml:space="preserve"
       transform="matrix(0.93646908,0,0,0.93646908,4.3414949,18.451774)"
       clip-path="url(#clipPath7)"><tspan
         id="tspan6"
         style="font-variant:normal;font-weight:normal;font-size:16px;font-family:Arial;writing-mode:lr-tb;fill:#000000;fill-opacity:1;fill-rule:nonzero;stroke:none"
         x="0"
         y="0">Package1</tspan></text>
    <path
       id="path8"
       d="m 185,440 h 105 v 50 H 185 Z"
       style="fill:none;stroke:#000000;stroke-width:1;stroke-linecap:butt;stroke-linejoin:miter;stroke-miterlimit:10;stroke-dasharray:none;stroke-opacity:1"
       transform="matrix(0.93646908,0,0,0.93646908,-146.89825,-361.28647)"
       clip-path="url(#clipPath9)" />
    <text
       id="text9"
       xml:space="preserve"
       transform="matrix(0.93646908,0,0,0.93646908,42.66357,79.322264)"
       clip-path="url(#clipPath10)"><tspan
         id="tspan9"
         style="font-variant:normal;font-weight:normal;font-size:16px;font-family:Arial;writing-mode:lr-tb;fill:#000000;fill-opacity:1;fill-rule:nonzero;stroke:none"
         x="0"
         y="0">Package2</tspan></text>
    <path
       id="path11"
       d="m 185,420 h 50 v 20 h -50 z"
       style="fill:none;stroke:#000000;stroke-width:1;stroke-linecap:butt;stroke-linejoin:miter;stroke-miterlimit:10;stroke-dasharray:none;stroke-opacity:1"
       transform="matrix(0.93646908,0,0,-0.93646908,-146.89825,444.07694)"
       clip-path="url(#clipPath12)" />
    <g
       id="g12" />
    <g
       id="g13" />
    <g
       id="g14" />
    <g
       id="g15" />
    <g
       id="g16" />
    <g
       id="g17" />
    <text
       id="text17"
       xml:space="preserve"
       transform="matrix(0.93646908,0,0,0.93646908,27.753222,44.672908)"
       clip-path="url(#clipPath17)"><tspan
         id="tspan17"
         style="font-variant:normal;font-weight:normal;font-size:12px;font-family:Arial;writing-mode:lr-tb;fill:#000000;fill-opacity:1;fill-rule:nonzero;stroke:none"
         x="0"
         y="0">          </tspan></text>
    <path
       id="path18"
       d="m 193,570 h 119 c 0.52527,0 1.0455,0.0512 1.5607,0.15369 0.51517,0.10247 1.01541,0.25421 1.50073,0.45526 0.48532,0.20099 0.94635,0.44745 1.38312,0.73932 0.43674,0.29181 0.84085,0.62341 1.21228,0.99487 0.37143,0.3714 0.70303,0.77551 0.99487,1.21222 0.29184,0.43683 0.53827,0.89789 0.73929,1.38318 0.20102,0.48529 0.35275,0.98553 0.45526,1.50067 0.10248,0.5152 0.15372,1.03546 0.15375,1.56079 v 24 c -3e-5,0.52527 -0.0513,1.04547 -0.15375,1.56067 -0.10251,0.5152 -0.25424,1.0155 -0.45526,1.50079 -0.20102,0.48529 -0.44745,0.94629 -0.73929,1.383 -0.29184,0.43683 -0.62344,0.841 -0.99487,1.2124 -0.37143,0.3714 -0.77554,0.70306 -1.21231,0.99487 -0.43674,0.29187 -0.89777,0.53833 -1.38309,0.73932 -0.48532,0.20099 -0.98556,0.35272 -1.50073,0.4552 C 313.0455,609.94873 312.52527,610 312,610 H 193 c -0.52528,0 -1.04553,-0.0513 -1.56073,-0.15375 -0.51518,-0.10248 -1.01544,-0.25421 -1.50075,-0.4552 -0.4853,-0.20099 -0.94633,-0.44745 -1.38308,-0.73932 -0.43677,-0.29181 -0.84087,-0.62347 -1.2123,-0.99487 -0.37145,-0.3714 -0.70309,-0.77551 -0.99492,-1.21234 -0.29184,-0.43677 -0.53827,-0.89777 -0.73927,-1.38306 -0.20104,-0.48529 -0.35277,-0.98559 -0.45523,-1.50079 C 185.05122,603.04547 184.99998,602.52527 185,602 v -24 c -2e-5,-0.52533 0.0512,-1.04559 0.1537,-1.56079 0.10246,-0.51514 0.25421,-1.01538 0.45525,-1.50067 0.201,-0.48529 0.44743,-0.94635 0.73929,-1.38318 0.29182,-0.43671 0.62345,-0.84082 0.9949,-1.21222 0.37143,-0.37146 0.77553,-0.70313 1.2123,-0.99493 0.43675,-0.29181 0.89778,-0.53827 1.38308,-0.73926 0.48531,-0.20105 0.98557,-0.35279 1.50075,-0.45526 C 191.95447,570.05121 192.47472,570 193,570 Z"
       style="fill:#ffffff;fill-opacity:1;fill-rule:nonzero;stroke:#000000;stroke-width:1;stroke-linecap:butt;stroke-linejoin:miter;stroke-miterlimit:10;stroke-dasharray:none;stroke-opacity:1"
       transform="matrix(0.93646908,0,0,0.93646908,-146.89825,-361.28647)"
       clip-path="url(#clipPath19)" />
    <text
       id="text19"
       xml:space="preserve"
       transform="matrix(0.93646908,0,0,0.93646908,68.782273,187.01621)"
       clip-path="url(#clipPath20)"><tspan
         id="tspan19"
         style="font-variant:normal;font-weight:normal;font-size:16px;font-family:Arial;writing-mode:lr-tb;fill:#000000;fill-opacity:1;fill-rule:nonzero;stroke:none"
         x="0"
         y="0">«part»</tspan></text>
    <text
       id="text20"
       xml:space="preserve"
       transform="matrix(0.93646908,0,0,0.93646908,48.809149,205.74559)"
       clip-path="url(#clipPath21)"><tspan
         id="tspan20"
         style="font-variant:normal;font-weight:normal;font-size:16px;font-family:Arial;writing-mode:lr-tb;fill:#000000;fill-opacity:1;fill-rule:nonzero;stroke:none"
         x="0"
         y="0">part2 : Part2</tspan></text>
    <path
       id="path22"
       d="m 185,510 h 135 v 40 H 185 Z"
       style="fill:#ffffff;fill-opacity:1;fill-rule:nonzero;stroke:#000000;stroke-width:1;stroke-linecap:butt;stroke-linejoin:miter;stroke-miterlimit:10;stroke-dasharray:none;stroke-opacity:1"
       transform="matrix(0.93646908,0,0,0.93646908,-146.89825,-361.28647)"
       clip-path="url(#clipPath23)" />
    <text
       id="text23"
       xml:space="preserve"
       transform="matrix(0.93646908,0,0,0.93646908,56.286264,130.82806)"
       clip-path="url(#clipPath24)"><tspan
         id="tspan23"
         style="font-variant:normal;font-weight:normal;font-size:16px;font-family:Arial;writing-mode:lr-tb;fill:#000000;fill-opacity:1;fill-rule:nonzero;stroke:none"
         x="0"
         y="0">«part def»</tspan></text>
    <text
       id="text24"
       xml:space="preserve"
       transform="matrix(0.93646908,0,0,0.93646908,72.118445,149.55745)"
       clip-path="url(#clipPath25)"><tspan
         id="tspan24"
         style="font-variant:normal;font-weight:normal;font-size:16px;font-family:Arial;writing-mode:lr-tb;fill:#000000;fill-opacity:1;fill-rule:nonzero;stroke:none"
         x="0"
         y="0">Part2</tspan></text>
  </g>
</svg>
