<?xml version="1.0" encoding="UTF-8" standalone="no"?>
<!-- Created with Inkscape (http://www.inkscape.org/) -->

<svg
   version="1.1"
   id="svg1"
   width="382.72"
   height="94.720001"
   viewBox="0 0 382.72 94.720001"
   xmlns="http://www.w3.org/2000/svg"
   xmlns:svg="http://www.w3.org/2000/svg">
  <defs
     id="defs1">
    <clipPath
       clipPathUnits="userSpaceOnUse"
       id="clipPath2">
      <path
         d="M 0,0 H 1193.9941 V 297 H 0 Z"
         transform="scale(0.31999999)"
         clip-rule="evenodd"
         id="path2" />
    </clipPath>
    <clipPath
       clipPathUnits="userSpaceOnUse"
       id="clipPath4">
      <path
         d="m 3.125,0 h 1187.5 V 297 H 3.125 Z"
         transform="matrix(0.33631953,0,0,0.33631953,351.3697,3615.4999)"
         clip-rule="evenodd"
         id="path4" />
    </clipPath>
    <clipPath
       clipPathUnits="userSpaceOnUse"
       id="clipPath6">
      <path
         d="m 3.125,0 h 1187.5 V 297 H 3.125 Z"
         transform="matrix(0.33631953,0,0,0.33631953,351.3697,3615.4999)"
         clip-rule="evenodd"
         id="path6" />
    </clipPath>
    <clipPath
       clipPathUnits="userSpaceOnUse"
       id="clipPath7">
      <path
         d="m 3.125,0 h 1187.5 V 297 H 3.125 Z"
         transform="matrix(0.33631953,0,0,0.33631953,-288.05218,-65.000184)"
         clip-rule="evenodd"
         id="path7" />
    </clipPath>
    <clipPath
       clipPathUnits="userSpaceOnUse"
       id="clipPath9">
      <path
         d="m 3.125,0 h 1187.5 V 297 H 3.125 Z"
         transform="matrix(0.33631953,0,0,-0.33631953,351.3697,3644.4999)"
         clip-rule="evenodd"
         id="path9" />
    </clipPath>
    <clipPath
       clipPathUnits="userSpaceOnUse"
       id="clipPath14">
      <path
         d="m 3.125,0 h 1187.5 V 297 H 3.125 Z"
         transform="matrix(0.33631953,0,0,0.33631953,-260.13029,-18.000183)"
         clip-rule="evenodd"
         id="path14" />
    </clipPath>
    <clipPath
       clipPathUnits="userSpaceOnUse"
       id="clipPath16">
      <path
         d="m 3.125,0 h 1187.5 V 297 H 3.125 Z"
         transform="matrix(0.33631953,0,0,0.33631953,351.3697,3615.4999)"
         clip-rule="evenodd"
         id="path16" />
    </clipPath>
    <clipPath
       clipPathUnits="userSpaceOnUse"
       id="clipPath18">
      <path
         d="m 3.125,0 h 1187.5 V 297 H 3.125 Z"
         transform="matrix(0.33631953,0,0,0.33631953,351.8697,3615.9999)"
         clip-rule="evenodd"
         id="path18" />
    </clipPath>
    <clipPath
       clipPathUnits="userSpaceOnUse"
       id="clipPath19">
      <path
         d="m 3.125,0 h 1187.5 V 297 H 3.125 Z"
         transform="matrix(0.33631953,0,0,0.33631953,-158.3178,-49.000183)"
         clip-rule="evenodd"
         id="path19" />
    </clipPath>
    <clipPath
       clipPathUnits="userSpaceOnUse"
       id="clipPath21">
      <path
         d="m 3.125,0 h 1187.5 V 297 H 3.125 Z"
         transform="matrix(0.33631953,0,0,0.33631953,351.3697,3615.4999)"
         clip-rule="evenodd"
         id="path21" />
    </clipPath>
    <clipPath
       clipPathUnits="userSpaceOnUse"
       id="clipPath22">
      <path
         d="m 3.125,0 h 1187.5 V 297 H 3.125 Z"
         transform="matrix(0.33631953,0,0,0.33631953,-39.052174,-65.000184)"
         clip-rule="evenodd"
         id="path22" />
    </clipPath>
    <clipPath
       clipPathUnits="userSpaceOnUse"
       id="clipPath24">
      <path
         d="m 3.125,0 h 1187.5 V 297 H 3.125 Z"
         transform="matrix(0.33631953,0,0,-0.33631953,351.3697,3644.4999)"
         clip-rule="evenodd"
         id="path24" />
    </clipPath>
    <clipPath
       clipPathUnits="userSpaceOnUse"
       id="clipPath29">
      <path
         d="m 3.125,0 h 1187.5 V 297 H 3.125 Z"
         transform="matrix(0.33631953,0,0,0.33631953,-11.130293,-18.000183)"
         clip-rule="evenodd"
         id="path29" />
    </clipPath>
    <clipPath
       clipPathUnits="userSpaceOnUse"
       id="clipPath31">
      <path
         d="m 3.125,0 h 1187.5 V 297 H 3.125 Z"
         transform="matrix(0.33631953,0,0,0.33631953,351.3697,3615.4999)"
         clip-rule="evenodd"
         id="path31" />
    </clipPath>
  </defs>
  <g
     id="g1">
    <path
       id="path1"
       d="M 0,0 H 382 V 95 H 0 Z"
       style="fill:#ffffff;fill-opacity:1;fill-rule:nonzero;stroke:none"
       clip-path="url(#clipPath2)" />
    <path
       id="path3"
       d="m 354,3616 h 396 v 98 H 354 Z"
       style="fill:#ffffff;fill-opacity:1;fill-rule:nonzero;stroke:none"
       transform="matrix(0.95147609,0,0,0.95147609,-334.31987,-3440.0617)"
       clip-path="url(#clipPath4)" />
    <path
       id="path5"
       d="m 610,3640 h 130 v 70 H 610 Z"
       style="fill:none;stroke:#000000;stroke-width:1;stroke-linecap:butt;stroke-linejoin:miter;stroke-miterlimit:10;stroke-dasharray:none;stroke-opacity:1"
       transform="matrix(0.95147609,0,0,0.95147609,-334.31987,-3440.0617)"
       clip-path="url(#clipPath6)" />
    <text
       id="text6"
       xml:space="preserve"
       transform="matrix(0.95147609,0,0,0.95147609,274.07476,61.846121)"
       clip-path="url(#clipPath7)"><tspan
         id="tspan6"
         style="font-variant:normal;font-weight:normal;font-size:16px;font-family:Arial;writing-mode:lr-tb;fill:#000000;fill-opacity:1;fill-rule:nonzero;stroke:none"
         x="0"
         y="0">Package1</tspan></text>
    <path
       id="path8"
       d="m 610,3620 h 50 v 20 h -50 z"
       style="fill:none;stroke:#000000;stroke-width:1;stroke-linecap:butt;stroke-linejoin:miter;stroke-miterlimit:10;stroke-dasharray:none;stroke-opacity:1"
       transform="matrix(0.95147609,0,0,-0.95147609,-334.31987,3467.6545)"
       clip-path="url(#clipPath9)" />
    <g
       id="g9" />
    <g
       id="g10" />
    <g
       id="g11" />
    <g
       id="g12" />
    <g
       id="g13" />
    <g
       id="g14" />
    <text
       id="text14"
       xml:space="preserve"
       transform="matrix(0.95147609,0,0,0.95147609,247.50775,17.126744)"
       clip-path="url(#clipPath14)"><tspan
         id="tspan14"
         style="font-variant:normal;font-weight:normal;font-size:12px;font-family:Arial;writing-mode:lr-tb;fill:#000000;fill-opacity:1;fill-rule:nonzero;stroke:none"
         x="0"
         y="0">          </tspan></text>
    <path
       id="path15"
       d="m 505,3675 h 1 104"
       style="fill:none;stroke:#000000;stroke-width:1;stroke-linecap:butt;stroke-linejoin:miter;stroke-miterlimit:10;stroke-dasharray:none;stroke-opacity:1"
       transform="matrix(0.95147609,0,0,0.95147609,-334.31987,-3440.0617)"
       clip-path="url(#clipPath16)" />
    <path
       id="path17"
       d="m 510,3652 h 93 v 17 h -93 z"
       style="fill:#ffffff;fill-opacity:1;fill-rule:nonzero;stroke:none"
       transform="matrix(0.95147609,0,0,0.95147609,-334.79561,-3440.5374)"
       clip-path="url(#clipPath18)" />
    <text
       id="text18"
       xml:space="preserve"
       transform="matrix(0.95147609,0,0,0.95147609,150.6356,46.622503)"
       clip-path="url(#clipPath19)"><tspan
         id="tspan18"
         style="font-variant:normal;font-weight:normal;font-size:14px;font-family:Arial;writing-mode:lr-tb;fill:#000000;fill-opacity:1;fill-rule:nonzero;stroke:none"
         x="0"
         y="0">Package1Alias</tspan></text>
    <path
       id="path20"
       d="m 361,3640 h 130 v 70 H 361 Z"
       style="fill:none;stroke:#000000;stroke-width:1;stroke-linecap:butt;stroke-linejoin:miter;stroke-miterlimit:10;stroke-dasharray:none;stroke-opacity:1"
       transform="matrix(0.95147609,0,0,0.95147609,-334.31987,-3440.0617)"
       clip-path="url(#clipPath21)" />
    <text
       id="text21"
       xml:space="preserve"
       transform="matrix(0.95147609,0,0,0.95147609,37.15721,61.846121)"
       clip-path="url(#clipPath22)"><tspan
         id="tspan21"
         style="font-variant:normal;font-weight:normal;font-size:16px;font-family:Arial;writing-mode:lr-tb;fill:#000000;fill-opacity:1;fill-rule:nonzero;stroke:none"
         x="0"
         y="0">Package0</tspan></text>
    <path
       id="path23"
       d="m 361,3620 h 50 v 20 h -50 z"
       style="fill:none;stroke:#000000;stroke-width:1;stroke-linecap:butt;stroke-linejoin:miter;stroke-miterlimit:10;stroke-dasharray:none;stroke-opacity:1"
       transform="matrix(0.95147609,0,0,-0.95147609,-334.31987,3467.6545)"
       clip-path="url(#clipPath24)" />
    <g
       id="g24" />
    <g
       id="g25" />
    <g
       id="g26" />
    <g
       id="g27" />
    <g
       id="g28" />
    <g
       id="g29" />
    <text
       id="text29"
       xml:space="preserve"
       transform="matrix(0.95147609,0,0,0.95147609,10.590208,17.126744)"
       clip-path="url(#clipPath29)"><tspan
         id="tspan29"
         style="font-variant:normal;font-weight:normal;font-size:12px;font-family:Arial;writing-mode:lr-tb;fill:#000000;fill-opacity:1;fill-rule:nonzero;stroke:none"
         x="0"
         y="0">          </tspan></text>
    <path
       id="path30"
       d="m 505,3675 c -3e-5,0.4595 -0.0449,0.9146 -0.13458,1.3655 -0.0897,0.4507 -0.22245,0.8884 -0.39832,1.313 -0.1759,0.4245 -0.39154,0.8281 -0.64688,1.2102 -0.25534,0.3823 -0.54553,0.7361 -0.87051,1.061 -0.32505,0.325 -0.67865,0.615 -1.06082,0.8701 -0.38218,0.2554 -0.78556,0.471 -1.21018,0.647 -0.42465,0.1758 -0.86236,0.3086 -1.31314,0.3984 -0.45078,0.09 -0.90598,0.1346 -1.36557,0.1348 -0.45963,-2e-4 -0.91486,-0.045 -1.36566,-0.1348 -0.45081,-0.09 -0.88852,-0.2226 -1.31317,-0.3984 -0.42466,-0.176 -0.82804,-0.3916 -1.21018,-0.647 -0.38217,-0.2551 -0.73578,-0.5451 -1.06076,-0.8701 -0.32504,-0.3249 -0.6152,-0.6787 -0.87054,-1.061 -0.25537,-0.3821 -0.47101,-0.7857 -0.64688,-1.2102 -0.17588,-0.4246 -0.30866,-0.8623 -0.39832,-1.313 -0.0897,-0.4509 -0.13452,-0.906 -0.13449,-1.3655 -3e-5,-0.4597 0.0448,-0.915 0.13449,-1.3657 0.0897,-0.451 0.22244,-0.8889 0.39835,-1.3135 0.17587,-0.4246 0.39148,-0.8279 0.64682,-1.21 0.25534,-0.382 0.54553,-0.7356 0.87057,-1.0605 0.32498,-0.325 0.67856,-0.6152 1.06073,-0.8706 0.38217,-0.2554 0.78555,-0.471 1.21021,-0.647 0.42465,-0.176 0.86236,-0.3086 1.31314,-0.3982 0.45083,-0.09 0.90606,-0.1345 1.36569,-0.1345 0.45959,0 0.91479,0.045 1.36557,0.1345 0.45078,0.09 0.88849,0.2222 1.31314,0.3982 0.42462,0.176 0.828,0.3916 1.21018,0.647 0.38217,0.2554 0.73577,0.5456 1.06082,0.8706 0.32498,0.3249 0.61517,0.6785 0.87051,1.0605 0.25534,0.3821 0.47098,0.7854 0.64688,1.21 0.17587,0.4246 0.30866,0.8625 0.39832,1.3135 0.0897,0.4507 0.13455,0.906 0.13458,1.3657 z"
       style="fill:#ffffff;fill-opacity:1;fill-rule:nonzero;stroke:#000000;stroke-width:1;stroke-linecap:butt;stroke-linejoin:miter;stroke-miterlimit:10;stroke-dasharray:none;stroke-opacity:1"
       transform="matrix(0.95147609,0,0,0.95147609,-334.31987,-3440.0617)"
       clip-path="url(#clipPath31)" />
  </g>
</svg>
