<?xml version="1.0" encoding="UTF-8" standalone="no"?>
<!-- Created with Inkscape (http://www.inkscape.org/) -->

<svg
   version="1.1"
   id="svg1"
   width="310.72"
   height="94.720001"
   viewBox="0 0 310.72 94.720001"
   xmlns="http://www.w3.org/2000/svg"
   xmlns:svg="http://www.w3.org/2000/svg">
  <defs
     id="defs1">
    <clipPath
       clipPathUnits="userSpaceOnUse"
       id="clipPath2">
      <path
         d="M 0,0 H 968.99414 V 297 H 0 Z"
         transform="scale(0.31999999)"
         clip-rule="evenodd"
         id="path2" />
    </clipPath>
    <clipPath
       clipPathUnits="userSpaceOnUse"
       id="clipPath4">
      <path
         d="m 3.125,0 h 962.5 V 297 H 3.125 Z"
         transform="matrix(0.33804911,0,0,0.33804911,351.36718,3490.5)"
         clip-rule="evenodd"
         id="path4" />
    </clipPath>
    <clipPath
       clipPathUnits="userSpaceOnUse"
       id="clipPath6">
      <path
         d="m 3.125,0 h 962.5 V 297 H 3.125 Z"
         transform="matrix(0.33804911,0,0,0.33804911,351.36718,3490.5)"
         clip-rule="evenodd"
         id="path6" />
    </clipPath>
    <clipPath
       clipPathUnits="userSpaceOnUse"
       id="clipPath7">
      <path
         d="m 3.125,0 h 962.5 V 297 H 3.125 Z"
         transform="matrix(0.33804911,0,0,0.33804911,-218.05473,-65.999898)"
         clip-rule="evenodd"
         id="path7" />
    </clipPath>
    <clipPath
       clipPathUnits="userSpaceOnUse"
       id="clipPath9">
      <path
         d="m 3.125,0 h 962.5 V 297 H 3.125 Z"
         transform="matrix(0.33804911,0,0,-0.33804911,351.36718,3521.5002)"
         clip-rule="evenodd"
         id="path9" />
    </clipPath>
    <clipPath
       clipPathUnits="userSpaceOnUse"
       id="clipPath14">
      <path
         d="m 3.125,0 h 962.5 V 297 H 3.125 Z"
         transform="matrix(0.33804911,0,0,0.33804911,-190.13284,-18.999899)"
         clip-rule="evenodd"
         id="path14" />
    </clipPath>
    <clipPath
       clipPathUnits="userSpaceOnUse"
       id="clipPath16">
      <path
         d="m 3.125,0 h 962.5 V 297 H 3.125 Z"
         transform="matrix(0.33804911,0,0,0.33804911,351.36718,3490.5)"
         clip-rule="evenodd"
         id="path16" />
    </clipPath>
    <clipPath
       clipPathUnits="userSpaceOnUse"
       id="clipPath18">
      <path
         d="m 3.125,0 h 962.5 V 297 H 3.125 Z"
         transform="matrix(0.33804911,0,0,0.33804911,351.36718,3490.5)"
         clip-rule="evenodd"
         id="path18" />
    </clipPath>
    <clipPath
       clipPathUnits="userSpaceOnUse"
       id="clipPath20">
      <path
         d="m 3.125,0 h 962.5 V 297 H 3.125 Z"
         transform="matrix(0.33804911,0,0,0.33804911,351.36718,3490.5)"
         clip-rule="evenodd"
         id="path20" />
    </clipPath>
    <clipPath
       clipPathUnits="userSpaceOnUse"
       id="clipPath22">
      <path
         d="m 3.125,0 h 962.5 V 297 H 3.125 Z"
         transform="matrix(0.33804911,0,0,0.33804911,351.36718,3490.5)"
         clip-rule="evenodd"
         id="path22" />
    </clipPath>
    <clipPath
       clipPathUnits="userSpaceOnUse"
       id="clipPath23">
      <path
         d="m 3.125,0 h 962.5 V 297 H 3.125 Z"
         transform="matrix(0.33804911,0,0,0.33804911,-38.054728,-65.999898)"
         clip-rule="evenodd"
         id="path23" />
    </clipPath>
    <clipPath
       clipPathUnits="userSpaceOnUse"
       id="clipPath25">
      <path
         d="m 3.125,0 h 962.5 V 297 H 3.125 Z"
         transform="matrix(0.33804911,0,0,-0.33804911,351.36718,3521.5002)"
         clip-rule="evenodd"
         id="path25" />
    </clipPath>
    <clipPath
       clipPathUnits="userSpaceOnUse"
       id="clipPath30">
      <path
         d="m 3.125,0 h 962.5 V 297 H 3.125 Z"
         transform="matrix(0.33804911,0,0,0.33804911,-10.132848,-18.999899)"
         clip-rule="evenodd"
         id="path30" />
    </clipPath>
  </defs>
  <g
     id="g1">
    <path
       id="path1"
       d="M 0,0 H 310 V 95 H 0 Z"
       style="fill:#ffffff;fill-opacity:1;fill-rule:nonzero;stroke:none"
       clip-path="url(#clipPath2)" />
    <path
       id="path3"
       d="m 354,3491 h 322 v 98 H 354 Z"
       style="fill:#ffffff;fill-opacity:1;fill-rule:nonzero;stroke:none"
       transform="matrix(0.94660799,0,0,0.94660799,-332.60698,-3304.1352)"
       clip-path="url(#clipPath4)" />
    <path
       id="path5"
       d="m 540,3516 h 130 v 70 H 540 Z"
       style="fill:none;stroke:#000000;stroke-width:1;stroke-linecap:butt;stroke-linejoin:miter;stroke-miterlimit:10;stroke-dasharray:none;stroke-opacity:1"
       transform="matrix(0.94660799,0,0,0.94660799,-332.60698,-3304.1352)"
       clip-path="url(#clipPath6)" />
    <text
       id="text6"
       xml:space="preserve"
       transform="matrix(0.94660799,0,0,0.94660799,206.41235,62.476031)"
       clip-path="url(#clipPath7)"><tspan
         id="tspan6"
         style="font-variant:normal;font-weight:normal;font-size:16px;font-family:Arial;writing-mode:lr-tb;fill:#000000;fill-opacity:1;fill-rule:nonzero;stroke:none"
         x="0"
         y="0">Package1</tspan></text>
    <path
       id="path8"
       d="m 540,3496 h 50 v 20 h -50 z"
       style="fill:none;stroke:#000000;stroke-width:1;stroke-linecap:butt;stroke-linejoin:miter;stroke-miterlimit:10;stroke-dasharray:none;stroke-opacity:1"
       transform="matrix(0.94660799,0,0,-0.94660799,-332.60698,3333.4802)"
       clip-path="url(#clipPath9)" />
    <g
       id="g9" />
    <g
       id="g10" />
    <g
       id="g11" />
    <g
       id="g12" />
    <g
       id="g13" />
    <g
       id="g14" />
    <text
       id="text14"
       xml:space="preserve"
       transform="matrix(0.94660799,0,0,0.94660799,179.98127,17.985456)"
       clip-path="url(#clipPath14)"><tspan
         id="tspan14"
         style="font-variant:normal;font-weight:normal;font-size:12px;font-family:Arial;writing-mode:lr-tb;fill:#000000;fill-opacity:1;fill-rule:nonzero;stroke:none"
         x="0"
         y="0">          </tspan></text>
    <path
       id="path15"
       d="m 505,3551 h 8 27"
       style="fill:none;stroke:#000000;stroke-width:1;stroke-linecap:butt;stroke-linejoin:miter;stroke-miterlimit:10;stroke-dasharray:none;stroke-opacity:1"
       transform="matrix(0.94660799,0,0,0.94660799,-332.60698,-3304.1352)"
       clip-path="url(#clipPath16)" />
    <path
       id="path17"
       d="m 505,3551 c -3e-5,0.4595 -0.0449,0.9146 -0.13458,1.365 -0.0897,0.4509 -0.22245,0.8887 -0.39832,1.3132 -0.1759,0.4246 -0.39154,0.8279 -0.64688,1.2102 -0.25534,0.3821 -0.54553,0.7359 -0.87051,1.0611 -0.32505,0.3249 -0.67865,0.6152 -1.06082,0.8703 -0.38218,0.2554 -0.78556,0.471 -1.21018,0.647 -0.42465,0.176 -0.86236,0.3088 -1.31314,0.3984 -0.45078,0.09 -0.90598,0.1346 -1.36557,0.1348 -0.45963,-2e-4 -0.91486,-0.045 -1.36566,-0.1348 -0.45081,-0.09 -0.88852,-0.2226 -1.31317,-0.3986 -0.42466,-0.1761 -0.82804,-0.3916 -1.21018,-0.6468 -0.38217,-0.2551 -0.73578,-0.5454 -1.06076,-0.8703 -0.32504,-0.3252 -0.6152,-0.679 -0.87054,-1.0611 -0.25537,-0.3823 -0.47101,-0.7856 -0.64688,-1.2102 -0.17588,-0.4245 -0.30866,-0.862 -0.39832,-1.313 -0.0897,-0.4506 -0.13452,-0.9057 -0.13449,-1.3652 -3e-5,-0.4597 0.0448,-0.9148 0.13449,-1.3657 0.0897,-0.451 0.22244,-0.8889 0.39835,-1.3135 0.17587,-0.4246 0.39148,-0.8281 0.64682,-1.2102 0.25534,-0.3821 0.54553,-0.7356 0.87057,-1.0606 0.32498,-0.3249 0.67856,-0.6152 1.06073,-0.8706 0.38217,-0.2553 0.78555,-0.4709 1.21021,-0.6467 0.42465,-0.176 0.86236,-0.3086 1.31314,-0.3982 0.45083,-0.09 0.90606,-0.1345 1.36569,-0.1345 0.45959,0 0.91479,0.045 1.36557,0.1348 0.45078,0.089 0.88849,0.2219 1.31314,0.3979 0.42462,0.1758 0.828,0.3914 1.21018,0.6467 0.38217,0.2554 0.73577,0.5457 1.06082,0.8706 0.32498,0.325 0.61517,0.6785 0.87051,1.0606 0.25534,0.3821 0.47098,0.7856 0.64688,1.2102 0.17587,0.4246 0.30866,0.8625 0.39832,1.3135 0.0897,0.4509 0.13455,0.906 0.13458,1.3657 z"
       style="fill:none;stroke:#000000;stroke-width:1;stroke-linecap:butt;stroke-linejoin:miter;stroke-miterlimit:10;stroke-dasharray:none;stroke-opacity:1"
       transform="matrix(0.94660799,0,0,0.94660799,-332.60698,-3304.1352)"
       clip-path="url(#clipPath18)" />
    <path
       id="path19"
       d="m 491,3551 h 14 m -7,-7 v 14"
       style="fill:none;stroke:#000000;stroke-width:1;stroke-linecap:butt;stroke-linejoin:miter;stroke-miterlimit:10;stroke-dasharray:none;stroke-opacity:1"
       transform="matrix(0.94660799,0,0,0.94660799,-332.60698,-3304.1352)"
       clip-path="url(#clipPath20)" />
    <path
       id="path21"
       d="m 360,3516 h 130 v 70 H 360 Z"
       style="fill:none;stroke:#000000;stroke-width:1;stroke-linecap:butt;stroke-linejoin:miter;stroke-miterlimit:10;stroke-dasharray:none;stroke-opacity:1"
       transform="matrix(0.94660799,0,0,0.94660799,-332.60698,-3304.1352)"
       clip-path="url(#clipPath22)" />
    <text
       id="text22"
       xml:space="preserve"
       transform="matrix(0.94660799,0,0,0.94660799,36.02291,62.476031)"
       clip-path="url(#clipPath23)"><tspan
         id="tspan22"
         style="font-variant:normal;font-weight:normal;font-size:16px;font-family:Arial;writing-mode:lr-tb;fill:#000000;fill-opacity:1;fill-rule:nonzero;stroke:none"
         x="0"
         y="0">Package0</tspan></text>
    <path
       id="path24"
       d="m 360,3496 h 50 v 20 h -50 z"
       style="fill:none;stroke:#000000;stroke-width:1;stroke-linecap:butt;stroke-linejoin:miter;stroke-miterlimit:10;stroke-dasharray:none;stroke-opacity:1"
       transform="matrix(0.94660799,0,0,-0.94660799,-332.60698,3333.4802)"
       clip-path="url(#clipPath25)" />
    <g
       id="g25" />
    <g
       id="g26" />
    <g
       id="g27" />
    <g
       id="g28" />
    <g
       id="g29" />
    <g
       id="g30" />
    <text
       id="text30"
       xml:space="preserve"
       transform="matrix(0.94660799,0,0,0.94660799,9.5918352,17.985456)"
       clip-path="url(#clipPath30)"><tspan
         id="tspan30"
         style="font-variant:normal;font-weight:normal;font-size:12px;font-family:Arial;writing-mode:lr-tb;fill:#000000;fill-opacity:1;fill-rule:nonzero;stroke:none"
         x="0"
         y="0">          </tspan></text>
  </g>
</svg>
