<?xml version="1.0" encoding="UTF-8" standalone="no"?>
<!-- Created with Inkscape (http://www.inkscape.org/) -->

<svg
   version="1.1"
   id="svg1"
   width="155.84"
   height="376"
   viewBox="0 0 155.84 376"
   xmlns="http://www.w3.org/2000/svg"
   xmlns:svg="http://www.w3.org/2000/svg">
  <defs
     id="defs1">
    <clipPath
       clipPathUnits="userSpaceOnUse"
       id="clipPath2">
      <path
         d="M 0,0 H 488 V 1175.9766 H 0 Z"
         transform="scale(0.31999999)"
         clip-rule="evenodd"
         id="path2" />
    </clipPath>
    <clipPath
       clipPathUnits="userSpaceOnUse"
       id="clipPath4">
      <path
         d="M 3.125,9.375 H 487.5 v 1156.25 H 3.125 Z"
         transform="matrix(0.34063728,0,0,0.34063728,405.8704,5134.7421)"
         clip-rule="evenodd"
         id="path4" />
    </clipPath>
    <clipPath
       clipPathUnits="userSpaceOnUse"
       id="clipPath6">
      <path
         d="M 3.125,9.375 H 487.5 v 1156.25 H 3.125 Z"
         transform="matrix(0.34063728,0,0,0.34063728,405.8704,5134.7421)"
         clip-rule="evenodd"
         id="path6" />
    </clipPath>
    <clipPath
       clipPathUnits="userSpaceOnUse"
       id="clipPath8">
      <path
         d="M 3.125,9.375 H 487.5 v 1156.25 H 3.125 Z"
         transform="matrix(0.34063728,0,0,0.34063728,405.8704,5134.7421)"
         clip-rule="evenodd"
         id="path8" />
    </clipPath>
    <clipPath
       clipPathUnits="userSpaceOnUse"
       id="clipPath9">
      <path
         d="M 3.125,9.375 H 487.5 v 1156.25 H 3.125 Z"
         transform="matrix(0.34063728,0,0,0.34063728,-47.098332,-26.757974)"
         clip-rule="evenodd"
         id="path9" />
    </clipPath>
    <clipPath
       clipPathUnits="userSpaceOnUse"
       id="clipPath10">
      <path
         d="M 3.125,9.375 H 487.5 v 1156.25 H 3.125 Z"
         transform="matrix(0.34063728,0,0,0.34063728,-64.004583,-45.757974)"
         clip-rule="evenodd"
         id="path10" />
    </clipPath>
    <clipPath
       clipPathUnits="userSpaceOnUse"
       id="clipPath11">
      <path
         d="m 169.18164,169.55859 h 146.78369 v 44.03516 H 169.18164 Z"
         transform="matrix(0.34063728,0,0,0.34063728,-57.942082,-68.757974)"
         clip-rule="evenodd"
         id="path11" />
    </clipPath>
    <clipPath
       clipPathUnits="userSpaceOnUse"
       id="clipPath12">
      <path
         d="M 25.333618,231.20703 H 351.19348 v 44.03516 H 25.333618 Z"
         transform="matrix(0.34063728,0,0,0.34063728,-8.6295822,-89.757973)"
         clip-rule="evenodd"
         id="path12" />
    </clipPath>
    <clipPath
       clipPathUnits="userSpaceOnUse"
       id="clipPath14">
      <path
         d="M 3.125,9.375 H 487.5 v 1156.25 H 3.125 Z"
         transform="matrix(0.34063728,0,0,0.34063728,405.8704,5134.7421)"
         clip-rule="evenodd"
         id="path14" />
    </clipPath>
    <clipPath
       clipPathUnits="userSpaceOnUse"
       id="clipPath15">
      <path
         d="m 19.46228,292.85645 h 446.22241 v 58.71387 H 19.46228 Z"
         transform="matrix(0.31999999,0,0,0.31999999,-38.780506,-107.79502)"
         clip-rule="evenodd"
         id="path15" />
    </clipPath>
    <clipPath
       clipPathUnits="userSpaceOnUse"
       id="clipPath16">
      <path
         d="M 19.46228,351.57031 H 465.68469 V 410.2832 H 19.46228 Z"
         transform="matrix(0.31999999,0,0,0.31999999,-8.0930073,-126.59191)"
         clip-rule="evenodd"
         id="path16" />
    </clipPath>
    <clipPath
       clipPathUnits="userSpaceOnUse"
       id="clipPath18">
      <path
         d="M 3.125,9.375 H 487.5 v 1156.25 H 3.125 Z"
         transform="matrix(0.34063728,0,0,0.34063728,405.8704,5134.7421)"
         clip-rule="evenodd"
         id="path18" />
    </clipPath>
    <clipPath
       clipPathUnits="userSpaceOnUse"
       id="clipPath20">
      <path
         d="M 3.125,9.375 H 487.5 v 1156.25 H 3.125 Z"
         transform="matrix(0.34063728,0,0,0.34063728,405.8704,5134.7421)"
         clip-rule="evenodd"
         id="path20" />
    </clipPath>
    <clipPath
       clipPathUnits="userSpaceOnUse"
       id="clipPath22">
      <path
         d="M 3.125,9.375 H 487.5 v 1156.25 H 3.125 Z"
         transform="matrix(0.34063728,0,0,0.34063728,405.8704,5134.7421)"
         clip-rule="evenodd"
         id="path22" />
    </clipPath>
    <clipPath
       clipPathUnits="userSpaceOnUse"
       id="clipPath23">
      <path
         d="M 3.125,9.375 H 487.5 v 1156.25 H 3.125 Z"
         transform="matrix(0.34063728,0,0,0.34063728,-47.098332,-196.75798)"
         clip-rule="evenodd"
         id="path23" />
    </clipPath>
    <clipPath
       clipPathUnits="userSpaceOnUse"
       id="clipPath24">
      <path
         d="M 3.125,9.375 H 487.5 v 1156.25 H 3.125 Z"
         transform="matrix(0.34063728,0,0,0.34063728,-58.660832,-215.75798)"
         clip-rule="evenodd"
         id="path24" />
    </clipPath>
    <clipPath
       clipPathUnits="userSpaceOnUse"
       id="clipPath26">
      <path
         d="M 3.125,9.375 H 487.5 v 1156.25 H 3.125 Z"
         transform="matrix(0.34063728,0,0,0.34063728,405.8704,5134.7421)"
         clip-rule="evenodd"
         id="path26" />
    </clipPath>
    <clipPath
       clipPathUnits="userSpaceOnUse"
       id="clipPath28">
      <path
         d="M 3.125,9.375 H 487.5 v 1156.25 H 3.125 Z"
         transform="matrix(0.34063728,0,0,0.34063728,405.8704,5134.7421)"
         clip-rule="evenodd"
         id="path28" />
    </clipPath>
    <clipPath
       clipPathUnits="userSpaceOnUse"
       id="clipPath29">
      <path
         d="m 169.18164,668.62305 h 146.78369 v 44.03516 H 169.18164 Z"
         transform="matrix(0.34063728,0,0,0.34063728,-57.942082,-238.75797)"
         clip-rule="evenodd"
         id="path29" />
    </clipPath>
    <clipPath
       clipPathUnits="userSpaceOnUse"
       id="clipPath30">
      <path
         d="M 25.333618,730.27246 H 365.87183 v 44.03516 H 25.333618 Z"
         transform="matrix(0.34063728,0,0,0.34063728,-8.6295822,-259.75797)"
         clip-rule="evenodd"
         id="path30" />
    </clipPath>
    <clipPath
       clipPathUnits="userSpaceOnUse"
       id="clipPath31">
      <path
         d="M 25.333618,788.98535 H 351.19348 v 44.03516 H 25.333618 Z"
         transform="matrix(0.34063728,0,0,0.34063728,-8.6295822,-279.75798)"
         clip-rule="evenodd"
         id="path31" />
    </clipPath>
    <clipPath
       clipPathUnits="userSpaceOnUse"
       id="clipPath33">
      <path
         d="M 3.125,9.375 H 487.5 v 1156.25 H 3.125 Z"
         transform="matrix(0.34063728,0,0,0.34063728,405.8704,5134.7421)"
         clip-rule="evenodd"
         id="path33" />
    </clipPath>
    <clipPath
       clipPathUnits="userSpaceOnUse"
       id="clipPath34">
      <path
         d="m 19.46228,850.63477 h 446.22241 v 58.71387 H 19.46228 Z"
         transform="matrix(0.31999999,0,0,0.31999999,-38.780506,-286.27941)"
         clip-rule="evenodd"
         id="path34" />
    </clipPath>
    <clipPath
       clipPathUnits="userSpaceOnUse"
       id="clipPath35">
      <path
         d="m 19.46228,909.34863 h 446.22241 v 58.71289 H 19.46228 Z"
         transform="matrix(0.31999999,0,0,0.31999999,-8.0930073,-305.07621)"
         clip-rule="evenodd"
         id="path35" />
    </clipPath>
    <clipPath
       clipPathUnits="userSpaceOnUse"
       id="clipPath37">
      <path
         d="M 3.125,9.375 H 487.5 v 1156.25 H 3.125 Z"
         transform="matrix(0.34063728,0,0,0.34063728,405.8704,5134.7421)"
         clip-rule="evenodd"
         id="path37" />
    </clipPath>
    <clipPath
       clipPathUnits="userSpaceOnUse"
       id="clipPath38">
      <path
         d="m 19.46228,979.80469 h 446.22241 v 58.71291 H 19.46228 Z"
         transform="matrix(0.31999999,0,0,0.31999999,-64.139885,-327.62311)"
         clip-rule="evenodd"
         id="path38" />
    </clipPath>
    <clipPath
       clipPathUnits="userSpaceOnUse"
       id="clipPath39">
      <path
         d="m 19.46228,1038.5176 h 446.22241 v 58.7138 H 19.46228 Z"
         transform="matrix(0.31999999,0,0,0.31999999,-8.0930073,-346.40441)"
         clip-rule="evenodd"
         id="path39" />
    </clipPath>
    <clipPath
       clipPathUnits="userSpaceOnUse"
       id="clipPath40">
      <path
         d="m 19.46228,1097.2315 h 446.22241 v 58.7128 H 19.46228 Z"
         transform="matrix(0.31999999,0,0,0.31999999,-8.0930073,-365.2012)"
         clip-rule="evenodd"
         id="path40" />
    </clipPath>
  </defs>
  <g
     id="g1">
    <path
       id="path1"
       d="M 0,0 H 156 V 376 H 0 Z"
       style="fill:#ffffff;fill-opacity:1;fill-rule:nonzero;stroke:none"
       clip-path="url(#clipPath2)" />
    <path
       id="path3"
       d="m 409,5190 v -50 h 160 v 50"
       style="fill:none;stroke:#000000;stroke-width:1;stroke-linecap:butt;stroke-linejoin:miter;stroke-miterlimit:10;stroke-dasharray:none;stroke-opacity:1"
       transform="matrix(0.93941564,0,0,0.93941564,-381.281,-4823.657)"
       clip-path="url(#clipPath4)" />
    <path
       id="path5"
       d="m 409,5190 v 85 h 160 v -85"
       style="fill:none;stroke:#000000;stroke-width:1;stroke-linecap:butt;stroke-linejoin:miter;stroke-miterlimit:10;stroke-dasharray:none;stroke-opacity:1"
       transform="matrix(0.93941564,0,0,0.93941564,-381.281,-4823.657)"
       clip-path="url(#clipPath6)" />
    <path
       id="path7"
       d="M 409,5190 H 569"
       style="fill:none;stroke:#000000;stroke-width:1;stroke-linecap:butt;stroke-linejoin:miter;stroke-miterlimit:10;stroke-dasharray:none;stroke-opacity:1"
       transform="matrix(0.93941564,0,0,0.93941564,-381.281,-4823.657)"
       clip-path="url(#clipPath8)" />
    <text
       id="text8"
       xml:space="preserve"
       transform="matrix(0.93941564,0,0,0.93941564,44.24491,25.136859)"
       clip-path="url(#clipPath9)"><tspan
         id="tspan8"
         style="font-variant:normal;font-weight:normal;font-size:16px;font-family:Arial;writing-mode:lr-tb;fill:#000000;fill-opacity:1;fill-rule:nonzero;stroke:none"
         x="0"
         y="0">«part def»</tspan></text>
    <text
       id="text9"
       xml:space="preserve"
       transform="matrix(0.93941564,0,0,0.93941564,60.126906,42.985756)"
       clip-path="url(#clipPath10)"><tspan
         id="tspan9"
         style="font-variant:normal;font-weight:normal;font-size:16px;font-family:Arial;writing-mode:lr-tb;fill:#000000;fill-opacity:1;fill-rule:nonzero;stroke:none"
         x="0"
         y="0">Part2</tspan></text>
    <text
       id="text10"
       xml:space="preserve"
       transform="matrix(0.93941564,0,0,0.93941564,54.431698,64.592316)"
       clip-path="url(#clipPath11)"><tspan
         id="tspan10"
         style="font-style:italic;font-variant:normal;font-weight:normal;font-size:12px;font-family:Arial;writing-mode:lr-tb;fill:#000000;fill-opacity:1;fill-rule:nonzero;stroke:none"
         x="0"
         y="0">attributes</tspan></text>
    <text
       id="text11"
       xml:space="preserve"
       transform="matrix(0.93941564,0,0,0.93941564,8.1067645,84.320044)"
       clip-path="url(#clipPath12)"><tspan
         id="tspan11"
         style="font-variant:normal;font-weight:normal;font-size:12px;font-family:Arial;writing-mode:lr-tb;fill:#000000;fill-opacity:1;fill-rule:nonzero;stroke:none"
         x="0"
         dx="0 0 0 0 0 0 0 0 0 0 0 0 0 -0.6621089"
         y="0">attribute1 : Attribute1</tspan></text>
    <path
       id="path13"
       d="M 409,5233 H 569"
       style="fill:none;stroke:#000000;stroke-width:1;stroke-linecap:butt;stroke-linejoin:miter;stroke-miterlimit:10;stroke-dasharray:none;stroke-opacity:1"
       transform="matrix(0.93941564,0,0,0.93941564,-381.281,-4823.657)"
       clip-path="url(#clipPath14)" />
    <text
       id="text14"
       xml:space="preserve"
       transform="translate(38.780506,107.79502)"
       clip-path="url(#clipPath15)"><tspan
         id="tspan14"
         style="font-style:italic;font-variant:normal;font-weight:normal;font-size:11.27px;font-family:Arial;writing-mode:lr-tb;fill:#000000;fill-opacity:1;fill-rule:nonzero;stroke:none"
         x="0"
         y="0">perform actions</tspan></text>
    <text
       id="text15"
       xml:space="preserve"
       transform="translate(8.0930073,126.59191)"
       clip-path="url(#clipPath16)"><tspan
         id="tspan15"
         style="font-variant:normal;font-weight:normal;font-size:11.27px;font-family:Arial;writing-mode:lr-tb;fill:#000000;fill-opacity:1;fill-rule:nonzero;stroke:none"
         x="0"
         dx="0 0 0 0 0 0 0 0 0 0 -0.62182873"
         y="0">action1 : Action1</tspan></text>
    <path
       id="path17"
       d="m 409,5360 v -50 h 160 v 50"
       style="fill:none;stroke:#000000;stroke-width:1;stroke-linecap:butt;stroke-linejoin:miter;stroke-miterlimit:10;stroke-dasharray:none;stroke-opacity:1"
       transform="matrix(0.93941564,0,0,0.93941564,-381.281,-4823.657)"
       clip-path="url(#clipPath18)" />
    <path
       id="path19"
       d="m 409,5360 v 169 h 160 v -169"
       style="fill:none;stroke:#000000;stroke-width:1;stroke-linecap:butt;stroke-linejoin:miter;stroke-miterlimit:10;stroke-dasharray:none;stroke-opacity:1"
       transform="matrix(0.93941564,0,0,0.93941564,-381.281,-4823.657)"
       clip-path="url(#clipPath20)" />
    <path
       id="path21"
       d="M 409,5360 H 569"
       style="fill:none;stroke:#000000;stroke-width:1;stroke-linecap:butt;stroke-linejoin:miter;stroke-miterlimit:10;stroke-dasharray:none;stroke-opacity:1"
       transform="matrix(0.93941564,0,0,0.93941564,-381.281,-4823.657)"
       clip-path="url(#clipPath22)" />
    <text
       id="text22"
       xml:space="preserve"
       transform="matrix(0.93941564,0,0,0.93941564,44.24491,184.83752)"
       clip-path="url(#clipPath23)"><tspan
         id="tspan22"
         style="font-variant:normal;font-weight:normal;font-size:16px;font-family:Arial;writing-mode:lr-tb;fill:#000000;fill-opacity:1;fill-rule:nonzero;stroke:none"
         x="0"
         y="0">«part def»</tspan></text>
    <text
       id="text23"
       xml:space="preserve"
       transform="matrix(0.93941564,0,0,0.93941564,55.106903,202.68642)"
       clip-path="url(#clipPath24)"><tspan
         id="tspan23"
         style="font-variant:normal;font-weight:normal;font-size:16px;font-family:Arial;writing-mode:lr-tb;fill:#000000;fill-opacity:1;fill-rule:nonzero;stroke:none"
         x="0"
         y="0">Part2S</tspan></text>
    <path
       id="path25"
       d="m 489,5310 v -22.8799"
       style="fill:none;stroke:#000000;stroke-width:1;stroke-linecap:butt;stroke-linejoin:miter;stroke-miterlimit:10;stroke-dasharray:none;stroke-opacity:1"
       transform="matrix(0.93941564,0,0,0.93941564,-381.281,-4823.657)"
       clip-path="url(#clipPath26)" />
    <path
       id="path27"
       d="m 489,5276.1201 5.5,11 h -11 z"
       style="fill:none;stroke:#000000;stroke-width:1;stroke-linecap:butt;stroke-linejoin:miter;stroke-miterlimit:10;stroke-dasharray:none;stroke-opacity:1"
       transform="matrix(0.93941564,0,0,0.93941564,-381.281,-4823.657)"
       clip-path="url(#clipPath28)" />
    <text
       id="text28"
       xml:space="preserve"
       transform="matrix(0.93941564,0,0,0.93941564,54.431698,224.29297)"
       clip-path="url(#clipPath29)"><tspan
         id="tspan28"
         style="font-style:italic;font-variant:normal;font-weight:normal;font-size:12px;font-family:Arial;writing-mode:lr-tb;fill:#000000;fill-opacity:1;fill-rule:nonzero;stroke:none"
         x="0"
         y="0">attributes</tspan></text>
    <text
       id="text29"
       xml:space="preserve"
       transform="matrix(0.93941564,0,0,0.93941564,8.1067645,244.0207)"
       clip-path="url(#clipPath30)"><tspan
         id="tspan29"
         style="font-variant:normal;font-weight:normal;font-size:12px;font-family:Arial;writing-mode:lr-tb;fill:#000000;fill-opacity:1;fill-rule:nonzero;stroke:none"
         x="0"
         dx="0 0 0 0 0 0 0 0 0 0 0 0 0 0 -0.66210926"
         y="0">^attribute1 : Attribute1</tspan></text>
    <text
       id="text30"
       xml:space="preserve"
       transform="matrix(0.93941564,0,0,0.93941564,8.1067645,262.80902)"
       clip-path="url(#clipPath31)"><tspan
         id="tspan30"
         style="font-variant:normal;font-weight:normal;font-size:12px;font-family:Arial;writing-mode:lr-tb;fill:#000000;fill-opacity:1;fill-rule:nonzero;stroke:none"
         x="0"
         dx="0 0 0 0 0 0 0 0 0 0 0 0 0 -0.6621089"
         y="0">attribute2 : Attribute2</tspan></text>
    <path
       id="path32"
       d="M 409,5423 H 569"
       style="fill:none;stroke:#000000;stroke-width:1;stroke-linecap:butt;stroke-linejoin:miter;stroke-miterlimit:10;stroke-dasharray:none;stroke-opacity:1"
       transform="matrix(0.93941564,0,0,0.93941564,-381.281,-4823.657)"
       clip-path="url(#clipPath33)" />
    <text
       id="text33"
       xml:space="preserve"
       transform="translate(38.780506,286.27941)"
       clip-path="url(#clipPath34)"><tspan
         id="tspan33"
         style="font-style:italic;font-variant:normal;font-weight:normal;font-size:11.27px;font-family:Arial;writing-mode:lr-tb;fill:#000000;fill-opacity:1;fill-rule:nonzero;stroke:none"
         x="0"
         y="0">perform actions</tspan></text>
    <text
       id="text34"
       xml:space="preserve"
       transform="translate(8.0930073,305.07621)"
       clip-path="url(#clipPath35)"><tspan
         id="tspan34"
         style="font-variant:normal;font-weight:normal;font-size:11.27px;font-family:Arial;writing-mode:lr-tb;fill:#000000;fill-opacity:1;fill-rule:nonzero;stroke:none"
         x="0"
         dx="0 0 0 0 0 0 0 0 0 0 0 -0.62182873"
         y="0">^action1 : Action1</tspan></text>
    <path
       id="path36"
       d="M 409,5467 H 569"
       style="fill:none;stroke:#000000;stroke-width:1;stroke-linecap:butt;stroke-linejoin:miter;stroke-miterlimit:10;stroke-dasharray:none;stroke-opacity:1"
       transform="matrix(0.93941564,0,0,0.93941564,-381.281,-4823.657)"
       clip-path="url(#clipPath37)" />
    <text
       id="text37"
       xml:space="preserve"
       transform="translate(64.139885,327.62311)"
       clip-path="url(#clipPath38)"><tspan
         id="tspan37"
         style="font-style:italic;font-variant:normal;font-weight:normal;font-size:11.27px;font-family:Arial;writing-mode:lr-tb;fill:#000000;fill-opacity:1;fill-rule:nonzero;stroke:none"
         x="0"
         y="0">items</tspan></text>
    <text
       id="text38"
       xml:space="preserve"
       transform="translate(8.0930073,346.40441)"
       clip-path="url(#clipPath39)"><tspan
         id="tspan38"
         style="font-variant:normal;font-weight:normal;font-size:11.27px;font-family:Arial;writing-mode:lr-tb;fill:#000000;fill-opacity:1;fill-rule:nonzero;stroke:none"
         x="0"
         y="0">item1 : Item1 [0..*]</tspan></text>
    <text
       id="text39"
       xml:space="preserve"
       transform="translate(8.0930073,365.2012)"
       clip-path="url(#clipPath40)"><tspan
         id="tspan39"
         style="font-variant:normal;font-weight:normal;font-size:11.27px;font-family:Arial;writing-mode:lr-tb;fill:#000000;fill-opacity:1;fill-rule:nonzero;stroke:none"
         x="0"
         y="0">item1 : Item1 [0..*]</tspan></text>
  </g>
</svg>
