<?xml version="1.0" encoding="UTF-8" standalone="no"?>
<!-- Created with Inkscape (http://www.inkscape.org/) -->

<svg
   version="1.1"
   id="svg1"
   width="396.16"
   height="206.71999"
   viewBox="0 0 396.16 206.71999"
   xmlns="http://www.w3.org/2000/svg"
   xmlns:svg="http://www.w3.org/2000/svg">
  <defs
     id="defs1">
    <clipPath
       clipPathUnits="userSpaceOnUse"
       id="clipPath2">
      <path
         d="M 0,0 H 1235.9863 V 645.01953 H 0 Z"
         transform="scale(0.31999999)"
         clip-rule="evenodd"
         id="path2" />
    </clipPath>
    <clipPath
       clipPathUnits="userSpaceOnUse"
       id="clipPath4">
      <path
         d="m 3.125,0 h 1231.25 V 645.01953 H 3.125 Z"
         transform="matrix(0.33618525,0,0,0.33618525,394.72129,1118.4493)"
         clip-rule="evenodd"
         id="path4" />
    </clipPath>
    <clipPath
       clipPathUnits="userSpaceOnUse"
       id="clipPath6">
      <path
         d="m 3.125,0 h 1231.25 V 645.01953 H 3.125 Z"
         transform="matrix(0.33618525,0,0,0.33618525,394.72129,1118.4493)"
         clip-rule="evenodd"
         id="path6" />
    </clipPath>
    <clipPath
       clipPathUnits="userSpaceOnUse"
       id="clipPath8">
      <path
         d="m 3.125,0 h 1231.25 V 645.01953 H 3.125 Z"
         transform="matrix(0.33618525,0,0,0.33618525,394.72129,1118.4493)"
         clip-rule="evenodd"
         id="path8" />
    </clipPath>
    <clipPath
       clipPathUnits="userSpaceOnUse"
       id="clipPath10">
      <path
         d="m 3.125,0 h 1231.25 V 645.01953 H 3.125 Z"
         transform="matrix(0.33618525,0,0,0.33618525,394.72129,1118.4493)"
         clip-rule="evenodd"
         id="path10" />
    </clipPath>
    <clipPath
       clipPathUnits="userSpaceOnUse"
       id="clipPath11">
      <path
         d="m 3.125,0 h 1231.25 V 645.01953 H 3.125 Z"
         transform="matrix(0.33618525,0,0,0.33618525,-291.24745,-31.050667)"
         clip-rule="evenodd"
         id="path11" />
    </clipPath>
    <clipPath
       clipPathUnits="userSpaceOnUse"
       id="clipPath12">
      <path
         d="m 3.125,0 h 1231.25 V 645.01953 H 3.125 Z"
         transform="matrix(0.33618525,0,0,0.33618525,-308.1537,-50.050666)"
         clip-rule="evenodd"
         id="path12" />
    </clipPath>
    <clipPath
       clipPathUnits="userSpaceOnUse"
       id="clipPath13">
      <path
         d="m 897.65601,184.57275 h 148.72749 v 44.61841 H 897.65601 Z"
         transform="matrix(0.33618525,0,0,0.33618525,-302.0912,-73.050667)"
         clip-rule="evenodd"
         id="path13" />
    </clipPath>
    <clipPath
       clipPathUnits="userSpaceOnUse"
       id="clipPath14">
      <path
         d="m 751.90295,244.06372 h 330.17515 v 44.61841 H 751.90295 Z"
         transform="matrix(0.33618525,0,0,0.33618525,-252.7787,-93.050666)"
         clip-rule="evenodd"
         id="path14" />
    </clipPath>
    <clipPath
       clipPathUnits="userSpaceOnUse"
       id="clipPath16">
      <path
         d="m 3.125,0 h 1231.25 V 645.01953 H 3.125 Z"
         transform="matrix(0.33618525,0,0,0.33618525,394.72129,1118.4493)"
         clip-rule="evenodd"
         id="path16" />
    </clipPath>
    <clipPath
       clipPathUnits="userSpaceOnUse"
       id="clipPath17">
      <path
         d="m 745.95386,309.50391 h 452.13184 v 59.49097 H 745.95386 Z"
         transform="matrix(0.31999999,0,0,0.31999999,-271.9937,-112.84313)"
         clip-rule="evenodd"
         id="path17" />
    </clipPath>
    <clipPath
       clipPathUnits="userSpaceOnUse"
       id="clipPath18">
      <path
         d="m 745.95386,368.99487 h 452.13184 v 59.49097 H 745.95386 Z"
         transform="matrix(0.31999999,0,0,0.31999999,-240.91558,-131.87439)"
         clip-rule="evenodd"
         id="path18" />
    </clipPath>
    <clipPath
       clipPathUnits="userSpaceOnUse"
       id="clipPath20">
      <path
         d="m 3.125,0 h 1231.25 V 645.01953 H 3.125 Z"
         transform="matrix(0.33618525,0,0,0.33618525,394.72129,1118.4493)"
         clip-rule="evenodd"
         id="path20" />
    </clipPath>
    <clipPath
       clipPathUnits="userSpaceOnUse"
       id="clipPath22">
      <path
         d="m 3.125,0 h 1231.25 V 645.01953 H 3.125 Z"
         transform="matrix(0.33618525,0,0,0.33618525,394.72129,1118.4493)"
         clip-rule="evenodd"
         id="path22" />
    </clipPath>
    <clipPath
       clipPathUnits="userSpaceOnUse"
       id="clipPath24">
      <path
         d="m 3.125,0 h 1231.25 V 645.01953 H 3.125 Z"
         transform="matrix(0.33618525,0,0,0.33618525,394.72129,1118.4493)"
         clip-rule="evenodd"
         id="path24" />
    </clipPath>
    <clipPath
       clipPathUnits="userSpaceOnUse"
       id="clipPath25">
      <path
         d="m 3.125,0 h 1231.25 V 645.01953 H 3.125 Z"
         transform="matrix(0.33618525,0,0,0.33618525,-64.591202,-31.050667)"
         clip-rule="evenodd"
         id="path25" />
    </clipPath>
    <clipPath
       clipPathUnits="userSpaceOnUse"
       id="clipPath26">
      <path
         d="m 3.125,0 h 1231.25 V 645.01953 H 3.125 Z"
         transform="matrix(0.33618525,0,0,0.33618525,-69.044332,-50.050666)"
         clip-rule="evenodd"
         id="path26" />
    </clipPath>
    <clipPath
       clipPathUnits="userSpaceOnUse"
       id="clipPath27">
      <path
         d="m 183.76392,184.57275 h 148.72742 v 44.61841 H 183.76392 Z"
         transform="matrix(0.33618525,0,0,0.33618525,-62.091202,-73.050667)"
         clip-rule="evenodd"
         id="path27" />
    </clipPath>
    <clipPath
       clipPathUnits="userSpaceOnUse"
       id="clipPath28">
      <path
         d="M 38.010864,244.06372 H 383.05871 v 44.61841 H 38.010864 Z"
         transform="matrix(0.33618525,0,0,0.33618525,-12.778702,-93.050666)"
         clip-rule="evenodd"
         id="path28" />
    </clipPath>
    <clipPath
       clipPathUnits="userSpaceOnUse"
       id="clipPath29">
      <path
         d="M 38.010864,306.5293 H 368.18603 v 44.61841 H 38.010864 Z"
         transform="matrix(0.33618525,0,0,0.33618525,-12.778702,-114.05066)"
         clip-rule="evenodd"
         id="path29" />
    </clipPath>
    <clipPath
       clipPathUnits="userSpaceOnUse"
       id="clipPath31">
      <path
         d="m 3.125,0 h 1231.25 V 645.01953 H 3.125 Z"
         transform="matrix(0.33618525,0,0,0.33618525,394.72129,1118.4493)"
         clip-rule="evenodd"
         id="path31" />
    </clipPath>
    <clipPath
       clipPathUnits="userSpaceOnUse"
       id="clipPath32">
      <path
         d="M 32.061768,368.99487 H 484.19348 v 59.49097 H 32.061768 Z"
         transform="matrix(0.31999999,0,0,0.31999999,-43.556198,-131.87439)"
         clip-rule="evenodd"
         id="path32" />
    </clipPath>
    <clipPath
       clipPathUnits="userSpaceOnUse"
       id="clipPath33">
      <path
         d="M 32.061768,428.48584 H 484.19348 v 59.49121 H 32.061768 Z"
         transform="matrix(0.31999999,0,0,0.31999999,-12.462447,-150.90564)"
         clip-rule="evenodd"
         id="path33" />
    </clipPath>
    <clipPath
       clipPathUnits="userSpaceOnUse"
       id="clipPath35">
      <path
         d="m 3.125,0 h 1231.25 V 645.01953 H 3.125 Z"
         transform="matrix(0.33618525,0,0,0.33618525,394.72129,1118.4493)"
         clip-rule="evenodd"
         id="path35" />
    </clipPath>
    <clipPath
       clipPathUnits="userSpaceOnUse"
       id="clipPath36">
      <path
         d="M 32.061768,499.87524 H 484.19348 v 59.49097 H 32.061768 Z"
         transform="matrix(0.31999999,0,0,0.31999999,-70.212448,-173.74939)"
         clip-rule="evenodd"
         id="path36" />
    </clipPath>
    <clipPath
       clipPathUnits="userSpaceOnUse"
       id="clipPath37">
      <path
         d="M 32.061768,559.36621 H 484.19348 v 59.49097 H 32.061768 Z"
         transform="matrix(0.31999999,0,0,0.31999999,-12.462447,-192.79626)"
         clip-rule="evenodd"
         id="path37" />
    </clipPath>
    <clipPath
       clipPathUnits="userSpaceOnUse"
       id="clipPath39">
      <path
         d="m 3.125,0 h 1231.25 V 645.01953 H 3.125 Z"
         transform="matrix(0.33618525,0,0,0.33618525,394.72129,1118.4493)"
         clip-rule="evenodd"
         id="path39" />
    </clipPath>
    <clipPath
       clipPathUnits="userSpaceOnUse"
       id="clipPath41">
      <path
         d="m 3.125,0 h 1231.25 V 645.01953 H 3.125 Z"
         transform="matrix(0.33618525,0,0,0.33618525,394.72129,1118.4493)"
         clip-rule="evenodd"
         id="path41" />
    </clipPath>
    <clipPath
       clipPathUnits="userSpaceOnUse"
       id="clipPath43">
      <path
         d="m 3.125,0 h 1231.25 V 645.01953 H 3.125 Z"
         transform="matrix(0.33618525,0,0,0.33618525,394.72129,1118.4493)"
         clip-rule="evenodd"
         id="path43" />
    </clipPath>
    <clipPath
       clipPathUnits="userSpaceOnUse"
       id="clipPath45">
      <path
         d="m 3.125,0 h 1231.25 V 645.01953 H 3.125 Z"
         transform="matrix(0.33618525,0,0,0.33618525,394.72129,1118.4493)"
         clip-rule="evenodd"
         id="path45" />
    </clipPath>
  </defs>
  <g
     id="g1">
    <path
       id="path1"
       d="M 0,0 H 396 V 206 H 0 Z"
       style="fill:#ffffff;fill-opacity:1;fill-rule:nonzero;stroke:none"
       clip-path="url(#clipPath2)" />
    <path
       id="path3"
       d="m 397.32999,1120 h 409.99997 v 214 H 397.32999 Z"
       style="fill:#ffffff;fill-opacity:1;fill-rule:nonzero;stroke:none"
       transform="matrix(0.95185612,0,0,0.95185612,-375.71788,-1064.6028)"
       clip-path="url(#clipPath4)" />
    <path
       id="path5"
       d="m 642.33002,1177.5 v -50 h 160 v 50"
       style="fill:none;stroke:#000000;stroke-width:1;stroke-linecap:butt;stroke-linejoin:miter;stroke-miterlimit:10;stroke-dasharray:none;stroke-opacity:1"
       transform="matrix(0.95185612,0,0,0.95185612,-375.71788,-1064.6028)"
       clip-path="url(#clipPath6)" />
    <path
       id="path7"
       d="m 642.33002,1177.5 v 85 h 160 v -85"
       style="fill:none;stroke:#000000;stroke-width:1;stroke-linecap:butt;stroke-linejoin:miter;stroke-miterlimit:10;stroke-dasharray:none;stroke-opacity:1"
       transform="matrix(0.95185612,0,0,0.95185612,-375.71788,-1064.6028)"
       clip-path="url(#clipPath8)" />
    <path
       id="path9"
       d="m 642.33002,1177.5 h 160"
       style="fill:none;stroke:#000000;stroke-width:1;stroke-linecap:butt;stroke-linejoin:miter;stroke-miterlimit:10;stroke-dasharray:none;stroke-opacity:1"
       transform="matrix(0.95185612,0,0,0.95185612,-375.71788,-1064.6028)"
       clip-path="url(#clipPath10)" />
    <text
       id="text10"
       xml:space="preserve"
       transform="matrix(0.95185612,0,0,0.95185612,277.22567,29.555767)"
       clip-path="url(#clipPath11)"><tspan
         id="tspan10"
         style="font-variant:normal;font-weight:normal;font-size:16px;font-family:Arial;writing-mode:lr-tb;fill:#000000;fill-opacity:1;fill-rule:nonzero;stroke:none"
         x="0"
         y="0">«part def»</tspan></text>
    <text
       id="text11"
       xml:space="preserve"
       transform="matrix(0.95185612,0,0,0.95185612,293.31799,47.641033)"
       clip-path="url(#clipPath12)"><tspan
         id="tspan11"
         style="font-variant:normal;font-weight:normal;font-size:16px;font-family:Arial;writing-mode:lr-tb;fill:#000000;fill-opacity:1;fill-rule:nonzero;stroke:none"
         x="0"
         y="0">Part1</tspan></text>
    <text
       id="text12"
       xml:space="preserve"
       transform="matrix(0.95185612,0,0,0.95185612,287.54736,69.533724)"
       clip-path="url(#clipPath13)"><tspan
         id="tspan12"
         style="font-style:italic;font-variant:normal;font-weight:normal;font-size:12px;font-family:Arial;writing-mode:lr-tb;fill:#000000;fill-opacity:1;fill-rule:nonzero;stroke:none"
         x="0"
         y="0">attributes</tspan></text>
    <text
       id="text13"
       xml:space="preserve"
       transform="matrix(0.95185612,0,0,0.95185612,240.60895,88.570846)"
       clip-path="url(#clipPath14)"><tspan
         id="tspan13"
         style="font-variant:normal;font-weight:normal;font-size:12px;font-family:Arial;writing-mode:lr-tb;fill:#000000;fill-opacity:1;fill-rule:nonzero;stroke:none"
         x="0"
         dx="0 0 0 0 0 0 0 0 0 0 0 0 0 -0.6621089"
         y="0">attribute1 : Attribute1</tspan></text>
    <path
       id="path15"
       d="m 642.33002,1220.5 h 160"
       style="fill:none;stroke:#000000;stroke-width:1;stroke-linecap:butt;stroke-linejoin:miter;stroke-miterlimit:10;stroke-dasharray:none;stroke-opacity:1"
       transform="matrix(0.95185612,0,0,0.95185612,-375.71788,-1064.6028)"
       clip-path="url(#clipPath16)" />
    <text
       id="text16"
       xml:space="preserve"
       transform="translate(271.9937,112.84313)"
       clip-path="url(#clipPath17)"><tspan
         id="tspan16"
         style="font-style:italic;font-variant:normal;font-weight:normal;font-size:11.42px;font-family:Arial;writing-mode:lr-tb;fill:#000000;fill-opacity:1;fill-rule:nonzero;stroke:none"
         x="0"
         y="0">perform actions</tspan></text>
    <text
       id="text17"
       xml:space="preserve"
       transform="translate(240.91558,131.87439)"
       clip-path="url(#clipPath18)"><tspan
         id="tspan17"
         style="font-variant:normal;font-weight:normal;font-size:11.42px;font-family:Arial;writing-mode:lr-tb;fill:#000000;fill-opacity:1;fill-rule:nonzero;stroke:none"
         x="0"
         dx="0 0 0 0 0 0 0 0 0 0 -0.63011724"
         y="0">action1 : Action1</tspan></text>
    <path
       id="path19"
       d="M 562.33002,1177.5 V 1135 c 0,-5 -2.5,-7.5 -7.5,-7.5 H 409.82999 c -5,0 -7.5,2.5 -7.5,7.5 v 42.5"
       style="fill:none;stroke:#000000;stroke-width:1;stroke-linecap:butt;stroke-linejoin:miter;stroke-miterlimit:10;stroke-dasharray:none;stroke-opacity:1"
       transform="matrix(0.95185612,0,0,0.95185612,-375.71788,-1064.6028)"
       clip-path="url(#clipPath20)" />
    <path
       id="path21"
       d="M 402.32999,1177.5 V 1319 c 0,5 2.5,7.5 7.5,7.5 h 145.00003 c 5,0 7.5,-2.5 7.5,-7.5 v -141.5"
       style="fill:none;stroke:#000000;stroke-width:1;stroke-linecap:butt;stroke-linejoin:miter;stroke-miterlimit:10;stroke-dasharray:none;stroke-opacity:1"
       transform="matrix(0.95185612,0,0,0.95185612,-375.71788,-1064.6028)"
       clip-path="url(#clipPath22)" />
    <path
       id="path23"
       d="M 402.32999,1177.5 H 562.33002"
       style="fill:none;stroke:#000000;stroke-width:1;stroke-linecap:butt;stroke-linejoin:miter;stroke-miterlimit:10;stroke-dasharray:none;stroke-opacity:1"
       transform="matrix(0.95185612,0,0,0.95185612,-375.71788,-1064.6028)"
       clip-path="url(#clipPath24)" />
    <text
       id="text24"
       xml:space="preserve"
       transform="matrix(0.95185612,0,0,0.95185612,61.481531,29.555767)"
       clip-path="url(#clipPath25)"><tspan
         id="tspan24"
         style="font-variant:normal;font-weight:normal;font-size:16px;font-family:Arial;writing-mode:lr-tb;fill:#000000;fill-opacity:1;fill-rule:nonzero;stroke:none"
         x="0"
         y="0">«part»</tspan></text>
    <text
       id="text25"
       xml:space="preserve"
       transform="matrix(0.95185612,0,0,0.95185612,65.72027,47.641033)"
       clip-path="url(#clipPath26)"><tspan
         id="tspan25"
         style="font-variant:normal;font-weight:normal;font-size:16px;font-family:Arial;writing-mode:lr-tb;fill:#000000;fill-opacity:1;fill-rule:nonzero;stroke:none"
         x="0"
         y="0">part1</tspan></text>
    <text
       id="text26"
       xml:space="preserve"
       transform="matrix(0.95185612,0,0,0.95185612,59.101891,69.533724)"
       clip-path="url(#clipPath27)"><tspan
         id="tspan26"
         style="font-style:italic;font-variant:normal;font-weight:normal;font-size:12px;font-family:Arial;writing-mode:lr-tb;fill:#000000;fill-opacity:1;fill-rule:nonzero;stroke:none"
         x="0"
         y="0">attributes</tspan></text>
    <text
       id="text27"
       xml:space="preserve"
       transform="matrix(0.95185612,0,0,0.95185612,12.163486,88.570846)"
       clip-path="url(#clipPath28)"><tspan
         id="tspan27"
         style="font-variant:normal;font-weight:normal;font-size:12px;font-family:Arial;writing-mode:lr-tb;fill:#000000;fill-opacity:1;fill-rule:nonzero;stroke:none"
         x="0"
         dx="0 0 0 0 0 0 0 0 0 0 0 0 0 0 -0.66210926"
         y="0">^attribute1 : Attribute1</tspan></text>
    <text
       id="text28"
       xml:space="preserve"
       transform="matrix(0.95185612,0,0,0.95185612,12.163486,108.55982)"
       clip-path="url(#clipPath29)"><tspan
         id="tspan28"
         style="font-variant:normal;font-weight:normal;font-size:12px;font-family:Arial;writing-mode:lr-tb;fill:#000000;fill-opacity:1;fill-rule:nonzero;stroke:none"
         x="0"
         dx="0 0 0 0 0 0 0 0 0 0 0 0 0 -0.6621089"
         y="0">attribute2 : Attribute2</tspan></text>
    <path
       id="path30"
       d="M 402.32999,1240.5 H 562.33002"
       style="fill:none;stroke:#000000;stroke-width:1;stroke-linecap:butt;stroke-linejoin:miter;stroke-miterlimit:10;stroke-dasharray:none;stroke-opacity:1"
       transform="matrix(0.95185612,0,0,0.95185612,-375.71788,-1064.6028)"
       clip-path="url(#clipPath31)" />
    <text
       id="text31"
       xml:space="preserve"
       transform="translate(43.556198,131.87439)"
       clip-path="url(#clipPath32)"><tspan
         id="tspan31"
         style="font-style:italic;font-variant:normal;font-weight:normal;font-size:11.42px;font-family:Arial;writing-mode:lr-tb;fill:#000000;fill-opacity:1;fill-rule:nonzero;stroke:none"
         x="0"
         y="0">perform actions</tspan></text>
    <text
       id="text32"
       xml:space="preserve"
       transform="translate(12.462447,150.90564)"
       clip-path="url(#clipPath33)"><tspan
         id="tspan32"
         style="font-variant:normal;font-weight:normal;font-size:11.42px;font-family:Arial;writing-mode:lr-tb;fill:#000000;fill-opacity:1;fill-rule:nonzero;stroke:none"
         x="0"
         dx="0 0 0 0 0 0 0 0 0 0 0 -0.63011724"
         y="0">^action1 : Action1</tspan></text>
    <path
       id="path34"
       d="M 402.32999,1284.5 H 562.33002"
       style="fill:none;stroke:#000000;stroke-width:1;stroke-linecap:butt;stroke-linejoin:miter;stroke-miterlimit:10;stroke-dasharray:none;stroke-opacity:1"
       transform="matrix(0.95185612,0,0,0.95185612,-375.71788,-1064.6028)"
       clip-path="url(#clipPath35)" />
    <text
       id="text35"
       xml:space="preserve"
       transform="translate(70.212448,173.74939)"
       clip-path="url(#clipPath36)"><tspan
         id="tspan35"
         style="font-style:italic;font-variant:normal;font-weight:normal;font-size:11.42px;font-family:Arial;writing-mode:lr-tb;fill:#000000;fill-opacity:1;fill-rule:nonzero;stroke:none"
         x="0"
         y="0">parts</tspan></text>
    <text
       id="text36"
       xml:space="preserve"
       transform="translate(12.462447,192.79626)"
       clip-path="url(#clipPath37)"><tspan
         id="tspan36"
         style="font-variant:normal;font-weight:normal;font-size:11.42px;font-family:Arial;writing-mode:lr-tb;fill:#000000;fill-opacity:1;fill-rule:nonzero;stroke:none"
         x="0"
         y="0">part2 : Part2 [0..*]</tspan></text>
    <path
       id="path38"
       d="m 562.33002,1149 h 67.88"
       style="fill:none;stroke:#000000;stroke-width:1;stroke-linecap:butt;stroke-linejoin:miter;stroke-miterlimit:10;stroke-dasharray:none;stroke-opacity:1"
       transform="matrix(0.95185612,0,0,0.95185612,-375.71788,-1064.6028)"
       clip-path="url(#clipPath39)" />
    <path
       id="path40"
       d="m 641.21002,1149 -11,5.5 v -11 z"
       style="fill:none;stroke:#000000;stroke-width:1;stroke-linecap:butt;stroke-linejoin:miter;stroke-miterlimit:10;stroke-dasharray:none;stroke-opacity:1"
       transform="matrix(0.95185612,0,0,0.95185612,-375.71788,-1064.6028)"
       clip-path="url(#clipPath41)" />
    <path
       id="path42"
       d="m 627.33002,1145 c -6e-5,0.2651 -0.0508,0.5203 -0.15235,0.7653 -0.1015,0.245 -0.24597,0.4613 -0.43347,0.6489 -0.18756,0.1875 -0.40387,0.332 -0.64886,0.4335 -0.24506,0.1015 -0.50013,0.1523 -0.76532,0.1523 -0.26526,0 -0.52045,-0.051 -0.76551,-0.1523 -0.24505,-0.1015 -0.4613,-0.246 -0.64874,-0.4335 -0.18756,-0.1876 -0.33209,-0.4039 -0.43359,-0.6489 -0.10144,-0.245 -0.15216,-0.5002 -0.15216,-0.7653 0,-0.2653 0.0507,-0.5205 0.15216,-0.7655 0.1015,-0.245 0.24603,-0.4613 0.43359,-0.6488 0.18744,-0.1876 0.40369,-0.3322 0.64874,-0.4336 0.24506,-0.1014 0.50025,-0.1521 0.76551,-0.1521 0.26519,0 0.52026,0.051 0.76526,0.1521 0.24505,0.1014 0.46136,0.246 0.64892,0.4336 0.1875,0.1875 0.33203,0.4038 0.43353,0.6488 0.10151,0.245 0.15223,0.5002 0.15229,0.7655 z"
       style="fill:#000000;fill-opacity:1;fill-rule:nonzero;stroke:none"
       transform="matrix(0.95185612,0,0,0.95185612,-375.71788,-1064.6028)"
       clip-path="url(#clipPath43)" />
    <path
       id="path44"
       d="m 627.33002,1153 c -6e-5,0.2651 -0.0508,0.5203 -0.15235,0.7653 -0.1015,0.245 -0.24597,0.4613 -0.43347,0.6488 -0.18756,0.1875 -0.40387,0.332 -0.64886,0.4334 -0.24506,0.1016 -0.50013,0.1524 -0.76532,0.1525 -0.26526,-10e-5 -0.52045,-0.051 -0.76551,-0.1525 -0.24505,-0.1014 -0.4613,-0.2459 -0.64874,-0.4334 -0.18756,-0.1875 -0.33209,-0.4038 -0.43359,-0.6488 -0.10144,-0.245 -0.15216,-0.5002 -0.15216,-0.7653 0,-0.2653 0.0507,-0.5205 0.15216,-0.7655 0.1015,-0.2451 0.24603,-0.4614 0.43359,-0.6488 0.18744,-0.1875 0.40369,-0.332 0.64874,-0.4336 0.24506,-0.1014 0.50025,-0.1521 0.76551,-0.1521 0.26519,0 0.52026,0.051 0.76526,0.1521 0.24505,0.1016 0.46136,0.2461 0.64892,0.4336 0.1875,0.1874 0.33203,0.4037 0.43353,0.6488 0.10151,0.245 0.15223,0.5002 0.15229,0.7655 z"
       style="fill:#000000;fill-opacity:1;fill-rule:nonzero;stroke:none"
       transform="matrix(0.95185612,0,0,0.95185612,-375.71788,-1064.6028)"
       clip-path="url(#clipPath45)" />
  </g>
</svg>
