<?xml version="1.0" encoding="UTF-8" standalone="no"?>
<!-- Created with Inkscape (http://www.inkscape.org/) -->

<svg
   version="1.1"
   id="svg1"
   width="137.28"
   height="45.439999"
   viewBox="0 0 137.28 45.439999"
   xmlns="http://www.w3.org/2000/svg"
   xmlns:svg="http://www.w3.org/2000/svg">
  <defs
     id="defs1">
    <clipPath
       clipPathUnits="userSpaceOnUse"
       id="clipPath2">
      <path
         d="M 0,0 H 429.00391 V 141.01562 H 0 Z"
         transform="scale(0.31999999)"
         clip-rule="evenodd"
         id="path2" />
    </clipPath>
    <clipPath
       clipPathUnits="userSpaceOnUse"
       id="clipPath4">
      <path
         d="M 3.125,0 H 425 V 141.01562 H 3.125 Z"
         transform="matrix(0.34169299,0,0,0.34169299,356.86437,558.99997)"
         clip-rule="evenodd"
         id="path4" />
    </clipPath>
    <clipPath
       clipPathUnits="userSpaceOnUse"
       id="clipPath5">
      <path
         d="M 3.125,0 H 425 V 141.01562 H 3.125 Z"
         transform="matrix(0.34169299,0,0,0.34169299,-55.60435,-19.500005)"
         clip-rule="evenodd"
         id="path5" />
    </clipPath>
    <clipPath
       clipPathUnits="userSpaceOnUse"
       id="clipPath6">
      <path
         d="M 3.125,0 H 425 V 141.01562 H 3.125 Z"
         transform="matrix(0.34169299,0,0,0.34169299,-9.2918503,-36.500005)"
         clip-rule="evenodd"
         id="path6" />
    </clipPath>
  </defs>
  <g
     id="g1">
    <path
       id="path1"
       d="M 0,0 H 137 V 45 H 0 Z"
       style="fill:#ffffff;fill-opacity:1;fill-rule:nonzero;stroke:none"
       clip-path="url(#clipPath2)" />
    <path
       id="path3"
       d="m 366.75,560 h 126.5 c 0.44321,0 0.88214,0.0432 1.31683,0.12964 0.43467,0.0865 0.85675,0.21454 1.26624,0.38415 0.40945,0.16962 0.79846,0.37757 1.16696,0.62378 0.3685,0.24622 0.70947,0.526 1.02289,0.83942 0.31338,0.31342 0.5932,0.65436 0.83945,1.02289 0.24624,0.36853 0.45416,0.75751 0.62374,1.16699 0.16959,0.40942 0.29764,0.83148 0.38413,1.26624 0.0865,0.43475 0.12973,0.87371 0.12976,1.31689 v 31.5 c -3e-5,0.44318 -0.0433,0.88208 -0.12976,1.31677 -0.0865,0.43463 -0.21454,0.85675 -0.38413,1.26624 -0.16958,0.40948 -0.3775,0.79846 -0.62374,1.16699 -0.24625,0.36847 -0.52607,0.70947 -0.83945,1.02289 -0.31342,0.31341 -0.65439,0.5932 -1.02292,0.83941 -0.3685,0.24628 -0.75748,0.45417 -1.16693,0.62378 -0.40949,0.16962 -0.83157,0.29767 -1.26624,0.38416 -0.43469,0.0865 -0.87362,0.1297 -1.31683,0.12976 h -126.5 c -0.44324,-6e-5 -0.8822,-0.0433 -1.31689,-0.12976 -0.4347,-0.0865 -0.85679,-0.21454 -1.26624,-0.38416 -0.40948,-0.16961 -0.79849,-0.3775 -1.16702,-0.62378 -0.3685,-0.24621 -0.70944,-0.526 -1.02283,-0.83941 -0.31342,-0.31342 -0.59323,-0.65442 -0.83948,-1.02289 -0.24621,-0.36853 -0.45413,-0.75751 -0.62375,-1.16699 -0.16961,-0.40949 -0.29763,-0.83161 -0.38409,-1.26624 C 360.04324,599.13208 360,598.69318 360,598.25 v -31.5 c 0,-0.44318 0.0432,-0.88214 0.1297,-1.31689 0.0865,-0.43476 0.21451,-0.85682 0.38412,-1.26624 0.16959,-0.40948 0.37751,-0.79846 0.62375,-1.16699 0.24622,-0.36853 0.52603,-0.70947 0.83945,-1.02289 0.31339,-0.31342 0.65433,-0.5932 1.02283,-0.83948 0.36853,-0.24615 0.75754,-0.4541 1.16702,-0.62372 0.40945,-0.16961 0.83154,-0.29766 1.26627,-0.38415 C 365.8678,560.04321 366.30676,560 366.75,560 Z"
       style="fill:#ffffff;fill-opacity:1;fill-rule:nonzero;stroke:#000000;stroke-width:1;stroke-linecap:butt;stroke-linejoin:miter;stroke-miterlimit:10;stroke-dasharray:none;stroke-opacity:1"
       transform="matrix(0.93651318,0,0,0.93651318,-334.20819,-523.51084)"
       clip-path="url(#clipPath4)" />
    <text
       id="text4"
       xml:space="preserve"
       transform="matrix(0.93651318,0,0,0.93651318,52.074207,18.262012)"
       clip-path="url(#clipPath5)"><tspan
         id="tspan4"
         style="font-variant:normal;font-weight:normal;font-size:12px;font-family:Arial;writing-mode:lr-tb;fill:#000000;fill-opacity:1;fill-rule:nonzero;stroke:none"
         x="0"
         y="0">«part»</tspan></text>
    <text
       id="text5"
       xml:space="preserve"
       transform="matrix(0.93651318,0,0,0.93651318,8.7019403,34.182736)"
       clip-path="url(#clipPath6)"><tspan
         id="tspan5"
         style="font-variant:normal;font-weight:normal;font-size:12px;font-family:Arial;writing-mode:lr-tb;fill:#000000;fill-opacity:1;fill-rule:nonzero;stroke:none"
         x="0"
         y="0">&lt;'p#2'&gt; part2 : PartDef2</tspan></text>
  </g>
</svg>
