<?xml version="1.0" encoding="UTF-8" standalone="no"?>
<!-- Created with Inkscape (http://www.inkscape.org/) -->

<svg
   version="1.1"
   id="svg1"
   width="155.84"
   height="356.16"
   viewBox="0 0 155.84 356.16"
   xmlns="http://www.w3.org/2000/svg"
   xmlns:svg="http://www.w3.org/2000/svg">
  <defs
     id="defs1">
    <clipPath
       clipPathUnits="userSpaceOnUse"
       id="clipPath2">
      <path
         d="M 0,0 H 488 V 1112.9883 H 0 Z"
         transform="scale(0.31999999)"
         clip-rule="evenodd"
         id="path2" />
    </clipPath>
    <clipPath
       clipPathUnits="userSpaceOnUse"
       id="clipPath4">
      <path
         d="M 3.125,9.375 H 487.5 V 1106.25 H 3.125 Z"
         transform="matrix(0.34064561,0,0,0.34064561,405.86831,5134.742)"
         clip-rule="evenodd"
         id="path4" />
    </clipPath>
    <clipPath
       clipPathUnits="userSpaceOnUse"
       id="clipPath6">
      <path
         d="M 3.125,9.375 H 487.5 V 1106.25 H 3.125 Z"
         transform="matrix(0.34064561,0,0,0.34064561,405.86831,5134.742)"
         clip-rule="evenodd"
         id="path6" />
    </clipPath>
    <clipPath
       clipPathUnits="userSpaceOnUse"
       id="clipPath8">
      <path
         d="M 3.125,9.375 H 487.5 V 1106.25 H 3.125 Z"
         transform="matrix(0.34064561,0,0,0.34064561,405.86831,5134.742)"
         clip-rule="evenodd"
         id="path8" />
    </clipPath>
    <clipPath
       clipPathUnits="userSpaceOnUse"
       id="clipPath9">
      <path
         d="M 3.125,9.375 H 487.5 V 1106.25 H 3.125 Z"
         transform="matrix(0.34064561,0,0,0.34064561,-47.100412,-26.758141)"
         clip-rule="evenodd"
         id="path9" />
    </clipPath>
    <clipPath
       clipPathUnits="userSpaceOnUse"
       id="clipPath10">
      <path
         d="M 3.125,9.375 H 487.5 V 1106.25 H 3.125 Z"
         transform="matrix(0.34064561,0,0,0.34064561,-64.006661,-45.758141)"
         clip-rule="evenodd"
         id="path10" />
    </clipPath>
    <clipPath
       clipPathUnits="userSpaceOnUse"
       id="clipPath11">
      <path
         d="m 169.18359,169.55469 h 146.78015 v 44.03418 H 169.18359 Z"
         transform="matrix(0.34064561,0,0,0.34064561,-57.944161,-68.758141)"
         clip-rule="evenodd"
         id="path11" />
    </clipPath>
    <clipPath
       clipPathUnits="userSpaceOnUse"
       id="clipPath12">
      <path
         d="M 25.339111,231.20215 H 351.19092 v 44.03418 H 25.339111 Z"
         transform="matrix(0.34064561,0,0,0.34064561,-8.631661,-89.758141)"
         clip-rule="evenodd"
         id="path12" />
    </clipPath>
    <clipPath
       clipPathUnits="userSpaceOnUse"
       id="clipPath14">
      <path
         d="M 3.125,9.375 H 487.5 V 1106.25 H 3.125 Z"
         transform="matrix(0.34064561,0,0,0.34064561,405.86831,5134.742)"
         clip-rule="evenodd"
         id="path14" />
    </clipPath>
    <clipPath
       clipPathUnits="userSpaceOnUse"
       id="clipPath15">
      <path
         d="M 19.467896,292.85059 H 465.67945 V 351.5625 H 19.467896 Z"
         transform="matrix(0.31999999,0,0,0.31999999,-38.776176,-107.78816)"
         clip-rule="evenodd"
         id="path15" />
    </clipPath>
    <clipPath
       clipPathUnits="userSpaceOnUse"
       id="clipPath16">
      <path
         d="M 19.467896,351.5625 H 465.67945 v 58.71191 H 19.467896 Z"
         transform="matrix(0.31999999,0,0,0.31999999,-8.1042969,-126.58506)"
         clip-rule="evenodd"
         id="path16" />
    </clipPath>
    <clipPath
       clipPathUnits="userSpaceOnUse"
       id="clipPath18">
      <path
         d="M 3.125,9.375 H 487.5 V 1106.25 H 3.125 Z"
         transform="matrix(0.34064561,0,0,0.34064561,405.86831,5134.742)"
         clip-rule="evenodd"
         id="path18" />
    </clipPath>
    <clipPath
       clipPathUnits="userSpaceOnUse"
       id="clipPath20">
      <path
         d="M 3.125,9.375 H 487.5 V 1106.25 H 3.125 Z"
         transform="matrix(0.34064561,0,0,0.34064561,405.86831,5134.742)"
         clip-rule="evenodd"
         id="path20" />
    </clipPath>
    <clipPath
       clipPathUnits="userSpaceOnUse"
       id="clipPath22">
      <path
         d="M 3.125,9.375 H 487.5 V 1106.25 H 3.125 Z"
         transform="matrix(0.34064561,0,0,0.34064561,405.86831,5134.742)"
         clip-rule="evenodd"
         id="path22" />
    </clipPath>
    <clipPath
       clipPathUnits="userSpaceOnUse"
       id="clipPath23">
      <path
         d="M 3.125,9.375 H 487.5 V 1106.25 H 3.125 Z"
         transform="matrix(0.34064561,0,0,0.34064561,-47.100412,-196.75814)"
         clip-rule="evenodd"
         id="path23" />
    </clipPath>
    <clipPath
       clipPathUnits="userSpaceOnUse"
       id="clipPath24">
      <path
         d="M 3.125,9.375 H 487.5 V 1106.25 H 3.125 Z"
         transform="matrix(0.34064561,0,0,0.34064561,-58.662911,-215.75814)"
         clip-rule="evenodd"
         id="path24" />
    </clipPath>
    <clipPath
       clipPathUnits="userSpaceOnUse"
       id="clipPath26">
      <path
         d="M 3.125,9.375 H 487.5 V 1106.25 H 3.125 Z"
         transform="matrix(0.34064561,0,0,0.34064561,405.86831,5134.742)"
         clip-rule="evenodd"
         id="path26" />
    </clipPath>
    <clipPath
       clipPathUnits="userSpaceOnUse"
       id="clipPath28">
      <path
         d="M 3.125,9.375 H 487.5 V 1106.25 H 3.125 Z"
         transform="matrix(0.34064561,0,0,0.34064561,405.86831,5134.742)"
         clip-rule="evenodd"
         id="path28" />
    </clipPath>
    <clipPath
       clipPathUnits="userSpaceOnUse"
       id="clipPath29">
      <path
         d="M 169.18359,668.60742 H 315.96374 V 712.6416 H 169.18359 Z"
         transform="matrix(0.34064561,0,0,0.34064561,-57.944161,-238.75815)"
         clip-rule="evenodd"
         id="path29" />
    </clipPath>
    <clipPath
       clipPathUnits="userSpaceOnUse"
       id="clipPath30">
      <path
         d="M 25.339111,730.25488 H 365.86902 v 44.03418 H 25.339111 Z"
         transform="matrix(0.34064561,0,0,0.34064561,-8.631661,-259.75814)"
         clip-rule="evenodd"
         id="path30" />
    </clipPath>
    <clipPath
       clipPathUnits="userSpaceOnUse"
       id="clipPath31">
      <path
         d="M 25.339111,788.9668 H 351.19092 v 44.03418 H 25.339111 Z"
         transform="matrix(0.34064561,0,0,0.34064561,-8.631661,-279.75815)"
         clip-rule="evenodd"
         id="path31" />
    </clipPath>
    <clipPath
       clipPathUnits="userSpaceOnUse"
       id="clipPath33">
      <path
         d="M 3.125,9.375 H 487.5 V 1106.25 H 3.125 Z"
         transform="matrix(0.34064561,0,0,0.34064561,405.86831,5134.742)"
         clip-rule="evenodd"
         id="path33" />
    </clipPath>
    <clipPath
       clipPathUnits="userSpaceOnUse"
       id="clipPath34">
      <path
         d="M 19.467896,850.61426 H 465.67945 v 58.71191 H 19.467896 Z"
         transform="matrix(0.31999999,0,0,0.31999999,-38.776176,-286.27255)"
         clip-rule="evenodd"
         id="path34" />
    </clipPath>
    <clipPath
       clipPathUnits="userSpaceOnUse"
       id="clipPath35">
      <path
         d="M 19.467896,909.32617 H 465.67945 v 58.71289 H 19.467896 Z"
         transform="matrix(0.31999999,0,0,0.31999999,-8.1042969,-305.06935)"
         clip-rule="evenodd"
         id="path35" />
    </clipPath>
    <clipPath
       clipPathUnits="userSpaceOnUse"
       id="clipPath37">
      <path
         d="M 3.125,9.375 H 487.5 V 1106.25 H 3.125 Z"
         transform="matrix(0.34064561,0,0,0.34064561,405.86831,5134.742)"
         clip-rule="evenodd"
         id="path37" />
    </clipPath>
    <clipPath
       clipPathUnits="userSpaceOnUse"
       id="clipPath38">
      <path
         d="M 19.467896,979.78125 H 465.67945 v 58.71195 H 19.467896 Z"
         transform="matrix(0.31999999,0,0,0.31999999,-64.151175,-327.61625)"
         clip-rule="evenodd"
         id="path38" />
    </clipPath>
    <clipPath
       clipPathUnits="userSpaceOnUse"
       id="clipPath39">
      <path
         d="M 19.467896,1038.4932 H 465.67945 v 58.7119 H 19.467896 Z"
         transform="matrix(0.31999999,0,0,0.31999999,-8.1042969,-346.39755)"
         clip-rule="evenodd"
         id="path39" />
    </clipPath>
  </defs>
  <g
     id="g1">
    <path
       id="path1"
       d="M 0,0 H 156 V 356 H 0 Z"
       style="fill:#ffffff;fill-opacity:1;fill-rule:nonzero;stroke:none"
       clip-path="url(#clipPath2)" />
    <path
       id="path3"
       d="m 409,5190 v -50 h 160 v 50"
       style="fill:none;stroke:#000000;stroke-width:1;stroke-linecap:butt;stroke-linejoin:miter;stroke-miterlimit:10;stroke-dasharray:none;stroke-opacity:1"
       transform="matrix(0.93939266,0,0,0.93939266,-381.26971,-4823.5389)"
       clip-path="url(#clipPath4)" />
    <path
       id="path5"
       d="m 409,5190 v 85 h 160 v -85"
       style="fill:none;stroke:#000000;stroke-width:1;stroke-linecap:butt;stroke-linejoin:miter;stroke-miterlimit:10;stroke-dasharray:none;stroke-opacity:1"
       transform="matrix(0.93939266,0,0,0.93939266,-381.26971,-4823.5389)"
       clip-path="url(#clipPath6)" />
    <path
       id="path7"
       d="M 409,5190 H 569"
       style="fill:none;stroke:#000000;stroke-width:1;stroke-linecap:butt;stroke-linejoin:miter;stroke-miterlimit:10;stroke-dasharray:none;stroke-opacity:1"
       transform="matrix(0.93939266,0,0,0.93939266,-381.26971,-4823.5389)"
       clip-path="url(#clipPath8)" />
    <text
       id="text8"
       xml:space="preserve"
       transform="matrix(0.93939266,0,0,0.93939266,44.245781,25.136401)"
       clip-path="url(#clipPath9)"><tspan
         id="tspan8"
         style="font-variant:normal;font-weight:normal;font-size:16px;font-family:Arial;writing-mode:lr-tb;fill:#000000;fill-opacity:1;fill-rule:nonzero;stroke:none"
         x="0"
         y="0">«part def»</tspan></text>
    <text
       id="text9"
       xml:space="preserve"
       transform="matrix(0.93939266,0,0,0.93939266,60.127388,42.984862)"
       clip-path="url(#clipPath10)"><tspan
         id="tspan9"
         style="font-variant:normal;font-weight:normal;font-size:16px;font-family:Arial;writing-mode:lr-tb;fill:#000000;fill-opacity:1;fill-rule:nonzero;stroke:none"
         x="0"
         y="0">Part2</tspan></text>
    <text
       id="text10"
       xml:space="preserve"
       transform="matrix(0.93939266,0,0,0.93939266,54.43232,64.590893)"
       clip-path="url(#clipPath11)"><tspan
         id="tspan10"
         style="font-style:italic;font-variant:normal;font-weight:normal;font-size:12px;font-family:Arial;writing-mode:lr-tb;fill:#000000;fill-opacity:1;fill-rule:nonzero;stroke:none"
         x="0"
         y="0">attributes</tspan></text>
    <text
       id="text11"
       xml:space="preserve"
       transform="matrix(0.93939266,0,0,0.93939266,8.108519,84.318139)"
       clip-path="url(#clipPath12)"><tspan
         id="tspan11"
         style="font-variant:normal;font-weight:normal;font-size:12px;font-family:Arial;writing-mode:lr-tb;fill:#000000;fill-opacity:1;fill-rule:nonzero;stroke:none"
         x="0"
         dx="0 0 0 0 0 0 0 0 0 0 0 0 0 -0.6621089"
         y="0">attribute1 : Attribute1</tspan></text>
    <path
       id="path13"
       d="M 409,5233 H 569"
       style="fill:none;stroke:#000000;stroke-width:1;stroke-linecap:butt;stroke-linejoin:miter;stroke-miterlimit:10;stroke-dasharray:none;stroke-opacity:1"
       transform="matrix(0.93939266,0,0,0.93939266,-381.26971,-4823.5389)"
       clip-path="url(#clipPath14)" />
    <text
       id="text14"
       xml:space="preserve"
       transform="translate(38.776176,107.78816)"
       clip-path="url(#clipPath15)"><tspan
         id="tspan14"
         style="font-style:italic;font-variant:normal;font-weight:normal;font-size:11.27px;font-family:Arial;writing-mode:lr-tb;fill:#000000;fill-opacity:1;fill-rule:nonzero;stroke:none"
         x="0"
         y="0">perform actions</tspan></text>
    <text
       id="text15"
       xml:space="preserve"
       transform="translate(8.1042969,126.58506)"
       clip-path="url(#clipPath16)"><tspan
         id="tspan15"
         style="font-variant:normal;font-weight:normal;font-size:11.27px;font-family:Arial;writing-mode:lr-tb;fill:#000000;fill-opacity:1;fill-rule:nonzero;stroke:none"
         x="0"
         dx="0 0 0 0 0 0 0 0 0 0 -0.62182873"
         y="0">action1 : Action1</tspan></text>
    <path
       id="path17"
       d="m 409,5360 v -50 h 160 v 50"
       style="fill:none;stroke:#000000;stroke-width:1;stroke-linecap:butt;stroke-linejoin:miter;stroke-miterlimit:10;stroke-dasharray:none;stroke-opacity:1"
       transform="matrix(0.93939266,0,0,0.93939266,-381.26971,-4823.5389)"
       clip-path="url(#clipPath18)" />
    <path
       id="path19"
       d="m 409,5360 v 149 h 160 v -149"
       style="fill:none;stroke:#000000;stroke-width:1;stroke-linecap:butt;stroke-linejoin:miter;stroke-miterlimit:10;stroke-dasharray:none;stroke-opacity:1"
       transform="matrix(0.93939266,0,0,0.93939266,-381.26971,-4823.5389)"
       clip-path="url(#clipPath20)" />
    <path
       id="path21"
       d="M 409,5360 H 569"
       style="fill:none;stroke:#000000;stroke-width:1;stroke-linecap:butt;stroke-linejoin:miter;stroke-miterlimit:10;stroke-dasharray:none;stroke-opacity:1"
       transform="matrix(0.93939266,0,0,0.93939266,-381.26971,-4823.5389)"
       clip-path="url(#clipPath22)" />
    <text
       id="text22"
       xml:space="preserve"
       transform="matrix(0.93939266,0,0,0.93939266,44.245781,184.83315)"
       clip-path="url(#clipPath23)"><tspan
         id="tspan22"
         style="font-variant:normal;font-weight:normal;font-size:16px;font-family:Arial;writing-mode:lr-tb;fill:#000000;fill-opacity:1;fill-rule:nonzero;stroke:none"
         x="0"
         y="0">«part def»</tspan></text>
    <text
       id="text23"
       xml:space="preserve"
       transform="matrix(0.93939266,0,0,0.93939266,55.107508,202.68161)"
       clip-path="url(#clipPath24)"><tspan
         id="tspan23"
         style="font-variant:normal;font-weight:normal;font-size:16px;font-family:Arial;writing-mode:lr-tb;fill:#000000;fill-opacity:1;fill-rule:nonzero;stroke:none"
         x="0"
         y="0">Part2S</tspan></text>
    <path
       id="path25"
       d="m 489,5310 v -22.8799"
       style="fill:none;stroke:#000000;stroke-width:1;stroke-linecap:butt;stroke-linejoin:miter;stroke-miterlimit:10;stroke-dasharray:none;stroke-opacity:1"
       transform="matrix(0.93939266,0,0,0.93939266,-381.26971,-4823.5389)"
       clip-path="url(#clipPath26)" />
    <path
       id="path27"
       d="m 489,5276.1201 5.5,11 h -11 z"
       style="fill:none;stroke:#000000;stroke-width:1;stroke-linecap:butt;stroke-linejoin:miter;stroke-miterlimit:10;stroke-dasharray:none;stroke-opacity:1"
       transform="matrix(0.93939266,0,0,0.93939266,-381.26971,-4823.5389)"
       clip-path="url(#clipPath28)" />
    <text
       id="text28"
       xml:space="preserve"
       transform="matrix(0.93939266,0,0,0.93939266,54.43232,224.28765)"
       clip-path="url(#clipPath29)"><tspan
         id="tspan28"
         style="font-style:italic;font-variant:normal;font-weight:normal;font-size:12px;font-family:Arial;writing-mode:lr-tb;fill:#000000;fill-opacity:1;fill-rule:nonzero;stroke:none"
         x="0"
         y="0">attributes</tspan></text>
    <text
       id="text29"
       xml:space="preserve"
       transform="matrix(0.93939266,0,0,0.93939266,8.108519,244.01489)"
       clip-path="url(#clipPath30)"><tspan
         id="tspan29"
         style="font-variant:normal;font-weight:normal;font-size:12px;font-family:Arial;writing-mode:lr-tb;fill:#000000;fill-opacity:1;fill-rule:nonzero;stroke:none"
         x="0"
         dx="0 0 0 0 0 0 0 0 0 0 0 0 0 0 -0.66210926"
         y="0">^attribute1 : Attribute1</tspan></text>
    <text
       id="text30"
       xml:space="preserve"
       transform="matrix(0.93939266,0,0,0.93939266,8.108519,262.80275)"
       clip-path="url(#clipPath31)"><tspan
         id="tspan30"
         style="font-variant:normal;font-weight:normal;font-size:12px;font-family:Arial;writing-mode:lr-tb;fill:#000000;fill-opacity:1;fill-rule:nonzero;stroke:none"
         x="0"
         dx="0 0 0 0 0 0 0 0 0 0 0 0 0 -0.6621089"
         y="0">attribute2 : Attribute2</tspan></text>
    <path
       id="path32"
       d="M 409,5423 H 569"
       style="fill:none;stroke:#000000;stroke-width:1;stroke-linecap:butt;stroke-linejoin:miter;stroke-miterlimit:10;stroke-dasharray:none;stroke-opacity:1"
       transform="matrix(0.93939266,0,0,0.93939266,-381.26971,-4823.5389)"
       clip-path="url(#clipPath33)" />
    <text
       id="text33"
       xml:space="preserve"
       transform="translate(38.776176,286.27255)"
       clip-path="url(#clipPath34)"><tspan
         id="tspan33"
         style="font-style:italic;font-variant:normal;font-weight:normal;font-size:11.27px;font-family:Arial;writing-mode:lr-tb;fill:#000000;fill-opacity:1;fill-rule:nonzero;stroke:none"
         x="0"
         y="0">perform actions</tspan></text>
    <text
       id="text34"
       xml:space="preserve"
       transform="translate(8.1042969,305.06935)"
       clip-path="url(#clipPath35)"><tspan
         id="tspan34"
         style="font-variant:normal;font-weight:normal;font-size:11.27px;font-family:Arial;writing-mode:lr-tb;fill:#000000;fill-opacity:1;fill-rule:nonzero;stroke:none"
         x="0"
         dx="0 0 0 0 0 0 0 0 0 0 0 -0.62182873"
         y="0">^action1 : Action1</tspan></text>
    <path
       id="path36"
       d="M 409,5467 H 569"
       style="fill:none;stroke:#000000;stroke-width:1;stroke-linecap:butt;stroke-linejoin:miter;stroke-miterlimit:10;stroke-dasharray:none;stroke-opacity:1"
       transform="matrix(0.93939266,0,0,0.93939266,-381.26971,-4823.5389)"
       clip-path="url(#clipPath37)" />
    <text
       id="text37"
       xml:space="preserve"
       transform="translate(64.151175,327.61625)"
       clip-path="url(#clipPath38)"><tspan
         id="tspan37"
         style="font-style:italic;font-variant:normal;font-weight:normal;font-size:11.27px;font-family:Arial;writing-mode:lr-tb;fill:#000000;fill-opacity:1;fill-rule:nonzero;stroke:none"
         x="0"
         y="0">items</tspan></text>
    <text
       id="text38"
       xml:space="preserve"
       transform="translate(8.1042969,346.39755)"
       clip-path="url(#clipPath39)"><tspan
         id="tspan38"
         style="font-variant:normal;font-weight:normal;font-size:11.27px;font-family:Arial;writing-mode:lr-tb;fill:#000000;fill-opacity:1;fill-rule:nonzero;stroke:none"
         x="0"
         y="0">item1 : Item1 [0..*]</tspan></text>
  </g>
</svg>
