<?xml version="1.0" encoding="UTF-8" standalone="no"?>
<!-- Created with Inkscape (http://www.inkscape.org/) -->

<svg
   version="1.1"
   id="svg1"
   width="145.28"
   height="449.28"
   viewBox="0 0 145.28 449.28"
   xmlns="http://www.w3.org/2000/svg"
   xmlns:svg="http://www.w3.org/2000/svg">
  <defs
     id="defs1">
    <clipPath
       clipPathUnits="userSpaceOnUse"
       id="clipPath2">
      <path
         d="M 0,0 H 452.97852 V 1404.0039 H 0 Z"
         transform="scale(0.31999999)"
         clip-rule="evenodd"
         id="path2" />
    </clipPath>
    <clipPath
       clipPathUnits="userSpaceOnUse"
       id="clipPath4">
      <path
         d="M 3.125,15.625 H 450 V 1387.5 H 3.125 Z"
         transform="matrix(0.34198153,0,0,0.34198153,406.86181,5525.588)"
         clip-rule="evenodd"
         id="path4" />
    </clipPath>
    <clipPath
       clipPathUnits="userSpaceOnUse"
       id="clipPath6">
      <path
         d="M 3.125,15.625 H 450 V 1387.5 H 3.125 Z"
         transform="matrix(0.34198153,0,0,0.34198153,406.86181,5525.588)"
         clip-rule="evenodd"
         id="path6" />
    </clipPath>
    <clipPath
       clipPathUnits="userSpaceOnUse"
       id="clipPath8">
      <path
         d="M 3.125,15.625 H 450 V 1387.5 H 3.125 Z"
         transform="matrix(0.34198153,0,0,0.34198153,406.86181,5525.588)"
         clip-rule="evenodd"
         id="path8" />
    </clipPath>
    <clipPath
       clipPathUnits="userSpaceOnUse"
       id="clipPath9">
      <path
         d="M 3.125,15.625 H 450 V 1387.5 H 3.125 Z"
         transform="matrix(0.34198153,0,0,0.34198153,-54.450711,-28.912058)"
         clip-rule="evenodd"
         id="path9" />
    </clipPath>
    <clipPath
       clipPathUnits="userSpaceOnUse"
       id="clipPath10">
      <path
         d="M 3.125,15.625 H 450 V 1387.5 H 3.125 Z"
         transform="matrix(0.34198153,0,0,0.34198153,-33.122592,-47.912058)"
         clip-rule="evenodd"
         id="path10" />
    </clipPath>
    <clipPath
       clipPathUnits="userSpaceOnUse"
       id="clipPath11">
      <path
         d="m 150.99707,172.2666 h 146.20666 v 43.8623 H 150.99707 Z"
         transform="matrix(0.34198153,0,0,0.34198153,-51.950712,-69.912058)"
         clip-rule="evenodd"
         id="path11" />
    </clipPath>
    <clipPath
       clipPathUnits="userSpaceOnUse"
       id="clipPath12">
      <path
         d="M 25.259277,227.8252 H 364.45886 v 43.86133 H 25.259277 Z"
         transform="matrix(0.34198153,0,0,0.34198153,-8.6382114,-88.912058)"
         clip-rule="evenodd"
         id="path12" />
    </clipPath>
    <clipPath
       clipPathUnits="userSpaceOnUse"
       id="clipPath13">
      <path
         d="M 25.259277,283.38379 H 349.83826 v 43.86133 H 25.259277 Z"
         transform="matrix(0.34198153,0,0,0.34198153,-8.6382114,-107.91206)"
         clip-rule="evenodd"
         id="path13" />
    </clipPath>
    <clipPath
       clipPathUnits="userSpaceOnUse"
       id="clipPath15">
      <path
         d="M 3.125,15.625 H 450 V 1387.5 H 3.125 Z"
         transform="matrix(0.34198153,0,0,0.34198153,406.86181,5525.588)"
         clip-rule="evenodd"
         id="path15" />
    </clipPath>
    <clipPath
       clipPathUnits="userSpaceOnUse"
       id="clipPath16">
      <path
         d="M 19.411011,341.86621 H 428.78979 V 397.4248 H 19.411011 Z"
         transform="matrix(0.31999999,0,0,0.31999999,-33.197161,-122.98685)"
         clip-rule="evenodd"
         id="path16" />
    </clipPath>
    <clipPath
       clipPathUnits="userSpaceOnUse"
       id="clipPath17">
      <path
         d="M 19.411011,397.4248 H 428.78979 v 55.55859 H 19.411011 Z"
         transform="matrix(0.31999999,0,0,0.31999999,-8.0721636,-140.33065)"
         clip-rule="evenodd"
         id="path17" />
    </clipPath>
    <clipPath
       clipPathUnits="userSpaceOnUse"
       id="clipPath19">
      <path
         d="M 3.125,15.625 H 450 V 1387.5 H 3.125 Z"
         transform="matrix(0.34198153,0,0,0.34198153,406.86181,5525.588)"
         clip-rule="evenodd"
         id="path19" />
    </clipPath>
    <clipPath
       clipPathUnits="userSpaceOnUse"
       id="clipPath20">
      <path
         d="M 19.411011,461.75684 H 428.78979 v 55.55859 H 19.411011 Z"
         transform="matrix(0.31999999,0,0,0.31999999,-59.384658,-161.15874)"
         clip-rule="evenodd"
         id="path20" />
    </clipPath>
    <clipPath
       clipPathUnits="userSpaceOnUse"
       id="clipPath21">
      <path
         d="M 19.411011,517.31543 H 428.78979 v 55.55859 H 19.411011 Z"
         transform="matrix(0.31999999,0,0,0.31999999,-8.0721636,-178.51814)"
         clip-rule="evenodd"
         id="path21" />
    </clipPath>
    <clipPath
       clipPathUnits="userSpaceOnUse"
       id="clipPath23">
      <path
         d="M 3.125,15.625 H 450 V 1387.5 H 3.125 Z"
         transform="matrix(0.34198153,0,0,0.34198153,406.86181,5525.588)"
         clip-rule="evenodd"
         id="path23" />
    </clipPath>
    <clipPath
       clipPathUnits="userSpaceOnUse"
       id="clipPath25">
      <path
         d="M 3.125,15.625 H 450 V 1387.5 H 3.125 Z"
         transform="matrix(0.34198153,0,0,0.34198153,406.86181,5525.588)"
         clip-rule="evenodd"
         id="path25" />
    </clipPath>
    <clipPath
       clipPathUnits="userSpaceOnUse"
       id="clipPath27">
      <path
         d="M 3.125,15.625 H 450 V 1387.5 H 3.125 Z"
         transform="matrix(0.34198153,0,0,0.34198153,406.86181,5525.588)"
         clip-rule="evenodd"
         id="path27" />
    </clipPath>
    <clipPath
       clipPathUnits="userSpaceOnUse"
       id="clipPath28">
      <path
         d="M 3.125,15.625 H 450 V 1387.5 H 3.125 Z"
         transform="matrix(0.34198153,0,0,0.34198153,-54.450711,-268.91206)"
         clip-rule="evenodd"
         id="path28" />
    </clipPath>
    <clipPath
       clipPathUnits="userSpaceOnUse"
       id="clipPath29">
      <path
         d="M 3.125,15.625 H 450 V 1387.5 H 3.125 Z"
         transform="matrix(0.34198153,0,0,0.34198153,-53.575711,-287.91206)"
         clip-rule="evenodd"
         id="path29" />
    </clipPath>
    <clipPath
       clipPathUnits="userSpaceOnUse"
       id="clipPath30">
      <path
         d="M 150.99707,874.05957 H 297.20373 V 917.9209 H 150.99707 Z"
         transform="matrix(0.34198153,0,0,0.34198153,-51.950712,-309.91206)"
         clip-rule="evenodd"
         id="path30" />
    </clipPath>
    <clipPath
       clipPathUnits="userSpaceOnUse"
       id="clipPath31">
      <path
         d="M 25.259277,929.61816 H 364.45886 v 43.86133 H 25.259277 Z"
         transform="matrix(0.34198153,0,0,0.34198153,-8.6382114,-328.91206)"
         clip-rule="evenodd"
         id="path31" />
    </clipPath>
    <clipPath
       clipPathUnits="userSpaceOnUse"
       id="clipPath32">
      <path
         d="M 25.259277,985.17676 H 364.45886 v 43.86134 H 25.259277 Z"
         transform="matrix(0.34198153,0,0,0.34198153,-8.6382114,-347.91206)"
         clip-rule="evenodd"
         id="path32" />
    </clipPath>
    <clipPath
       clipPathUnits="userSpaceOnUse"
       id="clipPath33">
      <path
         d="M 25.259277,1040.7354 H 349.83826 v 43.8613 H 25.259277 Z"
         transform="matrix(0.34198153,0,0,0.34198153,-8.6382114,-366.91206)"
         clip-rule="evenodd"
         id="path33" />
    </clipPath>
    <clipPath
       clipPathUnits="userSpaceOnUse"
       id="clipPath35">
      <path
         d="M 3.125,15.625 H 450 V 1387.5 H 3.125 Z"
         transform="matrix(0.34198153,0,0,0.34198153,406.86181,5525.588)"
         clip-rule="evenodd"
         id="path35" />
    </clipPath>
    <clipPath
       clipPathUnits="userSpaceOnUse"
       id="clipPath36">
      <path
         d="M 19.411011,1099.2178 H 428.78979 v 55.5586 H 19.411011 Z"
         transform="matrix(0.31999999,0,0,0.31999999,-33.197161,-364.90872)"
         clip-rule="evenodd"
         id="path36" />
    </clipPath>
    <clipPath
       clipPathUnits="userSpaceOnUse"
       id="clipPath37">
      <path
         d="M 19.411011,1151.8525 H 428.78979 v 55.5586 H 19.411011 Z"
         transform="matrix(0.31999999,0,0,0.31999999,-8.0721636,-382.26812)"
         clip-rule="evenodd"
         id="path37" />
    </clipPath>
    <clipPath
       clipPathUnits="userSpaceOnUse"
       id="clipPath39">
      <path
         d="M 3.125,15.625 H 450 V 1387.5 H 3.125 Z"
         transform="matrix(0.34198153,0,0,0.34198153,406.86181,5525.588)"
         clip-rule="evenodd"
         id="path39" />
    </clipPath>
    <clipPath
       clipPathUnits="userSpaceOnUse"
       id="clipPath40">
      <path
         d="M 19.411011,1219.1065 H 428.78979 v 55.5585 H 19.411011 Z"
         transform="matrix(0.31999999,0,0,0.31999999,-59.384658,-403.08062)"
         clip-rule="evenodd"
         id="path40" />
    </clipPath>
    <clipPath
       clipPathUnits="userSpaceOnUse"
       id="clipPath41">
      <path
         d="M 19.411011,1271.7412 H 428.78979 v 55.5586 H 19.411011 Z"
         transform="matrix(0.31999999,0,0,0.31999999,-8.0721636,-420.43992)"
         clip-rule="evenodd"
         id="path41" />
    </clipPath>
    <clipPath
       clipPathUnits="userSpaceOnUse"
       id="clipPath42">
      <path
         d="M 19.411011,1327.2998 H 428.78979 v 55.5586 H 19.411011 Z"
         transform="matrix(0.31999999,0,0,0.31999999,-8.0721636,-437.78371)"
         clip-rule="evenodd"
         id="path42" />
    </clipPath>
    <clipPath
       clipPathUnits="userSpaceOnUse"
       id="clipPath44">
      <path
         d="M 3.125,15.625 H 450 V 1387.5 H 3.125 Z"
         transform="matrix(0.34198153,0,0,0.34198153,406.86181,5525.588)"
         clip-rule="evenodd"
         id="path44" />
    </clipPath>
    <clipPath
       clipPathUnits="userSpaceOnUse"
       id="clipPath46">
      <path
         d="M 3.125,15.625 H 450 V 1387.5 H 3.125 Z"
         transform="matrix(0.34198153,0,0,0.34198153,406.86181,5525.588)"
         clip-rule="evenodd"
         id="path46" />
    </clipPath>
  </defs>
  <g
     id="g1">
    <path
       id="path1"
       d="M 0,0 H 145 V 449 H 0 Z"
       style="fill:#ffffff;fill-opacity:1;fill-rule:nonzero;stroke:none"
       clip-path="url(#clipPath2)" />
    <path
       id="path3"
       d="m 558.33002,5583 v -42.5 c 0,-5 -2.5,-7.5 -7.5,-7.5 H 417.5 c -5,0 -7.5,2.5 -7.5,7.5 v 42.5"
       style="fill:none;stroke:#000000;stroke-width:1;stroke-linecap:butt;stroke-linejoin:miter;stroke-miterlimit:10;stroke-dasharray:none;stroke-opacity:1"
       transform="matrix(0.935723,0,0,0.935723,-380.70995,-5170.4198)"
       clip-path="url(#clipPath4)" />
    <path
       id="path5"
       d="m 410,5583 v 130.6401 c 0,5 2.5,7.5 7.5,7.5 h 133.33002 c 5,0 7.5,-2.5 7.5,-7.5 V 5583"
       style="fill:none;stroke:#000000;stroke-width:1;stroke-linecap:butt;stroke-linejoin:miter;stroke-miterlimit:10;stroke-dasharray:none;stroke-opacity:1"
       transform="matrix(0.935723,0,0,0.935723,-380.70995,-5170.4198)"
       clip-path="url(#clipPath6)" />
    <path
       id="path7"
       d="M 410,5583 H 558.33002"
       style="fill:none;stroke:#000000;stroke-width:1;stroke-linecap:butt;stroke-linejoin:miter;stroke-miterlimit:10;stroke-dasharray:none;stroke-opacity:1"
       transform="matrix(0.935723,0,0,0.935723,-380.70995,-5170.4198)"
       clip-path="url(#clipPath8)" />
    <text
       id="text8"
       xml:space="preserve"
       transform="matrix(0.935723,0,0,0.935723,50.950783,27.053678)"
       clip-path="url(#clipPath9)"><tspan
         id="tspan8"
         style="font-variant:normal;font-weight:normal;font-size:16px;font-family:Arial;writing-mode:lr-tb;fill:#000000;fill-opacity:1;fill-rule:nonzero;stroke:none"
         x="0"
         y="0">«part»</tspan></text>
    <text
       id="text9"
       xml:space="preserve"
       transform="matrix(0.935723,0,0,0.935723,30.993571,44.832415)"
       clip-path="url(#clipPath10)"><tspan
         id="tspan9"
         style="font-variant:normal;font-weight:normal;font-size:16px;font-family:Arial;writing-mode:lr-tb;fill:#000000;fill-opacity:1;fill-rule:nonzero;stroke:none"
         x="0"
         y="0">part1 : Part1</tspan></text>
    <text
       id="text10"
       xml:space="preserve"
       transform="matrix(0.935723,0,0,0.935723,48.611476,65.418321)"
       clip-path="url(#clipPath11)"><tspan
         id="tspan10"
         style="font-style:italic;font-variant:normal;font-weight:normal;font-size:12px;font-family:Arial;writing-mode:lr-tb;fill:#000000;fill-opacity:1;fill-rule:nonzero;stroke:none"
         x="0"
         y="0">attributes</tspan></text>
    <text
       id="text11"
       xml:space="preserve"
       transform="matrix(0.935723,0,0,0.935723,8.0829731,83.197058)"
       clip-path="url(#clipPath12)"><tspan
         id="tspan11"
         style="font-variant:normal;font-weight:normal;font-size:12px;font-family:Arial;writing-mode:lr-tb;fill:#000000;fill-opacity:1;fill-rule:nonzero;stroke:none"
         x="0"
         dx="0 0 0 0 0 0 0 0 0 0 0 0 0 0 -0.66210926"
         y="0">^attribute1 : Attribute1</tspan></text>
    <text
       id="text12"
       xml:space="preserve"
       transform="matrix(0.935723,0,0,0.935723,8.0829731,100.9758)"
       clip-path="url(#clipPath13)"><tspan
         id="tspan12"
         style="font-variant:normal;font-weight:normal;font-size:12px;font-family:Arial;writing-mode:lr-tb;fill:#000000;fill-opacity:1;fill-rule:nonzero;stroke:none"
         x="0"
         dx="0 0 0 0 0 0 0 0 0 0 0 0 0 -0.6621089"
         y="0">attribute2 : Attribute2</tspan></text>
    <path
       id="path14"
       d="M 410,5641.4102 H 558.33002"
       style="fill:none;stroke:#000000;stroke-width:1;stroke-linecap:butt;stroke-linejoin:miter;stroke-miterlimit:10;stroke-dasharray:none;stroke-opacity:1"
       transform="matrix(0.935723,0,0,0.935723,-380.70995,-5170.4198)"
       clip-path="url(#clipPath15)" />
    <text
       id="text15"
       xml:space="preserve"
       transform="translate(33.197161,122.98685)"
       clip-path="url(#clipPath16)"><tspan
         id="tspan15"
         style="font-style:italic;font-variant:normal;font-weight:normal;font-size:11.22px;font-family:Arial;writing-mode:lr-tb;fill:#000000;fill-opacity:1;fill-rule:nonzero;stroke:none"
         x="0"
         y="0">perform actions</tspan></text>
    <text
       id="text16"
       xml:space="preserve"
       transform="translate(8.0721636,140.33065)"
       clip-path="url(#clipPath17)"><tspan
         id="tspan16"
         style="font-variant:normal;font-weight:normal;font-size:11.22px;font-family:Arial;writing-mode:lr-tb;fill:#000000;fill-opacity:1;fill-rule:nonzero;stroke:none"
         x="0"
         dx="0 0 0 0 0 0 0 0 0 0 0 -0.61907595"
         y="0">^action1 : Action1</tspan></text>
    <path
       id="path18"
       d="M 410,5682.2002 H 558.33002"
       style="fill:none;stroke:#000000;stroke-width:1;stroke-linecap:butt;stroke-linejoin:miter;stroke-miterlimit:10;stroke-dasharray:none;stroke-opacity:1"
       transform="matrix(0.935723,0,0,0.935723,-380.70995,-5170.4198)"
       clip-path="url(#clipPath19)" />
    <text
       id="text19"
       xml:space="preserve"
       transform="translate(59.384658,161.15874)"
       clip-path="url(#clipPath20)"><tspan
         id="tspan19"
         style="font-style:italic;font-variant:normal;font-weight:normal;font-size:11.22px;font-family:Arial;writing-mode:lr-tb;fill:#000000;fill-opacity:1;fill-rule:nonzero;stroke:none"
         x="0"
         y="0">parts</tspan></text>
    <text
       id="text20"
       xml:space="preserve"
       transform="translate(8.0721636,178.51814)"
       clip-path="url(#clipPath21)"><tspan
         id="tspan20"
         style="font-variant:normal;font-weight:normal;font-size:11.22px;font-family:Arial;writing-mode:lr-tb;fill:#000000;fill-opacity:1;fill-rule:nonzero;stroke:none"
         x="0"
         y="0">part2 : Part2 [0..*]</tspan></text>
    <path
       id="path22"
       d="m 558.33002,5823 v -42.5 c 0,-5 -2.5,-7.5 -7.5,-7.5 H 417.5 c -5,0 -7.5,2.5 -7.5,7.5 v 42.5"
       style="fill:none;stroke:#000000;stroke-width:1;stroke-linecap:butt;stroke-linejoin:miter;stroke-miterlimit:10;stroke-dasharray:none;stroke-opacity:1"
       transform="matrix(0.935723,0,0,0.935723,-380.70995,-5170.4198)"
       clip-path="url(#clipPath23)" />
    <path
       id="path24"
       d="m 410,5823 v 167.7202 c 0,5 2.5,7.5 7.5,7.5 h 133.33002 c 5,0 7.5,-2.5 7.5,-7.5 V 5823"
       style="fill:none;stroke:#000000;stroke-width:1;stroke-linecap:butt;stroke-linejoin:miter;stroke-miterlimit:10;stroke-dasharray:none;stroke-opacity:1"
       transform="matrix(0.935723,0,0,0.935723,-380.70995,-5170.4198)"
       clip-path="url(#clipPath25)" />
    <path
       id="path26"
       d="M 410,5823 H 558.33002"
       style="fill:none;stroke:#000000;stroke-width:1;stroke-linecap:butt;stroke-linejoin:miter;stroke-miterlimit:10;stroke-dasharray:none;stroke-opacity:1"
       transform="matrix(0.935723,0,0,0.935723,-380.70995,-5170.4198)"
       clip-path="url(#clipPath27)" />
    <text
       id="text27"
       xml:space="preserve"
       transform="matrix(0.935723,0,0,0.935723,50.950783,251.6272)"
       clip-path="url(#clipPath28)"><tspan
         id="tspan27"
         style="font-variant:normal;font-weight:normal;font-size:16px;font-family:Arial;writing-mode:lr-tb;fill:#000000;fill-opacity:1;fill-rule:nonzero;stroke:none"
         x="0"
         y="0">«part»</tspan></text>
    <text
       id="text28"
       xml:space="preserve"
       transform="matrix(0.935723,0,0,0.935723,50.132025,269.40594)"
       clip-path="url(#clipPath29)"><tspan
         id="tspan28"
         style="font-variant:normal;font-weight:normal;font-size:16px;font-family:Arial;writing-mode:lr-tb;fill:#000000;fill-opacity:1;fill-rule:nonzero;stroke:none"
         x="0"
         y="0">part1S</tspan></text>
    <text
       id="text29"
       xml:space="preserve"
       transform="matrix(0.935723,0,0,0.935723,48.611476,289.99184)"
       clip-path="url(#clipPath30)"><tspan
         id="tspan29"
         style="font-style:italic;font-variant:normal;font-weight:normal;font-size:12px;font-family:Arial;writing-mode:lr-tb;fill:#000000;fill-opacity:1;fill-rule:nonzero;stroke:none"
         x="0"
         y="0">attributes</tspan></text>
    <text
       id="text30"
       xml:space="preserve"
       transform="matrix(0.935723,0,0,0.935723,8.0829731,307.77058)"
       clip-path="url(#clipPath31)"><tspan
         id="tspan30"
         style="font-variant:normal;font-weight:normal;font-size:12px;font-family:Arial;writing-mode:lr-tb;fill:#000000;fill-opacity:1;fill-rule:nonzero;stroke:none"
         x="0"
         dx="0 0 0 0 0 0 0 0 0 0 0 0 0 0 -0.66210926"
         y="0">^attribute1 : Attribute1</tspan></text>
    <text
       id="text31"
       xml:space="preserve"
       transform="matrix(0.935723,0,0,0.935723,8.0829731,325.54932)"
       clip-path="url(#clipPath32)"><tspan
         id="tspan31"
         style="font-variant:normal;font-weight:normal;font-size:12px;font-family:Arial;writing-mode:lr-tb;fill:#000000;fill-opacity:1;fill-rule:nonzero;stroke:none"
         x="0"
         dx="0 0 0 0 0 0 0 0 0 0 0 0 0 0 -0.66210926"
         y="0">^attribute2 : Attribute2</tspan></text>
    <text
       id="text32"
       xml:space="preserve"
       transform="matrix(0.935723,0,0,0.935723,8.0829731,343.32805)"
       clip-path="url(#clipPath33)"><tspan
         id="tspan32"
         style="font-variant:normal;font-weight:normal;font-size:12px;font-family:Arial;writing-mode:lr-tb;fill:#000000;fill-opacity:1;fill-rule:nonzero;stroke:none"
         x="0"
         dx="0 0 0 0 0 0 0 0 0 0 0 0 0 -0.6621089"
         y="0">attribute3 : Attribute3</tspan></text>
    <path
       id="path34"
       d="M 410,5899.9502 H 558.33002"
       style="fill:none;stroke:#000000;stroke-width:1;stroke-linecap:butt;stroke-linejoin:miter;stroke-miterlimit:10;stroke-dasharray:none;stroke-opacity:1"
       transform="matrix(0.935723,0,0,0.935723,-380.70995,-5170.4198)"
       clip-path="url(#clipPath35)" />
    <text
       id="text35"
       xml:space="preserve"
       transform="translate(33.197161,364.90872)"
       clip-path="url(#clipPath36)"><tspan
         id="tspan35"
         style="font-style:italic;font-variant:normal;font-weight:normal;font-size:11.22px;font-family:Arial;writing-mode:lr-tb;fill:#000000;fill-opacity:1;fill-rule:nonzero;stroke:none"
         x="0"
         y="0">perform actions</tspan></text>
    <text
       id="text36"
       xml:space="preserve"
       transform="translate(8.0721636,382.26812)"
       clip-path="url(#clipPath37)"><tspan
         id="tspan36"
         style="font-variant:normal;font-weight:normal;font-size:11.22px;font-family:Arial;writing-mode:lr-tb;fill:#000000;fill-opacity:1;fill-rule:nonzero;stroke:none"
         x="0"
         dx="0 0 0 0 0 0 0 0 0 0 0 -0.61907595"
         y="0">^action1 : Action1</tspan></text>
    <path
       id="path38"
       d="M 410,5940.7402 H 558.33002"
       style="fill:none;stroke:#000000;stroke-width:1;stroke-linecap:butt;stroke-linejoin:miter;stroke-miterlimit:10;stroke-dasharray:none;stroke-opacity:1"
       transform="matrix(0.935723,0,0,0.935723,-380.70995,-5170.4198)"
       clip-path="url(#clipPath39)" />
    <text
       id="text39"
       xml:space="preserve"
       transform="translate(59.384658,403.08062)"
       clip-path="url(#clipPath40)"><tspan
         id="tspan39"
         style="font-style:italic;font-variant:normal;font-weight:normal;font-size:11.22px;font-family:Arial;writing-mode:lr-tb;fill:#000000;fill-opacity:1;fill-rule:nonzero;stroke:none"
         x="0"
         y="0">parts</tspan></text>
    <text
       id="text40"
       xml:space="preserve"
       transform="translate(8.0721636,420.43992)"
       clip-path="url(#clipPath41)"><tspan
         id="tspan40"
         style="font-variant:normal;font-weight:normal;font-size:11.22px;font-family:Arial;writing-mode:lr-tb;fill:#000000;fill-opacity:1;fill-rule:nonzero;stroke:none"
         x="0"
         y="0">^part2 : Part2 [0..*]</tspan></text>
    <text
       id="text41"
       xml:space="preserve"
       transform="translate(8.0721636,437.78371)"
       clip-path="url(#clipPath42)"><tspan
         id="tspan41"
         style="font-variant:normal;font-weight:normal;font-size:11.22px;font-family:Arial;writing-mode:lr-tb;fill:#000000;fill-opacity:1;fill-rule:nonzero;stroke:none"
         x="0"
         y="0">part3 : Part3 [0..*]</tspan></text>
    <path
       id="path43"
       d="m 484.17001,5773 v -39.75"
       style="fill:none;stroke:#000000;stroke-width:1;stroke-linecap:butt;stroke-linejoin:miter;stroke-miterlimit:10;stroke-dasharray:none;stroke-opacity:1"
       transform="matrix(0.935723,0,0,0.935723,-380.70995,-5170.4198)"
       clip-path="url(#clipPath44)" />
    <path
       id="path45"
       d="m 484.17001,5722.25 5.5,11 h -11 z"
       style="fill:none;stroke:#000000;stroke-width:1;stroke-linecap:butt;stroke-linejoin:miter;stroke-miterlimit:10;stroke-dasharray:none;stroke-opacity:1"
       transform="matrix(0.935723,0,0,0.935723,-380.70995,-5170.4198)"
       clip-path="url(#clipPath46)" />
  </g>
</svg>
