<?xml version="1.0" encoding="UTF-8" standalone="no"?>
<!-- Created with Inkscape (http://www.inkscape.org/) -->

<svg
   version="1.1"
   id="svg1"
   width="97.279999"
   height="50.559998"
   viewBox="0 0 97.279999 50.559998"
   xmlns="http://www.w3.org/2000/svg"
   xmlns:svg="http://www.w3.org/2000/svg">
  <defs
     id="defs1">
    <clipPath
       clipPathUnits="userSpaceOnUse"
       id="clipPath2">
      <path
         d="M 0,0 H 305 V 158.98437 H 0 Z"
         transform="scale(0.31999999)"
         clip-rule="evenodd"
         id="path2" />
    </clipPath>
    <clipPath
       clipPathUnits="userSpaceOnUse"
       id="clipPath4">
      <path
         d="m 3.125,0 h 300 v 158.98437 h -300 z"
         transform="matrix(0.3486381,0,0,0.3486381,202.09371,1277.9104)"
         clip-rule="evenodd"
         id="path4" />
    </clipPath>
    <clipPath
       clipPathUnits="userSpaceOnUse"
       id="clipPath5">
      <path
         d="m 3.125,0 h 300 v 158.98437 h -300 z"
         transform="matrix(0.3486381,0,0,0.3486381,-15.703179,-22.589603)"
         clip-rule="evenodd"
         id="path5" />
    </clipPath>
    <clipPath
       clipPathUnits="userSpaceOnUse"
       id="clipPath6">
      <path
         d="m 3.125,0 h 300 v 158.98437 h -300 z"
         transform="matrix(0.3486381,0,0,0.3486381,-13.37505,-39.589603)"
         clip-rule="evenodd"
         id="path6" />
    </clipPath>
  </defs>
  <g
     id="g1">
    <path
       id="path1"
       d="M 0,0 H 98 V 51 H 0 Z"
       style="fill:#ffffff;fill-opacity:1;fill-rule:nonzero;stroke:none"
       clip-path="url(#clipPath2)" />
    <path
       id="path3"
       d="m 212.78,1280 h 85 c 0.49246,0 0.98016,0.048 1.46316,0.144 0.48298,0.096 0.95194,0.2384 1.40693,0.4268 0.45498,0.1884 0.8872,0.4194 1.29666,0.6931 0.40945,0.2736 0.7883,0.5845 1.13653,0.9328 0.34821,0.3481 0.65912,0.7269 0.93271,1.1364 0.27359,0.4095 0.50461,0.8417 0.69309,1.2967 0.18844,0.4549 0.33071,0.9239 0.42681,1.4069 0.096,0.4831 0.14408,0.9708 0.14411,1.4633 v 35 c -3e-5,0.4924 -0.0481,0.9801 -0.14411,1.463 -0.0961,0.483 -0.2384,0.952 -0.42684,1.407 -0.18845,0.455 -0.4195,0.8872 -0.69309,1.2966 -0.27359,0.4096 -0.58447,0.7885 -0.93268,1.1367 -0.34823,0.3483 -0.72708,0.6591 -1.13653,0.9325 -0.40946,0.2736 -0.84168,0.5047 -1.29666,0.6932 -0.45499,0.1884 -0.92395,0.3306 -1.40696,0.4267 -0.48297,0.096 -0.97067,0.1442 -1.46313,0.1443 h -85 c -0.49246,-10e-5 -0.9802,-0.048 -1.4632,-0.1443 -0.48298,-0.096 -0.95198,-0.2383 -1.40695,-0.4267 -0.45497,-0.1885 -0.88719,-0.4195 -1.29666,-0.693 -0.40945,-0.2736 -0.78828,-0.5844 -1.13651,-0.9327 -0.34822,-0.3482 -0.65913,-0.7271 -0.93272,-1.1365 -0.2736,-0.4096 -0.50462,-0.8418 -0.69307,-1.2968 -0.18846,-0.455 -0.33073,-0.924 -0.42682,-1.407 -0.096,-0.4829 -0.14409,-0.9706 -0.14407,-1.463 v -35 c -2e-5,-0.4925 0.048,-0.9802 0.14409,-1.4633 0.0961,-0.483 0.23832,-0.952 0.42679,-1.4069 0.18846,-0.455 0.41948,-0.8872 0.69308,-1.2967 0.27359,-0.4095 0.5845,-0.7883 0.93272,-1.1364 0.34823,-0.3483 0.72706,-0.6592 1.13651,-0.9328 0.40947,-0.2737 0.84169,-0.5047 1.29666,-0.6931 0.45497,-0.1884 0.92397,-0.3307 1.40697,-0.4268 0.48298,-0.096 0.97072,-0.144 1.46318,-0.144 z"
       style="fill:#ffffff;fill-opacity:1;fill-rule:nonzero;stroke:#000000;stroke-width:1;stroke-linecap:butt;stroke-linejoin:miter;stroke-miterlimit:10;stroke-dasharray:none;stroke-opacity:1"
       transform="matrix(0.91785718,0,0,0.91785718,-185.49316,-1172.9392)"
       clip-path="url(#clipPath4)" />
    <g
       id="g4" />
    <text
       id="text4"
       xml:space="preserve"
       transform="matrix(0.91785718,0,0,0.91785718,14.413276,20.734029)"
       clip-path="url(#clipPath5)"><tspan
         id="tspan4"
         style="font-variant:normal;font-weight:normal;font-size:12px;font-family:Arial;writing-mode:lr-tb;fill:#000000;fill-opacity:1;fill-rule:nonzero;stroke:none"
         x="0"
         y="0">«variant part»</tspan></text>
    <text
       id="text5"
       xml:space="preserve"
       transform="matrix(0.91785718,0,0,0.91785718,12.276386,36.337601)"
       clip-path="url(#clipPath6)"><tspan
         id="tspan5"
         style="font-variant:normal;font-weight:normal;font-size:12px;font-family:Arial;writing-mode:lr-tb;fill:#000000;fill-opacity:1;fill-rule:nonzero;stroke:none"
         x="0"
         y="0">part1:PartDef1</tspan></text>
  </g>
</svg>
