<?xml version="1.0" encoding="UTF-8" standalone="no"?>
<!-- Created with Inkscape (http://www.inkscape.org/) -->

<svg
   version="1.1"
   id="svg1"
   width="112"
   height="50.559998"
   viewBox="0 0 112 50.559998"
   xmlns="http://www.w3.org/2000/svg"
   xmlns:svg="http://www.w3.org/2000/svg">
  <defs
     id="defs1">
    <clipPath
       clipPathUnits="userSpaceOnUse"
       id="clipPath2">
      <path
         d="M 0,0 H 350.97656 V 158.98437 H 0 Z"
         transform="scale(0.31999999)"
         clip-rule="evenodd"
         id="path2" />
    </clipPath>
    <clipPath
       clipPathUnits="userSpaceOnUse"
       id="clipPath4">
      <path
         d="m 3.125,0 h 343.75 V 158.98437 H 3.125 Z"
         transform="matrix(0.34661509,0,0,0.34661509,199.60155,1197.9169)"
         clip-rule="evenodd"
         id="path4" />
    </clipPath>
    <clipPath
       clipPathUnits="userSpaceOnUse"
       id="clipPath5">
      <path
         d="m 3.125,0 h 343.75 V 158.98437 H 3.125 Z"
         transform="matrix(0.34661509,0,0,0.34661509,-19.039065,-22.583241)"
         clip-rule="evenodd"
         id="path5" />
    </clipPath>
    <clipPath
       clipPathUnits="userSpaceOnUse"
       id="clipPath6">
      <path
         d="m 3.125,0 h 343.75 V 158.98437 H 3.125 Z"
         transform="matrix(0.34661509,0,0,0.34661509,-18.039064,-39.583241)"
         clip-rule="evenodd"
         id="path6" />
    </clipPath>
  </defs>
  <g
     id="g1">
    <path
       id="path1"
       d="M 0,0 H 112 V 51 H 0 Z"
       style="fill:#ffffff;fill-opacity:1;fill-rule:nonzero;stroke:none"
       clip-path="url(#clipPath2)" />
    <path
       id="path3"
       d="m 210.28,1200 h 100 c 0.49243,0 0.98013,0.048 1.46313,0.144 0.48301,0.096 0.95197,0.2384 1.40696,0.4268 0.45498,0.1884 0.8872,0.4194 1.29666,0.693 0.40945,0.2736 0.7883,0.5845 1.13653,0.9327 0.34821,0.3482 0.65912,0.727 0.93271,1.1365 0.27359,0.4094 0.50464,0.8417 0.69309,1.2966 0.18844,0.455 0.33071,0.9241 0.42678,1.4071 0.0961,0.4831 0.14411,0.9708 0.14414,1.4633 v 35 c -3e-5,0.4924 -0.0481,0.9801 -0.14414,1.4631 -0.0961,0.4829 -0.23837,0.9518 -0.42681,1.4068 -0.18845,0.4549 -0.4195,0.8872 -0.69309,1.2967 -0.27359,0.4096 -0.58447,0.7884 -0.93268,1.1366 -0.34823,0.3483 -0.72708,0.6592 -1.13656,0.9328 -0.40946,0.2735 -0.84165,0.5045 -1.29663,0.693 -0.45499,0.1884 -0.92395,0.3308 -1.40696,0.427 -0.483,0.096 -0.9707,0.144 -1.46313,0.144 h -100 c -0.49246,0 -0.9802,-0.048 -1.4632,-0.144 -0.483,-0.096 -0.95198,-0.2386 -1.40695,-0.427 -0.45497,-0.1885 -0.88719,-0.4195 -1.29666,-0.693 -0.40944,-0.2736 -0.78828,-0.5845 -1.13651,-0.9328 -0.34822,-0.3482 -0.65913,-0.727 -0.93272,-1.1366 -0.2736,-0.4095 -0.50462,-0.8418 -0.69307,-1.2967 -0.18846,-0.455 -0.33073,-0.9239 -0.42679,-1.4068 -0.0961,-0.483 -0.1441,-0.9707 -0.1441,-1.4631 v -35 c 0,-0.4925 0.048,-0.9802 0.14409,-1.4633 0.0961,-0.483 0.23832,-0.9521 0.42679,-1.4071 0.18846,-0.4549 0.41948,-0.8872 0.69308,-1.2966 0.27359,-0.4095 0.5845,-0.7883 0.93272,-1.1365 0.34823,-0.3482 0.72707,-0.6591 1.13652,-0.9327 0.40947,-0.2736 0.84168,-0.5046 1.29665,-0.693 0.45497,-0.1884 0.92395,-0.3307 1.40697,-0.4268 0.48298,-0.096 0.97072,-0.144 1.46318,-0.144 z"
       style="fill:#ffffff;fill-opacity:1;fill-rule:nonzero;stroke:#000000;stroke-width:1;stroke-linecap:butt;stroke-linejoin:miter;stroke-miterlimit:10;stroke-dasharray:none;stroke-opacity:1"
       transform="matrix(0.92321423,0,0,0.92321423,-184.27499,-1105.9339)"
       clip-path="url(#clipPath4)" />
    <g
       id="g4" />
    <text
       id="text4"
       xml:space="preserve"
       transform="matrix(0.92321423,0,0,0.92321423,17.577136,20.849169)"
       clip-path="url(#clipPath5)"><tspan
         id="tspan4"
         style="font-variant:normal;font-weight:normal;font-size:12px;font-family:Arial;writing-mode:lr-tb;fill:#000000;fill-opacity:1;fill-rule:nonzero;stroke:none"
         x="0"
         y="0">«variation part»</tspan></text>
    <text
       id="text5"
       xml:space="preserve"
       transform="matrix(0.92321423,0,0,0.92321423,16.653921,36.543811)"
       clip-path="url(#clipPath6)"><tspan
         id="tspan5"
         style="font-variant:normal;font-weight:normal;font-size:12px;font-family:Arial;writing-mode:lr-tb;fill:#000000;fill-opacity:1;fill-rule:nonzero;stroke:none"
         x="0"
         y="0">part1 : PartDef1</tspan></text>
  </g>
</svg>
