<?xml version="1.0" encoding="UTF-8" standalone="no"?>
<!-- Created with Inkscape (http://www.inkscape.org/) -->

<svg
   version="1.1"
   id="svg1"
   width="145.28"
   height="78.719994"
   viewBox="0 0 145.28 78.719994"
   xmlns="http://www.w3.org/2000/svg"
   xmlns:svg="http://www.w3.org/2000/svg">
  <defs
     id="defs1">
    <clipPath
       clipPathUnits="userSpaceOnUse"
       id="clipPath2">
      <path
         d="M 0,0 H 455 V 245.99609 H 0 Z"
         transform="scale(0.31999999)"
         clip-rule="evenodd"
         id="path2" />
    </clipPath>
    <clipPath
       clipPathUnits="userSpaceOnUse"
       id="clipPath4">
      <path
         d="m 3.125,0 h 450 v 245.99609 h -450 z"
         transform="matrix(0.34348444,0,0,0.34348444,116.84229,6604.9269)"
         clip-rule="evenodd"
         id="path4" />
    </clipPath>
    <clipPath
       clipPathUnits="userSpaceOnUse"
       id="clipPath5">
      <path
         d="m 3.125,0 h 450 v 245.99609 h -450 z"
         transform="matrix(0.34348444,0,0,0.34348444,-44.642089,-17.57329)"
         clip-rule="evenodd"
         id="path5" />
    </clipPath>
    <clipPath
       clipPathUnits="userSpaceOnUse"
       id="clipPath6">
      <path
         d="m 3.125,0 h 450 v 245.99609 h -450 z"
         transform="matrix(0.34348444,0,0,0.34348444,-4.6577143,-37.573289)"
         clip-rule="evenodd"
         id="path6" />
    </clipPath>
    <clipPath
       clipPathUnits="userSpaceOnUse"
       id="clipPath7">
      <path
         d="m 3.125,0 h 450 v 245.99609 h -450 z"
         transform="matrix(0.34348444,0,0,0.34348444,-4.6577143,-51.57329)"
         clip-rule="evenodd"
         id="path7" />
    </clipPath>
    <clipPath
       clipPathUnits="userSpaceOnUse"
       id="clipPath8">
      <path
         d="m 3.125,0 h 450 v 245.99609 h -450 z"
         transform="matrix(0.34348444,0,0,0.34348444,-4.6577143,-66.573289)"
         clip-rule="evenodd"
         id="path8" />
    </clipPath>
  </defs>
  <g
     id="g1">
    <path
       id="path1"
       d="M 0,0 H 146 V 79 H 0 Z"
       style="fill:#ffffff;fill-opacity:1;fill-rule:nonzero;stroke:none"
       clip-path="url(#clipPath2)" />
    <path
       id="path3"
       d="m 120,6607 h 150 v 80 H 120 Z"
       style="fill:#ffffff;fill-opacity:1;fill-rule:nonzero;stroke:#000000;stroke-width:1;stroke-linecap:butt;stroke-linejoin:miter;stroke-miterlimit:10;stroke-dasharray:none;stroke-opacity:1"
       transform="matrix(0.93162876,0,0,0.93162876,-108.85364,-6153.3399)"
       clip-path="url(#clipPath4)" />
    <text
       id="text4"
       xml:space="preserve"
       transform="matrix(0.93162876,0,0,0.93162876,41.589854,16.371782)"
       clip-path="url(#clipPath5)"><tspan
         id="tspan4"
         style="font-style:italic;font-variant:normal;font-weight:normal;font-size:12px;font-family:Arial;writing-mode:lr-tb;fill:#000000;fill-opacity:1;fill-rule:nonzero;stroke:none"
         x="0"
         y="0">variant parts</tspan></text>
    <text
       id="text5"
       xml:space="preserve"
       transform="matrix(0.93162876,0,0,0.93162876,4.3392606,35.004357)"
       clip-path="url(#clipPath6)"><tspan
         id="tspan5"
         style="font-variant:normal;font-weight:normal;font-size:12px;font-family:Arial;writing-mode:lr-tb;fill:#000000;fill-opacity:1;fill-rule:nonzero;stroke:none"
         x="0"
         y="0">part1 : PartDef1</tspan></text>
    <text
       id="text6"
       xml:space="preserve"
       transform="matrix(0.93162876,0,0,0.93162876,4.3392606,48.04716)"
       clip-path="url(#clipPath7)"><tspan
         id="tspan6"
         style="font-variant:normal;font-weight:normal;font-size:12px;font-family:Arial;writing-mode:lr-tb;fill:#000000;fill-opacity:1;fill-rule:nonzero;stroke:none"
         x="0"
         y="0">part2 : PartDef2</tspan></text>
    <text
       id="text7"
       xml:space="preserve"
       transform="matrix(0.93162876,0,0,0.93162876,4.3392606,62.021591)"
       clip-path="url(#clipPath8)"><tspan
         id="tspan7"
         style="font-variant:normal;font-weight:700;font-size:12px;font-family:Arial;writing-mode:lr-tb;fill:#000000;fill-opacity:1;fill-rule:nonzero;stroke:none"
         x="0"
         y="0">...</tspan></text>
  </g>
</svg>
