<?xml version="1.0" encoding="UTF-8" standalone="no"?>
<!-- Created with Inkscape (http://www.inkscape.org/) -->

<svg
   version="1.1"
   id="svg1"
   width="173.44"
   height="104"
   viewBox="0 0 173.44 104"
   xmlns="http://www.w3.org/2000/svg"
   xmlns:svg="http://www.w3.org/2000/svg">
  <defs
     id="defs1">
    <clipPath
       clipPathUnits="userSpaceOnUse"
       id="clipPath2">
      <path
         d="M 0,0 H 543 V 326 H 0 Z"
         transform="scale(0.31999999)"
         clip-rule="evenodd"
         id="path2" />
    </clipPath>
    <clipPath
       clipPathUnits="userSpaceOnUse"
       id="clipPath4">
      <path
         d="m 3.125,0 h 537.5 V 325 H 3.125 Z"
         transform="matrix(0.34180371,0,0,0.34180371,117.3555,4544.9321)"
         clip-rule="evenodd"
         id="path4" />
    </clipPath>
    <clipPath
       clipPathUnits="userSpaceOnUse"
       id="clipPath5">
      <path
         d="m 3.125,0 h 537.5 V 325 H 3.125 Z"
         transform="matrix(0.34180371,0,0,0.34180371,-45.144499,-19.568135)"
         clip-rule="evenodd"
         id="path5" />
    </clipPath>
    <clipPath
       clipPathUnits="userSpaceOnUse"
       id="clipPath6">
      <path
         d="m 3.125,0 h 537.5 V 325 H 3.125 Z"
         transform="matrix(0.34180371,0,0,0.34180371,-48.488249,-19.568135)"
         clip-rule="evenodd"
         id="path6" />
    </clipPath>
    <clipPath
       clipPathUnits="userSpaceOnUse"
       id="clipPath7">
      <path
         d="m 3.125,0 h 537.5 V 325 H 3.125 Z"
         transform="matrix(0.34180371,0,0,0.34180371,-5.144499,-34.568135)"
         clip-rule="evenodd"
         id="path7" />
    </clipPath>
    <clipPath
       clipPathUnits="userSpaceOnUse"
       id="clipPath8">
      <path
         d="m 3.125,0 h 537.5 V 325 H 3.125 Z"
         transform="matrix(0.34180371,0,0,0.34180371,-65.160128,-34.568135)"
         clip-rule="evenodd"
         id="path8" />
    </clipPath>
    <clipPath
       clipPathUnits="userSpaceOnUse"
       id="clipPath9">
      <path
         d="m 3.125,0 h 537.5 V 325 H 3.125 Z"
         transform="matrix(0.34180371,0,0,0.34180371,-5.144499,-51.568135)"
         clip-rule="evenodd"
         id="path9" />
    </clipPath>
    <clipPath
       clipPathUnits="userSpaceOnUse"
       id="clipPath10">
      <path
         d="m 3.125,0 h 537.5 V 325 H 3.125 Z"
         transform="matrix(0.34180371,0,0,0.34180371,-50.503879,-51.568135)"
         clip-rule="evenodd"
         id="path10" />
    </clipPath>
    <clipPath
       clipPathUnits="userSpaceOnUse"
       id="clipPath11">
      <path
         d="m 3.125,0 h 537.5 V 325 H 3.125 Z"
         transform="matrix(0.34180371,0,0,0.34180371,-5.144499,-68.568135)"
         clip-rule="evenodd"
         id="path11" />
    </clipPath>
    <clipPath
       clipPathUnits="userSpaceOnUse"
       id="clipPath12">
      <path
         d="m 3.125,0 h 537.5 V 325 H 3.125 Z"
         transform="matrix(0.34180371,0,0,0.34180371,-65.816379,-68.568135)"
         clip-rule="evenodd"
         id="path12" />
    </clipPath>
    <clipPath
       clipPathUnits="userSpaceOnUse"
       id="clipPath13">
      <path
         d="m 3.125,0 h 537.5 V 325 H 3.125 Z"
         transform="matrix(0.34180371,0,0,0.34180371,-5.144499,-86.568135)"
         clip-rule="evenodd"
         id="path13" />
    </clipPath>
  </defs>
  <g
     id="g1">
    <path
       id="path1"
       d="M 0,0 H 174 V 105 H 0 Z"
       style="fill:#ffffff;fill-opacity:1;fill-rule:nonzero;stroke:none"
       clip-path="url(#clipPath2)" />
    <path
       id="path3"
       d="m 120.5,4547 h 179 v 100 h -179 z"
       style="fill:#ffffff;fill-opacity:1;fill-rule:nonzero;stroke:#000000;stroke-width:1;stroke-linecap:butt;stroke-linejoin:miter;stroke-miterlimit:10;stroke-dasharray:none;stroke-opacity:1"
       transform="matrix(0.93620982,0,0,0.93620982,-109.86937,-4255.0101)"
       clip-path="url(#clipPath4)" />
    <g
       id="g4" />
    <text
       id="text4"
       xml:space="preserve"
       transform="matrix(0.93620982,0,0,0.93620982,42.264723,18.31988)"
       clip-path="url(#clipPath5)"><tspan
         id="tspan4"
         style="font-variant:normal;font-weight:normal;font-size:12px;font-family:Arial;writing-mode:lr-tb;fill:#000000;fill-opacity:1;fill-rule:nonzero;stroke:none"
         x="0"
         y="0"> </tspan></text>
    <text
       id="text5"
       xml:space="preserve"
       transform="matrix(0.93620982,0,0,0.93620982,45.395175,18.31988)"
       clip-path="url(#clipPath6)"><tspan
         id="tspan5"
         style="font-style:italic;font-variant:normal;font-weight:normal;font-size:12px;font-family:Arial;writing-mode:lr-tb;fill:#000000;fill-opacity:1;fill-rule:nonzero;stroke:none"
         x="0"
         y="0">relationships</tspan></text>
    <text
       id="text6"
       xml:space="preserve"
       transform="matrix(0.93620982,0,0,0.93620982,4.8163305,32.363027)"
       clip-path="url(#clipPath7)"><tspan
         id="tspan6"
         style="font-variant:normal;font-weight:700;font-size:12px;font-family:Arial;writing-mode:lr-tb;fill:#000000;fill-opacity:1;fill-rule:nonzero;stroke:none"
         x="0"
         y="0">defined by</tspan></text>
    <text
       id="text7"
       xml:space="preserve"
       transform="matrix(0.93620982,0,0,0.93620982,61.003552,32.363027)"
       clip-path="url(#clipPath8)"><tspan
         id="tspan7"
         style="font-variant:normal;font-weight:normal;font-size:12px;font-family:Arial;writing-mode:lr-tb;fill:#000000;fill-opacity:1;fill-rule:nonzero;stroke:none"
         x="0"
         y="0"> PartDef2</tspan></text>
    <text
       id="text8"
       xml:space="preserve"
       transform="matrix(0.93620982,0,0,0.93620982,4.8163305,48.278594)"
       clip-path="url(#clipPath9)"><tspan
         id="tspan8"
         style="font-variant:normal;font-weight:700;font-size:12px;font-family:Arial;writing-mode:lr-tb;fill:#000000;fill-opacity:1;fill-rule:nonzero;stroke:none"
         x="0"
         y="0">subsets</tspan></text>
    <text
       id="text9"
       xml:space="preserve"
       transform="matrix(0.93620982,0,0,0.93620982,47.282227,48.278594)"
       clip-path="url(#clipPath10)"><tspan
         id="tspan9"
         style="font-variant:normal;font-weight:normal;font-size:12px;font-family:Arial;writing-mode:lr-tb;fill:#000000;fill-opacity:1;fill-rule:nonzero;stroke:none"
         x="0"
         y="0"> part1</tspan></text>
    <text
       id="text10"
       xml:space="preserve"
       transform="matrix(0.93620982,0,0,0.93620982,4.8163305,64.194161)"
       clip-path="url(#clipPath11)"><tspan
         id="tspan10"
         style="font-variant:normal;font-weight:700;font-size:12px;font-family:Arial;writing-mode:lr-tb;fill:#000000;fill-opacity:1;fill-rule:nonzero;stroke:none"
         x="0"
         y="0">connect to</tspan></text>
    <text
       id="text11"
       xml:space="preserve"
       transform="matrix(0.93620982,0,0,0.93620982,61.61794,64.194161)"
       clip-path="url(#clipPath12)"><tspan
         id="tspan11"
         style="font-variant:normal;font-weight:normal;font-size:12px;font-family:Arial;writing-mode:lr-tb;fill:#000000;fill-opacity:1;fill-rule:nonzero;stroke:none"
         x="0"
         y="0"> part3</tspan></text>
    <text
       id="text12"
       xml:space="preserve"
       transform="matrix(0.93620982,0,0,0.93620982,4.8163305,81.045938)"
       clip-path="url(#clipPath13)"><tspan
         id="tspan12"
         style="font-variant:normal;font-weight:700;font-size:14px;font-family:Arial;writing-mode:lr-tb;fill:#000000;fill-opacity:1;fill-rule:nonzero;stroke:none"
         x="0"
         y="0">...</tspan></text>
  </g>
</svg>
