<?xml version="1.0" encoding="UTF-8" standalone="no"?>
<!-- Created with Inkscape (http://www.inkscape.org/) -->

<svg
   version="1.1"
   id="svg1"
   width="182.71999"
   height="46.720001"
   viewBox="0 0 182.71999 46.720001"
   xmlns="http://www.w3.org/2000/svg"
   xmlns:svg="http://www.w3.org/2000/svg">
  <defs
     id="defs1">
    <clipPath
       clipPathUnits="userSpaceOnUse"
       id="clipPath2">
      <path
         d="M 0,0 H 570.01953 V 143.99414 H 0 Z"
         transform="scale(0.31999999)"
         clip-rule="evenodd"
         id="path2" />
    </clipPath>
    <clipPath
       clipPathUnits="userSpaceOnUse"
       id="clipPath4">
      <path
         d="m 3.125,0 h 562.5 V 143.99414 H 3.125 Z"
         transform="matrix(0.34004794,0,0,0.34004794,199.6317,643.00002)"
         clip-rule="evenodd"
         id="path4" />
    </clipPath>
    <clipPath
       clipPathUnits="userSpaceOnUse"
       id="clipPath5">
      <path
         d="m 3.125,0 h 562.5 V 143.99414 H 3.125 Z"
         transform="matrix(0.34004794,0,0,0.34004794,-79.352676,-19.499938)"
         clip-rule="evenodd"
         id="path5" />
    </clipPath>
    <clipPath
       clipPathUnits="userSpaceOnUse"
       id="clipPath6">
      <path
         d="m 3.125,0 h 562.5 V 143.99414 H 3.125 Z"
         transform="matrix(0.34004794,0,0,0.34004794,-19.993296,-36.499938)"
         clip-rule="evenodd"
         id="path6" />
    </clipPath>
  </defs>
  <g
     id="g1">
    <path
       id="path1"
       d="M 0,0 H 182 V 46 H 0 Z"
       style="fill:#ffffff;fill-opacity:1;fill-rule:nonzero;stroke:none"
       clip-path="url(#clipPath2)" />
    <path
       id="path3"
       d="m 209.67999,644 h 173.42002 c 0.45303,0 0.90173,0.0442 1.3461,0.13257 0.44433,0.0884 0.87579,0.21924 1.29434,0.39258 0.41858,0.1734 0.81622,0.38592 1.19293,0.63763 0.37674,0.25171 0.72528,0.53778 1.04565,0.85816 0.32035,0.32037 0.60636,0.66888 0.85807,1.04553 0.25168,0.37677 0.46423,0.77441 0.6376,1.19293 0.1734,0.41858 0.30429,0.85004 0.39267,1.29443 0.0884,0.4444 0.1326,0.89313 0.13263,1.34619 v 32.19996 c -3e-5,0.453 -0.0442,0.90167 -0.13263,1.34606 -0.0884,0.44434 -0.21927,0.8758 -0.39267,1.29438 -0.17337,0.41852 -0.38592,0.81616 -0.63763,1.19293 -0.25168,0.37665 -0.53769,0.72522 -0.85804,1.04559 -0.32037,0.32038 -0.66891,0.60639 -1.04562,0.8581 -0.37674,0.25164 -0.77438,0.46423 -1.19296,0.63763 -0.41855,0.1734 -0.85001,0.30426 -1.29437,0.3927 -0.44434,0.0884 -0.89304,0.13257 -1.34607,0.13263 H 209.67999 c -0.45306,-6e-5 -0.90178,-0.0443 -1.34614,-0.13263 -0.44435,-0.0884 -0.87583,-0.2193 -1.29439,-0.3927 -0.41858,-0.1734 -0.81622,-0.38599 -1.19292,-0.63763 -0.37669,-0.25171 -0.72522,-0.53772 -1.04558,-0.8581 -0.32035,-0.32037 -0.6064,-0.66894 -0.85812,-1.04559 -0.25171,-0.37677 -0.46425,-0.77441 -0.63763,-1.19299 -0.17337,-0.41858 -0.30426,-0.85004 -0.39266,-1.29432 -0.0884,-0.44439 -0.13255,-0.89306 -0.13255,-1.34606 v -32.19996 c 0,-0.45306 0.0442,-0.90179 0.13255,-1.34613 0.0884,-0.44439 0.21929,-0.87585 0.39266,-1.29443 0.17338,-0.41858 0.38592,-0.81622 0.63765,-1.19293 0.2517,-0.37671 0.53775,-0.72522 0.8581,-1.04559 0.32036,-0.32038 0.66889,-0.60645 1.04557,-0.85816 0.37671,-0.25171 0.77435,-0.46423 1.19293,-0.63763 0.41856,-0.17334 0.85004,-0.3042 1.2944,-0.39258 0.44435,-0.0884 0.89307,-0.13257 1.34613,-0.13257 z"
       style="fill:#ffffff;fill-opacity:1;fill-rule:nonzero;stroke:#000000;stroke-width:1;stroke-linecap:butt;stroke-linejoin:miter;stroke-miterlimit:10;stroke-dasharray:none;stroke-opacity:1"
       transform="matrix(0.94104374,0,0,0.94104374,-187.86216,-605.09114)"
       clip-path="url(#clipPath4)" />
    <text
       id="text4"
       xml:space="preserve"
       transform="matrix(0.94104374,0,0,0.94104374,74.674339,18.350295)"
       clip-path="url(#clipPath5)"><tspan
         id="tspan4"
         style="font-variant:normal;font-weight:normal;font-size:12px;font-family:Arial;writing-mode:lr-tb;fill:#000000;fill-opacity:1;fill-rule:nonzero;stroke:none"
         x="0"
         y="0">«part»</tspan></text>
    <text
       id="text5"
       xml:space="preserve"
       transform="matrix(0.94104374,0,0,0.94104374,18.814566,34.348038)"
       clip-path="url(#clipPath6)"><tspan
         id="tspan5"
         style="font-variant:normal;font-weight:normal;font-size:12px;font-family:Arial;writing-mode:lr-tb;fill:#000000;fill-opacity:1;fill-rule:nonzero;stroke:none"
         x="0"
         y="0">part1::part2::part3 : PartDef3</tspan></text>
  </g>
</svg>
