<?xml version="1.0" encoding="UTF-8" standalone="no"?>
<!-- Created with Inkscape (http://www.inkscape.org/) -->

<svg
   version="1.1"
   id="svg1"
   width="145.28"
   height="60.16"
   viewBox="0 0 145.28 60.16"
   xmlns="http://www.w3.org/2000/svg"
   xmlns:svg="http://www.w3.org/2000/svg">
  <defs
     id="defs1">
    <clipPath
       clipPathUnits="userSpaceOnUse"
       id="clipPath2">
      <path
         d="M 0,0 H 455 V 189 H 0 Z"
         transform="scale(0.31999999)"
         clip-rule="evenodd"
         id="path2" />
    </clipPath>
    <clipPath
       clipPathUnits="userSpaceOnUse"
       id="clipPath4">
      <path
         d="m 3.125,0 h 450 v 187.5 h -450 z"
         transform="matrix(0.34343976,0,0,0.34343976,202.1325,911.92673)"
         clip-rule="evenodd"
         id="path4" />
    </clipPath>
    <clipPath
       clipPathUnits="userSpaceOnUse"
       id="clipPath5">
      <path
         d="m 3.125,0 h 450 v 187.5 h -450 z"
         transform="matrix(0.34343976,0,0,0.34343976,-60.351883,-18.573292)"
         clip-rule="evenodd"
         id="path5" />
    </clipPath>
    <clipPath
       clipPathUnits="userSpaceOnUse"
       id="clipPath6">
      <path
         d="m 3.125,0 h 450 v 187.5 h -450 z"
         transform="matrix(0.34343976,0,0,0.34343976,-17.008133,-35.573292)"
         clip-rule="evenodd"
         id="path6" />
    </clipPath>
    <clipPath
       clipPathUnits="userSpaceOnUse"
       id="clipPath7">
      <path
         d="m 3.125,0 h 450 v 187.5 h -450 z"
         transform="matrix(0.34343976,0,0,0.34343976,-39.336253,-52.573291)"
         clip-rule="evenodd"
         id="path7" />
    </clipPath>
    <clipPath
       clipPathUnits="userSpaceOnUse"
       id="clipPath8">
      <path
         d="m 3.125,0 h 450 v 187.5 h -450 z"
         transform="matrix(0.34343976,0,0,0.34343976,-84.695633,-52.573291)"
         clip-rule="evenodd"
         id="path8" />
    </clipPath>
  </defs>
  <g
     id="g1">
    <path
       id="path1"
       d="M 0,0 H 146 V 60 H 0 Z"
       style="fill:#ffffff;fill-opacity:1;fill-rule:nonzero;stroke:none"
       clip-path="url(#clipPath2)" />
    <path
       id="path3"
       d="m 214.28,914 h 132 c 0.59094,0 1.17621,0.0576 1.75577,0.17291 0.57959,0.1153 1.14236,0.28595 1.68832,0.51209 0.54596,0.22613 1.06464,0.50335 1.556,0.83166 0.49136,0.32831 0.94598,0.70142 1.36386,1.11933 0.41785,0.41784 0.79093,0.87243 1.11923,1.3637 0.32831,0.4914 0.60553,1.01008 0.8317,1.55604 0.22613,0.54595 0.39685,1.10876 0.51215,1.68841 0.11529,0.57965 0.17294,1.16492 0.17297,1.75586 v 42 c -3e-5,0.59088 -0.0577,1.17615 -0.17301,1.75574 -0.11526,0.57953 -0.28598,1.14227 -0.51211,1.68823 -0.22617,0.54596 -0.50339,1.06457 -0.8317,1.55591 -0.3283,0.49139 -0.70138,0.94604 -1.11923,1.36395 -0.41788,0.41785 -0.8725,0.79089 -1.36386,1.1192 -0.49136,0.32831 -1.01004,0.60559 -1.556,0.83173 -0.54596,0.22619 -1.10873,0.39691 -1.68832,0.51221 -0.57956,0.11529 -1.16483,0.17297 -1.75577,0.17303 h -132 c -0.59096,-6e-5 -1.17624,-0.0577 -1.75585,-0.17303 -0.5796,-0.1153 -1.14238,-0.28602 -1.68833,-0.51221 -0.54596,-0.22614 -1.06463,-0.50342 -1.55597,-0.83173 -0.49135,-0.32831 -0.94596,-0.70135 -1.36382,-1.1192 -0.41786,-0.41791 -0.79095,-0.87256 -1.11926,-1.36389 -0.32833,-0.49133 -0.60555,-1.00995 -0.8317,-1.55591 -0.22615,-0.54596 -0.39686,-1.10876 -0.51214,-1.68829 -0.1153,-0.57959 -0.17295,-1.16486 -0.17293,-1.75574 v -42 c -2e-5,-0.59094 0.0576,-1.17621 0.17293,-1.75586 0.11528,-0.57965 0.28598,-1.14246 0.51213,-1.68841 0.22615,-0.54596 0.50337,-1.06464 0.83169,-1.55597 0.32833,-0.49134 0.70142,-0.94593 1.11928,-1.36377 0.41786,-0.41791 0.87247,-0.79102 1.36382,-1.11933 0.49134,-0.32831 1.01001,-0.60553 1.55597,-0.83166 0.54595,-0.22614 1.10873,-0.39679 1.68833,-0.51209 C 213.10376,914.05762 213.68904,914 214.28,914 Z"
       style="fill:#ffffff;fill-opacity:1;fill-rule:nonzero;stroke:#000000;stroke-width:1;stroke-linecap:butt;stroke-linejoin:miter;stroke-miterlimit:10;stroke-dasharray:none;stroke-opacity:1"
       transform="matrix(0.93174998,0,0,0.93174998,-188.33695,-849.68771)"
       clip-path="url(#clipPath4)" />
    <text
       id="text4"
       xml:space="preserve"
       transform="matrix(0.93174998,0,0,0.93174998,56.232866,17.305664)"
       clip-path="url(#clipPath5)"><tspan
         id="tspan4"
         style="font-variant:normal;font-weight:normal;font-size:12px;font-family:Arial;writing-mode:lr-tb;fill:#000000;fill-opacity:1;fill-rule:nonzero;stroke:none"
         x="0"
         y="0">«part»</tspan></text>
    <g
       id="g5" />
    <text
       id="text5"
       xml:space="preserve"
       transform="matrix(0.93174998,0,0,0.93174998,15.847328,33.145414)"
       clip-path="url(#clipPath6)"><tspan
         id="tspan5"
         style="font-variant:normal;font-weight:normal;font-size:12px;font-family:Arial;writing-mode:lr-tb;fill:#000000;fill-opacity:1;fill-rule:nonzero;stroke:none"
         x="0"
         y="0">part1S : PartDef1S [m]</tspan></text>
    <text
       id="text6"
       xml:space="preserve"
       transform="matrix(0.93174998,0,0,0.93174998,36.651553,48.985163)"
       clip-path="url(#clipPath7)"><tspan
         id="tspan6"
         style="font-variant:normal;font-weight:700;font-size:12px;font-family:Arial;writing-mode:lr-tb;fill:#000000;fill-opacity:1;fill-rule:nonzero;stroke:none"
         x="0"
         y="0">subsets</tspan></text>
    <g
       id="g7" />
    <text
       id="text7"
       xml:space="preserve"
       transform="matrix(0.93174998,0,0,0.93174998,78.915154,48.985163)"
       clip-path="url(#clipPath8)"><tspan
         id="tspan7"
         style="font-variant:normal;font-weight:normal;font-size:12px;font-family:Arial;writing-mode:lr-tb;fill:#000000;fill-opacity:1;fill-rule:nonzero;stroke:none"
         x="0"
         y="0"> part1</tspan></text>
  </g>
</svg>
