<?xml version="1.0" encoding="UTF-8" standalone="no"?>
<!-- Created with Inkscape (http://www.inkscape.org/) -->

<svg
   version="1.1"
   id="svg1"
   width="201.27998"
   height="89.279999"
   viewBox="0 0 201.27998 89.279999"
   xmlns="http://www.w3.org/2000/svg"
   xmlns:svg="http://www.w3.org/2000/svg">
  <defs
     id="defs1">
    <clipPath
       clipPathUnits="userSpaceOnUse"
       id="clipPath2">
      <path
         d="M 0,0 H 629.98047 V 279.00391 H 0 Z"
         transform="scale(0.31999999)"
         clip-rule="evenodd"
         id="path2" />
    </clipPath>
    <clipPath
       clipPathUnits="userSpaceOnUse"
       id="clipPath4">
      <path
         d="m 3.125,0 h 625 v 278.125 h -625 z"
         transform="matrix(0.33937656,0,0,0.33937656,199.64025,717.93942)"
         clip-rule="evenodd"
         id="path4" />
    </clipPath>
    <clipPath
       clipPathUnits="userSpaceOnUse"
       id="clipPath5">
      <path
         d="m 3.125,0 h 625 v 278.125 h -625 z"
         transform="matrix(0.33937656,0,0,0.33937656,-66.32849,-25.560636)"
         clip-rule="evenodd"
         id="path5" />
    </clipPath>
    <clipPath
       clipPathUnits="userSpaceOnUse"
       id="clipPath6">
      <path
         d="m 3.125,0 h 625 v 278.125 h -625 z"
         transform="matrix(0.33937656,0,0,0.33937656,-63.984739,-42.560637)"
         clip-rule="evenodd"
         id="path6" />
    </clipPath>
    <clipPath
       clipPathUnits="userSpaceOnUse"
       id="clipPath7">
      <path
         d="m 3.125,0 h 625 v 278.125 h -625 z"
         transform="matrix(0.33937656,0,0,0.33937656,-87.328489,-59.560637)"
         clip-rule="evenodd"
         id="path7" />
    </clipPath>
    <clipPath
       clipPathUnits="userSpaceOnUse"
       id="clipPath8">
      <path
         d="m 3.125,0 h 625 v 278.125 h -625 z"
         transform="matrix(0.33937656,0,0,0.33937656,-34.31287,-75.560636)"
         clip-rule="evenodd"
         id="path8" />
    </clipPath>
  </defs>
  <g
     id="g1">
    <path
       id="path1"
       d="M 0,0 H 202 V 89 H 0 Z"
       style="fill:#ffffff;fill-opacity:1;fill-rule:nonzero;stroke:none"
       clip-path="url(#clipPath2)" />
    <path
       id="path3"
       d="M 207.78,720 H 405 c 0.66302,0 1.30081,0.12683 1.91339,0.38055 0.61258,0.25373 1.15329,0.61499 1.62213,1.08393 0.46884,0.46881 0.83011,1.00952 1.08383,1.62201 C 409.87311,723.69904 410,724.33685 410,725 v 80 c 0,0.66302 -0.12686,1.30078 -0.38062,1.91333 -0.25375,0.61255 -0.61502,1.15326 -1.08386,1.62213 -0.46884,0.46881 -1.00955,0.83008 -1.62213,1.0838 C 406.30081,809.87305 405.66302,809.99994 405,810 H 207.78 c -0.66306,-6e-5 -1.30087,-0.12695 -1.91344,-0.38074 -0.61256,-0.25372 -1.15327,-0.61499 -1.6221,-1.0838 -0.46886,-0.46887 -0.83015,-1.00958 -1.08389,-1.62213 C 202.90683,806.30078 202.77998,805.66302 202.78,805 v -80 c -2e-5,-0.66315 0.12683,-1.30096 0.38057,-1.91357 0.25374,-0.61249 0.61503,-1.15314 1.08389,-1.62195 0.46883,-0.46894 1.00954,-0.8302 1.6221,-1.08393 C 206.47913,720.12683 207.11694,720 207.78,720 Z"
       style="fill:#ffffff;fill-opacity:1;fill-rule:nonzero;stroke:#000000;stroke-width:1;stroke-linecap:butt;stroke-linejoin:miter;stroke-miterlimit:10;stroke-dasharray:none;stroke-opacity:1"
       transform="matrix(0.9429054,0,0,0.9429054,-188.24187,-676.94896)"
       clip-path="url(#clipPath4)" />
    <g
       id="g4" />
    <text
       id="text4"
       xml:space="preserve"
       transform="matrix(0.9429054,0,0,0.9429054,62.541491,24.101262)"
       clip-path="url(#clipPath5)"><tspan
         id="tspan4"
         style="font-variant:normal;font-weight:normal;font-size:12px;font-family:Arial;writing-mode:lr-tb;fill:#000000;fill-opacity:1;fill-rule:nonzero;stroke:none"
         x="0"
         y="0">«abstract part»</tspan></text>
    <text
       id="text5"
       xml:space="preserve"
       transform="matrix(0.9429054,0,0,0.9429054,60.331556,40.130654)"
       clip-path="url(#clipPath6)"><tspan
         id="tspan5"
         style="font-variant:normal;font-weight:normal;font-size:12px;font-family:Arial;writing-mode:lr-tb;fill:#000000;fill-opacity:1;fill-rule:nonzero;stroke:none"
         x="0"
         y="0">part1 : PartDef1</tspan></text>
    <text
       id="text6"
       xml:space="preserve"
       transform="matrix(0.9429054,0,0,0.9429054,82.342504,56.160046)"
       clip-path="url(#clipPath7)"><tspan
         id="tspan6"
         style="font-variant:normal;font-weight:normal;font-size:12px;font-family:Arial;writing-mode:lr-tb;fill:#000000;fill-opacity:1;fill-rule:nonzero;stroke:none"
         x="0"
         y="0">«alias»</tspan></text>
    <text
       id="text7"
       xml:space="preserve"
       transform="matrix(0.9429054,0,0,0.9429054,32.35379,71.246532)"
       clip-path="url(#clipPath8)"><tspan
         id="tspan7"
         style="font-variant:normal;font-weight:normal;font-size:12px;font-family:Arial;writing-mode:lr-tb;fill:#000000;fill-opacity:1;fill-rule:nonzero;stroke:none"
         x="0"
         y="0">P::partAlias1, Q::partAlias2</tspan></text>
  </g>
</svg>
