<?xml version="1.0" encoding="UTF-8" standalone="no"?>
<!-- Created with Inkscape (http://www.inkscape.org/) -->

<svg
   version="1.1"
   id="svg1"
   width="145.28"
   height="60.16"
   viewBox="0 0 145.28 60.16"
   xmlns="http://www.w3.org/2000/svg"
   xmlns:svg="http://www.w3.org/2000/svg">
  <defs
     id="defs1">
    <clipPath
       clipPathUnits="userSpaceOnUse"
       id="clipPath2">
      <path
         d="M 0,0 H 455 V 189 H 0 Z"
         transform="scale(0.31999999)"
         clip-rule="evenodd"
         id="path2" />
    </clipPath>
    <clipPath
       clipPathUnits="userSpaceOnUse"
       id="clipPath4">
      <path
         d="m 3.125,0 h 450 v 187.5 h -450 z"
         transform="matrix(0.34343976,0,0,0.34343976,199.63249,1001.9267)"
         clip-rule="evenodd"
         id="path4" />
    </clipPath>
    <clipPath
       clipPathUnits="userSpaceOnUse"
       id="clipPath5">
      <path
         d="m 3.125,0 h 450 v 187.5 h -450 z"
         transform="matrix(0.34343976,0,0,0.34343976,-60.836255,-18.573289)"
         clip-rule="evenodd"
         id="path5" />
    </clipPath>
    <clipPath
       clipPathUnits="userSpaceOnUse"
       id="clipPath6">
      <path
         d="m 3.125,0 h 450 v 187.5 h -450 z"
         transform="matrix(0.34343976,0,0,0.34343976,-18.492505,-35.573289)"
         clip-rule="evenodd"
         id="path6" />
    </clipPath>
    <clipPath
       clipPathUnits="userSpaceOnUse"
       id="clipPath7">
      <path
         d="m 3.125,0 h 450 v 187.5 h -450 z"
         transform="matrix(0.34343976,0,0,0.34343976,-15.320635,-52.573289)"
         clip-rule="evenodd"
         id="path7" />
    </clipPath>
    <clipPath
       clipPathUnits="userSpaceOnUse"
       id="clipPath8">
      <path
         d="m 3.125,0 h 450 v 187.5 h -450 z"
         transform="matrix(0.34343976,0,0,0.34343976,-68.680005,-52.573289)"
         clip-rule="evenodd"
         id="path8" />
    </clipPath>
  </defs>
  <g
     id="g1">
    <path
       id="path1"
       d="M 0,0 H 146 V 60 H 0 Z"
       style="fill:#ffffff;fill-opacity:1;fill-rule:nonzero;stroke:none"
       clip-path="url(#clipPath2)" />
    <path
       id="path3"
       d="m 211.78,1004 h 132 c 0.59097,0 1.17624,0.058 1.7558,0.173 0.57959,0.1152 1.14236,0.2859 1.68829,0.512 0.54599,0.2261 1.06464,0.5034 1.556,0.8317 0.49136,0.3283 0.94598,0.7014 1.36386,1.1193 0.41785,0.4178 0.79093,0.8724 1.11923,1.3638 0.32834,0.4913 0.60556,1.0099 0.83173,1.5559 0.22613,0.546 0.39685,1.1088 0.51212,1.6884 0.11529,0.5796 0.17294,1.1649 0.17297,1.7559 v 42 c -3e-5,0.5909 -0.0577,1.1762 -0.17297,1.7556 -0.11527,0.5797 -0.28599,1.1425 -0.51215,1.6884 -0.22617,0.546 -0.50339,1.0647 -0.8317,1.556 -0.3283,0.4913 -0.70138,0.946 -1.11923,1.3639 -0.41788,0.4178 -0.87247,0.7909 -1.36383,1.1193 -0.49136,0.3282 -1.01004,0.6054 -1.556,0.8316 -0.54596,0.2261 -1.10873,0.3969 -1.68832,0.5122 -0.57956,0.1153 -1.16483,0.1729 -1.7558,0.173 h -132 c -0.59096,-10e-5 -1.17622,-0.058 -1.75581,-0.173 -0.57961,-0.1153 -1.1424,-0.2861 -1.68837,-0.5122 -0.54596,-0.2262 -1.06463,-0.5034 -1.55597,-0.8318 -0.49135,-0.3282 -0.94596,-0.7013 -1.36382,-1.1191 -0.41786,-0.4179 -0.79095,-0.8726 -1.11926,-1.3639 -0.32833,-0.4913 -0.60555,-1.01 -0.8317,-1.556 -0.22615,-0.5459 -0.39686,-1.1087 -0.51214,-1.6884 -0.11528,-0.5794 -0.17293,-1.1647 -0.17293,-1.7556 v -42 c 0,-0.591 0.0576,-1.1763 0.17293,-1.7559 0.11528,-0.5796 0.28598,-1.1423 0.51213,-1.6884 0.22615,-0.5459 0.50337,-1.0646 0.83169,-1.5559 0.32833,-0.4914 0.70142,-0.946 1.11928,-1.3638 0.41786,-0.4179 0.87247,-0.791 1.36382,-1.1193 0.49134,-0.3283 1.01001,-0.6056 1.55597,-0.8317 0.54597,-0.2261 1.10876,-0.3968 1.68837,-0.5121 0.57959,-0.1153 1.16485,-0.1729 1.75581,-0.1729 z"
       style="fill:#ffffff;fill-opacity:1;fill-rule:nonzero;stroke:#000000;stroke-width:1;stroke-linecap:butt;stroke-linejoin:miter;stroke-miterlimit:10;stroke-dasharray:none;stroke-opacity:1"
       transform="matrix(0.93174998,0,0,0.93174998,-186.00757,-933.54521)"
       clip-path="url(#clipPath4)" />
    <text
       id="text4"
       xml:space="preserve"
       transform="matrix(0.93174998,0,0,0.93174998,56.684179,17.305662)"
       clip-path="url(#clipPath5)"><tspan
         id="tspan4"
         style="font-variant:normal;font-weight:normal;font-size:12px;font-family:Arial;writing-mode:lr-tb;fill:#000000;fill-opacity:1;fill-rule:nonzero;stroke:none"
         x="0"
         y="0">«part»</tspan></text>
    <text
       id="text5"
       xml:space="preserve"
       transform="matrix(0.93174998,0,0,0.93174998,17.230391,33.145411)"
       clip-path="url(#clipPath6)"><tspan
         id="tspan5"
         style="font-variant:normal;font-weight:normal;font-size:12px;font-family:Arial;writing-mode:lr-tb;fill:#000000;fill-opacity:1;fill-rule:nonzero;stroke:none"
         x="0"
         y="0">part1R : PartDef1R[m]</tspan></text>
    <text
       id="text6"
       xml:space="preserve"
       transform="matrix(0.93174998,0,0,0.93174998,14.275001,48.985161)"
       clip-path="url(#clipPath7)"><tspan
         id="tspan6"
         style="font-variant:normal;font-weight:700;font-size:12px;font-family:Arial;writing-mode:lr-tb;fill:#000000;fill-opacity:1;fill-rule:nonzero;stroke:none"
         x="0"
         y="0">redefines</tspan></text>
    <g
       id="g7" />
    <text
       id="text7"
       xml:space="preserve"
       transform="matrix(0.93174998,0,0,0.93174998,63.992593,48.985161)"
       clip-path="url(#clipPath8)"><tspan
         id="tspan7"
         style="font-variant:normal;font-weight:normal;font-size:12px;font-family:Arial;writing-mode:lr-tb;fill:#000000;fill-opacity:1;fill-rule:nonzero;stroke:none"
         x="0"
         y="0"> part1 = part2</tspan></text>
  </g>
</svg>
