<?xml version="1.0" encoding="UTF-8" standalone="no"?>
<!-- Created with Inkscape (http://www.inkscape.org/) -->

<svg
   version="1.1"
   id="svg1"
   width="155.84"
   height="137.28"
   viewBox="0 0 155.84 137.28"
   xmlns="http://www.w3.org/2000/svg"
   xmlns:svg="http://www.w3.org/2000/svg">
  <defs
     id="defs1">
    <clipPath
       clipPathUnits="userSpaceOnUse"
       id="clipPath2">
      <path
         d="M 0,0 H 488 V 429.00391 H 0 Z"
         transform="scale(0.31999999)"
         clip-rule="evenodd"
         id="path2" />
    </clipPath>
    <clipPath
       clipPathUnits="userSpaceOnUse"
       id="clipPath4">
      <path
         d="M 3.125,3.125 H 487.5 v 425 H 3.125 Z"
         transform="matrix(0.34065602,0,0,0.34065602,475.86581,2396.8711)"
         clip-rule="evenodd"
         id="path4" />
    </clipPath>
    <clipPath
       clipPathUnits="userSpaceOnUse"
       id="clipPath5">
      <path
         d="M 3.125,3.125 H 487.5 v 425 H 3.125 Z"
         transform="matrix(0.34065602,0,0,0.34065602,-60.446684,-18.629115)"
         clip-rule="evenodd"
         id="path5" />
    </clipPath>
    <clipPath
       clipPathUnits="userSpaceOnUse"
       id="clipPath6">
      <path
         d="M 3.125,3.125 H 487.5 v 425 H 3.125 Z"
         transform="matrix(0.34065602,0,0,0.34065602,-19.102933,-38.629115)"
         clip-rule="evenodd"
         id="path6" />
    </clipPath>
    <clipPath
       clipPathUnits="userSpaceOnUse"
       id="clipPath8">
      <path
         d="M 3.125,3.125 H 487.5 v 425 H 3.125 Z"
         transform="matrix(0.34065602,0,0,0.34065602,475.86581,2396.8711)"
         clip-rule="evenodd"
         id="path8" />
    </clipPath>
    <clipPath
       clipPathUnits="userSpaceOnUse"
       id="clipPath9">
      <path
         d="M 3.125,3.125 H 487.5 v 425 H 3.125 Z"
         transform="matrix(0.34065602,0,0,0.34065602,-60.446684,-118.62912)"
         clip-rule="evenodd"
         id="path9" />
    </clipPath>
    <clipPath
       clipPathUnits="userSpaceOnUse"
       id="clipPath10">
      <path
         d="M 3.125,3.125 H 487.5 v 425 H 3.125 Z"
         transform="matrix(0.34065602,0,0,0.34065602,-20.431063,-138.62911)"
         clip-rule="evenodd"
         id="path10" />
    </clipPath>
    <clipPath
       clipPathUnits="userSpaceOnUse"
       id="clipPath12">
      <path
         d="M 3.125,3.125 H 487.5 v 425 H 3.125 Z"
         transform="matrix(0.34065602,0,0,0.34065602,475.86581,2396.8711)"
         clip-rule="evenodd"
         id="path12" />
    </clipPath>
    <clipPath
       clipPathUnits="userSpaceOnUse"
       id="clipPath14">
      <path
         d="M 3.125,3.125 H 487.5 v 425 H 3.125 Z"
         transform="matrix(0.34065602,0,0,0.34065602,475.86581,2396.8711)"
         clip-rule="evenodd"
         id="path14" />
    </clipPath>
  </defs>
  <g
     id="g1">
    <path
       id="path1"
       d="M 0,0 H 156 V 137 H 0 Z"
       style="fill:#ffffff;fill-opacity:1;fill-rule:nonzero;stroke:none"
       clip-path="url(#clipPath2)" />
    <path
       id="path3"
       d="m 487,2400 h 144 c 0.52533,0 1.04553,0.051 1.56067,0.1536 0.5152,0.1023 1.01538,0.2541 1.50067,0.455 0.48529,0.201 0.94635,0.4476 1.38312,0.7393 0.43677,0.2917 0.84088,0.6235 1.21234,0.9951 0.37146,0.3714 0.70312,0.7754 0.99493,1.2122 0.29181,0.4367 0.53821,0.8979 0.7392,1.383 0.20099,0.4854 0.35278,0.9856 0.45532,1.501 0.10248,0.5154 0.15369,1.0357 0.15375,1.5608 v 24 c -6e-5,0.5251 -0.0513,1.0452 -0.15375,1.5605 -0.10254,0.5152 -0.25433,1.0154 -0.45532,1.5008 -0.20099,0.4853 -0.44739,0.9465 -0.7392,1.3833 -0.29181,0.4367 -0.62347,0.841 -0.99493,1.2124 -0.37146,0.3713 -0.77557,0.7029 -1.21234,0.9946 -0.43677,0.2918 -0.89783,0.5383 -1.38312,0.7393 -0.48529,0.2009 -0.98547,0.3528 -1.50067,0.4553 C 632.04553,2439.9487 631.52533,2440 631,2440 H 487 c -0.5253,0 -1.04556,-0.051 -1.56076,-0.1538 -0.51523,-0.1025 -1.0155,-0.2544 -1.50082,-0.4553 -0.48529,-0.201 -0.94632,-0.4475 -1.38309,-0.7393 -0.43674,-0.2917 -0.84082,-0.6233 -1.21225,-0.9946 -0.37143,-0.3714 -0.7031,-0.7757 -0.99494,-1.2124 -0.29184,-0.4368 -0.53823,-0.898 -0.73922,-1.3833 -0.20102,-0.4854 -0.35279,-0.9856 -0.45523,-1.5008 C 479.05124,2433.0452 479,2432.5251 479,2432 v -24 c 0,-0.5251 0.0512,-1.0454 0.15369,-1.5608 0.10244,-0.5154 0.25421,-1.0156 0.45523,-1.501 0.20099,-0.4851 0.44738,-0.9463 0.73922,-1.383 0.29184,-0.4368 0.62351,-0.8408 0.99494,-1.2122 0.37143,-0.3716 0.77554,-0.7034 1.21231,-0.9951 0.43674,-0.2917 0.89774,-0.5383 1.38306,-0.7393 0.48532,-0.2009 0.98556,-0.3527 1.50079,-0.455 C 485.95444,2400.0513 486.4747,2400 487,2400 Z"
       style="fill:#ffffff;fill-opacity:1;fill-rule:nonzero;stroke:#000000;stroke-width:1;stroke-linecap:butt;stroke-linejoin:miter;stroke-miterlimit:10;stroke-dasharray:none;stroke-opacity:1"
       transform="matrix(0.93936396,0,0,0.93936396,-447.01119,-2251.5343)"
       clip-path="url(#clipPath4)" />
    <text
       id="text4"
       xml:space="preserve"
       transform="matrix(0.93936396,0,0,0.93936396,56.781436,17.499519)"
       clip-path="url(#clipPath5)"><tspan
         id="tspan4"
         style="font-variant:normal;font-weight:normal;font-size:16px;font-family:Arial;writing-mode:lr-tb;fill:#000000;fill-opacity:1;fill-rule:nonzero;stroke:none"
         x="0"
         y="0">«part»</tspan></text>
    <text
       id="text5"
       xml:space="preserve"
       transform="matrix(0.93936396,0,0,0.93936396,17.944607,36.286798)"
       clip-path="url(#clipPath6)"><tspan
         id="tspan5"
         style="font-variant:normal;font-weight:normal;font-size:16px;font-family:Arial;writing-mode:lr-tb;fill:#000000;fill-opacity:1;fill-rule:nonzero;stroke:none"
         x="0"
         y="0">part1 : Part1 [0..1]</tspan></text>
    <path
       id="path7"
       d="m 487,2500 h 144 c 0.52533,0 1.04553,0.051 1.56067,0.1536 0.5152,0.1025 1.01538,0.2544 1.50067,0.4553 0.48529,0.2009 0.94635,0.4475 1.38312,0.7392 0.43677,0.2918 0.84088,0.6236 1.21234,0.9949 0.37146,0.3714 0.70312,0.7757 0.99493,1.2124 0.29181,0.4368 0.53821,0.898 0.7392,1.3831 0.20099,0.4851 0.35278,0.9853 0.45532,1.5007 0.10248,0.5151 0.15369,1.0354 0.15375,1.5608 v 24 c -6e-5,0.5251 -0.0513,1.0454 -0.15375,1.5605 -0.10254,0.5149 -0.25433,1.0152 -0.45532,1.5005 -0.20099,0.4854 -0.44739,0.9463 -0.7392,1.3831 -0.29181,0.4368 -0.62347,0.8411 -0.99493,1.2126 -0.37146,0.3714 -0.77557,0.7029 -1.21234,0.9947 -0.43677,0.2917 -0.89783,0.5383 -1.38312,0.7395 -0.48529,0.2009 -0.98547,0.3525 -1.50067,0.455 -0.51514,0.1026 -1.03534,0.1539 -1.56067,0.1541 H 487 c -0.5253,-2e-4 -1.04556,-0.052 -1.56076,-0.1541 -0.51523,-0.1025 -1.0155,-0.2541 -1.50082,-0.455 -0.48529,-0.2012 -0.94632,-0.4478 -1.38309,-0.7395 -0.43674,-0.2918 -0.84082,-0.6233 -1.21225,-0.9947 -0.37143,-0.3715 -0.7031,-0.7758 -0.99494,-1.2126 -0.29184,-0.4368 -0.53823,-0.8977 -0.73922,-1.3831 -0.20102,-0.4853 -0.35279,-0.9856 -0.45523,-1.5005 C 479.05124,2533.0454 479,2532.5251 479,2532 v -24 c 0,-0.5254 0.0512,-1.0457 0.15369,-1.5608 0.10244,-0.5154 0.25421,-1.0156 0.45523,-1.5007 0.20099,-0.4851 0.44738,-0.9463 0.73922,-1.3831 0.29184,-0.4367 0.62351,-0.841 0.99494,-1.2124 0.37143,-0.3713 0.77554,-0.7031 1.21231,-0.9949 0.43674,-0.2917 0.89774,-0.5383 1.38306,-0.7392 0.48532,-0.2009 0.98556,-0.3528 1.50079,-0.4553 C 485.95444,2500.0513 486.4747,2500 487,2500 Z"
       style="fill:#ffffff;fill-opacity:1;fill-rule:nonzero;stroke:#000000;stroke-width:1;stroke-linecap:butt;stroke-linejoin:miter;stroke-miterlimit:10;stroke-dasharray:none;stroke-opacity:1"
       transform="matrix(0.93936396,0,0,0.93936396,-447.01119,-2251.5343)"
       clip-path="url(#clipPath8)" />
    <text
       id="text8"
       xml:space="preserve"
       transform="matrix(0.93936396,0,0,0.93936396,56.781436,111.43592)"
       clip-path="url(#clipPath9)"><tspan
         id="tspan8"
         style="font-variant:normal;font-weight:normal;font-size:16px;font-family:Arial;writing-mode:lr-tb;fill:#000000;fill-opacity:1;fill-rule:nonzero;stroke:none"
         x="0"
         y="0">«part»</tspan></text>
    <text
       id="text9"
       xml:space="preserve"
       transform="matrix(0.93936396,0,0,0.93936396,19.192204,130.22319)"
       clip-path="url(#clipPath10)"><tspan
         id="tspan9"
         style="font-variant:normal;font-weight:normal;font-size:16px;font-family:Arial;writing-mode:lr-tb;fill:#000000;fill-opacity:1;fill-rule:nonzero;stroke:none"
         x="0"
         y="0">part2 : Part2 [0..*]</tspan></text>
    <path
       id="path11"
       d="M 559,2451.99 V 2500"
       style="fill:none;stroke:#000000;stroke-width:1;stroke-linecap:butt;stroke-linejoin:miter;stroke-miterlimit:10;stroke-dasharray:none;stroke-opacity:1"
       transform="matrix(0.93936396,0,0,0.93936396,-447.01119,-2251.5343)"
       clip-path="url(#clipPath12)" />
    <path
       id="path13"
       d="m 559,2440.99 3.23999,5.5 -3.23999,5.5 -3.23999,-5.5 z"
       style="fill:none;stroke:#000000;stroke-width:1;stroke-linecap:butt;stroke-linejoin:miter;stroke-miterlimit:10;stroke-dasharray:none;stroke-opacity:1"
       transform="matrix(0.93936396,0,0,0.93936396,-447.01119,-2251.5343)"
       clip-path="url(#clipPath14)" />
  </g>
</svg>
