<?xml version="1.0" encoding="UTF-8" standalone="no"?>
<!-- Created with Inkscape (http://www.inkscape.org/) -->

<svg
   version="1.1"
   id="svg1"
   width="386.55997"
   height="137.28"
   viewBox="0 0 386.55997 137.28"
   xmlns="http://www.w3.org/2000/svg"
   xmlns:svg="http://www.w3.org/2000/svg">
  <defs
     id="defs1">
    <clipPath
       clipPathUnits="userSpaceOnUse"
       id="clipPath2">
      <path
         d="M 0,0 H 1208.9844 V 429.00391 H 0 Z"
         transform="scale(0.31999999)"
         clip-rule="evenodd"
         id="path2" />
    </clipPath>
    <clipPath
       clipPathUnits="userSpaceOnUse"
       id="clipPath4">
      <path
         d="M 3.125,0 H 1206.25 V 428.125 H 3.125 Z"
         transform="matrix(0.33625994,0,0,0.33625994,265.88499,4857.9493)"
         clip-rule="evenodd"
         id="path4" />
    </clipPath>
    <clipPath
       clipPathUnits="userSpaceOnUse"
       id="clipPath5">
      <path
         d="M 3.125,0 H 1206.25 V 428.125 H 3.125 Z"
         transform="matrix(0.33625994,0,0,0.33625994,-60.427518,-17.550907)"
         clip-rule="evenodd"
         id="path5" />
    </clipPath>
    <clipPath
       clipPathUnits="userSpaceOnUse"
       id="clipPath6">
      <path
         d="M 3.125,0 H 1206.25 V 428.125 H 3.125 Z"
         transform="matrix(0.33625994,0,0,0.33625994,-20.411898,-37.550907)"
         clip-rule="evenodd"
         id="path6" />
    </clipPath>
    <clipPath
       clipPathUnits="userSpaceOnUse"
       id="clipPath8">
      <path
         d="M 3.125,0 H 1206.25 V 428.125 H 3.125 Z"
         transform="matrix(0.33625994,0,0,0.33625994,265.88499,4857.9493)"
         clip-rule="evenodd"
         id="path8" />
    </clipPath>
    <clipPath
       clipPathUnits="userSpaceOnUse"
       id="clipPath9">
      <path
         d="M 3.125,0 H 1206.25 V 428.125 H 3.125 Z"
         transform="matrix(0.33625994,0,0,0.33625994,-60.427518,-117.55091)"
         clip-rule="evenodd"
         id="path9" />
    </clipPath>
    <clipPath
       clipPathUnits="userSpaceOnUse"
       id="clipPath10">
      <path
         d="M 3.125,0 H 1206.25 V 428.125 H 3.125 Z"
         transform="matrix(0.33625994,0,0,0.33625994,-20.411898,-137.55091)"
         clip-rule="evenodd"
         id="path10" />
    </clipPath>
    <clipPath
       clipPathUnits="userSpaceOnUse"
       id="clipPath12">
      <path
         d="M 3.125,0 H 1206.25 V 428.125 H 3.125 Z"
         transform="matrix(0.33625994,0,0,0.33625994,265.88499,4857.9493)"
         clip-rule="evenodd"
         id="path12" />
    </clipPath>
    <clipPath
       clipPathUnits="userSpaceOnUse"
       id="clipPath14">
      <path
         d="M 3.125,0 H 1206.25 V 428.125 H 3.125 Z"
         transform="matrix(0.33625994,0,0,0.33625994,265.88499,4857.9493)"
         clip-rule="evenodd"
         id="path14" />
    </clipPath>
    <clipPath
       clipPathUnits="userSpaceOnUse"
       id="clipPath16">
      <path
         d="M 3.125,0 H 1206.25 V 428.125 H 3.125 Z"
         transform="matrix(0.33625994,0,0,0.33625994,265.88499,4857.9493)"
         clip-rule="evenodd"
         id="path16" />
    </clipPath>
    <clipPath
       clipPathUnits="userSpaceOnUse"
       id="clipPath17">
      <path
         d="M 3.125,0 H 1206.25 V 428.125 H 3.125 Z"
         transform="matrix(0.33625994,0,0,0.33625994,-300.42751,-17.550907)"
         clip-rule="evenodd"
         id="path17" />
    </clipPath>
    <clipPath
       clipPathUnits="userSpaceOnUse"
       id="clipPath18">
      <path
         d="M 3.125,0 H 1206.25 V 428.125 H 3.125 Z"
         transform="matrix(0.33625994,0,0,0.33625994,-257.30252,-37.550907)"
         clip-rule="evenodd"
         id="path18" />
    </clipPath>
    <clipPath
       clipPathUnits="userSpaceOnUse"
       id="clipPath20">
      <path
         d="M 3.125,0 H 1206.25 V 428.125 H 3.125 Z"
         transform="matrix(0.33625994,0,0,0.33625994,265.88499,4857.9493)"
         clip-rule="evenodd"
         id="path20" />
    </clipPath>
    <clipPath
       clipPathUnits="userSpaceOnUse"
       id="clipPath21">
      <path
         d="M 3.125,0 H 1206.25 V 428.125 H 3.125 Z"
         transform="matrix(0.33625994,0,0,0.33625994,-300.42751,-117.55091)"
         clip-rule="evenodd"
         id="path21" />
    </clipPath>
    <clipPath
       clipPathUnits="userSpaceOnUse"
       id="clipPath22">
      <path
         d="M 3.125,0 H 1206.25 V 428.125 H 3.125 Z"
         transform="matrix(0.33625994,0,0,0.33625994,-267.5369,-137.55091)"
         clip-rule="evenodd"
         id="path22" />
    </clipPath>
    <clipPath
       clipPathUnits="userSpaceOnUse"
       id="clipPath24">
      <path
         d="M 3.125,0 H 1206.25 V 428.125 H 3.125 Z"
         transform="matrix(0.33625994,0,0,0.33625994,265.88499,4857.9493)"
         clip-rule="evenodd"
         id="path24" />
    </clipPath>
    <clipPath
       clipPathUnits="userSpaceOnUse"
       id="clipPath26">
      <path
         d="M 3.125,0 H 1206.25 V 428.125 H 3.125 Z"
         transform="matrix(0.33625994,0,0,0.33625994,265.88499,4857.9493)"
         clip-rule="evenodd"
         id="path26" />
    </clipPath>
    <clipPath
       clipPathUnits="userSpaceOnUse"
       id="clipPath28">
      <path
         d="M 3.125,0 H 1206.25 V 428.125 H 3.125 Z"
         transform="matrix(0.33625994,0,0,0.33625994,265.88499,4857.9493)"
         clip-rule="evenodd"
         id="path28" />
    </clipPath>
    <clipPath
       clipPathUnits="userSpaceOnUse"
       id="clipPath30">
      <path
         d="M 3.125,0 H 1206.25 V 428.125 H 3.125 Z"
         transform="matrix(0.33625994,0,0,0.33625994,265.88499,4857.9493)"
         clip-rule="evenodd"
         id="path30" />
    </clipPath>
    <clipPath
       clipPathUnits="userSpaceOnUse"
       id="clipPath32">
      <path
         d="M 3.125,0 H 1206.25 V 428.125 H 3.125 Z"
         transform="matrix(0.33625994,0,0,0.33625994,265.88499,4857.9493)"
         clip-rule="evenodd"
         id="path32" />
    </clipPath>
    <clipPath
       clipPathUnits="userSpaceOnUse"
       id="clipPath34">
      <path
         d="M 3.125,0 H 1206.25 V 428.125 H 3.125 Z"
         transform="matrix(0.33625994,0,0,0.33625994,265.88499,4857.9493)"
         clip-rule="evenodd"
         id="path34" />
    </clipPath>
    <clipPath
       clipPathUnits="userSpaceOnUse"
       id="clipPath36">
      <path
         d="M 3.125,0 H 1206.25 V 428.125 H 3.125 Z"
         transform="matrix(0.33625994,0,0,0.33625994,265.88499,4857.9493)"
         clip-rule="evenodd"
         id="path36" />
    </clipPath>
  </defs>
  <g
     id="g1">
    <path
       id="path1"
       d="M 0,0 H 387 V 137 H 0 Z"
       style="fill:#ffffff;fill-opacity:1;fill-rule:nonzero;stroke:none"
       clip-path="url(#clipPath2)" />
    <path
       id="path3"
       d="m 277,4860 h 144 c 0.52527,5e-4 1.0455,0.052 1.5607,0.1538 0.51517,0.1025 1.01541,0.2544 1.50073,0.4551 0.48529,0.2007 0.94632,0.4473 1.38312,0.7392 0.43674,0.2915 0.84085,0.6231 1.21228,0.9947 0.37143,0.3716 0.70303,0.7754 0.99484,1.2119 0.29184,0.4365 0.53827,0.8974 0.73932,1.3828 0.20102,0.4858 0.35275,0.9863 0.45526,1.5015 0.10248,0.5151 0.15372,1.0356 0.15375,1.561 v 24 c -3e-5,0.5254 -0.0513,1.0454 -0.15375,1.5605 -0.10251,0.5152 -0.25424,1.0152 -0.45526,1.5005 -0.20105,0.4854 -0.44748,0.9463 -0.73929,1.3833 -0.29184,0.437 -0.62344,0.8409 -0.99487,1.2124 -0.37143,0.3711 -0.77554,0.7027 -1.21231,0.9947 -0.4368,0.2915 -0.89783,0.5381 -1.38312,0.7392 -0.48529,0.2012 -0.98553,0.3531 -1.5007,0.4556 C 422.0455,4899.9487 421.52527,4900 421,4900 H 277 c -0.5253,0 -1.04556,-0.051 -1.56076,-0.1538 -0.51517,-0.1025 -1.01541,-0.2544 -1.50073,-0.4556 -0.48532,-0.2011 -0.94635,-0.4477 -1.38309,-0.7392 -0.43677,-0.292 -0.84085,-0.6236 -1.21228,-0.9947 -0.37143,-0.3715 -0.70306,-0.7754 -0.9949,-1.2124 -0.29184,-0.437 -0.53827,-0.8979 -0.73929,-1.3833 -0.20102,-0.4853 -0.35275,-0.9853 -0.45523,-1.5005 C 269.05124,4893.0454 269,4892.5254 269,4892 v -24 c 0,-0.5254 0.0512,-1.0459 0.15372,-1.561 0.10248,-0.5152 0.25421,-1.0157 0.45523,-1.5015 0.20102,-0.4854 0.44745,-0.9463 0.73929,-1.3828 0.29184,-0.4365 0.62347,-0.8403 0.9949,-1.2119 0.37143,-0.3716 0.77551,-0.7032 1.21228,-0.9951 0.43674,-0.2915 0.89777,-0.5381 1.38309,-0.7388 0.48532,-0.2007 0.98556,-0.3526 1.50073,-0.4551 0.5152,-0.102 1.03546,-0.1533 1.56076,-0.1538 z"
       style="fill:#ffffff;fill-opacity:1;fill-rule:nonzero;stroke:#000000;stroke-width:1;stroke-linecap:butt;stroke-linejoin:miter;stroke-miterlimit:10;stroke-dasharray:none;stroke-opacity:1"
       transform="matrix(0.9516447,0,0,0.9516447,-253.02804,-4623.0417)"
       clip-path="url(#clipPath4)" />
    <text
       id="text4"
       xml:space="preserve"
       transform="matrix(0.9516447,0,0,0.9516447,57.505527,16.702228)"
       clip-path="url(#clipPath5)"><tspan
         id="tspan4"
         style="font-variant:normal;font-weight:normal;font-size:16px;font-family:Arial;writing-mode:lr-tb;fill:#000000;fill-opacity:1;fill-rule:nonzero;stroke:none"
         x="0"
         y="0">«part»</tspan></text>
    <text
       id="text5"
       xml:space="preserve"
       transform="matrix(0.9516447,0,0,0.9516447,19.424875,35.735122)"
       clip-path="url(#clipPath6)"><tspan
         id="tspan5"
         style="font-variant:normal;font-weight:normal;font-size:16px;font-family:Arial;writing-mode:lr-tb;fill:#000000;fill-opacity:1;fill-rule:nonzero;stroke:none"
         x="0"
         y="0">part1 : Part1 [0..*]</tspan></text>
    <path
       id="path7"
       d="m 277,4960 h 144 c 0.52527,0 1.0455,0.051 1.5607,0.1538 0.51517,0.1021 1.01541,0.2539 1.50073,0.4546 0.48529,0.2012 0.94632,0.4478 1.38312,0.7397 0.43674,0.2915 0.84085,0.6236 1.21228,0.9952 0.37143,0.3711 0.70303,0.7749 0.99484,1.2114 0.29184,0.437 0.53827,0.8979 0.73932,1.3833 0.20102,0.4853 0.35275,0.9858 0.45526,1.501 0.10248,0.5151 0.15372,1.0356 0.15375,1.561 v 24 c -3e-5,0.5249 -0.0513,1.0449 -0.15375,1.5601 -0.10251,0.5151 -0.25424,1.0156 -0.45526,1.5009 -0.20105,0.4854 -0.44748,0.9463 -0.73929,1.3828 -0.29184,0.4371 -0.62344,0.8414 -0.99487,1.2129 -0.37143,0.3716 -0.77554,0.7032 -1.21231,0.9952 -0.4368,0.2915 -0.89783,0.538 -1.38312,0.7387 -0.48529,0.2012 -0.98553,0.3531 -1.5007,0.4556 C 422.0455,4999.9487 421.52527,5000 421,5000 H 277 c -0.5253,0 -1.04556,-0.051 -1.56076,-0.1538 -0.51517,-0.1025 -1.01541,-0.2544 -1.50073,-0.4556 -0.48532,-0.2007 -0.94635,-0.4472 -1.38309,-0.7387 -0.43677,-0.292 -0.84085,-0.6236 -1.21228,-0.9952 -0.37143,-0.3715 -0.70306,-0.7758 -0.9949,-1.2129 -0.29184,-0.4365 -0.53827,-0.8974 -0.73929,-1.3828 -0.20102,-0.4853 -0.35275,-0.9858 -0.45523,-1.5009 C 269.05124,4993.0449 269,4992.5249 269,4992 v -24 c 0,-0.5254 0.0512,-1.0459 0.15372,-1.561 0.10248,-0.5152 0.25421,-1.0157 0.45523,-1.501 0.20102,-0.4854 0.44745,-0.9463 0.73929,-1.3828 0.29184,-0.437 0.62347,-0.8408 0.9949,-1.2119 0.37143,-0.3716 0.77551,-0.7037 1.21228,-0.9952 0.43674,-0.2919 0.89777,-0.5385 1.38309,-0.7397 0.48532,-0.2007 0.98556,-0.3525 1.50073,-0.4546 C 275.95444,4960.0513 276.4747,4960 277,4960 Z"
       style="fill:#ffffff;fill-opacity:1;fill-rule:nonzero;stroke:#000000;stroke-width:1;stroke-linecap:butt;stroke-linejoin:miter;stroke-miterlimit:10;stroke-dasharray:none;stroke-opacity:1"
       transform="matrix(0.9516447,0,0,0.9516447,-253.02804,-4623.0417)"
       clip-path="url(#clipPath8)" />
    <text
       id="text8"
       xml:space="preserve"
       transform="matrix(0.9516447,0,0,0.9516447,57.505527,111.8667)"
       clip-path="url(#clipPath9)"><tspan
         id="tspan8"
         style="font-variant:normal;font-weight:normal;font-size:16px;font-family:Arial;writing-mode:lr-tb;fill:#000000;fill-opacity:1;fill-rule:nonzero;stroke:none"
         x="0"
         y="0">«part»</tspan></text>
    <text
       id="text9"
       xml:space="preserve"
       transform="matrix(0.9516447,0,0,0.9516447,19.424875,130.89959)"
       clip-path="url(#clipPath10)"><tspan
         id="tspan9"
         style="font-variant:normal;font-weight:normal;font-size:16px;font-family:Arial;writing-mode:lr-tb;fill:#000000;fill-opacity:1;fill-rule:nonzero;stroke:none"
         x="0"
         y="0">part2 : Part2 [0..*]</tspan></text>
    <path
       id="path11"
       d="M 349,4911.9902 V 4960"
       style="fill:none;stroke:#000000;stroke-width:1;stroke-linecap:butt;stroke-linejoin:miter;stroke-miterlimit:10;stroke-dasharray:none;stroke-opacity:1"
       transform="matrix(0.9516447,0,0,0.9516447,-253.02804,-4623.0417)"
       clip-path="url(#clipPath12)" />
    <path
       id="path13"
       d="m 349,4900.9902 3.23999,5.5 -3.23999,5.5 -3.23999,-5.5 z"
       style="fill:#000000;fill-opacity:1;fill-rule:nonzero;stroke:#000000;stroke-width:1;stroke-linecap:butt;stroke-linejoin:miter;stroke-miterlimit:10;stroke-dasharray:none;stroke-opacity:1"
       transform="matrix(0.9516447,0,0,0.9516447,-253.02804,-4623.0417)"
       clip-path="url(#clipPath14)" />
    <path
       id="path15"
       d="m 517,4860 h 144 c 0.52527,5e-4 1.04547,0.052 1.56061,0.1538 0.5152,0.1025 1.0155,0.2544 1.50079,0.4551 0.48529,0.2007 0.94629,0.4473 1.38306,0.7392 0.43683,0.2915 0.84094,0.6231 1.21234,0.9947 0.3714,0.3716 0.70306,0.7754 0.99487,1.2119 0.29187,0.4365 0.53833,0.8974 0.73932,1.3828 0.20105,0.4858 0.35278,0.9863 0.45526,1.5015 0.10248,0.5151 0.15369,1.0356 0.15375,1.561 v 24 c -6e-5,0.5254 -0.0513,1.0454 -0.15375,1.5605 -0.10248,0.5152 -0.25421,1.0152 -0.45526,1.5005 -0.20099,0.4854 -0.44745,0.9463 -0.73932,1.3833 -0.29181,0.437 -0.62347,0.8409 -0.99487,1.2124 -0.3714,0.3711 -0.77557,0.7027 -1.2124,0.9947 -0.43671,0.2915 -0.89771,0.5381 -1.383,0.7392 -0.48529,0.2012 -0.98559,0.3531 -1.50079,0.4556 C 662.04547,4899.9487 661.52527,4900 661,4900 H 517 c -0.52533,0 -1.04553,-0.051 -1.56073,-0.1538 -0.5152,-0.1025 -1.0155,-0.2544 -1.50079,-0.4556 -0.48529,-0.2011 -0.94635,-0.4477 -1.38306,-0.7392 -0.43677,-0.292 -0.84088,-0.6236 -1.21231,-0.9947 -0.37143,-0.3715 -0.7031,-0.7754 -0.99493,-1.2124 -0.29184,-0.437 -0.53827,-0.8979 -0.73929,-1.3833 -0.20102,-0.4853 -0.35276,-0.9853 -0.45523,-1.5005 -0.10245,-0.5151 -0.15369,-1.0351 -0.15366,-1.5605 v -24 c -3e-5,-0.5254 0.0512,-1.0459 0.15366,-1.561 0.10247,-0.5152 0.25421,-1.0157 0.45523,-1.5015 0.20102,-0.4854 0.44745,-0.9463 0.73929,-1.3828 0.29183,-0.4365 0.6235,-0.8403 0.99493,-1.2119 0.37143,-0.3716 0.77554,-0.7032 1.21231,-0.9951 0.43671,-0.2915 0.89777,-0.5381 1.38306,-0.7388 0.48529,-0.2007 0.98559,-0.3526 1.50079,-0.4551 0.5152,-0.102 1.0354,-0.1533 1.56073,-0.1538 z"
       style="fill:#ffffff;fill-opacity:1;fill-rule:nonzero;stroke:#000000;stroke-width:1;stroke-linecap:butt;stroke-linejoin:miter;stroke-miterlimit:10;stroke-dasharray:none;stroke-opacity:1"
       transform="matrix(0.9516447,0,0,0.9516447,-253.02804,-4623.0417)"
       clip-path="url(#clipPath16)" />
    <text
       id="text16"
       xml:space="preserve"
       transform="matrix(0.9516447,0,0,0.9516447,285.90025,16.702228)"
       clip-path="url(#clipPath17)"><tspan
         id="tspan16"
         style="font-variant:normal;font-weight:normal;font-size:16px;font-family:Arial;writing-mode:lr-tb;fill:#000000;fill-opacity:1;fill-rule:nonzero;stroke:none"
         x="0"
         y="0">«part»</tspan></text>
    <text
       id="text17"
       xml:space="preserve"
       transform="matrix(0.9516447,0,0,0.9516447,244.86058,35.735122)"
       clip-path="url(#clipPath18)"><tspan
         id="tspan17"
         style="font-variant:normal;font-weight:normal;font-size:16px;font-family:Arial;writing-mode:lr-tb;fill:#000000;fill-opacity:1;fill-rule:nonzero;stroke:none"
         x="0"
         y="0">part1S : Part1S [1]</tspan></text>
    <path
       id="path19"
       d="m 517,4960 h 144 c 0.52527,0 1.04547,0.051 1.56061,0.1538 0.5152,0.1021 1.0155,0.2539 1.50079,0.4546 0.48529,0.2012 0.94629,0.4478 1.38306,0.7397 0.43683,0.2915 0.84094,0.6236 1.21234,0.9952 0.3714,0.3711 0.70306,0.7749 0.99487,1.2114 0.29187,0.437 0.53833,0.8979 0.73932,1.3833 0.20105,0.4853 0.35278,0.9858 0.45526,1.501 0.10248,0.5151 0.15369,1.0356 0.15375,1.561 v 24 c -6e-5,0.5249 -0.0513,1.0449 -0.15375,1.5601 -0.10248,0.5151 -0.25421,1.0156 -0.45526,1.5009 -0.20099,0.4854 -0.44745,0.9463 -0.73932,1.3828 -0.29181,0.4371 -0.62347,0.8414 -0.99487,1.2129 -0.3714,0.3716 -0.77557,0.7032 -1.2124,0.9952 -0.43671,0.2915 -0.89771,0.538 -1.383,0.7387 -0.48529,0.2012 -0.98559,0.3531 -1.50079,0.4556 C 662.04547,4999.9487 661.52527,5000 661,5000 H 517 c -0.52533,0 -1.04553,-0.051 -1.56073,-0.1538 -0.5152,-0.1025 -1.0155,-0.2544 -1.50079,-0.4556 -0.48529,-0.2007 -0.94635,-0.4472 -1.38306,-0.7387 -0.43677,-0.292 -0.84088,-0.6236 -1.21231,-0.9952 -0.37143,-0.3715 -0.7031,-0.7758 -0.99493,-1.2129 -0.29184,-0.4365 -0.53827,-0.8974 -0.73929,-1.3828 -0.20102,-0.4853 -0.35276,-0.9858 -0.45523,-1.5009 -0.10245,-0.5152 -0.15369,-1.0352 -0.15366,-1.5601 v -24 c -3e-5,-0.5254 0.0512,-1.0459 0.15366,-1.561 0.10247,-0.5152 0.25421,-1.0157 0.45523,-1.501 0.20102,-0.4854 0.44745,-0.9463 0.73929,-1.3828 0.29183,-0.437 0.6235,-0.8408 0.99493,-1.2119 0.37143,-0.3716 0.77554,-0.7037 1.21231,-0.9952 0.43671,-0.2919 0.89777,-0.5385 1.38306,-0.7397 0.48529,-0.2007 0.98559,-0.3525 1.50079,-0.4546 0.5152,-0.1025 1.0354,-0.1538 1.56073,-0.1538 z"
       style="fill:#ffffff;fill-opacity:1;fill-rule:nonzero;stroke:#000000;stroke-width:1;stroke-linecap:butt;stroke-linejoin:miter;stroke-miterlimit:10;stroke-dasharray:none;stroke-opacity:1"
       transform="matrix(0.9516447,0,0,0.9516447,-253.02804,-4623.0417)"
       clip-path="url(#clipPath20)" />
    <text
       id="text20"
       xml:space="preserve"
       transform="matrix(0.9516447,0,0,0.9516447,285.90025,111.8667)"
       clip-path="url(#clipPath21)"><tspan
         id="tspan20"
         style="font-variant:normal;font-weight:normal;font-size:16px;font-family:Arial;writing-mode:lr-tb;fill:#000000;fill-opacity:1;fill-rule:nonzero;stroke:none"
         x="0"
         y="0">«part»</tspan></text>
    <text
       id="text21"
       xml:space="preserve"
       transform="matrix(0.9516447,0,0,0.9516447,254.60007,130.89959)"
       clip-path="url(#clipPath22)"><tspan
         id="tspan21"
         style="font-variant:normal;font-weight:normal;font-size:16px;font-family:Arial;writing-mode:lr-tb;fill:#000000;fill-opacity:1;fill-rule:nonzero;stroke:none"
         x="0"
         y="0">part2R : Part2R</tspan></text>
    <path
       id="path23"
       d="M 589,4911.9902 V 4960"
       style="fill:none;stroke:#000000;stroke-width:1;stroke-linecap:butt;stroke-linejoin:miter;stroke-miterlimit:10;stroke-dasharray:none;stroke-opacity:1"
       transform="matrix(0.9516447,0,0,0.9516447,-253.02804,-4623.0417)"
       clip-path="url(#clipPath24)" />
    <path
       id="path25"
       d="m 589,4900.9902 3.23999,5.5 -3.23999,5.5 -3.23999,-5.5 z"
       style="fill:#000000;fill-opacity:1;fill-rule:nonzero;stroke:#000000;stroke-width:1;stroke-linecap:butt;stroke-linejoin:miter;stroke-miterlimit:10;stroke-dasharray:none;stroke-opacity:1"
       transform="matrix(0.9516447,0,0,0.9516447,-253.02804,-4623.0417)"
       clip-path="url(#clipPath26)" />
    <path
       id="path27"
       d="m 509,4880 -67.88,-0.4199"
       style="fill:none;stroke:#000000;stroke-width:1;stroke-linecap:butt;stroke-linejoin:miter;stroke-miterlimit:10;stroke-dasharray:none;stroke-opacity:1"
       transform="matrix(0.9516447,0,0,0.9516447,-253.02804,-4623.0417)"
       clip-path="url(#clipPath28)" />
    <path
       id="path29"
       d="m 430.12,4879.5098 11.02999,-5.4297 -0.07,11 z"
       style="fill:none;stroke:#000000;stroke-width:1;stroke-linecap:butt;stroke-linejoin:miter;stroke-miterlimit:10;stroke-dasharray:none;stroke-opacity:1"
       transform="matrix(0.9516447,0,0,0.9516447,-253.02804,-4623.0417)"
       clip-path="url(#clipPath30)" />
    <path
       id="path31"
       d="m 448.63,4974 v 12"
       style="fill:none;stroke:#000000;stroke-width:1;stroke-linecap:butt;stroke-linejoin:miter;stroke-miterlimit:10;stroke-dasharray:none;stroke-opacity:1"
       transform="matrix(0.9516447,0,0,0.9516447,-253.02804,-4623.0417)"
       clip-path="url(#clipPath32)" />
    <path
       id="path33"
       d="M 509,4980 H 441.12"
       style="fill:none;stroke:#000000;stroke-width:1;stroke-linecap:butt;stroke-linejoin:miter;stroke-miterlimit:10;stroke-dasharray:none;stroke-opacity:1"
       transform="matrix(0.9516447,0,0,0.9516447,-253.02804,-4623.0417)"
       clip-path="url(#clipPath34)" />
    <path
       id="path35"
       d="m 430.12,4980 11,-5.5 v 11 z"
       style="fill:none;stroke:#000000;stroke-width:1;stroke-linecap:butt;stroke-linejoin:miter;stroke-miterlimit:10;stroke-dasharray:none;stroke-opacity:1"
       transform="matrix(0.9516447,0,0,0.9516447,-253.02804,-4623.0417)"
       clip-path="url(#clipPath36)" />
  </g>
</svg>
