<?xml version="1.0" encoding="UTF-8" standalone="no"?>
<!-- Created with Inkscape (http://www.inkscape.org/) -->

<svg
   version="1.1"
   id="svg1"
   width="328"
   height="141.43999"
   viewBox="0 0 328 141.43999"
   xmlns="http://www.w3.org/2000/svg"
   xmlns:svg="http://www.w3.org/2000/svg">
  <defs
     id="defs1">
    <clipPath
       clipPathUnits="userSpaceOnUse"
       id="clipPath2">
      <path
         d="M 0,0 H 1025.9766 V 441.01563 H 0 Z"
         transform="scale(0.31999999)"
         clip-rule="evenodd"
         id="path2" />
    </clipPath>
    <clipPath
       clipPathUnits="userSpaceOnUse"
       id="clipPath4">
      <path
         d="m 3.125,0 h 1018.75 V 440.625 H 3.125 Z"
         transform="matrix(0.33724208,0,0,0.33724208,254.88499,6372.9466)"
         clip-rule="evenodd"
         id="path4" />
    </clipPath>
    <clipPath
       clipPathUnits="userSpaceOnUse"
       id="clipPath6">
      <path
         d="m 3.125,0 h 1018.75 V 440.625 H 3.125 Z"
         transform="matrix(0.33724208,0,0,0.33724208,254.88499,6372.9466)"
         clip-rule="evenodd"
         id="path6" />
    </clipPath>
    <clipPath
       clipPathUnits="userSpaceOnUse"
       id="clipPath8">
      <path
         d="m 3.125,0 h 1018.75 V 440.625 H 3.125 Z"
         transform="matrix(0.33724208,0,0,0.33724208,254.88499,6372.9466)"
         clip-rule="evenodd"
         id="path8" />
    </clipPath>
    <clipPath
       clipPathUnits="userSpaceOnUse"
       id="clipPath10">
      <path
         d="m 3.125,0 h 1018.75 V 440.625 H 3.125 Z"
         transform="matrix(0.33724208,0,0,0.33724208,254.88499,6372.9466)"
         clip-rule="evenodd"
         id="path10" />
    </clipPath>
    <clipPath
       clipPathUnits="userSpaceOnUse"
       id="clipPath12">
      <path
         d="m 3.125,0 h 1018.75 V 440.625 H 3.125 Z"
         transform="matrix(0.33724208,0,0,0.33724208,254.88499,6372.9466)"
         clip-rule="evenodd"
         id="path12" />
    </clipPath>
    <clipPath
       clipPathUnits="userSpaceOnUse"
       id="clipPath14">
      <path
         d="m 3.125,0 h 1018.75 V 440.625 H 3.125 Z"
         transform="matrix(0.33724208,0,0,0.33724208,254.88499,6372.9466)"
         clip-rule="evenodd"
         id="path14" />
    </clipPath>
    <clipPath
       clipPathUnits="userSpaceOnUse"
       id="clipPath16">
      <path
         d="m 3.125,0 h 1018.75 V 440.625 H 3.125 Z"
         transform="matrix(0.33724208,0,0,0.33724208,254.88499,6372.9466)"
         clip-rule="evenodd"
         id="path16" />
    </clipPath>
    <clipPath
       clipPathUnits="userSpaceOnUse"
       id="clipPath17">
      <path
         d="m 3.125,0 h 1018.75 V 440.625 H 3.125 Z"
         transform="matrix(0.33724208,0,0,0.33724208,-117.97442,-17.55397)"
         clip-rule="evenodd"
         id="path17" />
    </clipPath>
    <clipPath
       clipPathUnits="userSpaceOnUse"
       id="clipPath18">
      <path
         d="m 3.125,0 h 1018.75 V 440.625 H 3.125 Z"
         transform="matrix(0.33724208,0,0,0.33724208,-191.80253,-17.55397)"
         clip-rule="evenodd"
         id="path18" />
    </clipPath>
    <clipPath
       clipPathUnits="userSpaceOnUse"
       id="clipPath19">
      <path
         d="m 3.125,0 h 1018.75 V 440.625 H 3.125 Z"
         transform="matrix(0.33724208,0,0,0.33724208,-129.09941,-36.553969)"
         clip-rule="evenodd"
         id="path19" />
    </clipPath>
    <clipPath
       clipPathUnits="userSpaceOnUse"
       id="clipPath21">
      <path
         d="m 3.125,0 h 1018.75 V 440.625 H 3.125 Z"
         transform="matrix(0.33724208,0,0,0.33724208,254.88499,6372.9466)"
         clip-rule="evenodd"
         id="path21" />
    </clipPath>
    <clipPath
       clipPathUnits="userSpaceOnUse"
       id="clipPath22">
      <path
         d="m 3.125,0 h 1018.75 V 440.625 H 3.125 Z"
         transform="matrix(0.33724208,0,0,0.33724208,-38.193167,-103.55397)"
         clip-rule="evenodd"
         id="path22" />
    </clipPath>
    <clipPath
       clipPathUnits="userSpaceOnUse"
       id="clipPath23">
      <path
         d="m 3.125,0 h 1018.75 V 440.625 H 3.125 Z"
         transform="matrix(0.33724208,0,0,0.33724208,-99.568167,-103.55397)"
         clip-rule="evenodd"
         id="path23" />
    </clipPath>
    <clipPath
       clipPathUnits="userSpaceOnUse"
       id="clipPath24">
      <path
         d="m 3.125,0 h 1018.75 V 440.625 H 3.125 Z"
         transform="matrix(0.33724208,0,0,0.33724208,-34.193167,-123.55397)"
         clip-rule="evenodd"
         id="path24" />
    </clipPath>
    <clipPath
       clipPathUnits="userSpaceOnUse"
       id="clipPath26">
      <path
         d="m 3.125,0 h 1018.75 V 440.625 H 3.125 Z"
         transform="matrix(0.33724208,0,0,0.33724208,254.88499,6372.9466)"
         clip-rule="evenodd"
         id="path26" />
    </clipPath>
    <clipPath
       clipPathUnits="userSpaceOnUse"
       id="clipPath27">
      <path
         d="m 3.125,0 h 1018.75 V 440.625 H 3.125 Z"
         transform="matrix(0.33724208,0,0,0.33724208,-209.19317,-103.55397)"
         clip-rule="evenodd"
         id="path27" />
    </clipPath>
    <clipPath
       clipPathUnits="userSpaceOnUse"
       id="clipPath28">
      <path
         d="m 3.125,0 h 1018.75 V 440.625 H 3.125 Z"
         transform="matrix(0.33724208,0,0,0.33724208,-270.56816,-103.55397)"
         clip-rule="evenodd"
         id="path28" />
    </clipPath>
    <clipPath
       clipPathUnits="userSpaceOnUse"
       id="clipPath29">
      <path
         d="m 3.125,0 h 1018.75 V 440.625 H 3.125 Z"
         transform="matrix(0.33724208,0,0,0.33724208,-205.19316,-123.55397)"
         clip-rule="evenodd"
         id="path29" />
    </clipPath>
  </defs>
  <g
     id="g1">
    <path
       id="path1"
       d="M 0,0 H 328 V 141 H 0 Z"
       style="fill:#ffffff;fill-opacity:1;fill-rule:nonzero;stroke:none"
       clip-path="url(#clipPath2)" />
    <path
       id="path3"
       d="M 342.20001,6430.2798 V 6433 l 0.04,26.3599"
       style="fill:none;stroke:#000000;stroke-width:1;stroke-linecap:butt;stroke-linejoin:miter;stroke-miterlimit:10;stroke-dasharray:none;stroke-opacity:1"
       transform="matrix(0.94887324,0,0,0.94887324,-241.85355,-6047.1185)"
       clip-path="url(#clipPath4)" />
    <path
       id="path5"
       d="m 349.20001,6423.2798 c -3e-5,0.4595 -0.0449,0.914 -0.13455,1.3647 -0.0897,0.4507 -0.22247,0.8887 -0.39835,1.313 -0.1759,0.4248 -0.39154,0.8281 -0.64688,1.2105 -0.25534,0.3823 -0.5455,0.7358 -0.87048,1.061 -0.32501,0.3247 -0.67862,0.6152 -1.06079,0.8706 -0.38217,0.2549 -0.78555,0.4702 -1.21021,0.6465 -0.42462,0.1763 -0.86233,0.3091 -1.31311,0.3984 -0.4508,0.09 -0.906,0.1353 -1.36563,0.1353 -0.45962,0 -0.91485,-0.045 -1.36566,-0.1353 -0.45081,-0.089 -0.88852,-0.2221 -1.31314,-0.3984 -0.42465,-0.1763 -0.82806,-0.3916 -1.21024,-0.647 -0.38217,-0.2553 -0.73577,-0.5454 -1.06076,-0.8701 -0.32501,-0.3252 -0.6152,-0.6787 -0.87054,-1.061 -0.25534,-0.3824 -0.47098,-0.7857 -0.64685,-1.2105 -0.17587,-0.4243 -0.30866,-0.8623 -0.39835,-1.313 -0.0897,-0.4507 -0.13449,-0.9052 -0.13446,-1.3647 -3e-5,-0.46 0.0448,-0.9155 0.13449,-1.3667 0.0897,-0.4507 0.22245,-0.8882 0.39832,-1.3125 0.17587,-0.4253 0.39151,-0.8286 0.64688,-1.2105 0.25534,-0.3823 0.5455,-0.7358 0.87051,-1.0605 0.32499,-0.3252 0.67856,-0.6157 1.06073,-0.8711 0.38218,-0.2554 0.78559,-0.4707 1.21024,-0.647 0.42465,-0.1753 0.86236,-0.3081 1.31317,-0.3979 0.45081,-0.089 0.90604,-0.1333 1.36566,-0.1338 0.45963,5e-4 0.91483,0.045 1.3656,0.1343 0.45081,0.089 0.88852,0.2221 1.31314,0.3979 0.42466,0.1758 0.82804,0.3916 1.21021,0.647 0.38217,0.2554 0.73578,0.5454 1.06079,0.8706 0.32498,0.3247 0.61514,0.6782 0.87048,1.06 0.25534,0.3824 0.47098,0.7857 0.64688,1.2105 0.17588,0.4243 0.30866,0.8623 0.39832,1.313 0.0897,0.4512 0.13455,0.9067 0.13458,1.3667 z"
       style="fill:none;stroke:#000000;stroke-width:1;stroke-linecap:butt;stroke-linejoin:miter;stroke-miterlimit:10;stroke-dasharray:none;stroke-opacity:1"
       transform="matrix(0.94887324,0,0,0.94887324,-241.85355,-6047.1185)"
       clip-path="url(#clipPath6)" />
    <path
       id="path7"
       d="m 342.20001,6416.2798 v 14 m 7,-7 h -14"
       style="fill:none;stroke:#000000;stroke-width:1;stroke-linecap:butt;stroke-linejoin:miter;stroke-miterlimit:10;stroke-dasharray:none;stroke-opacity:1"
       transform="matrix(0.94887324,0,0,0.94887324,-241.85355,-6047.1185)"
       clip-path="url(#clipPath8)" />
    <path
       id="path9"
       d="m 512.59998,6430.2798 v 7.1201 l 0.07,21.96"
       style="fill:none;stroke:#000000;stroke-width:1;stroke-linecap:butt;stroke-linejoin:miter;stroke-miterlimit:10;stroke-dasharray:none;stroke-opacity:1"
       transform="matrix(0.94887324,0,0,0.94887324,-241.85355,-6047.1185)"
       clip-path="url(#clipPath10)" />
    <path
       id="path11"
       d="m 519.59998,6423.2798 c -7e-5,0.4595 -0.0449,0.914 -0.13459,1.3647 -0.0897,0.4507 -0.22241,0.8887 -0.39831,1.313 -0.17591,0.4248 -0.39154,0.8281 -0.64685,1.2105 -0.25544,0.3823 -0.5456,0.7358 -0.87055,1.061 -0.32501,0.3247 -0.67865,0.6152 -1.06079,0.8706 -0.38214,0.2549 -0.78558,0.4702 -1.2102,0.6465 -0.42463,0.1763 -0.86237,0.3091 -1.31311,0.3984 -0.45081,0.09 -0.90601,0.1353 -1.3656,0.1353 -0.45966,0 -0.91486,-0.045 -1.3657,-0.1353 -0.45077,-0.089 -0.88849,-0.2221 -1.31314,-0.3984 -0.42465,-0.1763 -0.82806,-0.3916 -1.21023,-0.647 -0.38217,-0.2553 -0.73575,-0.5454 -1.06073,-0.8701 -0.32498,-0.3252 -0.61518,-0.6787 -0.87055,-1.061 -0.25534,-0.3824 -0.47098,-0.7857 -0.64688,-1.2105 -0.1759,-0.4243 -0.30868,-0.8623 -0.39831,-1.313 -0.0896,-0.4507 -0.13446,-0.9052 -0.13446,-1.3647 0,-0.46 0.0448,-0.9155 0.13446,-1.3667 0.0896,-0.4507 0.22241,-0.8882 0.39831,-1.3125 0.1759,-0.4253 0.39154,-0.8286 0.64688,-1.2105 0.25537,-0.3823 0.54557,-0.7358 0.87055,-1.0605 0.32498,-0.3252 0.67856,-0.6157 1.06073,-0.8711 0.38217,-0.2554 0.78558,-0.4707 1.21023,-0.647 0.42465,-0.1753 0.8624,-0.3081 1.31317,-0.3979 0.45081,-0.089 0.90601,-0.1333 1.36567,-0.1338 0.45959,5e-4 0.91479,0.045 1.3656,0.1343 0.45074,0.089 0.88848,0.2221 1.31311,0.3979 0.42462,0.1758 0.82806,0.3916 1.2102,0.647 0.38214,0.2554 0.73578,0.5454 1.06079,0.8706 0.32495,0.3247 0.61511,0.6782 0.87055,1.06 0.25531,0.3824 0.47094,0.7857 0.64685,1.2105 0.1759,0.4243 0.30865,0.8623 0.39831,1.313 0.0897,0.4512 0.13452,0.9067 0.13459,1.3667 z"
       style="fill:none;stroke:#000000;stroke-width:1;stroke-linecap:butt;stroke-linejoin:miter;stroke-miterlimit:10;stroke-dasharray:none;stroke-opacity:1"
       transform="matrix(0.94887324,0,0,0.94887324,-241.85355,-6047.1185)"
       clip-path="url(#clipPath12)" />
    <path
       id="path13"
       d="m 512.59998,6416.2798 v 14 m 7,-7 h -13.99997"
       style="fill:none;stroke:#000000;stroke-width:1;stroke-linecap:butt;stroke-linejoin:miter;stroke-miterlimit:10;stroke-dasharray:none;stroke-opacity:1"
       transform="matrix(0.94887324,0,0,0.94887324,-241.85355,-6047.1185)"
       clip-path="url(#clipPath14)" />
    <path
       id="path15"
       d="m 266.06,6375 h 323.34997 c 0.52918,0 1.05329,0.051 1.57239,0.1543 0.51898,0.1035 1.02295,0.2563 1.5119,0.4585 0.48896,0.2026 0.95343,0.4507 1.3935,0.7446 0.44006,0.2945 0.84723,0.6289 1.22143,1.003 0.37427,0.374 0.70838,0.7812 1.00238,1.2211 0.29401,0.44 0.54224,0.9043 0.74481,1.3931 0.20252,0.4893 0.35541,0.9937 0.45862,1.5127 0.10333,0.519 0.15497,1.043 0.15497,1.5728 v 24.1596 c 0,0.5288 -0.0516,1.0528 -0.15497,1.5718 -0.10321,0.519 -0.2561,1.023 -0.45862,1.5117 -0.20257,0.4888 -0.4508,0.9531 -0.74481,1.3931 -0.294,0.4399 -0.62811,0.8476 -1.00238,1.2222 -0.3742,0.374 -0.78137,0.708 -1.22137,1.0019 -0.44013,0.294 -0.9046,0.542 -1.39356,0.7446 -0.48895,0.2027 -0.99298,0.3555 -1.51196,0.459 -0.51904,0.1035 -1.04315,0.1553 -1.57233,0.1558 H 266.06 c -0.52924,-5e-4 -1.05338,-0.052 -1.57245,-0.1553 -0.51907,-0.104 -1.02307,-0.2568 -1.51203,-0.4595 -0.48895,-0.2026 -0.95343,-0.4506 -1.39343,-0.7451 -0.44003,-0.2934 -0.84717,-0.6274 -1.22137,-1.0014 -0.37424,-0.3746 -0.70838,-0.7823 -1.00241,-1.2222 -0.29401,-0.44 -0.54227,-0.9043 -0.74482,-1.3931 -0.20254,-0.4887 -0.3554,-0.9927 -0.45864,-1.5122 C 258.05161,6408.2725 258,6407.7485 258,6407.2197 v -24.1596 c 0,-0.5298 0.0516,-1.0538 0.15488,-1.5728 0.10321,-0.519 0.25607,-1.0229 0.45861,-1.5122 0.20255,-0.4888 0.45081,-0.9531 0.74482,-1.3931 0.29403,-0.4404 0.62814,-0.8476 1.00238,-1.2216 0.3742,-0.3741 0.78134,-0.7081 1.2214,-1.0025 0.44,-0.2944 0.90448,-0.5425 1.39343,-0.7451 0.48896,-0.2022 0.99296,-0.355 1.51203,-0.4585 0.51907,-0.103 1.04321,-0.1543 1.57245,-0.1543 z"
       style="fill:#ffffff;fill-opacity:1;fill-rule:nonzero;stroke:#000000;stroke-width:1;stroke-linecap:butt;stroke-linejoin:miter;stroke-miterlimit:10;stroke-dasharray:none;stroke-opacity:1"
       transform="matrix(0.94887324,0,0,0.94887324,-241.85355,-6047.1185)"
       clip-path="url(#clipPath16)" />
    <g
       id="g16" />
    <text
       id="text16"
       xml:space="preserve"
       transform="matrix(0.94887324,0,0,0.94887324,111.94277,16.656492)"
       clip-path="url(#clipPath17)"><tspan
         id="tspan16"
         style="font-variant:normal;font-weight:normal;font-size:16px;font-family:Arial;writing-mode:lr-tb;fill:#000000;fill-opacity:1;fill-rule:nonzero;stroke:none"
         x="0"
         y="0">«variation </tspan></text>
    <text
       id="text17"
       xml:space="preserve"
       transform="matrix(0.94887324,0,0,0.94887324,181.99629,16.656492)"
       clip-path="url(#clipPath18)"><tspan
         id="tspan17"
         style="font-variant:normal;font-weight:normal;font-size:16px;font-family:Arial;writing-mode:lr-tb;fill:#000000;fill-opacity:1;fill-rule:nonzero;stroke:none"
         x="0"
         y="0">part»</tspan></text>
    <text
       id="text18"
       xml:space="preserve"
       transform="matrix(0.94887324,0,0,0.94887324,122.49898,34.685083)"
       clip-path="url(#clipPath19)"><tspan
         id="tspan18"
         style="font-variant:normal;font-weight:normal;font-size:16px;font-family:Arial;writing-mode:lr-tb;fill:#000000;fill-opacity:1;fill-rule:nonzero;stroke:none"
         x="0"
         y="0">part1 : Part1</tspan></text>
    <path
       id="path20"
       d="m 285.70001,6459.3599 h 113.06998 c 0.57123,0 1.13696,0.056 1.69723,0.167 0.56028,0.1118 1.10431,0.2768 1.63205,0.4951 0.52774,0.2182 1.02912,0.4863 1.50412,0.8037 0.47498,0.3169 0.91443,0.6777 1.31839,1.082 0.40396,0.4038 0.76459,0.8433 1.08191,1.3184 0.31739,0.4751 0.58539,0.9765 0.80399,1.5044 0.21863,0.5278 0.38367,1.0717 0.49512,1.6318 0.11148,0.5606 0.1672,1.1265 0.1672,1.6978 v 26.0996 c 0,0.5708 -0.0557,1.1367 -0.1672,1.6967 -0.11145,0.5601 -0.27649,1.104 -0.49512,1.6319 -0.2186,0.5278 -0.48657,1.0288 -0.80393,1.5039 -0.31735,0.4751 -0.67801,0.9145 -1.08194,1.3188 -0.40393,0.4038 -0.84338,0.7642 -1.31836,1.0816 -0.475,0.3178 -0.97637,0.5859 -1.50415,0.8042 -0.52777,0.2187 -1.0718,0.3838 -1.63208,0.4956 -0.56027,0.1118 -1.126,0.1675 -1.69723,0.1675 H 285.70001 c -0.57126,0 -1.13702,-0.056 -1.69729,-0.1675 -0.56031,-0.1113 -1.10434,-0.2764 -1.63208,-0.4951 -0.52778,-0.2188 -1.02915,-0.4869 -1.50409,-0.8047 -0.47501,-0.3169 -0.91446,-0.6773 -1.31839,-1.0811 -0.40396,-0.4038 -0.76462,-0.8437 -1.08197,-1.3188 -0.31736,-0.4751 -0.58536,-0.9761 -0.80396,-1.5039 -0.2186,-0.5279 -0.38364,-1.0718 -0.49505,-1.6324 -0.11149,-0.56 -0.16721,-1.1259 -0.16718,-1.6967 v -26.0996 c -3e-5,-0.5713 0.0557,-1.1372 0.16718,-1.6978 0.11141,-0.5601 0.27645,-1.104 0.49505,-1.6318 0.2186,-0.5279 0.4866,-1.0293 0.80396,-1.5044 0.31735,-0.4751 0.67801,-0.9146 1.08197,-1.3184 0.40393,-0.4043 0.84338,-0.7651 1.31836,-1.0825 0.47497,-0.3174 0.97634,-0.5855 1.50412,-0.8042 0.52774,-0.2183 1.07177,-0.3833 1.63205,-0.4941 0.56027,-0.1114 1.12606,-0.167 1.69732,-0.167 z"
       style="fill:#ffffff;fill-opacity:1;fill-rule:nonzero;stroke:#000000;stroke-width:1;stroke-linecap:butt;stroke-linejoin:miter;stroke-miterlimit:10;stroke-dasharray:none;stroke-opacity:1"
       transform="matrix(0.94887324,0,0,0.94887324,-241.85355,-6047.1185)"
       clip-path="url(#clipPath21)" />
    <g
       id="g21" />
    <text
       id="text21"
       xml:space="preserve"
       transform="matrix(0.94887324,0,0,0.94887324,36.240474,98.25959)"
       clip-path="url(#clipPath22)"><tspan
         id="tspan21"
         style="font-variant:normal;font-weight:normal;font-size:16px;font-family:Arial;writing-mode:lr-tb;fill:#000000;fill-opacity:1;fill-rule:nonzero;stroke:none"
         x="0"
         y="0">«variant </tspan></text>
    <text
       id="text22"
       xml:space="preserve"
       transform="matrix(0.94887324,0,0,0.94887324,94.477569,98.25959)"
       clip-path="url(#clipPath23)"><tspan
         id="tspan22"
         style="font-variant:normal;font-weight:normal;font-size:16px;font-family:Arial;writing-mode:lr-tb;fill:#000000;fill-opacity:1;fill-rule:nonzero;stroke:none"
         x="0"
         y="0">part»</tspan></text>
    <text
       id="text23"
       xml:space="preserve"
       transform="matrix(0.94887324,0,0,0.94887324,32.444981,117.23706)"
       clip-path="url(#clipPath24)"><tspan
         id="tspan23"
         style="font-variant:normal;font-weight:normal;font-size:16px;font-family:Arial;writing-mode:lr-tb;fill:#000000;fill-opacity:1;fill-rule:nonzero;stroke:none"
         x="0"
         y="0">part1a : Part1a</tspan></text>
    <path
       id="path25"
       d="m 457.70001,6459.3599 h 109.93994 c 0.57123,0 1.13697,0.056 1.69721,0.167 0.5603,0.1118 1.10431,0.2768 1.63208,0.4951 0.52777,0.2182 1.02917,0.4863 1.50409,0.8037 0.47503,0.3169 0.91449,0.6777 1.31842,1.082 0.40393,0.4038 0.76459,0.8433 1.08197,1.3184 0.31732,0.4751 0.58533,0.9765 0.80395,1.5044 0.21857,0.5278 0.38361,1.0717 0.495,1.6318 0.11151,0.5606 0.1673,1.1265 0.1673,1.6978 v 26.0996 c 0,0.5708 -0.0557,1.1367 -0.16724,1.6967 -0.11145,0.5601 -0.27649,1.104 -0.49506,1.6319 -0.21862,0.5278 -0.48663,1.0288 -0.80395,1.5039 -0.31738,0.4751 -0.67804,0.9145 -1.08197,1.3188 -0.40393,0.4038 -0.84339,0.7642 -1.31842,1.0816 -0.47492,0.3178 -0.97632,0.5859 -1.50409,0.8042 -0.52777,0.2187 -1.07178,0.3838 -1.63208,0.4956 -0.56024,0.1118 -1.12598,0.1675 -1.69721,0.1675 H 457.70001 c -0.57126,0 -1.13705,-0.056 -1.69732,-0.1675 -0.56028,-0.1113 -1.10431,-0.2764 -1.63205,-0.4951 -0.52774,-0.2188 -1.02912,-0.4869 -1.50412,-0.8047 -0.47498,-0.3169 -0.91443,-0.6773 -1.31836,-1.0811 -0.40393,-0.4038 -0.76459,-0.8437 -1.08197,-1.3188 -0.31736,-0.4751 -0.58536,-0.9761 -0.80399,-1.5039 -0.2186,-0.5279 -0.38364,-1.0718 -0.49506,-1.6324 -0.11145,-0.56 -0.16717,-1.1259 -0.16714,-1.6967 v -26.0996 c -3e-5,-0.5713 0.0557,-1.1372 0.16711,-1.6978 0.11145,-0.5601 0.27646,-1.104 0.49506,-1.6318 0.21863,-0.5279 0.48663,-1.0293 0.80399,-1.5044 0.31741,-0.4751 0.67807,-0.9146 1.082,-1.3184 0.40393,-0.4043 0.84338,-0.7651 1.31836,-1.0825 0.475,-0.3174 0.97638,-0.5855 1.50412,-0.8042 0.52774,-0.2183 1.07177,-0.3833 1.63205,-0.4941 0.56027,-0.1114 1.12606,-0.167 1.69732,-0.167 z"
       style="fill:#ffffff;fill-opacity:1;fill-rule:nonzero;stroke:#000000;stroke-width:1;stroke-linecap:butt;stroke-linejoin:miter;stroke-miterlimit:10;stroke-dasharray:none;stroke-opacity:1"
       transform="matrix(0.94887324,0,0,0.94887324,-241.85355,-6047.1185)"
       clip-path="url(#clipPath26)" />
    <g
       id="g26" />
    <text
       id="text26"
       xml:space="preserve"
       transform="matrix(0.94887324,0,0,0.94887324,198.4978,98.25959)"
       clip-path="url(#clipPath27)"><tspan
         id="tspan26"
         style="font-variant:normal;font-weight:normal;font-size:16px;font-family:Arial;writing-mode:lr-tb;fill:#000000;fill-opacity:1;fill-rule:nonzero;stroke:none"
         x="0"
         y="0">«variant </tspan></text>
    <text
       id="text27"
       xml:space="preserve"
       transform="matrix(0.94887324,0,0,0.94887324,256.73489,98.25959)"
       clip-path="url(#clipPath28)"><tspan
         id="tspan27"
         style="font-variant:normal;font-weight:normal;font-size:16px;font-family:Arial;writing-mode:lr-tb;fill:#000000;fill-opacity:1;fill-rule:nonzero;stroke:none"
         x="0"
         y="0">part»</tspan></text>
    <text
       id="text28"
       xml:space="preserve"
       transform="matrix(0.94887324,0,0,0.94887324,194.7023,117.23706)"
       clip-path="url(#clipPath29)"><tspan
         id="tspan28"
         style="font-variant:normal;font-weight:normal;font-size:16px;font-family:Arial;writing-mode:lr-tb;fill:#000000;fill-opacity:1;fill-rule:nonzero;stroke:none"
         x="0"
         y="0">part1b : Part1b</tspan></text>
  </g>
</svg>
