<?xml version="1.0" encoding="UTF-8" standalone="no"?>
<!-- Created with Inkscape (http://www.inkscape.org/) -->

<svg
   version="1.1"
   id="svg1"
   width="113.28"
   height="50.559998"
   viewBox="0 0 113.28 50.559998"
   xmlns="http://www.w3.org/2000/svg"
   xmlns:svg="http://www.w3.org/2000/svg">
  <defs
     id="defs1">
    <clipPath
       clipPathUnits="userSpaceOnUse"
       id="clipPath2">
      <path
         d="M 0,0 H 354.00391 V 158.98437 H 0 Z"
         transform="scale(0.31999999)"
         clip-rule="evenodd"
         id="path2" />
    </clipPath>
    <clipPath
       clipPathUnits="userSpaceOnUse"
       id="clipPath4">
      <path
         d="M 3.125,0 H 350 V 158.98437 H 3.125 Z"
         transform="matrix(0.34362415,0,0,0.34362415,202.11556,831.92617)"
         clip-rule="evenodd"
         id="path4" />
    </clipPath>
    <clipPath
       clipPathUnits="userSpaceOnUse"
       id="clipPath5">
      <path
         d="M 3.125,0 H 350 V 158.98437 H 3.125 Z"
         transform="matrix(0.34362415,0,0,0.34362415,-42.868822,-22.573852)"
         clip-rule="evenodd"
         id="path5" />
    </clipPath>
    <clipPath
       clipPathUnits="userSpaceOnUse"
       id="clipPath6">
      <path
         d="M 3.125,0 H 350 V 158.98437 H 3.125 Z"
         transform="matrix(0.34362415,0,0,0.34362415,-14.712573,-39.573851)"
         clip-rule="evenodd"
         id="path6" />
    </clipPath>
  </defs>
  <g
     id="g1">
    <path
       id="path1"
       d="M 0,0 H 113 V 51 H 0 Z"
       style="fill:#ffffff;fill-opacity:1;fill-rule:nonzero;stroke:none"
       clip-path="url(#clipPath2)" />
    <path
       id="path3"
       d="m 212.78,834 h 100 c 0.49246,0 0.98016,0.048 1.46316,0.14417 0.48301,0.0961 0.95197,0.23834 1.40693,0.42675 0.45498,0.18842 0.8872,0.41944 1.29666,0.693 0.40945,0.27362 0.7883,0.58453 1.13653,0.93274 0.34821,0.3482 0.65912,0.72705 0.93271,1.13653 0.27359,0.40942 0.50464,0.84161 0.69309,1.29663 0.18844,0.4549 0.33071,0.92389 0.42678,1.40692 0.0961,0.48297 0.14411,0.97077 0.14414,1.46326 v 35 c -3e-5,0.49237 -0.0481,0.9801 -0.14417,1.46307 -0.096,0.48297 -0.23831,0.95197 -0.42678,1.40693 -0.18845,0.45501 -0.41947,0.8872 -0.69309,1.29669 -0.27359,0.40942 -0.58447,0.78827 -0.93268,1.13653 -0.34823,0.34821 -0.72708,0.65906 -1.13653,0.93268 -0.40946,0.27356 -0.84165,0.50458 -1.29663,0.69306 -0.45499,0.18847 -0.92395,0.33074 -1.40696,0.42681 -0.483,0.0961 -0.9707,0.14417 -1.46316,0.14423 h -100 c -0.49246,-6e-5 -0.9802,-0.0481 -1.4632,-0.14417 -0.48298,-0.0961 -0.95198,-0.2384 -1.40695,-0.42687 -0.45497,-0.18848 -0.88719,-0.4195 -1.29666,-0.69306 -0.40945,-0.27362 -0.78828,-0.58447 -1.13651,-0.93268 -0.34822,-0.34826 -0.65913,-0.72711 -0.93272,-1.13653 -0.2736,-0.40949 -0.50462,-0.84168 -0.69307,-1.29669 -0.18846,-0.45496 -0.33073,-0.92396 -0.42682,-1.40693 -0.096,-0.48297 -0.14409,-0.9707 -0.14407,-1.46307 v -35 c -2e-5,-0.49249 0.048,-0.98029 0.14409,-1.46326 0.0961,-0.48303 0.23832,-0.95202 0.42679,-1.40692 0.18846,-0.45502 0.41948,-0.88721 0.69308,-1.29669 0.27359,-0.40948 0.5845,-0.78827 0.93272,-1.13647 0.34823,-0.34821 0.72706,-0.65912 1.13651,-0.93274 0.40947,-0.27362 0.84169,-0.50464 1.29666,-0.69306 0.45497,-0.18841 0.92397,-0.33063 1.40697,-0.42676 C 211.7998,834.04803 212.28754,834 212.78,834 Z"
       style="fill:#ffffff;fill-opacity:1;fill-rule:nonzero;stroke:#000000;stroke-width:1;stroke-linecap:butt;stroke-linejoin:miter;stroke-miterlimit:10;stroke-dasharray:none;stroke-opacity:1"
       transform="matrix(0.93124998,0,0,0.93124998,-188.22011,-774.73123)"
       clip-path="url(#clipPath4)" />
    <text
       id="text4"
       xml:space="preserve"
       transform="matrix(0.93124998,0,0,0.93124998,39.92159,21.021899)"
       clip-path="url(#clipPath5)"><tspan
         id="tspan4"
         style="font-variant:normal;font-weight:normal;font-size:12px;font-family:Arial;writing-mode:lr-tb;fill:#000000;fill-opacity:1;fill-rule:nonzero;stroke:none"
         x="0"
         y="0">«part»</tspan></text>
    <text
       id="text5"
       xml:space="preserve"
       transform="matrix(0.93124998,0,0,0.93124998,13.701083,36.853148)"
       clip-path="url(#clipPath6)"><tspan
         id="tspan5"
         style="font-variant:normal;font-weight:normal;font-size:12px;font-family:Arial;writing-mode:lr-tb;fill:#000000;fill-opacity:1;fill-rule:nonzero;stroke:none"
         x="0"
         y="0">^part1 : PartDef1</tspan></text>
  </g>
</svg>
