<?xml version="1.0" encoding="UTF-8" standalone="no"?>
<!-- Created with Inkscape (http://www.inkscape.org/) -->

<svg
   version="1.1"
   id="svg1"
   width="214.71999"
   height="40"
   viewBox="0 0 214.71999 40"
   xmlns="http://www.w3.org/2000/svg"
   xmlns:svg="http://www.w3.org/2000/svg">
  <defs
     id="defs1">
    <clipPath
       clipPathUnits="userSpaceOnUse"
       id="clipPath2">
      <path
         d="M 0,0 H 668.99414 V 125.97656 H 0 Z"
         transform="scale(0.31999999)"
         clip-rule="evenodd"
         id="path2" />
    </clipPath>
    <clipPath
       clipPathUnits="userSpaceOnUse"
       id="clipPath4">
      <path
         d="m 3.125,0 h 662.5 V 125.97656 H 3.125 Z"
         transform="matrix(0.33867703,0,0,0.33867703,531.86428,1439)"
         clip-rule="evenodd"
         id="path4" />
    </clipPath>
    <clipPath
       clipPathUnits="userSpaceOnUse"
       id="clipPath5">
      <path
         d="m 3.125,0 h 662.5 V 125.97656 H 3.125 Z"
         transform="matrix(0.33867703,0,0,0.33867703,-75.338856,-16.500113)"
         clip-rule="evenodd"
         id="path5" />
    </clipPath>
    <clipPath
       clipPathUnits="userSpaceOnUse"
       id="clipPath6">
      <path
         d="m 3.125,0 h 662.5 V 125.97656 H 3.125 Z"
         transform="matrix(0.33867703,0,0,0.33867703,-26.870106,-36.500113)"
         clip-rule="evenodd"
         id="path6" />
    </clipPath>
  </defs>
  <g
     id="g1">
    <path
       id="path1"
       d="M 0,0 H 214 V 40 H 0 Z"
       style="fill:#ffffff;fill-opacity:1;fill-rule:nonzero;stroke:none"
       clip-path="url(#clipPath2)" />
    <path
       id="path3"
       d="m 543,1440 h 204 c 0.52527,0 1.04547,0.051 1.56061,0.1537 0.5152,0.1025 1.01544,0.2543 1.50073,0.4553 0.48529,0.2009 0.94629,0.4474 1.38306,0.7393 0.43676,0.2918 0.84088,0.6234 1.2124,0.9948 0.3714,0.3715 0.703,0.7756 0.99481,1.2123 0.29187,0.4367 0.53833,0.8977 0.73932,1.3831 0.20105,0.4853 0.35284,0.9856 0.45532,1.5008 0.10248,0.5152 0.15375,1.0354 0.15375,1.5607 v 24 c 0,0.5253 -0.0513,1.0454 -0.15375,1.5607 -0.10248,0.5151 -0.25427,1.0154 -0.45532,1.5007 -0.20099,0.4852 -0.44745,0.9463 -0.73932,1.3831 -0.29181,0.4367 -0.62341,0.8408 -0.99481,1.2122 -0.37152,0.3715 -0.77564,0.703 -1.2124,0.9949 -0.43677,0.2918 -0.89777,0.5381 -1.38306,0.7392 -0.48529,0.201 -0.98553,0.3529 -1.50073,0.4554 -0.51514,0.1024 -1.03534,0.1537 -1.56061,0.1538 H 543 c -0.52533,-10e-5 -1.04559,-0.051 -1.56079,-0.1539 -0.5152,-0.1024 -1.0155,-0.2542 -1.50079,-0.4552 -0.48529,-0.2011 -0.94629,-0.4474 -1.383,-0.7393 -0.43677,-0.2919 -0.84088,-0.6234 -1.21228,-0.9949 -0.37146,-0.3714 -0.70313,-0.7755 -0.99493,-1.2124 -0.29187,-0.4366 -0.53833,-0.8977 -0.73932,-1.3831 -0.20099,-0.4853 -0.35273,-0.9854 -0.4552,-1.5006 C 535.05121,1473.0454 535,1472.5253 535,1472 v -24 c 0,-0.5253 0.0512,-1.0455 0.15369,-1.5607 0.10247,-0.5151 0.25421,-1.0153 0.4552,-1.5007 0.20099,-0.4855 0.44745,-0.9465 0.73932,-1.3832 0.2918,-0.4367 0.62347,-0.8408 0.99493,-1.2123 0.3714,-0.3714 0.77551,-0.703 1.21228,-0.9948 0.43671,-0.2919 0.89777,-0.5384 1.38312,-0.7394 0.48523,-0.2011 0.98547,-0.3528 1.50067,-0.4552 C 541.95441,1440.0513 542.47467,1440 543,1440 Z"
       style="fill:#ffffff;fill-opacity:1;fill-rule:nonzero;stroke:#000000;stroke-width:1;stroke-linecap:butt;stroke-linejoin:miter;stroke-miterlimit:10;stroke-dasharray:none;stroke-opacity:1"
       transform="matrix(0.94485295,0,0,0.94485295,-502.53353,-1359.6434)"
       clip-path="url(#clipPath4)" />
    <text
       id="text4"
       xml:space="preserve"
       transform="matrix(0.94485295,0,0,0.94485295,71.18414,15.59018)"
       clip-path="url(#clipPath5)"><tspan
         id="tspan4"
         style="font-variant:normal;font-weight:normal;font-size:16px;font-family:Arial;writing-mode:lr-tb;fill:#000000;fill-opacity:1;fill-rule:nonzero;stroke:none"
         x="0"
         y="0">«attribute»</tspan></text>
    <text
       id="text5"
       xml:space="preserve"
       transform="matrix(0.94485295,0,0,0.94485295,25.388299,34.487239)"
       clip-path="url(#clipPath6)"><tspan
         id="tspan5"
         style="font-variant:normal;font-weight:normal;font-size:16px;font-family:Arial;writing-mode:lr-tb;fill:#000000;fill-opacity:1;fill-rule:nonzero;stroke:none"
         x="0"
         dx="0 0 0 0 0 0 0 0 0 0 0 0 0 -0.88281155"
         y="0">attribute1 : AttributeDef1</tspan></text>
  </g>
</svg>
