<?xml version="1.0" encoding="UTF-8" standalone="no"?>
<!-- Created with Inkscape (http://www.inkscape.org/) -->

<svg
   version="1.1"
   id="svg1"
   width="280"
   height="234.56"
   viewBox="0 0 280 234.56"
   xmlns="http://www.w3.org/2000/svg"
   xmlns:svg="http://www.w3.org/2000/svg">
  <defs
     id="defs1">
    <clipPath
       clipPathUnits="userSpaceOnUse"
       id="clipPath2">
      <path
         d="M 0,0 H 875.97656 V 731.98242 H 0 Z"
         transform="scale(0.31999999)"
         clip-rule="evenodd"
         id="path2" />
    </clipPath>
    <clipPath
       clipPathUnits="userSpaceOnUse"
       id="clipPath4">
      <path
         d="m 3.125,3.125 h 868.75 V 731.25 H 3.125 Z"
         transform="matrix(0.33851811,0,0,0.33851811,116.88386,104.88426)"
         clip-rule="evenodd"
         id="path4" />
    </clipPath>
    <clipPath
       clipPathUnits="userSpaceOnUse"
       id="clipPath5">
      <path
         d="m 3.125,3.125 h 868.75 V 731.25 H 3.125 Z"
         transform="matrix(0.33851811,0,0,0.33851811,-133.99113,-20.615741)"
         clip-rule="evenodd"
         id="path5" />
    </clipPath>
    <clipPath
       clipPathUnits="userSpaceOnUse"
       id="clipPath6">
      <path
         d="m 3.125,3.125 h 868.75 V 731.25 H 3.125 Z"
         transform="matrix(0.33851811,0,0,0.33851811,-137.33489,-20.615741)"
         clip-rule="evenodd"
         id="path6" />
    </clipPath>
    <clipPath
       clipPathUnits="userSpaceOnUse"
       id="clipPath7">
      <path
         d="m 3.125,3.125 h 868.75 V 731.25 H 3.125 Z"
         transform="matrix(0.33851811,0,0,0.33851811,-4.6161371,-35.615741)"
         clip-rule="evenodd"
         id="path7" />
    </clipPath>
    <clipPath
       clipPathUnits="userSpaceOnUse"
       id="clipPath8">
      <path
         d="m 3.125,3.125 h 868.75 V 731.25 H 3.125 Z"
         transform="matrix(0.33851811,0,0,0.33851811,-11.631762,-35.615741)"
         clip-rule="evenodd"
         id="path8" />
    </clipPath>
    <clipPath
       clipPathUnits="userSpaceOnUse"
       id="clipPath9">
      <path
         d="m 3.125,3.125 h 868.75 V 731.25 H 3.125 Z"
         transform="matrix(0.33851811,0,0,0.33851811,-4.6161371,-52.615741)"
         clip-rule="evenodd"
         id="path9" />
    </clipPath>
    <clipPath
       clipPathUnits="userSpaceOnUse"
       id="clipPath10">
      <path
         d="m 3.125,3.125 h 868.75 V 731.25 H 3.125 Z"
         transform="matrix(0.33851811,0,0,0.33851811,-137.36614,-52.615741)"
         clip-rule="evenodd"
         id="path10" />
    </clipPath>
    <clipPath
       clipPathUnits="userSpaceOnUse"
       id="clipPath11">
      <path
         d="m 3.125,3.125 h 868.75 V 731.25 H 3.125 Z"
         transform="matrix(0.33851811,0,0,0.33851811,-141.36614,-52.615741)"
         clip-rule="evenodd"
         id="path11" />
    </clipPath>
    <clipPath
       clipPathUnits="userSpaceOnUse"
       id="clipPath12">
      <path
         d="m 3.125,3.125 h 868.75 V 731.25 H 3.125 Z"
         transform="matrix(0.33851811,0,0,0.33851811,-159.38177,-52.615741)"
         clip-rule="evenodd"
         id="path12" />
    </clipPath>
    <clipPath
       clipPathUnits="userSpaceOnUse"
       id="clipPath13">
      <path
         d="m 3.125,3.125 h 868.75 V 731.25 H 3.125 Z"
         transform="matrix(0.33851811,0,0,0.33851811,-163.38176,-52.615741)"
         clip-rule="evenodd"
         id="path13" />
    </clipPath>
    <clipPath
       clipPathUnits="userSpaceOnUse"
       id="clipPath14">
      <path
         d="m 3.125,3.125 h 868.75 V 731.25 H 3.125 Z"
         transform="matrix(0.33851811,0,0,0.33851811,-166.72552,-52.615741)"
         clip-rule="evenodd"
         id="path14" />
    </clipPath>
    <clipPath
       clipPathUnits="userSpaceOnUse"
       id="clipPath15">
      <path
         d="m 3.125,3.125 h 868.75 V 731.25 H 3.125 Z"
         transform="matrix(0.33851811,0,0,0.33851811,-4.6161371,-69.615741)"
         clip-rule="evenodd"
         id="path15" />
    </clipPath>
    <clipPath
       clipPathUnits="userSpaceOnUse"
       id="clipPath16">
      <path
         d="m 3.125,3.125 h 868.75 V 731.25 H 3.125 Z"
         transform="matrix(0.33851811,0,0,0.33851811,-154.69427,-69.615741)"
         clip-rule="evenodd"
         id="path16" />
    </clipPath>
    <clipPath
       clipPathUnits="userSpaceOnUse"
       id="clipPath17">
      <path
         d="m 3.125,3.125 h 868.75 V 731.25 H 3.125 Z"
         transform="matrix(0.33851811,0,0,0.33851811,-208.05364,-69.615741)"
         clip-rule="evenodd"
         id="path17" />
    </clipPath>
    <clipPath
       clipPathUnits="userSpaceOnUse"
       id="clipPath18">
      <path
         d="m 3.125,3.125 h 868.75 V 731.25 H 3.125 Z"
         transform="matrix(0.33851811,0,0,0.33851811,-211.39739,-69.615741)"
         clip-rule="evenodd"
         id="path18" />
    </clipPath>
    <clipPath
       clipPathUnits="userSpaceOnUse"
       id="clipPath19">
      <path
         d="m 3.125,3.125 h 868.75 V 731.25 H 3.125 Z"
         transform="matrix(0.33851811,0,0,0.33851811,-4.6161371,-86.615741)"
         clip-rule="evenodd"
         id="path19" />
    </clipPath>
    <clipPath
       clipPathUnits="userSpaceOnUse"
       id="clipPath20">
      <path
         d="m 3.125,3.125 h 868.75 V 731.25 H 3.125 Z"
         transform="matrix(0.33851811,0,0,0.33851811,-154.69427,-86.615741)"
         clip-rule="evenodd"
         id="path20" />
    </clipPath>
    <clipPath
       clipPathUnits="userSpaceOnUse"
       id="clipPath21">
      <path
         d="m 3.125,3.125 h 868.75 V 731.25 H 3.125 Z"
         transform="matrix(0.33851811,0,0,0.33851811,-172.70989,-86.615741)"
         clip-rule="evenodd"
         id="path21" />
    </clipPath>
    <clipPath
       clipPathUnits="userSpaceOnUse"
       id="clipPath22">
      <path
         d="m 3.125,3.125 h 868.75 V 731.25 H 3.125 Z"
         transform="matrix(0.33851811,0,0,0.33851811,-4.6161371,-103.61574)"
         clip-rule="evenodd"
         id="path22" />
    </clipPath>
    <clipPath
       clipPathUnits="userSpaceOnUse"
       id="clipPath23">
      <path
         d="m 3.125,3.125 h 868.75 V 731.25 H 3.125 Z"
         transform="matrix(0.33851811,0,0,0.33851811,-22.631763,-103.61574)"
         clip-rule="evenodd"
         id="path23" />
    </clipPath>
    <clipPath
       clipPathUnits="userSpaceOnUse"
       id="clipPath24">
      <path
         d="m 3.125,3.125 h 868.75 V 731.25 H 3.125 Z"
         transform="matrix(0.33851811,0,0,0.33851811,-4.6161371,-119.61574)"
         clip-rule="evenodd"
         id="path24" />
    </clipPath>
    <clipPath
       clipPathUnits="userSpaceOnUse"
       id="clipPath25">
      <path
         d="m 3.125,3.125 h 868.75 V 731.25 H 3.125 Z"
         transform="matrix(0.33851811,0,0,0.33851811,-153.38177,-119.61574)"
         clip-rule="evenodd"
         id="path25" />
    </clipPath>
    <clipPath
       clipPathUnits="userSpaceOnUse"
       id="clipPath26">
      <path
         d="m 3.125,3.125 h 868.75 V 731.25 H 3.125 Z"
         transform="matrix(0.33851811,0,0,0.33851811,-157.38176,-119.61574)"
         clip-rule="evenodd"
         id="path26" />
    </clipPath>
    <clipPath
       clipPathUnits="userSpaceOnUse"
       id="clipPath27">
      <path
         d="m 3.125,3.125 h 868.75 V 731.25 H 3.125 Z"
         transform="matrix(0.33851811,0,0,0.33851811,-167.38177,-119.61574)"
         clip-rule="evenodd"
         id="path27" />
    </clipPath>
    <clipPath
       clipPathUnits="userSpaceOnUse"
       id="clipPath28">
      <path
         d="m 3.125,3.125 h 868.75 V 731.25 H 3.125 Z"
         transform="matrix(0.33851811,0,0,0.33851811,-171.38177,-119.61574)"
         clip-rule="evenodd"
         id="path28" />
    </clipPath>
    <clipPath
       clipPathUnits="userSpaceOnUse"
       id="clipPath29">
      <path
         d="m 3.125,3.125 h 868.75 V 731.25 H 3.125 Z"
         transform="matrix(0.33851811,0,0,0.33851811,-174.72552,-119.61574)"
         clip-rule="evenodd"
         id="path29" />
    </clipPath>
    <clipPath
       clipPathUnits="userSpaceOnUse"
       id="clipPath30">
      <path
         d="m 3.125,3.125 h 868.75 V 731.25 H 3.125 Z"
         transform="matrix(0.33851811,0,0,0.33851811,-220.08488,-119.61574)"
         clip-rule="evenodd"
         id="path30" />
    </clipPath>
    <clipPath
       clipPathUnits="userSpaceOnUse"
       id="clipPath31">
      <path
         d="m 3.125,3.125 h 868.75 V 731.25 H 3.125 Z"
         transform="matrix(0.33851811,0,0,0.33851811,-4.6161371,-136.61574)"
         clip-rule="evenodd"
         id="path31" />
    </clipPath>
    <clipPath
       clipPathUnits="userSpaceOnUse"
       id="clipPath32">
      <path
         d="m 3.125,3.125 h 868.75 V 731.25 H 3.125 Z"
         transform="matrix(0.33851811,0,0,0.33851811,-153.38177,-136.61574)"
         clip-rule="evenodd"
         id="path32" />
    </clipPath>
    <clipPath
       clipPathUnits="userSpaceOnUse"
       id="clipPath33">
      <path
         d="m 3.125,3.125 h 868.75 V 731.25 H 3.125 Z"
         transform="matrix(0.33851811,0,0,0.33851811,-157.38176,-136.61574)"
         clip-rule="evenodd"
         id="path33" />
    </clipPath>
    <clipPath
       clipPathUnits="userSpaceOnUse"
       id="clipPath34">
      <path
         d="m 3.125,3.125 h 868.75 V 731.25 H 3.125 Z"
         transform="matrix(0.33851811,0,0,0.33851811,-167.38177,-136.61574)"
         clip-rule="evenodd"
         id="path34" />
    </clipPath>
    <clipPath
       clipPathUnits="userSpaceOnUse"
       id="clipPath35">
      <path
         d="m 3.125,3.125 h 868.75 V 731.25 H 3.125 Z"
         transform="matrix(0.33851811,0,0,0.33851811,-171.38177,-136.61574)"
         clip-rule="evenodd"
         id="path35" />
    </clipPath>
    <clipPath
       clipPathUnits="userSpaceOnUse"
       id="clipPath36">
      <path
         d="m 3.125,3.125 h 868.75 V 731.25 H 3.125 Z"
         transform="matrix(0.33851811,0,0,0.33851811,-174.72552,-136.61574)"
         clip-rule="evenodd"
         id="path36" />
    </clipPath>
    <clipPath
       clipPathUnits="userSpaceOnUse"
       id="clipPath37">
      <path
         d="m 3.125,3.125 h 868.75 V 731.25 H 3.125 Z"
         transform="matrix(0.33851811,0,0,0.33851811,-185.74114,-136.61574)"
         clip-rule="evenodd"
         id="path37" />
    </clipPath>
    <clipPath
       clipPathUnits="userSpaceOnUse"
       id="clipPath38">
      <path
         d="m 3.125,3.125 h 868.75 V 731.25 H 3.125 Z"
         transform="matrix(0.33851811,0,0,0.33851811,-4.6161371,-153.61574)"
         clip-rule="evenodd"
         id="path38" />
    </clipPath>
    <clipPath
       clipPathUnits="userSpaceOnUse"
       id="clipPath39">
      <path
         d="m 3.125,3.125 h 868.75 V 731.25 H 3.125 Z"
         transform="matrix(0.33851811,0,0,0.33851811,-137.36614,-153.61574)"
         clip-rule="evenodd"
         id="path39" />
    </clipPath>
    <clipPath
       clipPathUnits="userSpaceOnUse"
       id="clipPath40">
      <path
         d="m 3.125,3.125 h 868.75 V 731.25 H 3.125 Z"
         transform="matrix(0.33851811,0,0,0.33851811,-144.38177,-153.61574)"
         clip-rule="evenodd"
         id="path40" />
    </clipPath>
    <clipPath
       clipPathUnits="userSpaceOnUse"
       id="clipPath41">
      <path
         d="m 3.125,3.125 h 868.75 V 731.25 H 3.125 Z"
         transform="matrix(0.33851811,0,0,0.33851811,-4.6161371,-170.61574)"
         clip-rule="evenodd"
         id="path41" />
    </clipPath>
    <clipPath
       clipPathUnits="userSpaceOnUse"
       id="clipPath42">
      <path
         d="m 3.125,3.125 h 868.75 V 731.25 H 3.125 Z"
         transform="matrix(0.33851811,0,0,0.33851811,-150.70989,-170.61574)"
         clip-rule="evenodd"
         id="path42" />
    </clipPath>
    <clipPath
       clipPathUnits="userSpaceOnUse"
       id="clipPath43">
      <path
         d="m 3.125,3.125 h 868.75 V 731.25 H 3.125 Z"
         transform="matrix(0.33851811,0,0,0.33851811,-161.72552,-170.61574)"
         clip-rule="evenodd"
         id="path43" />
    </clipPath>
    <clipPath
       clipPathUnits="userSpaceOnUse"
       id="clipPath44">
      <path
         d="m 3.125,3.125 h 868.75 V 731.25 H 3.125 Z"
         transform="matrix(0.33851811,0,0,0.33851811,-4.6161371,-187.61574)"
         clip-rule="evenodd"
         id="path44" />
    </clipPath>
    <clipPath
       clipPathUnits="userSpaceOnUse"
       id="clipPath45">
      <path
         d="m 3.125,3.125 h 868.75 V 731.25 H 3.125 Z"
         transform="matrix(0.33851811,0,0,0.33851811,-7.9598871,-187.61574)"
         clip-rule="evenodd"
         id="path45" />
    </clipPath>
    <clipPath
       clipPathUnits="userSpaceOnUse"
       id="clipPath46">
      <path
         d="m 3.125,3.125 h 868.75 V 731.25 H 3.125 Z"
         transform="matrix(0.33851811,0,0,0.33851811,-4.6161371,-203.61574)"
         clip-rule="evenodd"
         id="path46" />
    </clipPath>
    <clipPath
       clipPathUnits="userSpaceOnUse"
       id="clipPath47">
      <path
         d="m 3.125,3.125 h 868.75 V 731.25 H 3.125 Z"
         transform="matrix(0.33851811,0,0,0.33851811,-54.631767,-203.61574)"
         clip-rule="evenodd"
         id="path47" />
    </clipPath>
    <clipPath
       clipPathUnits="userSpaceOnUse"
       id="clipPath48">
      <path
         d="m 3.125,3.125 h 868.75 V 731.25 H 3.125 Z"
         transform="matrix(0.33851811,0,0,0.33851811,-4.6161371,-220.61574)"
         clip-rule="evenodd"
         id="path48" />
    </clipPath>
    <clipPath
       clipPathUnits="userSpaceOnUse"
       id="clipPath49">
      <path
         d="m 3.125,3.125 h 868.75 V 731.25 H 3.125 Z"
         transform="matrix(0.33851811,0,0,0.33851811,-51.303638,-220.61574)"
         clip-rule="evenodd"
         id="path49" />
    </clipPath>
    <clipPath
       clipPathUnits="userSpaceOnUse"
       id="clipPath50">
      <path
         d="m 3.125,3.125 h 868.75 V 731.25 H 3.125 Z"
         transform="matrix(0.33851811,0,0,0.33851811,-4.6161371,-238.61575)"
         clip-rule="evenodd"
         id="path50" />
    </clipPath>
  </defs>
  <g
     id="g1">
    <path
       id="path1"
       d="M 0,0 H 280 V 234 H 0 Z"
       style="fill:#ffffff;fill-opacity:1;fill-rule:nonzero;stroke:none"
       clip-path="url(#clipPath2)" />
    <path
       id="path3"
       d="M 120,108 H 410 V 350 H 120 Z"
       style="fill:#ffffff;fill-opacity:1;fill-rule:nonzero;stroke:#000000;stroke-width:1;stroke-linecap:butt;stroke-linejoin:miter;stroke-miterlimit:10;stroke-dasharray:none;stroke-opacity:1"
       transform="matrix(0.9452965,0,0,0.9452965,-110.4899,-99.146725)"
       clip-path="url(#clipPath4)" />
    <g
       id="g4" />
    <text
       id="text4"
       xml:space="preserve"
       transform="matrix(0.9452965,0,0,0.9452965,126.66135,19.487988)"
       clip-path="url(#clipPath5)"><tspan
         id="tspan4"
         style="font-variant:normal;font-weight:normal;font-size:12px;font-family:Arial;writing-mode:lr-tb;fill:#000000;fill-opacity:1;fill-rule:nonzero;stroke:none"
         x="0"
         y="0"> </tspan></text>
    <text
       id="text5"
       xml:space="preserve"
       transform="matrix(0.9452965,0,0,0.9452965,129.82219,19.487988)"
       clip-path="url(#clipPath6)"><tspan
         id="tspan5"
         style="font-style:italic;font-variant:normal;font-weight:normal;font-size:12px;font-family:Arial;writing-mode:lr-tb;fill:#000000;fill-opacity:1;fill-rule:nonzero;stroke:none"
         x="0"
         y="0">attributes</tspan></text>
    <text
       id="text6"
       xml:space="preserve"
       transform="matrix(0.9452965,0,0,0.9452965,4.3636182,33.667435)"
       clip-path="url(#clipPath7)"><tspan
         id="tspan6"
         style="font-variant:normal;font-weight:700;font-size:12px;font-family:Arial;writing-mode:lr-tb;fill:#000000;fill-opacity:1;fill-rule:nonzero;stroke:none"
         x="0"
         y="0">^</tspan></text>
    <text
       id="text7"
       xml:space="preserve"
       transform="matrix(0.9452965,0,0,0.9452965,10.995464,33.667435)"
       clip-path="url(#clipPath8)"><tspan
         id="tspan7"
         style="font-variant:normal;font-weight:normal;font-size:12px;font-family:Arial;writing-mode:lr-tb;fill:#000000;fill-opacity:1;fill-rule:nonzero;stroke:none"
         x="0"
         dx="0 0 0 0 0 0 0 0 0 0 0 0 0 -0.6621089"
         y="0">attribute2 : AttributeDef2</tspan></text>
    <text
       id="text8"
       xml:space="preserve"
       transform="matrix(0.9452965,0,0,0.9452965,4.3636182,49.737476)"
       clip-path="url(#clipPath9)"><tspan
         id="tspan8"
         style="font-variant:normal;font-weight:normal;font-size:12px;font-family:Arial;writing-mode:lr-tb;fill:#000000;fill-opacity:1;fill-rule:nonzero;stroke:none"
         x="0"
         dx="0 0 0 0 0 0 0 0 0 0 0 0 0 -0.6621089"
         y="0">attribute1 : AttributeDef1 </tspan></text>
    <text
       id="text9"
       xml:space="preserve"
       transform="matrix(0.9452965,0,0,0.9452965,129.85173,49.737476)"
       clip-path="url(#clipPath10)"><tspan
         id="tspan9"
         style="font-variant:normal;font-weight:700;font-size:12px;font-family:Arial;writing-mode:lr-tb;fill:#000000;fill-opacity:1;fill-rule:nonzero;stroke:none"
         x="0"
         y="0">[</tspan></text>
    <text
       id="text10"
       xml:space="preserve"
       transform="matrix(0.9452965,0,0,0.9452965,133.63292,49.737476)"
       clip-path="url(#clipPath11)"><tspan
         id="tspan10"
         style="font-variant:normal;font-weight:normal;font-size:12px;font-family:Arial;writing-mode:lr-tb;fill:#000000;fill-opacity:1;fill-rule:nonzero;stroke:none"
         x="0"
         y="0">1..*</tspan></text>
    <text
       id="text11"
       xml:space="preserve"
       transform="matrix(0.9452965,0,0,0.9452965,150.66303,49.737476)"
       clip-path="url(#clipPath12)"><tspan
         id="tspan11"
         style="font-variant:normal;font-weight:700;font-size:12px;font-family:Arial;writing-mode:lr-tb;fill:#000000;fill-opacity:1;fill-rule:nonzero;stroke:none"
         x="0"
         y="0">]</tspan></text>
    <text
       id="text12"
       xml:space="preserve"
       transform="matrix(0.9452965,0,0,0.9452965,154.44421,49.737476)"
       clip-path="url(#clipPath13)"><tspan
         id="tspan12"
         style="font-variant:normal;font-weight:normal;font-size:12px;font-family:Arial;writing-mode:lr-tb;fill:#000000;fill-opacity:1;fill-rule:nonzero;stroke:none"
         x="0"
         y="0"> </tspan></text>
    <text
       id="text13"
       xml:space="preserve"
       transform="matrix(0.9452965,0,0,0.9452965,157.60505,49.737476)"
       clip-path="url(#clipPath14)"><tspan
         id="tspan13"
         style="font-variant:normal;font-weight:700;font-size:12px;font-family:Arial;writing-mode:lr-tb;fill:#000000;fill-opacity:1;fill-rule:nonzero;stroke:none"
         x="0"
         y="0">ordered nonunique</tspan></text>
    <g
       id="g14" />
    <text
       id="text14"
       xml:space="preserve"
       transform="matrix(0.9452965,0,0,0.9452965,4.3636182,65.807516)"
       clip-path="url(#clipPath15)"><tspan
         id="tspan14"
         style="font-variant:normal;font-weight:normal;font-size:12px;font-family:Arial;writing-mode:lr-tb;fill:#000000;fill-opacity:1;fill-rule:nonzero;stroke:none"
         x="0"
         dx="0 0 0 0 0 0 0 0 0 0 0 0 0 0 -0.66210854"
         y="0">attribute3R : AttributeDef3R </tspan></text>
    <text
       id="text15"
       xml:space="preserve"
       transform="matrix(0.9452965,0,0,0.9452965,146.23195,65.807516)"
       clip-path="url(#clipPath16)"><tspan
         id="tspan15"
         style="font-variant:normal;font-weight:700;font-size:12px;font-family:Arial;writing-mode:lr-tb;fill:#000000;fill-opacity:1;fill-rule:nonzero;stroke:none"
         x="0"
         y="0">redefines</tspan></text>
    <g
       id="g16" />
    <text
       id="text16"
       xml:space="preserve"
       transform="matrix(0.9452965,0,0,0.9452965,196.67238,65.807516)"
       clip-path="url(#clipPath17)"><tspan
         id="tspan16"
         style="font-variant:normal;font-weight:normal;font-size:12px;font-family:Arial;writing-mode:lr-tb;fill:#000000;fill-opacity:1;fill-rule:nonzero;stroke:none"
         x="0"
         y="0"> </tspan></text>
    <text
       id="text17"
       xml:space="preserve"
       transform="matrix(0.9452965,0,0,0.9452965,199.83321,65.807516)"
       clip-path="url(#clipPath18)"><tspan
         id="tspan17"
         style="font-variant:normal;font-weight:700;font-size:12px;font-family:Arial;writing-mode:lr-tb;fill:#000000;fill-opacity:1;fill-rule:nonzero;stroke:none"
         x="0"
         y="0">attribute3</tspan></text>
    <text
       id="text18"
       xml:space="preserve"
       transform="matrix(0.9452965,0,0,0.9452965,4.3636182,81.877557)"
       clip-path="url(#clipPath19)"><tspan
         id="tspan18"
         style="font-variant:normal;font-weight:normal;font-size:12px;font-family:Arial;writing-mode:lr-tb;fill:#000000;fill-opacity:1;fill-rule:nonzero;stroke:none"
         x="0"
         dx="0 0 0 0 0 0 0 0 0 0 0 0 0 0 -0.66210854"
         y="0">attribute4R : AttributeDef4R </tspan></text>
    <text
       id="text19"
       xml:space="preserve"
       transform="matrix(0.9452965,0,0,0.9452965,146.23195,81.877557)"
       clip-path="url(#clipPath20)"><tspan
         id="tspan19"
         style="font-variant:normal;font-weight:700;font-size:12px;font-family:Arial;writing-mode:lr-tb;fill:#000000;fill-opacity:1;fill-rule:nonzero;stroke:none"
         x="0"
         y="0">:&gt;&gt;</tspan></text>
    <text
       id="text20"
       xml:space="preserve"
       transform="matrix(0.9452965,0,0,0.9452965,163.26205,81.877557)"
       clip-path="url(#clipPath21)"><tspan
         id="tspan20"
         style="font-variant:normal;font-weight:normal;font-size:12px;font-family:Arial;writing-mode:lr-tb;fill:#000000;fill-opacity:1;fill-rule:nonzero;stroke:none"
         x="0"
         y="0"> attribute5</tspan></text>
    <text
       id="text21"
       xml:space="preserve"
       transform="matrix(0.9452965,0,0,0.9452965,4.3636182,97.947598)"
       clip-path="url(#clipPath22)"><tspan
         id="tspan21"
         style="font-variant:normal;font-weight:700;font-size:12px;font-family:Arial;writing-mode:lr-tb;fill:#000000;fill-opacity:1;fill-rule:nonzero;stroke:none"
         x="0"
         y="0">:&gt;&gt;</tspan></text>
    <text
       id="text22"
       xml:space="preserve"
       transform="matrix(0.9452965,0,0,0.9452965,21.393726,97.947598)"
       clip-path="url(#clipPath23)"><tspan
         id="tspan22"
         style="font-variant:normal;font-weight:normal;font-size:12px;font-family:Arial;writing-mode:lr-tb;fill:#000000;fill-opacity:1;fill-rule:nonzero;stroke:none"
         x="0"
         y="0"> attribute5</tspan></text>
    <text
       id="text23"
       xml:space="preserve"
       transform="matrix(0.9452965,0,0,0.9452965,4.3636182,113.07234)"
       clip-path="url(#clipPath24)"><tspan
         id="tspan23"
         style="font-variant:normal;font-weight:normal;font-size:12px;font-family:Arial;writing-mode:lr-tb;fill:#000000;fill-opacity:1;fill-rule:nonzero;stroke:none"
         x="0"
         dx="0 0 0 0 0 0 0 0 0 0 0 0 0 0 -0.6621092"
         y="0">attribute6S : AttributeDef6S </tspan></text>
    <text
       id="text24"
       xml:space="preserve"
       transform="matrix(0.9452965,0,0,0.9452965,144.99125,113.07234)"
       clip-path="url(#clipPath25)"><tspan
         id="tspan24"
         style="font-variant:normal;font-weight:700;font-size:12px;font-family:Arial;writing-mode:lr-tb;fill:#000000;fill-opacity:1;fill-rule:nonzero;stroke:none"
         x="0"
         y="0">[</tspan></text>
    <text
       id="text25"
       xml:space="preserve"
       transform="matrix(0.9452965,0,0,0.9452965,148.77243,113.07234)"
       clip-path="url(#clipPath26)"><tspan
         id="tspan25"
         style="font-variant:normal;font-weight:normal;font-size:12px;font-family:Arial;writing-mode:lr-tb;fill:#000000;fill-opacity:1;fill-rule:nonzero;stroke:none"
         x="0"
         y="0">m</tspan></text>
    <text
       id="text26"
       xml:space="preserve"
       transform="matrix(0.9452965,0,0,0.9452965,158.2254,113.07234)"
       clip-path="url(#clipPath27)"><tspan
         id="tspan26"
         style="font-variant:normal;font-weight:700;font-size:12px;font-family:Arial;writing-mode:lr-tb;fill:#000000;fill-opacity:1;fill-rule:nonzero;stroke:none"
         x="0"
         y="0">]</tspan></text>
    <g
       id="g27" />
    <text
       id="text27"
       xml:space="preserve"
       transform="matrix(0.9452965,0,0,0.9452965,162.00659,113.07234)"
       clip-path="url(#clipPath28)"><tspan
         id="tspan27"
         style="font-variant:normal;font-weight:normal;font-size:12px;font-family:Arial;writing-mode:lr-tb;fill:#000000;fill-opacity:1;fill-rule:nonzero;stroke:none"
         x="0"
         y="0"> </tspan></text>
    <text
       id="text28"
       xml:space="preserve"
       transform="matrix(0.9452965,0,0,0.9452965,165.16742,113.07234)"
       clip-path="url(#clipPath29)"><tspan
         id="tspan28"
         style="font-variant:normal;font-weight:700;font-size:12px;font-family:Arial;writing-mode:lr-tb;fill:#000000;fill-opacity:1;fill-rule:nonzero;stroke:none"
         x="0"
         y="0">subsets</tspan></text>
    <g
       id="g29" />
    <text
       id="text29"
       xml:space="preserve"
       transform="matrix(0.9452965,0,0,0.9452965,208.04547,113.07234)"
       clip-path="url(#clipPath30)"><tspan
         id="tspan29"
         style="font-variant:normal;font-weight:normal;font-size:12px;font-family:Arial;writing-mode:lr-tb;fill:#000000;fill-opacity:1;fill-rule:nonzero;stroke:none"
         x="0"
         y="0"> attribute6</tspan></text>
    <text
       id="text30"
       xml:space="preserve"
       transform="matrix(0.9452965,0,0,0.9452965,4.3636182,129.14238)"
       clip-path="url(#clipPath31)"><tspan
         id="tspan30"
         style="font-variant:normal;font-weight:normal;font-size:12px;font-family:Arial;writing-mode:lr-tb;fill:#000000;fill-opacity:1;fill-rule:nonzero;stroke:none"
         x="0"
         dx="0 0 0 0 0 0 0 0 0 0 0 0 0 0 -0.6621092"
         y="0">attribute7S : AttributeDef7S </tspan></text>
    <text
       id="text31"
       xml:space="preserve"
       transform="matrix(0.9452965,0,0,0.9452965,144.99125,129.14238)"
       clip-path="url(#clipPath32)"><tspan
         id="tspan31"
         style="font-variant:normal;font-weight:700;font-size:12px;font-family:Arial;writing-mode:lr-tb;fill:#000000;fill-opacity:1;fill-rule:nonzero;stroke:none"
         x="0"
         y="0">[</tspan></text>
    <text
       id="text32"
       xml:space="preserve"
       transform="matrix(0.9452965,0,0,0.9452965,148.77243,129.14238)"
       clip-path="url(#clipPath33)"><tspan
         id="tspan32"
         style="font-variant:normal;font-weight:normal;font-size:12px;font-family:Arial;writing-mode:lr-tb;fill:#000000;fill-opacity:1;fill-rule:nonzero;stroke:none"
         x="0"
         y="0">m</tspan></text>
    <text
       id="text33"
       xml:space="preserve"
       transform="matrix(0.9452965,0,0,0.9452965,158.2254,129.14238)"
       clip-path="url(#clipPath34)"><tspan
         id="tspan33"
         style="font-variant:normal;font-weight:700;font-size:12px;font-family:Arial;writing-mode:lr-tb;fill:#000000;fill-opacity:1;fill-rule:nonzero;stroke:none"
         x="0"
         y="0">]</tspan></text>
    <text
       id="text34"
       xml:space="preserve"
       transform="matrix(0.9452965,0,0,0.9452965,162.00659,129.14238)"
       clip-path="url(#clipPath35)"><tspan
         id="tspan34"
         style="font-variant:normal;font-weight:normal;font-size:12px;font-family:Arial;writing-mode:lr-tb;fill:#000000;fill-opacity:1;fill-rule:nonzero;stroke:none"
         x="0"
         y="0"> </tspan></text>
    <text
       id="text35"
       xml:space="preserve"
       transform="matrix(0.9452965,0,0,0.9452965,165.16742,129.14238)"
       clip-path="url(#clipPath36)"><tspan
         id="tspan35"
         style="font-variant:normal;font-weight:700;font-size:12px;font-family:Arial;writing-mode:lr-tb;fill:#000000;fill-opacity:1;fill-rule:nonzero;stroke:none"
         x="0"
         y="0">:&gt;</tspan></text>
    <text
       id="text36"
       xml:space="preserve"
       transform="matrix(0.9452965,0,0,0.9452965,175.58045,129.14238)"
       clip-path="url(#clipPath37)"><tspan
         id="tspan36"
         style="font-variant:normal;font-weight:normal;font-size:12px;font-family:Arial;writing-mode:lr-tb;fill:#000000;fill-opacity:1;fill-rule:nonzero;stroke:none"
         x="0"
         y="0"> attribute7</tspan></text>
    <text
       id="text37"
       xml:space="preserve"
       transform="matrix(0.9452965,0,0,0.9452965,4.3636182,145.21242)"
       clip-path="url(#clipPath38)"><tspan
         id="tspan37"
         style="font-variant:normal;font-weight:normal;font-size:12px;font-family:Arial;writing-mode:lr-tb;fill:#000000;fill-opacity:1;fill-rule:nonzero;stroke:none"
         x="0"
         dx="0 0 0 0 0 0 0 0 0 0 0 0 0 -0.6621089"
         y="0">attribute8 : AttributeDef8 </tspan></text>
    <text
       id="text38"
       xml:space="preserve"
       transform="matrix(0.9452965,0,0,0.9452965,129.85173,145.21242)"
       clip-path="url(#clipPath39)"><tspan
         id="tspan38"
         style="font-variant:normal;font-weight:700;font-size:12px;font-family:Arial;writing-mode:lr-tb;fill:#000000;fill-opacity:1;fill-rule:nonzero;stroke:none"
         x="0"
         y="0">=</tspan></text>
    <text
       id="text39"
       xml:space="preserve"
       transform="matrix(0.9452965,0,0,0.9452965,136.48358,145.21242)"
       clip-path="url(#clipPath40)"><tspan
         id="tspan39"
         style="font-variant:normal;font-weight:normal;font-size:12px;font-family:Arial;writing-mode:lr-tb;fill:#000000;fill-opacity:1;fill-rule:nonzero;stroke:none"
         x="0"
         y="0"> expression1</tspan></text>
    <text
       id="text40"
       xml:space="preserve"
       transform="matrix(0.9452965,0,0,0.9452965,4.3636182,161.28246)"
       clip-path="url(#clipPath41)"><tspan
         id="tspan40"
         style="font-variant:normal;font-weight:normal;font-size:12px;font-family:Arial;writing-mode:lr-tb;fill:#000000;fill-opacity:1;fill-rule:nonzero;stroke:none"
         x="0"
         dx="0 0 0 0 0 0 0 0 0 0 0 0 0 0 -0.66210902"
         y="0">attribute10 : AttributeDef10 </tspan></text>
    <text
       id="text41"
       xml:space="preserve"
       transform="matrix(0.9452965,0,0,0.9452965,142.46553,161.28246)"
       clip-path="url(#clipPath42)"><tspan
         id="tspan41"
         style="font-variant:normal;font-weight:700;font-size:12px;font-family:Arial;writing-mode:lr-tb;fill:#000000;fill-opacity:1;fill-rule:nonzero;stroke:none"
         x="0"
         y="0">:=</tspan></text>
    <text
       id="text42"
       xml:space="preserve"
       transform="matrix(0.9452965,0,0,0.9452965,152.87857,161.28246)"
       clip-path="url(#clipPath43)"><tspan
         id="tspan42"
         style="font-variant:normal;font-weight:normal;font-size:12px;font-family:Arial;writing-mode:lr-tb;fill:#000000;fill-opacity:1;fill-rule:nonzero;stroke:none"
         x="0"
         y="0"> expression2</tspan></text>
    <text
       id="text43"
       xml:space="preserve"
       transform="matrix(0.9452965,0,0,0.9452965,4.3636182,177.3525)"
       clip-path="url(#clipPath44)"><tspan
         id="tspan43"
         style="font-variant:normal;font-weight:700;font-size:12px;font-family:Arial;writing-mode:lr-tb;fill:#000000;fill-opacity:1;fill-rule:nonzero;stroke:none"
         x="0"
         y="0">/</tspan></text>
    <text
       id="text44"
       xml:space="preserve"
       transform="matrix(0.9452965,0,0,0.9452965,7.5244534,177.3525)"
       clip-path="url(#clipPath45)"><tspan
         id="tspan44"
         style="font-variant:normal;font-weight:normal;font-size:12px;font-family:Arial;writing-mode:lr-tb;fill:#000000;fill-opacity:1;fill-rule:nonzero;stroke:none"
         x="0"
         y="0">attribute12</tspan></text>
    <text
       id="text45"
       xml:space="preserve"
       transform="matrix(0.9452965,0,0,0.9452965,4.3636182,192.47725)"
       clip-path="url(#clipPath46)"><tspan
         id="tspan45"
         style="font-variant:normal;font-weight:700;font-size:12px;font-family:Arial;writing-mode:lr-tb;fill:#000000;fill-opacity:1;fill-rule:nonzero;stroke:none"
         x="0"
         y="0">readonly</tspan></text>
    <text
       id="text46"
       xml:space="preserve"
       transform="matrix(0.9452965,0,0,0.9452965,51.643218,192.47725)"
       clip-path="url(#clipPath47)"><tspan
         id="tspan46"
         style="font-variant:normal;font-weight:normal;font-size:12px;font-family:Arial;writing-mode:lr-tb;fill:#000000;fill-opacity:1;fill-rule:nonzero;stroke:none"
         x="0"
         y="0"> attribute13</tspan></text>
    <text
       id="text47"
       xml:space="preserve"
       transform="matrix(0.9452965,0,0,0.9452965,4.3636182,208.54729)"
       clip-path="url(#clipPath48)"><tspan
         id="tspan47"
         style="font-variant:normal;font-weight:700;font-size:12px;font-family:Arial;writing-mode:lr-tb;fill:#000000;fill-opacity:1;fill-rule:nonzero;stroke:none"
         x="0"
         y="0">abstract</tspan></text>
    <text
       id="text48"
       xml:space="preserve"
       transform="matrix(0.9452965,0,0,0.9452965,48.497149,208.54729)"
       clip-path="url(#clipPath49)"><tspan
         id="tspan48"
         style="font-variant:normal;font-weight:normal;font-size:12px;font-family:Arial;writing-mode:lr-tb;fill:#000000;fill-opacity:1;fill-rule:nonzero;stroke:none"
         x="0"
         y="0"> attribute14</tspan></text>
    <text
       id="text49"
       xml:space="preserve"
       transform="matrix(0.9452965,0,0,0.9452965,4.3636182,225.56263)"
       clip-path="url(#clipPath50)"><tspan
         id="tspan49"
         style="font-variant:normal;font-weight:700;font-size:14px;font-family:Arial;writing-mode:lr-tb;fill:#000000;fill-opacity:1;fill-rule:nonzero;stroke:none"
         x="0"
         y="0">...</tspan></text>
  </g>
</svg>
