<?xml version="1.0" encoding="UTF-8" standalone="no"?>
<!-- Created with Inkscape (http://www.inkscape.org/) -->

<svg
   version="1.1"
   id="svg1"
   width="214.71999"
   height="90.559998"
   viewBox="0 0 214.71999 90.559998"
   xmlns="http://www.w3.org/2000/svg"
   xmlns:svg="http://www.w3.org/2000/svg">
  <defs
     id="defs1">
    <clipPath
       clipPathUnits="userSpaceOnUse"
       id="clipPath2">
      <path
         d="M 0,0 H 668.99414 V 281.98242 H 0 Z"
         transform="scale(0.31999999)"
         clip-rule="evenodd"
         id="path2" />
    </clipPath>
    <clipPath
       clipPathUnits="userSpaceOnUse"
       id="clipPath4">
      <path
         d="m 3.125,0 h 662.5 V 281.25 H 3.125 Z"
         transform="matrix(0.33867703,0,0,0.33867703,798.86429,1434.9416)"
         clip-rule="evenodd"
         id="path4" />
    </clipPath>
    <clipPath
       clipPathUnits="userSpaceOnUse"
       id="clipPath6">
      <path
         d="m 3.125,0 h 662.5 V 281.25 H 3.125 Z"
         transform="matrix(0.33867703,0,0,0.33867703,798.86429,1434.9416)"
         clip-rule="evenodd"
         id="path6" />
    </clipPath>
    <clipPath
       clipPathUnits="userSpaceOnUse"
       id="clipPath8">
      <path
         d="m 3.125,0 h 662.5 V 281.25 H 3.125 Z"
         transform="matrix(0.33867703,0,0,0.33867703,798.86429,1434.9416)"
         clip-rule="evenodd"
         id="path8" />
    </clipPath>
    <clipPath
       clipPathUnits="userSpaceOnUse"
       id="clipPath9">
      <path
         d="m 3.125,0 h 662.5 V 281.25 H 3.125 Z"
         transform="matrix(0.33867703,0,0,0.33867703,-75.338855,-23.558445)"
         clip-rule="evenodd"
         id="path9" />
    </clipPath>
    <clipPath
       clipPathUnits="userSpaceOnUse"
       id="clipPath10">
      <path
         d="m 3.125,0 h 662.5 V 281.25 H 3.125 Z"
         transform="matrix(0.33867703,0,0,0.33867703,-26.870104,-42.558446)"
         clip-rule="evenodd"
         id="path10" />
    </clipPath>
    <clipPath
       clipPathUnits="userSpaceOnUse"
       id="clipPath11">
      <path
         d="m 181.98975,161.09277 h 301.17188 v 44.29004 H 181.98975 Z"
         transform="matrix(0.33867703,0,0,0.33867703,-61.948224,-65.558445)"
         clip-rule="evenodd"
         id="path11" />
    </clipPath>
    <clipPath
       clipPathUnits="userSpaceOnUse"
       id="clipPath12">
      <path
         d="m 25.498291,223.09863 h 38.384766 v 44.29004 H 25.498291 Z"
         transform="matrix(0.33867703,0,0,0.33867703,-8.6357239,-86.558445)"
         clip-rule="evenodd"
         id="path12" />
    </clipPath>
  </defs>
  <g
     id="g1">
    <path
       id="path1"
       d="M 0,0 H 214 V 90 H 0 Z"
       style="fill:#ffffff;fill-opacity:1;fill-rule:nonzero;stroke:none"
       clip-path="url(#clipPath2)" />
    <path
       id="path3"
       d="m 1022,1487 v -42.5 c 0,-5 -2.5,-7.5 -7.5,-7.5 h -205 c -5,0 -7.5,2.5 -7.5,7.5 v 42.5"
       style="fill:none;stroke:#000000;stroke-width:1;stroke-linecap:butt;stroke-linejoin:miter;stroke-miterlimit:10;stroke-dasharray:none;stroke-opacity:1"
       transform="matrix(0.94485295,0,0,0.94485295,-754.80928,-1355.8088)"
       clip-path="url(#clipPath4)" />
    <path
       id="path5"
       d="m 802,1487 v 33.5 c 0,5 2.5,7.5 7.5,7.5 h 205 c 5,0 7.5,-2.5 7.5,-7.5 V 1487"
       style="fill:none;stroke:#000000;stroke-width:1;stroke-linecap:butt;stroke-linejoin:miter;stroke-miterlimit:10;stroke-dasharray:none;stroke-opacity:1"
       transform="matrix(0.94485295,0,0,0.94485295,-754.80928,-1355.8088)"
       clip-path="url(#clipPath6)" />
    <path
       id="path7"
       d="m 802,1487 h 220"
       style="fill:none;stroke:#000000;stroke-width:1;stroke-linecap:butt;stroke-linejoin:miter;stroke-miterlimit:10;stroke-dasharray:none;stroke-opacity:1"
       transform="matrix(0.94485295,0,0,0.94485295,-754.80928,-1355.8088)"
       clip-path="url(#clipPath8)" />
    <text
       id="text8"
       xml:space="preserve"
       transform="matrix(0.94485295,0,0,0.94485295,71.184139,22.259266)"
       clip-path="url(#clipPath9)"><tspan
         id="tspan8"
         style="font-variant:normal;font-weight:normal;font-size:16px;font-family:Arial;writing-mode:lr-tb;fill:#000000;fill-opacity:1;fill-rule:nonzero;stroke:none"
         x="0"
         y="0">«attribute»</tspan></text>
    <text
       id="text9"
       xml:space="preserve"
       transform="matrix(0.94485295,0,0,0.94485295,25.388297,40.211473)"
       clip-path="url(#clipPath10)"><tspan
         id="tspan9"
         style="font-variant:normal;font-weight:normal;font-size:16px;font-family:Arial;writing-mode:lr-tb;fill:#000000;fill-opacity:1;fill-rule:nonzero;stroke:none"
         x="0"
         dx="0 0 0 0 0 0 0 0 0 0 0 0 0 -0.88281155"
         y="0">attribute1 : AttributeDef1</tspan></text>
    <text
       id="text10"
       xml:space="preserve"
       transform="matrix(0.94485295,0,0,0.94485295,58.531962,61.94309)"
       clip-path="url(#clipPath11)"><tspan
         id="tspan10"
         style="font-style:italic;font-variant:normal;font-weight:normal;font-size:12px;font-family:Arial;writing-mode:lr-tb;fill:#000000;fill-opacity:1;fill-rule:nonzero;stroke:none"
         x="0"
         y="0">compartment stack</tspan></text>
    <text
       id="text11"
       xml:space="preserve"
       transform="matrix(0.94485295,0,0,0.94485295,8.1594892,81.785002)"
       clip-path="url(#clipPath12)"><tspan
         id="tspan11"
         style="font-variant:normal;font-weight:normal;font-size:12px;font-family:Arial;writing-mode:lr-tb;fill:#000000;fill-opacity:1;fill-rule:nonzero;stroke:none"
         x="0"
         y="0">•••</tspan></text>
  </g>
</svg>
