<?xml version="1.0" encoding="UTF-8" standalone="no"?>
<!-- Created with Inkscape (http://www.inkscape.org/) -->

<svg
   version="1.1"
   id="svg1"
   width="89.279999"
   height="78.719994"
   viewBox="0 0 89.279999 78.719994"
   xmlns="http://www.w3.org/2000/svg"
   xmlns:svg="http://www.w3.org/2000/svg">
  <defs
     id="defs1">
    <clipPath
       clipPathUnits="userSpaceOnUse"
       id="clipPath2">
      <path
         d="M 0,0 H 279.00391 V 245.99609 H 0 Z"
         transform="scale(0.31999999)"
         clip-rule="evenodd"
         id="path2" />
    </clipPath>
    <clipPath
       clipPathUnits="userSpaceOnUse"
       id="clipPath4">
      <path
         d="M 3.125,0 H 275 V 243.75 H 3.125 Z"
         transform="matrix(0.34644249,0,0,0.34644249,117.32756,1887.9174)"
         clip-rule="evenodd"
         id="path4" />
    </clipPath>
    <clipPath
       clipPathUnits="userSpaceOnUse"
       id="clipPath7">
      <path
         d="M 3.125,0 H 275 V 243.75 H 3.125 Z"
         transform="matrix(0.34644249,0,0,0.34644249,-5.1724438,-19.582611)"
         clip-rule="evenodd"
         id="path7" />
    </clipPath>
    <clipPath
       clipPathUnits="userSpaceOnUse"
       id="clipPath8">
      <path
         d="M 3.125,0 H 275 V 243.75 H 3.125 Z"
         transform="matrix(0.34644249,0,0,0.34644249,-64.531824,-19.582611)"
         clip-rule="evenodd"
         id="path8" />
    </clipPath>
    <clipPath
       clipPathUnits="userSpaceOnUse"
       id="clipPath9">
      <path
         d="M 3.125,0 H 275 V 243.75 H 3.125 Z"
         transform="matrix(0.34644249,0,0,0.34644249,-5.1724438,-34.582611)"
         clip-rule="evenodd"
         id="path9" />
    </clipPath>
    <clipPath
       clipPathUnits="userSpaceOnUse"
       id="clipPath10">
      <path
         d="M 3.125,0 H 275 V 243.75 H 3.125 Z"
         transform="matrix(0.34644249,0,0,0.34644249,-5.1724438,-51.582612)"
         clip-rule="evenodd"
         id="path10" />
    </clipPath>
    <clipPath
       clipPathUnits="userSpaceOnUse"
       id="clipPath11">
      <path
         d="M 3.125,0 H 275 V 243.75 H 3.125 Z"
         transform="matrix(0.34644249,0,0,0.34644249,-5.1724438,-69.582611)"
         clip-rule="evenodd"
         id="path11" />
    </clipPath>
  </defs>
  <g
     id="g1">
    <path
       id="path1"
       d="M 0,0 H 89 V 79 H 0 Z"
       style="fill:#ffffff;fill-opacity:1;fill-rule:nonzero;stroke:none"
       clip-path="url(#clipPath2)" />
    <path
       id="path3"
       d="m 120.5,1890 h 90 v 80 h -90 z"
       style="fill:#ffffff;fill-opacity:1;fill-rule:nonzero;stroke:#000000;stroke-width:1;stroke-linecap:butt;stroke-linejoin:miter;stroke-miterlimit:10;stroke-dasharray:none;stroke-opacity:1"
       transform="matrix(0.9236742,0,0,0.9236742,-108.37244,-1743.8206)"
       clip-path="url(#clipPath4)" />
    <g
       id="g4" />
    <g
       id="g5" />
    <g
       id="g6" />
    <g
       id="g7" />
    <text
       id="text7"
       xml:space="preserve"
       transform="matrix(0.9236742,0,0,0.9236742,4.7776529,18.087953)"
       clip-path="url(#clipPath7)"><tspan
         id="tspan7"
         style="font-style:italic;font-variant:normal;font-weight:normal;font-size:12px;font-family:Arial;writing-mode:lr-tb;fill:#000000;fill-opacity:1;fill-rule:nonzero;stroke:none"
         x="0"
         y="0">       enums</tspan></text>
    <g
       id="g8" />
    <text
       id="text8"
       xml:space="preserve"
       transform="matrix(0.9236742,0,0,0.9236742,59.606381,18.087953)"
       clip-path="url(#clipPath8)"><tspan
         id="tspan8"
         style="font-style:italic;font-variant:normal;font-weight:normal;font-size:12px;font-family:Arial;writing-mode:lr-tb;fill:#000000;fill-opacity:1;fill-rule:nonzero;stroke:none"
         x="0"
         y="0"> </tspan></text>
    <text
       id="text9"
       xml:space="preserve"
       transform="matrix(0.9236742,0,0,0.9236742,4.7776529,31.943066)"
       clip-path="url(#clipPath9)"><tspan
         id="tspan9"
         style="font-variant:normal;font-weight:normal;font-size:12px;font-family:Arial;writing-mode:lr-tb;fill:#000000;fill-opacity:1;fill-rule:nonzero;stroke:none"
         x="0"
         y="0">enum1</tspan></text>
    <text
       id="text10"
       xml:space="preserve"
       transform="matrix(0.9236742,0,0,0.9236742,4.7776529,47.645528)"
       clip-path="url(#clipPath10)"><tspan
         id="tspan10"
         style="font-variant:normal;font-weight:normal;font-size:12px;font-family:Arial;writing-mode:lr-tb;fill:#000000;fill-opacity:1;fill-rule:nonzero;stroke:none"
         x="0"
         y="0">enum2</tspan></text>
    <text
       id="text11"
       xml:space="preserve"
       transform="matrix(0.9236742,0,0,0.9236742,4.7776529,64.271663)"
       clip-path="url(#clipPath11)"><tspan
         id="tspan11"
         style="font-variant:normal;font-weight:700;font-size:14px;font-family:Arial;writing-mode:lr-tb;fill:#000000;fill-opacity:1;fill-rule:nonzero;stroke:none"
         x="0"
         y="0">...</tspan></text>
  </g>
</svg>
