<?xml version="1.0" encoding="UTF-8" standalone="no"?>
<!-- Created with Inkscape (http://www.inkscape.org/) -->

<svg
   version="1.1"
   id="svg1"
   width="257.28"
   height="134.72"
   viewBox="0 0 257.28 134.72"
   xmlns="http://www.w3.org/2000/svg"
   xmlns:svg="http://www.w3.org/2000/svg">
  <defs
     id="defs1">
    <clipPath
       clipPathUnits="userSpaceOnUse"
       id="clipPath2">
      <path
         d="M 0,0 H 804.00391 V 420.01953 H 0 Z"
         transform="scale(0.31999999)"
         clip-rule="evenodd"
         id="path2" />
    </clipPath>
    <clipPath
       clipPathUnits="userSpaceOnUse"
       id="clipPath4">
      <path
         d="M 3.125,0 H 800 V 418.75 H 3.125 Z"
         transform="matrix(0.3383821,0,0,0.3383821,514.38387,4597.9429)"
         clip-rule="evenodd"
         id="path4" />
    </clipPath>
    <clipPath
       clipPathUnits="userSpaceOnUse"
       id="clipPath5">
      <path
         d="M 3.125,0 H 800 V 418.75 H 3.125 Z"
         transform="matrix(0.3383821,0,0,0.3383821,-52.569248,-105.55749)"
         clip-rule="evenodd"
         id="path5" />
    </clipPath>
    <clipPath
       clipPathUnits="userSpaceOnUse"
       id="clipPath6">
      <path
         d="M 3.125,0 H 800 V 418.75 H 3.125 Z"
         transform="matrix(0.3383821,0,0,0.3383821,-132.63174,-105.55749)"
         clip-rule="evenodd"
         id="path6" />
    </clipPath>
    <clipPath
       clipPathUnits="userSpaceOnUse"
       id="clipPath7">
      <path
         d="M 3.125,0 H 800 V 418.75 H 3.125 Z"
         transform="matrix(0.3383821,0,0,0.3383821,-7.350498,-125.5575)"
         clip-rule="evenodd"
         id="path7" />
    </clipPath>
    <clipPath
       clipPathUnits="userSpaceOnUse"
       id="clipPath9">
      <path
         d="M 3.125,0 H 800 V 418.75 H 3.125 Z"
         transform="matrix(0.3383821,0,0,0.3383821,514.38387,4597.9429)"
         clip-rule="evenodd"
         id="path9" />
    </clipPath>
    <clipPath
       clipPathUnits="userSpaceOnUse"
       id="clipPath10">
      <path
         d="M 3.125,0 H 800 V 418.75 H 3.125 Z"
         transform="matrix(0.3383821,0,0,0.3383821,-88.131749,-17.557492)"
         clip-rule="evenodd"
         id="path10" />
    </clipPath>
    <clipPath
       clipPathUnits="userSpaceOnUse"
       id="clipPath11">
      <path
         d="M 3.125,0 H 800 V 418.75 H 3.125 Z"
         transform="matrix(0.3383821,0,0,0.3383821,-27.678618,-37.557492)"
         clip-rule="evenodd"
         id="path11" />
    </clipPath>
    <clipPath
       clipPathUnits="userSpaceOnUse"
       id="clipPath13">
      <path
         d="M 3.125,0 H 800 V 418.75 H 3.125 Z"
         transform="matrix(0.3383821,0,0,0.3383821,514.38387,4597.9429)"
         clip-rule="evenodd"
         id="path13" />
    </clipPath>
    <clipPath
       clipPathUnits="userSpaceOnUse"
       id="clipPath15">
      <path
         d="M 3.125,0 H 800 V 418.75 H 3.125 Z"
         transform="matrix(0.3383821,0,0,0.3383821,514.38387,4597.9429)"
         clip-rule="evenodd"
         id="path15" />
    </clipPath>
  </defs>
  <g
     id="g1">
    <path
       id="path1"
       d="M 0,0 H 257 V 134 H 0 Z"
       style="fill:#ffffff;fill-opacity:1;fill-rule:nonzero;stroke:none"
       clip-path="url(#clipPath2)" />
    <path
       id="path3"
       d="m 529.60999,4679 h 241.79003 c 0.7616,0 1.51593,0.074 2.263,0.2227 0.74701,0.1484 1.47242,0.3686 2.17609,0.6601 0.70361,0.2915 1.37213,0.6489 2.00549,1.0723 0.63324,0.4233 1.21918,0.9038 1.75782,1.4424 0.53857,0.5385 1.01941,1.1245 1.44256,1.7578 0.42316,0.6333 0.78046,1.3012 1.07196,2.0049 0.29145,0.7036 0.51148,1.4292 0.6601,2.1762 0.14862,0.7476 0.2229,1.502 0.22296,2.2637 v 34.7998 c -6e-5,0.7617 -0.0743,1.5161 -0.22296,2.2627 -0.14862,0.7466 -0.36859,1.4722 -0.66004,2.1758 -0.2915,0.7036 -0.6488,1.372 -1.07196,2.0054 -0.42315,0.6333 -0.90405,1.2197 -1.44262,1.7583 -0.53864,0.5385 -1.12458,1.0195 -1.75788,1.4428 -0.63336,0.4224 -1.30182,0.7798 -2.00543,1.0713 -0.70367,0.2915 -1.42908,0.5117 -2.17615,0.6602 -0.74701,0.1489 -1.50134,0.2231 -2.26294,0.2236 H 529.60999 c -0.76172,-5e-4 -1.51606,-0.075 -2.26307,-0.2236 -0.74701,-0.1485 -1.47241,-0.3687 -2.17608,-0.6602 -0.70368,-0.2915 -1.37219,-0.6489 -2.0055,-1.0718 -0.63336,-0.4233 -1.2193,-0.9038 -1.75781,-1.4423 -0.53857,-0.5386 -1.01947,-1.1246 -1.44263,-1.7579 -0.42315,-0.6333 -0.78051,-1.3017 -1.07196,-2.0053 -0.2915,-0.7036 -0.51153,-1.4292 -0.66009,-2.1763 -0.14862,-0.7466 -0.2229,-1.501 -0.22284,-2.2627 v -34.7998 c -6e-5,-0.7617 0.0742,-1.5161 0.22284,-2.2637 0.14856,-0.7466 0.36859,-1.4721 0.66009,-2.1758 0.29145,-0.7036 0.64881,-1.372 1.07196,-2.0048 0.42316,-0.6338 0.90406,-1.2198 1.44263,-1.7583 0.53851,-0.5386 1.12445,-1.0191 1.75781,-1.4424 0.63331,-0.4234 1.30182,-0.7808 2.0055,-1.0723 0.70367,-0.2915 1.42907,-0.5117 2.17608,-0.6601 0.74701,-0.1485 1.50135,-0.2227 2.26307,-0.2227 z"
       style="fill:#ffffff;fill-opacity:1;fill-rule:nonzero;stroke:#000000;stroke-width:1;stroke-linecap:butt;stroke-linejoin:miter;stroke-miterlimit:10;stroke-dasharray:none;stroke-opacity:1"
       transform="matrix(0.94567647,0,0,0.94567647,-486.44072,-4348.1664)"
       clip-path="url(#clipPath4)" />
    <g
       id="g4" />
    <text
       id="text4"
       xml:space="preserve"
       transform="matrix(0.94567647,0,0,0.94567647,49.713501,99.823236)"
       clip-path="url(#clipPath5)"><tspan
         id="tspan4"
         style="font-variant:normal;font-weight:normal;font-size:16px;font-family:Arial;writing-mode:lr-tb;fill:#000000;fill-opacity:1;fill-rule:nonzero;stroke:none"
         x="0"
         y="0">«individual </tspan></text>
    <text
       id="text5"
       xml:space="preserve"
       transform="matrix(0.94567647,0,0,0.94567647,125.42672,99.823236)"
       clip-path="url(#clipPath6)"><tspan
         id="tspan5"
         style="font-variant:normal;font-weight:normal;font-size:16px;font-family:Arial;writing-mode:lr-tb;fill:#000000;fill-opacity:1;fill-rule:nonzero;stroke:none"
         x="0"
         y="0">occurrence»</tspan></text>
    <text
       id="text6"
       xml:space="preserve"
       transform="matrix(0.94567647,0,0,0.94567647,6.951193,118.73677)"
       clip-path="url(#clipPath7)"><tspan
         id="tspan6"
         style="font-variant:normal;font-weight:normal;font-size:16px;font-family:Arial;writing-mode:lr-tb;fill:#000000;fill-opacity:1;fill-rule:nonzero;stroke:none"
         x="0"
         y="0">'occurrence1-1' : 'OccurrenceDef1-1'</tspan></text>
    <path
       id="path8"
       d="m 527.59003,4600 h 245.82 c 0.52527,0 1.04554,0.051 1.56073,0.1538 0.51514,0.1021 1.01539,0.2539 1.50068,0.4551 0.48529,0.2012 0.94628,0.4477 1.38311,0.7392 0.43677,0.2915 0.84088,0.6231 1.21234,0.9947 0.3714,0.3711 0.70307,0.7749 0.99488,1.2119 0.29181,0.437 0.53827,0.8979 0.73926,1.3833 0.20105,0.4853 0.35278,0.9858 0.45526,1.5015 0.10247,0.5151 0.15374,1.0356 0.15374,1.5605 v 24 c 0,0.5249 -0.0512,1.0449 -0.15368,1.5601 -0.10248,0.5151 -0.25427,1.0151 -0.45532,1.5009 -0.20099,0.4854 -0.44745,0.9463 -0.73932,1.3833 -0.29181,0.437 -0.62342,0.8409 -0.99482,1.2124 -0.37146,0.3716 -0.77557,0.7032 -1.2124,0.9947 -0.43677,0.2915 -0.89776,0.5381 -1.38305,0.7392 -0.48529,0.2012 -0.98554,0.3531 -1.50074,0.4556 -0.51519,0.1025 -1.0354,0.1538 -1.56067,0.1538 h -245.82 c -0.52533,0 -1.04554,-0.051 -1.56073,-0.1538 -0.5152,-0.1025 -1.01551,-0.2544 -1.5008,-0.4556 -0.48529,-0.2011 -0.94635,-0.4477 -1.38305,-0.7392 -0.43677,-0.2915 -0.84088,-0.6231 -1.21228,-0.9947 -0.37146,-0.3715 -0.70313,-0.7754 -0.99494,-1.2124 -0.29187,-0.437 -0.53833,-0.8979 -0.73932,-1.3833 -0.20099,-0.4858 -0.35272,-0.9858 -0.4552,-1.5009 -0.10247,-0.5152 -0.15368,-1.0352 -0.15368,-1.5601 v -24 c 0,-0.5249 0.0512,-1.0454 0.15368,-1.5605 0.10248,-0.5157 0.25421,-1.0162 0.4552,-1.5015 0.20099,-0.4854 0.44745,-0.9463 0.73932,-1.3828 0.29181,-0.437 0.62348,-0.8413 0.99494,-1.2124 0.3714,-0.3716 0.77551,-0.7032 1.21228,-0.9951 0.4367,-0.2915 0.89776,-0.5376 1.38305,-0.7388 0.48529,-0.2012 0.9856,-0.353 1.5008,-0.4551 0.51519,-0.1025 1.0354,-0.1538 1.56073,-0.1538 z"
       style="fill:#ffffff;fill-opacity:1;fill-rule:nonzero;stroke:#000000;stroke-width:1;stroke-linecap:butt;stroke-linejoin:miter;stroke-miterlimit:10;stroke-dasharray:none;stroke-opacity:1"
       transform="matrix(0.94567647,0,0,0.94567647,-486.44072,-4348.1664)"
       clip-path="url(#clipPath9)" />
    <text
       id="text9"
       xml:space="preserve"
       transform="matrix(0.94567647,0,0,0.94567647,83.344121,16.603707)"
       clip-path="url(#clipPath10)"><tspan
         id="tspan9"
         style="font-variant:normal;font-weight:normal;font-size:16px;font-family:Arial;writing-mode:lr-tb;fill:#000000;fill-opacity:1;fill-rule:nonzero;stroke:none"
         x="0"
         y="0">«occurrence»</tspan></text>
    <text
       id="text10"
       xml:space="preserve"
       transform="matrix(0.94567647,0,0,0.94567647,26.175018,35.517236)"
       clip-path="url(#clipPath11)"><tspan
         id="tspan10"
         style="font-variant:normal;font-weight:normal;font-size:16px;font-family:Arial;writing-mode:lr-tb;fill:#000000;fill-opacity:1;fill-rule:nonzero;stroke:none"
         x="0"
         y="0">occurrence1 : OccurrenceDef1</tspan></text>
    <path
       id="path12"
       d="m 650.5,4679 v -26.8799"
       style="fill:none;stroke:#000000;stroke-width:1;stroke-linecap:butt;stroke-linejoin:miter;stroke-miterlimit:10;stroke-dasharray:none;stroke-opacity:1"
       transform="matrix(0.94567647,0,0,0.94567647,-486.44072,-4348.1664)"
       clip-path="url(#clipPath13)" />
    <path
       id="path14"
       d="m 650.5,4641.1201 5.5,11 h -11 z"
       style="fill:none;stroke:#000000;stroke-width:1;stroke-linecap:butt;stroke-linejoin:miter;stroke-miterlimit:10;stroke-dasharray:none;stroke-opacity:1"
       transform="matrix(0.94567647,0,0,0.94567647,-486.44072,-4348.1664)"
       clip-path="url(#clipPath15)" />
  </g>
</svg>
