<?xml version="1.0" encoding="UTF-8" standalone="no"?>
<!-- Created with Inkscape (http://www.inkscape.org/) -->

<svg
   version="1.1"
   id="svg1"
   width="158.72"
   height="136"
   viewBox="0 0 158.72 136"
   xmlns="http://www.w3.org/2000/svg"
   xmlns:svg="http://www.w3.org/2000/svg">
  <defs
     id="defs1">
    <clipPath
       clipPathUnits="userSpaceOnUse"
       id="clipPath2">
      <path
         d="M 0,0 H 495.01953 V 425.97656 H 0 Z"
         transform="scale(0.31999999)"
         clip-rule="evenodd"
         id="path2" />
    </clipPath>
    <clipPath
       clipPathUnits="userSpaceOnUse"
       id="clipPath4">
      <path
         d="m 3.125,3.125 h 487.5 V 425 H 3.125 Z"
         transform="matrix(0.34057115,0,0,0.34057115,35.863851,4596.8714)"
         clip-rule="evenodd"
         id="path4" />
    </clipPath>
    <clipPath
       clipPathUnits="userSpaceOnUse"
       id="clipPath5">
      <path
         d="m 3.125,3.125 h 487.5 V 425 H 3.125 Z"
         transform="matrix(0.34057115,0,0,0.34057115,-43.104898,-98.628699)"
         clip-rule="evenodd"
         id="path5" />
    </clipPath>
    <clipPath
       clipPathUnits="userSpaceOnUse"
       id="clipPath6">
      <path
         d="m 3.125,3.125 h 487.5 V 425 H 3.125 Z"
         transform="matrix(0.34057115,0,0,0.34057115,-25.776774,-117.62869)"
         clip-rule="evenodd"
         id="path6" />
    </clipPath>
    <clipPath
       clipPathUnits="userSpaceOnUse"
       id="clipPath7">
      <path
         d="m 3.125,3.125 h 487.5 V 425 H 3.125 Z"
         transform="matrix(0.34057115,0,0,0.34057115,-14.729899,-136.6287)"
         clip-rule="evenodd"
         id="path7" />
    </clipPath>
    <clipPath
       clipPathUnits="userSpaceOnUse"
       id="clipPath9">
      <path
         d="m 3.125,3.125 h 487.5 V 425 H 3.125 Z"
         transform="matrix(0.34057115,0,0,0.34057115,35.863851,4596.8714)"
         clip-rule="evenodd"
         id="path9" />
    </clipPath>
    <clipPath
       clipPathUnits="userSpaceOnUse"
       id="clipPath10">
      <path
         d="m 3.125,3.125 h 487.5 V 425 H 3.125 Z"
         transform="matrix(0.34057115,0,0,0.34057115,-23.323649,-18.628699)"
         clip-rule="evenodd"
         id="path10" />
    </clipPath>
    <clipPath
       clipPathUnits="userSpaceOnUse"
       id="clipPath11">
      <path
         d="m 3.125,3.125 h 487.5 V 425 H 3.125 Z"
         transform="matrix(0.34057115,0,0,0.34057115,-26.886149,-38.628698)"
         clip-rule="evenodd"
         id="path11" />
    </clipPath>
    <clipPath
       clipPathUnits="userSpaceOnUse"
       id="clipPath13">
      <path
         d="m 3.125,3.125 h 487.5 V 425 H 3.125 Z"
         transform="matrix(0.34057115,0,0,0.34057115,35.863851,4596.8714)"
         clip-rule="evenodd"
         id="path13" />
    </clipPath>
    <clipPath
       clipPathUnits="userSpaceOnUse"
       id="clipPath15">
      <path
         d="m 3.125,3.125 h 487.5 V 425 H 3.125 Z"
         transform="matrix(0.34057115,0,0,0.34057115,35.863851,4596.8714)"
         clip-rule="evenodd"
         id="path15" />
    </clipPath>
  </defs>
  <g
     id="g1">
    <path
       id="path1"
       d="M 0,0 H 158 V 136 H 0 Z"
       style="fill:#ffffff;fill-opacity:1;fill-rule:nonzero;stroke:none"
       clip-path="url(#clipPath2)" />
    <path
       id="path3"
       d="m 39,4679 h 160 v 60 H 39 Z"
       style="fill:#ffffff;fill-opacity:1;fill-rule:nonzero;stroke:#000000;stroke-width:1;stroke-linecap:butt;stroke-linejoin:miter;stroke-miterlimit:10;stroke-dasharray:none;stroke-opacity:1"
       transform="matrix(0.93959804,0,0,0.93959804,-33.697604,-4319.2114)"
       clip-path="url(#clipPath4)" />
    <g
       id="g4" />
    <text
       id="text4"
       xml:space="preserve"
       transform="matrix(0.93959804,0,0,0.93959804,40.501278,92.671332)"
       clip-path="url(#clipPath5)"><tspan
         id="tspan4"
         style="font-variant:normal;font-weight:normal;font-size:16px;font-family:Arial;writing-mode:lr-tb;fill:#000000;fill-opacity:1;fill-rule:nonzero;stroke:none"
         x="0"
         y="0">«individual </tspan></text>
    <text
       id="text5"
       xml:space="preserve"
       transform="matrix(0.93959804,0,0,0.93959804,24.219806,110.52369)"
       clip-path="url(#clipPath6)"><tspan
         id="tspan5"
         style="font-variant:normal;font-weight:normal;font-size:16px;font-family:Arial;writing-mode:lr-tb;fill:#000000;fill-opacity:1;fill-rule:nonzero;stroke:none"
         x="0"
         y="0">occurrence def»</tspan></text>
    <text
       id="text6"
       xml:space="preserve"
       transform="matrix(0.93959804,0,0,0.93959804,13.840184,128.37606)"
       clip-path="url(#clipPath7)"><tspan
         id="tspan6"
         style="font-variant:normal;font-weight:normal;font-size:16px;font-family:Arial;writing-mode:lr-tb;fill:#000000;fill-opacity:1;fill-rule:nonzero;stroke:none"
         x="0"
         y="0">'OccurrenceDef1-1'</tspan></text>
    <path
       id="path8"
       d="m 41,4600 h 160 v 40 H 41 Z"
       style="fill:#ffffff;fill-opacity:1;fill-rule:nonzero;stroke:#000000;stroke-width:1;stroke-linecap:butt;stroke-linejoin:miter;stroke-miterlimit:10;stroke-dasharray:none;stroke-opacity:1"
       transform="matrix(0.93959804,0,0,0.93959804,-33.697604,-4319.2114)"
       clip-path="url(#clipPath9)" />
    <text
       id="text9"
       xml:space="preserve"
       transform="matrix(0.93959804,0,0,0.93959804,21.914855,17.503489)"
       clip-path="url(#clipPath10)"><tspan
         id="tspan9"
         style="font-variant:normal;font-weight:normal;font-size:16px;font-family:Arial;writing-mode:lr-tb;fill:#000000;fill-opacity:1;fill-rule:nonzero;stroke:none"
         x="0"
         y="0">«occurrence def»</tspan></text>
    <text
       id="text10"
       xml:space="preserve"
       transform="matrix(0.93959804,0,0,0.93959804,25.262173,36.295449)"
       clip-path="url(#clipPath11)"><tspan
         id="tspan10"
         style="font-variant:normal;font-weight:normal;font-size:16px;font-family:Arial;writing-mode:lr-tb;fill:#000000;fill-opacity:1;fill-rule:nonzero;stroke:none"
         x="0"
         y="0">OccurrenceDef1</tspan></text>
    <path
       id="path12"
       d="m 120,4680 v -27.8799"
       style="fill:none;stroke:#000000;stroke-width:1;stroke-linecap:butt;stroke-linejoin:miter;stroke-miterlimit:10;stroke-dasharray:none;stroke-opacity:1"
       transform="matrix(0.93959804,0,0,0.93959804,-33.697604,-4319.2114)"
       clip-path="url(#clipPath13)" />
    <path
       id="path14"
       d="m 120,4641.1201 5.5,11 h -11 z"
       style="fill:none;stroke:#000000;stroke-width:1;stroke-linecap:butt;stroke-linejoin:miter;stroke-miterlimit:10;stroke-dasharray:none;stroke-opacity:1"
       transform="matrix(0.93959804,0,0,0.93959804,-33.697604,-4319.2114)"
       clip-path="url(#clipPath15)" />
  </g>
</svg>
