<?xml version="1.0" encoding="UTF-8" standalone="no"?>
<!-- Created with Inkscape (http://www.inkscape.org/) -->

<svg
   version="1.1"
   id="svg1"
   width="280"
   height="289.28"
   viewBox="0 0 280 289.28"
   xmlns="http://www.w3.org/2000/svg"
   xmlns:svg="http://www.w3.org/2000/svg">
  <defs
     id="defs1">
    <clipPath
       clipPathUnits="userSpaceOnUse"
       id="clipPath2">
      <path
         d="M 0,0 H 875.97656 V 905 H 0 Z"
         transform="scale(0.31999999)"
         clip-rule="evenodd"
         id="path2" />
    </clipPath>
    <clipPath
       clipPathUnits="userSpaceOnUse"
       id="clipPath4">
      <path
         d="m 3.125,3.125 h 868.75 V 900 H 3.125 Z"
         transform="matrix(0.33852631,0,0,0.33852631,123.88026,3204.8841)"
         clip-rule="evenodd"
         id="path4" />
    </clipPath>
    <clipPath
       clipPathUnits="userSpaceOnUse"
       id="clipPath5">
      <path
         d="m 3.125,3.125 h 868.75 V 900 H 3.125 Z"
         transform="matrix(0.33852631,0,0,0.33852631,-114.63538,-20.616091)"
         clip-rule="evenodd"
         id="path5" />
    </clipPath>
    <clipPath
       clipPathUnits="userSpaceOnUse"
       id="clipPath6">
      <path
         d="m 3.125,3.125 h 868.75 V 900 H 3.125 Z"
         transform="matrix(0.33852631,0,0,0.33852631,-4.6197452,-35.616092)"
         clip-rule="evenodd"
         id="path6" />
    </clipPath>
    <clipPath
       clipPathUnits="userSpaceOnUse"
       id="clipPath7">
      <path
         d="m 3.125,3.125 h 868.75 V 900 H 3.125 Z"
         transform="matrix(0.33852631,0,0,0.33852631,-11.635371,-35.616092)"
         clip-rule="evenodd"
         id="path7" />
    </clipPath>
    <clipPath
       clipPathUnits="userSpaceOnUse"
       id="clipPath8">
      <path
         d="m 3.125,3.125 h 868.75 V 900 H 3.125 Z"
         transform="matrix(0.33852631,0,0,0.33852631,-4.6197452,-52.616091)"
         clip-rule="evenodd"
         id="path8" />
    </clipPath>
    <clipPath
       clipPathUnits="userSpaceOnUse"
       id="clipPath9">
      <path
         d="m 3.125,3.125 h 868.75 V 900 H 3.125 Z"
         transform="matrix(0.33852631,0,0,0.33852631,-111.33849,-52.616091)"
         clip-rule="evenodd"
         id="path9" />
    </clipPath>
    <clipPath
       clipPathUnits="userSpaceOnUse"
       id="clipPath10">
      <path
         d="m 3.125,3.125 h 868.75 V 900 H 3.125 Z"
         transform="matrix(0.33852631,0,0,0.33852631,-115.3385,-52.616091)"
         clip-rule="evenodd"
         id="path10" />
    </clipPath>
    <clipPath
       clipPathUnits="userSpaceOnUse"
       id="clipPath11">
      <path
         d="m 3.125,3.125 h 868.75 V 900 H 3.125 Z"
         transform="matrix(0.33852631,0,0,0.33852631,-133.35413,-52.616091)"
         clip-rule="evenodd"
         id="path11" />
    </clipPath>
    <clipPath
       clipPathUnits="userSpaceOnUse"
       id="clipPath12">
      <path
         d="m 3.125,3.125 h 868.75 V 900 H 3.125 Z"
         transform="matrix(0.33852631,0,0,0.33852631,-137.35412,-52.616091)"
         clip-rule="evenodd"
         id="path12" />
    </clipPath>
    <clipPath
       clipPathUnits="userSpaceOnUse"
       id="clipPath13">
      <path
         d="m 3.125,3.125 h 868.75 V 900 H 3.125 Z"
         transform="matrix(0.33852631,0,0,0.33852631,-140.69788,-52.616091)"
         clip-rule="evenodd"
         id="path13" />
    </clipPath>
    <clipPath
       clipPathUnits="userSpaceOnUse"
       id="clipPath14">
      <path
         d="m 3.125,3.125 h 868.75 V 900 H 3.125 Z"
         transform="matrix(0.33852631,0,0,0.33852631,-4.6197452,-69.616092)"
         clip-rule="evenodd"
         id="path14" />
    </clipPath>
    <clipPath
       clipPathUnits="userSpaceOnUse"
       id="clipPath15">
      <path
         d="m 3.125,3.125 h 868.75 V 900 H 3.125 Z"
         transform="matrix(0.33852631,0,0,0.33852631,-128.66663,-69.616092)"
         clip-rule="evenodd"
         id="path15" />
    </clipPath>
    <clipPath
       clipPathUnits="userSpaceOnUse"
       id="clipPath16">
      <path
         d="m 3.125,3.125 h 868.75 V 900 H 3.125 Z"
         transform="matrix(0.33852631,0,0,0.33852631,-182.02599,-69.616092)"
         clip-rule="evenodd"
         id="path16" />
    </clipPath>
    <clipPath
       clipPathUnits="userSpaceOnUse"
       id="clipPath17">
      <path
         d="m 3.125,3.125 h 868.75 V 900 H 3.125 Z"
         transform="matrix(0.33852631,0,0,0.33852631,-4.6197452,-86.616091)"
         clip-rule="evenodd"
         id="path17" />
    </clipPath>
    <clipPath
       clipPathUnits="userSpaceOnUse"
       id="clipPath18">
      <path
         d="m 3.125,3.125 h 868.75 V 900 H 3.125 Z"
         transform="matrix(0.33852631,0,0,0.33852631,-128.66663,-86.616091)"
         clip-rule="evenodd"
         id="path18" />
    </clipPath>
    <clipPath
       clipPathUnits="userSpaceOnUse"
       id="clipPath19">
      <path
         d="m 3.125,3.125 h 868.75 V 900 H 3.125 Z"
         transform="matrix(0.33852631,0,0,0.33852631,-146.68225,-86.616091)"
         clip-rule="evenodd"
         id="path19" />
    </clipPath>
    <clipPath
       clipPathUnits="userSpaceOnUse"
       id="clipPath20">
      <path
         d="m 3.125,3.125 h 868.75 V 900 H 3.125 Z"
         transform="matrix(0.33852631,0,0,0.33852631,-4.6197452,-103.61609)"
         clip-rule="evenodd"
         id="path20" />
    </clipPath>
    <clipPath
       clipPathUnits="userSpaceOnUse"
       id="clipPath21">
      <path
         d="m 3.125,3.125 h 868.75 V 900 H 3.125 Z"
         transform="matrix(0.33852631,0,0,0.33852631,-22.63537,-103.61609)"
         clip-rule="evenodd"
         id="path21" />
    </clipPath>
    <clipPath
       clipPathUnits="userSpaceOnUse"
       id="clipPath22">
      <path
         d="m 3.125,3.125 h 868.75 V 900 H 3.125 Z"
         transform="matrix(0.33852631,0,0,0.33852631,-4.6197452,-119.6161)"
         clip-rule="evenodd"
         id="path22" />
    </clipPath>
    <clipPath
       clipPathUnits="userSpaceOnUse"
       id="clipPath23">
      <path
         d="m 3.125,3.125 h 868.75 V 900 H 3.125 Z"
         transform="matrix(0.33852631,0,0,0.33852631,-127.33849,-119.6161)"
         clip-rule="evenodd"
         id="path23" />
    </clipPath>
    <clipPath
       clipPathUnits="userSpaceOnUse"
       id="clipPath24">
      <path
         d="m 3.125,3.125 h 868.75 V 900 H 3.125 Z"
         transform="matrix(0.33852631,0,0,0.33852631,-131.3385,-119.6161)"
         clip-rule="evenodd"
         id="path24" />
    </clipPath>
    <clipPath
       clipPathUnits="userSpaceOnUse"
       id="clipPath25">
      <path
         d="m 3.125,3.125 h 868.75 V 900 H 3.125 Z"
         transform="matrix(0.33852631,0,0,0.33852631,-141.33849,-119.6161)"
         clip-rule="evenodd"
         id="path25" />
    </clipPath>
    <clipPath
       clipPathUnits="userSpaceOnUse"
       id="clipPath26">
      <path
         d="m 3.125,3.125 h 868.75 V 900 H 3.125 Z"
         transform="matrix(0.33852631,0,0,0.33852631,-145.3385,-119.6161)"
         clip-rule="evenodd"
         id="path26" />
    </clipPath>
    <clipPath
       clipPathUnits="userSpaceOnUse"
       id="clipPath27">
      <path
         d="m 3.125,3.125 h 868.75 V 900 H 3.125 Z"
         transform="matrix(0.33852631,0,0,0.33852631,-148.68224,-119.6161)"
         clip-rule="evenodd"
         id="path27" />
    </clipPath>
    <clipPath
       clipPathUnits="userSpaceOnUse"
       id="clipPath28">
      <path
         d="m 3.125,3.125 h 868.75 V 900 H 3.125 Z"
         transform="matrix(0.33852631,0,0,0.33852631,-194.04163,-119.6161)"
         clip-rule="evenodd"
         id="path28" />
    </clipPath>
    <clipPath
       clipPathUnits="userSpaceOnUse"
       id="clipPath29">
      <path
         d="m 3.125,3.125 h 868.75 V 900 H 3.125 Z"
         transform="matrix(0.33852631,0,0,0.33852631,-4.6197452,-136.61609)"
         clip-rule="evenodd"
         id="path29" />
    </clipPath>
    <clipPath
       clipPathUnits="userSpaceOnUse"
       id="clipPath30">
      <path
         d="m 3.125,3.125 h 868.75 V 900 H 3.125 Z"
         transform="matrix(0.33852631,0,0,0.33852631,-127.33849,-136.61609)"
         clip-rule="evenodd"
         id="path30" />
    </clipPath>
    <clipPath
       clipPathUnits="userSpaceOnUse"
       id="clipPath31">
      <path
         d="m 3.125,3.125 h 868.75 V 900 H 3.125 Z"
         transform="matrix(0.33852631,0,0,0.33852631,-131.3385,-136.61609)"
         clip-rule="evenodd"
         id="path31" />
    </clipPath>
    <clipPath
       clipPathUnits="userSpaceOnUse"
       id="clipPath32">
      <path
         d="m 3.125,3.125 h 868.75 V 900 H 3.125 Z"
         transform="matrix(0.33852631,0,0,0.33852631,-141.33849,-136.61609)"
         clip-rule="evenodd"
         id="path32" />
    </clipPath>
    <clipPath
       clipPathUnits="userSpaceOnUse"
       id="clipPath33">
      <path
         d="m 3.125,3.125 h 868.75 V 900 H 3.125 Z"
         transform="matrix(0.33852631,0,0,0.33852631,-145.3385,-136.61609)"
         clip-rule="evenodd"
         id="path33" />
    </clipPath>
    <clipPath
       clipPathUnits="userSpaceOnUse"
       id="clipPath34">
      <path
         d="m 3.125,3.125 h 868.75 V 900 H 3.125 Z"
         transform="matrix(0.33852631,0,0,0.33852631,-148.68224,-136.61609)"
         clip-rule="evenodd"
         id="path34" />
    </clipPath>
    <clipPath
       clipPathUnits="userSpaceOnUse"
       id="clipPath35">
      <path
         d="m 3.125,3.125 h 868.75 V 900 H 3.125 Z"
         transform="matrix(0.33852631,0,0,0.33852631,-159.69788,-136.61609)"
         clip-rule="evenodd"
         id="path35" />
    </clipPath>
    <clipPath
       clipPathUnits="userSpaceOnUse"
       id="clipPath36">
      <path
         d="m 3.125,3.125 h 868.75 V 900 H 3.125 Z"
         transform="matrix(0.33852631,0,0,0.33852631,-4.6197452,-153.61609)"
         clip-rule="evenodd"
         id="path36" />
    </clipPath>
    <clipPath
       clipPathUnits="userSpaceOnUse"
       id="clipPath37">
      <path
         d="m 3.125,3.125 h 868.75 V 900 H 3.125 Z"
         transform="matrix(0.33852631,0,0,0.33852631,-52.650995,-153.61609)"
         clip-rule="evenodd"
         id="path37" />
    </clipPath>
    <clipPath
       clipPathUnits="userSpaceOnUse"
       id="clipPath38">
      <path
         d="m 3.125,3.125 h 868.75 V 900 H 3.125 Z"
         transform="matrix(0.33852631,0,0,0.33852631,-59.666625,-153.61609)"
         clip-rule="evenodd"
         id="path38" />
    </clipPath>
    <clipPath
       clipPathUnits="userSpaceOnUse"
       id="clipPath39">
      <path
         d="m 3.125,3.125 h 868.75 V 900 H 3.125 Z"
         transform="matrix(0.33852631,0,0,0.33852631,-4.6197452,-170.61609)"
         clip-rule="evenodd"
         id="path39" />
    </clipPath>
    <clipPath
       clipPathUnits="userSpaceOnUse"
       id="clipPath40">
      <path
         d="m 3.125,3.125 h 868.75 V 900 H 3.125 Z"
         transform="matrix(0.33852631,0,0,0.33852631,-19.963495,-170.61609)"
         clip-rule="evenodd"
         id="path40" />
    </clipPath>
    <clipPath
       clipPathUnits="userSpaceOnUse"
       id="clipPath41">
      <path
         d="m 3.125,3.125 h 868.75 V 900 H 3.125 Z"
         transform="matrix(0.33852631,0,0,0.33852631,-4.6197452,-187.61609)"
         clip-rule="evenodd"
         id="path41" />
    </clipPath>
    <clipPath
       clipPathUnits="userSpaceOnUse"
       id="clipPath42">
      <path
         d="m 3.125,3.125 h 868.75 V 900 H 3.125 Z"
         transform="matrix(0.33852631,0,0,0.33852631,-4.6197452,-203.61609)"
         clip-rule="evenodd"
         id="path42" />
    </clipPath>
    <clipPath
       clipPathUnits="userSpaceOnUse"
       id="clipPath43">
      <path
         d="m 3.125,3.125 h 868.75 V 900 H 3.125 Z"
         transform="matrix(0.33852631,0,0,0.33852631,-7.9634953,-203.61609)"
         clip-rule="evenodd"
         id="path43" />
    </clipPath>
    <clipPath
       clipPathUnits="userSpaceOnUse"
       id="clipPath44">
      <path
         d="m 3.125,3.125 h 868.75 V 900 H 3.125 Z"
         transform="matrix(0.33852631,0,0,0.33852631,-4.6197452,-220.61609)"
         clip-rule="evenodd"
         id="path44" />
    </clipPath>
    <clipPath
       clipPathUnits="userSpaceOnUse"
       id="clipPath45">
      <path
         d="m 3.125,3.125 h 868.75 V 900 H 3.125 Z"
         transform="matrix(0.33852631,0,0,0.33852631,-54.635375,-220.61609)"
         clip-rule="evenodd"
         id="path45" />
    </clipPath>
    <clipPath
       clipPathUnits="userSpaceOnUse"
       id="clipPath46">
      <path
         d="m 3.125,3.125 h 868.75 V 900 H 3.125 Z"
         transform="matrix(0.33852631,0,0,0.33852631,-4.6197452,-237.61609)"
         clip-rule="evenodd"
         id="path46" />
    </clipPath>
    <clipPath
       clipPathUnits="userSpaceOnUse"
       id="clipPath47">
      <path
         d="m 3.125,3.125 h 868.75 V 900 H 3.125 Z"
         transform="matrix(0.33852631,0,0,0.33852631,-51.307246,-237.61609)"
         clip-rule="evenodd"
         id="path47" />
    </clipPath>
    <clipPath
       clipPathUnits="userSpaceOnUse"
       id="clipPath48">
      <path
         d="m 3.125,3.125 h 868.75 V 900 H 3.125 Z"
         transform="matrix(0.33852631,0,0,0.33852631,-4.6197452,-255.61609)"
         clip-rule="evenodd"
         id="path48" />
    </clipPath>
  </defs>
  <g
     id="g1">
    <path
       id="path1"
       d="M 0,0 H 280 V 290 H 0 Z"
       style="fill:#ffffff;fill-opacity:1;fill-rule:nonzero;stroke:none"
       clip-path="url(#clipPath2)" />
    <path
       id="path3"
       d="m 127,3208 h 290 v 299 H 127 Z"
       style="fill:#ffffff;fill-opacity:1;fill-rule:nonzero;stroke:#000000;stroke-width:1;stroke-linecap:butt;stroke-linejoin:miter;stroke-miterlimit:10;stroke-dasharray:none;stroke-opacity:1"
       transform="matrix(0.94527362,0,0,0.94527362,-117.10074,-3029.4924)"
       clip-path="url(#clipPath4)" />
    <text
       id="text4"
       xml:space="preserve"
       transform="matrix(0.94527362,0,0,0.94527362,108.3618,19.487847)"
       clip-path="url(#clipPath5)"><tspan
         id="tspan4"
         style="font-style:italic;font-variant:normal;font-weight:normal;font-size:12px;font-family:Arial;writing-mode:lr-tb;fill:#000000;fill-opacity:1;fill-rule:nonzero;stroke:none"
         x="0"
         y="0">occurrences</tspan></text>
    <text
       id="text5"
       xml:space="preserve"
       transform="matrix(0.94527362,0,0,0.94527362,4.3669233,33.666952)"
       clip-path="url(#clipPath6)"><tspan
         id="tspan5"
         style="font-variant:normal;font-weight:700;font-size:12px;font-family:Arial;writing-mode:lr-tb;fill:#000000;fill-opacity:1;fill-rule:nonzero;stroke:none"
         x="0"
         y="0">^</tspan></text>
    <text
       id="text6"
       xml:space="preserve"
       transform="matrix(0.94527362,0,0,0.94527362,10.998609,33.666952)"
       clip-path="url(#clipPath7)"><tspan
         id="tspan6"
         style="font-variant:normal;font-weight:normal;font-size:12px;font-family:Arial;writing-mode:lr-tb;fill:#000000;fill-opacity:1;fill-rule:nonzero;stroke:none"
         x="0"
         y="0">occur2 : OccurDef2</tspan></text>
    <text
       id="text7"
       xml:space="preserve"
       transform="matrix(0.94527362,0,0,0.94527362,4.3669233,49.736603)"
       clip-path="url(#clipPath8)"><tspan
         id="tspan7"
         style="font-variant:normal;font-weight:normal;font-size:12px;font-family:Arial;writing-mode:lr-tb;fill:#000000;fill-opacity:1;fill-rule:nonzero;stroke:none"
         x="0"
         y="0">occur1 : OccurDef1 </tspan></text>
    <text
       id="text8"
       xml:space="preserve"
       transform="matrix(0.94527362,0,0,0.94527362,105.24534,49.736603)"
       clip-path="url(#clipPath9)"><tspan
         id="tspan8"
         style="font-variant:normal;font-weight:700;font-size:12px;font-family:Arial;writing-mode:lr-tb;fill:#000000;fill-opacity:1;fill-rule:nonzero;stroke:none"
         x="0"
         y="0">[</tspan></text>
    <text
       id="text9"
       xml:space="preserve"
       transform="matrix(0.94527362,0,0,0.94527362,109.02644,49.736603)"
       clip-path="url(#clipPath10)"><tspan
         id="tspan9"
         style="font-variant:normal;font-weight:normal;font-size:12px;font-family:Arial;writing-mode:lr-tb;fill:#000000;fill-opacity:1;fill-rule:nonzero;stroke:none"
         x="0"
         y="0">1..*</tspan></text>
    <text
       id="text10"
       xml:space="preserve"
       transform="matrix(0.94527362,0,0,0.94527362,126.05614,49.736603)"
       clip-path="url(#clipPath11)"><tspan
         id="tspan10"
         style="font-variant:normal;font-weight:700;font-size:12px;font-family:Arial;writing-mode:lr-tb;fill:#000000;fill-opacity:1;fill-rule:nonzero;stroke:none"
         x="0"
         y="0">]</tspan></text>
    <text
       id="text11"
       xml:space="preserve"
       transform="matrix(0.94527362,0,0,0.94527362,129.83723,49.736603)"
       clip-path="url(#clipPath12)"><tspan
         id="tspan11"
         style="font-variant:normal;font-weight:normal;font-size:12px;font-family:Arial;writing-mode:lr-tb;fill:#000000;fill-opacity:1;fill-rule:nonzero;stroke:none"
         x="0"
         y="0"> </tspan></text>
    <text
       id="text12"
       xml:space="preserve"
       transform="matrix(0.94527362,0,0,0.94527362,132.99799,49.736603)"
       clip-path="url(#clipPath13)"><tspan
         id="tspan12"
         style="font-variant:normal;font-weight:700;font-size:12px;font-family:Arial;writing-mode:lr-tb;fill:#000000;fill-opacity:1;fill-rule:nonzero;stroke:none"
         x="0"
         y="0">ordered nonunique</tspan></text>
    <g
       id="g13" />
    <text
       id="text13"
       xml:space="preserve"
       transform="matrix(0.94527362,0,0,0.94527362,4.3669233,65.806255)"
       clip-path="url(#clipPath14)"><tspan
         id="tspan13"
         style="font-variant:normal;font-weight:normal;font-size:12px;font-family:Arial;writing-mode:lr-tb;fill:#000000;fill-opacity:1;fill-rule:nonzero;stroke:none"
         x="0"
         y="0">occur3R : OccurDef3R </tspan></text>
    <text
       id="text14"
       xml:space="preserve"
       transform="matrix(0.94527362,0,0,0.94527362,121.62517,65.806255)"
       clip-path="url(#clipPath15)"><tspan
         id="tspan14"
         style="font-variant:normal;font-weight:700;font-size:12px;font-family:Arial;writing-mode:lr-tb;fill:#000000;fill-opacity:1;fill-rule:nonzero;stroke:none"
         x="0"
         y="0">redefines</tspan></text>
    <text
       id="text15"
       xml:space="preserve"
       transform="matrix(0.94527362,0,0,0.94527362,172.06437,65.806255)"
       clip-path="url(#clipPath16)"><tspan
         id="tspan15"
         style="font-variant:normal;font-weight:normal;font-size:12px;font-family:Arial;writing-mode:lr-tb;fill:#000000;fill-opacity:1;fill-rule:nonzero;stroke:none"
         x="0"
         y="0"> occur3</tspan></text>
    <text
       id="text16"
       xml:space="preserve"
       transform="matrix(0.94527362,0,0,0.94527362,4.3669233,81.875906)"
       clip-path="url(#clipPath17)"><tspan
         id="tspan16"
         style="font-variant:normal;font-weight:normal;font-size:12px;font-family:Arial;writing-mode:lr-tb;fill:#000000;fill-opacity:1;fill-rule:nonzero;stroke:none"
         x="0"
         y="0">occur4R : OccurDef4R </tspan></text>
    <text
       id="text17"
       xml:space="preserve"
       transform="matrix(0.94527362,0,0,0.94527362,121.62517,81.875906)"
       clip-path="url(#clipPath18)"><tspan
         id="tspan17"
         style="font-variant:normal;font-weight:700;font-size:12px;font-family:Arial;writing-mode:lr-tb;fill:#000000;fill-opacity:1;fill-rule:nonzero;stroke:none"
         x="0"
         y="0">:&gt;&gt;</tspan></text>
    <text
       id="text18"
       xml:space="preserve"
       transform="matrix(0.94527362,0,0,0.94527362,138.65486,81.875906)"
       clip-path="url(#clipPath19)"><tspan
         id="tspan18"
         style="font-variant:normal;font-weight:normal;font-size:12px;font-family:Arial;writing-mode:lr-tb;fill:#000000;fill-opacity:1;fill-rule:nonzero;stroke:none"
         x="0"
         y="0"> occur4</tspan></text>
    <text
       id="text19"
       xml:space="preserve"
       transform="matrix(0.94527362,0,0,0.94527362,4.3669233,97.945558)"
       clip-path="url(#clipPath20)"><tspan
         id="tspan19"
         style="font-variant:normal;font-weight:700;font-size:12px;font-family:Arial;writing-mode:lr-tb;fill:#000000;fill-opacity:1;fill-rule:nonzero;stroke:none"
         x="0"
         y="0">:&gt;&gt;</tspan></text>
    <text
       id="text20"
       xml:space="preserve"
       transform="matrix(0.94527362,0,0,0.94527362,21.396618,97.945558)"
       clip-path="url(#clipPath21)"><tspan
         id="tspan20"
         style="font-variant:normal;font-weight:normal;font-size:12px;font-family:Arial;writing-mode:lr-tb;fill:#000000;fill-opacity:1;fill-rule:nonzero;stroke:none"
         x="0"
         y="0"> occur5</tspan></text>
    <text
       id="text21"
       xml:space="preserve"
       transform="matrix(0.94527362,0,0,0.94527362,4.3669233,113.06994)"
       clip-path="url(#clipPath22)"><tspan
         id="tspan21"
         style="font-variant:normal;font-weight:normal;font-size:12px;font-family:Arial;writing-mode:lr-tb;fill:#000000;fill-opacity:1;fill-rule:nonzero;stroke:none"
         x="0"
         y="0">occur6S : OccurDef6S </tspan></text>
    <text
       id="text22"
       xml:space="preserve"
       transform="matrix(0.94527362,0,0,0.94527362,120.36972,113.06994)"
       clip-path="url(#clipPath23)"><tspan
         id="tspan22"
         style="font-variant:normal;font-weight:700;font-size:12px;font-family:Arial;writing-mode:lr-tb;fill:#000000;fill-opacity:1;fill-rule:nonzero;stroke:none"
         x="0"
         y="0">[</tspan></text>
    <text
       id="text23"
       xml:space="preserve"
       transform="matrix(0.94527362,0,0,0.94527362,124.15082,113.06994)"
       clip-path="url(#clipPath24)"><tspan
         id="tspan23"
         style="font-variant:normal;font-weight:normal;font-size:12px;font-family:Arial;writing-mode:lr-tb;fill:#000000;fill-opacity:1;fill-rule:nonzero;stroke:none"
         x="0"
         y="0">m</tspan></text>
    <text
       id="text24"
       xml:space="preserve"
       transform="matrix(0.94527362,0,0,0.94527362,133.60355,113.06994)"
       clip-path="url(#clipPath25)"><tspan
         id="tspan24"
         style="font-variant:normal;font-weight:700;font-size:12px;font-family:Arial;writing-mode:lr-tb;fill:#000000;fill-opacity:1;fill-rule:nonzero;stroke:none"
         x="0"
         y="0">]</tspan></text>
    <g
       id="g25" />
    <text
       id="text25"
       xml:space="preserve"
       transform="matrix(0.94527362,0,0,0.94527362,137.38465,113.06994)"
       clip-path="url(#clipPath26)"><tspan
         id="tspan25"
         style="font-variant:normal;font-weight:normal;font-size:12px;font-family:Arial;writing-mode:lr-tb;fill:#000000;fill-opacity:1;fill-rule:nonzero;stroke:none"
         x="0"
         y="0"> </tspan></text>
    <text
       id="text26"
       xml:space="preserve"
       transform="matrix(0.94527362,0,0,0.94527362,140.5454,113.06994)"
       clip-path="url(#clipPath27)"><tspan
         id="tspan26"
         style="font-variant:normal;font-weight:700;font-size:12px;font-family:Arial;writing-mode:lr-tb;fill:#000000;fill-opacity:1;fill-rule:nonzero;stroke:none"
         x="0"
         y="0">subsets</tspan></text>
    <text
       id="text27"
       xml:space="preserve"
       transform="matrix(0.94527362,0,0,0.94527362,183.42243,113.06994)"
       clip-path="url(#clipPath28)"><tspan
         id="tspan27"
         style="font-variant:normal;font-weight:normal;font-size:12px;font-family:Arial;writing-mode:lr-tb;fill:#000000;fill-opacity:1;fill-rule:nonzero;stroke:none"
         x="0"
         y="0"> occur6</tspan></text>
    <text
       id="text28"
       xml:space="preserve"
       transform="matrix(0.94527362,0,0,0.94527362,4.3669233,129.13959)"
       clip-path="url(#clipPath29)"><tspan
         id="tspan28"
         style="font-variant:normal;font-weight:normal;font-size:12px;font-family:Arial;writing-mode:lr-tb;fill:#000000;fill-opacity:1;fill-rule:nonzero;stroke:none"
         x="0"
         y="0">occur7S : OccurDef7S </tspan></text>
    <text
       id="text29"
       xml:space="preserve"
       transform="matrix(0.94527362,0,0,0.94527362,120.36972,129.13959)"
       clip-path="url(#clipPath30)"><tspan
         id="tspan29"
         style="font-variant:normal;font-weight:700;font-size:12px;font-family:Arial;writing-mode:lr-tb;fill:#000000;fill-opacity:1;fill-rule:nonzero;stroke:none"
         x="0"
         y="0">[</tspan></text>
    <text
       id="text30"
       xml:space="preserve"
       transform="matrix(0.94527362,0,0,0.94527362,124.15082,129.13959)"
       clip-path="url(#clipPath31)"><tspan
         id="tspan30"
         style="font-variant:normal;font-weight:normal;font-size:12px;font-family:Arial;writing-mode:lr-tb;fill:#000000;fill-opacity:1;fill-rule:nonzero;stroke:none"
         x="0"
         y="0">m</tspan></text>
    <text
       id="text31"
       xml:space="preserve"
       transform="matrix(0.94527362,0,0,0.94527362,133.60355,129.13959)"
       clip-path="url(#clipPath32)"><tspan
         id="tspan31"
         style="font-variant:normal;font-weight:700;font-size:12px;font-family:Arial;writing-mode:lr-tb;fill:#000000;fill-opacity:1;fill-rule:nonzero;stroke:none"
         x="0"
         y="0">]</tspan></text>
    <text
       id="text32"
       xml:space="preserve"
       transform="matrix(0.94527362,0,0,0.94527362,137.38465,129.13959)"
       clip-path="url(#clipPath33)"><tspan
         id="tspan32"
         style="font-variant:normal;font-weight:normal;font-size:12px;font-family:Arial;writing-mode:lr-tb;fill:#000000;fill-opacity:1;fill-rule:nonzero;stroke:none"
         x="0"
         y="0"> </tspan></text>
    <text
       id="text33"
       xml:space="preserve"
       transform="matrix(0.94527362,0,0,0.94527362,140.5454,129.13959)"
       clip-path="url(#clipPath34)"><tspan
         id="tspan33"
         style="font-variant:normal;font-weight:700;font-size:12px;font-family:Arial;writing-mode:lr-tb;fill:#000000;fill-opacity:1;fill-rule:nonzero;stroke:none"
         x="0"
         y="0">:&gt;</tspan></text>
    <text
       id="text34"
       xml:space="preserve"
       transform="matrix(0.94527362,0,0,0.94527362,150.95819,129.13959)"
       clip-path="url(#clipPath35)"><tspan
         id="tspan34"
         style="font-variant:normal;font-weight:normal;font-size:12px;font-family:Arial;writing-mode:lr-tb;fill:#000000;fill-opacity:1;fill-rule:nonzero;stroke:none"
         x="0"
         y="0"> occur7</tspan></text>
    <text
       id="text35"
       xml:space="preserve"
       transform="matrix(0.94527362,0,0,0.94527362,4.3669233,145.20924)"
       clip-path="url(#clipPath36)"><tspan
         id="tspan35"
         style="font-variant:normal;font-weight:normal;font-size:12px;font-family:Arial;writing-mode:lr-tb;fill:#000000;fill-opacity:1;fill-rule:nonzero;stroke:none"
         x="0"
         y="0">occur8R </tspan></text>
    <text
       id="text36"
       xml:space="preserve"
       transform="matrix(0.94527362,0,0,0.94527362,49.769597,145.20924)"
       clip-path="url(#clipPath37)"><tspan
         id="tspan36"
         style="font-variant:normal;font-weight:700;font-size:12px;font-family:Arial;writing-mode:lr-tb;fill:#000000;fill-opacity:1;fill-rule:nonzero;stroke:none"
         x="0"
         y="0">=</tspan></text>
    <text
       id="text37"
       xml:space="preserve"
       transform="matrix(0.94527362,0,0,0.94527362,56.401287,145.20924)"
       clip-path="url(#clipPath38)"><tspan
         id="tspan37"
         style="font-variant:normal;font-weight:normal;font-size:12px;font-family:Arial;writing-mode:lr-tb;fill:#000000;fill-opacity:1;fill-rule:nonzero;stroke:none"
         x="0"
         y="0"> occur8</tspan></text>
    <text
       id="text38"
       xml:space="preserve"
       transform="matrix(0.94527362,0,0,0.94527362,4.3669233,161.27889)"
       clip-path="url(#clipPath39)"><tspan
         id="tspan38"
         style="font-variant:normal;font-weight:700;font-size:12px;font-family:Arial;writing-mode:lr-tb;fill:#000000;fill-opacity:1;fill-rule:nonzero;stroke:none"
         x="0"
         y="0">ref</tspan></text>
    <g
       id="g39" />
    <text
       id="text39"
       xml:space="preserve"
       transform="matrix(0.94527362,0,0,0.94527362,18.870965,161.27889)"
       clip-path="url(#clipPath40)"><tspan
         id="tspan39"
         style="font-variant:normal;font-weight:normal;font-size:12px;font-family:Arial;writing-mode:lr-tb;fill:#000000;fill-opacity:1;fill-rule:nonzero;stroke:none"
         x="0"
         y="0"> occur9 : OccurDef9</tspan></text>
    <text
       id="text40"
       xml:space="preserve"
       transform="matrix(0.94527362,0,0,0.94527362,4.3669233,177.34854)"
       clip-path="url(#clipPath41)"><tspan
         id="tspan40"
         style="font-variant:normal;font-weight:normal;font-size:12px;font-family:Arial;writing-mode:lr-tb;fill:#000000;fill-opacity:1;fill-rule:nonzero;stroke:none"
         x="0"
         y="0">occur 10</tspan></text>
    <text
       id="text41"
       xml:space="preserve"
       transform="matrix(0.94527362,0,0,0.94527362,4.3669233,192.47292)"
       clip-path="url(#clipPath42)"><tspan
         id="tspan41"
         style="font-variant:normal;font-weight:700;font-size:12px;font-family:Arial;writing-mode:lr-tb;fill:#000000;fill-opacity:1;fill-rule:nonzero;stroke:none"
         x="0"
         y="0">/</tspan></text>
    <text
       id="text42"
       xml:space="preserve"
       transform="matrix(0.94527362,0,0,0.94527362,7.527682,192.47292)"
       clip-path="url(#clipPath43)"><tspan
         id="tspan42"
         style="font-variant:normal;font-weight:normal;font-size:12px;font-family:Arial;writing-mode:lr-tb;fill:#000000;fill-opacity:1;fill-rule:nonzero;stroke:none"
         x="0"
         dx="0 0 0 0 0 0 -0.89062494"
         y="0">occur11</tspan></text>
    <text
       id="text43"
       xml:space="preserve"
       transform="matrix(0.94527362,0,0,0.94527362,4.3669233,208.54257)"
       clip-path="url(#clipPath44)"><tspan
         id="tspan43"
         style="font-variant:normal;font-weight:700;font-size:12px;font-family:Arial;writing-mode:lr-tb;fill:#000000;fill-opacity:1;fill-rule:nonzero;stroke:none"
         x="0"
         y="0">readonly</tspan></text>
    <text
       id="text44"
       xml:space="preserve"
       transform="matrix(0.94527362,0,0,0.94527362,51.645379,208.54257)"
       clip-path="url(#clipPath45)"><tspan
         id="tspan44"
         style="font-variant:normal;font-weight:normal;font-size:12px;font-family:Arial;writing-mode:lr-tb;fill:#000000;fill-opacity:1;fill-rule:nonzero;stroke:none"
         x="0"
         y="0"> occur12</tspan></text>
    <text
       id="text45"
       xml:space="preserve"
       transform="matrix(0.94527362,0,0,0.94527362,4.3669233,224.61222)"
       clip-path="url(#clipPath46)"><tspan
         id="tspan45"
         style="font-variant:normal;font-weight:700;font-size:12px;font-family:Arial;writing-mode:lr-tb;fill:#000000;fill-opacity:1;fill-rule:nonzero;stroke:none"
         x="0"
         y="0">abstract</tspan></text>
    <text
       id="text46"
       xml:space="preserve"
       transform="matrix(0.94527362,0,0,0.94527362,48.499386,224.61222)"
       clip-path="url(#clipPath47)"><tspan
         id="tspan46"
         style="font-variant:normal;font-weight:normal;font-size:12px;font-family:Arial;writing-mode:lr-tb;fill:#000000;fill-opacity:1;fill-rule:nonzero;stroke:none"
         x="0"
         y="0"> occur13</tspan></text>
    <text
       id="text47"
       xml:space="preserve"
       transform="matrix(0.94527362,0,0,0.94527362,4.3669233,241.62715)"
       clip-path="url(#clipPath48)"><tspan
         id="tspan47"
         style="font-variant:normal;font-weight:700;font-size:14px;font-family:Arial;writing-mode:lr-tb;fill:#000000;fill-opacity:1;fill-rule:nonzero;stroke:none"
         x="0"
         y="0">...</tspan></text>
  </g>
</svg>
