<?xml version="1.0" encoding="UTF-8" standalone="no"?>
<!-- Created with Inkscape (http://www.inkscape.org/) -->

<svg
   version="1.1"
   id="svg1"
   width="240"
   height="40"
   viewBox="0 0 240 40"
   xmlns="http://www.w3.org/2000/svg"
   xmlns:svg="http://www.w3.org/2000/svg">
  <defs
     id="defs1">
    <clipPath
       clipPathUnits="userSpaceOnUse"
       id="clipPath2">
      <path
         d="M 0,0 H 750 V 125.97656 H 0 Z"
         transform="scale(0.31999999)"
         clip-rule="evenodd"
         id="path2" />
    </clipPath>
    <clipPath
       clipPathUnits="userSpaceOnUse"
       id="clipPath4">
      <path
         d="m 3.125,0 h 743.75 V 125.97656 H 3.125 Z"
         transform="matrix(0.33815073,0,0,0.33815073,526.84936,7747.0001)"
         clip-rule="evenodd"
         id="path4" />
    </clipPath>
    <clipPath
       clipPathUnits="userSpaceOnUse"
       id="clipPath5">
      <path
         d="m 3.125,0 h 743.75 V 125.97656 H 3.125 Z"
         transform="matrix(0.33815073,0,0,0.33815073,-78.666223,-16.499788)"
         clip-rule="evenodd"
         id="path5" />
    </clipPath>
    <clipPath
       clipPathUnits="userSpaceOnUse"
       id="clipPath6">
      <path
         d="m 3.125,0 h 743.75 V 125.97656 H 3.125 Z"
         transform="matrix(0.33815073,0,0,0.33815073,-18.213092,-36.499787)"
         clip-rule="evenodd"
         id="path6" />
    </clipPath>
  </defs>
  <g
     id="g1">
    <path
       id="path1"
       d="M 0,0 H 240 V 40 H 0 Z"
       style="fill:#ffffff;fill-opacity:1;fill-rule:nonzero;stroke:none"
       clip-path="url(#clipPath2)" />
    <path
       id="path3"
       d="m 538,7748 h 231.01001 c 0.52521,0 1.04541,0.051 1.56061,0.1533 0.5152,0.1021 1.01544,0.2539 1.50073,0.4546 0.48529,0.2007 0.94635,0.4473 1.38306,0.7393 0.43676,0.2915 0.84088,0.6235 1.21234,0.9951 0.3714,0.3711 0.703,0.7749 0.99481,1.2119 0.29181,0.437 0.53827,0.8979 0.73938,1.3833 0.20099,0.4854 0.35278,0.9858 0.45526,1.501 0.10248,0.5151 0.15375,1.0356 0.15381,1.5615 v 24 c -6e-5,0.5249 -0.0513,1.0449 -0.15381,1.5601 -0.10248,0.5151 -0.25427,1.0151 -0.45526,1.5004 -0.20111,0.4854 -0.44757,0.9463 -0.73938,1.3829 -0.29181,0.437 -0.62341,0.8413 -0.99481,1.2129 -0.37146,0.371 -0.77558,0.7026 -1.21234,0.9946 -0.43671,0.2915 -0.89777,0.5381 -1.38306,0.7392 -0.48529,0.2012 -0.98553,0.3531 -1.50073,0.4556 -0.5152,0.1025 -1.0354,0.1538 -1.56061,0.1543 L 538,7788 c -0.52533,-5e-4 -1.04559,-0.052 -1.56079,-0.1543 -0.5152,-0.1025 -1.01544,-0.2544 -1.50073,-0.4556 -0.48529,-0.2011 -0.94635,-0.4477 -1.38312,-0.7392 -0.43671,-0.292 -0.84082,-0.6236 -1.21222,-0.9946 -0.37146,-0.3716 -0.70313,-0.7759 -0.99493,-1.2129 -0.29181,-0.4366 -0.53827,-0.8975 -0.73926,-1.3829 -0.20105,-0.4853 -0.35279,-0.9853 -0.45526,-1.5004 C 530.05121,7781.0449 530,7780.5249 530,7780 v -24 c 0,-0.5259 0.0512,-1.0464 0.15369,-1.5615 0.10247,-0.5152 0.25421,-1.0156 0.4552,-1.501 0.20105,-0.4854 0.44751,-0.9463 0.73932,-1.3833 0.2918,-0.437 0.62347,-0.8408 0.99493,-1.2119 0.3714,-0.3716 0.77551,-0.7036 1.21222,-0.9951 0.43677,-0.292 0.89783,-0.5386 1.38312,-0.7393 0.48529,-0.2007 0.98553,-0.3525 1.50073,-0.4546 0.5152,-0.102 1.03546,-0.1533 1.56079,-0.1533 z"
       style="fill:#ffffff;fill-opacity:1;fill-rule:nonzero;stroke:#000000;stroke-width:1;stroke-linecap:butt;stroke-linejoin:miter;stroke-miterlimit:10;stroke-dasharray:none;stroke-opacity:1"
       transform="matrix(0.94632351,0,0,0.94632351,-498.56994,-7331.1683)"
       clip-path="url(#clipPath4)" />
    <text
       id="text4"
       xml:space="preserve"
       transform="matrix(0.94632351,0,0,0.94632351,74.443696,15.614137)"
       clip-path="url(#clipPath5)"><tspan
         id="tspan4"
         style="font-variant:normal;font-weight:normal;font-size:16px;font-family:Arial;writing-mode:lr-tb;fill:#000000;fill-opacity:1;fill-rule:nonzero;stroke:none"
         x="0"
         y="0">«occurrence»</tspan></text>
    <text
       id="text5"
       xml:space="preserve"
       transform="matrix(0.94632351,0,0,0.94632351,17.235477,34.540607)"
       clip-path="url(#clipPath6)"><tspan
         id="tspan5"
         style="font-variant:normal;font-weight:normal;font-size:16px;font-family:Arial;writing-mode:lr-tb;fill:#000000;fill-opacity:1;fill-rule:nonzero;stroke:none"
         x="0"
         y="0">occurrence1 : OccurrenceDef1</tspan></text>
  </g>
</svg>
