<?xml version="1.0" encoding="UTF-8" standalone="no"?>
<!-- Created with Inkscape (http://www.inkscape.org/) -->

<svg
   version="1.1"
   id="svg1"
   width="181.44"
   height="137.28"
   viewBox="0 0 181.44 137.28"
   xmlns="http://www.w3.org/2000/svg"
   xmlns:svg="http://www.w3.org/2000/svg">
  <defs
     id="defs1">
    <clipPath
       clipPathUnits="userSpaceOnUse"
       id="clipPath2">
      <path
         d="M 0,0 H 566.99219 V 429.00391 H 0 Z"
         transform="scale(0.31999999)"
         clip-rule="evenodd"
         id="path2" />
    </clipPath>
    <clipPath
       clipPathUnits="userSpaceOnUse"
       id="clipPath4">
      <path
         d="m 3.125,3.125 h 562.5 v 425 H 3.125 Z"
         transform="matrix(0.34092862,0,0,0.34092862,1277.3582,3997.1384)"
         clip-rule="evenodd"
         id="path4" />
    </clipPath>
    <clipPath
       clipPathUnits="userSpaceOnUse"
       id="clipPath5">
      <path
         d="m 3.125,3.125 h 562.5 v 425 H 3.125 Z"
         transform="matrix(0.34092862,0,0,0.34092862,-73.954277,-23.361544)"
         clip-rule="evenodd"
         id="path5" />
    </clipPath>
    <clipPath
       clipPathUnits="userSpaceOnUse"
       id="clipPath6">
      <path
         d="m 3.125,3.125 h 562.5 v 425 H 3.125 Z"
         transform="matrix(0.34092862,0,0,0.34092862,-78.407406,-43.361544)"
         clip-rule="evenodd"
         id="path6" />
    </clipPath>
    <clipPath
       clipPathUnits="userSpaceOnUse"
       id="clipPath8">
      <path
         d="m 3.125,3.125 h 562.5 v 425 H 3.125 Z"
         transform="matrix(0.34092862,0,0,0.34092862,1277.3582,3997.1384)"
         clip-rule="evenodd"
         id="path8" />
    </clipPath>
    <clipPath
       clipPathUnits="userSpaceOnUse"
       id="clipPath9">
      <path
         d="m 3.125,3.125 h 562.5 v 425 H 3.125 Z"
         transform="matrix(0.34092862,0,0,0.34092862,-26.376156,-114.36155)"
         clip-rule="evenodd"
         id="path9" />
    </clipPath>
    <clipPath
       clipPathUnits="userSpaceOnUse"
       id="clipPath10">
      <path
         d="m 3.125,3.125 h 562.5 v 425 H 3.125 Z"
         transform="matrix(0.34092862,0,0,0.34092862,-72.610527,-134.36154)"
         clip-rule="evenodd"
         id="path10" />
    </clipPath>
    <clipPath
       clipPathUnits="userSpaceOnUse"
       id="clipPath12">
      <path
         d="m 3.125,3.125 h 562.5 v 425 H 3.125 Z"
         transform="matrix(0.34092862,0,0,0.34092862,1277.3582,3997.1384)"
         clip-rule="evenodd"
         id="path12" />
    </clipPath>
    <clipPath
       clipPathUnits="userSpaceOnUse"
       id="clipPath14">
      <path
         d="m 3.125,3.125 h 562.5 v 425 H 3.125 Z"
         transform="matrix(0.34092862,0,0,0.34092862,1277.3582,3997.1384)"
         clip-rule="evenodd"
         id="path14" />
    </clipPath>
    <clipPath
       clipPathUnits="userSpaceOnUse"
       id="clipPath15">
      <path
         d="m 3.125,3.125 h 562.5 v 425 H 3.125 Z"
         transform="matrix(0.34092862,0,0,0.34092862,-98.141776,-76.361544)"
         clip-rule="evenodd"
         id="path15" />
    </clipPath>
  </defs>
  <g
     id="g1">
    <path
       id="path1"
       d="M 0,0 H 181 V 137 H 0 Z"
       style="fill:#ffffff;fill-opacity:1;fill-rule:nonzero;stroke:none"
       clip-path="url(#clipPath2)" />
    <path
       id="path3"
       d="m 1323.52,4000.27 h 100.3999 c 0.6435,0 1.2808,0.063 1.9119,0.1883 0.631,0.1254 1.2438,0.3112 1.8381,0.5573 0.5946,0.2464 1.1595,0.5481 1.6945,0.9058 0.535,0.3574 1.03,0.7637 1.4851,1.2187 0.4549,0.4549 0.8612,0.95 1.2187,1.4849 0.3576,0.5352 0.6593,1.1001 0.9056,1.6946 0.2463,0.5942 0.4323,1.207 0.5579,1.8384 0.1257,0.6311 0.1884,1.2685 0.1883,1.9121 v 29.3999 c 10e-5,0.6433 -0.063,1.2805 -0.1883,1.9116 -0.1256,0.6311 -0.3115,1.2436 -0.5578,1.8381 -0.2462,0.5945 -0.548,1.1595 -0.9055,1.6946 -0.3576,0.5352 -0.764,1.0303 -1.2189,1.4854 -0.4551,0.4548 -0.9501,0.8608 -1.4851,1.2185 -0.535,0.3574 -1.0999,0.6591 -1.6945,0.9052 -0.5943,0.2464 -1.2071,0.4322 -1.8381,0.5577 -0.6311,0.1259 -1.2684,0.1889 -1.9119,0.1889 H 1323.52 c -0.6434,0 -1.2807,-0.063 -1.912,-0.1887 -0.6311,-0.1255 -1.2439,-0.3113 -1.8385,-0.5576 -0.5944,-0.2464 -1.1591,-0.5481 -1.6942,-0.9055 -0.535,-0.3577 -1.0301,-0.764 -1.4851,-1.2188 -0.4551,-0.4551 -0.8613,-0.9502 -1.2189,-1.4853 -0.3574,-0.5349 -0.6593,-1.0999 -0.9055,-1.6944 -0.2462,-0.5945 -0.4321,-1.207 -0.5576,-1.8381 -0.1255,-0.6311 -0.1882,-1.2683 -0.1882,-1.9116 v -29.3999 c 0,-0.6436 0.063,-1.281 0.1882,-1.9121 0.1255,-0.6314 0.3114,-1.2442 0.5576,-1.8384 0.2462,-0.5945 0.5481,-1.1594 0.9055,-1.6944 0.3576,-0.5351 0.7638,-1.0302 1.2189,-1.4851 0.455,-0.455 0.9501,-0.8613 1.4851,-1.2187 0.5351,-0.3577 1.0998,-0.6594 1.6942,-0.9058 0.5946,-0.2461 1.2074,-0.4319 1.8385,-0.5573 0.6313,-0.1255 1.2686,-0.1883 1.912,-0.1883 z"
       style="fill:#ffffff;fill-opacity:1;fill-rule:nonzero;stroke:#000000;stroke-width:1;stroke-linecap:butt;stroke-linejoin:miter;stroke-miterlimit:10;stroke-dasharray:none;stroke-opacity:1"
       transform="matrix(0.93861286,0,0,0.93861286,-1198.9448,-3751.7655)"
       clip-path="url(#clipPath4)" />
    <text
       id="text4"
       xml:space="preserve"
       transform="matrix(0.93861286,0,0,0.93861286,69.414435,21.927446)"
       clip-path="url(#clipPath5)"><tspan
         id="tspan4"
         style="font-variant:normal;font-weight:normal;font-size:16px;font-family:Arial;writing-mode:lr-tb;fill:#000000;fill-opacity:1;fill-rule:nonzero;stroke:none"
         x="0"
         y="0">«part»</tspan></text>
    <text
       id="text5"
       xml:space="preserve"
       transform="matrix(0.93861286,0,0,0.93861286,73.5942,40.699703)"
       clip-path="url(#clipPath6)"><tspan
         id="tspan5"
         style="font-variant:normal;font-weight:normal;font-size:16px;font-family:Arial;writing-mode:lr-tb;fill:#000000;fill-opacity:1;fill-rule:nonzero;stroke:none"
         x="0"
         y="0">part1</tspan></text>
    <path
       id="path7"
       d="m 1303.52,4091.3301 h 140.3999 c 0.6435,2e-4 1.2807,0.063 1.9118,0.1885 0.6311,0.1252 1.2439,0.311 1.8383,0.5573 0.5947,0.2461 1.1594,0.5479 1.6944,0.9055 0.535,0.3572 1.03,0.7635 1.4851,1.2186 0.4549,0.4548 0.8612,0.9499 1.2187,1.4848 0.3575,0.5349 0.6593,1.0999 0.9056,1.6941 0.2463,0.5947 0.4323,1.2075 0.5579,1.8389 0.1257,0.6313 0.1884,1.2685 0.1883,1.9121 v 29.4004 c 10e-5,0.643 -0.063,1.2802 -0.1883,1.9116 -0.1256,0.6309 -0.3115,1.2436 -0.5578,1.8384 -0.2462,0.5942 -0.5481,1.1592 -0.9057,1.6943 -0.3575,0.5347 -0.7638,1.0298 -1.2187,1.4849 -0.4551,0.4546 -0.9501,0.8608 -1.4851,1.2187 -0.535,0.357 -1.0999,0.6587 -1.6945,0.9053 -0.5945,0.2461 -1.2072,0.4321 -1.8382,0.5581 -0.6311,0.1255 -1.2683,0.188 -1.9118,0.1885 H 1303.52 c -0.6437,-5e-4 -1.281,-0.063 -1.912,-0.1885 -0.6312,-0.126 -1.2441,-0.312 -1.8385,-0.5581 -0.5946,-0.2466 -1.1593,-0.5483 -1.6943,-0.9058 -0.535,-0.3574 -1.03,-0.7636 -1.4851,-1.2182 -0.4551,-0.4551 -0.8613,-0.9502 -1.2188,-1.4854 -0.3574,-0.5346 -0.6593,-1.0996 -0.9055,-1.6938 -0.2462,-0.5948 -0.4321,-1.2075 -0.5576,-1.8384 -0.1255,-0.6314 -0.1882,-1.2686 -0.1882,-1.9116 v -29.4004 c 0,-0.6436 0.063,-1.2808 0.1882,-1.9121 0.1255,-0.6314 0.3114,-1.2442 0.5576,-1.8384 0.2462,-0.5947 0.5481,-1.1597 0.9055,-1.6946 0.3576,-0.5349 0.764,-1.0298 1.219,-1.4846 0.455,-0.4548 0.95,-0.8611 1.485,-1.2188 0.5349,-0.3576 1.0996,-0.6594 1.6942,-0.9057 0.5944,-0.2464 1.2073,-0.4321 1.8385,-0.5574 0.631,-0.1252 1.2683,-0.188 1.912,-0.1882 z"
       style="fill:#ffffff;fill-opacity:1;fill-rule:nonzero;stroke:#000000;stroke-width:1;stroke-linecap:butt;stroke-linejoin:miter;stroke-miterlimit:10;stroke-dasharray:none;stroke-opacity:1"
       transform="matrix(0.93861286,0,0,0.93861286,-1198.9448,-3751.7655)"
       clip-path="url(#clipPath8)" />
    <text
       id="text8"
       xml:space="preserve"
       transform="matrix(0.93861286,0,0,0.93861286,24.756999,107.34122)"
       clip-path="url(#clipPath9)"><tspan
         id="tspan8"
         style="font-variant:normal;font-weight:normal;font-size:16px;font-family:Arial;writing-mode:lr-tb;fill:#000000;fill-opacity:1;fill-rule:nonzero;stroke:none"
         x="0"
         y="0">«event occurrence»</tspan></text>
    <text
       id="text9"
       xml:space="preserve"
       transform="matrix(0.93861286,0,0,0.93861286,68.153174,126.11347)"
       clip-path="url(#clipPath10)"><tspan
         id="tspan9"
         style="font-variant:normal;font-weight:normal;font-size:16px;font-family:Arial;writing-mode:lr-tb;fill:#000000;fill-opacity:1;fill-rule:nonzero;stroke:none"
         x="0"
         y="0">event1</tspan></text>
    <path
       id="path11"
       d="m 1373.72,4049.27 v 39.8301"
       style="fill:none;stroke:#000000;stroke-width:1;stroke-linecap:butt;stroke-linejoin:miter;stroke-miterlimit:10;stroke-dasharray:none;stroke-opacity:1"
       transform="matrix(0.93861286,0,0,0.93861286,-1198.9448,-3751.7655)"
       clip-path="url(#clipPath12)" />
    <path
       id="path13"
       d="m 1369.22,4081.22 4.5,9 4.5,-9"
       style="fill:none;stroke:#000000;stroke-width:1;stroke-linecap:butt;stroke-linejoin:miter;stroke-miterlimit:10;stroke-dasharray:none;stroke-opacity:1"
       transform="matrix(0.93861286,0,0,0.93861286,-1198.9448,-3751.7655)"
       clip-path="url(#clipPath14)" />
    <text
       id="text14"
       xml:space="preserve"
       transform="matrix(0.93861286,0,0,0.93861286,92.117133,71.673927)"
       clip-path="url(#clipPath15)"><tspan
         id="tspan14"
         style="font-variant:normal;font-weight:normal;font-size:12px;font-family:Arial;writing-mode:lr-tb;fill:#000000;fill-opacity:1;fill-rule:nonzero;stroke:none"
         x="0"
         y="0">«event»</tspan></text>
  </g>
</svg>
