<?xml version="1.0" encoding="UTF-8" standalone="no"?>
<!-- Created with Inkscape (http://www.inkscape.org/) -->

<svg
   version="1.1"
   id="svg1"
   width="384"
   height="232"
   viewBox="0 0 384 232"
   xmlns="http://www.w3.org/2000/svg"
   xmlns:svg="http://www.w3.org/2000/svg">
  <defs
     id="defs1">
    <clipPath
       clipPathUnits="userSpaceOnUse"
       id="clipPath2">
      <path
         d="M 0,0 H 1200 V 725.97656 H 0 Z"
         transform="scale(0.31999999)"
         clip-rule="evenodd"
         id="path2" />
    </clipPath>
    <clipPath
       clipPathUnits="userSpaceOnUse"
       id="clipPath4">
      <path
         d="m 3.125,0 h 1193.75 V 725 H 3.125 Z"
         transform="matrix(0.33661743,0,0,0.33661743,277.43594,4428.4479)"
         clip-rule="evenodd"
         id="path4" />
    </clipPath>
    <clipPath
       clipPathUnits="userSpaceOnUse"
       id="clipPath6">
      <path
         d="m 3.125,0 h 1193.75 V 725 H 3.125 Z"
         transform="matrix(0.33661743,0,0,0.33661743,277.43594,4428.4479)"
         clip-rule="evenodd"
         id="path6" />
    </clipPath>
    <clipPath
       clipPathUnits="userSpaceOnUse"
       id="clipPath7">
      <path
         d="m 3.125,0 h 1193.75 V 725 H 3.125 Z"
         transform="matrix(0.33661743,0,0,0.33661743,-92.548447,-127.05185)"
         clip-rule="evenodd"
         id="path7" />
    </clipPath>
    <clipPath
       clipPathUnits="userSpaceOnUse"
       id="clipPath8">
      <path
         d="m 3.125,0 h 1193.75 V 725 H 3.125 Z"
         transform="matrix(0.33661743,0,0,0.33661743,-96.985947,-147.05185)"
         clip-rule="evenodd"
         id="path8" />
    </clipPath>
    <clipPath
       clipPathUnits="userSpaceOnUse"
       id="clipPath10">
      <path
         d="m 3.125,0 h 1193.75 V 725 H 3.125 Z"
         transform="matrix(0.33661743,0,0,0.33661743,277.43594,4428.4479)"
         clip-rule="evenodd"
         id="path10" />
    </clipPath>
    <clipPath
       clipPathUnits="userSpaceOnUse"
       id="clipPath11">
      <path
         d="m 3.125,0 h 1193.75 V 725 H 3.125 Z"
         transform="matrix(0.33661743,0,0,0.33661743,-21.204697,-207.05184)"
         clip-rule="evenodd"
         id="path11" />
    </clipPath>
    <clipPath
       clipPathUnits="userSpaceOnUse"
       id="clipPath12">
      <path
         d="m 3.125,0 h 1193.75 V 725 H 3.125 Z"
         transform="matrix(0.33661743,0,0,0.33661743,-25.642198,-227.05184)"
         clip-rule="evenodd"
         id="path12" />
    </clipPath>
    <clipPath
       clipPathUnits="userSpaceOnUse"
       id="clipPath14">
      <path
         d="m 3.125,0 h 1193.75 V 725 H 3.125 Z"
         transform="matrix(0.33661743,0,0,0.33661743,277.43594,4428.4479)"
         clip-rule="evenodd"
         id="path14" />
    </clipPath>
    <clipPath
       clipPathUnits="userSpaceOnUse"
       id="clipPath15">
      <path
         d="m 3.125,0 h 1193.75 V 725 H 3.125 Z"
         transform="matrix(0.33661743,0,0,0.33661743,-299.54845,-127.05185)"
         clip-rule="evenodd"
         id="path15" />
    </clipPath>
    <clipPath
       clipPathUnits="userSpaceOnUse"
       id="clipPath16">
      <path
         d="m 3.125,0 h 1193.75 V 725 H 3.125 Z"
         transform="matrix(0.33661743,0,0,0.33661743,-303.98595,-147.05185)"
         clip-rule="evenodd"
         id="path16" />
    </clipPath>
    <clipPath
       clipPathUnits="userSpaceOnUse"
       id="clipPath18">
      <path
         d="m 3.125,0 h 1193.75 V 725 H 3.125 Z"
         transform="matrix(0.33661743,0,0,0.33661743,277.43594,4428.4479)"
         clip-rule="evenodd"
         id="path18" />
    </clipPath>
    <clipPath
       clipPathUnits="userSpaceOnUse"
       id="clipPath19">
      <path
         d="m 3.125,0 h 1193.75 V 725 H 3.125 Z"
         transform="matrix(0.33661743,0,0,0.33661743,-151.20469,-207.05184)"
         clip-rule="evenodd"
         id="path19" />
    </clipPath>
    <clipPath
       clipPathUnits="userSpaceOnUse"
       id="clipPath20">
      <path
         d="m 3.125,0 h 1193.75 V 725 H 3.125 Z"
         transform="matrix(0.33661743,0,0,0.33661743,-155.6422,-227.05184)"
         clip-rule="evenodd"
         id="path20" />
    </clipPath>
    <clipPath
       clipPathUnits="userSpaceOnUse"
       id="clipPath22">
      <path
         d="m 3.125,0 h 1193.75 V 725 H 3.125 Z"
         transform="matrix(0.33661743,0,0,0.33661743,277.43594,4428.4479)"
         clip-rule="evenodd"
         id="path22" />
    </clipPath>
    <clipPath
       clipPathUnits="userSpaceOnUse"
       id="clipPath23">
      <path
         d="m 3.125,0 h 1193.75 V 725 H 3.125 Z"
         transform="matrix(0.33661743,0,0,0.33661743,-179.29845,-37.051844)"
         clip-rule="evenodd"
         id="path23" />
    </clipPath>
    <clipPath
       clipPathUnits="userSpaceOnUse"
       id="clipPath24">
      <path
         d="m 3.125,0 h 1193.75 V 725 H 3.125 Z"
         transform="matrix(0.33661743,0,0,0.33661743,-154.84532,-57.051844)"
         clip-rule="evenodd"
         id="path24" />
    </clipPath>
    <clipPath
       clipPathUnits="userSpaceOnUse"
       id="clipPath26">
      <path
         d="m 3.125,0 h 1193.75 V 725 H 3.125 Z"
         transform="matrix(-0.33661743,0,0,-0.33661743,538.76409,4585.5516)"
         clip-rule="evenodd"
         id="path26" />
    </clipPath>
    <clipPath
       clipPathUnits="userSpaceOnUse"
       id="clipPath28">
      <path
         d="m 3.125,0 h 1193.75 V 725 H 3.125 Z"
         transform="matrix(0.33661743,0,0,0.33661743,277.43594,4428.4479)"
         clip-rule="evenodd"
         id="path28" />
    </clipPath>
    <clipPath
       clipPathUnits="userSpaceOnUse"
       id="clipPath30">
      <path
         d="m 3.125,0 h 1193.75 V 725 H 3.125 Z"
         transform="matrix(-0.33661743,0,0,-0.33661743,957.504,4585.5516)"
         clip-rule="evenodd"
         id="path30" />
    </clipPath>
    <clipPath
       clipPathUnits="userSpaceOnUse"
       id="clipPath32">
      <path
         d="m 3.125,0 h 1193.75 V 725 H 3.125 Z"
         transform="matrix(0.33661743,0,0,0.33661743,277.43594,4428.4479)"
         clip-rule="evenodd"
         id="path32" />
    </clipPath>
    <clipPath
       clipPathUnits="userSpaceOnUse"
       id="clipPath34">
      <path
         d="m 3.125,0 h 1193.75 V 725 H 3.125 Z"
         transform="matrix(-0.33661743,0,0,-0.33661743,403.50408,4745.5516)"
         clip-rule="evenodd"
         id="path34" />
    </clipPath>
    <clipPath
       clipPathUnits="userSpaceOnUse"
       id="clipPath36">
      <path
         d="m 3.125,0 h 1193.75 V 725 H 3.125 Z"
         transform="matrix(0.33661743,0,0,0.33661743,277.43594,4428.4479)"
         clip-rule="evenodd"
         id="path36" />
    </clipPath>
    <clipPath
       clipPathUnits="userSpaceOnUse"
       id="clipPath38">
      <path
         d="m 3.125,0 h 1193.75 V 725 H 3.125 Z"
         transform="matrix(-0.33661743,0,0,-0.33661743,662.76411,4745.5516)"
         clip-rule="evenodd"
         id="path38" />
    </clipPath>
    <clipPath
       clipPathUnits="userSpaceOnUse"
       id="clipPath40">
      <path
         d="m 3.125,0 h 1193.75 V 725 H 3.125 Z"
         transform="matrix(0.33661743,0,0,0.33661743,277.43594,4428.4479)"
         clip-rule="evenodd"
         id="path40" />
    </clipPath>
  </defs>
  <g
     id="g1">
    <path
       id="path1"
       d="M 0,0 H 384 V 232 H 0 Z"
       style="fill:#ffffff;fill-opacity:1;fill-rule:nonzero;stroke:none"
       clip-path="url(#clipPath2)" />
    <path
       id="path3"
       d="m 280.04001,4430 h 398.42996 v 240 H 280.04001 Z"
       style="fill:#ffffff;fill-opacity:1;fill-rule:nonzero;stroke:none"
       transform="matrix(0.95063404,0,0,0.95063404,-263.74005,-4209.8333)"
       clip-path="url(#clipPath4)" />
    <path
       id="path5"
       d="m 293.47,4540 h 233.99997 c 0.52527,0 1.04547,0.051 1.56067,0.1533 0.5152,0.1021 1.01538,0.2539 1.50067,0.4551 0.48529,0.2007 0.94635,0.4473 1.38312,0.7393 0.43677,0.2915 0.84088,0.6235 1.21234,0.9951 0.3714,0.3716 0.703,0.7754 0.99481,1.2124 0.29181,0.437 0.53827,0.8979 0.73932,1.3828 0.20105,0.4853 0.35278,0.9858 0.45526,1.501 0.10254,0.5151 0.15381,1.0356 0.15381,1.561 v 24 c 0,0.5249 -0.0513,1.0454 -0.15381,1.5605 -0.10248,0.5152 -0.25421,1.0152 -0.45526,1.5005 -0.20105,0.4854 -0.44751,0.9463 -0.73932,1.3828 -0.29181,0.4371 -0.62341,0.8409 -0.99481,1.2125 -0.37146,0.371 -0.77557,0.7026 -1.21228,0.9946 -0.43677,0.2915 -0.89783,0.5381 -1.38312,0.7397 -0.48529,0.2007 -0.98553,0.3526 -1.50073,0.4551 -0.5152,0.1025 -1.0354,0.1538 -1.56067,0.1543 L 293.47,4580 c -0.5253,-5e-4 -1.04556,-0.052 -1.56076,-0.1543 -0.5152,-0.1025 -1.01544,-0.2544 -1.50076,-0.4551 -0.48532,-0.2016 -0.94635,-0.4482 -1.38309,-0.7397 -0.43674,-0.292 -0.84085,-0.6236 -1.21228,-0.9946 -0.37143,-0.3716 -0.70309,-0.7754 -0.99493,-1.2125 -0.29184,-0.4365 -0.53824,-0.8974 -0.73926,-1.3828 -0.20102,-0.4853 -0.35278,-0.9853 -0.45526,-1.5005 -0.10245,-0.5151 -0.15369,-1.0356 -0.15366,-1.5605 v -24 c -3e-5,-0.5254 0.0512,-1.0459 0.15366,-1.561 0.10248,-0.5152 0.25424,-1.0157 0.45526,-1.501 0.20102,-0.4849 0.44742,-0.9463 0.73926,-1.3833 0.29184,-0.4365 0.6235,-0.8403 0.99493,-1.2119 0.37143,-0.3716 0.77554,-0.7036 1.21228,-0.9951 0.43674,-0.292 0.89777,-0.5386 1.38309,-0.7393 0.48532,-0.2012 0.98556,-0.353 1.50076,-0.4551 0.5152,-0.102 1.03546,-0.1533 1.56076,-0.1533 z"
       style="fill:#ffffff;fill-opacity:1;fill-rule:nonzero;stroke:#000000;stroke-width:1;stroke-linecap:butt;stroke-linejoin:miter;stroke-miterlimit:10;stroke-dasharray:none;stroke-opacity:1"
       transform="matrix(0.95063404,0,0,0.95063404,-263.74005,-4209.8333)"
       clip-path="url(#clipPath6)" />
    <text
       id="text6"
       xml:space="preserve"
       transform="matrix(0.95063404,0,0,0.95063404,87.979704,120.77981)"
       clip-path="url(#clipPath7)"><tspan
         id="tspan6"
         style="font-variant:normal;font-weight:normal;font-size:16px;font-family:Arial;writing-mode:lr-tb;fill:#000000;fill-opacity:1;fill-rule:nonzero;stroke:none"
         x="0"
         y="0">«timeslice»</tspan></text>
    <text
       id="text7"
       xml:space="preserve"
       transform="matrix(0.95063404,0,0,0.95063404,92.198143,139.79249)"
       clip-path="url(#clipPath8)"><tspan
         id="tspan7"
         style="font-variant:normal;font-weight:normal;font-size:16px;font-family:Arial;writing-mode:lr-tb;fill:#000000;fill-opacity:1;fill-rule:nonzero;stroke:none"
         x="0"
         y="0">timeslice1</tspan></text>
    <path
       id="path9"
       d="m 293.47,4620 h 94 c 0.5253,0 1.04553,0.051 1.5607,0.1533 0.51517,0.1021 1.01541,0.2539 1.5007,0.4551 0.48532,0.2007 0.94635,0.4473 1.38312,0.7393 0.43674,0.2915 0.84085,0.6235 1.21231,0.9951 0.37143,0.3716 0.70303,0.7754 0.99487,1.2119 0.29184,0.437 0.53827,0.8979 0.73929,1.3833 0.20102,0.4853 0.35276,0.9853 0.45526,1.5005 0.10248,0.5151 0.15372,1.0356 0.15375,1.5615 v 24 c -3e-5,0.5249 -0.0513,1.0454 -0.15375,1.5605 -0.1025,0.5152 -0.25424,1.0152 -0.45526,1.5005 -0.20102,0.4854 -0.44745,0.9463 -0.73929,1.3828 -0.29184,0.4366 -0.62344,0.8409 -0.99487,1.2125 -0.37146,0.371 -0.77557,0.7026 -1.21231,0.9946 -0.43677,0.2915 -0.8978,0.5381 -1.38312,0.7392 -0.48529,0.2012 -0.98553,0.3531 -1.5007,0.4556 -0.51517,0.1025 -1.0354,0.1538 -1.5607,0.1543 h -94 c -0.5253,-5e-4 -1.04556,-0.052 -1.56076,-0.1543 -0.5152,-0.1025 -1.01544,-0.2544 -1.50076,-0.4556 -0.48532,-0.2011 -0.94635,-0.4477 -1.38309,-0.7392 -0.43674,-0.292 -0.84085,-0.6236 -1.21228,-0.9946 -0.37143,-0.3716 -0.70309,-0.7759 -0.99493,-1.2125 -0.29184,-0.4365 -0.53824,-0.8974 -0.73926,-1.3828 -0.20102,-0.4853 -0.35278,-0.9853 -0.45526,-1.5005 -0.10245,-0.5151 -0.15369,-1.0356 -0.15366,-1.5605 v -24 c -3e-5,-0.5259 0.0512,-1.0464 0.15366,-1.5615 0.10248,-0.5152 0.25424,-1.0152 0.45526,-1.5005 0.20102,-0.4854 0.44742,-0.9463 0.73926,-1.3833 0.29184,-0.4365 0.6235,-0.8403 0.99493,-1.2119 0.37143,-0.3716 0.77554,-0.7036 1.21228,-0.9951 0.43674,-0.292 0.89777,-0.5386 1.38309,-0.7393 0.48532,-0.2012 0.98556,-0.353 1.50076,-0.4551 0.5152,-0.102 1.03546,-0.1533 1.56076,-0.1533 z"
       style="fill:#ffffff;fill-opacity:1;fill-rule:nonzero;stroke:#000000;stroke-width:1;stroke-linecap:butt;stroke-linejoin:miter;stroke-miterlimit:10;stroke-dasharray:none;stroke-opacity:1"
       transform="matrix(0.95063404,0,0,0.95063404,-263.74005,-4209.8333)"
       clip-path="url(#clipPath10)" />
    <text
       id="text10"
       xml:space="preserve"
       transform="matrix(0.95063404,0,0,0.95063404,20.157907,196.83053)"
       clip-path="url(#clipPath11)"><tspan
         id="tspan10"
         style="font-variant:normal;font-weight:normal;font-size:16px;font-family:Arial;writing-mode:lr-tb;fill:#000000;fill-opacity:1;fill-rule:nonzero;stroke:none"
         x="0"
         y="0">«snapshot»</tspan></text>
    <text
       id="text11"
       xml:space="preserve"
       transform="matrix(0.95063404,0,0,0.95063404,24.376346,215.84321)"
       clip-path="url(#clipPath12)"><tspan
         id="tspan11"
         style="font-variant:normal;font-weight:normal;font-size:16px;font-family:Arial;writing-mode:lr-tb;fill:#000000;fill-opacity:1;fill-rule:nonzero;stroke:none"
         x="0"
         y="0">snapshot1</tspan></text>
    <path
       id="path13"
       d="m 570.46997,4540 h 94 c 0.52527,0 1.04547,0.051 1.56067,0.1533 0.5152,0.1021 1.01544,0.2539 1.50073,0.4551 0.48529,0.2007 0.94629,0.4473 1.38306,0.7393 0.43677,0.2915 0.84088,0.6235 1.21234,0.9951 0.3714,0.3716 0.70306,0.7754 0.99487,1.2124 0.29181,0.437 0.53827,0.8979 0.73926,1.3828 0.20099,0.4853 0.35278,0.9858 0.45526,1.501 0.10248,0.5151 0.15375,1.0356 0.15381,1.561 v 24 c -6e-5,0.5249 -0.0513,1.0454 -0.15381,1.5605 -0.10248,0.5152 -0.25427,1.0152 -0.45526,1.5005 -0.20099,0.4854 -0.44745,0.9463 -0.73926,1.3828 -0.29181,0.4371 -0.62347,0.8409 -0.99487,1.2125 -0.37146,0.371 -0.77557,0.7026 -1.21234,0.9946 -0.43677,0.2915 -0.89777,0.5381 -1.38306,0.7397 -0.48529,0.2007 -0.98553,0.3526 -1.50073,0.4551 -0.5152,0.1025 -1.0354,0.1538 -1.56067,0.1543 h -94 c -0.52533,-5e-4 -1.04559,-0.052 -1.56079,-0.1543 -0.5152,-0.1025 -1.01544,-0.2544 -1.50073,-0.4551 -0.48529,-0.2016 -0.94635,-0.4482 -1.38312,-0.7397 -0.43677,-0.292 -0.84088,-0.6236 -1.21228,-0.9946 -0.37146,-0.3716 -0.70313,-0.7754 -0.99493,-1.2125 -0.29181,-0.4365 -0.53827,-0.8974 -0.73926,-1.3828 -0.20099,-0.4853 -0.35266,-0.9853 -0.45514,-1.5005 -0.10248,-0.5151 -0.15369,-1.0356 -0.15375,-1.5605 v -24 c 6e-5,-0.5254 0.0513,-1.0459 0.15375,-1.561 0.10248,-0.5152 0.25415,-1.0157 0.45514,-1.501 0.20099,-0.4849 0.44745,-0.9463 0.73926,-1.3833 0.2918,-0.4365 0.62347,-0.8403 0.99493,-1.2119 0.3714,-0.3716 0.77551,-0.7036 1.21228,-0.9951 0.43677,-0.292 0.89783,-0.5386 1.38312,-0.7393 0.48529,-0.2012 0.98553,-0.353 1.50073,-0.4551 0.5152,-0.102 1.03546,-0.1533 1.56079,-0.1533 z"
       style="fill:#ffffff;fill-opacity:1;fill-rule:nonzero;stroke:#000000;stroke-width:1;stroke-linecap:butt;stroke-linejoin:miter;stroke-miterlimit:10;stroke-dasharray:none;stroke-opacity:1"
       transform="matrix(0.95063404,0,0,0.95063404,-263.74005,-4209.8333)"
       clip-path="url(#clipPath14)" />
    <text
       id="text14"
       xml:space="preserve"
       transform="matrix(0.95063404,0,0,0.95063404,284.76095,120.77981)"
       clip-path="url(#clipPath15)"><tspan
         id="tspan14"
         style="font-variant:normal;font-weight:normal;font-size:16px;font-family:Arial;writing-mode:lr-tb;fill:#000000;fill-opacity:1;fill-rule:nonzero;stroke:none"
         x="0"
         y="0">«timeslice»</tspan></text>
    <text
       id="text15"
       xml:space="preserve"
       transform="matrix(0.95063404,0,0,0.95063404,288.97939,139.79249)"
       clip-path="url(#clipPath16)"><tspan
         id="tspan15"
         style="font-variant:normal;font-weight:normal;font-size:16px;font-family:Arial;writing-mode:lr-tb;fill:#000000;fill-opacity:1;fill-rule:nonzero;stroke:none"
         x="0"
         y="0">timeslice2</tspan></text>
    <path
       id="path17"
       d="m 423.10001,4620 h 93.99997 c 0.52526,0 1.04553,0.051 1.56073,0.1533 0.51513,0.1021 1.01538,0.2539 1.50067,0.4551 0.48529,0.2007 0.94629,0.4473 1.38311,0.7393 0.43677,0.2915 0.84089,0.6235 1.21228,0.9951 0.3714,0.3716 0.70307,0.7754 0.99494,1.2119 0.29181,0.437 0.53827,0.8979 0.73926,1.3833 0.20099,0.4853 0.35278,0.9853 0.45526,1.5005 0.10248,0.5151 0.15375,1.0356 0.15375,1.5615 v 24 c 0,0.5249 -0.0513,1.0454 -0.15375,1.5605 -0.10248,0.5152 -0.25427,1.0152 -0.45526,1.5005 -0.20099,0.4854 -0.44745,0.9463 -0.73926,1.3828 -0.29187,0.4366 -0.62354,0.8409 -0.99494,1.2125 -0.37139,0.371 -0.77551,0.7026 -1.21228,0.9946 -0.43682,0.2915 -0.89782,0.5381 -1.38311,0.7392 -0.48529,0.2012 -0.98554,0.3531 -1.50067,0.4556 -0.5152,0.1025 -1.03547,0.1538 -1.56073,0.1543 h -93.99997 c -0.5253,-5e-4 -1.04557,-0.052 -1.56076,-0.1543 -0.5152,-0.1025 -1.01545,-0.2544 -1.50077,-0.4556 -0.48532,-0.2011 -0.94635,-0.4477 -1.38312,-0.7392 -0.43673,-0.292 -0.84082,-0.6236 -1.21224,-0.9946 -0.37146,-0.3716 -0.70313,-0.7759 -0.99497,-1.2125 -0.29184,-0.4365 -0.53827,-0.8974 -0.73929,-1.3828 -0.20102,-0.4853 -0.35275,-0.9853 -0.4552,-1.5005 -0.10245,-0.5151 -0.15368,-1.0356 -0.15365,-1.5605 v -24 c -3e-5,-0.5259 0.0512,-1.0464 0.15365,-1.5615 0.10248,-0.5152 0.25421,-1.0152 0.45523,-1.5005 0.20102,-0.4854 0.44745,-0.9463 0.73926,-1.3833 0.29184,-0.4365 0.62351,-0.8403 0.99497,-1.2119 0.37142,-0.3716 0.77551,-0.7036 1.21224,-0.9951 0.43677,-0.292 0.8978,-0.5386 1.38309,-0.7393 0.48532,-0.2012 0.9856,-0.353 1.50077,-0.4551 0.51522,-0.102 1.03549,-0.1533 1.56079,-0.1533 z"
       style="fill:#ffffff;fill-opacity:1;fill-rule:nonzero;stroke:#000000;stroke-width:1;stroke-linecap:butt;stroke-linejoin:miter;stroke-miterlimit:10;stroke-dasharray:none;stroke-opacity:1"
       transform="matrix(0.95063404,0,0,0.95063404,-263.74005,-4209.8333)"
       clip-path="url(#clipPath18)" />
    <text
       id="text18"
       xml:space="preserve"
       transform="matrix(0.95063404,0,0,0.95063404,143.74033,196.83053)"
       clip-path="url(#clipPath19)"><tspan
         id="tspan18"
         style="font-variant:normal;font-weight:normal;font-size:16px;font-family:Arial;writing-mode:lr-tb;fill:#000000;fill-opacity:1;fill-rule:nonzero;stroke:none"
         x="0"
         y="0">«snapshot»</tspan></text>
    <text
       id="text19"
       xml:space="preserve"
       transform="matrix(0.95063404,0,0,0.95063404,147.95877,215.84321)"
       clip-path="url(#clipPath20)"><tspan
         id="tspan19"
         style="font-variant:normal;font-weight:normal;font-size:16px;font-family:Arial;writing-mode:lr-tb;fill:#000000;fill-opacity:1;fill-rule:nonzero;stroke:none"
         x="0"
         y="0">snapshot2</tspan></text>
    <path
       id="path21"
       d="m 367.47,4440 h 295.99997 c 0.7879,5e-4 1.56824,0.077 2.341,0.2305 0.77283,0.1538 1.5232,0.3813 2.25116,0.6826 0.72791,0.3013 1.41944,0.6709 2.07459,1.1084 0.65515,0.438 1.26129,0.9355 1.81848,1.4927 0.55713,0.5571 1.05457,1.163 1.49231,1.8188 0.43774,0.6548 0.80737,1.3462 1.10889,2.0742 0.30157,0.7281 0.52917,1.4785 0.68292,2.2515 0.15375,0.7729 0.23059,1.5537 0.23065,2.3413 v 36 c -6e-5,0.7876 -0.0769,1.5679 -0.23065,2.3403 -0.15375,0.773 -0.38135,1.5235 -0.68292,2.2515 -0.30152,0.728 -0.67115,1.4194 -1.10889,2.0742 -0.43774,0.6558 -0.93518,1.2617 -1.49231,1.8189 -0.55719,0.5571 -1.16333,1.0547 -1.81848,1.4917 -0.65515,0.438 -1.34668,0.8076 -2.07459,1.1093 -0.72796,0.3013 -1.47833,0.5293 -2.25116,0.6831 -0.77276,0.1539 -1.5531,0.2305 -2.341,0.231 H 367.47 c -0.78793,-5e-4 -1.56833,-0.077 -2.34112,-0.231 -0.7728,-0.1538 -1.52317,-0.3818 -2.2511,-0.6831 -0.72794,-0.3017 -1.4195,-0.6713 -2.07462,-1.1093 -0.65515,-0.437 -1.26129,-0.9346 -1.81845,-1.4917 -0.55716,-0.5572 -1.05463,-1.1631 -1.4924,-1.8189 -0.43774,-0.6548 -0.80737,-1.3462 -1.10892,-2.0742 -0.30151,-0.728 -0.52914,-1.4785 -0.68286,-2.2515 -0.15369,-0.7724 -0.23053,-1.5527 -0.23053,-2.3403 v -36 c 0,-0.7876 0.0768,-1.5684 0.23056,-2.3413 0.15372,-0.773 0.38132,-1.5234 0.68283,-2.2515 0.30155,-0.728 0.67118,-1.4199 1.10892,-2.0747 0.43777,-0.6553 0.93524,-1.2612 1.4924,-1.8183 0.55716,-0.5572 1.1633,-1.0547 1.81845,-1.4927 0.65512,-0.4375 1.34665,-0.8071 2.07459,-1.1084 0.72796,-0.3013 1.47833,-0.5288 2.25113,-0.6826 0.77279,-0.1534 1.55319,-0.23 2.34112,-0.2305 z"
       style="fill:#ffffff;fill-opacity:1;fill-rule:nonzero;stroke:#000000;stroke-width:1;stroke-linecap:butt;stroke-linejoin:miter;stroke-miterlimit:10;stroke-dasharray:none;stroke-opacity:1"
       transform="matrix(0.95063404,0,0,0.95063404,-263.74005,-4209.8333)"
       clip-path="url(#clipPath22)" />
    <g
       id="g22" />
    <text
       id="text22"
       xml:space="preserve"
       transform="matrix(0.95063404,0,0,0.95063404,170.44721,35.222744)"
       clip-path="url(#clipPath23)"><tspan
         id="tspan22"
         style="font-variant:normal;font-weight:normal;font-size:16px;font-family:Arial;writing-mode:lr-tb;fill:#000000;fill-opacity:1;fill-rule:nonzero;stroke:none"
         x="0"
         y="0">«individual part»</tspan></text>
    <text
       id="text23"
       xml:space="preserve"
       transform="matrix(0.95063404,0,0,0.95063404,147.20123,54.235425)"
       clip-path="url(#clipPath24)"><tspan
         id="tspan23"
         style="font-variant:normal;font-weight:normal;font-size:16px;font-family:Arial;writing-mode:lr-tb;fill:#000000;fill-opacity:1;fill-rule:nonzero;stroke:none"
         x="0"
         y="0">individual1 : Individual1</tspan></text>
    <path
       id="path25"
       d="m 408.10001,4507 5.66,-4.1099 c 2.10999,2.8897 1.69,6.9097 -0.98001,9.3101 -2.66,2.3999 -6.70001,2.3999 -9.35999,0 -2.67001,-2.4004 -3.09002,-6.4204 -0.98001,-9.3101 z"
       style="fill:#000000;fill-opacity:1;fill-rule:nonzero;stroke:#000000;stroke-width:1;stroke-linecap:butt;stroke-linejoin:miter;stroke-miterlimit:10;stroke-dasharray:none;stroke-opacity:1"
       transform="matrix(-0.95063404,0,0,-0.95063404,512.16748,4359.1814)"
       clip-path="url(#clipPath26)" />
    <path
       id="path27"
       d="m 408.10001,4500 v 40"
       style="fill:none;stroke:#000000;stroke-width:1;stroke-linecap:butt;stroke-linejoin:miter;stroke-miterlimit:10;stroke-dasharray:none;stroke-opacity:1"
       transform="matrix(0.95063404,0,0,0.95063404,-263.74005,-4209.8333)"
       clip-path="url(#clipPath28)" />
    <path
       id="path29"
       d="m 617.46997,4507 5.66003,-4.1099 c 2.10999,2.8897 1.69001,6.9097 -0.97998,9.3101 -2.66003,2.3999 -6.70001,2.3999 -9.36004,0 -2.66998,-2.4004 -3.08997,-6.4204 -0.97998,-9.3101 z"
       style="fill:#000000;fill-opacity:1;fill-rule:nonzero;stroke:#000000;stroke-width:1;stroke-linecap:butt;stroke-linejoin:miter;stroke-miterlimit:10;stroke-dasharray:none;stroke-opacity:1"
       transform="matrix(-0.95063404,0,0,-0.95063404,910.2359,4359.1814)"
       clip-path="url(#clipPath30)" />
    <path
       id="path31"
       d="m 617.46997,4500 v 40"
       style="fill:none;stroke:#000000;stroke-width:1;stroke-linecap:butt;stroke-linejoin:miter;stroke-miterlimit:10;stroke-dasharray:none;stroke-opacity:1"
       transform="matrix(0.95063404,0,0,0.95063404,-263.74005,-4209.8333)"
       clip-path="url(#clipPath32)" />
    <path
       id="path33"
       d="m 340.47,4587 5.66,-4.1099 c 2.10999,2.8897 1.69001,6.9097 -0.98001,9.3101 -2.66,2.3999 -6.69998,2.3999 -9.35998,0 -2.67001,-2.4004 -3.09,-6.4204 -0.98001,-9.3101 z"
       style="fill:#000000;fill-opacity:1;fill-rule:nonzero;stroke:#000000;stroke-width:1;stroke-linecap:butt;stroke-linejoin:miter;stroke-miterlimit:10;stroke-dasharray:none;stroke-opacity:1"
       transform="matrix(-0.95063404,0,0,-0.95063404,383.58471,4511.2829)"
       clip-path="url(#clipPath34)" />
    <path
       id="path35"
       d="m 340.47,4580 v 40"
       style="fill:none;stroke:#000000;stroke-width:1;stroke-linecap:butt;stroke-linejoin:miter;stroke-miterlimit:10;stroke-dasharray:none;stroke-opacity:1"
       transform="matrix(0.95063404,0,0,0.95063404,-263.74005,-4209.8333)"
       clip-path="url(#clipPath36)" />
    <path
       id="path37"
       d="m 470.10001,4587 5.66,-4.1099 c 2.10999,2.8897 1.69,6.9097 -0.98001,9.3101 -2.66,2.3999 -6.70001,2.3999 -9.35999,0 -2.67001,-2.4004 -3.09002,-6.4204 -0.98001,-9.3101 z"
       style="fill:#000000;fill-opacity:1;fill-rule:nonzero;stroke:#000000;stroke-width:1;stroke-linecap:butt;stroke-linejoin:miter;stroke-miterlimit:10;stroke-dasharray:none;stroke-opacity:1"
       transform="matrix(-0.95063404,0,0,-0.95063404,630.04612,4511.2829)"
       clip-path="url(#clipPath38)" />
    <path
       id="path39"
       d="m 470.10001,4580 v 40"
       style="fill:none;stroke:#000000;stroke-width:1;stroke-linecap:butt;stroke-linejoin:miter;stroke-miterlimit:10;stroke-dasharray:none;stroke-opacity:1"
       transform="matrix(0.95063404,0,0,0.95063404,-263.74005,-4209.8333)"
       clip-path="url(#clipPath40)" />
  </g>
</svg>
