<?xml version="1.0" encoding="UTF-8" standalone="no"?>
<!-- Created with Inkscape (http://www.inkscape.org/) -->

<svg
   version="1.1"
   id="svg1"
   width="230.71999"
   height="89.279999"
   viewBox="0 0 230.71999 89.279999"
   xmlns="http://www.w3.org/2000/svg"
   xmlns:svg="http://www.w3.org/2000/svg">
  <defs
     id="defs1">
    <clipPath
       clipPathUnits="userSpaceOnUse"
       id="clipPath2">
      <path
         d="M 0,0 H 720.01953 V 279.00391 H 0 Z"
         transform="scale(0.31999999)"
         clip-rule="evenodd"
         id="path2" />
    </clipPath>
    <clipPath
       clipPathUnits="userSpaceOnUse"
       id="clipPath4">
      <path
         d="m 3.125,0 h 712.5 V 278.125 H 3.125 Z"
         transform="matrix(0.33968081,0,0,0.33968081,526.87036,7815.938)"
         clip-rule="evenodd"
         id="path4" />
    </clipPath>
    <clipPath
       clipPathUnits="userSpaceOnUse"
       id="clipPath6">
      <path
         d="m 3.125,0 h 712.5 V 278.125 H 3.125 Z"
         transform="matrix(0.33968081,0,0,0.33968081,526.87036,7815.938)"
         clip-rule="evenodd"
         id="path6" />
    </clipPath>
    <clipPath
       clipPathUnits="userSpaceOnUse"
       id="clipPath8">
      <path
         d="m 3.125,0 h 712.5 V 278.125 H 3.125 Z"
         transform="matrix(0.33968081,0,0,0.33968081,526.87036,7815.938)"
         clip-rule="evenodd"
         id="path8" />
    </clipPath>
    <clipPath
       clipPathUnits="userSpaceOnUse"
       id="clipPath9">
      <path
         d="m 3.125,0 h 712.5 V 278.125 H 3.125 Z"
         transform="matrix(0.33968081,0,0,0.33968081,-73.645329,-23.561677)"
         clip-rule="evenodd"
         id="path9" />
    </clipPath>
    <clipPath
       clipPathUnits="userSpaceOnUse"
       id="clipPath10">
      <path
         d="m 3.125,0 h 712.5 V 278.125 H 3.125 Z"
         transform="matrix(0.33968081,0,0,0.33968081,-13.192199,-42.561678)"
         clip-rule="evenodd"
         id="path10" />
    </clipPath>
    <clipPath
       clipPathUnits="userSpaceOnUse"
       id="clipPath11">
      <path
         d="m 207.92957,160.62695 h 300.28186 v 44.15821 H 207.92957 Z"
         transform="matrix(0.33968081,0,0,0.33968081,-70.942199,-65.561677)"
         clip-rule="evenodd"
         id="path11" />
    </clipPath>
    <clipPath
       clipPathUnits="userSpaceOnUse"
       id="clipPath12">
      <path
         d="M 19.517456,210.67383 H 696.62354 v 58.87891 H 19.517456 Z"
         transform="matrix(0.31999999,0,0,0.31999999,-8.1225781,-81.533157)"
         clip-rule="evenodd"
         id="path12" />
    </clipPath>
  </defs>
  <g
     id="g1">
    <path
       id="path1"
       d="M 0,0 H 230 V 89 H 0 Z"
       style="fill:#ffffff;fill-opacity:1;fill-rule:nonzero;stroke:none"
       clip-path="url(#clipPath2)" />
    <path
       id="path3"
       d="m 768,7868 v -42.5 c 0,-5 -2.5,-7.5 -7.5,-7.5 h -223 c -5,0 -7.5,2.5 -7.5,7.5 v 42.5"
       style="fill:none;stroke:#000000;stroke-width:1;stroke-linecap:butt;stroke-linejoin:miter;stroke-miterlimit:10;stroke-dasharray:none;stroke-opacity:1"
       transform="matrix(0.94206082,0,0,0.94206082,-496.34392,-7363.089)"
       clip-path="url(#clipPath4)" />
    <path
       id="path5"
       d="m 530,7868 v 32.5 c 0,5 2.5,7.5 7.5,7.5 h 223 c 5,0 7.5,-2.5 7.5,-7.5 V 7868"
       style="fill:none;stroke:#000000;stroke-width:1;stroke-linecap:butt;stroke-linejoin:miter;stroke-miterlimit:10;stroke-dasharray:none;stroke-opacity:1"
       transform="matrix(0.94206082,0,0,0.94206082,-496.34392,-7363.089)"
       clip-path="url(#clipPath6)" />
    <path
       id="path7"
       d="M 530,7868 H 768"
       style="fill:none;stroke:#000000;stroke-width:1;stroke-linecap:butt;stroke-linejoin:miter;stroke-miterlimit:10;stroke-dasharray:none;stroke-opacity:1"
       transform="matrix(0.94206082,0,0,0.94206082,-496.34392,-7363.089)"
       clip-path="url(#clipPath8)" />
    <text
       id="text8"
       xml:space="preserve"
       transform="matrix(0.94206082,0,0,0.94206082,69.378379,22.196533)"
       clip-path="url(#clipPath9)"><tspan
         id="tspan8"
         style="font-variant:normal;font-weight:normal;font-size:16px;font-family:Arial;writing-mode:lr-tb;fill:#000000;fill-opacity:1;fill-rule:nonzero;stroke:none"
         x="0"
         y="0">«occurrence»</tspan></text>
    <text
       id="text9"
       xml:space="preserve"
       transform="matrix(0.94206082,0,0,0.94206082,12.427854,40.095689)"
       clip-path="url(#clipPath10)"><tspan
         id="tspan9"
         style="font-variant:normal;font-weight:normal;font-size:16px;font-family:Arial;writing-mode:lr-tb;fill:#000000;fill-opacity:1;fill-rule:nonzero;stroke:none"
         x="0"
         y="0">occurrence1 : OccurrenceDef1</tspan></text>
    <text
       id="text10"
       xml:space="preserve"
       transform="matrix(0.94206082,0,0,0.94206082,66.831866,61.763087)"
       clip-path="url(#clipPath11)"><tspan
         id="tspan10"
         style="font-style:italic;font-variant:normal;font-weight:normal;font-size:12px;font-family:Arial;writing-mode:lr-tb;fill:#000000;fill-opacity:1;fill-rule:nonzero;stroke:none"
         x="0"
         y="0">compartment stack</tspan></text>
    <text
       id="text11"
       xml:space="preserve"
       transform="translate(8.1225781,81.533157)"
       clip-path="url(#clipPath12)"><tspan
         id="tspan11"
         style="font-variant:normal;font-weight:normal;font-size:11.3px;font-family:Arial;writing-mode:lr-tb;fill:#000000;fill-opacity:1;fill-rule:nonzero;stroke:none"
         x="0"
         y="0">•••</tspan></text>
  </g>
</svg>
