<?xml version="1.0" encoding="UTF-8" standalone="no"?>
<!-- Created with Inkscape (http://www.inkscape.org/) -->

<svg
   version="1.1"
   id="svg1"
   width="155.84"
   height="40"
   viewBox="0 0 155.84 40"
   xmlns="http://www.w3.org/2000/svg"
   xmlns:svg="http://www.w3.org/2000/svg">
  <defs
     id="defs1">
    <clipPath
       clipPathUnits="userSpaceOnUse"
       id="clipPath2">
      <path
         d="M 0,0 H 488 V 125.97656 H 0 Z"
         transform="scale(0.31999999)"
         clip-rule="evenodd"
         id="path2" />
    </clipPath>
    <clipPath
       clipPathUnits="userSpaceOnUse"
       id="clipPath4">
      <path
         d="M 3.125,0 H 487.5 V 125.97656 H 3.125 Z"
         transform="matrix(0.34066536,0,0,0.34066536,556.86352,6518.9995)"
         clip-rule="evenodd"
         id="path4" />
    </clipPath>
    <clipPath
       clipPathUnits="userSpaceOnUse"
       id="clipPath5">
      <path
         d="M 3.125,0 H 487.5 V 125.97656 H 3.125 Z"
         transform="matrix(0.34066536,0,0,0.34066536,-59.120878,-16.499974)"
         clip-rule="evenodd"
         id="path5" />
    </clipPath>
    <clipPath
       clipPathUnits="userSpaceOnUse"
       id="clipPath6">
      <path
         d="M 3.125,0 H 487.5 V 125.97656 H 3.125 Z"
         transform="matrix(0.34066536,0,0,0.34066536,-24.448998,-36.499974)"
         clip-rule="evenodd"
         id="path6" />
    </clipPath>
  </defs>
  <g
     id="g1">
    <path
       id="path1"
       d="M 0,0 H 156 V 40 H 0 Z"
       style="fill:#ffffff;fill-opacity:1;fill-rule:nonzero;stroke:none"
       clip-path="url(#clipPath2)" />
    <path
       id="path3"
       d="m 568,6520 h 144 c 0.52533,0 1.04553,0.051 1.56073,0.1538 0.51514,0.1021 1.01538,0.2539 1.50067,0.4551 0.48529,0.2007 0.94629,0.4473 1.38312,0.7392 0.43671,0.2915 0.84082,0.6231 1.21234,0.9947 0.3714,0.3711 0.70306,0.7749 0.99493,1.2119 0.29175,0.4365 0.53815,0.8974 0.7392,1.3833 0.20099,0.4853 0.35278,0.9853 0.45526,1.5005 0.10248,0.5151 0.15375,1.0356 0.15375,1.5615 v 24 c 0,0.5254 -0.0513,1.0454 -0.15375,1.5605 -0.10248,0.5152 -0.25427,1.0152 -0.45526,1.5005 -0.20105,0.4849 -0.44751,0.9458 -0.73932,1.3824 -0.29181,0.437 -0.62341,0.8413 -0.99481,1.2133 -0.37152,0.3716 -0.77563,0.7032 -1.21234,0.9947 -0.43683,0.292 -0.89783,0.5385 -1.38312,0.7392 -0.48529,0.2007 -0.98553,0.3526 -1.50073,0.4551 -0.51514,0.1025 -1.03534,0.1538 -1.56067,0.1543 H 568 c -0.52527,-5e-4 -1.04553,-0.052 -1.56073,-0.1543 -0.5152,-0.1025 -1.01544,-0.2544 -1.50079,-0.4551 -0.48535,-0.2007 -0.94641,-0.4472 -1.38312,-0.7392 -0.43671,-0.2915 -0.84082,-0.6231 -1.21222,-0.9947 -0.37146,-0.372 -0.70313,-0.7763 -0.995,-1.2133 -0.2918,-0.4366 -0.53826,-0.8975 -0.73925,-1.3824 -0.20099,-0.4853 -0.35273,-0.9853 -0.4552,-1.5005 C 560.05121,6553.0454 560,6552.5254 560,6552 v -24 c 0,-0.5259 0.0512,-1.0464 0.15369,-1.5615 0.10247,-0.5152 0.25421,-1.0152 0.4552,-1.5005 0.20099,-0.4859 0.44745,-0.9468 0.73925,-1.3833 0.29187,-0.437 0.62354,-0.8408 0.995,-1.2119 0.3714,-0.3716 0.77551,-0.7032 1.21222,-0.9947 0.43671,-0.2924 0.89777,-0.539 1.38312,-0.7397 0.48535,-0.2012 0.98559,-0.353 1.50079,-0.4551 0.5152,-0.102 1.03546,-0.1533 1.56073,-0.1533 z"
       style="fill:#ffffff;fill-opacity:1;fill-rule:nonzero;stroke:#000000;stroke-width:1;stroke-linecap:butt;stroke-linejoin:miter;stroke-miterlimit:10;stroke-dasharray:none;stroke-opacity:1"
       transform="matrix(0.9393382,0,0,0.9393382,-523.08318,-6123.5453)"
       clip-path="url(#clipPath4)" />
    <text
       id="text4"
       xml:space="preserve"
       transform="matrix(0.9393382,0,0,0.9393382,55.534499,15.499056)"
       clip-path="url(#clipPath5)"><tspan
         id="tspan4"
         style="font-variant:normal;font-weight:normal;font-size:16px;font-family:Arial;writing-mode:lr-tb;fill:#000000;fill-opacity:1;fill-rule:nonzero;stroke:none"
         x="0"
         y="0">«item»</tspan></text>
    <text
       id="text5"
       xml:space="preserve"
       transform="matrix(0.9393382,0,0,0.9393382,22.965878,34.28582)"
       clip-path="url(#clipPath6)"><tspan
         id="tspan5"
         style="font-variant:normal;font-weight:normal;font-size:16px;font-family:Arial;writing-mode:lr-tb;fill:#000000;fill-opacity:1;fill-rule:nonzero;stroke:none"
         x="0"
         y="0">item1 : ItemDef1</tspan></text>
  </g>
</svg>
