<?xml version="1.0" encoding="UTF-8" standalone="no"?>
<!-- Created with Inkscape (http://www.inkscape.org/) -->

<svg
   version="1.1"
   id="svg1"
   width="280"
   height="236.16"
   viewBox="0 0 280 236.16"
   xmlns="http://www.w3.org/2000/svg"
   xmlns:svg="http://www.w3.org/2000/svg">
  <defs
     id="defs1">
    <clipPath
       clipPathUnits="userSpaceOnUse"
       id="clipPath2">
      <path
         d="M 0,0 H 875.97656 V 737.98828 H 0 Z"
         transform="scale(0.31999999)"
         clip-rule="evenodd"
         id="path2" />
    </clipPath>
    <clipPath
       clipPathUnits="userSpaceOnUse"
       id="clipPath4">
      <path
         d="m 3.125,3.125 h 868.75 V 737.5 H 3.125 Z"
         transform="matrix(0.33851808,0,0,0.33851808,118.88387,2512.8843)"
         clip-rule="evenodd"
         id="path4" />
    </clipPath>
    <clipPath
       clipPathUnits="userSpaceOnUse"
       id="clipPath5">
      <path
         d="m 3.125,3.125 h 868.75 V 737.5 H 3.125 Z"
         transform="matrix(0.33851808,0,0,0.33851808,-123.64737,-20.615672)"
         clip-rule="evenodd"
         id="path5" />
    </clipPath>
    <clipPath
       clipPathUnits="userSpaceOnUse"
       id="clipPath6">
      <path
         d="m 3.125,3.125 h 868.75 V 737.5 H 3.125 Z"
         transform="matrix(0.33851808,0,0,0.33851808,-126.99112,-20.615672)"
         clip-rule="evenodd"
         id="path6" />
    </clipPath>
    <clipPath
       clipPathUnits="userSpaceOnUse"
       id="clipPath7">
      <path
         d="m 3.125,3.125 h 868.75 V 737.5 H 3.125 Z"
         transform="matrix(0.33851808,0,0,0.33851808,-4.6161165,-35.615672)"
         clip-rule="evenodd"
         id="path7" />
    </clipPath>
    <clipPath
       clipPathUnits="userSpaceOnUse"
       id="clipPath8">
      <path
         d="m 3.125,3.125 h 868.75 V 737.5 H 3.125 Z"
         transform="matrix(0.33851808,0,0,0.33851808,-11.631742,-35.615672)"
         clip-rule="evenodd"
         id="path8" />
    </clipPath>
    <clipPath
       clipPathUnits="userSpaceOnUse"
       id="clipPath9">
      <path
         d="m 3.125,3.125 h 868.75 V 737.5 H 3.125 Z"
         transform="matrix(0.33851808,0,0,0.33851808,-4.6161165,-52.615672)"
         clip-rule="evenodd"
         id="path9" />
    </clipPath>
    <clipPath
       clipPathUnits="userSpaceOnUse"
       id="clipPath10">
      <path
         d="m 3.125,3.125 h 868.75 V 737.5 H 3.125 Z"
         transform="matrix(0.33851808,0,0,0.33851808,-95.991116,-52.615672)"
         clip-rule="evenodd"
         id="path10" />
    </clipPath>
    <clipPath
       clipPathUnits="userSpaceOnUse"
       id="clipPath11">
      <path
         d="m 3.125,3.125 h 868.75 V 737.5 H 3.125 Z"
         transform="matrix(0.33851808,0,0,0.33851808,-99.991116,-52.615672)"
         clip-rule="evenodd"
         id="path11" />
    </clipPath>
    <clipPath
       clipPathUnits="userSpaceOnUse"
       id="clipPath12">
      <path
         d="m 3.125,3.125 h 868.75 V 737.5 H 3.125 Z"
         transform="matrix(0.33851808,0,0,0.33851808,-118.00675,-52.615672)"
         clip-rule="evenodd"
         id="path12" />
    </clipPath>
    <clipPath
       clipPathUnits="userSpaceOnUse"
       id="clipPath13">
      <path
         d="m 3.125,3.125 h 868.75 V 737.5 H 3.125 Z"
         transform="matrix(0.33851808,0,0,0.33851808,-122.00674,-52.615672)"
         clip-rule="evenodd"
         id="path13" />
    </clipPath>
    <clipPath
       clipPathUnits="userSpaceOnUse"
       id="clipPath14">
      <path
         d="m 3.125,3.125 h 868.75 V 737.5 H 3.125 Z"
         transform="matrix(0.33851808,0,0,0.33851808,-125.3505,-52.615672)"
         clip-rule="evenodd"
         id="path14" />
    </clipPath>
    <clipPath
       clipPathUnits="userSpaceOnUse"
       id="clipPath15">
      <path
         d="m 3.125,3.125 h 868.75 V 737.5 H 3.125 Z"
         transform="matrix(0.33851808,0,0,0.33851808,-4.6161165,-69.615672)"
         clip-rule="evenodd"
         id="path15" />
    </clipPath>
    <clipPath
       clipPathUnits="userSpaceOnUse"
       id="clipPath16">
      <path
         d="m 3.125,3.125 h 868.75 V 737.5 H 3.125 Z"
         transform="matrix(0.33851808,0,0,0.33851808,-113.31925,-69.615672)"
         clip-rule="evenodd"
         id="path16" />
    </clipPath>
    <clipPath
       clipPathUnits="userSpaceOnUse"
       id="clipPath17">
      <path
         d="m 3.125,3.125 h 868.75 V 737.5 H 3.125 Z"
         transform="matrix(0.33851808,0,0,0.33851808,-166.67862,-69.615672)"
         clip-rule="evenodd"
         id="path17" />
    </clipPath>
    <clipPath
       clipPathUnits="userSpaceOnUse"
       id="clipPath18">
      <path
         d="m 3.125,3.125 h 868.75 V 737.5 H 3.125 Z"
         transform="matrix(0.33851808,0,0,0.33851808,-4.6161165,-86.615673)"
         clip-rule="evenodd"
         id="path18" />
    </clipPath>
    <clipPath
       clipPathUnits="userSpaceOnUse"
       id="clipPath19">
      <path
         d="m 3.125,3.125 h 868.75 V 737.5 H 3.125 Z"
         transform="matrix(0.33851808,0,0,0.33851808,-113.31925,-86.615673)"
         clip-rule="evenodd"
         id="path19" />
    </clipPath>
    <clipPath
       clipPathUnits="userSpaceOnUse"
       id="clipPath20">
      <path
         d="m 3.125,3.125 h 868.75 V 737.5 H 3.125 Z"
         transform="matrix(0.33851808,0,0,0.33851808,-131.33486,-86.615673)"
         clip-rule="evenodd"
         id="path20" />
    </clipPath>
    <clipPath
       clipPathUnits="userSpaceOnUse"
       id="clipPath21">
      <path
         d="m 3.125,3.125 h 868.75 V 737.5 H 3.125 Z"
         transform="matrix(0.33851808,0,0,0.33851808,-4.6161165,-103.61567)"
         clip-rule="evenodd"
         id="path21" />
    </clipPath>
    <clipPath
       clipPathUnits="userSpaceOnUse"
       id="clipPath22">
      <path
         d="m 3.125,3.125 h 868.75 V 737.5 H 3.125 Z"
         transform="matrix(0.33851808,0,0,0.33851808,-22.631741,-103.61567)"
         clip-rule="evenodd"
         id="path22" />
    </clipPath>
    <clipPath
       clipPathUnits="userSpaceOnUse"
       id="clipPath23">
      <path
         d="m 3.125,3.125 h 868.75 V 737.5 H 3.125 Z"
         transform="matrix(0.33851808,0,0,0.33851808,-4.6161165,-119.61567)"
         clip-rule="evenodd"
         id="path23" />
    </clipPath>
    <clipPath
       clipPathUnits="userSpaceOnUse"
       id="clipPath24">
      <path
         d="m 3.125,3.125 h 868.75 V 737.5 H 3.125 Z"
         transform="matrix(0.33851808,0,0,0.33851808,-111.99111,-119.61567)"
         clip-rule="evenodd"
         id="path24" />
    </clipPath>
    <clipPath
       clipPathUnits="userSpaceOnUse"
       id="clipPath25">
      <path
         d="m 3.125,3.125 h 868.75 V 737.5 H 3.125 Z"
         transform="matrix(0.33851808,0,0,0.33851808,-115.99112,-119.61567)"
         clip-rule="evenodd"
         id="path25" />
    </clipPath>
    <clipPath
       clipPathUnits="userSpaceOnUse"
       id="clipPath26">
      <path
         d="m 3.125,3.125 h 868.75 V 737.5 H 3.125 Z"
         transform="matrix(0.33851808,0,0,0.33851808,-125.99111,-119.61567)"
         clip-rule="evenodd"
         id="path26" />
    </clipPath>
    <clipPath
       clipPathUnits="userSpaceOnUse"
       id="clipPath27">
      <path
         d="m 3.125,3.125 h 868.75 V 737.5 H 3.125 Z"
         transform="matrix(0.33851808,0,0,0.33851808,-129.99112,-119.61567)"
         clip-rule="evenodd"
         id="path27" />
    </clipPath>
    <clipPath
       clipPathUnits="userSpaceOnUse"
       id="clipPath28">
      <path
         d="m 3.125,3.125 h 868.75 V 737.5 H 3.125 Z"
         transform="matrix(0.33851808,0,0,0.33851808,-133.33487,-119.61567)"
         clip-rule="evenodd"
         id="path28" />
    </clipPath>
    <clipPath
       clipPathUnits="userSpaceOnUse"
       id="clipPath29">
      <path
         d="m 3.125,3.125 h 868.75 V 737.5 H 3.125 Z"
         transform="matrix(0.33851808,0,0,0.33851808,-178.69424,-119.61567)"
         clip-rule="evenodd"
         id="path29" />
    </clipPath>
    <clipPath
       clipPathUnits="userSpaceOnUse"
       id="clipPath30">
      <path
         d="m 3.125,3.125 h 868.75 V 737.5 H 3.125 Z"
         transform="matrix(0.33851808,0,0,0.33851808,-4.6161165,-136.61567)"
         clip-rule="evenodd"
         id="path30" />
    </clipPath>
    <clipPath
       clipPathUnits="userSpaceOnUse"
       id="clipPath31">
      <path
         d="m 3.125,3.125 h 868.75 V 737.5 H 3.125 Z"
         transform="matrix(0.33851808,0,0,0.33851808,-111.99111,-136.61567)"
         clip-rule="evenodd"
         id="path31" />
    </clipPath>
    <clipPath
       clipPathUnits="userSpaceOnUse"
       id="clipPath32">
      <path
         d="m 3.125,3.125 h 868.75 V 737.5 H 3.125 Z"
         transform="matrix(0.33851808,0,0,0.33851808,-115.99112,-136.61567)"
         clip-rule="evenodd"
         id="path32" />
    </clipPath>
    <clipPath
       clipPathUnits="userSpaceOnUse"
       id="clipPath33">
      <path
         d="m 3.125,3.125 h 868.75 V 737.5 H 3.125 Z"
         transform="matrix(0.33851808,0,0,0.33851808,-125.99111,-136.61567)"
         clip-rule="evenodd"
         id="path33" />
    </clipPath>
    <clipPath
       clipPathUnits="userSpaceOnUse"
       id="clipPath34">
      <path
         d="m 3.125,3.125 h 868.75 V 737.5 H 3.125 Z"
         transform="matrix(0.33851808,0,0,0.33851808,-129.99112,-136.61567)"
         clip-rule="evenodd"
         id="path34" />
    </clipPath>
    <clipPath
       clipPathUnits="userSpaceOnUse"
       id="clipPath35">
      <path
         d="m 3.125,3.125 h 868.75 V 737.5 H 3.125 Z"
         transform="matrix(0.33851808,0,0,0.33851808,-133.33487,-136.61567)"
         clip-rule="evenodd"
         id="path35" />
    </clipPath>
    <clipPath
       clipPathUnits="userSpaceOnUse"
       id="clipPath36">
      <path
         d="m 3.125,3.125 h 868.75 V 737.5 H 3.125 Z"
         transform="matrix(0.33851808,0,0,0.33851808,-144.35049,-136.61567)"
         clip-rule="evenodd"
         id="path36" />
    </clipPath>
    <clipPath
       clipPathUnits="userSpaceOnUse"
       id="clipPath37">
      <path
         d="m 3.125,3.125 h 868.75 V 737.5 H 3.125 Z"
         transform="matrix(0.33851808,0,0,0.33851808,-4.6161165,-153.61567)"
         clip-rule="evenodd"
         id="path37" />
    </clipPath>
    <clipPath
       clipPathUnits="userSpaceOnUse"
       id="clipPath38">
      <path
         d="m 3.125,3.125 h 868.75 V 737.5 H 3.125 Z"
         transform="matrix(0.33851808,0,0,0.33851808,-45.959867,-153.61567)"
         clip-rule="evenodd"
         id="path38" />
    </clipPath>
    <clipPath
       clipPathUnits="userSpaceOnUse"
       id="clipPath39">
      <path
         d="m 3.125,3.125 h 868.75 V 737.5 H 3.125 Z"
         transform="matrix(0.33851808,0,0,0.33851808,-52.975497,-153.61567)"
         clip-rule="evenodd"
         id="path39" />
    </clipPath>
    <clipPath
       clipPathUnits="userSpaceOnUse"
       id="clipPath40">
      <path
         d="m 3.125,3.125 h 868.75 V 737.5 H 3.125 Z"
         transform="matrix(0.33851808,0,0,0.33851808,-4.6161165,-170.61568)"
         clip-rule="evenodd"
         id="path40" />
    </clipPath>
    <clipPath
       clipPathUnits="userSpaceOnUse"
       id="clipPath41">
      <path
         d="m 3.125,3.125 h 868.75 V 737.5 H 3.125 Z"
         transform="matrix(0.33851808,0,0,0.33851808,-19.959867,-170.61568)"
         clip-rule="evenodd"
         id="path41" />
    </clipPath>
    <clipPath
       clipPathUnits="userSpaceOnUse"
       id="clipPath42">
      <path
         d="m 3.125,3.125 h 868.75 V 737.5 H 3.125 Z"
         transform="matrix(0.33851808,0,0,0.33851808,-4.6161165,-187.61568)"
         clip-rule="evenodd"
         id="path42" />
    </clipPath>
    <clipPath
       clipPathUnits="userSpaceOnUse"
       id="clipPath43">
      <path
         d="m 3.125,3.125 h 868.75 V 737.5 H 3.125 Z"
         transform="matrix(0.33851808,0,0,0.33851808,-4.6161165,-204.61567)"
         clip-rule="evenodd"
         id="path43" />
    </clipPath>
  </defs>
  <g
     id="g1">
    <path
       id="path1"
       d="M 0,0 H 280 V 236 H 0 Z"
       style="fill:#ffffff;fill-opacity:1;fill-rule:nonzero;stroke:none"
       clip-path="url(#clipPath2)" />
    <path
       id="path3"
       d="m 122,2516 h 290 v 244 H 122 Z"
       style="fill:#ffffff;fill-opacity:1;fill-rule:nonzero;stroke:#000000;stroke-width:1;stroke-linecap:butt;stroke-linejoin:miter;stroke-miterlimit:10;stroke-dasharray:none;stroke-opacity:1"
       transform="matrix(0.9452966,0,0,0.9452966,-112.38052,-2375.421)"
       clip-path="url(#clipPath4)" />
    <g
       id="g4" />
    <text
       id="text4"
       xml:space="preserve"
       transform="matrix(0.9452966,0,0,0.9452966,116.88344,19.487925)"
       clip-path="url(#clipPath5)"><tspan
         id="tspan4"
         style="font-variant:normal;font-weight:normal;font-size:12px;font-family:Arial;writing-mode:lr-tb;fill:#000000;fill-opacity:1;fill-rule:nonzero;stroke:none"
         x="0"
         y="0"> </tspan></text>
    <text
       id="text5"
       xml:space="preserve"
       transform="matrix(0.9452966,0,0,0.9452966,120.04427,19.487925)"
       clip-path="url(#clipPath6)"><tspan
         id="tspan5"
         style="font-style:italic;font-variant:normal;font-weight:normal;font-size:12px;font-family:Arial;writing-mode:lr-tb;fill:#000000;fill-opacity:1;fill-rule:nonzero;stroke:none"
         x="0"
         y="0">items</tspan></text>
    <text
       id="text6"
       xml:space="preserve"
       transform="matrix(0.9452966,0,0,0.9452966,4.3635992,33.667374)"
       clip-path="url(#clipPath7)"><tspan
         id="tspan6"
         style="font-variant:normal;font-weight:700;font-size:12px;font-family:Arial;writing-mode:lr-tb;fill:#000000;fill-opacity:1;fill-rule:nonzero;stroke:none"
         x="0"
         y="0">^</tspan></text>
    <text
       id="text7"
       xml:space="preserve"
       transform="matrix(0.9452966,0,0,0.9452966,10.995446,33.667374)"
       clip-path="url(#clipPath8)"><tspan
         id="tspan7"
         style="font-variant:normal;font-weight:normal;font-size:12px;font-family:Arial;writing-mode:lr-tb;fill:#000000;fill-opacity:1;fill-rule:nonzero;stroke:none"
         x="0"
         y="0">item2 : ItemDef2</tspan></text>
    <text
       id="text8"
       xml:space="preserve"
       transform="matrix(0.9452966,0,0,0.9452966,4.3635992,49.737416)"
       clip-path="url(#clipPath9)"><tspan
         id="tspan8"
         style="font-variant:normal;font-weight:normal;font-size:12px;font-family:Arial;writing-mode:lr-tb;fill:#000000;fill-opacity:1;fill-rule:nonzero;stroke:none"
         x="0"
         y="0">item1 : ItemDef1 </tspan></text>
    <text
       id="text9"
       xml:space="preserve"
       transform="matrix(0.9452966,0,0,0.9452966,90.740076,49.737416)"
       clip-path="url(#clipPath10)"><tspan
         id="tspan9"
         style="font-variant:normal;font-weight:700;font-size:12px;font-family:Arial;writing-mode:lr-tb;fill:#000000;fill-opacity:1;fill-rule:nonzero;stroke:none"
         x="0"
         y="0">[</tspan></text>
    <text
       id="text10"
       xml:space="preserve"
       transform="matrix(0.9452966,0,0,0.9452966,94.521262,49.737416)"
       clip-path="url(#clipPath11)"><tspan
         id="tspan10"
         style="font-variant:normal;font-weight:normal;font-size:12px;font-family:Arial;writing-mode:lr-tb;fill:#000000;fill-opacity:1;fill-rule:nonzero;stroke:none"
         x="0"
         y="0">1..*</tspan></text>
    <text
       id="text11"
       xml:space="preserve"
       transform="matrix(0.9452966,0,0,0.9452966,111.55138,49.737416)"
       clip-path="url(#clipPath12)"><tspan
         id="tspan11"
         style="font-variant:normal;font-weight:700;font-size:12px;font-family:Arial;writing-mode:lr-tb;fill:#000000;fill-opacity:1;fill-rule:nonzero;stroke:none"
         x="0"
         y="0">]</tspan></text>
    <text
       id="text12"
       xml:space="preserve"
       transform="matrix(0.9452966,0,0,0.9452966,115.33256,49.737416)"
       clip-path="url(#clipPath13)"><tspan
         id="tspan12"
         style="font-variant:normal;font-weight:normal;font-size:12px;font-family:Arial;writing-mode:lr-tb;fill:#000000;fill-opacity:1;fill-rule:nonzero;stroke:none"
         x="0"
         y="0"> </tspan></text>
    <text
       id="text13"
       xml:space="preserve"
       transform="matrix(0.9452966,0,0,0.9452966,118.4934,49.737416)"
       clip-path="url(#clipPath14)"><tspan
         id="tspan13"
         style="font-variant:normal;font-weight:700;font-size:12px;font-family:Arial;writing-mode:lr-tb;fill:#000000;fill-opacity:1;fill-rule:nonzero;stroke:none"
         x="0"
         y="0">ordered nonunique</tspan></text>
    <g
       id="g14" />
    <text
       id="text14"
       xml:space="preserve"
       transform="matrix(0.9452966,0,0,0.9452966,4.3635992,65.807458)"
       clip-path="url(#clipPath15)"><tspan
         id="tspan14"
         style="font-variant:normal;font-weight:normal;font-size:12px;font-family:Arial;writing-mode:lr-tb;fill:#000000;fill-opacity:1;fill-rule:nonzero;stroke:none"
         x="0"
         y="0">item3R : ItemDef3R </tspan></text>
    <text
       id="text15"
       xml:space="preserve"
       transform="matrix(0.9452966,0,0,0.9452966,107.1203,65.807458)"
       clip-path="url(#clipPath16)"><tspan
         id="tspan15"
         style="font-variant:normal;font-weight:700;font-size:12px;font-family:Arial;writing-mode:lr-tb;fill:#000000;fill-opacity:1;fill-rule:nonzero;stroke:none"
         x="0"
         y="0">redefines</tspan></text>
    <g
       id="g16" />
    <text
       id="text16"
       xml:space="preserve"
       transform="matrix(0.9452966,0,0,0.9452966,157.56073,65.807458)"
       clip-path="url(#clipPath17)"><tspan
         id="tspan16"
         style="font-variant:normal;font-weight:normal;font-size:12px;font-family:Arial;writing-mode:lr-tb;fill:#000000;fill-opacity:1;fill-rule:nonzero;stroke:none"
         x="0"
         y="0"> item3</tspan></text>
    <text
       id="text17"
       xml:space="preserve"
       transform="matrix(0.9452966,0,0,0.9452966,4.3635992,81.877501)"
       clip-path="url(#clipPath18)"><tspan
         id="tspan17"
         style="font-variant:normal;font-weight:normal;font-size:12px;font-family:Arial;writing-mode:lr-tb;fill:#000000;fill-opacity:1;fill-rule:nonzero;stroke:none"
         x="0"
         y="0">item4R : ItemDef4R </tspan></text>
    <text
       id="text18"
       xml:space="preserve"
       transform="matrix(0.9452966,0,0,0.9452966,107.1203,81.877501)"
       clip-path="url(#clipPath19)"><tspan
         id="tspan18"
         style="font-variant:normal;font-weight:700;font-size:12px;font-family:Arial;writing-mode:lr-tb;fill:#000000;fill-opacity:1;fill-rule:nonzero;stroke:none"
         x="0"
         y="0">:&gt;&gt;</tspan></text>
    <text
       id="text19"
       xml:space="preserve"
       transform="matrix(0.9452966,0,0,0.9452966,124.1504,81.877501)"
       clip-path="url(#clipPath20)"><tspan
         id="tspan19"
         style="font-variant:normal;font-weight:normal;font-size:12px;font-family:Arial;writing-mode:lr-tb;fill:#000000;fill-opacity:1;fill-rule:nonzero;stroke:none"
         x="0"
         y="0"> item4</tspan></text>
    <text
       id="text20"
       xml:space="preserve"
       transform="matrix(0.9452966,0,0,0.9452966,4.3635992,97.947543)"
       clip-path="url(#clipPath21)"><tspan
         id="tspan20"
         style="font-variant:normal;font-weight:700;font-size:12px;font-family:Arial;writing-mode:lr-tb;fill:#000000;fill-opacity:1;fill-rule:nonzero;stroke:none"
         x="0"
         y="0">:&gt;&gt;</tspan></text>
    <text
       id="text21"
       xml:space="preserve"
       transform="matrix(0.9452966,0,0,0.9452966,21.393708,97.947543)"
       clip-path="url(#clipPath22)"><tspan
         id="tspan21"
         style="font-variant:normal;font-weight:normal;font-size:12px;font-family:Arial;writing-mode:lr-tb;fill:#000000;fill-opacity:1;fill-rule:nonzero;stroke:none"
         x="0"
         y="0"> item5</tspan></text>
    <text
       id="text22"
       xml:space="preserve"
       transform="matrix(0.9452966,0,0,0.9452966,4.3635992,113.07229)"
       clip-path="url(#clipPath23)"><tspan
         id="tspan22"
         style="font-variant:normal;font-weight:normal;font-size:12px;font-family:Arial;writing-mode:lr-tb;fill:#000000;fill-opacity:1;fill-rule:nonzero;stroke:none"
         x="0"
         y="0">item6S : ItemDef6S </tspan></text>
    <text
       id="text23"
       xml:space="preserve"
       transform="matrix(0.9452966,0,0,0.9452966,105.86482,113.07229)"
       clip-path="url(#clipPath24)"><tspan
         id="tspan23"
         style="font-variant:normal;font-weight:700;font-size:12px;font-family:Arial;writing-mode:lr-tb;fill:#000000;fill-opacity:1;fill-rule:nonzero;stroke:none"
         x="0"
         y="0">[</tspan></text>
    <text
       id="text24"
       xml:space="preserve"
       transform="matrix(0.9452966,0,0,0.9452966,109.64601,113.07229)"
       clip-path="url(#clipPath25)"><tspan
         id="tspan24"
         style="font-variant:normal;font-weight:normal;font-size:12px;font-family:Arial;writing-mode:lr-tb;fill:#000000;fill-opacity:1;fill-rule:nonzero;stroke:none"
         x="0"
         y="0">m</tspan></text>
    <text
       id="text25"
       xml:space="preserve"
       transform="matrix(0.9452966,0,0,0.9452966,119.09897,113.07229)"
       clip-path="url(#clipPath26)"><tspan
         id="tspan25"
         style="font-variant:normal;font-weight:700;font-size:12px;font-family:Arial;writing-mode:lr-tb;fill:#000000;fill-opacity:1;fill-rule:nonzero;stroke:none"
         x="0"
         y="0">]</tspan></text>
    <g
       id="g26" />
    <text
       id="text26"
       xml:space="preserve"
       transform="matrix(0.9452966,0,0,0.9452966,122.88016,113.07229)"
       clip-path="url(#clipPath27)"><tspan
         id="tspan26"
         style="font-variant:normal;font-weight:normal;font-size:12px;font-family:Arial;writing-mode:lr-tb;fill:#000000;fill-opacity:1;fill-rule:nonzero;stroke:none"
         x="0"
         y="0"> </tspan></text>
    <text
       id="text27"
       xml:space="preserve"
       transform="matrix(0.9452966,0,0,0.9452966,126.041,113.07229)"
       clip-path="url(#clipPath28)"><tspan
         id="tspan27"
         style="font-variant:normal;font-weight:700;font-size:12px;font-family:Arial;writing-mode:lr-tb;fill:#000000;fill-opacity:1;fill-rule:nonzero;stroke:none"
         x="0"
         y="0">subsets</tspan></text>
    <g
       id="g28" />
    <text
       id="text28"
       xml:space="preserve"
       transform="matrix(0.9452966,0,0,0.9452966,168.91906,113.07229)"
       clip-path="url(#clipPath29)"><tspan
         id="tspan28"
         style="font-variant:normal;font-weight:normal;font-size:12px;font-family:Arial;writing-mode:lr-tb;fill:#000000;fill-opacity:1;fill-rule:nonzero;stroke:none"
         x="0"
         y="0"> item6</tspan></text>
    <text
       id="text29"
       xml:space="preserve"
       transform="matrix(0.9452966,0,0,0.9452966,4.3635992,129.14233)"
       clip-path="url(#clipPath30)"><tspan
         id="tspan29"
         style="font-variant:normal;font-weight:normal;font-size:12px;font-family:Arial;writing-mode:lr-tb;fill:#000000;fill-opacity:1;fill-rule:nonzero;stroke:none"
         x="0"
         y="0">item7S : ItemDef7S </tspan></text>
    <text
       id="text30"
       xml:space="preserve"
       transform="matrix(0.9452966,0,0,0.9452966,105.86482,129.14233)"
       clip-path="url(#clipPath31)"><tspan
         id="tspan30"
         style="font-variant:normal;font-weight:700;font-size:12px;font-family:Arial;writing-mode:lr-tb;fill:#000000;fill-opacity:1;fill-rule:nonzero;stroke:none"
         x="0"
         y="0">[</tspan></text>
    <text
       id="text31"
       xml:space="preserve"
       transform="matrix(0.9452966,0,0,0.9452966,109.64601,129.14233)"
       clip-path="url(#clipPath32)"><tspan
         id="tspan31"
         style="font-variant:normal;font-weight:normal;font-size:12px;font-family:Arial;writing-mode:lr-tb;fill:#000000;fill-opacity:1;fill-rule:nonzero;stroke:none"
         x="0"
         y="0">m</tspan></text>
    <text
       id="text32"
       xml:space="preserve"
       transform="matrix(0.9452966,0,0,0.9452966,119.09897,129.14233)"
       clip-path="url(#clipPath33)"><tspan
         id="tspan32"
         style="font-variant:normal;font-weight:700;font-size:12px;font-family:Arial;writing-mode:lr-tb;fill:#000000;fill-opacity:1;fill-rule:nonzero;stroke:none"
         x="0"
         y="0">]</tspan></text>
    <text
       id="text33"
       xml:space="preserve"
       transform="matrix(0.9452966,0,0,0.9452966,122.88016,129.14233)"
       clip-path="url(#clipPath34)"><tspan
         id="tspan33"
         style="font-variant:normal;font-weight:normal;font-size:12px;font-family:Arial;writing-mode:lr-tb;fill:#000000;fill-opacity:1;fill-rule:nonzero;stroke:none"
         x="0"
         y="0"> </tspan></text>
    <text
       id="text34"
       xml:space="preserve"
       transform="matrix(0.9452966,0,0,0.9452966,126.041,129.14233)"
       clip-path="url(#clipPath35)"><tspan
         id="tspan34"
         style="font-variant:normal;font-weight:700;font-size:12px;font-family:Arial;writing-mode:lr-tb;fill:#000000;fill-opacity:1;fill-rule:nonzero;stroke:none"
         x="0"
         y="0">:&gt;</tspan></text>
    <text
       id="text35"
       xml:space="preserve"
       transform="matrix(0.9452966,0,0,0.9452966,136.45403,129.14233)"
       clip-path="url(#clipPath36)"><tspan
         id="tspan35"
         style="font-variant:normal;font-weight:normal;font-size:12px;font-family:Arial;writing-mode:lr-tb;fill:#000000;fill-opacity:1;fill-rule:nonzero;stroke:none"
         x="0"
         y="0"> item7</tspan></text>
    <text
       id="text36"
       xml:space="preserve"
       transform="matrix(0.9452966,0,0,0.9452966,4.3635992,145.21237)"
       clip-path="url(#clipPath37)"><tspan
         id="tspan36"
         style="font-variant:normal;font-weight:normal;font-size:12px;font-family:Arial;writing-mode:lr-tb;fill:#000000;fill-opacity:1;fill-rule:nonzero;stroke:none"
         x="0"
         y="0">item8R </tspan></text>
    <text
       id="text37"
       xml:space="preserve"
       transform="matrix(0.9452966,0,0,0.9452966,43.445706,145.21237)"
       clip-path="url(#clipPath38)"><tspan
         id="tspan37"
         style="font-variant:normal;font-weight:700;font-size:12px;font-family:Arial;writing-mode:lr-tb;fill:#000000;fill-opacity:1;fill-rule:nonzero;stroke:none"
         x="0"
         y="0">=</tspan></text>
    <text
       id="text38"
       xml:space="preserve"
       transform="matrix(0.9452966,0,0,0.9452966,50.077557,145.21237)"
       clip-path="url(#clipPath39)"><tspan
         id="tspan38"
         style="font-variant:normal;font-weight:normal;font-size:12px;font-family:Arial;writing-mode:lr-tb;fill:#000000;fill-opacity:1;fill-rule:nonzero;stroke:none"
         x="0"
         y="0"> item8</tspan></text>
    <text
       id="text39"
       xml:space="preserve"
       transform="matrix(0.9452966,0,0,0.9452966,4.3635992,161.28242)"
       clip-path="url(#clipPath40)"><tspan
         id="tspan39"
         style="font-variant:normal;font-weight:700;font-size:12px;font-family:Arial;writing-mode:lr-tb;fill:#000000;fill-opacity:1;fill-rule:nonzero;stroke:none"
         x="0"
         y="0">ref</tspan></text>
    <text
       id="text40"
       xml:space="preserve"
       transform="matrix(0.9452966,0,0,0.9452966,18.867994,161.28242)"
       clip-path="url(#clipPath41)"><tspan
         id="tspan40"
         style="font-variant:normal;font-weight:normal;font-size:12px;font-family:Arial;writing-mode:lr-tb;fill:#000000;fill-opacity:1;fill-rule:nonzero;stroke:none"
         x="0"
         y="0"> item9 : itemDef9</tspan></text>
    <text
       id="text41"
       xml:space="preserve"
       transform="matrix(0.9452966,0,0,0.9452966,4.3635992,177.35246)"
       clip-path="url(#clipPath42)"><tspan
         id="tspan41"
         style="font-variant:normal;font-weight:normal;font-size:12px;font-family:Arial;writing-mode:lr-tb;fill:#000000;fill-opacity:1;fill-rule:nonzero;stroke:none"
         x="0"
         y="0">item10</tspan></text>
    <text
       id="text42"
       xml:space="preserve"
       transform="matrix(0.9452966,0,0,0.9452966,4.3635992,193.4225)"
       clip-path="url(#clipPath43)"><tspan
         id="tspan42"
         style="font-variant:normal;font-weight:700;font-size:14px;font-family:Arial;writing-mode:lr-tb;fill:#000000;fill-opacity:1;fill-rule:nonzero;stroke:none"
         x="0"
         y="0">...</tspan></text>
  </g>
</svg>
