<?xml version="1.0" encoding="UTF-8" standalone="no"?>
<!-- Created with Inkscape (http://www.inkscape.org/) -->

<svg
   version="1.1"
   id="svg1"
   width="280"
   height="232"
   viewBox="0 0 280 232"
   xmlns="http://www.w3.org/2000/svg"
   xmlns:svg="http://www.w3.org/2000/svg">
  <defs
     id="defs1">
    <clipPath
       clipPathUnits="userSpaceOnUse"
       id="clipPath2">
      <path
         d="M 0,0 H 875.97656 V 725.97656 H 0 Z"
         transform="scale(0.31999999)"
         clip-rule="evenodd"
         id="path2" />
    </clipPath>
    <clipPath
       clipPathUnits="userSpaceOnUse"
       id="clipPath4">
      <path
         d="m 3.125,3.125 h 868.75 V 725 H 3.125 Z"
         transform="matrix(0.33851816,0,0,0.33851816,119.88384,3773.884)"
         clip-rule="evenodd"
         id="path4" />
    </clipPath>
    <clipPath
       clipPathUnits="userSpaceOnUse"
       id="clipPath5">
      <path
         d="m 3.125,3.125 h 868.75 V 725 H 3.125 Z"
         transform="matrix(0.33851816,0,0,0.33851816,-122.97555,-20.615784)"
         clip-rule="evenodd"
         id="path5" />
    </clipPath>
    <clipPath
       clipPathUnits="userSpaceOnUse"
       id="clipPath6">
      <path
         d="m 3.125,3.125 h 868.75 V 725 H 3.125 Z"
         transform="matrix(0.33851816,0,0,0.33851816,-126.31929,-20.615784)"
         clip-rule="evenodd"
         id="path6" />
    </clipPath>
    <clipPath
       clipPathUnits="userSpaceOnUse"
       id="clipPath7">
      <path
         d="m 3.125,3.125 h 868.75 V 725 H 3.125 Z"
         transform="matrix(0.33851816,0,0,0.33851816,-147.00679,-20.615784)"
         clip-rule="evenodd"
         id="path7" />
    </clipPath>
    <clipPath
       clipPathUnits="userSpaceOnUse"
       id="clipPath8">
      <path
         d="m 3.125,3.125 h 868.75 V 725 H 3.125 Z"
         transform="matrix(0.33851816,0,0,0.33851816,-4.616163,-35.615784)"
         clip-rule="evenodd"
         id="path8" />
    </clipPath>
    <clipPath
       clipPathUnits="userSpaceOnUse"
       id="clipPath9">
      <path
         d="m 3.125,3.125 h 868.75 V 725 H 3.125 Z"
         transform="matrix(0.33851816,0,0,0.33851816,-11.631788,-35.615784)"
         clip-rule="evenodd"
         id="path9" />
    </clipPath>
    <clipPath
       clipPathUnits="userSpaceOnUse"
       id="clipPath10">
      <path
         d="m 3.125,3.125 h 868.75 V 725 H 3.125 Z"
         transform="matrix(0.33851816,0,0,0.33851816,-4.616163,-52.615784)"
         clip-rule="evenodd"
         id="path10" />
    </clipPath>
    <clipPath
       clipPathUnits="userSpaceOnUse"
       id="clipPath11">
      <path
         d="m 3.125,3.125 h 868.75 V 725 H 3.125 Z"
         transform="matrix(0.33851816,0,0,0.33851816,-92.663043,-52.615784)"
         clip-rule="evenodd"
         id="path11" />
    </clipPath>
    <clipPath
       clipPathUnits="userSpaceOnUse"
       id="clipPath12">
      <path
         d="m 3.125,3.125 h 868.75 V 725 H 3.125 Z"
         transform="matrix(0.33851816,0,0,0.33851816,-96.663042,-52.615784)"
         clip-rule="evenodd"
         id="path12" />
    </clipPath>
    <clipPath
       clipPathUnits="userSpaceOnUse"
       id="clipPath13">
      <path
         d="m 3.125,3.125 h 868.75 V 725 H 3.125 Z"
         transform="matrix(0.33851816,0,0,0.33851816,-114.67866,-52.615784)"
         clip-rule="evenodd"
         id="path13" />
    </clipPath>
    <clipPath
       clipPathUnits="userSpaceOnUse"
       id="clipPath14">
      <path
         d="m 3.125,3.125 h 868.75 V 725 H 3.125 Z"
         transform="matrix(0.33851816,0,0,0.33851816,-118.67866,-52.615784)"
         clip-rule="evenodd"
         id="path14" />
    </clipPath>
    <clipPath
       clipPathUnits="userSpaceOnUse"
       id="clipPath15">
      <path
         d="m 3.125,3.125 h 868.75 V 725 H 3.125 Z"
         transform="matrix(0.33851816,0,0,0.33851816,-122.02241,-52.615784)"
         clip-rule="evenodd"
         id="path15" />
    </clipPath>
    <clipPath
       clipPathUnits="userSpaceOnUse"
       id="clipPath16">
      <path
         d="m 3.125,3.125 h 868.75 V 725 H 3.125 Z"
         transform="matrix(0.33851816,0,0,0.33851816,-4.616163,-69.615783)"
         clip-rule="evenodd"
         id="path16" />
    </clipPath>
    <clipPath
       clipPathUnits="userSpaceOnUse"
       id="clipPath17">
      <path
         d="m 3.125,3.125 h 868.75 V 725 H 3.125 Z"
         transform="matrix(0.33851816,0,0,0.33851816,-109.99116,-69.615783)"
         clip-rule="evenodd"
         id="path17" />
    </clipPath>
    <clipPath
       clipPathUnits="userSpaceOnUse"
       id="clipPath18">
      <path
         d="m 3.125,3.125 h 868.75 V 725 H 3.125 Z"
         transform="matrix(0.33851816,0,0,0.33851816,-163.35055,-69.615783)"
         clip-rule="evenodd"
         id="path18" />
    </clipPath>
    <clipPath
       clipPathUnits="userSpaceOnUse"
       id="clipPath19">
      <path
         d="m 3.125,3.125 h 868.75 V 725 H 3.125 Z"
         transform="matrix(0.33851816,0,0,0.33851816,-4.616163,-86.615784)"
         clip-rule="evenodd"
         id="path19" />
    </clipPath>
    <clipPath
       clipPathUnits="userSpaceOnUse"
       id="clipPath20">
      <path
         d="m 3.125,3.125 h 868.75 V 725 H 3.125 Z"
         transform="matrix(0.33851816,0,0,0.33851816,-109.99116,-86.615784)"
         clip-rule="evenodd"
         id="path20" />
    </clipPath>
    <clipPath
       clipPathUnits="userSpaceOnUse"
       id="clipPath21">
      <path
         d="m 3.125,3.125 h 868.75 V 725 H 3.125 Z"
         transform="matrix(0.33851816,0,0,0.33851816,-128.0068,-86.615784)"
         clip-rule="evenodd"
         id="path21" />
    </clipPath>
    <clipPath
       clipPathUnits="userSpaceOnUse"
       id="clipPath22">
      <path
         d="m 3.125,3.125 h 868.75 V 725 H 3.125 Z"
         transform="matrix(0.33851816,0,0,0.33851816,-4.616163,-103.61578)"
         clip-rule="evenodd"
         id="path22" />
    </clipPath>
    <clipPath
       clipPathUnits="userSpaceOnUse"
       id="clipPath23">
      <path
         d="m 3.125,3.125 h 868.75 V 725 H 3.125 Z"
         transform="matrix(0.33851816,0,0,0.33851816,-22.631788,-103.61578)"
         clip-rule="evenodd"
         id="path23" />
    </clipPath>
    <clipPath
       clipPathUnits="userSpaceOnUse"
       id="clipPath24">
      <path
         d="m 3.125,3.125 h 868.75 V 725 H 3.125 Z"
         transform="matrix(0.33851816,0,0,0.33851816,-4.616163,-119.61579)"
         clip-rule="evenodd"
         id="path24" />
    </clipPath>
    <clipPath
       clipPathUnits="userSpaceOnUse"
       id="clipPath25">
      <path
         d="m 3.125,3.125 h 868.75 V 725 H 3.125 Z"
         transform="matrix(0.33851816,0,0,0.33851816,-108.67867,-119.61579)"
         clip-rule="evenodd"
         id="path25" />
    </clipPath>
    <clipPath
       clipPathUnits="userSpaceOnUse"
       id="clipPath26">
      <path
         d="m 3.125,3.125 h 868.75 V 725 H 3.125 Z"
         transform="matrix(0.33851816,0,0,0.33851816,-112.67866,-119.61579)"
         clip-rule="evenodd"
         id="path26" />
    </clipPath>
    <clipPath
       clipPathUnits="userSpaceOnUse"
       id="clipPath27">
      <path
         d="m 3.125,3.125 h 868.75 V 725 H 3.125 Z"
         transform="matrix(0.33851816,0,0,0.33851816,-122.67867,-119.61579)"
         clip-rule="evenodd"
         id="path27" />
    </clipPath>
    <clipPath
       clipPathUnits="userSpaceOnUse"
       id="clipPath28">
      <path
         d="m 3.125,3.125 h 868.75 V 725 H 3.125 Z"
         transform="matrix(0.33851816,0,0,0.33851816,-126.67866,-119.61579)"
         clip-rule="evenodd"
         id="path28" />
    </clipPath>
    <clipPath
       clipPathUnits="userSpaceOnUse"
       id="clipPath29">
      <path
         d="m 3.125,3.125 h 868.75 V 725 H 3.125 Z"
         transform="matrix(0.33851816,0,0,0.33851816,-130.02242,-119.61579)"
         clip-rule="evenodd"
         id="path29" />
    </clipPath>
    <clipPath
       clipPathUnits="userSpaceOnUse"
       id="clipPath30">
      <path
         d="m 3.125,3.125 h 868.75 V 725 H 3.125 Z"
         transform="matrix(0.33851816,0,0,0.33851816,-175.38179,-119.61579)"
         clip-rule="evenodd"
         id="path30" />
    </clipPath>
    <clipPath
       clipPathUnits="userSpaceOnUse"
       id="clipPath31">
      <path
         d="m 3.125,3.125 h 868.75 V 725 H 3.125 Z"
         transform="matrix(0.33851816,0,0,0.33851816,-4.616163,-136.61579)"
         clip-rule="evenodd"
         id="path31" />
    </clipPath>
    <clipPath
       clipPathUnits="userSpaceOnUse"
       id="clipPath32">
      <path
         d="m 3.125,3.125 h 868.75 V 725 H 3.125 Z"
         transform="matrix(0.33851816,0,0,0.33851816,-108.67867,-136.61579)"
         clip-rule="evenodd"
         id="path32" />
    </clipPath>
    <clipPath
       clipPathUnits="userSpaceOnUse"
       id="clipPath33">
      <path
         d="m 3.125,3.125 h 868.75 V 725 H 3.125 Z"
         transform="matrix(0.33851816,0,0,0.33851816,-112.67866,-136.61579)"
         clip-rule="evenodd"
         id="path33" />
    </clipPath>
    <clipPath
       clipPathUnits="userSpaceOnUse"
       id="clipPath34">
      <path
         d="m 3.125,3.125 h 868.75 V 725 H 3.125 Z"
         transform="matrix(0.33851816,0,0,0.33851816,-122.67867,-136.61579)"
         clip-rule="evenodd"
         id="path34" />
    </clipPath>
    <clipPath
       clipPathUnits="userSpaceOnUse"
       id="clipPath35">
      <path
         d="m 3.125,3.125 h 868.75 V 725 H 3.125 Z"
         transform="matrix(0.33851816,0,0,0.33851816,-126.67866,-136.61579)"
         clip-rule="evenodd"
         id="path35" />
    </clipPath>
    <clipPath
       clipPathUnits="userSpaceOnUse"
       id="clipPath36">
      <path
         d="m 3.125,3.125 h 868.75 V 725 H 3.125 Z"
         transform="matrix(0.33851816,0,0,0.33851816,-130.02242,-136.61579)"
         clip-rule="evenodd"
         id="path36" />
    </clipPath>
    <clipPath
       clipPathUnits="userSpaceOnUse"
       id="clipPath37">
      <path
         d="m 3.125,3.125 h 868.75 V 725 H 3.125 Z"
         transform="matrix(0.33851816,0,0,0.33851816,-141.03804,-136.61579)"
         clip-rule="evenodd"
         id="path37" />
    </clipPath>
    <clipPath
       clipPathUnits="userSpaceOnUse"
       id="clipPath38">
      <path
         d="m 3.125,3.125 h 868.75 V 725 H 3.125 Z"
         transform="matrix(0.33851816,0,0,0.33851816,-4.616163,-153.61578)"
         clip-rule="evenodd"
         id="path38" />
    </clipPath>
    <clipPath
       clipPathUnits="userSpaceOnUse"
       id="clipPath39">
      <path
         d="m 3.125,3.125 h 868.75 V 725 H 3.125 Z"
         transform="matrix(0.33851816,0,0,0.33851816,-43.975538,-153.61578)"
         clip-rule="evenodd"
         id="path39" />
    </clipPath>
    <clipPath
       clipPathUnits="userSpaceOnUse"
       id="clipPath40">
      <path
         d="m 3.125,3.125 h 868.75 V 725 H 3.125 Z"
         transform="matrix(0.33851816,0,0,0.33851816,-50.991163,-153.61578)"
         clip-rule="evenodd"
         id="path40" />
    </clipPath>
    <clipPath
       clipPathUnits="userSpaceOnUse"
       id="clipPath41">
      <path
         d="m 3.125,3.125 h 868.75 V 725 H 3.125 Z"
         transform="matrix(0.33851816,0,0,0.33851816,-4.616163,-170.61578)"
         clip-rule="evenodd"
         id="path41" />
    </clipPath>
    <clipPath
       clipPathUnits="userSpaceOnUse"
       id="clipPath42">
      <path
         d="m 3.125,3.125 h 868.75 V 725 H 3.125 Z"
         transform="matrix(0.33851816,0,0,0.33851816,-19.959912,-170.61578)"
         clip-rule="evenodd"
         id="path42" />
    </clipPath>
    <clipPath
       clipPathUnits="userSpaceOnUse"
       id="clipPath43">
      <path
         d="m 3.125,3.125 h 868.75 V 725 H 3.125 Z"
         transform="matrix(0.33851816,0,0,0.33851816,-4.616163,-187.61578)"
         clip-rule="evenodd"
         id="path43" />
    </clipPath>
    <clipPath
       clipPathUnits="userSpaceOnUse"
       id="clipPath44">
      <path
         d="m 3.125,3.125 h 868.75 V 725 H 3.125 Z"
         transform="matrix(0.33851816,0,0,0.33851816,-4.616163,-204.61578)"
         clip-rule="evenodd"
         id="path44" />
    </clipPath>
  </defs>
  <g
     id="g1">
    <path
       id="path1"
       d="M 0,0 H 280 V 232 H 0 Z"
       style="fill:#ffffff;fill-opacity:1;fill-rule:nonzero;stroke:none"
       clip-path="url(#clipPath2)" />
    <path
       id="path3"
       d="m 123,3777 h 290 v 240 H 123 Z"
       style="fill:#ffffff;fill-opacity:1;fill-rule:nonzero;stroke:#000000;stroke-width:1;stroke-linecap:butt;stroke-linejoin:miter;stroke-miterlimit:10;stroke-dasharray:none;stroke-opacity:1"
       transform="matrix(0.94529638,0,0,0.94529638,-113.32576,-3567.4389)"
       clip-path="url(#clipPath4)" />
    <g
       id="g4" />
    <text
       id="text4"
       xml:space="preserve"
       transform="matrix(0.94529638,0,0,0.94529638,116.24834,19.488026)"
       clip-path="url(#clipPath5)"><tspan
         id="tspan4"
         style="font-variant:normal;font-weight:normal;font-size:12px;font-family:Arial;writing-mode:lr-tb;fill:#000000;fill-opacity:1;fill-rule:nonzero;stroke:none"
         x="0"
         y="0"> </tspan></text>
    <text
       id="text5"
       xml:space="preserve"
       transform="matrix(0.94529638,0,0,0.94529638,119.40917,19.488026)"
       clip-path="url(#clipPath6)"><tspan
         id="tspan5"
         style="font-style:italic;font-variant:normal;font-weight:normal;font-size:12px;font-family:Arial;writing-mode:lr-tb;fill:#000000;fill-opacity:1;fill-rule:nonzero;stroke:none"
         x="0"
         y="0">part</tspan></text>
    <text
       id="text6"
       xml:space="preserve"
       transform="matrix(0.94529638,0,0,0.94529638,138.96499,19.488026)"
       clip-path="url(#clipPath7)"><tspan
         id="tspan6"
         style="font-style:italic;font-variant:normal;font-weight:normal;font-size:12px;font-family:Arial;writing-mode:lr-tb;fill:#000000;fill-opacity:1;fill-rule:nonzero;stroke:none"
         x="0"
         y="0">s</tspan></text>
    <text
       id="text7"
       xml:space="preserve"
       transform="matrix(0.94529638,0,0,0.94529638,4.3636422,33.667472)"
       clip-path="url(#clipPath8)"><tspan
         id="tspan7"
         style="font-variant:normal;font-weight:700;font-size:12px;font-family:Arial;writing-mode:lr-tb;fill:#000000;fill-opacity:1;fill-rule:nonzero;stroke:none"
         x="0"
         y="0">^</tspan></text>
    <text
       id="text8"
       xml:space="preserve"
       transform="matrix(0.94529638,0,0,0.94529638,10.995487,33.667472)"
       clip-path="url(#clipPath9)"><tspan
         id="tspan8"
         style="font-variant:normal;font-weight:normal;font-size:12px;font-family:Arial;writing-mode:lr-tb;fill:#000000;fill-opacity:1;fill-rule:nonzero;stroke:none"
         x="0"
         y="0">part2 : PartDef2</tspan></text>
    <text
       id="text9"
       xml:space="preserve"
       transform="matrix(0.94529638,0,0,0.94529638,4.3636422,49.73751)"
       clip-path="url(#clipPath10)"><tspan
         id="tspan9"
         style="font-variant:normal;font-weight:normal;font-size:12px;font-family:Arial;writing-mode:lr-tb;fill:#000000;fill-opacity:1;fill-rule:nonzero;stroke:none"
         x="0"
         y="0">part1 : PartDef1 </tspan></text>
    <text
       id="text10"
       xml:space="preserve"
       transform="matrix(0.94529638,0,0,0.94529638,87.594039,49.73751)"
       clip-path="url(#clipPath11)"><tspan
         id="tspan10"
         style="font-variant:normal;font-weight:700;font-size:12px;font-family:Arial;writing-mode:lr-tb;fill:#000000;fill-opacity:1;fill-rule:nonzero;stroke:none"
         x="0"
         y="0">[</tspan></text>
    <text
       id="text11"
       xml:space="preserve"
       transform="matrix(0.94529638,0,0,0.94529638,91.375224,49.73751)"
       clip-path="url(#clipPath12)"><tspan
         id="tspan11"
         style="font-variant:normal;font-weight:normal;font-size:12px;font-family:Arial;writing-mode:lr-tb;fill:#000000;fill-opacity:1;fill-rule:nonzero;stroke:none"
         x="0"
         y="0">1..*</tspan></text>
    <text
       id="text12"
       xml:space="preserve"
       transform="matrix(0.94529638,0,0,0.94529638,108.40532,49.73751)"
       clip-path="url(#clipPath13)"><tspan
         id="tspan12"
         style="font-variant:normal;font-weight:700;font-size:12px;font-family:Arial;writing-mode:lr-tb;fill:#000000;fill-opacity:1;fill-rule:nonzero;stroke:none"
         x="0"
         y="0">]</tspan></text>
    <text
       id="text13"
       xml:space="preserve"
       transform="matrix(0.94529638,0,0,0.94529638,112.18651,49.73751)"
       clip-path="url(#clipPath14)"><tspan
         id="tspan13"
         style="font-variant:normal;font-weight:normal;font-size:12px;font-family:Arial;writing-mode:lr-tb;fill:#000000;fill-opacity:1;fill-rule:nonzero;stroke:none"
         x="0"
         y="0"> </tspan></text>
    <text
       id="text14"
       xml:space="preserve"
       transform="matrix(0.94529638,0,0,0.94529638,115.34734,49.73751)"
       clip-path="url(#clipPath15)"><tspan
         id="tspan14"
         style="font-variant:normal;font-weight:700;font-size:12px;font-family:Arial;writing-mode:lr-tb;fill:#000000;fill-opacity:1;fill-rule:nonzero;stroke:none"
         x="0"
         y="0">ordered nonunique</tspan></text>
    <g
       id="g15" />
    <text
       id="text15"
       xml:space="preserve"
       transform="matrix(0.94529638,0,0,0.94529638,4.3636422,65.807548)"
       clip-path="url(#clipPath16)"><tspan
         id="tspan15"
         style="font-variant:normal;font-weight:normal;font-size:12px;font-family:Arial;writing-mode:lr-tb;fill:#000000;fill-opacity:1;fill-rule:nonzero;stroke:none"
         x="0"
         y="0">part3R : PartDef3R </tspan></text>
    <text
       id="text16"
       xml:space="preserve"
       transform="matrix(0.94529638,0,0,0.94529638,103.97425,65.807548)"
       clip-path="url(#clipPath17)"><tspan
         id="tspan16"
         style="font-variant:normal;font-weight:700;font-size:12px;font-family:Arial;writing-mode:lr-tb;fill:#000000;fill-opacity:1;fill-rule:nonzero;stroke:none"
         x="0"
         y="0">redefines</tspan></text>
    <text
       id="text17"
       xml:space="preserve"
       transform="matrix(0.94529638,0,0,0.94529638,154.41468,65.807548)"
       clip-path="url(#clipPath18)"><tspan
         id="tspan17"
         style="font-variant:normal;font-weight:normal;font-size:12px;font-family:Arial;writing-mode:lr-tb;fill:#000000;fill-opacity:1;fill-rule:nonzero;stroke:none"
         x="0"
         y="0"> part3</tspan></text>
    <text
       id="text18"
       xml:space="preserve"
       transform="matrix(0.94529638,0,0,0.94529638,4.3636422,81.877587)"
       clip-path="url(#clipPath19)"><tspan
         id="tspan18"
         style="font-variant:normal;font-weight:normal;font-size:12px;font-family:Arial;writing-mode:lr-tb;fill:#000000;fill-opacity:1;fill-rule:nonzero;stroke:none"
         x="0"
         y="0">part4R : PartDef4R </tspan></text>
    <text
       id="text19"
       xml:space="preserve"
       transform="matrix(0.94529638,0,0,0.94529638,103.97425,81.877587)"
       clip-path="url(#clipPath20)"><tspan
         id="tspan19"
         style="font-variant:normal;font-weight:700;font-size:12px;font-family:Arial;writing-mode:lr-tb;fill:#000000;fill-opacity:1;fill-rule:nonzero;stroke:none"
         x="0"
         y="0">:&gt;&gt;</tspan></text>
    <text
       id="text20"
       xml:space="preserve"
       transform="matrix(0.94529638,0,0,0.94529638,121.00436,81.877587)"
       clip-path="url(#clipPath21)"><tspan
         id="tspan20"
         style="font-variant:normal;font-weight:normal;font-size:12px;font-family:Arial;writing-mode:lr-tb;fill:#000000;fill-opacity:1;fill-rule:nonzero;stroke:none"
         x="0"
         y="0"> part4</tspan></text>
    <text
       id="text21"
       xml:space="preserve"
       transform="matrix(0.94529638,0,0,0.94529638,4.3636422,97.947625)"
       clip-path="url(#clipPath22)"><tspan
         id="tspan21"
         style="font-variant:normal;font-weight:700;font-size:12px;font-family:Arial;writing-mode:lr-tb;fill:#000000;fill-opacity:1;fill-rule:nonzero;stroke:none"
         x="0"
         y="0">:&gt;&gt;</tspan></text>
    <text
       id="text22"
       xml:space="preserve"
       transform="matrix(0.94529638,0,0,0.94529638,21.393747,97.947625)"
       clip-path="url(#clipPath23)"><tspan
         id="tspan22"
         style="font-variant:normal;font-weight:normal;font-size:12px;font-family:Arial;writing-mode:lr-tb;fill:#000000;fill-opacity:1;fill-rule:nonzero;stroke:none"
         x="0"
         y="0"> part5</tspan></text>
    <text
       id="text23"
       xml:space="preserve"
       transform="matrix(0.94529638,0,0,0.94529638,4.3636422,113.07237)"
       clip-path="url(#clipPath24)"><tspan
         id="tspan23"
         style="font-variant:normal;font-weight:normal;font-size:12px;font-family:Arial;writing-mode:lr-tb;fill:#000000;fill-opacity:1;fill-rule:nonzero;stroke:none"
         x="0"
         y="0">part6S : PartDef6S </tspan></text>
    <text
       id="text24"
       xml:space="preserve"
       transform="matrix(0.94529638,0,0,0.94529638,102.73355,113.07237)"
       clip-path="url(#clipPath25)"><tspan
         id="tspan24"
         style="font-variant:normal;font-weight:700;font-size:12px;font-family:Arial;writing-mode:lr-tb;fill:#000000;fill-opacity:1;fill-rule:nonzero;stroke:none"
         x="0"
         y="0">[</tspan></text>
    <text
       id="text25"
       xml:space="preserve"
       transform="matrix(0.94529638,0,0,0.94529638,106.51473,113.07237)"
       clip-path="url(#clipPath26)"><tspan
         id="tspan25"
         style="font-variant:normal;font-weight:normal;font-size:12px;font-family:Arial;writing-mode:lr-tb;fill:#000000;fill-opacity:1;fill-rule:nonzero;stroke:none"
         x="0"
         y="0">m</tspan></text>
    <text
       id="text26"
       xml:space="preserve"
       transform="matrix(0.94529638,0,0,0.94529638,115.9677,113.07237)"
       clip-path="url(#clipPath27)"><tspan
         id="tspan26"
         style="font-variant:normal;font-weight:700;font-size:12px;font-family:Arial;writing-mode:lr-tb;fill:#000000;fill-opacity:1;fill-rule:nonzero;stroke:none"
         x="0"
         y="0">]</tspan></text>
    <g
       id="g27" />
    <text
       id="text27"
       xml:space="preserve"
       transform="matrix(0.94529638,0,0,0.94529638,119.74888,113.07237)"
       clip-path="url(#clipPath28)"><tspan
         id="tspan27"
         style="font-variant:normal;font-weight:normal;font-size:12px;font-family:Arial;writing-mode:lr-tb;fill:#000000;fill-opacity:1;fill-rule:nonzero;stroke:none"
         x="0"
         y="0"> </tspan></text>
    <text
       id="text28"
       xml:space="preserve"
       transform="matrix(0.94529638,0,0,0.94529638,122.90972,113.07237)"
       clip-path="url(#clipPath29)"><tspan
         id="tspan28"
         style="font-variant:normal;font-weight:700;font-size:12px;font-family:Arial;writing-mode:lr-tb;fill:#000000;fill-opacity:1;fill-rule:nonzero;stroke:none"
         x="0"
         y="0">subsets</tspan></text>
    <text
       id="text29"
       xml:space="preserve"
       transform="matrix(0.94529638,0,0,0.94529638,165.78777,113.07237)"
       clip-path="url(#clipPath30)"><tspan
         id="tspan29"
         style="font-variant:normal;font-weight:normal;font-size:12px;font-family:Arial;writing-mode:lr-tb;fill:#000000;fill-opacity:1;fill-rule:nonzero;stroke:none"
         x="0"
         y="0"> part6</tspan></text>
    <text
       id="text30"
       xml:space="preserve"
       transform="matrix(0.94529638,0,0,0.94529638,4.3636422,129.14241)"
       clip-path="url(#clipPath31)"><tspan
         id="tspan30"
         style="font-variant:normal;font-weight:normal;font-size:12px;font-family:Arial;writing-mode:lr-tb;fill:#000000;fill-opacity:1;fill-rule:nonzero;stroke:none"
         x="0"
         y="0">part7S : PartDef7S </tspan></text>
    <text
       id="text31"
       xml:space="preserve"
       transform="matrix(0.94529638,0,0,0.94529638,102.73355,129.14241)"
       clip-path="url(#clipPath32)"><tspan
         id="tspan31"
         style="font-variant:normal;font-weight:700;font-size:12px;font-family:Arial;writing-mode:lr-tb;fill:#000000;fill-opacity:1;fill-rule:nonzero;stroke:none"
         x="0"
         y="0">[</tspan></text>
    <text
       id="text32"
       xml:space="preserve"
       transform="matrix(0.94529638,0,0,0.94529638,106.51473,129.14241)"
       clip-path="url(#clipPath33)"><tspan
         id="tspan32"
         style="font-variant:normal;font-weight:normal;font-size:12px;font-family:Arial;writing-mode:lr-tb;fill:#000000;fill-opacity:1;fill-rule:nonzero;stroke:none"
         x="0"
         y="0">m</tspan></text>
    <text
       id="text33"
       xml:space="preserve"
       transform="matrix(0.94529638,0,0,0.94529638,115.9677,129.14241)"
       clip-path="url(#clipPath34)"><tspan
         id="tspan33"
         style="font-variant:normal;font-weight:700;font-size:12px;font-family:Arial;writing-mode:lr-tb;fill:#000000;fill-opacity:1;fill-rule:nonzero;stroke:none"
         x="0"
         y="0">]</tspan></text>
    <text
       id="text34"
       xml:space="preserve"
       transform="matrix(0.94529638,0,0,0.94529638,119.74888,129.14241)"
       clip-path="url(#clipPath35)"><tspan
         id="tspan34"
         style="font-variant:normal;font-weight:normal;font-size:12px;font-family:Arial;writing-mode:lr-tb;fill:#000000;fill-opacity:1;fill-rule:nonzero;stroke:none"
         x="0"
         y="0"> </tspan></text>
    <text
       id="text35"
       xml:space="preserve"
       transform="matrix(0.94529638,0,0,0.94529638,122.90972,129.14241)"
       clip-path="url(#clipPath36)"><tspan
         id="tspan35"
         style="font-variant:normal;font-weight:700;font-size:12px;font-family:Arial;writing-mode:lr-tb;fill:#000000;fill-opacity:1;fill-rule:nonzero;stroke:none"
         x="0"
         y="0">:&gt;</tspan></text>
    <text
       id="text36"
       xml:space="preserve"
       transform="matrix(0.94529638,0,0,0.94529638,133.32275,129.14241)"
       clip-path="url(#clipPath37)"><tspan
         id="tspan36"
         style="font-variant:normal;font-weight:normal;font-size:12px;font-family:Arial;writing-mode:lr-tb;fill:#000000;fill-opacity:1;fill-rule:nonzero;stroke:none"
         x="0"
         y="0"> part7</tspan></text>
    <text
       id="text37"
       xml:space="preserve"
       transform="matrix(0.94529638,0,0,0.94529638,4.3636422,145.21244)"
       clip-path="url(#clipPath38)"><tspan
         id="tspan37"
         style="font-variant:normal;font-weight:normal;font-size:12px;font-family:Arial;writing-mode:lr-tb;fill:#000000;fill-opacity:1;fill-rule:nonzero;stroke:none"
         x="0"
         y="0">part8R </tspan></text>
    <text
       id="text38"
       xml:space="preserve"
       transform="matrix(0.94529638,0,0,0.94529638,41.569917,145.21244)"
       clip-path="url(#clipPath39)"><tspan
         id="tspan38"
         style="font-variant:normal;font-weight:700;font-size:12px;font-family:Arial;writing-mode:lr-tb;fill:#000000;fill-opacity:1;fill-rule:nonzero;stroke:none"
         x="0"
         y="0">=</tspan></text>
    <text
       id="text39"
       xml:space="preserve"
       transform="matrix(0.94529638,0,0,0.94529638,48.201762,145.21244)"
       clip-path="url(#clipPath40)"><tspan
         id="tspan39"
         style="font-variant:normal;font-weight:normal;font-size:12px;font-family:Arial;writing-mode:lr-tb;fill:#000000;fill-opacity:1;fill-rule:nonzero;stroke:none"
         x="0"
         y="0"> part8</tspan></text>
    <text
       id="text40"
       xml:space="preserve"
       transform="matrix(0.94529638,0,0,0.94529638,4.3636422,161.28248)"
       clip-path="url(#clipPath41)"><tspan
         id="tspan40"
         style="font-variant:normal;font-weight:700;font-size:12px;font-family:Arial;writing-mode:lr-tb;fill:#000000;fill-opacity:1;fill-rule:nonzero;stroke:none"
         x="0"
         y="0">ref</tspan></text>
    <g
       id="g41" />
    <text
       id="text41"
       xml:space="preserve"
       transform="matrix(0.94529638,0,0,0.94529638,18.868033,161.28248)"
       clip-path="url(#clipPath42)"><tspan
         id="tspan41"
         style="font-variant:normal;font-weight:normal;font-size:12px;font-family:Arial;writing-mode:lr-tb;fill:#000000;fill-opacity:1;fill-rule:nonzero;stroke:none"
         x="0"
         y="0"> part9 : PartDef9</tspan></text>
    <text
       id="text42"
       xml:space="preserve"
       transform="matrix(0.94529638,0,0,0.94529638,4.3636422,177.35252)"
       clip-path="url(#clipPath43)"><tspan
         id="tspan42"
         style="font-variant:normal;font-weight:normal;font-size:12px;font-family:Arial;writing-mode:lr-tb;fill:#000000;fill-opacity:1;fill-rule:nonzero;stroke:none"
         x="0"
         y="0">part10</tspan></text>
    <text
       id="text43"
       xml:space="preserve"
       transform="matrix(0.94529638,0,0,0.94529638,4.3636422,193.42256)"
       clip-path="url(#clipPath44)"><tspan
         id="tspan43"
         style="font-variant:normal;font-weight:700;font-size:14px;font-family:Arial;writing-mode:lr-tb;fill:#000000;fill-opacity:1;fill-rule:nonzero;stroke:none"
         x="0"
         y="0">...</tspan></text>
  </g>
</svg>
