<?xml version="1.0" encoding="UTF-8" standalone="no"?>
<!-- Created with Inkscape (http://www.inkscape.org/) -->

<svg
   version="1.1"
   id="svg1"
   width="184"
   height="236.16"
   viewBox="0 0 184 236.16"
   xmlns="http://www.w3.org/2000/svg"
   xmlns:svg="http://www.w3.org/2000/svg">
  <defs
     id="defs1">
    <clipPath
       clipPathUnits="userSpaceOnUse"
       id="clipPath2">
      <path
         d="M 0,0 H 572.99805 V 737.98828 H 0 Z"
         transform="scale(0.31999999)"
         clip-rule="evenodd"
         id="path2" />
    </clipPath>
    <clipPath
       clipPathUnits="userSpaceOnUse"
       id="clipPath4">
      <path
         d="M 3.125,6.25 H 568.75 v 725 H 3.125 Z"
         transform="matrix(0.340432,0,0,0.340432,1437.3669,1312.8085)"
         clip-rule="evenodd"
         id="path4" />
    </clipPath>
    <clipPath
       clipPathUnits="userSpaceOnUse"
       id="clipPath5">
      <path
         d="M 3.125,6.25 H 568.75 v 725 H 3.125 Z"
         transform="matrix(0.340432,0,0,0.340432,-74.945595,-25.691479)"
         clip-rule="evenodd"
         id="path5" />
    </clipPath>
    <clipPath
       clipPathUnits="userSpaceOnUse"
       id="clipPath6">
      <path
         d="M 3.125,6.25 H 568.75 v 725 H 3.125 Z"
         transform="matrix(0.340432,0,0,0.340432,-41.164346,-44.691479)"
         clip-rule="evenodd"
         id="path6" />
    </clipPath>
    <clipPath
       clipPathUnits="userSpaceOnUse"
       id="clipPath7">
      <path
         d="M 3.125,6.25 H 568.75 v 725 H 3.125 Z"
         transform="matrix(0.340432,0,0,0.340432,-66.273726,-71.691479)"
         clip-rule="evenodd"
         id="path7" />
    </clipPath>
    <clipPath
       clipPathUnits="userSpaceOnUse"
       id="clipPath9">
      <path
         d="M 3.125,6.25 H 568.75 v 725 H 3.125 Z"
         transform="matrix(0.340432,0,0,0.340432,1437.3669,1312.8085)"
         clip-rule="evenodd"
         id="path9" />
    </clipPath>
    <clipPath
       clipPathUnits="userSpaceOnUse"
       id="clipPath10">
      <path
         d="M 3.125,6.25 H 568.75 v 725 H 3.125 Z"
         transform="matrix(0.340432,0,0,0.340432,-32.101845,-119.69148)"
         clip-rule="evenodd"
         id="path10" />
    </clipPath>
    <clipPath
       clipPathUnits="userSpaceOnUse"
       id="clipPath11">
      <path
         d="M 3.125,6.25 H 568.75 v 725 H 3.125 Z"
         transform="matrix(0.340432,0,0,0.340432,-66.336226,-139.69148)"
         clip-rule="evenodd"
         id="path11" />
    </clipPath>
    <clipPath
       clipPathUnits="userSpaceOnUse"
       id="clipPath13">
      <path
         d="M 3.125,6.25 H 568.75 v 725 H 3.125 Z"
         transform="matrix(0.340432,0,0,0.340432,1437.3669,1312.8085)"
         clip-rule="evenodd"
         id="path13" />
    </clipPath>
    <clipPath
       clipPathUnits="userSpaceOnUse"
       id="clipPath14">
      <path
         d="M 3.125,6.25 H 568.75 v 725 H 3.125 Z"
         transform="matrix(0.340432,0,0,0.340432,-32.101845,-194.69148)"
         clip-rule="evenodd"
         id="path14" />
    </clipPath>
    <clipPath
       clipPathUnits="userSpaceOnUse"
       id="clipPath15">
      <path
         d="M 3.125,6.25 H 568.75 v 725 H 3.125 Z"
         transform="matrix(0.340432,0,0,0.340432,-66.336226,-214.69148)"
         clip-rule="evenodd"
         id="path15" />
    </clipPath>
    <clipPath
       clipPathUnits="userSpaceOnUse"
       id="clipPath17">
      <path
         d="M 3.125,6.25 H 568.75 v 725 H 3.125 Z"
         transform="matrix(0.340432,0,0,0.340432,1437.3669,1312.8085)"
         clip-rule="evenodd"
         id="path17" />
    </clipPath>
    <clipPath
       clipPathUnits="userSpaceOnUse"
       id="clipPath19">
      <path
         d="M 3.125,6.25 H 568.75 v 725 H 3.125 Z"
         transform="matrix(0.340432,0,0,0.340432,1437.3669,1312.8085)"
         clip-rule="evenodd"
         id="path19" />
    </clipPath>
    <clipPath
       clipPathUnits="userSpaceOnUse"
       id="clipPath21">
      <path
         d="M 3.125,6.25 H 568.75 v 725 H 3.125 Z"
         transform="matrix(0.340432,0,0,0.340432,1437.3669,1312.8085)"
         clip-rule="evenodd"
         id="path21" />
    </clipPath>
  </defs>
  <g
     id="g1">
    <path
       id="path1"
       d="M 0,0 H 183 V 236 H 0 Z"
       style="fill:#ffffff;fill-opacity:1;fill-rule:nonzero;stroke:none"
       clip-path="url(#clipPath2)" />
    <path
       id="path3"
       d="M 1447.41,1317 H 1623 c 0.663,0 1.3007,0.1268 1.9133,0.3805 0.6125,0.2538 1.1532,0.6151 1.6222,1.084 0.4688,0.4689 0.83,1.0095 1.0838,1.6221 0.2538,0.6126 0.3806,1.2504 0.3807,1.9134 v 233 c -10e-5,0.663 -0.1269,1.3007 -0.3807,1.9131 -0.2538,0.6127 -0.615,1.1534 -1.0838,1.6223 -0.469,0.4688 -1.0097,0.83 -1.6222,1.0837 -0.6126,0.2538 -1.2503,0.3808 -1.9133,0.3809 h -175.59 c -0.6632,-10e-5 -1.301,-0.1271 -1.9134,-0.3809 -0.6127,-0.2537 -1.1535,-0.6149 -1.6222,-1.0837 -0.469,-0.4689 -0.8303,-1.0095 -1.0839,-1.6222 -0.2538,-0.6125 -0.3806,-1.2502 -0.3805,-1.9132 v -233 c -10e-5,-0.663 0.1267,-1.3008 0.3805,-1.9134 0.2536,-0.6126 0.6149,-1.1532 1.0839,-1.6221 0.4687,-0.4689 1.0095,-0.8302 1.6222,-1.084 0.6124,-0.2537 1.2502,-0.3805 1.9134,-0.3805 z"
       style="fill:#ffffff;fill-opacity:1;fill-rule:nonzero;stroke:#000000;stroke-width:1;stroke-linecap:butt;stroke-linejoin:miter;stroke-miterlimit:10;stroke-dasharray:none;stroke-opacity:1"
       transform="matrix(0.9399821,0,0,0.9399821,-1351.0992,-1234.0165)"
       clip-path="url(#clipPath4)" />
    <text
       id="text4"
       xml:space="preserve"
       transform="matrix(0.9399821,0,0,0.9399821,70.447518,24.14953)"
       clip-path="url(#clipPath5)"><tspan
         id="tspan4"
         style="font-variant:normal;font-weight:normal;font-size:16px;font-family:Arial;writing-mode:lr-tb;fill:#000000;fill-opacity:1;fill-rule:nonzero;stroke:none"
         x="0"
         y="0">«part»</tspan></text>
    <text
       id="text5"
       xml:space="preserve"
       transform="matrix(0.9399821,0,0,0.9399821,38.693748,42.00919)"
       clip-path="url(#clipPath6)"><tspan
         id="tspan5"
         style="font-variant:normal;font-weight:normal;font-size:16px;font-family:Arial;writing-mode:lr-tb;fill:#000000;fill-opacity:1;fill-rule:nonzero;stroke:none"
         x="0"
         y="0">part2 : PartDef2</tspan></text>
    <text
       id="text6"
       xml:space="preserve"
       transform="matrix(0.9399821,0,0,0.9399821,62.296116,67.388707)"
       clip-path="url(#clipPath7)"><tspan
         id="tspan6"
         style="font-style:italic;font-variant:normal;font-weight:normal;font-size:12px;font-family:Arial;writing-mode:lr-tb;fill:#000000;fill-opacity:1;fill-rule:nonzero;stroke:none"
         x="0"
         y="0">action flow</tspan></text>
    <path
       id="path8"
       d="m 1465,1414.5 h 130 c 0.663,0 1.3007,0.1268 1.9133,0.3805 0.6125,0.2537 1.1532,0.615 1.6221,1.084 0.4689,0.4687 0.8301,1.0094 1.0837,1.6221 0.2538,0.6125 0.3808,1.2503 0.3809,1.9134 v 35 c -10e-5,0.663 -0.1272,1.3008 -0.381,1.9133 -0.2535,0.6126 -0.6147,1.1534 -1.0836,1.6222 -0.4689,0.4688 -1.0096,0.83 -1.6221,1.0838 -0.6126,0.2538 -1.2503,0.3807 -1.9133,0.3807 h -130 c -0.6632,0 -1.301,-0.1268 -1.9136,-0.3806 -0.6125,-0.2538 -1.1532,-0.6151 -1.6219,-1.0839 -0.4689,-0.4688 -0.8302,-1.0096 -1.084,-1.6223 -0.2537,-0.6124 -0.3805,-1.2502 -0.3805,-1.9132 v -35 c 0,-0.6631 0.1268,-1.3009 0.3805,-1.9134 0.2538,-0.6127 0.6151,-1.1534 1.084,-1.6221 0.4687,-0.469 1.0094,-0.8303 1.6219,-1.084 0.6126,-0.2537 1.2504,-0.3805 1.9136,-0.3805 z"
       style="fill:#ffffff;fill-opacity:1;fill-rule:nonzero;stroke:#000000;stroke-width:1;stroke-linecap:butt;stroke-linejoin:miter;stroke-miterlimit:10;stroke-dasharray:none;stroke-opacity:1"
       transform="matrix(0.9399821,0,0,0.9399821,-1351.0992,-1234.0165)"
       clip-path="url(#clipPath9)" />
    <text
       id="text9"
       xml:space="preserve"
       transform="matrix(0.9399821,0,0,0.9399821,30.17516,112.50785)"
       clip-path="url(#clipPath10)"><tspan
         id="tspan9"
         style="font-variant:normal;font-weight:normal;font-size:16px;font-family:Arial;writing-mode:lr-tb;fill:#000000;fill-opacity:1;fill-rule:nonzero;stroke:none"
         x="0"
         y="0">«perform action»</tspan></text>
    <text
       id="text10"
       xml:space="preserve"
       transform="matrix(0.9399821,0,0,0.9399821,62.354865,131.30749)"
       clip-path="url(#clipPath11)"><tspan
         id="tspan10"
         style="font-variant:normal;font-weight:normal;font-size:16px;font-family:Arial;writing-mode:lr-tb;fill:#000000;fill-opacity:1;fill-rule:nonzero;stroke:none"
         x="0"
         y="0">action2</tspan></text>
    <path
       id="path12"
       d="m 1465,1489.5 h 130 c 0.663,0 1.3007,0.1268 1.9133,0.3805 0.6125,0.2538 1.1532,0.615 1.6221,1.0837 0.4689,0.4688 0.8301,1.0094 1.0837,1.6221 0.2538,0.6126 0.3808,1.2505 0.3809,1.9137 v 35 c -10e-5,0.663 -0.1272,1.3007 -0.381,1.9131 -0.2535,0.6127 -0.6147,1.1533 -1.0836,1.6222 -0.4689,0.4687 -1.0096,0.8301 -1.6221,1.0838 -0.6126,0.2538 -1.2503,0.3808 -1.9133,0.3809 h -130 c -0.6632,-10e-5 -1.301,-0.1272 -1.9136,-0.381 -0.6125,-0.2538 -1.1532,-0.615 -1.6219,-1.0837 -0.4689,-0.4689 -0.8302,-1.0095 -1.084,-1.6222 -0.2537,-0.6124 -0.3805,-1.2501 -0.3805,-1.9131 v -35 c 0,-0.6632 0.1268,-1.3011 0.3805,-1.9137 0.2538,-0.6127 0.6151,-1.1533 1.084,-1.6221 0.4687,-0.4687 1.0094,-0.8299 1.6219,-1.0837 0.6126,-0.2537 1.2504,-0.3805 1.9136,-0.3805 z"
       style="fill:#ffffff;fill-opacity:1;fill-rule:nonzero;stroke:#000000;stroke-width:1;stroke-linecap:butt;stroke-linejoin:miter;stroke-miterlimit:10;stroke-dasharray:none;stroke-opacity:1"
       transform="matrix(0.9399821,0,0,0.9399821,-1351.0992,-1234.0165)"
       clip-path="url(#clipPath13)" />
    <text
       id="text13"
       xml:space="preserve"
       transform="matrix(0.9399821,0,0,0.9399821,30.17516,183.00651)"
       clip-path="url(#clipPath14)"><tspan
         id="tspan13"
         style="font-variant:normal;font-weight:normal;font-size:16px;font-family:Arial;writing-mode:lr-tb;fill:#000000;fill-opacity:1;fill-rule:nonzero;stroke:none"
         x="0"
         y="0">«perform action»</tspan></text>
    <text
       id="text14"
       xml:space="preserve"
       transform="matrix(0.9399821,0,0,0.9399821,62.354865,201.80615)"
       clip-path="url(#clipPath15)"><tspan
         id="tspan14"
         style="font-variant:normal;font-weight:normal;font-size:16px;font-family:Arial;writing-mode:lr-tb;fill:#000000;fill-opacity:1;fill-rule:nonzero;stroke:none"
         x="0"
         y="0">action3</tspan></text>
    <path
       id="path16"
       d="M 1442.41,1365 H 1628"
       style="fill:none;stroke:#000000;stroke-width:1;stroke-linecap:butt;stroke-linejoin:miter;stroke-miterlimit:10;stroke-dasharray:none;stroke-opacity:1"
       transform="matrix(0.9399821,0,0,0.9399821,-1351.0992,-1234.0165)"
       clip-path="url(#clipPath17)" />
    <path
       id="path18"
       d="m 1530.5,1459.5 v 3 h -1 v -3 m 1,6 v 3 h -1 v -3 m 1,6 v 3 h -1 v -3 m 1,6 v 3 h -1 v -3 m 1,6 v 3 h -1 v -3"
       style="fill:#000000;fill-opacity:1;fill-rule:nonzero;stroke:none"
       transform="matrix(0.9399821,0,0,0.9399821,-1351.0992,-1234.0165)"
       clip-path="url(#clipPath19)" />
    <path
       id="path20"
       d="m 1525.5,1479.38 4.5,9 4.5,-9"
       style="fill:none;stroke:#000000;stroke-width:1;stroke-linecap:butt;stroke-linejoin:miter;stroke-miterlimit:10;stroke-dasharray:none;stroke-opacity:1"
       transform="matrix(0.9399821,0,0,0.9399821,-1351.0992,-1234.0165)"
       clip-path="url(#clipPath21)" />
  </g>
</svg>
