<?xml version="1.0" encoding="UTF-8" standalone="no"?>
<!-- Created with Inkscape (http://www.inkscape.org/) -->

<svg
   version="1.1"
   id="svg1"
   width="560"
   height="155.84"
   viewBox="0 0 560 155.84"
   xmlns="http://www.w3.org/2000/svg"
   xmlns:svg="http://www.w3.org/2000/svg">
  <defs
     id="defs1">
    <clipPath
       clipPathUnits="userSpaceOnUse"
       id="clipPath2">
      <path
         d="M 0,0 H 1749.0234 V 488 H 0 Z"
         transform="scale(0.31999999)"
         clip-rule="evenodd"
         id="path2" />
    </clipPath>
    <clipPath
       clipPathUnits="userSpaceOnUse"
       id="clipPath4">
      <path
         d="m 3.125,0 h 1743.75 V 488 H 3.125 Z"
         transform="matrix(0.33534863,0,0,0.33534863,1021.8936,197.95202)"
         clip-rule="evenodd"
         id="path4" />
    </clipPath>
    <clipPath
       clipPathUnits="userSpaceOnUse"
       id="clipPath5">
      <path
         d="m 3.125,0 h 1743.75 V 488 H 3.125 Z"
         transform="matrix(0.33534863,0,0,0.33534863,-270.41892,-23.547969)"
         clip-rule="evenodd"
         id="path5" />
    </clipPath>
    <clipPath
       clipPathUnits="userSpaceOnUse"
       id="clipPath6">
      <path
         d="m 3.125,0 h 1743.75 V 488 H 3.125 Z"
         transform="matrix(0.33534863,0,0,0.33534863,-249.0908,-42.547969)"
         clip-rule="evenodd"
         id="path6" />
    </clipPath>
    <clipPath
       clipPathUnits="userSpaceOnUse"
       id="clipPath8">
      <path
         d="m 3.125,0 h 1743.75 V 488 H 3.125 Z"
         transform="matrix(0.33534863,0,0,0.33534863,1021.8936,197.95202)"
         clip-rule="evenodd"
         id="path8" />
    </clipPath>
    <clipPath
       clipPathUnits="userSpaceOnUse"
       id="clipPath9">
      <path
         d="m 3.125,0 h 1743.75 V 488 H 3.125 Z"
         transform="matrix(0.33534863,0,0,0.33534863,-390.41892,-93.547969)"
         clip-rule="evenodd"
         id="path9" />
    </clipPath>
    <clipPath
       clipPathUnits="userSpaceOnUse"
       id="clipPath10">
      <path
         d="m 3.125,0 h 1743.75 V 488 H 3.125 Z"
         transform="matrix(0.33534863,0,0,0.33534863,-369.0908,-112.54797)"
         clip-rule="evenodd"
         id="path10" />
    </clipPath>
    <clipPath
       clipPathUnits="userSpaceOnUse"
       id="clipPath12">
      <path
         d="m 3.125,0 h 1743.75 V 488 H 3.125 Z"
         transform="matrix(0.33534863,0,0,0.33534863,1021.8936,197.95202)"
         clip-rule="evenodd"
         id="path12" />
    </clipPath>
    <clipPath
       clipPathUnits="userSpaceOnUse"
       id="clipPath13">
      <path
         d="m 3.125,0 h 1743.75 V 488 H 3.125 Z"
         transform="matrix(0.33534863,0,0,0.33534863,-160.41892,-93.547969)"
         clip-rule="evenodd"
         id="path13" />
    </clipPath>
    <clipPath
       clipPathUnits="userSpaceOnUse"
       id="clipPath14">
      <path
         d="m 3.125,0 h 1743.75 V 488 H 3.125 Z"
         transform="matrix(0.33534863,0,0,0.33534863,-139.09081,-112.54797)"
         clip-rule="evenodd"
         id="path14" />
    </clipPath>
    <clipPath
       clipPathUnits="userSpaceOnUse"
       id="clipPath16">
      <path
         d="m 3.125,0 h 1743.75 V 488 H 3.125 Z"
         transform="matrix(0.33534863,0,0,0.33534863,1021.8936,197.95202)"
         clip-rule="evenodd"
         id="path16" />
    </clipPath>
    <clipPath
       clipPathUnits="userSpaceOnUse"
       id="clipPath17">
      <path
         d="m 3.125,0 h 1743.75 V 488 H 3.125 Z"
         transform="matrix(0.33534863,0,0,0.33534863,-194.9033,-134.54797)"
         clip-rule="evenodd"
         id="path17" />
    </clipPath>
    <clipPath
       clipPathUnits="userSpaceOnUse"
       id="clipPath19">
      <path
         d="m 3.125,0 h 1743.75 V 488 H 3.125 Z"
         transform="matrix(0.33534863,0,0,0.33534863,1021.8936,197.95202)"
         clip-rule="evenodd"
         id="path19" />
    </clipPath>
    <clipPath
       clipPathUnits="userSpaceOnUse"
       id="clipPath20">
      <path
         d="m 3.125,0 h 1743.75 V 488 H 3.125 Z"
         transform="matrix(0.33534863,0,0,0.33534863,-338.9033,-134.54797)"
         clip-rule="evenodd"
         id="path20" />
    </clipPath>
    <clipPath
       clipPathUnits="userSpaceOnUse"
       id="clipPath22">
      <path
         d="m 3.125,0 h 1743.75 V 488 H 3.125 Z"
         transform="matrix(0.33534863,0,0,0.33534863,1021.8936,197.95202)"
         clip-rule="evenodd"
         id="path22" />
    </clipPath>
    <clipPath
       clipPathUnits="userSpaceOnUse"
       id="clipPath24">
      <path
         d="m 3.125,0 h 1743.75 V 488 H 3.125 Z"
         transform="matrix(0.33534863,0,0,0.33534863,1021.8936,197.95202)"
         clip-rule="evenodd"
         id="path24" />
    </clipPath>
    <clipPath
       clipPathUnits="userSpaceOnUse"
       id="clipPath25">
      <path
         d="m 3.125,0 h 1743.75 V 488 H 3.125 Z"
         transform="matrix(0.33534863,0,0,0.33534863,-108.9033,-134.54797)"
         clip-rule="evenodd"
         id="path25" />
    </clipPath>
    <clipPath
       clipPathUnits="userSpaceOnUse"
       id="clipPath27">
      <path
         d="m 3.125,0 h 1743.75 V 488 H 3.125 Z"
         transform="matrix(0.33534863,0,0,0.33534863,1021.8936,197.95202)"
         clip-rule="evenodd"
         id="path27" />
    </clipPath>
    <clipPath
       clipPathUnits="userSpaceOnUse"
       id="clipPath29">
      <path
         d="m 3.125,0 h 1743.75 V 488 H 3.125 Z"
         transform="matrix(0.33534863,0,0,0.33534863,1021.8936,197.95202)"
         clip-rule="evenodd"
         id="path29" />
    </clipPath>
    <clipPath
       clipPathUnits="userSpaceOnUse"
       id="clipPath30">
      <path
         d="m 3.125,0 h 1743.75 V 488 H 3.125 Z"
         transform="matrix(0.33534863,0,0,0.33534863,-18.903305,-130.54797)"
         clip-rule="evenodd"
         id="path30" />
    </clipPath>
    <clipPath
       clipPathUnits="userSpaceOnUse"
       id="clipPath32">
      <path
         d="m 3.125,0 h 1743.75 V 488 H 3.125 Z"
         transform="matrix(0.33534863,0,0,0.33534863,1021.8936,197.95202)"
         clip-rule="evenodd"
         id="path32" />
    </clipPath>
    <clipPath
       clipPathUnits="userSpaceOnUse"
       id="clipPath33">
      <path
         d="m 3.125,0 h 1743.75 V 488 H 3.125 Z"
         transform="matrix(0.33534863,0,0,0.33534863,-504.9033,-130.54797)"
         clip-rule="evenodd"
         id="path33" />
    </clipPath>
    <clipPath
       clipPathUnits="userSpaceOnUse"
       id="clipPath35">
      <path
         d="m 3.125,0 h 1743.75 V 488 H 3.125 Z"
         transform="matrix(0.33534863,0,0,0.33534863,1021.8936,197.95202)"
         clip-rule="evenodd"
         id="path35" />
    </clipPath>
    <clipPath
       clipPathUnits="userSpaceOnUse"
       id="clipPath36">
      <path
         d="m 3.125,0 h 1743.75 V 488 H 3.125 Z"
         transform="matrix(0.33534863,0,0,0.33534863,-424.9033,-134.54797)"
         clip-rule="evenodd"
         id="path36" />
    </clipPath>
    <clipPath
       clipPathUnits="userSpaceOnUse"
       id="clipPath38">
      <path
         d="m 3.125,0 h 1743.75 V 488 H 3.125 Z"
         transform="matrix(0.33534863,0,0,0.33534863,1021.8936,197.95202)"
         clip-rule="evenodd"
         id="path38" />
    </clipPath>
  </defs>
  <g
     id="g1">
    <path
       id="path1"
       d="M 0,0 H 560 V 156 H 0 Z"
       style="fill:#ffffff;fill-opacity:1;fill-rule:nonzero;stroke:none"
       clip-path="url(#clipPath2)" />
    <path
       id="path3"
       d="m 1043,200 h 544 c 0.5253,0 1.0454,0.0512 1.5607,0.1537 0.5151,0.10248 1.0154,0.25423 1.5006,0.45525 0.4852,0.20102 0.9463,0.44745 1.3832,0.73929 0.4367,0.29182 0.8409,0.62345 1.2124,0.9949 0.3713,0.37143 0.7028,0.77553 0.9947,1.21228 0.2919,0.43675 0.5382,0.89778 0.7393,1.38309 0.201,0.4853 0.3528,0.98555 0.4553,1.50076 0.1025,0.51518 0.1538,1.03543 0.1538,1.56073 v 144 c 0,0.52527 -0.051,1.0455 -0.1538,1.5607 -0.1025,0.51517 -0.2543,1.01541 -0.4553,1.50073 -0.2011,0.48532 -0.4474,0.94635 -0.7393,1.38309 -0.2919,0.4368 -0.6234,0.84091 -0.9947,1.21234 -0.3715,0.37143 -0.7757,0.70306 -1.2126,0.99487 -0.4367,0.29184 -0.8978,0.53824 -1.383,0.73926 -0.4852,0.20102 -0.9855,0.35278 -1.5006,0.45526 C 1588.0454,359.94876 1587.5253,360 1587,360 h -544 c -0.5253,0 -1.0455,-0.0512 -1.5608,-0.15375 -0.5152,-0.10245 -1.0155,-0.25421 -1.5008,-0.45523 -0.4854,-0.20102 -0.9465,-0.44745 -1.3832,-0.73929 -0.4367,-0.29181 -0.8407,-0.62344 -1.2122,-0.99487 -0.3714,-0.37143 -0.7031,-0.77554 -0.9949,-1.21234 -0.2918,-0.43674 -0.5383,-0.89777 -0.7393,-1.38309 -0.2011,-0.48532 -0.3528,-0.98556 -0.4552,-1.50073 C 1035.0512,353.0455 1035,352.52527 1035,352 V 208 c 0,-0.5253 0.051,-1.04555 0.1536,-1.56073 0.1024,-0.51521 0.2541,-1.01546 0.4552,-1.50076 0.201,-0.48531 0.4475,-0.94634 0.7393,-1.38309 0.2918,-0.43675 0.6235,-0.84085 0.9949,-1.21228 0.3715,-0.37145 0.7755,-0.70308 1.2123,-0.99492 0.4366,-0.29182 0.8977,-0.53825 1.3831,-0.73927 0.4853,-0.20102 0.9856,-0.35277 1.5008,-0.45523 C 1041.9545,200.05124 1042.4747,200 1043,200 Z"
       style="fill:#ffffff;fill-opacity:1;fill-rule:nonzero;stroke:#000000;stroke-width:1;stroke-linecap:butt;stroke-linejoin:miter;stroke-miterlimit:10;stroke-dasharray:none;stroke-opacity:1"
       transform="matrix(0.95423078,0,0,0.95423078,-975.1223,-188.89191)"
       clip-path="url(#clipPath4)" />
    <text
       id="text4"
       xml:space="preserve"
       transform="matrix(0.95423078,0,0,0.95423078,258.04206,22.470197)"
       clip-path="url(#clipPath5)"><tspan
         id="tspan4"
         style="font-variant:normal;font-weight:normal;font-size:16px;font-family:Arial;writing-mode:lr-tb;fill:#000000;fill-opacity:1;fill-rule:nonzero;stroke:none"
         x="0"
         y="0">«part»</tspan></text>
    <text
       id="text5"
       xml:space="preserve"
       transform="matrix(0.95423078,0,0,0.95423078,237.69011,40.600582)"
       clip-path="url(#clipPath6)"><tspan
         id="tspan5"
         style="font-variant:normal;font-weight:normal;font-size:16px;font-family:Arial;writing-mode:lr-tb;fill:#000000;fill-opacity:1;fill-rule:nonzero;stroke:none"
         x="0"
         y="0">part1 : Part1</tspan></text>
    <path
       id="path7"
       d="m 1358.5,270 h 153 c 0.464,0 0.9104,0.0888 1.3391,0.26639 0.4288,0.17761 0.8074,0.43051 1.1356,0.75873 0.3282,0.32815 0.5811,0.70663 0.7587,1.13543 0.1776,0.42884 0.2665,0.87531 0.2666,1.33945 v 63 c -10e-5,0.46411 -0.089,0.91055 -0.2667,1.33936 -0.1776,0.4288 -0.4304,0.80728 -0.7586,1.13549 -0.3282,0.32816 -0.7068,0.58106 -1.1356,0.75867 -0.4287,0.17764 -0.8751,0.26645 -1.3391,0.26648 h -153 c -0.4642,-3e-5 -0.9108,-0.0888 -1.3396,-0.26648 -0.4288,-0.17761 -0.8072,-0.43051 -1.1354,-0.75867 -0.3282,-0.32821 -0.5811,-0.70669 -0.7588,-1.13549 -0.1776,-0.42881 -0.2663,-0.87525 -0.2662,-1.33936 v -63 c -10e-5,-0.46414 0.089,-0.91061 0.2662,-1.33945 0.1777,-0.4288 0.4306,-0.80728 0.7588,-1.13543 0.3282,-0.32822 0.7066,-0.58112 1.1354,-0.75873 C 1357.5892,270.08881 1358.0358,270 1358.5,270 Z"
       style="fill:#ffffff;fill-opacity:1;fill-rule:nonzero;stroke:#000000;stroke-width:1;stroke-linecap:butt;stroke-linejoin:miter;stroke-miterlimit:10;stroke-dasharray:none;stroke-opacity:1"
       transform="matrix(0.95423078,0,0,0.95423078,-975.1223,-188.89191)"
       clip-path="url(#clipPath8)" />
    <text
       id="text8"
       xml:space="preserve"
       transform="matrix(0.95423078,0,0,0.95423078,372.54975,89.266351)"
       clip-path="url(#clipPath9)"><tspan
         id="tspan8"
         style="font-variant:normal;font-weight:normal;font-size:16px;font-family:Arial;writing-mode:lr-tb;fill:#000000;fill-opacity:1;fill-rule:nonzero;stroke:none"
         x="0"
         y="0">«part»</tspan></text>
    <text
       id="text9"
       xml:space="preserve"
       transform="matrix(0.95423078,0,0,0.95423078,352.1978,107.39674)"
       clip-path="url(#clipPath10)"><tspan
         id="tspan9"
         style="font-variant:normal;font-weight:normal;font-size:16px;font-family:Arial;writing-mode:lr-tb;fill:#000000;fill-opacity:1;fill-rule:nonzero;stroke:none"
         x="0"
         y="0">part3 : Part3</tspan></text>
    <path
       id="path11"
       d="m 1128.5,270 h 153 c 0.464,0 0.9104,0.0888 1.3392,0.26639 0.4289,0.17761 0.8074,0.43051 1.1357,0.75873 0.3281,0.32815 0.5809,0.70663 0.7585,1.13543 0.1776,0.42884 0.2665,0.87531 0.2666,1.33945 v 63 c -10e-5,0.46411 -0.089,0.91055 -0.2666,1.33936 -0.1776,0.4288 -0.4304,0.80728 -0.7585,1.13549 -0.3283,0.32816 -0.7068,0.58106 -1.1357,0.75867 -0.4288,0.17764 -0.8752,0.26645 -1.3392,0.26648 h -153 c -0.4641,-3e-5 -0.9106,-0.0888 -1.3395,-0.26648 -0.4288,-0.17761 -0.8073,-0.43051 -1.1355,-0.75867 -0.3282,-0.32821 -0.5811,-0.70669 -0.7588,-1.13549 -0.1776,-0.42881 -0.2663,-0.87525 -0.2662,-1.33936 v -63 c -10e-5,-0.46414 0.089,-0.91061 0.2662,-1.33945 0.1777,-0.4288 0.4306,-0.80728 0.7588,-1.13543 0.3282,-0.32822 0.7067,-0.58112 1.1355,-0.75873 C 1127.5894,270.08881 1128.0359,270 1128.5,270 Z"
       style="fill:#ffffff;fill-opacity:1;fill-rule:nonzero;stroke:#000000;stroke-width:1;stroke-linecap:butt;stroke-linejoin:miter;stroke-miterlimit:10;stroke-dasharray:none;stroke-opacity:1"
       transform="matrix(0.95423078,0,0,0.95423078,-975.1223,-188.89191)"
       clip-path="url(#clipPath12)" />
    <text
       id="text12"
       xml:space="preserve"
       transform="matrix(0.95423078,0,0,0.95423078,153.07667,89.266351)"
       clip-path="url(#clipPath13)"><tspan
         id="tspan12"
         style="font-variant:normal;font-weight:normal;font-size:16px;font-family:Arial;writing-mode:lr-tb;fill:#000000;fill-opacity:1;fill-rule:nonzero;stroke:none"
         x="0"
         y="0">«part»</tspan></text>
    <text
       id="text13"
       xml:space="preserve"
       transform="matrix(0.95423078,0,0,0.95423078,132.72473,107.39674)"
       clip-path="url(#clipPath14)"><tspan
         id="tspan13"
         style="font-variant:normal;font-weight:normal;font-size:16px;font-family:Arial;writing-mode:lr-tb;fill:#000000;fill-opacity:1;fill-rule:nonzero;stroke:none"
         x="0"
         y="0">part2 : Part2</tspan></text>
    <path
       id="path15"
       d="m 1278,300 h 14 c 0.3977,0 0.7803,0.0761 1.1478,0.22833 0.3676,0.15225 0.6919,0.36902 0.9733,0.65033 0.2812,0.28128 0.498,0.60572 0.6503,0.97324 0.1522,0.36755 0.2285,0.75024 0.2286,1.1481 v 14 c -10e-5,0.3978 -0.076,0.78046 -0.2286,1.14801 -0.1523,0.36752 -0.3691,0.69196 -0.6503,0.9733 -0.2814,0.28128 -0.6057,0.49804 -0.9733,0.6503 -0.3675,0.15225 -0.7501,0.22836 -1.1478,0.22839 h -14 c -0.3979,-3e-5 -0.7806,-0.0761 -1.1482,-0.22839 -0.3675,-0.15226 -0.692,-0.36902 -0.9733,-0.6503 -0.2813,-0.28134 -0.4981,-0.60578 -0.6503,-0.9733 C 1275.0759,317.78046 1274.9999,317.3978 1275,317 v -14 c -10e-5,-0.39786 0.076,-0.78055 0.2282,-1.1481 0.1522,-0.36752 0.369,-0.69196 0.6503,-0.97324 0.2813,-0.28131 0.6058,-0.49808 0.9733,-0.65033 C 1277.2194,300.07611 1277.6021,300 1278,300 Z"
       style="fill:#ffffff;fill-opacity:1;fill-rule:nonzero;stroke:#000000;stroke-width:1;stroke-linecap:butt;stroke-linejoin:miter;stroke-miterlimit:10;stroke-dasharray:none;stroke-opacity:1"
       transform="matrix(0.95423078,0,0,0.95423078,-975.1223,-188.89191)"
       clip-path="url(#clipPath16)" />
    <text
       id="text16"
       xml:space="preserve"
       transform="matrix(0.95423078,0,0,0.95423078,185.98273,128.38981)"
       clip-path="url(#clipPath17)"><tspan
         id="tspan16"
         style="font-variant:normal;font-weight:normal;font-size:12px;font-family:Arial;writing-mode:lr-tb;fill:#000000;fill-opacity:1;fill-rule:nonzero;stroke:none"
         x="0"
         y="0">p3 : P3Def</tspan></text>
    <path
       id="path18"
       d="m 1348,300 h 14 c 0.3977,0 0.7803,0.0761 1.1478,0.22833 0.3676,0.15225 0.692,0.36902 0.9734,0.65033 0.2813,0.28128 0.4979,0.60572 0.6502,0.97324 0.1523,0.36755 0.2285,0.75024 0.2286,1.1481 v 14 c -10e-5,0.3978 -0.076,0.78046 -0.2286,1.14801 -0.1523,0.36752 -0.3689,0.69196 -0.6502,0.9733 -0.2814,0.28128 -0.6058,0.49804 -0.9734,0.6503 -0.3675,0.15225 -0.7501,0.22836 -1.1478,0.22839 h -14 c -0.3979,-3e-5 -0.7808,-0.0761 -1.1483,-0.22839 -0.3676,-0.15226 -0.6919,-0.36902 -0.9732,-0.6503 -0.2813,-0.28134 -0.4981,-0.60578 -0.6503,-0.9733 C 1345.0759,317.78046 1344.9999,317.3978 1345,317 v -14 c -10e-5,-0.39786 0.076,-0.78055 0.2282,-1.1481 0.1522,-0.36752 0.369,-0.69196 0.6503,-0.97324 0.2813,-0.28131 0.6056,-0.49808 0.9732,-0.65033 C 1347.2192,300.07611 1347.6021,300 1348,300 Z"
       style="fill:#ffffff;fill-opacity:1;fill-rule:nonzero;stroke:#000000;stroke-width:1;stroke-linecap:butt;stroke-linejoin:miter;stroke-miterlimit:10;stroke-dasharray:none;stroke-opacity:1"
       transform="matrix(0.95423078,0,0,0.95423078,-975.1223,-188.89191)"
       clip-path="url(#clipPath19)" />
    <text
       id="text19"
       xml:space="preserve"
       transform="matrix(0.95423078,0,0,0.95423078,323.39196,128.38981)"
       clip-path="url(#clipPath20)"><tspan
         id="tspan19"
         style="font-variant:normal;font-weight:normal;font-size:12px;font-family:Arial;writing-mode:lr-tb;fill:#000000;fill-opacity:1;fill-rule:nonzero;stroke:none"
         x="0"
         y="0">p4 : P4Def</tspan></text>
    <path
       id="path21"
       d="m 1345,310 h -25 -25"
       style="fill:none;stroke:#000000;stroke-width:1;stroke-linecap:butt;stroke-linejoin:miter;stroke-miterlimit:10;stroke-dasharray:none;stroke-opacity:1"
       transform="matrix(0.95423078,0,0,0.95423078,-975.1223,-188.89191)"
       clip-path="url(#clipPath22)" />
    <path
       id="path23"
       d="m 1118,300 h 14 c 0.3977,0 0.7804,0.0761 1.148,0.22833 0.3675,0.15225 0.6918,0.36902 0.9732,0.65033 0.2813,0.28128 0.4981,0.60572 0.6503,0.97324 0.1522,0.36755 0.2284,0.75024 0.2285,1.1481 v 14 c -10e-5,0.3978 -0.076,0.78046 -0.2285,1.14801 -0.1522,0.36752 -0.369,0.69196 -0.6503,0.9733 -0.2814,0.28128 -0.6057,0.49804 -0.9732,0.6503 -0.3676,0.15225 -0.7503,0.22836 -1.148,0.22839 h -14 c -0.3978,-3e-5 -0.7806,-0.0761 -1.1482,-0.22839 -0.3675,-0.15226 -0.6919,-0.36902 -0.9731,-0.6503 -0.2814,-0.28134 -0.4982,-0.60578 -0.6504,-0.9733 C 1115.0761,317.78046 1114.9999,317.3978 1115,317 v -14 c -10e-5,-0.39786 0.076,-0.78055 0.2283,-1.1481 0.1522,-0.36752 0.369,-0.69196 0.6504,-0.97324 0.2812,-0.28131 0.6056,-0.49808 0.9731,-0.65033 C 1117.2194,300.07611 1117.6022,300 1118,300 Z"
       style="fill:#ffffff;fill-opacity:1;fill-rule:nonzero;stroke:#000000;stroke-width:1;stroke-linecap:butt;stroke-linejoin:miter;stroke-miterlimit:10;stroke-dasharray:none;stroke-opacity:1"
       transform="matrix(0.95423078,0,0,0.95423078,-975.1223,-188.89191)"
       clip-path="url(#clipPath24)" />
    <text
       id="text24"
       xml:space="preserve"
       transform="matrix(0.95423078,0,0,0.95423078,103.91888,128.38981)"
       clip-path="url(#clipPath25)"><tspan
         id="tspan24"
         style="font-variant:normal;font-weight:normal;font-size:12px;font-family:Arial;writing-mode:lr-tb;fill:#000000;fill-opacity:1;fill-rule:nonzero;stroke:none"
         x="0"
         y="0">p2 : P2Def</tspan></text>
    <path
       id="path26"
       d="m 1045,310 h 70"
       style="fill:none;stroke:#000000;stroke-width:1;stroke-linecap:butt;stroke-linejoin:miter;stroke-miterlimit:10;stroke-dasharray:none;stroke-opacity:1"
       transform="matrix(0.95423078,0,0,0.95423078,-975.1223,-188.89191)"
       clip-path="url(#clipPath27)" />
    <path
       id="path28"
       d="m 1028,300 h 14 c 0.3978,0 0.7804,0.0761 1.148,0.22833 0.3675,0.15225 0.6918,0.36902 0.9732,0.65033 0.2813,0.28128 0.4981,0.60572 0.6503,0.97324 0.1522,0.36755 0.2284,0.75024 0.2285,1.1481 v 14 c -10e-5,0.3978 -0.076,0.78046 -0.2285,1.14801 -0.1522,0.36752 -0.369,0.69196 -0.6503,0.9733 -0.2814,0.28128 -0.6057,0.49804 -0.9732,0.6503 -0.3676,0.15225 -0.7502,0.22836 -1.148,0.22839 h -14 c -0.3978,-3e-5 -0.7806,-0.0761 -1.1482,-0.22839 -0.3675,-0.15226 -0.6919,-0.36902 -0.9731,-0.6503 -0.2814,-0.28134 -0.4982,-0.60578 -0.6504,-0.9733 C 1025.0761,317.78046 1024.9999,317.3978 1025,317 v -14 c -10e-5,-0.39786 0.076,-0.78055 0.2283,-1.1481 0.1522,-0.36752 0.369,-0.69196 0.6504,-0.97324 0.2812,-0.28131 0.6056,-0.49808 0.9731,-0.65033 C 1027.2194,300.07611 1027.6022,300 1028,300 Z"
       style="fill:#ffffff;fill-opacity:1;fill-rule:nonzero;stroke:#000000;stroke-width:1;stroke-linecap:butt;stroke-linejoin:miter;stroke-miterlimit:10;stroke-dasharray:none;stroke-opacity:1"
       transform="matrix(0.95423078,0,0,0.95423078,-975.1223,-188.89191)"
       clip-path="url(#clipPath29)" />
    <text
       id="text29"
       xml:space="preserve"
       transform="matrix(0.95423078,0,0,0.95423078,18.038115,124.57289)"
       clip-path="url(#clipPath30)"><tspan
         id="tspan29"
         style="font-variant:normal;font-weight:normal;font-size:12px;font-family:Arial;writing-mode:lr-tb;fill:#000000;fill-opacity:1;fill-rule:nonzero;stroke:none"
         x="0"
         y="0">p1 : P1Def</tspan></text>
    <path
       id="path31"
       d="m 1588,300 h 14 c 0.3977,0 0.7803,0.0761 1.1477,0.22833 0.3676,0.15225 0.692,0.36902 0.9734,0.65033 0.2812,0.28128 0.498,0.60572 0.6504,0.97324 0.1522,0.36755 0.2284,0.75024 0.2285,1.1481 v 14 c -10e-5,0.3978 -0.076,0.78046 -0.2285,1.14801 -0.1524,0.36752 -0.3692,0.69196 -0.6504,0.9733 -0.2814,0.28128 -0.6058,0.49804 -0.9734,0.6503 -0.3674,0.15225 -0.75,0.22836 -1.1477,0.22839 h -14 c -0.3979,-3e-5 -0.7806,-0.0761 -1.1482,-0.22839 -0.3675,-0.15226 -0.692,-0.36902 -0.9733,-0.6503 -0.2813,-0.28134 -0.4981,-0.60578 -0.6503,-0.9733 C 1585.0759,317.78046 1584.9999,317.3978 1585,317 v -14 c -10e-5,-0.39786 0.076,-0.78055 0.2282,-1.1481 0.1522,-0.36752 0.369,-0.69196 0.6503,-0.97324 0.2813,-0.28131 0.6058,-0.49808 0.9733,-0.65033 C 1587.2194,300.07611 1587.6021,300 1588,300 Z"
       style="fill:#ffffff;fill-opacity:1;fill-rule:nonzero;stroke:#000000;stroke-width:1;stroke-linecap:butt;stroke-linejoin:miter;stroke-miterlimit:10;stroke-dasharray:none;stroke-opacity:1"
       transform="matrix(0.95423078,0,0,0.95423078,-975.1223,-188.89191)"
       clip-path="url(#clipPath32)" />
    <text
       id="text32"
       xml:space="preserve"
       transform="matrix(0.95423078,0,0,0.95423078,481.79427,124.57289)"
       clip-path="url(#clipPath33)"><tspan
         id="tspan32"
         style="font-variant:normal;font-weight:normal;font-size:12px;font-family:Arial;writing-mode:lr-tb;fill:#000000;fill-opacity:1;fill-rule:nonzero;stroke:none"
         x="0"
         y="0">p6 : P6Def</tspan></text>
    <path
       id="path34"
       d="m 1508,300 h 14 c 0.3978,0 0.7804,0.0761 1.1478,0.22833 0.3676,0.15225 0.692,0.36902 0.9734,0.65033 0.2813,0.28128 0.4981,0.60572 0.6503,0.97324 0.1522,0.36755 0.2284,0.75024 0.2285,1.1481 v 14 c -10e-5,0.3978 -0.076,0.78046 -0.2285,1.14801 -0.1522,0.36752 -0.369,0.69196 -0.6503,0.9733 -0.2814,0.28128 -0.6058,0.49804 -0.9734,0.6503 -0.3674,0.15225 -0.75,0.22836 -1.1478,0.22839 h -14 c -0.3979,-3e-5 -0.7808,-0.0761 -1.1483,-0.22839 -0.3674,-0.15226 -0.6918,-0.36902 -0.973,-0.6503 -0.2814,-0.28134 -0.4983,-0.60578 -0.6505,-0.9733 C 1505.0759,317.78046 1504.9999,317.3978 1505,317 v -14 c -10e-5,-0.39786 0.076,-0.78055 0.2282,-1.1481 0.1522,-0.36752 0.3691,-0.69196 0.6505,-0.97324 0.2812,-0.28131 0.6056,-0.49808 0.973,-0.65033 C 1507.2192,300.07611 1507.6021,300 1508,300 Z"
       style="fill:#ffffff;fill-opacity:1;fill-rule:nonzero;stroke:#000000;stroke-width:1;stroke-linecap:butt;stroke-linejoin:miter;stroke-miterlimit:10;stroke-dasharray:none;stroke-opacity:1"
       transform="matrix(0.95423078,0,0,0.95423078,-975.1223,-188.89191)"
       clip-path="url(#clipPath35)" />
    <text
       id="text35"
       xml:space="preserve"
       transform="matrix(0.95423078,0,0,0.95423078,405.45581,128.38981)"
       clip-path="url(#clipPath36)"><tspan
         id="tspan35"
         style="font-variant:normal;font-weight:normal;font-size:12px;font-family:Arial;writing-mode:lr-tb;fill:#000000;fill-opacity:1;fill-rule:nonzero;stroke:none"
         x="0"
         y="0">p5 : P5Def</tspan></text>
    <path
       id="path37"
       d="m 1585,310 h -60"
       style="fill:none;stroke:#000000;stroke-width:1;stroke-linecap:butt;stroke-linejoin:miter;stroke-miterlimit:10;stroke-dasharray:none;stroke-opacity:1"
       transform="matrix(0.95423078,0,0,0.95423078,-975.1223,-188.89191)"
       clip-path="url(#clipPath38)" />
  </g>
</svg>
