<?xml version="1.0" encoding="UTF-8" standalone="no"?>
<!-- Created with Inkscape (http://www.inkscape.org/) -->

<svg
   version="1.1"
   id="svg1"
   width="320"
   height="118.72"
   viewBox="0 0 320 118.72"
   xmlns="http://www.w3.org/2000/svg"
   xmlns:svg="http://www.w3.org/2000/svg">
  <defs
     id="defs1">
    <clipPath
       clipPathUnits="userSpaceOnUse"
       id="clipPath2">
      <path
         d="M 0,0 H 999.02344 V 372 H 0 Z"
         transform="scale(0.31999999)"
         clip-rule="evenodd"
         id="path2" />
    </clipPath>
    <clipPath
       clipPathUnits="userSpaceOnUse"
       id="clipPath4">
      <path
         d="m 3.125,0 h 993.75 V 371.875 H 3.125 Z"
         transform="matrix(0.33687801,0,0,0.33687801,265.88504,4007.9475)"
         clip-rule="evenodd"
         id="path4" />
    </clipPath>
    <clipPath
       clipPathUnits="userSpaceOnUse"
       id="clipPath5">
      <path
         d="m 3.125,0 h 993.75 V 371.875 H 3.125 Z"
         transform="matrix(0.33687801,0,0,0.33687801,-145.42746,-17.552717)"
         clip-rule="evenodd"
         id="path5" />
    </clipPath>
    <clipPath
       clipPathUnits="userSpaceOnUse"
       id="clipPath6">
      <path
         d="m 3.125,0 h 993.75 V 371.875 H 3.125 Z"
         transform="matrix(0.33687801,0,0,0.33687801,-149.8806,-37.552717)"
         clip-rule="evenodd"
         id="path6" />
    </clipPath>
    <clipPath
       clipPathUnits="userSpaceOnUse"
       id="clipPath8">
      <path
         d="m 3.125,0 h 993.75 V 371.875 H 3.125 Z"
         transform="matrix(0.33687801,0,0,0.33687801,265.88504,4007.9475)"
         clip-rule="evenodd"
         id="path8" />
    </clipPath>
    <clipPath
       clipPathUnits="userSpaceOnUse"
       id="clipPath10">
      <path
         d="m 3.125,0 h 993.75 V 371.875 H 3.125 Z"
         transform="matrix(0.33687801,0,0,0.33687801,265.88504,4007.9475)"
         clip-rule="evenodd"
         id="path10" />
    </clipPath>
    <clipPath
       clipPathUnits="userSpaceOnUse"
       id="clipPath12">
      <path
         d="m 3.125,0 h 993.75 V 371.875 H 3.125 Z"
         transform="matrix(0.33687801,0,0,0.33687801,265.88504,4007.9475)"
         clip-rule="evenodd"
         id="path12" />
    </clipPath>
    <clipPath
       clipPathUnits="userSpaceOnUse"
       id="clipPath13">
      <path
         d="m 3.125,0 h 993.75 V 371.875 H 3.125 Z"
         transform="matrix(0.33687801,0,0,0.33687801,-222.86497,-98.552717)"
         clip-rule="evenodd"
         id="path13" />
    </clipPath>
    <clipPath
       clipPathUnits="userSpaceOnUse"
       id="clipPath14">
      <path
         d="m 3.125,0 h 993.75 V 371.875 H 3.125 Z"
         transform="matrix(0.33687801,0,0,0.33687801,-227.3181,-118.55271)"
         clip-rule="evenodd"
         id="path14" />
    </clipPath>
    <clipPath
       clipPathUnits="userSpaceOnUse"
       id="clipPath16">
      <path
         d="m 3.125,0 h 993.75 V 371.875 H 3.125 Z"
         transform="matrix(0.33687801,0,0,0.33687801,265.88504,4007.9475)"
         clip-rule="evenodd"
         id="path16" />
    </clipPath>
    <clipPath
       clipPathUnits="userSpaceOnUse"
       id="clipPath17">
      <path
         d="m 3.125,0 h 993.75 V 371.875 H 3.125 Z"
         transform="matrix(0.33687801,0,0,0.33687801,-23.083718,-98.552717)"
         clip-rule="evenodd"
         id="path17" />
    </clipPath>
    <clipPath
       clipPathUnits="userSpaceOnUse"
       id="clipPath18">
      <path
         d="m 3.125,0 h 993.75 V 371.875 H 3.125 Z"
         transform="matrix(0.33687801,0,0,0.33687801,-57.318098,-118.55271)"
         clip-rule="evenodd"
         id="path18" />
    </clipPath>
    <clipPath
       clipPathUnits="userSpaceOnUse"
       id="clipPath20">
      <path
         d="m 3.125,0 h 993.75 V 371.875 H 3.125 Z"
         transform="matrix(0.33687801,0,0,0.33687801,265.88504,4007.9475)"
         clip-rule="evenodd"
         id="path20" />
    </clipPath>
    <clipPath
       clipPathUnits="userSpaceOnUse"
       id="clipPath22">
      <path
         d="m 3.125,0 h 993.75 V 371.875 H 3.125 Z"
         transform="matrix(0.33687801,0,0,0.33687801,265.88504,4007.9475)"
         clip-rule="evenodd"
         id="path22" />
    </clipPath>
    <clipPath
       clipPathUnits="userSpaceOnUse"
       id="clipPath23">
      <path
         d="m 3.125,0 h 993.75 V 371.875 H 3.125 Z"
         transform="matrix(0.33687801,0,0,0.33687801,-214.61497,-65.552717)"
         clip-rule="evenodd"
         id="path23" />
    </clipPath>
  </defs>
  <g
     id="g1">
    <path
       id="path1"
       d="M 0,0 H 320 V 119 H 0 Z"
       style="fill:#ffffff;fill-opacity:1;fill-rule:nonzero;stroke:none"
       clip-path="url(#clipPath2)" />
    <path
       id="path3"
       d="m 349,4010 h 170 c 0.66302,0 1.30078,0.1267 1.91333,0.3801 0.61261,0.2537 1.15332,0.615 1.62213,1.084 0.46881,0.4685 0.83014,1.0093 1.08386,1.6221 0.25373,0.6125 0.38062,1.2505 0.38068,1.9138 v 30 c -6e-5,0.6628 -0.12695,1.3003 -0.38074,1.9128 -0.25372,0.6126 -0.61499,1.1534 -1.0838,1.6224 -0.46881,0.4685 -1.00952,0.8298 -1.62213,1.0837 -0.61255,0.2537 -1.25031,0.3809 -1.91333,0.3811 H 349 c -0.66306,-2e-4 -1.30087,-0.1274 -1.91345,-0.3811 -0.61258,-0.2539 -1.15326,-0.6152 -1.6221,-1.0837 -0.46884,-0.469 -0.83011,-1.0098 -1.08387,-1.6224 -0.25375,-0.6125 -0.38061,-1.25 -0.38058,-1.9128 v -30 c -3e-5,-0.6633 0.12683,-1.3013 0.38058,-1.9138 0.25376,-0.6128 0.61503,-1.1536 1.08387,-1.6221 0.46884,-0.469 1.00952,-0.8301 1.6221,-1.0837 C 347.69913,4010.1267 348.33694,4010 349,4010 Z"
       style="fill:#ffffff;fill-opacity:1;fill-rule:nonzero;stroke:#000000;stroke-width:1;stroke-linecap:butt;stroke-linejoin:miter;stroke-miterlimit:10;stroke-dasharray:none;stroke-opacity:1"
       transform="matrix(0.94989871,0,0,0.94989871,-252.56386,-3807.1442)"
       clip-path="url(#clipPath4)" />
    <text
       id="text4"
       xml:space="preserve"
       transform="matrix(0.94989871,0,0,0.94989871,138.14136,16.673303)"
       clip-path="url(#clipPath5)"><tspan
         id="tspan4"
         style="font-variant:normal;font-weight:normal;font-size:16px;font-family:Arial;writing-mode:lr-tb;fill:#000000;fill-opacity:1;fill-rule:nonzero;stroke:none"
         x="0"
         y="0">«part»</tspan></text>
    <text
       id="text5"
       xml:space="preserve"
       transform="matrix(0.94989871,0,0,0.94989871,142.37139,35.671277)"
       clip-path="url(#clipPath6)"><tspan
         id="tspan5"
         style="font-variant:normal;font-weight:normal;font-size:16px;font-family:Arial;writing-mode:lr-tb;fill:#000000;fill-opacity:1;fill-rule:nonzero;stroke:none"
         x="0"
         y="0">part0</tspan></text>
    <path
       id="path7"
       d="M 389,4061.99 V 4091"
       style="fill:none;stroke:#000000;stroke-width:1;stroke-linecap:butt;stroke-linejoin:miter;stroke-miterlimit:10;stroke-dasharray:none;stroke-opacity:1"
       transform="matrix(0.94989871,0,0,0.94989871,-252.56386,-3807.1442)"
       clip-path="url(#clipPath8)" />
    <path
       id="path9"
       d="m 389,4050.99 3.23999,5.5 -3.23999,5.5 -3.23999,-5.5 z"
       style="fill:none;stroke:#000000;stroke-width:1;stroke-linecap:butt;stroke-linejoin:miter;stroke-miterlimit:10;stroke-dasharray:none;stroke-opacity:1"
       transform="matrix(0.94989871,0,0,0.94989871,-252.56386,-3807.1442)"
       clip-path="url(#clipPath10)" />
    <path
       id="path11"
       d="m 444,4091 h 150 c 0.66302,0 1.30078,0.1267 1.91333,0.3801 0.61261,0.2537 1.15332,0.6148 1.62213,1.0838 0.46881,0.4687 0.83008,1.0095 1.08386,1.622 0.25373,0.6126 0.38062,1.2508 0.38068,1.9141 v 30 c -6e-5,0.6626 -0.12695,1.3003 -0.38068,1.9131 -0.25378,0.6123 -0.61505,1.1528 -1.08386,1.6221 -0.46881,0.4682 -1.00952,0.8295 -1.62213,1.0835 -0.61255,0.2539 -1.25031,0.3808 -1.91333,0.3813 H 444 c -0.66309,-5e-4 -1.30093,-0.1274 -1.91351,-0.3813 -0.61258,-0.254 -1.15326,-0.6153 -1.62207,-1.0835 -0.46888,-0.4693 -0.83017,-1.0098 -1.08387,-1.6221 -0.25372,-0.6128 -0.38058,-1.2505 -0.38055,-1.9131 v -30 c -3e-5,-0.6633 0.12683,-1.3015 0.38055,-1.9141 0.2537,-0.6125 0.61499,-1.1533 1.08387,-1.622 0.46881,-0.469 1.00949,-0.8301 1.62207,-1.0838 C 442.69907,4091.1267 443.33691,4091 444,4091 Z"
       style="fill:#ffffff;fill-opacity:1;fill-rule:nonzero;stroke:#000000;stroke-width:1;stroke-linecap:butt;stroke-linejoin:miter;stroke-miterlimit:10;stroke-dasharray:none;stroke-opacity:1"
       transform="matrix(0.94989871,0,0,0.94989871,-252.56386,-3807.1442)"
       clip-path="url(#clipPath12)" />
    <text
       id="text12"
       xml:space="preserve"
       transform="matrix(0.94989871,0,0,0.94989871,211.69915,93.615099)"
       clip-path="url(#clipPath13)"><tspan
         id="tspan12"
         style="font-variant:normal;font-weight:normal;font-size:16px;font-family:Arial;writing-mode:lr-tb;fill:#000000;fill-opacity:1;fill-rule:nonzero;stroke:none"
         x="0"
         y="0">«action»</tspan></text>
    <text
       id="text13"
       xml:space="preserve"
       transform="matrix(0.94989871,0,0,0.94989871,215.92917,112.61307)"
       clip-path="url(#clipPath14)"><tspan
         id="tspan13"
         style="font-variant:normal;font-weight:normal;font-size:16px;font-family:Arial;writing-mode:lr-tb;fill:#000000;fill-opacity:1;fill-rule:nonzero;stroke:none"
         x="0"
         y="0">action2</tspan></text>
    <path
       id="path15"
       d="m 274,4091 h 150 c 0.66299,0 1.30078,0.1267 1.91336,0.3801 0.61258,0.2537 1.15329,0.6148 1.62216,1.0838 0.46881,0.4687 0.83008,1.0095 1.08383,1.622 0.25373,0.6126 0.38062,1.2508 0.38065,1.9141 v 30 c -3e-5,0.6626 -0.12692,1.3003 -0.38065,1.9131 -0.25375,0.6123 -0.61502,1.1528 -1.08383,1.6221 -0.46887,0.4682 -1.00958,0.8295 -1.62213,1.0835 -0.61258,0.2539 -1.2504,0.3808 -1.91339,0.3813 H 274 c -0.66306,-5e-4 -1.30087,-0.1274 -1.91345,-0.3813 -0.61258,-0.254 -1.15326,-0.6153 -1.6221,-1.0835 -0.46884,-0.4693 -0.83014,-1.0098 -1.08387,-1.6221 C 269.12686,4127.3003 269,4126.6626 269,4126 v -30 c 0,-0.6633 0.12686,-1.3015 0.38058,-1.9141 0.25373,-0.6125 0.61503,-1.1533 1.08387,-1.622 0.46884,-0.469 1.00952,-0.8301 1.6221,-1.0838 C 272.69913,4091.1267 273.33694,4091 274,4091 Z"
       style="fill:#ffffff;fill-opacity:1;fill-rule:nonzero;stroke:#000000;stroke-width:1;stroke-linecap:butt;stroke-linejoin:miter;stroke-miterlimit:10;stroke-dasharray:none;stroke-opacity:1"
       transform="matrix(0.94989871,0,0,0.94989871,-252.56386,-3807.1442)"
       clip-path="url(#clipPath16)" />
    <text
       id="text16"
       xml:space="preserve"
       transform="matrix(0.94989871,0,0,0.94989871,21.927194,93.615099)"
       clip-path="url(#clipPath17)"><tspan
         id="tspan16"
         style="font-variant:normal;font-weight:normal;font-size:16px;font-family:Arial;writing-mode:lr-tb;fill:#000000;fill-opacity:1;fill-rule:nonzero;stroke:none"
         x="0"
         y="0">«perform action»</tspan></text>
    <text
       id="text17"
       xml:space="preserve"
       transform="matrix(0.94989871,0,0,0.94989871,54.446387,112.61307)"
       clip-path="url(#clipPath18)"><tspan
         id="tspan17"
         style="font-variant:normal;font-weight:normal;font-size:16px;font-family:Arial;writing-mode:lr-tb;fill:#000000;fill-opacity:1;fill-rule:nonzero;stroke:none"
         x="0"
         y="0">action1</tspan></text>
    <path
       id="path19"
       d="m 479,4050 v 38.76"
       style="fill:none;stroke:#000000;stroke-width:1;stroke-linecap:butt;stroke-linejoin:miter;stroke-miterlimit:10;stroke-dasharray:none;stroke-opacity:1"
       transform="matrix(0.94989871,0,0,0.94989871,-252.56386,-3807.1442)"
       clip-path="url(#clipPath20)" />
    <path
       id="path21"
       d="m 474.5,4080.8799 4.5,9 4.5,-9"
       style="fill:none;stroke:#000000;stroke-width:1;stroke-linecap:butt;stroke-linejoin:miter;stroke-miterlimit:10;stroke-dasharray:none;stroke-opacity:1"
       transform="matrix(0.94989871,0,0,0.94989871,-252.56386,-3807.1442)"
       clip-path="url(#clipPath22)" />
    <text
       id="text22"
       xml:space="preserve"
       transform="matrix(0.94989871,0,0,0.94989871,203.86248,62.268441)"
       clip-path="url(#clipPath23)"><tspan
         id="tspan22"
         style="font-variant:normal;font-weight:normal;font-size:12px;font-family:Arial;writing-mode:lr-tb;fill:#000000;fill-opacity:1;fill-rule:nonzero;stroke:none"
         x="0"
         y="0">«perform»</tspan></text>
  </g>
</svg>
