<?xml version="1.0" encoding="UTF-8" standalone="no"?>
<!-- Created with Inkscape (http://www.inkscape.org/) -->

<svg
   version="1.1"
   id="svg1"
   width="278.72"
   height="193.27998"
   viewBox="0 0 278.72 193.27998"
   xmlns="http://www.w3.org/2000/svg"
   xmlns:svg="http://www.w3.org/2000/svg">
  <defs
     id="defs1">
    <clipPath
       clipPathUnits="userSpaceOnUse"
       id="clipPath2">
      <path
         d="M 0,0 H 870.01953 V 605 H 0 Z"
         transform="scale(0.31999999)"
         clip-rule="evenodd"
         id="path2" />
    </clipPath>
    <clipPath
       clipPathUnits="userSpaceOnUse"
       id="clipPath4">
      <path
         d="m 3.125,3.125 h 862.5 v 600 H 3.125 Z"
         transform="matrix(0.33828347,0,0,0.33828347,428.62753,417.38573)"
         clip-rule="evenodd"
         id="path4" />
    </clipPath>
    <clipPath
       clipPathUnits="userSpaceOnUse"
       id="clipPath6">
      <path
         d="m 3.125,3.125 h 862.5 v 600 H 3.125 Z"
         transform="matrix(0.33828347,0,0,0.33828347,428.62753,417.38573)"
         clip-rule="evenodd"
         id="path6" />
    </clipPath>
    <clipPath
       clipPathUnits="userSpaceOnUse"
       id="clipPath7">
      <path
         d="m 3.125,3.125 h 862.5 v 600 H 3.125 Z"
         transform="matrix(0.33828347,0,0,0.33828347,-165.68497,-103.11428)"
         clip-rule="evenodd"
         id="path7" />
    </clipPath>
    <clipPath
       clipPathUnits="userSpaceOnUse"
       id="clipPath8">
      <path
         d="m 3.125,3.125 h 862.5 v 600 H 3.125 Z"
         transform="matrix(0.33828347,0,0,0.33828347,-170.1381,-123.11429)"
         clip-rule="evenodd"
         id="path8" />
    </clipPath>
    <clipPath
       clipPathUnits="userSpaceOnUse"
       id="clipPath10">
      <path
         d="m 3.125,3.125 h 862.5 v 600 H 3.125 Z"
         transform="matrix(0.33828347,0,0,0.33828347,428.62753,417.38573)"
         clip-rule="evenodd"
         id="path10" />
    </clipPath>
    <clipPath
       clipPathUnits="userSpaceOnUse"
       id="clipPath11">
      <path
         d="m 3.125,3.125 h 862.5 v 600 H 3.125 Z"
         transform="matrix(0,0.33828347,-0.33828347,0,141.72367,-117.62249)"
         clip-rule="evenodd"
         id="path11" />
    </clipPath>
    <clipPath
       clipPathUnits="userSpaceOnUse"
       id="clipPath13">
      <path
         d="m 3.125,3.125 h 862.5 v 600 H 3.125 Z"
         transform="matrix(0.33828347,0,0,0.33828347,428.62753,417.38573)"
         clip-rule="evenodd"
         id="path13" />
    </clipPath>
    <clipPath
       clipPathUnits="userSpaceOnUse"
       id="clipPath14">
      <path
         d="m 3.125,3.125 h 862.5 v 600 H 3.125 Z"
         transform="matrix(0.33828347,0,0,0.33828347,-11.15372,-57.114284)"
         clip-rule="evenodd"
         id="path14" />
    </clipPath>
    <clipPath
       clipPathUnits="userSpaceOnUse"
       id="clipPath16">
      <path
         d="m 3.125,3.125 h 862.5 v 600 H 3.125 Z"
         transform="matrix(0.33828347,0,0,0.33828347,428.62753,417.38573)"
         clip-rule="evenodd"
         id="path16" />
    </clipPath>
    <clipPath
       clipPathUnits="userSpaceOnUse"
       id="clipPath17">
      <path
         d="m 3.125,3.125 h 862.5 v 600 H 3.125 Z"
         transform="matrix(0.33828347,0,0,0.33828347,-11.15372,-137.11429)"
         clip-rule="evenodd"
         id="path17" />
    </clipPath>
    <clipPath
       clipPathUnits="userSpaceOnUse"
       id="clipPath19">
      <path
         d="m 3.125,3.125 h 862.5 v 600 H 3.125 Z"
         transform="matrix(0.33828347,0,0,0.33828347,428.62753,417.38573)"
         clip-rule="evenodd"
         id="path19" />
    </clipPath>
    <clipPath
       clipPathUnits="userSpaceOnUse"
       id="clipPath20">
      <path
         d="m 3.125,3.125 h 862.5 v 600 H 3.125 Z"
         transform="matrix(0.33828347,0,0,0.33828347,-11.15372,-97.114283)"
         clip-rule="evenodd"
         id="path20" />
    </clipPath>
    <clipPath
       clipPathUnits="userSpaceOnUse"
       id="clipPath22">
      <path
         d="m 3.125,3.125 h 862.5 v 600 H 3.125 Z"
         transform="matrix(0.33828347,0,0,0.33828347,428.62753,417.38573)"
         clip-rule="evenodd"
         id="path22" />
    </clipPath>
    <clipPath
       clipPathUnits="userSpaceOnUse"
       id="clipPath24">
      <path
         d="m 3.125,3.125 h 862.5 v 600 H 3.125 Z"
         transform="matrix(0.33828347,0,0,0.33828347,428.62753,417.38573)"
         clip-rule="evenodd"
         id="path24" />
    </clipPath>
    <clipPath
       clipPathUnits="userSpaceOnUse"
       id="clipPath26">
      <path
         d="m 3.125,3.125 h 862.5 v 600 H 3.125 Z"
         transform="matrix(0.33828347,0,0,0.33828347,428.62753,417.38573)"
         clip-rule="evenodd"
         id="path26" />
    </clipPath>
    <clipPath
       clipPathUnits="userSpaceOnUse"
       id="clipPath28">
      <path
         d="m 3.125,3.125 h 862.5 v 600 H 3.125 Z"
         transform="matrix(0.33828347,0,0,0.33828347,428.62753,417.38573)"
         clip-rule="evenodd"
         id="path28" />
    </clipPath>
    <clipPath
       clipPathUnits="userSpaceOnUse"
       id="clipPath29">
      <path
         d="m 3.125,3.125 h 862.5 v 600 H 3.125 Z"
         transform="matrix(0.33828347,0,0,0.33828347,-188.15372,-47.114283)"
         clip-rule="evenodd"
         id="path29" />
    </clipPath>
    <clipPath
       clipPathUnits="userSpaceOnUse"
       id="clipPath31">
      <path
         d="m 3.125,3.125 h 862.5 v 600 H 3.125 Z"
         transform="matrix(0.33828347,0,0,0.33828347,428.62753,417.38573)"
         clip-rule="evenodd"
         id="path31" />
    </clipPath>
    <clipPath
       clipPathUnits="userSpaceOnUse"
       id="clipPath33">
      <path
         d="m 3.125,3.125 h 862.5 v 600 H 3.125 Z"
         transform="matrix(0.33828347,0,0,0.33828347,428.62753,417.38573)"
         clip-rule="evenodd"
         id="path33" />
    </clipPath>
    <clipPath
       clipPathUnits="userSpaceOnUse"
       id="clipPath35">
      <path
         d="m 3.125,3.125 h 862.5 v 600 H 3.125 Z"
         transform="matrix(0.33828347,0,0,0.33828347,428.62753,417.38573)"
         clip-rule="evenodd"
         id="path35" />
    </clipPath>
    <clipPath
       clipPathUnits="userSpaceOnUse"
       id="clipPath37">
      <path
         d="m 3.125,3.125 h 862.5 v 600 H 3.125 Z"
         transform="matrix(0.33828347,0,0,0.33828347,428.62753,417.38573)"
         clip-rule="evenodd"
         id="path37" />
    </clipPath>
    <clipPath
       clipPathUnits="userSpaceOnUse"
       id="clipPath39">
      <path
         d="m 3.125,3.125 h 862.5 v 600 H 3.125 Z"
         transform="matrix(0.33828347,0,0,0.33828347,428.62753,417.38573)"
         clip-rule="evenodd"
         id="path39" />
    </clipPath>
    <clipPath
       clipPathUnits="userSpaceOnUse"
       id="clipPath40">
      <path
         d="m 3.125,3.125 h 862.5 v 600 H 3.125 Z"
         transform="matrix(0.33828347,0,0,0.33828347,-188.15372,-147.11429)"
         clip-rule="evenodd"
         id="path40" />
    </clipPath>
    <clipPath
       clipPathUnits="userSpaceOnUse"
       id="clipPath42">
      <path
         d="m 3.125,3.125 h 862.5 v 600 H 3.125 Z"
         transform="matrix(0.33828347,0,0,0.33828347,428.62753,417.38573)"
         clip-rule="evenodd"
         id="path42" />
    </clipPath>
    <clipPath
       clipPathUnits="userSpaceOnUse"
       id="clipPath44">
      <path
         d="m 3.125,3.125 h 862.5 v 600 H 3.125 Z"
         transform="matrix(0.33828347,0,0,0.33828347,428.62753,417.38573)"
         clip-rule="evenodd"
         id="path44" />
    </clipPath>
    <clipPath
       clipPathUnits="userSpaceOnUse"
       id="clipPath46">
      <path
         d="m 3.125,3.125 h 862.5 v 600 H 3.125 Z"
         transform="matrix(0.33828347,0,0,0.33828347,428.62753,417.38573)"
         clip-rule="evenodd"
         id="path46" />
    </clipPath>
  </defs>
  <g
     id="g1">
    <path
       id="path1"
       d="M 0,0 H 278 V 194 H 0 Z"
       style="fill:#ffffff;fill-opacity:1;fill-rule:nonzero;stroke:none"
       clip-path="url(#clipPath2)" />
    <path
       id="path3"
       d="M 431.25,420 H 720 V 620 H 431.25 Z"
       style="fill:#ffffff;fill-opacity:1;fill-rule:nonzero;stroke:none"
       transform="matrix(0.94595218,0,0,0.94595218,-405.46115,-394.82694)"
       clip-path="url(#clipPath4)" />
    <path
       id="path5"
       d="m 560.13,439 h 113.24 c 1.17401,0 2.33673,0.1145 3.48815,0.34354 1.15143,0.22903 2.26947,0.5682 3.35413,1.01745 1.08466,0.44928 2.11505,1.00006 3.09125,1.65232 0.97613,0.65225 1.87933,1.39346 2.70947,2.2236 0.83014,0.83014 1.57135,1.7333 2.22357,2.70947 0.65228,0.97614 1.20307,2.00653 1.65235,3.09119 0.44928,1.08465 0.78845,2.20273 1.01751,3.35418 0.22901,1.15146 0.34351,2.31421 0.34357,3.48825 v 135.24 c -6e-5,1.17401 -0.11456,2.33679 -0.34357,3.48822 -0.22906,1.15142 -0.56823,2.26947 -1.01751,3.35412 -0.44928,1.08466 -1.00007,2.11505 -1.65229,3.09119 -0.65228,0.97619 -1.39343,1.87939 -2.22357,2.70953 -0.83014,0.83014 -1.73334,1.57135 -2.70947,2.22363 -0.97614,0.65223 -2.00659,1.20295 -3.09125,1.65223 -1.08465,0.44928 -2.20276,0.78845 -3.35419,1.01745 C 675.70673,609.88544 674.54401,610 673.37,610 H 560.13 c -1.17401,0 -2.33679,-0.11456 -3.48828,-0.34363 -1.15149,-0.229 -2.26953,-0.56817 -3.35418,-1.01745 -1.08466,-0.44928 -2.11505,-1 -3.09119,-1.65223 -0.9762,-0.65228 -1.87933,-1.39349 -2.70947,-2.22363 -0.8302,-0.83014 -1.57141,-1.73334 -2.2237,-2.70953 -0.65228,-0.97614 -1.203,-2.00653 -1.65222,-3.09119 -0.44928,-1.08465 -0.78845,-2.2027 -1.01745,-3.35412 C 542.3645,594.45679 542.25,593.29401 542.25,592.12 V 456.88 c 0,-1.17404 0.1145,-2.33679 0.34351,-3.48825 0.229,-1.15145 0.56817,-2.26953 1.01745,-3.35415 0.44922,-1.08466 0.99994,-2.11505 1.65222,-3.09122 0.65229,-0.97617 1.3935,-1.87933 2.2237,-2.70947 0.83014,-0.83014 1.73327,-1.57135 2.70947,-2.2236 0.97614,-0.65226 2.00659,-1.20304 3.09125,-1.65232 1.08465,-0.44925 2.2027,-0.78842 3.35418,-1.01745 C 557.79321,439.1145 558.95599,439 560.13,439 Z"
       style="fill:#ffffff;fill-opacity:1;fill-rule:nonzero;stroke:#000000;stroke-width:1;stroke-linecap:butt;stroke-linejoin:miter;stroke-miterlimit:10;stroke-dasharray:none;stroke-opacity:1"
       transform="matrix(0.94595218,0,0,0.94595218,-405.46115,-394.82694)"
       clip-path="url(#clipPath6)" />
    <text
       id="text6"
       xml:space="preserve"
       transform="matrix(0.94595218,0,0,0.94595218,156.73006,97.541181)"
       clip-path="url(#clipPath7)"><tspan
         id="tspan6"
         style="font-variant:normal;font-weight:normal;font-size:16px;font-family:Arial;writing-mode:lr-tb;fill:#000000;fill-opacity:1;fill-rule:nonzero;stroke:none"
         x="0"
         y="0">«part»</tspan></text>
    <text
       id="text7"
       xml:space="preserve"
       transform="matrix(0.94595218,0,0,0.94595218,160.94251,116.46023)"
       clip-path="url(#clipPath8)"><tspan
         id="tspan7"
         style="font-variant:normal;font-weight:normal;font-size:16px;font-family:Arial;writing-mode:lr-tb;fill:#000000;fill-opacity:1;fill-rule:nonzero;stroke:none"
         x="0"
         y="0">part1</tspan></text>
    <path
       id="path9"
       d="m 527.04999,459.5 h 30.40002 c 0.63648,0 1.24872,0.1218 1.83679,0.36536 0.58808,0.24356 1.10712,0.59039 1.55726,1.04049 0.45013,0.45008 0.79693,0.96915 1.04052,1.55719 0.24359,0.58811 0.36536,1.20041 0.36542,1.83695 v 120.40002 c -6e-5,0.63648 -0.12183,1.24872 -0.36542,1.83679 -0.24359,0.58808 -0.59039,1.10712 -1.04052,1.55726 -0.45014,0.45007 -0.96918,0.79693 -1.55726,1.04052 -0.58807,0.24359 -1.20031,0.36536 -1.83679,0.36542 h -30.40002 c -0.63654,-6e-5 -1.24884,-0.12183 -1.83692,-0.36542 -0.58807,-0.24359 -1.10717,-0.59045 -1.55719,-1.04052 -0.45013,-0.45014 -0.79699,-0.96918 -1.04058,-1.55726 -0.2436,-0.58807 -0.36536,-1.20031 -0.3653,-1.83679 V 464.29999 c -6e-5,-0.63654 0.1217,-1.24884 0.3653,-1.83692 0.24359,-0.58807 0.59045,-1.10714 1.04058,-1.55722 0.45002,-0.4501 0.96912,-0.79693 1.55719,-1.04052 0.58808,-0.24356 1.20038,-0.36533 1.83692,-0.36533 z"
       style="fill:#ffffff;fill-opacity:1;fill-rule:nonzero;stroke:#000000;stroke-width:1;stroke-linecap:butt;stroke-linejoin:miter;stroke-miterlimit:10;stroke-dasharray:none;stroke-opacity:1"
       transform="matrix(0.94595218,0,0,0.94595218,-405.46115,-394.82694)"
       clip-path="url(#clipPath10)" />
    <text
       id="text10"
       xml:space="preserve"
       transform="matrix(0,-0.94595218,0.94595218,0,111.26525,134.06381)"
       clip-path="url(#clipPath11)"><tspan
         id="tspan10"
         style="font-variant:normal;font-weight:normal;font-size:12px;font-family:Arial;writing-mode:lr-tb;fill:#000000;fill-opacity:1;fill-rule:nonzero;stroke:none"
         x="0"
         y="0">p0 : PortDef0</tspan></text>
    <path
       id="path12"
       d="m 515.25,479.5 h 14 c 0.39777,0 0.78046,0.0761 1.14801,0.22833 0.36749,0.15222 0.69196,0.36899 0.97327,0.65033 0.28125,0.28128 0.49798,0.60572 0.65027,0.97324 0.15228,0.36755 0.22839,0.75024 0.22845,1.1481 v 14 c -6e-5,0.3978 -0.0762,0.78049 -0.22839,1.14801 -0.15229,0.36752 -0.36908,0.69193 -0.65033,0.97327 -0.28131,0.28128 -0.60578,0.49804 -0.97327,0.6503 -0.36755,0.15225 -0.75024,0.22839 -1.14801,0.22842 h -14 c -0.39789,-3e-5 -0.78058,-0.0762 -1.14813,-0.22842 -0.36749,-0.15226 -0.6919,-0.36902 -0.97321,-0.6503 -0.28131,-0.28134 -0.49811,-0.60578 -0.65033,-0.9733 C 512.32611,497.28046 512.25,496.8978 512.25,496.5 v -14 c 0,-0.39786 0.0761,-0.78055 0.22833,-1.1481 0.15222,-0.36752 0.36902,-0.69196 0.65033,-0.97324 0.28131,-0.28134 0.60572,-0.49811 0.97321,-0.65033 0.36755,-0.15222 0.75024,-0.22833 1.14813,-0.22833 z"
       style="fill:#ffffff;fill-opacity:1;fill-rule:nonzero;stroke:#000000;stroke-width:1;stroke-linecap:butt;stroke-linejoin:miter;stroke-miterlimit:10;stroke-dasharray:none;stroke-opacity:1"
       transform="matrix(0.94595218,0,0,0.94595218,-405.46115,-394.82694)"
       clip-path="url(#clipPath13)" />
    <text
       id="text13"
       xml:space="preserve"
       transform="matrix(0.94595218,0,0,0.94595218,10.550886,54.027381)"
       clip-path="url(#clipPath14)"><tspan
         id="tspan13"
         style="font-variant:normal;font-weight:normal;font-size:12px;font-family:Arial;writing-mode:lr-tb;fill:#000000;fill-opacity:1;fill-rule:nonzero;stroke:none"
         x="0"
         y="0">p1 : PortDef1</tspan></text>
    <path
       id="path15"
       d="m 515.25,559.5 h 14 c 0.39777,0 0.78046,0.0761 1.14801,0.22833 0.36749,0.15222 0.69196,0.36902 0.97327,0.65033 0.28125,0.28131 0.49798,0.60572 0.65027,0.97321 0.15228,0.36755 0.22839,0.75024 0.22845,1.14813 v 14 c -6e-5,0.39783 -0.0762,0.78046 -0.22839,1.14795 -0.15229,0.36755 -0.36908,0.69202 -0.65033,0.97333 -0.28131,0.28125 -0.60578,0.49798 -0.97327,0.65027 -0.36755,0.15228 -0.75024,0.22839 -1.14801,0.22845 h -14 c -0.39789,-6e-5 -0.78058,-0.0762 -1.14813,-0.22845 -0.36749,-0.15229 -0.6919,-0.36902 -0.97321,-0.65027 -0.28131,-0.28131 -0.49811,-0.60578 -0.65033,-0.97333 C 512.32611,577.28046 512.25,576.89783 512.25,576.5 v -14 c 0,-0.39789 0.0761,-0.78058 0.22833,-1.14813 0.15222,-0.36749 0.36902,-0.6919 0.65033,-0.97321 0.28131,-0.28131 0.60572,-0.49811 0.97321,-0.65033 0.36755,-0.15222 0.75024,-0.22833 1.14813,-0.22833 z"
       style="fill:#ffffff;fill-opacity:1;fill-rule:nonzero;stroke:#000000;stroke-width:1;stroke-linecap:butt;stroke-linejoin:miter;stroke-miterlimit:10;stroke-dasharray:none;stroke-opacity:1"
       transform="matrix(0.94595218,0,0,0.94595218,-405.46115,-394.82694)"
       clip-path="url(#clipPath16)" />
    <text
       id="text16"
       xml:space="preserve"
       transform="matrix(0.94595218,0,0,0.94595218,10.550886,129.70356)"
       clip-path="url(#clipPath17)"><tspan
         id="tspan16"
         style="font-variant:normal;font-weight:normal;font-size:12px;font-family:Arial;writing-mode:lr-tb;fill:#000000;fill-opacity:1;fill-rule:nonzero;stroke:none"
         x="0"
         y="0">p3 : PortDef3</tspan></text>
    <path
       id="path18"
       d="m 515.25,519.5 h 14 c 0.39777,0 0.78046,0.0761 1.14801,0.22833 0.36749,0.15222 0.69196,0.36902 0.97327,0.65033 0.28125,0.28131 0.49798,0.60572 0.65027,0.97321 0.15228,0.36755 0.22839,0.75024 0.22845,1.14813 v 14 c -6e-5,0.39777 -0.0762,0.78046 -0.22839,1.14801 -0.15229,0.36749 -0.36908,0.69196 -0.65033,0.97327 -0.28131,0.28131 -0.60578,0.49804 -0.97327,0.65033 -0.36755,0.15222 -0.75024,0.22833 -1.14801,0.22839 h -14 c -0.39789,-6e-5 -0.78058,-0.0762 -1.14813,-0.22839 -0.36749,-0.15229 -0.6919,-0.36902 -0.97321,-0.65033 -0.28131,-0.28131 -0.49811,-0.60578 -0.65033,-0.97327 C 512.32611,537.28046 512.25,536.89777 512.25,536.5 v -14 c 0,-0.39789 0.0761,-0.78058 0.22833,-1.14813 0.15222,-0.36749 0.36902,-0.6919 0.65033,-0.97321 0.28131,-0.28131 0.60572,-0.49811 0.97321,-0.65033 0.36755,-0.15222 0.75024,-0.22833 1.14813,-0.22833 z"
       style="fill:#ffffff;fill-opacity:1;fill-rule:nonzero;stroke:#000000;stroke-width:1;stroke-linecap:butt;stroke-linejoin:miter;stroke-miterlimit:10;stroke-dasharray:none;stroke-opacity:1"
       transform="matrix(0.94595218,0,0,0.94595218,-405.46115,-394.82694)"
       clip-path="url(#clipPath19)" />
    <text
       id="text19"
       xml:space="preserve"
       transform="matrix(0.94595218,0,0,0.94595218,10.550886,91.865468)"
       clip-path="url(#clipPath20)"><tspan
         id="tspan19"
         style="font-variant:normal;font-weight:normal;font-size:12px;font-family:Arial;writing-mode:lr-tb;fill:#000000;fill-opacity:1;fill-rule:nonzero;stroke:none"
         x="0"
         y="0">p2 : PortDef2</tspan></text>
    <path
       id="path21"
       d="m 514.48999,569.5 h 6.76001 8.76001"
       style="fill:none;stroke:#000000;stroke-width:1;stroke-linecap:butt;stroke-linejoin:miter;stroke-miterlimit:10;stroke-dasharray:none;stroke-opacity:1"
       transform="matrix(0.94595218,0,0,0.94595218,-405.46115,-394.82694)"
       clip-path="url(#clipPath22)" />
    <path
       id="path23"
       d="m 521.37,565.5 -8,4 8,4"
       style="fill:none;stroke:#000000;stroke-width:1;stroke-linecap:butt;stroke-linejoin:miter;stroke-miterlimit:10;stroke-dasharray:none;stroke-opacity:1"
       transform="matrix(0.94595218,0,0,0.94595218,-405.46115,-394.82694)"
       clip-path="url(#clipPath24)" />
    <path
       id="path25"
       d="m 523.13,573.5 8,-4 -8,-4"
       style="fill:none;stroke:#000000;stroke-width:1;stroke-linecap:butt;stroke-linejoin:miter;stroke-miterlimit:10;stroke-dasharray:none;stroke-opacity:1"
       transform="matrix(0.94595218,0,0,0.94595218,-405.46115,-394.82694)"
       clip-path="url(#clipPath26)" />
    <path
       id="path27"
       d="m 684.25,470 h 14 c 0.39777,0 0.78046,0.0761 1.14801,0.22833 0.36749,0.15222 0.69196,0.36899 0.97327,0.65033 0.28125,0.28128 0.49798,0.60572 0.65027,0.97324 0.15228,0.36755 0.22839,0.75024 0.22845,1.1481 v 14 c -6e-5,0.3978 -0.0762,0.78043 -0.22845,1.14795 -0.15229,0.36755 -0.36902,0.69199 -0.65027,0.97333 -0.28131,0.28128 -0.60578,0.49804 -0.97327,0.6503 -0.36755,0.15225 -0.75024,0.22839 -1.14801,0.22842 h -14 c -0.39789,-3e-5 -0.78058,-0.0762 -1.14813,-0.22842 -0.36756,-0.15226 -0.69196,-0.36902 -0.97321,-0.6503 -0.28131,-0.28134 -0.49811,-0.60578 -0.65033,-0.97333 C 681.32605,487.78043 681.24994,487.3978 681.25,487 v -14 c -6e-5,-0.39786 0.0761,-0.78055 0.22833,-1.1481 0.15222,-0.36752 0.36902,-0.69196 0.65033,-0.97324 0.28125,-0.28134 0.60565,-0.49811 0.97321,-0.65033 C 683.46942,470.07611 683.85211,470 684.25,470 Z"
       style="fill:#ffffff;fill-opacity:1;fill-rule:nonzero;stroke:#000000;stroke-width:1;stroke-linecap:butt;stroke-linejoin:miter;stroke-miterlimit:10;stroke-dasharray:none;stroke-opacity:1"
       transform="matrix(0.94595218,0,0,0.94595218,-405.46115,-394.82694)"
       clip-path="url(#clipPath28)" />
    <text
       id="text28"
       xml:space="preserve"
       transform="matrix(0.94595218,0,0,0.94595218,177.98442,44.567859)"
       clip-path="url(#clipPath29)"><tspan
         id="tspan28"
         style="font-variant:normal;font-weight:normal;font-size:12px;font-family:Arial;writing-mode:lr-tb;fill:#000000;fill-opacity:1;fill-rule:nonzero;stroke:none"
         x="0"
         y="0">p4 : PortDef4</tspan></text>
    <path
       id="path30"
       d="M 514.48999,529.5 H 532.25"
       style="fill:none;stroke:#000000;stroke-width:1;stroke-linecap:butt;stroke-linejoin:miter;stroke-miterlimit:10;stroke-dasharray:none;stroke-opacity:1"
       transform="matrix(0.94595218,0,0,0.94595218,-405.46115,-394.82694)"
       clip-path="url(#clipPath31)" />
    <path
       id="path32"
       d="m 521.37,525.5 -8,4 8,4"
       style="fill:none;stroke:#000000;stroke-width:1;stroke-linecap:butt;stroke-linejoin:miter;stroke-miterlimit:10;stroke-dasharray:none;stroke-opacity:1"
       transform="matrix(0.94595218,0,0,0.94595218,-405.46115,-394.82694)"
       clip-path="url(#clipPath33)" />
    <path
       id="path34"
       d="m 512.25,489.5 h 17.76001"
       style="fill:none;stroke:#000000;stroke-width:1;stroke-linecap:butt;stroke-linejoin:miter;stroke-miterlimit:10;stroke-dasharray:none;stroke-opacity:1"
       transform="matrix(0.94595218,0,0,0.94595218,-405.46115,-394.82694)"
       clip-path="url(#clipPath35)" />
    <path
       id="path36"
       d="m 523.13,493.5 8,-4 -8,-4"
       style="fill:none;stroke:#000000;stroke-width:1;stroke-linecap:butt;stroke-linejoin:miter;stroke-miterlimit:10;stroke-dasharray:none;stroke-opacity:1"
       transform="matrix(0.94595218,0,0,0.94595218,-405.46115,-394.82694)"
       clip-path="url(#clipPath37)" />
    <path
       id="path38"
       d="m 684.25,570 h 14 c 0.39777,0 0.78046,0.0761 1.14801,0.22833 0.36749,0.15222 0.69196,0.36902 0.97327,0.65033 0.28125,0.28125 0.49798,0.60565 0.65027,0.97327 0.15228,0.36749 0.22839,0.75018 0.22845,1.14807 v 14 c -6e-5,0.39777 -0.0762,0.78046 -0.22845,1.14801 -0.15229,0.36755 -0.36902,0.69196 -0.65027,0.97327 -0.28131,0.28131 -0.60578,0.49804 -0.97327,0.65027 -0.36755,0.15228 -0.75024,0.22839 -1.14801,0.22845 h -14 c -0.39789,-6e-5 -0.78058,-0.0762 -1.14813,-0.22845 -0.36756,-0.15223 -0.69196,-0.36896 -0.97321,-0.65027 -0.28131,-0.28131 -0.49811,-0.60572 -0.65033,-0.97327 C 681.32605,587.78046 681.24994,587.39777 681.25,587 v -14 c -6e-5,-0.39789 0.0761,-0.78058 0.22833,-1.14807 0.15222,-0.36762 0.36902,-0.69202 0.65033,-0.97327 0.28125,-0.28131 0.60565,-0.49811 0.97321,-0.65033 C 683.46942,570.07611 683.85211,570 684.25,570 Z"
       style="fill:#ffffff;fill-opacity:1;fill-rule:nonzero;stroke:#000000;stroke-width:1;stroke-linecap:butt;stroke-linejoin:miter;stroke-miterlimit:10;stroke-dasharray:none;stroke-opacity:1"
       transform="matrix(0.94595218,0,0,0.94595218,-405.46115,-394.82694)"
       clip-path="url(#clipPath39)" />
    <text
       id="text39"
       xml:space="preserve"
       transform="matrix(0.94595218,0,0,0.94595218,177.98442,139.16308)"
       clip-path="url(#clipPath40)"><tspan
         id="tspan39"
         style="font-variant:normal;font-weight:normal;font-size:12px;font-family:Arial;writing-mode:lr-tb;fill:#000000;fill-opacity:1;fill-rule:nonzero;stroke:none"
         x="0"
         y="0">p5 : PortDef5</tspan></text>
    <path
       id="path41"
       d="m 534.48999,466.5 h 7.76001 7.76001"
       style="fill:none;stroke:#000000;stroke-width:1;stroke-linecap:butt;stroke-linejoin:miter;stroke-miterlimit:10;stroke-dasharray:none;stroke-opacity:1"
       transform="matrix(0.94595218,0,0,0.94595218,-405.46115,-394.82694)"
       clip-path="url(#clipPath42)" />
    <path
       id="path43"
       d="m 541.37,462.5 -8,4 8,4"
       style="fill:none;stroke:#000000;stroke-width:1;stroke-linecap:butt;stroke-linejoin:miter;stroke-miterlimit:10;stroke-dasharray:none;stroke-opacity:1"
       transform="matrix(0.94595218,0,0,0.94595218,-405.46115,-394.82694)"
       clip-path="url(#clipPath44)" />
    <path
       id="path45"
       d="m 543.13,470.5 8,-4 -8,-4"
       style="fill:none;stroke:#000000;stroke-width:1;stroke-linecap:butt;stroke-linejoin:miter;stroke-miterlimit:10;stroke-dasharray:none;stroke-opacity:1"
       transform="matrix(0.94595218,0,0,0.94595218,-405.46115,-394.82694)"
       clip-path="url(#clipPath46)" />
  </g>
</svg>
