<?xml version="1.0" encoding="UTF-8" standalone="no"?>
<!-- Created with Inkscape (http://www.inkscape.org/) -->

<svg
   version="1.1"
   id="svg1"
   width="321.28"
   height="118.72"
   viewBox="0 0 321.28 118.72"
   xmlns="http://www.w3.org/2000/svg"
   xmlns:svg="http://www.w3.org/2000/svg">
  <defs
     id="defs1">
    <clipPath
       clipPathUnits="userSpaceOnUse"
       id="clipPath2">
      <path
         d="M 0,0 H 1004.9805 V 368.99414 H 0 Z"
         transform="scale(0.31999999)"
         clip-rule="evenodd"
         id="path2" />
    </clipPath>
    <clipPath
       clipPathUnits="userSpaceOnUse"
       id="clipPath4">
      <path
         d="m 3.125,0 h 1000 v 368.75 h -1000 z"
         transform="matrix(0.33788552,0,0,0.33788552,281.86685,4187.9439)"
         clip-rule="evenodd"
         id="path4" />
    </clipPath>
    <clipPath
       clipPathUnits="userSpaceOnUse"
       id="clipPath5">
      <path
         d="m 3.125,0 h 1000 v 368.75 h -1000 z"
         transform="matrix(0.33788552,0,0,0.33788552,-122.44565,-17.555942)"
         clip-rule="evenodd"
         id="path5" />
    </clipPath>
    <clipPath
       clipPathUnits="userSpaceOnUse"
       id="clipPath6">
      <path
         d="m 3.125,0 h 1000 v 368.75 h -1000 z"
         transform="matrix(0.33788552,0,0,0.33788552,-126.89878,-37.555941)"
         clip-rule="evenodd"
         id="path6" />
    </clipPath>
    <clipPath
       clipPathUnits="userSpaceOnUse"
       id="clipPath8">
      <path
         d="m 3.125,0 h 1000 v 368.75 h -1000 z"
         transform="matrix(0.33788552,0,0,0.33788552,281.86685,4187.9439)"
         clip-rule="evenodd"
         id="path8" />
    </clipPath>
    <clipPath
       clipPathUnits="userSpaceOnUse"
       id="clipPath9">
      <path
         d="m 3.125,0 h 1000 v 368.75 h -1000 z"
         transform="matrix(0.33788552,0,0,0.33788552,-8.1019005,-97.555941)"
         clip-rule="evenodd"
         id="path9" />
    </clipPath>
    <clipPath
       clipPathUnits="userSpaceOnUse"
       id="clipPath10">
      <path
         d="m 3.125,0 h 1000 v 368.75 h -1000 z"
         transform="matrix(0.33788552,0,0,0.33788552,-42.33628,-117.55594)"
         clip-rule="evenodd"
         id="path10" />
    </clipPath>
    <clipPath
       clipPathUnits="userSpaceOnUse"
       id="clipPath12">
      <path
         d="m 3.125,0 h 1000 v 368.75 h -1000 z"
         transform="matrix(0.33788552,0,0,0.33788552,281.86685,4187.9439)"
         clip-rule="evenodd"
         id="path12" />
    </clipPath>
    <clipPath
       clipPathUnits="userSpaceOnUse"
       id="clipPath14">
      <path
         d="m 3.125,0 h 1000 v 368.75 h -1000 z"
         transform="matrix(0.33788552,0,0,0.33788552,281.86685,4187.9439)"
         clip-rule="evenodd"
         id="path14" />
    </clipPath>
    <clipPath
       clipPathUnits="userSpaceOnUse"
       id="clipPath16">
      <path
         d="m 3.125,0 h 1000 v 368.75 h -1000 z"
         transform="matrix(0.33788552,0,0,0.33788552,281.86685,4187.9439)"
         clip-rule="evenodd"
         id="path16" />
    </clipPath>
    <clipPath
       clipPathUnits="userSpaceOnUse"
       id="clipPath17">
      <path
         d="m 3.125,0 h 1000 v 368.75 h -1000 z"
         transform="matrix(0.33788552,0,0,0.33788552,-240.88315,-97.555941)"
         clip-rule="evenodd"
         id="path17" />
    </clipPath>
    <clipPath
       clipPathUnits="userSpaceOnUse"
       id="clipPath18">
      <path
         d="m 3.125,0 h 1000 v 368.75 h -1000 z"
         transform="matrix(0.33788552,0,0,0.33788552,-212.43003,-117.55594)"
         clip-rule="evenodd"
         id="path18" />
    </clipPath>
    <clipPath
       clipPathUnits="userSpaceOnUse"
       id="clipPath20">
      <path
         d="m 3.125,0 h 1000 v 368.75 h -1000 z"
         transform="matrix(0.33788552,0,0,0.33788552,281.86685,4187.9439)"
         clip-rule="evenodd"
         id="path20" />
    </clipPath>
    <clipPath
       clipPathUnits="userSpaceOnUse"
       id="clipPath22">
      <path
         d="m 3.125,0 h 1000 v 368.75 h -1000 z"
         transform="matrix(0.33788552,0,0,0.33788552,281.86685,4187.9439)"
         clip-rule="evenodd"
         id="path22" />
    </clipPath>
    <clipPath
       clipPathUnits="userSpaceOnUse"
       id="clipPath24">
      <path
         d="m 3.125,0 h 1000 v 368.75 h -1000 z"
         transform="matrix(0.33788552,0,0,0.33788552,281.86685,4187.9439)"
         clip-rule="evenodd"
         id="path24" />
    </clipPath>
    <clipPath
       clipPathUnits="userSpaceOnUse"
       id="clipPath26">
      <path
         d="m 3.125,0 h 1000 v 368.75 h -1000 z"
         transform="matrix(0.33788552,0,0,0.33788552,281.86685,4187.9439)"
         clip-rule="evenodd"
         id="path26" />
    </clipPath>
    <clipPath
       clipPathUnits="userSpaceOnUse"
       id="clipPath28">
      <path
         d="m 3.125,0 h 1000 v 368.75 h -1000 z"
         transform="matrix(0.33788552,0,0,0.33788552,281.86685,4187.9439)"
         clip-rule="evenodd"
         id="path28" />
    </clipPath>
    <clipPath
       clipPathUnits="userSpaceOnUse"
       id="clipPath30">
      <path
         d="m 3.125,0 h 1000 v 368.75 h -1000 z"
         transform="matrix(0.33788552,0,0,0.33788552,281.86685,4187.9439)"
         clip-rule="evenodd"
         id="path30" />
    </clipPath>
  </defs>
  <g
     id="g1">
    <path
       id="path1"
       d="M 0,0 H 322 V 118 H 0 Z"
       style="fill:#ffffff;fill-opacity:1;fill-rule:nonzero;stroke:none"
       clip-path="url(#clipPath2)" />
    <path
       id="path3"
       d="m 342.47,4190 h 169.99997 c 0.66303,0 1.30078,0.127 1.91333,0.3804 0.61261,0.2534 1.15332,0.6147 1.62213,1.084 0.46881,0.4687 0.83014,1.0092 1.08386,1.6215 0.25373,0.6128 0.38062,1.2505 0.38068,1.9141 v 30 c -6e-5,0.6626 -0.12695,1.3003 -0.38074,1.9131 -0.25372,0.6128 -0.61499,1.1533 -1.0838,1.6221 -0.46881,0.4682 -1.00952,0.8295 -1.62213,1.0835 -0.61255,0.2539 -1.2503,0.3808 -1.91333,0.3813 L 342.47,4230 c -0.66305,-5e-4 -1.30087,-0.1274 -1.91345,-0.3813 -0.61258,-0.254 -1.15329,-0.6153 -1.62213,-1.0835 -0.46884,-0.4688 -0.83011,-1.0093 -1.08386,-1.6221 -0.25376,-0.6128 -0.38059,-1.2505 -0.38056,-1.9131 v -30 c -3e-5,-0.6636 0.1268,-1.3013 0.38056,-1.9141 0.25375,-0.6123 0.61502,-1.1528 1.08386,-1.6215 0.46884,-0.4693 1.00952,-0.8306 1.6221,-1.084 C 341.1691,4190.127 341.80695,4190 342.47,4190 Z"
       style="fill:#ffffff;fill-opacity:1;fill-rule:nonzero;stroke:#000000;stroke-width:1;stroke-linecap:butt;stroke-linejoin:miter;stroke-miterlimit:10;stroke-dasharray:none;stroke-opacity:1"
       transform="matrix(0.9470663,0,0,0.9470663,-266.94659,-3966.2605)"
       clip-path="url(#clipPath4)" />
    <text
       id="text4"
       xml:space="preserve"
       transform="matrix(0.9470663,0,0,0.9470663,115.96415,16.626641)"
       clip-path="url(#clipPath5)"><tspan
         id="tspan4"
         style="font-variant:normal;font-weight:normal;font-size:16px;font-family:Arial;writing-mode:lr-tb;fill:#000000;fill-opacity:1;fill-rule:nonzero;stroke:none"
         x="0"
         y="0">«part»</tspan></text>
    <text
       id="text5"
       xml:space="preserve"
       transform="matrix(0.9470663,0,0,0.9470663,120.18156,35.567966)"
       clip-path="url(#clipPath6)"><tspan
         id="tspan5"
         style="font-variant:normal;font-weight:normal;font-size:16px;font-family:Arial;writing-mode:lr-tb;fill:#000000;fill-opacity:1;fill-rule:nonzero;stroke:none"
         x="0"
         y="0">part0</tspan></text>
    <path
       id="path7"
       d="m 290,4270 h 120 c 0.66299,0 1.30078,0.1265 1.91336,0.3799 0.61258,0.2539 1.15329,0.6152 1.62216,1.084 0.46884,0.4687 0.83011,1.0092 1.08386,1.622 0.25373,0.6128 0.38059,1.251 0.38062,1.9141 v 30 c -3e-5,0.6626 -0.12689,1.3003 -0.38062,1.9131 -0.25375,0.6123 -0.61502,1.1528 -1.08386,1.6221 -0.46887,0.4682 -1.00958,0.8295 -1.62213,1.0835 -0.61258,0.2534 -1.2504,0.3808 -1.91339,0.3813 H 290 c -0.66306,-5e-4 -1.30084,-0.1279 -1.91342,-0.3813 -0.61258,-0.254 -1.15329,-0.6153 -1.62213,-1.0835 -0.46884,-0.4693 -0.83014,-1.0098 -1.08387,-1.6221 -0.25375,-0.6128 -0.38061,-1.2505 -0.38058,-1.9131 v -30 c -3e-5,-0.6631 0.12683,-1.3008 0.38058,-1.9136 0.25373,-0.6128 0.61503,-1.1538 1.08387,-1.6225 0.46884,-0.4688 1.00955,-0.8301 1.62213,-1.084 C 288.69916,4270.1265 289.33694,4270 290,4270 Z"
       style="fill:#ffffff;fill-opacity:1;fill-rule:nonzero;stroke:#000000;stroke-width:1;stroke-linecap:butt;stroke-linejoin:miter;stroke-miterlimit:10;stroke-dasharray:none;stroke-opacity:1"
       transform="matrix(0.9470663,0,0,0.9470663,-266.94659,-3966.2605)"
       clip-path="url(#clipPath8)" />
    <text
       id="text8"
       xml:space="preserve"
       transform="matrix(0.9470663,0,0,0.9470663,7.6730369,92.391944)"
       clip-path="url(#clipPath9)"><tspan
         id="tspan8"
         style="font-variant:normal;font-weight:normal;font-size:16px;font-family:Arial;writing-mode:lr-tb;fill:#000000;fill-opacity:1;fill-rule:nonzero;stroke:none"
         x="0"
         y="0">«perform action»</tspan></text>
    <text
       id="text9"
       xml:space="preserve"
       transform="matrix(0.9470663,0,0,0.9470663,40.095264,111.33327)"
       clip-path="url(#clipPath10)"><tspan
         id="tspan9"
         style="font-variant:normal;font-weight:normal;font-size:16px;font-family:Arial;writing-mode:lr-tb;fill:#000000;fill-opacity:1;fill-rule:nonzero;stroke:none"
         x="0"
         y="0">action1</tspan></text>
    <path
       id="path11"
       d="M 382.48001,4241.9902 382.5,4270"
       style="fill:none;stroke:#000000;stroke-width:1;stroke-linecap:butt;stroke-linejoin:miter;stroke-miterlimit:10;stroke-dasharray:none;stroke-opacity:1"
       transform="matrix(0.9470663,0,0,0.9470663,-266.94659,-3966.2605)"
       clip-path="url(#clipPath12)" />
    <path
       id="path13"
       d="m 382.47,4230.9902 3.23999,5.4898 -3.22998,5.5102 -3.24002,-5.5 z"
       style="fill:none;stroke:#000000;stroke-width:1;stroke-linecap:butt;stroke-linejoin:miter;stroke-miterlimit:10;stroke-dasharray:none;stroke-opacity:1"
       transform="matrix(0.9470663,0,0,0.9470663,-266.94659,-3966.2605)"
       clip-path="url(#clipPath14)" />
    <path
       id="path15"
       d="m 493,4270 h 120 c 0.66296,0 1.30072,0.1265 1.91333,0.3799 0.61255,0.2539 1.15326,0.6152 1.62213,1.084 0.46881,0.4687 0.83008,1.0092 1.0838,1.622 0.25379,0.6128 0.38068,1.251 0.38074,1.9141 v 30 c -6e-5,0.6626 -0.12695,1.3003 -0.38074,1.9131 -0.25372,0.6123 -0.61499,1.1528 -1.0838,1.6221 -0.46887,0.4682 -1.00958,0.8295 -1.62213,1.0835 -0.61261,0.2534 -1.25037,0.3808 -1.91333,0.3813 H 493 c -0.66306,-5e-4 -1.30087,-0.1279 -1.91345,-0.3813 -0.61258,-0.254 -1.15329,-0.6153 -1.6221,-1.0835 -0.46888,-0.4693 -0.83017,-1.0098 -1.0839,-1.6221 -0.25372,-0.6128 -0.38058,-1.2505 -0.38055,-1.9131 v -30 c -3e-5,-0.6631 0.12683,-1.3008 0.38055,-1.9136 0.25373,-0.6128 0.61502,-1.1538 1.0839,-1.6225 0.46881,-0.4688 1.00949,-0.8301 1.62207,-1.084 C 491.6991,4270.1265 492.33694,4270 493,4270 Z"
       style="fill:#ffffff;fill-opacity:1;fill-rule:nonzero;stroke:#000000;stroke-width:1;stroke-linecap:butt;stroke-linejoin:miter;stroke-miterlimit:10;stroke-dasharray:none;stroke-opacity:1"
       transform="matrix(0.9470663,0,0,0.9470663,-266.94659,-3966.2605)"
       clip-path="url(#clipPath16)" />
    <text
       id="text16"
       xml:space="preserve"
       transform="matrix(0.9470663,0,0,0.9470663,228.13231,92.391944)"
       clip-path="url(#clipPath17)"><tspan
         id="tspan16"
         style="font-variant:normal;font-weight:normal;font-size:16px;font-family:Arial;writing-mode:lr-tb;fill:#000000;fill-opacity:1;fill-rule:nonzero;stroke:none"
         x="0"
         y="0">«action»</tspan></text>
    <text
       id="text17"
       xml:space="preserve"
       transform="matrix(0.9470663,0,0,0.9470663,201.18532,111.33327)"
       clip-path="url(#clipPath18)"><tspan
         id="tspan17"
         style="font-variant:normal;font-weight:normal;font-size:16px;font-family:Arial;writing-mode:lr-tb;fill:#000000;fill-opacity:1;fill-rule:nonzero;stroke:none"
         x="0"
         dx="0 0 0 0 0 0 0 0 0 0 -0.8828122"
         y="0">action3 : Action3</tspan></text>
    <path
       id="path19"
       d="m 415,4290 h 60.88"
       style="fill:none;stroke:#000000;stroke-width:1;stroke-linecap:butt;stroke-linejoin:miter;stroke-miterlimit:10;stroke-dasharray:none;stroke-opacity:1"
       transform="matrix(0.9470663,0,0,0.9470663,-266.94659,-3966.2605)"
       clip-path="url(#clipPath20)" />
    <path
       id="path21"
       d="m 486.88,4290 -11,5.5 v -11 z"
       style="fill:none;stroke:#000000;stroke-width:1;stroke-linecap:butt;stroke-linejoin:miter;stroke-miterlimit:10;stroke-dasharray:none;stroke-opacity:1"
       transform="matrix(0.9470663,0,0,0.9470663,-266.94659,-3966.2605)"
       clip-path="url(#clipPath22)" />
    <path
       id="path23"
       d="m 472,4286 c -3e-5,0.2651 -0.0508,0.52 -0.15228,0.7646 -0.1015,0.2452 -0.246,0.4615 -0.43354,0.6495 -0.18753,0.1875 -0.40383,0.332 -0.64889,0.4336 -0.245,0.1015 -0.50009,0.1523 -0.76529,0.1523 -0.26523,0 -0.52039,-0.051 -0.76544,-0.1523 -0.24503,-0.1016 -0.46128,-0.2461 -0.64881,-0.4336 -0.18756,-0.188 -0.33209,-0.4043 -0.43359,-0.6495 -0.10147,-0.2446 -0.15219,-0.4995 -0.15216,-0.7646 -3e-5,-0.2651 0.0507,-0.5205 0.15216,-0.7661 0.1015,-0.2451 0.24603,-0.4614 0.43359,-0.6485 0.18753,-0.1879 0.40378,-0.332 0.64881,-0.4331 0.24505,-0.1015 0.50021,-0.1523 0.76544,-0.1523 0.2652,0 0.52029,0.051 0.76532,0.1523 0.24503,0.1011 0.46133,0.2452 0.64886,0.4331 0.18754,0.1871 0.33204,0.4034 0.43351,0.6485 0.10153,0.2456 0.15228,0.501 0.15231,0.7661 z"
       style="fill:#000000;fill-opacity:1;fill-rule:nonzero;stroke:none"
       transform="matrix(0.9470663,0,0,0.9470663,-266.94659,-3966.2605)"
       clip-path="url(#clipPath24)" />
    <path
       id="path25"
       d="m 472,4294 c -3e-5,0.2651 -0.0508,0.52 -0.15228,0.7651 -0.1015,0.2447 -0.246,0.4605 -0.43354,0.6485 -0.18753,0.187 -0.40383,0.3315 -0.64889,0.4336 -0.245,0.1015 -0.50009,0.1523 -0.76529,0.1528 -0.26523,-5e-4 -0.52039,-0.051 -0.76544,-0.1528 -0.24503,-0.1021 -0.46128,-0.2466 -0.64881,-0.4336 -0.18756,-0.188 -0.33209,-0.4038 -0.43359,-0.6485 -0.10147,-0.2451 -0.15219,-0.5 -0.15216,-0.7651 -3e-5,-0.2656 0.0507,-0.521 0.15216,-0.7656 0.1015,-0.2451 0.24603,-0.4615 0.43359,-0.649 0.18753,-0.1875 0.40378,-0.332 0.64881,-0.4335 0.24505,-0.1011 0.50021,-0.1519 0.76544,-0.1519 0.2652,0 0.52029,0.051 0.76532,0.1519 0.24503,0.1015 0.46133,0.246 0.64886,0.4335 0.18754,0.1875 0.33204,0.4039 0.43351,0.649 0.10153,0.2446 0.15228,0.5 0.15231,0.7656 z"
       style="fill:#000000;fill-opacity:1;fill-rule:nonzero;stroke:none"
       transform="matrix(0.9470663,0,0,0.9470663,-266.94659,-3966.2605)"
       clip-path="url(#clipPath26)" />
    <path
       id="path27"
       d="m 466,4286 c -3e-5,0.2651 -0.0508,0.52 -0.15231,0.7646 -0.1015,0.2452 -0.24601,0.4615 -0.43354,0.6495 -0.18753,0.1875 -0.40384,0.332 -0.64886,0.4336 -0.24503,0.1015 -0.50012,0.1523 -0.76529,0.1523 -0.26523,0 -0.52039,-0.051 -0.76541,-0.1523 -0.24503,-0.1016 -0.46131,-0.2461 -0.64884,-0.4336 -0.18756,-0.188 -0.33209,-0.4043 -0.43356,-0.6495 -0.10147,-0.2446 -0.15222,-0.4995 -0.15219,-0.7646 -3e-5,-0.2651 0.0507,-0.5205 0.15219,-0.7661 0.10147,-0.2451 0.246,-0.4614 0.43356,-0.6485 0.18753,-0.1879 0.40381,-0.332 0.64884,-0.4331 0.24502,-0.1015 0.50018,-0.1523 0.76541,-0.1523 0.26517,0 0.52026,0.051 0.76529,0.1523 0.24502,0.1011 0.46133,0.2452 0.64886,0.4331 0.18753,0.1871 0.33204,0.4034 0.43354,0.6485 0.1015,0.2456 0.15228,0.501 0.15231,0.7661 z"
       style="fill:#000000;fill-opacity:1;fill-rule:nonzero;stroke:none"
       transform="matrix(0.9470663,0,0,0.9470663,-266.94659,-3966.2605)"
       clip-path="url(#clipPath28)" />
    <path
       id="path29"
       d="m 466,4294 c -3e-5,0.2651 -0.0508,0.52 -0.15231,0.7651 -0.1015,0.2447 -0.24601,0.4605 -0.43354,0.6485 -0.18753,0.187 -0.40384,0.3315 -0.64886,0.4336 -0.24503,0.1015 -0.50012,0.1523 -0.76529,0.1528 -0.26523,-5e-4 -0.52039,-0.051 -0.76541,-0.1528 -0.24503,-0.1021 -0.46131,-0.2466 -0.64884,-0.4336 -0.18756,-0.188 -0.33209,-0.4038 -0.43356,-0.6485 -0.10147,-0.2451 -0.15222,-0.5 -0.15219,-0.7651 -3e-5,-0.2656 0.0507,-0.521 0.15219,-0.7656 0.10147,-0.2451 0.246,-0.4615 0.43356,-0.649 0.18753,-0.1875 0.40381,-0.332 0.64884,-0.4335 0.24502,-0.1011 0.50018,-0.1519 0.76541,-0.1519 0.26517,0 0.52026,0.051 0.76529,0.1519 0.24502,0.1015 0.46133,0.246 0.64886,0.4335 0.18753,0.1875 0.33204,0.4039 0.43354,0.649 0.1015,0.2446 0.15228,0.5 0.15231,0.7656 z"
       style="fill:#000000;fill-opacity:1;fill-rule:nonzero;stroke:none"
       transform="matrix(0.9470663,0,0,0.9470663,-266.94659,-3966.2605)"
       clip-path="url(#clipPath30)" />
  </g>
</svg>
