<?xml version="1.0" encoding="UTF-8" standalone="no"?>
<!-- Created with Inkscape (http://www.inkscape.org/) -->

<svg
   version="1.1"
   id="svg1"
   width="155.84"
   height="40"
   viewBox="0 0 155.84 40"
   xmlns="http://www.w3.org/2000/svg"
   xmlns:svg="http://www.w3.org/2000/svg">
  <defs
     id="defs1">
    <clipPath
       clipPathUnits="userSpaceOnUse"
       id="clipPath2">
      <path
         d="M 0,0 H 488 V 125.97656 H 0 Z"
         transform="scale(0.31999999)"
         clip-rule="evenodd"
         id="path2" />
    </clipPath>
    <clipPath
       clipPathUnits="userSpaceOnUse"
       id="clipPath4">
      <path
         d="M 3.125,0 H 487.5 V 125.97656 H 3.125 Z"
         transform="matrix(0.34066536,0,0,0.34066536,558.86347,8905.9999)"
         clip-rule="evenodd"
         id="path4" />
    </clipPath>
    <clipPath
       clipPathUnits="userSpaceOnUse"
       id="clipPath5">
      <path
         d="M 3.125,0 H 487.5 V 125.97656 H 3.125 Z"
         transform="matrix(0.34066536,0,0,0.34066536,-60.449002,-16.500378)"
         clip-rule="evenodd"
         id="path5" />
    </clipPath>
    <clipPath
       clipPathUnits="userSpaceOnUse"
       id="clipPath6">
      <path
         d="M 3.125,0 H 487.5 V 125.97656 H 3.125 Z"
         transform="matrix(0.34066536,0,0,0.34066536,-26.667753,-36.500378)"
         clip-rule="evenodd"
         id="path6" />
    </clipPath>
  </defs>
  <g
     id="g1">
    <path
       id="path1"
       d="M 0,0 H 156 V 40 H 0 Z"
       style="fill:#ffffff;fill-opacity:1;fill-rule:nonzero;stroke:none"
       clip-path="url(#clipPath2)" />
    <path
       id="path3"
       d="m 570,8907 h 144 c 0.52521,0 1.04541,0.051 1.56061,0.1533 0.5152,0.1016 1.01544,0.253 1.50073,0.4541 0.48529,0.2012 0.94635,0.4483 1.38312,0.7403 0.43677,0.2919 0.84088,0.623 1.21234,0.9951 0.3714,0.3711 0.703,0.7754 0.99481,1.2119 0.29181,0.4365 0.53827,0.8974 0.73932,1.3828 0.20099,0.4854 0.35278,0.9863 0.45526,1.502 0.10254,0.5146 0.15381,1.0351 0.15381,1.5605 v 24 c 0,0.5254 -0.0513,1.0449 -0.15381,1.5596 -0.10248,0.5146 -0.25427,1.0156 -0.45526,1.5009 -0.20105,0.4854 -0.44751,0.9463 -0.73932,1.3838 -0.29181,0.4366 -0.62341,0.8399 -0.99481,1.212 -0.37146,0.371 -0.77557,0.7021 -1.21234,0.9941 -0.43677,0.292 -0.89783,0.5381 -1.38312,0.7392 -0.48529,0.2012 -0.98547,0.3526 -1.50067,0.4551 C 715.04547,8946.9482 714.52521,8947 714,8947 H 570 c -0.52533,0 -1.04559,-0.052 -1.56079,-0.1553 -0.5152,-0.1025 -1.01544,-0.2539 -1.50073,-0.4551 -0.48529,-0.2011 -0.94635,-0.4472 -1.38306,-0.7392 -0.43677,-0.292 -0.84088,-0.6231 -1.21228,-0.9941 -0.3714,-0.3721 -0.70306,-0.7754 -0.99493,-1.212 -0.29187,-0.4375 -0.53833,-0.8984 -0.73932,-1.3838 -0.20099,-0.4853 -0.35266,-0.9863 -0.45514,-1.5009 -0.10248,-0.5147 -0.15369,-1.0342 -0.15375,-1.5596 v -24 c 6e-5,-0.5254 0.0513,-1.0459 0.15375,-1.5605 0.10248,-0.5157 0.25415,-1.0166 0.45514,-1.502 0.20099,-0.4854 0.44745,-0.9463 0.73932,-1.3828 0.29187,-0.4365 0.62353,-0.8408 0.99493,-1.2119 0.3714,-0.3721 0.77551,-0.7032 1.21228,-0.9951 0.43671,-0.292 0.89777,-0.5391 1.38306,-0.7403 0.48529,-0.2011 0.98553,-0.3525 1.50073,-0.4541 C 568.95441,8907.0508 569.47467,8907 570,8907 Z"
       style="fill:#ffffff;fill-opacity:1;fill-rule:nonzero;stroke:#000000;stroke-width:1;stroke-linecap:butt;stroke-linejoin:miter;stroke-miterlimit:10;stroke-dasharray:none;stroke-opacity:1"
       transform="matrix(0.9393382,0,0,0.9393382,-524.96181,-8365.7459)"
       clip-path="url(#clipPath4)" />
    <text
       id="text4"
       xml:space="preserve"
       transform="matrix(0.9393382,0,0,0.9393382,56.782057,15.499435)"
       clip-path="url(#clipPath5)"><tspan
         id="tspan4"
         style="font-variant:normal;font-weight:normal;font-size:16px;font-family:Arial;writing-mode:lr-tb;fill:#000000;fill-opacity:1;fill-rule:nonzero;stroke:none"
         x="0"
         y="0">«part»</tspan></text>
    <text
       id="text5"
       xml:space="preserve"
       transform="matrix(0.9393382,0,0,0.9393382,25.050039,34.286199)"
       clip-path="url(#clipPath6)"><tspan
         id="tspan5"
         style="font-variant:normal;font-weight:normal;font-size:16px;font-family:Arial;writing-mode:lr-tb;fill:#000000;fill-opacity:1;fill-rule:nonzero;stroke:none"
         x="0"
         y="0">part1 : PartDef1</tspan></text>
  </g>
</svg>
