<?xml version="1.0" encoding="UTF-8" standalone="no"?>
<!-- Created with Inkscape (http://www.inkscape.org/) -->

<svg
   version="1.1"
   id="svg1"
   width="190.71999"
   height="153.28"
   viewBox="0 0 190.71999 153.28"
   xmlns="http://www.w3.org/2000/svg"
   xmlns:svg="http://www.w3.org/2000/svg">
  <defs
     id="defs1">
    <clipPath
       clipPathUnits="userSpaceOnUse"
       id="clipPath2">
      <path
         d="M 0,0 H 597 V 479.98047 H 0 Z"
         transform="scale(0.31999999)"
         clip-rule="evenodd"
         id="path2" />
    </clipPath>
    <clipPath
       clipPathUnits="userSpaceOnUse"
       id="clipPath4">
      <path
         d="M 3.125,0 H 593.75 V 478.125 H 3.125 Z"
         transform="matrix(0.3392835,0,0,0.3392835,120.87911,1461.9398)"
         clip-rule="evenodd"
         id="path4" />
    </clipPath>
    <clipPath
       clipPathUnits="userSpaceOnUse"
       id="clipPath5">
      <path
         d="M 3.125,0 H 593.75 V 478.125 H 3.125 Z"
         transform="matrix(0.3392835,0,0,0.3392835,-61.292765,-19.560227)"
         clip-rule="evenodd"
         id="path5" />
    </clipPath>
    <clipPath
       clipPathUnits="userSpaceOnUse"
       id="clipPath6">
      <path
         d="M 3.125,0 H 593.75 V 478.125 H 3.125 Z"
         transform="matrix(0.3392835,0,0,0.3392835,-64.636516,-19.560227)"
         clip-rule="evenodd"
         id="path6" />
    </clipPath>
    <clipPath
       clipPathUnits="userSpaceOnUse"
       id="clipPath7">
      <path
         d="M 3.125,0 H 593.75 V 478.125 H 3.125 Z"
         transform="matrix(0.3392835,0,0,0.3392835,-4.6208852,-34.560226)"
         clip-rule="evenodd"
         id="path7" />
    </clipPath>
    <clipPath
       clipPathUnits="userSpaceOnUse"
       id="clipPath8">
      <path
         d="M 3.125,0 H 593.75 V 478.125 H 3.125 Z"
         transform="matrix(0.3392835,0,0,0.3392835,-15.29276,-34.560226)"
         clip-rule="evenodd"
         id="path8" />
    </clipPath>
    <clipPath
       clipPathUnits="userSpaceOnUse"
       id="clipPath9">
      <path
         d="M 3.125,0 H 593.75 V 478.125 H 3.125 Z"
         transform="matrix(0.3392835,0,0,0.3392835,-4.6208852,-51.560227)"
         clip-rule="evenodd"
         id="path9" />
    </clipPath>
    <clipPath
       clipPathUnits="userSpaceOnUse"
       id="clipPath10">
      <path
         d="M 3.125,0 H 593.75 V 478.125 H 3.125 Z"
         transform="matrix(0.3392835,0,0,0.3392835,-23.277136,-51.560227)"
         clip-rule="evenodd"
         id="path10" />
    </clipPath>
    <clipPath
       clipPathUnits="userSpaceOnUse"
       id="clipPath11">
      <path
         d="M 3.125,0 H 593.75 V 478.125 H 3.125 Z"
         transform="matrix(0.3392835,0,0,0.3392835,-4.6208852,-68.560227)"
         clip-rule="evenodd"
         id="path11" />
    </clipPath>
    <clipPath
       clipPathUnits="userSpaceOnUse"
       id="clipPath12">
      <path
         d="M 3.125,0 H 593.75 V 478.125 H 3.125 Z"
         transform="matrix(0.3392835,0,0,0.3392835,-33.94901,-68.560227)"
         clip-rule="evenodd"
         id="path12" />
    </clipPath>
    <clipPath
       clipPathUnits="userSpaceOnUse"
       id="clipPath13">
      <path
         d="M 3.125,0 H 593.75 V 478.125 H 3.125 Z"
         transform="matrix(0.3392835,0,0,0.3392835,-4.6208852,-85.560227)"
         clip-rule="evenodd"
         id="path13" />
    </clipPath>
    <clipPath
       clipPathUnits="userSpaceOnUse"
       id="clipPath14">
      <path
         d="M 3.125,0 H 593.75 V 478.125 H 3.125 Z"
         transform="matrix(0.3392835,0,0,0.3392835,-15.29276,-85.560227)"
         clip-rule="evenodd"
         id="path14" />
    </clipPath>
    <clipPath
       clipPathUnits="userSpaceOnUse"
       id="clipPath15">
      <path
         d="M 3.125,0 H 593.75 V 478.125 H 3.125 Z"
         transform="matrix(0.3392835,0,0,0.3392835,-4.6208852,-102.56023)"
         clip-rule="evenodd"
         id="path15" />
    </clipPath>
    <clipPath
       clipPathUnits="userSpaceOnUse"
       id="clipPath16">
      <path
         d="M 3.125,0 H 593.75 V 478.125 H 3.125 Z"
         transform="matrix(0.3392835,0,0,0.3392835,-23.277136,-102.56023)"
         clip-rule="evenodd"
         id="path16" />
    </clipPath>
    <clipPath
       clipPathUnits="userSpaceOnUse"
       id="clipPath17">
      <path
         d="M 3.125,0 H 593.75 V 478.125 H 3.125 Z"
         transform="matrix(0.3392835,0,0,0.3392835,-4.6208852,-118.56023)"
         clip-rule="evenodd"
         id="path17" />
    </clipPath>
    <clipPath
       clipPathUnits="userSpaceOnUse"
       id="clipPath18">
      <path
         d="M 3.125,0 H 593.75 V 478.125 H 3.125 Z"
         transform="matrix(0.3392835,0,0,0.3392835,-33.94901,-118.56023)"
         clip-rule="evenodd"
         id="path18" />
    </clipPath>
    <clipPath
       clipPathUnits="userSpaceOnUse"
       id="clipPath19">
      <path
         d="M 3.125,0 H 593.75 V 478.125 H 3.125 Z"
         transform="matrix(0.3392835,0,0,0.3392835,-4.6208852,-136.56022)"
         clip-rule="evenodd"
         id="path19" />
    </clipPath>
  </defs>
  <g
     id="g1">
    <path
       id="path1"
       d="M 0,0 H 191 V 154 H 0 Z"
       style="fill:#ffffff;fill-opacity:1;fill-rule:nonzero;stroke:none"
       clip-path="url(#clipPath2)" />
    <path
       id="path3"
       d="m 124,1464 h 196 v 146 H 124 Z"
       style="fill:#ffffff;fill-opacity:1;fill-rule:nonzero;stroke:#000000;stroke-width:1;stroke-linecap:butt;stroke-linejoin:miter;stroke-miterlimit:10;stroke-dasharray:none;stroke-opacity:1"
       transform="matrix(0.94316402,0,0,0.94316402,-114.00883,-1378.849)"
       clip-path="url(#clipPath4)" />
    <g
       id="g4" />
    <text
       id="text4"
       xml:space="preserve"
       transform="matrix(0.94316402,0,0,0.94316402,57.809131,18.448502)"
       clip-path="url(#clipPath5)"><tspan
         id="tspan4"
         style="font-variant:normal;font-weight:normal;font-size:12px;font-family:Arial;writing-mode:lr-tb;fill:#000000;fill-opacity:1;fill-rule:nonzero;stroke:none"
         x="0"
         y="0"> </tspan></text>
    <text
       id="text5"
       xml:space="preserve"
       transform="matrix(0.94316402,0,0,0.94316402,60.962836,18.448502)"
       clip-path="url(#clipPath6)"><tspan
         id="tspan5"
         style="font-style:italic;font-variant:normal;font-weight:normal;font-size:12px;font-family:Arial;writing-mode:lr-tb;fill:#000000;fill-opacity:1;fill-rule:nonzero;stroke:none"
         x="0"
         y="0">directed features</tspan></text>
    <text
       id="text6"
       xml:space="preserve"
       transform="matrix(0.94316402,0,0,0.94316402,4.3582527,32.595962)"
       clip-path="url(#clipPath7)"><tspan
         id="tspan6"
         style="font-variant:normal;font-weight:700;font-size:12px;font-family:Arial;writing-mode:lr-tb;fill:#000000;fill-opacity:1;fill-rule:nonzero;stroke:none"
         x="0"
         y="0">in</tspan></text>
    <text
       id="text7"
       xml:space="preserve"
       transform="matrix(0.94316402,0,0,0.94316402,14.423581,32.595962)"
       clip-path="url(#clipPath8)"><tspan
         id="tspan7"
         style="font-variant:normal;font-weight:normal;font-size:12px;font-family:Arial;writing-mode:lr-tb;fill:#000000;fill-opacity:1;fill-rule:nonzero;stroke:none"
         x="0"
         dx="0 0 0 0 0 0 0 0 0 0 0 0 0 0 -0.66210926"
         y="0"> attribute1 : AttributeDef1</tspan></text>
    <text
       id="text8"
       xml:space="preserve"
       transform="matrix(0.94316402,0,0,0.94316402,4.3582527,48.629751)"
       clip-path="url(#clipPath9)"><tspan
         id="tspan8"
         style="font-variant:normal;font-weight:700;font-size:12px;font-family:Arial;writing-mode:lr-tb;fill:#000000;fill-opacity:1;fill-rule:nonzero;stroke:none"
         x="0"
         y="0">out</tspan></text>
    <text
       id="text9"
       xml:space="preserve"
       transform="matrix(0.94316402,0,0,0.94316402,21.954157,48.629751)"
       clip-path="url(#clipPath10)"><tspan
         id="tspan9"
         style="font-variant:normal;font-weight:normal;font-size:12px;font-family:Arial;writing-mode:lr-tb;fill:#000000;fill-opacity:1;fill-rule:nonzero;stroke:none"
         x="0"
         dx="0 0 0 0 0 0 0 0 0 0 0 0 0 0 -0.66210926"
         y="0"> attribute2 : AttributeDef2</tspan></text>
    <text
       id="text10"
       xml:space="preserve"
       transform="matrix(0.94316402,0,0,0.94316402,4.3582527,64.663539)"
       clip-path="url(#clipPath11)"><tspan
         id="tspan10"
         style="font-variant:normal;font-weight:700;font-size:12px;font-family:Arial;writing-mode:lr-tb;fill:#000000;fill-opacity:1;fill-rule:nonzero;stroke:none"
         x="0"
         y="0">inout</tspan></text>
    <text
       id="text11"
       xml:space="preserve"
       transform="matrix(0.94316402,0,0,0.94316402,32.019485,64.663539)"
       clip-path="url(#clipPath12)"><tspan
         id="tspan11"
         style="font-variant:normal;font-weight:normal;font-size:12px;font-family:Arial;writing-mode:lr-tb;fill:#000000;fill-opacity:1;fill-rule:nonzero;stroke:none"
         x="0"
         dx="0 0 0 0 0 0 0 0 0 0 0 0 0 0 -0.66210926"
         y="0"> attribute3 : AttrributeDef3</tspan></text>
    <text
       id="text12"
       xml:space="preserve"
       transform="matrix(0.94316402,0,0,0.94316402,4.3582527,80.697328)"
       clip-path="url(#clipPath13)"><tspan
         id="tspan12"
         style="font-variant:normal;font-weight:700;font-size:12px;font-family:Arial;writing-mode:lr-tb;fill:#000000;fill-opacity:1;fill-rule:nonzero;stroke:none"
         x="0"
         y="0">in</tspan></text>
    <text
       id="text13"
       xml:space="preserve"
       transform="matrix(0.94316402,0,0,0.94316402,14.423581,80.697328)"
       clip-path="url(#clipPath14)"><tspan
         id="tspan13"
         style="font-variant:normal;font-weight:normal;font-size:12px;font-family:Arial;writing-mode:lr-tb;fill:#000000;fill-opacity:1;fill-rule:nonzero;stroke:none"
         x="0"
         y="0"> item1 : ItemDef1</tspan></text>
    <text
       id="text14"
       xml:space="preserve"
       transform="matrix(0.94316402,0,0,0.94316402,4.3582527,96.731116)"
       clip-path="url(#clipPath15)"><tspan
         id="tspan14"
         style="font-variant:normal;font-weight:700;font-size:12px;font-family:Arial;writing-mode:lr-tb;fill:#000000;fill-opacity:1;fill-rule:nonzero;stroke:none"
         x="0"
         y="0">out</tspan></text>
    <g
       id="g15" />
    <text
       id="text15"
       xml:space="preserve"
       transform="matrix(0.94316402,0,0,0.94316402,21.954157,96.731116)"
       clip-path="url(#clipPath16)"><tspan
         id="tspan15"
         style="font-variant:normal;font-weight:normal;font-size:12px;font-family:Arial;writing-mode:lr-tb;fill:#000000;fill-opacity:1;fill-rule:nonzero;stroke:none"
         x="0"
         y="0"> item2 : ItemDef2</tspan></text>
    <text
       id="text16"
       xml:space="preserve"
       transform="matrix(0.94316402,0,0,0.94316402,4.3582527,111.82174)"
       clip-path="url(#clipPath17)"><tspan
         id="tspan16"
         style="font-variant:normal;font-weight:700;font-size:12px;font-family:Arial;writing-mode:lr-tb;fill:#000000;fill-opacity:1;fill-rule:nonzero;stroke:none"
         x="0"
         y="0">inout</tspan></text>
    <text
       id="text17"
       xml:space="preserve"
       transform="matrix(0.94316402,0,0,0.94316402,32.019485,111.82174)"
       clip-path="url(#clipPath18)"><tspan
         id="tspan17"
         style="font-variant:normal;font-weight:normal;font-size:12px;font-family:Arial;writing-mode:lr-tb;fill:#000000;fill-opacity:1;fill-rule:nonzero;stroke:none"
         x="0"
         y="0"> item3 : ItemDef3</tspan></text>
    <text
       id="text18"
       xml:space="preserve"
       transform="matrix(0.94316402,0,0,0.94316402,4.3582527,128.79869)"
       clip-path="url(#clipPath19)"><tspan
         id="tspan18"
         style="font-variant:normal;font-weight:700;font-size:14px;font-family:Arial;writing-mode:lr-tb;fill:#000000;fill-opacity:1;fill-rule:nonzero;stroke:none"
         x="0"
         y="0">...</tspan></text>
  </g>
</svg>
