<?xml version="1.0" encoding="UTF-8" standalone="no"?>
<!-- Created with Inkscape (http://www.inkscape.org/) -->

<svg
   version="1.1"
   id="svg1"
   width="155.84"
   height="89.279999"
   viewBox="0 0 155.84 89.279999"
   xmlns="http://www.w3.org/2000/svg"
   xmlns:svg="http://www.w3.org/2000/svg">
  <defs
     id="defs1">
    <clipPath
       clipPathUnits="userSpaceOnUse"
       id="clipPath2">
      <path
         d="M 0,0 H 488 V 279.00391 H 0 Z"
         transform="scale(0.31999999)"
         clip-rule="evenodd"
         id="path2" />
    </clipPath>
    <clipPath
       clipPathUnits="userSpaceOnUse"
       id="clipPath4">
      <path
         d="M 3.125,0 H 487.5 V 278.125 H 3.125 Z"
         transform="matrix(0.34065814,0,0,0.34065814,560.87525,9905.9348)"
         clip-rule="evenodd"
         id="path4" />
    </clipPath>
    <clipPath
       clipPathUnits="userSpaceOnUse"
       id="clipPath6">
      <path
         d="M 3.125,0 H 487.5 V 278.125 H 3.125 Z"
         transform="matrix(0.34065814,0,0,0.34065814,560.87525,9905.9348)"
         clip-rule="evenodd"
         id="path6" />
    </clipPath>
    <clipPath
       clipPathUnits="userSpaceOnUse"
       id="clipPath8">
      <path
         d="M 3.125,0 H 487.5 V 278.125 H 3.125 Z"
         transform="matrix(0.34065814,0,0,0.34065814,560.87525,9905.9348)"
         clip-rule="evenodd"
         id="path8" />
    </clipPath>
    <clipPath
       clipPathUnits="userSpaceOnUse"
       id="clipPath9">
      <path
         d="M 3.125,0 H 487.5 V 278.125 H 3.125 Z"
         transform="matrix(0.34065814,0,0,0.34065814,-60.437282,-23.564825)"
         clip-rule="evenodd"
         id="path9" />
    </clipPath>
    <clipPath
       clipPathUnits="userSpaceOnUse"
       id="clipPath10">
      <path
         d="M 3.125,0 H 487.5 V 278.125 H 3.125 Z"
         transform="matrix(0.34065814,0,0,0.34065814,-26.656031,-42.564825)"
         clip-rule="evenodd"
         id="path10" />
    </clipPath>
    <clipPath
       clipPathUnits="userSpaceOnUse"
       id="clipPath11">
      <path
         d="M 92.834351,160.17383 H 392.25476 v 44.0332 H 92.834351 Z"
         transform="matrix(0.34065814,0,0,0.34065814,-31.937281,-65.564825)"
         clip-rule="evenodd"
         id="path11" />
    </clipPath>
    <clipPath
       clipPathUnits="userSpaceOnUse"
       id="clipPath12">
      <path
         d="M 25.317993,218.88477 H 63.47937 v 44.03125 H 25.317993 Z"
         transform="matrix(0.34065814,0,0,0.34065814,-8.6247808,-85.564825)"
         clip-rule="evenodd"
         id="path12" />
    </clipPath>
  </defs>
  <g
     id="g1">
    <path
       id="path1"
       d="M 0,0 H 156 V 89 H 0 Z"
       style="fill:#ffffff;fill-opacity:1;fill-rule:nonzero;stroke:none"
       clip-path="url(#clipPath2)" />
    <path
       id="path3"
       d="m 724.01001,9958 v -42.5 c 0,-5 -2.5,-7.5 -7.5,-7.5 h -145 c -5,0 -7.5,2.5 -7.5,7.5 v 42.5"
       style="fill:none;stroke:#000000;stroke-width:1;stroke-linecap:butt;stroke-linejoin:miter;stroke-miterlimit:10;stroke-dasharray:none;stroke-opacity:1"
       transform="matrix(0.9393581,0,0,0.9393581,-526.86271,-9305.2201)"
       clip-path="url(#clipPath4)" />
    <path
       id="path5"
       d="m 564.01001,9958 v 32.5 c 0,5 2.5,7.5 7.5,7.5 h 145 c 5,0 7.5,-2.5 7.5,-7.5 V 9958"
       style="fill:none;stroke:#000000;stroke-width:1;stroke-linecap:butt;stroke-linejoin:miter;stroke-miterlimit:10;stroke-dasharray:none;stroke-opacity:1"
       transform="matrix(0.9393581,0,0,0.9393581,-526.86271,-9305.2201)"
       clip-path="url(#clipPath6)" />
    <path
       id="path7"
       d="m 564.01001,9958 h 160"
       style="fill:none;stroke:#000000;stroke-width:1;stroke-linecap:butt;stroke-linejoin:miter;stroke-miterlimit:10;stroke-dasharray:none;stroke-opacity:1"
       transform="matrix(0.9393581,0,0,0.9393581,-526.86271,-9305.2201)"
       clip-path="url(#clipPath8)" />
    <text
       id="text8"
       xml:space="preserve"
       transform="matrix(0.9393581,0,0,0.9393581,56.77225,22.135809)"
       clip-path="url(#clipPath9)"><tspan
         id="tspan8"
         style="font-variant:normal;font-weight:normal;font-size:16px;font-family:Arial;writing-mode:lr-tb;fill:#000000;fill-opacity:1;fill-rule:nonzero;stroke:none"
         x="0"
         y="0">«port»</tspan></text>
    <text
       id="text9"
       xml:space="preserve"
       transform="matrix(0.9393581,0,0,0.9393581,25.039559,39.983613)"
       clip-path="url(#clipPath10)"><tspan
         id="tspan9"
         style="font-variant:normal;font-weight:normal;font-size:16px;font-family:Arial;writing-mode:lr-tb;fill:#000000;fill-opacity:1;fill-rule:nonzero;stroke:none"
         x="0"
         y="0">port1 : PortDef1</tspan></text>
    <text
       id="text10"
       xml:space="preserve"
       transform="matrix(0.9393581,0,0,0.9393581,30.000544,61.588849)"
       clip-path="url(#clipPath11)"><tspan
         id="tspan10"
         style="font-style:italic;font-variant:normal;font-weight:normal;font-size:12px;font-family:Arial;writing-mode:lr-tb;fill:#000000;fill-opacity:1;fill-rule:nonzero;stroke:none"
         x="0"
         y="0">compartment stack</tspan></text>
    <text
       id="text11"
       xml:space="preserve"
       transform="matrix(0.9393581,0,0,0.9393581,8.1017577,80.376011)"
       clip-path="url(#clipPath12)"><tspan
         id="tspan11"
         style="font-variant:normal;font-weight:normal;font-size:12px;font-family:Arial;writing-mode:lr-tb;fill:#000000;fill-opacity:1;fill-rule:nonzero;stroke:none"
         x="0"
         y="0">•••</tspan></text>
  </g>
</svg>
