<?xml version="1.0" encoding="UTF-8" standalone="no"?>
<!-- Created with Inkscape (http://www.inkscape.org/) -->

<svg
   version="1.1"
   id="svg1"
   width="155.84"
   height="40"
   viewBox="0 0 155.84 40"
   xmlns="http://www.w3.org/2000/svg"
   xmlns:svg="http://www.w3.org/2000/svg">
  <defs
     id="defs1">
    <clipPath
       clipPathUnits="userSpaceOnUse"
       id="clipPath2">
      <path
         d="M 0,0 H 488 V 125.97656 H 0 Z"
         transform="scale(0.31999999)"
         clip-rule="evenodd"
         id="path2" />
    </clipPath>
    <clipPath
       clipPathUnits="userSpaceOnUse"
       id="clipPath4">
      <path
         d="M 3.125,0 H 487.5 V 125.97656 H 3.125 Z"
         transform="matrix(0.34066536,0,0,0.34066536,557.86353,9826.9999)"
         clip-rule="evenodd"
         id="path4" />
    </clipPath>
    <clipPath
       clipPathUnits="userSpaceOnUse"
       id="clipPath5">
      <path
         d="M 3.125,0 H 487.5 V 125.97656 H 3.125 Z"
         transform="matrix(0.34066536,0,0,0.34066536,-60.448998,-16.499653)"
         clip-rule="evenodd"
         id="path5" />
    </clipPath>
    <clipPath
       clipPathUnits="userSpaceOnUse"
       id="clipPath6">
      <path
         d="M 3.125,0 H 487.5 V 125.97656 H 3.125 Z"
         transform="matrix(0.34066536,0,0,0.34066536,-26.667749,-36.499653)"
         clip-rule="evenodd"
         id="path6" />
    </clipPath>
  </defs>
  <g
     id="g1">
    <path
       id="path1"
       d="M 0,0 H 156 V 40 H 0 Z"
       style="fill:#ffffff;fill-opacity:1;fill-rule:nonzero;stroke:none"
       clip-path="url(#clipPath2)" />
    <path
       id="path3"
       d="m 569,9828 h 144 c 0.52527,0 1.04553,0.052 1.56073,0.1543 0.51514,0.1016 1.01538,0.2529 1.50067,0.4541 0.48529,0.2012 0.94629,0.4473 1.38312,0.7393 0.43671,0.2919 0.84082,0.624 1.21228,0.9951 0.3714,0.372 0.70306,0.7754 0.99493,1.2119 0.29181,0.4365 0.53821,0.8974 0.73926,1.3828 0.20099,0.4854 0.35278,0.9854 0.45526,1.5 0.10248,0.5156 0.15375,1.0361 0.15375,1.5625 v 24 c 0,0.5254 -0.0512,1.0449 -0.15369,1.5596 -0.10254,0.5156 -0.25433,1.0156 -0.45532,1.5009 -0.20105,0.4854 -0.44751,0.9463 -0.73932,1.3829 -0.29181,0.4365 -0.62347,0.8408 -0.99487,1.2129 -0.37146,0.372 -0.77557,0.7031 -1.21228,0.9951 -0.43683,0.292 -0.89783,0.539 -1.38312,0.7392 -0.48529,0.2012 -0.98553,0.3526 -1.50067,0.4551 C 714.04553,9867.9482 713.52527,9868 713,9868 H 569 c -0.52533,0 -1.04559,-0.052 -1.56079,-0.1543 -0.5152,-0.1025 -1.0155,-0.2539 -1.50079,-0.4551 -0.48529,-0.2002 -0.94635,-0.4472 -1.38306,-0.7392 -0.43671,-0.292 -0.84082,-0.6231 -1.21228,-0.9951 -0.37146,-0.3721 -0.70313,-0.7764 -0.995,-1.2129 -0.29181,-0.4366 -0.5382,-0.8975 -0.73919,-1.3829 -0.20099,-0.4853 -0.35279,-0.9853 -0.45526,-1.5009 -0.10248,-0.5147 -0.15369,-1.0342 -0.15363,-1.5596 v -24 c -6e-5,-0.5264 0.0512,-1.0469 0.15363,-1.5625 0.10247,-0.5146 0.25427,-1.0146 0.45526,-1.5 0.20099,-0.4854 0.44738,-0.9463 0.73919,-1.3828 0.29187,-0.4365 0.62354,-0.8399 0.995,-1.2119 0.37146,-0.3711 0.77557,-0.7032 1.21228,-0.9951 0.43671,-0.292 0.89777,-0.5381 1.38306,-0.7393 0.48529,-0.2012 0.98559,-0.3525 1.50079,-0.4541 C 567.95441,9828.0518 568.47467,9828 569,9828 Z"
       style="fill:#ffffff;fill-opacity:1;fill-rule:nonzero;stroke:#000000;stroke-width:1;stroke-linecap:butt;stroke-linejoin:miter;stroke-miterlimit:10;stroke-dasharray:none;stroke-opacity:1"
       transform="matrix(0.9393382,0,0,0.9393382,-524.02252,-9230.8764)"
       clip-path="url(#clipPath4)" />
    <text
       id="text4"
       xml:space="preserve"
       transform="matrix(0.9393382,0,0,0.9393382,56.782053,15.498754)"
       clip-path="url(#clipPath5)"><tspan
         id="tspan4"
         style="font-variant:normal;font-weight:normal;font-size:16px;font-family:Arial;writing-mode:lr-tb;fill:#000000;fill-opacity:1;fill-rule:nonzero;stroke:none"
         x="0"
         y="0">«port»</tspan></text>
    <text
       id="text5"
       xml:space="preserve"
       transform="matrix(0.9393382,0,0,0.9393382,25.050035,34.285518)"
       clip-path="url(#clipPath6)"><tspan
         id="tspan5"
         style="font-variant:normal;font-weight:normal;font-size:16px;font-family:Arial;writing-mode:lr-tb;fill:#000000;fill-opacity:1;fill-rule:nonzero;stroke:none"
         x="0"
         y="0">port1 : PortDef1</tspan></text>
  </g>
</svg>
