<?xml version="1.0" encoding="UTF-8" standalone="no"?>
<!-- Created with Inkscape (http://www.inkscape.org/) -->

<svg
   version="1.1"
   id="svg1"
   width="378.55997"
   height="97.279999"
   viewBox="0 0 378.55997 97.279999"
   xmlns="http://www.w3.org/2000/svg"
   xmlns:svg="http://www.w3.org/2000/svg">
  <defs
     id="defs1">
    <clipPath
       clipPathUnits="userSpaceOnUse"
       id="clipPath2">
      <path
         d="M 0,0 H 1181.9824 V 305 H 0 Z"
         transform="scale(0.31999999)"
         clip-rule="evenodd"
         id="path2" />
    </clipPath>
    <clipPath
       clipPathUnits="userSpaceOnUse"
       id="clipPath4">
      <path
         d="m 3.125,0 h 1175 v 305 h -1175 z"
         transform="matrix(0.33689617,0,0,0.33689617,416.87865,428.99997)"
         clip-rule="evenodd"
         id="path4" />
    </clipPath>
    <clipPath
       clipPathUnits="userSpaceOnUse"
       id="clipPath5">
      <path
         d="m 3.125,0 h 1175 v 305 h -1175 z"
         transform="matrix(0.33689617,0,0,0.33689617,-309.43385,-22.499991)"
         clip-rule="evenodd"
         id="path5" />
    </clipPath>
    <clipPath
       clipPathUnits="userSpaceOnUse"
       id="clipPath6">
      <path
         d="m 3.125,0 h 1175 v 305 h -1175 z"
         transform="matrix(0.33689617,0,0,0.33689617,-288.10573,-41.499991)"
         clip-rule="evenodd"
         id="path6" />
    </clipPath>
    <clipPath
       clipPathUnits="userSpaceOnUse"
       id="clipPath8">
      <path
         d="m 3.125,0 h 1175 v 305 h -1175 z"
         transform="matrix(0.33689617,0,0,0.33689617,416.87865,428.99997)"
         clip-rule="evenodd"
         id="path8" />
    </clipPath>
    <clipPath
       clipPathUnits="userSpaceOnUse"
       id="clipPath9">
      <path
         d="m 3.125,0 h 1175 v 305 h -1175 z"
         transform="matrix(0.33689617,0,0,0.33689617,-53.433846,-22.499991)"
         clip-rule="evenodd"
         id="path9" />
    </clipPath>
    <clipPath
       clipPathUnits="userSpaceOnUse"
       id="clipPath10">
      <path
         d="m 3.125,0 h 1175 v 305 h -1175 z"
         transform="matrix(0.33689617,0,0,0.33689617,-32.105726,-41.499991)"
         clip-rule="evenodd"
         id="path10" />
    </clipPath>
    <clipPath
       clipPathUnits="userSpaceOnUse"
       id="clipPath12">
      <path
         d="m 3.125,0 h 1175 v 305 h -1175 z"
         transform="matrix(0.33689617,0,0,0.33689617,416.87865,428.99997)"
         clip-rule="evenodd"
         id="path12" />
    </clipPath>
    <clipPath
       clipPathUnits="userSpaceOnUse"
       id="clipPath13">
      <path
         d="m 3.125,0 h 1175 v 305 h -1175 z"
         transform="matrix(0.33689617,0,0,0.33689617,-174.41823,-16.499991)"
         clip-rule="evenodd"
         id="path13" />
    </clipPath>
    <clipPath
       clipPathUnits="userSpaceOnUse"
       id="clipPath14">
      <path
         d="m 3.125,0 h 1175 v 305 h -1175 z"
         transform="matrix(0.33689617,0,0,0.33689617,-174.41823,-30.49999)"
         clip-rule="evenodd"
         id="path14" />
    </clipPath>
    <clipPath
       clipPathUnits="userSpaceOnUse"
       id="clipPath15">
      <path
         d="m 3.125,0 h 1175 v 305 h -1175 z"
         transform="matrix(0.33689617,0,0,0.33689617,-167.09009,-45.499991)"
         clip-rule="evenodd"
         id="path15" />
    </clipPath>
  </defs>
  <g
     id="g1">
    <path
       id="path1"
       d="M 0,0 H 378 V 98 H 0 Z"
       style="fill:#ffffff;fill-opacity:1;fill-rule:nonzero;stroke:none"
       clip-path="url(#clipPath2)" />
    <path
       id="path3"
       d="m 698.65997,430 h 101 c 0.78791,0 1.56824,0.0768 2.34101,0.23053 0.77282,0.15372 1.52319,0.38135 2.25116,0.68286 0.72796,0.30155 1.41949,0.67117 2.07458,1.10889 0.65515,0.43777 1.26129,0.93524 1.81848,1.4924 0.55713,0.55713 1.05457,1.16327 1.49231,1.81842 0.43781,0.65512 0.80744,1.34668 1.10889,2.07465 0.30157,0.72796 0.52917,1.47833 0.68286,2.25112 0.15381,0.7728 0.23071,1.5532 0.23071,2.34113 v 76 c 0,0.7879 -0.0769,1.56824 -0.23071,2.341 -0.15369,0.77283 -0.38129,1.5232 -0.68286,2.2511 -0.30145,0.72797 -0.67108,1.4195 -1.10889,2.07465 -0.43774,0.65515 -0.93518,1.26129 -1.49231,1.81848 -0.55719,0.55713 -1.16333,1.05456 -1.81854,1.49231 -0.65509,0.4378 -1.34668,0.80743 -2.07465,1.10895 -0.72796,0.30151 -1.47833,0.52911 -2.25109,0.68286 C 801.22815,529.9231 800.44788,530 799.65997,530 h -101 c -0.78796,0 -1.56836,-0.0769 -2.34118,-0.23065 -0.77277,-0.15375 -1.52314,-0.38135 -2.2511,-0.68286 -0.72797,-0.30152 -1.4195,-0.67115 -2.07465,-1.10889 -0.65509,-0.43781 -1.26123,-0.93524 -1.81836,-1.49237 -0.55719,-0.55719 -1.05462,-1.16333 -1.49243,-1.81848 -0.43774,-0.65515 -0.80737,-1.34668 -1.10895,-2.07459 -0.30151,-0.72796 -0.52911,-1.47833 -0.68286,-2.25116 -0.15362,-0.77276 -0.23047,-1.5531 -0.23047,-2.341 v -76 c 0,-0.78793 0.0768,-1.56833 0.23047,-2.34113 0.15375,-0.77279 0.38135,-1.52316 0.68286,-2.25112 0.30158,-0.72797 0.67121,-1.41953 1.10889,-2.07465 0.43781,-0.65515 0.9353,-1.26129 1.49249,-1.81842 0.55713,-0.55716 1.16327,-1.05463 1.81836,-1.49237 0.65515,-0.43772 1.34668,-0.80734 2.07465,-1.10889 0.72796,-0.30151 1.47833,-0.52914 2.2511,-0.68286 C 697.09161,430.07684 697.87201,430 698.65997,430 Z"
       style="fill:#ffffff;fill-opacity:1;fill-rule:nonzero;stroke:#000000;stroke-width:1;stroke-linecap:butt;stroke-linejoin:miter;stroke-miterlimit:10;stroke-dasharray:none;stroke-opacity:1"
       transform="matrix(0.94984751,0,0,0.94984751,-395.97115,-407.48455)"
       clip-path="url(#clipPath4)" />
    <text
       id="text4"
       xml:space="preserve"
       transform="matrix(0.94984751,0,0,0.94984751,293.91497,21.37156)"
       clip-path="url(#clipPath5)"><tspan
         id="tspan4"
         style="font-variant:normal;font-weight:normal;font-size:16px;font-family:Arial;writing-mode:lr-tb;fill:#000000;fill-opacity:1;fill-rule:nonzero;stroke:none"
         x="0"
         y="0">«part»</tspan></text>
    <text
       id="text5"
       xml:space="preserve"
       transform="matrix(0.94984751,0,0,0.94984751,273.65651,39.418663)"
       clip-path="url(#clipPath6)"><tspan
         id="tspan5"
         style="font-variant:normal;font-weight:normal;font-size:16px;font-family:Arial;writing-mode:lr-tb;fill:#000000;fill-opacity:1;fill-rule:nonzero;stroke:none"
         x="0"
         y="0">part2 : Part2</tspan></text>
    <path
       id="path7"
       d="m 432,430 h 122.66003 c 0.78791,0 1.56824,0.0768 2.34107,0.23053 0.77276,0.15372 1.52307,0.38135 2.25104,0.68286 0.72796,0.30155 1.41955,0.67117 2.0747,1.10889 0.65509,0.43777 1.26123,0.93524 1.81842,1.4924 0.55713,0.55713 1.05457,1.16327 1.49237,1.81842 0.43775,0.65512 0.80738,1.34668 1.10889,2.07465 0.30151,0.72796 0.52918,1.47833 0.68292,2.25112 0.15369,0.7728 0.23053,1.5532 0.23059,2.34113 v 76 c -6e-5,0.7879 -0.0769,1.56824 -0.23065,2.341 -0.15375,0.77283 -0.38135,1.5232 -0.68286,2.2511 -0.30151,0.72797 -0.67114,1.4195 -1.10889,2.07465 -0.4378,0.65515 -0.93524,1.26129 -1.49237,1.81848 -0.55719,0.55713 -1.16333,1.05456 -1.81842,1.49231 -0.65515,0.4378 -1.34674,0.80743 -2.0747,1.10895 -0.72797,0.30151 -1.47828,0.52911 -2.25104,0.68286 C 556.22827,529.9231 555.44794,530 554.66003,530 H 432 c -0.78793,0 -1.56833,-0.0769 -2.34113,-0.23065 -0.77279,-0.15375 -1.52316,-0.38135 -2.25109,-0.68286 -0.72797,-0.30152 -1.41953,-0.67115 -2.07468,-1.10889 -0.65512,-0.43781 -1.26126,-0.93524 -1.81839,-1.49237 -0.55719,-0.55719 -1.05466,-1.16333 -1.49243,-1.81848 -0.43775,-0.65515 -0.80738,-1.34668 -1.10889,-2.07459 -0.30151,-0.72796 -0.52914,-1.47833 -0.68286,-2.25116 C 420.07684,519.56824 420,518.7879 420,518 v -76 c 0,-0.78793 0.0768,-1.56833 0.23053,-2.34113 0.15372,-0.77279 0.38135,-1.52316 0.68286,-2.25112 0.30151,-0.72797 0.67114,-1.41953 1.10889,-2.07465 0.43777,-0.65515 0.93524,-1.26129 1.49243,-1.81842 0.55713,-0.55716 1.16327,-1.05463 1.81839,-1.49237 0.65515,-0.43772 1.34671,-0.80734 2.07468,-1.10889 0.72793,-0.30151 1.4783,-0.52914 2.25109,-0.68286 C 430.43167,430.07684 431.21207,430 432,430 Z"
       style="fill:#ffffff;fill-opacity:1;fill-rule:nonzero;stroke:#000000;stroke-width:1;stroke-linecap:butt;stroke-linejoin:miter;stroke-miterlimit:10;stroke-dasharray:none;stroke-opacity:1"
       transform="matrix(0.94984751,0,0,0.94984751,-395.97115,-407.48455)"
       clip-path="url(#clipPath8)" />
    <text
       id="text8"
       xml:space="preserve"
       transform="matrix(0.94984751,0,0,0.94984751,50.754006,21.37156)"
       clip-path="url(#clipPath9)"><tspan
         id="tspan8"
         style="font-variant:normal;font-weight:normal;font-size:16px;font-family:Arial;writing-mode:lr-tb;fill:#000000;fill-opacity:1;fill-rule:nonzero;stroke:none"
         x="0"
         y="0">«part»</tspan></text>
    <text
       id="text9"
       xml:space="preserve"
       transform="matrix(0.94984751,0,0,0.94984751,30.495544,39.418663)"
       clip-path="url(#clipPath10)"><tspan
         id="tspan9"
         style="font-variant:normal;font-weight:normal;font-size:16px;font-family:Arial;writing-mode:lr-tb;fill:#000000;fill-opacity:1;fill-rule:nonzero;stroke:none"
         x="0"
         y="0">part1 : Part1</tspan></text>
    <path
       id="path11"
       d="m 566.65997,480 h 120"
       style="fill:none;stroke:#000000;stroke-width:1;stroke-linecap:butt;stroke-linejoin:miter;stroke-miterlimit:10;stroke-dasharray:none;stroke-opacity:1"
       transform="matrix(0.94984751,0,0,0.94984751,-395.97115,-407.48455)"
       clip-path="url(#clipPath12)" />
    <text
       id="text12"
       xml:space="preserve"
       transform="matrix(0.94984751,0,0,0.94984751,165.67072,15.672475)"
       clip-path="url(#clipPath13)"><tspan
         id="tspan12"
         style="font-variant:normal;font-weight:normal;font-size:12px;font-family:Arial;writing-mode:lr-tb;fill:#000000;fill-opacity:1;fill-rule:nonzero;stroke:none"
         x="0"
         y="0">«connection»</tspan></text>
    <text
       id="text13"
       xml:space="preserve"
       transform="matrix(0.94984751,0,0,0.94984751,165.67072,28.97034)"
       clip-path="url(#clipPath14)"><tspan
         id="tspan13"
         style="font-variant:normal;font-weight:normal;font-size:12px;font-family:Arial;writing-mode:lr-tb;fill:#000000;fill-opacity:1;fill-rule:nonzero;stroke:none"
         x="0"
         y="0">connection1 :</tspan></text>
    <text
       id="text14"
       xml:space="preserve"
       transform="matrix(0.94984751,0,0,0.94984751,158.71011,43.218053)"
       clip-path="url(#clipPath15)"><tspan
         id="tspan14"
         style="font-variant:normal;font-weight:normal;font-size:12px;font-family:Arial;writing-mode:lr-tb;fill:#000000;fill-opacity:1;fill-rule:nonzero;stroke:none"
         x="0"
         y="0">ConnectionDef1</tspan></text>
  </g>
</svg>
