<?xml version="1.0" encoding="UTF-8" standalone="no"?>
<!-- Created with Inkscape (http://www.inkscape.org/) -->

<svg
   version="1.1"
   id="svg1"
   width="294.72"
   height="137.28"
   viewBox="0 0 294.72 137.28"
   xmlns="http://www.w3.org/2000/svg"
   xmlns:svg="http://www.w3.org/2000/svg">
  <defs
     id="defs1">
    <clipPath
       clipPathUnits="userSpaceOnUse"
       id="clipPath2">
      <path
         d="M 0,0 H 920.99609 V 429.00391 H 0 Z"
         transform="scale(0.31999999)"
         clip-rule="evenodd"
         id="path2" />
    </clipPath>
    <clipPath
       clipPathUnits="userSpaceOnUse"
       id="clipPath4">
      <path
         d="M 3.125,0 H 918.75 V 428.125 H 3.125 Z"
         transform="matrix(0.33773871,0,0,0.33773871,34.873049,397.94458)"
         clip-rule="evenodd"
         id="path4" />
    </clipPath>
    <clipPath
       clipPathUnits="userSpaceOnUse"
       id="clipPath5">
      <path
         d="M 3.125,0 H 918.75 V 428.125 H 3.125 Z"
         transform="matrix(0.33773871,0,0,0.33773871,-221.62696,-68.555398)"
         clip-rule="evenodd"
         id="path5" />
    </clipPath>
    <clipPath
       clipPathUnits="userSpaceOnUse"
       id="clipPath6">
      <path
         d="M 3.125,0 H 918.75 V 428.125 H 3.125 Z"
         transform="matrix(0.33773871,0,0,0.33773871,-221.62696,-83.555398)"
         clip-rule="evenodd"
         id="path6" />
    </clipPath>
    <clipPath
       clipPathUnits="userSpaceOnUse"
       id="clipPath8">
      <path
         d="M 3.125,0 H 918.75 V 428.125 H 3.125 Z"
         transform="matrix(0.33773871,0,0,0.33773871,34.873049,397.94458)"
         clip-rule="evenodd"
         id="path8" />
    </clipPath>
    <clipPath
       clipPathUnits="userSpaceOnUse"
       id="clipPath9">
      <path
         d="M 3.125,0 H 918.75 V 428.125 H 3.125 Z"
         transform="matrix(0.33773871,0,0,0.33773871,-194.43945,-17.555398)"
         clip-rule="evenodd"
         id="path9" />
    </clipPath>
    <clipPath
       clipPathUnits="userSpaceOnUse"
       id="clipPath10">
      <path
         d="M 3.125,0 H 918.75 V 428.125 H 3.125 Z"
         transform="matrix(0.33773871,0,0,0.33773871,-173.11133,-37.555398)"
         clip-rule="evenodd"
         id="path10" />
    </clipPath>
    <clipPath
       clipPathUnits="userSpaceOnUse"
       id="clipPath12">
      <path
         d="M 3.125,0 H 918.75 V 428.125 H 3.125 Z"
         transform="matrix(0.33773871,0,0,0.33773871,34.873049,397.94458)"
         clip-rule="evenodd"
         id="path12" />
    </clipPath>
    <clipPath
       clipPathUnits="userSpaceOnUse"
       id="clipPath13">
      <path
         d="M 3.125,0 H 918.75 V 428.125 H 3.125 Z"
         transform="matrix(0.33773871,0,0,0.33773871,-194.43945,-117.5554)"
         clip-rule="evenodd"
         id="path13" />
    </clipPath>
    <clipPath
       clipPathUnits="userSpaceOnUse"
       id="clipPath14">
      <path
         d="M 3.125,0 H 918.75 V 428.125 H 3.125 Z"
         transform="matrix(0.33773871,0,0,0.33773871,-173.11133,-137.5554)"
         clip-rule="evenodd"
         id="path14" />
    </clipPath>
    <clipPath
       clipPathUnits="userSpaceOnUse"
       id="clipPath16">
      <path
         d="M 3.125,0 H 918.75 V 428.125 H 3.125 Z"
         transform="matrix(0.33773871,0,0,0.33773871,34.873049,397.94458)"
         clip-rule="evenodd"
         id="path16" />
    </clipPath>
    <clipPath
       clipPathUnits="userSpaceOnUse"
       id="clipPath18">
      <path
         d="M 3.125,0 H 918.75 V 428.125 H 3.125 Z"
         transform="matrix(0.33773871,0,0,0.33773871,34.873049,397.94458)"
         clip-rule="evenodd"
         id="path18" />
    </clipPath>
    <clipPath
       clipPathUnits="userSpaceOnUse"
       id="clipPath19">
      <path
         d="M 3.125,0 H 918.75 V 428.125 H 3.125 Z"
         transform="matrix(0.33773871,0,0,0.33773871,-35.439452,-67.555398)"
         clip-rule="evenodd"
         id="path19" />
    </clipPath>
    <clipPath
       clipPathUnits="userSpaceOnUse"
       id="clipPath20">
      <path
         d="M 3.125,0 H 918.75 V 428.125 H 3.125 Z"
         transform="matrix(0.33773871,0,0,0.33773871,-14.111326,-87.555398)"
         clip-rule="evenodd"
         id="path20" />
    </clipPath>
    <clipPath
       clipPathUnits="userSpaceOnUse"
       id="clipPath22">
      <path
         d="M 3.125,0 H 918.75 V 428.125 H 3.125 Z"
         transform="matrix(0.33773871,0,0,0.33773871,34.873049,397.94458)"
         clip-rule="evenodd"
         id="path22" />
    </clipPath>
    <clipPath
       clipPathUnits="userSpaceOnUse"
       id="clipPath24">
      <path
         d="M 3.125,0 H 918.75 V 428.125 H 3.125 Z"
         transform="matrix(0.33773871,0,0,0.33773871,34.873049,397.94458)"
         clip-rule="evenodd"
         id="path24" />
    </clipPath>
  </defs>
  <g
     id="g1">
    <path
       id="path1"
       d="M 0,0 H 295 V 137 H 0 Z"
       style="fill:#ffffff;fill-opacity:1;fill-rule:nonzero;stroke:none"
       clip-path="url(#clipPath2)" />
    <path
       id="path3"
       d="m 255,470 c -2e-5,0.3978 -0.0761,0.78049 -0.22838,1.14804 -0.15225,0.36749 -0.36902,0.6919 -0.65031,0.97324 -0.28133,0.28128 -0.60575,0.49804 -0.97328,0.6503 -0.36754,0.15225 -0.75022,0.22839 -1.14803,0.22842 -0.39784,-3e-5 -0.78053,-0.0762 -1.14809,-0.22842 -0.36753,-0.15226 -0.69195,-0.36902 -0.97325,-0.6503 -0.28132,-0.28134 -0.49809,-0.60575 -0.65033,-0.97327 C 249.0761,470.78049 248.99998,470.3978 249,470 c -2e-5,-0.39786 0.0761,-0.78055 0.22833,-1.1481 0.15224,-0.36756 0.36901,-0.69196 0.65033,-0.97324 0.2813,-0.28131 0.60572,-0.49808 0.97325,-0.65033 C 251.21947,467.07611 251.60216,467 252,467 c 0.39781,0 0.7805,0.0761 1.14804,0.22833 0.36752,0.15225 0.69194,0.36902 0.97327,0.65033 0.28129,0.28128 0.49806,0.60568 0.6503,0.97324 0.15225,0.36755 0.22837,0.75024 0.22839,1.1481 z"
       style="fill:#000000;fill-opacity:1;fill-rule:nonzero;stroke:#000000;stroke-width:1;stroke-linecap:butt;stroke-linejoin:miter;stroke-miterlimit:10;stroke-dasharray:none;stroke-opacity:1"
       transform="matrix(0.94747798,0,0,0.94747798,-33.041446,-377.04373)"
       clip-path="url(#clipPath4)" />
    <text
       id="text4"
       xml:space="preserve"
       transform="matrix(0.94747798,0,0,0.94747798,209.98666,64.95473)"
       clip-path="url(#clipPath5)"><tspan
         id="tspan4"
         style="font-variant:normal;font-weight:normal;font-size:12px;font-family:Arial;writing-mode:lr-tb;fill:#000000;fill-opacity:1;fill-rule:nonzero;stroke:none"
         x="0"
         y="0">connection1 :</tspan></text>
    <text
       id="text5"
       xml:space="preserve"
       transform="matrix(0.94747798,0,0,0.94747798,209.98666,79.1669)"
       clip-path="url(#clipPath6)"><tspan
         id="tspan5"
         style="font-variant:normal;font-weight:normal;font-size:12px;font-family:Arial;writing-mode:lr-tb;fill:#000000;fill-opacity:1;fill-rule:nonzero;stroke:none"
         x="0"
         y="0">ConnectionDef1</tspan></text>
    <path
       id="path7"
       d="m 202,400 h 100 c 0.66302,0 1.30081,0.12686 1.91336,0.38058 0.61258,0.2537 1.15332,0.61499 1.62216,1.08387 0.46881,0.46881 0.83011,1.00949 1.08386,1.62207 0.25373,0.61258 0.38059,1.25042 0.38062,1.91348 v 30 c -3e-5,0.66299 -0.12689,1.30078 -0.38062,1.91336 -0.25375,0.61255 -0.61505,1.15326 -1.08386,1.62213 -0.46884,0.46884 -1.00958,0.83011 -1.62216,1.08383 C 303.30081,439.87308 302.66302,439.99997 302,440 H 202 c -0.66304,-3e-5 -1.30086,-0.12692 -1.91342,-0.38068 -0.61258,-0.25372 -1.15329,-0.61499 -1.62212,-1.08383 -0.46884,-0.46887 -0.83014,-1.00958 -1.08388,-1.62213 C 197.12685,436.30078 196.99998,435.66299 197,435 v -30 c -2e-5,-0.66306 0.12685,-1.30087 0.38058,-1.91345 0.25374,-0.61258 0.61504,-1.15329 1.08388,-1.6221 0.46883,-0.46888 1.00954,-0.83017 1.6221,-1.08387 C 200.69914,400.12686 201.33696,400 202,400 Z"
       style="fill:#ffffff;fill-opacity:1;fill-rule:nonzero;stroke:#000000;stroke-width:1;stroke-linecap:butt;stroke-linejoin:miter;stroke-miterlimit:10;stroke-dasharray:none;stroke-opacity:1"
       transform="matrix(0.94747798,0,0,0.94747798,-33.041446,-377.04373)"
       clip-path="url(#clipPath8)" />
    <text
       id="text8"
       xml:space="preserve"
       transform="matrix(0.94747798,0,0,0.94747798,184.2271,16.633353)"
       clip-path="url(#clipPath9)"><tspan
         id="tspan8"
         style="font-variant:normal;font-weight:normal;font-size:16px;font-family:Arial;writing-mode:lr-tb;fill:#000000;fill-opacity:1;fill-rule:nonzero;stroke:none"
         x="0"
         y="0">«part»</tspan></text>
    <text
       id="text9"
       xml:space="preserve"
       transform="matrix(0.94747798,0,0,0.94747798,164.01917,35.582913)"
       clip-path="url(#clipPath10)"><tspan
         id="tspan9"
         style="font-variant:normal;font-weight:normal;font-size:16px;font-family:Arial;writing-mode:lr-tb;fill:#000000;fill-opacity:1;fill-rule:nonzero;stroke:none"
         x="0"
         y="0">part1 : Part1</tspan></text>
    <path
       id="path11"
       d="m 202,500 h 100 c 0.66302,0 1.30081,0.12686 1.91336,0.38055 0.61258,0.25373 1.15332,0.61502 1.62216,1.08387 0.46881,0.46881 0.83011,1.00952 1.08386,1.6221 0.25373,0.61258 0.38059,1.25039 0.38062,1.91348 v 30 c -3e-5,0.66302 -0.12689,1.30078 -0.38062,1.91339 -0.25375,0.61255 -0.61505,1.15326 -1.08386,1.62213 -0.46884,0.46881 -1.00958,0.83002 -1.62216,1.08374 C 303.30081,539.87305 302.66302,539.99994 302,540 H 202 c -0.66304,-6e-5 -1.30086,-0.12695 -1.91342,-0.38074 -0.61258,-0.25372 -1.15329,-0.61493 -1.62212,-1.08374 -0.46884,-0.46887 -0.83014,-1.00958 -1.08388,-1.62213 C 197.12685,536.30078 196.99998,535.66302 197,535 v -30 c -2e-5,-0.66309 0.12685,-1.3009 0.38058,-1.91348 0.25374,-0.61258 0.61504,-1.15329 1.08388,-1.6221 0.46883,-0.46885 1.00954,-0.83014 1.6221,-1.08387 C 200.69914,500.12686 201.33696,500 202,500 Z"
       style="fill:#ffffff;fill-opacity:1;fill-rule:nonzero;stroke:#000000;stroke-width:1;stroke-linecap:butt;stroke-linejoin:miter;stroke-miterlimit:10;stroke-dasharray:none;stroke-opacity:1"
       transform="matrix(0.94747798,0,0,0.94747798,-33.041446,-377.04373)"
       clip-path="url(#clipPath12)" />
    <text
       id="text12"
       xml:space="preserve"
       transform="matrix(0.94747798,0,0,0.94747798,184.2271,111.38115)"
       clip-path="url(#clipPath13)"><tspan
         id="tspan12"
         style="font-variant:normal;font-weight:normal;font-size:16px;font-family:Arial;writing-mode:lr-tb;fill:#000000;fill-opacity:1;fill-rule:nonzero;stroke:none"
         x="0"
         y="0">«part»</tspan></text>
    <text
       id="text13"
       xml:space="preserve"
       transform="matrix(0.94747798,0,0,0.94747798,164.01917,130.33071)"
       clip-path="url(#clipPath14)"><tspan
         id="tspan13"
         style="font-variant:normal;font-weight:normal;font-size:16px;font-family:Arial;writing-mode:lr-tb;fill:#000000;fill-opacity:1;fill-rule:nonzero;stroke:none"
         x="0"
         y="0">part2 : Part2</tspan></text>
    <path
       id="path15"
       d="m 252,473 v 27"
       style="fill:none;stroke:#000000;stroke-width:1;stroke-linecap:butt;stroke-linejoin:miter;stroke-miterlimit:10;stroke-dasharray:none;stroke-opacity:1"
       transform="matrix(0.94747798,0,0,0.94747798,-33.041446,-377.04373)"
       clip-path="url(#clipPath16)" />
    <path
       id="path17"
       d="m 43,450 h 100 c 0.66304,0 1.30084,0.12686 1.91341,0.38055 0.61256,0.25373 1.15327,0.61502 1.62211,1.0839 0.46883,0.46881 0.83011,1.00949 1.08385,1.62207 0.25374,0.61258 0.38061,1.25042 0.38063,1.91348 v 30 c -2e-5,0.66302 -0.12689,1.30081 -0.38063,1.91336 -0.25374,0.61255 -0.61502,1.15326 -1.08385,1.62213 -0.46884,0.46884 -1.00955,0.83011 -1.62211,1.08383 C 144.30084,489.87308 143.66304,489.99997 143,490 H 43 c -0.663044,-3e-5 -1.300854,-0.12692 -1.913422,-0.38068 -0.612571,-0.25372 -1.153278,-0.61499 -1.622116,-1.08383 -0.468841,-0.46887 -0.830131,-1.00958 -1.08387,-1.62216 C 38.126862,486.30081 37.999996,485.66302 38,485 v -30 c -4e-6,-0.66306 0.126862,-1.30087 0.380592,-1.91345 0.253739,-0.61258 0.615029,-1.15329 1.08387,-1.6221 0.468838,-0.46888 1.009545,-0.83017 1.622116,-1.0839 C 41.699146,450.12686 42.336956,450 43,450 Z"
       style="fill:#ffffff;fill-opacity:1;fill-rule:nonzero;stroke:#000000;stroke-width:1;stroke-linecap:butt;stroke-linejoin:miter;stroke-miterlimit:10;stroke-dasharray:none;stroke-opacity:1"
       transform="matrix(0.94747798,0,0,0.94747798,-33.041446,-377.04373)"
       clip-path="url(#clipPath18)" />
    <text
       id="text18"
       xml:space="preserve"
       transform="matrix(0.94747798,0,0,0.94747798,33.5781,64.007252)"
       clip-path="url(#clipPath19)"><tspan
         id="tspan18"
         style="font-variant:normal;font-weight:normal;font-size:16px;font-family:Arial;writing-mode:lr-tb;fill:#000000;fill-opacity:1;fill-rule:nonzero;stroke:none"
         x="0"
         y="0">«part»</tspan></text>
    <text
       id="text19"
       xml:space="preserve"
       transform="matrix(0.94747798,0,0,0.94747798,13.370171,82.956812)"
       clip-path="url(#clipPath20)"><tspan
         id="tspan19"
         style="font-variant:normal;font-weight:normal;font-size:16px;font-family:Arial;writing-mode:lr-tb;fill:#000000;fill-opacity:1;fill-rule:nonzero;stroke:none"
         x="0"
         y="0">part3 : Part3</tspan></text>
    <path
       id="path21"
       d="M 148,470 H 249"
       style="fill:none;stroke:#000000;stroke-width:1;stroke-linecap:butt;stroke-linejoin:miter;stroke-miterlimit:10;stroke-dasharray:none;stroke-opacity:1"
       transform="matrix(0.94747798,0,0,0.94747798,-33.041446,-377.04373)"
       clip-path="url(#clipPath22)" />
    <path
       id="path23"
       d="m 252,440 v 27"
       style="fill:none;stroke:#000000;stroke-width:1;stroke-linecap:butt;stroke-linejoin:miter;stroke-miterlimit:10;stroke-dasharray:none;stroke-opacity:1"
       transform="matrix(0.94747798,0,0,0.94747798,-33.041446,-377.04373)"
       clip-path="url(#clipPath24)" />
  </g>
</svg>
