<?xml version="1.0" encoding="UTF-8" standalone="no"?>
<!-- Created with Inkscape (http://www.inkscape.org/) -->

<svg
   version="1.1"
   id="svg1"
   width="299.84"
   height="137.28"
   viewBox="0 0 299.84 137.28"
   xmlns="http://www.w3.org/2000/svg"
   xmlns:svg="http://www.w3.org/2000/svg">
  <defs
     id="defs1">
    <clipPath
       clipPathUnits="userSpaceOnUse"
       id="clipPath2">
      <path
         d="M 0,0 H 935.98633 V 429.00391 H 0 Z"
         transform="scale(0.31999999)"
         clip-rule="evenodd"
         id="path2" />
    </clipPath>
    <clipPath
       clipPathUnits="userSpaceOnUse"
       id="clipPath4">
      <path
         d="m 3.125,0 h 931.25 V 428.125 H 3.125 Z"
         transform="matrix(0.33766053,0,0,0.33766053,35.878255,597.94476)"
         clip-rule="evenodd"
         id="path4" />
    </clipPath>
    <clipPath
       clipPathUnits="userSpaceOnUse"
       id="clipPath5">
      <path
         d="m 3.125,0 h 931.25 V 428.125 H 3.125 Z"
         transform="matrix(0.33766053,0,0,0.33766053,-221.62175,-68.555156)"
         clip-rule="evenodd"
         id="path5" />
    </clipPath>
    <clipPath
       clipPathUnits="userSpaceOnUse"
       id="clipPath6">
      <path
         d="m 3.125,0 h 931.25 V 428.125 H 3.125 Z"
         transform="matrix(0.33766053,0,0,0.33766053,-221.62175,-83.555156)"
         clip-rule="evenodd"
         id="path6" />
    </clipPath>
    <clipPath
       clipPathUnits="userSpaceOnUse"
       id="clipPath8">
      <path
         d="m 3.125,0 h 931.25 V 428.125 H 3.125 Z"
         transform="matrix(0.33766053,0,0,0.33766053,35.878255,597.94476)"
         clip-rule="evenodd"
         id="path8" />
    </clipPath>
    <clipPath
       clipPathUnits="userSpaceOnUse"
       id="clipPath9">
      <path
         d="m 3.125,0 h 931.25 V 428.125 H 3.125 Z"
         transform="matrix(0.33766053,0,0,0.33766053,-181.09049,-17.555156)"
         clip-rule="evenodd"
         id="path9" />
    </clipPath>
    <clipPath
       clipPathUnits="userSpaceOnUse"
       id="clipPath10">
      <path
         d="m 3.125,0 h 931.25 V 428.125 H 3.125 Z"
         transform="matrix(0.33766053,0,0,0.33766053,-197.99675,-37.555157)"
         clip-rule="evenodd"
         id="path10" />
    </clipPath>
    <clipPath
       clipPathUnits="userSpaceOnUse"
       id="clipPath12">
      <path
         d="m 3.125,0 h 931.25 V 428.125 H 3.125 Z"
         transform="matrix(0.33766053,0,0,0.33766053,35.878255,597.94476)"
         clip-rule="evenodd"
         id="path12" />
    </clipPath>
    <clipPath
       clipPathUnits="userSpaceOnUse"
       id="clipPath13">
      <path
         d="m 3.125,0 h 931.25 V 428.125 H 3.125 Z"
         transform="matrix(0.33766053,0,0,0.33766053,-181.09049,-117.55516)"
         clip-rule="evenodd"
         id="path13" />
    </clipPath>
    <clipPath
       clipPathUnits="userSpaceOnUse"
       id="clipPath14">
      <path
         d="m 3.125,0 h 931.25 V 428.125 H 3.125 Z"
         transform="matrix(0.33766053,0,0,0.33766053,-197.99675,-137.55516)"
         clip-rule="evenodd"
         id="path14" />
    </clipPath>
    <clipPath
       clipPathUnits="userSpaceOnUse"
       id="clipPath16">
      <path
         d="m 3.125,0 h 931.25 V 428.125 H 3.125 Z"
         transform="matrix(0.33766053,0,0,0.33766053,35.878255,597.94476)"
         clip-rule="evenodd"
         id="path16" />
    </clipPath>
    <clipPath
       clipPathUnits="userSpaceOnUse"
       id="clipPath17">
      <path
         d="m 3.125,0 h 931.25 V 428.125 H 3.125 Z"
         transform="matrix(0.33766053,0,0,0.33766053,-187.778,-98.555156)"
         clip-rule="evenodd"
         id="path17" />
    </clipPath>
    <clipPath
       clipPathUnits="userSpaceOnUse"
       id="clipPath19">
      <path
         d="m 3.125,0 h 931.25 V 428.125 H 3.125 Z"
         transform="matrix(0.33766053,0,0,0.33766053,35.878255,597.94476)"
         clip-rule="evenodd"
         id="path19" />
    </clipPath>
    <clipPath
       clipPathUnits="userSpaceOnUse"
       id="clipPath20">
      <path
         d="m 3.125,0 h 931.25 V 428.125 H 3.125 Z"
         transform="matrix(0.33766053,0,0,0.33766053,-22.090498,-67.555156)"
         clip-rule="evenodd"
         id="path20" />
    </clipPath>
    <clipPath
       clipPathUnits="userSpaceOnUse"
       id="clipPath21">
      <path
         d="m 3.125,0 h 931.25 V 428.125 H 3.125 Z"
         transform="matrix(0.33766053,0,0,0.33766053,-38.996748,-87.555156)"
         clip-rule="evenodd"
         id="path21" />
    </clipPath>
    <clipPath
       clipPathUnits="userSpaceOnUse"
       id="clipPath23">
      <path
         d="m 3.125,0 h 931.25 V 428.125 H 3.125 Z"
         transform="matrix(0.33766053,0,0,0.33766053,35.878255,597.94476)"
         clip-rule="evenodd"
         id="path23" />
    </clipPath>
    <clipPath
       clipPathUnits="userSpaceOnUse"
       id="clipPath25">
      <path
         d="m 3.125,0 h 931.25 V 428.125 H 3.125 Z"
         transform="matrix(0.33766053,0,0,0.33766053,36.378251,598.44484)"
         clip-rule="evenodd"
         id="path25" />
    </clipPath>
    <clipPath
       clipPathUnits="userSpaceOnUse"
       id="clipPath27">
      <path
         d="m 3.125,0 h 931.25 V 428.125 H 3.125 Z"
         transform="matrix(0.33766053,0,0,0.33766053,36.378251,598.44484)"
         clip-rule="evenodd"
         id="path27" />
    </clipPath>
    <clipPath
       clipPathUnits="userSpaceOnUse"
       id="clipPath28">
      <path
         d="m 3.125,0 h 931.25 V 428.125 H 3.125 Z"
         transform="matrix(0.33766053,0,0,0.33766053,-115.778,-66.555156)"
         clip-rule="evenodd"
         id="path28" />
    </clipPath>
    <clipPath
       clipPathUnits="userSpaceOnUse"
       id="clipPath30">
      <path
         d="m 3.125,0 h 931.25 V 428.125 H 3.125 Z"
         transform="matrix(0.33766053,0,0,0.33766053,35.878255,597.94476)"
         clip-rule="evenodd"
         id="path30" />
    </clipPath>
    <clipPath
       clipPathUnits="userSpaceOnUse"
       id="clipPath31">
      <path
         d="m 3.125,0 h 931.25 V 428.125 H 3.125 Z"
         transform="matrix(0.33766053,0,0,0.33766053,-188.778,-53.555156)"
         clip-rule="evenodd"
         id="path31" />
    </clipPath>
    <clipPath
       clipPathUnits="userSpaceOnUse"
       id="clipPath32">
      <path
         d="m 3.125,0 h 931.25 V 428.125 H 3.125 Z"
         transform="matrix(0.33766053,0,0,0.33766053,-221.94988,-53.555156)"
         clip-rule="evenodd"
         id="path32" />
    </clipPath>
  </defs>
  <g
     id="g1">
    <path
       id="path1"
       d="M 0,0 H 300 V 137 H 0 Z"
       style="fill:#ffffff;fill-opacity:1;fill-rule:nonzero;stroke:none"
       clip-path="url(#clipPath2)" />
    <path
       id="path3"
       d="m 256,670 c -2e-5,0.39777 -0.0762,0.7804 -0.22839,1.14795 -0.15224,0.36755 -0.36901,0.69202 -0.6503,0.97333 -0.28133,0.28125 -0.60575,0.49798 -0.97328,0.65027 -0.36754,0.15228 -0.75022,0.22839 -1.14803,0.22845 -0.39784,-6e-5 -0.78055,-0.0762 -1.14809,-0.22845 -0.36753,-0.15229 -0.69197,-0.36902 -0.97326,-0.65027 -0.28131,-0.28131 -0.4981,-0.60578 -0.65033,-0.97333 C 250.07608,670.7804 249.99997,670.39777 250,670 c -3e-5,-0.39789 0.0761,-0.78058 0.22832,-1.14813 0.15223,-0.36756 0.36902,-0.69196 0.65033,-0.97321 0.28129,-0.28131 0.60573,-0.49811 0.97326,-0.65033 C 252.21945,667.07611 252.60216,667 253,667 c 0.39781,0 0.7805,0.0761 1.14804,0.22833 0.36752,0.15222 0.69194,0.36902 0.97327,0.65033 0.28129,0.28125 0.49806,0.60565 0.6503,0.97321 0.15223,0.36755 0.22837,0.75024 0.22839,1.14813 z"
       style="fill:#000000;fill-opacity:1;fill-rule:nonzero;stroke:#000000;stroke-width:1;stroke-linecap:butt;stroke-linejoin:miter;stroke-miterlimit:10;stroke-dasharray:none;stroke-opacity:1"
       transform="matrix(0.94769734,0,0,0.94769734,-34.001727,-566.67066)"
       clip-path="url(#clipPath4)" />
    <text
       id="text4"
       xml:space="preserve"
       transform="matrix(0.94769734,0,0,0.94769734,210.03034,64.969539)"
       clip-path="url(#clipPath5)"><tspan
         id="tspan4"
         style="font-variant:normal;font-weight:normal;font-size:12px;font-family:Arial;writing-mode:lr-tb;fill:#000000;fill-opacity:1;fill-rule:nonzero;stroke:none"
         x="0"
         y="0">«connection def»</tspan></text>
    <text
       id="text5"
       xml:space="preserve"
       transform="matrix(0.94769734,0,0,0.94769734,210.03034,79.184999)"
       clip-path="url(#clipPath6)"><tspan
         id="tspan5"
         style="font-variant:normal;font-weight:normal;font-size:12px;font-family:Arial;writing-mode:lr-tb;fill:#000000;fill-opacity:1;fill-rule:nonzero;stroke:none"
         x="0"
         y="0">ConnectionDef1</tspan></text>
    <path
       id="path7"
       d="m 198,600 h 110 v 40 H 198 Z"
       style="fill:#ffffff;fill-opacity:1;fill-rule:nonzero;stroke:#000000;stroke-width:1;stroke-linecap:butt;stroke-linejoin:miter;stroke-miterlimit:10;stroke-dasharray:none;stroke-opacity:1"
       transform="matrix(0.94769734,0,0,0.94769734,-34.001727,-566.67066)"
       clip-path="url(#clipPath8)" />
    <text
       id="text8"
       xml:space="preserve"
       transform="matrix(0.94769734,0,0,0.94769734,171.61898,16.636975)"
       clip-path="url(#clipPath9)"><tspan
         id="tspan8"
         style="font-variant:normal;font-weight:normal;font-size:16px;font-family:Arial;writing-mode:lr-tb;fill:#000000;fill-opacity:1;fill-rule:nonzero;stroke:none"
         x="0"
         y="0">«part def»</tspan></text>
    <text
       id="text9"
       xml:space="preserve"
       transform="matrix(0.94769734,0,0,0.94769734,187.64099,35.590922)"
       clip-path="url(#clipPath10)"><tspan
         id="tspan9"
         style="font-variant:normal;font-weight:normal;font-size:16px;font-family:Arial;writing-mode:lr-tb;fill:#000000;fill-opacity:1;fill-rule:nonzero;stroke:none"
         x="0"
         y="0">Part1</tspan></text>
    <path
       id="path11"
       d="m 198,700 h 110 v 40 H 198 Z"
       style="fill:#ffffff;fill-opacity:1;fill-rule:nonzero;stroke:#000000;stroke-width:1;stroke-linecap:butt;stroke-linejoin:miter;stroke-miterlimit:10;stroke-dasharray:none;stroke-opacity:1"
       transform="matrix(0.94769734,0,0,0.94769734,-34.001727,-566.67066)"
       clip-path="url(#clipPath12)" />
    <text
       id="text12"
       xml:space="preserve"
       transform="matrix(0.94769734,0,0,0.94769734,171.61898,111.40671)"
       clip-path="url(#clipPath13)"><tspan
         id="tspan12"
         style="font-variant:normal;font-weight:normal;font-size:16px;font-family:Arial;writing-mode:lr-tb;fill:#000000;fill-opacity:1;fill-rule:nonzero;stroke:none"
         x="0"
         y="0">«part def»</tspan></text>
    <text
       id="text13"
       xml:space="preserve"
       transform="matrix(0.94769734,0,0,0.94769734,187.64099,130.36066)"
       clip-path="url(#clipPath14)"><tspan
         id="tspan13"
         style="font-variant:normal;font-weight:normal;font-size:16px;font-family:Arial;writing-mode:lr-tb;fill:#000000;fill-opacity:1;fill-rule:nonzero;stroke:none"
         x="0"
         y="0">Part2</tspan></text>
    <path
       id="path15"
       d="m 253,673 v 27"
       style="fill:none;stroke:#000000;stroke-width:1;stroke-linecap:butt;stroke-linejoin:miter;stroke-miterlimit:10;stroke-dasharray:none;stroke-opacity:1"
       transform="matrix(0.94769734,0,0,0.94769734,-34.001727,-566.67066)"
       clip-path="url(#clipPath16)" />
    <text
       id="text16"
       xml:space="preserve"
       transform="matrix(0.94769734,0,0,0.94769734,177.95671,93.400459)"
       clip-path="url(#clipPath17)"><tspan
         id="tspan16"
         style="font-variant:normal;font-weight:normal;font-size:12px;font-family:Arial;writing-mode:lr-tb;fill:#000000;fill-opacity:1;fill-rule:nonzero;stroke:none"
         x="0"
         y="0">end2</tspan></text>
    <path
       id="path18"
       d="m 39,650 h 110 v 40 H 39 Z"
       style="fill:#ffffff;fill-opacity:1;fill-rule:nonzero;stroke:#000000;stroke-width:1;stroke-linecap:butt;stroke-linejoin:miter;stroke-miterlimit:10;stroke-dasharray:none;stroke-opacity:1"
       transform="matrix(0.94769734,0,0,0.94769734,-34.001727,-566.67066)"
       clip-path="url(#clipPath19)" />
    <text
       id="text19"
       xml:space="preserve"
       transform="matrix(0.94769734,0,0,0.94769734,20.935106,64.021842)"
       clip-path="url(#clipPath20)"><tspan
         id="tspan19"
         style="font-variant:normal;font-weight:normal;font-size:16px;font-family:Arial;writing-mode:lr-tb;fill:#000000;fill-opacity:1;fill-rule:nonzero;stroke:none"
         x="0"
         y="0">«part def»</tspan></text>
    <text
       id="text20"
       xml:space="preserve"
       transform="matrix(0.94769734,0,0,0.94769734,36.957114,82.975788)"
       clip-path="url(#clipPath21)"><tspan
         id="tspan20"
         style="font-variant:normal;font-weight:normal;font-size:16px;font-family:Arial;writing-mode:lr-tb;fill:#000000;fill-opacity:1;fill-rule:nonzero;stroke:none"
         x="0"
         y="0">Part3</tspan></text>
    <path
       id="path22"
       d="M 149,670 H 250"
       style="fill:none;stroke:#000000;stroke-width:1;stroke-linecap:butt;stroke-linejoin:miter;stroke-miterlimit:10;stroke-dasharray:none;stroke-opacity:1"
       transform="matrix(0.94769734,0,0,0.94769734,-34.001727,-566.67066)"
       clip-path="url(#clipPath23)" />
    <path
       id="path24"
       d="m 152,654 h 27 v 15 h -27 z"
       style="fill:#ffffff;fill-opacity:1;fill-rule:nonzero;stroke:none"
       transform="matrix(0.94769734,0,0,0.94769734,-34.475572,-567.14458)"
       clip-path="url(#clipPath25)" />
    <path
       id="path26"
       d="m 152,654 h 27 v 14 h -27 z"
       style="fill:#f8f9fa;fill-opacity:1;fill-rule:nonzero;stroke:none"
       transform="matrix(0.94769734,0,0,0.94769734,-34.475572,-567.14458)"
       clip-path="url(#clipPath27)" />
    <text
       id="text27"
       xml:space="preserve"
       transform="matrix(0.94769734,0,0,0.94769734,109.7225,63.074144)"
       clip-path="url(#clipPath28)"><tspan
         id="tspan27"
         style="font-variant:normal;font-weight:normal;font-size:12px;font-family:Arial;writing-mode:lr-tb;fill:#000000;fill-opacity:1;fill-rule:nonzero;stroke:none"
         x="0"
         y="0">end3</tspan></text>
    <path
       id="path29"
       d="m 253,640 v 27"
       style="fill:none;stroke:#000000;stroke-width:1;stroke-linecap:butt;stroke-linejoin:miter;stroke-miterlimit:10;stroke-dasharray:none;stroke-opacity:1"
       transform="matrix(0.94769734,0,0,0.94769734,-34.001727,-566.67066)"
       clip-path="url(#clipPath30)" />
    <text
       id="text30"
       xml:space="preserve"
       transform="matrix(0.94769734,0,0,0.94769734,178.90441,50.754079)"
       clip-path="url(#clipPath31)"><tspan
         id="tspan30"
         style="font-variant:normal;font-weight:normal;font-size:12px;font-family:Arial;writing-mode:lr-tb;fill:#000000;fill-opacity:1;fill-rule:nonzero;stroke:none"
         x="0"
         y="0">end1</tspan></text>
    <text
       id="text31"
       xml:space="preserve"
       transform="matrix(0.94769734,0,0,0.94769734,210.34131,50.754079)"
       clip-path="url(#clipPath32)"><tspan
         id="tspan31"
         style="font-variant:normal;font-weight:normal;font-size:11px;font-family:Arial;writing-mode:lr-tb;fill:#000000;fill-opacity:1;fill-rule:nonzero;stroke:none"
         x="0"
         y="0">0..1</tspan></text>
  </g>
</svg>
