<?xml version="1.0" encoding="UTF-8" standalone="no"?>
<!-- Created with Inkscape (http://www.inkscape.org/) -->

<svg
   version="1.1"
   id="svg1"
   width="185.27998"
   height="162.56"
   viewBox="0 0 185.27998 162.56"
   xmlns="http://www.w3.org/2000/svg"
   xmlns:svg="http://www.w3.org/2000/svg">
  <defs
     id="defs1">
    <clipPath
       clipPathUnits="userSpaceOnUse"
       id="clipPath2">
      <path
         d="M 0,0 H 579.00391 V 509 H 0 Z"
         transform="scale(0.31999999)"
         clip-rule="evenodd"
         id="path2" />
    </clipPath>
    <clipPath
       clipPathUnits="userSpaceOnUse"
       id="clipPath4">
      <path
         d="M 3.125,3.125 H 575 V 506.25 H 3.125 Z"
         transform="matrix(0.33949731,0,0,0.33949731,726.8737,546.87813)"
         clip-rule="evenodd"
         id="path4" />
    </clipPath>
    <clipPath
       clipPathUnits="userSpaceOnUse"
       id="clipPath5">
      <path
         d="M 3.125,3.125 H 575 V 506.25 H 3.125 Z"
         transform="matrix(0.33949731,0,0,0.33949731,-62.095075,-18.621833)"
         clip-rule="evenodd"
         id="path5" />
    </clipPath>
    <clipPath
       clipPathUnits="userSpaceOnUse"
       id="clipPath6">
      <path
         d="M 3.125,3.125 H 575 V 506.25 H 3.125 Z"
         transform="matrix(0.33949731,0,0,0.33949731,-79.001324,-38.621832)"
         clip-rule="evenodd"
         id="path6" />
    </clipPath>
    <clipPath
       clipPathUnits="userSpaceOnUse"
       id="clipPath8">
      <path
         d="M 3.125,3.125 H 575 V 506.25 H 3.125 Z"
         transform="matrix(0.33949731,0,0,0.33949731,726.8737,546.87813)"
         clip-rule="evenodd"
         id="path8" />
    </clipPath>
    <clipPath
       clipPathUnits="userSpaceOnUse"
       id="clipPath9">
      <path
         d="M 3.125,3.125 H 575 V 506.25 H 3.125 Z"
         transform="matrix(0.33949731,0,0,0.33949731,-62.095075,-145.62183)"
         clip-rule="evenodd"
         id="path9" />
    </clipPath>
    <clipPath
       clipPathUnits="userSpaceOnUse"
       id="clipPath10">
      <path
         d="M 3.125,3.125 H 575 V 506.25 H 3.125 Z"
         transform="matrix(0.33949731,0,0,0.33949731,-79.001324,-165.62183)"
         clip-rule="evenodd"
         id="path10" />
    </clipPath>
    <clipPath
       clipPathUnits="userSpaceOnUse"
       id="clipPath12">
      <path
         d="M 3.125,3.125 H 575 V 506.25 H 3.125 Z"
         transform="matrix(0.33949731,0,0,0.33949731,726.8737,546.87813)"
         clip-rule="evenodd"
         id="path12" />
    </clipPath>
    <clipPath
       clipPathUnits="userSpaceOnUse"
       id="clipPath14">
      <path
         d="M 3.125,3.125 H 575 V 506.25 H 3.125 Z"
         transform="matrix(0.33949731,0,0,0.33949731,726.8737,546.87813)"
         clip-rule="evenodd"
         id="path14" />
    </clipPath>
    <clipPath
       clipPathUnits="userSpaceOnUse"
       id="clipPath15">
      <path
         d="M 3.125,3.125 H 575 V 506.25 H 3.125 Z"
         transform="matrix(0.33949731,0,0,0.33949731,-99.626325,-83.621832)"
         clip-rule="evenodd"
         id="path15" />
    </clipPath>
    <clipPath
       clipPathUnits="userSpaceOnUse"
       id="clipPath16">
      <path
         d="M 3.125,3.125 H 575 V 506.25 H 3.125 Z"
         transform="matrix(0.33949731,0,0,0.33949731,-38.110704,-121.62183)"
         clip-rule="evenodd"
         id="path16" />
    </clipPath>
    <clipPath
       clipPathUnits="userSpaceOnUse"
       id="clipPath17">
      <path
         d="M 3.125,3.125 H 575 V 506.25 H 3.125 Z"
         transform="matrix(0.33949731,0,0,0.33949731,-37.438824,-58.621832)"
         clip-rule="evenodd"
         id="path17" />
    </clipPath>
    <clipPath
       clipPathUnits="userSpaceOnUse"
       id="clipPath19">
      <path
         d="M 3.125,3.125 H 575 V 506.25 H 3.125 Z"
         transform="matrix(0.33949731,0,0,0.33949731,727.37367,547.37816)"
         clip-rule="evenodd"
         id="path19" />
    </clipPath>
    <clipPath
       clipPathUnits="userSpaceOnUse"
       id="clipPath20">
      <path
         d="M 3.125,3.125 H 575 V 506.25 H 3.125 Z"
         transform="matrix(0.33949731,0,0,0.33949731,-105.87632,-120.62183)"
         clip-rule="evenodd"
         id="path20" />
    </clipPath>
    <clipPath
       clipPathUnits="userSpaceOnUse"
       id="clipPath22">
      <path
         d="M 3.125,3.125 H 575 V 506.25 H 3.125 Z"
         transform="matrix(0.33949731,0,0,0.33949731,727.37367,547.37816)"
         clip-rule="evenodd"
         id="path22" />
    </clipPath>
    <clipPath
       clipPathUnits="userSpaceOnUse"
       id="clipPath23">
      <path
         d="M 3.125,3.125 H 575 V 506.25 H 3.125 Z"
         transform="matrix(0.33949731,0,0,0.33949731,-105.95445,-58.621832)"
         clip-rule="evenodd"
         id="path23" />
    </clipPath>
  </defs>
  <g
     id="g1">
    <path
       id="path1"
       d="M 0,0 H 185 V 163 H 0 Z"
       style="fill:#ffffff;fill-opacity:1;fill-rule:nonzero;stroke:none"
       clip-path="url(#clipPath2)" />
    <path
       id="path3"
       d="m 730,550 h 190 v 40 H 730 Z"
       style="fill:#ffffff;fill-opacity:1;fill-rule:nonzero;stroke:#000000;stroke-width:1;stroke-linecap:butt;stroke-linejoin:miter;stroke-miterlimit:10;stroke-dasharray:none;stroke-opacity:1"
       transform="matrix(0.94257001,0,0,0.94257001,-685.12935,-515.47092)"
       clip-path="url(#clipPath4)" />
    <text
       id="text4"
       xml:space="preserve"
       transform="matrix(0.94257001,0,0,0.94257001,58.528955,17.552381)"
       clip-path="url(#clipPath5)"><tspan
         id="tspan4"
         style="font-variant:normal;font-weight:normal;font-size:16px;font-family:Arial;writing-mode:lr-tb;fill:#000000;fill-opacity:1;fill-rule:nonzero;stroke:none"
         x="0"
         y="0">«part def»</tspan></text>
    <text
       id="text5"
       xml:space="preserve"
       transform="matrix(0.94257001,0,0,0.94257001,74.464279,36.403781)"
       clip-path="url(#clipPath6)"><tspan
         id="tspan5"
         style="font-variant:normal;font-weight:normal;font-size:16px;font-family:Arial;writing-mode:lr-tb;fill:#000000;fill-opacity:1;fill-rule:nonzero;stroke:none"
         x="0"
         y="0">Part1</tspan></text>
    <path
       id="path7"
       d="m 730,677 h 190 v 40 H 730 Z"
       style="fill:#ffffff;fill-opacity:1;fill-rule:nonzero;stroke:#000000;stroke-width:1;stroke-linecap:butt;stroke-linejoin:miter;stroke-miterlimit:10;stroke-dasharray:none;stroke-opacity:1"
       transform="matrix(0.94257001,0,0,0.94257001,-685.12935,-515.47092)"
       clip-path="url(#clipPath8)" />
    <text
       id="text8"
       xml:space="preserve"
       transform="matrix(0.94257001,0,0,0.94257001,58.528955,137.25877)"
       clip-path="url(#clipPath9)"><tspan
         id="tspan8"
         style="font-variant:normal;font-weight:normal;font-size:16px;font-family:Arial;writing-mode:lr-tb;fill:#000000;fill-opacity:1;fill-rule:nonzero;stroke:none"
         x="0"
         y="0">«part def»</tspan></text>
    <text
       id="text9"
       xml:space="preserve"
       transform="matrix(0.94257001,0,0,0.94257001,74.464279,156.11017)"
       clip-path="url(#clipPath10)"><tspan
         id="tspan9"
         style="font-variant:normal;font-weight:normal;font-size:16px;font-family:Arial;writing-mode:lr-tb;fill:#000000;fill-opacity:1;fill-rule:nonzero;stroke:none"
         x="0"
         y="0">Part2</tspan></text>
    <path
       id="path11"
       d="m 825,590 v 84.76001"
       style="fill:none;stroke:#000000;stroke-width:1;stroke-linecap:butt;stroke-linejoin:miter;stroke-miterlimit:10;stroke-dasharray:none;stroke-opacity:1"
       transform="matrix(0.94257001,0,0,0.94257001,-685.12935,-515.47092)"
       clip-path="url(#clipPath12)" />
    <path
       id="path13"
       d="m 820.5,666.88 4.5,9 4.5,-9"
       style="fill:none;stroke:#000000;stroke-width:1;stroke-linecap:butt;stroke-linejoin:miter;stroke-miterlimit:10;stroke-dasharray:none;stroke-opacity:1"
       transform="matrix(0.94257001,0,0,0.94257001,-685.12935,-515.47092)"
       clip-path="url(#clipPath14)" />
    <text
       id="text14"
       xml:space="preserve"
       transform="matrix(0.94257001,0,0,0.94257001,93.904786,78.819431)"
       clip-path="url(#clipPath15)"><tspan
         id="tspan14"
         style="font-variant:normal;font-weight:normal;font-size:12px;font-family:Arial;writing-mode:lr-tb;fill:#000000;fill-opacity:1;fill-rule:nonzero;stroke:none"
         x="0"
         y="0">ConnectionDef2</tspan></text>
    <text
       id="text15"
       xml:space="preserve"
       transform="matrix(0.94257001,0,0,0.94257001,35.922007,114.63709)"
       clip-path="url(#clipPath16)"><tspan
         id="tspan15"
         style="font-variant:normal;font-weight:normal;font-size:12px;font-family:Arial;writing-mode:lr-tb;fill:#000000;fill-opacity:1;fill-rule:nonzero;stroke:none"
         x="0"
         y="0">targetEnd</tspan></text>
    <text
       id="text16"
       xml:space="preserve"
       transform="matrix(0.94257001,0,0,0.94257001,35.288713,55.255181)"
       clip-path="url(#clipPath17)"><tspan
         id="tspan16"
         style="font-variant:normal;font-weight:normal;font-size:12px;font-family:Arial;writing-mode:lr-tb;fill:#000000;fill-opacity:1;fill-rule:nonzero;stroke:none"
         x="0"
         y="0">sourceEnd</tspan></text>
    <path
       id="path18"
       d="m 833,658 h 17 v 13 h -17 z"
       style="fill:#ffffff;fill-opacity:1;fill-rule:nonzero;stroke:none"
       transform="matrix(0.94257001,0,0,0.94257001,-685.60061,-515.94224)"
       clip-path="url(#clipPath19)" />
    <text
       id="text19"
       xml:space="preserve"
       transform="matrix(0.94257001,0,0,0.94257001,99.795848,113.69452)"
       clip-path="url(#clipPath20)"><tspan
         id="tspan19"
         style="font-variant:normal;font-weight:normal;font-size:11px;font-family:Arial;writing-mode:lr-tb;fill:#000000;fill-opacity:1;fill-rule:nonzero;stroke:none"
         x="0"
         y="0">1..*</tspan></text>
    <path
       id="path21"
       d="m 833,596 h 19 v 13 h -19 z"
       style="fill:#ffffff;fill-opacity:1;fill-rule:nonzero;stroke:none"
       transform="matrix(0.94257001,0,0,0.94257001,-685.60061,-515.94224)"
       clip-path="url(#clipPath22)" />
    <text
       id="text22"
       xml:space="preserve"
       transform="matrix(0.94257001,0,0,0.94257001,99.869491,55.255181)"
       clip-path="url(#clipPath23)"><tspan
         id="tspan22"
         style="font-variant:normal;font-weight:normal;font-size:11px;font-family:Arial;writing-mode:lr-tb;fill:#000000;fill-opacity:1;fill-rule:nonzero;stroke:none"
         x="0"
         y="0">1..1</tspan></text>
  </g>
</svg>
