<?xml version="1.0" encoding="UTF-8" standalone="no"?>
<!-- Created with Inkscape (http://www.inkscape.org/) -->

<svg
   version="1.1"
   id="svg1"
   width="378.55997"
   height="97.279999"
   viewBox="0 0 378.55997 97.279999"
   xmlns="http://www.w3.org/2000/svg"
   xmlns:svg="http://www.w3.org/2000/svg">
  <defs
     id="defs1">
    <clipPath
       clipPathUnits="userSpaceOnUse"
       id="clipPath2">
      <path
         d="M 0,0 H 1181.9824 V 305 H 0 Z"
         transform="scale(0.31999999)"
         clip-rule="evenodd"
         id="path2" />
    </clipPath>
    <clipPath
       clipPathUnits="userSpaceOnUse"
       id="clipPath4">
      <path
         d="m 3.125,0 h 1175 v 305 h -1175 z"
         transform="matrix(0.33689617,0,0,0.33689617,926.87867,428.99997)"
         clip-rule="evenodd"
         id="path4" />
    </clipPath>
    <clipPath
       clipPathUnits="userSpaceOnUse"
       id="clipPath5">
      <path
         d="m 3.125,0 h 1175 v 305 h -1175 z"
         transform="matrix(0.33689617,0,0,0.33689617,-309.43384,-22.499991)"
         clip-rule="evenodd"
         id="path5" />
    </clipPath>
    <clipPath
       clipPathUnits="userSpaceOnUse"
       id="clipPath6">
      <path
         d="m 3.125,0 h 1175 v 305 h -1175 z"
         transform="matrix(0.33689617,0,0,0.33689617,-288.10572,-41.499991)"
         clip-rule="evenodd"
         id="path6" />
    </clipPath>
    <clipPath
       clipPathUnits="userSpaceOnUse"
       id="clipPath8">
      <path
         d="m 3.125,0 h 1175 v 305 h -1175 z"
         transform="matrix(0.33689617,0,0,0.33689617,926.87867,428.99997)"
         clip-rule="evenodd"
         id="path8" />
    </clipPath>
    <clipPath
       clipPathUnits="userSpaceOnUse"
       id="clipPath9">
      <path
         d="m 3.125,0 h 1175 v 305 h -1175 z"
         transform="matrix(0.33689617,0,0,0.33689617,-53.433838,-22.499991)"
         clip-rule="evenodd"
         id="path9" />
    </clipPath>
    <clipPath
       clipPathUnits="userSpaceOnUse"
       id="clipPath10">
      <path
         d="m 3.125,0 h 1175 v 305 h -1175 z"
         transform="matrix(0.33689617,0,0,0.33689617,-32.105718,-41.499991)"
         clip-rule="evenodd"
         id="path10" />
    </clipPath>
    <clipPath
       clipPathUnits="userSpaceOnUse"
       id="clipPath12">
      <path
         d="m 3.125,0 h 1175 v 305 h -1175 z"
         transform="matrix(0.33689617,0,0,0.33689617,926.87867,428.99997)"
         clip-rule="evenodd"
         id="path12" />
    </clipPath>
    <clipPath
       clipPathUnits="userSpaceOnUse"
       id="clipPath14">
      <path
         d="m 3.125,0 h 1175 v 305 h -1175 z"
         transform="matrix(0.33689617,0,0,0.33689617,926.87867,428.99997)"
         clip-rule="evenodd"
         id="path14" />
    </clipPath>
    <clipPath
       clipPathUnits="userSpaceOnUse"
       id="clipPath15">
      <path
         d="m 3.125,0 h 1175 v 305 h -1175 z"
         transform="matrix(0.33689617,0,0,0.33689617,-174.41822,-30.49999)"
         clip-rule="evenodd"
         id="path15" />
    </clipPath>
    <clipPath
       clipPathUnits="userSpaceOnUse"
       id="clipPath16">
      <path
         d="m 3.125,0 h 1175 v 305 h -1175 z"
         transform="matrix(0.33689617,0,0,0.33689617,-167.09008,-45.499991)"
         clip-rule="evenodd"
         id="path16" />
    </clipPath>
  </defs>
  <g
     id="g1">
    <path
       id="path1"
       d="M 0,0 H 378 V 98 H 0 Z"
       style="fill:#ffffff;fill-opacity:1;fill-rule:nonzero;stroke:none"
       clip-path="url(#clipPath2)" />
    <path
       id="path3"
       d="m 1208.66,430 h 101 c 0.7879,0 1.5682,0.0768 2.341,0.23053 0.7728,0.15372 1.5232,0.38135 2.2511,0.68286 0.7279,0.30155 1.4195,0.67117 2.0747,1.10889 0.6551,0.43777 1.2613,0.93524 1.8185,1.4924 0.5571,0.55713 1.0545,1.16327 1.4923,1.81842 0.4377,0.65512 0.8074,1.34668 1.1089,2.07465 0.3016,0.72796 0.5293,1.47833 0.6829,2.25112 0.1537,0.7728 0.2306,1.5532 0.2306,2.34113 v 76 c 0,0.7879 -0.077,1.56824 -0.2306,2.341 -0.1536,0.77283 -0.3813,1.5232 -0.6828,2.2511 -0.3016,0.72797 -0.6713,1.4195 -1.109,2.07465 -0.4378,0.65515 -0.9352,1.26129 -1.4923,1.81848 -0.5572,0.55713 -1.1634,1.05456 -1.8185,1.49231 -0.6552,0.4378 -1.3468,0.80743 -2.0747,1.10895 -0.7279,0.30151 -1.4783,0.52911 -2.2511,0.68286 -0.7728,0.15375 -1.5531,0.23065 -2.341,0.23065 h -101 c -0.7879,0 -1.5683,-0.0769 -2.3411,-0.23065 -0.7729,-0.15375 -1.5232,-0.38135 -2.2511,-0.68286 -0.728,-0.30152 -1.4195,-0.67115 -2.0746,-1.10889 -0.6552,-0.43781 -1.2613,-0.93524 -1.8185,-1.49237 -0.5573,-0.55719 -1.0547,-1.16333 -1.4926,-1.81848 -0.4376,-0.65515 -0.8072,-1.34668 -1.1087,-2.07459 -0.3017,-0.72796 -0.5292,-1.47833 -0.6829,-2.25116 -0.1537,-0.77276 -0.2306,-1.5531 -0.2305,-2.341 v -76 c -10e-5,-0.78793 0.077,-1.56833 0.2304,-2.34113 0.1537,-0.77279 0.3813,-1.52316 0.683,-2.25112 0.3015,-0.72797 0.6711,-1.41953 1.1088,-2.07465 0.4378,-0.65515 0.9352,-1.26129 1.4925,-1.81842 0.5572,-0.55716 1.1633,-1.05463 1.8185,-1.49237 0.6551,-0.43772 1.3466,-0.80734 2.0746,-1.10889 0.7279,-0.30151 1.4782,-0.52914 2.2511,-0.68286 0.7728,-0.15372 1.5532,-0.23056 2.3411,-0.23056 z"
       style="fill:#ffffff;fill-opacity:1;fill-rule:nonzero;stroke:#000000;stroke-width:1;stroke-linecap:butt;stroke-linejoin:miter;stroke-miterlimit:10;stroke-dasharray:none;stroke-opacity:1"
       transform="matrix(0.94984751,0,0,0.94984751,-880.3934,-407.48455)"
       clip-path="url(#clipPath4)" />
    <text
       id="text4"
       xml:space="preserve"
       transform="matrix(0.94984751,0,0,0.94984751,293.91496,21.37156)"
       clip-path="url(#clipPath5)"><tspan
         id="tspan4"
         style="font-variant:normal;font-weight:normal;font-size:16px;font-family:Arial;writing-mode:lr-tb;fill:#000000;fill-opacity:1;fill-rule:nonzero;stroke:none"
         x="0"
         y="0">«part»</tspan></text>
    <text
       id="text5"
       xml:space="preserve"
       transform="matrix(0.94984751,0,0,0.94984751,273.6565,39.418663)"
       clip-path="url(#clipPath6)"><tspan
         id="tspan5"
         style="font-variant:normal;font-weight:normal;font-size:16px;font-family:Arial;writing-mode:lr-tb;fill:#000000;fill-opacity:1;fill-rule:nonzero;stroke:none"
         x="0"
         y="0">part2 : Part2</tspan></text>
    <path
       id="path7"
       d="m 942,430 h 122.66 c 0.788,0 1.5683,0.0768 2.3411,0.23053 0.7727,0.15372 1.5231,0.38135 2.251,0.68286 0.7279,0.30155 1.4195,0.67117 2.0747,1.10889 0.655,0.43777 1.2612,0.93524 1.8185,1.4924 0.5571,0.55713 1.0545,1.16327 1.4923,1.81842 0.4376,0.65512 0.8072,1.34668 1.1089,2.07465 0.3015,0.72796 0.5291,1.47833 0.6829,2.25112 0.1537,0.7728 0.2306,1.5532 0.2306,2.34113 v 76 c 0,0.7879 -0.077,1.56824 -0.2306,2.341 -0.1538,0.77283 -0.3814,1.5232 -0.6828,2.2511 -0.3016,0.72797 -0.6713,1.4195 -1.1089,2.07465 -0.4379,0.65515 -0.9353,1.26129 -1.4924,1.81848 -0.5573,0.55713 -1.1635,1.05456 -1.8185,1.49231 -0.6552,0.4378 -1.3467,0.80743 -2.0746,1.10895 -0.7279,0.30151 -1.4783,0.52911 -2.2511,0.68286 C 1066.2283,529.9231 1065.448,530 1064.66,530 H 942 c -0.78796,0 -1.56836,-0.0769 -2.34113,-0.23065 -0.77282,-0.15375 -1.52319,-0.38135 -2.25116,-0.68286 -0.72796,-0.30152 -1.41949,-0.67115 -2.07458,-1.10889 -0.65515,-0.43781 -1.26129,-0.93524 -1.81842,-1.49237 -0.55719,-0.55719 -1.05463,-1.16333 -1.49243,-1.81848 -0.43775,-0.65515 -0.80738,-1.34668 -1.10889,-2.07459 -0.30151,-0.72796 -0.52917,-1.47833 -0.68292,-2.25116 C 930.07678,519.56824 929.99994,518.7879 930,518 v -76 c -6e-5,-0.78793 0.0768,-1.56833 0.23047,-2.34113 0.15375,-0.77279 0.38141,-1.52316 0.68292,-2.25112 0.30151,-0.72797 0.67114,-1.41953 1.10889,-2.07465 0.4378,-0.65515 0.93524,-1.26129 1.49243,-1.81842 0.55713,-0.55716 1.16327,-1.05463 1.81842,-1.49237 0.65509,-0.43772 1.34662,-0.80734 2.07458,-1.10889 0.72797,-0.30151 1.47834,-0.52914 2.25116,-0.68286 C 940.43164,430.07684 941.21204,430 942,430 Z"
       style="fill:#ffffff;fill-opacity:1;fill-rule:nonzero;stroke:#000000;stroke-width:1;stroke-linecap:butt;stroke-linejoin:miter;stroke-miterlimit:10;stroke-dasharray:none;stroke-opacity:1"
       transform="matrix(0.94984751,0,0,0.94984751,-880.3934,-407.48455)"
       clip-path="url(#clipPath8)" />
    <text
       id="text8"
       xml:space="preserve"
       transform="matrix(0.94984751,0,0,0.94984751,50.753998,21.37156)"
       clip-path="url(#clipPath9)"><tspan
         id="tspan8"
         style="font-variant:normal;font-weight:normal;font-size:16px;font-family:Arial;writing-mode:lr-tb;fill:#000000;fill-opacity:1;fill-rule:nonzero;stroke:none"
         x="0"
         y="0">«part»</tspan></text>
    <text
       id="text9"
       xml:space="preserve"
       transform="matrix(0.94984751,0,0,0.94984751,30.495536,39.418663)"
       clip-path="url(#clipPath10)"><tspan
         id="tspan9"
         style="font-variant:normal;font-weight:normal;font-size:16px;font-family:Arial;writing-mode:lr-tb;fill:#000000;fill-opacity:1;fill-rule:nonzero;stroke:none"
         x="0"
         y="0">part1 : Part1</tspan></text>
    <path
       id="path11"
       d="m 1076.66,480 h 117.76"
       style="fill:none;stroke:#000000;stroke-width:1;stroke-linecap:butt;stroke-linejoin:miter;stroke-miterlimit:10;stroke-dasharray:none;stroke-opacity:1"
       transform="matrix(0.94984751,0,0,0.94984751,-880.3934,-407.48455)"
       clip-path="url(#clipPath12)" />
    <path
       id="path13"
       d="m 1186.54,484.5 9,-4.5 -9,-4.5"
       style="fill:none;stroke:#000000;stroke-width:1;stroke-linecap:butt;stroke-linejoin:miter;stroke-miterlimit:10;stroke-dasharray:none;stroke-opacity:1"
       transform="matrix(0.94984751,0,0,0.94984751,-880.3934,-407.48455)"
       clip-path="url(#clipPath14)" />
    <text
       id="text14"
       xml:space="preserve"
       transform="matrix(0.94984751,0,0,0.94984751,165.67071,28.97034)"
       clip-path="url(#clipPath15)"><tspan
         id="tspan14"
         style="font-variant:normal;font-weight:normal;font-size:12px;font-family:Arial;writing-mode:lr-tb;fill:#000000;fill-opacity:1;fill-rule:nonzero;stroke:none"
         x="0"
         y="0">connection2 :</tspan></text>
    <text
       id="text15"
       xml:space="preserve"
       transform="matrix(0.94984751,0,0,0.94984751,158.7101,43.218053)"
       clip-path="url(#clipPath16)"><tspan
         id="tspan15"
         style="font-variant:normal;font-weight:normal;font-size:12px;font-family:Arial;writing-mode:lr-tb;fill:#000000;fill-opacity:1;fill-rule:nonzero;stroke:none"
         x="0"
         y="0">ConnectionDef2</tspan></text>
  </g>
</svg>
