<?xml version="1.0" encoding="UTF-8" standalone="no"?>
<!-- Created with Inkscape (http://www.inkscape.org/) -->

<svg
   version="1.1"
   id="svg1"
   width="396.16"
   height="155.84"
   viewBox="0 0 396.16 155.84"
   xmlns="http://www.w3.org/2000/svg"
   xmlns:svg="http://www.w3.org/2000/svg">
  <defs
     id="defs1">
    <clipPath
       clipPathUnits="userSpaceOnUse"
       id="clipPath2">
      <path
         d="M 0,0 H 1239 V 488 H 0 Z"
         transform="scale(0.31999999)"
         clip-rule="evenodd"
         id="path2" />
    </clipPath>
    <clipPath
       clipPathUnits="userSpaceOnUse"
       id="clipPath4">
      <path
         d="M 3.125,0 H 1237.5 V 488 H 3.125 Z"
         transform="matrix(0.33619557,0,0,0.33619557,6.8842551,157.94939)"
         clip-rule="evenodd"
         id="path4" />
    </clipPath>
    <clipPath
       clipPathUnits="userSpaceOnUse"
       id="clipPath5">
      <path
         d="M 3.125,0 H 1237.5 V 488 H 3.125 Z"
         transform="matrix(0.33619557,0,0,0.33619557,-188.49074,-23.550622)"
         clip-rule="evenodd"
         id="path5" />
    </clipPath>
    <clipPath
       clipPathUnits="userSpaceOnUse"
       id="clipPath7">
      <path
         d="M 3.125,0 H 1237.5 V 488 H 3.125 Z"
         transform="matrix(0.33619557,0,0,0.33619557,6.8842551,157.94939)"
         clip-rule="evenodd"
         id="path7" />
    </clipPath>
    <clipPath
       clipPathUnits="userSpaceOnUse"
       id="clipPath8">
      <path
         d="M 3.125,0 H 1237.5 V 488 H 3.125 Z"
         transform="matrix(0.33619557,0,0,0.33619557,-54.100119,-53.550622)"
         clip-rule="evenodd"
         id="path8" />
    </clipPath>
    <clipPath
       clipPathUnits="userSpaceOnUse"
       id="clipPath10">
      <path
         d="M 3.125,0 H 1237.5 V 488 H 3.125 Z"
         transform="matrix(0.33619557,0,0,0.33619557,6.8842551,157.94939)"
         clip-rule="evenodd"
         id="path10" />
    </clipPath>
    <clipPath
       clipPathUnits="userSpaceOnUse"
       id="clipPath11">
      <path
         d="M 3.125,0 H 1237.5 V 488 H 3.125 Z"
         transform="matrix(0.33619557,0,0,0.33619557,-274.10012,-53.550622)"
         clip-rule="evenodd"
         id="path11" />
    </clipPath>
    <clipPath
       clipPathUnits="userSpaceOnUse"
       id="clipPath13">
      <path
         d="M 3.125,0 H 1237.5 V 488 H 3.125 Z"
         transform="matrix(0.33619557,0,0,0.33619557,6.8842551,157.94939)"
         clip-rule="evenodd"
         id="path13" />
    </clipPath>
    <clipPath
       clipPathUnits="userSpaceOnUse"
       id="clipPath15">
      <path
         d="M 3.125,0 H 1237.5 V 488 H 3.125 Z"
         transform="matrix(0.33619557,0,0,0.33619557,6.8842551,157.94939)"
         clip-rule="evenodd"
         id="path15" />
    </clipPath>
    <clipPath
       clipPathUnits="userSpaceOnUse"
       id="clipPath16">
      <path
         d="M 3.125,0 H 1237.5 V 488 H 3.125 Z"
         transform="matrix(0.31999999,0,0,0.31999999,-125.37771,-96.652359)"
         clip-rule="evenodd"
         id="path16" />
    </clipPath>
    <clipPath
       clipPathUnits="userSpaceOnUse"
       id="clipPath18">
      <path
         d="M 3.125,0 H 1237.5 V 488 H 3.125 Z"
         transform="matrix(0.33619557,0,0,0.33619557,6.8842551,157.94939)"
         clip-rule="evenodd"
         id="path18" />
    </clipPath>
    <clipPath
       clipPathUnits="userSpaceOnUse"
       id="clipPath19">
      <path
         d="M 3.125,0 H 1237.5 V 488 H 3.125 Z"
         transform="matrix(0.31999999,0,0,0.31999999,-230.92459,-96.652359)"
         clip-rule="evenodd"
         id="path19" />
    </clipPath>
  </defs>
  <g
     id="g1">
    <path
       id="path1"
       d="M 0,0 H 396 V 156 H 0 Z"
       style="fill:#ffffff;fill-opacity:1;fill-rule:nonzero;stroke:none"
       clip-path="url(#clipPath2)" />
    <path
       id="path3"
       d="M 10,160 H 420 V 320 H 10 Z"
       style="fill:#ffffff;fill-opacity:1;fill-rule:nonzero;stroke:#000000;stroke-width:1;stroke-linecap:butt;stroke-linejoin:miter;stroke-miterlimit:10;stroke-dasharray:none;stroke-opacity:1"
       transform="matrix(0.9518269,0,0,0.9518269,-6.5526192,-150.34048)"
       clip-path="url(#clipPath4)" />
    <text
       id="text4"
       xml:space="preserve"
       transform="matrix(0.9518269,0,0,0.9518269,179.41056,22.416116)"
       clip-path="url(#clipPath5)"><tspan
         id="tspan4"
         style="font-variant:normal;font-weight:normal;font-size:16px;font-family:Arial;writing-mode:lr-tb;fill:#000000;fill-opacity:1;fill-rule:nonzero;stroke:none"
         x="0"
         y="0">Part1</tspan></text>
    <path
       id="path6"
       d="m 28.5,190 h 153 c 0.72932,0 1.43091,0.13954 2.10474,0.41864 0.67382,0.2791 1.26861,0.67653 1.78434,1.19226 0.51571,0.51572 0.91312,1.11049 1.19223,1.78432 0.2791,0.67383 0.41867,1.37543 0.41869,2.10478 v 99 c -2e-5,0.72934 -0.13959,1.43091 -0.41869,2.10471 -0.27911,0.67382 -0.67652,1.26861 -1.19223,1.78436 -0.51573,0.51572 -1.11052,0.91312 -1.78434,1.19223 -0.67383,0.27908 -1.37542,0.41867 -2.10474,0.4187 h -153 c -0.729347,-3e-5 -1.430935,-0.13962 -2.104761,-0.4187 -0.673828,-0.27911 -1.268604,-0.67651 -1.784327,-1.19223 -0.515726,-0.51575 -0.913143,-1.11054 -1.192251,-1.78436 C 23.139553,295.93091 22.999998,295.22934 23,294.5 v -99 c -2e-6,-0.72935 0.139553,-1.43095 0.418661,-2.10478 0.279108,-0.67383 0.676525,-1.2686 1.192251,-1.78432 0.515723,-0.51573 1.110499,-0.91315 1.784327,-1.19224 C 27.069065,190.13956 27.770653,190 28.5,190 Z"
       style="fill:#ffffff;fill-opacity:1;fill-rule:nonzero;stroke:#000000;stroke-width:1;stroke-linecap:butt;stroke-linejoin:miter;stroke-miterlimit:10;stroke-dasharray:none;stroke-opacity:1"
       transform="matrix(0.9518269,0,0,0.9518269,-6.5526192,-150.34048)"
       clip-path="url(#clipPath7)" />
    <text
       id="text7"
       xml:space="preserve"
       transform="matrix(0.9518269,0,0,0.9518269,51.493949,50.970923)"
       clip-path="url(#clipPath8)"><tspan
         id="tspan7"
         style="font-variant:normal;font-weight:normal;font-size:16px;font-family:Arial;writing-mode:lr-tb;fill:#000000;fill-opacity:1;fill-rule:nonzero;stroke:none"
         x="0"
         y="0">part2 : Part2</tspan></text>
    <path
       id="path9"
       d="m 248.5,190 h 153 c 0.72931,0 1.43088,0.13954 2.10471,0.41864 0.67382,0.2791 1.26861,0.67653 1.78436,1.19226 0.51572,0.51572 0.91315,1.11049 1.19223,1.78432 0.27911,0.67383 0.41867,1.37543 0.4187,2.10478 v 99 c -3e-5,0.72934 -0.13959,1.43091 -0.4187,2.10471 -0.27908,0.67382 -0.67651,1.26861 -1.19223,1.78436 -0.51575,0.51572 -1.11054,0.91312 -1.78433,1.19223 -0.67386,0.27908 -1.37543,0.41867 -2.10474,0.4187 h -153 c -0.72935,-3e-5 -1.43095,-0.13962 -2.10478,-0.4187 -0.67383,-0.27911 -1.2686,-0.67651 -1.78432,-1.19223 -0.51573,-0.51575 -0.91315,-1.11054 -1.19226,-1.78436 -0.2791,-0.6738 -0.41866,-1.37537 -0.41864,-2.10471 v -99 c -2e-5,-0.72935 0.13954,-1.43095 0.41866,-2.10478 0.27909,-0.67383 0.67651,-1.2686 1.19224,-1.78432 0.51572,-0.51573 1.11049,-0.91315 1.78432,-1.19224 C 247.06905,190.13956 247.77065,190 248.5,190 Z"
       style="fill:#ffffff;fill-opacity:1;fill-rule:nonzero;stroke:#000000;stroke-width:1;stroke-linecap:butt;stroke-linejoin:miter;stroke-miterlimit:10;stroke-dasharray:none;stroke-opacity:1"
       transform="matrix(0.9518269,0,0,0.9518269,-6.5526192,-150.34048)"
       clip-path="url(#clipPath10)" />
    <text
       id="text10"
       xml:space="preserve"
       transform="matrix(0.9518269,0,0,0.9518269,260.89587,50.970923)"
       clip-path="url(#clipPath11)"><tspan
         id="tspan10"
         style="font-variant:normal;font-weight:normal;font-size:16px;font-family:Arial;writing-mode:lr-tb;fill:#000000;fill-opacity:1;fill-rule:nonzero;stroke:none"
         x="0"
         y="0">part3 : Part3</tspan></text>
    <path
       id="path12"
       d="m 188,253 h 13 c 6.66667,0 13.33333,0 20,0 h 23"
       style="fill:none;stroke:#000000;stroke-width:1;stroke-linecap:butt;stroke-linejoin:miter;stroke-miterlimit:10;stroke-dasharray:none;stroke-opacity:1"
       transform="matrix(0.9518269,0,0,0.9518269,-6.5526192,-150.34048)"
       clip-path="url(#clipPath13)" />
    <path
       id="path14"
       d="m 192,253 c -2e-5,0.66301 -0.12689,1.30081 -0.38063,1.91338 -0.25374,0.61256 -0.61502,1.15327 -1.08385,1.62214 -0.46885,0.46884 -1.00955,0.83011 -1.62211,1.08383 -0.61257,0.25376 -1.25037,0.38062 -1.91341,0.38065 -0.66306,-3e-5 -1.30087,-0.12689 -1.91344,-0.38065 -0.61259,-0.25372 -1.15329,-0.61499 -1.62211,-1.08383 -0.46884,-0.46887 -0.83013,-1.00958 -1.08387,-1.62214 C 182.12685,254.30081 181.99998,253.66301 182,253 c -2e-5,-0.66304 0.12685,-1.30086 0.38058,-1.91342 0.25374,-0.6126 0.61503,-1.15331 1.08387,-1.62213 0.46882,-0.46886 1.00952,-0.83014 1.6221,-1.08387 C 185.69913,248.12686 186.33694,248 187,248 c 0.66304,0 1.30084,0.12686 1.91341,0.38058 0.61256,0.25373 1.15326,0.61501 1.62211,1.08387 0.46883,0.46882 0.83011,1.00953 1.08385,1.62211 0.25374,0.61258 0.38061,1.2504 0.38063,1.91344 z"
       style="fill:#000000;fill-opacity:1;fill-rule:nonzero;stroke:#000000;stroke-width:1;stroke-linecap:butt;stroke-linejoin:miter;stroke-miterlimit:10;stroke-dasharray:none;stroke-opacity:1"
       transform="matrix(0.9518269,0,0,0.9518269,-6.5526192,-150.34048)"
       clip-path="url(#clipPath15)" />
    <text
       id="text15"
       xml:space="preserve"
       transform="translate(125.37771,96.652359)"
       clip-path="url(#clipPath16)"><tspan
         id="tspan15"
         style="font-variant:normal;font-weight:normal;font-size:15.22px;font-family:Arial;writing-mode:lr-tb;fill:#000000;fill-opacity:1;fill-rule:nonzero;stroke:none"
         x="0"
         y="0">.part4</tspan></text>
    <path
       id="path17"
       d="m 248,253 c -2e-5,0.66301 -0.12689,1.30081 -0.38063,1.91338 -0.25374,0.61256 -0.61502,1.15327 -1.08385,1.62214 -0.46885,0.46884 -1.00956,0.83011 -1.62213,1.08383 -0.61256,0.25376 -1.25037,0.38062 -1.91339,0.38065 -0.66306,-3e-5 -1.30087,-0.12689 -1.91344,-0.38065 -0.61258,-0.25372 -1.15329,-0.61499 -1.62211,-1.08383 -0.46886,-0.46887 -0.83014,-1.00958 -1.08388,-1.62214 C 238.12683,254.30081 237.99998,253.66301 238,253 c -2e-5,-0.66304 0.12683,-1.30086 0.38057,-1.91342 0.25374,-0.6126 0.61502,-1.15331 1.08388,-1.62213 0.46882,-0.46886 1.00953,-0.83014 1.62211,-1.08387 C 241.69913,248.12686 242.33694,248 243,248 c 0.66302,0 1.30083,0.12686 1.91339,0.38058 0.61257,0.25373 1.15328,0.61501 1.62213,1.08387 0.46883,0.46882 0.83011,1.00953 1.08385,1.62211 0.25374,0.61258 0.38061,1.2504 0.38063,1.91344 z"
       style="fill:#000000;fill-opacity:1;fill-rule:nonzero;stroke:#000000;stroke-width:1;stroke-linecap:butt;stroke-linejoin:miter;stroke-miterlimit:10;stroke-dasharray:none;stroke-opacity:1"
       transform="matrix(0.9518269,0,0,0.9518269,-6.5526192,-150.34048)"
       clip-path="url(#clipPath18)" />
    <text
       id="text18"
       xml:space="preserve"
       transform="translate(230.92459,96.652359)"
       clip-path="url(#clipPath19)"><tspan
         id="tspan18"
         style="font-variant:normal;font-weight:normal;font-size:15.22px;font-family:Arial;writing-mode:lr-tb;fill:#000000;fill-opacity:1;fill-rule:nonzero;stroke:none"
         x="0"
         y="0">.part5</tspan></text>
  </g>
</svg>
