<?xml version="1.0" encoding="UTF-8" standalone="no"?>
<!-- Created with Inkscape (http://www.inkscape.org/) -->

<svg
   version="1.1"
   id="svg1"
   width="386.55997"
   height="214.71999"
   viewBox="0 0 386.55997 214.71999"
   xmlns="http://www.w3.org/2000/svg"
   xmlns:svg="http://www.w3.org/2000/svg">
  <defs
     id="defs1">
    <clipPath
       clipPathUnits="userSpaceOnUse"
       id="clipPath2">
      <path
         d="M 0,0 H 1208.9844 V 668.99414 H 0 Z"
         transform="scale(0.31999999)"
         clip-rule="evenodd"
         id="path2" />
    </clipPath>
    <clipPath
       clipPathUnits="userSpaceOnUse"
       id="clipPath4">
      <path
         d="M 3.125,0 H 1206.25 V 668.75 H 3.125 Z"
         transform="matrix(0.33624559,0,0,0.33624559,446.89371,177.94923)"
         clip-rule="evenodd"
         id="path4" />
    </clipPath>
    <clipPath
       clipPathUnits="userSpaceOnUse"
       id="clipPath5">
      <path
         d="M 3.125,0 H 1206.25 V 668.75 H 3.125 Z"
         transform="matrix(0.33624559,0,0,0.33624559,-60.418822,-97.550747)"
         clip-rule="evenodd"
         id="path5" />
    </clipPath>
    <clipPath
       clipPathUnits="userSpaceOnUse"
       id="clipPath6">
      <path
         d="M 3.125,0 H 1206.25 V 668.75 H 3.125 Z"
         transform="matrix(0.33624559,0,0,0.33624559,-39.090703,-117.55075)"
         clip-rule="evenodd"
         id="path6" />
    </clipPath>
    <clipPath
       clipPathUnits="userSpaceOnUse"
       id="clipPath8">
      <path
         d="M 3.125,0 H 1206.25 V 668.75 H 3.125 Z"
         transform="matrix(0.33624559,0,0,0.33624559,446.89371,177.94923)"
         clip-rule="evenodd"
         id="path8" />
    </clipPath>
    <clipPath
       clipPathUnits="userSpaceOnUse"
       id="clipPath9">
      <path
         d="M 3.125,0 H 1206.25 V 668.75 H 3.125 Z"
         transform="matrix(0.33624559,0,0,0.33624559,-60.418822,-197.55074)"
         clip-rule="evenodd"
         id="path9" />
    </clipPath>
    <clipPath
       clipPathUnits="userSpaceOnUse"
       id="clipPath10">
      <path
         d="M 3.125,0 H 1206.25 V 668.75 H 3.125 Z"
         transform="matrix(0.33624559,0,0,0.33624559,-33.309452,-217.55075)"
         clip-rule="evenodd"
         id="path10" />
    </clipPath>
    <clipPath
       clipPathUnits="userSpaceOnUse"
       id="clipPath12">
      <path
         d="M 3.125,0 H 1206.25 V 668.75 H 3.125 Z"
         transform="matrix(0.33624559,0,0,0.33624559,446.89371,177.94923)"
         clip-rule="evenodd"
         id="path12" />
    </clipPath>
    <clipPath
       clipPathUnits="userSpaceOnUse"
       id="clipPath14">
      <path
         d="M 3.125,0 H 1206.25 V 668.75 H 3.125 Z"
         transform="matrix(0.33624559,0,0,0.33624559,446.89371,177.94923)"
         clip-rule="evenodd"
         id="path14" />
    </clipPath>
    <clipPath
       clipPathUnits="userSpaceOnUse"
       id="clipPath16">
      <path
         d="M 3.125,0 H 1206.25 V 668.75 H 3.125 Z"
         transform="matrix(0.33624559,0,0,0.33624559,446.89371,177.94923)"
         clip-rule="evenodd"
         id="path16" />
    </clipPath>
    <clipPath
       clipPathUnits="userSpaceOnUse"
       id="clipPath17">
      <path
         d="M 3.125,0 H 1206.25 V 668.75 H 3.125 Z"
         transform="matrix(0.33624559,0,0,0.33624559,-300.41883,-97.550747)"
         clip-rule="evenodd"
         id="path17" />
    </clipPath>
    <clipPath
       clipPathUnits="userSpaceOnUse"
       id="clipPath18">
      <path
         d="M 3.125,0 H 1206.25 V 668.75 H 3.125 Z"
         transform="matrix(0.33624559,0,0,0.33624559,-279.0907,-117.55075)"
         clip-rule="evenodd"
         id="path18" />
    </clipPath>
    <clipPath
       clipPathUnits="userSpaceOnUse"
       id="clipPath20">
      <path
         d="M 3.125,0 H 1206.25 V 668.75 H 3.125 Z"
         transform="matrix(0.33624559,0,0,0.33624559,446.89371,177.94923)"
         clip-rule="evenodd"
         id="path20" />
    </clipPath>
    <clipPath
       clipPathUnits="userSpaceOnUse"
       id="clipPath21">
      <path
         d="M 3.125,0 H 1206.25 V 668.75 H 3.125 Z"
         transform="matrix(0.33624559,0,0,0.33624559,-300.41883,-197.55074)"
         clip-rule="evenodd"
         id="path21" />
    </clipPath>
    <clipPath
       clipPathUnits="userSpaceOnUse"
       id="clipPath22">
      <path
         d="M 3.125,0 H 1206.25 V 668.75 H 3.125 Z"
         transform="matrix(0.33624559,0,0,0.33624559,-279.0907,-217.55075)"
         clip-rule="evenodd"
         id="path22" />
    </clipPath>
    <clipPath
       clipPathUnits="userSpaceOnUse"
       id="clipPath24">
      <path
         d="M 3.125,0 H 1206.25 V 668.75 H 3.125 Z"
         transform="matrix(0.33624559,0,0,0.33624559,446.89371,177.94923)"
         clip-rule="evenodd"
         id="path24" />
    </clipPath>
    <clipPath
       clipPathUnits="userSpaceOnUse"
       id="clipPath26">
      <path
         d="M 3.125,0 H 1206.25 V 668.75 H 3.125 Z"
         transform="matrix(0.33624559,0,0,0.33624559,446.89371,177.94923)"
         clip-rule="evenodd"
         id="path26" />
    </clipPath>
    <clipPath
       clipPathUnits="userSpaceOnUse"
       id="clipPath28">
      <path
         d="M 3.125,0 H 1206.25 V 668.75 H 3.125 Z"
         transform="matrix(0.33624559,0,0,0.33624559,446.89371,177.94923)"
         clip-rule="evenodd"
         id="path28" />
    </clipPath>
    <clipPath
       clipPathUnits="userSpaceOnUse"
       id="clipPath29">
      <path
         d="M 3.125,0 H 1206.25 V 668.75 H 3.125 Z"
         transform="matrix(0.33624559,0,0,0.33624559,-180.41882,-17.550747)"
         clip-rule="evenodd"
         id="path29" />
    </clipPath>
    <clipPath
       clipPathUnits="userSpaceOnUse"
       id="clipPath30">
      <path
         d="M 3.125,0 H 1206.25 V 668.75 H 3.125 Z"
         transform="matrix(0.33624559,0,0,0.33624559,-159.0907,-37.550747)"
         clip-rule="evenodd"
         id="path30" />
    </clipPath>
    <clipPath
       clipPathUnits="userSpaceOnUse"
       id="clipPath32">
      <path
         d="M 3.125,0 H 1206.25 V 668.75 H 3.125 Z"
         transform="matrix(0.33624559,0,0,0.33624559,446.89371,177.94923)"
         clip-rule="evenodd"
         id="path32" />
    </clipPath>
    <clipPath
       clipPathUnits="userSpaceOnUse"
       id="clipPath34">
      <path
         d="M 3.125,0 H 1206.25 V 668.75 H 3.125 Z"
         transform="matrix(0.33624559,0,0,0.33624559,446.89371,177.94923)"
         clip-rule="evenodd"
         id="path34" />
    </clipPath>
    <clipPath
       clipPathUnits="userSpaceOnUse"
       id="clipPath36">
      <path
         d="M 3.125,0 H 1206.25 V 668.75 H 3.125 Z"
         transform="matrix(0.33624559,0,0,0.33624559,446.89371,177.94923)"
         clip-rule="evenodd"
         id="path36" />
    </clipPath>
    <clipPath
       clipPathUnits="userSpaceOnUse"
       id="clipPath38">
      <path
         d="M 3.125,0 H 1206.25 V 668.75 H 3.125 Z"
         transform="matrix(0.33624559,0,0,0.33624559,446.89371,177.94923)"
         clip-rule="evenodd"
         id="path38" />
    </clipPath>
    <clipPath
       clipPathUnits="userSpaceOnUse"
       id="clipPath40">
      <path
         d="M 3.125,0 H 1206.25 V 668.75 H 3.125 Z"
         transform="matrix(0.33624559,0,0,0.33624559,446.89371,177.94923)"
         clip-rule="evenodd"
         id="path40" />
    </clipPath>
    <clipPath
       clipPathUnits="userSpaceOnUse"
       id="clipPath41">
      <path
         d="M 3.125,0 H 1206.25 V 668.75 H 3.125 Z"
         transform="matrix(0.33624559,0,0,0.33624559,-199.60632,-196.55075)"
         clip-rule="evenodd"
         id="path41" />
    </clipPath>
  </defs>
  <g
     id="g1">
    <path
       id="path1"
       d="M 0,0 H 387 V 214 H 0 Z"
       style="fill:#ffffff;fill-opacity:1;fill-rule:nonzero;stroke:none"
       clip-path="url(#clipPath2)" />
    <path
       id="path3"
       d="m 458,260 h 144 c 0.52527,0 1.04547,0.0512 1.56067,0.15372 0.5152,0.10248 1.0155,0.25421 1.50079,0.45523 0.48529,0.20102 0.94629,0.44742 1.383,0.73926 0.43683,0.29184 0.841,0.6235 1.2124,0.99493 0.3714,0.37143 0.70306,0.77554 0.99487,1.21228 0.29187,0.43674 0.53833,0.89777 0.73932,1.38309 0.20099,0.48529 0.35272,0.98553 0.4552,1.50076 C 609.94873,266.95444 610,267.4747 610,268 v 24 c 0,0.5253 -0.0513,1.04553 -0.15375,1.5607 -0.10248,0.5152 -0.25421,1.01544 -0.4552,1.50073 -0.20099,0.48529 -0.44745,0.94632 -0.73932,1.38312 -0.29181,0.43674 -0.62347,0.84085 -0.99487,1.21228 -0.3714,0.37143 -0.77551,0.70306 -1.21234,0.9949 -0.43677,0.29181 -0.89777,0.53824 -1.38306,0.73926 -0.48529,0.20102 -0.98559,0.35275 -1.50079,0.45526 -0.5152,0.10248 -1.0354,0.15372 -1.56067,0.15375 H 458 c -0.5253,-3e-5 -1.04556,-0.0513 -1.56076,-0.15375 -0.5152,-0.10251 -1.01544,-0.25424 -1.50076,-0.45526 -0.48532,-0.20102 -0.94635,-0.44745 -1.38312,-0.73926 -0.43674,-0.29184 -0.84082,-0.62347 -1.21225,-0.9949 -0.37143,-0.37143 -0.7031,-0.77554 -0.99493,-1.21231 -0.29184,-0.43677 -0.53824,-0.8978 -0.73926,-1.38309 -0.20102,-0.48529 -0.35276,-0.98553 -0.45523,-1.50073 C 450.05124,293.04553 450,292.5253 450,292 v -24 c 0,-0.5253 0.0512,-1.04556 0.15369,-1.56073 0.10247,-0.51523 0.25421,-1.01547 0.45523,-1.50076 0.20102,-0.48532 0.44742,-0.94635 0.73926,-1.38309 0.29183,-0.43674 0.6235,-0.84085 0.99493,-1.21228 0.37143,-0.37143 0.77551,-0.70309 1.21225,-0.99493 0.43677,-0.29184 0.8978,-0.53824 1.38312,-0.73926 0.48532,-0.20102 0.98556,-0.35275 1.50076,-0.45523 C 456.95444,260.05124 457.4747,260 458,260 Z"
       style="fill:#ffffff;fill-opacity:1;fill-rule:nonzero;stroke:#000000;stroke-width:1;stroke-linecap:butt;stroke-linejoin:miter;stroke-miterlimit:10;stroke-dasharray:none;stroke-opacity:1"
       transform="matrix(0.9516853,0,0,0.9516853,-425.30217,-169.35167)"
       clip-path="url(#clipPath4)" />
    <text
       id="text4"
       xml:space="preserve"
       transform="matrix(0.9516853,0,0,0.9516853,57.499705,92.837612)"
       clip-path="url(#clipPath5)"><tspan
         id="tspan4"
         style="font-variant:normal;font-weight:normal;font-size:16px;font-family:Arial;writing-mode:lr-tb;fill:#000000;fill-opacity:1;fill-rule:nonzero;stroke:none"
         x="0"
         y="0">«part»</tspan></text>
    <text
       id="text5"
       xml:space="preserve"
       transform="matrix(0.9516853,0,0,0.9516853,37.202047,111.87132)"
       clip-path="url(#clipPath6)"><tspan
         id="tspan5"
         style="font-variant:normal;font-weight:normal;font-size:16px;font-family:Arial;writing-mode:lr-tb;fill:#000000;fill-opacity:1;fill-rule:nonzero;stroke:none"
         x="0"
         y="0">part2 : Part2</tspan></text>
    <path
       id="path7"
       d="m 458,360 h 144 c 0.52527,0 1.04547,0.0512 1.56067,0.15372 0.5152,0.10248 1.0155,0.25421 1.50079,0.45523 0.48529,0.20102 0.94629,0.44742 1.383,0.73926 0.43683,0.29184 0.841,0.6235 1.2124,0.99493 0.3714,0.37143 0.70306,0.77551 0.99487,1.21228 0.29187,0.43674 0.53833,0.89777 0.73932,1.38309 0.20099,0.48532 0.35272,0.98556 0.4552,1.50073 C 609.94873,366.95444 610,367.4747 610,368 v 24 c 0,0.52527 -0.0513,1.0455 -0.15375,1.56067 -0.10248,0.5152 -0.25421,1.01544 -0.4552,1.50076 -0.20099,0.48529 -0.44745,0.94632 -0.73932,1.38309 -0.29181,0.43674 -0.62347,0.84085 -0.99487,1.21231 -0.3714,0.37143 -0.77551,0.70303 -1.21234,0.99487 -0.43677,0.29184 -0.89777,0.53824 -1.38306,0.73926 -0.48529,0.20102 -0.98559,0.35278 -1.50079,0.45526 -0.5152,0.10251 -1.0354,0.15375 -1.56067,0.15378 H 458 c -0.5253,-3e-5 -1.04556,-0.0513 -1.56076,-0.15375 -0.5152,-0.10251 -1.01544,-0.25427 -1.50076,-0.45529 -0.48532,-0.20102 -0.94635,-0.44742 -1.38312,-0.73926 -0.43674,-0.29184 -0.84082,-0.62344 -1.21225,-0.99487 -0.37143,-0.37146 -0.7031,-0.77557 -0.99493,-1.21234 -0.29184,-0.43674 -0.53824,-0.89777 -0.73926,-1.38306 -0.20102,-0.48532 -0.35276,-0.98556 -0.45523,-1.50076 C 450.05124,393.0455 450,392.52527 450,392 v -24 c 0,-0.5253 0.0512,-1.04556 0.15369,-1.56076 0.10247,-0.51517 0.25421,-1.01541 0.45523,-1.50073 0.20102,-0.48532 0.44742,-0.94635 0.73926,-1.38309 0.29183,-0.43677 0.6235,-0.84085 0.99493,-1.21228 0.37143,-0.37143 0.77551,-0.70309 1.21225,-0.99493 0.43677,-0.29184 0.8978,-0.53827 1.38312,-0.73929 0.48532,-0.20099 0.98556,-0.35272 1.50076,-0.45523 C 456.95444,360.05124 457.4747,360 458,360 Z"
       style="fill:#ffffff;fill-opacity:1;fill-rule:nonzero;stroke:#000000;stroke-width:1;stroke-linecap:butt;stroke-linejoin:miter;stroke-miterlimit:10;stroke-dasharray:none;stroke-opacity:1"
       transform="matrix(0.9516853,0,0,0.9516853,-425.30217,-169.35167)"
       clip-path="url(#clipPath8)" />
    <text
       id="text8"
       xml:space="preserve"
       transform="matrix(0.9516853,0,0,0.9516853,57.499705,188.00614)"
       clip-path="url(#clipPath9)"><tspan
         id="tspan8"
         style="font-variant:normal;font-weight:normal;font-size:16px;font-family:Arial;writing-mode:lr-tb;fill:#000000;fill-opacity:1;fill-rule:nonzero;stroke:none"
         x="0"
         y="0">«part»</tspan></text>
    <text
       id="text9"
       xml:space="preserve"
       transform="matrix(0.9516853,0,0,0.9516853,31.700116,207.03985)"
       clip-path="url(#clipPath10)"><tspan
         id="tspan9"
         style="font-variant:normal;font-weight:normal;font-size:16px;font-family:Arial;writing-mode:lr-tb;fill:#000000;fill-opacity:1;fill-rule:nonzero;stroke:none"
         x="0"
         y="0">part4R : Part4</tspan></text>
    <path
       id="path11"
       d="M 530,311.98999 V 360"
       style="fill:none;stroke:#000000;stroke-width:1;stroke-linecap:butt;stroke-linejoin:miter;stroke-miterlimit:10;stroke-dasharray:none;stroke-opacity:1"
       transform="matrix(0.9516853,0,0,0.9516853,-425.30217,-169.35167)"
       clip-path="url(#clipPath12)" />
    <path
       id="path13"
       d="m 530,300.98999 3.23999,5.5 -3.23999,5.5 -3.23999,-5.5 z"
       style="fill:none;stroke:#000000;stroke-width:1;stroke-linecap:butt;stroke-linejoin:miter;stroke-miterlimit:10;stroke-dasharray:none;stroke-opacity:1"
       transform="matrix(0.9516853,0,0,0.9516853,-425.30217,-169.35167)"
       clip-path="url(#clipPath14)" />
    <path
       id="path15"
       d="m 698,260 h 144 c 0.52521,0 1.04541,0.0512 1.56061,0.15372 0.5152,0.10248 1.01544,0.25421 1.50073,0.45523 0.48529,0.20102 0.94629,0.44742 1.38306,0.73926 0.43676,0.29184 0.84088,0.6235 1.2124,0.99493 0.3714,0.37143 0.703,0.77554 0.99481,1.21228 0.29181,0.43674 0.53827,0.89777 0.73932,1.38309 0.20099,0.48529 0.35278,0.98553 0.45526,1.50076 C 849.94873,266.95444 850,267.4747 850,268 v 24 c 0,0.5253 -0.0513,1.04553 -0.15381,1.5607 -0.10248,0.5152 -0.25427,1.01544 -0.45526,1.50073 -0.20105,0.48529 -0.44751,0.94632 -0.73932,1.38312 -0.29181,0.43674 -0.62341,0.84085 -0.99481,1.21228 -0.37152,0.37143 -0.77564,0.70306 -1.2124,0.9949 -0.43677,0.29181 -0.89777,0.53824 -1.38306,0.73926 -0.48529,0.20102 -0.98547,0.35275 -1.50067,0.45526 C 843.04547,299.94873 842.52521,299.99997 842,300 H 698 c -0.52533,-3e-5 -1.04559,-0.0513 -1.56079,-0.15375 -0.5152,-0.10251 -1.01544,-0.25424 -1.50073,-0.45526 -0.48529,-0.20102 -0.94635,-0.44745 -1.38312,-0.73926 -0.43677,-0.29184 -0.84088,-0.62347 -1.21228,-0.9949 -0.37146,-0.37143 -0.70313,-0.77554 -0.99494,-1.21231 -0.2918,-0.43677 -0.53826,-0.8978 -0.73925,-1.38309 -0.20105,-0.48529 -0.35279,-0.98553 -0.45526,-1.50073 C 690.05115,293.04553 689.99994,292.5253 690,292 v -24 c -6e-5,-0.5253 0.0512,-1.04556 0.15363,-1.56073 0.10247,-0.51523 0.25421,-1.01547 0.45526,-1.50076 0.20099,-0.48532 0.44745,-0.94635 0.73925,-1.38309 0.29181,-0.43674 0.62348,-0.84085 0.99494,-1.21228 0.3714,-0.37143 0.77551,-0.70309 1.21228,-0.99493 0.43677,-0.29184 0.89783,-0.53824 1.38312,-0.73926 0.48529,-0.20102 0.98553,-0.35275 1.50073,-0.45523 C 696.95441,260.05124 697.47467,260 698,260 Z"
       style="fill:#ffffff;fill-opacity:1;fill-rule:nonzero;stroke:#000000;stroke-width:1;stroke-linecap:butt;stroke-linejoin:miter;stroke-miterlimit:10;stroke-dasharray:none;stroke-opacity:1"
       transform="matrix(0.9516853,0,0,0.9516853,-425.30217,-169.35167)"
       clip-path="url(#clipPath16)" />
    <text
       id="text16"
       xml:space="preserve"
       transform="matrix(0.9516853,0,0,0.9516853,285.90418,92.837612)"
       clip-path="url(#clipPath17)"><tspan
         id="tspan16"
         style="font-variant:normal;font-weight:normal;font-size:16px;font-family:Arial;writing-mode:lr-tb;fill:#000000;fill-opacity:1;fill-rule:nonzero;stroke:none"
         x="0"
         y="0">«part»</tspan></text>
    <text
       id="text17"
       xml:space="preserve"
       transform="matrix(0.9516853,0,0,0.9516853,265.60652,111.87132)"
       clip-path="url(#clipPath18)"><tspan
         id="tspan17"
         style="font-variant:normal;font-weight:normal;font-size:16px;font-family:Arial;writing-mode:lr-tb;fill:#000000;fill-opacity:1;fill-rule:nonzero;stroke:none"
         x="0"
         y="0">part3 : Part3</tspan></text>
    <path
       id="path19"
       d="m 698,360 h 144 c 0.52521,0 1.04541,0.0512 1.56061,0.15372 0.5152,0.10248 1.01544,0.25421 1.50073,0.45523 0.48529,0.20102 0.94629,0.44742 1.38306,0.73926 0.43676,0.29184 0.84088,0.6235 1.2124,0.99493 0.3714,0.37143 0.703,0.77551 0.99481,1.21228 0.29181,0.43674 0.53827,0.89777 0.73932,1.38309 0.20099,0.48532 0.35278,0.98556 0.45526,1.50073 C 849.94873,366.95444 850,367.4747 850,368 v 24 c 0,0.52527 -0.0513,1.0455 -0.15381,1.56067 -0.10248,0.5152 -0.25427,1.01544 -0.45526,1.50076 -0.20105,0.48529 -0.44751,0.94632 -0.73932,1.38309 -0.29181,0.43674 -0.62341,0.84085 -0.99481,1.21231 -0.37152,0.37143 -0.77564,0.70303 -1.2124,0.99487 -0.43677,0.29184 -0.89777,0.53824 -1.38306,0.73926 -0.48529,0.20102 -0.98547,0.35278 -1.50067,0.45526 C 843.04547,399.94873 842.52521,399.99997 842,400 H 698 c -0.52533,-3e-5 -1.04559,-0.0513 -1.56079,-0.15375 -0.5152,-0.10251 -1.01544,-0.25427 -1.50073,-0.45529 -0.48529,-0.20102 -0.94635,-0.44742 -1.38312,-0.73926 -0.43677,-0.29184 -0.84088,-0.62344 -1.21228,-0.99487 -0.37146,-0.37146 -0.70313,-0.77557 -0.99494,-1.21234 -0.2918,-0.43674 -0.53826,-0.89777 -0.73925,-1.38306 -0.20105,-0.48532 -0.35279,-0.98556 -0.45526,-1.50076 C 690.05115,393.0455 689.99994,392.52527 690,392 v -24 c -6e-5,-0.5253 0.0512,-1.04556 0.15363,-1.56076 0.10247,-0.51517 0.25421,-1.01541 0.45526,-1.50073 0.20099,-0.48532 0.44745,-0.94635 0.73925,-1.38309 0.29181,-0.43677 0.62348,-0.84085 0.99494,-1.21228 0.3714,-0.37143 0.77551,-0.70309 1.21228,-0.99493 0.43677,-0.29184 0.89783,-0.53827 1.38312,-0.73929 0.48529,-0.20099 0.98553,-0.35272 1.50073,-0.45523 C 696.95441,360.05124 697.47467,360 698,360 Z"
       style="fill:#ffffff;fill-opacity:1;fill-rule:nonzero;stroke:#000000;stroke-width:1;stroke-linecap:butt;stroke-linejoin:miter;stroke-miterlimit:10;stroke-dasharray:none;stroke-opacity:1"
       transform="matrix(0.9516853,0,0,0.9516853,-425.30217,-169.35167)"
       clip-path="url(#clipPath20)" />
    <text
       id="text20"
       xml:space="preserve"
       transform="matrix(0.9516853,0,0,0.9516853,285.90418,188.00614)"
       clip-path="url(#clipPath21)"><tspan
         id="tspan20"
         style="font-variant:normal;font-weight:normal;font-size:16px;font-family:Arial;writing-mode:lr-tb;fill:#000000;fill-opacity:1;fill-rule:nonzero;stroke:none"
         x="0"
         y="0">«part»</tspan></text>
    <text
       id="text21"
       xml:space="preserve"
       transform="matrix(0.9516853,0,0,0.9516853,265.60652,207.03985)"
       clip-path="url(#clipPath22)"><tspan
         id="tspan21"
         style="font-variant:normal;font-weight:normal;font-size:16px;font-family:Arial;writing-mode:lr-tb;fill:#000000;fill-opacity:1;fill-rule:nonzero;stroke:none"
         x="0"
         y="0">part4 : Part4</tspan></text>
    <path
       id="path23"
       d="M 770,311.98999 V 360"
       style="fill:none;stroke:#000000;stroke-width:1;stroke-linecap:butt;stroke-linejoin:miter;stroke-miterlimit:10;stroke-dasharray:none;stroke-opacity:1"
       transform="matrix(0.9516853,0,0,0.9516853,-425.30217,-169.35167)"
       clip-path="url(#clipPath24)" />
    <path
       id="path25"
       d="m 770,300.98999 3.23999,5.5 -3.23999,5.5 -3.23999,-5.5 z"
       style="fill:#000000;fill-opacity:1;fill-rule:nonzero;stroke:#000000;stroke-width:1;stroke-linecap:butt;stroke-linejoin:miter;stroke-miterlimit:10;stroke-dasharray:none;stroke-opacity:1"
       transform="matrix(0.9516853,0,0,0.9516853,-425.30217,-169.35167)"
       clip-path="url(#clipPath26)" />
    <path
       id="path27"
       d="m 498,180 h 304 c 0.52521,0 1.04541,0.0512 1.56061,0.15372 0.5152,0.10248 1.01544,0.25422 1.50073,0.45524 0.48535,0.20102 0.94641,0.44745 1.38312,0.73929 0.43683,0.29183 0.84094,0.62346 1.21234,0.99489 0.3714,0.37143 0.70306,0.77553 0.99487,1.21228 0.29181,0.43677 0.53827,0.8978 0.73926,1.3831 0.20099,0.48531 0.35278,0.98557 0.45526,1.50075 0.10248,0.5152 0.15375,1.03545 0.15381,1.56073 v 24 c -6e-5,0.52528 -0.0513,1.04552 -0.15381,1.5607 -0.10248,0.51518 -0.25427,1.01543 -0.45526,1.50073 -0.20099,0.48531 -0.44745,0.94634 -0.73926,1.3831 -0.29181,0.43676 -0.62347,0.84086 -0.99487,1.2123 -0.3714,0.37143 -0.77551,0.70306 -1.21234,0.99489 -0.43671,0.29185 -0.89777,0.53828 -1.38312,0.73929 -0.48529,0.20102 -0.98553,0.35276 -1.50067,0.45524 -0.5152,0.1025 -1.03546,0.15373 -1.56067,0.15375 H 498 c -0.5253,-2e-5 -1.04553,-0.0513 -1.56073,-0.15375 -0.51523,-0.10248 -1.01547,-0.25422 -1.50079,-0.45524 -0.48532,-0.20101 -0.94635,-0.44744 -1.38309,-0.73929 -0.43674,-0.29183 -0.84085,-0.62346 -1.21228,-0.99489 -0.37143,-0.37144 -0.7031,-0.77554 -0.99493,-1.2123 -0.29184,-0.43676 -0.53827,-0.89779 -0.73929,-1.3831 -0.20102,-0.4853 -0.35279,-0.98555 -0.45523,-1.50073 C 490.05121,213.04552 489.99997,212.52528 490,212 v -24 c -3e-5,-0.52528 0.0512,-1.04553 0.15366,-1.56073 0.10244,-0.51518 0.25421,-1.01544 0.45523,-1.50075 0.20102,-0.4853 0.44748,-0.94633 0.73932,-1.3831 0.29184,-0.43675 0.62347,-0.84085 0.9949,-1.21228 0.37143,-0.37143 0.77554,-0.70306 1.21228,-0.99489 0.43674,-0.29184 0.89777,-0.53827 1.38309,-0.73929 0.48532,-0.20102 0.98556,-0.35276 1.50079,-0.45524 C 496.95447,180.05124 497.4747,180 498,180 Z"
       style="fill:#ffffff;fill-opacity:1;fill-rule:nonzero;stroke:#000000;stroke-width:1;stroke-linecap:butt;stroke-linejoin:miter;stroke-miterlimit:10;stroke-dasharray:none;stroke-opacity:1"
       transform="matrix(0.9516853,0,0,0.9516853,-425.30217,-169.35167)"
       clip-path="url(#clipPath28)" />
    <text
       id="text28"
       xml:space="preserve"
       transform="matrix(0.9516853,0,0,0.9516853,171.70194,16.702788)"
       clip-path="url(#clipPath29)"><tspan
         id="tspan28"
         style="font-variant:normal;font-weight:normal;font-size:16px;font-family:Arial;writing-mode:lr-tb;fill:#000000;fill-opacity:1;fill-rule:nonzero;stroke:none"
         x="0"
         y="0">«part»</tspan></text>
    <text
       id="text29"
       xml:space="preserve"
       transform="matrix(0.9516853,0,0,0.9516853,151.40428,35.736494)"
       clip-path="url(#clipPath30)"><tspan
         id="tspan29"
         style="font-variant:normal;font-weight:normal;font-size:16px;font-family:Arial;writing-mode:lr-tb;fill:#000000;fill-opacity:1;fill-rule:nonzero;stroke:none"
         x="0"
         y="0">part1 : Part1</tspan></text>
    <path
       id="path31"
       d="M 769.65002,231.99001 770,260"
       style="fill:none;stroke:#000000;stroke-width:1;stroke-linecap:butt;stroke-linejoin:miter;stroke-miterlimit:10;stroke-dasharray:none;stroke-opacity:1"
       transform="matrix(0.9516853,0,0,0.9516853,-425.30217,-169.35167)"
       clip-path="url(#clipPath32)" />
    <path
       id="path33"
       d="m 769.51001,220.99001 3.31,5.45999 -3.16999,5.54001 -3.30004,-5.46001 z"
       style="fill:#000000;fill-opacity:1;fill-rule:nonzero;stroke:#000000;stroke-width:1;stroke-linecap:butt;stroke-linejoin:miter;stroke-miterlimit:10;stroke-dasharray:none;stroke-opacity:1"
       transform="matrix(0.9516853,0,0,0.9516853,-425.30217,-169.35167)"
       clip-path="url(#clipPath34)" />
    <path
       id="path35"
       d="M 530,231.99001 V 260"
       style="fill:none;stroke:#000000;stroke-width:1;stroke-linecap:butt;stroke-linejoin:miter;stroke-miterlimit:10;stroke-dasharray:none;stroke-opacity:1"
       transform="matrix(0.9516853,0,0,0.9516853,-425.30217,-169.35167)"
       clip-path="url(#clipPath36)" />
    <path
       id="path37"
       d="m 530,220.99001 3.23999,5.5 -3.23999,5.5 -3.23999,-5.5 z"
       style="fill:#000000;fill-opacity:1;fill-rule:nonzero;stroke:#000000;stroke-width:1;stroke-linecap:butt;stroke-linejoin:miter;stroke-miterlimit:10;stroke-dasharray:none;stroke-opacity:1"
       transform="matrix(0.9516853,0,0,0.9516853,-425.30217,-169.35167)"
       clip-path="url(#clipPath38)" />
    <path
       id="path39"
       d="m 610,380 h 80"
       style="fill:none;stroke:#000000;stroke-width:1;stroke-linecap:butt;stroke-linejoin:miter;stroke-miterlimit:10;stroke-dasharray:none;stroke-opacity:1"
       transform="matrix(0.9516853,0,0,0.9516853,-425.30217,-169.35167)"
       clip-path="url(#clipPath40)" />
    <text
       id="text40"
       xml:space="preserve"
       transform="matrix(0.9516853,0,0,0.9516853,189.9624,187.05446)"
       clip-path="url(#clipPath41)"><tspan
         id="tspan40"
         style="font-variant:normal;font-weight:normal;font-size:12px;font-family:Arial;writing-mode:lr-tb;fill:#000000;fill-opacity:1;fill-rule:nonzero;stroke:none"
         x="0"
         y="0">=</tspan></text>
  </g>
</svg>
