<?xml version="1.0" encoding="UTF-8" standalone="no"?>
<!-- Created with Inkscape (http://www.inkscape.org/) -->

<svg
   version="1.1"
   id="svg1"
   width="162.56"
   height="162.56"
   viewBox="0 0 162.56 162.56"
   xmlns="http://www.w3.org/2000/svg"
   xmlns:svg="http://www.w3.org/2000/svg">
  <defs
     id="defs1">
    <clipPath
       clipPathUnits="userSpaceOnUse"
       id="clipPath2">
      <path
         d="M 0,0 H 509 V 509 H 0 Z"
         transform="scale(0.31999999)"
         clip-rule="evenodd"
         id="path2" />
    </clipPath>
    <clipPath
       clipPathUnits="userSpaceOnUse"
       id="clipPath4">
      <path
         d="M 3.125,3.125 H 506.25 V 506.25 H 3.125 Z"
         transform="matrix(0.34133333,0,0,0.34133333,505.86667,549.86667)"
         clip-rule="evenodd"
         id="path4" />
    </clipPath>
    <clipPath
       clipPathUnits="userSpaceOnUse"
       id="clipPath5">
      <path
         d="M 3.125,3.125 H 506.25 V 506.25 H 3.125 Z"
         transform="matrix(0.34133333,0,0,0.34133333,-47.102084,-18.633334)"
         clip-rule="evenodd"
         id="path5" />
    </clipPath>
    <clipPath
       clipPathUnits="userSpaceOnUse"
       id="clipPath6">
      <path
         d="M 3.125,3.125 H 506.25 V 506.25 H 3.125 Z"
         transform="matrix(0.34133333,0,0,0.34133333,-64.008334,-38.633335)"
         clip-rule="evenodd"
         id="path6" />
    </clipPath>
    <clipPath
       clipPathUnits="userSpaceOnUse"
       id="clipPath8">
      <path
         d="M 3.125,3.125 H 506.25 V 506.25 H 3.125 Z"
         transform="matrix(0.34133333,0,0,0.34133333,505.86667,549.86667)"
         clip-rule="evenodd"
         id="path8" />
    </clipPath>
    <clipPath
       clipPathUnits="userSpaceOnUse"
       id="clipPath9">
      <path
         d="M 3.125,3.125 H 506.25 V 506.25 H 3.125 Z"
         transform="matrix(0.34133333,0,0,0.34133333,-47.102084,-145.63334)"
         clip-rule="evenodd"
         id="path9" />
    </clipPath>
    <clipPath
       clipPathUnits="userSpaceOnUse"
       id="clipPath10">
      <path
         d="M 3.125,3.125 H 506.25 V 506.25 H 3.125 Z"
         transform="matrix(0.34133333,0,0,0.34133333,-64.008334,-165.63333)"
         clip-rule="evenodd"
         id="path10" />
    </clipPath>
    <clipPath
       clipPathUnits="userSpaceOnUse"
       id="clipPath12">
      <path
         d="M 3.125,3.125 H 506.25 V 506.25 H 3.125 Z"
         transform="matrix(0.34133333,0,0,0.34133333,505.86667,549.86667)"
         clip-rule="evenodd"
         id="path12" />
    </clipPath>
    <clipPath
       clipPathUnits="userSpaceOnUse"
       id="clipPath13">
      <path
         d="M 3.125,3.125 H 506.25 V 506.25 H 3.125 Z"
         transform="matrix(0.34133333,0,0,0.34133333,-84.633335,-83.633335)"
         clip-rule="evenodd"
         id="path13" />
    </clipPath>
    <clipPath
       clipPathUnits="userSpaceOnUse"
       id="clipPath14">
      <path
         d="M 3.125,3.125 H 506.25 V 506.25 H 3.125 Z"
         transform="matrix(0.34133333,0,0,0.34133333,-49.789585,-120.63334)"
         clip-rule="evenodd"
         id="path14" />
    </clipPath>
    <clipPath
       clipPathUnits="userSpaceOnUse"
       id="clipPath15">
      <path
         d="M 3.125,3.125 H 506.25 V 506.25 H 3.125 Z"
         transform="matrix(0.34133333,0,0,0.34133333,-50.789585,-58.633335)"
         clip-rule="evenodd"
         id="path15" />
    </clipPath>
    <clipPath
       clipPathUnits="userSpaceOnUse"
       id="clipPath17">
      <path
         d="M 3.125,3.125 H 506.25 V 506.25 H 3.125 Z"
         transform="matrix(0.34133333,0,0,0.34133333,506.36667,550.36667)"
         clip-rule="evenodd"
         id="path17" />
    </clipPath>
    <clipPath
       clipPathUnits="userSpaceOnUse"
       id="clipPath18">
      <path
         d="M 3.125,3.125 H 506.25 V 506.25 H 3.125 Z"
         transform="matrix(0.34133333,0,0,0.34133333,-87.961465,-58.633335)"
         clip-rule="evenodd"
         id="path18" />
    </clipPath>
    <clipPath
       clipPathUnits="userSpaceOnUse"
       id="clipPath20">
      <path
         d="M 3.125,3.125 H 506.25 V 506.25 H 3.125 Z"
         transform="matrix(0.34133333,0,0,0.34133333,506.36667,550.36667)"
         clip-rule="evenodd"
         id="path20" />
    </clipPath>
    <clipPath
       clipPathUnits="userSpaceOnUse"
       id="clipPath21">
      <path
         d="M 3.125,3.125 H 506.25 V 506.25 H 3.125 Z"
         transform="matrix(0.34133333,0,0,0.34133333,-90.883335,-120.63334)"
         clip-rule="evenodd"
         id="path21" />
    </clipPath>
  </defs>
  <g
     id="g1">
    <path
       id="path1"
       d="M 0,0 H 163 V 163 H 0 Z"
       style="fill:#ffffff;fill-opacity:1;fill-rule:nonzero;stroke:none"
       clip-path="url(#clipPath2)" />
    <path
       id="path3"
       d="m 509,553 h 160 v 40 H 509 Z"
       style="fill:#ffffff;fill-opacity:1;fill-rule:nonzero;stroke:#000000;stroke-width:1;stroke-linecap:butt;stroke-linejoin:miter;stroke-miterlimit:10;stroke-dasharray:none;stroke-opacity:1"
       transform="matrix(0.93749996,0,0,0.93749996,-474.24998,-515.49998)"
       clip-path="url(#clipPath4)" />
    <text
       id="text4"
       xml:space="preserve"
       transform="matrix(0.93749996,0,0,0.93749996,44.158202,17.46875)"
       clip-path="url(#clipPath5)"><tspan
         id="tspan4"
         style="font-variant:normal;font-weight:normal;font-size:16px;font-family:Arial;writing-mode:lr-tb;fill:#000000;fill-opacity:1;fill-rule:nonzero;stroke:none"
         x="0"
         y="0">«part def»</tspan></text>
    <text
       id="text5"
       xml:space="preserve"
       transform="matrix(0.93749996,0,0,0.93749996,60.007811,36.21875)"
       clip-path="url(#clipPath6)"><tspan
         id="tspan5"
         style="font-variant:normal;font-weight:normal;font-size:16px;font-family:Arial;writing-mode:lr-tb;fill:#000000;fill-opacity:1;fill-rule:nonzero;stroke:none"
         x="0"
         y="0">Part1</tspan></text>
    <path
       id="path7"
       d="m 509,680 h 160 v 40 H 509 Z"
       style="fill:#ffffff;fill-opacity:1;fill-rule:nonzero;stroke:#000000;stroke-width:1;stroke-linecap:butt;stroke-linejoin:miter;stroke-miterlimit:10;stroke-dasharray:none;stroke-opacity:1"
       transform="matrix(0.93749996,0,0,0.93749996,-474.24998,-515.49998)"
       clip-path="url(#clipPath8)" />
    <text
       id="text8"
       xml:space="preserve"
       transform="matrix(0.93749996,0,0,0.93749996,44.158202,136.53125)"
       clip-path="url(#clipPath9)"><tspan
         id="tspan8"
         style="font-variant:normal;font-weight:normal;font-size:16px;font-family:Arial;writing-mode:lr-tb;fill:#000000;fill-opacity:1;fill-rule:nonzero;stroke:none"
         x="0"
         y="0">«part def»</tspan></text>
    <text
       id="text9"
       xml:space="preserve"
       transform="matrix(0.93749996,0,0,0.93749996,60.007811,155.28124)"
       clip-path="url(#clipPath10)"><tspan
         id="tspan9"
         style="font-variant:normal;font-weight:normal;font-size:16px;font-family:Arial;writing-mode:lr-tb;fill:#000000;fill-opacity:1;fill-rule:nonzero;stroke:none"
         x="0"
         y="0">Part2</tspan></text>
    <path
       id="path11"
       d="m 589,593 v 87"
       style="fill:none;stroke:#000000;stroke-width:1;stroke-linecap:butt;stroke-linejoin:miter;stroke-miterlimit:10;stroke-dasharray:none;stroke-opacity:1"
       transform="matrix(0.93749996,0,0,0.93749996,-474.24998,-515.49998)"
       clip-path="url(#clipPath12)" />
    <text
       id="text12"
       xml:space="preserve"
       transform="matrix(0.93749996,0,0,0.93749996,79.343748,78.406248)"
       clip-path="url(#clipPath13)"><tspan
         id="tspan12"
         style="font-variant:normal;font-weight:normal;font-size:12px;font-family:Arial;writing-mode:lr-tb;fill:#000000;fill-opacity:1;fill-rule:nonzero;stroke:none"
         x="0"
         y="0">ConnectionDef1</tspan></text>
    <text
       id="text13"
       xml:space="preserve"
       transform="matrix(0.93749996,0,0,0.93749996,46.677734,113.09375)"
       clip-path="url(#clipPath14)"><tspan
         id="tspan13"
         style="font-variant:normal;font-weight:normal;font-size:12px;font-family:Arial;writing-mode:lr-tb;fill:#000000;fill-opacity:1;fill-rule:nonzero;stroke:none"
         x="0"
         y="0">end2</tspan></text>
    <text
       id="text14"
       xml:space="preserve"
       transform="matrix(0.93749996,0,0,0.93749996,47.615234,54.968749)"
       clip-path="url(#clipPath15)"><tspan
         id="tspan14"
         style="font-variant:normal;font-weight:normal;font-size:12px;font-family:Arial;writing-mode:lr-tb;fill:#000000;fill-opacity:1;fill-rule:nonzero;stroke:none"
         x="0"
         y="0">end1</tspan></text>
    <path
       id="path16"
       d="m 594,599 h 19 v 13 h -19 z"
       style="fill:#ffffff;fill-opacity:1;fill-rule:nonzero;stroke:none"
       transform="matrix(0.93749996,0,0,0.93749996,-474.71873,-515.96873)"
       clip-path="url(#clipPath17)" />
    <text
       id="text17"
       xml:space="preserve"
       transform="matrix(0.93749996,0,0,0.93749996,82.46387,54.968749)"
       clip-path="url(#clipPath18)"><tspan
         id="tspan17"
         style="font-variant:normal;font-weight:normal;font-size:11px;font-family:Arial;writing-mode:lr-tb;fill:#000000;fill-opacity:1;fill-rule:nonzero;stroke:none"
         x="0"
         y="0">0..1</tspan></text>
    <path
       id="path19"
       d="m 597,661 h 17 v 13 h -17 z"
       style="fill:#ffffff;fill-opacity:1;fill-rule:nonzero;stroke:none"
       transform="matrix(0.93749996,0,0,0.93749996,-474.71873,-515.96873)"
       clip-path="url(#clipPath20)" />
    <text
       id="text20"
       xml:space="preserve"
       transform="matrix(0.93749996,0,0,0.93749996,85.203123,113.09375)"
       clip-path="url(#clipPath21)"><tspan
         id="tspan20"
         style="font-variant:normal;font-weight:normal;font-size:11px;font-family:Arial;writing-mode:lr-tb;fill:#000000;fill-opacity:1;fill-rule:nonzero;stroke:none"
         x="0"
         y="0">1..*</tspan></text>
  </g>
</svg>
