<?xml version="1.0" encoding="UTF-8" standalone="no"?>
<!-- Created with Inkscape (http://www.inkscape.org/) -->

<svg
   version="1.1"
   id="svg1"
   width="396.16"
   height="155.84"
   viewBox="0 0 396.16 155.84"
   xmlns="http://www.w3.org/2000/svg"
   xmlns:svg="http://www.w3.org/2000/svg">
  <defs
     id="defs1">
    <clipPath
       clipPathUnits="userSpaceOnUse"
       id="clipPath2">
      <path
         d="M 0,0 H 1235.9863 V 488 H 0 Z"
         transform="scale(0.31999999)"
         clip-rule="evenodd"
         id="path2" />
    </clipPath>
    <clipPath
       clipPathUnits="userSpaceOnUse"
       id="clipPath4">
      <path
         d="m 3.125,0 h 1231.25 V 487.5 H 3.125 Z"
         transform="matrix(0.33701267,0,0,0.33701267,6.879747,-22.053164)"
         clip-rule="evenodd"
         id="path4" />
    </clipPath>
    <clipPath
       clipPathUnits="userSpaceOnUse"
       id="clipPath5">
      <path
         d="m 3.125,0 h 1231.25 V 487.5 H 3.125 Z"
         transform="matrix(0.33701267,0,0,0.33701267,-188.49525,-23.553167)"
         clip-rule="evenodd"
         id="path5" />
    </clipPath>
    <clipPath
       clipPathUnits="userSpaceOnUse"
       id="clipPath7">
      <path
         d="m 3.125,0 h 1231.25 V 487.5 H 3.125 Z"
         transform="matrix(0.33701267,0,0,0.33701267,6.879747,-22.053164)"
         clip-rule="evenodd"
         id="path7" />
    </clipPath>
    <clipPath
       clipPathUnits="userSpaceOnUse"
       id="clipPath8">
      <path
         d="m 3.125,0 h 1231.25 V 487.5 H 3.125 Z"
         transform="matrix(0.33701267,0,0,0.33701267,-54.104628,-55.553167)"
         clip-rule="evenodd"
         id="path8" />
    </clipPath>
    <clipPath
       clipPathUnits="userSpaceOnUse"
       id="clipPath10">
      <path
         d="m 3.125,0 h 1231.25 V 487.5 H 3.125 Z"
         transform="matrix(0.33701267,0,0,0.33701267,6.879747,-22.053164)"
         clip-rule="evenodd"
         id="path10" />
    </clipPath>
    <clipPath
       clipPathUnits="userSpaceOnUse"
       id="clipPath11">
      <path
         d="m 3.125,0 h 1231.25 V 487.5 H 3.125 Z"
         transform="matrix(0.33701267,0,0,0.33701267,-274.10463,-55.553167)"
         clip-rule="evenodd"
         id="path11" />
    </clipPath>
    <clipPath
       clipPathUnits="userSpaceOnUse"
       id="clipPath13">
      <path
         d="m 3.125,0 h 1231.25 V 487.5 H 3.125 Z"
         transform="matrix(0.33701267,0,0,0.33701267,6.879747,-22.053164)"
         clip-rule="evenodd"
         id="path13" />
    </clipPath>
    <clipPath
       clipPathUnits="userSpaceOnUse"
       id="clipPath14">
      <path
         d="m 3.125,0 h 1231.25 V 487.5 H 3.125 Z"
         transform="matrix(0.33701267,0,0,0.33701267,-47.104627,-103.55317)"
         clip-rule="evenodd"
         id="path14" />
    </clipPath>
    <clipPath
       clipPathUnits="userSpaceOnUse"
       id="clipPath16">
      <path
         d="m 3.125,0 h 1231.25 V 487.5 H 3.125 Z"
         transform="matrix(0.33701267,0,0,0.33701267,6.879747,-22.053164)"
         clip-rule="evenodd"
         id="path16" />
    </clipPath>
    <clipPath
       clipPathUnits="userSpaceOnUse"
       id="clipPath17">
      <path
         d="m 3.125,0 h 1231.25 V 487.5 H 3.125 Z"
         transform="matrix(0.33701267,0,0,0.33701267,-279.10464,-103.55317)"
         clip-rule="evenodd"
         id="path17" />
    </clipPath>
    <clipPath
       clipPathUnits="userSpaceOnUse"
       id="clipPath19">
      <path
         d="m 3.125,0 h 1231.25 V 487.5 H 3.125 Z"
         transform="matrix(0.33701267,0,0,0.33701267,6.879747,-22.053164)"
         clip-rule="evenodd"
         id="path19" />
    </clipPath>
  </defs>
  <g
     id="g1">
    <path
       id="path1"
       d="M 0,0 H 396 V 156 H 0 Z"
       style="fill:#ffffff;fill-opacity:1;fill-rule:nonzero;stroke:none"
       clip-path="url(#clipPath2)" />
    <path
       id="path3"
       d="M 10,-20 H 420 V 140 H 10 Z"
       style="fill:#ffffff;fill-opacity:1;fill-rule:nonzero;stroke:#000000;stroke-width:1;stroke-linecap:butt;stroke-linejoin:miter;stroke-miterlimit:10;stroke-dasharray:none;stroke-opacity:1"
       transform="matrix(0.94951916,0,0,0.94951916,-6.5324516,20.939902)"
       clip-path="url(#clipPath4)" />
    <text
       id="text4"
       xml:space="preserve"
       transform="matrix(0.94951916,0,0,0.94951916,178.97985,22.364183)"
       clip-path="url(#clipPath5)"><tspan
         id="tspan4"
         style="font-variant:normal;font-weight:normal;font-size:16px;font-family:Arial;writing-mode:lr-tb;fill:#000000;fill-opacity:1;fill-rule:nonzero;stroke:none"
         x="0"
         y="0">Part1</tspan></text>
    <path
       id="path6"
       d="m 28.5,12 h 153 c 0.72932,0 1.43091,0.139554 2.10474,0.418662 0.67382,0.279107 1.26861,0.676524 1.78434,1.192249 0.51571,0.515725 0.91312,1.110501 1.19223,1.784328 0.2791,0.673828 0.41867,1.375416 0.41869,2.104761 v 99 c -2e-5,0.72934 -0.13959,1.43092 -0.41869,2.10475 -0.27911,0.67382 -0.67652,1.2686 -1.19223,1.78433 -0.51573,0.51572 -1.11052,0.91314 -1.78434,1.19224 -0.67383,0.27911 -1.37542,0.41867 -2.10474,0.41868 h -153 c -0.729347,-1e-5 -1.430935,-0.13957 -2.104761,-0.41868 -0.673828,-0.2791 -1.268604,-0.67652 -1.784327,-1.19224 -0.515726,-0.51573 -0.913143,-1.11051 -1.192251,-1.78433 C 23.139553,117.93092 22.999998,117.22934 23,116.5 v -99 c -2e-6,-0.729345 0.139553,-1.430933 0.418661,-2.10476 0.279108,-0.673828 0.676525,-1.268604 1.192251,-1.784329 0.515723,-0.515725 1.110499,-0.913142 1.784327,-1.19225 C 27.069065,12.139554 27.770653,12 28.5,12 Z"
       style="fill:#ffffff;fill-opacity:1;fill-rule:nonzero;stroke:#000000;stroke-width:1;stroke-linecap:butt;stroke-linejoin:miter;stroke-miterlimit:10;stroke-dasharray:none;stroke-opacity:1"
       transform="matrix(0.94951916,0,0,0.94951916,-6.5324516,20.939902)"
       clip-path="url(#clipPath7)" />
    <text
       id="text7"
       xml:space="preserve"
       transform="matrix(0.94951916,0,0,0.94951916,51.373381,52.748796)"
       clip-path="url(#clipPath8)"><tspan
         id="tspan7"
         style="font-variant:normal;font-weight:normal;font-size:16px;font-family:Arial;writing-mode:lr-tb;fill:#000000;fill-opacity:1;fill-rule:nonzero;stroke:none"
         x="0"
         y="0">part2 : Part2</tspan></text>
    <path
       id="path9"
       d="m 248.5,12 h 153 c 0.72931,0 1.43088,0.139554 2.10471,0.418662 0.67382,0.279107 1.26861,0.676524 1.78436,1.192249 0.51572,0.515725 0.91315,1.110501 1.19223,1.784328 0.27911,0.673828 0.41867,1.375416 0.4187,2.104761 v 99 c -3e-5,0.72934 -0.13959,1.43092 -0.4187,2.10475 -0.27908,0.67382 -0.67651,1.2686 -1.19223,1.78433 -0.51575,0.51572 -1.11054,0.91314 -1.78433,1.19224 -0.67386,0.27911 -1.37543,0.41867 -2.10474,0.41868 h -153 c -0.72935,-1e-5 -1.43095,-0.13957 -2.10478,-0.41868 -0.67383,-0.2791 -1.2686,-0.67652 -1.78432,-1.19224 -0.51573,-0.51573 -0.91315,-1.11051 -1.19226,-1.78433 C 243.13954,117.93092 242.99998,117.22934 243,116.5 v -99 c -2e-5,-0.729345 0.13954,-1.430933 0.41866,-2.10476 0.27909,-0.673828 0.67651,-1.268604 1.19224,-1.784329 0.51572,-0.515725 1.11049,-0.913142 1.78432,-1.19225 C 247.06905,12.139554 247.77065,12 248.5,12 Z"
       style="fill:#ffffff;fill-opacity:1;fill-rule:nonzero;stroke:#000000;stroke-width:1;stroke-linecap:butt;stroke-linejoin:miter;stroke-miterlimit:10;stroke-dasharray:none;stroke-opacity:1"
       transform="matrix(0.94951916,0,0,0.94951916,-6.5324516,20.939902)"
       clip-path="url(#clipPath10)" />
    <text
       id="text10"
       xml:space="preserve"
       transform="matrix(0.94951916,0,0,0.94951916,260.2676,52.748796)"
       clip-path="url(#clipPath11)"><tspan
         id="tspan10"
         style="font-variant:normal;font-weight:normal;font-size:16px;font-family:Arial;writing-mode:lr-tb;fill:#000000;fill-opacity:1;fill-rule:nonzero;stroke:none"
         x="0"
         y="0">part3 : Part3</tspan></text>
    <path
       id="path12"
       d="m 45.5,51 h 105 c 0.3315,0 0.65039,0.06343 0.95668,0.1903 0.30629,0.126865 0.57664,0.30751 0.81107,0.541931 0.23442,0.234417 0.41505,0.504769 0.54193,0.811054 0.12687,0.306286 0.1903,0.625191 0.19032,0.956715 v 45 c -2e-5,0.331512 -0.0634,0.650414 -0.19032,0.956696 -0.12688,0.306282 -0.30751,0.576634 -0.54193,0.811064 -0.23443,0.23441 -0.50478,0.41506 -0.81107,0.54193 -0.30629,0.12686 -0.62518,0.1903 -0.95668,0.19031 h -105 c -0.331524,-1e-5 -0.650429,-0.0635 -0.956715,-0.19031 C 44.237,100.68282 43.966648,100.50217 43.732231,100.26776 43.49781,100.03333 43.317165,99.762978 43.1903,99.456696 43.063431,99.150414 42.999996,98.831512 43,98.5 v -45 c -4e-6,-0.331524 0.06343,-0.650429 0.1903,-0.956715 C 43.317165,52.237 43.49781,51.966648 43.732231,51.732231 43.966648,51.49781 44.237,51.317165 44.543285,51.1903 44.849571,51.063435 45.168476,51 45.5,51 Z"
       style="fill:#ffffff;fill-opacity:1;fill-rule:nonzero;stroke:#000000;stroke-width:1;stroke-linecap:butt;stroke-linejoin:miter;stroke-miterlimit:10;stroke-dasharray:none;stroke-opacity:1"
       transform="matrix(0.94951916,0,0,0.94951916,-6.5324516,20.939902)"
       clip-path="url(#clipPath13)" />
    <text
       id="text13"
       xml:space="preserve"
       transform="matrix(0.94951916,0,0,0.94951916,44.726746,98.325716)"
       clip-path="url(#clipPath14)"><tspan
         id="tspan13"
         style="font-variant:normal;font-weight:normal;font-size:16px;font-family:Arial;writing-mode:lr-tb;fill:#000000;fill-opacity:1;fill-rule:nonzero;stroke:none"
         x="0"
         y="0">part4 : Part4</tspan></text>
    <path
       id="path15"
       d="m 277.5,51 h 105 c 0.33148,0 0.65036,0.06343 0.95663,0.1903 0.30631,0.126865 0.57666,0.30751 0.8111,0.541931 0.23441,0.234417 0.41504,0.504769 0.5419,0.811054 0.12689,0.306286 0.19034,0.625191 0.19037,0.956715 v 45 c -3e-5,0.331512 -0.0635,0.650414 -0.19037,0.956696 -0.12686,0.306282 -0.30749,0.576634 -0.5419,0.811064 -0.23444,0.23441 -0.50479,0.41506 -0.81106,0.54193 -0.30631,0.12686 -0.62519,0.1903 -0.95667,0.19031 h -105 c -0.33154,-1e-5 -0.65045,-0.0635 -0.95676,-0.19031 -0.3063,-0.12687 -0.57663,-0.30752 -0.81103,-0.54193 -0.23444,-0.23443 -0.41507,-0.504782 -0.54193,-0.811064 C 275.06342,99.150414 274.99997,98.831512 275,98.5 v -45 c -3e-5,-0.331524 0.0634,-0.650429 0.19025,-0.956715 0.12686,-0.306285 0.30752,-0.576637 0.54196,-0.811054 0.2344,-0.234421 0.50473,-0.415066 0.81103,-0.541931 C 276.84955,51.063435 277.16846,51 277.5,51 Z"
       style="fill:#ffffff;fill-opacity:1;fill-rule:nonzero;stroke:#000000;stroke-width:1;stroke-linecap:butt;stroke-linejoin:miter;stroke-miterlimit:10;stroke-dasharray:none;stroke-opacity:1"
       transform="matrix(0.94951916,0,0,0.94951916,-6.5324516,20.939902)"
       clip-path="url(#clipPath16)" />
    <text
       id="text16"
       xml:space="preserve"
       transform="matrix(0.94951916,0,0,0.94951916,265.0152,98.325716)"
       clip-path="url(#clipPath17)"><tspan
         id="tspan16"
         style="font-variant:normal;font-weight:normal;font-size:16px;font-family:Arial;writing-mode:lr-tb;fill:#000000;fill-opacity:1;fill-rule:nonzero;stroke:none"
         x="0"
         y="0">part5 : Part5</tspan></text>
    <path
       id="path18"
       d="M 153,76 H 275"
       style="fill:none;stroke:#000000;stroke-width:1;stroke-linecap:butt;stroke-linejoin:miter;stroke-miterlimit:10;stroke-dasharray:none;stroke-opacity:1"
       transform="matrix(0.94951916,0,0,0.94951916,-6.5324516,20.939902)"
       clip-path="url(#clipPath19)" />
  </g>
</svg>
