<?xml version="1.0" encoding="UTF-8" standalone="no"?>
<!-- Created with Inkscape (http://www.inkscape.org/) -->

<svg
   version="1.1"
   id="svg1"
   width="386.55997"
   height="174.71999"
   viewBox="0 0 386.55997 174.71999"
   xmlns="http://www.w3.org/2000/svg"
   xmlns:svg="http://www.w3.org/2000/svg">
  <defs
     id="defs1">
    <clipPath
       clipPathUnits="userSpaceOnUse"
       id="clipPath2">
      <path
         d="M 0,0 H 1208.9844 V 545.99609 H 0 Z"
         transform="scale(0.31999999)"
         clip-rule="evenodd"
         id="path2" />
    </clipPath>
    <clipPath
       clipPathUnits="userSpaceOnUse"
       id="clipPath4">
      <path
         d="M 3.125,0 H 1206.25 V 545.99609 H 3.125 Z"
         transform="matrix(0.33626629,0,0,0.33626629,446.88111,-42.050832)"
         clip-rule="evenodd"
         id="path4" />
    </clipPath>
    <clipPath
       clipPathUnits="userSpaceOnUse"
       id="clipPath5">
      <path
         d="M 3.125,0 H 1206.25 V 545.99609 H 3.125 Z"
         transform="matrix(0.33626629,0,0,0.33626629,-166.58763,-23.55083)"
         clip-rule="evenodd"
         id="path5" />
    </clipPath>
    <clipPath
       clipPathUnits="userSpaceOnUse"
       id="clipPath6">
      <path
         d="M 3.125,0 H 1206.25 V 545.99609 H 3.125 Z"
         transform="matrix(0.33626629,0,0,0.33626629,-183.49388,-42.55083)"
         clip-rule="evenodd"
         id="path6" />
    </clipPath>
    <clipPath
       clipPathUnits="userSpaceOnUse"
       id="clipPath8">
      <path
         d="M 3.125,0 H 1206.25 V 545.99609 H 3.125 Z"
         transform="matrix(0.33626629,0,0,0.33626629,446.88111,-42.050832)"
         clip-rule="evenodd"
         id="path8" />
    </clipPath>
    <clipPath
       clipPathUnits="userSpaceOnUse"
       id="clipPath9">
      <path
         d="M 3.125,0 H 1206.25 V 545.99609 H 3.125 Z"
         transform="matrix(0.33626629,0,0,0.33626629,-68.915759,-63.55083)"
         clip-rule="evenodd"
         id="path9" />
    </clipPath>
    <clipPath
       clipPathUnits="userSpaceOnUse"
       id="clipPath10">
      <path
         d="M 3.125,0 H 1206.25 V 545.99609 H 3.125 Z"
         transform="matrix(0.33626629,0,0,0.33626629,-47.587629,-82.55083)"
         clip-rule="evenodd"
         id="path10" />
    </clipPath>
    <clipPath
       clipPathUnits="userSpaceOnUse"
       id="clipPath12">
      <path
         d="M 3.125,0 H 1206.25 V 545.99609 H 3.125 Z"
         transform="matrix(0.33626629,0,0,0.33626629,446.88111,-42.050832)"
         clip-rule="evenodd"
         id="path12" />
    </clipPath>
    <clipPath
       clipPathUnits="userSpaceOnUse"
       id="clipPath14">
      <path
         d="M 3.125,0 H 1206.25 V 545.99609 H 3.125 Z"
         transform="matrix(0.33626629,0,0,0.33626629,446.88111,-42.050832)"
         clip-rule="evenodd"
         id="path14" />
    </clipPath>
    <clipPath
       clipPathUnits="userSpaceOnUse"
       id="clipPath15">
      <path
         d="M 3.125,0 H 1206.25 V 545.99609 H 3.125 Z"
         transform="matrix(0.33626629,0,0,0.33626629,-61.884509,-116.55083)"
         clip-rule="evenodd"
         id="path15" />
    </clipPath>
    <clipPath
       clipPathUnits="userSpaceOnUse"
       id="clipPath16">
      <path
         d="M 3.125,0 H 1206.25 V 545.99609 H 3.125 Z"
         transform="matrix(0.33626629,0,0,0.33626629,-46.322009,-135.55083)"
         clip-rule="evenodd"
         id="path16" />
    </clipPath>
    <clipPath
       clipPathUnits="userSpaceOnUse"
       id="clipPath18">
      <path
         d="M 3.125,0 H 1206.25 V 545.99609 H 3.125 Z"
         transform="matrix(0.33626629,0,0,0.33626629,446.88111,-42.050832)"
         clip-rule="evenodd"
         id="path18" />
    </clipPath>
    <clipPath
       clipPathUnits="userSpaceOnUse"
       id="clipPath19">
      <path
         d="M 3.125,0 H 1206.25 V 545.99609 H 3.125 Z"
         transform="matrix(0.33626629,0,0,0.33626629,-290.43138,-63.55083)"
         clip-rule="evenodd"
         id="path19" />
    </clipPath>
    <clipPath
       clipPathUnits="userSpaceOnUse"
       id="clipPath20">
      <path
         d="M 3.125,0 H 1206.25 V 545.99609 H 3.125 Z"
         transform="matrix(0.33626629,0,0,0.33626629,-269.10326,-82.55083)"
         clip-rule="evenodd"
         id="path20" />
    </clipPath>
    <clipPath
       clipPathUnits="userSpaceOnUse"
       id="clipPath22">
      <path
         d="M 3.125,0 H 1206.25 V 545.99609 H 3.125 Z"
         transform="matrix(0.33626629,0,0,0.33626629,446.88111,-42.050832)"
         clip-rule="evenodd"
         id="path22" />
    </clipPath>
    <clipPath
       clipPathUnits="userSpaceOnUse"
       id="clipPath23">
      <path
         d="M 3.125,0 H 1206.25 V 545.99609 H 3.125 Z"
         transform="matrix(0.33626629,0,0,0.33626629,-290.43138,-116.55083)"
         clip-rule="evenodd"
         id="path23" />
    </clipPath>
    <clipPath
       clipPathUnits="userSpaceOnUse"
       id="clipPath24">
      <path
         d="M 3.125,0 H 1206.25 V 545.99609 H 3.125 Z"
         transform="matrix(0.33626629,0,0,0.33626629,-269.10326,-135.55083)"
         clip-rule="evenodd"
         id="path24" />
    </clipPath>
    <clipPath
       clipPathUnits="userSpaceOnUse"
       id="clipPath26">
      <path
         d="M 3.125,0 H 1206.25 V 545.99609 H 3.125 Z"
         transform="matrix(0.33626629,0,0,0.33626629,446.88111,-42.050832)"
         clip-rule="evenodd"
         id="path26" />
    </clipPath>
    <clipPath
       clipPathUnits="userSpaceOnUse"
       id="clipPath27">
      <path
         d="M 3.125,0 H 1206.25 V 545.99609 H 3.125 Z"
         transform="matrix(0.33626629,0,0,0.33626629,-200.61888,-124.55083)"
         clip-rule="evenodd"
         id="path27" />
    </clipPath>
  </defs>
  <g
     id="g1">
    <path
       id="path1"
       d="M 0,0 H 387 V 175 H 0 Z"
       style="fill:#ffffff;fill-opacity:1;fill-rule:nonzero;stroke:none"
       clip-path="url(#clipPath2)" />
    <path
       id="path3"
       d="M 450,-40 H 850 V 140 H 450 Z"
       style="fill:#ffffff;fill-opacity:1;fill-rule:nonzero;stroke:#000000;stroke-width:1;stroke-linecap:butt;stroke-linejoin:miter;stroke-miterlimit:10;stroke-dasharray:none;stroke-opacity:1"
       transform="matrix(0.95162671,0,0,0.95162671,-425.264,40.016695)"
       clip-path="url(#clipPath4)" />
    <text
       id="text4"
       xml:space="preserve"
       transform="matrix(0.95162671,0,0,0.95162671,158.52924,22.411599)"
       clip-path="url(#clipPath5)"><tspan
         id="tspan4"
         style="font-variant:normal;font-weight:normal;font-size:16px;font-family:Arial;writing-mode:lr-tb;fill:#000000;fill-opacity:1;fill-rule:nonzero;stroke:none"
         x="0"
         y="0">«part def»</tspan></text>
    <text
       id="text5"
       xml:space="preserve"
       transform="matrix(0.95162671,0,0,0.95162671,174.61768,40.492506)"
       clip-path="url(#clipPath6)"><tspan
         id="tspan5"
         style="font-variant:normal;font-weight:normal;font-size:16px;font-family:Arial;writing-mode:lr-tb;fill:#000000;fill-opacity:1;fill-rule:nonzero;stroke:none"
         x="0"
         y="0">Part1</tspan></text>
    <path
       id="path7"
       d="m 463.67001,2 h 150.00003 c 0.66303,0 1.30079,0.1268673 1.91333,0.3806021 0.61261,0.2537348 1.15332,0.6150227 1.62214,1.0838638 0.46881,0.4688403 0.83013,1.009546 1.08386,1.6221163 0.25372,0.6125703 0.38061,1.2503762 0.38067,1.9134178 v 120 c -6e-5,0.66303 -0.12695,1.30084 -0.38067,1.91341 -0.25373,0.61256 -0.61505,1.15327 -1.08386,1.62213 -0.46882,0.46882 -1.00953,0.83012 -1.62214,1.08386 -0.61254,0.25372 -1.2503,0.38058 -1.91333,0.3806 H 463.67001 c -0.66305,-2e-5 -1.3009,-0.12688 -1.91348,-0.3806 -0.61258,-0.25374 -1.15326,-0.61504 -1.62207,-1.08386 -0.46887,-0.46886 -0.83017,-1.00957 -1.08392,-1.62213 -0.25373,-0.61257 -0.38056,-1.25038 -0.38053,-1.91341 V 7 c -3e-5,-0.6630416 0.1268,-1.3008475 0.38056,-1.9134178 0.25372,-0.6125703 0.61502,-1.153276 1.08389,-1.6221163 0.46881,-0.4688411 1.00952,-0.830129 1.6221,-1.0838638 C 462.36914,2.1268673 463.00696,2 463.67001,2 Z"
       style="fill:#ffffff;fill-opacity:1;fill-rule:nonzero;stroke:#000000;stroke-width:1;stroke-linecap:butt;stroke-linejoin:miter;stroke-miterlimit:10;stroke-dasharray:none;stroke-opacity:1"
       transform="matrix(0.95162671,0,0,0.95162671,-425.264,40.016695)"
       clip-path="url(#clipPath8)" />
    <text
       id="text8"
       xml:space="preserve"
       transform="matrix(0.95162671,0,0,0.95162671,65.582077,60.476667)"
       clip-path="url(#clipPath9)"><tspan
         id="tspan8"
         style="font-variant:normal;font-weight:normal;font-size:16px;font-family:Arial;writing-mode:lr-tb;fill:#000000;fill-opacity:1;fill-rule:nonzero;stroke:none"
         x="0"
         y="0">«part»</tspan></text>
    <text
       id="text9"
       xml:space="preserve"
       transform="matrix(0.95162671,0,0,0.95162671,45.285659,78.557575)"
       clip-path="url(#clipPath10)"><tspan
         id="tspan9"
         style="font-variant:normal;font-weight:normal;font-size:16px;font-family:Arial;writing-mode:lr-tb;fill:#000000;fill-opacity:1;fill-rule:nonzero;stroke:none"
         x="0"
         y="0">part2 : Part2</tspan></text>
    <path
       id="path11"
       d="m 493,54.5 h 100 c 0.66302,0 1.30078,0.126865 1.91339,0.3806 0.61261,0.253735 1.15332,0.615021 1.62213,1.083866 0.46881,0.468838 0.83008,1.009541 1.0838,1.622112 C 597.87305,58.19915 597.99994,58.836956 598,59.5 V 117 c -6e-5,0.66303 -0.12695,1.30083 -0.38068,1.91341 -0.25372,0.61257 -0.61499,1.15327 -1.0838,1.62212 -0.46881,0.46883 -1.00952,0.83012 -1.62213,1.08385 C 594.30078,121.87312 593.66302,121.99999 593,122 H 493 c -0.66306,-1e-5 -1.30087,-0.12688 -1.91345,-0.38062 -0.61258,-0.25373 -1.15329,-0.61502 -1.6221,-1.08385 -0.46888,-0.46885 -0.83017,-1.00955 -1.0839,-1.62212 C 488.12683,118.30083 487.99997,117.66303 488,117 V 59.5 c -3e-5,-0.663044 0.12683,-1.30085 0.38055,-1.913422 0.25373,-0.612571 0.61502,-1.153274 1.0839,-1.622112 0.46881,-0.468845 1.00949,-0.830131 1.62207,-1.083866 C 491.6991,54.626865 492.33694,54.5 493,54.5 Z"
       style="fill:#ffffff;fill-opacity:1;fill-rule:nonzero;stroke:none"
       transform="matrix(0.95162671,0,0,0.95162671,-425.264,40.016695)"
       clip-path="url(#clipPath12)" />
    <path
       id="path13"
       d="m 499,54 h 3 v 1 h -3 z m 6,0 h 3 v 1 h -3 z m 6,0 h 3 v 1 h -3 z m 6,0 h 3 v 1 h -3 z m 6,0 h 3 v 1 h -3 z m 6,0 h 3 v 1 h -3 z m 6,0 h 3 v 1 h -3 z m 6,0 h 3 v 1 h -3 z m 6,0 h 3 v 1 h -3 z m 6,0 h 3 v 1 h -3 z m 6,0 h 3 v 1 h -3 z m 6,0 h 3 v 1 h -3 z m 6,0 h 3 v 1 h -3 z m 6,0 h 3 v 1 h -3 z m 6,0 h 3 v 1 h -3 z m 6,0 h 3 v 1 h -3 z m 6.11627,0.423447 c 1.12726,0.469913 2.00104,1.230888 2.6214,2.282924 l -0.86133,0.507943 c -0.50757,-0.860741 -1.22253,-1.483361 -2.14483,-1.867856 z M 598.5,59.846344 v 3 h -1 v -3 z m 0,6 v 3 h -1 v -3 z m 0,6 v 3 h -1 v -3 z m 0,6 v 3 h -1 v -3 z m 0,6 v 3 h -1 v -3 z m 0,6 v 3 h -1 v -3 z m 0,6 v 3 h -1 v -3 z m 0,5.999996 v 3 h -1 v -3 z m 0,6 v 3 h -1 v -3 z m 0,6 v 3 h -1 v -3 z m -0.88123,6.13983 c -0.66174,1.0236 -1.56408,1.74724 -2.70709,2.17092 l -0.34753,-0.93765 c 0.93506,-0.34662 1.67334,-0.93869 2.21478,-1.77619 z M 591.80731,122.5 h -3 v -1 h 3 z m -6,0 h -3 v -1 h 3 z m -6,0 h -3 v -1 h 3 z m -6,0 h -3 v -1 h 3 z m -6,0 h -3 v -1 h 3 z m -6,0 h -3 v -1 h 3 z m -6,0 h -3 v -1 h 3 z m -6,0 h -3 v -1 h 3 z m -6,0 h -3 v -1 h 3 z m -6,0 h -3 v -1 h 3 z m -6,0 h -3 v -1 h 3 z m -6,0 h -3 v -1 h 3 z m -6,0 h -3 v -1 h 3 z m -6,0 h -3 v -1 h 3 z m -6,0 h -3 v -1 h 3 z m -6,0 h -3 v -1 h 3 z m -6,0 H 493 c -0.0658,0 -0.13156,-0.001 -0.19724,-0.004 l 0.0359,-0.99936 c 0.0538,0.002 0.10758,0.003 0.16135,0.003 h 2.80731 v 1 z m -6.12854,-1.116 c -0.96597,-0.73182 -1.61877,-1.67942 -1.95843,-2.84281 l 0.9599,-0.28026 c 0.27789,0.95186 0.81204,1.72719 1.60241,2.32598 z M 487.5,115.46097 v -3 h 1 v 3 z m 0,-6 v -3 h 1 v 3 z m 0,-6 v -3 h 1 v 3 z m 0,-6.000002 v -3 h 1 v 3 z m 0,-6 v -3 h 1 v 3 z m 0,-6 v -3 h 1 v 3 z m 0,-6 v -3 h 1 v 3 z m 0,-6 v -3 h 1 v 3 z m 0,-6 v -3 h 1 v 3 z m 0,-6 V 59.5 c 0,-0.366539 0.0362,-0.729454 0.1088,-1.088741 l 0.98022,0.197883 C 488.52966,58.903122 488.5,59.200077 488.5,59.5 v 1.960968 z m 1.79358,-6.024548 c 0.87277,-0.795978 1.89572,-1.262428 3.06891,-1.399349 l 0.1159,0.993256 c -0.95987,0.112026 -1.79687,0.493679 -2.51098,1.144955 z M 493,54 h 3 v 1 h -3 z"
       style="fill:#000000;fill-opacity:1;fill-rule:nonzero;stroke:none"
       transform="matrix(0.95162671,0,0,0.95162671,-425.264,40.016695)"
       clip-path="url(#clipPath14)" />
    <text
       id="text14"
       xml:space="preserve"
       transform="matrix(0.95162671,0,0,0.95162671,58.890952,110.91288)"
       clip-path="url(#clipPath15)"><tspan
         id="tspan14"
         style="font-variant:normal;font-weight:normal;font-size:16px;font-family:Arial;writing-mode:lr-tb;fill:#000000;fill-opacity:1;fill-rule:nonzero;stroke:none"
         x="0"
         y="0">«ref part»</tspan></text>
    <text
       id="text15"
       xml:space="preserve"
       transform="matrix(0.95162671,0,0,0.95162671,44.081261,128.99379)"
       clip-path="url(#clipPath16)"><tspan
         id="tspan15"
         style="font-variant:normal;font-weight:normal;font-size:16px;font-family:Arial;writing-mode:lr-tb;fill:#000000;fill-opacity:1;fill-rule:nonzero;stroke:none"
         x="0"
         y="0">part4R : Part4</tspan></text>
    <path
       id="path17"
       d="m 684.66998,2 h 150 c 0.66297,0 1.30072,0.1268673 1.91333,0.3806021 0.61249,0.2537348 1.1532,0.6150227 1.62213,1.0838638 0.46882,0.4688403 0.83008,1.009546 1.08381,1.6221163 0.25372,0.6125703 0.38067,1.2503762 0.38073,1.9134178 v 120 c -6e-5,0.66303 -0.12695,1.30084 -0.38067,1.91341 -0.25379,0.61256 -0.61505,1.15327 -1.08387,1.62213 -0.46893,0.46882 -1.00964,0.83012 -1.62213,1.08386 -0.61261,0.25372 -1.25036,0.38058 -1.91333,0.3806 h -150 c -0.66308,-2e-5 -1.3009,-0.12688 -1.91351,-0.3806 -0.61261,-0.25374 -1.15332,-0.61504 -1.62213,-1.08386 -0.46881,-0.46886 -0.83008,-1.00957 -1.08386,-1.62213 -0.25367,-0.61257 -0.3805,-1.25038 -0.3805,-1.91341 V 7 c 0,-0.6630416 0.12683,-1.3008475 0.3805,-1.9134178 0.25378,-0.6125703 0.61505,-1.153276 1.08386,-1.6221163 0.46881,-0.4688411 1.00952,-0.830129 1.62213,-1.0838638 C 683.36908,2.1268673 684.0069,2 684.66998,2 Z"
       style="fill:#ffffff;fill-opacity:1;fill-rule:nonzero;stroke:#000000;stroke-width:1;stroke-linecap:butt;stroke-linejoin:miter;stroke-miterlimit:10;stroke-dasharray:none;stroke-opacity:1"
       transform="matrix(0.95162671,0,0,0.95162671,-425.264,40.016695)"
       clip-path="url(#clipPath18)" />
    <text
       id="text18"
       xml:space="preserve"
       transform="matrix(0.95162671,0,0,0.95162671,276.38226,60.476667)"
       clip-path="url(#clipPath19)"><tspan
         id="tspan18"
         style="font-variant:normal;font-weight:normal;font-size:16px;font-family:Arial;writing-mode:lr-tb;fill:#000000;fill-opacity:1;fill-rule:nonzero;stroke:none"
         x="0"
         y="0">«part»</tspan></text>
    <text
       id="text19"
       xml:space="preserve"
       transform="matrix(0.95162671,0,0,0.95162671,256.08585,78.557575)"
       clip-path="url(#clipPath20)"><tspan
         id="tspan19"
         style="font-variant:normal;font-weight:normal;font-size:16px;font-family:Arial;writing-mode:lr-tb;fill:#000000;fill-opacity:1;fill-rule:nonzero;stroke:none"
         x="0"
         y="0">part3 : Part3</tspan></text>
    <path
       id="path21"
       d="m 709.66998,54.5 h 100 c 0.66297,0 1.30072,0.126865 1.91333,0.3806 0.61249,0.253735 1.1532,0.615021 1.62213,1.083866 0.46882,0.468838 0.83008,1.009541 1.08381,1.622112 0.25378,0.612572 0.38067,1.250378 0.38073,1.913422 v 57.51 c -6e-5,0.66303 -0.12689,1.30084 -0.38061,1.91341 -0.25385,0.61257 -0.61511,1.15328 -1.08393,1.62212 -0.46893,0.46884 -1.00964,0.83012 -1.62219,1.08386 -0.61255,0.25373 -1.2503,0.38061 -1.91327,0.38061 h -100 c -0.66308,0 -1.3009,-0.12688 -1.91345,-0.38061 -0.61261,-0.25374 -1.15332,-0.61502 -1.62213,-1.08386 -0.46887,-0.46884 -0.83014,-1.00954 -1.08386,-1.62211 -0.25373,-0.61258 -0.38062,-1.25039 -0.38056,-1.91342 V 59.5 c -6e-5,-0.663044 0.12683,-1.30085 0.38056,-1.913422 0.25372,-0.612571 0.61499,-1.153274 1.08386,-1.622112 0.46881,-0.468845 1.00952,-0.830131 1.62207,-1.083866 0.61261,-0.253735 1.25043,-0.3806 1.91351,-0.3806 z"
       style="fill:#ffffff;fill-opacity:1;fill-rule:nonzero;stroke:#000000;stroke-width:1;stroke-linecap:butt;stroke-linejoin:miter;stroke-miterlimit:10;stroke-dasharray:none;stroke-opacity:1"
       transform="matrix(0.95162671,0,0,0.95162671,-425.264,40.016695)"
       clip-path="url(#clipPath22)" />
    <text
       id="text22"
       xml:space="preserve"
       transform="matrix(0.95162671,0,0,0.95162671,276.38226,110.91288)"
       clip-path="url(#clipPath23)"><tspan
         id="tspan22"
         style="font-variant:normal;font-weight:normal;font-size:16px;font-family:Arial;writing-mode:lr-tb;fill:#000000;fill-opacity:1;fill-rule:nonzero;stroke:none"
         x="0"
         y="0">«part»</tspan></text>
    <text
       id="text23"
       xml:space="preserve"
       transform="matrix(0.95162671,0,0,0.95162671,256.08585,128.99379)"
       clip-path="url(#clipPath24)"><tspan
         id="tspan23"
         style="font-variant:normal;font-weight:normal;font-size:16px;font-family:Arial;writing-mode:lr-tb;fill:#000000;fill-opacity:1;fill-rule:nonzero;stroke:none"
         x="0"
         y="0">part4 : Part4</tspan></text>
    <path
       id="path25"
       d="M 598,88.25 H 704.66998"
       style="fill:none;stroke:#000000;stroke-width:1;stroke-linecap:butt;stroke-linejoin:miter;stroke-miterlimit:10;stroke-dasharray:none;stroke-opacity:1"
       transform="matrix(0.95162671,0,0,0.95162671,-425.264,40.016695)"
       clip-path="url(#clipPath26)" />
    <text
       id="text26"
       xml:space="preserve"
       transform="matrix(0.95162671,0,0,0.95162671,190.91428,118.5259)"
       clip-path="url(#clipPath27)"><tspan
         id="tspan26"
         style="font-variant:normal;font-weight:normal;font-size:12px;font-family:Arial;writing-mode:lr-tb;fill:#000000;fill-opacity:1;fill-rule:nonzero;stroke:none"
         x="0"
         y="0">=</tspan></text>
  </g>
</svg>
