<?xml version="1.0" encoding="UTF-8" standalone="no"?>
<!-- Created with Inkscape (http://www.inkscape.org/) -->

<svg
   version="1.1"
   id="svg1"
   width="234.56"
   height="108.15999"
   viewBox="0 0 234.56 108.15999"
   xmlns="http://www.w3.org/2000/svg"
   xmlns:svg="http://www.w3.org/2000/svg">
  <defs
     id="defs1">
    <clipPath
       clipPathUnits="userSpaceOnUse"
       id="clipPath2">
      <path
         d="M 0,0 H 731.98242 V 339 H 0 Z"
         transform="scale(0.31999999)"
         clip-rule="evenodd"
         id="path2" />
    </clipPath>
    <clipPath
       clipPathUnits="userSpaceOnUse"
       id="clipPath4">
      <path
         d="m 3.125,0 h 725 v 337.5 h -725 z"
         transform="matrix(0.33957257,0,0,0.33957257,514.86991,2717.9387)"
         clip-rule="evenodd"
         id="path4" />
    </clipPath>
    <clipPath
       clipPathUnits="userSpaceOnUse"
       id="clipPath6">
      <path
         d="m 3.125,0 h 725 v 337.5 h -725 z"
         transform="matrix(0.33957257,0,0,0.33957257,514.86991,2717.9387)"
         clip-rule="evenodd"
         id="path6" />
    </clipPath>
    <clipPath
       clipPathUnits="userSpaceOnUse"
       id="clipPath8">
      <path
         d="m 3.125,0 h 725 v 337.5 h -725 z"
         transform="matrix(0.33957257,0,0,0.33957257,514.86991,2717.9387)"
         clip-rule="evenodd"
         id="path8" />
    </clipPath>
    <clipPath
       clipPathUnits="userSpaceOnUse"
       id="clipPath9">
      <path
         d="m 3.125,0 h 725 v 337.5 h -725 z"
         transform="matrix(0.33957257,0,0,0.33957257,-76.536353,-23.561386)"
         clip-rule="evenodd"
         id="path9" />
    </clipPath>
    <clipPath
       clipPathUnits="userSpaceOnUse"
       id="clipPath10">
      <path
         d="m 3.125,0 h 725 v 337.5 h -725 z"
         transform="matrix(0.33957257,0,0,0.33957257,-16.942603,-42.561386)"
         clip-rule="evenodd"
         id="path10" />
    </clipPath>
    <clipPath
       clipPathUnits="userSpaceOnUse"
       id="clipPath11">
      <path
         d="m 325.79224,160.67676 h 76.56677 v 44.17285 h -76.56677 z"
         transform="matrix(0.33957257,0,0,0.33957257,-110.61449,-65.561387)"
         clip-rule="evenodd"
         id="path11" />
    </clipPath>
    <clipPath
       clipPathUnits="userSpaceOnUse"
       id="clipPath12">
      <path
         d="M 25.414551,219.57422 H 243.33557 v 44.17285 H 25.414551 Z"
         transform="matrix(0.33957257,0,0,0.33957257,-8.6301033,-85.561386)"
         clip-rule="evenodd"
         id="path12" />
    </clipPath>
    <clipPath
       clipPathUnits="userSpaceOnUse"
       id="clipPath13">
      <path
         d="M 25.414551,278.47168 H 243.33557 v 44.17285 H 25.414551 Z"
         transform="matrix(0.33957257,0,0,0.33957257,-8.6301033,-105.56139)"
         clip-rule="evenodd"
         id="path13" />
    </clipPath>
  </defs>
  <g
     id="g1">
    <path
       id="path1"
       d="M 0,0 H 234 V 108 H 0 Z"
       style="fill:#ffffff;fill-opacity:1;fill-rule:nonzero;stroke:none"
       clip-path="url(#clipPath2)" />
    <path
       id="path3"
       d="m 760,2770 v -42.5 c 0,-5 -2.5,-7.5 -7.5,-7.5 h -227 c -5,0 -7.5,2.5 -7.5,7.5 v 42.5"
       style="fill:none;stroke:#000000;stroke-width:1;stroke-linecap:butt;stroke-linejoin:miter;stroke-miterlimit:10;stroke-dasharray:none;stroke-opacity:1"
       transform="matrix(0.94236111,0,0,0.94236111,-485.19338,-2561.2797)"
       clip-path="url(#clipPath4)" />
    <path
       id="path5"
       d="m 518,2770 v 52.5 c 0,5 2.5,7.5 7.5,7.5 h 227 c 5,0 7.5,-2.5 7.5,-7.5 V 2770"
       style="fill:none;stroke:#000000;stroke-width:1;stroke-linecap:butt;stroke-linejoin:miter;stroke-miterlimit:10;stroke-dasharray:none;stroke-opacity:1"
       transform="matrix(0.94236111,0,0,0.94236111,-485.19338,-2561.2797)"
       clip-path="url(#clipPath6)" />
    <path
       id="path7"
       d="M 518,2770 H 760"
       style="fill:none;stroke:#000000;stroke-width:1;stroke-linecap:butt;stroke-linejoin:miter;stroke-miterlimit:10;stroke-dasharray:none;stroke-opacity:1"
       transform="matrix(0.94236111,0,0,0.94236111,-485.19338,-2561.2797)"
       clip-path="url(#clipPath8)" />
    <text
       id="text8"
       xml:space="preserve"
       transform="matrix(0.94236111,0,0,0.94236111,72.124883,22.203334)"
       clip-path="url(#clipPath9)"><tspan
         id="tspan8"
         style="font-variant:normal;font-weight:normal;font-size:16px;font-family:Arial;writing-mode:lr-tb;fill:#000000;fill-opacity:1;fill-rule:nonzero;stroke:none"
         x="0"
         y="0">«connection»</tspan></text>
    <text
       id="text9"
       xml:space="preserve"
       transform="matrix(0.94236111,0,0,0.94236111,15.96605,40.108195)"
       clip-path="url(#clipPath10)"><tspan
         id="tspan9"
         style="font-variant:normal;font-weight:normal;font-size:16px;font-family:Arial;writing-mode:lr-tb;fill:#000000;fill-opacity:1;fill-rule:nonzero;stroke:none"
         x="0"
         y="0">connection1 : ConnectionDef1</tspan></text>
    <text
       id="text10"
       xml:space="preserve"
       transform="matrix(0.94236111,0,0,0.94236111,104.23879,61.782501)"
       clip-path="url(#clipPath11)"><tspan
         id="tspan10"
         style="font-style:italic;font-variant:normal;font-weight:normal;font-size:12px;font-family:Arial;writing-mode:lr-tb;fill:#000000;fill-opacity:1;fill-rule:nonzero;stroke:none"
         x="0"
         y="0">ends</tspan></text>
    <text
       id="text11"
       xml:space="preserve"
       transform="matrix(0.94236111,0,0,0.94236111,8.1326737,80.629723)"
       clip-path="url(#clipPath12)"><tspan
         id="tspan11"
         style="font-variant:normal;font-weight:normal;font-size:12px;font-family:Arial;writing-mode:lr-tb;fill:#000000;fill-opacity:1;fill-rule:nonzero;stroke:none"
         x="0"
         y="0">end1 ::&gt; part1</tspan></text>
    <text
       id="text12"
       xml:space="preserve"
       transform="matrix(0.94236111,0,0,0.94236111,8.1326737,99.476945)"
       clip-path="url(#clipPath13)"><tspan
         id="tspan12"
         style="font-variant:normal;font-weight:normal;font-size:12px;font-family:Arial;writing-mode:lr-tb;fill:#000000;fill-opacity:1;fill-rule:nonzero;stroke:none"
         x="0"
         y="0">end2 ::&gt; part2</tspan></text>
  </g>
</svg>
