<?xml version="1.0" encoding="UTF-8" standalone="no"?>
<!-- Created with Inkscape (http://www.inkscape.org/) -->

<svg
   version="1.1"
   id="svg1"
   width="294.72"
   height="137.28"
   viewBox="0 0 294.72 137.28"
   xmlns="http://www.w3.org/2000/svg"
   xmlns:svg="http://www.w3.org/2000/svg">
  <defs
     id="defs1">
    <clipPath
       clipPathUnits="userSpaceOnUse"
       id="clipPath2">
      <path
         d="M 0,0 H 920.99609 V 429.00391 H 0 Z"
         transform="scale(0.31999999)"
         clip-rule="evenodd"
         id="path2" />
    </clipPath>
    <clipPath
       clipPathUnits="userSpaceOnUse"
       id="clipPath4">
      <path
         d="M 3.125,0 H 918.75 V 428.125 H 3.125 Z"
         transform="matrix(0.33773871,0,0,0.33773871,35.873049,597.9446)"
         clip-rule="evenodd"
         id="path4" />
    </clipPath>
    <clipPath
       clipPathUnits="userSpaceOnUse"
       id="clipPath5">
      <path
         d="M 3.125,0 H 918.75 V 428.125 H 3.125 Z"
         transform="matrix(0.33773871,0,0,0.33773871,-221.62694,-75.555381)"
         clip-rule="evenodd"
         id="path5" />
    </clipPath>
    <clipPath
       clipPathUnits="userSpaceOnUse"
       id="clipPath7">
      <path
         d="M 3.125,0 H 918.75 V 428.125 H 3.125 Z"
         transform="matrix(0.33773871,0,0,0.33773871,35.873049,597.9446)"
         clip-rule="evenodd"
         id="path7" />
    </clipPath>
    <clipPath
       clipPathUnits="userSpaceOnUse"
       id="clipPath8">
      <path
         d="M 3.125,0 H 918.75 V 428.125 H 3.125 Z"
         transform="matrix(0.33773871,0,0,0.33773871,-181.0957,-17.555381)"
         clip-rule="evenodd"
         id="path8" />
    </clipPath>
    <clipPath
       clipPathUnits="userSpaceOnUse"
       id="clipPath9">
      <path
         d="M 3.125,0 H 918.75 V 428.125 H 3.125 Z"
         transform="matrix(0.33773871,0,0,0.33773871,-198.00195,-37.555381)"
         clip-rule="evenodd"
         id="path9" />
    </clipPath>
    <clipPath
       clipPathUnits="userSpaceOnUse"
       id="clipPath11">
      <path
         d="M 3.125,0 H 918.75 V 428.125 H 3.125 Z"
         transform="matrix(0.33773871,0,0,0.33773871,35.873049,597.9446)"
         clip-rule="evenodd"
         id="path11" />
    </clipPath>
    <clipPath
       clipPathUnits="userSpaceOnUse"
       id="clipPath12">
      <path
         d="M 3.125,0 H 918.75 V 428.125 H 3.125 Z"
         transform="matrix(0.33773871,0,0,0.33773871,-181.0957,-117.55538)"
         clip-rule="evenodd"
         id="path12" />
    </clipPath>
    <clipPath
       clipPathUnits="userSpaceOnUse"
       id="clipPath13">
      <path
         d="M 3.125,0 H 918.75 V 428.125 H 3.125 Z"
         transform="matrix(0.33773871,0,0,0.33773871,-198.00195,-137.55538)"
         clip-rule="evenodd"
         id="path13" />
    </clipPath>
    <clipPath
       clipPathUnits="userSpaceOnUse"
       id="clipPath15">
      <path
         d="M 3.125,0 H 918.75 V 428.125 H 3.125 Z"
         transform="matrix(0.33773871,0,0,0.33773871,35.873049,597.9446)"
         clip-rule="evenodd"
         id="path15" />
    </clipPath>
    <clipPath
       clipPathUnits="userSpaceOnUse"
       id="clipPath16">
      <path
         d="M 3.125,0 H 918.75 V 428.125 H 3.125 Z"
         transform="matrix(0.33773871,0,0,0.33773871,-187.7832,-98.555381)"
         clip-rule="evenodd"
         id="path16" />
    </clipPath>
    <clipPath
       clipPathUnits="userSpaceOnUse"
       id="clipPath18">
      <path
         d="M 3.125,0 H 918.75 V 428.125 H 3.125 Z"
         transform="matrix(0.33773871,0,0,0.33773871,35.873049,597.9446)"
         clip-rule="evenodd"
         id="path18" />
    </clipPath>
    <clipPath
       clipPathUnits="userSpaceOnUse"
       id="clipPath19">
      <path
         d="M 3.125,0 H 918.75 V 428.125 H 3.125 Z"
         transform="matrix(0.33773871,0,0,0.33773871,-22.095699,-67.555381)"
         clip-rule="evenodd"
         id="path19" />
    </clipPath>
    <clipPath
       clipPathUnits="userSpaceOnUse"
       id="clipPath20">
      <path
         d="M 3.125,0 H 918.75 V 428.125 H 3.125 Z"
         transform="matrix(0.33773871,0,0,0.33773871,-39.001949,-87.555381)"
         clip-rule="evenodd"
         id="path20" />
    </clipPath>
    <clipPath
       clipPathUnits="userSpaceOnUse"
       id="clipPath22">
      <path
         d="M 3.125,0 H 918.75 V 428.125 H 3.125 Z"
         transform="matrix(0.33773871,0,0,0.33773871,35.873049,597.9446)"
         clip-rule="evenodd"
         id="path22" />
    </clipPath>
    <clipPath
       clipPathUnits="userSpaceOnUse"
       id="clipPath24">
      <path
         d="M 3.125,0 H 918.75 V 428.125 H 3.125 Z"
         transform="matrix(0.33773871,0,0,0.33773871,36.37305,598.44462)"
         clip-rule="evenodd"
         id="path24" />
    </clipPath>
    <clipPath
       clipPathUnits="userSpaceOnUse"
       id="clipPath26">
      <path
         d="M 3.125,0 H 918.75 V 428.125 H 3.125 Z"
         transform="matrix(0.33773871,0,0,0.33773871,36.37305,598.44462)"
         clip-rule="evenodd"
         id="path26" />
    </clipPath>
    <clipPath
       clipPathUnits="userSpaceOnUse"
       id="clipPath27">
      <path
         d="M 3.125,0 H 918.75 V 428.125 H 3.125 Z"
         transform="matrix(0.33773871,0,0,0.33773871,-115.7832,-66.555381)"
         clip-rule="evenodd"
         id="path27" />
    </clipPath>
    <clipPath
       clipPathUnits="userSpaceOnUse"
       id="clipPath29">
      <path
         d="M 3.125,0 H 918.75 V 428.125 H 3.125 Z"
         transform="matrix(0.33773871,0,0,0.33773871,35.873049,597.9446)"
         clip-rule="evenodd"
         id="path29" />
    </clipPath>
    <clipPath
       clipPathUnits="userSpaceOnUse"
       id="clipPath30">
      <path
         d="M 3.125,0 H 918.75 V 428.125 H 3.125 Z"
         transform="matrix(0.33773871,0,0,0.33773871,-188.78319,-53.555381)"
         clip-rule="evenodd"
         id="path30" />
    </clipPath>
    <clipPath
       clipPathUnits="userSpaceOnUse"
       id="clipPath31">
      <path
         d="M 3.125,0 H 918.75 V 428.125 H 3.125 Z"
         transform="matrix(0.33773871,0,0,0.33773871,-221.95508,-53.555381)"
         clip-rule="evenodd"
         id="path31" />
    </clipPath>
  </defs>
  <g
     id="g1">
    <path
       id="path1"
       d="M 0,0 H 295 V 137 H 0 Z"
       style="fill:#ffffff;fill-opacity:1;fill-rule:nonzero;stroke:none"
       clip-path="url(#clipPath2)" />
    <path
       id="path3"
       d="m 256,670 c -2e-5,0.39777 -0.0762,0.7804 -0.22839,1.14795 -0.15224,0.36755 -0.36901,0.69202 -0.6503,0.97333 -0.28133,0.28125 -0.60575,0.49798 -0.97328,0.65027 -0.36754,0.15228 -0.75022,0.22839 -1.14803,0.22845 -0.39784,-6e-5 -0.78055,-0.0762 -1.14809,-0.22845 -0.36753,-0.15229 -0.69197,-0.36902 -0.97326,-0.65027 -0.28131,-0.28131 -0.4981,-0.60578 -0.65033,-0.97333 C 250.07608,670.7804 249.99997,670.39777 250,670 c -3e-5,-0.39789 0.0761,-0.78058 0.22832,-1.14813 0.15223,-0.36756 0.36902,-0.69196 0.65033,-0.97321 0.28129,-0.28131 0.60573,-0.49811 0.97326,-0.65033 C 252.21945,667.07611 252.60216,667 253,667 c 0.39781,0 0.7805,0.0761 1.14804,0.22833 0.36752,0.15222 0.69194,0.36902 0.97327,0.65033 0.28129,0.28125 0.49806,0.60565 0.6503,0.97321 0.15223,0.36755 0.22837,0.75024 0.22839,1.14813 z"
       style="fill:#000000;fill-opacity:1;fill-rule:nonzero;stroke:#000000;stroke-width:1;stroke-linecap:butt;stroke-linejoin:miter;stroke-miterlimit:10;stroke-dasharray:none;stroke-opacity:1"
       transform="matrix(0.94747798,0,0,0.94747798,-33.988924,-566.53934)"
       clip-path="url(#clipPath4)" />
    <text
       id="text4"
       xml:space="preserve"
       transform="matrix(0.94747798,0,0,0.94747798,209.98665,71.58706)"
       clip-path="url(#clipPath5)"><tspan
         id="tspan4"
         style="font-variant:normal;font-weight:normal;font-size:12px;font-family:Arial;writing-mode:lr-tb;fill:#000000;fill-opacity:1;fill-rule:nonzero;stroke:none"
         x="0"
         y="0">ConnectionDef1</tspan></text>
    <path
       id="path6"
       d="m 198,600 h 110 v 40 H 198 Z"
       style="fill:#ffffff;fill-opacity:1;fill-rule:nonzero;stroke:#000000;stroke-width:1;stroke-linecap:butt;stroke-linejoin:miter;stroke-miterlimit:10;stroke-dasharray:none;stroke-opacity:1"
       transform="matrix(0.94747798,0,0,0.94747798,-33.988924,-566.53934)"
       clip-path="url(#clipPath7)" />
    <text
       id="text7"
       xml:space="preserve"
       transform="matrix(0.94747798,0,0,0.94747798,171.58419,16.633337)"
       clip-path="url(#clipPath8)"><tspan
         id="tspan7"
         style="font-variant:normal;font-weight:normal;font-size:16px;font-family:Arial;writing-mode:lr-tb;fill:#000000;fill-opacity:1;fill-rule:nonzero;stroke:none"
         x="0"
         y="0">«part def»</tspan></text>
    <text
       id="text8"
       xml:space="preserve"
       transform="matrix(0.94747798,0,0,0.94747798,187.60249,35.582897)"
       clip-path="url(#clipPath9)"><tspan
         id="tspan8"
         style="font-variant:normal;font-weight:normal;font-size:16px;font-family:Arial;writing-mode:lr-tb;fill:#000000;fill-opacity:1;fill-rule:nonzero;stroke:none"
         x="0"
         y="0">Part1</tspan></text>
    <path
       id="path10"
       d="m 198,700 h 110 v 40 H 198 Z"
       style="fill:#ffffff;fill-opacity:1;fill-rule:nonzero;stroke:#000000;stroke-width:1;stroke-linecap:butt;stroke-linejoin:miter;stroke-miterlimit:10;stroke-dasharray:none;stroke-opacity:1"
       transform="matrix(0.94747798,0,0,0.94747798,-33.988924,-566.53934)"
       clip-path="url(#clipPath11)" />
    <text
       id="text11"
       xml:space="preserve"
       transform="matrix(0.94747798,0,0,0.94747798,171.58419,111.38113)"
       clip-path="url(#clipPath12)"><tspan
         id="tspan11"
         style="font-variant:normal;font-weight:normal;font-size:16px;font-family:Arial;writing-mode:lr-tb;fill:#000000;fill-opacity:1;fill-rule:nonzero;stroke:none"
         x="0"
         y="0">«part def»</tspan></text>
    <text
       id="text12"
       xml:space="preserve"
       transform="matrix(0.94747798,0,0,0.94747798,187.60249,130.33069)"
       clip-path="url(#clipPath13)"><tspan
         id="tspan12"
         style="font-variant:normal;font-weight:normal;font-size:16px;font-family:Arial;writing-mode:lr-tb;fill:#000000;fill-opacity:1;fill-rule:nonzero;stroke:none"
         x="0"
         y="0">Part2</tspan></text>
    <path
       id="path14"
       d="m 253,673 v 27"
       style="fill:none;stroke:#000000;stroke-width:1;stroke-linecap:butt;stroke-linejoin:miter;stroke-miterlimit:10;stroke-dasharray:none;stroke-opacity:1"
       transform="matrix(0.94747798,0,0,0.94747798,-33.988924,-566.53934)"
       clip-path="url(#clipPath15)" />
    <text
       id="text15"
       xml:space="preserve"
       transform="matrix(0.94747798,0,0,0.94747798,177.92045,93.379053)"
       clip-path="url(#clipPath16)"><tspan
         id="tspan15"
         style="font-variant:normal;font-weight:normal;font-size:12px;font-family:Arial;writing-mode:lr-tb;fill:#000000;fill-opacity:1;fill-rule:nonzero;stroke:none"
         x="0"
         y="0">end2</tspan></text>
    <path
       id="path17"
       d="m 39,650 h 110 v 40 H 39 Z"
       style="fill:#ffffff;fill-opacity:1;fill-rule:nonzero;stroke:#000000;stroke-width:1;stroke-linecap:butt;stroke-linejoin:miter;stroke-miterlimit:10;stroke-dasharray:none;stroke-opacity:1"
       transform="matrix(0.94747798,0,0,0.94747798,-33.988924,-566.53934)"
       clip-path="url(#clipPath18)" />
    <text
       id="text18"
       xml:space="preserve"
       transform="matrix(0.94747798,0,0,0.94747798,20.935188,64.007236)"
       clip-path="url(#clipPath19)"><tspan
         id="tspan18"
         style="font-variant:normal;font-weight:normal;font-size:16px;font-family:Arial;writing-mode:lr-tb;fill:#000000;fill-opacity:1;fill-rule:nonzero;stroke:none"
         x="0"
         y="0">«part def»</tspan></text>
    <text
       id="text19"
       xml:space="preserve"
       transform="matrix(0.94747798,0,0,0.94747798,36.953488,82.956796)"
       clip-path="url(#clipPath20)"><tspan
         id="tspan19"
         style="font-variant:normal;font-weight:normal;font-size:16px;font-family:Arial;writing-mode:lr-tb;fill:#000000;fill-opacity:1;fill-rule:nonzero;stroke:none"
         x="0"
         y="0">Part3</tspan></text>
    <path
       id="path21"
       d="M 149,670 H 250"
       style="fill:none;stroke:#000000;stroke-width:1;stroke-linecap:butt;stroke-linejoin:miter;stroke-miterlimit:10;stroke-dasharray:none;stroke-opacity:1"
       transform="matrix(0.94747798,0,0,0.94747798,-33.988924,-566.53934)"
       clip-path="url(#clipPath22)" />
    <path
       id="path23"
       d="m 152,654 h 27 v 15 h -27 z"
       style="fill:#ffffff;fill-opacity:1;fill-rule:nonzero;stroke:none"
       transform="matrix(0.94747798,0,0,0.94747798,-34.462664,-567.0131)"
       clip-path="url(#clipPath24)" />
    <path
       id="path25"
       d="m 152,654 h 27 v 14 h -27 z"
       style="fill:#f8f9fa;fill-opacity:1;fill-rule:nonzero;stroke:none"
       transform="matrix(0.94747798,0,0,0.94747798,-34.462664,-567.0131)"
       clip-path="url(#clipPath26)" />
    <text
       id="text26"
       xml:space="preserve"
       transform="matrix(0.94747798,0,0,0.94747798,109.70203,63.059758)"
       clip-path="url(#clipPath27)"><tspan
         id="tspan26"
         style="font-variant:normal;font-weight:normal;font-size:12px;font-family:Arial;writing-mode:lr-tb;fill:#000000;fill-opacity:1;fill-rule:nonzero;stroke:none"
         x="0"
         y="0">end3</tspan></text>
    <path
       id="path28"
       d="m 253,640 v 27"
       style="fill:none;stroke:#000000;stroke-width:1;stroke-linecap:butt;stroke-linejoin:miter;stroke-miterlimit:10;stroke-dasharray:none;stroke-opacity:1"
       transform="matrix(0.94747798,0,0,0.94747798,-33.988924,-566.53934)"
       clip-path="url(#clipPath29)" />
    <text
       id="text29"
       xml:space="preserve"
       transform="matrix(0.94747798,0,0,0.94747798,178.86792,50.742544)"
       clip-path="url(#clipPath30)"><tspan
         id="tspan29"
         style="font-variant:normal;font-weight:normal;font-size:12px;font-family:Arial;writing-mode:lr-tb;fill:#000000;fill-opacity:1;fill-rule:nonzero;stroke:none"
         x="0"
         y="0">end1</tspan></text>
    <text
       id="text30"
       xml:space="preserve"
       transform="matrix(0.94747798,0,0,0.94747798,210.29755,50.742544)"
       clip-path="url(#clipPath31)"><tspan
         id="tspan30"
         style="font-variant:normal;font-weight:normal;font-size:11px;font-family:Arial;writing-mode:lr-tb;fill:#000000;fill-opacity:1;fill-rule:nonzero;stroke:none"
         x="0"
         y="0">0..1</tspan></text>
  </g>
</svg>
