<?xml version="1.0" encoding="UTF-8" standalone="no"?>
<!-- Created with Inkscape (http://www.inkscape.org/) -->

<svg
   version="1.1"
   id="svg1"
   width="155.84"
   height="108.15999"
   viewBox="0 0 155.84 108.15999"
   xmlns="http://www.w3.org/2000/svg"
   xmlns:svg="http://www.w3.org/2000/svg">
  <defs
     id="defs1">
    <clipPath
       clipPathUnits="userSpaceOnUse"
       id="clipPath2">
      <path
         d="M 0,0 H 488 V 339 H 0 Z"
         transform="scale(0.31999999)"
         clip-rule="evenodd"
         id="path2" />
    </clipPath>
    <clipPath
       clipPathUnits="userSpaceOnUse"
       id="clipPath4">
      <path
         d="M 3.125,0 H 487.5 V 337.5 H 3.125 Z"
         transform="matrix(0.34067721,0,0,0.34067721,36.8606,2717.9355)"
         clip-rule="evenodd"
         id="path4" />
    </clipPath>
    <clipPath
       clipPathUnits="userSpaceOnUse"
       id="clipPath6">
      <path
         d="M 3.125,0 H 487.5 V 337.5 H 3.125 Z"
         transform="matrix(0.34067721,0,0,0.34067721,36.8606,2717.9355)"
         clip-rule="evenodd"
         id="path6" />
    </clipPath>
    <clipPath
       clipPathUnits="userSpaceOnUse"
       id="clipPath8">
      <path
         d="M 3.125,0 H 487.5 V 337.5 H 3.125 Z"
         transform="matrix(0.34067721,0,0,0.34067721,36.8606,2717.9355)"
         clip-rule="evenodd"
         id="path8" />
    </clipPath>
    <clipPath
       clipPathUnits="userSpaceOnUse"
       id="clipPath9">
      <path
         d="M 3.125,0 H 487.5 V 337.5 H 3.125 Z"
         transform="matrix(0.34067721,0,0,0.34067721,-22.201897,-23.564706)"
         clip-rule="evenodd"
         id="path9" />
    </clipPath>
    <clipPath
       clipPathUnits="userSpaceOnUse"
       id="clipPath10">
      <path
         d="M 3.125,0 H 487.5 V 337.5 H 3.125 Z"
         transform="matrix(0.34067721,0,0,0.34067721,-25.764397,-42.564706)"
         clip-rule="evenodd"
         id="path10" />
    </clipPath>
    <clipPath
       clipPathUnits="userSpaceOnUse"
       id="clipPath11">
      <path
         d="m 204.4146,160.16553 h 76.31856 v 44.02978 H 204.4146 Z"
         transform="matrix(0.34067721,0,0,0.34067721,-69.623772,-65.564706)"
         clip-rule="evenodd"
         id="path11" />
    </clipPath>
    <clipPath
       clipPathUnits="userSpaceOnUse"
       id="clipPath12">
      <path
         d="M 25.359482,218.87158 H 216.15593 v 44.03027 H 25.359482 Z"
         transform="matrix(0.34067721,0,0,0.34067721,-8.639397,-85.564705)"
         clip-rule="evenodd"
         id="path12" />
    </clipPath>
    <clipPath
       clipPathUnits="userSpaceOnUse"
       id="clipPath13">
      <path
         d="M 25.359482,277.57861 H 216.15593 v 44.03027 H 25.359482 Z"
         transform="matrix(0.34067721,0,0,0.34067721,-8.639397,-105.56471)"
         clip-rule="evenodd"
         id="path13" />
    </clipPath>
  </defs>
  <g
     id="g1">
    <path
       id="path1"
       d="M 0,0 H 156 V 108 H 0 Z"
       style="fill:#ffffff;fill-opacity:1;fill-rule:nonzero;stroke:none"
       clip-path="url(#clipPath2)" />
    <path
       id="path3"
       d="m 40,2770 v -50 h 160 v 50"
       style="fill:none;stroke:#000000;stroke-width:1;stroke-linecap:butt;stroke-linejoin:miter;stroke-miterlimit:10;stroke-dasharray:none;stroke-opacity:1"
       transform="matrix(0.93930553,0,0,0.93930553,-34.623365,-2552.9718)"
       clip-path="url(#clipPath4)" />
    <path
       id="path5"
       d="m 40,2770 v 60 h 160 v -60"
       style="fill:none;stroke:#000000;stroke-width:1;stroke-linecap:butt;stroke-linejoin:miter;stroke-miterlimit:10;stroke-dasharray:none;stroke-opacity:1"
       transform="matrix(0.93930553,0,0,0.93930553,-34.623365,-2552.9718)"
       clip-path="url(#clipPath6)" />
    <path
       id="path7"
       d="M 40,2770 H 200"
       style="fill:none;stroke:#000000;stroke-width:1;stroke-linecap:butt;stroke-linejoin:miter;stroke-miterlimit:10;stroke-dasharray:none;stroke-opacity:1"
       transform="matrix(0.93930553,0,0,0.93930553,-34.623365,-2552.9718)"
       clip-path="url(#clipPath8)" />
    <text
       id="text8"
       xml:space="preserve"
       transform="matrix(0.93930553,0,0,0.93930553,20.854365,22.134459)"
       clip-path="url(#clipPath9)"><tspan
         id="tspan8"
         style="font-variant:normal;font-weight:normal;font-size:16px;font-family:Arial;writing-mode:lr-tb;fill:#000000;fill-opacity:1;fill-rule:nonzero;stroke:none"
         x="0"
         y="0">«connection def»</tspan></text>
    <text
       id="text9"
       xml:space="preserve"
       transform="matrix(0.93930553,0,0,0.93930553,24.200641,39.981264)"
       clip-path="url(#clipPath10)"><tspan
         id="tspan9"
         style="font-variant:normal;font-weight:normal;font-size:16px;font-family:Arial;writing-mode:lr-tb;fill:#000000;fill-opacity:1;fill-rule:nonzero;stroke:none"
         x="0"
         y="0">ConnectionDef1</tspan></text>
    <text
       id="text10"
       xml:space="preserve"
       transform="matrix(0.93930553,0,0,0.93930553,65.397994,61.585291)"
       clip-path="url(#clipPath11)"><tspan
         id="tspan10"
         style="font-style:italic;font-variant:normal;font-weight:normal;font-size:12px;font-family:Arial;writing-mode:lr-tb;fill:#000000;fill-opacity:1;fill-rule:nonzero;stroke:none"
         x="0"
         y="0">ends</tspan></text>
    <text
       id="text11"
       xml:space="preserve"
       transform="matrix(0.93930553,0,0,0.93930553,8.1150334,80.371401)"
       clip-path="url(#clipPath12)"><tspan
         id="tspan11"
         style="font-variant:normal;font-weight:normal;font-size:12px;font-family:Arial;writing-mode:lr-tb;fill:#000000;fill-opacity:1;fill-rule:nonzero;stroke:none"
         x="0"
         y="0">end1 : Part1</tspan></text>
    <text
       id="text12"
       xml:space="preserve"
       transform="matrix(0.93930553,0,0,0.93930553,8.1150334,99.157512)"
       clip-path="url(#clipPath13)"><tspan
         id="tspan12"
         style="font-variant:normal;font-weight:normal;font-size:12px;font-family:Arial;writing-mode:lr-tb;fill:#000000;fill-opacity:1;fill-rule:nonzero;stroke:none"
         x="0"
         y="0">end2 : Part2</tspan></text>
  </g>
</svg>
