<?xml version="1.0" encoding="UTF-8" standalone="no"?>
<!-- Created with Inkscape (http://www.inkscape.org/) -->

<svg
   version="1.1"
   id="svg1"
   width="232"
   height="89.279999"
   viewBox="0 0 232 89.279999"
   xmlns="http://www.w3.org/2000/svg"
   xmlns:svg="http://www.w3.org/2000/svg">
  <defs
     id="defs1">
    <clipPath
       clipPathUnits="userSpaceOnUse"
       id="clipPath2">
      <path
         d="M 0,0 H 725.97656 V 279.00391 H 0 Z"
         transform="scale(0.31999999)"
         clip-rule="evenodd"
         id="path2" />
    </clipPath>
    <clipPath
       clipPathUnits="userSpaceOnUse"
       id="clipPath4">
      <path
         d="m 3.125,0 h 718.75 V 278.125 H 3.125 Z"
         transform="matrix(0.33961992,0,0,0.33961992,516.87242,2837.9387)"
         clip-rule="evenodd"
         id="path4" />
    </clipPath>
    <clipPath
       clipPathUnits="userSpaceOnUse"
       id="clipPath6">
      <path
         d="m 3.125,0 h 718.75 V 278.125 H 3.125 Z"
         transform="matrix(0.33961992,0,0,0.33961992,516.87242,2837.9387)"
         clip-rule="evenodd"
         id="path6" />
    </clipPath>
    <clipPath
       clipPathUnits="userSpaceOnUse"
       id="clipPath8">
      <path
         d="m 3.125,0 h 718.75 V 278.125 H 3.125 Z"
         transform="matrix(0.33961992,0,0,0.33961992,516.87242,2837.9387)"
         clip-rule="evenodd"
         id="path8" />
    </clipPath>
    <clipPath
       clipPathUnits="userSpaceOnUse"
       id="clipPath9">
      <path
         d="m 3.125,0 h 718.75 V 278.125 H 3.125 Z"
         transform="matrix(0.33961992,0,0,0.33961992,-75.533808,-23.561138)"
         clip-rule="evenodd"
         id="path9" />
    </clipPath>
    <clipPath
       clipPathUnits="userSpaceOnUse"
       id="clipPath10">
      <path
         d="m 3.125,0 h 718.75 V 278.125 H 3.125 Z"
         transform="matrix(0.33961992,0,0,0.33961992,-15.940058,-42.561138)"
         clip-rule="evenodd"
         id="path10" />
    </clipPath>
    <clipPath
       clipPathUnits="userSpaceOnUse"
       id="clipPath11">
      <path
         d="m 210.90503,160.65332 h 300.33582 v 44.16699 H 210.90503 Z"
         transform="matrix(0.33961992,0,0,0.33961992,-71.940058,-65.561137)"
         clip-rule="evenodd"
         id="path11" />
    </clipPath>
    <clipPath
       clipPathUnits="userSpaceOnUse"
       id="clipPath12">
      <path
         d="M 25.403564,219.54297 H 63.68164 v 44.16699 H 25.403564 Z"
         transform="matrix(0.33961992,0,0,0.33961992,-8.6275578,-85.561138)"
         clip-rule="evenodd"
         id="path12" />
    </clipPath>
  </defs>
  <g
     id="g1">
    <path
       id="path1"
       d="M 0,0 H 232 V 89 H 0 Z"
       style="fill:#ffffff;fill-opacity:1;fill-rule:nonzero;stroke:none"
       clip-path="url(#clipPath2)" />
    <path
       id="path3"
       d="m 760,2890 v -42.5 c 0,-5 -2.5,-7.5 -7.5,-7.5 h -225 c -5,0 -7.5,2.5 -7.5,7.5 v 42.5"
       style="fill:none;stroke:#000000;stroke-width:1;stroke-linecap:butt;stroke-linejoin:miter;stroke-miterlimit:10;stroke-dasharray:none;stroke-opacity:1"
       transform="matrix(0.94222972,0,0,0.94222972,-487.01256,-2673.9902)"
       clip-path="url(#clipPath4)" />
    <path
       id="path5"
       d="m 520,2890 v 32.5 c 0,5 2.5,7.5 7.5,7.5 h 225 c 5,0 7.5,-2.5 7.5,-7.5 V 2890"
       style="fill:none;stroke:#000000;stroke-width:1;stroke-linecap:butt;stroke-linejoin:miter;stroke-miterlimit:10;stroke-dasharray:none;stroke-opacity:1"
       transform="matrix(0.94222972,0,0,0.94222972,-487.01256,-2673.9902)"
       clip-path="url(#clipPath6)" />
    <path
       id="path7"
       d="M 520,2890 H 760"
       style="fill:none;stroke:#000000;stroke-width:1;stroke-linecap:butt;stroke-linejoin:miter;stroke-miterlimit:10;stroke-dasharray:none;stroke-opacity:1"
       transform="matrix(0.94222972,0,0,0.94222972,-487.01256,-2673.9902)"
       clip-path="url(#clipPath8)" />
    <text
       id="text8"
       xml:space="preserve"
       transform="matrix(0.94222972,0,0,0.94222972,71.170199,22.200004)"
       clip-path="url(#clipPath9)"><tspan
         id="tspan8"
         style="font-variant:normal;font-weight:normal;font-size:16px;font-family:Arial;writing-mode:lr-tb;fill:#000000;fill-opacity:1;fill-rule:nonzero;stroke:none"
         x="0"
         y="0">«connection»</tspan></text>
    <text
       id="text9"
       xml:space="preserve"
       transform="matrix(0.94222972,0,0,0.94222972,15.019196,40.102369)"
       clip-path="url(#clipPath10)"><tspan
         id="tspan9"
         style="font-variant:normal;font-weight:normal;font-size:16px;font-family:Arial;writing-mode:lr-tb;fill:#000000;fill-opacity:1;fill-rule:nonzero;stroke:none"
         x="0"
         y="0">connection1 : ConnectionDef1</tspan></text>
    <text
       id="text10"
       xml:space="preserve"
       transform="matrix(0.94222972,0,0,0.94222972,67.784061,61.773652)"
       clip-path="url(#clipPath11)"><tspan
         id="tspan10"
         style="font-style:italic;font-variant:normal;font-weight:normal;font-size:12px;font-family:Arial;writing-mode:lr-tb;fill:#000000;fill-opacity:1;fill-rule:nonzero;stroke:none"
         x="0"
         y="0">compartment stack</tspan></text>
    <text
       id="text11"
       xml:space="preserve"
       transform="matrix(0.94222972,0,0,0.94222972,8.1291414,80.618247)"
       clip-path="url(#clipPath12)"><tspan
         id="tspan11"
         style="font-variant:normal;font-weight:normal;font-size:12px;font-family:Arial;writing-mode:lr-tb;fill:#000000;fill-opacity:1;fill-rule:nonzero;stroke:none"
         x="0"
         y="0">•••</tspan></text>
  </g>
</svg>
