<?xml version="1.0" encoding="UTF-8" standalone="no"?>
<!-- Created with Inkscape (http://www.inkscape.org/) -->

<svg
   version="1.1"
   id="svg1"
   width="193.27998"
   height="104"
   viewBox="0 0 193.27998 104"
   xmlns="http://www.w3.org/2000/svg"
   xmlns:svg="http://www.w3.org/2000/svg">
  <defs
     id="defs1">
    <clipPath
       clipPathUnits="userSpaceOnUse"
       id="clipPath2">
      <path
         d="M 0,0 H 605 V 324.02344 H 0 Z"
         transform="scale(0.31999999)"
         clip-rule="evenodd"
         id="path2" />
    </clipPath>
    <clipPath
       clipPathUnits="userSpaceOnUse"
       id="clipPath4">
      <path
         d="m 3.125,0 h 600 v 324.02344 h -600 z"
         transform="matrix(0.34091437,0,0,0.34091437,556.86036,5717.9343)"
         clip-rule="evenodd"
         id="path4" />
    </clipPath>
    <clipPath
       clipPathUnits="userSpaceOnUse"
       id="clipPath6">
      <path
         d="m 3.125,0 h 600 v 324.02344 h -600 z"
         transform="matrix(0.34091437,0,0,0.34091437,556.86036,5717.9343)"
         clip-rule="evenodd"
         id="path6" />
    </clipPath>
    <clipPath
       clipPathUnits="userSpaceOnUse"
       id="clipPath8">
      <path
         d="m 3.125,0 h 600 v 324.02344 h -600 z"
         transform="matrix(0.34091437,0,0,0.34091437,556.86036,5717.9343)"
         clip-rule="evenodd"
         id="path8" />
    </clipPath>
    <clipPath
       clipPathUnits="userSpaceOnUse"
       id="clipPath9">
      <path
         d="m 3.125,0 h 600 v 324.02344 h -600 z"
         transform="matrix(0.34091437,0,0,0.34091437,-63.545877,-23.565577)"
         clip-rule="evenodd"
         id="path9" />
    </clipPath>
    <clipPath
       clipPathUnits="userSpaceOnUse"
       id="clipPath10">
      <path
         d="m 3.125,0 h 600 v 324.02344 h -600 z"
         transform="matrix(0.34091437,0,0,0.34091437,-13.311506,-42.565577)"
         clip-rule="evenodd"
         id="path10" />
    </clipPath>
    <clipPath
       clipPathUnits="userSpaceOnUse"
       id="clipPath11">
      <path
         d="m 262.93884,160.05664 h 76.2655 v 44 h -76.2655 z"
         transform="matrix(0.34091437,0,0,0.34091437,-89.624006,-65.565577)"
         clip-rule="evenodd"
         id="path11" />
    </clipPath>
    <clipPath
       clipPathUnits="userSpaceOnUse"
       id="clipPath12">
      <path
         d="M 25.342529,221.65625 H 195.47315 V 306.7207 H 25.342529 Z"
         transform="matrix(0.34091437,0,0,0.34091437,-8.6396263,-86.565577)"
         clip-rule="evenodd"
         id="path12" />
    </clipPath>
    <clipPath
       clipPathUnits="userSpaceOnUse"
       id="clipPath13">
      <path
         d="M 25.342529,221.65625 H 195.47315 V 306.7207 H 25.342529 Z"
         transform="matrix(0.34091437,0,0,0.34091437,-35.999006,-86.565577)"
         clip-rule="evenodd"
         id="path13" />
    </clipPath>
    <clipPath
       clipPathUnits="userSpaceOnUse"
       id="clipPath14">
      <path
         d="M 25.342529,221.65625 H 195.47315 V 306.7207 H 25.342529 Z"
         transform="matrix(0.34091437,0,0,0.34091437,-53.670876,-86.565577)"
         clip-rule="evenodd"
         id="path14" />
    </clipPath>
    <clipPath
       clipPathUnits="userSpaceOnUse"
       id="clipPath15">
      <path
         d="M 25.342529,221.65625 H 195.47315 V 306.7207 H 25.342529 Z"
         transform="matrix(0.34091437,0,0,0.34091437,-8.6396263,-101.56558)"
         clip-rule="evenodd"
         id="path15" />
    </clipPath>
    <clipPath
       clipPathUnits="userSpaceOnUse"
       id="clipPath16">
      <path
         d="M 25.342529,221.65625 H 195.47315 V 306.7207 H 25.342529 Z"
         transform="matrix(0.34091437,0,0,0.34091437,-35.999006,-101.56558)"
         clip-rule="evenodd"
         id="path16" />
    </clipPath>
    <clipPath
       clipPathUnits="userSpaceOnUse"
       id="clipPath17">
      <path
         d="M 25.342529,221.65625 H 195.47315 V 306.7207 H 25.342529 Z"
         transform="matrix(0.34091437,0,0,0.34091437,-53.670876,-101.56558)"
         clip-rule="evenodd"
         id="path17" />
    </clipPath>
  </defs>
  <g
     id="g1">
    <path
       id="path1"
       d="M 0,0 H 194 V 104 H 0 Z"
       style="fill:#ffffff;fill-opacity:1;fill-rule:nonzero;stroke:none"
       clip-path="url(#clipPath2)" />
    <path
       id="path3"
       d="m 760,5770 v -42.5 c 0,-5 -2.5,-7.5 -7.5,-7.5 h -185 c -5,0 -7.5,2.5 -7.5,7.5 v 42.5"
       style="fill:none;stroke:#000000;stroke-width:1;stroke-linecap:butt;stroke-linejoin:miter;stroke-miterlimit:10;stroke-dasharray:none;stroke-opacity:1"
       transform="matrix(0.93865209,0,0,0.93865209,-522.69814,-5367.151)"
       clip-path="url(#clipPath4)" />
    <path
       id="path5"
       d="m 560,5770 v 48.5 c 0,5 2.5,7.5 7.5,7.5 h 185 c 5,0 7.5,-2.5 7.5,-7.5 V 5770"
       style="fill:none;stroke:#000000;stroke-width:1;stroke-linecap:butt;stroke-linejoin:miter;stroke-miterlimit:10;stroke-dasharray:none;stroke-opacity:1"
       transform="matrix(0.93865209,0,0,0.93865209,-522.69814,-5367.151)"
       clip-path="url(#clipPath6)" />
    <path
       id="path7"
       d="M 560,5770 H 760"
       style="fill:none;stroke:#000000;stroke-width:1;stroke-linecap:butt;stroke-linejoin:miter;stroke-miterlimit:10;stroke-dasharray:none;stroke-opacity:1"
       transform="matrix(0.93865209,0,0,0.93865209,-522.69814,-5367.151)"
       clip-path="url(#clipPath8)" />
    <text
       id="text8"
       xml:space="preserve"
       transform="matrix(0.93865209,0,0,0.93865209,59.64747,22.119878)"
       clip-path="url(#clipPath9)"><tspan
         id="tspan8"
         style="font-variant:normal;font-weight:normal;font-size:16px;font-family:Arial;writing-mode:lr-tb;fill:#000000;fill-opacity:1;fill-rule:nonzero;stroke:none"
         x="0"
         y="0">«interface»</tspan></text>
    <text
       id="text9"
       xml:space="preserve"
       transform="matrix(0.93865209,0,0,0.93865209,12.494873,39.954268)"
       clip-path="url(#clipPath10)"><tspan
         id="tspan9"
         style="font-variant:normal;font-weight:normal;font-size:16px;font-family:Arial;writing-mode:lr-tb;fill:#000000;fill-opacity:1;fill-rule:nonzero;stroke:none"
         x="0"
         y="0">interface1 : InterfaceDef1</tspan></text>
    <text
       id="text10"
       xml:space="preserve"
       transform="matrix(0.93865209,0,0,0.93865209,84.125761,61.543266)"
       clip-path="url(#clipPath11)"><tspan
         id="tspan10"
         style="font-style:italic;font-variant:normal;font-weight:normal;font-size:12px;font-family:Arial;writing-mode:lr-tb;fill:#000000;fill-opacity:1;fill-rule:nonzero;stroke:none"
         x="0"
         y="0">ends</tspan></text>
    <text
       id="text11"
       xml:space="preserve"
       transform="matrix(0.93865209,0,0,0.93865209,8.1096033,81.25496)"
       clip-path="url(#clipPath12)"><tspan
         id="tspan11"
         style="font-variant:normal;font-weight:normal;font-size:12px;font-family:Arial;writing-mode:lr-tb;fill:#000000;fill-opacity:1;fill-rule:nonzero;stroke:none"
         x="0"
         y="0">port1</tspan></text>
    <g
       id="g12" />
    <text
       id="text12"
       xml:space="preserve"
       transform="matrix(0.93865209,0,0,0.93865209,33.790542,81.25496)"
       clip-path="url(#clipPath13)"><tspan
         id="tspan12"
         style="font-variant:normal;font-weight:700;font-size:12px;font-family:Arial;writing-mode:lr-tb;fill:#000000;fill-opacity:1;fill-rule:nonzero;stroke:none"
         x="0"
         y="0"> :&gt; </tspan></text>
    <text
       id="text13"
       xml:space="preserve"
       transform="matrix(0.93865209,0,0,0.93865209,50.37828,81.25496)"
       clip-path="url(#clipPath14)"><tspan
         id="tspan13"
         style="font-variant:normal;font-weight:normal;font-size:12px;font-family:Arial;writing-mode:lr-tb;fill:#000000;fill-opacity:1;fill-rule:nonzero;stroke:none"
         x="0"
         y="0">pa</tspan></text>
    <text
       id="text14"
       xml:space="preserve"
       transform="matrix(0.93865209,0,0,0.93865209,8.1096033,95.334741)"
       clip-path="url(#clipPath15)"><tspan
         id="tspan14"
         style="font-variant:normal;font-weight:normal;font-size:12px;font-family:Arial;writing-mode:lr-tb;fill:#000000;fill-opacity:1;fill-rule:nonzero;stroke:none"
         x="0"
         y="0">port2</tspan></text>
    <g
       id="g15" />
    <text
       id="text15"
       xml:space="preserve"
       transform="matrix(0.93865209,0,0,0.93865209,33.790542,95.334741)"
       clip-path="url(#clipPath16)"><tspan
         id="tspan15"
         style="font-variant:normal;font-weight:700;font-size:12px;font-family:Arial;writing-mode:lr-tb;fill:#000000;fill-opacity:1;fill-rule:nonzero;stroke:none"
         x="0"
         y="0"> :&gt; </tspan></text>
    <text
       id="text16"
       xml:space="preserve"
       transform="matrix(0.93865209,0,0,0.93865209,50.37828,95.334741)"
       clip-path="url(#clipPath17)"><tspan
         id="tspan16"
         style="font-variant:normal;font-weight:normal;font-size:12px;font-family:Arial;writing-mode:lr-tb;fill:#000000;fill-opacity:1;fill-rule:nonzero;stroke:none"
         x="0"
         y="0">pb</tspan></text>
  </g>
</svg>
