<?xml version="1.0" encoding="UTF-8" standalone="no"?>
<!-- Created with Inkscape (http://www.inkscape.org/) -->

<svg
   version="1.1"
   id="svg1"
   width="136"
   height="108.15999"
   viewBox="0 0 136 108.15999"
   xmlns="http://www.w3.org/2000/svg"
   xmlns:svg="http://www.w3.org/2000/svg">
  <defs
     id="defs1">
    <clipPath
       clipPathUnits="userSpaceOnUse"
       id="clipPath2">
      <path
         d="M 0,0 H 425.97656 V 339 H 0 Z"
         transform="scale(0.31999999)"
         clip-rule="evenodd"
         id="path2" />
    </clipPath>
    <clipPath
       clipPathUnits="userSpaceOnUse"
       id="clipPath4">
      <path
         d="m 3.125,3.125 h 418.75 V 337.5 H 3.125 Z"
         transform="matrix(0.34173834,0,0,0.34173834,37.863616,5716.864)"
         clip-rule="evenodd"
         id="path4" />
    </clipPath>
    <clipPath
       clipPathUnits="userSpaceOnUse"
       id="clipPath6">
      <path
         d="m 3.125,3.125 h 418.75 V 337.5 H 3.125 Z"
         transform="matrix(0.34173834,0,0,0.34173834,37.863616,5716.864)"
         clip-rule="evenodd"
         id="path6" />
    </clipPath>
    <clipPath
       clipPathUnits="userSpaceOnUse"
       id="clipPath8">
      <path
         d="m 3.125,3.125 h 418.75 V 337.5 H 3.125 Z"
         transform="matrix(0.34173834,0,0,0.34173834,37.863616,5716.864)"
         clip-rule="evenodd"
         id="path8" />
    </clipPath>
    <clipPath
       clipPathUnits="userSpaceOnUse"
       id="clipPath9">
      <path
         d="m 3.125,3.125 h 418.75 V 337.5 H 3.125 Z"
         transform="matrix(0.34173834,0,0,0.34173834,-20.21451,-24.636098)"
         clip-rule="evenodd"
         id="path9" />
    </clipPath>
    <clipPath
       clipPathUnits="userSpaceOnUse"
       id="clipPath10">
      <path
         d="m 3.125,3.125 h 418.75 V 337.5 H 3.125 Z"
         transform="matrix(0.34173834,0,0,0.34173834,-25.105134,-43.636098)"
         clip-rule="evenodd"
         id="path10" />
    </clipPath>
    <clipPath
       clipPathUnits="userSpaceOnUse"
       id="clipPath11">
      <path
         d="m 171.5827,162.80273 h 79.00781 v 43.89454 H 171.5827 Z"
         transform="matrix(0.34173834,0,0,0.34173834,-59.12076,-66.636097)"
         clip-rule="evenodd"
         id="path11" />
    </clipPath>
    <clipPath
       clipPathUnits="userSpaceOnUse"
       id="clipPath12">
      <path
         d="M 25.271919,230.10547 H 218.40217 V 314.9668 H 25.271919 Z"
         transform="matrix(0.34173834,0,0,0.34173834,-8.636385,-89.636097)"
         clip-rule="evenodd"
         id="path12" />
    </clipPath>
    <clipPath
       clipPathUnits="userSpaceOnUse"
       id="clipPath13">
      <path
         d="M 25.271919,230.10547 H 218.40217 V 314.9668 H 25.271919 Z"
         transform="matrix(0.34173834,0,0,0.34173834,-8.636385,-104.6361)"
         clip-rule="evenodd"
         id="path13" />
    </clipPath>
  </defs>
  <g
     id="g1">
    <path
       id="path1"
       d="M 0,0 H 136 V 108 H 0 Z"
       style="fill:#ffffff;fill-opacity:1;fill-rule:nonzero;stroke:none"
       clip-path="url(#clipPath2)" />
    <path
       id="path3"
       d="m 41,5770 v -50 h 139 v 50"
       style="fill:none;stroke:#000000;stroke-width:1;stroke-linecap:butt;stroke-linejoin:miter;stroke-miterlimit:10;stroke-dasharray:none;stroke-opacity:1"
       transform="matrix(0.93638889,0,0,0.93638889,-35.455069,-5353.2079)"
       clip-path="url(#clipPath4)" />
    <path
       id="path5"
       d="m 41,5770 v 60 h 139 v -60"
       style="fill:none;stroke:#000000;stroke-width:1;stroke-linecap:butt;stroke-linejoin:miter;stroke-miterlimit:10;stroke-dasharray:none;stroke-opacity:1"
       transform="matrix(0.93638889,0,0,0.93638889,-35.455069,-5353.2079)"
       clip-path="url(#clipPath6)" />
    <path
       id="path7"
       d="M 41,5770 H 180"
       style="fill:none;stroke:#000000;stroke-width:1;stroke-linecap:butt;stroke-linejoin:miter;stroke-miterlimit:10;stroke-dasharray:none;stroke-opacity:1"
       transform="matrix(0.93638889,0,0,0.93638889,-35.455069,-5353.2079)"
       clip-path="url(#clipPath8)" />
    <text
       id="text8"
       xml:space="preserve"
       transform="matrix(0.93638889,0,0,0.93638889,18.928643,23.068968)"
       clip-path="url(#clipPath9)"><tspan
         id="tspan8"
         style="font-variant:normal;font-weight:normal;font-size:16px;font-family:Arial;writing-mode:lr-tb;fill:#000000;fill-opacity:1;fill-rule:nonzero;stroke:none"
         x="0"
         y="0">«interface def»</tspan></text>
    <text
       id="text9"
       xml:space="preserve"
       transform="matrix(0.93638889,0,0,0.93638889,23.508169,40.860357)"
       clip-path="url(#clipPath10)"><tspan
         id="tspan9"
         style="font-variant:normal;font-weight:normal;font-size:16px;font-family:Arial;writing-mode:lr-tb;fill:#000000;fill-opacity:1;fill-rule:nonzero;stroke:none"
         x="0"
         y="0">InterfaceDef1</tspan></text>
    <text
       id="text10"
       xml:space="preserve"
       transform="matrix(0.93638889,0,0,0.93638889,55.360023,62.397301)"
       clip-path="url(#clipPath11)"><tspan
         id="tspan10"
         style="font-style:italic;font-variant:normal;font-weight:normal;font-size:12px;font-family:Arial;writing-mode:lr-tb;fill:#000000;fill-opacity:1;fill-rule:nonzero;stroke:none"
         x="0"
         y="0">ends</tspan></text>
    <text
       id="text11"
       xml:space="preserve"
       transform="matrix(0.93638889,0,0,0.93638889,8.087015,83.934245)"
       clip-path="url(#clipPath12)"><tspan
         id="tspan11"
         style="font-variant:normal;font-weight:normal;font-size:12px;font-family:Arial;writing-mode:lr-tb;fill:#000000;fill-opacity:1;fill-rule:nonzero;stroke:none"
         x="0"
         y="0">port1 : Port1</tspan></text>
    <text
       id="text12"
       xml:space="preserve"
       transform="matrix(0.93638889,0,0,0.93638889,8.087015,97.980079)"
       clip-path="url(#clipPath13)"><tspan
         id="tspan12"
         style="font-variant:normal;font-weight:normal;font-size:12px;font-family:Arial;writing-mode:lr-tb;fill:#000000;fill-opacity:1;fill-rule:nonzero;stroke:none"
         x="0"
         y="0">port2 : Port2</tspan></text>
  </g>
</svg>
