<?xml version="1.0" encoding="UTF-8" standalone="no"?>
<!-- Created with Inkscape (http://www.inkscape.org/) -->

<svg
   version="1.1"
   id="svg1"
   width="472"
   height="453.44"
   viewBox="0 0 472 453.44"
   xmlns="http://www.w3.org/2000/svg"
   xmlns:svg="http://www.w3.org/2000/svg">
  <defs
     id="defs1">
    <clipPath
       clipPathUnits="userSpaceOnUse"
       id="clipPath2">
      <path
         d="M 0,0 H 1475.9766 V 1416.0156 H 0 Z"
         transform="scale(0.31999999)"
         clip-rule="evenodd"
         id="path2" />
    </clipPath>
    <clipPath
       clipPathUnits="userSpaceOnUse"
       id="clipPath4">
      <path
         d="m 3.125,3.125 h 1468.75 V 1412.5 H 3.125 Z"
         transform="matrix(0.33639713,0,0,0.33639713,76.1343,-1643.1024)"
         clip-rule="evenodd"
         id="path4" />
    </clipPath>
    <clipPath
       clipPathUnits="userSpaceOnUse"
       id="clipPath5">
      <path
         d="m 3.125,3.125 h 1468.75 V 1412.5 H 3.125 Z"
         transform="matrix(0.33639713,0,0,0.33639713,-225.1782,-24.602544)"
         clip-rule="evenodd"
         id="path5" />
    </clipPath>
    <clipPath
       clipPathUnits="userSpaceOnUse"
       id="clipPath6">
      <path
         d="m 3.125,3.125 h 1468.75 V 1412.5 H 3.125 Z"
         transform="matrix(0.33639713,0,0,0.33639713,-229.63133,-43.602543)"
         clip-rule="evenodd"
         id="path6" />
    </clipPath>
    <clipPath
       clipPathUnits="userSpaceOnUse"
       id="clipPath8">
      <path
         d="m 3.125,3.125 h 1468.75 V 1412.5 H 3.125 Z"
         transform="matrix(0.33639713,0,0,0.33639713,76.1343,-1643.1024)"
         clip-rule="evenodd"
         id="path8" />
    </clipPath>
    <clipPath
       clipPathUnits="userSpaceOnUse"
       id="clipPath9">
      <path
         d="m 3.125,3.125 h 1468.75 V 1412.5 H 3.125 Z"
         transform="matrix(0.33639713,0,0,0.33639713,-208.77195,-204.60254)"
         clip-rule="evenodd"
         id="path9" />
    </clipPath>
    <clipPath
       clipPathUnits="userSpaceOnUse"
       id="clipPath10">
      <path
         d="m 3.125,3.125 h 1468.75 V 1412.5 H 3.125 Z"
         transform="matrix(0.33639713,0,0,0.33639713,-158.53758,-223.60254)"
         clip-rule="evenodd"
         id="path10" />
    </clipPath>
    <clipPath
       clipPathUnits="userSpaceOnUse"
       id="clipPath12">
      <path
         d="m 3.125,3.125 h 1468.75 V 1412.5 H 3.125 Z"
         transform="matrix(0.33639713,0,0,0.33639713,76.1343,-1643.1024)"
         clip-rule="evenodd"
         id="path12" />
    </clipPath>
    <clipPath
       clipPathUnits="userSpaceOnUse"
       id="clipPath13">
      <path
         d="m 3.125,3.125 h 1468.75 V 1412.5 H 3.125 Z"
         transform="matrix(0.33639713,0,0,0.33639713,-367.1782,-71.602543)"
         clip-rule="evenodd"
         id="path13" />
    </clipPath>
    <clipPath
       clipPathUnits="userSpaceOnUse"
       id="clipPath14">
      <path
         d="m 3.125,3.125 h 1468.75 V 1412.5 H 3.125 Z"
         transform="matrix(0.33639713,0,0,0.33639713,-345.85008,-90.602543)"
         clip-rule="evenodd"
         id="path14" />
    </clipPath>
    <clipPath
       clipPathUnits="userSpaceOnUse"
       id="clipPath16">
      <path
         d="m 3.125,3.125 h 1468.75 V 1412.5 H 3.125 Z"
         transform="matrix(0.33639713,0,0,0.33639713,76.1343,-1643.1024)"
         clip-rule="evenodd"
         id="path16" />
    </clipPath>
    <clipPath
       clipPathUnits="userSpaceOnUse"
       id="clipPath17">
      <path
         d="m 3.125,3.125 h 1468.75 V 1412.5 H 3.125 Z"
         transform="matrix(0.33639713,0,0,0.33639713,-80.1782,-71.602543)"
         clip-rule="evenodd"
         id="path17" />
    </clipPath>
    <clipPath
       clipPathUnits="userSpaceOnUse"
       id="clipPath18">
      <path
         d="m 3.125,3.125 h 1468.75 V 1412.5 H 3.125 Z"
         transform="matrix(0.33639713,0,0,0.33639713,-58.850076,-90.602543)"
         clip-rule="evenodd"
         id="path18" />
    </clipPath>
    <clipPath
       clipPathUnits="userSpaceOnUse"
       id="clipPath20">
      <path
         d="m 3.125,3.125 h 1468.75 V 1412.5 H 3.125 Z"
         transform="matrix(0.33639713,0,0,0.33639713,76.1343,-1643.1024)"
         clip-rule="evenodd"
         id="path20" />
    </clipPath>
    <clipPath
       clipPathUnits="userSpaceOnUse"
       id="clipPath21">
      <path
         d="m 3.125,3.125 h 1468.75 V 1412.5 H 3.125 Z"
         transform="matrix(0.33639713,0,0,0.33639713,-114.33445,-112.60254)"
         clip-rule="evenodd"
         id="path21" />
    </clipPath>
    <clipPath
       clipPathUnits="userSpaceOnUse"
       id="clipPath23">
      <path
         d="m 3.125,3.125 h 1468.75 V 1412.5 H 3.125 Z"
         transform="matrix(0.33639713,0,0,0.33639713,76.1343,-1643.1024)"
         clip-rule="evenodd"
         id="path23" />
    </clipPath>
    <clipPath
       clipPathUnits="userSpaceOnUse"
       id="clipPath25">
      <path
         d="m 3.125,3.125 h 1468.75 V 1412.5 H 3.125 Z"
         transform="matrix(0.33639713,0,0,0.33639713,76.1343,-1643.1024)"
         clip-rule="evenodd"
         id="path25" />
    </clipPath>
    <clipPath
       clipPathUnits="userSpaceOnUse"
       id="clipPath26">
      <path
         d="m 3.125,3.125 h 1468.75 V 1412.5 H 3.125 Z"
         transform="matrix(0.33639713,0,0,0.33639713,-335.17821,-256.60254)"
         clip-rule="evenodd"
         id="path26" />
    </clipPath>
    <clipPath
       clipPathUnits="userSpaceOnUse"
       id="clipPath27">
      <path
         d="m 3.125,3.125 h 1468.75 V 1412.5 H 3.125 Z"
         transform="matrix(0.33639713,0,0,0.33639713,-313.33445,-270.60255)"
         clip-rule="evenodd"
         id="path27" />
    </clipPath>
    <clipPath
       clipPathUnits="userSpaceOnUse"
       id="clipPath29">
      <path
         d="m 3.125,3.125 h 1468.75 V 1412.5 H 3.125 Z"
         transform="matrix(0.33639713,0,0,0.33639713,76.1343,-1643.1024)"
         clip-rule="evenodd"
         id="path29" />
    </clipPath>
    <clipPath
       clipPathUnits="userSpaceOnUse"
       id="clipPath31">
      <path
         d="m 3.125,3.125 h 1468.75 V 1412.5 H 3.125 Z"
         transform="matrix(0.33639713,0,0,0.33639713,76.1343,-1643.1024)"
         clip-rule="evenodd"
         id="path31" />
    </clipPath>
    <clipPath
       clipPathUnits="userSpaceOnUse"
       id="clipPath32">
      <path
         d="m 3.125,3.125 h 1468.75 V 1412.5 H 3.125 Z"
         transform="matrix(0.33639713,0,0,0.33639713,-107.1782,-256.60254)"
         clip-rule="evenodd"
         id="path32" />
    </clipPath>
    <clipPath
       clipPathUnits="userSpaceOnUse"
       id="clipPath33">
      <path
         d="m 3.125,3.125 h 1468.75 V 1412.5 H 3.125 Z"
         transform="matrix(0.33639713,0,0,0.33639713,-82.662575,-270.60255)"
         clip-rule="evenodd"
         id="path33" />
    </clipPath>
    <clipPath
       clipPathUnits="userSpaceOnUse"
       id="clipPath35">
      <path
         d="m 3.125,3.125 h 1468.75 V 1412.5 H 3.125 Z"
         transform="matrix(0.33639713,0,0,0.33639713,76.1343,-1643.1024)"
         clip-rule="evenodd"
         id="path35" />
    </clipPath>
    <clipPath
       clipPathUnits="userSpaceOnUse"
       id="clipPath37">
      <path
         d="m 3.125,3.125 h 1468.75 V 1412.5 H 3.125 Z"
         transform="matrix(0.33639713,0,0,0.33639713,76.1343,-1643.1024)"
         clip-rule="evenodd"
         id="path37" />
    </clipPath>
    <clipPath
       clipPathUnits="userSpaceOnUse"
       id="clipPath38">
      <path
         d="m 3.125,3.125 h 1468.75 V 1412.5 H 3.125 Z"
         transform="matrix(0.33639713,0,0,0.33639713,-345.3657,-112.60254)"
         clip-rule="evenodd"
         id="path38" />
    </clipPath>
    <clipPath
       clipPathUnits="userSpaceOnUse"
       id="clipPath40">
      <path
         d="m 3.125,3.125 h 1468.75 V 1412.5 H 3.125 Z"
         transform="matrix(0.33639713,0,0,0.33639713,76.1343,-1643.1024)"
         clip-rule="evenodd"
         id="path40" />
    </clipPath>
    <clipPath
       clipPathUnits="userSpaceOnUse"
       id="clipPath41">
      <path
         d="m 3.125,3.125 h 1468.75 V 1412.5 H 3.125 Z"
         transform="matrix(0.33639713,0,0,0.33639713,-316.3657,-430.60254)"
         clip-rule="evenodd"
         id="path41" />
    </clipPath>
    <clipPath
       clipPathUnits="userSpaceOnUse"
       id="clipPath43">
      <path
         d="m 3.125,3.125 h 1468.75 V 1412.5 H 3.125 Z"
         transform="matrix(0.33639713,0,0,0.33639713,76.1343,-1643.1024)"
         clip-rule="evenodd"
         id="path43" />
    </clipPath>
    <clipPath
       clipPathUnits="userSpaceOnUse"
       id="clipPath44">
      <path
         d="m 3.125,3.125 h 1468.75 V 1412.5 H 3.125 Z"
         transform="matrix(0.33639713,0,0,0.33639713,-315.3657,-367.60255)"
         clip-rule="evenodd"
         id="path44" />
    </clipPath>
    <clipPath
       clipPathUnits="userSpaceOnUse"
       id="clipPath46">
      <path
         d="m 3.125,3.125 h 1468.75 V 1412.5 H 3.125 Z"
         transform="matrix(0.33639713,0,0,0.33639713,76.1343,-1643.1024)"
         clip-rule="evenodd"
         id="path46" />
    </clipPath>
    <clipPath
       clipPathUnits="userSpaceOnUse"
       id="clipPath47">
      <path
         d="m 3.125,3.125 h 1468.75 V 1412.5 H 3.125 Z"
         transform="matrix(0.33639713,0,0,0.33639713,-315.3657,-303.60254)"
         clip-rule="evenodd"
         id="path47" />
    </clipPath>
    <clipPath
       clipPathUnits="userSpaceOnUse"
       id="clipPath49">
      <path
         d="m 3.125,3.125 h 1468.75 V 1412.5 H 3.125 Z"
         transform="matrix(0.33639713,0,0,0.33639713,76.1343,-1643.1024)"
         clip-rule="evenodd"
         id="path49" />
    </clipPath>
    <clipPath
       clipPathUnits="userSpaceOnUse"
       id="clipPath50">
      <path
         d="m 3.125,3.125 h 1468.75 V 1412.5 H 3.125 Z"
         transform="matrix(0.33639713,0,0,0.33639713,-143.33445,-430.60254)"
         clip-rule="evenodd"
         id="path50" />
    </clipPath>
    <clipPath
       clipPathUnits="userSpaceOnUse"
       id="clipPath52">
      <path
         d="m 3.125,3.125 h 1468.75 V 1412.5 H 3.125 Z"
         transform="matrix(0.33639713,0,0,0.33639713,76.1343,-1643.1024)"
         clip-rule="evenodd"
         id="path52" />
    </clipPath>
    <clipPath
       clipPathUnits="userSpaceOnUse"
       id="clipPath53">
      <path
         d="m 3.125,3.125 h 1468.75 V 1412.5 H 3.125 Z"
         transform="matrix(0.33639713,0,0,0.33639713,-143.33445,-367.60255)"
         clip-rule="evenodd"
         id="path53" />
    </clipPath>
    <clipPath
       clipPathUnits="userSpaceOnUse"
       id="clipPath55">
      <path
         d="m 3.125,3.125 h 1468.75 V 1412.5 H 3.125 Z"
         transform="matrix(0.33639713,0,0,0.33639713,76.1343,-1643.1024)"
         clip-rule="evenodd"
         id="path55" />
    </clipPath>
    <clipPath
       clipPathUnits="userSpaceOnUse"
       id="clipPath56">
      <path
         d="m 3.125,3.125 h 1468.75 V 1412.5 H 3.125 Z"
         transform="matrix(0.33639713,0,0,0.33639713,-143.33445,-303.60254)"
         clip-rule="evenodd"
         id="path56" />
    </clipPath>
    <clipPath
       clipPathUnits="userSpaceOnUse"
       id="clipPath58">
      <path
         d="m 3.125,3.125 h 1468.75 V 1412.5 H 3.125 Z"
         transform="matrix(0.33639713,0,0,0.33639713,76.1343,-1643.1024)"
         clip-rule="evenodd"
         id="path58" />
    </clipPath>
    <clipPath
       clipPathUnits="userSpaceOnUse"
       id="clipPath60">
      <path
         d="m 3.125,3.125 h 1468.75 V 1412.5 H 3.125 Z"
         transform="matrix(0.33639713,0,0,0.33639713,76.634299,-1642.6025)"
         clip-rule="evenodd"
         id="path60" />
    </clipPath>
    <clipPath
       clipPathUnits="userSpaceOnUse"
       id="clipPath61">
      <path
         d="m 3.125,3.125 h 1468.75 V 1412.5 H 3.125 Z"
         transform="matrix(0.33639713,0,0,0.33639713,-188.1157,-97.602543)"
         clip-rule="evenodd"
         id="path61" />
    </clipPath>
    <clipPath
       clipPathUnits="userSpaceOnUse"
       id="clipPath63">
      <path
         d="m 3.125,3.125 h 1468.75 V 1412.5 H 3.125 Z"
         transform="matrix(0.33639713,0,0,0.33639713,76.1343,-1643.1024)"
         clip-rule="evenodd"
         id="path63" />
    </clipPath>
    <clipPath
       clipPathUnits="userSpaceOnUse"
       id="clipPath65">
      <path
         d="m 3.125,3.125 h 1468.75 V 1412.5 H 3.125 Z"
         transform="matrix(0.33639713,0,0,0.33639713,76.1343,-1643.1024)"
         clip-rule="evenodd"
         id="path65" />
    </clipPath>
    <clipPath
       clipPathUnits="userSpaceOnUse"
       id="clipPath67">
      <path
         d="m 3.125,3.125 h 1468.75 V 1412.5 H 3.125 Z"
         transform="matrix(0.33639713,0,0,0.33639713,76.1343,-1643.1024)"
         clip-rule="evenodd"
         id="path67" />
    </clipPath>
  </defs>
  <g
     id="g1">
    <path
       id="path1"
       d="M 0,0 H 472 V 453 H 0 Z"
       style="fill:#ffffff;fill-opacity:1;fill-rule:nonzero;stroke:none"
       clip-path="url(#clipPath2)" />
    <path
       id="path3"
       d="M 84.239998,-1640 H 564.23999 c 0.66296,0 1.30072,0.1268 1.91333,0.3806 0.61255,0.2538 1.15326,0.6151 1.62213,1.0839 0.46881,0.4688 0.83014,1.0095 1.08386,1.6222 0.25373,0.6125 0.38062,1.2503 0.38068,1.9133 v 460 c -6e-5,0.6631 -0.12695,1.3009 -0.38068,1.9136 -0.25372,0.6125 -0.61505,1.1532 -1.08386,1.622 -0.46887,0.4689 -1.00958,0.8302 -1.62213,1.0839 -0.61261,0.2537 -1.25037,0.3805 -1.91333,0.3805 H 84.239998 c -0.663048,0 -1.300858,-0.1268 -1.913429,-0.3805 -0.612572,-0.2537 -1.153275,-0.615 -1.622109,-1.0839 -0.468849,-0.4688 -0.830139,-1.0095 -1.08387,-1.622 -0.253731,-0.6127 -0.3806,-1.2505 -0.380592,-1.9136 v -460 c -8e-6,-0.663 0.126861,-1.3008 0.380592,-1.9133 0.253731,-0.6127 0.615021,-1.1534 1.08387,-1.6222 0.468834,-0.4688 1.009537,-0.83 1.622109,-1.0838 0.612571,-0.2538 1.250381,-0.3807 1.913429,-0.3807 z"
       style="fill:none;stroke:#000000;stroke-width:1;stroke-linecap:butt;stroke-linejoin:miter;stroke-miterlimit:10;stroke-dasharray:none;stroke-opacity:1"
       transform="matrix(0.9512566,0,0,0.9512566,-72.423255,1563.012)"
       clip-path="url(#clipPath4)" />
    <text
       id="text4"
       xml:space="preserve"
       transform="matrix(0.9512566,0,0,0.9512566,214.20225,23.403332)"
       clip-path="url(#clipPath5)"><tspan
         id="tspan4"
         style="font-variant:normal;font-weight:normal;font-size:16px;font-family:Arial;writing-mode:lr-tb;fill:#000000;fill-opacity:1;fill-rule:nonzero;stroke:none"
         x="0"
         y="0">«part»</tspan></text>
    <text
       id="text5"
       xml:space="preserve"
       transform="matrix(0.9512566,0,0,0.9512566,218.43832,41.477207)"
       clip-path="url(#clipPath6)"><tspan
         id="tspan5"
         style="font-variant:normal;font-weight:normal;font-size:16px;font-family:Arial;writing-mode:lr-tb;fill:#000000;fill-opacity:1;fill-rule:nonzero;stroke:none"
         x="0"
         y="0">part0</tspan></text>
    <path
       id="path7"
       d="m 115.24,-1460 h 419.99999 c 0.66303,0 1.30078,0.1268 1.91333,0.3806 0.61255,0.2538 1.15326,0.6151 1.62213,1.0839 0.46881,0.4688 0.83014,1.0095 1.08386,1.6222 0.25373,0.6125 0.38062,1.2503 0.38068,1.9133 v 263 c -6e-5,0.6631 -0.12695,1.3009 -0.38068,1.9136 -0.25372,0.6125 -0.61505,1.1532 -1.08386,1.622 -0.46887,0.4689 -1.00958,0.8301 -1.62213,1.0839 -0.61255,0.2537 -1.2503,0.3805 -1.91333,0.3805 H 115.24 c -0.66305,0 -1.30087,-0.1268 -1.91344,-0.3805 -0.61257,-0.2538 -1.15327,-0.615 -1.62211,-1.0839 -0.46885,-0.4688 -0.83014,-1.0095 -1.08388,-1.622 -0.25373,-0.6127 -0.38058,-1.2505 -0.38057,-1.9136 v -263 c -10e-6,-0.663 0.12684,-1.3008 0.38057,-1.9133 0.25374,-0.6127 0.61503,-1.1534 1.08388,-1.6222 0.46884,-0.4688 1.00954,-0.83 1.62211,-1.0838 0.61257,-0.2538 1.25039,-0.3807 1.91344,-0.3807 z"
       style="fill:#ffffff;fill-opacity:1;fill-rule:nonzero;stroke:#000000;stroke-width:1;stroke-linecap:butt;stroke-linejoin:miter;stroke-miterlimit:10;stroke-dasharray:none;stroke-opacity:1"
       transform="matrix(0.9512566,0,0,0.9512566,-72.423255,1563.012)"
       clip-path="url(#clipPath8)" />
    <text
       id="text8"
       xml:space="preserve"
       transform="matrix(0.9512566,0,0,0.9512566,198.5957,194.62952)"
       clip-path="url(#clipPath9)"><tspan
         id="tspan8"
         style="font-variant:normal;font-weight:normal;font-size:16px;font-family:Arial;writing-mode:lr-tb;fill:#000000;fill-opacity:1;fill-rule:nonzero;stroke:none"
         x="0"
         y="0">«interface»</tspan></text>
    <text
       id="text9"
       xml:space="preserve"
       transform="matrix(0.9512566,0,0,0.9512566,150.80992,212.70339)"
       clip-path="url(#clipPath10)"><tspan
         id="tspan9"
         style="font-variant:normal;font-weight:normal;font-size:16px;font-family:Arial;writing-mode:lr-tb;fill:#000000;fill-opacity:1;fill-rule:nonzero;stroke:none"
         x="0"
         y="0">interface2 : InterfaceDef2</tspan></text>
    <path
       id="path11"
       d="M 413.04999,-1593 H 518.56 c 0.66302,10e-5 1.30078,0.1271 1.91333,0.3807 0.61261,0.2538 1.15332,0.6151 1.62219,1.0839 0.46881,0.4689 0.83014,1.0095 1.08386,1.6222 0.25373,0.6124 0.38056,1.2502 0.38062,1.9132 v 96.58 c -6e-5,0.6632 -0.12689,1.301 -0.38062,1.9136 -0.25372,0.6126 -0.61505,1.1532 -1.08386,1.6221 -0.46887,0.4689 -1.00958,0.8302 -1.62219,1.0838 -0.61255,0.2536 -1.25031,0.3805 -1.91333,0.3805 H 413.04999 c -0.66306,0 -1.30091,-0.1269 -1.91348,-0.3805 -0.61258,-0.2536 -1.15326,-0.6149 -1.62208,-1.0838 -0.46887,-0.4689 -0.83016,-1.0095 -1.08389,-1.6219 -0.25372,-0.6127 -0.38058,-1.2506 -0.38055,-1.9138 V -1588 c -3e-5,-0.663 0.12683,-1.3008 0.38055,-1.9132 0.25373,-0.6127 0.61502,-1.1533 1.08389,-1.6222 0.46882,-0.4688 1.0095,-0.8301 1.62208,-1.0839 0.61257,-0.2536 1.25042,-0.3806 1.91348,-0.3807 z"
       style="fill:#ffffff;fill-opacity:1;fill-rule:nonzero;stroke:#000000;stroke-width:1;stroke-linecap:butt;stroke-linejoin:miter;stroke-miterlimit:10;stroke-dasharray:none;stroke-opacity:1"
       transform="matrix(0.9512566,0,0,0.9512566,-72.423255,1563.012)"
       clip-path="url(#clipPath12)" />
    <text
       id="text12"
       xml:space="preserve"
       transform="matrix(0.9512566,0,0,0.9512566,349.28069,68.112392)"
       clip-path="url(#clipPath13)"><tspan
         id="tspan12"
         style="font-variant:normal;font-weight:normal;font-size:16px;font-family:Arial;writing-mode:lr-tb;fill:#000000;fill-opacity:1;fill-rule:nonzero;stroke:none"
         x="0"
         y="0">«part»</tspan></text>
    <text
       id="text13"
       xml:space="preserve"
       transform="matrix(0.9512566,0,0,0.9512566,328.99217,86.186267)"
       clip-path="url(#clipPath14)"><tspan
         id="tspan13"
         style="font-variant:normal;font-weight:normal;font-size:16px;font-family:Arial;writing-mode:lr-tb;fill:#000000;fill-opacity:1;fill-rule:nonzero;stroke:none"
         x="0"
         y="0">part2 : Part2</tspan></text>
    <path
       id="path15"
       d="m 121.96,-1593 h 114.74999 c 0.66303,10e-5 1.30081,0.1271 1.91338,0.3807 0.61256,0.2538 1.15327,0.6151 1.62213,1.0839 0.46882,0.4689 0.83011,1.0095 1.08385,1.6222 0.25375,0.6124 0.38063,1.2502 0.38064,1.9132 v 96.58 c -1e-5,0.6632 -0.12689,1.301 -0.38064,1.9136 -0.25374,0.6126 -0.61503,1.1532 -1.08385,1.6221 -0.46886,0.4689 -1.00957,0.8302 -1.62213,1.0838 -0.61257,0.2536 -1.25035,0.3805 -1.91338,0.3805 H 121.96 c -0.66305,0 -1.30086,-0.1269 -1.91343,-0.3805 -0.61257,-0.2536 -1.15327,-0.6149 -1.62211,-1.0838 -0.46885,-0.4689 -0.83014,-1.0095 -1.08387,-1.6219 -0.25374,-0.6127 -0.3806,-1.2506 -0.38059,-1.9138 V -1588 c -10e-6,-0.663 0.12685,-1.3008 0.38059,-1.9132 0.25373,-0.6127 0.61502,-1.1533 1.08387,-1.6222 0.46884,-0.4688 1.00954,-0.8301 1.62211,-1.0839 0.61257,-0.2536 1.25038,-0.3806 1.91343,-0.3807 z"
       style="fill:#ffffff;fill-opacity:1;fill-rule:nonzero;stroke:#000000;stroke-width:1;stroke-linecap:butt;stroke-linejoin:miter;stroke-miterlimit:10;stroke-dasharray:none;stroke-opacity:1"
       transform="matrix(0.9512566,0,0,0.9512566,-72.423255,1563.012)"
       clip-path="url(#clipPath16)" />
    <text
       id="text16"
       xml:space="preserve"
       transform="matrix(0.9512566,0,0,0.9512566,76.270042,68.112392)"
       clip-path="url(#clipPath17)"><tspan
         id="tspan16"
         style="font-variant:normal;font-weight:normal;font-size:16px;font-family:Arial;writing-mode:lr-tb;fill:#000000;fill-opacity:1;fill-rule:nonzero;stroke:none"
         x="0"
         y="0">«part»</tspan></text>
    <text
       id="text17"
       xml:space="preserve"
       transform="matrix(0.9512566,0,0,0.9512566,55.981523,86.186267)"
       clip-path="url(#clipPath18)"><tspan
         id="tspan17"
         style="font-variant:normal;font-weight:normal;font-size:16px;font-family:Arial;writing-mode:lr-tb;fill:#000000;fill-opacity:1;fill-rule:nonzero;stroke:none"
         x="0"
         y="0">part1 : Part1</tspan></text>
    <path
       id="path19"
       d="m 235.23,-1543.59 h 14 c 0.39781,2e-4 0.78047,0.076 1.14799,0.2287 0.36755,0.1522 0.69199,0.3689 0.9733,0.6502 0.28129,0.2814 0.49806,0.6059 0.6503,0.9734 0.15226,0.3675 0.22839,0.75 0.22841,1.1477 v 14 c -2e-5,0.398 -0.0761,0.7808 -0.22841,1.1483 -0.15224,0.3676 -0.36901,0.6919 -0.6503,0.9732 -0.28131,0.2814 -0.60575,0.4982 -0.9733,0.6504 -0.36752,0.1521 -0.75018,0.2281 -1.14799,0.2281 h -14 c -0.39785,0 -0.78054,-0.076 -1.14808,-0.2282 -0.36753,-0.1523 -0.69197,-0.3689 -0.97328,-0.6503 -0.28129,-0.2813 -0.49807,-0.6056 -0.65031,-0.9732 -0.15224,-0.3675 -0.22835,-0.7503 -0.22833,-1.1483 v -14 c -2e-5,-0.3977 0.0761,-0.7802 0.22833,-1.1477 0.15224,-0.3675 0.36902,-0.692 0.65031,-0.9734 0.28131,-0.2813 0.60575,-0.498 0.97328,-0.6502 0.36754,-0.1524 0.75023,-0.2285 1.14808,-0.2287 z"
       style="fill:#ffffff;fill-opacity:1;fill-rule:nonzero;stroke:#000000;stroke-width:1;stroke-linecap:butt;stroke-linejoin:miter;stroke-miterlimit:10;stroke-dasharray:none;stroke-opacity:1"
       transform="matrix(0.9512566,0,0,0.9512566,-72.423255,1563.012)"
       clip-path="url(#clipPath20)" />
    <text
       id="text20"
       xml:space="preserve"
       transform="matrix(0.9512566,0,0,0.9512566,108.7614,107.11391)"
       clip-path="url(#clipPath21)"><tspan
         id="tspan20"
         style="font-variant:normal;font-weight:normal;font-size:12px;font-family:Arial;writing-mode:lr-tb;fill:#000000;fill-opacity:1;fill-rule:nonzero;stroke:none"
         x="0"
         y="0">pa : Pa</tspan></text>
    <path
       id="path22"
       d="m 382,-1400 h 109.23999 c 0.66303,10e-5 1.30081,0.1271 1.91339,0.3807 0.61255,0.2538 1.15326,0.615 1.6221,1.0839 0.46884,0.4689 0.83011,1.0096 1.08383,1.6222 0.25376,0.6127 0.38065,1.2504 0.38068,1.9132 v 196.03 c -3e-5,0.6632 -0.12692,1.301 -0.38068,1.9135 -0.25372,0.6126 -0.61499,1.1534 -1.08383,1.6222 -0.46884,0.4688 -1.00955,0.8301 -1.62213,1.0838 -0.61255,0.2537 -1.25033,0.3805 -1.91336,0.3805 H 382 c -0.66306,0 -1.3009,-0.1268 -1.91348,-0.3805 -0.61258,-0.2537 -1.15326,-0.615 -1.6221,-1.0838 -0.46885,-0.4688 -0.83014,-1.0096 -1.08387,-1.6222 -0.25372,-0.6125 -0.38058,-1.2503 -0.38055,-1.9135 V -1395 c -3e-5,-0.6628 0.12683,-1.3005 0.38055,-1.9132 0.25373,-0.6126 0.61502,-1.1533 1.08387,-1.6222 0.46884,-0.4689 1.00952,-0.8301 1.6221,-1.0839 0.61258,-0.2536 1.25042,-0.3806 1.91348,-0.3807 z"
       style="fill:#ffffff;fill-opacity:1;fill-rule:nonzero;stroke:none"
       transform="matrix(0.9512566,0,0,0.9512566,-72.423255,1563.012)"
       clip-path="url(#clipPath23)" />
    <path
       id="path24"
       d="m 388,-1400.5 h 3 v 1 h -3 z m 6,0 h 3 v 1 h -3 z m 6,0 h 3 v 1 h -3 z m 6,0 h 3 v 1 h -3 z m 6,0 h 3 v 1 h -3 z m 6,0 h 3 v 1 h -3 z m 6,0 h 3 v 1 h -3 z m 6,0 h 3 v 1 h -3 z m 6,0 h 3 v 1 h -3 z m 6,0 h 3 v 1 h -3 z m 6,0 h 3 v 1 h -3 z m 6,0 h 3 v 1 h -3 z m 6,0 h 3 v 1 h -3 z m 6,0 h 3 v 1 h -3 z m 6,0 h 3 v 1 h -3 z m 6,0 h 3 v 1 h -3 z m 6,0 h 3 v 1 h -3 z m 6,0 h 1.23999 c 0.63925,10e-5 1.25964,0.1083 1.86124,0.3247 l -0.33844,0.9409 c -0.49213,-0.177 -0.99973,-0.2655 -1.5228,-0.2656 H 490 Z m 5.82825,2.4672 c 0.60785,0.9195 0.91177,1.9304 0.91174,3.0328 v 0.1063 h -1 V -1395 c 3e-5,-0.9019 -0.24863,-1.729 -0.74597,-2.4813 z m 0.91174,6.1391 v 3 h -1 v -3 z m 0,6 v 3 h -1 v -3 z m 0,6 v 3 h -1 v -3 z m 0,6 v 3 h -1 v -3 z m 0,6 v 3 h -1 v -3 z m 0,6 v 3 h -1 v -3 z m 0,6 v 3 h -1 v -3 z m 0,6 v 3 h -1 v -3 z m 0,6 v 3 h -1 v -3 z m 0,6 v 3 h -1 v -3 z m 0,6 v 3 h -1 v -3 z m 0,6 v 3 h -1 v -3 z m 0,6 v 3 h -1 v -3 z m 0,6 v 3 h -1 v -3 z m 0,6 v 3 h -1 v -3 z m 0,6 v 3 h -1 v -3 z m 0,6 v 3 h -1 v -3 z m 0,6 v 3 h -1 v -3 z m 0,6 v 3 h -1 v -3 z m 0,6 v 3 h -1 v -3 z m 0,6 v 3 h -1 v -3 z m 0,6 v 3 h -1 v -3 z m 0,6 v 3 h -1 v -3 z m 0,6 v 3 h -1 v -3 z m 0,6 v 3 h -1 v -3 z m 0,6 v 3 h -1 v -3 z m 0,6 v 3 h -1 v -3 z m 0,6 v 3 h -1 v -3 z m 0,6 v 3 h -1 v -3 z m 0,6 v 3 h -1 v -3 z m 0,6 v 3 h -1 v -3 z m 0,6 v 3 h -1 v -3 z m 0,6 v 0.9237 c 0,0.7641 -0.15259,1.4962 -0.45776,2.1968 l -0.91675,-0.3994 c 0.24966,-0.5731 0.37451,-1.1723 0.37451,-1.7974 v -0.9237 z m -2.7836,5.7062 c -0.84225,0.4784 -1.74771,0.7175 -2.7164,0.7175 h -0.42261 v -1 h 0.42261 c 0.79251,0 1.53336,-0.1957 2.22256,-0.5871 z m -6.13901,0.7175 h -3 v -1 h 3 z m -6,0 h -3 v -1 h 3 z m -6,0 h -3 v -1 h 3 z m -6,0 h -3 v -1 h 3 z m -6,0 h -3 v -1 h 3 z m -6,0 h -3 v -1 h 3 z m -6,0 h -3 v -1 h 3 z m -6,0 h -3 v -1 h 3 z m -6,0 h -3 v -1 h 3 z m -6,0 h -3 v -1 h 3 z m -6,0 h -3 v -1 h 3 z m -6,0 h -3 v -1 h 3 z m -6,0 h -3 v -1 h 3 z m -6,0 h -3 v -1 h 3 z m -6,0 h -3 v -1 h 3 z m -6,0 h -3 v -1 h 3 z m -6,0 h -3 v -1 h 3 z m -6,0 h -3 v -1 h 3 z m -6.12591,-0.5079 c -1.10965,-0.5132 -1.95429,-1.308 -2.53397,-2.3844 l 0.88043,-0.4741 c 0.47425,0.8806 1.16535,1.5309 2.07328,1.9508 z m -3.19147,-5.5209 v -3 h 1 v 3 z m 0,-6 v -3 h 1 v 3 z m 0,-6 v -3.0001 h 1 v 3.0001 z m 0,-6 v -3 h 1 v 3 z m 0,-6 v -3 h 1 v 3 z m 0,-6 v -3 h 1 v 3 z m 0,-6 v -3 h 1 v 3 z m 0,-6 v -3 h 1 v 3 z m 0,-6 v -3 h 1 v 3 z m 0,-6 v -3 h 1 v 3 z m 0,-6 v -3.0001 h 1 v 3.0001 z m 0,-6 v -3 h 1 v 3 z m 0,-6 v -3 h 1 v 3 z m 0,-6 v -3 h 1 v 3 z m 0,-6 v -3 h 1 v 3 z m 0,-6 v -3 h 1 v 3 z m 0,-6 v -3 h 1 v 3 z m 0,-6 v -3 h 1 v 3 z m 0,-6.0001 v -2.9999 h 1 v 2.9999 z m 0,-5.9999 v -3 h 1 v 3 z m 0,-6.0001 v -2.9999 h 1 v 2.9999 z m 0,-5.9999 v -3 h 1 v 3 z m 0,-6 v -3 h 1 v 3 z m 0,-6 v -3 h 1 v 3 z m 0,-6 v -3 h 1 v 3 z m 0,-6 v -3 h 1 v 3 z m 0,-6 v -3 h 1 v 3 z m 0,-6 v -3 h 1 v 3 z m 0,-6 v -3 h 1 v 3 z m 0,-6 v -3 h 1 v 3 z m 0,-6 v -3 h 1 v 3 z m 0,-6 v -3 h 1 v 3 z m 0,-6 v -3 h 1 v 3 z m 0.67297,-6.1374 c 0.586,-1.0729 1.43521,-1.8627 2.54764,-2.3693 l 0.41443,0.9102 c -0.91025,0.4144 -1.60504,1.0605 -2.08444,1.9383 z M 382,-1400.5 h 3 v 1 h -3 z"
       style="fill:#000000;fill-opacity:1;fill-rule:nonzero;stroke:none"
       transform="matrix(0.9512566,0,0,0.9512566,-72.423255,1563.012)"
       clip-path="url(#clipPath25)" />
    <text
       id="text25"
       xml:space="preserve"
       transform="matrix(0.9512566,0,0,0.9512566,318.84048,244.09486)"
       clip-path="url(#clipPath26)"><tspan
         id="tspan25"
         style="font-variant:normal;font-weight:normal;font-size:12px;font-family:Arial;writing-mode:lr-tb;fill:#000000;fill-opacity:1;fill-rule:nonzero;stroke:none"
         x="0"
         y="0">«ref port»</tspan></text>
    <text
       id="text26"
       xml:space="preserve"
       transform="matrix(0.9512566,0,0,0.9512566,298.06146,257.41246)"
       clip-path="url(#clipPath27)"><tspan
         id="tspan26"
         style="font-variant:normal;font-weight:normal;font-size:12px;font-family:Arial;writing-mode:lr-tb;fill:#000000;fill-opacity:1;fill-rule:nonzero;stroke:none"
         x="0"
         y="0">target ::&gt; part2.pb</tspan></text>
    <path
       id="path28"
       d="m 153.24,-1400 h 112.13 c 0.66302,10e-5 1.30081,0.1271 1.91339,0.3807 0.61258,0.2538 1.15329,0.615 1.62213,1.0839 0.46884,0.4689 0.83011,1.0096 1.08386,1.6222 0.25372,0.6127 0.38058,1.2504 0.38062,1.9132 v 196.03 c -4e-5,0.6632 -0.1269,1.301 -0.38062,1.9135 -0.25375,0.6126 -0.61502,1.1534 -1.08386,1.6222 -0.46884,0.4688 -1.00955,0.8301 -1.62213,1.0838 -0.61258,0.2537 -1.25037,0.3805 -1.91339,0.3805 H 153.24 c -0.66305,0 -1.30087,-0.1268 -1.91343,-0.3805 -0.61258,-0.2537 -1.15328,-0.615 -1.6221,-1.0838 -0.46884,-0.4688 -0.83013,-1.0096 -1.08387,-1.6222 -0.25373,-0.6125 -0.3806,-1.2503 -0.3806,-1.9135 V -1395 c 0,-0.6628 0.12687,-1.3005 0.3806,-1.9132 0.25374,-0.6126 0.61503,-1.1533 1.08387,-1.6222 0.46882,-0.4689 1.00952,-0.8301 1.6221,-1.0839 0.61256,-0.2536 1.25038,-0.3806 1.91343,-0.3807 z"
       style="fill:#ffffff;fill-opacity:1;fill-rule:nonzero;stroke:none"
       transform="matrix(0.9512566,0,0,0.9512566,-72.423255,1563.012)"
       clip-path="url(#clipPath29)" />
    <path
       id="path30"
       d="m 159.24,-1400.5 h 3 v 1 h -3 z m 6,0 h 3.00001 v 1 H 165.24 Z m 6.00001,0 h 3 v 1 h -3 z m 6,0 h 3 v 1 h -3 z m 6,0 h 3 v 1 h -3 z m 6,0 h 3 v 1 h -3 z m 6,0 h 3 v 1 h -3 z m 6,0 h 3 v 1 h -3 z m 6,0 h 3 v 1 h -3 z m 6,0 h 3 v 1 h -3 z m 6,0 h 3 v 1 h -3 z m 6,0 h 3 v 1 h -3 z m 6,0 h 3 v 1 h -3 z m 6,0 h 3 v 1 h -3 z m 6,0 h 3 v 1 h -3 z m 6,0 h 3 v 1 h -3 z m 6,0 h 2.99998 v 1 h -2.99998 z m 5.99998,0 h 3 v 1 h -3 z m 6.10843,0.3682 c 1.13815,0.4388 2.03146,1.1746 2.67993,2.2077 l -0.84698,0.5318 c -0.53058,-0.8453 -1.26148,-1.4474 -2.19269,-1.8064 z m 3.52158,5.3481 v 3 h -1 v -3 z m 0,6 v 3 h -1 v -3 z m 0,6 v 3 h -1 v -3 z m 0,6 v 3 h -1 v -3 z m 0,6 v 3 h -1 v -3 z m 0,6 v 3 h -1 v -3 z m 0,6 v 3 h -1 v -3 z m 0,6 v 3 h -1 v -3 z m 0,6 v 3 h -1 v -3 z m 0,6 v 3 h -1 v -3 z m 0,6 v 3 h -1 v -3 z m 0,6 v 3 h -1 v -3 z m 0,6 v 3 h -1 v -3 z m 0,6 v 3 h -1 v -3 z m 0,6 v 3 h -1 v -3 z m 0,6 v 3 h -1 v -3 z m 0,6 v 3 h -1 v -3 z m 0,6 v 3 h -1 v -3 z m 0,6 v 3 h -1 v -3 z m 0,6 v 3 h -1 v -3 z m 0,6 v 3 h -1 v -3 z m 0,6 v 3 h -1 v -3 z m 0,6 v 3 h -1 v -3 z m 0,6 v 3 h -1 v -3 z m 0,6 v 3 h -1 v -3 z m 0,6 v 3 h -1 v -3 z m 0,6 v 3 h -1 v -3 z m 0,6 v 3 h -1 v -3 z m 0,6 v 3 h -1 v -3 z m 0,6 v 3 h -1 v -3 z m 0,6 v 3 h -1 v -3 z m 0,6 v 3 h -1 v -3 z m 0,6 v 3 h -1 v -3 z m -0.50971,6.126 c -0.51398,1.1092 -1.30939,1.9533 -2.38623,2.5323 l -0.47357,-0.8808 c 0.88113,-0.4738 1.53195,-1.1643 1.95245,-2.0719 z m -5.52292,3.1877 h -3 v -1 h 3 z m -6,0 h -3 v -1 h 3 z m -6,0 h -3 v -1 h 3 z m -6,0 h -3 v -1 h 3 z m -6,0 h -3 v -1 h 3 z m -6,0 h -3 v -1 h 3 z m -6,0 h -3 v -1 h 3 z m -6,0 h -3 v -1 h 3 z m -6,0 h -3 v -1 h 3 z m -6,0 h -3 v -1 h 3 z m -6,0 h -3.00001 v -1 h 3.00001 z m -6,0 h -3 v -1 h 3 z m -6,0 h -3 v -1 h 3 z m -6.00001,0 h -2.99999 v -1 h 2.99999 z m -5.99999,0 h -3 v -1 h 3 z m -6.00001,0 h -3 v -1 h 3 z m -6,0 h -2.99999 v -1 h 2.99999 z m -6,0 h -3 v -1 h 3 z m -6,0 h -3 v -1 h 3 z m -6.13475,-0.6202 c -1.08484,-0.5641 -1.89183,-1.3974 -2.42098,-2.4998 l 0.90152,-0.4326 c 0.43289,0.9019 1.09317,1.5836 1.98082,2.0452 z m -2.96261,-5.6287 v -3 h 1 v 3 z m 0,-6 v -3 h 1 v 3 z m 0,-6 v -3 h 1 v 3 z m 0,-6 v -3 h 1 v 3 z m 0,-6 v -3 h 1 v 3 z m 0,-6 v -3 h 1 v 3 z m 0,-6 v -3 h 1 v 3 z m 0,-6 v -3 h 1 v 3 z m 0,-6 v -3 h 1 v 3 z m 0,-6 v -3 h 1 v 3 z m 0,-6 v -3 h 1 v 3 z m 0,-6 v -3 h 1 v 3 z m 0,-6 v -3 h 1 v 3 z m 0,-6 v -3 h 1 v 3 z m 0,-6 v -3 h 1 v 3 z m 0,-6 v -3 h 1 v 3 z m 0,-6 v -3 h 1 v 3 z m 0,-6 v -3 h 1 v 3 z m 0,-6 v -3 h 1 v 3 z m 0,-6 v -3 h 1 v 3 z m 0,-6 v -3 h 1 v 3 z m 0,-6 v -3 h 1 v 3 z m 0,-6 v -3 h 1 v 3 z m 0,-6 v -3 h 1 v 3 z m 0,-6 v -3 h 1 v 3 z m 0,-6 v -3 h 1 v 3 z m 0,-6 v -3 h 1 v 3 z m 0,-6 v -3 h 1 v 3 z m 0,-6 v -3 h 1 v 3 z m 0,-6 v -3 h 1 v 3 z m 0,-6 v -3 h 1 v 3 z m 0,-6 v -3 h 1 v 3 z m 0,-6 v -3 h 1 v 3 z m 0.80159,-6.1402 c 0.63457,-1.043 1.51832,-1.7915 2.65123,-2.2458 l 0.37214,0.9283 c -0.9269,0.3717 -1.64994,0.9841 -2.16909,1.8372 z M 153.24,-1400.5 h 3 v 1 h -3 z"
       style="fill:#000000;fill-opacity:1;fill-rule:nonzero;stroke:none"
       transform="matrix(0.9512566,0,0,0.9512566,-72.423255,1563.012)"
       clip-path="url(#clipPath31)" />
    <text
       id="text31"
       xml:space="preserve"
       transform="matrix(0.9512566,0,0,0.9512566,101.95397,244.09486)"
       clip-path="url(#clipPath32)"><tspan
         id="tspan31"
         style="font-variant:normal;font-weight:normal;font-size:12px;font-family:Arial;writing-mode:lr-tb;fill:#000000;fill-opacity:1;fill-rule:nonzero;stroke:none"
         x="0"
         y="0">«ref port»</tspan></text>
    <text
       id="text32"
       xml:space="preserve"
       transform="matrix(0.9512566,0,0,0.9512566,78.63332,257.41246)"
       clip-path="url(#clipPath33)"><tspan
         id="tspan32"
         style="font-variant:normal;font-weight:normal;font-size:12px;font-family:Arial;writing-mode:lr-tb;fill:#000000;fill-opacity:1;fill-rule:nonzero;stroke:none"
         x="0"
         y="0">source ::&gt; part1.pa</tspan></text>
    <path
       id="path34"
       d="m 324.73999,-1459.9984 -0.01,-3 h 1 l 0.01,3 m -1.01971,-5.9968 -0.01,-3 h 1 l 0.01,3 m -1.01975,-5.9967 -0.01,-3 h 1 l 0.01,3 m -1.01971,-5.9968 -0.01,-3 h 1 l 0.01,3 m -1.01972,-5.9968 -0.01,-3 h 1 l 0.01,3 m -1.01974,-5.9968 -0.01,-3 h 1 l 0.01,3 m -1.01972,-5.9967 -0.01,-3 h 1 l 0.01,3 m -1.01971,-5.9969 -0.01,-3 h 1 l 0.01,3 m -1.01975,-5.9969 -0.01,-3 h 1 l 0.01,3 m -1.01971,-5.9969 -0.01,-2.9999 h 1 l 0.01,2.9999 m -1.01975,-5.9968 -0.01,-3 h 1 l 0.01,3 m -1.01971,-5.9969 -0.01,-3 h 1 l 0.01,3 m -1.01971,-5.9969 -0.003,-1.0003 h 1 l 0.003,1.0004"
       style="fill:#000000;fill-opacity:1;fill-rule:nonzero;stroke:none"
       transform="matrix(0.9512566,0,0,0.9512566,-72.423255,1563.012)"
       clip-path="url(#clipPath35)" />
    <path
       id="path36"
       d="m 400.88,-1543.59 h 14 c 0.3978,2e-4 0.78046,0.076 1.14798,0.2287 0.36756,0.1522 0.69199,0.3689 0.9733,0.6502 0.28128,0.2814 0.49805,0.6059 0.6503,0.9734 0.15225,0.3675 0.22839,0.75 0.22842,1.1477 v 14 c -3e-5,0.398 -0.0762,0.7808 -0.22845,1.1483 -0.15225,0.3676 -0.36899,0.6919 -0.65027,0.9732 -0.28131,0.2814 -0.60574,0.4982 -0.9733,0.6504 -0.36752,0.1521 -0.75018,0.2281 -1.14798,0.2281 h -14 c -0.39785,0 -0.78054,-0.076 -1.1481,-0.2282 -0.36755,-0.1523 -0.69198,-0.3689 -0.97326,-0.6503 -0.28131,-0.2813 -0.49808,-0.6056 -0.65033,-0.9732 -0.15226,-0.3675 -0.22834,-0.7503 -0.22831,-1.1483 v -14 c -3e-5,-0.3977 0.0761,-0.7802 0.22834,-1.1477 0.15222,-0.3675 0.36899,-0.692 0.6503,-0.9734 0.28128,-0.2813 0.60571,-0.498 0.97326,-0.6502 0.36756,-0.1524 0.75025,-0.2285 1.1481,-0.2287 z"
       style="fill:#ffffff;fill-opacity:1;fill-rule:nonzero;stroke:#000000;stroke-width:1;stroke-linecap:butt;stroke-linejoin:miter;stroke-miterlimit:10;stroke-dasharray:none;stroke-opacity:1"
       transform="matrix(0.9512566,0,0,0.9512566,-72.423255,1563.012)"
       clip-path="url(#clipPath37)" />
    <text
       id="text37"
       xml:space="preserve"
       transform="matrix(0.9512566,0,0,0.9512566,328.5314,107.11391)"
       clip-path="url(#clipPath38)"><tspan
         id="tspan37"
         style="font-variant:normal;font-weight:normal;font-size:12px;font-family:Arial;writing-mode:lr-tb;fill:#000000;fill-opacity:1;fill-rule:nonzero;stroke:none"
         x="0"
         y="0">pb : ~Pa</tspan></text>
    <path
       id="path39"
       d="m 371.59,-1225.95 h 14 c 0.39779,2e-4 0.78048,0.076 1.14801,0.2286 0.36752,0.1522 0.69195,0.369 0.97329,0.6501 0.28128,0.2814 0.49802,0.6058 0.65027,0.9734 0.15225,0.3675 0.2284,0.7501 0.22843,1.1479 v 14 c -3e-5,0.3979 -0.0762,0.7807 -0.22843,1.1482 -0.15225,0.3676 -0.36899,0.6921 -0.65027,0.9733 -0.28134,0.2814 -0.60577,0.4982 -0.97329,0.6504 -0.36753,0.1521 -0.75022,0.2281 -1.14801,0.2281 h -14 c -0.39786,0 -0.78055,-0.076 -1.14814,-0.2282 -0.36752,-0.1522 -0.69192,-0.3689 -0.9732,-0.6503 -0.28134,-0.2812 -0.49811,-0.6057 -0.65033,-0.9734 -0.15225,-0.3675 -0.22836,-0.7502 -0.22833,-1.1481 v -14 c -3e-5,-0.3978 0.0761,-0.7804 0.22833,-1.1479 0.15222,-0.3676 0.36899,-0.692 0.65033,-0.9734 0.28128,-0.2811 0.60568,-0.4979 0.9732,-0.6501 0.36759,-0.1523 0.75028,-0.2284 1.14814,-0.2286 z"
       style="fill:#ffffff;fill-opacity:1;fill-rule:nonzero;stroke:#000000;stroke-width:1;stroke-linecap:butt;stroke-linejoin:miter;stroke-miterlimit:10;stroke-dasharray:none;stroke-opacity:1"
       transform="matrix(0.9512566,0,0,0.9512566,-72.423255,1563.012)"
       clip-path="url(#clipPath40)" />
    <text
       id="text40"
       xml:space="preserve"
       transform="matrix(0.9512566,0,0,0.9512566,300.94496,409.61351)"
       clip-path="url(#clipPath41)"><tspan
         id="tspan40"
         style="font-variant:normal;font-weight:normal;font-size:12px;font-family:Arial;writing-mode:lr-tb;fill:#000000;fill-opacity:1;fill-rule:nonzero;stroke:none"
         x="0"
         y="0">p3 : ~P3</tspan></text>
    <path
       id="path42"
       d="m 370.66,-1289.41 h 14 c 0.3978,10e-5 0.78046,0.076 1.14798,0.2285 0.36756,0.1522 0.69199,0.369 0.97333,0.6502 0.28125,0.2814 0.49802,0.6059 0.65027,0.9734 0.15225,0.3676 0.22839,0.7502 0.22842,1.1479 v 14 c -3e-5,0.3979 -0.0762,0.7806 -0.22845,1.1482 -0.15225,0.3675 -0.36899,0.6918 -0.65024,0.9731 -0.28134,0.2814 -0.60577,0.4982 -0.9733,0.6504 -0.36755,0.1522 -0.75021,0.2283 -1.14801,0.2283 h -14 c -0.39785,0 -0.78054,-0.076 -1.14807,-0.2283 -0.36755,-0.1522 -0.69198,-0.369 -0.97326,-0.6504 -0.28135,-0.2813 -0.49811,-0.6056 -0.65033,-0.9731 -0.15226,-0.3676 -0.22837,-0.7503 -0.22834,-1.1482 v -14 c -3e-5,-0.3977 0.0761,-0.7803 0.22834,-1.1479 0.15222,-0.3675 0.36898,-0.692 0.65033,-0.9734 0.28128,-0.2812 0.60571,-0.498 0.97326,-0.6502 0.36753,-0.1522 0.75022,-0.2284 1.14807,-0.2285 z"
       style="fill:#ffffff;fill-opacity:1;fill-rule:nonzero;stroke:#000000;stroke-width:1;stroke-linecap:butt;stroke-linejoin:miter;stroke-miterlimit:10;stroke-dasharray:none;stroke-opacity:1"
       transform="matrix(0.9512566,0,0,0.9512566,-72.423255,1563.012)"
       clip-path="url(#clipPath43)" />
    <text
       id="text43"
       xml:space="preserve"
       transform="matrix(0.9512566,0,0,0.9512566,299.9937,349.68435)"
       clip-path="url(#clipPath44)"><tspan
         id="tspan43"
         style="font-variant:normal;font-weight:normal;font-size:12px;font-family:Arial;writing-mode:lr-tb;fill:#000000;fill-opacity:1;fill-rule:nonzero;stroke:none"
         x="0"
         y="0">p2 : ~P2</tspan></text>
    <path
       id="path45"
       d="m 370.66,-1353.36 h 14 c 0.3978,10e-5 0.78046,0.076 1.14798,0.2284 0.36756,0.1522 0.69199,0.369 0.97333,0.6503 0.28125,0.2813 0.49802,0.6058 0.65027,0.9734 0.15225,0.3675 0.22839,0.7501 0.22842,1.1479 v 14 c -3e-5,0.3978 -0.0762,0.7806 -0.22845,1.1483 -0.15225,0.3676 -0.36899,0.6919 -0.65024,0.9732 -0.28134,0.2813 -0.60577,0.498 -0.9733,0.6502 -0.36755,0.1523 -0.75021,0.2283 -1.14801,0.2283 h -14 c -0.39785,0 -0.78054,-0.076 -1.14807,-0.2281 -0.36755,-0.1523 -0.69198,-0.3691 -0.97326,-0.6504 -0.28135,-0.2813 -0.49811,-0.6057 -0.65033,-0.9733 -0.15226,-0.3676 -0.22837,-0.7504 -0.22834,-1.1482 v -14 c -3e-5,-0.3978 0.0761,-0.7804 0.22834,-1.1479 0.15222,-0.3676 0.36898,-0.6921 0.65033,-0.9734 0.28128,-0.2813 0.60571,-0.498 0.97326,-0.6502 0.36753,-0.1522 0.75022,-0.2284 1.14807,-0.2285 z"
       style="fill:#ffffff;fill-opacity:1;fill-rule:nonzero;stroke:#000000;stroke-width:1;stroke-linecap:butt;stroke-linejoin:miter;stroke-miterlimit:10;stroke-dasharray:none;stroke-opacity:1"
       transform="matrix(0.9512566,0,0,0.9512566,-72.423255,1563.012)"
       clip-path="url(#clipPath46)" />
    <text
       id="text46"
       xml:space="preserve"
       transform="matrix(0.9512566,0,0,0.9512566,299.9937,288.80392)"
       clip-path="url(#clipPath47)"><tspan
         id="tspan46"
         style="font-variant:normal;font-weight:normal;font-size:12px;font-family:Arial;writing-mode:lr-tb;fill:#000000;fill-opacity:1;fill-rule:nonzero;stroke:none"
         x="0"
         y="0">p1 : ~P1</tspan></text>
    <path
       id="path48"
       d="m 263.54999,-1225.95 h 14 c 0.39779,2e-4 0.78048,0.076 1.14804,0.2286 0.36752,0.1522 0.69192,0.369 0.97327,0.6501 0.28128,0.2814 0.49807,0.6058 0.65032,0.9734 0.15223,0.3675 0.22834,0.7501 0.22837,1.1479 v 14 c -3e-5,0.3979 -0.0762,0.7807 -0.22843,1.1482 -0.15222,0.3676 -0.36898,0.6921 -0.65026,0.9733 -0.28135,0.2814 -0.60578,0.4982 -0.9733,0.6504 -0.36753,0.1521 -0.75022,0.2281 -1.14801,0.2281 h -14 c -0.39786,0 -0.78055,-0.076 -1.14807,-0.2282 -0.36756,-0.1522 -0.69199,-0.3689 -0.97327,-0.6503 -0.28131,-0.2812 -0.49811,-0.6057 -0.65036,-0.9734 -0.15222,-0.3675 -0.22833,-0.7502 -0.2283,-1.1481 v -14 c -3e-5,-0.3978 0.0761,-0.7804 0.2283,-1.1479 0.15225,-0.3676 0.36905,-0.692 0.65036,-0.9734 0.28128,-0.2811 0.60571,-0.4979 0.97327,-0.6501 0.36752,-0.1523 0.75021,-0.2284 1.14807,-0.2286 z"
       style="fill:#ffffff;fill-opacity:1;fill-rule:nonzero;stroke:#000000;stroke-width:1;stroke-linecap:butt;stroke-linejoin:miter;stroke-miterlimit:10;stroke-dasharray:none;stroke-opacity:1"
       transform="matrix(0.9512566,0,0,0.9512566,-72.423255,1563.012)"
       clip-path="url(#clipPath49)" />
    <text
       id="text49"
       xml:space="preserve"
       transform="matrix(0.9512566,0,0,0.9512566,136.34784,409.61351)"
       clip-path="url(#clipPath50)"><tspan
         id="tspan49"
         style="font-variant:normal;font-weight:normal;font-size:12px;font-family:Arial;writing-mode:lr-tb;fill:#000000;fill-opacity:1;fill-rule:nonzero;stroke:none"
         x="0"
         y="0">p3 : P3</tspan></text>
    <path
       id="path51"
       d="m 263.54999,-1289.41 h 14 c 0.39779,10e-5 0.78048,0.076 1.14804,0.2285 0.36752,0.1522 0.69192,0.369 0.97327,0.6502 0.28128,0.2814 0.49807,0.6059 0.65032,0.9734 0.15223,0.3676 0.22834,0.7502 0.22837,1.1479 v 14 c -3e-5,0.3979 -0.0762,0.7806 -0.22843,1.1482 -0.15222,0.3675 -0.36898,0.6918 -0.65026,0.9731 -0.28135,0.2814 -0.60578,0.4982 -0.9733,0.6504 -0.36753,0.1522 -0.75022,0.2283 -1.14801,0.2283 h -14 c -0.39786,0 -0.78055,-0.076 -1.14807,-0.2283 -0.36756,-0.1522 -0.69199,-0.369 -0.97327,-0.6504 -0.28131,-0.2813 -0.49811,-0.6056 -0.65036,-0.9731 -0.15222,-0.3676 -0.22833,-0.7503 -0.2283,-1.1482 v -14 c -3e-5,-0.3977 0.0761,-0.7803 0.2283,-1.1479 0.15225,-0.3675 0.36905,-0.692 0.65036,-0.9734 0.28128,-0.2812 0.60571,-0.498 0.97327,-0.6502 0.36752,-0.1522 0.75021,-0.2284 1.14807,-0.2285 z"
       style="fill:#ffffff;fill-opacity:1;fill-rule:nonzero;stroke:#000000;stroke-width:1;stroke-linecap:butt;stroke-linejoin:miter;stroke-miterlimit:10;stroke-dasharray:none;stroke-opacity:1"
       transform="matrix(0.9512566,0,0,0.9512566,-72.423255,1563.012)"
       clip-path="url(#clipPath52)" />
    <text
       id="text52"
       xml:space="preserve"
       transform="matrix(0.9512566,0,0,0.9512566,136.34784,349.68435)"
       clip-path="url(#clipPath53)"><tspan
         id="tspan52"
         style="font-variant:normal;font-weight:normal;font-size:12px;font-family:Arial;writing-mode:lr-tb;fill:#000000;fill-opacity:1;fill-rule:nonzero;stroke:none"
         x="0"
         y="0">p2 : P2</tspan></text>
    <path
       id="path54"
       d="m 263.54999,-1353.36 h 14 c 0.39779,10e-5 0.78048,0.076 1.14804,0.2284 0.36752,0.1522 0.69192,0.369 0.97327,0.6503 0.28128,0.2813 0.49807,0.6058 0.65032,0.9734 0.15223,0.3675 0.22834,0.7501 0.22837,1.1479 v 14 c -3e-5,0.3978 -0.0762,0.7806 -0.22843,1.1483 -0.15222,0.3676 -0.36898,0.6919 -0.65026,0.9732 -0.28135,0.2813 -0.60578,0.498 -0.9733,0.6502 -0.36753,0.1523 -0.75022,0.2283 -1.14801,0.2283 h -14 c -0.39786,0 -0.78055,-0.076 -1.14807,-0.2281 -0.36756,-0.1523 -0.69199,-0.3691 -0.97327,-0.6504 -0.28131,-0.2813 -0.49811,-0.6057 -0.65036,-0.9733 -0.15222,-0.3676 -0.22833,-0.7504 -0.2283,-1.1482 v -14 c -3e-5,-0.3978 0.0761,-0.7804 0.2283,-1.1479 0.15225,-0.3676 0.36905,-0.6921 0.65036,-0.9734 0.28128,-0.2813 0.60571,-0.498 0.97327,-0.6502 0.36752,-0.1522 0.75021,-0.2284 1.14807,-0.2285 z"
       style="fill:#ffffff;fill-opacity:1;fill-rule:nonzero;stroke:#000000;stroke-width:1;stroke-linecap:butt;stroke-linejoin:miter;stroke-miterlimit:10;stroke-dasharray:none;stroke-opacity:1"
       transform="matrix(0.9512566,0,0,0.9512566,-72.423255,1563.012)"
       clip-path="url(#clipPath55)" />
    <text
       id="text55"
       xml:space="preserve"
       transform="matrix(0.9512566,0,0,0.9512566,136.34784,288.80392)"
       clip-path="url(#clipPath56)"><tspan
         id="tspan55"
         style="font-variant:normal;font-weight:normal;font-size:12px;font-family:Arial;writing-mode:lr-tb;fill:#000000;fill-opacity:1;fill-rule:nonzero;stroke:none"
         x="0"
         y="0">p1 : P1</tspan></text>
    <path
       id="path57"
       d="m 252.17,-1533.37 145.71,-0.22"
       style="fill:none;stroke:#000000;stroke-width:1;stroke-linecap:butt;stroke-linejoin:miter;stroke-miterlimit:10;stroke-dasharray:none;stroke-opacity:1"
       transform="matrix(0.9512566,0,0,0.9512566,-72.423255,1563.012)"
       clip-path="url(#clipPath58)" />
    <path
       id="path59"
       d="m 265,-1555 h 123 v 13 H 265 Z"
       style="fill:#ffffff;fill-opacity:1;fill-rule:nonzero;stroke:none"
       transform="matrix(0.9512566,0,0,0.9512566,-72.898883,1562.5365)"
       clip-path="url(#clipPath60)" />
    <text
       id="text60"
       xml:space="preserve"
       transform="matrix(0.9512566,0,0,0.9512566,178.9463,92.845063)"
       clip-path="url(#clipPath61)"><tspan
         id="tspan60"
         style="font-variant:normal;font-weight:normal;font-size:11px;font-family:Arial;writing-mode:lr-tb;fill:#000000;fill-opacity:1;fill-rule:nonzero;stroke:none"
         x="0"
         y="0">interface2 : InterfaceDef2</tspan></text>
    <path
       id="path62"
       d="M 280.54999,-1343.36 H 367.66"
       style="fill:none;stroke:#000000;stroke-width:1;stroke-linecap:butt;stroke-linejoin:miter;stroke-miterlimit:10;stroke-dasharray:none;stroke-opacity:1"
       transform="matrix(0.9512566,0,0,0.9512566,-72.423255,1563.012)"
       clip-path="url(#clipPath63)" />
    <path
       id="path64"
       d="M 280.54999,-1279.41 H 367.66"
       style="fill:none;stroke:#000000;stroke-width:1;stroke-linecap:butt;stroke-linejoin:miter;stroke-miterlimit:10;stroke-dasharray:none;stroke-opacity:1"
       transform="matrix(0.9512566,0,0,0.9512566,-72.423255,1563.012)"
       clip-path="url(#clipPath65)" />
    <path
       id="path66"
       d="M 280.54999,-1215.95 H 368.59"
       style="fill:none;stroke:#000000;stroke-width:1;stroke-linecap:butt;stroke-linejoin:miter;stroke-miterlimit:10;stroke-dasharray:none;stroke-opacity:1"
       transform="matrix(0.9512566,0,0,0.9512566,-72.423255,1563.012)"
       clip-path="url(#clipPath67)" />
  </g>
</svg>
