<?xml version="1.0" encoding="UTF-8" standalone="no"?>
<!-- Created with Inkscape (http://www.inkscape.org/) -->

<svg
   version="1.1"
   id="svg1"
   width="472"
   height="348.16"
   viewBox="0 0 472 348.16"
   xmlns="http://www.w3.org/2000/svg"
   xmlns:svg="http://www.w3.org/2000/svg">
  <defs
     id="defs1">
    <clipPath
       clipPathUnits="userSpaceOnUse"
       id="clipPath2">
      <path
         d="M 0,0 H 1475.9766 V 1089 H 0 Z"
         transform="scale(0.31999999)"
         clip-rule="evenodd"
         id="path2" />
    </clipPath>
    <clipPath
       clipPathUnits="userSpaceOnUse"
       id="clipPath4">
      <path
         d="m 3.125,3.125 h 1468.75 V 1087.5 H 3.125 Z"
         transform="matrix(0.33639947,0,0,0.33639947,76.892579,-1043.1025)"
         clip-rule="evenodd"
         id="path4" />
    </clipPath>
    <clipPath
       clipPathUnits="userSpaceOnUse"
       id="clipPath5">
      <path
         d="m 3.125,3.125 h 1468.75 V 1087.5 H 3.125 Z"
         transform="matrix(0.33639947,0,0,0.33639947,-225.41993,-24.60247)"
         clip-rule="evenodd"
         id="path5" />
    </clipPath>
    <clipPath
       clipPathUnits="userSpaceOnUse"
       id="clipPath6">
      <path
         d="m 3.125,3.125 h 1468.75 V 1087.5 H 3.125 Z"
         transform="matrix(0.33639947,0,0,0.33639947,-229.87306,-43.602469)"
         clip-rule="evenodd"
         id="path6" />
    </clipPath>
    <clipPath
       clipPathUnits="userSpaceOnUse"
       id="clipPath8">
      <path
         d="m 3.125,3.125 h 1468.75 V 1087.5 H 3.125 Z"
         transform="matrix(0.33639947,0,0,0.33639947,76.892579,-1043.1025)"
         clip-rule="evenodd"
         id="path8" />
    </clipPath>
    <clipPath
       clipPathUnits="userSpaceOnUse"
       id="clipPath9">
      <path
         d="m 3.125,3.125 h 1468.75 V 1087.5 H 3.125 Z"
         transform="matrix(0.33639947,0,0,0.33639947,-208.01368,-198.60246)"
         clip-rule="evenodd"
         id="path9" />
    </clipPath>
    <clipPath
       clipPathUnits="userSpaceOnUse"
       id="clipPath10">
      <path
         d="m 3.125,3.125 h 1468.75 V 1087.5 H 3.125 Z"
         transform="matrix(0.33639947,0,0,0.33639947,-196.90431,-217.60246)"
         clip-rule="evenodd"
         id="path10" />
    </clipPath>
    <clipPath
       clipPathUnits="userSpaceOnUse"
       id="clipPath12">
      <path
         d="m 3.125,3.125 h 1468.75 V 1087.5 H 3.125 Z"
         transform="matrix(0.33639947,0,0,0.33639947,76.892579,-1043.1025)"
         clip-rule="evenodd"
         id="path12" />
    </clipPath>
    <clipPath
       clipPathUnits="userSpaceOnUse"
       id="clipPath13">
      <path
         d="m 3.125,3.125 h 1468.75 V 1087.5 H 3.125 Z"
         transform="matrix(0.33639947,0,0,0.33639947,-367.41993,-69.60247)"
         clip-rule="evenodd"
         id="path13" />
    </clipPath>
    <clipPath
       clipPathUnits="userSpaceOnUse"
       id="clipPath14">
      <path
         d="m 3.125,3.125 h 1468.75 V 1087.5 H 3.125 Z"
         transform="matrix(0.33639947,0,0,0.33639947,-346.0918,-88.602469)"
         clip-rule="evenodd"
         id="path14" />
    </clipPath>
    <clipPath
       clipPathUnits="userSpaceOnUse"
       id="clipPath16">
      <path
         d="m 3.125,3.125 h 1468.75 V 1087.5 H 3.125 Z"
         transform="matrix(0.33639947,0,0,0.33639947,76.892579,-1043.1025)"
         clip-rule="evenodd"
         id="path16" />
    </clipPath>
    <clipPath
       clipPathUnits="userSpaceOnUse"
       id="clipPath17">
      <path
         d="m 3.125,3.125 h 1468.75 V 1087.5 H 3.125 Z"
         transform="matrix(0.33639947,0,0,0.33639947,-80.419927,-69.60247)"
         clip-rule="evenodd"
         id="path17" />
    </clipPath>
    <clipPath
       clipPathUnits="userSpaceOnUse"
       id="clipPath18">
      <path
         d="m 3.125,3.125 h 1468.75 V 1087.5 H 3.125 Z"
         transform="matrix(0.33639947,0,0,0.33639947,-59.091802,-88.602469)"
         clip-rule="evenodd"
         id="path18" />
    </clipPath>
    <clipPath
       clipPathUnits="userSpaceOnUse"
       id="clipPath20">
      <path
         d="m 3.125,3.125 h 1468.75 V 1087.5 H 3.125 Z"
         transform="matrix(0.33639947,0,0,0.33639947,76.892579,-1043.1025)"
         clip-rule="evenodd"
         id="path20" />
    </clipPath>
    <clipPath
       clipPathUnits="userSpaceOnUse"
       id="clipPath21">
      <path
         d="m 3.125,3.125 h 1468.75 V 1087.5 H 3.125 Z"
         transform="matrix(0.33639947,0,0,0.33639947,-113.57618,-109.60247)"
         clip-rule="evenodd"
         id="path21" />
    </clipPath>
    <clipPath
       clipPathUnits="userSpaceOnUse"
       id="clipPath23">
      <path
         d="m 3.125,3.125 h 1468.75 V 1087.5 H 3.125 Z"
         transform="matrix(0.33639947,0,0,0.33639947,76.892579,-1043.1025)"
         clip-rule="evenodd"
         id="path23" />
    </clipPath>
    <clipPath
       clipPathUnits="userSpaceOnUse"
       id="clipPath25">
      <path
         d="m 3.125,3.125 h 1468.75 V 1087.5 H 3.125 Z"
         transform="matrix(0.33639947,0,0,0.33639947,76.892579,-1043.1025)"
         clip-rule="evenodd"
         id="path25" />
    </clipPath>
    <clipPath
       clipPathUnits="userSpaceOnUse"
       id="clipPath26">
      <path
         d="m 3.125,3.125 h 1468.75 V 1087.5 H 3.125 Z"
         transform="matrix(0.33639947,0,0,0.33639947,-345.60743,-109.60247)"
         clip-rule="evenodd"
         id="path26" />
    </clipPath>
    <clipPath
       clipPathUnits="userSpaceOnUse"
       id="clipPath28">
      <path
         d="m 3.125,3.125 h 1468.75 V 1087.5 H 3.125 Z"
         transform="matrix(0.33639947,0,0,0.33639947,76.892579,-1043.1025)"
         clip-rule="evenodd"
         id="path28" />
    </clipPath>
    <clipPath
       clipPathUnits="userSpaceOnUse"
       id="clipPath29">
      <path
         d="m 3.125,3.125 h 1468.75 V 1087.5 H 3.125 Z"
         transform="matrix(0.33639947,0,0,0.33639947,-226.23243,-332.60247)"
         clip-rule="evenodd"
         id="path29" />
    </clipPath>
    <clipPath
       clipPathUnits="userSpaceOnUse"
       id="clipPath31">
      <path
         d="m 3.125,3.125 h 1468.75 V 1087.5 H 3.125 Z"
         transform="matrix(0.33639947,0,0,0.33639947,76.892579,-1043.1025)"
         clip-rule="evenodd"
         id="path31" />
    </clipPath>
    <clipPath
       clipPathUnits="userSpaceOnUse"
       id="clipPath32">
      <path
         d="m 3.125,3.125 h 1468.75 V 1087.5 H 3.125 Z"
         transform="matrix(0.33639947,0,0,0.33639947,-216.90431,-274.60247)"
         clip-rule="evenodd"
         id="path32" />
    </clipPath>
    <clipPath
       clipPathUnits="userSpaceOnUse"
       id="clipPath34">
      <path
         d="m 3.125,3.125 h 1468.75 V 1087.5 H 3.125 Z"
         transform="matrix(0.33639947,0,0,0.33639947,76.892579,-1043.1025)"
         clip-rule="evenodd"
         id="path34" />
    </clipPath>
    <clipPath
       clipPathUnits="userSpaceOnUse"
       id="clipPath35">
      <path
         d="m 3.125,3.125 h 1468.75 V 1087.5 H 3.125 Z"
         transform="matrix(0.33639947,0,0,0.33639947,-208.60743,-298.60247)"
         clip-rule="evenodd"
         id="path35" />
    </clipPath>
    <clipPath
       clipPathUnits="userSpaceOnUse"
       id="clipPath37">
      <path
         d="m 3.125,3.125 h 1468.75 V 1087.5 H 3.125 Z"
         transform="matrix(0.33639947,0,0,0.33639947,76.892579,-1043.1025)"
         clip-rule="evenodd"
         id="path37" />
    </clipPath>
    <clipPath
       clipPathUnits="userSpaceOnUse"
       id="clipPath38">
      <path
         d="m 3.125,3.125 h 1468.75 V 1087.5 H 3.125 Z"
         transform="matrix(0.33639947,0,0,0.33639947,-208.60743,-240.60246)"
         clip-rule="evenodd"
         id="path38" />
    </clipPath>
    <clipPath
       clipPathUnits="userSpaceOnUse"
       id="clipPath40">
      <path
         d="m 3.125,3.125 h 1468.75 V 1087.5 H 3.125 Z"
         transform="matrix(0.33639947,0,0,0.33639947,76.892579,-1043.1025)"
         clip-rule="evenodd"
         id="path40" />
    </clipPath>
    <clipPath
       clipPathUnits="userSpaceOnUse"
       id="clipPath42">
      <path
         d="m 3.125,3.125 h 1468.75 V 1087.5 H 3.125 Z"
         transform="matrix(0.33639947,0,0,0.33639947,77.392572,-1042.6025)"
         clip-rule="evenodd"
         id="path42" />
    </clipPath>
    <clipPath
       clipPathUnits="userSpaceOnUse"
       id="clipPath43">
      <path
         d="m 3.125,3.125 h 1468.75 V 1087.5 H 3.125 Z"
         transform="matrix(0.33639947,0,0,0.33639947,-214.24806,-93.602469)"
         clip-rule="evenodd"
         id="path43" />
    </clipPath>
    <clipPath
       clipPathUnits="userSpaceOnUse"
       id="clipPath45">
      <path
         d="m 3.125,3.125 h 1468.75 V 1087.5 H 3.125 Z"
         transform="matrix(0.33639947,0,0,0.33639947,76.892579,-1043.1025)"
         clip-rule="evenodd"
         id="path45" />
    </clipPath>
    <clipPath
       clipPathUnits="userSpaceOnUse"
       id="clipPath47">
      <path
         d="m 3.125,3.125 h 1468.75 V 1087.5 H 3.125 Z"
         transform="matrix(0.33639947,0,0,0.33639947,76.892579,-1043.1025)"
         clip-rule="evenodd"
         id="path47" />
    </clipPath>
    <clipPath
       clipPathUnits="userSpaceOnUse"
       id="clipPath49">
      <path
         d="m 3.125,3.125 h 1468.75 V 1087.5 H 3.125 Z"
         transform="matrix(0.33639947,0,0,0.33639947,76.892579,-1043.1025)"
         clip-rule="evenodd"
         id="path49" />
    </clipPath>
    <clipPath
       clipPathUnits="userSpaceOnUse"
       id="clipPath51">
      <path
         d="m 3.125,3.125 h 1468.75 V 1087.5 H 3.125 Z"
         transform="matrix(0.33639947,0,0,0.33639947,76.892579,-1043.1025)"
         clip-rule="evenodd"
         id="path51" />
    </clipPath>
    <clipPath
       clipPathUnits="userSpaceOnUse"
       id="clipPath53">
      <path
         d="m 3.125,3.125 h 1468.75 V 1087.5 H 3.125 Z"
         transform="matrix(0.33639947,0,0,0.33639947,76.892579,-1043.1025)"
         clip-rule="evenodd"
         id="path53" />
    </clipPath>
    <clipPath
       clipPathUnits="userSpaceOnUse"
       id="clipPath55">
      <path
         d="m 3.125,3.125 h 1468.75 V 1087.5 H 3.125 Z"
         transform="matrix(0.33639947,0,0,0.33639947,76.892579,-1043.1025)"
         clip-rule="evenodd"
         id="path55" />
    </clipPath>
    <clipPath
       clipPathUnits="userSpaceOnUse"
       id="clipPath57">
      <path
         d="m 3.125,3.125 h 1468.75 V 1087.5 H 3.125 Z"
         transform="matrix(0.33639947,0,0,0.33639947,76.892579,-1043.1025)"
         clip-rule="evenodd"
         id="path57" />
    </clipPath>
    <clipPath
       clipPathUnits="userSpaceOnUse"
       id="clipPath58">
      <path
         d="m 3.125,3.125 h 1468.75 V 1087.5 H 3.125 Z"
         transform="matrix(0.33639947,0,0,0.33639947,-259.09181,-121.60247)"
         clip-rule="evenodd"
         id="path58" />
    </clipPath>
    <clipPath
       clipPathUnits="userSpaceOnUse"
       id="clipPath59">
      <path
         d="m 3.125,3.125 h 1468.75 V 1087.5 H 3.125 Z"
         transform="matrix(0.33639947,0,0,0.33639947,-265.81056,-135.60247)"
         clip-rule="evenodd"
         id="path59" />
    </clipPath>
    <clipPath
       clipPathUnits="userSpaceOnUse"
       id="clipPath60">
      <path
         d="m 3.125,3.125 h 1468.75 V 1087.5 H 3.125 Z"
         transform="matrix(0.33639947,0,0,0.33639947,-195.09181,-121.60247)"
         clip-rule="evenodd"
         id="path60" />
    </clipPath>
    <clipPath
       clipPathUnits="userSpaceOnUse"
       id="clipPath61">
      <path
         d="m 3.125,3.125 h 1468.75 V 1087.5 H 3.125 Z"
         transform="matrix(0.33639947,0,0,0.33639947,-201.81056,-135.60247)"
         clip-rule="evenodd"
         id="path61" />
    </clipPath>
    <clipPath
       clipPathUnits="userSpaceOnUse"
       id="clipPath63">
      <path
         d="m 3.125,3.125 h 1468.75 V 1087.5 H 3.125 Z"
         transform="matrix(0.33639947,0,0,0.33639947,76.892579,-1043.1025)"
         clip-rule="evenodd"
         id="path63" />
    </clipPath>
    <clipPath
       clipPathUnits="userSpaceOnUse"
       id="clipPath65">
      <path
         d="m 3.125,3.125 h 1468.75 V 1087.5 H 3.125 Z"
         transform="matrix(0.33639947,0,0,0.33639947,76.892579,-1043.1025)"
         clip-rule="evenodd"
         id="path65" />
    </clipPath>
    <clipPath
       clipPathUnits="userSpaceOnUse"
       id="clipPath66">
      <path
         d="m 3.125,3.125 h 1468.75 V 1087.5 H 3.125 Z"
         transform="matrix(0.33639947,0,0,0.33639947,-103.41993,-242.60247)"
         clip-rule="evenodd"
         id="path66" />
    </clipPath>
    <clipPath
       clipPathUnits="userSpaceOnUse"
       id="clipPath67">
      <path
         d="m 3.125,3.125 h 1468.75 V 1087.5 H 3.125 Z"
         transform="matrix(0.33639947,0,0,0.33639947,-72.013676,-256.60247)"
         clip-rule="evenodd"
         id="path67" />
    </clipPath>
    <clipPath
       clipPathUnits="userSpaceOnUse"
       id="clipPath69">
      <path
         d="m 3.125,3.125 h 1468.75 V 1087.5 H 3.125 Z"
         transform="matrix(0.33639947,0,0,0.33639947,76.892579,-1043.1025)"
         clip-rule="evenodd"
         id="path69" />
    </clipPath>
    <clipPath
       clipPathUnits="userSpaceOnUse"
       id="clipPath71">
      <path
         d="m 3.125,3.125 h 1468.75 V 1087.5 H 3.125 Z"
         transform="matrix(0.33639947,0,0,0.33639947,76.892579,-1043.1025)"
         clip-rule="evenodd"
         id="path71" />
    </clipPath>
    <clipPath
       clipPathUnits="userSpaceOnUse"
       id="clipPath72">
      <path
         d="m 3.125,3.125 h 1468.75 V 1087.5 H 3.125 Z"
         transform="matrix(0.33639947,0,0,0.33639947,-339.41993,-242.60247)"
         clip-rule="evenodd"
         id="path72" />
    </clipPath>
    <clipPath
       clipPathUnits="userSpaceOnUse"
       id="clipPath73">
      <path
         d="m 3.125,3.125 h 1468.75 V 1087.5 H 3.125 Z"
         transform="matrix(0.33639947,0,0,0.33639947,-302.68556,-256.60247)"
         clip-rule="evenodd"
         id="path73" />
    </clipPath>
  </defs>
  <g
     id="g1">
    <path
       id="path1"
       d="M 0,0 H 472 V 348 H 0 Z"
       style="fill:#ffffff;fill-opacity:1;fill-rule:nonzero;stroke:none"
       clip-path="url(#clipPath2)" />
    <path
       id="path3"
       d="m 85,-1040 h 480 c 0.66296,10e-5 1.30072,0.1269 1.91333,0.3806 0.61261,0.2538 1.15332,0.6151 1.62219,1.0839 0.46881,0.4688 0.83008,1.0096 1.08386,1.6222 0.25373,0.6126 0.38056,1.2503 0.38062,1.9133 v 350 c -6e-5,0.66309 -0.12689,1.3009 -0.38062,1.91351 -0.25378,0.61261 -0.61505,1.15326 -1.08386,1.62207 -0.46887,0.46888 -1.00958,0.83014 -1.62219,1.08387 C 566.30072,-680.12683 565.66296,-680 565,-680 H 85 c -0.663048,0 -1.300858,-0.12683 -1.913429,-0.38055 -0.612564,-0.25373 -1.153267,-0.61499 -1.622109,-1.08387 -0.468849,-0.46881 -0.830139,-1.00946 -1.083877,-1.62207 C 80.126854,-683.6991 79.999992,-684.33691 80,-685 v -350 c -8e-6,-0.663 0.126854,-1.3007 0.380585,-1.9133 0.253738,-0.6126 0.615028,-1.1534 1.083877,-1.6222 0.468842,-0.4688 1.009545,-0.8301 1.622109,-1.0839 0.612571,-0.2537 1.250381,-0.3805 1.913429,-0.3806 z"
       style="fill:none;stroke:#000000;stroke-width:1;stroke-linecap:butt;stroke-linejoin:miter;stroke-miterlimit:10;stroke-dasharray:none;stroke-opacity:1"
       transform="matrix(0.95124998,0,0,0.95124998,-73.144064,992.25122)"
       clip-path="url(#clipPath4)" />
    <text
       id="text4"
       xml:space="preserve"
       transform="matrix(0.95124998,0,0,0.95124998,214.4307,23.403099)"
       clip-path="url(#clipPath5)"><tspan
         id="tspan4"
         style="font-variant:normal;font-weight:normal;font-size:16px;font-family:Arial;writing-mode:lr-tb;fill:#000000;fill-opacity:1;fill-rule:nonzero;stroke:none"
         x="0"
         y="0">«part»</tspan></text>
    <text
       id="text5"
       xml:space="preserve"
       transform="matrix(0.95124998,0,0,0.95124998,218.66674,41.476848)"
       clip-path="url(#clipPath6)"><tspan
         id="tspan5"
         style="font-variant:normal;font-weight:normal;font-size:16px;font-family:Arial;writing-mode:lr-tb;fill:#000000;fill-opacity:1;fill-rule:nonzero;stroke:none"
         x="0"
         y="0">part0</tspan></text>
    <path
       id="path7"
       d="m 115,-866 h 420 c 0.66302,6e-5 1.30078,0.12695 1.91339,0.38068 0.61255,0.25372 1.15326,0.61499 1.62213,1.0838 0.46881,0.46893 0.83002,1.00964 1.08374,1.62219 0.25379,0.61255 0.38068,1.25031 0.38074,1.91333 v 160 c -6e-5,0.66309 -0.12695,1.3009 -0.38074,1.91351 -0.25372,0.61261 -0.61493,1.15332 -1.08374,1.62213 -0.46887,0.46882 -1.00958,0.83008 -1.62213,1.08381 C 536.30078,-696.12683 535.66302,-696 535,-696 H 115 c -0.66305,0 -1.30086,-0.12683 -1.91343,-0.38055 -0.61257,-0.25373 -1.15328,-0.61499 -1.62211,-1.08381 -0.46885,-0.46881 -0.83014,-1.00952 -1.08387,-1.62213 C 110.12685,-699.6991 109.99999,-700.33691 110,-701 v -160 c -1e-5,-0.66302 0.12685,-1.30078 0.38058,-1.91339 0.25374,-0.61249 0.61503,-1.1532 1.08388,-1.62213 0.46883,-0.46881 1.00954,-0.83008 1.62211,-1.0838 0.61257,-0.25373 1.25038,-0.38062 1.91343,-0.38068 z"
       style="fill:#ffffff;fill-opacity:1;fill-rule:nonzero;stroke:#000000;stroke-width:1;stroke-linecap:butt;stroke-linejoin:miter;stroke-miterlimit:10;stroke-dasharray:none;stroke-opacity:1"
       transform="matrix(0.95124998,0,0,0.95124998,-73.144064,992.25122)"
       clip-path="url(#clipPath8)" />
    <text
       id="text8"
       xml:space="preserve"
       transform="matrix(0.95124998,0,0,0.95124998,197.87301,188.92059)"
       clip-path="url(#clipPath9)"><tspan
         id="tspan8"
         style="font-variant:normal;font-weight:normal;font-size:16px;font-family:Arial;writing-mode:lr-tb;fill:#000000;fill-opacity:1;fill-rule:nonzero;stroke:none"
         x="0"
         y="0">«interface»</tspan></text>
    <text
       id="text9"
       xml:space="preserve"
       transform="matrix(0.95124998,0,0,0.95124998,187.30522,206.99434)"
       clip-path="url(#clipPath10)"><tspan
         id="tspan9"
         style="font-variant:normal;font-weight:normal;font-size:16px;font-family:Arial;writing-mode:lr-tb;fill:#000000;fill-opacity:1;fill-rule:nonzero;stroke:none"
         x="0"
         y="0">if2 : Interface2</tspan></text>
    <path
       id="path11"
       d="m 413.81,-995 h 105.51001 c 0.66296,6e-5 1.30072,0.12695 1.91333,0.38074 0.61255,0.25372 1.15326,0.61493 1.62213,1.08374 0.46881,0.46893 0.83008,1.00964 1.08386,1.62219 0.25372,0.61255 0.38062,1.25031 0.38068,1.91333 v 96.58002 c -6e-5,0.66314 -0.12696,1.30096 -0.38068,1.91357 -0.25378,0.61261 -0.61505,1.15326 -1.08386,1.62207 -0.46887,0.46881 -1.00958,0.83014 -1.62213,1.08386 -0.61261,0.25367 -1.25037,0.3805 -1.91333,0.3805 H 413.81 c -0.66306,0 -1.30088,-0.12683 -1.91345,-0.3805 -0.61258,-0.25372 -1.15326,-0.61505 -1.62211,-1.08386 -0.46887,-0.46881 -0.83017,-1.00946 -1.08389,-1.62207 -0.25375,-0.61261 -0.38058,-1.25043 -0.38055,-1.91357 V -990 c -3e-5,-0.66302 0.1268,-1.30078 0.38055,-1.91339 0.25372,-0.61249 0.61502,-1.1532 1.08389,-1.62213 0.46885,-0.46881 1.00956,-0.83002 1.62214,-1.08374 0.61254,-0.25379 1.25036,-0.38068 1.91342,-0.38074 z"
       style="fill:#ffffff;fill-opacity:1;fill-rule:nonzero;stroke:#000000;stroke-width:1;stroke-linecap:butt;stroke-linejoin:miter;stroke-miterlimit:10;stroke-dasharray:none;stroke-opacity:1"
       transform="matrix(0.95124998,0,0,0.95124998,-73.144064,992.25122)"
       clip-path="url(#clipPath12)" />
    <text
       id="text12"
       xml:space="preserve"
       transform="matrix(0.95124998,0,0,0.95124998,349.5082,66.209348)"
       clip-path="url(#clipPath13)"><tspan
         id="tspan12"
         style="font-variant:normal;font-weight:normal;font-size:16px;font-family:Arial;writing-mode:lr-tb;fill:#000000;fill-opacity:1;fill-rule:nonzero;stroke:none"
         x="0"
         y="0">«part»</tspan></text>
    <text
       id="text13"
       xml:space="preserve"
       transform="matrix(0.95124998,0,0,0.95124998,329.21982,84.283097)"
       clip-path="url(#clipPath14)"><tspan
         id="tspan13"
         style="font-variant:normal;font-weight:normal;font-size:16px;font-family:Arial;writing-mode:lr-tb;fill:#000000;fill-opacity:1;fill-rule:nonzero;stroke:none"
         x="0"
         y="0">part2 : Part2</tspan></text>
    <path
       id="path15"
       d="m 122.72,-995 h 114.75 c 0.66304,6e-5 1.30083,0.12695 1.91339,0.38074 0.61257,0.25372 1.15328,0.61493 1.62213,1.08374 0.46883,0.46893 0.83011,1.00964 1.08384,1.62219 0.25373,0.61255 0.38063,1.25031 0.38064,1.91333 v 96.58002 c -1e-5,0.66314 -0.12691,1.30096 -0.38064,1.91357 -0.25373,0.61261 -0.61501,1.15326 -1.08384,1.62207 -0.46885,0.46881 -1.00956,0.83014 -1.62213,1.08386 -0.61256,0.25367 -1.25035,0.3805 -1.91339,0.3805 H 122.72 c -0.66305,0 -1.30086,-0.12683 -1.91344,-0.3805 -0.61257,-0.25372 -1.15326,-0.61505 -1.6221,-1.08386 -0.46885,-0.46881 -0.83014,-1.00946 -1.08387,-1.62207 -0.25373,-0.61261 -0.3806,-1.25043 -0.38059,-1.91357 V -990 c -1e-5,-0.66302 0.12685,-1.30078 0.38058,-1.91339 0.25374,-0.61249 0.61503,-1.1532 1.08388,-1.62213 0.46884,-0.46881 1.00954,-0.83002 1.62211,-1.08374 0.61257,-0.25379 1.25038,-0.38068 1.91343,-0.38074 z"
       style="fill:#ffffff;fill-opacity:1;fill-rule:nonzero;stroke:#000000;stroke-width:1;stroke-linecap:butt;stroke-linejoin:miter;stroke-miterlimit:10;stroke-dasharray:none;stroke-opacity:1"
       transform="matrix(0.95124998,0,0,0.95124998,-73.144064,992.25122)"
       clip-path="url(#clipPath16)" />
    <text
       id="text16"
       xml:space="preserve"
       transform="matrix(0.95124998,0,0,0.95124998,76.499454,66.209348)"
       clip-path="url(#clipPath17)"><tspan
         id="tspan16"
         style="font-variant:normal;font-weight:normal;font-size:16px;font-family:Arial;writing-mode:lr-tb;fill:#000000;fill-opacity:1;fill-rule:nonzero;stroke:none"
         x="0"
         y="0">«part»</tspan></text>
    <text
       id="text17"
       xml:space="preserve"
       transform="matrix(0.95124998,0,0,0.95124998,56.211075,84.283097)"
       clip-path="url(#clipPath18)"><tspan
         id="tspan17"
         style="font-variant:normal;font-weight:normal;font-size:16px;font-family:Arial;writing-mode:lr-tb;fill:#000000;fill-opacity:1;fill-rule:nonzero;stroke:none"
         x="0"
         y="0">part1 : Part1</tspan></text>
    <path
       id="path19"
       d="m 235,-947 h 14 c 0.39781,6e-5 0.78049,0.0762 1.14803,0.22852 0.36753,0.15222 0.69197,0.36895 0.97328,0.6502 0.28129,0.28131 0.49806,0.60578 0.6503,0.97333 0.15223,0.36755 0.22837,0.75018 0.22839,1.14795 v 14 c -2e-5,0.39789 -0.0762,0.78058 -0.22839,1.14813 -0.15224,0.36756 -0.36901,0.69196 -0.6503,0.97321 -0.28131,0.28137 -0.60575,0.49817 -0.97328,0.65033 C 249.78049,-927.07611 249.39781,-927 249,-927 h -14 c -0.39784,0 -0.78055,-0.0761 -1.14809,-0.22827 -0.36753,-0.15222 -0.69195,-0.36902 -0.97325,-0.65039 -0.28132,-0.28125 -0.49811,-0.60565 -0.65034,-0.97321 C 232.07608,-929.21942 231.99998,-929.60211 232,-930 v -14 c -2e-5,-0.39777 0.0761,-0.7804 0.22832,-1.14795 0.15223,-0.36755 0.36902,-0.69202 0.65034,-0.97333 0.2813,-0.28125 0.60572,-0.49798 0.97325,-0.6502 0.36754,-0.15229 0.75025,-0.22846 1.14809,-0.22852 z"
       style="fill:#ffffff;fill-opacity:1;fill-rule:nonzero;stroke:#000000;stroke-width:1;stroke-linecap:butt;stroke-linejoin:miter;stroke-miterlimit:10;stroke-dasharray:none;stroke-opacity:1"
       transform="matrix(0.95124998,0,0,0.95124998,-73.144064,992.25122)"
       clip-path="url(#clipPath20)" />
    <text
       id="text20"
       xml:space="preserve"
       transform="matrix(0.95124998,0,0,0.95124998,108.03934,104.25935)"
       clip-path="url(#clipPath21)"><tspan
         id="tspan20"
         style="font-variant:normal;font-weight:normal;font-size:12px;font-family:Arial;writing-mode:lr-tb;fill:#000000;fill-opacity:1;fill-rule:nonzero;stroke:none"
         x="0"
         y="0">pa : Pa</tspan></text>
    <path
       id="path22"
       d="m 324.50003,-866.00458 0.0275,-2.99988 0.99994,0.009 -0.0275,2.99988 m -0.94501,-6.00891 0.0275,-2.99988 0.99994,0.009 -0.0275,2.99988 m -0.94501,-6.00891 0.0275,-2.99988 0.99994,0.009 -0.0275,2.99988 m -0.945,-6.00892 0.0275,-2.99987 0.99994,0.009 -0.0275,2.99988 m -0.945,-6.00891 0.0275,-2.99982 0.99994,0.009 -0.0275,2.99981 m -0.94501,-6.00885 0.0275,-2.99987 0.99993,0.009 -0.0275,2.99988 m -0.94498,-6.00891 0.0275,-2.99988 0.99994,0.009 -0.0275,2.99987 m -0.94501,-6.00891 0.0275,-2.99988 0.99994,0.009 -0.0275,2.99988 m -0.94501,-6.00891 0.0275,-2.99988 0.99994,0.009 -0.0275,2.99988 m -0.945,-6.00891 0.0275,-2.99988 0.99994,0.009 -0.0275,2.99988 m -0.945,-6.00892 0.0275,-2.99987 0.99994,0.009 -0.0275,2.99988 m -0.94501,-6.00891 0.0275,-2.99988 0.99994,0.009 -0.0275,2.99987"
       style="fill:#000000;fill-opacity:1;fill-rule:nonzero;stroke:none"
       transform="matrix(0.95124998,0,0,0.95124998,-73.144064,992.25122)"
       clip-path="url(#clipPath23)" />
    <path
       id="path24"
       d="m 402,-947 h 14 c 0.3978,6e-5 0.78049,0.0762 1.14801,0.22852 0.36752,0.15222 0.69193,0.36895 0.97327,0.6502 0.28128,0.28131 0.49804,0.60578 0.6503,0.97333 0.15225,0.36755 0.22839,0.75018 0.22842,1.14795 v 14 c -3e-5,0.39789 -0.0762,0.78058 -0.22842,1.14813 -0.15226,0.36756 -0.36902,0.69196 -0.6503,0.97321 -0.28134,0.28137 -0.60578,0.49817 -0.9733,0.65033 C 416.78046,-927.07611 416.3978,-927 416,-927 h -14 c -0.39786,0 -0.78055,-0.0761 -1.1481,-0.22827 -0.36752,-0.15222 -0.69196,-0.36902 -0.97324,-0.65039 -0.28134,-0.28125 -0.49811,-0.60565 -0.65033,-0.97321 C 399.07608,-929.21942 398.99997,-929.60211 399,-930 v -14 c -3e-5,-0.39777 0.0761,-0.7804 0.22833,-1.14795 0.15222,-0.36755 0.36899,-0.69202 0.65033,-0.97333 0.28128,-0.28125 0.60572,-0.49798 0.97324,-0.6502 0.36755,-0.15229 0.75024,-0.22846 1.1481,-0.22852 z"
       style="fill:#ffffff;fill-opacity:1;fill-rule:nonzero;stroke:#000000;stroke-width:1;stroke-linecap:butt;stroke-linejoin:miter;stroke-miterlimit:10;stroke-dasharray:none;stroke-opacity:1"
       transform="matrix(0.95124998,0,0,0.95124998,-73.144064,992.25122)"
       clip-path="url(#clipPath25)" />
    <text
       id="text25"
       xml:space="preserve"
       transform="matrix(0.95124998,0,0,0.95124998,328.75906,104.25935)"
       clip-path="url(#clipPath26)"><tspan
         id="tspan25"
         style="font-variant:normal;font-weight:normal;font-size:12px;font-family:Arial;writing-mode:lr-tb;fill:#000000;fill-opacity:1;fill-rule:nonzero;stroke:none"
         x="0"
         y="0">pb : ~Pa</tspan></text>
    <path
       id="path27"
       d="m 362.42001,-741 h 14 c 0.3978,6e-5 0.78049,0.0762 1.14804,0.22852 0.36753,0.15222 0.69193,0.36895 0.97327,0.65026 0.28128,0.28132 0.49805,0.60578 0.6503,0.97327 0.15225,0.36755 0.22836,0.75018 0.22839,1.14795 v 14 c -3e-5,0.39789 -0.0761,0.78058 -0.22839,1.14813 -0.15225,0.36756 -0.36902,0.69196 -0.6503,0.97327 -0.28134,0.28131 -0.60577,0.49805 -0.9733,0.65027 -0.36752,0.15222 -0.75021,0.22833 -1.14801,0.22833 h -14 c -0.39785,0 -0.78054,-0.0761 -1.14807,-0.22833 -0.36755,-0.15222 -0.69198,-0.36896 -0.97326,-0.65027 -0.28132,-0.28131 -0.49808,-0.60571 -0.65033,-0.97327 -0.15226,-0.36755 -0.22837,-0.75024 -0.22834,-1.14813 v -14 c -3e-5,-0.39777 0.0761,-0.7804 0.22834,-1.14795 0.15225,-0.36749 0.36901,-0.69195 0.65033,-0.97327 0.28128,-0.28131 0.60571,-0.49804 0.97326,-0.65026 0.36753,-0.15229 0.75022,-0.22846 1.14807,-0.22852 z"
       style="fill:#ffffff;fill-opacity:1;fill-rule:nonzero;stroke:#000000;stroke-width:1;stroke-linecap:butt;stroke-linejoin:miter;stroke-miterlimit:10;stroke-dasharray:none;stroke-opacity:1"
       transform="matrix(0.95124998,0,0,0.95124998,-73.144064,992.25122)"
       clip-path="url(#clipPath28)" />
    <text
       id="text28"
       xml:space="preserve"
       transform="matrix(0.95124998,0,0,0.95124998,215.20359,316.38809)"
       clip-path="url(#clipPath29)"><tspan
         id="tspan28"
         style="font-variant:normal;font-weight:normal;font-size:12px;font-family:Arial;writing-mode:lr-tb;fill:#000000;fill-opacity:1;fill-rule:nonzero;stroke:none"
         x="0"
         y="0">i2In : Item2</tspan></text>
    <path
       id="path30"
       d="m 362.42001,-799 h 14 c 0.3978,6e-5 0.78049,0.0762 1.14804,0.22852 0.36753,0.15222 0.69193,0.36895 0.97327,0.65026 0.28128,0.28138 0.49805,0.60578 0.6503,0.97327 0.15225,0.36749 0.22836,0.75018 0.22839,1.14795 v 14 c -3e-5,0.39789 -0.0761,0.78064 -0.22839,1.14813 -0.15225,0.36756 -0.36902,0.69196 -0.6503,0.97321 -0.28134,0.28131 -0.60577,0.49811 -0.9733,0.65033 -0.36752,0.15222 -0.75021,0.22833 -1.14801,0.22833 h -14 c -0.39785,0 -0.78054,-0.0761 -1.14807,-0.22827 -0.36755,-0.15228 -0.69198,-0.36908 -0.97326,-0.65039 -0.28132,-0.28125 -0.49808,-0.60565 -0.65033,-0.97327 -0.15226,-0.36749 -0.22837,-0.75018 -0.22834,-1.14807 v -14 c -3e-5,-0.39777 0.0761,-0.78046 0.22834,-1.14795 0.15225,-0.36749 0.36901,-0.69189 0.65033,-0.97327 0.28128,-0.28131 0.60571,-0.49804 0.97326,-0.65026 0.36753,-0.15229 0.75022,-0.22846 1.14807,-0.22852 z"
       style="fill:#ffffff;fill-opacity:1;fill-rule:nonzero;stroke:#000000;stroke-width:1;stroke-linecap:butt;stroke-linejoin:miter;stroke-miterlimit:10;stroke-dasharray:none;stroke-opacity:1"
       transform="matrix(0.95124998,0,0,0.95124998,-73.144064,992.25122)"
       clip-path="url(#clipPath31)" />
    <text
       id="text31"
       xml:space="preserve"
       transform="matrix(0.95124998,0,0,0.95124998,206.33022,261.21559)"
       clip-path="url(#clipPath32)"><tspan
         id="tspan31"
         style="font-variant:normal;font-weight:normal;font-size:12px;font-family:Arial;writing-mode:lr-tb;fill:#000000;fill-opacity:1;fill-rule:nonzero;stroke:none"
         x="0"
         y="0">i1Out : Item1</tspan></text>
    <path
       id="path33"
       d="m 271.31,-741 h 14 c 0.39782,6e-5 0.78052,0.0762 1.14804,0.22852 0.36752,0.15222 0.69195,0.36895 0.97326,0.65026 0.28132,0.28132 0.49808,0.60578 0.6503,0.97327 0.15226,0.36755 0.22837,0.75018 0.2284,1.14795 v 14 c -3e-5,0.39789 -0.0761,0.78058 -0.2284,1.14813 -0.15222,0.36756 -0.36898,0.69196 -0.6503,0.97327 -0.28131,0.28131 -0.60571,0.49805 -0.97323,0.65027 C 286.09052,-721.07611 285.70782,-721 285.31,-721 h -14 c -0.39786,0 -0.78055,-0.0761 -1.14807,-0.22833 -0.36756,-0.15222 -0.69199,-0.36896 -0.97327,-0.65027 -0.28131,-0.28131 -0.49811,-0.60571 -0.65036,-0.97327 -0.15222,-0.36755 -0.22833,-0.75024 -0.2283,-1.14813 v -14 c -3e-5,-0.39777 0.0761,-0.7804 0.2283,-1.14795 0.15225,-0.36749 0.36905,-0.69195 0.65036,-0.97327 0.28128,-0.28131 0.60571,-0.49804 0.97327,-0.65026 0.36752,-0.15229 0.75021,-0.22846 1.14807,-0.22852 z"
       style="fill:#ffffff;fill-opacity:1;fill-rule:nonzero;stroke:#000000;stroke-width:1;stroke-linecap:butt;stroke-linejoin:miter;stroke-miterlimit:10;stroke-dasharray:none;stroke-opacity:1"
       transform="matrix(0.95124998,0,0,0.95124998,-73.144064,992.25122)"
       clip-path="url(#clipPath34)" />
    <text
       id="text34"
       xml:space="preserve"
       transform="matrix(0.95124998,0,0,0.95124998,198.43781,284.04559)"
       clip-path="url(#clipPath35)"><tspan
         id="tspan34"
         style="font-variant:normal;font-weight:normal;font-size:12px;font-family:Arial;writing-mode:lr-tb;fill:#000000;fill-opacity:1;fill-rule:nonzero;stroke:none"
         x="0"
         y="0">i2In : Item2</tspan></text>
    <path
       id="path36"
       d="m 271.31,-799 h 14 c 0.39782,6e-5 0.78052,0.0762 1.14804,0.22852 0.36752,0.15222 0.69195,0.36895 0.97326,0.65026 0.28132,0.28138 0.49808,0.60578 0.6503,0.97327 0.15226,0.36749 0.22837,0.75018 0.2284,1.14795 v 14 c -3e-5,0.39789 -0.0761,0.78064 -0.2284,1.14813 -0.15222,0.36756 -0.36898,0.69196 -0.6503,0.97321 -0.28131,0.28131 -0.60571,0.49811 -0.97323,0.65033 C 286.09052,-779.07611 285.70782,-779 285.31,-779 h -14 c -0.39786,0 -0.78055,-0.0761 -1.14807,-0.22827 -0.36756,-0.15228 -0.69199,-0.36908 -0.97327,-0.65039 -0.28131,-0.28125 -0.49811,-0.60565 -0.65036,-0.97327 -0.15222,-0.36749 -0.22833,-0.75018 -0.2283,-1.14807 v -14 c -3e-5,-0.39777 0.0761,-0.78046 0.2283,-1.14795 0.15225,-0.36749 0.36905,-0.69189 0.65036,-0.97327 0.28128,-0.28131 0.60571,-0.49804 0.97327,-0.65026 0.36752,-0.15229 0.75021,-0.22846 1.14807,-0.22852 z"
       style="fill:#ffffff;fill-opacity:1;fill-rule:nonzero;stroke:#000000;stroke-width:1;stroke-linecap:butt;stroke-linejoin:miter;stroke-miterlimit:10;stroke-dasharray:none;stroke-opacity:1"
       transform="matrix(0.95124998,0,0,0.95124998,-73.144064,992.25122)"
       clip-path="url(#clipPath37)" />
    <text
       id="text37"
       xml:space="preserve"
       transform="matrix(0.95124998,0,0,0.95124998,198.43781,228.87309)"
       clip-path="url(#clipPath38)"><tspan
         id="tspan37"
         style="font-variant:normal;font-weight:normal;font-size:12px;font-family:Arial;writing-mode:lr-tb;fill:#000000;fill-opacity:1;fill-rule:nonzero;stroke:none"
         x="0"
         y="0">i1Out : Item1</tspan></text>
    <path
       id="path39"
       d="M 252,-937 H 399"
       style="fill:none;stroke:#000000;stroke-width:1;stroke-linecap:butt;stroke-linejoin:miter;stroke-miterlimit:10;stroke-dasharray:none;stroke-opacity:1"
       transform="matrix(0.95124998,0,0,0.95124998,-73.144064,992.25122)"
       clip-path="url(#clipPath40)" />
    <path
       id="path41"
       d="m 292,-959 h 69 v 13 h -69 z"
       style="fill:#ffffff;fill-opacity:1;fill-rule:nonzero;stroke:none"
       transform="matrix(0.95124998,0,0,0.95124998,-73.619683,991.77557)"
       clip-path="url(#clipPath42)" />
    <text
       id="text42"
       xml:space="preserve"
       transform="matrix(0.95124998,0,0,0.95124998,203.80346,89.039347)"
       clip-path="url(#clipPath43)"><tspan
         id="tspan42"
         style="font-variant:normal;font-weight:normal;font-size:11px;font-family:Arial;writing-mode:lr-tb;fill:#000000;fill-opacity:1;fill-rule:nonzero;stroke:none"
         x="0"
         y="0">if2 : Interface2</tspan></text>
    <path
       id="path44"
       d="m 288.31,-789 h 61"
       style="fill:none;stroke:#000000;stroke-width:1;stroke-linecap:butt;stroke-linejoin:miter;stroke-miterlimit:10;stroke-dasharray:none;stroke-opacity:1"
       transform="matrix(0.95124998,0,0,0.95124998,-73.144064,992.25122)"
       clip-path="url(#clipPath45)" />
    <path
       id="path46"
       d="m 358.31,-789 -9,4.5 v -9 z"
       style="fill:#000000;fill-opacity:1;fill-rule:nonzero;stroke:#000000;stroke-width:1;stroke-linecap:butt;stroke-linejoin:miter;stroke-miterlimit:10;stroke-dasharray:none;stroke-opacity:1"
       transform="matrix(0.95124998,0,0,0.95124998,-73.144064,992.25122)"
       clip-path="url(#clipPath47)" />
    <path
       id="path48"
       d="m 298.42999,-731 h 60.99002"
       style="fill:none;stroke:#000000;stroke-width:1;stroke-linecap:butt;stroke-linejoin:miter;stroke-miterlimit:10;stroke-dasharray:none;stroke-opacity:1"
       transform="matrix(0.95124998,0,0,0.95124998,-73.144064,992.25122)"
       clip-path="url(#clipPath49)" />
    <path
       id="path50"
       d="m 289.42999,-731 9,-4.5 v 9 z"
       style="fill:#000000;fill-opacity:1;fill-rule:nonzero;stroke:#000000;stroke-width:1;stroke-linecap:butt;stroke-linejoin:miter;stroke-miterlimit:10;stroke-dasharray:none;stroke-opacity:1"
       transform="matrix(0.95124998,0,0,0.95124998,-73.144064,992.25122)"
       clip-path="url(#clipPath51)" />
    <path
       id="path52"
       d="m 305.12,-937 h 39.76"
       style="fill:none;stroke:#000000;stroke-width:1;stroke-linecap:butt;stroke-linejoin:miter;stroke-miterlimit:10;stroke-dasharray:none;stroke-opacity:1"
       transform="matrix(0.95124998,0,0,0.95124998,-73.144064,992.25122)"
       clip-path="url(#clipPath53)" />
    <path
       id="path54"
       d="m 296.12,-937 9,-4.5 v 9 z"
       style="fill:#000000;fill-opacity:1;fill-rule:nonzero;stroke:#000000;stroke-width:1;stroke-linecap:butt;stroke-linejoin:miter;stroke-miterlimit:10;stroke-dasharray:none;stroke-opacity:1"
       transform="matrix(0.95124998,0,0,0.95124998,-73.144064,992.25122)"
       clip-path="url(#clipPath55)" />
    <path
       id="path56"
       d="m 353.88,-937 -9,4.5 v -9 z"
       style="fill:#000000;fill-opacity:1;fill-rule:nonzero;stroke:#000000;stroke-width:1;stroke-linecap:butt;stroke-linejoin:miter;stroke-miterlimit:10;stroke-dasharray:none;stroke-opacity:1"
       transform="matrix(0.95124998,0,0,0.95124998,-73.144064,992.25122)"
       clip-path="url(#clipPath57)" />
    <text
       id="text57"
       xml:space="preserve"
       transform="matrix(0.95124998,0,0,0.95124998,246.46108,115.67435)"
       clip-path="url(#clipPath58)"><tspan
         id="tspan57"
         style="font-variant:normal;font-weight:normal;font-size:11px;font-family:Arial;writing-mode:lr-tb;fill:#000000;fill-opacity:1;fill-rule:nonzero;stroke:none"
         x="0"
         y="0">«flow» of</tspan></text>
    <text
       id="text58"
       xml:space="preserve"
       transform="matrix(0.95124998,0,0,0.95124998,252.85229,128.99185)"
       clip-path="url(#clipPath59)"><tspan
         id="tspan58"
         style="font-variant:normal;font-weight:normal;font-size:11px;font-family:Arial;writing-mode:lr-tb;fill:#000000;fill-opacity:1;fill-rule:nonzero;stroke:none"
         x="0"
         y="0">:Item1</tspan></text>
    <text
       id="text59"
       xml:space="preserve"
       transform="matrix(0.95124998,0,0,0.95124998,185.58108,115.67435)"
       clip-path="url(#clipPath60)"><tspan
         id="tspan59"
         style="font-variant:normal;font-weight:normal;font-size:11px;font-family:Arial;writing-mode:lr-tb;fill:#000000;fill-opacity:1;fill-rule:nonzero;stroke:none"
         x="0"
         y="0">«flow» of</tspan></text>
    <text
       id="text60"
       xml:space="preserve"
       transform="matrix(0.95124998,0,0,0.95124998,191.97229,128.99185)"
       clip-path="url(#clipPath61)"><tspan
         id="tspan60"
         style="font-variant:normal;font-weight:normal;font-size:11px;font-family:Arial;writing-mode:lr-tb;fill:#000000;fill-opacity:1;fill-rule:nonzero;stroke:none"
         x="0"
         y="0">:Item2</tspan></text>
    <path
       id="path62"
       d="m 146,-814.06 h 120 c 0.66302,6e-5 1.30081,0.12702 1.91339,0.38074 0.61255,0.25372 1.15326,0.61499 1.6221,1.08374 0.46884,0.46887 0.83014,1.00958 1.08386,1.62219 0.25376,0.61261 0.38062,1.25037 0.38065,1.91333 v 90 c -3e-5,0.66309 -0.12689,1.30091 -0.38065,1.91352 -0.25372,0.61261 -0.61502,1.15325 -1.08386,1.62207 -0.46884,0.46887 -1.00955,0.83014 -1.6221,1.08386 -0.61258,0.25372 -1.25037,0.38055 -1.91339,0.38055 H 146 c -0.66305,0 -1.30086,-0.12683 -1.91342,-0.38055 -0.61258,-0.25372 -1.15329,-0.61499 -1.62212,-1.08386 -0.46886,-0.46882 -0.83015,-1.00946 -1.08388,-1.62207 -0.25373,-0.61261 -0.3806,-1.25043 -0.38058,-1.91352 v -90 c -2e-5,-0.66296 0.12685,-1.30072 0.38058,-1.91333 0.25373,-0.61261 0.61502,-1.15332 1.08388,-1.62219 0.46883,-0.46875 1.00954,-0.83002 1.62212,-1.08374 0.61256,-0.25372 1.25037,-0.38068 1.91342,-0.38074 z"
       style="fill:#ffffff;fill-opacity:1;fill-rule:nonzero;stroke:none"
       transform="matrix(0.95124998,0,0,0.95124998,-73.144064,992.25122)"
       clip-path="url(#clipPath63)" />
    <path
       id="path64"
       d="m 152,-814.56 h 3 v 1 h -3 z m 6,0 h 3 v 1 h -3 z m 6,0 h 3 v 1 h -3 z m 6,0 h 3 v 1 h -3 z m 6,0 h 3 v 1 h -3 z m 6,0 h 3 v 1 h -3 z m 6,0 h 3 v 1 h -3 z m 6,0 h 3 v 1 h -3 z m 6,0 h 3 v 1 h -3 z m 6,0 h 3 v 1 h -3 z m 6,0 h 3 v 1 h -3 z m 6,0 h 3 v 1 h -3 z m 6,0 h 3 v 1 h -3 z m 6,0 h 3 v 1 h -3 z m 6,0 h 3 v 1 h -3 z m 6,0 h 3 v 1 h -3 z m 6,0 h 3 v 1 h -3 z m 6,0 h 3 v 1 h -3 z m 6,0 h 3 v 1 h -3 z m 6,0 c 1.14807,0 2.19363,0.3274 3.13669,0.98212 l -0.57031,0.82141 C 267.7948,-813.29218 266.93933,-813.56 266,-813.56 Z m 5.21497,3.75238 c 0.19003,0.56708 0.28503,1.1496 0.28503,1.74762 v 1.34638 h -1 V -809.06 c 0,-0.48932 -0.0777,-0.96594 -0.23322,-1.42987 z m 0.28503,6.094 v 3 h -1 v -3 z m 0,6 v 3 h -1 v -3 z m 0,6 v 3 h -1 v -3 z m 0,6 v 3 h -1 v -3 z m 0,6 v 3 h -1 v -3 z m 0,6 v 3 h -1 v -3 z m 0,6 v 3 h -1 v -3 z m 0,6 v 3 h -1 v -3 z m 0,6 v 3 h -1 v -3 z m 0,6 v 3 h -1 v -3 z m 0,6 v 3 h -1 v -3 z m 0,6 v 3 h -1 v -3 z m 0,6 v 3 h -1 v -3 z m 0,6 v 3 h -1 v -3 z m 0,6 v 1.65362 c 0,0.4809 -0.062,0.95362 -0.18597,1.41815 l -0.96619,-0.25781 c 0.10144,-0.38006 0.15216,-0.76684 0.15216,-1.16034 v -1.65362 z m -2.07144,5.95416 c -0.91156,0.72675 -1.94916,1.1236 -3.11283,1.19043 l -0.0574,-0.99841 c 0.95215,-0.0548 1.80109,-0.37934 2.54679,-0.97388 l 0.62341,0.78186 z m -6.12128,1.19946 h -3 v -1 h 3 z m -6,0 h -3 v -1 h 3 z m -6,0 h -3 v -1 h 3 z m -6,0 h -3 v -1 h 3 z m -6,0 h -3 v -1 h 3 z m -6,0 h -3 v -1 h 3 z m -6,0 h -3 v -1 h 3 z m -6,0 h -3 v -1 h 3 z m -6,0 h -3 v -1 h 3 z m -6,0 h -3 v -1 h 3 z m -6,0 h -3 v -1 h 3 z m -6,0 h -3 v -1 h 3 z m -6,0 h -3 v -1 h 3 z m -6,0 h -3 v -1 h 3 z m -6,0 h -3 v -1 h 3 z m -6,0 h -3 v -1 h 3 z m -6,0 h -3 v -1 h 3 z m -6,0 h -3 v -1 h 3 z m -6,0 h -3 v -1 h 3 z m -6,0 h -3 v -1 h 3 z m -6.14027,-0.78576 c -1.04647,-0.62897 -1.80001,-1.50867 -2.26059,-2.63923 l 0.92608,-0.37731 c 0.37688,0.92504 0.99343,1.64489 1.84964,2.15948 z m -2.66701,-5.7533 v -3 h 1 v 3 z m 0,-6 v -3 h 1 v 3 z m 0,-6 v -3 h 1 v 3 z m 0,-6 v -3 h 1 v 3 z m 0,-6 v -3 h 1 v 3 z m 0,-6 v -3 h 1 v 3 z m 0,-6 v -3 h 1 v 3 z m 0,-6 v -3 h 1 v 3 z m 0,-6 v -3 h 1 v 3 z m 0,-6 v -3 h 1 v 3 z m 0,-6 v -3 h 1 v 3 z m 0,-6 v -3 h 1 v 3 z m 0,-6 v -3 h 1 v 3 z m 0,-6 v -3 h 1 v 3 z m 0,-6 v -3 h 1 v 3 z m 0.10886,-6.0498 c 0.23738,-1.17518 0.79898,-2.16675 1.68479,-2.97474 l 0.67389,0.73877 c -0.72477,0.66108 -1.18426,1.47242 -1.37849,2.43396 z m 4.7536,-4.37409 c 0.2117,-0.0247 0.42425,-0.0371 0.63765,-0.037 H 149 v 1 h -3.00011 c -0.17424,-6e-5 -0.34802,0.0101 -0.52134,0.0303 l -0.11609,-0.99329 z"
       style="fill:#000000;fill-opacity:1;fill-rule:nonzero;stroke:none"
       transform="matrix(0.95124998,0,0,0.95124998,-73.144064,992.25122)"
       clip-path="url(#clipPath65)" />
    <text
       id="text65"
       xml:space="preserve"
       transform="matrix(0.95124998,0,0,0.95124998,98.378203,230.77559)"
       clip-path="url(#clipPath66)"><tspan
         id="tspan65"
         style="font-variant:normal;font-weight:normal;font-size:12px;font-family:Arial;writing-mode:lr-tb;fill:#000000;fill-opacity:1;fill-rule:nonzero;stroke:none"
         x="0"
         y="0">«ref port»</tspan></text>
    <text
       id="text66"
       xml:space="preserve"
       transform="matrix(0.95124998,0,0,0.95124998,68.503008,244.09309)"
       clip-path="url(#clipPath67)"><tspan
         id="tspan66"
         style="font-variant:normal;font-weight:normal;font-size:12px;font-family:Arial;writing-mode:lr-tb;fill:#000000;fill-opacity:1;fill-rule:nonzero;stroke:none"
         x="0"
         dx="0 0 0 0 0 0 0 0 0 -0.21679661"
         y="0">supplierP ::&gt; part1.pa</tspan></text>
    <path
       id="path68"
       d="m 381.76001,-814.06 h 120 c 0.66302,6e-5 1.30081,0.12702 1.91339,0.38074 0.61255,0.25372 1.15326,0.61499 1.6221,1.08374 0.46884,0.46887 0.83011,1.00958 1.08386,1.62219 0.25373,0.61261 0.38062,1.25037 0.38065,1.91333 v 90 c -3e-5,0.66309 -0.12692,1.30091 -0.38065,1.91352 -0.25375,0.61261 -0.61502,1.15325 -1.08386,1.62207 -0.46884,0.46887 -1.00955,0.83014 -1.62213,1.08386 -0.61255,0.25372 -1.25034,0.38055 -1.91336,0.38055 h -120 c -0.66309,0 -1.3009,-0.12683 -1.91345,-0.38055 -0.61258,-0.25372 -1.15329,-0.61499 -1.6221,-1.08386 -0.46888,-0.46882 -0.83017,-1.00946 -1.0839,-1.62207 -0.25375,-0.61261 -0.38058,-1.25043 -0.38055,-1.91352 v -90 c -3e-5,-0.66296 0.1268,-1.30072 0.38055,-1.91333 0.25373,-0.61261 0.61502,-1.15332 1.0839,-1.62219 0.46881,-0.46875 1.00952,-0.83002 1.6221,-1.08374 0.61255,-0.25372 1.25036,-0.38068 1.91345,-0.38074 z"
       style="fill:#ffffff;fill-opacity:1;fill-rule:nonzero;stroke:none"
       transform="matrix(0.95124998,0,0,0.95124998,-73.144064,992.25122)"
       clip-path="url(#clipPath69)" />
    <path
       id="path70"
       d="m 387.76001,-814.56 h 3 v 1 h -3 z m 6,0 h 3 v 1 h -3 z m 6,0 h 3 v 1 h -3 z m 6,0 h 3 v 1 h -3 z m 6,0 h 3 v 1 h -3 z m 6,0 h 3 v 1 h -3 z m 6,0 h 3 v 1 h -3 z m 6,0 h 3 v 1 h -3 z m 6,0 h 3 v 1 h -3 z m 6,0 h 3 v 1 h -3 z m 6,0 h 3 v 1 h -3 z m 6,0 h 3 v 1 h -3 z m 6,0 h 3 v 1 h -3 z m 6,0 h 3 v 1 h -3 z m 6,0 h 3 v 1 h -3 z m 6,0 h 3 v 1 h -3 z m 6,0 h 3 v 1 h -3 z m 6,0 h 3 v 1 h -3 z m 6,0 h 3 v 1 h -3 z m 6,0 c 1.1481,0 2.19366,0.3274 3.13672,0.98212 l -0.57031,0.82141 c -0.77158,-0.53571 -1.62705,-0.80353 -2.56641,-0.80353 z m 5.21497,3.75238 c 0.19003,0.56708 0.28503,1.1496 0.28503,1.74762 v 1.34638 h -1 V -809.06 c 0,-0.48932 -0.0777,-0.96594 -0.23322,-1.42987 z m 0.28503,6.094 v 3 h -1 v -3 z m 0,6 v 3 h -1 v -3 z m 0,6 v 3 h -1 v -3 z m 0,6 v 3 h -1 v -3 z m 0,6 v 3 h -1 v -3 z m 0,6 v 3 h -1 v -3 z m 0,6 v 3 h -1 v -3 z m 0,6 v 3 h -1 v -3 z m 0,6 v 3 h -1 v -3 z m 0,6 v 3 h -1 v -3 z m 0,6 v 3 h -1 v -3 z m 0,6 v 3 h -1 v -3 z m 0,6 v 3 h -1 v -3 z m 0,6 v 3 h -1 v -3 z m 0,6 v 1.65362 c 0,0.4809 -0.062,0.95368 -0.186,1.41822 l -0.96619,-0.25794 c 0.10147,-0.38007 0.15219,-0.76684 0.15219,-1.16028 v -1.65362 z m -2.07141,5.95416 c -0.91159,0.72675 -1.94919,1.1236 -3.11286,1.19043 l -0.0574,-0.99841 c 0.95215,-0.0548 1.80109,-0.37934 2.54682,-0.97388 l 0.62341,0.78186 z m -6.12131,1.19946 h -3 v -1 h 3 z m -6,0 h -3 v -1 h 3 z m -6,0 h -3 v -1 h 3 z m -6,0 h -3 v -1 h 3 z m -6,0 h -3 v -1 h 3 z m -6,0 h -3 v -1 h 3 z m -6,0 h -3 v -1 h 3 z m -6,0 h -3 v -1 h 3 z m -6,0 h -3 v -1 h 3 z m -6,0 h -3 v -1 h 3 z m -6,0 h -3 v -1 h 3 z m -6,0 h -3 v -1 h 3 z m -6,0 h -3 v -1 h 3 z m -6,0 h -3 v -1 h 3 z m -6,0 h -3 v -1 h 3 z m -6,0 h -3 v -1 h 3 z m -6,0 h -3 v -1 h 3 z m -6,0 h -3 v -1 h 3 z m -6,0 h -3 v -1 h 3 z m -6,0 h -3 v -1 h 3 z m -6.14026,-0.78576 c -1.04651,-0.62897 -1.80005,-1.50867 -2.26059,-2.63923 l 0.92609,-0.37731 c 0.37686,0.92504 0.99341,1.64489 1.84964,2.15948 z m -2.66702,-5.7533 v -3 h 1 v 3 z m 0,-6 v -3 h 1 v 3 z m 0,-6 v -3 h 1 v 3 z m 0,-6 v -3 h 1 v 3 z m 0,-6 v -3 h 1 v 3 z m 0,-6 v -3 h 1 v 3 z m 0,-6 v -3 h 1 v 3 z m 0,-6 v -3 h 1 v 3 z m 0,-6 v -3 h 1 v 3 z m 0,-6 v -3 h 1 v 3 z m 0,-6 v -3 h 1 v 3 z m 0,-6 v -3 h 1 v 3 z m 0,-6 v -3 h 1 v 3 z m 0,-6 v -3 h 1 v 3 z m 0,-6 v -3 h 1 v 3 z m 0.10886,-6.0498 c 0.23736,-1.17518 0.79898,-2.16675 1.68481,-2.97474 l 0.67389,0.73877 c -0.72476,0.66108 -1.18424,1.47242 -1.37848,2.43396 z m 4.75363,-4.37409 c 0.2117,-0.0247 0.42422,-0.0371 0.6376,-0.037 h 2.99991 v 1 h -3.00009 c -0.17423,-6e-5 -0.34802,0.0101 -0.52133,0.0303 l -0.11609,-0.99329 z"
       style="fill:#000000;fill-opacity:1;fill-rule:nonzero;stroke:none"
       transform="matrix(0.95124998,0,0,0.95124998,-73.144064,992.25122)"
       clip-path="url(#clipPath71)" />
    <text
       id="text71"
       xml:space="preserve"
       transform="matrix(0.95124998,0,0,0.95124998,322.8732,230.77559)"
       clip-path="url(#clipPath72)"><tspan
         id="tspan71"
         style="font-variant:normal;font-weight:normal;font-size:12px;font-family:Arial;writing-mode:lr-tb;fill:#000000;fill-opacity:1;fill-rule:nonzero;stroke:none"
         x="0"
         y="0">«ref port»</tspan></text>
    <text
       id="text72"
       xml:space="preserve"
       transform="matrix(0.95124998,0,0,0.95124998,287.92963,244.09309)"
       clip-path="url(#clipPath73)"><tspan
         id="tspan72"
         style="font-variant:normal;font-weight:normal;font-size:12px;font-family:Arial;writing-mode:lr-tb;fill:#000000;fill-opacity:1;fill-rule:nonzero;stroke:none"
         x="0"
         dx="0 0 0 0 0 0 0 0 0 -0.21679704"
         y="0">consumerP ::&gt; part2.pb</tspan></text>
  </g>
</svg>
