<?xml version="1.0" encoding="UTF-8" standalone="no"?>
<!-- Created with Inkscape (http://www.inkscape.org/) -->

<svg
   version="1.1"
   id="svg1"
   width="396.16"
   height="118.72"
   viewBox="0 0 396.16 118.72"
   xmlns="http://www.w3.org/2000/svg"
   xmlns:svg="http://www.w3.org/2000/svg">
  <defs
     id="defs1">
    <clipPath
       clipPathUnits="userSpaceOnUse"
       id="clipPath2">
      <path
         d="M 0,0 H 1239 V 368.99414 H 0 Z"
         transform="scale(0.31999999)"
         clip-rule="evenodd"
         id="path2" />
    </clipPath>
    <clipPath
       clipPathUnits="userSpaceOnUse"
       id="clipPath4">
      <path
         d="M 3.125,0 H 1237.5 V 368.75 H 3.125 Z"
         transform="matrix(0.33621013,0,0,0.33621013,339.54524,3007.9492)"
         clip-rule="evenodd"
         id="path4" />
    </clipPath>
    <clipPath
       clipPathUnits="userSpaceOnUse"
       id="clipPath6">
      <path
         d="M 3.125,0 H 1237.5 V 368.75 H 3.125 Z"
         transform="matrix(0.33621013,0,0,0.33621013,339.54524,3007.9492)"
         clip-rule="evenodd"
         id="path6" />
    </clipPath>
    <clipPath
       clipPathUnits="userSpaceOnUse"
       id="clipPath7">
      <path
         d="M 3.125,0 H 1237.5 V 368.75 H 3.125 Z"
         transform="matrix(0.33621013,0,0,0.33621013,-297.43913,-33.550737)"
         clip-rule="evenodd"
         id="path7" />
    </clipPath>
    <clipPath
       clipPathUnits="userSpaceOnUse"
       id="clipPath9">
      <path
         d="M 3.125,0 H 1237.5 V 368.75 H 3.125 Z"
         transform="matrix(0.33621013,0,0,0.33621013,339.54524,3007.9492)"
         clip-rule="evenodd"
         id="path9" />
    </clipPath>
    <clipPath
       clipPathUnits="userSpaceOnUse"
       id="clipPath10">
      <path
         d="M 3.125,0 H 1237.5 V 368.75 H 3.125 Z"
         transform="matrix(0.33621013,0,0,0.33621013,-41.439131,-33.550737)"
         clip-rule="evenodd"
         id="path10" />
    </clipPath>
    <clipPath
       clipPathUnits="userSpaceOnUse"
       id="clipPath12">
      <path
         d="M 3.125,0 H 1237.5 V 368.75 H 3.125 Z"
         transform="matrix(0.33621013,0,0,0.33621013,339.54524,3007.9492)"
         clip-rule="evenodd"
         id="path12" />
    </clipPath>
    <clipPath
       clipPathUnits="userSpaceOnUse"
       id="clipPath13">
      <path
         d="M 3.125,0 H 1237.5 V 368.75 H 3.125 Z"
         transform="matrix(0.33621013,0,0,0.33621013,-105.95476,-66.550737)"
         clip-rule="evenodd"
         id="path13" />
    </clipPath>
    <clipPath
       clipPathUnits="userSpaceOnUse"
       id="clipPath15">
      <path
         d="M 3.125,0 H 1237.5 V 368.75 H 3.125 Z"
         transform="matrix(0.33621013,0,0,0.33621013,339.54524,3007.9492)"
         clip-rule="evenodd"
         id="path15" />
    </clipPath>
    <clipPath
       clipPathUnits="userSpaceOnUse"
       id="clipPath16">
      <path
         d="M 3.125,0 H 1237.5 V 368.75 H 3.125 Z"
         transform="matrix(0.33621013,0,0,0.33621013,-292.9235,-64.550737)"
         clip-rule="evenodd"
         id="path16" />
    </clipPath>
    <clipPath
       clipPathUnits="userSpaceOnUse"
       id="clipPath18">
      <path
         d="M 3.125,0 H 1237.5 V 368.75 H 3.125 Z"
         transform="matrix(0.33621013,0,0,0.33621013,339.54524,3007.9492)"
         clip-rule="evenodd"
         id="path18" />
    </clipPath>
    <clipPath
       clipPathUnits="userSpaceOnUse"
       id="clipPath19">
      <path
         d="M 3.125,0 H 1237.5 V 368.75 H 3.125 Z"
         transform="matrix(0.33621013,0,0,0.33621013,-191.43914,-41.550737)"
         clip-rule="evenodd"
         id="path19" />
    </clipPath>
    <clipPath
       clipPathUnits="userSpaceOnUse"
       id="clipPath20">
      <path
         d="M 3.125,0 H 1237.5 V 368.75 H 3.125 Z"
         transform="matrix(0.33621013,0,0,0.33621013,-183.43913,-56.550737)"
         clip-rule="evenodd"
         id="path20" />
    </clipPath>
  </defs>
  <g
     id="g1">
    <path
       id="path1"
       d="M 0,0 H 396 V 118 H 0 Z"
       style="fill:#ffffff;fill-opacity:1;fill-rule:nonzero;stroke:none"
       clip-path="url(#clipPath2)" />
    <path
       id="path3"
       d="m 342.67001,3010 h 410.00003 v 120 H 342.67001 Z"
       style="fill:#ffffff;fill-opacity:1;fill-rule:nonzero;stroke:#ffffff;stroke-width:1;stroke-linecap:butt;stroke-linejoin:miter;stroke-miterlimit:10;stroke-dasharray:none;stroke-opacity:1"
       transform="matrix(0.95178569,0,0,0.95178569,-323.1743,-2862.923)"
       clip-path="url(#clipPath4)" />
    <path
       id="path5"
       d="m 630.5,3020 h 101 c 0.7879,0 1.56818,0.077 2.34094,0.2305 0.77277,0.1535 1.52313,0.3811 2.2511,0.6826 0.72797,0.3015 1.41956,0.6714 2.07471,1.1091 0.65515,0.4375 1.26129,0.9348 1.81848,1.4922 0.55713,0.5569 1.05456,1.1631 1.49231,1.8184 0.43774,0.6552 0.80737,1.3469 1.10889,2.0747 0.30157,0.7278 0.52923,1.4782 0.68298,2.2512 0.15375,0.7727 0.23059,1.5532 0.23059,2.3413 v 76 c 0,0.7878 -0.0768,1.5681 -0.23059,2.3408 -0.15375,0.7727 -0.38141,1.5232 -0.68298,2.251 -0.30152,0.7278 -0.67115,1.4194 -1.10889,2.0745 -0.43775,0.655 -0.93518,1.2612 -1.49231,1.8186 -0.55719,0.5571 -1.16333,1.0544 -1.81854,1.4922 -0.65509,0.4377 -1.34668,0.8073 -2.07465,1.1088 -0.72797,0.3016 -1.47827,0.5293 -2.25104,0.6831 -0.77276,0.1539 -1.5531,0.2308 -2.341,0.231 h -101 c -0.78796,-2e-4 -1.56836,-0.077 -2.34119,-0.231 -0.77276,-0.1538 -1.52313,-0.3815 -2.2511,-0.6831 -0.72796,-0.3015 -1.41949,-0.6711 -2.07464,-1.1088 -0.65509,-0.4378 -1.26123,-0.9351 -1.81836,-1.4922 -0.55719,-0.5574 -1.05463,-1.1636 -1.49243,-1.8186 -0.43775,-0.6551 -0.80738,-1.3467 -1.10889,-2.0745 -0.30151,-0.7278 -0.52911,-1.4783 -0.68286,-2.251 C 618.57684,3109.5681 618.5,3108.7878 618.5,3108 v -76 c 0,-0.7881 0.0768,-1.5686 0.23053,-2.3416 0.15375,-0.7727 0.38135,-1.5231 0.68286,-2.2509 0.30151,-0.7278 0.67114,-1.4195 1.10889,-2.0747 0.4378,-0.6553 0.93524,-1.2615 1.49243,-1.8184 0.55713,-0.5574 1.16327,-1.0547 1.81836,-1.4922 0.65515,-0.4377 1.34668,-0.8076 2.07464,-1.1091 0.72797,-0.3015 1.47834,-0.5291 2.2511,-0.6826 0.77283,-0.1536 1.55323,-0.2305 2.34119,-0.2305 z"
       style="fill:#ffffff;fill-opacity:1;fill-rule:nonzero;stroke:#000000;stroke-width:1;stroke-linecap:butt;stroke-linejoin:miter;stroke-miterlimit:10;stroke-dasharray:none;stroke-opacity:1"
       transform="matrix(0.95178569,0,0,0.95178569,-323.1743,-2862.923)"
       clip-path="url(#clipPath6)" />
    <text
       id="text6"
       xml:space="preserve"
       transform="matrix(0.95178569,0,0,0.95178569,283.09831,31.933111)"
       clip-path="url(#clipPath7)"><tspan
         id="tspan6"
         style="font-variant:normal;font-weight:normal;font-size:16px;font-family:Arial;writing-mode:lr-tb;fill:#000000;fill-opacity:1;fill-rule:nonzero;stroke:none"
         x="0"
         y="0">part2 : Part2</tspan></text>
    <path
       id="path8"
       d="M 363.84,3020 H 486.5 c 0.78793,0 1.56827,0.077 2.34106,0.2305 0.77277,0.1535 1.52314,0.3811 2.25107,0.6826 0.72797,0.3015 1.41953,0.6714 2.07465,1.1091 0.65515,0.4375 1.26132,0.9348 1.81848,1.4922 0.55713,0.5569 1.05457,1.1631 1.49234,1.8184 0.43771,0.6552 0.80737,1.3469 1.10892,2.0747 0.30151,0.7278 0.52914,1.4782 0.68289,2.2512 0.15372,0.7727 0.23056,1.5532 0.23059,2.3413 v 76 c -3e-5,0.7878 -0.0769,1.5681 -0.23059,2.3408 -0.15375,0.7727 -0.38138,1.5232 -0.68289,2.251 -0.30155,0.7278 -0.67121,1.4194 -1.10895,2.0745 -0.43774,0.655 -0.93518,1.2612 -1.49231,1.8186 -0.55716,0.5571 -1.16333,1.0544 -1.81848,1.4922 -0.65512,0.4377 -1.34668,0.8073 -2.07462,1.1088 -0.72793,0.3016 -1.4783,0.5293 -2.2511,0.6831 -0.77279,0.1539 -1.55313,0.2308 -2.34106,0.231 H 363.84 c -0.78794,-2e-4 -1.56833,-0.077 -2.34113,-0.231 -0.7728,-0.1538 -1.52319,-0.3815 -2.25113,-0.6831 -0.728,-0.3015 -1.41955,-0.6711 -2.07467,-1.1088 -0.65516,-0.4378 -1.2613,-0.9351 -1.81839,-1.4922 -0.55716,-0.5574 -1.05463,-1.1636 -1.49234,-1.8186 -0.43778,-0.6551 -0.80741,-1.3467 -1.10895,-2.0745 -0.30155,-0.7278 -0.52918,-1.4783 -0.68289,-2.251 -0.15369,-0.7727 -0.23053,-1.553 -0.2305,-2.3408 v -76 c -3e-5,-0.7881 0.0768,-1.5686 0.2305,-2.3416 0.15371,-0.7727 0.38131,-1.5231 0.68286,-2.2509 0.30154,-0.7278 0.6712,-1.4195 1.10898,-2.0747 0.43771,-0.6553 0.93518,-1.2615 1.49234,-1.8184 0.55709,-0.5574 1.16323,-1.0547 1.81839,-1.4922 0.65512,-0.4377 1.34667,-0.8076 2.07467,-1.1091 0.72794,-0.3015 1.47833,-0.5291 2.25113,-0.6826 0.7728,-0.1536 1.55319,-0.2305 2.34113,-0.2305 z"
       style="fill:#ffffff;fill-opacity:1;fill-rule:nonzero;stroke:#000000;stroke-width:1;stroke-linecap:butt;stroke-linejoin:miter;stroke-miterlimit:10;stroke-dasharray:none;stroke-opacity:1"
       transform="matrix(0.95178569,0,0,0.95178569,-323.1743,-2862.923)"
       clip-path="url(#clipPath9)" />
    <text
       id="text9"
       xml:space="preserve"
       transform="matrix(0.95178569,0,0,0.95178569,39.441172,31.933111)"
       clip-path="url(#clipPath10)"><tspan
         id="tspan9"
         style="font-variant:normal;font-weight:normal;font-size:16px;font-family:Arial;writing-mode:lr-tb;fill:#000000;fill-opacity:1;fill-rule:nonzero;stroke:none"
         x="0"
         y="0">part1 : Part1</tspan></text>
    <path
       id="path11"
       d="m 491.5,3060 h 14 c 0.3978,0 0.78049,0.076 1.14804,0.228 0.36749,0.1524 0.6919,0.3692 0.97324,0.6507 0.28128,0.2812 0.49804,0.6054 0.6503,0.9729 0.15225,0.3676 0.22839,0.7505 0.22842,1.1484 v 14 c -3e-5,0.3977 -0.0762,0.7803 -0.22842,1.1477 -0.15226,0.3674 -0.36902,0.6919 -0.6503,0.9734 -0.28134,0.281 -0.60575,0.4978 -0.97327,0.6501 -0.36752,0.1524 -0.75021,0.2286 -1.14801,0.2288 h -14 c -0.39786,-2e-4 -0.78058,-0.076 -1.1481,-0.2288 -0.36756,-0.1523 -0.69199,-0.3691 -0.97327,-0.6501 -0.28134,-0.2815 -0.49811,-0.606 -0.65033,-0.9734 -0.15225,-0.3674 -0.22833,-0.75 -0.2283,-1.1477 v -14 c -3e-5,-0.3979 0.0761,-0.7808 0.2283,-1.1482 0.15222,-0.3674 0.36899,-0.6919 0.65033,-0.9731 0.28128,-0.2815 0.60571,-0.4983 0.97327,-0.6507 0.36752,-0.1521 0.75024,-0.228 1.1481,-0.228 z"
       style="fill:#ffffff;fill-opacity:1;fill-rule:nonzero;stroke:#000000;stroke-width:1;stroke-linecap:butt;stroke-linejoin:miter;stroke-miterlimit:10;stroke-dasharray:none;stroke-opacity:1"
       transform="matrix(0.95178569,0,0,0.95178569,-323.1743,-2862.923)"
       clip-path="url(#clipPath12)" />
    <text
       id="text12"
       xml:space="preserve"
       transform="matrix(0.95178569,0,0,0.95178569,100.84622,63.342039)"
       clip-path="url(#clipPath13)"><tspan
         id="tspan12"
         style="font-variant:normal;font-weight:normal;font-size:12px;font-family:Arial;writing-mode:lr-tb;fill:#000000;fill-opacity:1;fill-rule:nonzero;stroke:none"
         x="0"
         y="0">p4 : P4</tspan></text>
    <path
       id="path14"
       d="m 611.5,3060 h 14 c 0.39777,0 0.78046,0.076 1.14801,0.228 0.36749,0.1524 0.69196,0.3692 0.97327,0.6507 0.28131,0.2812 0.49804,0.6054 0.65033,0.9729 0.15222,0.3676 0.22833,0.7505 0.22839,1.1484 v 14 c -6e-5,0.3977 -0.0762,0.7803 -0.22839,1.1477 -0.15229,0.3674 -0.36902,0.6919 -0.65033,0.9734 -0.28131,0.281 -0.60578,0.4978 -0.97327,0.6501 -0.36755,0.1524 -0.75024,0.2286 -1.14801,0.2288 h -14 c -0.39789,-2e-4 -0.78064,-0.076 -1.14813,-0.2288 -0.36756,-0.1523 -0.69196,-0.3691 -0.97327,-0.6501 -0.28131,-0.2815 -0.49805,-0.606 -0.65033,-0.9734 -0.15222,-0.3674 -0.22833,-0.75 -0.22827,-1.1477 v -14 c -6e-5,-0.3979 0.0761,-0.7808 0.22827,-1.1482 0.15228,-0.3674 0.36902,-0.6919 0.65033,-0.9731 0.28131,-0.2815 0.60571,-0.4983 0.97327,-0.6507 0.36749,-0.1521 0.75024,-0.228 1.14813,-0.228 z"
       style="fill:#ffffff;fill-opacity:1;fill-rule:nonzero;stroke:#000000;stroke-width:1;stroke-linecap:butt;stroke-linejoin:miter;stroke-miterlimit:10;stroke-dasharray:none;stroke-opacity:1"
       transform="matrix(0.95178569,0,0,0.95178569,-323.1743,-2862.923)"
       clip-path="url(#clipPath15)" />
    <text
       id="text15"
       xml:space="preserve"
       transform="matrix(0.95178569,0,0,0.95178569,278.8004,61.438468)"
       clip-path="url(#clipPath16)"><tspan
         id="tspan15"
         style="font-variant:normal;font-weight:normal;font-size:12px;font-family:Arial;writing-mode:lr-tb;fill:#000000;fill-opacity:1;fill-rule:nonzero;stroke:none"
         x="0"
         y="0">p2 : P2</tspan></text>
    <path
       id="path17"
       d="m 508.5,3069.5 100,0.45"
       style="fill:none;stroke:#000000;stroke-width:1;stroke-linecap:butt;stroke-linejoin:miter;stroke-miterlimit:10;stroke-dasharray:none;stroke-opacity:1"
       transform="matrix(0.95178569,0,0,0.95178569,-323.1743,-2862.923)"
       clip-path="url(#clipPath18)" />
    <text
       id="text18"
       xml:space="preserve"
       transform="matrix(0.95178569,0,0,0.95178569,182.20903,39.547397)"
       clip-path="url(#clipPath19)"><tspan
         id="tspan18"
         style="font-variant:normal;font-weight:normal;font-size:12px;font-family:Arial;writing-mode:lr-tb;fill:#000000;fill-opacity:1;fill-rule:nonzero;stroke:none"
         x="0"
         y="0">interface1:</tspan></text>
    <text
       id="text19"
       xml:space="preserve"
       transform="matrix(0.95178569,0,0,0.95178569,174.59474,53.824182)"
       clip-path="url(#clipPath20)"><tspan
         id="tspan19"
         style="font-variant:normal;font-weight:normal;font-size:12px;font-family:Arial;writing-mode:lr-tb;fill:#000000;fill-opacity:1;fill-rule:nonzero;stroke:none"
         x="0"
         y="0">InterfaceDef1</tspan></text>
  </g>
</svg>
