<?xml version="1.0" encoding="UTF-8" standalone="no"?>
<!-- Created with Inkscape (http://www.inkscape.org/) -->

<svg
   version="1.1"
   id="svg1"
   width="193.27998"
   height="97.279999"
   viewBox="0 0 193.27998 97.279999"
   xmlns="http://www.w3.org/2000/svg"
   xmlns:svg="http://www.w3.org/2000/svg">
  <defs
     id="defs1">
    <clipPath
       clipPathUnits="userSpaceOnUse"
       id="clipPath2">
      <path
         d="M 0,0 H 605 V 305 H 0 Z"
         transform="scale(0.31999999)"
         clip-rule="evenodd"
         id="path2" />
    </clipPath>
    <clipPath
       clipPathUnits="userSpaceOnUse"
       id="clipPath4">
      <path
         d="m 3.125,0 h 600 v 305 h -600 z"
         transform="matrix(0.34088991,0,0,0.34088991,556.86779,5717.9348)"
         clip-rule="evenodd"
         id="path4" />
    </clipPath>
    <clipPath
       clipPathUnits="userSpaceOnUse"
       id="clipPath6">
      <path
         d="m 3.125,0 h 600 v 305 h -600 z"
         transform="matrix(0.34088991,0,0,0.34088991,556.86779,5717.9348)"
         clip-rule="evenodd"
         id="path6" />
    </clipPath>
    <clipPath
       clipPathUnits="userSpaceOnUse"
       id="clipPath8">
      <path
         d="m 3.125,0 h 600 v 305 h -600 z"
         transform="matrix(0.34088991,0,0,0.34088991,556.86779,5717.9348)"
         clip-rule="evenodd"
         id="path8" />
    </clipPath>
    <clipPath
       clipPathUnits="userSpaceOnUse"
       id="clipPath9">
      <path
         d="m 3.125,0 h 600 v 305 h -600 z"
         transform="matrix(0.34088991,0,0,0.34088991,-63.538433,-23.565144)"
         clip-rule="evenodd"
         id="path9" />
    </clipPath>
    <clipPath
       clipPathUnits="userSpaceOnUse"
       id="clipPath10">
      <path
         d="m 3.125,0 h 600 v 305 h -600 z"
         transform="matrix(0.34088991,0,0,0.34088991,-13.304062,-42.565144)"
         clip-rule="evenodd"
         id="path10" />
    </clipPath>
    <clipPath
       clipPathUnits="userSpaceOnUse"
       id="clipPath11">
      <path
         d="m 262.93591,160.06641 h 76.27087 v 44.00195 h -76.27087 z"
         transform="matrix(0.34088991,0,0,0.34088991,-89.616562,-65.565144)"
         clip-rule="evenodd"
         id="path11" />
    </clipPath>
    <clipPath
       clipPathUnits="userSpaceOnUse"
       id="clipPath12">
      <path
         d="m 25.32251,218.73633 h 161.34241 v 76.27148 H 25.32251 Z"
         transform="matrix(0.34088991,0,0,0.34088991,-8.6321828,-85.565144)"
         clip-rule="evenodd"
         id="path12" />
    </clipPath>
    <clipPath
       clipPathUnits="userSpaceOnUse"
       id="clipPath13">
      <path
         d="m 25.32251,218.73633 h 161.34241 v 76.27148 H 25.32251 Z"
         transform="matrix(0.34088991,0,0,0.34088991,-35.991563,-85.565144)"
         clip-rule="evenodd"
         id="path13" />
    </clipPath>
    <clipPath
       clipPathUnits="userSpaceOnUse"
       id="clipPath14">
      <path
         d="m 25.32251,218.73633 h 161.34241 v 76.27148 H 25.32251 Z"
         transform="matrix(0.34088991,0,0,0.34088991,-50.335313,-85.565144)"
         clip-rule="evenodd"
         id="path14" />
    </clipPath>
    <clipPath
       clipPathUnits="userSpaceOnUse"
       id="clipPath15">
      <path
         d="m 25.32251,218.73633 h 161.34241 v 76.27148 H 25.32251 Z"
         transform="matrix(0.34088991,0,0,0.34088991,-8.6321828,-99.565144)"
         clip-rule="evenodd"
         id="path15" />
    </clipPath>
    <clipPath
       clipPathUnits="userSpaceOnUse"
       id="clipPath16">
      <path
         d="m 25.32251,218.73633 h 161.34241 v 76.27148 H 25.32251 Z"
         transform="matrix(0.34088991,0,0,0.34088991,-35.991563,-99.565144)"
         clip-rule="evenodd"
         id="path16" />
    </clipPath>
    <clipPath
       clipPathUnits="userSpaceOnUse"
       id="clipPath17">
      <path
         d="m 25.32251,218.73633 h 161.34241 v 76.27148 H 25.32251 Z"
         transform="matrix(0.34088991,0,0,0.34088991,-50.335313,-99.565144)"
         clip-rule="evenodd"
         id="path17" />
    </clipPath>
  </defs>
  <g
     id="g1">
    <path
       id="path1"
       d="M 0,0 H 194 V 98 H 0 Z"
       style="fill:#ffffff;fill-opacity:1;fill-rule:nonzero;stroke:none"
       clip-path="url(#clipPath2)" />
    <path
       id="path3"
       d="m 760,5770 v -42.5 c 0,-5 -2.5,-7.5 -7.5,-7.5 h -185 c -5,0 -7.5,2.5 -7.5,7.5 v 42.5"
       style="fill:none;stroke:#000000;stroke-width:1;stroke-linecap:butt;stroke-linejoin:miter;stroke-miterlimit:10;stroke-dasharray:none;stroke-opacity:1"
       transform="matrix(0.93871945,0,0,0.93871945,-522.74263,-5367.5366)"
       clip-path="url(#clipPath4)" />
    <path
       id="path5"
       d="m 560,5770 v 42.5 c 0,5 2.5,7.5 7.5,7.5 h 185 c 5,0 7.5,-2.5 7.5,-7.5 V 5770"
       style="fill:none;stroke:#000000;stroke-width:1;stroke-linecap:butt;stroke-linejoin:miter;stroke-miterlimit:10;stroke-dasharray:none;stroke-opacity:1"
       transform="matrix(0.93871945,0,0,0.93871945,-522.74263,-5367.5366)"
       clip-path="url(#clipPath6)" />
    <path
       id="path7"
       d="M 560,5770 H 760"
       style="fill:none;stroke:#000000;stroke-width:1;stroke-linecap:butt;stroke-linejoin:miter;stroke-miterlimit:10;stroke-dasharray:none;stroke-opacity:1"
       transform="matrix(0.93871945,0,0,0.93871945,-522.74263,-5367.5366)"
       clip-path="url(#clipPath8)" />
    <text
       id="text8"
       xml:space="preserve"
       transform="matrix(0.93871945,0,0,0.93871945,59.644763,22.121059)"
       clip-path="url(#clipPath9)"><tspan
         id="tspan8"
         style="font-variant:normal;font-weight:normal;font-size:16px;font-family:Arial;writing-mode:lr-tb;fill:#000000;fill-opacity:1;fill-rule:nonzero;stroke:none"
         x="0"
         y="0">«interface»</tspan></text>
    <text
       id="text9"
       xml:space="preserve"
       transform="matrix(0.93871945,0,0,0.93871945,12.488782,39.956729)"
       clip-path="url(#clipPath10)"><tspan
         id="tspan9"
         style="font-variant:normal;font-weight:normal;font-size:16px;font-family:Arial;writing-mode:lr-tb;fill:#000000;fill-opacity:1;fill-rule:nonzero;stroke:none"
         x="0"
         y="0">interface1 : InterfaceDef1</tspan></text>
    <text
       id="text10"
       xml:space="preserve"
       transform="matrix(0.93871945,0,0,0.93871945,84.12481,61.547276)"
       clip-path="url(#clipPath11)"><tspan
         id="tspan10"
         style="font-style:italic;font-variant:normal;font-weight:normal;font-size:12px;font-family:Arial;writing-mode:lr-tb;fill:#000000;fill-opacity:1;fill-rule:nonzero;stroke:none"
         x="0"
         y="0">ends</tspan></text>
    <text
       id="text11"
       xml:space="preserve"
       transform="matrix(0.93871945,0,0,0.93871945,8.1031979,80.321665)"
       clip-path="url(#clipPath12)"><tspan
         id="tspan11"
         style="font-variant:normal;font-weight:normal;font-size:12px;font-family:Arial;writing-mode:lr-tb;fill:#000000;fill-opacity:1;fill-rule:nonzero;stroke:none"
         x="0"
         y="0">port1</tspan></text>
    <text
       id="text12"
       xml:space="preserve"
       transform="matrix(0.93871945,0,0,0.93871945,33.78598,80.321665)"
       clip-path="url(#clipPath13)"><tspan
         id="tspan12"
         style="font-variant:normal;font-weight:700;font-size:12px;font-family:Arial;writing-mode:lr-tb;fill:#000000;fill-opacity:1;fill-rule:nonzero;stroke:none"
         x="0"
         y="0"> :&gt;</tspan></text>
    <text
       id="text13"
       xml:space="preserve"
       transform="matrix(0.93871945,0,0,0.93871945,47.250737,80.321665)"
       clip-path="url(#clipPath14)"><tspan
         id="tspan13"
         style="font-variant:normal;font-weight:normal;font-size:12px;font-family:Arial;writing-mode:lr-tb;fill:#000000;fill-opacity:1;fill-rule:nonzero;stroke:none"
         x="0"
         y="0">pa</tspan></text>
    <text
       id="text14"
       xml:space="preserve"
       transform="matrix(0.93871945,0,0,0.93871945,8.1031979,93.463737)"
       clip-path="url(#clipPath15)"><tspan
         id="tspan14"
         style="font-variant:normal;font-weight:normal;font-size:12px;font-family:Arial;writing-mode:lr-tb;fill:#000000;fill-opacity:1;fill-rule:nonzero;stroke:none"
         x="0"
         y="0">port2</tspan></text>
    <text
       id="text15"
       xml:space="preserve"
       transform="matrix(0.93871945,0,0,0.93871945,33.78598,93.463737)"
       clip-path="url(#clipPath16)"><tspan
         id="tspan15"
         style="font-variant:normal;font-weight:700;font-size:12px;font-family:Arial;writing-mode:lr-tb;fill:#000000;fill-opacity:1;fill-rule:nonzero;stroke:none"
         x="0"
         y="0"> :&gt;</tspan></text>
    <text
       id="text16"
       xml:space="preserve"
       transform="matrix(0.93871945,0,0,0.93871945,47.250737,93.463737)"
       clip-path="url(#clipPath17)"><tspan
         id="tspan16"
         style="font-variant:normal;font-weight:normal;font-size:12px;font-family:Arial;writing-mode:lr-tb;fill:#000000;fill-opacity:1;fill-rule:nonzero;stroke:none"
         x="0"
         y="0">pb</tspan></text>
  </g>
</svg>
