<?xml version="1.0" encoding="UTF-8" standalone="no"?>
<!-- Created with Inkscape (http://www.inkscape.org/) -->

<svg
   version="1.1"
   id="svg1"
   width="184"
   height="89.279999"
   viewBox="0 0 184 89.279999"
   xmlns="http://www.w3.org/2000/svg"
   xmlns:svg="http://www.w3.org/2000/svg">
  <defs
     id="defs1">
    <clipPath
       clipPathUnits="userSpaceOnUse"
       id="clipPath2">
      <path
         d="M 0,0 H 572.99805 V 279.00391 H 0 Z"
         transform="scale(0.31999999)"
         clip-rule="evenodd"
         id="path2" />
    </clipPath>
    <clipPath
       clipPathUnits="userSpaceOnUse"
       id="clipPath4">
      <path
         d="M 3.125,0 H 568.75 V 278.125 H 3.125 Z"
         transform="matrix(0.33955905,0,0,0.33955905,478.86717,2247.9387)"
         clip-rule="evenodd"
         id="path4" />
    </clipPath>
    <clipPath
       clipPathUnits="userSpaceOnUse"
       id="clipPath5">
      <path
         d="M 3.125,0 H 568.75 V 278.125 H 3.125 Z"
         transform="matrix(0.33955905,0,0,0.33955905,-80.664114,-19.561183)"
         clip-rule="evenodd"
         id="path5" />
    </clipPath>
    <clipPath
       clipPathUnits="userSpaceOnUse"
       id="clipPath6">
      <path
         d="M 3.125,0 H 568.75 V 278.125 H 3.125 Z"
         transform="matrix(0.33955905,0,0,0.33955905,-4.632864,-34.561182)"
         clip-rule="evenodd"
         id="path6" />
    </clipPath>
    <clipPath
       clipPathUnits="userSpaceOnUse"
       id="clipPath7">
      <path
         d="M 3.125,0 H 568.75 V 278.125 H 3.125 Z"
         transform="matrix(0.33955905,0,0,0.33955905,-142.711,-34.561182)"
         clip-rule="evenodd"
         id="path7" />
    </clipPath>
    <clipPath
       clipPathUnits="userSpaceOnUse"
       id="clipPath8">
      <path
         d="M 3.125,0 H 568.75 V 278.125 H 3.125 Z"
         transform="matrix(0.33955905,0,0,0.33955905,-146.71099,-34.561182)"
         clip-rule="evenodd"
         id="path8" />
    </clipPath>
    <clipPath
       clipPathUnits="userSpaceOnUse"
       id="clipPath9">
      <path
         d="M 3.125,0 H 568.75 V 278.125 H 3.125 Z"
         transform="matrix(0.33955905,0,0,0.33955905,-164.72662,-34.561182)"
         clip-rule="evenodd"
         id="path9" />
    </clipPath>
    <clipPath
       clipPathUnits="userSpaceOnUse"
       id="clipPath10">
      <path
         d="M 3.125,0 H 568.75 V 278.125 H 3.125 Z"
         transform="matrix(0.33955905,0,0,0.33955905,-4.632864,-51.561182)"
         clip-rule="evenodd"
         id="path10" />
    </clipPath>
    <clipPath
       clipPathUnits="userSpaceOnUse"
       id="clipPath11">
      <path
         d="M 3.125,0 H 568.75 V 278.125 H 3.125 Z"
         transform="matrix(0.33955905,0,0,0.33955905,-4.632864,-69.561182)"
         clip-rule="evenodd"
         id="path11" />
    </clipPath>
  </defs>
  <g
     id="g1">
    <path
       id="path1"
       d="M 0,0 H 183 V 89 H 0 Z"
       style="fill:#ffffff;fill-opacity:1;fill-rule:nonzero;stroke:none"
       clip-path="url(#clipPath2)" />
    <path
       id="path3"
       d="m 482,2250 h 188 v 90 H 482 Z"
       style="fill:#ffffff;fill-opacity:1;fill-rule:nonzero;stroke:#000000;stroke-width:1;stroke-linecap:butt;stroke-linejoin:miter;stroke-miterlimit:10;stroke-dasharray:none;stroke-opacity:1"
       transform="matrix(0.94239865,0,0,0.94239865,-451.28377,-2118.4544)"
       clip-path="url(#clipPath4)" />
    <text
       id="text4"
       xml:space="preserve"
       transform="matrix(0.94239865,0,0,0.94239865,76.017752,18.434432)"
       clip-path="url(#clipPath5)"><tspan
         id="tspan4"
         style="font-style:italic;font-variant:normal;font-weight:normal;font-size:12px;font-family:Arial;writing-mode:lr-tb;fill:#000000;fill-opacity:1;fill-rule:nonzero;stroke:none"
         x="0"
         y="0">interfaces</tspan></text>
    <text
       id="text5"
       xml:space="preserve"
       transform="matrix(0.94239865,0,0,0.94239865,4.3660048,32.570411)"
       clip-path="url(#clipPath6)"><tspan
         id="tspan5"
         style="font-variant:normal;font-weight:normal;font-size:12px;font-family:Arial;writing-mode:lr-tb;fill:#000000;fill-opacity:1;fill-rule:nonzero;stroke:none"
         x="0"
         y="0">interface1 : InterfaceDef1 </tspan></text>
    <text
       id="text6"
       xml:space="preserve"
       transform="matrix(0.94239865,0,0,0.94239865,134.49065,32.570411)"
       clip-path="url(#clipPath7)"><tspan
         id="tspan6"
         style="font-variant:normal;font-weight:700;font-size:12px;font-family:Arial;writing-mode:lr-tb;fill:#000000;fill-opacity:1;fill-rule:nonzero;stroke:none"
         x="0"
         y="0">[</tspan></text>
    <text
       id="text7"
       xml:space="preserve"
       transform="matrix(0.94239865,0,0,0.94239865,138.26024,32.570411)"
       clip-path="url(#clipPath8)"><tspan
         id="tspan7"
         style="font-variant:normal;font-weight:normal;font-size:12px;font-family:Arial;writing-mode:lr-tb;fill:#000000;fill-opacity:1;fill-rule:nonzero;stroke:none"
         x="0"
         y="0">1..*</tspan></text>
    <text
       id="text8"
       xml:space="preserve"
       transform="matrix(0.94239865,0,0,0.94239865,155.23814,32.570411)"
       clip-path="url(#clipPath9)"><tspan
         id="tspan8"
         style="font-variant:normal;font-weight:700;font-size:12px;font-family:Arial;writing-mode:lr-tb;fill:#000000;fill-opacity:1;fill-rule:nonzero;stroke:none"
         x="0"
         y="0">]</tspan></text>
    <text
       id="text9"
       xml:space="preserve"
       transform="matrix(0.94239865,0,0,0.94239865,4.3660048,48.591188)"
       clip-path="url(#clipPath10)"><tspan
         id="tspan9"
         style="font-variant:normal;font-weight:normal;font-size:12px;font-family:Arial;writing-mode:lr-tb;fill:#000000;fill-opacity:1;fill-rule:nonzero;stroke:none"
         x="0"
         y="0">interface2 : InterfaceDef2</tspan></text>
    <text
       id="text10"
       xml:space="preserve"
       transform="matrix(0.94239865,0,0,0.94239865,4.3660048,65.554364)"
       clip-path="url(#clipPath11)"><tspan
         id="tspan10"
         style="font-variant:normal;font-weight:700;font-size:14px;font-family:Arial;writing-mode:lr-tb;fill:#000000;fill-opacity:1;fill-rule:nonzero;stroke:none"
         x="0"
         y="0">...</tspan></text>
  </g>
</svg>
