<?xml version="1.0" encoding="UTF-8" standalone="no"?>
<!-- Created with Inkscape (http://www.inkscape.org/) -->

<svg
   version="1.1"
   id="svg1"
   width="193.27998"
   height="89.279999"
   viewBox="0 0 193.27998 89.279999"
   xmlns="http://www.w3.org/2000/svg"
   xmlns:svg="http://www.w3.org/2000/svg">
  <defs
     id="defs1">
    <clipPath
       clipPathUnits="userSpaceOnUse"
       id="clipPath2">
      <path
         d="M 0,0 H 605 V 279.00391 H 0 Z"
         transform="scale(0.31999999)"
         clip-rule="evenodd"
         id="path2" />
    </clipPath>
    <clipPath
       clipPathUnits="userSpaceOnUse"
       id="clipPath4">
      <path
         d="m 3.125,0 h 600 v 278.125 h -600 z"
         transform="matrix(0.34090338,0,0,0.34090338,556.86375,5877.9351)"
         clip-rule="evenodd"
         id="path4" />
    </clipPath>
    <clipPath
       clipPathUnits="userSpaceOnUse"
       id="clipPath6">
      <path
         d="m 3.125,0 h 600 v 278.125 h -600 z"
         transform="matrix(0.34090338,0,0,0.34090338,556.86375,5877.9351)"
         clip-rule="evenodd"
         id="path6" />
    </clipPath>
    <clipPath
       clipPathUnits="userSpaceOnUse"
       id="clipPath8">
      <path
         d="m 3.125,0 h 600 v 278.125 h -600 z"
         transform="matrix(0.34090338,0,0,0.34090338,556.86375,5877.9351)"
         clip-rule="evenodd"
         id="path8" />
    </clipPath>
    <clipPath
       clipPathUnits="userSpaceOnUse"
       id="clipPath9">
      <path
         d="m 3.125,0 h 600 v 278.125 h -600 z"
         transform="matrix(0.34090338,0,0,0.34090338,-63.542463,-23.565463)"
         clip-rule="evenodd"
         id="path9" />
    </clipPath>
    <clipPath
       clipPathUnits="userSpaceOnUse"
       id="clipPath10">
      <path
         d="m 3.125,0 h 600 v 278.125 h -600 z"
         transform="matrix(0.34090338,0,0,0.34090338,-13.308093,-42.565463)"
         clip-rule="evenodd"
         id="path10" />
    </clipPath>
    <clipPath
       clipPathUnits="userSpaceOnUse"
       id="clipPath11">
      <path
         d="M 151.46875,160.06055 H 450.67383 V 204.0625 H 151.46875 Z"
         transform="matrix(0.34090338,0,0,0.34090338,-51.948712,-65.565462)"
         clip-rule="evenodd"
         id="path11" />
    </clipPath>
    <clipPath
       clipPathUnits="userSpaceOnUse"
       id="clipPath12">
      <path
         d="m 25.333374,218.72852 h 38.133911 v 44.00195 H 25.333374 Z"
         transform="matrix(0.34090338,0,0,0.34090338,-8.6362127,-85.565462)"
         clip-rule="evenodd"
         id="path12" />
    </clipPath>
  </defs>
  <g
     id="g1">
    <path
       id="path1"
       d="M 0,0 H 194 V 89 H 0 Z"
       style="fill:#ffffff;fill-opacity:1;fill-rule:nonzero;stroke:none"
       clip-path="url(#clipPath2)" />
    <path
       id="path3"
       d="m 760,5930 v -42.5 c 0,-5 -2.5,-7.5 -7.5,-7.5 h -185 c -5,0 -7.5,2.5 -7.5,7.5 v 42.5"
       style="fill:none;stroke:#000000;stroke-width:1;stroke-linecap:butt;stroke-linejoin:miter;stroke-miterlimit:10;stroke-dasharray:none;stroke-opacity:1"
       transform="matrix(0.93868236,0,0,0.93868236,-522.71818,-5517.514)"
       clip-path="url(#clipPath4)" />
    <path
       id="path5"
       d="m 560,5930 v 32.5 c 0,5 2.5,7.5 7.5,7.5 h 185 c 5,0 7.5,-2.5 7.5,-7.5 V 5930"
       style="fill:none;stroke:#000000;stroke-width:1;stroke-linecap:butt;stroke-linejoin:miter;stroke-miterlimit:10;stroke-dasharray:none;stroke-opacity:1"
       transform="matrix(0.93868236,0,0,0.93868236,-522.71818,-5517.514)"
       clip-path="url(#clipPath6)" />
    <path
       id="path7"
       d="M 560,5930 H 760"
       style="fill:none;stroke:#000000;stroke-width:1;stroke-linecap:butt;stroke-linejoin:miter;stroke-miterlimit:10;stroke-dasharray:none;stroke-opacity:1"
       transform="matrix(0.93868236,0,0,0.93868236,-522.71818,-5517.514)"
       clip-path="url(#clipPath8)" />
    <text
       id="text8"
       xml:space="preserve"
       transform="matrix(0.93868236,0,0,0.93868236,59.646189,22.120484)"
       clip-path="url(#clipPath9)"><tspan
         id="tspan8"
         style="font-variant:normal;font-weight:normal;font-size:16px;font-family:Arial;writing-mode:lr-tb;fill:#000000;fill-opacity:1;fill-rule:nonzero;stroke:none"
         x="0"
         y="0">«interface»</tspan></text>
    <text
       id="text9"
       xml:space="preserve"
       transform="matrix(0.93868236,0,0,0.93868236,12.492072,39.955449)"
       clip-path="url(#clipPath10)"><tspan
         id="tspan9"
         style="font-variant:normal;font-weight:normal;font-size:16px;font-family:Arial;writing-mode:lr-tb;fill:#000000;fill-opacity:1;fill-rule:nonzero;stroke:none"
         x="0"
         y="0">interface1 : InterfaceDef1</tspan></text>
    <text
       id="text10"
       xml:space="preserve"
       transform="matrix(0.93868236,0,0,0.93868236,48.76334,61.545143)"
       clip-path="url(#clipPath11)"><tspan
         id="tspan10"
         style="font-style:italic;font-variant:normal;font-weight:normal;font-size:12px;font-family:Arial;writing-mode:lr-tb;fill:#000000;fill-opacity:1;fill-rule:nonzero;stroke:none"
         x="0"
         y="0">compartment stack</tspan></text>
    <text
       id="text11"
       xml:space="preserve"
       transform="matrix(0.93868236,0,0,0.93868236,8.1066605,80.31879)"
       clip-path="url(#clipPath12)"><tspan
         id="tspan11"
         style="font-variant:normal;font-weight:normal;font-size:12px;font-family:Arial;writing-mode:lr-tb;fill:#000000;fill-opacity:1;fill-rule:nonzero;stroke:none"
         x="0"
         y="0">•••</tspan></text>
  </g>
</svg>
