<?xml version="1.0" encoding="UTF-8" standalone="no"?>
<!-- Created with Inkscape (http://www.inkscape.org/) -->

<svg
   version="1.1"
   id="svg1"
   width="214.71999"
   height="69.439995"
   viewBox="0 0 214.71999 69.439995"
   xmlns="http://www.w3.org/2000/svg"
   xmlns:svg="http://www.w3.org/2000/svg">
  <defs
     id="defs1">
    <clipPath
       clipPathUnits="userSpaceOnUse"
       id="clipPath2">
      <path
         d="M 0,0 H 668.99414 V 216.01563 H 0 Z"
         transform="scale(0.31999999)"
         clip-rule="evenodd"
         id="path2" />
    </clipPath>
    <clipPath
       clipPathUnits="userSpaceOnUse"
       id="clipPath4">
      <path
         d="m 3.125,0 h 662.5 V 216.01563 H 3.125 Z"
         transform="matrix(0.33868613,0,0,0.33868613,536.86127,-121)"
         clip-rule="evenodd"
         id="path4" />
    </clipPath>
    <clipPath
       clipPathUnits="userSpaceOnUse"
       id="clipPath6">
      <path
         d="m 3.125,0 h 662.5 V 216.01563 H 3.125 Z"
         transform="matrix(0.33868613,0,0,0.33868613,536.86127,-121)"
         clip-rule="evenodd"
         id="path6" />
    </clipPath>
    <clipPath
       clipPathUnits="userSpaceOnUse"
       id="clipPath8">
      <path
         d="m 3.125,0 h 662.5 V 216.01563 H 3.125 Z"
         transform="matrix(0.33868613,0,0,0.33868613,536.86127,-121)"
         clip-rule="evenodd"
         id="path8" />
    </clipPath>
    <clipPath
       clipPathUnits="userSpaceOnUse"
       id="clipPath9">
      <path
         d="m 3.125,0 h 662.5 V 216.01563 H 3.125 Z"
         transform="matrix(0.33868613,0,0,0.33868613,-70.435611,-22.499994)"
         clip-rule="evenodd"
         id="path9" />
    </clipPath>
    <clipPath
       clipPathUnits="userSpaceOnUse"
       id="clipPath10">
      <path
         d="m 3.125,0 h 662.5 V 216.01563 H 3.125 Z"
         transform="matrix(0.33868613,0,0,0.33868613,-17.076231,-41.499995)"
         clip-rule="evenodd"
         id="path10" />
    </clipPath>
    <clipPath
       clipPathUnits="userSpaceOnUse"
       id="clipPath11">
      <path
         d="m 25.506592,157.96335 h 38.383667 v 44.28879 H 25.506592 Z"
         transform="matrix(0.33868613,0,0,0.33868613,-8.6387301,-64.499994)"
         clip-rule="evenodd"
         id="path11" />
    </clipPath>
  </defs>
  <g
     id="g1">
    <path
       id="path1"
       d="M 0,0 H 214 V 69 H 0 Z"
       style="fill:#ffffff;fill-opacity:1;fill-rule:nonzero;stroke:none"
       clip-path="url(#clipPath2)" />
    <path
       id="path3"
       d="m 760,-70 v -42.5 c 0,-5 -2.5,-7.5 -7.5,-7.5 h -205 c -5,0 -7.5,2.5 -7.5,7.5 V -70"
       style="fill:none;stroke:#000000;stroke-width:1;stroke-linecap:butt;stroke-linejoin:miter;stroke-miterlimit:10;stroke-dasharray:none;stroke-opacity:1"
       transform="matrix(0.94482754,0,0,0.94482754,-507.24131,114.32413)"
       clip-path="url(#clipPath4)" />
    <path
       id="path5"
       d="m 540,-70 v 12.5 c 0,5 2.5,7.5 7.5,7.5 h 205 c 5,0 7.5,-2.5 7.5,-7.5 V -70"
       style="fill:none;stroke:#000000;stroke-width:1;stroke-linecap:butt;stroke-linejoin:miter;stroke-miterlimit:10;stroke-dasharray:none;stroke-opacity:1"
       transform="matrix(0.94482754,0,0,0.94482754,-507.24131,114.32413)"
       clip-path="url(#clipPath6)" />
    <path
       id="path7"
       d="M 540,-70 H 760"
       style="fill:none;stroke:#000000;stroke-width:1;stroke-linecap:butt;stroke-linejoin:miter;stroke-miterlimit:10;stroke-dasharray:none;stroke-opacity:1"
       transform="matrix(0.94482754,0,0,0.94482754,-507.24131,114.32413)"
       clip-path="url(#clipPath8)" />
    <text
       id="text8"
       xml:space="preserve"
       transform="matrix(0.94482754,0,0,0.94482754,66.549505,21.258614)"
       clip-path="url(#clipPath9)"><tspan
         id="tspan8"
         style="font-variant:normal;font-weight:normal;font-size:16px;font-family:Arial;writing-mode:lr-tb;fill:#000000;fill-opacity:1;fill-rule:nonzero;stroke:none"
         x="0"
         y="0">«allocation»</tspan></text>
    <text
       id="text9"
       xml:space="preserve"
       transform="matrix(0.94482754,0,0,0.94482754,16.134093,39.210338)"
       clip-path="url(#clipPath10)"><tspan
         id="tspan9"
         style="font-variant:normal;font-weight:normal;font-size:16px;font-family:Arial;writing-mode:lr-tb;fill:#000000;fill-opacity:1;fill-rule:nonzero;stroke:none"
         x="0"
         dx="0 0 0 0 0 0 0 0 0 0 0 0 0 0 -0.88281214"
         y="0">allocation1 : AllocationDef1</tspan></text>
    <text
       id="text10"
       xml:space="preserve"
       transform="matrix(0.94482754,0,0,0.94482754,8.1621101,60.941371)"
       clip-path="url(#clipPath11)"><tspan
         id="tspan10"
         style="font-variant:normal;font-weight:normal;font-size:12px;font-family:Arial;writing-mode:lr-tb;fill:#000000;fill-opacity:1;fill-rule:nonzero;stroke:none"
         x="0"
         y="0">•••</tspan></text>
  </g>
</svg>
