<?xml version="1.0" encoding="UTF-8" standalone="no"?>
<!-- Created with Inkscape (http://www.inkscape.org/) -->

<svg
   version="1.1"
   id="svg1"
   width="392"
   height="137.28"
   viewBox="0 0 392 137.28"
   xmlns="http://www.w3.org/2000/svg"
   xmlns:svg="http://www.w3.org/2000/svg">
  <defs
     id="defs1">
    <clipPath
       clipPathUnits="userSpaceOnUse"
       id="clipPath2">
      <path
         d="M 0,0 H 1224.0234 V 429.00391 H 0 Z"
         transform="scale(0.31999999)"
         clip-rule="evenodd"
         id="path2" />
    </clipPath>
    <clipPath
       clipPathUnits="userSpaceOnUse"
       id="clipPath4">
      <path
         d="m 3.125,0 h 1218.75 V 428.125 H 3.125 Z"
         transform="matrix(0.33676438,0,0,0.33676438,396.38586,-902.05242)"
         clip-rule="evenodd"
         id="path4" />
    </clipPath>
    <clipPath
       clipPathUnits="userSpaceOnUse"
       id="clipPath5">
      <path
         d="m 3.125,0 h 1218.75 V 428.125 H 3.125 Z"
         transform="matrix(0.33676438,0,0,0.33676438,-60.926679,-17.552457)"
         clip-rule="evenodd"
         id="path5" />
    </clipPath>
    <clipPath
       clipPathUnits="userSpaceOnUse"
       id="clipPath6">
      <path
         d="m 3.125,0 h 1218.75 V 428.125 H 3.125 Z"
         transform="matrix(0.33676438,0,0,0.33676438,-39.598558,-37.552457)"
         clip-rule="evenodd"
         id="path6" />
    </clipPath>
    <clipPath
       clipPathUnits="userSpaceOnUse"
       id="clipPath8">
      <path
         d="m 3.125,0 h 1218.75 V 428.125 H 3.125 Z"
         transform="matrix(0.33676438,0,0,0.33676438,396.38586,-902.05242)"
         clip-rule="evenodd"
         id="path8" />
    </clipPath>
    <clipPath
       clipPathUnits="userSpaceOnUse"
       id="clipPath9">
      <path
         d="m 3.125,0 h 1218.75 V 428.125 H 3.125 Z"
         transform="matrix(0.33676438,0,0,0.33676438,-304.92668,-17.552457)"
         clip-rule="evenodd"
         id="path9" />
    </clipPath>
    <clipPath
       clipPathUnits="userSpaceOnUse"
       id="clipPath10">
      <path
         d="m 3.125,0 h 1218.75 V 428.125 H 3.125 Z"
         transform="matrix(0.33676438,0,0,0.33676438,-283.59856,-37.552457)"
         clip-rule="evenodd"
         id="path10" />
    </clipPath>
    <clipPath
       clipPathUnits="userSpaceOnUse"
       id="clipPath12">
      <path
         d="m 3.125,0 h 1218.75 V 428.125 H 3.125 Z"
         transform="matrix(0.33676438,0,0,0.33676438,396.38586,-902.05242)"
         clip-rule="evenodd"
         id="path12" />
    </clipPath>
    <clipPath
       clipPathUnits="userSpaceOnUse"
       id="clipPath14">
      <path
         d="m 3.125,0 h 1218.75 V 428.125 H 3.125 Z"
         transform="matrix(0.33676438,0,0,0.33676438,396.38586,-902.05242)"
         clip-rule="evenodd"
         id="path14" />
    </clipPath>
    <clipPath
       clipPathUnits="userSpaceOnUse"
       id="clipPath16">
      <path
         d="m 3.125,0 h 1218.75 V 428.125 H 3.125 Z"
         transform="matrix(0.33676438,0,0,0.33676438,396.88583,-901.55246)"
         clip-rule="evenodd"
         id="path16" />
    </clipPath>
    <clipPath
       clipPathUnits="userSpaceOnUse"
       id="clipPath18">
      <path
         d="m 3.125,0 h 1218.75 V 428.125 H 3.125 Z"
         transform="matrix(0.33676438,0,0,0.33676438,396.88583,-901.55246)"
         clip-rule="evenodd"
         id="path18" />
    </clipPath>
    <clipPath
       clipPathUnits="userSpaceOnUse"
       id="clipPath19">
      <path
         d="m 3.125,0 h 1218.75 V 428.125 H 3.125 Z"
         transform="matrix(0.33676438,0,0,0.33676438,-177.25481,-16.552457)"
         clip-rule="evenodd"
         id="path19" />
    </clipPath>
    <clipPath
       clipPathUnits="userSpaceOnUse"
       id="clipPath21">
      <path
         d="m 3.125,0 h 1218.75 V 428.125 H 3.125 Z"
         transform="matrix(0.33676438,0,0,0.33676438,396.38586,-902.05242)"
         clip-rule="evenodd"
         id="path21" />
    </clipPath>
    <clipPath
       clipPathUnits="userSpaceOnUse"
       id="clipPath22">
      <path
         d="m 3.125,0 h 1218.75 V 428.125 H 3.125 Z"
         transform="matrix(0.33676438,0,0,0.33676438,-53.364178,-117.55245)"
         clip-rule="evenodd"
         id="path22" />
    </clipPath>
    <clipPath
       clipPathUnits="userSpaceOnUse"
       id="clipPath23">
      <path
         d="m 3.125,0 h 1218.75 V 428.125 H 3.125 Z"
         transform="matrix(0.33676438,0,0,0.33676438,-57.817309,-137.55246)"
         clip-rule="evenodd"
         id="path23" />
    </clipPath>
    <clipPath
       clipPathUnits="userSpaceOnUse"
       id="clipPath25">
      <path
         d="m 3.125,0 h 1218.75 V 428.125 H 3.125 Z"
         transform="matrix(0.33676438,0,0,0.33676438,396.38586,-902.05242)"
         clip-rule="evenodd"
         id="path25" />
    </clipPath>
    <clipPath
       clipPathUnits="userSpaceOnUse"
       id="clipPath26">
      <path
         d="m 3.125,0 h 1218.75 V 428.125 H 3.125 Z"
         transform="matrix(0.33676438,0,0,0.33676438,-297.36418,-117.55245)"
         clip-rule="evenodd"
         id="path26" />
    </clipPath>
    <clipPath
       clipPathUnits="userSpaceOnUse"
       id="clipPath27">
      <path
         d="m 3.125,0 h 1218.75 V 428.125 H 3.125 Z"
         transform="matrix(0.33676438,0,0,0.33676438,-301.81731,-137.55246)"
         clip-rule="evenodd"
         id="path27" />
    </clipPath>
    <clipPath
       clipPathUnits="userSpaceOnUse"
       id="clipPath29">
      <path
         d="m 3.125,0 h 1218.75 V 428.125 H 3.125 Z"
         transform="matrix(0.33676438,0,0,0.33676438,396.38586,-902.05242)"
         clip-rule="evenodd"
         id="path29" />
    </clipPath>
    <clipPath
       clipPathUnits="userSpaceOnUse"
       id="clipPath31">
      <path
         d="m 3.125,0 h 1218.75 V 428.125 H 3.125 Z"
         transform="matrix(0.33676438,0,0,0.33676438,396.38586,-902.05242)"
         clip-rule="evenodd"
         id="path31" />
    </clipPath>
    <clipPath
       clipPathUnits="userSpaceOnUse"
       id="clipPath32">
      <path
         d="m 3.125,0 h 1218.75 V 428.125 H 3.125 Z"
         transform="matrix(0.33676438,0,0,0.33676438,-25.270429,-65.552457)"
         clip-rule="evenodd"
         id="path32" />
    </clipPath>
    <clipPath
       clipPathUnits="userSpaceOnUse"
       id="clipPath34">
      <path
         d="m 3.125,0 h 1218.75 V 428.125 H 3.125 Z"
         transform="matrix(0.33676438,0,0,0.33676438,396.38586,-902.05242)"
         clip-rule="evenodd"
         id="path34" />
    </clipPath>
    <clipPath
       clipPathUnits="userSpaceOnUse"
       id="clipPath36">
      <path
         d="m 3.125,0 h 1218.75 V 428.125 H 3.125 Z"
         transform="matrix(0.33676438,0,0,0.33676438,396.38586,-902.05242)"
         clip-rule="evenodd"
         id="path36" />
    </clipPath>
    <clipPath
       clipPathUnits="userSpaceOnUse"
       id="clipPath37">
      <path
         d="m 3.125,0 h 1218.75 V 428.125 H 3.125 Z"
         transform="matrix(0.33676438,0,0,0.33676438,-330.27043,-66.552457)"
         clip-rule="evenodd"
         id="path37" />
    </clipPath>
    <clipPath
       clipPathUnits="userSpaceOnUse"
       id="clipPath39">
      <path
         d="m 3.125,0 h 1218.75 V 428.125 H 3.125 Z"
         transform="matrix(0.33676438,0,0,0.33676438,396.38586,-902.05242)"
         clip-rule="evenodd"
         id="path39" />
    </clipPath>
    <clipPath
       clipPathUnits="userSpaceOnUse"
       id="clipPath41">
      <path
         d="m 3.125,0 h 1218.75 V 428.125 H 3.125 Z"
         transform="matrix(0.33676438,0,0,0.33676438,396.38586,-902.05242)"
         clip-rule="evenodd"
         id="path41" />
    </clipPath>
    <clipPath
       clipPathUnits="userSpaceOnUse"
       id="clipPath43">
      <path
         d="m 3.125,0 h 1218.75 V 428.125 H 3.125 Z"
         transform="matrix(0.33676438,0,0,0.33676438,396.88583,-901.55246)"
         clip-rule="evenodd"
         id="path43" />
    </clipPath>
    <clipPath
       clipPathUnits="userSpaceOnUse"
       id="clipPath45">
      <path
         d="m 3.125,0 h 1218.75 V 428.125 H 3.125 Z"
         transform="matrix(0.33676438,0,0,0.33676438,396.88583,-901.55246)"
         clip-rule="evenodd"
         id="path45" />
    </clipPath>
    <clipPath
       clipPathUnits="userSpaceOnUse"
       id="clipPath46">
      <path
         d="m 3.125,0 h 1218.75 V 428.125 H 3.125 Z"
         transform="matrix(0.33676438,0,0,0.33676438,-172.25481,-86.552457)"
         clip-rule="evenodd"
         id="path46" />
    </clipPath>
    <clipPath
       clipPathUnits="userSpaceOnUse"
       id="clipPath48">
      <path
         d="m 3.125,0 h 1218.75 V 428.125 H 3.125 Z"
         transform="matrix(0.33676438,0,0,0.33676438,396.38586,-902.05242)"
         clip-rule="evenodd"
         id="path48" />
    </clipPath>
    <clipPath
       clipPathUnits="userSpaceOnUse"
       id="clipPath50">
      <path
         d="m 3.125,0 h 1218.75 V 428.125 H 3.125 Z"
         transform="matrix(0.33676438,0,0,0.33676438,396.38586,-902.05242)"
         clip-rule="evenodd"
         id="path50" />
    </clipPath>
  </defs>
  <g
     id="g1">
    <path
       id="path1"
       d="M 0,0 H 392 V 137 H 0 Z"
       style="fill:#ffffff;fill-opacity:1;fill-rule:nonzero;stroke:none"
       clip-path="url(#clipPath2)" />
    <path
       id="path3"
       d="m 408,-900 h 144 c 0.52521,0 1.04547,0.0513 1.56067,0.15375 0.5152,0.10248 1.01544,0.25427 1.50073,0.45532 0.48529,0.20099 0.94635,0.44745 1.38306,0.73926 0.43677,0.29181 0.84088,0.62347 1.21234,0.99487 0.3714,0.37146 0.70306,0.77557 0.99493,1.21234 0.29181,0.43677 0.53821,0.89783 0.73926,1.38312 0.20099,0.48529 0.35272,0.98553 0.45526,1.50073 C 559.94873,-893.04547 560,-892.52527 560,-892 v 24 c 0,0.52533 -0.0513,1.04559 -0.15375,1.56079 -0.10254,0.5152 -0.25427,1.0155 -0.45526,1.50079 -0.20105,0.48529 -0.44745,0.94635 -0.73926,1.38312 -0.29187,0.43677 -0.62353,0.84082 -0.99493,1.21222 -0.37146,0.3714 -0.77557,0.70307 -1.21234,0.99494 -0.43671,0.2918 -0.89777,0.53826 -1.38306,0.73925 -0.48529,0.20099 -0.98553,0.35273 -1.50073,0.4552 C 553.04547,-860.05121 552.52521,-860 552,-860 H 408 c -0.5253,0 -1.04556,-0.0512 -1.56079,-0.15369 -0.5152,-0.10247 -1.01544,-0.25415 -1.50073,-0.45514 -0.48529,-0.20098 -0.94632,-0.44744 -1.38306,-0.73931 -0.4368,-0.29187 -0.84088,-0.62354 -1.21231,-0.99494 -0.37143,-0.3714 -0.7031,-0.77545 -0.99493,-1.21222 -0.29184,-0.43677 -0.53827,-0.89783 -0.73929,-1.38312 -0.20102,-0.48529 -0.35276,-0.98559 -0.4552,-1.50079 -0.10248,-0.5152 -0.15372,-1.03546 -0.15369,-1.56079 v -24 c -3e-5,-0.52527 0.0512,-1.04547 0.15369,-1.56061 0.10244,-0.5152 0.25418,-1.01544 0.4552,-1.50073 0.20102,-0.48529 0.44745,-0.94635 0.73929,-1.38312 0.29183,-0.43677 0.6235,-0.84088 0.99493,-1.21234 0.37143,-0.3714 0.77551,-0.70306 1.21228,-0.99487 0.43677,-0.29181 0.8978,-0.53827 1.38309,-0.73926 0.48529,-0.20105 0.98553,-0.35284 1.50073,-0.45532 C 406.95444,-899.94873 407.4747,-900 408,-900 Z"
       style="fill:#ffffff;fill-opacity:1;fill-rule:nonzero;stroke:#000000;stroke-width:1;stroke-linecap:butt;stroke-linejoin:miter;stroke-miterlimit:10;stroke-dasharray:none;stroke-opacity:1"
       transform="matrix(0.95021922,0,0,0.95021922,-376.65346,857.14755)"
       clip-path="url(#clipPath4)" />
    <text
       id="text4"
       xml:space="preserve"
       transform="matrix(0.95021922,0,0,0.95021922,57.893701,16.678682)"
       clip-path="url(#clipPath5)"><tspan
         id="tspan4"
         style="font-variant:normal;font-weight:normal;font-size:16px;font-family:Arial;writing-mode:lr-tb;fill:#000000;fill-opacity:1;fill-rule:nonzero;stroke:none"
         x="0"
         y="0">«part»</tspan></text>
    <text
       id="text5"
       xml:space="preserve"
       transform="matrix(0.95021922,0,0,0.95021922,37.627311,35.683066)"
       clip-path="url(#clipPath6)"><tspan
         id="tspan5"
         style="font-variant:normal;font-weight:normal;font-size:16px;font-family:Arial;writing-mode:lr-tb;fill:#000000;fill-opacity:1;fill-rule:nonzero;stroke:none"
         x="0"
         y="0">part1 : Part1</tspan></text>
    <path
       id="path7"
       d="m 652,-900 h 144 c 0.52533,0 1.04553,0.0513 1.56073,0.15375 0.5152,0.10248 1.01544,0.25427 1.50073,0.45532 0.48529,0.20099 0.94629,0.44745 1.38306,0.73926 0.43671,0.29181 0.84082,0.62347 1.21234,0.99487 0.3714,0.37146 0.70306,0.77557 0.99493,1.21234 0.29181,0.43677 0.53821,0.89783 0.73926,1.38312 0.20099,0.48529 0.35272,0.98553 0.4552,1.50073 0.10248,0.51514 0.15369,1.03534 0.15375,1.56061 v 24 c -6e-5,0.52533 -0.0513,1.04559 -0.15375,1.56079 -0.10248,0.5152 -0.25421,1.0155 -0.4552,1.50079 -0.20105,0.48529 -0.44745,0.94635 -0.73926,1.38312 -0.29187,0.43677 -0.62353,0.84082 -0.99493,1.21222 -0.37152,0.3714 -0.77563,0.70307 -1.21234,0.99494 -0.43677,0.2918 -0.89777,0.53826 -1.38306,0.73925 -0.48529,0.20099 -0.98559,0.35273 -1.50079,0.4552 C 797.04553,-860.05121 796.52533,-860 796,-860 H 652 c -0.52533,0 -1.04565,-0.0512 -1.56085,-0.15369 -0.5152,-0.10247 -1.01544,-0.25415 -1.50073,-0.45514 -0.48529,-0.20098 -0.94629,-0.44744 -1.38306,-0.73931 -0.43683,-0.29187 -0.84088,-0.62354 -1.21228,-0.99494 -0.3714,-0.3714 -0.70307,-0.77545 -0.99494,-1.21222 -0.2918,-0.43677 -0.53826,-0.89783 -0.73925,-1.38312 -0.20099,-0.48529 -0.35273,-0.98559 -0.4552,-1.50079 C 644.05121,-866.95441 644,-867.47467 644,-868 v -24 c 0,-0.52527 0.0512,-1.04547 0.15369,-1.56061 0.10247,-0.5152 0.25421,-1.01544 0.4552,-1.50073 0.20099,-0.48529 0.44745,-0.94635 0.73925,-1.38312 0.29187,-0.43677 0.62354,-0.84088 0.99494,-1.21234 0.3714,-0.3714 0.77545,-0.70306 1.21228,-0.99487 0.43677,-0.29181 0.89777,-0.53827 1.38306,-0.73926 0.48529,-0.20105 0.98553,-0.35284 1.50073,-0.45532 C 650.95435,-899.94873 651.47467,-900 652,-900 Z"
       style="fill:#ffffff;fill-opacity:1;fill-rule:nonzero;stroke:#000000;stroke-width:1;stroke-linecap:butt;stroke-linejoin:miter;stroke-miterlimit:10;stroke-dasharray:none;stroke-opacity:1"
       transform="matrix(0.95021922,0,0,0.95021922,-376.65346,857.14755)"
       clip-path="url(#clipPath8)" />
    <text
       id="text8"
       xml:space="preserve"
       transform="matrix(0.95021922,0,0,0.95021922,289.74719,16.678682)"
       clip-path="url(#clipPath9)"><tspan
         id="tspan8"
         style="font-variant:normal;font-weight:normal;font-size:16px;font-family:Arial;writing-mode:lr-tb;fill:#000000;fill-opacity:1;fill-rule:nonzero;stroke:none"
         x="0"
         y="0">«part»</tspan></text>
    <text
       id="text9"
       xml:space="preserve"
       transform="matrix(0.95021922,0,0,0.95021922,269.4808,35.683066)"
       clip-path="url(#clipPath10)"><tspan
         id="tspan9"
         style="font-variant:normal;font-weight:normal;font-size:16px;font-family:Arial;writing-mode:lr-tb;fill:#000000;fill-opacity:1;fill-rule:nonzero;stroke:none"
         x="0"
         y="0">part2 : Part2</tspan></text>
    <path
       id="path11"
       d="m 560,-880 h 81.76001"
       style="fill:none;stroke:#000000;stroke-width:1;stroke-linecap:butt;stroke-linejoin:miter;stroke-miterlimit:10;stroke-dasharray:none;stroke-opacity:1"
       transform="matrix(0.95021922,0,0,0.95021922,-376.65346,857.14755)"
       clip-path="url(#clipPath12)" />
    <path
       id="path13"
       d="m 633.88,-875.5 9,-4.5 -9,-4.5"
       style="fill:none;stroke:#000000;stroke-width:1;stroke-linecap:butt;stroke-linejoin:miter;stroke-miterlimit:10;stroke-dasharray:none;stroke-opacity:1"
       transform="matrix(0.95021922,0,0,0.95021922,-376.65346,857.14755)"
       clip-path="url(#clipPath14)" />
    <path
       id="path15"
       d="m 574,-896 h 55 v 15 h -55 z"
       style="fill:#ffffff;fill-opacity:1;fill-rule:nonzero;stroke:none"
       transform="matrix(0.95021922,0,0,0.95021922,-377.12854,856.67248)"
       clip-path="url(#clipPath16)" />
    <path
       id="path17"
       d="m 574,-896 h 55 v 14 h -55 z"
       style="fill:#f8f9fa;fill-opacity:1;fill-rule:nonzero;stroke:none"
       transform="matrix(0.95021922,0,0,0.95021922,-377.12854,856.67248)"
       clip-path="url(#clipPath18)" />
    <text
       id="text18"
       xml:space="preserve"
       transform="matrix(0.95021922,0,0,0.95021922,168.43093,15.728463)"
       clip-path="url(#clipPath19)"><tspan
         id="tspan18"
         style="font-variant:normal;font-weight:normal;font-size:12px;font-family:Arial;writing-mode:lr-tb;fill:#000000;fill-opacity:1;fill-rule:nonzero;stroke:none"
         x="0"
         y="0">«allocate»</tspan></text>
    <path
       id="path20"
       d="m 408,-800 h 144 c 0.52521,6e-5 1.04547,0.0513 1.56067,0.15381 0.5152,0.10248 1.01544,0.25427 1.50073,0.45532 0.48529,0.20099 0.94635,0.44745 1.38306,0.73926 0.43677,0.29181 0.84088,0.62341 1.21234,0.99481 0.3714,0.3714 0.70306,0.77551 0.99493,1.21234 0.29181,0.43671 0.53821,0.89777 0.73926,1.38312 0.20099,0.48529 0.35272,0.98547 0.45526,1.50067 0.10248,0.5152 0.15375,1.0354 0.15375,1.56067 v 24 c 0,0.52533 -0.0513,1.04553 -0.15375,1.56073 -0.10254,0.51526 -0.25427,1.01556 -0.45526,1.50085 -0.20105,0.48529 -0.44745,0.94635 -0.73926,1.38306 -0.29187,0.43671 -0.62353,0.84082 -0.99493,1.21228 -0.37146,0.37146 -0.77557,0.70313 -1.21234,0.99494 -0.43671,0.2918 -0.89777,0.5382 -1.38306,0.73919 -0.48529,0.20099 -0.98553,0.35279 -1.50073,0.45526 C 553.04547,-760.05121 552.52521,-760 552,-760 H 408 c -0.5253,0 -1.04556,-0.0512 -1.56079,-0.15369 -0.5152,-0.10247 -1.01544,-0.25421 -1.50073,-0.4552 -0.48529,-0.20099 -0.94632,-0.44745 -1.38306,-0.73925 -0.4368,-0.29181 -0.84088,-0.62348 -1.21231,-0.99494 -0.37143,-0.37146 -0.7031,-0.77557 -0.99493,-1.21228 -0.29184,-0.43671 -0.53827,-0.89777 -0.73929,-1.38306 -0.20102,-0.48529 -0.35276,-0.98559 -0.4552,-1.50079 -0.10248,-0.5152 -0.15372,-1.03546 -0.15369,-1.56079 v -24 c -3e-5,-0.52527 0.0512,-1.04547 0.15369,-1.56067 0.10244,-0.5152 0.25418,-1.01538 0.4552,-1.50067 0.20102,-0.48535 0.44745,-0.94641 0.73929,-1.38312 0.29183,-0.43683 0.6235,-0.84094 0.99493,-1.21234 0.37143,-0.3714 0.77551,-0.703 1.21228,-0.99481 0.43677,-0.29181 0.8978,-0.53827 1.38309,-0.73932 0.48529,-0.20099 0.98553,-0.35278 1.50073,-0.45526 0.51523,-0.10248 1.03549,-0.15375 1.56079,-0.15381 z"
       style="fill:#ffffff;fill-opacity:1;fill-rule:nonzero;stroke:#000000;stroke-width:1;stroke-linecap:butt;stroke-linejoin:miter;stroke-miterlimit:10;stroke-dasharray:none;stroke-opacity:1"
       transform="matrix(0.95021922,0,0,0.95021922,-376.65346,857.14755)"
       clip-path="url(#clipPath21)" />
    <text
       id="text21"
       xml:space="preserve"
       transform="matrix(0.95021922,0,0,0.95021922,50.707668,111.7006)"
       clip-path="url(#clipPath22)"><tspan
         id="tspan21"
         style="font-variant:normal;font-weight:normal;font-size:16px;font-family:Arial;writing-mode:lr-tb;fill:#000000;fill-opacity:1;fill-rule:nonzero;stroke:none"
         x="0"
         y="0">«action»</tspan></text>
    <text
       id="text22"
       xml:space="preserve"
       transform="matrix(0.95021922,0,0,0.95021922,54.939118,130.70499)"
       clip-path="url(#clipPath23)"><tspan
         id="tspan22"
         style="font-variant:normal;font-weight:normal;font-size:16px;font-family:Arial;writing-mode:lr-tb;fill:#000000;fill-opacity:1;fill-rule:nonzero;stroke:none"
         x="0"
         y="0">action1</tspan></text>
    <path
       id="path24"
       d="m 652,-800 h 144 c 0.52533,6e-5 1.04553,0.0513 1.56073,0.15381 0.5152,0.10248 1.01544,0.25427 1.50073,0.45532 0.48529,0.20099 0.94629,0.44745 1.38306,0.73926 0.43671,0.29181 0.84082,0.62341 1.21234,0.99481 0.3714,0.3714 0.70306,0.77551 0.99493,1.21234 0.29181,0.43671 0.53821,0.89777 0.73926,1.38312 0.20099,0.48529 0.35272,0.98547 0.4552,1.50067 0.10248,0.5152 0.15369,1.0354 0.15375,1.56067 v 24 c -6e-5,0.52533 -0.0513,1.04553 -0.15375,1.56073 -0.10248,0.51526 -0.25421,1.01556 -0.4552,1.50085 -0.20105,0.48529 -0.44745,0.94635 -0.73926,1.38306 -0.29187,0.43671 -0.62353,0.84082 -0.99493,1.21228 -0.37152,0.37146 -0.77563,0.70313 -1.21234,0.99494 -0.43677,0.2918 -0.89777,0.5382 -1.38306,0.73919 -0.48529,0.20099 -0.98559,0.35279 -1.50079,0.45526 C 797.04553,-760.05121 796.52533,-760 796,-760 H 652 c -0.52533,0 -1.04565,-0.0512 -1.56085,-0.15369 -0.5152,-0.10247 -1.01544,-0.25421 -1.50073,-0.4552 -0.48529,-0.20099 -0.94629,-0.44745 -1.38306,-0.73925 -0.43683,-0.29181 -0.84088,-0.62348 -1.21228,-0.99494 -0.3714,-0.37146 -0.70307,-0.77557 -0.99494,-1.21228 -0.2918,-0.43671 -0.53826,-0.89777 -0.73925,-1.38306 -0.20099,-0.48529 -0.35273,-0.98559 -0.4552,-1.50079 C 644.05121,-766.95441 644,-767.47467 644,-768 v -24 c 0,-0.52527 0.0512,-1.04547 0.15369,-1.56067 0.10247,-0.5152 0.25421,-1.01538 0.4552,-1.50067 0.20099,-0.48535 0.44745,-0.94641 0.73925,-1.38312 0.29187,-0.43683 0.62354,-0.84094 0.99494,-1.21234 0.3714,-0.3714 0.77545,-0.703 1.21228,-0.99481 0.43677,-0.29181 0.89777,-0.53827 1.38306,-0.73932 0.48529,-0.20099 0.98553,-0.35278 1.50073,-0.45526 0.5152,-0.10248 1.03552,-0.15375 1.56085,-0.15381 z"
       style="fill:#ffffff;fill-opacity:1;fill-rule:nonzero;stroke:#000000;stroke-width:1;stroke-linecap:butt;stroke-linejoin:miter;stroke-miterlimit:10;stroke-dasharray:none;stroke-opacity:1"
       transform="matrix(0.95021922,0,0,0.95021922,-376.65346,857.14755)"
       clip-path="url(#clipPath25)" />
    <text
       id="text25"
       xml:space="preserve"
       transform="matrix(0.95021922,0,0,0.95021922,282.56116,111.7006)"
       clip-path="url(#clipPath26)"><tspan
         id="tspan25"
         style="font-variant:normal;font-weight:normal;font-size:16px;font-family:Arial;writing-mode:lr-tb;fill:#000000;fill-opacity:1;fill-rule:nonzero;stroke:none"
         x="0"
         y="0">«action»</tspan></text>
    <text
       id="text26"
       xml:space="preserve"
       transform="matrix(0.95021922,0,0,0.95021922,286.79261,130.70499)"
       clip-path="url(#clipPath27)"><tspan
         id="tspan26"
         style="font-variant:normal;font-weight:normal;font-size:16px;font-family:Arial;writing-mode:lr-tb;fill:#000000;fill-opacity:1;fill-rule:nonzero;stroke:none"
         x="0"
         y="0">action2</tspan></text>
    <path
       id="path28"
       d="m 480,-860 v 57.76001"
       style="fill:none;stroke:#000000;stroke-width:1;stroke-linecap:butt;stroke-linejoin:miter;stroke-miterlimit:10;stroke-dasharray:none;stroke-opacity:1"
       transform="matrix(0.95021922,0,0,0.95021922,-376.65346,857.14755)"
       clip-path="url(#clipPath29)" />
    <path
       id="path30"
       d="m 475.5,-810.12 4.5,9 4.5,-9"
       style="fill:none;stroke:#000000;stroke-width:1;stroke-linecap:butt;stroke-linejoin:miter;stroke-miterlimit:10;stroke-dasharray:none;stroke-opacity:1"
       transform="matrix(0.95021922,0,0,0.95021922,-376.65346,857.14755)"
       clip-path="url(#clipPath31)" />
    <text
       id="text31"
       xml:space="preserve"
       transform="matrix(0.95021922,0,0,0.95021922,24.012447,62.289205)"
       clip-path="url(#clipPath32)"><tspan
         id="tspan31"
         style="font-variant:normal;font-weight:normal;font-size:12px;font-family:Arial;writing-mode:lr-tb;fill:#000000;fill-opacity:1;fill-rule:nonzero;stroke:none"
         x="0"
         y="0">«perform»</tspan></text>
    <path
       id="path33"
       d="m 724,-860 v 57.76001"
       style="fill:none;stroke:#000000;stroke-width:1;stroke-linecap:butt;stroke-linejoin:miter;stroke-miterlimit:10;stroke-dasharray:none;stroke-opacity:1"
       transform="matrix(0.95021922,0,0,0.95021922,-376.65346,857.14755)"
       clip-path="url(#clipPath34)" />
    <path
       id="path35"
       d="m 719.5,-810.12 4.5,9 4.5,-9"
       style="fill:none;stroke:#000000;stroke-width:1;stroke-linecap:butt;stroke-linejoin:miter;stroke-miterlimit:10;stroke-dasharray:none;stroke-opacity:1"
       transform="matrix(0.95021922,0,0,0.95021922,-376.65346,857.14755)"
       clip-path="url(#clipPath36)" />
    <text
       id="text36"
       xml:space="preserve"
       transform="matrix(0.95021922,0,0,0.95021922,313.82931,63.239424)"
       clip-path="url(#clipPath37)"><tspan
         id="tspan36"
         style="font-variant:normal;font-weight:normal;font-size:12px;font-family:Arial;writing-mode:lr-tb;fill:#000000;fill-opacity:1;fill-rule:nonzero;stroke:none"
         x="0"
         y="0">«perform»</tspan></text>
    <path
       id="path38"
       d="M 480,-830 H 721.76001"
       style="fill:none;stroke:#000000;stroke-width:1;stroke-linecap:butt;stroke-linejoin:miter;stroke-miterlimit:10;stroke-dasharray:none;stroke-opacity:1"
       transform="matrix(0.95021922,0,0,0.95021922,-376.65346,857.14755)"
       clip-path="url(#clipPath39)" />
    <path
       id="path40"
       d="m 713.88,-825.5 9,-4.5 -9,-4.5"
       style="fill:none;stroke:#000000;stroke-width:1;stroke-linecap:butt;stroke-linejoin:miter;stroke-miterlimit:10;stroke-dasharray:none;stroke-opacity:1"
       transform="matrix(0.95021922,0,0,0.95021922,-376.65346,857.14755)"
       clip-path="url(#clipPath41)" />
    <path
       id="path42"
       d="m 569,-826 h 55 v 15 h -55 z"
       style="fill:#ffffff;fill-opacity:1;fill-rule:nonzero;stroke:none"
       transform="matrix(0.95021922,0,0,0.95021922,-377.12854,856.67248)"
       clip-path="url(#clipPath43)" />
    <path
       id="path44"
       d="m 569,-826 h 55 v 14 h -55 z"
       style="fill:#f8f9fa;fill-opacity:1;fill-rule:nonzero;stroke:none"
       transform="matrix(0.95021922,0,0,0.95021922,-377.12854,856.67248)"
       clip-path="url(#clipPath45)" />
    <text
       id="text45"
       xml:space="preserve"
       transform="matrix(0.95021922,0,0,0.95021922,163.67983,82.243808)"
       clip-path="url(#clipPath46)"><tspan
         id="tspan45"
         style="font-variant:normal;font-weight:normal;font-size:12px;font-family:Arial;writing-mode:lr-tb;fill:#000000;fill-opacity:1;fill-rule:nonzero;stroke:none"
         x="0"
         y="0">«allocate»</tspan></text>
    <path
       id="path47"
       d="M 601.79999,-868.01001 602,-830"
       style="fill:none;stroke:#000000;stroke-width:1;stroke-linecap:butt;stroke-linejoin:miter;stroke-miterlimit:10;stroke-dasharray:none;stroke-opacity:1"
       transform="matrix(0.95021922,0,0,0.95021922,-376.65346,857.14755)"
       clip-path="url(#clipPath48)" />
    <path
       id="path49"
       d="m 601.75,-879.01001 3.26001,5.47998 -3.21002,5.52002 -3.26001,-5.48999 z"
       style="fill:#000000;fill-opacity:1;fill-rule:nonzero;stroke:#000000;stroke-width:1;stroke-linecap:butt;stroke-linejoin:miter;stroke-miterlimit:10;stroke-dasharray:none;stroke-opacity:1"
       transform="matrix(0.95021922,0,0,0.95021922,-376.65346,857.14755)"
       clip-path="url(#clipPath50)" />
  </g>
</svg>
