<?xml version="1.0" encoding="UTF-8" standalone="no"?>
<!-- Created with Inkscape (http://www.inkscape.org/) -->

<svg
   version="1.1"
   id="svg1"
   width="214.71999"
   height="40"
   viewBox="0 0 214.71999 40"
   xmlns="http://www.w3.org/2000/svg"
   xmlns:svg="http://www.w3.org/2000/svg">
  <defs
     id="defs1">
    <clipPath
       clipPathUnits="userSpaceOnUse"
       id="clipPath2">
      <path
         d="M 0,0 H 668.99414 V 125.97656 H 0 Z"
         transform="scale(0.31999999)"
         clip-rule="evenodd"
         id="path2" />
    </clipPath>
    <clipPath
       clipPathUnits="userSpaceOnUse"
       id="clipPath4">
      <path
         d="m 3.125,0 h 662.5 V 125.97656 H 3.125 Z"
         transform="matrix(0.33867703,0,0,0.33867703,536.86427,-199.99999)"
         clip-rule="evenodd"
         id="path4" />
    </clipPath>
    <clipPath
       clipPathUnits="userSpaceOnUse"
       id="clipPath5">
      <path
         d="m 3.125,0 h 662.5 V 125.97656 H 3.125 Z"
         transform="matrix(0.33867703,0,0,0.33867703,-70.432615,-16.499991)"
         clip-rule="evenodd"
         id="path5" />
    </clipPath>
    <clipPath
       clipPathUnits="userSpaceOnUse"
       id="clipPath6">
      <path
         d="m 3.125,0 h 662.5 V 125.97656 H 3.125 Z"
         transform="matrix(0.33867703,0,0,0.33867703,-17.073235,-36.499991)"
         clip-rule="evenodd"
         id="path6" />
    </clipPath>
  </defs>
  <g
     id="g1">
    <path
       id="path1"
       d="M 0,0 H 214 V 40 H 0 Z"
       style="fill:#ffffff;fill-opacity:1;fill-rule:nonzero;stroke:none"
       clip-path="url(#clipPath2)" />
    <path
       id="path3"
       d="m 548,-199 h 204 c 0.52527,0 1.04547,0.0512 1.56061,0.15373 0.5152,0.1025 1.01544,0.25424 1.50073,0.45526 0.48529,0.20102 0.94635,0.44745 1.38306,0.73929 0.43683,0.29183 0.841,0.62346 1.2124,0.99489 0.3714,0.37144 0.703,0.77554 0.99481,1.21233 0.29181,0.43675 0.53827,0.89776 0.73932,1.38307 0.20105,0.48529 0.35284,0.98553 0.45532,1.50073 0.10248,0.51518 0.15369,1.03542 0.15375,1.5607 v 24 c -6e-5,0.52528 -0.0513,1.04553 -0.15381,1.56072 -0.10248,0.51521 -0.25421,1.01545 -0.45526,1.50074 -0.20105,0.48531 -0.44751,0.94635 -0.73932,1.3831 -0.29181,0.43677 -0.62341,0.84087 -0.99481,1.2123 -0.3714,0.37145 -0.77557,0.70308 -1.2124,0.9949 -0.43671,0.29184 -0.89777,0.53827 -1.38306,0.73929 -0.48529,0.20101 -0.98553,0.35276 -1.50073,0.45525 -0.51514,0.10246 -1.03534,0.15369 -1.56061,0.1537 H 548 c -0.52533,-1e-5 -1.04559,-0.0512 -1.56079,-0.1537 -0.5152,-0.10249 -1.0155,-0.25424 -1.50079,-0.45525 -0.48529,-0.20102 -0.94635,-0.44745 -1.38306,-0.73929 -0.43671,-0.29182 -0.84082,-0.62345 -1.21228,-0.9949 -0.3714,-0.37143 -0.70307,-0.77553 -0.99494,-1.2123 -0.2918,-0.43675 -0.53826,-0.89779 -0.73925,-1.3831 -0.20099,-0.48529 -0.35273,-0.98553 -0.4552,-1.50074 C 540.05121,-165.95447 540,-166.47472 540,-167 v -24 c 0,-0.52528 0.0512,-1.04552 0.15369,-1.5607 0.10247,-0.5152 0.25421,-1.01544 0.4552,-1.50075 0.20099,-0.48529 0.44745,-0.94632 0.73925,-1.38308 0.29187,-0.43676 0.62354,-0.84086 0.99494,-1.2123 0.37146,-0.37143 0.77557,-0.70306 1.21228,-0.99489 0.43671,-0.29184 0.89777,-0.53827 1.38306,-0.73929 0.48529,-0.20102 0.98559,-0.35276 1.50079,-0.45526 C 546.95441,-198.94876 547.47467,-199 548,-199 Z"
       style="fill:#ffffff;fill-opacity:1;fill-rule:nonzero;stroke:#000000;stroke-width:1;stroke-linecap:butt;stroke-linejoin:miter;stroke-miterlimit:10;stroke-dasharray:none;stroke-opacity:1"
       transform="matrix(0.94485295,0,0,0.94485295,-507.25779,188.97058)"
       clip-path="url(#clipPath4)" />
    <text
       id="text4"
       xml:space="preserve"
       transform="matrix(0.94485295,0,0,0.94485295,66.548464,15.590065)"
       clip-path="url(#clipPath5)"><tspan
         id="tspan4"
         style="font-variant:normal;font-weight:normal;font-size:16px;font-family:Arial;writing-mode:lr-tb;fill:#000000;fill-opacity:1;fill-rule:nonzero;stroke:none"
         x="0"
         y="0">«allocation»</tspan></text>
    <text
       id="text5"
       xml:space="preserve"
       transform="matrix(0.94485295,0,0,0.94485295,16.131696,34.487124)"
       clip-path="url(#clipPath6)"><tspan
         id="tspan5"
         style="font-variant:normal;font-weight:normal;font-size:16px;font-family:Arial;writing-mode:lr-tb;fill:#000000;fill-opacity:1;fill-rule:nonzero;stroke:none"
         x="0"
         dx="0 0 0 0 0 0 0 0 0 0 0 0 0 0 -0.88281214"
         y="0">allocation1 : AllocationDef1</tspan></text>
  </g>
</svg>
