<?xml version="1.0" encoding="UTF-8" standalone="no"?>
<!-- Created with Inkscape (http://www.inkscape.org/) -->

<svg
   version="1.1"
   id="svg1"
   width="392"
   height="137.28"
   viewBox="0 0 392 137.28"
   xmlns="http://www.w3.org/2000/svg"
   xmlns:svg="http://www.w3.org/2000/svg">
  <defs
     id="defs1">
    <clipPath
       clipPathUnits="userSpaceOnUse"
       id="clipPath2">
      <path
         d="M 0,0 H 1226 V 429.00391 H 0 Z"
         transform="scale(0.31999999)"
         clip-rule="evenodd"
         id="path2" />
    </clipPath>
    <clipPath
       clipPathUnits="userSpaceOnUse"
       id="clipPath4">
      <path
         d="M 3.125,0 H 1225 V 428.125 H 3.125 Z"
         transform="matrix(0.33676438,0,0,0.33676438,395.88433,-902.05242)"
         clip-rule="evenodd"
         id="path4" />
    </clipPath>
    <clipPath
       clipPathUnits="userSpaceOnUse"
       id="clipPath5">
      <path
         d="M 3.125,0 H 1225 V 428.125 H 3.125 Z"
         transform="matrix(0.33676438,0,0,0.33676438,-60.428205,-17.552457)"
         clip-rule="evenodd"
         id="path5" />
    </clipPath>
    <clipPath
       clipPathUnits="userSpaceOnUse"
       id="clipPath6">
      <path
         d="M 3.125,0 H 1225 V 428.125 H 3.125 Z"
         transform="matrix(0.33676438,0,0,0.33676438,-39.100085,-37.552457)"
         clip-rule="evenodd"
         id="path6" />
    </clipPath>
    <clipPath
       clipPathUnits="userSpaceOnUse"
       id="clipPath8">
      <path
         d="M 3.125,0 H 1225 V 428.125 H 3.125 Z"
         transform="matrix(0.33676438,0,0,0.33676438,395.88433,-902.05242)"
         clip-rule="evenodd"
         id="path8" />
    </clipPath>
    <clipPath
       clipPathUnits="userSpaceOnUse"
       id="clipPath9">
      <path
         d="M 3.125,0 H 1225 V 428.125 H 3.125 Z"
         transform="matrix(0.33676438,0,0,0.33676438,-307.42821,-17.552457)"
         clip-rule="evenodd"
         id="path9" />
    </clipPath>
    <clipPath
       clipPathUnits="userSpaceOnUse"
       id="clipPath10">
      <path
         d="M 3.125,0 H 1225 V 428.125 H 3.125 Z"
         transform="matrix(0.33676438,0,0,0.33676438,-286.10009,-37.552457)"
         clip-rule="evenodd"
         id="path10" />
    </clipPath>
    <clipPath
       clipPathUnits="userSpaceOnUse"
       id="clipPath12">
      <path
         d="M 3.125,0 H 1225 V 428.125 H 3.125 Z"
         transform="matrix(0.33676438,0,0,0.33676438,395.88433,-902.05242)"
         clip-rule="evenodd"
         id="path12" />
    </clipPath>
    <clipPath
       clipPathUnits="userSpaceOnUse"
       id="clipPath14">
      <path
         d="M 3.125,0 H 1225 V 428.125 H 3.125 Z"
         transform="matrix(0.33676438,0,0,0.33676438,395.88433,-902.05242)"
         clip-rule="evenodd"
         id="path14" />
    </clipPath>
    <clipPath
       clipPathUnits="userSpaceOnUse"
       id="clipPath16">
      <path
         d="M 3.125,0 H 1225 V 428.125 H 3.125 Z"
         transform="matrix(0.33676438,0,0,0.33676438,396.3843,-901.55246)"
         clip-rule="evenodd"
         id="path16" />
    </clipPath>
    <clipPath
       clipPathUnits="userSpaceOnUse"
       id="clipPath18">
      <path
         d="M 3.125,0 H 1225 V 428.125 H 3.125 Z"
         transform="matrix(0.33676438,0,0,0.33676438,396.3843,-901.55246)"
         clip-rule="evenodd"
         id="path18" />
    </clipPath>
    <clipPath
       clipPathUnits="userSpaceOnUse"
       id="clipPath19">
      <path
         d="M 3.125,0 H 1225 V 428.125 H 3.125 Z"
         transform="matrix(0.33676438,0,0,0.33676438,-177.75634,-16.552457)"
         clip-rule="evenodd"
         id="path19" />
    </clipPath>
    <clipPath
       clipPathUnits="userSpaceOnUse"
       id="clipPath21">
      <path
         d="M 3.125,0 H 1225 V 428.125 H 3.125 Z"
         transform="matrix(0.33676438,0,0,0.33676438,395.88433,-902.05242)"
         clip-rule="evenodd"
         id="path21" />
    </clipPath>
    <clipPath
       clipPathUnits="userSpaceOnUse"
       id="clipPath22">
      <path
         d="M 3.125,0 H 1225 V 428.125 H 3.125 Z"
         transform="matrix(0.33676438,0,0,0.33676438,-57.865705,-117.55245)"
         clip-rule="evenodd"
         id="path22" />
    </clipPath>
    <clipPath
       clipPathUnits="userSpaceOnUse"
       id="clipPath23">
      <path
         d="M 3.125,0 H 1225 V 428.125 H 3.125 Z"
         transform="matrix(0.33676438,0,0,0.33676438,-64.084455,-137.55246)"
         clip-rule="evenodd"
         id="path23" />
    </clipPath>
    <clipPath
       clipPathUnits="userSpaceOnUse"
       id="clipPath25">
      <path
         d="M 3.125,0 H 1225 V 428.125 H 3.125 Z"
         transform="matrix(0.33676438,0,0,0.33676438,395.88433,-902.05242)"
         clip-rule="evenodd"
         id="path25" />
    </clipPath>
    <clipPath
       clipPathUnits="userSpaceOnUse"
       id="clipPath26">
      <path
         d="M 3.125,0 H 1225 V 428.125 H 3.125 Z"
         transform="matrix(0.33676438,0,0,0.33676438,-299.86571,-117.55245)"
         clip-rule="evenodd"
         id="path26" />
    </clipPath>
    <clipPath
       clipPathUnits="userSpaceOnUse"
       id="clipPath27">
      <path
         d="M 3.125,0 H 1225 V 428.125 H 3.125 Z"
         transform="matrix(0.33676438,0,0,0.33676438,-304.31884,-137.55246)"
         clip-rule="evenodd"
         id="path27" />
    </clipPath>
    <clipPath
       clipPathUnits="userSpaceOnUse"
       id="clipPath29">
      <path
         d="M 3.125,0 H 1225 V 428.125 H 3.125 Z"
         transform="matrix(0.33676438,0,0,0.33676438,395.88433,-902.05242)"
         clip-rule="evenodd"
         id="path29" />
    </clipPath>
    <clipPath
       clipPathUnits="userSpaceOnUse"
       id="clipPath31">
      <path
         d="M 3.125,0 H 1225 V 428.125 H 3.125 Z"
         transform="matrix(0.33676438,0,0,0.33676438,395.88433,-902.05242)"
         clip-rule="evenodd"
         id="path31" />
    </clipPath>
    <clipPath
       clipPathUnits="userSpaceOnUse"
       id="clipPath32">
      <path
         d="M 3.125,0 H 1225 V 428.125 H 3.125 Z"
         transform="matrix(0.33676438,0,0,0.33676438,-25.771955,-65.552457)"
         clip-rule="evenodd"
         id="path32" />
    </clipPath>
    <clipPath
       clipPathUnits="userSpaceOnUse"
       id="clipPath34">
      <path
         d="M 3.125,0 H 1225 V 428.125 H 3.125 Z"
         transform="matrix(0.33676438,0,0,0.33676438,395.88433,-902.05242)"
         clip-rule="evenodd"
         id="path34" />
    </clipPath>
    <clipPath
       clipPathUnits="userSpaceOnUse"
       id="clipPath36">
      <path
         d="M 3.125,0 H 1225 V 428.125 H 3.125 Z"
         transform="matrix(0.33676438,0,0,0.33676438,395.88433,-902.05242)"
         clip-rule="evenodd"
         id="path36" />
    </clipPath>
    <clipPath
       clipPathUnits="userSpaceOnUse"
       id="clipPath37">
      <path
         d="M 3.125,0 H 1225 V 428.125 H 3.125 Z"
         transform="matrix(0.33676438,0,0,0.33676438,-331.77196,-66.552457)"
         clip-rule="evenodd"
         id="path37" />
    </clipPath>
    <clipPath
       clipPathUnits="userSpaceOnUse"
       id="clipPath39">
      <path
         d="M 3.125,0 H 1225 V 428.125 H 3.125 Z"
         transform="matrix(0.33676438,0,0,0.33676438,395.88433,-902.05242)"
         clip-rule="evenodd"
         id="path39" />
    </clipPath>
    <clipPath
       clipPathUnits="userSpaceOnUse"
       id="clipPath41">
      <path
         d="M 3.125,0 H 1225 V 428.125 H 3.125 Z"
         transform="matrix(0.33676438,0,0,0.33676438,395.88433,-902.05242)"
         clip-rule="evenodd"
         id="path41" />
    </clipPath>
    <clipPath
       clipPathUnits="userSpaceOnUse"
       id="clipPath43">
      <path
         d="M 3.125,0 H 1225 V 428.125 H 3.125 Z"
         transform="matrix(0.33676438,0,0,0.33676438,396.3843,-901.55246)"
         clip-rule="evenodd"
         id="path43" />
    </clipPath>
    <clipPath
       clipPathUnits="userSpaceOnUse"
       id="clipPath45">
      <path
         d="M 3.125,0 H 1225 V 428.125 H 3.125 Z"
         transform="matrix(0.33676438,0,0,0.33676438,396.3843,-901.55246)"
         clip-rule="evenodd"
         id="path45" />
    </clipPath>
    <clipPath
       clipPathUnits="userSpaceOnUse"
       id="clipPath46">
      <path
         d="M 3.125,0 H 1225 V 428.125 H 3.125 Z"
         transform="matrix(0.33676438,0,0,0.33676438,-176.75634,-86.552457)"
         clip-rule="evenodd"
         id="path46" />
    </clipPath>
    <clipPath
       clipPathUnits="userSpaceOnUse"
       id="clipPath48">
      <path
         d="M 3.125,0 H 1225 V 428.125 H 3.125 Z"
         transform="matrix(0.33676438,0,0,0.33676438,395.88433,-902.05242)"
         clip-rule="evenodd"
         id="path48" />
    </clipPath>
    <clipPath
       clipPathUnits="userSpaceOnUse"
       id="clipPath50">
      <path
         d="M 3.125,0 H 1225 V 428.125 H 3.125 Z"
         transform="matrix(0.33676438,0,0,0.33676438,395.88433,-902.05242)"
         clip-rule="evenodd"
         id="path50" />
    </clipPath>
  </defs>
  <g
     id="g1">
    <path
       id="path1"
       d="M 0,0 H 393 V 137 H 0 Z"
       style="fill:#ffffff;fill-opacity:1;fill-rule:nonzero;stroke:none"
       clip-path="url(#clipPath2)" />
    <path
       id="path3"
       d="m 407,-900 h 144 c 0.52527,0 1.04553,0.0513 1.56073,0.15375 0.51514,0.10248 1.01538,0.25427 1.50067,0.45532 0.48529,0.20099 0.94635,0.44745 1.38312,0.73926 0.43671,0.29181 0.84082,0.62347 1.21228,0.99487 0.3714,0.37146 0.70306,0.77557 0.99493,1.21234 0.29181,0.43677 0.53821,0.89783 0.73926,1.38312 0.20099,0.48529 0.35278,0.98553 0.45526,1.50073 C 558.94873,-893.04547 559,-892.52527 559,-892 v 24 c 0,0.52533 -0.0513,1.04559 -0.15375,1.56079 -0.10248,0.5152 -0.25427,1.0155 -0.45526,1.50079 -0.20105,0.48529 -0.44751,0.94635 -0.73932,1.38312 -0.29181,0.43677 -0.62347,0.84082 -0.99487,1.21222 -0.37146,0.3714 -0.77557,0.70307 -1.21228,0.99494 -0.43677,0.2918 -0.89783,0.53826 -1.38312,0.73925 -0.48529,0.20099 -0.98553,0.35273 -1.50067,0.4552 C 552.04553,-860.05121 551.52527,-860 551,-860 H 407 c -0.5253,0 -1.04553,-0.0512 -1.56073,-0.15369 -0.51523,-0.10247 -1.01547,-0.25415 -1.50076,-0.45514 -0.48532,-0.20098 -0.94635,-0.44744 -1.38309,-0.73931 -0.43677,-0.29187 -0.84085,-0.62354 -1.21228,-0.99494 -0.37143,-0.3714 -0.70309,-0.77545 -0.99493,-1.21222 -0.29184,-0.43677 -0.53827,-0.89783 -0.73929,-1.38312 -0.20102,-0.48529 -0.35276,-0.98559 -0.45523,-1.50079 C 399.05124,-866.95441 399,-867.47467 399,-868 v -24 c 0,-0.52527 0.0512,-1.04547 0.15369,-1.56061 0.10247,-0.5152 0.25421,-1.01544 0.45523,-1.50073 0.20102,-0.48529 0.44745,-0.94635 0.73929,-1.38312 0.29184,-0.43677 0.6235,-0.84088 0.99493,-1.21234 0.37143,-0.3714 0.77551,-0.70306 1.21228,-0.99487 0.43674,-0.29181 0.89774,-0.53827 1.38306,-0.73926 0.48532,-0.20105 0.98556,-0.35284 1.50079,-0.45532 C 405.95447,-899.94873 406.4747,-900 407,-900 Z"
       style="fill:#ffffff;fill-opacity:1;fill-rule:nonzero;stroke:#000000;stroke-width:1;stroke-linecap:butt;stroke-linejoin:miter;stroke-miterlimit:10;stroke-dasharray:none;stroke-opacity:1"
       transform="matrix(0.95021922,0,0,0.95021922,-376.1769,857.14755)"
       clip-path="url(#clipPath4)" />
    <text
       id="text4"
       xml:space="preserve"
       transform="matrix(0.95021922,0,0,0.95021922,57.420042,16.678682)"
       clip-path="url(#clipPath5)"><tspan
         id="tspan4"
         style="font-variant:normal;font-weight:normal;font-size:16px;font-family:Arial;writing-mode:lr-tb;fill:#000000;fill-opacity:1;fill-rule:nonzero;stroke:none"
         x="0"
         y="0">«part»</tspan></text>
    <text
       id="text5"
       xml:space="preserve"
       transform="matrix(0.95021922,0,0,0.95021922,37.153652,35.683066)"
       clip-path="url(#clipPath6)"><tspan
         id="tspan5"
         style="font-variant:normal;font-weight:normal;font-size:16px;font-family:Arial;writing-mode:lr-tb;fill:#000000;fill-opacity:1;fill-rule:nonzero;stroke:none"
         x="0"
         y="0">part1 : Part1</tspan></text>
    <path
       id="path7"
       d="m 653.65997,-900 h 144 c 0.52527,0 1.04554,0.0513 1.56073,0.15375 0.51514,0.10248 1.01538,0.25427 1.50067,0.45532 0.4853,0.20099 0.94629,0.44745 1.38306,0.73926 0.43677,0.29181 0.84088,0.62347 1.21228,0.99487 0.3714,0.37146 0.70307,0.77557 0.99494,1.21234 0.2918,0.43677 0.5382,0.89783 0.73925,1.38312 0.20099,0.48529 0.35279,0.98553 0.45526,1.50073 0.10248,0.51514 0.15375,1.03534 0.15381,1.56061 v 24 c -6e-5,0.52533 -0.0513,1.04559 -0.15387,1.56079 -0.10247,0.5152 -0.25421,1.0155 -0.4552,1.50079 -0.20105,0.48529 -0.44751,0.94635 -0.73932,1.38312 -0.2918,0.43677 -0.62347,0.84082 -0.99487,1.21222 -0.3714,0.3714 -0.77551,0.70307 -1.21222,0.99494 -0.43683,0.2918 -0.89782,0.53826 -1.38312,0.73925 -0.48529,0.20099 -0.98553,0.35273 -1.50073,0.4552 -0.5152,0.10248 -1.0354,0.15369 -1.56067,0.15369 h -144 c -0.52533,0 -1.04559,-0.0512 -1.56079,-0.15369 -0.5152,-0.10247 -1.01544,-0.25415 -1.50073,-0.45514 -0.48529,-0.20098 -0.94635,-0.44744 -1.38306,-0.73931 -0.43683,-0.29187 -0.84094,-0.62354 -1.21234,-0.99494 -0.37146,-0.3714 -0.70312,-0.77545 -0.99493,-1.21222 -0.29187,-0.43677 -0.53827,-0.89783 -0.73926,-1.38312 -0.20099,-0.48529 -0.35272,-0.98559 -0.45526,-1.50079 -0.10242,-0.5152 -0.15363,-1.03546 -0.15363,-1.56079 v -24 c 0,-0.52527 0.0512,-1.04547 0.15363,-1.56061 0.10254,-0.5152 0.25427,-1.01544 0.45526,-1.50073 0.20099,-0.48529 0.44739,-0.94635 0.73926,-1.38312 0.29181,-0.43677 0.62347,-0.84088 0.99493,-1.21234 0.3714,-0.3714 0.77551,-0.70306 1.21228,-0.99487 0.43677,-0.29181 0.89783,-0.53827 1.38312,-0.73926 0.48529,-0.20105 0.98553,-0.35284 1.50073,-0.45532 0.5152,-0.10248 1.03546,-0.15375 1.56079,-0.15375 z"
       style="fill:#ffffff;fill-opacity:1;fill-rule:nonzero;stroke:#000000;stroke-width:1;stroke-linecap:butt;stroke-linejoin:miter;stroke-miterlimit:10;stroke-dasharray:none;stroke-opacity:1"
       transform="matrix(0.95021922,0,0,0.95021922,-376.1769,857.14755)"
       clip-path="url(#clipPath8)" />
    <text
       id="text8"
       xml:space="preserve"
       transform="matrix(0.95021922,0,0,0.95021922,292.12419,16.678682)"
       clip-path="url(#clipPath9)"><tspan
         id="tspan8"
         style="font-variant:normal;font-weight:normal;font-size:16px;font-family:Arial;writing-mode:lr-tb;fill:#000000;fill-opacity:1;fill-rule:nonzero;stroke:none"
         x="0"
         y="0">«part»</tspan></text>
    <text
       id="text9"
       xml:space="preserve"
       transform="matrix(0.95021922,0,0,0.95021922,271.8578,35.683066)"
       clip-path="url(#clipPath10)"><tspan
         id="tspan9"
         style="font-variant:normal;font-weight:normal;font-size:16px;font-family:Arial;writing-mode:lr-tb;fill:#000000;fill-opacity:1;fill-rule:nonzero;stroke:none"
         x="0"
         y="0">part2 : Part2</tspan></text>
    <path
       id="path11"
       d="m 559,-880 h 84.41998"
       style="fill:none;stroke:#000000;stroke-width:1;stroke-linecap:butt;stroke-linejoin:miter;stroke-miterlimit:10;stroke-dasharray:none;stroke-opacity:1"
       transform="matrix(0.95021922,0,0,0.95021922,-376.1769,857.14755)"
       clip-path="url(#clipPath12)" />
    <path
       id="path13"
       d="m 635.53998,-875.5 9,-4.5 -9,-4.5"
       style="fill:none;stroke:#000000;stroke-width:1;stroke-linecap:butt;stroke-linejoin:miter;stroke-miterlimit:10;stroke-dasharray:none;stroke-opacity:1"
       transform="matrix(0.95021922,0,0,0.95021922,-376.1769,857.14755)"
       clip-path="url(#clipPath14)" />
    <path
       id="path15"
       d="m 574,-896 h 55 v 15 h -55 z"
       style="fill:#ffffff;fill-opacity:1;fill-rule:nonzero;stroke:none"
       transform="matrix(0.95021922,0,0,0.95021922,-376.65198,856.67248)"
       clip-path="url(#clipPath16)" />
    <path
       id="path17"
       d="m 574,-896 h 55 v 14 h -55 z"
       style="fill:#f8f9fa;fill-opacity:1;fill-rule:nonzero;stroke:none"
       transform="matrix(0.95021922,0,0,0.95021922,-376.65198,856.67248)"
       clip-path="url(#clipPath18)" />
    <text
       id="text18"
       xml:space="preserve"
       transform="matrix(0.95021922,0,0,0.95021922,168.90749,15.728463)"
       clip-path="url(#clipPath19)"><tspan
         id="tspan18"
         style="font-variant:normal;font-weight:normal;font-size:12px;font-family:Arial;writing-mode:lr-tb;fill:#000000;fill-opacity:1;fill-rule:nonzero;stroke:none"
         x="0"
         y="0">«allocate»</tspan></text>
    <path
       id="path20"
       d="m 411.91,-800 h 144.00003 c 0.52527,6e-5 1.04548,0.0513 1.56067,0.15381 0.5152,0.10248 1.01545,0.25427 1.50074,0.45532 0.48529,0.20099 0.94628,0.44745 1.38311,0.73926 0.43677,0.29181 0.84088,0.62341 1.21228,0.99481 0.3714,0.3714 0.70307,0.77551 0.99488,1.21234 0.29187,0.43671 0.53833,0.89777 0.73932,1.38312 0.20105,0.48529 0.35278,0.98547 0.45526,1.50067 0.10247,0.5152 0.15374,1.0354 0.15374,1.56067 v 24 c 0,0.52533 -0.0513,1.04553 -0.15374,1.56073 -0.10248,0.51526 -0.25421,1.01556 -0.45526,1.50085 -0.20099,0.48529 -0.44745,0.94635 -0.73932,1.38306 -0.29181,0.43671 -0.62348,0.84082 -0.99488,1.21228 -0.3714,0.37146 -0.77551,0.70313 -1.21228,0.99494 -0.43683,0.2918 -0.89782,0.5382 -1.38311,0.73919 -0.48529,0.20099 -0.98554,0.35279 -1.50074,0.45526 -0.51519,0.10248 -1.0354,0.15369 -1.56067,0.15369 H 411.91 c -0.5253,0 -1.04556,-0.0512 -1.56079,-0.15369 -0.5152,-0.10247 -1.01544,-0.25421 -1.50073,-0.4552 -0.48529,-0.20099 -0.94632,-0.44745 -1.38306,-0.73925 -0.43676,-0.29181 -0.84085,-0.62348 -1.21228,-0.99494 -0.37146,-0.37146 -0.70309,-0.77557 -0.99493,-1.21228 -0.29184,-0.43671 -0.53827,-0.89777 -0.73929,-1.38306 -0.20102,-0.48529 -0.35278,-0.98559 -0.45523,-1.50079 -0.10248,-0.5152 -0.15372,-1.03546 -0.15369,-1.56079 v -24 c -3e-5,-0.52527 0.0512,-1.04547 0.15369,-1.56067 0.10245,-0.5152 0.25421,-1.01538 0.45523,-1.50067 0.20102,-0.48535 0.44745,-0.94641 0.73929,-1.38312 0.29184,-0.43683 0.62347,-0.84094 0.99493,-1.21234 0.37143,-0.3714 0.77552,-0.703 1.21228,-0.99481 0.43674,-0.29181 0.89777,-0.53827 1.38306,-0.73932 0.48529,-0.20099 0.98553,-0.35278 1.50073,-0.45526 0.51523,-0.10248 1.03549,-0.15375 1.56079,-0.15381 z"
       style="fill:#ffffff;fill-opacity:1;fill-rule:nonzero;stroke:#000000;stroke-width:1;stroke-linecap:butt;stroke-linejoin:miter;stroke-miterlimit:10;stroke-dasharray:none;stroke-opacity:1"
       transform="matrix(0.95021922,0,0,0.95021922,-376.1769,857.14755)"
       clip-path="url(#clipPath21)" />
    <text
       id="text21"
       xml:space="preserve"
       transform="matrix(0.95021922,0,0,0.95021922,54.985105,111.7006)"
       clip-path="url(#clipPath22)"><tspan
         id="tspan21"
         style="font-variant:normal;font-weight:normal;font-size:16px;font-family:Arial;writing-mode:lr-tb;fill:#000000;fill-opacity:1;fill-rule:nonzero;stroke:none"
         x="0"
         y="0">«action»</tspan></text>
    <text
       id="text22"
       xml:space="preserve"
       transform="matrix(0.95021922,0,0,0.95021922,60.894281,130.70499)"
       clip-path="url(#clipPath23)"><tspan
         id="tspan22"
         style="font-variant:normal;font-weight:normal;font-size:16px;font-family:Arial;writing-mode:lr-tb;fill:#000000;fill-opacity:1;fill-rule:nonzero;stroke:none"
         x="0"
         y="0">acton1</tspan></text>
    <path
       id="path24"
       d="m 653.65997,-800 h 144 c 0.52527,6e-5 1.04554,0.0513 1.56073,0.15381 0.51514,0.10248 1.01538,0.25427 1.50067,0.45532 0.4853,0.20099 0.94629,0.44745 1.38306,0.73926 0.43677,0.29181 0.84088,0.62341 1.21228,0.99481 0.3714,0.3714 0.70307,0.77551 0.99494,1.21234 0.2918,0.43671 0.5382,0.89777 0.73925,1.38312 0.20099,0.48529 0.35279,0.98547 0.45526,1.50067 0.10248,0.5152 0.15375,1.0354 0.15381,1.56067 v 24 c -6e-5,0.52533 -0.0513,1.04553 -0.15387,1.56073 -0.10247,0.51526 -0.25421,1.01556 -0.4552,1.50085 -0.20105,0.48529 -0.44751,0.94635 -0.73932,1.38306 -0.2918,0.43671 -0.62347,0.84082 -0.99487,1.21228 -0.3714,0.37146 -0.77551,0.70313 -1.21222,0.99494 -0.43683,0.2918 -0.89782,0.5382 -1.38312,0.73919 -0.48529,0.20099 -0.98553,0.35279 -1.50073,0.45526 -0.5152,0.10248 -1.0354,0.15369 -1.56067,0.15369 h -144 c -0.52533,0 -1.04559,-0.0512 -1.56079,-0.15369 -0.5152,-0.10247 -1.01544,-0.25421 -1.50073,-0.4552 -0.48529,-0.20099 -0.94635,-0.44745 -1.38306,-0.73925 -0.43683,-0.29181 -0.84094,-0.62348 -1.21234,-0.99494 -0.37146,-0.37146 -0.70312,-0.77557 -0.99493,-1.21228 -0.29187,-0.43671 -0.53827,-0.89777 -0.73926,-1.38306 -0.20099,-0.48529 -0.35272,-0.98559 -0.45526,-1.50079 -0.10242,-0.5152 -0.15363,-1.03546 -0.15363,-1.56079 v -24 c 0,-0.52527 0.0512,-1.04547 0.15363,-1.56067 0.10254,-0.5152 0.25427,-1.01538 0.45526,-1.50067 0.20099,-0.48535 0.44739,-0.94641 0.73926,-1.38312 0.29181,-0.43683 0.62347,-0.84094 0.99493,-1.21234 0.3714,-0.3714 0.77551,-0.703 1.21228,-0.99481 0.43677,-0.29181 0.89783,-0.53827 1.38312,-0.73932 0.48529,-0.20099 0.98553,-0.35278 1.50073,-0.45526 0.5152,-0.10248 1.03546,-0.15375 1.56079,-0.15381 z"
       style="fill:#ffffff;fill-opacity:1;fill-rule:nonzero;stroke:#000000;stroke-width:1;stroke-linecap:butt;stroke-linejoin:miter;stroke-miterlimit:10;stroke-dasharray:none;stroke-opacity:1"
       transform="matrix(0.95021922,0,0,0.95021922,-376.1769,857.14755)"
       clip-path="url(#clipPath25)" />
    <text
       id="text25"
       xml:space="preserve"
       transform="matrix(0.95021922,0,0,0.95021922,284.93816,111.7006)"
       clip-path="url(#clipPath26)"><tspan
         id="tspan25"
         style="font-variant:normal;font-weight:normal;font-size:16px;font-family:Arial;writing-mode:lr-tb;fill:#000000;fill-opacity:1;fill-rule:nonzero;stroke:none"
         x="0"
         y="0">«action»</tspan></text>
    <text
       id="text26"
       xml:space="preserve"
       transform="matrix(0.95021922,0,0,0.95021922,289.16961,130.70499)"
       clip-path="url(#clipPath27)"><tspan
         id="tspan26"
         style="font-variant:normal;font-weight:normal;font-size:16px;font-family:Arial;writing-mode:lr-tb;fill:#000000;fill-opacity:1;fill-rule:nonzero;stroke:none"
         x="0"
         y="0">action2</tspan></text>
    <path
       id="path28"
       d="m 479.91,-860 v 57.76001"
       style="fill:none;stroke:#000000;stroke-width:1;stroke-linecap:butt;stroke-linejoin:miter;stroke-miterlimit:10;stroke-dasharray:none;stroke-opacity:1"
       transform="matrix(0.95021922,0,0,0.95021922,-376.1769,857.14755)"
       clip-path="url(#clipPath29)" />
    <path
       id="path30"
       d="m 475.41,-810.12 4.5,9 4.5,-9"
       style="fill:none;stroke:#000000;stroke-width:1;stroke-linecap:butt;stroke-linejoin:miter;stroke-miterlimit:10;stroke-dasharray:none;stroke-opacity:1"
       transform="matrix(0.95021922,0,0,0.95021922,-376.1769,857.14755)"
       clip-path="url(#clipPath31)" />
    <text
       id="text31"
       xml:space="preserve"
       transform="matrix(0.95021922,0,0,0.95021922,24.489007,62.289205)"
       clip-path="url(#clipPath32)"><tspan
         id="tspan31"
         style="font-variant:normal;font-weight:normal;font-size:12px;font-family:Arial;writing-mode:lr-tb;fill:#000000;fill-opacity:1;fill-rule:nonzero;stroke:none"
         x="0"
         y="0">«perform»</tspan></text>
    <path
       id="path33"
       d="m 725.07001,-860 v 57.76001"
       style="fill:none;stroke:#000000;stroke-width:1;stroke-linecap:butt;stroke-linejoin:miter;stroke-miterlimit:10;stroke-dasharray:none;stroke-opacity:1"
       transform="matrix(0.95021922,0,0,0.95021922,-376.1769,857.14755)"
       clip-path="url(#clipPath34)" />
    <path
       id="path35"
       d="m 720.57001,-810.12 4.5,9 4.5,-9"
       style="fill:none;stroke:#000000;stroke-width:1;stroke-linecap:butt;stroke-linejoin:miter;stroke-miterlimit:10;stroke-dasharray:none;stroke-opacity:1"
       transform="matrix(0.95021922,0,0,0.95021922,-376.1769,857.14755)"
       clip-path="url(#clipPath36)" />
    <text
       id="text36"
       xml:space="preserve"
       transform="matrix(0.95021922,0,0,0.95021922,315.25609,63.239424)"
       clip-path="url(#clipPath37)"><tspan
         id="tspan36"
         style="font-variant:normal;font-weight:normal;font-size:12px;font-family:Arial;writing-mode:lr-tb;fill:#000000;fill-opacity:1;fill-rule:nonzero;stroke:none"
         x="0"
         y="0">«perform»</tspan></text>
    <path
       id="path38"
       d="m 479.42001,-830 h 247.34"
       style="fill:none;stroke:#000000;stroke-width:1;stroke-linecap:butt;stroke-linejoin:miter;stroke-miterlimit:10;stroke-dasharray:none;stroke-opacity:1"
       transform="matrix(0.95021922,0,0,0.95021922,-376.1769,857.14755)"
       clip-path="url(#clipPath39)" />
    <path
       id="path40"
       d="m 718.88,-825.5 9,-4.5 -9,-4.5"
       style="fill:none;stroke:#000000;stroke-width:1;stroke-linecap:butt;stroke-linejoin:miter;stroke-miterlimit:10;stroke-dasharray:none;stroke-opacity:1"
       transform="matrix(0.95021922,0,0,0.95021922,-376.1769,857.14755)"
       clip-path="url(#clipPath41)" />
    <path
       id="path42"
       d="m 573,-826 h 55 v 15 h -55 z"
       style="fill:#ffffff;fill-opacity:1;fill-rule:nonzero;stroke:none"
       transform="matrix(0.95021922,0,0,0.95021922,-376.65198,856.67248)"
       clip-path="url(#clipPath43)" />
    <path
       id="path44"
       d="m 573,-826 h 55 v 14 h -55 z"
       style="fill:#f8f9fa;fill-opacity:1;fill-rule:nonzero;stroke:none"
       transform="matrix(0.95021922,0,0,0.95021922,-376.65198,856.67248)"
       clip-path="url(#clipPath45)" />
    <text
       id="text45"
       xml:space="preserve"
       transform="matrix(0.95021922,0,0,0.95021922,167.95727,82.243808)"
       clip-path="url(#clipPath46)"><tspan
         id="tspan45"
         style="font-variant:normal;font-weight:normal;font-size:12px;font-family:Arial;writing-mode:lr-tb;fill:#000000;fill-opacity:1;fill-rule:nonzero;stroke:none"
         x="0"
         y="0">«allocate»</tspan></text>
    <path
       id="path47"
       d="M 601.79999,-868.01001 602,-830"
       style="fill:none;stroke:#000000;stroke-width:1;stroke-linecap:butt;stroke-linejoin:miter;stroke-miterlimit:10;stroke-dasharray:none;stroke-opacity:1"
       transform="matrix(0.95021922,0,0,0.95021922,-376.1769,857.14755)"
       clip-path="url(#clipPath48)" />
    <path
       id="path49"
       d="m 601.75,-879.01001 3.26001,5.47998 -3.21002,5.52002 -3.26001,-5.48999 z"
       style="fill:#000000;fill-opacity:1;fill-rule:nonzero;stroke:#000000;stroke-width:1;stroke-linecap:butt;stroke-linejoin:miter;stroke-miterlimit:10;stroke-dasharray:none;stroke-opacity:1"
       transform="matrix(0.95021922,0,0,0.95021922,-376.1769,857.14755)"
       clip-path="url(#clipPath50)" />
  </g>
</svg>
