<?xml version="1.0" encoding="UTF-8" standalone="no"?>
<!-- Created with Inkscape (http://www.inkscape.org/) -->

<svg
   version="1.1"
   id="svg1"
   width="392"
   height="40"
   viewBox="0 0 392 40"
   xmlns="http://www.w3.org/2000/svg"
   xmlns:svg="http://www.w3.org/2000/svg">
  <defs
     id="defs1">
    <clipPath
       clipPathUnits="userSpaceOnUse"
       id="clipPath2">
      <path
         d="M 0,0 H 1226 V 125.97656 H 0 Z"
         transform="scale(0.31999999)"
         clip-rule="evenodd"
         id="path2" />
    </clipPath>
    <clipPath
       clipPathUnits="userSpaceOnUse"
       id="clipPath4">
      <path
         d="m 3.125,0 h 1218.75 V 125.97656 H 3.125 Z"
         transform="matrix(0.33749516,0,0,0.33749516,395.81479,-1001)"
         clip-rule="evenodd"
         id="path4" />
    </clipPath>
    <clipPath
       clipPathUnits="userSpaceOnUse"
       id="clipPath5">
      <path
         d="m 3.125,0 h 1218.75 V 125.97656 H 3.125 Z"
         transform="matrix(0.33749516,0,0,0.33749516,-60.49769,-16.500033)"
         clip-rule="evenodd"
         id="path5" />
    </clipPath>
    <clipPath
       clipPathUnits="userSpaceOnUse"
       id="clipPath6">
      <path
         d="m 3.125,0 h 1218.75 V 125.97656 H 3.125 Z"
         transform="matrix(0.33749516,0,0,0.33749516,-39.16957,-36.500033)"
         clip-rule="evenodd"
         id="path6" />
    </clipPath>
    <clipPath
       clipPathUnits="userSpaceOnUse"
       id="clipPath8">
      <path
         d="m 3.125,0 h 1218.75 V 125.97656 H 3.125 Z"
         transform="matrix(0.33749516,0,0,0.33749516,395.81479,-1001)"
         clip-rule="evenodd"
         id="path8" />
    </clipPath>
    <clipPath
       clipPathUnits="userSpaceOnUse"
       id="clipPath9">
      <path
         d="m 3.125,0 h 1218.75 V 125.97656 H 3.125 Z"
         transform="matrix(0.33749516,0,0,0.33749516,-307.49769,-16.500033)"
         clip-rule="evenodd"
         id="path9" />
    </clipPath>
    <clipPath
       clipPathUnits="userSpaceOnUse"
       id="clipPath10">
      <path
         d="m 3.125,0 h 1218.75 V 125.97656 H 3.125 Z"
         transform="matrix(0.33749516,0,0,0.33749516,-286.16957,-36.500033)"
         clip-rule="evenodd"
         id="path10" />
    </clipPath>
    <clipPath
       clipPathUnits="userSpaceOnUse"
       id="clipPath12">
      <path
         d="m 3.125,0 h 1218.75 V 125.97656 H 3.125 Z"
         transform="matrix(0.33749516,0,0,0.33749516,395.81479,-1001)"
         clip-rule="evenodd"
         id="path12" />
    </clipPath>
    <clipPath
       clipPathUnits="userSpaceOnUse"
       id="clipPath14">
      <path
         d="m 3.125,0 h 1218.75 V 125.97656 H 3.125 Z"
         transform="matrix(0.33749516,0,0,0.33749516,395.81479,-1001)"
         clip-rule="evenodd"
         id="path14" />
    </clipPath>
    <clipPath
       clipPathUnits="userSpaceOnUse"
       id="clipPath16">
      <path
         d="m 3.125,0 h 1218.75 V 125.97656 H 3.125 Z"
         transform="matrix(0.33749516,0,0,0.33749516,396.31481,-1000.5)"
         clip-rule="evenodd"
         id="path16" />
    </clipPath>
    <clipPath
       clipPathUnits="userSpaceOnUse"
       id="clipPath18">
      <path
         d="m 3.125,0 h 1218.75 V 125.97656 H 3.125 Z"
         transform="matrix(0.33749516,0,0,0.33749516,396.31481,-1000.5)"
         clip-rule="evenodd"
         id="path18" />
    </clipPath>
    <clipPath
       clipPathUnits="userSpaceOnUse"
       id="clipPath19">
      <path
         d="m 3.125,0 h 1218.75 V 125.97656 H 3.125 Z"
         transform="matrix(0.33749516,0,0,0.33749516,-177.82582,-15.500033)"
         clip-rule="evenodd"
         id="path19" />
    </clipPath>
  </defs>
  <g
     id="g1">
    <path
       id="path1"
       d="M 0,0 H 393 V 40 H 0 Z"
       style="fill:#ffffff;fill-opacity:1;fill-rule:nonzero;stroke:none"
       clip-path="url(#clipPath2)" />
    <path
       id="path3"
       d="m 407,-1000 h 144 c 0.52527,6e-5 1.04553,0.0513 1.56073,0.15387 0.51514,0.10248 1.01538,0.25427 1.50067,0.45526 0.48529,0.20105 0.94635,0.44751 1.38312,0.73932 0.43671,0.29181 0.84082,0.62341 1.21228,0.99481 0.3714,0.37152 0.70306,0.77564 0.99493,1.2124 0.29181,0.43677 0.53821,0.89777 0.73926,1.38306 0.20099,0.48529 0.35278,0.98554 0.45526,1.50067 0.10248,0.5152 0.15375,1.0354 0.15375,1.56061 v 24 c 0,0.52533 -0.0513,1.04559 -0.15375,1.56079 -0.10248,0.5152 -0.25427,1.0155 -0.45526,1.50079 -0.20105,0.48536 -0.44751,0.94642 -0.73932,1.38312 -0.29181,0.43671 -0.62347,0.84082 -0.99487,1.21222 -0.37146,0.3714 -0.77557,0.70307 -1.21228,0.99487 -0.43677,0.29187 -0.89783,0.53833 -1.38312,0.73932 -0.48529,0.20099 -0.98553,0.35266 -1.50067,0.45514 C 552.04553,-960.05127 551.52527,-960 551,-960 H 407 c -0.5253,0 -1.04553,-0.0513 -1.56073,-0.15375 -0.51523,-0.10241 -1.01547,-0.25409 -1.50076,-0.45508 -0.48532,-0.20105 -0.94635,-0.44751 -1.38309,-0.73931 -0.43677,-0.29187 -0.84085,-0.62354 -1.21228,-0.99494 -0.37143,-0.3714 -0.70309,-0.77551 -0.99493,-1.21222 -0.29184,-0.4367 -0.53827,-0.89776 -0.73929,-1.38312 -0.20102,-0.48529 -0.35276,-0.98559 -0.45523,-1.50079 C 399.05124,-966.95441 399,-967.47467 399,-968 v -24 c 0,-0.52521 0.0512,-1.04535 0.15369,-1.56055 0.10247,-0.51519 0.25421,-1.01544 0.45523,-1.50073 0.20102,-0.48529 0.44745,-0.94629 0.73929,-1.38312 0.29184,-0.4367 0.6235,-0.84082 0.99493,-1.21234 0.37143,-0.3714 0.77551,-0.703 1.21228,-0.99481 0.43674,-0.29181 0.89774,-0.53827 1.38306,-0.73932 0.48532,-0.20099 0.98556,-0.35278 1.50079,-0.45526 0.5152,-0.10254 1.03543,-0.15381 1.56073,-0.15387 z"
       style="fill:#ffffff;fill-opacity:1;fill-rule:nonzero;stroke:#000000;stroke-width:1;stroke-linecap:butt;stroke-linejoin:miter;stroke-miterlimit:10;stroke-dasharray:none;stroke-opacity:1"
       transform="matrix(0.94816172,0,0,0.94816172,-375.29643,949.10988)"
       clip-path="url(#clipPath4)" />
    <text
       id="text4"
       xml:space="preserve"
       transform="matrix(0.94816172,0,0,0.94816172,57.361594,15.6447)"
       clip-path="url(#clipPath5)"><tspan
         id="tspan4"
         style="font-variant:normal;font-weight:normal;font-size:16px;font-family:Arial;writing-mode:lr-tb;fill:#000000;fill-opacity:1;fill-rule:nonzero;stroke:none"
         x="0"
         y="0">«part»</tspan></text>
    <text
       id="text5"
       xml:space="preserve"
       transform="matrix(0.94816172,0,0,0.94816172,37.139087,34.607934)"
       clip-path="url(#clipPath6)"><tspan
         id="tspan5"
         style="font-variant:normal;font-weight:normal;font-size:16px;font-family:Arial;writing-mode:lr-tb;fill:#000000;fill-opacity:1;fill-rule:nonzero;stroke:none"
         x="0"
         y="0">part1 : Part1</tspan></text>
    <path
       id="path7"
       d="m 653.65997,-1000 h 144 c 0.52527,6e-5 1.04554,0.0513 1.56073,0.15387 0.51514,0.10248 1.01538,0.25427 1.50067,0.45526 0.4853,0.20105 0.94629,0.44751 1.38306,0.73932 0.43677,0.29181 0.84088,0.62341 1.21228,0.99481 0.3714,0.37152 0.70307,0.77564 0.99494,1.2124 0.2918,0.43677 0.5382,0.89777 0.73925,1.38306 0.20099,0.48529 0.35279,0.98554 0.45526,1.50067 0.10248,0.5152 0.15375,1.0354 0.15381,1.56061 v 24 c -6e-5,0.52533 -0.0513,1.04559 -0.15387,1.56079 -0.10247,0.5152 -0.25421,1.0155 -0.4552,1.50079 -0.20105,0.48536 -0.44751,0.94642 -0.73932,1.38312 -0.2918,0.43671 -0.62347,0.84082 -0.99487,1.21222 -0.3714,0.3714 -0.77551,0.70307 -1.21222,0.99487 -0.43683,0.29187 -0.89782,0.53833 -1.38312,0.73932 -0.48529,0.20099 -0.98553,0.35266 -1.50073,0.45514 -0.5152,0.10248 -1.0354,0.15375 -1.56067,0.15375 h -144 c -0.52533,0 -1.04559,-0.0513 -1.56079,-0.15375 -0.5152,-0.10241 -1.01544,-0.25409 -1.50073,-0.45508 -0.48529,-0.20105 -0.94635,-0.44751 -1.38306,-0.73931 -0.43683,-0.29187 -0.84094,-0.62354 -1.21234,-0.99494 -0.37146,-0.3714 -0.70312,-0.77551 -0.99493,-1.21222 -0.29187,-0.4367 -0.53827,-0.89776 -0.73926,-1.38312 -0.20099,-0.48529 -0.35272,-0.98559 -0.45526,-1.50079 -0.10242,-0.5152 -0.15363,-1.03546 -0.15363,-1.56079 v -24 c 0,-0.52521 0.0512,-1.04535 0.15363,-1.56055 0.10254,-0.51519 0.25427,-1.01544 0.45526,-1.50073 0.20099,-0.48529 0.44739,-0.94629 0.73926,-1.38312 0.29181,-0.4367 0.62347,-0.84082 0.99493,-1.21234 0.3714,-0.3714 0.77551,-0.703 1.21228,-0.99481 0.43677,-0.29181 0.89783,-0.53827 1.38312,-0.73932 0.48529,-0.20099 0.98553,-0.35278 1.50073,-0.45526 0.5152,-0.10254 1.03546,-0.15381 1.56079,-0.15387 z"
       style="fill:#ffffff;fill-opacity:1;fill-rule:nonzero;stroke:#000000;stroke-width:1;stroke-linecap:butt;stroke-linejoin:miter;stroke-miterlimit:10;stroke-dasharray:none;stroke-opacity:1"
       transform="matrix(0.94816172,0,0,0.94816172,-375.29643,949.10988)"
       clip-path="url(#clipPath8)" />
    <text
       id="text8"
       xml:space="preserve"
       transform="matrix(0.94816172,0,0,0.94816172,291.55754,15.6447)"
       clip-path="url(#clipPath9)"><tspan
         id="tspan8"
         style="font-variant:normal;font-weight:normal;font-size:16px;font-family:Arial;writing-mode:lr-tb;fill:#000000;fill-opacity:1;fill-rule:nonzero;stroke:none"
         x="0"
         y="0">«part»</tspan></text>
    <text
       id="text9"
       xml:space="preserve"
       transform="matrix(0.94816172,0,0,0.94816172,271.33503,34.607934)"
       clip-path="url(#clipPath10)"><tspan
         id="tspan9"
         style="font-variant:normal;font-weight:normal;font-size:16px;font-family:Arial;writing-mode:lr-tb;fill:#000000;fill-opacity:1;fill-rule:nonzero;stroke:none"
         x="0"
         y="0">part2 : Part2</tspan></text>
    <path
       id="path11"
       d="m 559,-980 h 84.41998"
       style="fill:none;stroke:#000000;stroke-width:1;stroke-linecap:butt;stroke-linejoin:miter;stroke-miterlimit:10;stroke-dasharray:none;stroke-opacity:1"
       transform="matrix(0.94816172,0,0,0.94816172,-375.29643,949.10988)"
       clip-path="url(#clipPath12)" />
    <path
       id="path13"
       d="m 635.53998,-975.5 9,-4.5 -9,-4.5"
       style="fill:none;stroke:#000000;stroke-width:1;stroke-linecap:butt;stroke-linejoin:miter;stroke-miterlimit:10;stroke-dasharray:none;stroke-opacity:1"
       transform="matrix(0.94816172,0,0,0.94816172,-375.29643,949.10988)"
       clip-path="url(#clipPath14)" />
    <path
       id="path15"
       d="m 574,-996 h 55 v 15 h -55 z"
       style="fill:#ffffff;fill-opacity:1;fill-rule:nonzero;stroke:none"
       transform="matrix(0.94816172,0,0,0.94816172,-375.77053,948.63583)"
       clip-path="url(#clipPath16)" />
    <path
       id="path17"
       d="m 574,-996 h 55 v 14 h -55 z"
       style="fill:#f8f9fa;fill-opacity:1;fill-rule:nonzero;stroke:none"
       transform="matrix(0.94816172,0,0,0.94816172,-375.77053,948.63583)"
       clip-path="url(#clipPath18)" />
    <text
       id="text18"
       xml:space="preserve"
       transform="matrix(0.94816172,0,0,0.94816172,168.60764,14.696538)"
       clip-path="url(#clipPath19)"><tspan
         id="tspan18"
         style="font-variant:normal;font-weight:normal;font-size:12px;font-family:Arial;writing-mode:lr-tb;fill:#000000;fill-opacity:1;fill-rule:nonzero;stroke:none"
         x="0"
         y="0">«allocate»</tspan></text>
  </g>
</svg>
