<?xml version="1.0" encoding="UTF-8" standalone="no"?>
<!-- Created with Inkscape (http://www.inkscape.org/) -->

<svg
   version="1.1"
   id="svg1"
   width="118.72"
   height="60.16"
   viewBox="0 0 118.72 60.16"
   xmlns="http://www.w3.org/2000/svg"
   xmlns:svg="http://www.w3.org/2000/svg">
  <defs
     id="defs1">
    <clipPath
       clipPathUnits="userSpaceOnUse"
       id="clipPath2">
      <path
         d="M 0,0 H 368.99414 V 189 H 0 Z"
         transform="scale(0.31999999)"
         clip-rule="evenodd"
         id="path2" />
    </clipPath>
    <clipPath
       clipPathUnits="userSpaceOnUse"
       id="clipPath4">
      <path
         d="m 3.125,0 h 362.5 V 187.5 H 3.125 Z"
         transform="matrix(0.34307156,0,0,0.34307156,116.8538,-244.07208)"
         clip-rule="evenodd"
         id="path4" />
    </clipPath>
    <clipPath
       clipPathUnits="userSpaceOnUse"
       id="clipPath5">
      <path
         d="m 3.125,0 h 362.5 V 187.5 H 3.125 Z"
         transform="matrix(0.34307156,0,0,0.34307156,-27.974338,-19.572095)"
         clip-rule="evenodd"
         id="path5" />
    </clipPath>
    <clipPath
       clipPathUnits="userSpaceOnUse"
       id="clipPath6">
      <path
         d="m 3.125,0 h 362.5 V 187.5 H 3.125 Z"
         transform="matrix(0.34307156,0,0,0.34307156,-4.6462125,-34.572095)"
         clip-rule="evenodd"
         id="path6" />
    </clipPath>
    <clipPath
       clipPathUnits="userSpaceOnUse"
       id="clipPath7">
      <path
         d="m 3.125,0 h 362.5 V 187.5 H 3.125 Z"
         transform="matrix(0.34307156,0,0,0.34307156,-31.318087,-34.572095)"
         clip-rule="evenodd"
         id="path7" />
    </clipPath>
    <clipPath
       clipPathUnits="userSpaceOnUse"
       id="clipPath8">
      <path
         d="m 3.125,0 h 362.5 V 187.5 H 3.125 Z"
         transform="matrix(0.34307156,0,0,0.34307156,-4.6462125,-51.572094)"
         clip-rule="evenodd"
         id="path8" />
    </clipPath>
    <clipPath
       clipPathUnits="userSpaceOnUse"
       id="clipPath9">
      <path
         d="m 3.125,0 h 362.5 V 187.5 H 3.125 Z"
         transform="matrix(0.34307156,0,0,0.34307156,-15.974338,-51.572094)"
         clip-rule="evenodd"
         id="path9" />
    </clipPath>
  </defs>
  <g
     id="g1">
    <path
       id="path1"
       d="M 0,0 H 118 V 60 H 0 Z"
       style="fill:#ffffff;fill-opacity:1;fill-rule:nonzero;stroke:none"
       clip-path="url(#clipPath2)" />
    <path
       id="path3"
       d="m 120,-242 h 120 v 60 H 120 Z"
       style="fill:#ffffff;fill-opacity:1;fill-rule:nonzero;stroke:#000000;stroke-width:1;stroke-linecap:butt;stroke-linejoin:miter;stroke-miterlimit:10;stroke-dasharray:none;stroke-opacity:1"
       transform="matrix(0.93274998,0,0,0.93274998,-108.99538,227.65823)"
       clip-path="url(#clipPath4)" />
    <text
       id="text4"
       xml:space="preserve"
       transform="matrix(0.93274998,0,0,0.93274998,26.093063,18.255871)"
       clip-path="url(#clipPath5)"><tspan
         id="tspan4"
         style="font-style:italic;font-variant:normal;font-weight:normal;font-size:12px;font-family:Arial;writing-mode:lr-tb;fill:#000000;fill-opacity:1;fill-rule:nonzero;stroke:none"
         x="0"
         y="0">allocated</tspan></text>
    <text
       id="text5"
       xml:space="preserve"
       transform="matrix(0.93274998,0,0,0.93274998,4.3337546,32.247121)"
       clip-path="url(#clipPath6)"><tspan
         id="tspan5"
         style="font-variant:normal;font-weight:700;font-size:12px;font-family:Arial;writing-mode:lr-tb;fill:#000000;fill-opacity:1;fill-rule:nonzero;stroke:none"
         x="0"
         y="0">from</tspan></text>
    <g
       id="g6" />
    <text
       id="text6"
       xml:space="preserve"
       transform="matrix(0.93274998,0,0,0.93274998,29.211945,32.247121)"
       clip-path="url(#clipPath7)"><tspan
         id="tspan6"
         style="font-variant:normal;font-weight:normal;font-size:12px;font-family:Arial;writing-mode:lr-tb;fill:#000000;fill-opacity:1;fill-rule:nonzero;stroke:none"
         x="0"
         y="0"> part1.part1a</tspan></text>
    <text
       id="text7"
       xml:space="preserve"
       transform="matrix(0.93274998,0,0,0.93274998,4.3337546,48.10387)"
       clip-path="url(#clipPath8)"><tspan
         id="tspan7"
         style="font-variant:normal;font-weight:700;font-size:12px;font-family:Arial;writing-mode:lr-tb;fill:#000000;fill-opacity:1;fill-rule:nonzero;stroke:none"
         x="0"
         y="0">to</tspan></text>
    <g
       id="g8" />
    <text
       id="text8"
       xml:space="preserve"
       transform="matrix(0.93274998,0,0,0.93274998,14.900063,48.10387)"
       clip-path="url(#clipPath9)"><tspan
         id="tspan8"
         style="font-variant:normal;font-weight:normal;font-size:12px;font-family:Arial;writing-mode:lr-tb;fill:#000000;fill-opacity:1;fill-rule:nonzero;stroke:none"
         x="0"
         y="0"> part2.part2a</tspan></text>
  </g>
</svg>
