<?xml version="1.0" encoding="UTF-8" standalone="no"?>
<!-- Created with Inkscape (http://www.inkscape.org/) -->

<svg
   version="1.1"
   id="svg1"
   width="368"
   height="98.559998"
   viewBox="0 0 368 98.559998"
   xmlns="http://www.w3.org/2000/svg"
   xmlns:svg="http://www.w3.org/2000/svg">
  <defs
     id="defs1">
    <clipPath
       clipPathUnits="userSpaceOnUse"
       id="clipPath2">
      <path
         d="M 0,0 H 1149.0234 V 308.98438 H 0 Z"
         transform="scale(0.31999999)"
         clip-rule="evenodd"
         id="path2" />
    </clipPath>
    <clipPath
       clipPathUnits="userSpaceOnUse"
       id="clipPath4">
      <path
         d="m 3.125,0 h 1143.75 V 308.98438 H 3.125 Z"
         transform="matrix(0.3364338,0,0,0.3364338,354.5445,3318.9999)"
         clip-rule="evenodd"
         id="path4" />
    </clipPath>
    <clipPath
       clipPathUnits="userSpaceOnUse"
       id="clipPath6">
      <path
         d="m 3.125,0 h 1143.75 V 308.98438 H 3.125 Z"
         transform="matrix(0.3364338,0,0,0.3364338,354.5445,3318.9999)"
         clip-rule="evenodd"
         id="path6" />
    </clipPath>
    <clipPath
       clipPathUnits="userSpaceOnUse"
       id="clipPath7">
      <path
         d="m 3.125,0 h 1143.75 V 308.98438 H 3.125 Z"
         transform="matrix(0.3364338,0,0,0.3364338,-275.43991,-27.500062)"
         clip-rule="evenodd"
         id="path7" />
    </clipPath>
    <clipPath
       clipPathUnits="userSpaceOnUse"
       id="clipPath9">
      <path
         d="m 3.125,0 h 1143.75 V 308.98438 H 3.125 Z"
         transform="matrix(0.3364338,0,0,0.3364338,354.5445,3318.9999)"
         clip-rule="evenodd"
         id="path9" />
    </clipPath>
    <clipPath
       clipPathUnits="userSpaceOnUse"
       id="clipPath10">
      <path
         d="m 3.125,0 h 1143.75 V 308.98438 H 3.125 Z"
         transform="matrix(0.3364338,0,0,0.3364338,-24.439908,-27.500062)"
         clip-rule="evenodd"
         id="path10" />
    </clipPath>
    <clipPath
       clipPathUnits="userSpaceOnUse"
       id="clipPath12">
      <path
         d="m 3.125,0 h 1143.75 V 308.98438 H 3.125 Z"
         transform="matrix(0.3364338,0,0,0.3364338,354.5445,3318.9999)"
         clip-rule="evenodd"
         id="path12" />
    </clipPath>
    <clipPath
       clipPathUnits="userSpaceOnUse"
       id="clipPath14">
      <path
         d="m 3.125,0 h 1143.75 V 308.98438 H 3.125 Z"
         transform="matrix(0.3364338,0,0,0.3364338,354.5445,3318.9999)"
         clip-rule="evenodd"
         id="path14" />
    </clipPath>
    <clipPath
       clipPathUnits="userSpaceOnUse"
       id="clipPath15">
      <path
         d="m 3.125,0 h 1143.75 V 308.98438 H 3.125 Z"
         transform="matrix(0.3364338,0,0,0.3364338,-149.95553,-25.500062)"
         clip-rule="evenodd"
         id="path15" />
    </clipPath>
    <clipPath
       clipPathUnits="userSpaceOnUse"
       id="clipPath16">
      <path
         d="m 3.125,0 h 1143.75 V 308.98438 H 3.125 Z"
         transform="matrix(0.3364338,0,0,0.3364338,-149.95553,-40.500062)"
         clip-rule="evenodd"
         id="path16" />
    </clipPath>
  </defs>
  <g
     id="g1">
    <path
       id="path1"
       d="M 0,0 H 368 V 99 H 0 Z"
       style="fill:#ffffff;fill-opacity:1;fill-rule:nonzero;stroke:none"
       clip-path="url(#clipPath2)" />
    <path
       id="path3"
       d="m 357.67001,3320 h 380.00003 v 100.5 H 357.67001 Z"
       style="fill:#ffffff;fill-opacity:1;fill-rule:nonzero;stroke:#ffffff;stroke-width:1;stroke-linecap:butt;stroke-linejoin:miter;stroke-miterlimit:10;stroke-dasharray:none;stroke-opacity:1"
       transform="matrix(0.95115292,0,0,0.95115292,-337.22604,-3156.8764)"
       clip-path="url(#clipPath4)" />
    <path
       id="path5"
       d="m 618.66998,3325.25 h 110 c 0.66297,0 1.30072,0.1267 1.91333,0.3804 0.61255,0.2536 1.15326,0.6147 1.62213,1.0837 0.46882,0.4688 0.83008,1.0095 1.08381,1.6221 0.25378,0.6125 0.38067,1.2505 0.38073,1.9138 v 80 c -6e-5,0.6628 -0.12695,1.3003 -0.38073,1.9128 -0.25373,0.6126 -0.61499,1.1534 -1.08381,1.6224 -0.46887,0.4687 -1.00958,0.83 -1.62213,1.0837 -0.61261,0.2537 -1.25036,0.3809 -1.91333,0.3811 h -110 c -0.66314,-2e-4 -1.30096,-0.1274 -1.91357,-0.3811 -0.61255,-0.2537 -1.1532,-0.615 -1.62201,-1.0837 -0.46887,-0.469 -0.83014,-1.0098 -1.08386,-1.6224 -0.25373,-0.6125 -0.38056,-1.25 -0.38056,-1.9128 v -80 c 0,-0.6633 0.12683,-1.3015 0.38056,-1.9141 0.25372,-0.6125 0.61499,-1.153 1.08386,-1.6218 0.46881,-0.469 1.00946,-0.8301 1.62207,-1.0837 0.61255,-0.2537 1.25037,-0.3804 1.91351,-0.3804 z"
       style="fill:#ffffff;fill-opacity:1;fill-rule:nonzero;stroke:#000000;stroke-width:1;stroke-linecap:butt;stroke-linejoin:miter;stroke-miterlimit:10;stroke-dasharray:none;stroke-opacity:1"
       transform="matrix(0.95115292,0,0,0.95115292,-337.22604,-3156.8764)"
       clip-path="url(#clipPath6)" />
    <text
       id="text6"
       xml:space="preserve"
       transform="matrix(0.95115292,0,0,0.95115292,261.98547,26.156764)"
       clip-path="url(#clipPath7)"><tspan
         id="tspan6"
         style="font-variant:normal;font-weight:normal;font-size:16px;font-family:Arial;writing-mode:lr-tb;fill:#000000;fill-opacity:1;fill-rule:nonzero;stroke:none"
         x="0"
         y="0">part2 : Part2</tspan></text>
    <path
       id="path8"
       d="m 367.67001,3325.25 h 110 c 0.663,0 1.30082,0.1267 1.91339,0.3804 0.61255,0.2536 1.15326,0.6147 1.62211,1.0837 0.46881,0.4688 0.8301,1.0095 1.08386,1.6221 0.25372,0.6125 0.38061,1.2505 0.38064,1.9138 v 80 c -3e-5,0.6628 -0.12692,1.3003 -0.38064,1.9128 -0.25376,0.6126 -0.61505,1.1534 -1.08386,1.6224 -0.46885,0.4687 -1.00956,0.83 -1.62214,1.0837 -0.61258,0.2537 -1.25036,0.3809 -1.91336,0.3811 h -110 c -0.66305,-2e-4 -1.30087,-0.1274 -1.91345,-0.3811 -0.61258,-0.2537 -1.15329,-0.615 -1.6221,-1.0837 -0.46884,-0.469 -0.83014,-1.0098 -1.08389,-1.6224 -0.25373,-0.6125 -0.38059,-1.25 -0.38056,-1.9128 v -80 c -3e-5,-0.6633 0.12683,-1.3015 0.38059,-1.9141 0.25372,-0.6125 0.61502,-1.153 1.08386,-1.6218 0.46881,-0.469 1.00952,-0.8301 1.6221,-1.0837 0.61258,-0.2537 1.2504,-0.3804 1.91345,-0.3804 z"
       style="fill:#ffffff;fill-opacity:1;fill-rule:nonzero;stroke:#000000;stroke-width:1;stroke-linecap:butt;stroke-linejoin:miter;stroke-miterlimit:10;stroke-dasharray:none;stroke-opacity:1"
       transform="matrix(0.95115292,0,0,0.95115292,-337.22604,-3156.8764)"
       clip-path="url(#clipPath9)" />
    <text
       id="text9"
       xml:space="preserve"
       transform="matrix(0.95115292,0,0,0.95115292,23.24609,26.156764)"
       clip-path="url(#clipPath10)"><tspan
         id="tspan9"
         style="font-variant:normal;font-weight:normal;font-size:16px;font-family:Arial;writing-mode:lr-tb;fill:#000000;fill-opacity:1;fill-rule:nonzero;stroke:none"
         x="0"
         y="0">part1 : Part1</tspan></text>
    <path
       id="path11"
       d="M 482.67001,3370.25 H 605.79999"
       style="fill:none;stroke:#000000;stroke-width:1;stroke-linecap:butt;stroke-linejoin:miter;stroke-miterlimit:10;stroke-dasharray:none;stroke-opacity:1"
       transform="matrix(0.95115292,0,0,0.95115292,-337.22604,-3156.8764)"
       clip-path="url(#clipPath12)" />
    <path
       id="path13"
       d="m 612.54999,3370.25 -9,4.5 2.25,-4.5 -2.25,-4.5 z"
       style="fill:none;stroke:#000000;stroke-width:1;stroke-linecap:butt;stroke-linejoin:miter;stroke-miterlimit:10;stroke-dasharray:none;stroke-opacity:1"
       transform="matrix(0.95115292,0,0,0.95115292,-337.22604,-3156.8764)"
       clip-path="url(#clipPath14)" />
    <text
       id="text14"
       xml:space="preserve"
       transform="matrix(0.95115292,0,0,0.95115292,142.63064,24.254458)"
       clip-path="url(#clipPath15)"><tspan
         id="tspan14"
         style="font-variant:normal;font-weight:normal;font-size:12px;font-family:Arial;writing-mode:lr-tb;fill:#000000;fill-opacity:1;fill-rule:nonzero;stroke:none"
         x="0"
         y="0">«message»</tspan></text>
    <text
       id="text15"
       xml:space="preserve"
       transform="matrix(0.95115292,0,0,0.95115292,142.63064,38.521752)"
       clip-path="url(#clipPath16)"><tspan
         id="tspan15"
         style="font-variant:normal;font-weight:normal;font-size:12px;font-family:Arial;writing-mode:lr-tb;fill:#000000;fill-opacity:1;fill-rule:nonzero;stroke:none"
         x="0"
         y="0">of item1 : Item1</tspan></text>
  </g>
</svg>
