<?xml version="1.0" encoding="UTF-8" standalone="no"?>
<!-- Created with Inkscape (http://www.inkscape.org/) -->

<svg
   version="1.1"
   id="svg1"
   width="448"
   height="120"
   viewBox="0 0 448 120"
   xmlns="http://www.w3.org/2000/svg"
   xmlns:svg="http://www.w3.org/2000/svg">
  <defs
     id="defs1">
    <clipPath
       clipPathUnits="userSpaceOnUse"
       id="clipPath2">
      <path
         d="M 0,0 H 1400.9766 V 375 H 0 Z"
         transform="scale(0.31999999)"
         clip-rule="evenodd"
         id="path2" />
    </clipPath>
    <clipPath
       clipPathUnits="userSpaceOnUse"
       id="clipPath4">
      <path
         d="m 3.125,0 h 1393.75 V 375 H 3.125 Z"
         transform="matrix(0.33620255,0,0,0.33620255,342.39562,3146.9494)"
         clip-rule="evenodd"
         id="path4" />
    </clipPath>
    <clipPath
       clipPathUnits="userSpaceOnUse"
       id="clipPath6">
      <path
         d="m 3.125,0 h 1393.75 V 375 H 3.125 Z"
         transform="matrix(0.33620255,0,0,0.33620255,342.39562,3146.9494)"
         clip-rule="evenodd"
         id="path6" />
    </clipPath>
    <clipPath
       clipPathUnits="userSpaceOnUse"
       id="clipPath7">
      <path
         d="m 3.125,0 h 1393.75 V 375 H 3.125 Z"
         transform="matrix(0.33620255,0,0,0.33620255,-239.74505,-91.550504)"
         clip-rule="evenodd"
         id="path7" />
    </clipPath>
    <clipPath
       clipPathUnits="userSpaceOnUse"
       id="clipPath9">
      <path
         d="m 3.125,0 h 1393.75 V 375 H 3.125 Z"
         transform="matrix(0.33620255,0,0,0.33620255,342.39562,3146.9494)"
         clip-rule="evenodd"
         id="path9" />
    </clipPath>
    <clipPath
       clipPathUnits="userSpaceOnUse"
       id="clipPath10">
      <path
         d="m 3.125,0 h 1393.75 V 375 H 3.125 Z"
         transform="matrix(0.33620255,0,0,0.33620255,-328.90131,-29.550504)"
         clip-rule="evenodd"
         id="path10" />
    </clipPath>
    <clipPath
       clipPathUnits="userSpaceOnUse"
       id="clipPath12">
      <path
         d="m 3.125,0 h 1393.75 V 375 H 3.125 Z"
         transform="matrix(0.33620255,0,0,0.33620255,342.39562,3146.9494)"
         clip-rule="evenodd"
         id="path12" />
    </clipPath>
    <clipPath
       clipPathUnits="userSpaceOnUse"
       id="clipPath14">
      <path
         d="m 3.125,0 h 1393.75 V 375 H 3.125 Z"
         transform="matrix(0.33620255,0,0,0.33620255,342.39562,3146.9494)"
         clip-rule="evenodd"
         id="path14" />
    </clipPath>
    <clipPath
       clipPathUnits="userSpaceOnUse"
       id="clipPath16">
      <path
         d="m 3.125,0 h 1393.75 V 375 H 3.125 Z"
         transform="matrix(0.33620255,0,0,0.33620255,342.39562,3146.9494)"
         clip-rule="evenodd"
         id="path16" />
    </clipPath>
    <clipPath
       clipPathUnits="userSpaceOnUse"
       id="clipPath17">
      <path
         d="m 3.125,0 h 1393.75 V 375 H 3.125 Z"
         transform="matrix(0.33620255,0,0,0.33620255,-167.10442,-51.550503)"
         clip-rule="evenodd"
         id="path17" />
    </clipPath>
    <clipPath
       clipPathUnits="userSpaceOnUse"
       id="clipPath19">
      <path
         d="m 3.125,0 h 1393.75 V 375 H 3.125 Z"
         transform="matrix(0.33620255,0,0,0.33620255,342.39562,3146.9494)"
         clip-rule="evenodd"
         id="path19" />
    </clipPath>
    <clipPath
       clipPathUnits="userSpaceOnUse"
       id="clipPath20">
      <path
         d="m 3.125,0 h 1393.75 V 375 H 3.125 Z"
         transform="matrix(0.33620255,0,0,0.33620255,-29.901304,-29.550504)"
         clip-rule="evenodd"
         id="path20" />
    </clipPath>
  </defs>
  <g
     id="g1">
    <path
       id="path1"
       d="M 0,0 H 448 V 120 H 0 Z"
       style="fill:#ffffff;fill-opacity:1;fill-rule:nonzero;stroke:none"
       clip-path="url(#clipPath2)" />
    <path
       id="path3"
       d="M 345.5,3149 H 810 v 122 H 345.5 Z"
       style="fill:#ffffff;fill-opacity:1;fill-rule:nonzero;stroke:#ffffff;stroke-width:1;stroke-linecap:butt;stroke-linejoin:miter;stroke-miterlimit:10;stroke-dasharray:none;stroke-opacity:1"
       transform="matrix(0.95180713,0,0,0.95180713,-325.89459,-2995.2889)"
       clip-path="url(#clipPath4)" />
    <path
       id="path5"
       d="m 649.71997,3205 h 14 c 0.39777,0 0.7804,0.076 1.14795,0.2283 0.36749,0.1521 0.69196,0.3689 0.97327,0.6504 0.28131,0.281 0.49804,0.6054 0.65033,0.9729 0.15228,0.3674 0.22839,0.7502 0.22845,1.1484 v 14 c -6e-5,0.3977 -0.0762,0.7803 -0.22845,1.1477 -0.15229,0.3674 -0.36902,0.6919 -0.65033,0.9734 -0.28131,0.2812 -0.60578,0.498 -0.97327,0.6504 -0.36755,0.1521 -0.75018,0.2283 -1.14795,0.2285 h -14 c -0.39783,-2e-4 -0.78052,-0.076 -1.14813,-0.2285 -0.36756,-0.1524 -0.69196,-0.3692 -0.97327,-0.6504 -0.28131,-0.2815 -0.49811,-0.606 -0.65033,-0.9734 -0.15222,-0.3674 -0.22833,-0.75 -0.22827,-1.1477 v -14 c -6e-5,-0.3982 0.0761,-0.781 0.22827,-1.1484 0.15222,-0.3675 0.36902,-0.6919 0.65033,-0.9729 0.28131,-0.2815 0.60571,-0.4983 0.97327,-0.6507 0.36761,-0.1521 0.7503,-0.228 1.14813,-0.228 z"
       style="fill:#ffffff;fill-opacity:1;fill-rule:nonzero;stroke:#000000;stroke-width:1;stroke-linecap:butt;stroke-linejoin:miter;stroke-miterlimit:10;stroke-dasharray:none;stroke-opacity:1"
       transform="matrix(0.95180713,0,0,0.95180713,-325.89459,-2995.2889)"
       clip-path="url(#clipPath6)" />
    <text
       id="text6"
       xml:space="preserve"
       transform="matrix(0.95180713,0,0,0.95180713,228.19105,87.138422)"
       clip-path="url(#clipPath7)"><tspan
         id="tspan6"
         style="font-variant:normal;font-weight:normal;font-size:12px;font-family:Arial;writing-mode:lr-tb;fill:#000000;fill-opacity:1;fill-rule:nonzero;stroke:none"
         x="0"
         y="0">item1 : Item1</tspan></text>
    <path
       id="path8"
       d="m 669.91998,3155 h 120 c 0.66297,0 1.30072,0.1267 1.91333,0.3804 0.61261,0.2536 1.15332,0.615 1.6222,1.084 0.46875,0.4687 0.83001,1.0095 1.0838,1.622 0.25372,0.6126 0.38061,1.2503 0.38067,1.9136 v 100 c -6e-5,0.6628 -0.12695,1.3005 -0.38067,1.9131 -0.25379,0.6125 -0.61505,1.1533 -1.0838,1.6223 -0.46888,0.4685 -1.00959,0.8298 -1.6222,1.0837 -0.61261,0.2537 -1.25036,0.3807 -1.91333,0.3809 h -120 c -0.66308,-2e-4 -1.3009,-0.1272 -1.91351,-0.3809 -0.61261,-0.2539 -1.15326,-0.6152 -1.62207,-1.0837 -0.46887,-0.469 -0.8302,-1.0098 -1.08392,-1.6223 -0.25373,-0.6126 -0.38056,-1.2503 -0.3805,-1.9131 v -100 c -6e-5,-0.6633 0.12671,-1.301 0.38044,-1.9136 0.25378,-0.6125 0.61511,-1.1533 1.08398,-1.622 0.46881,-0.469 1.00946,-0.8304 1.62207,-1.084 0.61261,-0.2537 1.25043,-0.3804 1.91351,-0.3804 z"
       style="fill:#ffffff;fill-opacity:1;fill-rule:nonzero;stroke:#000000;stroke-width:1;stroke-linecap:butt;stroke-linejoin:miter;stroke-miterlimit:10;stroke-dasharray:none;stroke-opacity:1"
       transform="matrix(0.95180713,0,0,0.95180713,-325.89459,-2995.2889)"
       clip-path="url(#clipPath9)" />
    <text
       id="text9"
       xml:space="preserve"
       transform="matrix(0.95180713,0,0,0.95180713,313.05061,28.12638)"
       clip-path="url(#clipPath10)"><tspan
         id="tspan9"
         style="font-variant:normal;font-weight:normal;font-size:16px;font-family:Arial;writing-mode:lr-tb;fill:#000000;fill-opacity:1;fill-rule:nonzero;stroke:none"
         x="0"
         dx="0 0 0 0 0 0 0 0 0 0 -0.8828122"
         y="0">action2 : Action2</tspan></text>
    <path
       id="path11"
       d="M 514.33002,3215 H 638.60999"
       style="fill:none;stroke:#000000;stroke-width:1;stroke-linecap:butt;stroke-linejoin:miter;stroke-miterlimit:10;stroke-dasharray:none;stroke-opacity:1"
       transform="matrix(0.95180713,0,0,0.95180713,-325.89459,-2995.2889)"
       clip-path="url(#clipPath12)" />
    <path
       id="path13"
       d="m 645.60999,3215 -7,3.5 v -7 z"
       style="fill:#000000;fill-opacity:1;fill-rule:nonzero;stroke:#000000;stroke-width:1;stroke-linecap:butt;stroke-linejoin:miter;stroke-miterlimit:10;stroke-dasharray:none;stroke-opacity:1"
       transform="matrix(0.95180713,0,0,0.95180713,-325.89459,-2995.2889)"
       clip-path="url(#clipPath14)" />
    <path
       id="path15"
       d="m 497.32999,3205 h 13.99997 c 0.39779,0 0.78045,0.076 1.14801,0.2283 0.36755,0.1521 0.69195,0.3689 0.97326,0.6504 0.28131,0.281 0.49805,0.6054 0.65033,0.9729 0.15222,0.3674 0.22834,0.7502 0.2284,1.1484 v 14 c -6e-5,0.3977 -0.0762,0.7803 -0.22846,1.1477 -0.15222,0.3674 -0.36896,0.6919 -0.65027,0.9734 -0.28131,0.2812 -0.60571,0.498 -0.97326,0.6504 -0.36756,0.1521 -0.75022,0.2283 -1.14801,0.2285 h -13.99997 c -0.39786,-2e-4 -0.78058,-0.076 -1.14814,-0.2285 -0.36755,-0.1524 -0.69195,-0.3692 -0.97323,-0.6504 -0.28134,-0.2815 -0.49811,-0.606 -0.65033,-0.9734 -0.15225,-0.3674 -0.22833,-0.75 -0.2283,-1.1477 v -14 c -3e-5,-0.3982 0.0761,-0.781 0.2283,-1.1484 0.15222,-0.3675 0.36899,-0.6919 0.65033,-0.9729 0.28128,-0.2815 0.60568,-0.4983 0.97323,-0.6507 0.36756,-0.1521 0.75028,-0.228 1.14814,-0.228 z"
       style="fill:#ffffff;fill-opacity:1;fill-rule:nonzero;stroke:#000000;stroke-width:1;stroke-linecap:butt;stroke-linejoin:miter;stroke-miterlimit:10;stroke-dasharray:none;stroke-opacity:1"
       transform="matrix(0.95180713,0,0,0.95180713,-325.89459,-2995.2889)"
       clip-path="url(#clipPath16)" />
    <text
       id="text16"
       xml:space="preserve"
       transform="matrix(0.95180713,0,0,0.95180713,159.05118,49.066136)"
       clip-path="url(#clipPath17)"><tspan
         id="tspan16"
         style="font-variant:normal;font-weight:normal;font-size:12px;font-family:Arial;writing-mode:lr-tb;fill:#000000;fill-opacity:1;fill-rule:nonzero;stroke:none"
         x="0"
         y="0">item1 : Item1</tspan></text>
    <path
       id="path18"
       d="m 370.85001,3155 h 120 c 0.66299,0 1.30075,0.1267 1.91333,0.3804 0.61258,0.2536 1.15329,0.615 1.62216,1.084 0.46878,0.4687 0.83005,1.0095 1.0838,1.622 0.25375,0.6126 0.38068,1.2503 0.38071,1.9136 v 100 c -3e-5,0.6628 -0.12693,1.3005 -0.38068,1.9131 -0.25375,0.6125 -0.61505,1.1533 -1.08383,1.6223 -0.46887,0.4685 -1.00958,0.8298 -1.62216,1.0837 -0.61258,0.2537 -1.25034,0.3807 -1.91333,0.3809 h -120 c -0.66306,-2e-4 -1.30088,-0.1272 -1.91346,-0.3809 -0.61258,-0.2539 -1.15329,-0.6152 -1.62213,-1.0837 -0.46884,-0.469 -0.83011,-1.0098 -1.08386,-1.6223 -0.25372,-0.6126 -0.38058,-1.2503 -0.38055,-1.9131 v -100 c -3e-5,-0.6633 0.12683,-1.301 0.38055,-1.9136 0.25375,-0.6125 0.61502,-1.1533 1.08386,-1.622 0.46884,-0.469 1.00952,-0.8304 1.6221,-1.084 0.61258,-0.2537 1.25043,-0.3804 1.91349,-0.3804 z"
       style="fill:#ffffff;fill-opacity:1;fill-rule:nonzero;stroke:#000000;stroke-width:1;stroke-linecap:butt;stroke-linejoin:miter;stroke-miterlimit:10;stroke-dasharray:none;stroke-opacity:1"
       transform="matrix(0.95180713,0,0,0.95180713,-325.89459,-2995.2889)"
       clip-path="url(#clipPath19)" />
    <text
       id="text19"
       xml:space="preserve"
       transform="matrix(0.95180713,0,0,0.95180713,28.460274,28.12638)"
       clip-path="url(#clipPath20)"><tspan
         id="tspan19"
         style="font-variant:normal;font-weight:normal;font-size:16px;font-family:Arial;writing-mode:lr-tb;fill:#000000;fill-opacity:1;fill-rule:nonzero;stroke:none"
         x="0"
         dx="0 0 0 0 0 0 0 0 0 0 -0.8828122"
         y="0">action1 : Action1</tspan></text>
  </g>
</svg>
