<?xml version="1.0" encoding="UTF-8" standalone="no"?>
<!-- Created with Inkscape (http://www.inkscape.org/) -->

<svg
   version="1.1"
   id="svg1"
   width="368"
   height="98.559998"
   viewBox="0 0 368 98.559998"
   xmlns="http://www.w3.org/2000/svg"
   xmlns:svg="http://www.w3.org/2000/svg">
  <defs
     id="defs1">
    <clipPath
       clipPathUnits="userSpaceOnUse"
       id="clipPath2">
      <path
         d="M 0,0 H 1149.0234 V 308.98438 H 0 Z"
         transform="scale(0.31999999)"
         clip-rule="evenodd"
         id="path2" />
    </clipPath>
    <clipPath
       clipPathUnits="userSpaceOnUse"
       id="clipPath4">
      <path
         d="m 3.125,0 h 1143.75 V 308.98438 H 3.125 Z"
         transform="matrix(0.3364338,0,0,0.3364338,1276.8745,3328.9996)"
         clip-rule="evenodd"
         id="path4" />
    </clipPath>
    <clipPath
       clipPathUnits="userSpaceOnUse"
       id="clipPath6">
      <path
         d="m 3.125,0 h 1143.75 V 308.98438 H 3.125 Z"
         transform="matrix(0.3364338,0,0,0.3364338,1276.8745,3328.9996)"
         clip-rule="evenodd"
         id="path6" />
    </clipPath>
    <clipPath
       clipPathUnits="userSpaceOnUse"
       id="clipPath7">
      <path
         d="m 3.125,0 h 1143.75 V 308.98438 H 3.125 Z"
         transform="matrix(0.3364338,0,0,0.3364338,-275.10988,-27.500375)"
         clip-rule="evenodd"
         id="path7" />
    </clipPath>
    <clipPath
       clipPathUnits="userSpaceOnUse"
       id="clipPath9">
      <path
         d="m 3.125,0 h 1143.75 V 308.98438 H 3.125 Z"
         transform="matrix(0.3364338,0,0,0.3364338,1276.8745,3328.9996)"
         clip-rule="evenodd"
         id="path9" />
    </clipPath>
    <clipPath
       clipPathUnits="userSpaceOnUse"
       id="clipPath10">
      <path
         d="m 3.125,0 h 1143.75 V 308.98438 H 3.125 Z"
         transform="matrix(0.3364338,0,0,0.3364338,-29.109889,-27.500375)"
         clip-rule="evenodd"
         id="path10" />
    </clipPath>
    <clipPath
       clipPathUnits="userSpaceOnUse"
       id="clipPath12">
      <path
         d="m 3.125,0 h 1143.75 V 308.98438 H 3.125 Z"
         transform="matrix(0.3364338,0,0,0.3364338,1276.8745,3328.9996)"
         clip-rule="evenodd"
         id="path12" />
    </clipPath>
    <clipPath
       clipPathUnits="userSpaceOnUse"
       id="clipPath13">
      <path
         d="m 3.125,0 h 1143.75 V 308.98438 H 3.125 Z"
         transform="matrix(0.31999999,0,0,0.31999999,-95.490218,-54.917874)"
         clip-rule="evenodd"
         id="path13" />
    </clipPath>
    <clipPath
       clipPathUnits="userSpaceOnUse"
       id="clipPath15">
      <path
         d="m 3.125,0 h 1143.75 V 308.98438 H 3.125 Z"
         transform="matrix(0.3364338,0,0,0.3364338,1276.8745,3328.9996)"
         clip-rule="evenodd"
         id="path15" />
    </clipPath>
    <clipPath
       clipPathUnits="userSpaceOnUse"
       id="clipPath17">
      <path
         d="m 3.125,0 h 1143.75 V 308.98438 H 3.125 Z"
         transform="matrix(0.3364338,0,0,0.3364338,1276.8745,3328.9996)"
         clip-rule="evenodd"
         id="path17" />
    </clipPath>
    <clipPath
       clipPathUnits="userSpaceOnUse"
       id="clipPath18">
      <path
         d="m 3.125,0 h 1143.75 V 308.98438 H 3.125 Z"
         transform="matrix(0.3364338,0,0,0.3364338,-155.62551,-25.500375)"
         clip-rule="evenodd"
         id="path18" />
    </clipPath>
    <clipPath
       clipPathUnits="userSpaceOnUse"
       id="clipPath19">
      <path
         d="m 3.125,0 h 1143.75 V 308.98438 H 3.125 Z"
         transform="matrix(0.3364338,0,0,0.3364338,-155.62551,-40.500375)"
         clip-rule="evenodd"
         id="path19" />
    </clipPath>
    <clipPath
       clipPathUnits="userSpaceOnUse"
       id="clipPath21">
      <path
         d="m 3.125,0 h 1143.75 V 308.98438 H 3.125 Z"
         transform="matrix(0.3364338,0,0,0.3364338,1276.8745,3328.9996)"
         clip-rule="evenodd"
         id="path21" />
    </clipPath>
    <clipPath
       clipPathUnits="userSpaceOnUse"
       id="clipPath22">
      <path
         d="m 3.125,0 h 1143.75 V 308.98438 H 3.125 Z"
         transform="matrix(0.31999999,0,0,0.31999999,-252.64646,-54.917874)"
         clip-rule="evenodd"
         id="path22" />
    </clipPath>
  </defs>
  <g
     id="g1">
    <path
       id="path1"
       d="M 0,0 H 368 V 99 H 0 Z"
       style="fill:#ffffff;fill-opacity:1;fill-rule:nonzero;stroke:none"
       clip-path="url(#clipPath2)" />
    <path
       id="path3"
       d="m 1280,3330 h 380 v 100.5 h -380 z"
       style="fill:#ffffff;fill-opacity:1;fill-rule:nonzero;stroke:#ffffff;stroke-width:1;stroke-linecap:butt;stroke-linejoin:miter;stroke-miterlimit:10;stroke-dasharray:none;stroke-opacity:1"
       transform="matrix(0.95115292,0,0,0.95115292,-1214.5029,-3166.3877)"
       clip-path="url(#clipPath4)" />
    <path
       id="path5"
       d="m 1541,3335.25 h 110 c 0.6628,0 1.3005,0.1267 1.9131,0.3804 0.6127,0.2536 1.1534,0.615 1.6223,1.084 0.4689,0.4687 0.8301,1.0095 1.0837,1.622 0.2538,0.6126 0.3808,1.2503 0.3809,1.9136 v 80 c -10e-5,0.6628 -0.1272,1.3005 -0.381,1.9131 -0.2535,0.6125 -0.6147,1.1533 -1.0836,1.6223 -0.4689,0.4685 -1.0096,0.8298 -1.6222,1.0837 -0.6127,0.2537 -1.2504,0.3807 -1.9132,0.3809 h -110 c -0.6632,-2e-4 -1.301,-0.1272 -1.9136,-0.3809 -0.6126,-0.2539 -1.1533,-0.6152 -1.622,-1.0837 -0.4689,-0.469 -0.8302,-1.0098 -1.084,-1.6223 -0.2538,-0.6126 -0.3805,-1.2503 -0.3804,-1.9131 v -80 c -10e-5,-0.6633 0.1266,-1.301 0.3804,-1.9136 0.2538,-0.6125 0.6151,-1.1533 1.084,-1.622 0.4687,-0.469 1.0094,-0.8304 1.622,-1.084 0.6126,-0.2537 1.2504,-0.3804 1.9136,-0.3804 z"
       style="fill:#ffffff;fill-opacity:1;fill-rule:nonzero;stroke:#000000;stroke-width:1;stroke-linecap:butt;stroke-linejoin:miter;stroke-miterlimit:10;stroke-dasharray:none;stroke-opacity:1"
       transform="matrix(0.95115292,0,0,0.95115292,-1214.5029,-3166.3877)"
       clip-path="url(#clipPath6)" />
    <text
       id="text6"
       xml:space="preserve"
       transform="matrix(0.95115292,0,0,0.95115292,261.67157,26.157062)"
       clip-path="url(#clipPath7)"><tspan
         id="tspan6"
         style="font-variant:normal;font-weight:normal;font-size:16px;font-family:Arial;writing-mode:lr-tb;fill:#000000;fill-opacity:1;fill-rule:nonzero;stroke:none"
         x="0"
         y="0">part2 : Part2</tspan></text>
    <path
       id="path8"
       d="m 1290,3335.25 h 120 c 0.663,0 1.3007,0.1267 1.9133,0.3804 0.6126,0.2536 1.1534,0.615 1.6222,1.084 0.4689,0.4687 0.8301,1.0095 1.0838,1.622 0.2538,0.6126 0.3806,1.2503 0.3807,1.9136 v 80 c -10e-5,0.6628 -0.1269,1.3005 -0.3807,1.9131 -0.2537,0.6125 -0.6149,1.1533 -1.0838,1.6223 -0.4688,0.4685 -1.0096,0.8298 -1.6222,1.0837 -0.6126,0.2537 -1.2503,0.3807 -1.9133,0.3809 h -120 c -0.6632,-2e-4 -1.301,-0.1272 -1.9134,-0.3809 -0.6127,-0.2539 -1.1534,-0.6152 -1.6221,-1.0837 -0.4689,-0.469 -0.8302,-1.0098 -1.084,-1.6223 -0.2538,-0.6126 -0.3806,-1.2503 -0.3805,-1.9131 v -80 c -10e-5,-0.6633 0.1267,-1.301 0.3805,-1.9136 0.2538,-0.6125 0.6151,-1.1533 1.084,-1.622 0.4687,-0.469 1.0094,-0.8304 1.6221,-1.084 0.6124,-0.2537 1.2502,-0.3804 1.9134,-0.3804 z"
       style="fill:#ffffff;fill-opacity:1;fill-rule:nonzero;stroke:#000000;stroke-width:1;stroke-linecap:butt;stroke-linejoin:miter;stroke-miterlimit:10;stroke-dasharray:none;stroke-opacity:1"
       transform="matrix(0.95115292,0,0,0.95115292,-1214.5029,-3166.3877)"
       clip-path="url(#clipPath9)" />
    <text
       id="text9"
       xml:space="preserve"
       transform="matrix(0.95115292,0,0,0.95115292,27.687956,26.157062)"
       clip-path="url(#clipPath10)"><tspan
         id="tspan9"
         style="font-variant:normal;font-weight:normal;font-size:16px;font-family:Arial;writing-mode:lr-tb;fill:#000000;fill-opacity:1;fill-rule:nonzero;stroke:none"
         x="0"
         y="0">part1 : Part1</tspan></text>
    <path
       id="path11"
       d="m 1420,3380.25 c -10e-5,0.6628 -0.1271,1.3005 -0.3809,1.9131 -0.2536,0.6125 -0.6148,1.1533 -1.0837,1.6223 -0.4689,0.4688 -1.0096,0.8301 -1.6221,1.0837 -0.6126,0.2537 -1.2503,0.3807 -1.9133,0.3809 -0.6632,-2e-4 -1.301,-0.1272 -1.9136,-0.3809 -0.6126,-0.2536 -1.1533,-0.6149 -1.622,-1.0837 -0.469,-0.469 -0.8304,-1.0098 -1.0839,-1.6223 -0.2538,-0.6126 -0.3806,-1.2503 -0.3805,-1.9131 -10e-5,-0.6633 0.1267,-1.3013 0.3805,-1.9138 0.2535,-0.6128 0.6149,-1.1536 1.0839,-1.6221 0.4687,-0.469 1.0094,-0.8301 1.622,-1.0837 0.6126,-0.2537 1.2504,-0.3804 1.9136,-0.3804 0.663,0 1.3007,0.1267 1.9133,0.3801 0.6125,0.2537 1.1532,0.615 1.6221,1.084 0.4689,0.4685 0.8301,1.0093 1.0837,1.6221 0.2538,0.6125 0.3808,1.2505 0.3809,1.9138 z"
       style="fill:#000000;fill-opacity:1;fill-rule:nonzero;stroke:#000000;stroke-width:1;stroke-linecap:butt;stroke-linejoin:miter;stroke-miterlimit:10;stroke-dasharray:none;stroke-opacity:1"
       transform="matrix(0.95115292,0,0,0.95115292,-1214.5029,-3166.3877)"
       clip-path="url(#clipPath12)" />
    <text
       id="text12"
       xml:space="preserve"
       transform="translate(95.490218,54.917874)"
       clip-path="url(#clipPath13)"><tspan
         id="tspan12"
         style="font-variant:normal;font-weight:normal;font-size:15.21px;font-family:Arial;writing-mode:lr-tb;fill:#000000;fill-opacity:1;fill-rule:nonzero;stroke:none"
         x="0"
         y="0">.ev1</tspan></text>
    <path
       id="path14"
       d="m 1420.2,3379.71 102.93,0.5"
       style="fill:none;stroke:#000000;stroke-width:1;stroke-linecap:butt;stroke-linejoin:miter;stroke-miterlimit:10;stroke-dasharray:none;stroke-opacity:1"
       transform="matrix(0.95115292,0,0,0.95115292,-1214.5029,-3166.3877)"
       clip-path="url(#clipPath15)" />
    <path
       id="path16"
       d="m 1529.88,3380.24 -9.02,4.46 2.27,-4.49 -2.23,-4.51 z"
       style="fill:none;stroke:#000000;stroke-width:1;stroke-linecap:butt;stroke-linejoin:miter;stroke-miterlimit:10;stroke-dasharray:none;stroke-opacity:1"
       transform="matrix(0.95115292,0,0,0.95115292,-1214.5029,-3166.3877)"
       clip-path="url(#clipPath17)" />
    <text
       id="text17"
       xml:space="preserve"
       transform="matrix(0.95115292,0,0,0.95115292,148.02366,24.254756)"
       clip-path="url(#clipPath18)"><tspan
         id="tspan17"
         style="font-variant:normal;font-weight:normal;font-size:12px;font-family:Arial;writing-mode:lr-tb;fill:#000000;fill-opacity:1;fill-rule:nonzero;stroke:none"
         x="0"
         y="0">«message»</tspan></text>
    <text
       id="text18"
       xml:space="preserve"
       transform="matrix(0.95115292,0,0,0.95115292,148.02366,38.52205)"
       clip-path="url(#clipPath19)"><tspan
         id="tspan18"
         style="font-variant:normal;font-weight:normal;font-size:12px;font-family:Arial;writing-mode:lr-tb;fill:#000000;fill-opacity:1;fill-rule:nonzero;stroke:none"
         x="0"
         y="0">of item1 : Item1</tspan></text>
    <path
       id="path20"
       d="m 1541,3380.25 c -10e-5,0.6628 -0.1271,1.3005 -0.3809,1.9131 -0.2537,0.6125 -0.6151,1.1533 -1.0838,1.6223 -0.4689,0.4688 -1.0095,0.8301 -1.6221,1.0837 -0.6125,0.2537 -1.2502,0.3807 -1.9132,0.3809 -0.6632,-2e-4 -1.301,-0.1272 -1.9136,-0.3809 -0.6126,-0.2536 -1.1533,-0.6149 -1.6219,-1.0837 -0.4689,-0.469 -0.8302,-1.0098 -1.084,-1.6223 -0.2538,-0.6126 -0.3806,-1.2503 -0.3805,-1.9131 -10e-5,-0.6633 0.1267,-1.3013 0.3804,-1.9138 0.2538,-0.6128 0.6152,-1.1536 1.0841,-1.6221 0.4686,-0.469 1.0093,-0.8301 1.6219,-1.0837 0.6126,-0.2537 1.2504,-0.3804 1.9136,-0.3804 0.663,0 1.3007,0.1267 1.9131,0.3801 0.6127,0.2537 1.1533,0.615 1.6222,1.084 0.4687,0.4685 0.8301,1.0093 1.0838,1.6221 0.2538,0.6125 0.3808,1.2505 0.3809,1.9138 z"
       style="fill:#000000;fill-opacity:1;fill-rule:nonzero;stroke:#000000;stroke-width:1;stroke-linecap:butt;stroke-linejoin:miter;stroke-miterlimit:10;stroke-dasharray:none;stroke-opacity:1"
       transform="matrix(0.95115292,0,0,0.95115292,-1214.5029,-3166.3877)"
       clip-path="url(#clipPath21)" />
    <text
       id="text21"
       xml:space="preserve"
       transform="translate(252.64646,54.917874)"
       clip-path="url(#clipPath22)"><tspan
         id="tspan21"
         style="font-variant:normal;font-weight:normal;font-size:15.21px;font-family:Arial;writing-mode:lr-tb;fill:#000000;fill-opacity:1;fill-rule:nonzero;stroke:none"
         x="0"
         y="0">.ev2</tspan></text>
  </g>
</svg>
