<?xml version="1.0" encoding="UTF-8" standalone="no"?>
<!-- Created with Inkscape (http://www.inkscape.org/) -->

<svg
   version="1.1"
   id="svg1"
   width="472"
   height="481.28"
   viewBox="0 0 472 481.28"
   xmlns="http://www.w3.org/2000/svg"
   xmlns:svg="http://www.w3.org/2000/svg">
  <defs
     id="defs1">
    <clipPath
       clipPathUnits="userSpaceOnUse"
       id="clipPath2">
      <path
         d="M 0,0 H 1475.9766 V 1502.9785 H 0 Z"
         transform="scale(0.31999999)"
         clip-rule="evenodd"
         id="path2" />
    </clipPath>
    <clipPath
       clipPathUnits="userSpaceOnUse"
       id="clipPath4">
      <path
         d="m 3.125,3.125 h 1468.75 V 1500 H 3.125 Z"
         transform="matrix(0.3362378,0,0,0.3362378,77.391942,-2172.6015)"
         clip-rule="evenodd"
         id="path4" />
    </clipPath>
    <clipPath
       clipPathUnits="userSpaceOnUse"
       id="clipPath6">
      <path
         d="m 3.125,3.125 h 1468.75 V 1500 H 3.125 Z"
         transform="matrix(0.3362378,0,0,0.3362378,77.391942,-2172.6015)"
         clip-rule="evenodd"
         id="path6" />
    </clipPath>
    <clipPath
       clipPathUnits="userSpaceOnUse"
       id="clipPath8">
      <path
         d="m 3.125,3.125 h 1468.75 V 1500 H 3.125 Z"
         transform="matrix(0.3362378,0,0,0.3362378,77.391942,-2172.6015)"
         clip-rule="evenodd"
         id="path8" />
    </clipPath>
    <clipPath
       clipPathUnits="userSpaceOnUse"
       id="clipPath9">
      <path
         d="m 3.125,3.125 h 1468.75 V 1500 H 3.125 Z"
         transform="matrix(0.3362378,0,0,0.3362378,-382.35806,-44.101435)"
         clip-rule="evenodd"
         id="path9" />
    </clipPath>
    <clipPath
       clipPathUnits="userSpaceOnUse"
       id="clipPath10">
      <path
         d="m 3.125,3.125 h 1468.75 V 1500 H 3.125 Z"
         transform="matrix(0.3362378,0,0,0.3362378,-353.90495,-63.101436)"
         clip-rule="evenodd"
         id="path10" />
    </clipPath>
    <clipPath
       clipPathUnits="userSpaceOnUse"
       id="clipPath12">
      <path
         d="m 3.125,3.125 h 1468.75 V 1500 H 3.125 Z"
         transform="matrix(0.3362378,0,0,0.3362378,77.391942,-2172.6015)"
         clip-rule="evenodd"
         id="path12" />
    </clipPath>
    <clipPath
       clipPathUnits="userSpaceOnUse"
       id="clipPath14">
      <path
         d="m 3.125,3.125 h 1468.75 V 1500 H 3.125 Z"
         transform="matrix(0.3362378,0,0,0.3362378,77.391942,-2172.6015)"
         clip-rule="evenodd"
         id="path14" />
    </clipPath>
    <clipPath
       clipPathUnits="userSpaceOnUse"
       id="clipPath16">
      <path
         d="m 3.125,3.125 h 1468.75 V 1500 H 3.125 Z"
         transform="matrix(0.3362378,0,0,0.3362378,77.891938,-2172.1014)"
         clip-rule="evenodd"
         id="path16" />
    </clipPath>
    <clipPath
       clipPathUnits="userSpaceOnUse"
       id="clipPath18">
      <path
         d="m 3.125,3.125 h 1468.75 V 1500 H 3.125 Z"
         transform="matrix(0.3362378,0,0,0.3362378,77.891938,-2172.1014)"
         clip-rule="evenodd"
         id="path18" />
    </clipPath>
    <clipPath
       clipPathUnits="userSpaceOnUse"
       id="clipPath19">
      <path
         d="m 3.125,3.125 h 1468.75 V 1500 H 3.125 Z"
         transform="matrix(0.3362378,0,0,0.3362378,-167.93619,-67.101435)"
         clip-rule="evenodd"
         id="path19" />
    </clipPath>
    <clipPath
       clipPathUnits="userSpaceOnUse"
       id="clipPath21">
      <path
         d="m 3.125,3.125 h 1468.75 V 1500 H 3.125 Z"
         transform="matrix(0.3362378,0,0,0.3362378,77.891938,-2172.1014)"
         clip-rule="evenodd"
         id="path21" />
    </clipPath>
    <clipPath
       clipPathUnits="userSpaceOnUse"
       id="clipPath23">
      <path
         d="m 3.125,3.125 h 1468.75 V 1500 H 3.125 Z"
         transform="matrix(0.3362378,0,0,0.3362378,77.891938,-2172.1014)"
         clip-rule="evenodd"
         id="path23" />
    </clipPath>
    <clipPath
       clipPathUnits="userSpaceOnUse"
       id="clipPath24">
      <path
         d="m 3.125,3.125 h 1468.75 V 1500 H 3.125 Z"
         transform="matrix(0.3362378,0,0,0.3362378,-267.93619,-67.101435)"
         clip-rule="evenodd"
         id="path24" />
    </clipPath>
    <clipPath
       clipPathUnits="userSpaceOnUse"
       id="clipPath26">
      <path
         d="m 3.125,3.125 h 1468.75 V 1500 H 3.125 Z"
         transform="matrix(0.3362378,0,0,0.3362378,77.391942,-2172.6015)"
         clip-rule="evenodd"
         id="path26" />
    </clipPath>
    <clipPath
       clipPathUnits="userSpaceOnUse"
       id="clipPath28">
      <path
         d="m 3.125,3.125 h 1468.75 V 1500 H 3.125 Z"
         transform="matrix(0.3362378,0,0,0.3362378,77.391942,-2172.6015)"
         clip-rule="evenodd"
         id="path28" />
    </clipPath>
    <clipPath
       clipPathUnits="userSpaceOnUse"
       id="clipPath30">
      <path
         d="m 3.125,3.125 h 1468.75 V 1500 H 3.125 Z"
         transform="matrix(0.3362378,0,0,0.3362378,77.391942,-2172.6015)"
         clip-rule="evenodd"
         id="path30" />
    </clipPath>
    <clipPath
       clipPathUnits="userSpaceOnUse"
       id="clipPath32">
      <path
         d="m 3.125,3.125 h 1468.75 V 1500 H 3.125 Z"
         transform="matrix(0.3362378,0,0,0.3362378,77.391942,-2172.6015)"
         clip-rule="evenodd"
         id="path32" />
    </clipPath>
    <clipPath
       clipPathUnits="userSpaceOnUse"
       id="clipPath33">
      <path
         d="m 3.125,3.125 h 1468.75 V 1500 H 3.125 Z"
         transform="matrix(0.3362378,0,0,0.3362378,-222.48307,-184.10144)"
         clip-rule="evenodd"
         id="path33" />
    </clipPath>
    <clipPath
       clipPathUnits="userSpaceOnUse"
       id="clipPath34">
      <path
         d="m 3.125,3.125 h 1468.75 V 1500 H 3.125 Z"
         transform="matrix(0.3362378,0,0,0.3362378,-153.9987,-203.10144)"
         clip-rule="evenodd"
         id="path34" />
    </clipPath>
    <clipPath
       clipPathUnits="userSpaceOnUse"
       id="clipPath35">
      <path
         d="m 226.3519,639.72998 h 8.92224 v 44.61133 h -8.92224 z"
         transform="matrix(0.3362378,0,0,0.3362378,-76.108063,-226.10144)"
         clip-rule="evenodd"
         id="path35" />
    </clipPath>
    <clipPath
       clipPathUnits="userSpaceOnUse"
       id="clipPath37">
      <path
         d="m 3.125,3.125 h 1468.75 V 1500 H 3.125 Z"
         transform="matrix(0.3362378,0,0,0.3362378,77.391942,-2172.6015)"
         clip-rule="evenodd"
         id="path37" />
    </clipPath>
    <clipPath
       clipPathUnits="userSpaceOnUse"
       id="clipPath39">
      <path
         d="m 3.125,3.125 h 1468.75 V 1500 H 3.125 Z"
         transform="matrix(0.3362378,0,0,0.3362378,77.391942,-2172.6015)"
         clip-rule="evenodd"
         id="path39" />
    </clipPath>
    <clipPath
       clipPathUnits="userSpaceOnUse"
       id="clipPath40">
      <path
         d="m 3.125,3.125 h 1468.75 V 1500 H 3.125 Z"
         transform="matrix(0.3362378,0,0,0.3362378,-99.248692,-250.10143)"
         clip-rule="evenodd"
         id="path40" />
    </clipPath>
    <clipPath
       clipPathUnits="userSpaceOnUse"
       id="clipPath42">
      <path
         d="m 3.125,3.125 h 1468.75 V 1500 H 3.125 Z"
         transform="matrix(0.3362378,0,0,0.3362378,77.391942,-2172.6015)"
         clip-rule="evenodd"
         id="path42" />
    </clipPath>
    <clipPath
       clipPathUnits="userSpaceOnUse"
       id="clipPath44">
      <path
         d="m 3.125,3.125 h 1468.75 V 1500 H 3.125 Z"
         transform="matrix(0.3362378,0,0,0.3362378,77.391942,-2172.6015)"
         clip-rule="evenodd"
         id="path44" />
    </clipPath>
    <clipPath
       clipPathUnits="userSpaceOnUse"
       id="clipPath45">
      <path
         d="m 3.125,3.125 h 1468.75 V 1500 H 3.125 Z"
         transform="matrix(0.3362378,0,0,0.3362378,-102.59244,-275.10144)"
         clip-rule="evenodd"
         id="path45" />
    </clipPath>
    <clipPath
       clipPathUnits="userSpaceOnUse"
       id="clipPath46">
      <path
         d="m 3.125,3.125 h 1468.75 V 1500 H 3.125 Z"
         transform="matrix(0.3362378,0,0,0.3362378,-98.108062,-289.10143)"
         clip-rule="evenodd"
         id="path46" />
    </clipPath>
    <clipPath
       clipPathUnits="userSpaceOnUse"
       id="clipPath48">
      <path
         d="m 3.125,3.125 h 1468.75 V 1500 H 3.125 Z"
         transform="matrix(0.3362378,0,0,0.3362378,77.391942,-2172.6015)"
         clip-rule="evenodd"
         id="path48" />
    </clipPath>
    <clipPath
       clipPathUnits="userSpaceOnUse"
       id="clipPath49">
      <path
         d="m 3.125,3.125 h 1468.75 V 1500 H 3.125 Z"
         transform="matrix(0.31999999,0,0,0.31999999,-111.43216,-304.65808)"
         clip-rule="evenodd"
         id="path49" />
    </clipPath>
    <clipPath
       clipPathUnits="userSpaceOnUse"
       id="clipPath50">
      <path
         d="m 3.125,3.125 h 1468.75 V 1500 H 3.125 Z"
         transform="matrix(0.31999999,0,0,0.31999999,-105.08841,-317.97058)"
         clip-rule="evenodd"
         id="path50" />
    </clipPath>
    <clipPath
       clipPathUnits="userSpaceOnUse"
       id="clipPath52">
      <path
         d="m 3.125,3.125 h 1468.75 V 1500 H 3.125 Z"
         transform="matrix(0.3362378,0,0,0.3362378,77.391942,-2172.6015)"
         clip-rule="evenodd"
         id="path52" />
    </clipPath>
    <clipPath
       clipPathUnits="userSpaceOnUse"
       id="clipPath53">
      <path
         d="m 3.125,3.125 h 1468.75 V 1500 H 3.125 Z"
         transform="matrix(0.31999999,0,0,0.31999999,-111.43216,-347.47058)"
         clip-rule="evenodd"
         id="path53" />
    </clipPath>
    <clipPath
       clipPathUnits="userSpaceOnUse"
       id="clipPath54">
      <path
         d="m 3.125,3.125 h 1468.75 V 1500 H 3.125 Z"
         transform="matrix(0.31999999,0,0,0.31999999,-105.08841,-360.79868)"
         clip-rule="evenodd"
         id="path54" />
    </clipPath>
    <clipPath
       clipPathUnits="userSpaceOnUse"
       id="clipPath56">
      <path
         d="m 3.125,3.125 h 1468.75 V 1500 H 3.125 Z"
         transform="matrix(0.3362378,0,0,0.3362378,77.391942,-2172.6015)"
         clip-rule="evenodd"
         id="path56" />
    </clipPath>
    <clipPath
       clipPathUnits="userSpaceOnUse"
       id="clipPath57">
      <path
         d="m 3.125,3.125 h 1468.75 V 1500 H 3.125 Z"
         transform="matrix(0.31999999,0,0,0.31999999,-111.43216,-390.29873)"
         clip-rule="evenodd"
         id="path57" />
    </clipPath>
    <clipPath
       clipPathUnits="userSpaceOnUse"
       id="clipPath58">
      <path
         d="m 3.125,3.125 h 1468.75 V 1500 H 3.125 Z"
         transform="matrix(0.31999999,0,0,0.31999999,-105.08841,-403.62685)"
         clip-rule="evenodd"
         id="path58" />
    </clipPath>
    <clipPath
       clipPathUnits="userSpaceOnUse"
       id="clipPath60">
      <path
         d="m 3.125,3.125 h 1468.75 V 1500 H 3.125 Z"
         transform="matrix(0.3362378,0,0,0.3362378,77.391942,-2172.6015)"
         clip-rule="evenodd"
         id="path60" />
    </clipPath>
    <clipPath
       clipPathUnits="userSpaceOnUse"
       id="clipPath62">
      <path
         d="m 3.125,3.125 h 1468.75 V 1500 H 3.125 Z"
         transform="matrix(0.3362378,0,0,0.3362378,77.391942,-2172.6015)"
         clip-rule="evenodd"
         id="path62" />
    </clipPath>
    <clipPath
       clipPathUnits="userSpaceOnUse"
       id="clipPath63">
      <path
         d="m 3.125,3.125 h 1468.75 V 1500 H 3.125 Z"
         transform="matrix(0.3362378,0,0,0.3362378,-319.92056,-250.10143)"
         clip-rule="evenodd"
         id="path63" />
    </clipPath>
    <clipPath
       clipPathUnits="userSpaceOnUse"
       id="clipPath65">
      <path
         d="m 3.125,3.125 h 1468.75 V 1500 H 3.125 Z"
         transform="matrix(0.3362378,0,0,0.3362378,77.391942,-2172.6015)"
         clip-rule="evenodd"
         id="path65" />
    </clipPath>
    <clipPath
       clipPathUnits="userSpaceOnUse"
       id="clipPath67">
      <path
         d="m 3.125,3.125 h 1468.75 V 1500 H 3.125 Z"
         transform="matrix(0.3362378,0,0,0.3362378,77.391942,-2172.6015)"
         clip-rule="evenodd"
         id="path67" />
    </clipPath>
    <clipPath
       clipPathUnits="userSpaceOnUse"
       id="clipPath68">
      <path
         d="m 3.125,3.125 h 1468.75 V 1500 H 3.125 Z"
         transform="matrix(0.3362378,0,0,0.3362378,-316.92056,-275.10144)"
         clip-rule="evenodd"
         id="path68" />
    </clipPath>
    <clipPath
       clipPathUnits="userSpaceOnUse"
       id="clipPath69">
      <path
         d="m 3.125,3.125 h 1468.75 V 1500 H 3.125 Z"
         transform="matrix(0.3362378,0,0,0.3362378,-316.10807,-289.10143)"
         clip-rule="evenodd"
         id="path69" />
    </clipPath>
    <clipPath
       clipPathUnits="userSpaceOnUse"
       id="clipPath71">
      <path
         d="m 3.125,3.125 h 1468.75 V 1500 H 3.125 Z"
         transform="matrix(0.3362378,0,0,0.3362378,77.391942,-2172.6015)"
         clip-rule="evenodd"
         id="path71" />
    </clipPath>
    <clipPath
       clipPathUnits="userSpaceOnUse"
       id="clipPath72">
      <path
         d="m 3.125,3.125 h 1468.75 V 1500 H 3.125 Z"
         transform="matrix(0.31999999,0,0,0.31999999,-318.82278,-304.65808)"
         clip-rule="evenodd"
         id="path72" />
    </clipPath>
    <clipPath
       clipPathUnits="userSpaceOnUse"
       id="clipPath73">
      <path
         d="m 3.125,3.125 h 1468.75 V 1500 H 3.125 Z"
         transform="matrix(0.31999999,0,0,0.31999999,-312.4634,-317.97058)"
         clip-rule="evenodd"
         id="path73" />
    </clipPath>
    <clipPath
       clipPathUnits="userSpaceOnUse"
       id="clipPath75">
      <path
         d="m 3.125,3.125 h 1468.75 V 1500 H 3.125 Z"
         transform="matrix(0.3362378,0,0,0.3362378,77.391942,-2172.6015)"
         clip-rule="evenodd"
         id="path75" />
    </clipPath>
    <clipPath
       clipPathUnits="userSpaceOnUse"
       id="clipPath76">
      <path
         d="m 3.125,3.125 h 1468.75 V 1500 H 3.125 Z"
         transform="matrix(0.31999999,0,0,0.31999999,-318.82278,-347.47058)"
         clip-rule="evenodd"
         id="path76" />
    </clipPath>
    <clipPath
       clipPathUnits="userSpaceOnUse"
       id="clipPath77">
      <path
         d="m 3.125,3.125 h 1468.75 V 1500 H 3.125 Z"
         transform="matrix(0.31999999,0,0,0.31999999,-312.4634,-360.79868)"
         clip-rule="evenodd"
         id="path77" />
    </clipPath>
    <clipPath
       clipPathUnits="userSpaceOnUse"
       id="clipPath79">
      <path
         d="m 3.125,3.125 h 1468.75 V 1500 H 3.125 Z"
         transform="matrix(0.3362378,0,0,0.3362378,77.391942,-2172.6015)"
         clip-rule="evenodd"
         id="path79" />
    </clipPath>
    <clipPath
       clipPathUnits="userSpaceOnUse"
       id="clipPath80">
      <path
         d="m 3.125,3.125 h 1468.75 V 1500 H 3.125 Z"
         transform="matrix(0.31999999,0,0,0.31999999,-318.82278,-390.29873)"
         clip-rule="evenodd"
         id="path80" />
    </clipPath>
    <clipPath
       clipPathUnits="userSpaceOnUse"
       id="clipPath81">
      <path
         d="m 3.125,3.125 h 1468.75 V 1500 H 3.125 Z"
         transform="matrix(0.31999999,0,0,0.31999999,-312.4634,-403.62685)"
         clip-rule="evenodd"
         id="path81" />
    </clipPath>
    <clipPath
       clipPathUnits="userSpaceOnUse"
       id="clipPath83">
      <path
         d="m 3.125,3.125 h 1468.75 V 1500 H 3.125 Z"
         transform="matrix(0.3362378,0,0,0.3362378,77.391942,-2172.6015)"
         clip-rule="evenodd"
         id="path83" />
    </clipPath>
    <clipPath
       clipPathUnits="userSpaceOnUse"
       id="clipPath85">
      <path
         d="m 3.125,3.125 h 1468.75 V 1500 H 3.125 Z"
         transform="matrix(0.3362378,0,0,0.3362378,77.391942,-2172.6015)"
         clip-rule="evenodd"
         id="path85" />
    </clipPath>
    <clipPath
       clipPathUnits="userSpaceOnUse"
       id="clipPath87">
      <path
         d="m 3.125,3.125 h 1468.75 V 1500 H 3.125 Z"
         transform="matrix(0.3362378,0,0,0.3362378,77.391942,-2172.6015)"
         clip-rule="evenodd"
         id="path87" />
    </clipPath>
    <clipPath
       clipPathUnits="userSpaceOnUse"
       id="clipPath89">
      <path
         d="m 3.125,3.125 h 1468.75 V 1500 H 3.125 Z"
         transform="matrix(0.3362378,0,0,0.3362378,77.391942,-2172.6015)"
         clip-rule="evenodd"
         id="path89" />
    </clipPath>
    <clipPath
       clipPathUnits="userSpaceOnUse"
       id="clipPath91">
      <path
         d="m 3.125,3.125 h 1468.75 V 1500 H 3.125 Z"
         transform="matrix(0.3362378,0,0,0.3362378,77.391942,-2172.6015)"
         clip-rule="evenodd"
         id="path91" />
    </clipPath>
    <clipPath
       clipPathUnits="userSpaceOnUse"
       id="clipPath93">
      <path
         d="m 3.125,3.125 h 1468.75 V 1500 H 3.125 Z"
         transform="matrix(0.3362378,0,0,0.3362378,77.391942,-2172.6015)"
         clip-rule="evenodd"
         id="path93" />
    </clipPath>
    <clipPath
       clipPathUnits="userSpaceOnUse"
       id="clipPath95">
      <path
         d="m 3.125,3.125 h 1468.75 V 1500 H 3.125 Z"
         transform="matrix(0.3362378,0,0,0.3362378,77.391942,-2172.6015)"
         clip-rule="evenodd"
         id="path95" />
    </clipPath>
    <clipPath
       clipPathUnits="userSpaceOnUse"
       id="clipPath97">
      <path
         d="m 3.125,3.125 h 1468.75 V 1500 H 3.125 Z"
         transform="matrix(0.3362378,0,0,0.3362378,77.391942,-2172.6015)"
         clip-rule="evenodd"
         id="path97" />
    </clipPath>
    <clipPath
       clipPathUnits="userSpaceOnUse"
       id="clipPath99">
      <path
         d="m 3.125,3.125 h 1468.75 V 1500 H 3.125 Z"
         transform="matrix(0.3362378,0,0,0.3362378,77.391942,-2172.6015)"
         clip-rule="evenodd"
         id="path99" />
    </clipPath>
    <clipPath
       clipPathUnits="userSpaceOnUse"
       id="clipPath101">
      <path
         d="m 3.125,3.125 h 1468.75 V 1500 H 3.125 Z"
         transform="matrix(0.3362378,0,0,0.3362378,77.391942,-2172.6015)"
         clip-rule="evenodd"
         id="path101" />
    </clipPath>
    <clipPath
       clipPathUnits="userSpaceOnUse"
       id="clipPath103">
      <path
         d="m 3.125,3.125 h 1468.75 V 1500 H 3.125 Z"
         transform="matrix(0.3362378,0,0,0.3362378,77.391942,-2172.6015)"
         clip-rule="evenodd"
         id="path103" />
    </clipPath>
    <clipPath
       clipPathUnits="userSpaceOnUse"
       id="clipPath105">
      <path
         d="m 3.125,3.125 h 1468.75 V 1500 H 3.125 Z"
         transform="matrix(0.3362378,0,0,0.3362378,77.391942,-2172.6015)"
         clip-rule="evenodd"
         id="path105" />
    </clipPath>
    <clipPath
       clipPathUnits="userSpaceOnUse"
       id="clipPath106">
      <path
         d="m 3.125,3.125 h 1468.75 V 1500 H 3.125 Z"
         transform="matrix(0.3362378,0,0,0.3362378,-58.358062,-49.101435)"
         clip-rule="evenodd"
         id="path106" />
    </clipPath>
    <clipPath
       clipPathUnits="userSpaceOnUse"
       id="clipPath107">
      <path
         d="m 3.125,3.125 h 1468.75 V 1500 H 3.125 Z"
         transform="matrix(0.3362378,0,0,0.3362378,-29.904938,-68.101436)"
         clip-rule="evenodd"
         id="path107" />
    </clipPath>
  </defs>
  <g
     id="g1">
    <path
       id="path1"
       d="M 0,0 H 472 V 481 H 0 Z"
       style="fill:#ffffff;fill-opacity:1;fill-rule:nonzero;stroke:none"
       clip-path="url(#clipPath2)" />
    <path
       id="path3"
       d="m 80,-2170 h 490.76001 v 500 H 80 Z"
       style="fill:#ffffff;fill-opacity:1;fill-rule:nonzero;stroke:none"
       transform="matrix(0.95170735,0,0,0.95170735,-73.65448,2067.6808)"
       clip-path="url(#clipPath4)" />
    <path
       id="path5"
       d="m 412.51999,-2100 h 14 c 0.3978,2e-4 0.78046,0.076 1.14798,0.2285 0.36755,0.1521 0.69198,0.3689 0.97333,0.6502 0.28125,0.2815 0.49801,0.6059 0.65026,0.9734 0.15226,0.3674 0.2284,0.7502 0.22843,1.1479 v 14 c -3e-5,0.3979 -0.0762,0.7808 -0.22846,1.1482 -0.15225,0.3674 -0.36898,0.6919 -0.65023,0.9731 -0.28135,0.2815 -0.60578,0.4983 -0.97333,0.6504 -0.36752,0.1521 -0.75018,0.2283 -1.14798,0.2283 h -14 c -0.39786,0 -0.78055,-0.076 -1.14807,-0.2283 -0.36756,-0.1521 -0.69199,-0.3689 -0.97327,-0.6504 -0.28134,-0.2812 -0.49814,-0.6057 -0.65033,-0.9731 -0.15225,-0.3674 -0.22836,-0.7503 -0.22833,-1.1482 v -14 c -3e-5,-0.3977 0.0761,-0.7803 0.22833,-1.1477 0.15219,-0.3677 0.36899,-0.6921 0.65033,-0.9736 0.28128,-0.2813 0.60571,-0.4981 0.97327,-0.6502 0.36752,-0.1521 0.75021,-0.2283 1.14807,-0.2285 z"
       style="fill:#ffffff;fill-opacity:1;fill-rule:nonzero;stroke:#000000;stroke-width:1;stroke-linecap:butt;stroke-linejoin:miter;stroke-miterlimit:10;stroke-dasharray:none;stroke-opacity:1"
       transform="matrix(0.95170735,0,0,0.95170735,-73.65448,2067.6808)"
       clip-path="url(#clipPath6)" />
    <path
       id="path7"
       d="m 432.98999,-2150 h 115 c 0.66303,2e-4 1.30078,0.1272 1.91333,0.3809 0.61255,0.2539 1.15326,0.6152 1.62213,1.0837 0.46881,0.469 0.83008,1.0098 1.08386,1.6223 0.25373,0.6126 0.38062,1.2503 0.38068,1.9131 v 100 c -6e-5,0.6632 -0.12695,1.301 -0.38068,1.9137 -0.25378,0.6125 -0.61505,1.1532 -1.08386,1.6219 -0.46887,0.4689 -1.00958,0.8302 -1.62213,1.0839 -0.61255,0.2537 -1.2503,0.3805 -1.91333,0.3805 h -115 c -0.66306,0 -1.30087,-0.1268 -1.91345,-0.3805 -0.61258,-0.2537 -1.15326,-0.615 -1.6221,-1.0839 -0.46887,-0.4687 -0.83017,-1.0094 -1.0839,-1.6219 -0.25372,-0.6127 -0.38058,-1.2505 -0.38055,-1.9137 v -100 c -3e-5,-0.6628 0.12683,-1.3005 0.38055,-1.9131 0.25373,-0.6125 0.61503,-1.1533 1.0839,-1.6223 0.46884,-0.4685 1.00952,-0.8298 1.6221,-1.0837 0.61258,-0.2537 1.25039,-0.3807 1.91345,-0.3809 z"
       style="fill:#ffffff;fill-opacity:1;fill-rule:nonzero;stroke:#000000;stroke-width:1;stroke-linecap:butt;stroke-linejoin:miter;stroke-miterlimit:10;stroke-dasharray:none;stroke-opacity:1"
       transform="matrix(0.95170735,0,0,0.95170735,-73.65448,2067.6808)"
       clip-path="url(#clipPath8)" />
    <text
       id="text8"
       xml:space="preserve"
       transform="matrix(0.95170735,0,0,0.95170735,363.89298,41.97166)"
       clip-path="url(#clipPath9)"><tspan
         id="tspan8"
         style="font-variant:normal;font-weight:normal;font-size:16px;font-family:Arial;writing-mode:lr-tb;fill:#000000;fill-opacity:1;fill-rule:nonzero;stroke:none"
         x="0"
         y="0">«action»</tspan></text>
    <text
       id="text9"
       xml:space="preserve"
       transform="matrix(0.95170735,0,0,0.95170735,336.81394,60.0541)"
       clip-path="url(#clipPath10)"><tspan
         id="tspan9"
         style="font-variant:normal;font-weight:normal;font-size:16px;font-family:Arial;writing-mode:lr-tb;fill:#000000;fill-opacity:1;fill-rule:nonzero;stroke:none"
         x="0"
         dx="0 0 0 0 0 0 0 0 0 0 -0.8828122"
         y="0">action2 : Action2</tspan></text>
    <path
       id="path11"
       d="M 252.85001,-2090 H 399.39999"
       style="fill:none;stroke:#000000;stroke-width:1;stroke-linecap:butt;stroke-linejoin:miter;stroke-miterlimit:10;stroke-dasharray:none;stroke-opacity:1"
       transform="matrix(0.95170735,0,0,0.95170735,-73.65448,2067.6808)"
       clip-path="url(#clipPath12)" />
    <path
       id="path13"
       d="m 408.39999,-2090 -9,4.5 v -9 z"
       style="fill:#000000;fill-opacity:1;fill-rule:nonzero;stroke:#000000;stroke-width:1;stroke-linecap:butt;stroke-linejoin:miter;stroke-miterlimit:10;stroke-dasharray:none;stroke-opacity:1"
       transform="matrix(0.95170735,0,0,0.95170735,-73.65448,2067.6808)"
       clip-path="url(#clipPath14)" />
    <path
       id="path15"
       d="m 246,-2116 h 69 v 15 h -69 z"
       style="fill:#ffffff;fill-opacity:1;fill-rule:nonzero;stroke:none"
       transform="matrix(0.95170735,0,0,0.95170735,-74.13033,2067.2049)"
       clip-path="url(#clipPath16)" />
    <path
       id="path17"
       d="m 246,-2116 h 69 v 14 h -69 z"
       style="fill:#f8f9fa;fill-opacity:1;fill-rule:nonzero;stroke:none"
       transform="matrix(0.95170735,0,0,0.95170735,-74.13033,2067.2049)"
       clip-path="url(#clipPath18)" />
    <text
       id="text18"
       xml:space="preserve"
       transform="matrix(0.95170735,0,0,0.95170735,159.82611,63.860929)"
       clip-path="url(#clipPath19)"><tspan
         id="tspan18"
         style="font-variant:normal;font-weight:normal;font-size:12px;font-family:Arial;writing-mode:lr-tb;fill:#000000;fill-opacity:1;fill-rule:nonzero;stroke:none"
         x="0"
         y="0">item1 : Item1</tspan></text>
    <path
       id="path20"
       d="m 346,-2116 h 69 v 15 h -69 z"
       style="fill:#ffffff;fill-opacity:1;fill-rule:nonzero;stroke:none"
       transform="matrix(0.95170735,0,0,0.95170735,-74.13033,2067.2049)"
       clip-path="url(#clipPath21)" />
    <path
       id="path22"
       d="m 346,-2116 h 69 v 14 h -69 z"
       style="fill:#f8f9fa;fill-opacity:1;fill-rule:nonzero;stroke:none"
       transform="matrix(0.95170735,0,0,0.95170735,-74.13033,2067.2049)"
       clip-path="url(#clipPath23)" />
    <text
       id="text23"
       xml:space="preserve"
       transform="matrix(0.95170735,0,0,0.95170735,254.99684,63.860929)"
       clip-path="url(#clipPath24)"><tspan
         id="tspan23"
         style="font-variant:normal;font-weight:normal;font-size:12px;font-family:Arial;writing-mode:lr-tb;fill:#000000;fill-opacity:1;fill-rule:nonzero;stroke:none"
         x="0"
         y="0">item2 : Item1</tspan></text>
    <path
       id="path25"
       d="m 235.85001,-2100 h 14 c 0.39781,2e-4 0.78048,0.076 1.14802,0.2285 0.36754,0.1521 0.69197,0.3689 0.97328,0.6502 0.2813,0.2815 0.49807,0.6059 0.65032,0.9734 0.15223,0.3674 0.22836,0.7502 0.22838,1.1479 v 14 c -2e-5,0.3979 -0.0761,0.7808 -0.22838,1.1482 -0.15225,0.3674 -0.36902,0.6919 -0.65032,0.9731 -0.28131,0.2815 -0.60574,0.4983 -0.97328,0.6504 -0.36754,0.1521 -0.75021,0.2283 -1.14802,0.2283 h -14 c -0.39785,0 -0.78054,-0.076 -1.14809,-0.2283 -0.36754,-0.1521 -0.69196,-0.3689 -0.97325,-0.6504 -0.28133,-0.2812 -0.49809,-0.6057 -0.65033,-0.9731 -0.15224,-0.3674 -0.22835,-0.7503 -0.22833,-1.1482 v -14 c -2e-5,-0.3977 0.0761,-0.7803 0.22833,-1.1477 0.15224,-0.3677 0.369,-0.6921 0.65033,-0.9736 0.28129,-0.2813 0.60571,-0.4981 0.97325,-0.6502 0.36755,-0.1521 0.75024,-0.2283 1.14809,-0.2285 z"
       style="fill:#ffffff;fill-opacity:1;fill-rule:nonzero;stroke:#000000;stroke-width:1;stroke-linecap:butt;stroke-linejoin:miter;stroke-miterlimit:10;stroke-dasharray:none;stroke-opacity:1"
       transform="matrix(0.95170735,0,0,0.95170735,-73.65448,2067.6808)"
       clip-path="url(#clipPath26)" />
    <path
       id="path27"
       d="m 518,-1960 v -45 c 0,-3.3334 -1.66669,-5 -5,-5 H 133 c -3.33333,0 -5,1.6666 -5,5 v 45"
       style="fill:none;stroke:#000000;stroke-width:1;stroke-linecap:butt;stroke-linejoin:miter;stroke-miterlimit:10;stroke-dasharray:none;stroke-opacity:1"
       transform="matrix(0.95170735,0,0,0.95170735,-73.65448,2067.6808)"
       clip-path="url(#clipPath28)" />
    <path
       id="path29"
       d="m 128,-1960 v 265 c 0,3.3334 1.66667,5 5,5 h 380 c 3.33331,0 5,-1.6666 5,-5 v -265"
       style="fill:none;stroke:#000000;stroke-width:1;stroke-linecap:butt;stroke-linejoin:miter;stroke-miterlimit:10;stroke-dasharray:none;stroke-opacity:1"
       transform="matrix(0.95170735,0,0,0.95170735,-73.65448,2067.6808)"
       clip-path="url(#clipPath30)" />
    <path
       id="path31"
       d="M 128,-1960 H 518"
       style="fill:none;stroke:#000000;stroke-width:1;stroke-linecap:butt;stroke-linejoin:miter;stroke-miterlimit:10;stroke-dasharray:none;stroke-opacity:1"
       transform="matrix(0.95170735,0,0,0.95170735,-73.65448,2067.6808)"
       clip-path="url(#clipPath32)" />
    <text
       id="text32"
       xml:space="preserve"
       transform="matrix(0.95170735,0,0,0.95170735,211.73877,175.21069)"
       clip-path="url(#clipPath33)"><tspan
         id="tspan32"
         style="font-variant:normal;font-weight:normal;font-size:16px;font-family:Arial;writing-mode:lr-tb;fill:#000000;fill-opacity:1;fill-rule:nonzero;stroke:none"
         x="0"
         y="0">«flow»</tspan></text>
    <text
       id="text33"
       xml:space="preserve"
       transform="matrix(0.95170735,0,0,0.95170735,146.56169,193.29313)"
       clip-path="url(#clipPath34)"><tspan
         id="tspan33"
         style="font-variant:normal;font-weight:normal;font-size:16px;font-family:Arial;writing-mode:lr-tb;fill:#000000;fill-opacity:1;fill-rule:nonzero;stroke:none"
         x="0"
         y="0">flow1_2 : FlowConnection</tspan></text>
    <g
       id="g34" />
    <text
       id="text34"
       xml:space="preserve"
       transform="matrix(0.95170735,0,0,0.95170735,72.432603,215.1824)"
       clip-path="url(#clipPath35)"><tspan
         id="tspan34"
         style="font-variant:normal;font-weight:normal;font-size:12px;font-family:Arial;writing-mode:lr-tb;fill:#000000;fill-opacity:1;fill-rule:nonzero;stroke:none"
         x="0"
         y="0"> </tspan></text>
    <path
       id="path36"
       d="m 153,-1940 h 120 c 0.66302,10e-5 1.30081,0.1272 1.91339,0.381 0.61258,0.2535 1.15329,0.6147 1.62213,1.0836 0.46884,0.4689 0.83011,1.0096 1.08383,1.6222 0.25376,0.6127 0.38062,1.2504 0.38065,1.9132 v 210 c -3e-5,0.6632 -0.12689,1.301 -0.38065,1.9136 -0.25372,0.6126 -0.61499,1.1533 -1.08383,1.622 -0.46884,0.4689 -1.00955,0.8302 -1.62213,1.0839 -0.61258,0.2537 -1.25037,0.3805 -1.91339,0.3805 H 153 c -0.66304,0 -1.30086,-0.1268 -1.91344,-0.3804 -0.61256,-0.2538 -1.15327,-0.6151 -1.62211,-1.084 -0.46886,-0.4687 -0.83014,-1.0094 -1.08388,-1.6219 -0.25372,-0.6127 -0.38059,-1.2505 -0.38057,-1.9137 v -210 c -2e-5,-0.6628 0.12685,-1.3005 0.38057,-1.9131 0.25374,-0.6127 0.61502,-1.1534 1.08388,-1.6223 0.46884,-0.4689 1.00955,-0.8301 1.62211,-1.0837 0.61258,-0.2538 1.2504,-0.3808 1.91344,-0.3809 z"
       style="fill:#ffffff;fill-opacity:1;fill-rule:nonzero;stroke:none"
       transform="matrix(0.95170735,0,0,0.95170735,-73.65448,2067.6808)"
       clip-path="url(#clipPath37)" />
    <path
       id="path38"
       d="m 159,-1940.5 h 3 v 1 h -3 z m 6,0 h 3 v 1 h -3 z m 6,0 h 3 v 1 h -3 z m 6,0 h 3 v 1 h -3 z m 6,0 h 3 v 1 h -3 z m 6,0 h 3 v 1 h -3 z m 6,0 h 3 v 1 h -3 z m 6,0 h 3 v 1 h -3 z m 6,0 h 3 v 1 h -3 z m 6,0 h 3 v 1 h -3 z m 6,0 h 3 v 1 h -3 z m 6,0 h 3 v 1 h -3 z m 6,0 h 3 v 1 h -3 z m 6,0 h 3 v 1 h -3 z m 6,0 h 3 v 1 h -3 z m 6,0 h 3 v 1 h -3 z m 6,0 h 3 v 1 h -3 z m 6,0 h 3 v 1 h -3 z m 6,0 h 3 v 1 h -3 z m 6,0 c 1.1481,0 2.19366,0.3274 3.13669,0.9821 l -0.57031,0.8215 C 274.79474,-1939.2322 273.9393,-1939.5 273,-1939.5 Z m 5.215,3.7524 c 0.19,0.5672 0.285,1.1497 0.285,1.7476 v 1.3464 h -1 V -1935 c 0,-0.4893 -0.0777,-0.9659 -0.23318,-1.4299 z m 0.285,6.094 v 3 h -1 v -3 z m 0,6 v 3 h -1 v -3 z m 0,6 v 3 h -1 v -3 z m 0,6 v 3 h -1 v -3 z m 0,6 v 3 h -1 v -3 z m 0,6 v 3 h -1 v -3 z m 0,6 v 3 h -1 v -3 z m 0,6 v 3 h -1 v -3 z m 0,6 v 3 h -1 v -3 z m 0,6 v 3 h -1 v -3 z m 0,6 v 3 h -1 v -3 z m 0,6 v 3 h -1 v -3 z m 0,6 v 3 h -1 v -3 z m 0,6 v 3 h -1 v -3 z m 0,6 v 3 h -1 v -3 z m 0,6 v 3 h -1 v -3 z m 0,6 v 3 h -1 v -3 z m 0,6 v 3 h -1 v -3 z m 0,6 v 3 h -1 v -3 z m 0,6 v 3 h -1 v -3 z m 0,6 v 3 h -1 v -3 z m 0,6 v 3 h -1 v -3 z m 0,6 v 3 h -1 v -3 z m 0,6 v 3 h -1 v -3 z m 0,6 v 3 h -1 v -3 z m 0,6 v 3 h -1 v -3 z m 0,6 v 3 h -1 v -3 z m 0,6 v 3 h -1 v -3 z m 0,6 v 3 h -1 v -3 z m 0,6 v 3 h -1 v -3 z m 0,6 v 3 h -1 v -3 z m 0,6 v 3 h -1 v -3 z m 0,6 v 3 h -1 v -3 z m 0,6 v 3 h -1 v -3 z m 0,6 V -1725 c 0,0.4808 -0.062,0.9536 -0.18597,1.4183 l -0.96619,-0.2578 c 0.10144,-0.3802 0.15216,-0.7671 0.15216,-1.1605 v -1.6536 z m -2.07147,5.9543 c -0.91147,0.7264 -1.94901,1.1231 -3.11267,1.1903 l -0.0576,-0.9983 c 0.95224,-0.055 1.80124,-0.3797 2.54706,-0.974 l 0.62323,0.782 z m -6.12122,1.1993 h -3 v -1 h 3 z m -6,0 h -3 v -1 h 3 z m -6,0 h -3 v -1 h 3 z m -6,0 h -3 v -1 h 3 z m -6,0 h -3 v -1 h 3 z m -6,0 h -3 v -1 h 3 z m -6,0 h -3 v -1 h 3 z m -6,0 h -3 v -1 h 3 z m -6,0 h -3 v -1 h 3 z m -6,0 h -3 v -1 h 3 z m -6,0 h -3 v -1 h 3 z m -6,0 h -3 v -1 h 3 z m -6,0 h -3 v -1 h 3 z m -6,0 h -3 v -1 h 3 z m -6,0 h -3 v -1 h 3 z m -6,0 h -3 v -1 h 3 z m -6,0 h -3 v -1 h 3 z m -6,0 h -3 v -1 h 3 z m -6,0 h -3 v -1 h 3 z m -6,0 h -3 v -1 h 3 z m -6.14027,-0.7856 c -1.04648,-0.6288 -1.80002,-1.5087 -2.26062,-2.6394 l 0.92611,-0.3772 c 0.37682,0.925 0.99335,1.6449 1.84958,2.1594 z m -2.66704,-5.7533 v -3 h 1 v 3 z m 0,-6 v -3 h 1 v 3 z m 0,-6 v -3 h 1 v 3 z m 0,-6 v -3 h 1 v 3 z m 0,-6 v -3 h 1 v 3 z m 0,-6 v -3 h 1 v 3 z m 0,-6 v -3 h 1 v 3 z m 0,-6 v -3 h 1 v 3 z m 0,-6 v -3 h 1 v 3 z m 0,-6 v -3 h 1 v 3 z m 0,-6 v -3 h 1 v 3 z m 0,-6 v -3 h 1 v 3 z m 0,-6 v -3 h 1 v 3 z m 0,-6 v -3 h 1 v 3 z m 0,-6 v -3 h 1 v 3 z m 0,-6 v -3 h 1 v 3 z m 0,-6 v -3 h 1 v 3 z m 0,-6 v -3 h 1 v 3 z m 0,-6 v -3 h 1 v 3 z m 0,-6 v -3 h 1 v 3 z m 0,-6 v -3 h 1 v 3 z m 0,-6 v -3 h 1 v 3 z m 0,-6 v -3 h 1 v 3 z m 0,-6 v -3 h 1 v 3 z m 0,-6 v -3 h 1 v 3 z m 0,-6 v -3 h 1 v 3 z m 0,-6 v -3 h 1 v 3 z m 0,-6 v -3 h 1 v 3 z m 0,-6 v -3 h 1 v 3 z m 0,-6 v -3 h 1 v 3 z m 0,-6 v -3 h 1 v 3 z m 0,-6 v -3 h 1 v 3 z m 0,-6 v -3 h 1 v 3 z m 0,-6 v -3 h 1 v 3 z m 0,-6 v -3 h 1 v 3 z m 0.10883,-6.0498 c 0.23732,-1.1752 0.79891,-2.1669 1.68476,-2.9749 l 0.67389,0.7388 c -0.72476,0.661 -1.18423,1.4724 -1.37843,2.4341 z m 4.75364,-4.3742 c 0.21208,-0.025 0.42459,-0.037 0.63753,-0.037 h 3 v 1 h -3 c -0.17476,0 -0.34863,0.01 -0.52165,0.03 l -0.11588,-0.9932 z"
       style="fill:#000000;fill-opacity:1;fill-rule:nonzero;stroke:none"
       transform="matrix(0.95170735,0,0,0.95170735,-73.65448,2067.6808)"
       clip-path="url(#clipPath39)" />
    <text
       id="text39"
       xml:space="preserve"
       transform="matrix(0.95170735,0,0,0.95170735,94.45571,238.02337)"
       clip-path="url(#clipPath40)"><tspan
         id="tspan39"
         style="font-variant:normal;font-weight:normal;font-size:12px;font-family:Arial;writing-mode:lr-tb;fill:#000000;fill-opacity:1;fill-rule:nonzero;stroke:none"
         x="0"
         y="0">«end» source</tspan></text>
    <path
       id="path41"
       d="m 163,-1915 h 100 c 0.66302,10e-5 1.30081,0.1271 1.91339,0.3807 0.61258,0.2538 1.15329,0.6151 1.62213,1.0839 0.46884,0.469 0.83011,1.0098 1.08383,1.6222 0.25376,0.6125 0.38065,1.2502 0.38065,1.9132 v 175 c 0,0.6632 -0.12689,1.301 -0.38065,1.9136 -0.25372,0.6126 -0.61499,1.1533 -1.08383,1.622 -0.46884,0.4689 -1.00955,0.8302 -1.62213,1.0839 -0.61258,0.2537 -1.25037,0.3805 -1.91339,0.3805 H 163 c -0.66304,0 -1.30086,-0.1268 -1.91344,-0.3804 -0.61256,-0.2538 -1.15327,-0.6151 -1.6221,-1.084 -0.46884,-0.4687 -0.83014,-1.0094 -1.08388,-1.622 -0.25373,-0.6126 -0.3806,-1.2504 -0.38058,-1.9136 v -175 c -2e-5,-0.663 0.12685,-1.3007 0.38058,-1.9132 0.25374,-0.6124 0.61504,-1.1532 1.08388,-1.6222 0.46883,-0.4688 1.00954,-0.8301 1.6221,-1.0839 0.61258,-0.2536 1.2504,-0.3806 1.91344,-0.3807 z"
       style="fill:#ffffff;fill-opacity:1;fill-rule:nonzero;stroke:none"
       transform="matrix(0.95170735,0,0,0.95170735,-73.65448,2067.6808)"
       clip-path="url(#clipPath42)" />
    <path
       id="path43"
       d="m 169,-1915.5 h 3 v 1 h -3 z m 6,0 h 3 v 1 h -3 z m 6,0 h 3 v 1 h -3 z m 6,0 h 3 v 1 h -3 z m 6,0 h 3 v 1 h -3 z m 6,0 h 3 v 1 h -3 z m 6,0 h 3 v 1 h -3 z m 6,0 h 3 v 1 h -3 z m 6,0 h 3 v 1 h -3 z m 6,0 h 3 v 1 h -3 z m 6,0 h 3 v 1 h -3 z m 6,0 h 3 v 1 h -3 z m 6,0 h 3 v 1 h -3 z m 6,0 h 3 v 1 h -3 z m 6,0 h 3 v 1 h -3 z m 6,0 h 3 v 1 h -3 z m 6.11624,0.4233 c 1.12723,0.4699 2.00104,1.231 2.62143,2.2831 l -0.86139,0.5078 c -0.50751,-0.8607 -1.22244,-1.4834 -2.1448,-1.8678 z m 3.38376,5.4231 v 3 h -1 v -3 z m 0,6 v 3 h -1 v -3 z m 0,6 v 3 h -1 v -3 z m 0,6 v 3 h -1 v -3 z m 0,6 v 3 h -1 v -3 z m 0,6 v 3 h -1 v -3 z m 0,6 v 3 h -1 v -3 z m 0,6 v 3 h -1 v -3 z m 0,6 v 3 h -1 v -3 z m 0,6 v 3 h -1 v -3 z m 0,6 v 3 h -1 v -3 z m 0,6 v 3 h -1 v -3 z m 0,6 v 3 h -1 v -3 z m 0,6 v 3 h -1 v -3 z m 0,6 v 3 h -1 v -3 z m 0,6 v 3 h -1 v -3 z m 0,6 v 3 h -1 v -3 z m 0,6 v 3 h -1 v -3 z m 0,6 v 3 h -1 v -3 z m 0,6 v 3 h -1 v -3 z m 0,6 v 3 h -1 v -3 z m 0,6 v 3 h -1 v -3 z m 0,6 v 3 h -1 v -3 z m 0,6 v 3 h -1 v -3 z m 0,6 v 3 h -1 v -3 z m 0,6 v 3 h -1 v -3 z m 0,6 v 3 h -1 v -3 z m 0,6 v 3 h -1 v -3 z m 0,6 v 3 h -1 v -3 z m 0,6 V -1735 c 0,0.8732 -0.19681,1.6996 -0.59042,2.479 l -0.89264,-0.4507 c 0.32205,-0.6377 0.48306,-1.3138 0.48306,-2.0283 v -0.6536 z m -3.06137,5.5834 c -0.76853,0.3801 -1.58139,0.5702 -2.43863,0.5702 h -0.69269 v -1 H 263 c 0.70151,0 1.36661,-0.1555 1.99527,-0.4664 z m -6.13132,0.5702 h -3 v -1 h 3 z m -6,0 h -3 v -1 h 3 z m -6,0 h -3 v -1 h 3 z m -6,0 h -3 v -1 h 3 z m -6,0 h -3 v -1 h 3 z m -6,0 h -3 v -1 h 3 z m -6,0 h -3 v -1 h 3 z m -6,0 h -3 v -1 h 3 z m -6,0 h -3 v -1 h 3 z m -6,0 h -3 v -1 h 3 z m -6,0 h -3 v -1 h 3 z m -6,0 h -3 v -1 h 3 z m -6,0 h -3 v -1 h 3 z m -6,0 h -3 v -1 h 3 z m -6,0 h -3 v -1 h 3 z m -6,0 h -3 v -1 h 3 z m -6,0 H 163 c -1.01697,0 -1.96129,-0.2618 -2.83295,-0.7856 l 0.51505,-0.8572 c 0.71319,0.4286 1.48582,0.6428 2.3179,0.6428 h 0.30731 z m -5.40089,-3.425 c -0.27095,-0.6652 -0.40642,-1.3569 -0.40642,-2.075 v -1.0389 h 1 V -1735 c 0,0.5875 0.11084,1.1534 0.33253,1.6978 z m -0.40642,-6.1139 v -3 h 1 v 3 z m 0,-6 v -3 h 1 v 3 z m 0,-6 v -3 h 1 v 3 z m 0,-6 v -3 h 1 v 3 z m 0,-6 v -3 h 1 v 3 z m 0,-6 v -3 h 1 v 3 z m 0,-6 v -3 h 1 v 3 z m 0,-6 v -3 h 1 v 3 z m 0,-6 v -3 h 1 v 3 z m 0,-6 v -3 h 1 v 3 z m 0,-6 v -3 h 1 v 3 z m 0,-6 v -3 h 1 v 3 z m 0,-6 v -3 h 1 v 3 z m 0,-6 v -3 h 1 v 3 z m 0,-6 v -3 h 1 v 3 z m 0,-6 v -3 h 1 v 3 z m 0,-6 v -3 h 1 v 3 z m 0,-6 v -3 h 1 v 3 z m 0,-6 v -3 h 1 v 3 z m 0,-6 v -3 h 1 v 3 z m 0,-6 v -3 h 1 v 3 z m 0,-6 v -3 h 1 v 3 z m 0,-6 v -3 h 1 v 3 z m 0,-6 v -3 h 1 v 3 z m 0,-6 v -3 h 1 v 3 z m 0,-6 v -3 h 1 v 3 z m 0,-6 v -3 h 1 v 3 z m 0,-6 v -3 h 1 v 3 z m 0,-6 V -1910 l 1.2e-4,-0.038 h 1 l -1.2e-4,0.034 v 2.9611 h -1 z m 1.00861,-6.1355 c 0.70153,-0.9926 1.63003,-1.6773 2.7855,-2.0544 l 0.31021,0.9507 c -0.94546,0.3085 -1.70517,0.8688 -2.27913,1.6808 z M 163,-1915.5 h 3 v 1 h -3 z"
       style="fill:#000000;fill-opacity:1;fill-rule:nonzero;stroke:none"
       transform="matrix(0.95170735,0,0,0.95170735,-73.65448,2067.6808)"
       clip-path="url(#clipPath44)" />
    <text
       id="text44"
       xml:space="preserve"
       transform="matrix(0.95170735,0,0,0.95170735,97.637982,261.81606)"
       clip-path="url(#clipPath45)"><tspan
         id="tspan44"
         style="font-variant:normal;font-weight:normal;font-size:12px;font-family:Arial;writing-mode:lr-tb;fill:#000000;fill-opacity:1;fill-rule:nonzero;stroke:none"
         x="0"
         y="0">«in ref item»</tspan></text>
    <text
       id="text45"
       xml:space="preserve"
       transform="matrix(0.95170735,0,0,0.95170735,93.370164,275.13996)"
       clip-path="url(#clipPath46)"><tspan
         id="tspan45"
         style="font-variant:normal;font-weight:normal;font-size:12px;font-family:Arial;writing-mode:lr-tb;fill:#000000;fill-opacity:1;fill-rule:nonzero;stroke:none"
         x="0"
         y="0">^item1 : Item1</tspan></text>
    <path
       id="path47"
       d="m 178,-1870 h 70 c 0.66302,10e-5 1.30081,0.1271 1.91338,0.3809 0.61256,0.2537 1.15329,0.6149 1.62214,1.0837 0.46883,0.4689 0.83011,1.0096 1.08385,1.6222 0.25374,0.6125 0.38061,1.2502 0.38063,1.9132 v 30 c -2e-5,0.6632 -0.12689,1.301 -0.38063,1.9136 -0.25374,0.6126 -0.61502,1.1533 -1.08385,1.622 -0.46885,0.4689 -1.00958,0.8302 -1.62214,1.084 -0.61257,0.2536 -1.25036,0.3804 -1.91338,0.3804 h -70 c -0.66306,0 -1.30087,-0.1268 -1.91345,-0.3805 -0.61257,-0.2538 -1.15326,-0.615 -1.6221,-1.0839 -0.46886,-0.4687 -0.83014,-1.0094 -1.08388,-1.622 -0.25372,-0.6126 -0.38059,-1.2504 -0.38057,-1.9136 v -30 c -2e-5,-0.663 0.12685,-1.3007 0.38057,-1.9132 0.25374,-0.6126 0.61502,-1.1533 1.08388,-1.6222 0.46884,-0.4688 1.00953,-0.83 1.6221,-1.0837 0.61258,-0.2538 1.25039,-0.3808 1.91345,-0.3809 z"
       style="fill:#ffffff;fill-opacity:1;fill-rule:nonzero;stroke:#000000;stroke-width:1;stroke-linecap:butt;stroke-linejoin:miter;stroke-miterlimit:10;stroke-dasharray:none;stroke-opacity:1"
       transform="matrix(0.95170735,0,0,0.95170735,-73.65448,2067.6808)"
       clip-path="url(#clipPath48)" />
    <text
       id="text48"
       xml:space="preserve"
       transform="translate(111.43216,304.65808)"
       clip-path="url(#clipPath49)"><tspan
         id="tspan48"
         style="font-variant:normal;font-weight:normal;font-size:11.42px;font-family:Arial;writing-mode:lr-tb;fill:#000000;fill-opacity:1;fill-rule:nonzero;stroke:none"
         x="0"
         y="0">«item»</tspan></text>
    <text
       id="text49"
       xml:space="preserve"
       transform="translate(105.08841,317.97058)"
       clip-path="url(#clipPath50)"><tspan
         id="tspan49"
         style="font-variant:normal;font-weight:normal;font-size:11.42px;font-family:Arial;writing-mode:lr-tb;fill:#000000;fill-opacity:1;fill-rule:nonzero;stroke:none"
         x="0"
         y="0">subItem1</tspan></text>
    <path
       id="path51"
       d="m 178,-1825 h 70 c 0.66302,10e-5 1.30081,0.1271 1.91338,0.3809 0.61256,0.2537 1.15329,0.6151 1.62214,1.0838 0.46883,0.4689 0.83011,1.0095 1.08385,1.6221 0.25374,0.6125 0.38061,1.2502 0.38063,1.9132 v 30 c -2e-5,0.6631 -0.12689,1.3009 -0.38063,1.9136 -0.25374,0.6125 -0.61502,1.1532 -1.08385,1.622 -0.46885,0.4689 -1.00958,0.8302 -1.62214,1.0839 -0.61257,0.2537 -1.25036,0.3805 -1.91338,0.3805 h -70 c -0.66306,0 -1.30087,-0.1268 -1.91345,-0.3805 -0.61257,-0.2537 -1.15326,-0.615 -1.6221,-1.0839 -0.46886,-0.4688 -0.83014,-1.0095 -1.08388,-1.6219 -0.25372,-0.6127 -0.38059,-1.2506 -0.38057,-1.9137 v -30 c -2e-5,-0.663 0.12685,-1.3007 0.38057,-1.9131 0.25374,-0.6127 0.61502,-1.1533 1.08388,-1.6222 0.46884,-0.4687 1.00953,-0.8301 1.6221,-1.0838 0.61258,-0.2538 1.25039,-0.3808 1.91345,-0.3809 z"
       style="fill:#ffffff;fill-opacity:1;fill-rule:nonzero;stroke:#000000;stroke-width:1;stroke-linecap:butt;stroke-linejoin:miter;stroke-miterlimit:10;stroke-dasharray:none;stroke-opacity:1"
       transform="matrix(0.95170735,0,0,0.95170735,-73.65448,2067.6808)"
       clip-path="url(#clipPath52)" />
    <text
       id="text52"
       xml:space="preserve"
       transform="translate(111.43216,347.47058)"
       clip-path="url(#clipPath53)"><tspan
         id="tspan52"
         style="font-variant:normal;font-weight:normal;font-size:11.42px;font-family:Arial;writing-mode:lr-tb;fill:#000000;fill-opacity:1;fill-rule:nonzero;stroke:none"
         x="0"
         y="0">«item»</tspan></text>
    <text
       id="text53"
       xml:space="preserve"
       transform="translate(105.08841,360.79868)"
       clip-path="url(#clipPath54)"><tspan
         id="tspan53"
         style="font-variant:normal;font-weight:normal;font-size:11.42px;font-family:Arial;writing-mode:lr-tb;fill:#000000;fill-opacity:1;fill-rule:nonzero;stroke:none"
         x="0"
         y="0">subItem2</tspan></text>
    <path
       id="path55"
       d="m 178,-1780 h 70 c 0.66302,10e-5 1.30081,0.1272 1.91338,0.381 0.61256,0.2538 1.15329,0.615 1.62214,1.0837 0.46883,0.4689 0.83011,1.0095 1.08385,1.6221 0.25374,0.6125 0.38061,1.2502 0.38063,1.9132 v 30 c -2e-5,0.6632 -0.12689,1.301 -0.38063,1.9136 -0.25374,0.6126 -0.61502,1.1533 -1.08385,1.622 -0.46885,0.4689 -1.00958,0.8302 -1.62214,1.0839 -0.61257,0.2537 -1.25036,0.3805 -1.91338,0.3805 h -70 c -0.66306,0 -1.30087,-0.1268 -1.91345,-0.3804 -0.61257,-0.2538 -1.15326,-0.6151 -1.6221,-1.084 -0.46886,-0.4687 -0.83014,-1.0094 -1.08388,-1.622 -0.25372,-0.6126 -0.38059,-1.2504 -0.38057,-1.9136 v -30 c -2e-5,-0.663 0.12685,-1.3007 0.38057,-1.9132 0.25374,-0.6126 0.61502,-1.1532 1.08388,-1.6221 0.46884,-0.4687 1.00953,-0.8299 1.6221,-1.0837 0.61258,-0.2538 1.25039,-0.3809 1.91345,-0.381 z"
       style="fill:#ffffff;fill-opacity:1;fill-rule:nonzero;stroke:#000000;stroke-width:1;stroke-linecap:butt;stroke-linejoin:miter;stroke-miterlimit:10;stroke-dasharray:none;stroke-opacity:1"
       transform="matrix(0.95170735,0,0,0.95170735,-73.65448,2067.6808)"
       clip-path="url(#clipPath56)" />
    <text
       id="text56"
       xml:space="preserve"
       transform="translate(111.43216,390.29873)"
       clip-path="url(#clipPath57)"><tspan
         id="tspan56"
         style="font-variant:normal;font-weight:normal;font-size:11.42px;font-family:Arial;writing-mode:lr-tb;fill:#000000;fill-opacity:1;fill-rule:nonzero;stroke:none"
         x="0"
         y="0">«item»</tspan></text>
    <text
       id="text57"
       xml:space="preserve"
       transform="translate(105.08841,403.62685)"
       clip-path="url(#clipPath58)"><tspan
         id="tspan57"
         style="font-variant:normal;font-weight:normal;font-size:11.42px;font-family:Arial;writing-mode:lr-tb;fill:#000000;fill-opacity:1;fill-rule:nonzero;stroke:none"
         x="0"
         y="0">subItem3</tspan></text>
    <path
       id="path59"
       d="m 370.91,-1940 h 120 c 0.663,10e-5 1.30078,0.1272 1.91336,0.381 0.61258,0.2535 1.15329,0.6147 1.62217,1.0836 0.46878,0.4689 0.83007,1.0096 1.08383,1.6222 0.25372,0.6127 0.38061,1.2504 0.38064,1.9132 v 210 c -3e-5,0.6632 -0.12692,1.301 -0.38064,1.9136 -0.25376,0.6126 -0.61505,1.1533 -1.08383,1.622 -0.46888,0.4689 -1.00959,0.8302 -1.62217,1.0839 -0.61258,0.2537 -1.25036,0.3805 -1.91336,0.3805 h -120 c -0.66305,0 -1.30087,-0.1268 -1.91342,-0.3804 -0.61258,-0.2538 -1.15329,-0.6151 -1.62213,-1.084 -0.46884,-0.4687 -0.83014,-1.0094 -1.08386,-1.6219 -0.25376,-0.6127 -0.38062,-1.2505 -0.38059,-1.9137 v -210 c -3e-5,-0.6628 0.12683,-1.3005 0.38056,-1.9131 0.25375,-0.6127 0.61505,-1.1534 1.08389,-1.6223 0.46884,-0.4689 1.00952,-0.8301 1.6221,-1.0837 0.61258,-0.2538 1.2504,-0.3808 1.91345,-0.3809 z"
       style="fill:#ffffff;fill-opacity:1;fill-rule:nonzero;stroke:none"
       transform="matrix(0.95170735,0,0,0.95170735,-73.65448,2067.6808)"
       clip-path="url(#clipPath60)" />
    <path
       id="path61"
       d="m 376.91,-1940.5 h 3 v 1 h -3 z m 6,0 h 3 v 1 h -3 z m 6,0 h 3 v 1 h -3 z m 6,0 h 3 v 1 h -3 z m 6,0 h 3 v 1 h -3 z m 6,0 h 3 v 1 h -3 z m 6,0 h 3 v 1 h -3 z m 6,0 h 3 v 1 h -3 z m 6,0 h 3 v 1 h -3 z m 6,0 h 3 v 1 h -3 z m 6,0 h 3 v 1 h -3 z m 6,0 h 3 v 1 h -3 z m 6,0 h 3 v 1 h -3 z m 6,0 h 3 v 1 h -3 z m 6,0 h 3 v 1 h -3 z m 6,0 h 3 v 1 h -3 z m 6,0 h 3 v 1 h -3 z m 6,0 h 3 v 1 h -3 z m 6,0 h 3 v 1 h -3 z m 6.00003,0 c 1.14811,10e-5 2.19367,0.3275 3.13666,0.9822 l -0.57031,0.8215 c -0.77164,-0.5358 -1.62711,-0.8036 -2.56641,-0.8037 z m 5.21494,3.7526 c 0.19,0.567 0.285,1.1494 0.28503,1.7474 v 1.3464 h -1 V -1935 c -3e-5,-0.4893 -0.0778,-0.9658 -0.23321,-1.4298 z m 0.28503,6.0938 v 3 h -1 v -3 z m 0,6 v 3 h -1 v -3 z m 0,6 v 3 h -1 v -3 z m 0,6 v 3 h -1 v -3 z m 0,6 v 3 h -1 v -3 z m 0,6 v 3 h -1 v -3 z m 0,6 v 3 h -1 v -3 z m 0,6 v 3 h -1 v -3 z m 0,6 v 3 h -1 v -3 z m 0,6 v 3 h -1 v -3 z m 0,6 v 3 h -1 v -3 z m 0,6 v 3 h -1 v -3 z m 0,6 v 3 h -1 v -3 z m 0,6 v 3 h -1 v -3 z m 0,6 v 3 h -1 v -3 z m 0,6 v 3 h -1 v -3 z m 0,6 v 3 h -1 v -3 z m 0,6 v 3 h -1 v -3 z m 0,6 v 3 h -1 v -3 z m 0,6 v 3 h -1 v -3 z m 0,6 v 3 h -1 v -3 z m 0,6 v 3 h -1 v -3 z m 0,6 v 3 h -1 v -3 z m 0,6 v 3 h -1 v -3 z m 0,6 v 3 h -1 v -3 z m 0,6 v 3 h -1 v -3 z m 0,6 v 3 h -1 v -3 z m 0,6 v 3 h -1 v -3 z m 0,6 v 3 h -1 v -3 z m 0,6 v 3 h -1 v -3 z m 0,6 v 3 h -1 v -3 z m 0,6 v 3 h -1 v -3 z m 0,6 v 3 h -1 v -3 z m 0,6 v 3 h -1 v -3 z m 0,6 V -1725 c 3e-5,0.4808 -0.062,0.9535 -0.186,1.4182 l -0.96619,-0.2578 c 0.10147,-0.3802 0.15222,-0.767 0.15219,-1.1604 v -1.6536 z m -2.07141,5.9541 c -0.91134,0.7266 -1.94894,1.1235 -3.11279,1.1905 l -0.0575,-0.9983 c 0.95218,-0.055 1.80118,-0.3795 2.54694,-0.9741 z m -6.1213,1.1995 h -3 v -1 h 3 z m -6,0 h -3 v -1 h 3 z m -6,0 h -3 v -1 h 3 z m -6,0 h -3 v -1 h 3 z m -6,0 h -3 v -1 h 3 z m -6,0 h -3 v -1 h 3 z m -6,0 h -3 v -1 h 3 z m -6,0 h -3 v -1 h 3 z m -6,0 h -3 v -1 h 3 z m -6,0 h -3 v -1 h 3 z m -6,0 h -3 v -1 h 3 z m -6,0 h -3 v -1 h 3 z m -6,0 h -3 v -1 h 3 z m -6,0 h -3 v -1 h 3 z m -6,0 h -3 v -1 h 3 z m -6,0 h -3 v -1 h 3 z m -6,0 h -3 v -1 h 3 z m -6,0 h -3 v -1 h 3 z m -6,0 h -3 v -1 h 3 z m -6,0 h -3 v -1 h 3 z m -6.14026,-0.7858 c -1.04654,-0.6288 -1.80008,-1.5086 -2.26062,-2.6394 l 0.92614,-0.3772 c 0.3768,0.9252 0.99329,1.6451 1.84949,2.1595 z m -2.66703,-5.7533 v -3 h 1 v 3 z m 0,-6 v -3 h 1 v 3 z m 0,-6 v -3 h 1 v 3 z m 0,-6 v -3 h 1 v 3 z m 0,-6 v -3 h 1 v 3 z m 0,-6 v -3 h 1 v 3 z m 0,-6 v -3 h 1 v 3 z m 0,-6 v -3 h 1 v 3 z m 0,-6 v -3 h 1 v 3 z m 0,-6 v -2.9998 h 1 v 2.9998 z m 0,-5.9998 v -3.0002 h 1 v 3.0002 z m 0,-6.0002 v -3 h 1 v 3 z m 0,-6 v -3 h 1 v 3 z m 0,-6 v -3 h 1 v 3 z m 0,-6 v -3 h 1 v 3 z m 0,-6 v -3 h 1 v 3 z m 0,-6 v -3 h 1 v 3 z m 0,-6 v -2.9998 h 1 v 2.9998 z m 0,-6 v -2.9998 h 1 v 2.9998 z m 0,-6 v -2.9998 h 1 v 2.9998 z m 0,-6 v -2.9998 h 1 v 2.9998 z m 0,-6 v -3 h 1 v 3 z m 0,-6 v -3 h 1 v 3 z m 0,-6 v -3 h 1 v 3 z m 0,-6 v -3 h 1 v 3 z m 0,-6 v -3 h 1 v 3 z m 0,-6 v -3 h 1 v 3 z m 0,-6 v -3 h 1 v 3 z m 0,-6 v -3 h 1 v 3 z m 0,-6 v -3 h 1 v 3 z m 0,-6 v -3 h 1 v 3 z m 0,-6 v -3 h 1 v 3 z m 0,-6 v -3 h 1 v 3 z m 0,-6 v -3 h 1 v 3 z m 0,-6 v -3 h 1 v 3 z m 0.10886,-6.0498 c 0.23734,-1.1749 0.79892,-2.1665 1.68472,-2.9746 l 0.67395,0.7388 c -0.72476,0.6611 -1.18423,1.4724 -1.37845,2.4338 z m 4.75345,-4.374 c 0.21203,-0.025 0.42468,-0.037 0.63791,-0.037 H 373.91 v 1 h -3.00021 c -0.17447,-10e-5 -0.34818,0.01 -0.52115,0.03 l -0.11633,-0.9932 z"
       style="fill:#000000;fill-opacity:1;fill-rule:nonzero;stroke:none"
       transform="matrix(0.95170735,0,0,0.95170735,-73.65448,2067.6808)"
       clip-path="url(#clipPath62)" />
    <text
       id="text62"
       xml:space="preserve"
       transform="matrix(0.95170735,0,0,0.95170735,304.47075,238.02337)"
       clip-path="url(#clipPath63)"><tspan
         id="tspan62"
         style="font-variant:normal;font-weight:normal;font-size:12px;font-family:Arial;writing-mode:lr-tb;fill:#000000;fill-opacity:1;fill-rule:nonzero;stroke:none"
         x="0"
         y="0">«end» target</tspan></text>
    <path
       id="path64"
       d="m 380.91,-1915 h 100 c 0.663,10e-5 1.30078,0.1271 1.91336,0.3807 0.61252,0.2538 1.15323,0.6151 1.62214,1.0839 0.46884,0.469 0.8301,1.0098 1.08383,1.6222 0.25375,0.6125 0.38064,1.2502 0.38067,1.9132 v 175 c -3e-5,0.6632 -0.12692,1.301 -0.38064,1.9136 -0.25376,0.6126 -0.61502,1.1533 -1.08386,1.622 -0.46891,0.4689 -1.00962,0.8302 -1.62214,1.0839 -0.61258,0.2537 -1.25036,0.3805 -1.91336,0.3805 h -100 c -0.66308,0 -1.3009,-0.1268 -1.91345,-0.3804 -0.61258,-0.2538 -1.15329,-0.6151 -1.6221,-1.084 -0.46887,-0.4687 -0.83017,-1.0094 -1.08386,-1.622 -0.25376,-0.6126 -0.38062,-1.2504 -0.38059,-1.9136 v -175 c -3e-5,-0.663 0.12683,-1.3007 0.38056,-1.9132 0.25372,-0.6124 0.61502,-1.1532 1.08389,-1.6222 0.46881,-0.4688 1.00949,-0.8301 1.62207,-1.0839 0.61258,-0.2536 1.2504,-0.3806 1.91348,-0.3807 z"
       style="fill:#ffffff;fill-opacity:1;fill-rule:nonzero;stroke:none"
       transform="matrix(0.95170735,0,0,0.95170735,-73.65448,2067.6808)"
       clip-path="url(#clipPath65)" />
    <path
       id="path66"
       d="m 386.91,-1915.5 h 3 v 1 h -3 z m 6,0 h 3 v 1 h -3 z m 6,0 h 3 v 1 h -3 z m 6,0 h 3 v 1 h -3 z m 6,0 h 3 v 1 h -3 z m 6,0 h 3 v 1 h -3 z m 6,0 h 3 v 1 h -3 z m 6,0 h 3 v 1 h -3 z m 6,0 h 3 v 1 h -3 z m 6,0 h 3 v 1 h -3 z m 6,0 h 3 v 1 h -3 z m 6,0 h 3 v 1 h -3 z m 6,0 h 3 v 1 h -3 z m 6,0 h 3 v 1 h -3 z m 6,0 h 3 v 1 h -3 z m 6,0 h 3 v 1 h -3 z m 6.11621,0.4233 c 1.12729,0.4699 2.00113,1.231 2.62146,2.2831 l -0.86145,0.5078 c -0.50747,-0.8607 -1.22238,-1.4834 -2.14471,-1.8678 z m 3.38379,5.4231 v 3 h -1 v -3 z m 0,6 v 3 h -1 v -3 z m 0,6 v 3 h -1 v -3 z m 0,6 v 3 h -1 v -3 z m 0,6 v 3 h -1 v -3 z m 0,6 v 3 h -1 v -3 z m 0,6 v 3 h -1 v -3 z m 0,6 v 3 h -1 v -3 z m 0,6 v 3 h -1 v -3 z m 0,6 v 3 h -1 v -3 z m 0,6 v 3 h -1 v -3 z m 0,6 v 3 h -1 v -3 z m 0,6 v 3 h -1 v -3 z m 0,6 v 3 h -1 v -3 z m 0,6 v 3 h -1 v -3 z m 0,6 v 3 h -1 v -3 z m 0,6 v 3 h -1 v -3 z m 0,6 v 3 h -1 v -3 z m 0,6 v 3 h -1 v -3 z m 0,6 v 3 h -1 v -3 z m 0,6 v 3 h -1 v -3 z m 0,6 v 3 h -1 v -3 z m 0,6 v 3 h -1 v -3 z m 0,6 v 3 h -1 v -3 z m 0,6 v 3 h -1 v -3 z m 0,6 v 3 h -1 v -3 z m 0,6 v 3 h -1 v -3 z m 0,6 v 3 h -1 v -3 z m 0,6 v 3 h -1 v -3 z m 0,6 V -1735 c 0,0.8732 -0.1968,1.6996 -0.59039,2.479 l -0.89264,-0.4507 c 0.32202,-0.6377 0.48303,-1.3138 0.48303,-2.0283 v -0.6536 z m -3.0614,5.5834 c -0.76849,0.3801 -1.58136,0.5702 -2.4386,0.5702 h -0.69268 v -1 H 480.91 c 0.70151,0 1.36661,-0.1555 1.99524,-0.4664 z m -6.13128,0.5702 h -3 v -1 h 3 z m -6,0 h -3 v -1 h 3 z m -6,0 h -3 v -1 h 3 z m -6,0 h -3 v -1 h 3 z m -6,0 h -3 v -1 h 3 z m -6,0 h -3 v -1 h 3 z m -6,0 h -3 v -1 h 3 z m -6,0 h -3 v -1 h 3 z m -6,0 h -3 v -1 h 3 z m -6,0 h -3 v -1 h 3 z m -6,0 h -3 v -1 h 3 z m -6,0 h -3 v -1 h 3 z m -6,0 h -3 v -1 h 3 z m -6,0 h -3 v -1 h 3 z m -6,0 h -3 v -1 h 3 z m -6,0 h -3 v -1 h 3 z m -6,0 H 380.91 c -1.01699,0 -1.9613,-0.262 -2.83297,-0.7858 l 0.51513,-0.8571 c 0.71323,0.4285 1.48584,0.6429 2.31784,0.6429 h 0.30732 z m -5.40088,-3.425 c -0.27097,-0.6652 -0.40644,-1.3569 -0.40644,-2.075 v -1.0389 h 1 V -1735 c 0,0.5876 0.11084,1.1536 0.33252,1.6978 z m -0.40644,-6.1139 v -3 h 1 v 3 z m 0,-6 v -3 h 1 v 3 z m 0,-6 v -3 h 1 v 3 z m 0,-6 v -3 h 1 v 3 z m 0,-6 v -3 h 1 v 3 z m 0,-6 v -3 h 1 v 3 z m 0,-6 v -3 h 1 v 3 z m 0,-6 v -3 h 1 v 3 z m 0,-6 v -3 h 1 v 3 z m 0,-6 v -3 h 1 v 3 z m 0,-6 v -3 h 1 v 3 z m 0,-6 v -3 h 1 v 3 z m 0,-6 v -3 h 1 v 3 z m 0,-6 v -3 h 1 v 3 z m 0,-6 v -3 h 1 v 3 z m 0,-6 v -3 h 1 v 3 z m 0,-6 v -3 h 1 v 3 z m 0,-6 v -3 h 1 v 3 z m 0,-6 v -3 h 1 v 3 z m 0,-6 v -3 h 1 v 3 z m 0,-6 v -3 h 1 v 3 z m 0,-6 v -3 h 1 v 3 z m 0,-6 v -3 h 1 v 3 z m 0,-6 v -3 h 1 v 3 z m 0,-6 v -3 h 1 v 3 z m 0,-6 v -3 h 1 v 3 z m 0,-6 v -3 h 1 v 3 z m 0,-6 v -3 h 1 v 3 z m 0,-6 V -1910 c 0,-0.013 6e-5,-0.026 1.9e-4,-0.04 l 0.99994,0.01 c -10e-5,0.01 -1.3e-4,0.02 -1.3e-4,0.032 v 2.9611 h -1 z m 1.00858,-6.1355 c 0.70157,-0.9926 1.63007,-1.6773 2.78549,-2.0544 l 0.31024,0.9507 c -0.94546,0.3085 -1.70517,0.8688 -2.27914,1.6808 z M 380.91,-1915.5 h 3 v 1 h -3 z"
       style="fill:#000000;fill-opacity:1;fill-rule:nonzero;stroke:none"
       transform="matrix(0.95170735,0,0,0.95170735,-73.65448,2067.6808)"
       clip-path="url(#clipPath67)" />
    <text
       id="text67"
       xml:space="preserve"
       transform="matrix(0.95170735,0,0,0.95170735,301.61563,261.81606)"
       clip-path="url(#clipPath68)"><tspan
         id="tspan67"
         style="font-variant:normal;font-weight:normal;font-size:12px;font-family:Arial;writing-mode:lr-tb;fill:#000000;fill-opacity:1;fill-rule:nonzero;stroke:none"
         x="0"
         y="0">«out ref item»</tspan></text>
    <text
       id="text68"
       xml:space="preserve"
       transform="matrix(0.95170735,0,0,0.95170735,300.84237,275.13996)"
       clip-path="url(#clipPath69)"><tspan
         id="tspan68"
         style="font-variant:normal;font-weight:normal;font-size:12px;font-family:Arial;writing-mode:lr-tb;fill:#000000;fill-opacity:1;fill-rule:nonzero;stroke:none"
         x="0"
         y="0">^item2 : Item1</tspan></text>
    <path
       id="path70"
       d="m 395.91,-1870 h 70 c 0.663,10e-5 1.30078,0.1271 1.91336,0.3809 0.61258,0.2537 1.15329,0.6149 1.62217,1.0837 0.46881,0.4689 0.83007,1.0096 1.08383,1.6222 0.25375,0.6125 0.38061,1.2502 0.38064,1.9132 v 30 c -3e-5,0.6632 -0.12689,1.301 -0.38064,1.9136 -0.25376,0.6126 -0.61502,1.1533 -1.08383,1.622 -0.46888,0.4689 -1.00959,0.8302 -1.62217,1.084 -0.61258,0.2536 -1.25036,0.3804 -1.91336,0.3804 h -70 c -0.66305,0 -1.30087,-0.1268 -1.91345,-0.3805 -0.61258,-0.2538 -1.15329,-0.615 -1.6221,-1.0839 -0.46884,-0.4687 -0.83014,-1.0094 -1.08389,-1.622 -0.25376,-0.6126 -0.38059,-1.2504 -0.38056,-1.9136 v -30 c -3e-5,-0.663 0.1268,-1.3007 0.38053,-1.9132 0.25375,-0.6126 0.61508,-1.1533 1.08392,-1.6222 0.46881,-0.4688 1.00952,-0.83 1.6221,-1.0837 0.61258,-0.2538 1.2504,-0.3808 1.91345,-0.3809 z"
       style="fill:#ffffff;fill-opacity:1;fill-rule:nonzero;stroke:#000000;stroke-width:1;stroke-linecap:butt;stroke-linejoin:miter;stroke-miterlimit:10;stroke-dasharray:none;stroke-opacity:1"
       transform="matrix(0.95170735,0,0,0.95170735,-73.65448,2067.6808)"
       clip-path="url(#clipPath71)" />
    <text
       id="text71"
       xml:space="preserve"
       transform="translate(318.82278,304.65808)"
       clip-path="url(#clipPath72)"><tspan
         id="tspan71"
         style="font-variant:normal;font-weight:normal;font-size:11.42px;font-family:Arial;writing-mode:lr-tb;fill:#000000;fill-opacity:1;fill-rule:nonzero;stroke:none"
         x="0"
         y="0">«item»</tspan></text>
    <text
       id="text72"
       xml:space="preserve"
       transform="translate(312.4634,317.97058)"
       clip-path="url(#clipPath73)"><tspan
         id="tspan72"
         style="font-variant:normal;font-weight:normal;font-size:11.42px;font-family:Arial;writing-mode:lr-tb;fill:#000000;fill-opacity:1;fill-rule:nonzero;stroke:none"
         x="0"
         y="0">subItem1</tspan></text>
    <path
       id="path74"
       d="m 395.91,-1825 h 70 c 0.663,10e-5 1.30078,0.1271 1.91336,0.3809 0.61258,0.2537 1.15329,0.6151 1.62217,1.0838 0.46881,0.4689 0.83007,1.0095 1.08383,1.6221 0.25375,0.6125 0.38061,1.2502 0.38064,1.9132 v 30 c -3e-5,0.6631 -0.12689,1.3009 -0.38064,1.9136 -0.25376,0.6125 -0.61502,1.1532 -1.08383,1.622 -0.46888,0.4689 -1.00959,0.8302 -1.62217,1.0839 -0.61258,0.2537 -1.25036,0.3805 -1.91336,0.3805 h -70 c -0.66305,0 -1.30087,-0.1268 -1.91345,-0.3805 -0.61258,-0.2537 -1.15329,-0.615 -1.6221,-1.0839 -0.46884,-0.4688 -0.83014,-1.0095 -1.08389,-1.6219 -0.25376,-0.6127 -0.38059,-1.2506 -0.38056,-1.9137 v -30 c -3e-5,-0.663 0.1268,-1.3007 0.38053,-1.9131 0.25375,-0.6127 0.61508,-1.1533 1.08392,-1.6222 0.46881,-0.4687 1.00952,-0.8301 1.6221,-1.0838 0.61258,-0.2538 1.2504,-0.3808 1.91345,-0.3809 z"
       style="fill:#ffffff;fill-opacity:1;fill-rule:nonzero;stroke:#000000;stroke-width:1;stroke-linecap:butt;stroke-linejoin:miter;stroke-miterlimit:10;stroke-dasharray:none;stroke-opacity:1"
       transform="matrix(0.95170735,0,0,0.95170735,-73.65448,2067.6808)"
       clip-path="url(#clipPath75)" />
    <text
       id="text75"
       xml:space="preserve"
       transform="translate(318.82278,347.47058)"
       clip-path="url(#clipPath76)"><tspan
         id="tspan75"
         style="font-variant:normal;font-weight:normal;font-size:11.42px;font-family:Arial;writing-mode:lr-tb;fill:#000000;fill-opacity:1;fill-rule:nonzero;stroke:none"
         x="0"
         y="0">«item»</tspan></text>
    <text
       id="text76"
       xml:space="preserve"
       transform="translate(312.4634,360.79868)"
       clip-path="url(#clipPath77)"><tspan
         id="tspan76"
         style="font-variant:normal;font-weight:normal;font-size:11.42px;font-family:Arial;writing-mode:lr-tb;fill:#000000;fill-opacity:1;fill-rule:nonzero;stroke:none"
         x="0"
         y="0">subItem2</tspan></text>
    <path
       id="path78"
       d="m 395.91,-1780 h 70 c 0.663,10e-5 1.30078,0.1272 1.91336,0.381 0.61258,0.2538 1.15329,0.615 1.62217,1.0837 0.46881,0.4689 0.83007,1.0095 1.08383,1.6221 0.25375,0.6125 0.38061,1.2502 0.38064,1.9132 v 30 c -3e-5,0.6632 -0.12689,1.301 -0.38064,1.9136 -0.25376,0.6126 -0.61502,1.1533 -1.08383,1.622 -0.46888,0.4689 -1.00959,0.8302 -1.62217,1.0839 -0.61258,0.2537 -1.25036,0.3805 -1.91336,0.3805 h -70 c -0.66305,0 -1.30087,-0.1268 -1.91345,-0.3804 -0.61258,-0.2538 -1.15329,-0.6151 -1.6221,-1.084 -0.46884,-0.4687 -0.83014,-1.0094 -1.08389,-1.622 -0.25376,-0.6126 -0.38059,-1.2504 -0.38056,-1.9136 v -30 c -3e-5,-0.663 0.1268,-1.3007 0.38053,-1.9132 0.25375,-0.6126 0.61508,-1.1532 1.08392,-1.6221 0.46881,-0.4687 1.00952,-0.8299 1.6221,-1.0837 0.61258,-0.2538 1.2504,-0.3809 1.91345,-0.381 z"
       style="fill:#ffffff;fill-opacity:1;fill-rule:nonzero;stroke:#000000;stroke-width:1;stroke-linecap:butt;stroke-linejoin:miter;stroke-miterlimit:10;stroke-dasharray:none;stroke-opacity:1"
       transform="matrix(0.95170735,0,0,0.95170735,-73.65448,2067.6808)"
       clip-path="url(#clipPath79)" />
    <text
       id="text79"
       xml:space="preserve"
       transform="translate(318.82278,390.29873)"
       clip-path="url(#clipPath80)"><tspan
         id="tspan79"
         style="font-variant:normal;font-weight:normal;font-size:11.42px;font-family:Arial;writing-mode:lr-tb;fill:#000000;fill-opacity:1;fill-rule:nonzero;stroke:none"
         x="0"
         y="0">«item»</tspan></text>
    <text
       id="text80"
       xml:space="preserve"
       transform="translate(312.4634,403.62685)"
       clip-path="url(#clipPath81)"><tspan
         id="tspan80"
         style="font-variant:normal;font-weight:normal;font-size:11.42px;font-family:Arial;writing-mode:lr-tb;fill:#000000;fill-opacity:1;fill-rule:nonzero;stroke:none"
         x="0"
         y="0">subItem3</tspan></text>
    <path
       id="path82"
       d="M 253,-1850 H 380.79001"
       style="fill:none;stroke:#000000;stroke-width:1;stroke-linecap:butt;stroke-linejoin:miter;stroke-miterlimit:10;stroke-dasharray:none;stroke-opacity:1"
       transform="matrix(0.95170735,0,0,0.95170735,-73.65448,2067.6808)"
       clip-path="url(#clipPath83)" />
    <path
       id="path84"
       d="m 389.79001,-1850 -9,4.5 v -9 z"
       style="fill:#000000;fill-opacity:1;fill-rule:nonzero;stroke:#000000;stroke-width:1;stroke-linecap:butt;stroke-linejoin:miter;stroke-miterlimit:10;stroke-dasharray:none;stroke-opacity:1"
       transform="matrix(0.95170735,0,0,0.95170735,-73.65448,2067.6808)"
       clip-path="url(#clipPath85)" />
    <path
       id="path86"
       d="M 253,-1805 H 380.79001"
       style="fill:none;stroke:#000000;stroke-width:1;stroke-linecap:butt;stroke-linejoin:miter;stroke-miterlimit:10;stroke-dasharray:none;stroke-opacity:1"
       transform="matrix(0.95170735,0,0,0.95170735,-73.65448,2067.6808)"
       clip-path="url(#clipPath87)" />
    <path
       id="path88"
       d="m 389.79001,-1805 -9,4.5 v -9 z"
       style="fill:#000000;fill-opacity:1;fill-rule:nonzero;stroke:#000000;stroke-width:1;stroke-linecap:butt;stroke-linejoin:miter;stroke-miterlimit:10;stroke-dasharray:none;stroke-opacity:1"
       transform="matrix(0.95170735,0,0,0.95170735,-73.65448,2067.6808)"
       clip-path="url(#clipPath89)" />
    <path
       id="path90"
       d="M 253,-1760 H 380.79001"
       style="fill:none;stroke:#000000;stroke-width:1;stroke-linecap:butt;stroke-linejoin:miter;stroke-miterlimit:10;stroke-dasharray:none;stroke-opacity:1"
       transform="matrix(0.95170735,0,0,0.95170735,-73.65448,2067.6808)"
       clip-path="url(#clipPath91)" />
    <path
       id="path92"
       d="m 389.79001,-1760 -9,4.5 v -9 z"
       style="fill:#000000;fill-opacity:1;fill-rule:nonzero;stroke:#000000;stroke-width:1;stroke-linecap:butt;stroke-linejoin:miter;stroke-miterlimit:10;stroke-dasharray:none;stroke-opacity:1"
       transform="matrix(0.95170735,0,0,0.95170735,-73.65448,2067.6808)"
       clip-path="url(#clipPath93)" />
    <path
       id="path94"
       d="m 322.5,-2010 v -3 h 1 v 3 m -1,-6 v -3 h 1 v 3 m -1,-6 v -3 h 1 v 3 m -1,-6 v -3 h 1 v 3 m -1,-6 v -3 h 1 v 3 m -1,-6 v -3 h 1 v 3 m -1,-6 v -3 h 1 v 3 m -1,-6 v -3 h 1 v 3 m -1,-6 v -3 h 1 v 3 m -1,-6 v -3 h 1 v 3 m -1,-6 v -3 h 1 v 3 m -1,-6 v -3 h 1 v 3 m -1,-6 v -3 h 1 v 3 m -1,-6 v -2 h 1 v 2"
       style="fill:#000000;fill-opacity:1;fill-rule:nonzero;stroke:none"
       transform="matrix(0.95170735,0,0,0.95170735,-73.65448,2067.6808)"
       clip-path="url(#clipPath95)" />
    <path
       id="path96"
       d="M 232.85001,-2090.28 H 250.61"
       style="fill:none;stroke:#000000;stroke-width:1;stroke-linecap:butt;stroke-linejoin:miter;stroke-miterlimit:10;stroke-dasharray:none;stroke-opacity:1"
       transform="matrix(0.95170735,0,0,0.95170735,-73.65448,2067.6808)"
       clip-path="url(#clipPath97)" />
    <path
       id="path98"
       d="m 243.73,-2086.28 8,-4 -8,-4"
       style="fill:none;stroke:#000000;stroke-width:1;stroke-linecap:butt;stroke-linejoin:miter;stroke-miterlimit:10;stroke-dasharray:none;stroke-opacity:1"
       transform="matrix(0.95170735,0,0,0.95170735,-73.65448,2067.6808)"
       clip-path="url(#clipPath99)" />
    <path
       id="path100"
       d="M 407.98999,-2090.28 H 425.75"
       style="fill:none;stroke:#000000;stroke-width:1;stroke-linecap:butt;stroke-linejoin:miter;stroke-miterlimit:10;stroke-dasharray:none;stroke-opacity:1"
       transform="matrix(0.95170735,0,0,0.95170735,-73.65448,2067.6808)"
       clip-path="url(#clipPath101)" />
    <path
       id="path102"
       d="m 418.87,-2086.28 8,-4 -8,-4"
       style="fill:none;stroke:#000000;stroke-width:1;stroke-linecap:butt;stroke-linejoin:miter;stroke-miterlimit:10;stroke-dasharray:none;stroke-opacity:1"
       transform="matrix(0.95170735,0,0,0.95170735,-73.65448,2067.6808)"
       clip-path="url(#clipPath103)" />
    <path
       id="path104"
       d="m 103.85,-2145 h 125.00001 c 0.66302,2e-4 1.30081,0.1272 1.91337,0.3809 0.61257,0.2536 1.15328,0.6149 1.62213,1.0837 0.46883,0.469 0.83013,1.0098 1.08387,1.6223 0.25373,0.6126 0.38061,1.2503 0.38063,1.9131 v 100 c -2e-5,0.6632 -0.12691,1.301 -0.38065,1.9137 -0.25374,0.6125 -0.61502,1.1532 -1.08385,1.6219 -0.46885,0.4689 -1.00956,0.8302 -1.62213,1.0839 -0.61256,0.2537 -1.25035,0.3805 -1.91337,0.3805 H 103.85 c -0.66305,0 -1.30086,-0.1268 -1.91343,-0.3805 -0.61257,-0.2537 -1.15327,-0.615 -1.62211,-1.0839 -0.468848,-0.4687 -0.830138,-1.0094 -1.083869,-1.6219 -0.253739,-0.6127 -0.3806,-1.2505 -0.380593,-1.9137 v -100 c -7e-6,-0.6628 0.126854,-1.3005 0.380593,-1.9131 0.253731,-0.6125 0.615021,-1.1533 1.083869,-1.6223 0.46884,-0.4688 1.00954,-0.8301 1.62211,-1.0837 0.61257,-0.2537 1.25038,-0.3807 1.91343,-0.3809 z"
       style="fill:#ffffff;fill-opacity:1;fill-rule:nonzero;stroke:#000000;stroke-width:1;stroke-linecap:butt;stroke-linejoin:miter;stroke-miterlimit:10;stroke-dasharray:none;stroke-opacity:1"
       transform="matrix(0.95170735,0,0,0.95170735,-73.65448,2067.6808)"
       clip-path="url(#clipPath105)" />
    <text
       id="text105"
       xml:space="preserve"
       transform="matrix(0.95170735,0,0,0.95170735,55.539797,46.730197)"
       clip-path="url(#clipPath106)"><tspan
         id="tspan105"
         style="font-variant:normal;font-weight:normal;font-size:16px;font-family:Arial;writing-mode:lr-tb;fill:#000000;fill-opacity:1;fill-rule:nonzero;stroke:none"
         x="0"
         y="0">«action»</tspan></text>
    <text
       id="text106"
       xml:space="preserve"
       transform="matrix(0.95170735,0,0,0.95170735,28.460749,64.812637)"
       clip-path="url(#clipPath107)"><tspan
         id="tspan106"
         style="font-variant:normal;font-weight:normal;font-size:16px;font-family:Arial;writing-mode:lr-tb;fill:#000000;fill-opacity:1;fill-rule:nonzero;stroke:none"
         x="0"
         dx="0 0 0 0 0 0 0 0 0 0 -0.8828122"
         y="0">action1 : Action1</tspan></text>
  </g>
</svg>
