<?xml version="1.0" encoding="UTF-8" standalone="no"?>
<!-- Created with Inkscape (http://www.inkscape.org/) -->

<svg
   version="1.1"
   id="svg1"
   width="233.27998"
   height="136"
   viewBox="0 0 233.27998 136"
   xmlns="http://www.w3.org/2000/svg"
   xmlns:svg="http://www.w3.org/2000/svg">
  <defs
     id="defs1">
    <clipPath
       clipPathUnits="userSpaceOnUse"
       id="clipPath2">
      <path
         d="M 0,0 H 729.00391 V 425.97656 H 0 Z"
         transform="scale(0.31999999)"
         clip-rule="evenodd"
         id="path2" />
    </clipPath>
    <clipPath
       clipPathUnits="userSpaceOnUse"
       id="clipPath4">
      <path
         d="M 3.125,0 H 725 V 425 H 3.125 Z"
         transform="matrix(0.33889838,0,0,0.33889838,387.37988,3808.4411)"
         clip-rule="evenodd"
         id="path4" />
    </clipPath>
    <clipPath
       clipPathUnits="userSpaceOnUse"
       id="clipPath5">
      <path
         d="M 3.125,0 H 725 V 425 H 3.125 Z"
         transform="matrix(0.33889838,0,0,0.33889838,-40.010758,-28.059183)"
         clip-rule="evenodd"
         id="path5" />
    </clipPath>
    <clipPath
       clipPathUnits="userSpaceOnUse"
       id="clipPath6">
      <path
         d="M 3.125,0 H 725 V 425 H 3.125 Z"
         transform="matrix(0.33889838,0,0,0.33889838,-17.338878,-49.059183)"
         clip-rule="evenodd"
         id="path6" />
    </clipPath>
    <clipPath
       clipPathUnits="userSpaceOnUse"
       id="clipPath8">
      <path
         d="M 3.125,0 H 725 V 425 H 3.125 Z"
         transform="matrix(0.33889838,0,0,0.33889838,387.37988,3808.4411)"
         clip-rule="evenodd"
         id="path8" />
    </clipPath>
    <clipPath
       clipPathUnits="userSpaceOnUse"
       id="clipPath9">
      <path
         d="M 3.125,0 H 725 V 425 H 3.125 Z"
         transform="matrix(0.33889838,0,0,0.33889838,-160.01076,-28.059183)"
         clip-rule="evenodd"
         id="path9" />
    </clipPath>
    <clipPath
       clipPathUnits="userSpaceOnUse"
       id="clipPath10">
      <path
         d="M 3.125,0 H 725 V 425 H 3.125 Z"
         transform="matrix(0.33889838,0,0,0.33889838,-137.33888,-49.059183)"
         clip-rule="evenodd"
         id="path10" />
    </clipPath>
    <clipPath
       clipPathUnits="userSpaceOnUse"
       id="clipPath12">
      <path
         d="M 3.125,0 H 725 V 425 H 3.125 Z"
         transform="matrix(0.33889838,0,0,0.33889838,387.37988,3808.4411)"
         clip-rule="evenodd"
         id="path12" />
    </clipPath>
    <clipPath
       clipPathUnits="userSpaceOnUse"
       id="clipPath14">
      <path
         d="M 3.125,0 H 725 V 425 H 3.125 Z"
         transform="matrix(0.33889838,0,0,0.33889838,387.37988,3808.4411)"
         clip-rule="evenodd"
         id="path14" />
    </clipPath>
    <clipPath
       clipPathUnits="userSpaceOnUse"
       id="clipPath16">
      <path
         d="M 3.125,0 H 725 V 425 H 3.125 Z"
         transform="matrix(0.33889838,0,0,0.33889838,387.37988,3808.4411)"
         clip-rule="evenodd"
         id="path16" />
    </clipPath>
    <clipPath
       clipPathUnits="userSpaceOnUse"
       id="clipPath18">
      <path
         d="M 3.125,0 H 725 V 425 H 3.125 Z"
         transform="matrix(0.33889838,0,0,0.33889838,387.37988,3808.4411)"
         clip-rule="evenodd"
         id="path18" />
    </clipPath>
    <clipPath
       clipPathUnits="userSpaceOnUse"
       id="clipPath20">
      <path
         d="M 3.125,0 H 725 V 425 H 3.125 Z"
         transform="matrix(0.33889838,0,0,0.33889838,387.87987,3808.9408)"
         clip-rule="evenodd"
         id="path20" />
    </clipPath>
    <clipPath
       clipPathUnits="userSpaceOnUse"
       id="clipPath21">
      <path
         d="M 3.125,0 H 725 V 425 H 3.125 Z"
         transform="matrix(0.33889838,0,0,0.33889838,-111.16701,-71.059182)"
         clip-rule="evenodd"
         id="path21" />
    </clipPath>
  </defs>
  <g
     id="g1">
    <path
       id="path1"
       d="M 0,0 H 233 V 136 H 0 Z"
       style="fill:#ffffff;fill-opacity:1;fill-rule:nonzero;stroke:none"
       clip-path="url(#clipPath2)" />
    <path
       id="path3"
       d="m 405,3820.03 h 94 c 0.66302,0 1.30081,0.1267 1.91339,0.3802 0.61258,0.2539 1.15329,0.6152 1.62213,1.0842 0.46881,0.4685 0.83008,1.0093 1.08383,1.6218 0.25373,0.6126 0.38062,1.2505 0.38065,1.9138 v 34 c -3e-5,0.6626 -0.12692,1.3003 -0.38068,1.9129 -0.25372,0.6125 -0.61499,1.1535 -1.0838,1.6225 -0.46884,0.4685 -1.00958,0.8299 -1.62216,1.0835 -0.61255,0.2537 -1.25034,0.3806 -1.91336,0.3811 h -94 c -0.66306,-5e-4 -1.30087,-0.1274 -1.91345,-0.3811 -0.61258,-0.2536 -1.15329,-0.615 -1.6221,-1.0835 -0.46888,-0.469 -0.83017,-1.01 -1.0839,-1.6225 -0.25375,-0.6126 -0.38058,-1.2503 -0.38055,-1.9129 v -34 c -3e-5,-0.6633 0.1268,-1.3012 0.38055,-1.914 0.25373,-0.6126 0.61502,-1.1531 1.0839,-1.6216 0.46881,-0.469 1.00949,-0.8303 1.62207,-1.0842 0.61258,-0.2535 1.25042,-0.3802 1.91348,-0.3802 z"
       style="fill:#ffffff;fill-opacity:1;fill-rule:nonzero;stroke:#000000;stroke-width:1;stroke-linecap:butt;stroke-linejoin:miter;stroke-miterlimit:10;stroke-dasharray:none;stroke-opacity:1"
       transform="matrix(0.9442358,0,0,0.9442358,-365.77795,-3596.0664)"
       clip-path="url(#clipPath4)" />
    <text
       id="text4"
       xml:space="preserve"
       transform="matrix(0.9442358,0,0,0.9442358,37.77959,26.494485)"
       clip-path="url(#clipPath5)"><tspan
         id="tspan4"
         style="font-variant:normal;font-weight:normal;font-size:17px;font-family:Arial;writing-mode:lr-tb;fill:#000000;fill-opacity:1;fill-rule:nonzero;stroke:none"
         x="0"
         y="0">«part»</tspan></text>
    <text
       id="text5"
       xml:space="preserve"
       transform="matrix(0.9442358,0,0,0.9442358,16.371989,46.323437)"
       clip-path="url(#clipPath6)"><tspan
         id="tspan5"
         style="font-variant:normal;font-weight:normal;font-size:17px;font-family:Arial;writing-mode:lr-tb;fill:#000000;fill-opacity:1;fill-rule:nonzero;stroke:none"
         x="0"
         y="0">part1 : Part1</tspan></text>
    <path
       id="path7"
       d="m 525,3820.03 h 94 c 0.66302,0 1.30084,0.1267 1.91339,0.3802 0.61255,0.2539 1.15326,0.6152 1.62207,1.0842 0.46881,0.4685 0.83014,1.0093 1.08386,1.6218 0.25373,0.6126 0.38062,1.2505 0.38068,1.9138 v 34 c -6e-5,0.6626 -0.12695,1.3003 -0.38068,1.9129 -0.25372,0.6125 -0.61505,1.1535 -1.08386,1.6225 -0.46881,0.4685 -1.00952,0.8299 -1.62207,1.0835 -0.61255,0.2537 -1.25037,0.3806 -1.91339,0.3811 h -94 c -0.66309,-5e-4 -1.3009,-0.1274 -1.91351,-0.3811 -0.61255,-0.2536 -1.1532,-0.615 -1.62201,-1.0835 -0.46887,-0.469 -0.8302,-1.01 -1.08393,-1.6225 -0.25372,-0.6126 -0.38061,-1.2503 -0.38055,-1.9129 v -34 c -6e-5,-0.6633 0.12683,-1.3012 0.38055,-1.914 0.25373,-0.6126 0.61506,-1.1531 1.08393,-1.6216 0.46881,-0.469 1.00946,-0.8303 1.62207,-1.0842 0.61255,-0.2535 1.25036,-0.3802 1.91345,-0.3802 z"
       style="fill:#ffffff;fill-opacity:1;fill-rule:nonzero;stroke:#000000;stroke-width:1;stroke-linecap:butt;stroke-linejoin:miter;stroke-miterlimit:10;stroke-dasharray:none;stroke-opacity:1"
       transform="matrix(0.9442358,0,0,0.9442358,-365.77795,-3596.0664)"
       clip-path="url(#clipPath8)" />
    <text
       id="text8"
       xml:space="preserve"
       transform="matrix(0.9442358,0,0,0.9442358,151.08789,26.494485)"
       clip-path="url(#clipPath9)"><tspan
         id="tspan8"
         style="font-variant:normal;font-weight:normal;font-size:17px;font-family:Arial;writing-mode:lr-tb;fill:#000000;fill-opacity:1;fill-rule:nonzero;stroke:none"
         x="0"
         y="0">«part»</tspan></text>
    <text
       id="text9"
       xml:space="preserve"
       transform="matrix(0.9442358,0,0,0.9442358,129.68029,46.323437)"
       clip-path="url(#clipPath10)"><tspan
         id="tspan9"
         style="font-variant:normal;font-weight:normal;font-size:17px;font-family:Arial;writing-mode:lr-tb;fill:#000000;fill-opacity:1;fill-rule:nonzero;stroke:none"
         x="0"
         y="0">part2 : Part2</tspan></text>
    <path
       id="path11"
       d="m 451.5,3933.78 v -3 h 1 v 3 m -1,-6 v -3 h 1 v 3 m -1,-6 v -3 h 1 v 3 m -1,-6 v -3 h 1 v 3 m -1,-6 v -3 h 1 v 3 m -1,-6 v -3 h 1 v 3 m -1,-6 v -3 h 1 v 3 m -1,-6 v -3 h 1 v 3 m -1,-6 v -3 h 1 v 3 m -1,-6 v -3 h 1 v 3 m -1,-6 v -3 h 1 v 3 m -1,-6 v -3 h 1 v 3"
       style="fill:#000000;fill-opacity:1;fill-rule:nonzero;stroke:none"
       transform="matrix(0.9442358,0,0,0.9442358,-365.77795,-3596.0664)"
       clip-path="url(#clipPath12)" />
    <path
       id="path13"
       d="m 571.5,3933.78 v -3 h 1 v 3 m -1,-6 v -3 h 1 v 3 m -1,-6 v -3 h 1 v 3 m -1,-6 v -3 h 1 v 3 m -1,-6 v -3 h 1 v 3 m -1,-6 v -3 h 1 v 3 m -1,-6 v -3 h 1 v 3 m -1,-6 v -3 h 1 v 3 m -1,-6 v -3 h 1 v 3 m -1,-6 v -3 h 1 v 3 m -1,-6 v -3 h 1 v 3 m -1,-6 v -3 h 1 v 3"
       style="fill:#000000;fill-opacity:1;fill-rule:nonzero;stroke:none"
       transform="matrix(0.9442358,0,0,0.9442358,-365.77795,-3596.0664)"
       clip-path="url(#clipPath14)" />
    <path
       id="path15"
       d="M 452,3884.78 H 564.13"
       style="fill:none;stroke:#000000;stroke-width:1;stroke-linecap:butt;stroke-linejoin:miter;stroke-miterlimit:10;stroke-dasharray:none;stroke-opacity:1"
       transform="matrix(0.9442358,0,0,0.9442358,-365.77795,-3596.0664)"
       clip-path="url(#clipPath16)" />
    <path
       id="path17"
       d="m 570.88,3884.78 -9,4.5 2.25,-4.5 -2.25,-4.5 z"
       style="fill:none;stroke:#000000;stroke-width:1;stroke-linecap:butt;stroke-linejoin:miter;stroke-miterlimit:10;stroke-dasharray:none;stroke-opacity:1"
       transform="matrix(0.9442358,0,0,0.9442358,-365.77795,-3596.0664)"
       clip-path="url(#clipPath18)" />
    <path
       id="path19"
       d="m 499,3870 h 27 v 13 h -27 z"
       style="fill:#ffffff;fill-opacity:1;fill-rule:nonzero;stroke:none"
       transform="matrix(0.9442358,0,0,0.9442358,-366.25006,-3596.5383)"
       clip-path="url(#clipPath20)" />
    <text
       id="text20"
       xml:space="preserve"
       transform="matrix(0.9442358,0,0,0.9442358,104.96787,67.096624)"
       clip-path="url(#clipPath21)"><tspan
         id="tspan20"
         style="font-variant:normal;font-weight:normal;font-size:11px;font-family:Arial;writing-mode:lr-tb;fill:#000000;fill-opacity:1;fill-rule:nonzero;stroke:none"
         x="0"
         y="0">msg1</tspan></text>
  </g>
</svg>
