<?xml version="1.0" encoding="UTF-8" standalone="no"?>
<!-- Created with Inkscape (http://www.inkscape.org/) -->

<svg
   version="1.1"
   id="svg1"
   width="286.72"
   height="133.43999"
   viewBox="0 0 286.72 133.43999"
   xmlns="http://www.w3.org/2000/svg"
   xmlns:svg="http://www.w3.org/2000/svg">
  <defs
     id="defs1">
    <clipPath
       clipPathUnits="userSpaceOnUse"
       id="clipPath2">
      <path
         d="M 0,0 H 893.99414 V 416.99219 H 0 Z"
         transform="scale(0.31999999)"
         clip-rule="evenodd"
         id="path2" />
    </clipPath>
    <clipPath
       clipPathUnits="userSpaceOnUse"
       id="clipPath4">
      <path
         d="m 3.125,0 h 887.5 V 416.99219 H 3.125 Z"
         transform="matrix(0.33728911,0,0,0.33728911,316.88396,2793.9462)"
         clip-rule="evenodd"
         id="path4" />
    </clipPath>
    <clipPath
       clipPathUnits="userSpaceOnUse"
       id="clipPath5">
      <path
         d="m 3.125,0 h 887.5 V 416.99219 H 3.125 Z"
         transform="matrix(0.33728911,0,0,0.33728911,-124.61604,-19.55383)"
         clip-rule="evenodd"
         id="path5" />
    </clipPath>
    <clipPath
       clipPathUnits="userSpaceOnUse"
       id="clipPath6">
      <path
         d="m 3.125,0 h 887.5 V 416.99219 H 3.125 Z"
         transform="matrix(0.33728911,0,0,0.33728911,-4.6160386,-33.553829)"
         clip-rule="evenodd"
         id="path6" />
    </clipPath>
    <clipPath
       clipPathUnits="userSpaceOnUse"
       id="clipPath7">
      <path
         d="m 3.125,0 h 887.5 V 416.99219 H 3.125 Z"
         transform="matrix(0.33728911,0,0,0.33728911,-35.975419,-33.553829)"
         clip-rule="evenodd"
         id="path7" />
    </clipPath>
    <clipPath
       clipPathUnits="userSpaceOnUse"
       id="clipPath8">
      <path
         d="m 3.125,0 h 887.5 V 416.99219 H 3.125 Z"
         transform="matrix(0.33728911,0,0,0.33728911,-47.303538,-33.553829)"
         clip-rule="evenodd"
         id="path8" />
    </clipPath>
    <clipPath
       clipPathUnits="userSpaceOnUse"
       id="clipPath9">
      <path
         d="m 3.125,0 h 887.5 V 416.99219 H 3.125 Z"
         transform="matrix(0.33728911,0,0,0.33728911,-95.991038,-33.553829)"
         clip-rule="evenodd"
         id="path9" />
    </clipPath>
    <clipPath
       clipPathUnits="userSpaceOnUse"
       id="clipPath10">
      <path
         d="m 3.125,0 h 887.5 V 416.99219 H 3.125 Z"
         transform="matrix(0.33728911,0,0,0.33728911,-122.66291,-33.553829)"
         clip-rule="evenodd"
         id="path10" />
    </clipPath>
    <clipPath
       clipPathUnits="userSpaceOnUse"
       id="clipPath11">
      <path
         d="m 3.125,0 h 887.5 V 416.99219 H 3.125 Z"
         transform="matrix(0.33728911,0,0,0.33728911,-187.38167,-33.553829)"
         clip-rule="evenodd"
         id="path11" />
    </clipPath>
    <clipPath
       clipPathUnits="userSpaceOnUse"
       id="clipPath12">
      <path
         d="m 3.125,0 h 887.5 V 416.99219 H 3.125 Z"
         transform="matrix(0.33728911,0,0,0.33728911,-198.70978,-33.553829)"
         clip-rule="evenodd"
         id="path12" />
    </clipPath>
    <clipPath
       clipPathUnits="userSpaceOnUse"
       id="clipPath13">
      <path
         d="m 3.125,0 h 887.5 V 416.99219 H 3.125 Z"
         transform="matrix(0.33728911,0,0,0.33728911,-4.6160386,-49.553829)"
         clip-rule="evenodd"
         id="path13" />
    </clipPath>
    <clipPath
       clipPathUnits="userSpaceOnUse"
       id="clipPath14">
      <path
         d="m 3.125,0 h 887.5 V 416.99219 H 3.125 Z"
         transform="matrix(0.33728911,0,0,0.33728911,-35.975419,-49.553829)"
         clip-rule="evenodd"
         id="path14" />
    </clipPath>
    <clipPath
       clipPathUnits="userSpaceOnUse"
       id="clipPath15">
      <path
         d="m 3.125,0 h 887.5 V 416.99219 H 3.125 Z"
         transform="matrix(0.33728911,0,0,0.33728911,-62.647288,-49.553829)"
         clip-rule="evenodd"
         id="path15" />
    </clipPath>
    <clipPath
       clipPathUnits="userSpaceOnUse"
       id="clipPath16">
      <path
         d="m 3.125,0 h 887.5 V 416.99219 H 3.125 Z"
         transform="matrix(0.33728911,0,0,0.33728911,-144.70979,-49.553829)"
         clip-rule="evenodd"
         id="path16" />
    </clipPath>
    <clipPath
       clipPathUnits="userSpaceOnUse"
       id="clipPath17">
      <path
         d="m 3.125,0 h 887.5 V 416.99219 H 3.125 Z"
         transform="matrix(0.33728911,0,0,0.33728911,-156.03792,-49.553829)"
         clip-rule="evenodd"
         id="path17" />
    </clipPath>
    <clipPath
       clipPathUnits="userSpaceOnUse"
       id="clipPath18">
      <path
         d="m 3.125,0 h 887.5 V 416.99219 H 3.125 Z"
         transform="matrix(0.33728911,0,0,0.33728911,-4.6160386,-66.553829)"
         clip-rule="evenodd"
         id="path18" />
    </clipPath>
    <clipPath
       clipPathUnits="userSpaceOnUse"
       id="clipPath19">
      <path
         d="m 3.125,0 h 887.5 V 416.99219 H 3.125 Z"
         transform="matrix(0.33728911,0,0,0.33728911,-83.350419,-66.553829)"
         clip-rule="evenodd"
         id="path19" />
    </clipPath>
    <clipPath
       clipPathUnits="userSpaceOnUse"
       id="clipPath20">
      <path
         d="m 3.125,0 h 887.5 V 416.99219 H 3.125 Z"
         transform="matrix(0.33728911,0,0,0.33728911,-94.678539,-66.553829)"
         clip-rule="evenodd"
         id="path20" />
    </clipPath>
    <clipPath
       clipPathUnits="userSpaceOnUse"
       id="clipPath21">
      <path
         d="m 3.125,0 h 887.5 V 416.99219 H 3.125 Z"
         transform="matrix(0.33728911,0,0,0.33728911,-4.6160386,-82.55383)"
         clip-rule="evenodd"
         id="path21" />
    </clipPath>
    <clipPath
       clipPathUnits="userSpaceOnUse"
       id="clipPath22">
      <path
         d="m 3.125,0 h 887.5 V 416.99219 H 3.125 Z"
         transform="matrix(0.33728911,0,0,0.33728911,-73.319169,-82.55383)"
         clip-rule="evenodd"
         id="path22" />
    </clipPath>
    <clipPath
       clipPathUnits="userSpaceOnUse"
       id="clipPath23">
      <path
         d="m 3.125,0 h 887.5 V 416.99219 H 3.125 Z"
         transform="matrix(0.33728911,0,0,0.33728911,-152.05354,-82.55383)"
         clip-rule="evenodd"
         id="path23" />
    </clipPath>
    <clipPath
       clipPathUnits="userSpaceOnUse"
       id="clipPath24">
      <path
         d="m 3.125,0 h 887.5 V 416.99219 H 3.125 Z"
         transform="matrix(0.33728911,0,0,0.33728911,-163.38167,-82.55383)"
         clip-rule="evenodd"
         id="path24" />
    </clipPath>
    <clipPath
       clipPathUnits="userSpaceOnUse"
       id="clipPath25">
      <path
         d="m 3.125,0 h 887.5 V 416.99219 H 3.125 Z"
         transform="matrix(0.33728911,0,0,0.33728911,-4.6160386,-99.55383)"
         clip-rule="evenodd"
         id="path25" />
    </clipPath>
    <clipPath
       clipPathUnits="userSpaceOnUse"
       id="clipPath26">
      <path
         d="m 3.125,0 h 887.5 V 416.99219 H 3.125 Z"
         transform="matrix(0.33728911,0,0,0.33728911,-55.991038,-99.55383)"
         clip-rule="evenodd"
         id="path26" />
    </clipPath>
    <clipPath
       clipPathUnits="userSpaceOnUse"
       id="clipPath27">
      <path
         d="m 3.125,0 h 887.5 V 416.99219 H 3.125 Z"
         transform="matrix(0.33728911,0,0,0.33728911,-85.334789,-99.55383)"
         clip-rule="evenodd"
         id="path27" />
    </clipPath>
    <clipPath
       clipPathUnits="userSpaceOnUse"
       id="clipPath28">
      <path
         d="m 3.125,0 h 887.5 V 416.99219 H 3.125 Z"
         transform="matrix(0.33728911,0,0,0.33728911,-112.00667,-99.55383)"
         clip-rule="evenodd"
         id="path28" />
    </clipPath>
    <clipPath
       clipPathUnits="userSpaceOnUse"
       id="clipPath29">
      <path
         d="m 3.125,0 h 887.5 V 416.99219 H 3.125 Z"
         transform="matrix(0.33728911,0,0,0.33728911,-146.03791,-99.55383)"
         clip-rule="evenodd"
         id="path29" />
    </clipPath>
    <clipPath
       clipPathUnits="userSpaceOnUse"
       id="clipPath30">
      <path
         d="m 3.125,0 h 887.5 V 416.99219 H 3.125 Z"
         transform="matrix(0.33728911,0,0,0.33728911,-157.36604,-99.55383)"
         clip-rule="evenodd"
         id="path30" />
    </clipPath>
  </defs>
  <g
     id="g1">
    <path
       id="path1"
       d="M 0,0 H 286 V 133 H 0 Z"
       style="fill:#ffffff;fill-opacity:1;fill-rule:nonzero;stroke:none"
       clip-path="url(#clipPath2)" />
    <path
       id="path3"
       d="m 320,2796 h 295 v 120 H 320 Z"
       style="fill:#ffffff;fill-opacity:1;fill-rule:nonzero;stroke:#000000;stroke-width:1;stroke-linecap:butt;stroke-linejoin:miter;stroke-miterlimit:10;stroke-dasharray:none;stroke-opacity:1"
       transform="matrix(0.94874095,0,0,0.94874095,-300.64079,-2650.7312)"
       clip-path="url(#clipPath4)" />
    <text
       id="text4"
       xml:space="preserve"
       transform="matrix(0.94874095,0,0,0.94874095,118.22834,18.551519)"
       clip-path="url(#clipPath5)"><tspan
         id="tspan4"
         style="font-style:italic;font-variant:normal;font-weight:normal;font-size:12px;font-family:Arial;writing-mode:lr-tb;fill:#000000;fill-opacity:1;fill-rule:nonzero;stroke:none"
         x="0"
         y="0">flows</tspan></text>
    <text
       id="text5"
       xml:space="preserve"
       transform="matrix(0.94874095,0,0,0.94874095,4.3794248,31.833892)"
       clip-path="url(#clipPath6)"><tspan
         id="tspan5"
         style="font-variant:normal;font-weight:normal;font-size:12px;font-family:Arial;writing-mode:lr-tb;fill:#000000;fill-opacity:1;fill-rule:nonzero;stroke:none"
         x="0"
         y="0">flow1 </tspan></text>
    <text
       id="text6"
       xml:space="preserve"
       transform="matrix(0.94874095,0,0,0.94874095,34.131353,31.833892)"
       clip-path="url(#clipPath7)"><tspan
         id="tspan6"
         style="font-variant:normal;font-weight:700;font-size:12px;font-family:Arial;writing-mode:lr-tb;fill:#000000;fill-opacity:1;fill-rule:nonzero;stroke:none"
         x="0"
         y="0">of</tspan></text>
    <text
       id="text7"
       xml:space="preserve"
       transform="matrix(0.94874095,0,0,0.94874095,44.878804,31.833892)"
       clip-path="url(#clipPath8)"><tspan
         id="tspan7"
         style="font-variant:normal;font-weight:normal;font-size:12px;font-family:Arial;writing-mode:lr-tb;fill:#000000;fill-opacity:1;fill-rule:nonzero;stroke:none"
         x="0"
         y="0"> ItemDef </tspan></text>
    <text
       id="text8"
       xml:space="preserve"
       transform="matrix(0.94874095,0,0,0.94874095,91.070629,31.833892)"
       clip-path="url(#clipPath9)"><tspan
         id="tspan8"
         style="font-variant:normal;font-weight:700;font-size:12px;font-family:Arial;writing-mode:lr-tb;fill:#000000;fill-opacity:1;fill-rule:nonzero;stroke:none"
         x="0"
         y="0">from</tspan></text>
    <text
       id="text9"
       xml:space="preserve"
       transform="matrix(0.94874095,0,0,0.94874095,116.37533,31.833892)"
       clip-path="url(#clipPath10)"><tspan
         id="tspan9"
         style="font-variant:normal;font-weight:normal;font-size:12px;font-family:Arial;writing-mode:lr-tb;fill:#000000;fill-opacity:1;fill-rule:nonzero;stroke:none"
         x="0"
         y="0"> part1.port1 </tspan></text>
    <text
       id="text10"
       xml:space="preserve"
       transform="matrix(0.94874095,0,0,0.94874095,177.77666,31.833892)"
       clip-path="url(#clipPath11)"><tspan
         id="tspan10"
         style="font-variant:normal;font-weight:700;font-size:12px;font-family:Arial;writing-mode:lr-tb;fill:#000000;fill-opacity:1;fill-rule:nonzero;stroke:none"
         x="0"
         y="0">to</tspan></text>
    <text
       id="text11"
       xml:space="preserve"
       transform="matrix(0.94874095,0,0,0.94874095,188.52411,31.833892)"
       clip-path="url(#clipPath12)"><tspan
         id="tspan11"
         style="font-variant:normal;font-weight:normal;font-size:12px;font-family:Arial;writing-mode:lr-tb;fill:#000000;fill-opacity:1;fill-rule:nonzero;stroke:none"
         x="0"
         y="0"> part2.port2</tspan></text>
    <text
       id="text12"
       xml:space="preserve"
       transform="matrix(0.94874095,0,0,0.94874095,4.3794248,47.013747)"
       clip-path="url(#clipPath13)"><tspan
         id="tspan12"
         style="font-variant:normal;font-weight:normal;font-size:12px;font-family:Arial;writing-mode:lr-tb;fill:#000000;fill-opacity:1;fill-rule:nonzero;stroke:none"
         x="0"
         y="0">flow2 </tspan></text>
    <text
       id="text13"
       xml:space="preserve"
       transform="matrix(0.94874095,0,0,0.94874095,34.131353,47.013747)"
       clip-path="url(#clipPath14)"><tspan
         id="tspan13"
         style="font-variant:normal;font-weight:700;font-size:12px;font-family:Arial;writing-mode:lr-tb;fill:#000000;fill-opacity:1;fill-rule:nonzero;stroke:none"
         x="0"
         y="0">from</tspan></text>
    <text
       id="text14"
       xml:space="preserve"
       transform="matrix(0.94874095,0,0,0.94874095,59.436048,47.013747)"
       clip-path="url(#clipPath15)"><tspan
         id="tspan14"
         style="font-variant:normal;font-weight:normal;font-size:12px;font-family:Arial;writing-mode:lr-tb;fill:#000000;fill-opacity:1;fill-rule:nonzero;stroke:none"
         x="0"
         y="0"> action1.output </tspan></text>
    <text
       id="text15"
       xml:space="preserve"
       transform="matrix(0.94874095,0,0,0.94874095,137.2921,47.013747)"
       clip-path="url(#clipPath16)"><tspan
         id="tspan15"
         style="font-variant:normal;font-weight:700;font-size:12px;font-family:Arial;writing-mode:lr-tb;fill:#000000;fill-opacity:1;fill-rule:nonzero;stroke:none"
         x="0"
         y="0">to</tspan></text>
    <text
       id="text16"
       xml:space="preserve"
       transform="matrix(0.94874095,0,0,0.94874095,148.03956,47.013747)"
       clip-path="url(#clipPath17)"><tspan
         id="tspan16"
         style="font-variant:normal;font-weight:normal;font-size:12px;font-family:Arial;writing-mode:lr-tb;fill:#000000;fill-opacity:1;fill-rule:nonzero;stroke:none"
         x="0"
         y="0"> action2.input</tspan></text>
    <text
       id="text17"
       xml:space="preserve"
       transform="matrix(0.94874095,0,0,0.94874095,4.3794248,63.142343)"
       clip-path="url(#clipPath18)"><tspan
         id="tspan17"
         style="font-variant:normal;font-weight:normal;font-size:12px;font-family:Arial;writing-mode:lr-tb;fill:#000000;fill-opacity:1;fill-rule:nonzero;stroke:none"
         x="0"
         y="0">action1.output </tspan></text>
    <text
       id="text18"
       xml:space="preserve"
       transform="matrix(0.94874095,0,0,0.94874095,79.077956,63.142343)"
       clip-path="url(#clipPath19)"><tspan
         id="tspan18"
         style="font-variant:normal;font-weight:700;font-size:12px;font-family:Arial;writing-mode:lr-tb;fill:#000000;fill-opacity:1;fill-rule:nonzero;stroke:none"
         x="0"
         y="0">to</tspan></text>
    <text
       id="text19"
       xml:space="preserve"
       transform="matrix(0.94874095,0,0,0.94874095,89.825407,63.142343)"
       clip-path="url(#clipPath20)"><tspan
         id="tspan19"
         style="font-variant:normal;font-weight:normal;font-size:12px;font-family:Arial;writing-mode:lr-tb;fill:#000000;fill-opacity:1;fill-rule:nonzero;stroke:none"
         x="0"
         y="0"> action2.input</tspan></text>
    <text
       id="text20"
       xml:space="preserve"
       transform="matrix(0.94874095,0,0,0.94874095,4.3794248,78.322199)"
       clip-path="url(#clipPath21)"><tspan
         id="tspan20"
         style="font-variant:normal;font-weight:700;font-size:12px;font-family:Arial;writing-mode:lr-tb;fill:#000000;fill-opacity:1;fill-rule:nonzero;stroke:none"
         x="0"
         y="0">succession </tspan></text>
    <text
       id="text21"
       xml:space="preserve"
       transform="matrix(0.94874095,0,0,0.94874095,69.560898,78.322199)"
       clip-path="url(#clipPath22)"><tspan
         id="tspan21"
         style="font-variant:normal;font-weight:normal;font-size:12px;font-family:Arial;writing-mode:lr-tb;fill:#000000;fill-opacity:1;fill-rule:nonzero;stroke:none"
         x="0"
         y="0">action1.output </tspan></text>
    <text
       id="text22"
       xml:space="preserve"
       transform="matrix(0.94874095,0,0,0.94874095,144.25942,78.322199)"
       clip-path="url(#clipPath23)"><tspan
         id="tspan22"
         style="font-variant:normal;font-weight:700;font-size:12px;font-family:Arial;writing-mode:lr-tb;fill:#000000;fill-opacity:1;fill-rule:nonzero;stroke:none"
         x="0"
         y="0">to</tspan></text>
    <text
       id="text23"
       xml:space="preserve"
       transform="matrix(0.94874095,0,0,0.94874095,155.00688,78.322199)"
       clip-path="url(#clipPath24)"><tspan
         id="tspan23"
         style="font-variant:normal;font-weight:normal;font-size:12px;font-family:Arial;writing-mode:lr-tb;fill:#000000;fill-opacity:1;fill-rule:nonzero;stroke:none"
         x="0"
         y="0"> action2.input</tspan></text>
    <text
       id="text24"
       xml:space="preserve"
       transform="matrix(0.94874095,0,0,0.94874095,4.3794248,94.450795)"
       clip-path="url(#clipPath25)"><tspan
         id="tspan24"
         style="font-variant:normal;font-weight:700;font-size:12px;font-family:Arial;writing-mode:lr-tb;fill:#000000;fill-opacity:1;fill-rule:nonzero;stroke:none"
         x="0"
         y="0">message</tspan></text>
    <text
       id="text25"
       xml:space="preserve"
       transform="matrix(0.94874095,0,0,0.94874095,53.120991,94.450795)"
       clip-path="url(#clipPath26)"><tspan
         id="tspan25"
         style="font-variant:normal;font-weight:normal;font-size:12px;font-family:Arial;writing-mode:lr-tb;fill:#000000;fill-opacity:1;fill-rule:nonzero;stroke:none"
         x="0"
         y="0"> msg </tspan></text>
    <text
       id="text26"
       xml:space="preserve"
       transform="matrix(0.94874095,0,0,0.94874095,80.960609,94.450795)"
       clip-path="url(#clipPath27)"><tspan
         id="tspan26"
         style="font-variant:normal;font-weight:700;font-size:12px;font-family:Arial;writing-mode:lr-tb;fill:#000000;fill-opacity:1;fill-rule:nonzero;stroke:none"
         x="0"
         y="0">from</tspan></text>
    <text
       id="text27"
       xml:space="preserve"
       transform="matrix(0.94874095,0,0,0.94874095,106.26531,94.450795)"
       clip-path="url(#clipPath28)"><tspan
         id="tspan27"
         style="font-variant:normal;font-weight:normal;font-size:12px;font-family:Arial;writing-mode:lr-tb;fill:#000000;fill-opacity:1;fill-rule:nonzero;stroke:none"
         x="0"
         y="0"> part1 </tspan></text>
    <text
       id="text28"
       xml:space="preserve"
       transform="matrix(0.94874095,0,0,0.94874095,138.55215,94.450795)"
       clip-path="url(#clipPath29)"><tspan
         id="tspan28"
         style="font-variant:normal;font-weight:700;font-size:12px;font-family:Arial;writing-mode:lr-tb;fill:#000000;fill-opacity:1;fill-rule:nonzero;stroke:none"
         x="0"
         y="0">to</tspan></text>
    <text
       id="text29"
       xml:space="preserve"
       transform="matrix(0.94874095,0,0,0.94874095,149.29961,94.450795)"
       clip-path="url(#clipPath30)"><tspan
         id="tspan29"
         style="font-variant:normal;font-weight:normal;font-size:12px;font-family:Arial;writing-mode:lr-tb;fill:#000000;fill-opacity:1;fill-rule:nonzero;stroke:none"
         x="0"
         y="0"> part2</tspan></text>
  </g>
</svg>
