<?xml version="1.0" encoding="UTF-8" standalone="no"?>
<!-- Created with Inkscape (http://www.inkscape.org/) -->

<svg
   version="1.1"
   id="svg1"
   width="217.27998"
   height="429.44"
   viewBox="0 0 217.27998 429.44"
   xmlns="http://www.w3.org/2000/svg"
   xmlns:svg="http://www.w3.org/2000/svg">
  <defs
     id="defs1">
    <clipPath
       clipPathUnits="userSpaceOnUse"
       id="clipPath2">
      <path
         d="M 0,0 H 680 V 1341.0156 H 0 Z"
         transform="scale(0.31999999)"
         clip-rule="evenodd"
         id="path2" />
    </clipPath>
    <clipPath
       clipPathUnits="userSpaceOnUse"
       id="clipPath4">
      <path
         d="m 3.125,6.25 h 675 v 1328.125 h -675 z"
         transform="matrix(0.33892238,0,0,0.33892238,2466.88,7109.8221)"
         clip-rule="evenodd"
         id="path4" />
    </clipPath>
    <clipPath
       clipPathUnits="userSpaceOnUse"
       id="clipPath5">
      <path
         d="m 3.125,6.25 h 675 v 1328.125 h -675 z"
         transform="matrix(0.31999999,0,0,0.31999999,-118.59537,-25.18549)"
         clip-rule="evenodd"
         id="path5" />
    </clipPath>
    <clipPath
       clipPathUnits="userSpaceOnUse"
       id="clipPath7">
      <path
         d="m 3.125,6.25 h 675 v 1328.125 h -675 z"
         transform="matrix(0.33892238,0,0,0.33892238,2466.88,7109.8221)"
         clip-rule="evenodd"
         id="path7" />
    </clipPath>
    <clipPath
       clipPathUnits="userSpaceOnUse"
       id="clipPath9">
      <path
         d="m 3.125,6.25 h 675 v 1328.125 h -675 z"
         transform="matrix(0.33892238,0,0,0.33892238,2466.88,7109.8221)"
         clip-rule="evenodd"
         id="path9" />
    </clipPath>
    <clipPath
       clipPathUnits="userSpaceOnUse"
       id="clipPath11">
      <path
         d="m 3.125,6.25 h 675 v 1328.125 h -675 z"
         transform="matrix(0.33892238,0,0,0.33892238,2466.88,7109.8221)"
         clip-rule="evenodd"
         id="path11" />
    </clipPath>
    <clipPath
       clipPathUnits="userSpaceOnUse"
       id="clipPath13">
      <path
         d="m 3.125,6.25 h 675 v 1328.125 h -675 z"
         transform="matrix(0.33892238,0,0,0.33892238,2466.88,7109.8221)"
         clip-rule="evenodd"
         id="path13" />
    </clipPath>
    <clipPath
       clipPathUnits="userSpaceOnUse"
       id="clipPath14">
      <path
         d="m 3.125,6.25 h 675 v 1328.125 h -675 z"
         transform="matrix(0.31999999,0,0,0.31999999,-146.92347,-410.4042)"
         clip-rule="evenodd"
         id="path14" />
    </clipPath>
    <clipPath
       clipPathUnits="userSpaceOnUse"
       id="clipPath16">
      <path
         d="m 3.125,6.25 h 675 v 1328.125 h -675 z"
         transform="matrix(0.33892238,0,0,0.33892238,2466.88,7109.8221)"
         clip-rule="evenodd"
         id="path16" />
    </clipPath>
    <clipPath
       clipPathUnits="userSpaceOnUse"
       id="clipPath18">
      <path
         d="m 3.125,6.25 h 675 v 1328.125 h -675 z"
         transform="matrix(0.33892238,0,0,0.33892238,2466.88,7109.8221)"
         clip-rule="evenodd"
         id="path18" />
    </clipPath>
    <clipPath
       clipPathUnits="userSpaceOnUse"
       id="clipPath20">
      <path
         d="m 3.125,6.25 h 675 v 1328.125 h -675 z"
         transform="matrix(0.33892238,0,0,0.33892238,2466.88,7109.8221)"
         clip-rule="evenodd"
         id="path20" />
    </clipPath>
    <clipPath
       clipPathUnits="userSpaceOnUse"
       id="clipPath22">
      <path
         d="m 3.125,6.25 h 675 v 1328.125 h -675 z"
         transform="matrix(0.33892238,0,0,0.33892238,2466.88,7109.8221)"
         clip-rule="evenodd"
         id="path22" />
    </clipPath>
    <clipPath
       clipPathUnits="userSpaceOnUse"
       id="clipPath24">
      <path
         d="m 3.125,6.25 h 675 v 1328.125 h -675 z"
         transform="matrix(0.33892238,0,0,0.33892238,2466.88,7109.8221)"
         clip-rule="evenodd"
         id="path24" />
    </clipPath>
    <clipPath
       clipPathUnits="userSpaceOnUse"
       id="clipPath26">
      <path
         d="m 3.125,6.25 h 675 v 1328.125 h -675 z"
         transform="matrix(0.33892238,0,0,0.33892238,2466.88,7109.8221)"
         clip-rule="evenodd"
         id="path26" />
    </clipPath>
    <clipPath
       clipPathUnits="userSpaceOnUse"
       id="clipPath27">
      <path
         d="m 3.125,6.25 h 675 v 1328.125 h -675 z"
         transform="matrix(0.33892238,0,0,0.33892238,-84.870109,-52.677276)"
         clip-rule="evenodd"
         id="path27" />
    </clipPath>
    <clipPath
       clipPathUnits="userSpaceOnUse"
       id="clipPath28">
      <path
         d="m 3.125,6.25 h 675 v 1328.125 h -675 z"
         transform="matrix(0.33892238,0,0,0.33892238,-55.52641,-71.677276)"
         clip-rule="evenodd"
         id="path28" />
    </clipPath>
    <clipPath
       clipPathUnits="userSpaceOnUse"
       id="clipPath29">
      <path
         d="M 19.532715,238.04102 H 656.84717 v 59.00977 H 19.532715 Z"
         transform="matrix(0.31999999,0,0,0.31999999,-81.564067,-90.326092)"
         clip-rule="evenodd"
         id="path29" />
    </clipPath>
    <clipPath
       clipPathUnits="userSpaceOnUse"
       id="clipPath31">
      <path
         d="m 3.125,6.25 h 675 v 1328.125 h -675 z"
         transform="matrix(0.33892238,0,0,0.33892238,2466.88,7109.8221)"
         clip-rule="evenodd"
         id="path31" />
    </clipPath>
    <clipPath
       clipPathUnits="userSpaceOnUse"
       id="clipPath33">
      <path
         d="m 3.125,6.25 h 675 v 1328.125 h -675 z"
         transform="matrix(0.33892238,0,0,0.33892238,2466.88,7109.8221)"
         clip-rule="evenodd"
         id="path33" />
    </clipPath>
    <clipPath
       clipPathUnits="userSpaceOnUse"
       id="clipPath35">
      <path
         d="m 3.125,6.25 h 675 v 1328.125 h -675 z"
         transform="matrix(0.33892238,0,0,0.33892238,2466.88,7109.8221)"
         clip-rule="evenodd"
         id="path35" />
    </clipPath>
    <clipPath
       clipPathUnits="userSpaceOnUse"
       id="clipPath37">
      <path
         d="m 3.125,6.25 h 675 v 1328.125 h -675 z"
         transform="matrix(0.33892238,0,0,0.33892238,2466.88,7109.8221)"
         clip-rule="evenodd"
         id="path37" />
    </clipPath>
    <clipPath
       clipPathUnits="userSpaceOnUse"
       id="clipPath39">
      <path
         d="m 3.125,6.25 h 675 v 1328.125 h -675 z"
         transform="matrix(0.33892238,0,0,0.33892238,2466.88,7109.8221)"
         clip-rule="evenodd"
         id="path39" />
    </clipPath>
    <clipPath
       clipPathUnits="userSpaceOnUse"
       id="clipPath41">
      <path
         d="m 3.125,6.25 h 675 v 1328.125 h -675 z"
         transform="matrix(0.33892238,0,0,0.33892238,2466.88,7109.8221)"
         clip-rule="evenodd"
         id="path41" />
    </clipPath>
    <clipPath
       clipPathUnits="userSpaceOnUse"
       id="clipPath43">
      <path
         d="m 3.125,6.25 h 675 v 1328.125 h -675 z"
         transform="matrix(0.33892238,0,0,0.33892238,2466.88,7109.8221)"
         clip-rule="evenodd"
         id="path43" />
    </clipPath>
    <clipPath
       clipPathUnits="userSpaceOnUse"
       id="clipPath45">
      <path
         d="m 3.125,6.25 h 675 v 1328.125 h -675 z"
         transform="matrix(0.33892238,0,0,0.33892238,2466.88,7109.8221)"
         clip-rule="evenodd"
         id="path45" />
    </clipPath>
    <clipPath
       clipPathUnits="userSpaceOnUse"
       id="clipPath47">
      <path
         d="m 3.125,6.25 h 675 v 1328.125 h -675 z"
         transform="matrix(0.33892238,0,0,0.33892238,2466.88,7109.8221)"
         clip-rule="evenodd"
         id="path47" />
    </clipPath>
    <clipPath
       clipPathUnits="userSpaceOnUse"
       id="clipPath49">
      <path
         d="m 3.125,6.25 h 675 v 1328.125 h -675 z"
         transform="matrix(0.33892238,0,0,0.33892238,2466.88,7109.8221)"
         clip-rule="evenodd"
         id="path49" />
    </clipPath>
    <clipPath
       clipPathUnits="userSpaceOnUse"
       id="clipPath50">
      <path
         d="m 3.125,6.25 h 675 v 1328.125 h -675 z"
         transform="matrix(0.33892238,0,0,0.33892238,-95.10451,-225.67728)"
         clip-rule="evenodd"
         id="path50" />
    </clipPath>
    <clipPath
       clipPathUnits="userSpaceOnUse"
       id="clipPath51">
      <path
         d="m 3.125,6.25 h 675 v 1328.125 h -675 z"
         transform="matrix(0.33892238,0,0,0.33892238,-87.54201,-244.67728)"
         clip-rule="evenodd"
         id="path51" />
    </clipPath>
    <clipPath
       clipPathUnits="userSpaceOnUse"
       id="clipPath52">
      <path
         d="M 81.494141,748.48242 H 618.49023 v 56.06055 H 81.494141 Z"
         transform="matrix(0.31999999,0,0,0.31999999,-85.704667,-252.9823)"
         clip-rule="evenodd"
         id="path52" />
    </clipPath>
    <clipPath
       clipPathUnits="userSpaceOnUse"
       id="clipPath53">
      <path
         d="m 87.39502,810.44336 h 256.6958 v 44.25781 H 87.39502 Z"
         transform="matrix(0.33892238,0,0,0.33892238,-29.62011,-285.67727)"
         clip-rule="evenodd"
         id="path53" />
    </clipPath>
    <clipPath
       clipPathUnits="userSpaceOnUse"
       id="clipPath54">
      <path
         d="m 87.39502,810.44336 h 256.6958 v 44.25781 H 87.39502 Z"
         transform="matrix(0.33892238,0,0,0.33892238,-82.99511,-285.67727)"
         clip-rule="evenodd"
         id="path54" />
    </clipPath>
    <clipPath
       clipPathUnits="userSpaceOnUse"
       id="clipPath55">
      <path
         d="m 87.39502,810.44336 h 256.6958 v 44.25781 H 87.39502 Z"
         transform="matrix(0.33892238,0,0,0.33892238,-93.667009,-285.67727)"
         clip-rule="evenodd"
         id="path55" />
    </clipPath>
    <clipPath
       clipPathUnits="userSpaceOnUse"
       id="clipPath57">
      <path
         d="m 3.125,6.25 h 675 v 1328.125 h -675 z"
         transform="matrix(0.33892238,0,0,0.33892238,2466.88,7109.8221)"
         clip-rule="evenodd"
         id="path57" />
    </clipPath>
    <clipPath
       clipPathUnits="userSpaceOnUse"
       id="clipPath58">
      <path
         d="m 273.27832,875.35547 h 153.42725 v 44.25781 H 273.27832 Z"
         transform="matrix(0.33892238,0,0,0.33892238,-92.58891,-307.67728)"
         clip-rule="evenodd"
         id="path58" />
    </clipPath>
    <clipPath
       clipPathUnits="userSpaceOnUse"
       id="clipPath59">
      <path
         d="m 87.39502,931.41406 h 256.6958 v 44.25977 H 87.39502 Z"
         transform="matrix(0.33892238,0,0,0.33892238,-29.62011,-326.67728)"
         clip-rule="evenodd"
         id="path59" />
    </clipPath>
    <clipPath
       clipPathUnits="userSpaceOnUse"
       id="clipPath60">
      <path
         d="m 87.39502,931.41406 h 256.6958 v 44.25977 H 87.39502 Z"
         transform="matrix(0.33892238,0,0,0.33892238,-67.63571,-326.67728)"
         clip-rule="evenodd"
         id="path60" />
    </clipPath>
    <clipPath
       clipPathUnits="userSpaceOnUse"
       id="clipPath62">
      <path
         d="m 3.125,6.25 h 675 v 1328.125 h -675 z"
         transform="matrix(0.33892238,0,0,0.33892238,2466.88,7109.8221)"
         clip-rule="evenodd"
         id="path62" />
    </clipPath>
    <clipPath
       clipPathUnits="userSpaceOnUse"
       id="clipPath63">
      <path
         d="m 3.125,6.25 h 675 v 1328.125 h -675 z"
         transform="matrix(0.33892238,0,0,0.33892238,-86.10451,-155.67728)"
         clip-rule="evenodd"
         id="path63" />
    </clipPath>
    <clipPath
       clipPathUnits="userSpaceOnUse"
       id="clipPath64">
      <path
         d="m 3.125,6.25 h 675 v 1328.125 h -675 z"
         transform="matrix(0.33892238,0,0,0.33892238,-98.33891,-175.67728)"
         clip-rule="evenodd"
         id="path64" />
    </clipPath>
    <clipPath
       clipPathUnits="userSpaceOnUse"
       id="clipPath66">
      <path
         d="m 3.125,6.25 h 675 v 1328.125 h -675 z"
         transform="matrix(0.33892238,0,0,0.33892238,2466.88,7109.8221)"
         clip-rule="evenodd"
         id="path66" />
    </clipPath>
    <clipPath
       clipPathUnits="userSpaceOnUse"
       id="clipPath68">
      <path
         d="m 3.125,6.25 h 675 v 1328.125 h -675 z"
         transform="matrix(0.33892238,0,0,0.33892238,2466.88,7109.8221)"
         clip-rule="evenodd"
         id="path68" />
    </clipPath>
    <clipPath
       clipPathUnits="userSpaceOnUse"
       id="clipPath69">
      <path
         d="m 25.434082,1191.0606 h 8.851563 v 44.2597 h -8.851563 z"
         transform="matrix(0.33892238,0,0,0.33892238,-8.6201097,-414.67728)"
         clip-rule="evenodd"
         id="path69" />
    </clipPath>
  </defs>
  <g
     id="g1">
    <path
       id="path1"
       d="M 0,0 H 218 V 429 H 0 Z"
       style="fill:#ffffff;fill-opacity:1;fill-rule:nonzero;stroke:none"
       clip-path="url(#clipPath2)" />
    <path
       id="path3"
       d="m 2573.5,7121 h 15 c 0.3313,0 0.6501,0.064 0.9565,0.1899 0.3062,0.1265 0.5765,0.3072 0.8111,0.5415 0.2344,0.2339 0.415,0.504 0.542,0.8106 0.1267,0.3066 0.1902,0.626 0.1904,0.958 v 17 c -2e-4,0.3311 -0.064,0.6494 -0.1904,0.9556 -0.127,0.3061 -0.3076,0.5766 -0.542,0.8115 -0.2346,0.2344 -0.5049,0.415 -0.8111,0.542 -0.3064,0.1269 -0.6252,0.1904 -0.9565,0.1909 h -15 c -0.3315,-5e-4 -0.6506,-0.064 -0.957,-0.1909 -0.3064,-0.127 -0.5767,-0.3076 -0.8108,-0.542 -0.2346,-0.2349 -0.4153,-0.5054 -0.542,-0.8115 -0.127,-0.3062 -0.1904,-0.6245 -0.1902,-0.9556 v -17 c -2e-4,-0.332 0.063,-0.6514 0.1902,-0.958 0.1267,-0.3066 0.3074,-0.5767 0.542,-0.8106 0.2341,-0.2343 0.5044,-0.415 0.8108,-0.5415 0.3064,-0.1264 0.6255,-0.1899 0.957,-0.1899 z"
       style="fill:#ffffff;fill-opacity:1;fill-rule:nonzero;stroke:#000000;stroke-width:1;stroke-linecap:butt;stroke-linejoin:miter;stroke-miterlimit:10;stroke-dasharray:none;stroke-opacity:1"
       transform="matrix(0.94416895,0,0,0.94416895,-2329.1515,-6712.8733)"
       clip-path="url(#clipPath4)" />
    <text
       id="text4"
       xml:space="preserve"
       transform="translate(118.59537,25.18549)"
       clip-path="url(#clipPath5)"><tspan
         id="tspan4"
         style="font-variant:normal;font-weight:normal;font-size:11.33px;font-family:Arial;writing-mode:lr-tb;fill:#000000;fill-opacity:1;fill-rule:nonzero;stroke:none"
         x="0"
         y="0">n:Integer</tspan></text>
    <path
       id="path6"
       d="m 2570,7141 h 22 v 3 h -22 z"
       style="fill:#ffffff;fill-opacity:1;fill-rule:nonzero;stroke:none"
       transform="matrix(0.94416895,0,0,0.94416895,-2329.1515,-6712.8733)"
       clip-path="url(#clipPath7)" />
    <path
       id="path8"
       d="m 2581.04,7121 -0.07,10 0.05,7.7598"
       style="fill:none;stroke:#000000;stroke-width:1;stroke-linecap:butt;stroke-linejoin:miter;stroke-miterlimit:10;stroke-dasharray:none;stroke-opacity:1"
       transform="matrix(0.94416895,0,0,0.94416895,-2329.1515,-6712.8733)"
       clip-path="url(#clipPath9)" />
    <path
       id="path10"
       d="m 2577.48,7132.9102 3.55,6.9697 3.45,-7.02"
       style="fill:none;stroke:#000000;stroke-width:1;stroke-linecap:butt;stroke-linejoin:miter;stroke-miterlimit:10;stroke-dasharray:none;stroke-opacity:1"
       transform="matrix(0.94416895,0,0,0.94416895,-2329.1515,-6712.8733)"
       clip-path="url(#clipPath11)" />
    <path
       id="path12"
       d="m 2603.5,7529 h 15 c 0.3313,0 0.6499,0.063 0.9561,0.189 0.3064,0.1274 0.5769,0.3081 0.8115,0.5424 0.2344,0.2339 0.415,0.5044 0.5417,0.8111 0.127,0.3061 0.1905,0.6255 0.1907,0.9575 v 17 c -2e-4,0.3311 -0.064,0.6499 -0.1907,0.9561 -0.1267,0.3061 -0.3073,0.5766 -0.5417,0.811 -0.2346,0.2339 -0.5051,0.4145 -0.8115,0.5415 -0.3062,0.1274 -0.6248,0.1909 -0.9561,0.1914 h -15 c -0.3318,-5e-4 -0.6509,-0.064 -0.957,-0.1909 -0.3064,-0.1275 -0.5767,-0.3081 -0.8111,-0.542 -0.2346,-0.2344 -0.4152,-0.5049 -0.542,-0.811 -0.1267,-0.3062 -0.1901,-0.625 -0.1899,-0.9561 v -17 c -2e-4,-0.332 0.063,-0.6514 0.1899,-0.9575 0.1268,-0.3067 0.3074,-0.5772 0.542,-0.8111 0.2344,-0.2343 0.5047,-0.415 0.8111,-0.5419 0.3061,-0.1265 0.6252,-0.1895 0.957,-0.1895 z"
       style="fill:#ffffff;fill-opacity:1;fill-rule:nonzero;stroke:#000000;stroke-width:1;stroke-linecap:butt;stroke-linejoin:miter;stroke-miterlimit:10;stroke-dasharray:none;stroke-opacity:1"
       transform="matrix(0.94416895,0,0,0.94416895,-2329.1515,-6712.8733)"
       clip-path="url(#clipPath13)" />
    <text
       id="text13"
       xml:space="preserve"
       transform="translate(146.92347,410.4042)"
       clip-path="url(#clipPath14)"><tspan
         id="tspan13"
         style="font-variant:normal;font-weight:normal;font-size:11.33px;font-family:Arial;writing-mode:lr-tb;fill:#000000;fill-opacity:1;fill-rule:nonzero;stroke:none"
         x="0"
         y="0">y:Integer</tspan></text>
    <path
       id="path15"
       d="m 2600,7528 h 22 v 3 h -22 z"
       style="fill:#ffffff;fill-opacity:1;fill-rule:nonzero;stroke:none"
       transform="matrix(0.94416895,0,0,0.94416895,-2329.1515,-6712.8733)"
       clip-path="url(#clipPath16)" />
    <path
       id="path17"
       d="m 2611.04,7531 -0.07,10 0.05,7.7598"
       style="fill:none;stroke:#000000;stroke-width:1;stroke-linecap:butt;stroke-linejoin:miter;stroke-miterlimit:10;stroke-dasharray:none;stroke-opacity:1"
       transform="matrix(0.94416895,0,0,0.94416895,-2329.1515,-6712.8733)"
       clip-path="url(#clipPath18)" />
    <path
       id="path19"
       d="m 2607.48,7542.9102 3.55,6.9697 3.45,-7.02"
       style="fill:none;stroke:#000000;stroke-width:1;stroke-linecap:butt;stroke-linejoin:miter;stroke-miterlimit:10;stroke-dasharray:none;stroke-opacity:1"
       transform="matrix(0.94416895,0,0,0.94416895,-2329.1515,-6712.8733)"
       clip-path="url(#clipPath20)" />
    <path
       id="path21"
       d="m 2694.25,7191 v -45 c 0,-3.3335 -1.6667,-5 -5,-5 H 2475 c -3.3333,0 -5,1.6665 -5,5 v 45"
       style="fill:none;stroke:#000000;stroke-width:1;stroke-linecap:butt;stroke-linejoin:miter;stroke-miterlimit:10;stroke-dasharray:none;stroke-opacity:1"
       transform="matrix(0.94416895,0,0,0.94416895,-2329.1515,-6712.8733)"
       clip-path="url(#clipPath22)" />
    <path
       id="path23"
       d="m 2470,7191 v 335 c 0,3.3335 1.6667,5 5,5 h 214.25 c 3.3333,0 5,-1.6665 5,-5 v -335"
       style="fill:none;stroke:#000000;stroke-width:1;stroke-linecap:butt;stroke-linejoin:miter;stroke-miterlimit:10;stroke-dasharray:none;stroke-opacity:1"
       transform="matrix(0.94416895,0,0,0.94416895,-2329.1515,-6712.8733)"
       clip-path="url(#clipPath24)" />
    <path
       id="path25"
       d="m 2470,7191 h 224.25"
       style="fill:none;stroke:#000000;stroke-width:1;stroke-linecap:butt;stroke-linejoin:miter;stroke-miterlimit:10;stroke-dasharray:none;stroke-opacity:1"
       transform="matrix(0.94416895,0,0,0.94416895,-2329.1515,-6712.8733)"
       clip-path="url(#clipPath26)" />
    <text
       id="text26"
       xml:space="preserve"
       transform="matrix(0.94416895,0,0,0.94416895,80.131722,49.736248)"
       clip-path="url(#clipPath27)"><tspan
         id="tspan26"
         style="font-variant:normal;font-weight:normal;font-size:16px;font-family:Arial;writing-mode:lr-tb;fill:#000000;fill-opacity:1;fill-rule:nonzero;stroke:none"
         x="0"
         y="0">«action»</tspan></text>
    <text
       id="text27"
       xml:space="preserve"
       transform="matrix(0.94416895,0,0,0.94416895,52.426312,67.675458)"
       clip-path="url(#clipPath28)"><tspan
         id="tspan27"
         style="font-variant:normal;font-weight:normal;font-size:16px;font-family:Arial;writing-mode:lr-tb;fill:#000000;fill-opacity:1;fill-rule:nonzero;stroke:none"
         x="0"
         y="0">actionWithLoop3</tspan></text>
    <text
       id="text28"
       xml:space="preserve"
       transform="translate(81.564067,90.326092)"
       clip-path="url(#clipPath29)"><tspan
         id="tspan28"
         style="font-style:italic;font-variant:normal;font-weight:normal;font-size:11.33px;font-family:Arial;writing-mode:lr-tb;fill:#000000;fill-opacity:1;fill-rule:nonzero;stroke:none"
         x="0"
         y="0">action flow</tspan></text>
    <path
       id="path30"
       d="m 2594.5,7496 c 0,0.5903 -0.058,1.1758 -0.1731,1.7554 -0.1155,0.5796 -0.2861,1.1421 -0.5122,1.688 -0.2261,0.5454 -0.5034,1.0639 -0.8318,1.5556 -0.3284,0.4912 -0.7014,0.9458 -1.1191,1.3643 -0.4182,0.418 -0.8728,0.791 -1.3643,1.1191 -0.4914,0.3286 -1.01,0.6055 -1.5557,0.8316 -0.5459,0.226 -1.1086,0.3969 -1.6882,0.5127 -0.5793,0.1152 -1.1645,0.1728 -1.7556,0.1733 -0.5911,-5e-4 -1.1763,-0.058 -1.7561,-0.1733 -0.5798,-0.1158 -1.1426,-0.2867 -1.6885,-0.5127 -0.5461,-0.2261 -1.0647,-0.503 -1.5559,-0.8316 -0.4914,-0.3281 -0.946,-0.7011 -1.3638,-1.1191 -0.4177,-0.4185 -0.791,-0.8731 -1.1193,-1.3648 -0.3284,-0.4912 -0.6055,-1.0097 -0.8316,-1.5551 -0.2263,-0.5459 -0.397,-1.1084 -0.5122,-1.688 -0.115,-0.5796 -0.1726,-1.1651 -0.1726,-1.7554 0,-0.5908 0.058,-1.1763 0.1726,-1.7563 0.1152,-0.5796 0.2859,-1.1426 0.5122,-1.688 0.2261,-0.5464 0.5032,-1.065 0.8316,-1.5567 0.3283,-0.4912 0.7016,-0.9458 1.1193,-1.3633 0.4178,-0.4179 0.8724,-0.791 1.3638,-1.1196 0.4912,-0.3281 1.0098,-0.6055 1.5559,-0.8315 0.5459,-0.2261 1.1087,-0.3965 1.6885,-0.5117 0.5798,-0.1153 1.165,-0.1729 1.7561,-0.1729 0.5911,0 1.1763,0.058 1.7556,0.1729 0.5796,0.1152 1.1423,0.2856 1.6882,0.5117 0.5457,0.226 1.0643,0.5034 1.5557,0.8315 0.4915,0.3286 0.9461,0.7017 1.3643,1.1196 0.4177,0.4175 0.7907,0.8721 1.1191,1.3633 0.3284,0.4912 0.6057,1.0098 0.8318,1.5562 0.2261,0.5459 0.3967,1.1089 0.5122,1.6885 0.1155,0.58 0.1731,1.1655 0.1731,1.7563 z"
       style="fill:#000000;fill-opacity:1;fill-rule:nonzero;stroke:#000000;stroke-width:1;stroke-linecap:butt;stroke-linejoin:miter;stroke-miterlimit:10;stroke-dasharray:none;stroke-opacity:1"
       transform="matrix(0.94416895,0,0,0.94416895,-2329.1515,-6712.8733)"
       clip-path="url(#clipPath31)" />
    <path
       id="path32"
       d="m 2598.5,7496 c -2e-4,0.853 -0.084,1.6982 -0.25,2.5352 -0.1665,0.8374 -0.4131,1.6499 -0.74,2.4384 -0.3267,0.7886 -0.727,1.5376 -1.2012,2.2471 -0.4743,0.71 -1.0131,1.3667 -1.6167,1.9707 -0.6037,0.603 -1.2602,1.1416 -1.9699,1.6157 -0.71,0.4746 -1.4593,0.875 -2.2478,1.2017 -0.7886,0.3266 -1.6014,0.5737 -2.4385,0.7402 -0.8372,0.1665 -1.6824,0.2505 -2.5359,0.251 -0.8538,-5e-4 -1.6992,-0.084 -2.5364,-0.2515 -0.8374,-0.1665 -1.6504,-0.4131 -2.4389,-0.7397 -0.7889,-0.3267 -1.5379,-0.7271 -2.2474,-1.2012 -0.7097,-0.4741 -1.3662,-1.0132 -1.9699,-1.6162 -0.6038,-0.604 -1.1426,-1.2607 -1.617,-1.9707 -0.4743,-0.7095 -0.8747,-1.4585 -1.2014,-2.2471 -0.3266,-0.7885 -0.5732,-1.601 -0.7395,-2.4384 -0.1665,-0.837 -0.2497,-1.6822 -0.2495,-2.5352 -2e-4,-0.854 0.083,-1.6997 0.2495,-2.5371 0.1663,-0.8374 0.4129,-1.6504 0.7395,-2.439 0.3267,-0.7885 0.7271,-1.5376 1.2014,-2.2475 0.4744,-0.7095 1.0132,-1.3662 1.617,-1.9698 0.6037,-0.604 1.2602,-1.1425 1.9699,-1.6167 0.7095,-0.4741 1.4585,-0.8745 2.2474,-1.2011 0.7885,-0.3267 1.6015,-0.5728 2.4389,-0.7393 0.8372,-0.1665 1.6826,-0.2495 2.5364,-0.2495 0.8535,0 1.6987,0.083 2.5359,0.2495 0.8371,0.1665 1.6499,0.4126 2.4385,0.7393 0.7885,0.3266 1.5378,0.727 2.2478,1.2011 0.7097,0.4742 1.3662,1.0127 1.9699,1.6167 0.6036,0.6036 1.1424,1.2603 1.6165,1.9698 0.4744,0.7094 0.8747,1.4585 1.2014,2.247 0.3269,0.7886 0.5735,1.6021 0.74,2.4395 0.1665,0.8374 0.2498,1.6831 0.25,2.5371 z"
       style="fill:none;stroke:#000000;stroke-width:1;stroke-linecap:butt;stroke-linejoin:miter;stroke-miterlimit:10;stroke-dasharray:none;stroke-opacity:1"
       transform="matrix(0.94416895,0,0,0.94416895,-2329.1515,-6712.8733)"
       clip-path="url(#clipPath33)" />
    <path
       id="path34"
       d="m 2585.5,7230.9966 0.02,3 -1,0.01 -0.02,-3 m 1.0393,5.9932 0.02,3 -1,0.01 -0.02,-3 m 1.0396,5.9927 0.02,3 -1,0.01 -0.02,-3"
       style="fill:#000000;fill-opacity:1;fill-rule:nonzero;stroke:none"
       transform="matrix(0.94416895,0,0,0.94416895,-2329.1515,-6712.8733)"
       clip-path="url(#clipPath35)" />
    <path
       id="path36"
       d="m 2580.5601,7239.9102 4.56,8.9697 4.44,-9.0298"
       style="fill:none;stroke:#000000;stroke-width:1;stroke-linecap:butt;stroke-linejoin:miter;stroke-miterlimit:10;stroke-dasharray:none;stroke-opacity:1"
       transform="matrix(0.94416895,0,0,0.94416895,-2329.1515,-6712.8733)"
       clip-path="url(#clipPath37)" />
    <path
       id="path38"
       d="m 2595,7221 c 0,0.6567 -0.064,1.3066 -0.1924,1.9507 -0.1282,0.6435 -0.3179,1.2685 -0.5691,1.875 -0.2512,0.6064 -0.5593,1.1826 -0.9243,1.7285 -0.3645,0.5464 -0.779,1.0518 -1.2434,1.5161 -0.4644,0.4644 -0.9695,0.8789 -1.5154,1.2437 -0.5461,0.3647 -1.1223,0.6723 -1.729,0.9238 -0.6067,0.251 -1.2319,0.4409 -1.8757,0.5693 -0.6441,0.1284 -1.2942,0.1924 -1.9507,0.1929 -0.6567,-5e-4 -1.3071,-0.065 -1.9514,-0.1929 -0.6438,-0.1284 -1.2691,-0.3183 -1.8757,-0.5693 -0.6067,-0.2515 -1.1829,-0.5596 -1.7291,-0.9243 -0.5459,-0.3648 -1.051,-0.7788 -1.5151,-1.2432 -0.4646,-0.4643 -0.8791,-0.9697 -1.2436,-1.5161 -0.365,-0.5459 -0.6729,-1.1221 -0.9241,-1.7285 -0.2512,-0.6065 -0.4409,-1.2315 -0.5691,-1.8755 -0.1279,-0.6436 -0.1919,-1.2935 -0.1919,-1.9502 0,-0.6567 0.064,-1.3066 0.1919,-1.9507 0.1282,-0.644 0.3179,-1.2695 0.5691,-1.8764 0.2512,-0.607 0.5591,-1.1832 0.9241,-1.7295 0.3645,-0.5455 0.779,-1.0503 1.2436,-1.5147 0.4641,-0.4643 0.9692,-0.8789 1.5151,-1.2432 0.5462,-0.3652 1.1224,-0.6733 1.7291,-0.9248 0.6066,-0.2514 1.2319,-0.4409 1.8757,-0.5688 0.6443,-0.1279 1.2947,-0.1919 1.9514,-0.1919 0.6565,0 1.3066,0.064 1.9507,0.1924 0.6438,0.1274 1.269,0.3169 1.8757,0.5683 0.6067,0.2515 1.1829,0.5596 1.729,0.9248 0.5459,0.3643 1.051,0.7789 1.5154,1.2432 0.4644,0.4644 0.8789,0.9692 1.2437,1.5147 0.3647,0.5459 0.6728,1.122 0.924,1.729 0.2512,0.6069 0.4409,1.2324 0.5691,1.8764 0.1282,0.6441 0.1924,1.2945 0.1924,1.9512 z"
       style="fill:#000000;fill-opacity:1;fill-rule:nonzero;stroke:#000000;stroke-width:1;stroke-linecap:butt;stroke-linejoin:miter;stroke-miterlimit:10;stroke-dasharray:none;stroke-opacity:1"
       transform="matrix(0.94416895,0,0,0.94416895,-2329.1515,-6712.8733)"
       clip-path="url(#clipPath39)" />
    <path
       id="path40"
       d="m 2586,7442.7998 v 3 h -1 v -3 m 1,6 v 3 h -1 v -3 m 1,6 v 3 h -1 v -3 m 1,6 v 3 h -1 v -3 m 1,6 v 3 h -1 v -3 m 1,6 v 3 h -1 v -3 m 1,6 v 1.96 h -1 v -1.96"
       style="fill:#000000;fill-opacity:1;fill-rule:nonzero;stroke:none"
       transform="matrix(0.94416895,0,0,0.94416895,-2329.1515,-6712.8733)"
       clip-path="url(#clipPath41)" />
    <path
       id="path42"
       d="m 2581,7472.8799 4.5,9 4.5,-9"
       style="fill:none;stroke:#000000;stroke-width:1;stroke-linecap:butt;stroke-linejoin:miter;stroke-miterlimit:10;stroke-dasharray:none;stroke-opacity:1"
       transform="matrix(0.94416895,0,0,0.94416895,-2329.1515,-6712.8733)"
       clip-path="url(#clipPath43)" />
    <path
       id="path44"
       d="m 2680.5,7364 v -42.5 c 0,-5 -2.5,-7.5 -7.5,-7.5 h -175 c -5,0 -7.5,2.5 -7.5,7.5 v 42.5"
       style="fill:none;stroke:#000000;stroke-width:1;stroke-linecap:butt;stroke-linejoin:miter;stroke-miterlimit:10;stroke-dasharray:none;stroke-opacity:1"
       transform="matrix(0.94416895,0,0,0.94416895,-2329.1515,-6712.8733)"
       clip-path="url(#clipPath45)" />
    <path
       id="path46"
       d="m 2490.5,7364 v 71.2998 c 0,5 2.5,7.5 7.5,7.5 h 175 c 5,0 7.5,-2.5 7.5,-7.5 V 7364"
       style="fill:none;stroke:#000000;stroke-width:1;stroke-linecap:butt;stroke-linejoin:miter;stroke-miterlimit:10;stroke-dasharray:none;stroke-opacity:1"
       transform="matrix(0.94416895,0,0,0.94416895,-2329.1515,-6712.8733)"
       clip-path="url(#clipPath47)" />
    <path
       id="path48"
       d="m 2490.5,7364 h 190"
       style="fill:none;stroke:#000000;stroke-width:1;stroke-linecap:butt;stroke-linejoin:miter;stroke-miterlimit:10;stroke-dasharray:none;stroke-opacity:1"
       transform="matrix(0.94416895,0,0,0.94416895,-2329.1515,-6712.8733)"
       clip-path="url(#clipPath49)" />
    <text
       id="text49"
       xml:space="preserve"
       transform="matrix(0.94416895,0,0,0.94416895,89.794725,213.07748)"
       clip-path="url(#clipPath50)"><tspan
         id="tspan49"
         style="font-variant:normal;font-weight:normal;font-size:16px;font-family:Arial;writing-mode:lr-tb;fill:#000000;fill-opacity:1;fill-rule:nonzero;stroke:none"
         x="0"
         y="0">«loop»</tspan></text>
    <text
       id="text50"
       xml:space="preserve"
       transform="matrix(0.94416895,0,0,0.94416895,82.654448,231.01669)"
       clip-path="url(#clipPath51)"><tspan
         id="tspan50"
         style="font-variant:normal;font-weight:normal;font-size:16px;font-family:Arial;writing-mode:lr-tb;fill:#000000;fill-opacity:1;fill-rule:nonzero;stroke:none"
         x="0"
         y="0">forLoop1</tspan></text>
    <text
       id="text51"
       xml:space="preserve"
       transform="translate(85.704667,252.9823)"
       clip-path="url(#clipPath52)"><tspan
         id="tspan51"
         style="font-style:italic;font-variant:normal;font-weight:normal;font-size:11.33px;font-family:Arial;writing-mode:lr-tb;fill:#000000;fill-opacity:1;fill-rule:nonzero;stroke:none"
         x="0"
         y="0">for iterator</tspan></text>
    <g
       id="g52" />
    <text
       id="text52"
       xml:space="preserve"
       transform="matrix(0.94416895,0,0,0.94416895,27.966388,269.72761)"
       clip-path="url(#clipPath53)"><tspan
         id="tspan52"
         style="font-variant:normal;font-weight:normal;font-size:12px;font-family:Arial;writing-mode:lr-tb;fill:#000000;fill-opacity:1;fill-rule:nonzero;stroke:none"
         x="0"
         y="0">i : Integer </tspan></text>
    <text
       id="text53"
       xml:space="preserve"
       transform="matrix(0.94416895,0,0,0.94416895,78.361406,269.72761)"
       clip-path="url(#clipPath54)"><tspan
         id="tspan53"
         style="font-variant:normal;font-weight:700;font-size:12px;font-family:Arial;writing-mode:lr-tb;fill:#000000;fill-opacity:1;fill-rule:nonzero;stroke:none"
         x="0"
         y="0">in</tspan></text>
    <g
       id="g54" />
    <text
       id="text54"
       xml:space="preserve"
       transform="matrix(0.94416895,0,0,0.94416895,88.437482,269.72761)"
       clip-path="url(#clipPath55)"><tspan
         id="tspan54"
         style="font-variant:normal;font-weight:normal;font-size:12px;font-family:Arial;writing-mode:lr-tb;fill:#000000;fill-opacity:1;fill-rule:nonzero;stroke:none"
         x="0"
         y="0"> 1..n</tspan></text>
    <path
       id="path56"
       d="m 2490.5,7402.9399 h 190"
       style="fill:none;stroke:#000000;stroke-width:1;stroke-linecap:butt;stroke-linejoin:miter;stroke-miterlimit:10;stroke-dasharray:none;stroke-opacity:1"
       transform="matrix(0.94416895,0,0,0.94416895,-2329.1515,-6712.8733)"
       clip-path="url(#clipPath57)" />
    <text
       id="text57"
       xml:space="preserve"
       transform="matrix(0.94416895,0,0,0.94416895,87.419574,290.49933)"
       clip-path="url(#clipPath58)"><tspan
         id="tspan57"
         style="font-style:italic;font-variant:normal;font-weight:normal;font-size:12px;font-family:Arial;writing-mode:lr-tb;fill:#000000;fill-opacity:1;fill-rule:nonzero;stroke:none"
         x="0"
         y="0">loop body</tspan></text>
    <text
       id="text58"
       xml:space="preserve"
       transform="matrix(0.94416895,0,0,0.94416895,27.966388,308.43854)"
       clip-path="url(#clipPath59)"><tspan
         id="tspan58"
         style="font-variant:normal;font-weight:700;font-size:12px;font-family:Arial;writing-mode:lr-tb;fill:#000000;fill-opacity:1;fill-rule:nonzero;stroke:none"
         x="0"
         y="0">assign</tspan></text>
    <g
       id="g59" />
    <text
       id="text59"
       xml:space="preserve"
       transform="matrix(0.94416895,0,0,0.94416895,63.859537,308.43854)"
       clip-path="url(#clipPath60)"><tspan
         id="tspan59"
         style="font-variant:normal;font-weight:normal;font-size:12px;font-family:Arial;writing-mode:lr-tb;fill:#000000;fill-opacity:1;fill-rule:nonzero;stroke:none"
         x="0"
         y="0"> y := y + i</tspan></text>
    <path
       id="path61"
       d="m 2512.98,7250 h 144.29 c 0.6629,0 1.3006,0.1265 1.9133,0.3799 0.6126,0.2534 1.1531,0.6142 1.6221,1.0835 0.4688,0.4682 0.8301,1.0093 1.0838,1.622 0.2536,0.6128 0.3806,1.251 0.3808,1.9146 v 30 c -2e-4,0.6626 -0.1269,1.3003 -0.3806,1.9126 -0.2539,0.6128 -0.6152,1.1533 -1.084,1.6226 -0.469,0.4687 -1.0097,0.83 -1.6223,1.0835 -0.6125,0.2539 -1.2502,0.3808 -1.9131,0.3813 h -144.29 c -0.6633,-5e-4 -1.3013,-0.1274 -1.9138,-0.3813 -0.6126,-0.2535 -1.1531,-0.6148 -1.6219,-1.0835 -0.469,-0.4693 -0.8303,-1.0098 -1.0842,-1.6226 -0.2537,-0.6123 -0.3804,-1.25 -0.3801,-1.9126 v -30 c -3e-4,-0.6636 0.1264,-1.3018 0.3801,-1.9146 0.2539,-0.6127 0.6152,-1.1538 1.0842,-1.622 0.4688,-0.4693 1.0093,-0.8301 1.6219,-1.0835 0.6125,-0.2534 1.2505,-0.3799 1.9138,-0.3799 z"
       style="fill:#ffffff;fill-opacity:1;fill-rule:nonzero;stroke:#000000;stroke-width:1;stroke-linecap:butt;stroke-linejoin:miter;stroke-miterlimit:10;stroke-dasharray:none;stroke-opacity:1"
       transform="matrix(0.94416895,0,0,0.94416895,-2329.1515,-6712.8733)"
       clip-path="url(#clipPath62)" />
    <text
       id="text62"
       xml:space="preserve"
       transform="matrix(0.94416895,0,0,0.94416895,81.297205,146.98565)"
       clip-path="url(#clipPath63)"><tspan
         id="tspan62"
         style="font-variant:normal;font-weight:normal;font-size:16px;font-family:Arial;writing-mode:lr-tb;fill:#000000;fill-opacity:1;fill-rule:nonzero;stroke:none"
         x="0"
         y="0">«assign»</tspan></text>
    <text
       id="text63"
       xml:space="preserve"
       transform="matrix(0.94416895,0,0,0.94416895,92.848545,165.86903)"
       clip-path="url(#clipPath64)"><tspan
         id="tspan63"
         style="font-variant:normal;font-weight:normal;font-size:16px;font-family:Arial;writing-mode:lr-tb;fill:#000000;fill-opacity:1;fill-rule:nonzero;stroke:none"
         x="0"
         y="0">y := 0</tspan></text>
    <path
       id="path65"
       d="m 2585.6201,7289.9922 0.047,2.9995 -1,0.016 -0.047,-2.9995 m 1.0938,5.9839 0.047,2.9995 -1,0.016 -0.047,-2.9995 m 1.0937,5.9834 0.047,2.9995 -1,0.016 -0.047,-2.9996 m 1.0935,5.9839 0.047,2.9995 -1,0.016 -0.047,-2.9995"
       style="fill:#000000;fill-opacity:1;fill-rule:nonzero;stroke:none"
       transform="matrix(0.94416895,0,0,0.94416895,-2329.1515,-6712.8733)"
       clip-path="url(#clipPath66)" />
    <path
       id="path67"
       d="m 2580.8401,7303.9502 4.6399,8.9297 4.3601,-9.0698"
       style="fill:none;stroke:#000000;stroke-width:1;stroke-linecap:butt;stroke-linejoin:miter;stroke-miterlimit:10;stroke-dasharray:none;stroke-opacity:1"
       transform="matrix(0.94416895,0,0,0.94416895,-2329.1515,-6712.8733)"
       clip-path="url(#clipPath68)" />
    <g
       id="g68" />
    <text
       id="text68"
       xml:space="preserve"
       transform="matrix(0.94416895,0,0,0.94416895,8.1388399,391.52541)"
       clip-path="url(#clipPath69)"><tspan
         id="tspan68"
         style="font-variant:normal;font-weight:normal;font-size:12px;font-family:Arial;writing-mode:lr-tb;fill:#000000;fill-opacity:1;fill-rule:nonzero;stroke:none"
         x="0"
         y="0"> </tspan></text>
  </g>
</svg>
