<?xml version="1.0" encoding="UTF-8" standalone="no"?>
<!-- Created with Inkscape (http://www.inkscape.org/) -->

<svg
   version="1.1"
   id="svg1"
   width="206.71999"
   height="217.27998"
   viewBox="0 0 206.71999 217.27998"
   xmlns="http://www.w3.org/2000/svg"
   xmlns:svg="http://www.w3.org/2000/svg">
  <defs
     id="defs1">
    <clipPath
       clipPathUnits="userSpaceOnUse"
       id="clipPath2">
      <path
         d="M 0,0 H 645.01953 V 677.97852 H 0 Z"
         transform="scale(0.31999999)"
         clip-rule="evenodd"
         id="path2" />
    </clipPath>
    <clipPath
       clipPathUnits="userSpaceOnUse"
       id="clipPath4">
      <path
         d="m 3.125,3.125 h 637.5 V 675 H 3.125 Z"
         transform="matrix(0.34002159,0,0,0.34002159,2061.8733,-179.12256)"
         clip-rule="evenodd"
         id="path4" />
    </clipPath>
    <clipPath
       clipPathUnits="userSpaceOnUse"
       id="clipPath5">
      <path
         d="m 3.125,3.125 h 637.5 V 675 H 3.125 Z"
         transform="matrix(0.34002159,0,0,0.34002159,-59.298509,-176.62258)"
         clip-rule="evenodd"
         id="path5" />
    </clipPath>
    <clipPath
       clipPathUnits="userSpaceOnUse"
       id="clipPath6">
      <path
         d="m 3.125,3.125 h 637.5 V 675 H 3.125 Z"
         transform="matrix(0.34002159,0,0,0.34002159,-87.32971,-195.62257)"
         clip-rule="evenodd"
         id="path6" />
    </clipPath>
    <clipPath
       clipPathUnits="userSpaceOnUse"
       id="clipPath7">
      <path
         d="m 3.125,3.125 h 637.5 V 675 H 3.125 Z"
         transform="matrix(0.34002159,0,0,0.34002159,-33.407909,-214.62257)"
         clip-rule="evenodd"
         id="path7" />
    </clipPath>
    <clipPath
       clipPathUnits="userSpaceOnUse"
       id="clipPath8">
      <path
         d="m 3.125,3.125 h 637.5 V 675 H 3.125 Z"
         transform="matrix(0.34002159,0,0,0.34002159,-105.45471,-214.62257)"
         clip-rule="evenodd"
         id="path8" />
    </clipPath>
    <clipPath
       clipPathUnits="userSpaceOnUse"
       id="clipPath9">
      <path
         d="m 3.125,3.125 h 637.5 V 675 H 3.125 Z"
         transform="matrix(0.34002159,0,0,0.34002159,-122.14221,-214.62257)"
         clip-rule="evenodd"
         id="path9" />
    </clipPath>
    <clipPath
       clipPathUnits="userSpaceOnUse"
       id="clipPath11">
      <path
         d="m 3.125,3.125 h 637.5 V 675 H 3.125 Z"
         transform="matrix(0.34002159,0,0,0.34002159,2061.8733,-179.12256)"
         clip-rule="evenodd"
         id="path11" />
    </clipPath>
    <clipPath
       clipPathUnits="userSpaceOnUse"
       id="clipPath13">
      <path
         d="m 3.125,3.125 h 637.5 V 675 H 3.125 Z"
         transform="matrix(0.34002159,0,0,0.34002159,2061.8733,-179.12256)"
         clip-rule="evenodd"
         id="path13" />
    </clipPath>
    <clipPath
       clipPathUnits="userSpaceOnUse"
       id="clipPath14">
      <path
         d="m 3.125,3.125 h 637.5 V 675 H 3.125 Z"
         transform="matrix(0.34002159,0,0,0.34002159,-92.57971,-142.62257)"
         clip-rule="evenodd"
         id="path14" />
    </clipPath>
    <clipPath
       clipPathUnits="userSpaceOnUse"
       id="clipPath16">
      <path
         d="m 3.125,3.125 h 637.5 V 675 H 3.125 Z"
         transform="matrix(0.34002159,0,0,0.34002159,2061.8733,-179.12256)"
         clip-rule="evenodd"
         id="path16" />
    </clipPath>
    <clipPath
       clipPathUnits="userSpaceOnUse"
       id="clipPath17">
      <path
         d="m 3.125,3.125 h 637.5 V 675 H 3.125 Z"
         transform="matrix(0.34002159,0,0,0.34002159,-78.876609,-24.622574)"
         clip-rule="evenodd"
         id="path17" />
    </clipPath>
    <clipPath
       clipPathUnits="userSpaceOnUse"
       id="clipPath18">
      <path
         d="m 3.125,3.125 h 637.5 V 675 H 3.125 Z"
         transform="matrix(0.34002159,0,0,0.34002159,-89.548509,-43.622574)"
         clip-rule="evenodd"
         id="path18" />
    </clipPath>
    <clipPath
       clipPathUnits="userSpaceOnUse"
       id="clipPath20">
      <path
         d="m 3.125,3.125 h 637.5 V 675 H 3.125 Z"
         transform="matrix(0.34002159,0,0,0.34002159,2061.8733,-179.12256)"
         clip-rule="evenodd"
         id="path20" />
    </clipPath>
    <clipPath
       clipPathUnits="userSpaceOnUse"
       id="clipPath22">
      <path
         d="m 3.125,3.125 h 637.5 V 675 H 3.125 Z"
         transform="matrix(0.34002159,0,0,0.34002159,2061.8733,-179.12256)"
         clip-rule="evenodd"
         id="path22" />
    </clipPath>
    <clipPath
       clipPathUnits="userSpaceOnUse"
       id="clipPath24">
      <path
         d="m 3.125,3.125 h 637.5 V 675 H 3.125 Z"
         transform="matrix(0.34002159,0,0,0.34002159,2061.8733,-179.12256)"
         clip-rule="evenodd"
         id="path24" />
    </clipPath>
    <clipPath
       clipPathUnits="userSpaceOnUse"
       id="clipPath25">
      <path
         d="m 3.125,3.125 h 637.5 V 675 H 3.125 Z"
         transform="matrix(0.34002159,0,0,0.34002159,-49.923509,-90.622574)"
         clip-rule="evenodd"
         id="path25" />
    </clipPath>
  </defs>
  <g
     id="g1">
    <path
       id="path1"
       d="M 0,0 H 206 V 217 H 0 Z"
       style="fill:#ffffff;fill-opacity:1;fill-rule:nonzero;stroke:none"
       clip-path="url(#clipPath2)" />
    <path
       id="path3"
       d="m 2070,-24.43 h 202.75 c 0.6628,2e-6 1.3005,0.126869 1.9131,0.380605 0.6125,0.253735 1.1533,0.615021 1.6223,1.083861 0.4688,0.468841 0.8301,1.009548 1.0837,1.622118 0.2537,0.612572 0.3807,1.250377 0.3809,1.913416 v 62.11 c -2e-4,0.66304 -0.1272,1.300843 -0.3809,1.91341 -0.2536,0.612568 -0.6149,1.153275 -1.0837,1.62212 -0.469,0.468838 -1.0098,0.830124 -1.6223,1.083859 -0.6126,0.253738 -1.2503,0.380607 -1.9131,0.380611 H 2070 c -0.6633,-4e-6 -1.301,-0.126873 -1.9136,-0.380607 -0.6125,-0.253735 -1.1533,-0.615025 -1.622,-1.083863 -0.469,-0.468845 -0.8304,-1.009552 -1.084,-1.62212 -0.2537,-0.612567 -0.3806,-1.25037 -0.3804,-1.91341 v -62.11 c -2e-4,-0.663039 0.1267,-1.300844 0.3804,-1.913416 0.2536,-0.61257 0.615,-1.153277 1.084,-1.622118 0.4687,-0.46884 1.0095,-0.830126 1.622,-1.083863 0.6126,-0.253734 1.2503,-0.380601 1.9136,-0.380603 z"
       style="fill:#ffffff;fill-opacity:1;fill-rule:nonzero;stroke:#000000;stroke-width:1;stroke-linecap:butt;stroke-linejoin:miter;stroke-miterlimit:10;stroke-dasharray:none;stroke-opacity:1"
       transform="matrix(0.94111666,0,0,0.94111666,-1940.4633,168.57523)"
       clip-path="url(#clipPath4)" />
    <text
       id="text4"
       xml:space="preserve"
       transform="matrix(0.94111666,0,0,0.94111666,55.806815,166.22245)"
       clip-path="url(#clipPath5)"><tspan
         id="tspan4"
         style="font-variant:normal;font-weight:normal;font-size:16px;font-family:Arial;writing-mode:lr-tb;fill:#000000;fill-opacity:1;fill-rule:nonzero;stroke:none"
         x="0"
         y="0">«send action»</tspan></text>
    <text
       id="text5"
       xml:space="preserve"
       transform="matrix(0.94111666,0,0,0.94111666,82.187445,184.10366)"
       clip-path="url(#clipPath6)"><tspan
         id="tspan5"
         style="font-variant:normal;font-weight:normal;font-size:16px;font-family:Arial;writing-mode:lr-tb;fill:#000000;fill-opacity:1;fill-rule:nonzero;stroke:none"
         x="0"
         y="0">send1</tspan></text>
    <g
       id="g6" />
    <text
       id="text6"
       xml:space="preserve"
       transform="matrix(0.94111666,0,0,0.94111666,31.44074,201.98488)"
       clip-path="url(#clipPath7)"><tspan
         id="tspan6"
         style="font-variant:normal;font-weight:normal;font-size:12px;font-family:Arial;writing-mode:lr-tb;fill:#000000;fill-opacity:1;fill-rule:nonzero;stroke:none"
         x="0"
         y="0">shoot.picture </tspan></text>
    <text
       id="text7"
       xml:space="preserve"
       transform="matrix(0.94111666,0,0,0.94111666,99.245184,201.98488)"
       clip-path="url(#clipPath8)"><tspan
         id="tspan7"
         style="font-variant:normal;font-weight:700;font-size:12px;font-family:Arial;writing-mode:lr-tb;fill:#000000;fill-opacity:1;fill-rule:nonzero;stroke:none"
         x="0"
         y="0">via</tspan></text>
    <g
       id="g8" />
    <text
       id="text8"
       xml:space="preserve"
       transform="matrix(0.94111666,0,0,0.94111666,114.95007,201.98488)"
       clip-path="url(#clipPath9)"><tspan
         id="tspan8"
         style="font-variant:normal;font-weight:normal;font-size:12px;font-family:Arial;writing-mode:lr-tb;fill:#000000;fill-opacity:1;fill-rule:nonzero;stroke:none"
         x="0"
         y="0"> displayPort</tspan></text>
    <path
       id="path10"
       d="m 2071.25,-19.280001 h 12.9099 l 3.0901,5.150001 -3.0901,5.1500005 H 2071.25 Z"
       style="fill:#000000;fill-opacity:1;fill-rule:nonzero;stroke:#000000;stroke-width:1;stroke-linecap:butt;stroke-linejoin:miter;stroke-miterlimit:10;stroke-dasharray:none;stroke-opacity:1"
       transform="matrix(0.94111666,0,0,0.94111666,-1940.4633,168.57523)"
       clip-path="url(#clipPath11)" />
    <path
       id="path12"
       d="m 2200.75,-45.029999 h 18 c 0.2761,4e-6 0.5117,0.09763 0.7068,0.292896 0.1953,0.195263 0.293,0.430962 0.2932,0.707104 v 18 c -2e-4,0.276144 -0.098,0.511847 -0.2932,0.707108 -0.1951,0.195261 -0.4307,0.292892 -0.7068,0.292892 h -18 c -0.2761,0 -0.512,-0.09763 -0.7073,-0.292892 -0.1953,-0.195261 -0.2929,-0.430964 -0.2927,-0.707108 v -18 c -2e-4,-0.276142 0.097,-0.511841 0.2927,-0.707104 0.1953,-0.195262 0.4312,-0.292892 0.7073,-0.292896 z"
       style="fill:none;stroke:#000000;stroke-width:1;stroke-linecap:butt;stroke-linejoin:miter;stroke-miterlimit:10;stroke-dasharray:none;stroke-opacity:1"
       transform="matrix(0.94111666,0,0,0.94111666,-1940.4633,168.57523)"
       clip-path="url(#clipPath13)" />
    <text
       id="text13"
       xml:space="preserve"
       transform="matrix(0.94111666,0,0,0.94111666,87.128307,134.22448)"
       clip-path="url(#clipPath14)"><tspan
         id="tspan13"
         style="font-variant:normal;font-weight:normal;font-size:12px;font-family:Arial;writing-mode:lr-tb;fill:#000000;fill-opacity:1;fill-rule:nonzero;stroke:none"
         x="0"
         y="0">payload</tspan></text>
    <path
       id="path15"
       d="m 2101.75,-176 h 139 c 0.6628,2e-5 1.3005,0.12688 1.9131,0.38062 0.6125,0.25373 1.1533,0.61502 1.6223,1.08384 0.4688,0.46884 0.8298,1.00955 1.0835,1.62213 0.2539,0.61257 0.3809,1.25037 0.3811,1.91341 v 63.14 c -2e-4,0.66305 -0.1272,1.30086 -0.3811,1.91343 -0.2537,0.61257 -0.6147,1.15327 -1.0835,1.62211 -0.469,0.46885 -1.0098,0.83014 -1.6223,1.08387 -0.6126,0.25373 -1.2503,0.38059 -1.9131,0.38059 h -139 c -0.6633,0 -1.3013,-0.12686 -1.9138,-0.38059 -0.6126,-0.25373 -1.1533,-0.61502 -1.6218,-1.08387 -0.469,-0.46884 -0.8304,-1.00954 -1.084,-1.62211 -0.2537,-0.61257 -0.3806,-1.25038 -0.3804,-1.91343 V -171 c -2e-4,-0.66304 0.1267,-1.30084 0.3804,-1.91341 0.2536,-0.61258 0.615,-1.15329 1.084,-1.62213 0.4685,-0.46882 1.0092,-0.83011 1.622,-1.08384 0.6126,-0.25374 1.2503,-0.3806 1.9136,-0.38062 z"
       style="fill:#ffffff;fill-opacity:1;fill-rule:nonzero;stroke:#000000;stroke-width:1;stroke-linecap:butt;stroke-linejoin:miter;stroke-miterlimit:10;stroke-dasharray:none;stroke-opacity:1"
       transform="matrix(0.94111666,0,0,0.94111666,-1940.4633,168.57523)"
       clip-path="url(#clipPath16)" />
    <text
       id="text16"
       xml:space="preserve"
       transform="matrix(0.94111666,0,0,0.94111666,74.232091,23.172715)"
       clip-path="url(#clipPath17)"><tspan
         id="tspan16"
         style="font-variant:normal;font-weight:normal;font-size:16px;font-family:Arial;writing-mode:lr-tb;fill:#000000;fill-opacity:1;fill-rule:nonzero;stroke:none"
         x="0"
         y="0">«action»</tspan></text>
    <text
       id="text17"
       xml:space="preserve"
       transform="matrix(0.94111666,0,0,0.94111666,84.275594,41.053931)"
       clip-path="url(#clipPath18)"><tspan
         id="tspan17"
         style="font-variant:normal;font-weight:normal;font-size:16px;font-family:Arial;writing-mode:lr-tb;fill:#000000;fill-opacity:1;fill-rule:nonzero;stroke:none"
         x="0"
         y="0">shoot</tspan></text>
    <path
       id="path19"
       d="m 2210.3,-82.860001 v 3 h -1 v -3 z m 0,6 v 3 h -1 v -3 z m 0,6 v 3 h -1 v -3 z m 0,6 v 1.959999 h -1 v -1.04 h 1 v 1.04 h -0.5 -0.5 v -1.959999 z m 0,1.801258 -0.01,2.999993 -1,-0.0025 0.01,-2.999993 z m -0.015,6.00002 -0.01,2.999992 -1,-0.0026 0.01,-2.999992 z"
       style="fill:#000000;fill-opacity:1;fill-rule:nonzero;stroke:none"
       transform="matrix(0.94111666,0,0,0.94111666,-1940.4633,168.57523)"
       clip-path="url(#clipPath20)" />
    <path
       id="path21"
       d="m 2209.75,-46.150002 -3.48,-7 7,0.01 -3.52,6.989997 z"
       style="fill:#000000;fill-opacity:1;fill-rule:nonzero;stroke:#000000;stroke-width:1;stroke-linecap:butt;stroke-linejoin:miter;stroke-miterlimit:10;stroke-dasharray:none;stroke-opacity:1"
       transform="matrix(0.94111666,0,0,0.94111666,-1940.4633,168.57523)"
       clip-path="url(#clipPath22)" />
    <path
       id="path23"
       d="m 2200.75,-102.86 h 18 c 0.2761,1e-5 0.5117,0.0976 0.7068,0.2929 0.1953,0.19526 0.293,0.43096 0.2932,0.7071 v 17.999999 c -2e-4,0.276146 -0.098,0.511856 -0.2932,0.707116 -0.1951,0.195259 -0.4307,0.292884 -0.7068,0.292884 h -18 c -0.2761,0 -0.512,-0.09763 -0.7073,-0.292884 -0.1953,-0.19526 -0.2929,-0.43097 -0.2927,-0.707116 V -101.86 c -2e-4,-0.27614 0.097,-0.51184 0.2927,-0.7071 0.1953,-0.19526 0.4312,-0.29289 0.7073,-0.2929 z"
       style="fill:none;stroke:#000000;stroke-width:1;stroke-linecap:butt;stroke-linejoin:miter;stroke-miterlimit:10;stroke-dasharray:none;stroke-opacity:1"
       transform="matrix(0.94111666,0,0,0.94111666,-1940.4633,168.57523)"
       clip-path="url(#clipPath24)" />
    <g
       id="g24" />
    <text
       id="text24"
       xml:space="preserve"
       transform="matrix(0.94111666,0,0,0.94111666,46.983846,85.286414)"
       clip-path="url(#clipPath25)"><tspan
         id="tspan24"
         style="font-variant:normal;font-weight:normal;font-size:12px;font-family:Arial;writing-mode:lr-tb;fill:#000000;fill-opacity:1;fill-rule:nonzero;stroke:none"
         x="0"
         y="0">picture : Picture </tspan></text>
  </g>
</svg>
