<?xml version="1.0" encoding="UTF-8" standalone="no"?>
<!-- Created with Inkscape (http://www.inkscape.org/) -->

<svg
   version="1.1"
   id="svg1"
   width="217.27998"
   height="472"
   viewBox="0 0 217.27998 472"
   xmlns="http://www.w3.org/2000/svg"
   xmlns:svg="http://www.w3.org/2000/svg">
  <defs
     id="defs1">
    <clipPath
       clipPathUnits="userSpaceOnUse"
       id="clipPath2">
      <path
         d="M 0,0 H 680 V 1475.9766 H 0 Z"
         transform="scale(0.31999999)"
         clip-rule="evenodd"
         id="path2" />
    </clipPath>
    <clipPath
       clipPathUnits="userSpaceOnUse"
       id="clipPath4">
      <path
         d="m 3.125,9.375 h 675 v 1456.25 h -675 z"
         transform="matrix(0.33891985,0,0,0.33891985,1876.8807,7108.7633)"
         clip-rule="evenodd"
         id="path4" />
    </clipPath>
    <clipPath
       clipPathUnits="userSpaceOnUse"
       id="clipPath5">
      <path
         d="m 3.125,9.375 h 675 v 1456.25 h -675 z"
         transform="matrix(0.31999999,0,0,0.31999999,-146.92229,-452.94808)"
         clip-rule="evenodd"
         id="path5" />
    </clipPath>
    <clipPath
       clipPathUnits="userSpaceOnUse"
       id="clipPath7">
      <path
         d="m 3.125,9.375 h 675 v 1456.25 h -675 z"
         transform="matrix(0.33891985,0,0,0.33891985,1876.8807,7108.7633)"
         clip-rule="evenodd"
         id="path7" />
    </clipPath>
    <clipPath
       clipPathUnits="userSpaceOnUse"
       id="clipPath9">
      <path
         d="m 3.125,9.375 h 675 v 1456.25 h -675 z"
         transform="matrix(0.33891985,0,0,0.33891985,1876.8807,7108.7633)"
         clip-rule="evenodd"
         id="path9" />
    </clipPath>
    <clipPath
       clipPathUnits="userSpaceOnUse"
       id="clipPath11">
      <path
         d="m 3.125,9.375 h 675 v 1456.25 h -675 z"
         transform="matrix(0.33891985,0,0,0.33891985,1876.8807,7108.7633)"
         clip-rule="evenodd"
         id="path11" />
    </clipPath>
    <clipPath
       clipPathUnits="userSpaceOnUse"
       id="clipPath13">
      <path
         d="m 3.125,9.375 h 675 v 1456.25 h -675 z"
         transform="matrix(0.33891985,0,0,0.33891985,1876.8807,7108.7633)"
         clip-rule="evenodd"
         id="path13" />
    </clipPath>
    <clipPath
       clipPathUnits="userSpaceOnUse"
       id="clipPath14">
      <path
         d="m 3.125,9.375 h 675 v 1456.25 h -675 z"
         transform="matrix(0.31999999,0,0,0.31999999,-42.12539,-26.18237)"
         clip-rule="evenodd"
         id="path14" />
    </clipPath>
    <clipPath
       clipPathUnits="userSpaceOnUse"
       id="clipPath16">
      <path
         d="m 3.125,9.375 h 675 v 1456.25 h -675 z"
         transform="matrix(0.33891985,0,0,0.33891985,1876.8807,7108.7633)"
         clip-rule="evenodd"
         id="path16" />
    </clipPath>
    <clipPath
       clipPathUnits="userSpaceOnUse"
       id="clipPath18">
      <path
         d="m 3.125,9.375 h 675 v 1456.25 h -675 z"
         transform="matrix(0.33891985,0,0,0.33891985,1876.8807,7108.7633)"
         clip-rule="evenodd"
         id="path18" />
    </clipPath>
    <clipPath
       clipPathUnits="userSpaceOnUse"
       id="clipPath20">
      <path
         d="m 3.125,9.375 h 675 v 1456.25 h -675 z"
         transform="matrix(0.33891985,0,0,0.33891985,1876.8807,7108.7633)"
         clip-rule="evenodd"
         id="path20" />
    </clipPath>
    <clipPath
       clipPathUnits="userSpaceOnUse"
       id="clipPath22">
      <path
         d="m 3.125,9.375 h 675 v 1456.25 h -675 z"
         transform="matrix(0.33891985,0,0,0.33891985,1876.8807,7108.7633)"
         clip-rule="evenodd"
         id="path22" />
    </clipPath>
    <clipPath
       clipPathUnits="userSpaceOnUse"
       id="clipPath24">
      <path
         d="m 3.125,9.375 h 675 v 1456.25 h -675 z"
         transform="matrix(0.33891985,0,0,0.33891985,1876.8807,7108.7633)"
         clip-rule="evenodd"
         id="path24" />
    </clipPath>
    <clipPath
       clipPathUnits="userSpaceOnUse"
       id="clipPath26">
      <path
         d="m 3.125,9.375 h 675 v 1456.25 h -675 z"
         transform="matrix(0.33891985,0,0,0.33891985,1876.8807,7108.7633)"
         clip-rule="evenodd"
         id="path26" />
    </clipPath>
    <clipPath
       clipPathUnits="userSpaceOnUse"
       id="clipPath27">
      <path
         d="m 3.125,9.375 h 675 v 1456.25 h -675 z"
         transform="matrix(0.33891985,0,0,0.33891985,-84.869338,-53.736544)"
         clip-rule="evenodd"
         id="path27" />
    </clipPath>
    <clipPath
       clipPathUnits="userSpaceOnUse"
       id="clipPath28">
      <path
         d="m 3.125,9.375 h 675 v 1456.25 h -675 z"
         transform="matrix(0.33891985,0,0,0.33891985,-55.525638,-72.736545)"
         clip-rule="evenodd"
         id="path28" />
    </clipPath>
    <clipPath
       clipPathUnits="userSpaceOnUse"
       id="clipPath29">
      <path
         d="m 264.42627,250.01953 h 147.52734 v 44.25781 H 264.42627 Z"
         transform="matrix(0.33891985,0,0,0.33891985,-89.931838,-95.736545)"
         clip-rule="evenodd"
         id="path29" />
    </clipPath>
    <clipPath
       clipPathUnits="userSpaceOnUse"
       id="clipPath30">
      <path
         d="M 25.431641,309.0293 H 379.49756 v 44.25977 H 25.431641 Z"
         transform="matrix(0.33891985,0,0,0.33891985,-8.619338,-115.73655)"
         clip-rule="evenodd"
         id="path30" />
    </clipPath>
    <clipPath
       clipPathUnits="userSpaceOnUse"
       id="clipPath32">
      <path
         d="m 3.125,9.375 h 675 v 1456.25 h -675 z"
         transform="matrix(0.33891985,0,0,0.33891985,1876.8807,7108.7633)"
         clip-rule="evenodd"
         id="path32" />
    </clipPath>
    <clipPath
       clipPathUnits="userSpaceOnUse"
       id="clipPath33">
      <path
         d="M 19.530762,370.99219 H 656.84961 v 59.00977 H 19.530762 Z"
         transform="matrix(0.31999999,0,0,0.31999999,-81.562891,-132.86987)"
         clip-rule="evenodd"
         id="path33" />
    </clipPath>
    <clipPath
       clipPathUnits="userSpaceOnUse"
       id="clipPath35">
      <path
         d="m 3.125,9.375 h 675 v 1456.25 h -675 z"
         transform="matrix(0.33891985,0,0,0.33891985,1876.8807,7108.7633)"
         clip-rule="evenodd"
         id="path35" />
    </clipPath>
    <clipPath
       clipPathUnits="userSpaceOnUse"
       id="clipPath37">
      <path
         d="m 3.125,9.375 h 675 v 1456.25 h -675 z"
         transform="matrix(0.33891985,0,0,0.33891985,1876.8807,7108.7633)"
         clip-rule="evenodd"
         id="path37" />
    </clipPath>
    <clipPath
       clipPathUnits="userSpaceOnUse"
       id="clipPath39">
      <path
         d="m 3.125,9.375 h 675 v 1456.25 h -675 z"
         transform="matrix(0.33891985,0,0,0.33891985,1876.8807,7108.7633)"
         clip-rule="evenodd"
         id="path39" />
    </clipPath>
    <clipPath
       clipPathUnits="userSpaceOnUse"
       id="clipPath41">
      <path
         d="m 3.125,9.375 h 675 v 1456.25 h -675 z"
         transform="matrix(0.33891985,0,0,0.33891985,1876.8807,7108.7633)"
         clip-rule="evenodd"
         id="path41" />
    </clipPath>
    <clipPath
       clipPathUnits="userSpaceOnUse"
       id="clipPath43">
      <path
         d="m 3.125,9.375 h 675 v 1456.25 h -675 z"
         transform="matrix(0.33891985,0,0,0.33891985,1876.8807,7108.7633)"
         clip-rule="evenodd"
         id="path43" />
    </clipPath>
    <clipPath
       clipPathUnits="userSpaceOnUse"
       id="clipPath45">
      <path
         d="m 3.125,9.375 h 675 v 1456.25 h -675 z"
         transform="matrix(0.33891985,0,0,0.33891985,1876.8807,7108.7633)"
         clip-rule="evenodd"
         id="path45" />
    </clipPath>
    <clipPath
       clipPathUnits="userSpaceOnUse"
       id="clipPath47">
      <path
         d="m 3.125,9.375 h 675 v 1456.25 h -675 z"
         transform="matrix(0.33891985,0,0,0.33891985,1876.8807,7108.7633)"
         clip-rule="evenodd"
         id="path47" />
    </clipPath>
    <clipPath
       clipPathUnits="userSpaceOnUse"
       id="clipPath49">
      <path
         d="m 3.125,9.375 h 675 v 1456.25 h -675 z"
         transform="matrix(0.33891985,0,0,0.33891985,1876.8807,7108.7633)"
         clip-rule="evenodd"
         id="path49" />
    </clipPath>
    <clipPath
       clipPathUnits="userSpaceOnUse"
       id="clipPath51">
      <path
         d="m 3.125,9.375 h 675 v 1456.25 h -675 z"
         transform="matrix(0.33891985,0,0,0.33891985,1876.8807,7108.7633)"
         clip-rule="evenodd"
         id="path51" />
    </clipPath>
    <clipPath
       clipPathUnits="userSpaceOnUse"
       id="clipPath53">
      <path
         d="m 3.125,9.375 h 675 v 1456.25 h -675 z"
         transform="matrix(0.33891985,0,0,0.33891985,1876.8807,7108.7633)"
         clip-rule="evenodd"
         id="path53" />
    </clipPath>
    <clipPath
       clipPathUnits="userSpaceOnUse"
       id="clipPath54">
      <path
         d="m 3.125,9.375 h 675 v 1456.25 h -675 z"
         transform="matrix(0.33891985,0,0,0.33891985,-95.103738,-270.73655)"
         clip-rule="evenodd"
         id="path54" />
    </clipPath>
    <clipPath
       clipPathUnits="userSpaceOnUse"
       id="clipPath55">
      <path
         d="m 3.125,9.375 h 675 v 1456.25 h -675 z"
         transform="matrix(0.33891985,0,0,0.33891985,-99.541238,-289.73655)"
         clip-rule="evenodd"
         id="path55" />
    </clipPath>
    <clipPath
       clipPathUnits="userSpaceOnUse"
       id="clipPath56">
      <path
         d="M 81.492188,881.4375 H 618.49219 v 56.06055 H 81.492188 Z"
         transform="matrix(0.31999999,0,0,0.31999999,-74.359791,-295.52618)"
         clip-rule="evenodd"
         id="path56" />
    </clipPath>
    <clipPath
       clipPathUnits="userSpaceOnUse"
       id="clipPath57">
      <path
         d="m 87.393555,943.39844 h 97.368165 v 44.25781 H 87.393555 Z"
         transform="matrix(0.33891985,0,0,0.33891985,-29.619338,-330.73655)"
         clip-rule="evenodd"
         id="path57" />
    </clipPath>
    <clipPath
       clipPathUnits="userSpaceOnUse"
       id="clipPath59">
      <path
         d="m 3.125,9.375 h 675 v 1456.25 h -675 z"
         transform="matrix(0.33891985,0,0,0.33891985,1876.8807,7108.7633)"
         clip-rule="evenodd"
         id="path59" />
    </clipPath>
    <clipPath
       clipPathUnits="userSpaceOnUse"
       id="clipPath60">
      <path
         d="m 273.27783,1008.3105 h 153.42871 v 44.2579 H 273.27783 Z"
         transform="matrix(0.33891985,0,0,0.33891985,-92.588138,-352.73655)"
         clip-rule="evenodd"
         id="path60" />
    </clipPath>
    <clipPath
       clipPathUnits="userSpaceOnUse"
       id="clipPath61">
      <path
         d="M 87.393555,1064.3711 H 329.33837 v 44.2578 H 87.393555 Z"
         transform="matrix(0.33891985,0,0,0.33891985,-29.619338,-371.73654)"
         clip-rule="evenodd"
         id="path61" />
    </clipPath>
    <clipPath
       clipPathUnits="userSpaceOnUse"
       id="clipPath62">
      <path
         d="M 87.393555,1064.3711 H 329.33837 v 44.2578 H 87.393555 Z"
         transform="matrix(0.33891985,0,0,0.33891985,-67.634938,-371.73654)"
         clip-rule="evenodd"
         id="path62" />
    </clipPath>
    <clipPath
       clipPathUnits="userSpaceOnUse"
       id="clipPath63">
      <path
         d="M 87.393555,1120.4316 H 556.53076 v 44.2579 H 87.393555 Z"
         transform="matrix(0.33891985,0,0,0.33891985,-29.619338,-390.73654)"
         clip-rule="evenodd"
         id="path63" />
    </clipPath>
    <clipPath
       clipPathUnits="userSpaceOnUse"
       id="clipPath64">
      <path
         d="M 87.393555,1120.4316 H 556.53076 v 44.2579 H 87.393555 Z"
         transform="matrix(0.33891985,0,0,0.33891985,-54.963138,-390.73654)"
         clip-rule="evenodd"
         id="path64" />
    </clipPath>
    <clipPath
       clipPathUnits="userSpaceOnUse"
       id="clipPath65">
      <path
         d="M 87.393555,1120.4316 H 556.53076 v 44.2579 H 87.393555 Z"
         transform="matrix(0.33891985,0,0,0.33891985,-58.306839,-390.73654)"
         clip-rule="evenodd"
         id="path65" />
    </clipPath>
    <clipPath
       clipPathUnits="userSpaceOnUse"
       id="clipPath66">
      <path
         d="M 87.393555,1120.4316 H 556.53076 v 44.2579 H 87.393555 Z"
         transform="matrix(0.33891985,0,0,0.33891985,-96.322439,-390.73654)"
         clip-rule="evenodd"
         id="path66" />
    </clipPath>
    <clipPath
       clipPathUnits="userSpaceOnUse"
       id="clipPath68">
      <path
         d="m 3.125,9.375 h 675 v 1456.25 h -675 z"
         transform="matrix(0.33891985,0,0,0.33891985,1876.8807,7108.7633)"
         clip-rule="evenodd"
         id="path68" />
    </clipPath>
    <clipPath
       clipPathUnits="userSpaceOnUse"
       id="clipPath69">
      <path
         d="m 3.125,9.375 h 675 v 1456.25 h -675 z"
         transform="matrix(0.33891985,0,0,0.33891985,-86.103738,-200.73655)"
         clip-rule="evenodd"
         id="path69" />
    </clipPath>
    <clipPath
       clipPathUnits="userSpaceOnUse"
       id="clipPath70">
      <path
         d="m 3.125,9.375 h 675 v 1456.25 h -675 z"
         transform="matrix(0.33891985,0,0,0.33891985,-98.338138,-220.73655)"
         clip-rule="evenodd"
         id="path70" />
    </clipPath>
    <clipPath
       clipPathUnits="userSpaceOnUse"
       id="clipPath72">
      <path
         d="m 3.125,9.375 h 675 v 1456.25 h -675 z"
         transform="matrix(0.33891985,0,0,0.33891985,1876.8807,7108.7633)"
         clip-rule="evenodd"
         id="path72" />
    </clipPath>
    <clipPath
       clipPathUnits="userSpaceOnUse"
       id="clipPath74">
      <path
         d="m 3.125,9.375 h 675 v 1456.25 h -675 z"
         transform="matrix(0.33891985,0,0,0.33891985,1876.8807,7108.7633)"
         clip-rule="evenodd"
         id="path74" />
    </clipPath>
    <clipPath
       clipPathUnits="userSpaceOnUse"
       id="clipPath75">
      <path
         d="m 25.431641,1324.0195 h 8.851562 v 44.2578 h -8.851562 z"
         transform="matrix(0.33891985,0,0,0.33891985,-8.619338,-459.73655)"
         clip-rule="evenodd"
         id="path75" />
    </clipPath>
  </defs>
  <g
     id="g1">
    <path
       id="path1"
       d="M 0,0 H 218 V 472 H 0 Z"
       style="fill:#ffffff;fill-opacity:1;fill-rule:nonzero;stroke:none"
       clip-path="url(#clipPath2)" />
    <path
       id="path3"
       d="m 2013.5,7573 h 15 c 0.3314,0 0.6503,0.064 0.9565,0.1899 0.3063,0.1265 0.5766,0.3072 0.8111,0.542 0.2344,0.2339 0.415,0.5044 0.542,0.8106 0.1268,0.3061 0.1903,0.6255 0.1904,0.9575 v 17 c -10e-5,0.3311 -0.064,0.6499 -0.1904,0.9561 -0.127,0.3061 -0.3076,0.5766 -0.542,0.8115 -0.2345,0.2339 -0.5048,0.4145 -0.8111,0.5415 -0.3062,0.1269 -0.6251,0.1904 -0.9565,0.1909 h -15 c -0.3317,-5e-4 -0.6506,-0.064 -0.957,-0.1909 -0.3063,-0.127 -0.5766,-0.3076 -0.8109,-0.5415 -0.2345,-0.2349 -0.4152,-0.5054 -0.5422,-0.8111 -0.1268,-0.3066 -0.19,-0.6254 -0.1899,-0.9565 v -17 c -10e-5,-0.332 0.063,-0.6514 0.1899,-0.9575 0.127,-0.3062 0.3077,-0.5767 0.5422,-0.8106 0.2343,-0.2348 0.5046,-0.4155 0.8109,-0.542 0.3064,-0.1264 0.6253,-0.1899 0.957,-0.1899 z"
       style="fill:#ffffff;fill-opacity:1;fill-rule:nonzero;stroke:#000000;stroke-width:1;stroke-linecap:butt;stroke-linejoin:miter;stroke-miterlimit:10;stroke-dasharray:none;stroke-opacity:1"
       transform="matrix(0.94417599,0,0,0.94417599,-1772.1057,-6711.9236)"
       clip-path="url(#clipPath4)" />
    <text
       id="text4"
       xml:space="preserve"
       transform="translate(146.92229,452.94808)"
       clip-path="url(#clipPath5)"><tspan
         id="tspan4"
         style="font-variant:normal;font-weight:normal;font-size:11.33px;font-family:Arial;writing-mode:lr-tb;fill:#000000;fill-opacity:1;fill-rule:nonzero;stroke:none"
         x="0"
         y="0">y:Integer</tspan></text>
    <path
       id="path6"
       d="m 2010,7572 h 22 v 3 h -22 z"
       style="fill:#ffffff;fill-opacity:1;fill-rule:nonzero;stroke:none"
       transform="matrix(0.94417599,0,0,0.94417599,-1772.1057,-6711.9236)"
       clip-path="url(#clipPath7)" />
    <path
       id="path8"
       d="m 2021.04,7575 -0.07,10 0.05,7.7598"
       style="fill:none;stroke:#000000;stroke-width:1;stroke-linecap:butt;stroke-linejoin:miter;stroke-miterlimit:10;stroke-dasharray:none;stroke-opacity:1"
       transform="matrix(0.94417599,0,0,0.94417599,-1772.1057,-6711.9236)"
       clip-path="url(#clipPath9)" />
    <path
       id="path10"
       d="m 2017.48,7586.9102 3.55,6.9697 3.45,-7.02"
       style="fill:none;stroke:#000000;stroke-width:1;stroke-linecap:butt;stroke-linejoin:miter;stroke-miterlimit:10;stroke-dasharray:none;stroke-opacity:1"
       transform="matrix(0.94417599,0,0,0.94417599,-1772.1057,-6711.9236)"
       clip-path="url(#clipPath11)" />
    <path
       id="path12"
       d="m 1902.5,7121 h 15 c 0.3314,0 0.6501,0.064 0.9564,0.1899 0.3063,0.1265 0.5767,0.3072 0.8113,0.5415 0.2343,0.2339 0.4149,0.504 0.5417,0.8106 0.1269,0.3066 0.1905,0.626 0.1906,0.958 v 17 c -10e-5,0.3311 -0.064,0.6494 -0.1906,0.9556 -0.1268,0.3061 -0.3074,0.5766 -0.5417,0.8115 -0.2346,0.2344 -0.505,0.415 -0.8113,0.542 -0.3063,0.1269 -0.625,0.1904 -0.9564,0.1909 h -15 c -0.3317,-5e-4 -0.6505,-0.064 -0.9568,-0.1909 -0.3065,-0.127 -0.5768,-0.3076 -0.811,-0.542 -0.2345,-0.2349 -0.4152,-0.5054 -0.542,-0.8115 -0.1268,-0.3062 -0.1903,-0.6245 -0.1902,-0.9556 v -17 c -10e-5,-0.332 0.063,-0.6514 0.1902,-0.958 0.1268,-0.3066 0.3075,-0.5767 0.542,-0.8106 0.2342,-0.2343 0.5045,-0.415 0.8109,-0.5415 0.3063,-0.1264 0.6252,-0.1899 0.9569,-0.1899 z"
       style="fill:#ffffff;fill-opacity:1;fill-rule:nonzero;stroke:#000000;stroke-width:1;stroke-linecap:butt;stroke-linejoin:miter;stroke-miterlimit:10;stroke-dasharray:none;stroke-opacity:1"
       transform="matrix(0.94417599,0,0,0.94417599,-1772.1057,-6711.9236)"
       clip-path="url(#clipPath13)" />
    <text
       id="text13"
       xml:space="preserve"
       transform="translate(42.12539,26.18237)"
       clip-path="url(#clipPath14)"><tspan
         id="tspan13"
         style="font-variant:normal;font-weight:normal;font-size:11.33px;font-family:Arial;writing-mode:lr-tb;fill:#000000;fill-opacity:1;fill-rule:nonzero;stroke:none"
         x="0"
         y="0">x:Integer</tspan></text>
    <path
       id="path15"
       d="m 1899,7141 h 22 v 3 h -22 z"
       style="fill:#ffffff;fill-opacity:1;fill-rule:nonzero;stroke:none"
       transform="matrix(0.94417599,0,0,0.94417599,-1772.1057,-6711.9236)"
       clip-path="url(#clipPath16)" />
    <path
       id="path17"
       d="m 1910.04,7121 -0.07,10 0.05,7.7598"
       style="fill:none;stroke:#000000;stroke-width:1;stroke-linecap:butt;stroke-linejoin:miter;stroke-miterlimit:10;stroke-dasharray:none;stroke-opacity:1"
       transform="matrix(0.94417599,0,0,0.94417599,-1772.1057,-6711.9236)"
       clip-path="url(#clipPath18)" />
    <path
       id="path19"
       d="m 1906.48,7132.9102 3.55,6.9697 3.45,-7.02"
       style="fill:none;stroke:#000000;stroke-width:1;stroke-linecap:butt;stroke-linejoin:miter;stroke-miterlimit:10;stroke-dasharray:none;stroke-opacity:1"
       transform="matrix(0.94417599,0,0,0.94417599,-1772.1057,-6711.9236)"
       clip-path="url(#clipPath20)" />
    <path
       id="path21"
       d="m 2104.25,7191 v -45 c 0,-3.3335 -1.6667,-5 -5,-5 H 1885 c -3.3334,0 -5,1.6665 -5,5 v 45"
       style="fill:none;stroke:#000000;stroke-width:1;stroke-linecap:butt;stroke-linejoin:miter;stroke-miterlimit:10;stroke-dasharray:none;stroke-opacity:1"
       transform="matrix(0.94417599,0,0,0.94417599,-1772.1057,-6711.9236)"
       clip-path="url(#clipPath22)" />
    <path
       id="path23"
       d="m 1880,7191 v 379 c 0,3.3335 1.6666,5 5,5 h 214.25 c 3.3333,0 5,-1.6665 5,-5 v -379"
       style="fill:none;stroke:#000000;stroke-width:1;stroke-linecap:butt;stroke-linejoin:miter;stroke-miterlimit:10;stroke-dasharray:none;stroke-opacity:1"
       transform="matrix(0.94417599,0,0,0.94417599,-1772.1057,-6711.9236)"
       clip-path="url(#clipPath24)" />
    <path
       id="path25"
       d="m 1880,7191 h 224.25"
       style="fill:none;stroke:#000000;stroke-width:1;stroke-linecap:butt;stroke-linejoin:miter;stroke-miterlimit:10;stroke-dasharray:none;stroke-opacity:1"
       transform="matrix(0.94417599,0,0,0.94417599,-1772.1057,-6711.9236)"
       clip-path="url(#clipPath26)" />
    <text
       id="text26"
       xml:space="preserve"
       transform="matrix(0.94417599,0,0,0.94417599,80.131591,50.736755)"
       clip-path="url(#clipPath27)"><tspan
         id="tspan26"
         style="font-variant:normal;font-weight:normal;font-size:16px;font-family:Arial;writing-mode:lr-tb;fill:#000000;fill-opacity:1;fill-rule:nonzero;stroke:none"
         x="0"
         y="0">«action»</tspan></text>
    <text
       id="text27"
       xml:space="preserve"
       transform="matrix(0.94417599,0,0,0.94417599,52.425974,68.676099)"
       clip-path="url(#clipPath28)"><tspan
         id="tspan27"
         style="font-variant:normal;font-weight:normal;font-size:16px;font-family:Arial;writing-mode:lr-tb;fill:#000000;fill-opacity:1;fill-rule:nonzero;stroke:none"
         x="0"
         y="0">actionWithLoop2</tspan></text>
    <text
       id="text28"
       xml:space="preserve"
       transform="matrix(0.94417599,0,0,0.94417599,84.911482,90.392147)"
       clip-path="url(#clipPath29)"><tspan
         id="tspan28"
         style="font-style:italic;font-variant:normal;font-weight:normal;font-size:12px;font-family:Arial;writing-mode:lr-tb;fill:#000000;fill-opacity:1;fill-rule:nonzero;stroke:none"
         x="0"
         y="0">attributes</tspan></text>
    <text
       id="text29"
       xml:space="preserve"
       transform="matrix(0.94417599,0,0,0.94417599,8.138172,109.27567)"
       clip-path="url(#clipPath30)"><tspan
         id="tspan29"
         style="font-variant:normal;font-weight:normal;font-size:12px;font-family:Arial;writing-mode:lr-tb;fill:#000000;fill-opacity:1;fill-rule:nonzero;stroke:none"
         x="0"
         y="0">increment : Integer = 1</tspan></text>
    <path
       id="path31"
       d="m 1880,7233 h 224.25"
       style="fill:none;stroke:#000000;stroke-width:1;stroke-linecap:butt;stroke-linejoin:miter;stroke-miterlimit:10;stroke-dasharray:none;stroke-opacity:1"
       transform="matrix(0.94417599,0,0,0.94417599,-1772.1057,-6711.9236)"
       clip-path="url(#clipPath32)" />
    <text
       id="text32"
       xml:space="preserve"
       transform="translate(81.562891,132.86987)"
       clip-path="url(#clipPath33)"><tspan
         id="tspan32"
         style="font-style:italic;font-variant:normal;font-weight:normal;font-size:11.33px;font-family:Arial;writing-mode:lr-tb;fill:#000000;fill-opacity:1;fill-rule:nonzero;stroke:none"
         x="0"
         y="0">action flow</tspan></text>
    <path
       id="path34"
       d="m 2004.5,7540 c -10e-5,0.5908 -0.058,1.1758 -0.1732,1.7554 -0.1153,0.5796 -0.2859,1.1421 -0.5121,1.688 -0.2262,0.5463 -0.5035,1.0649 -0.8318,1.5556 -0.3282,0.4917 -0.7013,0.9468 -1.1191,1.3648 -0.418,0.4175 -0.8726,0.79 -1.3639,1.1186 -0.4915,0.3286 -1.0102,0.6055 -1.5561,0.8316 -0.546,0.226 -1.1086,0.3969 -1.6881,0.5122 -0.5797,0.1157 -1.1649,0.1733 -1.7557,0.1738 -0.5911,-5e-4 -1.1764,-0.058 -1.7561,-0.1738 -0.5796,-0.1153 -1.1425,-0.2862 -1.6885,-0.5122 -0.546,-0.2261 -1.0646,-0.503 -1.5559,-0.8316 -0.4913,-0.3286 -0.9458,-0.7011 -1.3636,-1.1186 -0.418,-0.418 -0.7911,-0.8726 -1.1193,-1.3643 -0.3284,-0.4912 -0.6056,-1.0098 -0.8318,-1.5561 -0.2262,-0.5459 -0.3968,-1.1089 -0.5119,-1.6885 -0.1154,-0.5791 -0.173,-1.1641 -0.1729,-1.7549 -10e-5,-0.5913 0.057,-1.1768 0.1729,-1.7563 0.1151,-0.5796 0.2857,-1.1426 0.5119,-1.689 0.2262,-0.5464 0.5034,-1.065 0.8317,-1.5567 0.3282,-0.4907 0.7014,-0.9453 1.1194,-1.3627 0.4178,-0.418 0.8724,-0.7911 1.3637,-1.1192 0.4914,-0.3281 1.01,-0.6055 1.5561,-0.8315 0.5459,-0.2261 1.1086,-0.397 1.6882,-0.5117 0.5797,-0.1153 1.165,-0.1729 1.7561,-0.1729 0.5908,0 1.176,0.058 1.7556,0.1724 0.5795,0.1152 1.1422,0.2856 1.6882,0.5117 0.5459,0.2261 1.0646,0.5034 1.5561,0.832 0.4913,0.3281 0.9459,0.7012 1.3639,1.1192 0.4178,0.4174 0.7909,0.872 1.119,1.3632 0.3284,0.4912 0.6057,1.0098 0.8319,1.5562 0.2262,0.5464 0.3968,1.1094 0.5121,1.689 0.1153,0.5795 0.1731,1.165 0.1732,1.7563 z"
       style="fill:#000000;fill-opacity:1;fill-rule:nonzero;stroke:#000000;stroke-width:1;stroke-linecap:butt;stroke-linejoin:miter;stroke-miterlimit:10;stroke-dasharray:none;stroke-opacity:1"
       transform="matrix(0.94417599,0,0,0.94417599,-1772.1057,-6711.9236)"
       clip-path="url(#clipPath35)" />
    <path
       id="path36"
       d="m 2008.5,7540 c 0,0.853 -0.083,1.6982 -0.2499,2.5356 -0.1666,0.837 -0.4132,1.6499 -0.7398,2.4385 -0.3267,0.7886 -0.7271,1.5381 -1.2013,2.2476 -0.4743,0.7099 -1.0131,1.3667 -1.6166,1.9702 -0.6037,0.603 -1.2603,1.1421 -1.9701,1.6162 -0.7097,0.4741 -1.4589,0.875 -2.2474,1.2017 -0.7887,0.3266 -1.6016,0.5737 -2.4388,0.7402 -0.8371,0.1665 -1.6825,0.25 -2.5361,0.25 -0.8536,0 -1.6991,-0.083 -2.5364,-0.25 -0.8373,-0.1665 -1.6501,-0.4136 -2.4387,-0.7402 -0.7887,-0.3267 -1.5378,-0.7276 -2.2476,-1.2017 -0.7098,-0.4741 -1.3664,-1.0132 -1.9698,-1.6162 -0.6036,-0.6035 -1.1426,-1.2603 -1.6168,-1.9697 -0.4743,-0.71 -0.8748,-1.4595 -1.2013,-2.2481 -0.3267,-0.7886 -0.5733,-1.6015 -0.7398,-2.4385 -0.1665,-0.8374 -0.2497,-1.6826 -0.2496,-2.5356 -10e-5,-0.854 0.083,-1.6997 0.2496,-2.5371 0.1665,-0.8374 0.4131,-1.6504 0.7398,-2.439 0.3265,-0.7885 0.727,-1.5376 1.2013,-2.247 0.4742,-0.7095 1.0132,-1.3663 1.6168,-1.9698 0.6034,-0.6035 1.26,-1.1425 1.9698,-1.6172 0.7098,-0.4741 1.4589,-0.874 2.2476,-1.2006 0.7886,-0.3267 1.6016,-0.5733 2.4388,-0.7398 0.8372,-0.1665 1.6827,-0.2495 2.5363,-0.2495 0.8536,0 1.699,0.083 2.5361,0.2495 0.8372,0.1665 1.6501,0.4126 2.4388,0.7393 0.7885,0.3266 1.5377,0.727 2.2474,1.2011 0.7098,0.4747 1.3664,1.0137 1.9701,1.6172 0.6035,0.6035 1.1423,1.2603 1.6166,1.9702 0.4742,0.7095 0.8746,1.4585 1.2013,2.2471 0.3266,0.7886 0.5732,1.6011 0.7398,2.4385 0.1666,0.8374 0.2499,1.6831 0.2499,2.5371 z"
       style="fill:none;stroke:#000000;stroke-width:1;stroke-linecap:butt;stroke-linejoin:miter;stroke-miterlimit:10;stroke-dasharray:none;stroke-opacity:1"
       transform="matrix(0.94417599,0,0,0.94417599,-1772.1057,-6711.9236)"
       clip-path="url(#clipPath37)" />
    <path
       id="path38"
       d="m 1995.5,7274.9966 0.02,3 -1,0.01 -0.02,-3 m 1.0394,5.9932 0.02,3 -1,0.01 -0.02,-3 m 1.0393,5.9927 0.02,3 -1,0.01 -0.02,-3"
       style="fill:#000000;fill-opacity:1;fill-rule:nonzero;stroke:none"
       transform="matrix(0.94417599,0,0,0.94417599,-1772.1057,-6711.9236)"
       clip-path="url(#clipPath39)" />
    <path
       id="path40"
       d="m 1990.5601,7283.9102 4.5599,8.9697 4.4401,-9.0298"
       style="fill:none;stroke:#000000;stroke-width:1;stroke-linecap:butt;stroke-linejoin:miter;stroke-miterlimit:10;stroke-dasharray:none;stroke-opacity:1"
       transform="matrix(0.94417599,0,0,0.94417599,-1772.1057,-6711.9236)"
       clip-path="url(#clipPath41)" />
    <path
       id="path42"
       d="m 2005,7265 c -10e-5,0.6563 -0.064,1.3062 -0.1923,1.9502 -0.1281,0.6436 -0.3178,1.2686 -0.5692,1.8755 -0.2512,0.6064 -0.5592,1.1826 -0.924,1.7285 -0.3649,0.5459 -0.7793,1.0513 -1.2436,1.5161 -0.4643,0.4644 -0.9695,0.8789 -1.5155,1.2437 -0.5459,0.3637 -1.1222,0.6718 -1.7287,0.9233 -0.6067,0.2515 -1.232,0.4414 -1.8759,0.5698 -0.644,0.1284 -1.2943,0.1929 -1.9508,0.1929 -0.6566,0 -1.3069,-0.064 -1.9509,-0.1924 -0.6441,-0.1289 -1.2694,-0.3188 -1.8761,-0.5703 -0.6067,-0.2515 -1.183,-0.5596 -1.7289,-0.9243 -0.546,-0.3643 -1.051,-0.7783 -1.5153,-1.2427 -0.4643,-0.4648 -0.8789,-0.9702 -1.2436,-1.5161 -0.3649,-0.5459 -0.6729,-1.1221 -0.9242,-1.7285 -0.2514,-0.6069 -0.4409,-1.2319 -0.569,-1.876 -0.128,-0.6435 -0.192,-1.2934 -0.192,-1.9497 0,-0.6567 0.064,-1.3076 0.192,-1.9517 0.1281,-0.644 0.3176,-1.269 0.569,-1.8759 0.2513,-0.6065 0.5593,-1.1827 0.9241,-1.729 0.3648,-0.5459 0.7794,-1.0508 1.2437,-1.5152 0.4643,-0.4643 0.9693,-0.8794 1.5153,-1.2441 0.5459,-0.3648 1.1222,-0.6724 1.7289,-0.9238 0.6067,-0.251 1.232,-0.4405 1.8761,-0.5684 0.644,-0.1279 1.2943,-0.1919 1.9509,-0.1919 0.6565,0 1.3068,0.064 1.9507,0.1919 0.6439,0.1279 1.2693,0.3174 1.8758,0.5684 0.6067,0.2514 1.183,0.559 1.7289,0.9238 0.546,0.3647 1.0512,0.7798 1.5155,1.2441 0.4643,0.4644 0.8787,0.9693 1.2436,1.5152 0.3648,0.5463 0.6728,1.1225 0.924,1.729 0.2514,0.6069 0.4411,1.2324 0.5692,1.8764 0.1281,0.6441 0.1922,1.2945 0.1923,1.9512 z"
       style="fill:#000000;fill-opacity:1;fill-rule:nonzero;stroke:#000000;stroke-width:1;stroke-linecap:butt;stroke-linejoin:miter;stroke-miterlimit:10;stroke-dasharray:none;stroke-opacity:1"
       transform="matrix(0.94417599,0,0,0.94417599,-1772.1057,-6711.9236)"
       clip-path="url(#clipPath43)" />
    <path
       id="path44"
       d="m 1996,7505.3398 v 3 h -1 v -3 m 1,6 v 3 h -1 v -3 m 1,6 v 3 h -1 v -3 m 1,6 v 1.42 h -1 v -1.42"
       style="fill:#000000;fill-opacity:1;fill-rule:nonzero;stroke:none"
       transform="matrix(0.94417599,0,0,0.94417599,-1772.1057,-6711.9236)"
       clip-path="url(#clipPath45)" />
    <path
       id="path46"
       d="m 1991,7516.8799 4.5,9 4.5,-9"
       style="fill:none;stroke:#000000;stroke-width:1;stroke-linecap:butt;stroke-linejoin:miter;stroke-miterlimit:10;stroke-dasharray:none;stroke-opacity:1"
       transform="matrix(0.94417599,0,0,0.94417599,-1772.1057,-6711.9236)"
       clip-path="url(#clipPath47)" />
    <path
       id="path48"
       d="m 2090.5,7408 v -42.5 c 0,-5 -2.5,-7.5 -7.5,-7.5 h -175 c -5,0 -7.5,2.5 -7.5,7.5 v 42.5"
       style="fill:none;stroke:#000000;stroke-width:1;stroke-linecap:butt;stroke-linejoin:miter;stroke-miterlimit:10;stroke-dasharray:none;stroke-opacity:1"
       transform="matrix(0.94417599,0,0,0.94417599,-1772.1057,-6711.9236)"
       clip-path="url(#clipPath49)" />
    <path
       id="path50"
       d="m 1900.5,7408 v 89.8398 c 0,5 2.5,7.5 7.5,7.5 h 175 c 5,0 7.5,-2.5 7.5,-7.5 V 7408"
       style="fill:none;stroke:#000000;stroke-width:1;stroke-linecap:butt;stroke-linejoin:miter;stroke-miterlimit:10;stroke-dasharray:none;stroke-opacity:1"
       transform="matrix(0.94417599,0,0,0.94417599,-1772.1057,-6711.9236)"
       clip-path="url(#clipPath51)" />
    <path
       id="path52"
       d="m 1900.5,7408 h 190"
       style="fill:none;stroke:#000000;stroke-width:1;stroke-linecap:butt;stroke-linejoin:miter;stroke-miterlimit:10;stroke-dasharray:none;stroke-opacity:1"
       transform="matrix(0.94417599,0,0,0.94417599,-1772.1057,-6711.9236)"
       clip-path="url(#clipPath53)" />
    <text
       id="text53"
       xml:space="preserve"
       transform="matrix(0.94417599,0,0,0.94417599,89.794666,255.62295)"
       clip-path="url(#clipPath54)"><tspan
         id="tspan53"
         style="font-variant:normal;font-weight:normal;font-size:16px;font-family:Arial;writing-mode:lr-tb;fill:#000000;fill-opacity:1;fill-rule:nonzero;stroke:none"
         x="0"
         y="0">«loop»</tspan></text>
    <text
       id="text54"
       xml:space="preserve"
       transform="matrix(0.94417599,0,0,0.94417599,93.984447,273.56229)"
       clip-path="url(#clipPath55)"><tspan
         id="tspan54"
         style="font-variant:normal;font-weight:normal;font-size:16px;font-family:Arial;writing-mode:lr-tb;fill:#000000;fill-opacity:1;fill-rule:nonzero;stroke:none"
         x="0"
         y="0">loop2</tspan></text>
    <text
       id="text55"
       xml:space="preserve"
       transform="translate(74.359791,295.52618)"
       clip-path="url(#clipPath56)"><tspan
         id="tspan55"
         style="font-style:italic;font-variant:normal;font-weight:normal;font-size:11.33px;font-family:Arial;writing-mode:lr-tb;fill:#000000;fill-opacity:1;fill-rule:nonzero;stroke:none"
         x="0"
         y="0">while condition</tspan></text>
    <text
       id="text56"
       xml:space="preserve"
       transform="matrix(0.94417599,0,0,0.94417599,27.965868,312.27351)"
       clip-path="url(#clipPath57)"><tspan
         id="tspan56"
         style="font-variant:normal;font-weight:normal;font-size:12px;font-family:Arial;writing-mode:lr-tb;fill:#000000;fill-opacity:1;fill-rule:nonzero;stroke:none"
         x="0"
         y="0">x &lt; 10</tspan></text>
    <path
       id="path58"
       d="m 1900.5,7446.9399 h 190"
       style="fill:none;stroke:#000000;stroke-width:1;stroke-linecap:butt;stroke-linejoin:miter;stroke-miterlimit:10;stroke-dasharray:none;stroke-opacity:1"
       transform="matrix(0.94417599,0,0,0.94417599,-1772.1057,-6711.9236)"
       clip-path="url(#clipPath59)" />
    <text
       id="text59"
       xml:space="preserve"
       transform="matrix(0.94417599,0,0,0.94417599,87.419497,333.04538)"
       clip-path="url(#clipPath60)"><tspan
         id="tspan59"
         style="font-style:italic;font-variant:normal;font-weight:normal;font-size:12px;font-family:Arial;writing-mode:lr-tb;fill:#000000;fill-opacity:1;fill-rule:nonzero;stroke:none"
         x="0"
         y="0">loop body</tspan></text>
    <text
       id="text60"
       xml:space="preserve"
       transform="matrix(0.94417599,0,0,0.94417599,27.965868,350.98472)"
       clip-path="url(#clipPath61)"><tspan
         id="tspan60"
         style="font-variant:normal;font-weight:700;font-size:12px;font-family:Arial;writing-mode:lr-tb;fill:#000000;fill-opacity:1;fill-rule:nonzero;stroke:none"
         x="0"
         y="0">assign</tspan></text>
    <g
       id="g61" />
    <text
       id="text61"
       xml:space="preserve"
       transform="matrix(0.94417599,0,0,0.94417599,63.859285,350.98472)"
       clip-path="url(#clipPath62)"><tspan
         id="tspan61"
         style="font-variant:normal;font-weight:normal;font-size:12px;font-family:Arial;writing-mode:lr-tb;fill:#000000;fill-opacity:1;fill-rule:nonzero;stroke:none"
         x="0"
         y="0"> y := 2*x</tspan></text>
    <text
       id="text62"
       xml:space="preserve"
       transform="matrix(0.94417599,0,0,0.94417599,27.965868,368.92406)"
       clip-path="url(#clipPath63)"><tspan
         id="tspan62"
         style="font-variant:normal;font-weight:700;font-size:12px;font-family:Arial;writing-mode:lr-tb;fill:#000000;fill-opacity:1;fill-rule:nonzero;stroke:none"
         x="0"
         y="0">then</tspan></text>
    <g
       id="g63" />
    <text
       id="text63"
       xml:space="preserve"
       transform="matrix(0.94417599,0,0,0.94417599,51.894875,368.92406)"
       clip-path="url(#clipPath64)"><tspan
         id="tspan63"
         style="font-variant:normal;font-weight:normal;font-size:12px;font-family:Arial;writing-mode:lr-tb;fill:#000000;fill-opacity:1;fill-rule:nonzero;stroke:none"
         x="0"
         y="0"> </tspan></text>
    <text
       id="text64"
       xml:space="preserve"
       transform="matrix(0.94417599,0,0,0.94417599,55.051917,368.92406)"
       clip-path="url(#clipPath65)"><tspan
         id="tspan64"
         style="font-variant:normal;font-weight:700;font-size:12px;font-family:Arial;writing-mode:lr-tb;fill:#000000;fill-opacity:1;fill-rule:nonzero;stroke:none"
         x="0"
         y="0">assign</tspan></text>
    <g
       id="g65" />
    <text
       id="text65"
       xml:space="preserve"
       transform="matrix(0.94417599,0,0,0.94417599,90.945334,368.92406)"
       clip-path="url(#clipPath66)"><tspan
         id="tspan65"
         style="font-variant:normal;font-weight:normal;font-size:12px;font-family:Arial;writing-mode:lr-tb;fill:#000000;fill-opacity:1;fill-rule:nonzero;stroke:none"
         x="0"
         y="0"> x := x+increment</tspan></text>
    <path
       id="path67"
       d="m 1922.98,7294 h 144.29 c 0.6629,0 1.3008,0.1265 1.9133,0.3799 0.6126,0.2534 1.1531,0.6147 1.6221,1.084 0.4688,0.4687 0.8301,1.0092 1.0838,1.6215 0.2536,0.6128 0.3806,1.251 0.3808,1.9146 v 30 c -2e-4,0.6621 -0.1272,1.2993 -0.3808,1.9121 -0.2537,0.6128 -0.615,1.1538 -1.0838,1.6231 -0.469,0.4682 -1.0095,0.8295 -1.6221,1.0835 -0.6125,0.2539 -1.2504,0.3808 -1.9133,0.3813 h -144.29 c -0.6632,-5e-4 -1.301,-0.1274 -1.9136,-0.3813 -0.6127,-0.254 -1.1533,-0.6153 -1.6222,-1.0835 -0.4689,-0.4693 -0.8301,-1.0103 -1.0838,-1.6231 -0.2537,-0.6128 -0.3805,-1.25 -0.3804,-1.9121 v -30 c -10e-5,-0.6636 0.1267,-1.3018 0.3805,-1.9146 0.2536,-0.6123 0.6148,-1.1528 1.0837,-1.6215 0.4689,-0.4693 1.0095,-0.8306 1.6222,-1.084 0.6126,-0.2534 1.2504,-0.3799 1.9136,-0.3799 z"
       style="fill:#ffffff;fill-opacity:1;fill-rule:nonzero;stroke:#000000;stroke-width:1;stroke-linecap:butt;stroke-linejoin:miter;stroke-miterlimit:10;stroke-dasharray:none;stroke-opacity:1"
       transform="matrix(0.94417599,0,0,0.94417599,-1772.1057,-6711.9236)"
       clip-path="url(#clipPath68)" />
    <text
       id="text68"
       xml:space="preserve"
       transform="matrix(0.94417599,0,0,0.94417599,81.297082,189.53063)"
       clip-path="url(#clipPath69)"><tspan
         id="tspan68"
         style="font-variant:normal;font-weight:normal;font-size:16px;font-family:Arial;writing-mode:lr-tb;fill:#000000;fill-opacity:1;fill-rule:nonzero;stroke:none"
         x="0"
         y="0">«assign»</tspan></text>
    <text
       id="text69"
       xml:space="preserve"
       transform="matrix(0.94417599,0,0,0.94417599,92.848509,208.41415)"
       clip-path="url(#clipPath70)"><tspan
         id="tspan69"
         style="font-variant:normal;font-weight:normal;font-size:16px;font-family:Arial;writing-mode:lr-tb;fill:#000000;fill-opacity:1;fill-rule:nonzero;stroke:none"
         x="0"
         y="0">y := 0</tspan></text>
    <path
       id="path71"
       d="m 1995.62,7333.9922 0.047,2.9995 -1,0.016 -0.047,-2.9995 m 1.0937,5.9839 0.047,2.9995 -1,0.016 -0.047,-2.9995 m 1.0938,5.9834 0.047,2.9995 -1,0.016 -0.047,-2.9996 m 1.0937,5.9839 0.047,2.9995 -1,0.016 -0.047,-2.9995"
       style="fill:#000000;fill-opacity:1;fill-rule:nonzero;stroke:none"
       transform="matrix(0.94417599,0,0,0.94417599,-1772.1057,-6711.9236)"
       clip-path="url(#clipPath72)" />
    <path
       id="path73"
       d="m 1990.84,7347.9502 4.64,8.9297 4.36,-9.0698"
       style="fill:none;stroke:#000000;stroke-width:1;stroke-linecap:butt;stroke-linejoin:miter;stroke-miterlimit:10;stroke-dasharray:none;stroke-opacity:1"
       transform="matrix(0.94417599,0,0,0.94417599,-1772.1057,-6711.9236)"
       clip-path="url(#clipPath74)" />
    <g
       id="g74" />
    <text
       id="text74"
       xml:space="preserve"
       transform="matrix(0.94417599,0,0,0.94417599,8.138172,434.07221)"
       clip-path="url(#clipPath75)"><tspan
         id="tspan74"
         style="font-variant:normal;font-weight:normal;font-size:12px;font-family:Arial;writing-mode:lr-tb;fill:#000000;fill-opacity:1;fill-rule:nonzero;stroke:none"
         x="0"
         y="0"> </tspan></text>
  </g>
</svg>
