<?xml version="1.0" encoding="UTF-8" standalone="no"?>
<!-- Created with Inkscape (http://www.inkscape.org/) -->

<svg
   version="1.1"
   id="svg1"
   width="224"
   height="162.56"
   viewBox="0 0 224 162.56"
   xmlns="http://www.w3.org/2000/svg"
   xmlns:svg="http://www.w3.org/2000/svg">
  <defs
     id="defs1">
    <clipPath
       clipPathUnits="userSpaceOnUse"
       id="clipPath2">
      <path
         d="M 0,0 H 699.02344 V 509 H 0 Z"
         transform="scale(0.31999999)"
         clip-rule="evenodd"
         id="path2" />
    </clipPath>
    <clipPath
       clipPathUnits="userSpaceOnUse"
       id="clipPath4">
      <path
         d="m 3.125,0 h 693.75 V 509 H 3.125 Z"
         transform="matrix(0.33841369,0,0,0.33841369,2156.8795,6769.9429)"
         clip-rule="evenodd"
         id="path4" />
    </clipPath>
    <clipPath
       clipPathUnits="userSpaceOnUse"
       id="clipPath5">
      <path
         d="m 3.125,0 h 693.75 V 509 H 3.125 Z"
         transform="matrix(0.31999999,0,0,0.31999999,-49.757198,-24.152539)"
         clip-rule="evenodd"
         id="path5" />
    </clipPath>
    <clipPath
       clipPathUnits="userSpaceOnUse"
       id="clipPath7">
      <path
         d="m 3.125,0 h 693.75 V 509 H 3.125 Z"
         transform="matrix(0.33841369,0,0,0.33841369,2156.8795,6769.9429)"
         clip-rule="evenodd"
         id="path7" />
    </clipPath>
    <clipPath
       clipPathUnits="userSpaceOnUse"
       id="clipPath9">
      <path
         d="m 3.125,0 h 693.75 V 509 H 3.125 Z"
         transform="matrix(0.33841369,0,0,0.33841369,2156.8795,6769.9429)"
         clip-rule="evenodd"
         id="path9" />
    </clipPath>
    <clipPath
       clipPathUnits="userSpaceOnUse"
       id="clipPath11">
      <path
         d="m 3.125,0 h 693.75 V 509 H 3.125 Z"
         transform="matrix(0.33841369,0,0,0.33841369,2156.8795,6769.9429)"
         clip-rule="evenodd"
         id="path11" />
    </clipPath>
    <clipPath
       clipPathUnits="userSpaceOnUse"
       id="clipPath13">
      <path
         d="m 3.125,0 h 693.75 V 509 H 3.125 Z"
         transform="matrix(0.33841369,0,0,0.33841369,2156.8795,6769.9429)"
         clip-rule="evenodd"
         id="path13" />
    </clipPath>
    <clipPath
       clipPathUnits="userSpaceOnUse"
       id="clipPath15">
      <path
         d="m 3.125,0 h 693.75 V 509 H 3.125 Z"
         transform="matrix(0.33841369,0,0,0.33841369,2156.8795,6769.9429)"
         clip-rule="evenodd"
         id="path15" />
    </clipPath>
    <clipPath
       clipPathUnits="userSpaceOnUse"
       id="clipPath17">
      <path
         d="m 3.125,0 h 693.75 V 509 H 3.125 Z"
         transform="matrix(0.33841369,0,0,0.33841369,2156.8795,6769.9429)"
         clip-rule="evenodd"
         id="path17" />
    </clipPath>
    <clipPath
       clipPathUnits="userSpaceOnUse"
       id="clipPath19">
      <path
         d="m 3.125,0 h 693.75 V 509 H 3.125 Z"
         transform="matrix(0.33841369,0,0,0.33841369,2156.8795,6769.9429)"
         clip-rule="evenodd"
         id="path19" />
    </clipPath>
    <clipPath
       clipPathUnits="userSpaceOnUse"
       id="clipPath20">
      <path
         d="m 3.125,0 h 693.75 V 509 H 3.125 Z"
         transform="matrix(0.33841369,0,0,0.33841369,-105.21414,-51.557647)"
         clip-rule="evenodd"
         id="path20" />
    </clipPath>
    <clipPath
       clipPathUnits="userSpaceOnUse"
       id="clipPath21">
      <path
         d="m 3.125,0 h 693.75 V 509 H 3.125 Z"
         transform="matrix(0.33841369,0,0,0.33841369,-73.651642,-70.557648)"
         clip-rule="evenodd"
         id="path21" />
    </clipPath>
    <clipPath
       clipPathUnits="userSpaceOnUse"
       id="clipPath22">
      <path
         d="M 261.86963,243.95508 H 433.25781 V 288.2793 H 261.86963 Z"
         transform="matrix(0.33841369,0,0,0.33841369,-88.932842,-93.557648)"
         clip-rule="evenodd"
         id="path22" />
    </clipPath>
    <clipPath
       clipPathUnits="userSpaceOnUse"
       id="clipPath23">
      <path
         d="m 25.472656,303.05469 h 79.784184 v 44.32422 H 25.472656 Z"
         transform="matrix(0.33841369,0,0,0.33841369,-8.6203413,-113.55765)"
         clip-rule="evenodd"
         id="path23" />
    </clipPath>
    <clipPath
       clipPathUnits="userSpaceOnUse"
       id="clipPath25">
      <path
         d="m 3.125,0 h 693.75 V 509 H 3.125 Z"
         transform="matrix(0.33841369,0,0,0.33841369,2156.8795,6769.9429)"
         clip-rule="evenodd"
         id="path25" />
    </clipPath>
    <clipPath
       clipPathUnits="userSpaceOnUse"
       id="clipPath26">
      <path
         d="M 19.562988,365.10742 H 675.56445 v 59.09961 H 19.562988 Z"
         transform="matrix(0.31999999,0,0,0.31999999,-86.304096,-131.01193)"
         clip-rule="evenodd"
         id="path26" />
    </clipPath>
    <clipPath
       clipPathUnits="userSpaceOnUse"
       id="clipPath27">
      <path
         d="M 25.472656,433.07227 H 250.04981 v 44.32422 H 25.472656 Z"
         transform="matrix(0.33841369,0,0,0.33841369,-8.6203413,-157.55765)"
         clip-rule="evenodd"
         id="path27" />
    </clipPath>
    <clipPath
       clipPathUnits="userSpaceOnUse"
       id="clipPath28">
      <path
         d="M 25.472656,433.07227 H 250.04981 v 44.32422 H 25.472656 Z"
         transform="matrix(0.33841369,0,0,0.33841369,-46.635941,-157.55765)"
         clip-rule="evenodd"
         id="path28" />
    </clipPath>
  </defs>
  <g
     id="g1">
    <path
       id="path1"
       d="M 0,0 H 224 V 163 H 0 Z"
       style="fill:#ffffff;fill-opacity:1;fill-rule:nonzero;stroke:none"
       clip-path="url(#clipPath2)" />
    <path
       id="path3"
       d="m 2190.5,6780 h 15 c 0.3315,0 0.6504,0.064 0.9565,0.1899 0.3064,0.1265 0.5767,0.3072 0.8111,0.5415 0.2341,0.2339 0.4148,0.5044 0.5417,0.8106 0.127,0.3066 0.1905,0.626 0.1907,0.958 v 17 c -2e-4,0.3311 -0.064,0.6494 -0.1907,0.9556 -0.1269,0.3061 -0.3076,0.5766 -0.5417,0.8115 -0.2344,0.2344 -0.5047,0.415 -0.8111,0.542 -0.3061,0.1269 -0.625,0.1904 -0.9565,0.1909 h -15 c -0.3318,-5e-4 -0.6506,-0.064 -0.957,-0.1909 -0.3062,-0.127 -0.5764,-0.3076 -0.8108,-0.542 -0.2346,-0.2349 -0.4153,-0.5054 -0.542,-0.8115 -0.127,-0.3062 -0.1904,-0.6245 -0.1902,-0.9556 v -17 c -2e-4,-0.332 0.063,-0.6514 0.1902,-0.958 0.1267,-0.3062 0.3074,-0.5767 0.542,-0.8106 0.2344,-0.2343 0.5046,-0.415 0.8108,-0.5415 0.3064,-0.1264 0.6252,-0.1899 0.957,-0.1899 z"
       style="fill:#ffffff;fill-opacity:1;fill-rule:nonzero;stroke:#000000;stroke-width:1;stroke-linecap:butt;stroke-linejoin:miter;stroke-miterlimit:10;stroke-dasharray:none;stroke-opacity:1"
       transform="matrix(0.94558818,0,0,0.94558818,-2039.5198,-6401.578)"
       clip-path="url(#clipPath4)" />
    <text
       id="text4"
       xml:space="preserve"
       transform="translate(49.757198,24.152539)"
       clip-path="url(#clipPath5)"><tspan
         id="tspan4"
         style="font-variant:normal;font-weight:normal;font-size:11.34px;font-family:Arial;writing-mode:lr-tb;fill:#000000;fill-opacity:1;fill-rule:nonzero;stroke:none"
         x="0"
         y="0">a:Integer</tspan></text>
    <path
       id="path6"
       d="m 2187,6800 h 22 v 3 h -22 z"
       style="fill:#ffffff;fill-opacity:1;fill-rule:nonzero;stroke:none"
       transform="matrix(0.94558818,0,0,0.94558818,-2039.5198,-6401.578)"
       clip-path="url(#clipPath7)" />
    <path
       id="path8"
       d="m 2198.02,6782.2402 -0.05,7.7598 0.05,7.7598"
       style="fill:none;stroke:#000000;stroke-width:1;stroke-linecap:butt;stroke-linejoin:miter;stroke-miterlimit:10;stroke-dasharray:none;stroke-opacity:1"
       transform="matrix(0.94558818,0,0,0.94558818,-2039.5198,-6401.578)"
       clip-path="url(#clipPath9)" />
    <path
       id="path10"
       d="m 2201.48,6788.1401 -3.45,-7.02 -3.55,6.9697"
       style="fill:none;stroke:#000000;stroke-width:1;stroke-linecap:butt;stroke-linejoin:miter;stroke-miterlimit:10;stroke-dasharray:none;stroke-opacity:1"
       transform="matrix(0.94558818,0,0,0.94558818,-2039.5198,-6401.578)"
       clip-path="url(#clipPath11)" />
    <path
       id="path12"
       d="m 2194.48,6791.9102 3.55,6.9697 3.45,-7.02"
       style="fill:none;stroke:#000000;stroke-width:1;stroke-linecap:butt;stroke-linejoin:miter;stroke-miterlimit:10;stroke-dasharray:none;stroke-opacity:1"
       transform="matrix(0.94558818,0,0,0.94558818,-2039.5198,-6401.578)"
       clip-path="url(#clipPath13)" />
    <path
       id="path14"
       d="m 2390,6850 v -45 c 0,-3.3335 -1.6667,-5 -5,-5 h -220 c -3.3333,0 -5,1.6665 -5,5 v 45"
       style="fill:#ffffff;fill-opacity:1;fill-rule:nonzero;stroke:#000000;stroke-width:1;stroke-linecap:butt;stroke-linejoin:miter;stroke-miterlimit:10;stroke-dasharray:none;stroke-opacity:1"
       transform="matrix(0.94558818,0,0,0.94558818,-2039.5198,-6401.578)"
       clip-path="url(#clipPath15)" />
    <path
       id="path16"
       d="m 2160,6850 v 79 c 0,3.3335 1.6667,5 5,5 h 220 c 3.3333,0 5,-1.6665 5,-5 v -79"
       style="fill:none;stroke:#000000;stroke-width:1;stroke-linecap:butt;stroke-linejoin:miter;stroke-miterlimit:10;stroke-dasharray:none;stroke-opacity:1"
       transform="matrix(0.94558818,0,0,0.94558818,-2039.5198,-6401.578)"
       clip-path="url(#clipPath17)" />
    <path
       id="path18"
       d="m 2160,6850 h 230"
       style="fill:none;stroke:#000000;stroke-width:1;stroke-linecap:butt;stroke-linejoin:miter;stroke-miterlimit:10;stroke-dasharray:none;stroke-opacity:1"
       transform="matrix(0.94558818,0,0,0.94558818,-2039.5198,-6401.578)"
       clip-path="url(#clipPath19)" />
    <text
       id="text19"
       xml:space="preserve"
       transform="matrix(0.94558818,0,0,0.94558818,99.489249,48.752302)"
       clip-path="url(#clipPath20)"><tspan
         id="tspan19"
         style="font-variant:normal;font-weight:normal;font-size:16px;font-family:Arial;writing-mode:lr-tb;fill:#000000;fill-opacity:1;fill-rule:nonzero;stroke:none"
         x="0"
         y="0">«if»</tspan></text>
    <text
       id="text20"
       xml:space="preserve"
       transform="matrix(0.94558818,0,0,0.94558818,69.644122,66.718478)"
       clip-path="url(#clipPath21)"><tspan
         id="tspan20"
         style="font-variant:normal;font-weight:normal;font-size:16px;font-family:Arial;writing-mode:lr-tb;fill:#000000;fill-opacity:1;fill-rule:nonzero;stroke:none"
         x="0"
         y="0">ifThenAction</tspan></text>
    <text
       id="text21"
       xml:space="preserve"
       transform="matrix(0.94558818,0,0,0.94558818,84.093844,88.467006)"
       clip-path="url(#clipPath22)"><tspan
         id="tspan21"
         style="font-style:italic;font-variant:normal;font-weight:normal;font-size:12px;font-family:Arial;writing-mode:lr-tb;fill:#000000;fill-opacity:1;fill-rule:nonzero;stroke:none"
         x="0"
         y="0">if condition</tspan></text>
    <text
       id="text22"
       xml:space="preserve"
       transform="matrix(0.94558818,0,0,0.94558818,8.1512928,107.37877)"
       clip-path="url(#clipPath23)"><tspan
         id="tspan22"
         style="font-variant:normal;font-weight:normal;font-size:12px;font-family:Arial;writing-mode:lr-tb;fill:#000000;fill-opacity:1;fill-rule:nonzero;stroke:none"
         x="0"
         y="0">a &lt; 0</tspan></text>
    <path
       id="path24"
       d="m 2160,6892 h 230"
       style="fill:none;stroke:#000000;stroke-width:1;stroke-linecap:butt;stroke-linejoin:miter;stroke-miterlimit:10;stroke-dasharray:none;stroke-opacity:1"
       transform="matrix(0.94558818,0,0,0.94558818,-2039.5198,-6401.578)"
       clip-path="url(#clipPath25)" />
    <text
       id="text25"
       xml:space="preserve"
       transform="translate(86.304096,131.01193)"
       clip-path="url(#clipPath26)"><tspan
         id="tspan25"
         style="font-style:italic;font-variant:normal;font-weight:normal;font-size:11.34px;font-family:Arial;writing-mode:lr-tb;fill:#000000;fill-opacity:1;fill-rule:nonzero;stroke:none"
         x="0"
         y="0">then body</tspan></text>
    <text
       id="text26"
       xml:space="preserve"
       transform="matrix(0.94558818,0,0,0.94558818,8.1512928,148.98465)"
       clip-path="url(#clipPath27)"><tspan
         id="tspan26"
         style="font-variant:normal;font-weight:700;font-size:12px;font-family:Arial;writing-mode:lr-tb;fill:#000000;fill-opacity:1;fill-rule:nonzero;stroke:none"
         x="0"
         y="0">assign</tspan></text>
    <g
       id="g27" />
    <text
       id="text27"
       xml:space="preserve"
       transform="matrix(0.94558818,0,0,0.94558818,44.098395,148.98465)"
       clip-path="url(#clipPath28)"><tspan
         id="tspan27"
         style="font-variant:normal;font-weight:normal;font-size:12px;font-family:Arial;writing-mode:lr-tb;fill:#000000;fill-opacity:1;fill-rule:nonzero;stroke:none"
         x="0"
         y="0"> a := -a</tspan></text>
  </g>
</svg>
