<?xml version="1.0" encoding="UTF-8" standalone="no"?>
<!-- Created with Inkscape (http://www.inkscape.org/) -->

<svg
   version="1.1"
   id="svg1"
   width="193.27998"
   height="89.279999"
   viewBox="0 0 193.27998 89.279999"
   xmlns="http://www.w3.org/2000/svg"
   xmlns:svg="http://www.w3.org/2000/svg">
  <defs
     id="defs1">
    <clipPath
       clipPathUnits="userSpaceOnUse"
       id="clipPath2">
      <path
         d="M 0,0 H 605 V 279.00391 H 0 Z"
         transform="scale(0.31999999)"
         clip-rule="evenodd"
         id="path2" />
    </clipPath>
    <clipPath
       clipPathUnits="userSpaceOnUse"
       id="clipPath4">
      <path
         d="m 3.125,0 h 600 v 278.125 h -600 z"
         transform="matrix(0.34090568,0,0,0.34090568,1776.863,-312.06534)"
         clip-rule="evenodd"
         id="path4" />
    </clipPath>
    <clipPath
       clipPathUnits="userSpaceOnUse"
       id="clipPath5">
      <path
         d="m 3.125,0 h 600 v 278.125 h -600 z"
         transform="matrix(0.34090568,0,0,0.34090568,-46.590076,-23.565337)"
         clip-rule="evenodd"
         id="path5" />
    </clipPath>
    <clipPath
       clipPathUnits="userSpaceOnUse"
       id="clipPath6">
      <path
         d="m 3.125,0 h 600 v 278.125 h -600 z"
         transform="matrix(0.34090568,0,0,0.34090568,-75.511976,-42.565338)"
         clip-rule="evenodd"
         id="path6" />
    </clipPath>
    <clipPath
       clipPathUnits="userSpaceOnUse"
       id="clipPath7">
      <path
         d="m 3.125,0 h 600 v 278.125 h -600 z"
         transform="matrix(0.34090568,0,0,0.34090568,-29.918276,-61.565338)"
         clip-rule="evenodd"
         id="path7" />
    </clipPath>
    <clipPath
       clipPathUnits="userSpaceOnUse"
       id="clipPath8">
      <path
         d="m 3.125,0 h 600 v 278.125 h -600 z"
         transform="matrix(0.34090568,0,0,0.34090568,-109.30888,-61.565338)"
         clip-rule="evenodd"
         id="path8" />
    </clipPath>
    <clipPath
       clipPathUnits="userSpaceOnUse"
       id="clipPath9">
      <path
         d="m 3.125,0 h 600 v 278.125 h -600 z"
         transform="matrix(0.34090568,0,0,0.34090568,-125.99638,-61.565338)"
         clip-rule="evenodd"
         id="path9" />
    </clipPath>
    <clipPath
       clipPathUnits="userSpaceOnUse"
       id="clipPath11">
      <path
         d="m 3.125,0 h 600 v 278.125 h -600 z"
         transform="matrix(0.34090568,0,0,0.34090568,1776.863,-312.06534)"
         clip-rule="evenodd"
         id="path11" />
    </clipPath>
  </defs>
  <g
     id="g1">
    <path
       id="path1"
       d="M 0,0 H 194 V 89 H 0 Z"
       style="fill:#ffffff;fill-opacity:1;fill-rule:nonzero;stroke:none"
       clip-path="url(#clipPath2)" />
    <path
       id="path3"
       d="m 1785,-310 h 190 c 0.663,0 1.3007,0.12689 1.9131,0.38065 0.6127,0.25369 1.1533,0.61499 1.6222,1.08383 0.4686,0.46884 0.8299,1.00955 1.0837,1.6221 0.2538,0.61258 0.3809,1.2504 0.381,1.91342 v 61 c -10e-5,0.66306 -0.1272,1.30087 -0.381,1.91344 -0.2538,0.61256 -0.6151,1.15327 -1.0837,1.6221 -0.4689,0.46885 -1.0095,0.83014 -1.6222,1.08388 C 1976.3007,-239.12686 1975.663,-239 1975,-239 h -190 c -0.6632,0 -1.301,-0.12686 -1.9137,-0.38058 -0.6125,-0.25374 -1.1532,-0.61503 -1.6221,-1.08388 -0.4688,-0.46883 -0.8302,-1.00954 -1.0838,-1.6221 -0.2538,-0.61257 -0.3805,-1.25038 -0.3804,-1.91344 v -61 c -10e-5,-0.66302 0.1266,-1.30084 0.3804,-1.91342 0.2536,-0.61255 0.615,-1.15326 1.0838,-1.6221 0.4689,-0.46884 1.0096,-0.83014 1.6221,-1.08383 C 1783.699,-309.87311 1784.3368,-310 1785,-310 Z"
       style="fill:#ffffff;fill-opacity:1;fill-rule:nonzero;stroke:#000000;stroke-width:1;stroke-linecap:butt;stroke-linejoin:miter;stroke-miterlimit:10;stroke-dasharray:none;stroke-opacity:1"
       transform="matrix(0.93867602,0,0,0.93867602,-1667.8987,292.92825)"
       clip-path="url(#clipPath4)" />
    <text
       id="text4"
       xml:space="preserve"
       transform="matrix(0.93867602,0,0,0.93867602,43.732987,22.120217)"
       clip-path="url(#clipPath5)"><tspan
         id="tspan4"
         style="font-variant:normal;font-weight:normal;font-size:16px;font-family:Arial;writing-mode:lr-tb;fill:#000000;fill-opacity:1;fill-rule:nonzero;stroke:none"
         x="0"
         y="0">«accept action»</tspan></text>
    <text
       id="text5"
       xml:space="preserve"
       transform="matrix(0.93867602,0,0,0.93867602,70.881281,39.955062)"
       clip-path="url(#clipPath6)"><tspan
         id="tspan5"
         style="font-variant:normal;font-weight:normal;font-size:16px;font-family:Arial;writing-mode:lr-tb;fill:#000000;fill-opacity:1;fill-rule:nonzero;stroke:none"
         x="0"
         y="0">trigger1</tspan></text>
    <text
       id="text6"
       xml:space="preserve"
       transform="matrix(0.93867602,0,0,0.93867602,28.083568,57.789906)"
       clip-path="url(#clipPath7)"><tspan
         id="tspan6"
         style="font-variant:normal;font-weight:normal;font-size:12px;font-family:Arial;writing-mode:lr-tb;fill:#000000;fill-opacity:1;fill-rule:nonzero;stroke:none"
         x="0"
         y="0">scene : Scene </tspan></text>
    <text
       id="text7"
       xml:space="preserve"
       transform="matrix(0.93867602,0,0,0.93867602,102.60562,57.789906)"
       clip-path="url(#clipPath8)"><tspan
         id="tspan7"
         style="font-variant:normal;font-weight:700;font-size:12px;font-family:Arial;writing-mode:lr-tb;fill:#000000;fill-opacity:1;fill-rule:nonzero;stroke:none"
         x="0"
         y="0">via</tspan></text>
    <text
       id="text8"
       xml:space="preserve"
       transform="matrix(0.93867602,0,0,0.93867602,118.26978,57.789906)"
       clip-path="url(#clipPath9)"><tspan
         id="tspan8"
         style="font-variant:normal;font-weight:normal;font-size:12px;font-family:Arial;writing-mode:lr-tb;fill:#000000;fill-opacity:1;fill-rule:nonzero;stroke:none"
         x="0"
         y="0"> viewPort</tspan></text>
    <path
       id="path10"
       d="m 1786,-304 h 16 v 10 h -16 l 3,-5 z"
       style="fill:#000000;fill-opacity:1;fill-rule:nonzero;stroke:#000000;stroke-width:1;stroke-linecap:butt;stroke-linejoin:miter;stroke-miterlimit:10;stroke-dasharray:none;stroke-opacity:1"
       transform="matrix(0.93867602,0,0,0.93867602,-1667.8987,292.92825)"
       clip-path="url(#clipPath11)" />
  </g>
</svg>
