<?xml version="1.0" encoding="UTF-8" standalone="no"?>
<!-- Created with Inkscape (http://www.inkscape.org/) -->

<svg
   version="1.1"
   id="svg1"
   width="233.27998"
   height="225.27998"
   viewBox="0 0 233.27998 225.27998"
   xmlns="http://www.w3.org/2000/svg"
   xmlns:svg="http://www.w3.org/2000/svg">
  <defs
     id="defs1">
    <clipPath
       clipPathUnits="userSpaceOnUse"
       id="clipPath2">
      <path
         d="M 0,0 H 729.00391 V 704.98047 H 0 Z"
         transform="scale(0.31999999)"
         clip-rule="evenodd"
         id="path2" />
    </clipPath>
    <clipPath
       clipPathUnits="userSpaceOnUse"
       id="clipPath4">
      <path
         d="M 3.125,3.125 H 725 v 700 H 3.125 Z"
         transform="matrix(0.33941169,0,0,0.33941169,1876.8782,6769.8791)"
         clip-rule="evenodd"
         id="path4" />
    </clipPath>
    <clipPath
       clipPathUnits="userSpaceOnUse"
       id="clipPath5">
      <path
         d="M 3.125,3.125 H 725 v 700 H 3.125 Z"
         transform="matrix(0.31999999,0,0,0.31999999,-49.602518,-24.146099)"
         clip-rule="evenodd"
         id="path5" />
    </clipPath>
    <clipPath
       clipPathUnits="userSpaceOnUse"
       id="clipPath7">
      <path
         d="M 3.125,3.125 H 725 v 700 H 3.125 Z"
         transform="matrix(0.33941169,0,0,0.33941169,1876.8782,6769.8791)"
         clip-rule="evenodd"
         id="path7" />
    </clipPath>
    <clipPath
       clipPathUnits="userSpaceOnUse"
       id="clipPath9">
      <path
         d="M 3.125,3.125 H 725 v 700 H 3.125 Z"
         transform="matrix(0.33941169,0,0,0.33941169,1876.8782,6769.8791)"
         clip-rule="evenodd"
         id="path9" />
    </clipPath>
    <clipPath
       clipPathUnits="userSpaceOnUse"
       id="clipPath11">
      <path
         d="M 3.125,3.125 H 725 v 700 H 3.125 Z"
         transform="matrix(0.33941169,0,0,0.33941169,1876.8782,6769.8791)"
         clip-rule="evenodd"
         id="path11" />
    </clipPath>
    <clipPath
       clipPathUnits="userSpaceOnUse"
       id="clipPath13">
      <path
         d="M 3.125,3.125 H 725 v 700 H 3.125 Z"
         transform="matrix(0.33941169,0,0,0.33941169,1876.8782,6769.8791)"
         clip-rule="evenodd"
         id="path13" />
    </clipPath>
    <clipPath
       clipPathUnits="userSpaceOnUse"
       id="clipPath14">
      <path
         d="M 3.125,3.125 H 725 v 700 H 3.125 Z"
         transform="matrix(0.31999999,0,0,0.31999999,-184.43061,-208.94299)"
         clip-rule="evenodd"
         id="path14" />
    </clipPath>
    <clipPath
       clipPathUnits="userSpaceOnUse"
       id="clipPath16">
      <path
         d="M 3.125,3.125 H 725 v 700 H 3.125 Z"
         transform="matrix(0.33941169,0,0,0.33941169,1876.8782,6769.8791)"
         clip-rule="evenodd"
         id="path16" />
    </clipPath>
    <clipPath
       clipPathUnits="userSpaceOnUse"
       id="clipPath18">
      <path
         d="M 3.125,3.125 H 725 v 700 H 3.125 Z"
         transform="matrix(0.33941169,0,0,0.33941169,1876.8782,6769.8791)"
         clip-rule="evenodd"
         id="path18" />
    </clipPath>
    <clipPath
       clipPathUnits="userSpaceOnUse"
       id="clipPath20">
      <path
         d="M 3.125,3.125 H 725 v 700 H 3.125 Z"
         transform="matrix(0.33941169,0,0,0.33941169,1876.8782,6769.8791)"
         clip-rule="evenodd"
         id="path20" />
    </clipPath>
    <clipPath
       clipPathUnits="userSpaceOnUse"
       id="clipPath22">
      <path
         d="M 3.125,3.125 H 725 v 700 H 3.125 Z"
         transform="matrix(0.33941169,0,0,0.33941169,1876.8782,6769.8791)"
         clip-rule="evenodd"
         id="path22" />
    </clipPath>
    <clipPath
       clipPathUnits="userSpaceOnUse"
       id="clipPath24">
      <path
         d="M 3.125,3.125 H 725 v 700 H 3.125 Z"
         transform="matrix(0.33941169,0,0,0.33941169,1876.8782,6769.8791)"
         clip-rule="evenodd"
         id="path24" />
    </clipPath>
    <clipPath
       clipPathUnits="userSpaceOnUse"
       id="clipPath26">
      <path
         d="M 3.125,3.125 H 725 v 700 H 3.125 Z"
         transform="matrix(0.33941169,0,0,0.33941169,1876.8782,6769.8791)"
         clip-rule="evenodd"
         id="path26" />
    </clipPath>
    <clipPath
       clipPathUnits="userSpaceOnUse"
       id="clipPath27">
      <path
         d="M 3.125,3.125 H 725 v 700 H 3.125 Z"
         transform="matrix(0.33941169,0,0,0.33941169,-105.21561,-51.621001)"
         clip-rule="evenodd"
         id="path27" />
    </clipPath>
    <clipPath
       clipPathUnits="userSpaceOnUse"
       id="clipPath28">
      <path
         d="M 3.125,3.125 H 725 v 700 H 3.125 Z"
         transform="matrix(0.33941169,0,0,0.33941169,-58.090606,-70.621001)"
         clip-rule="evenodd"
         id="path28" />
    </clipPath>
    <clipPath
       clipPathUnits="userSpaceOnUse"
       id="clipPath29">
      <path
         d="m 261.104,243.42383 h 170.88428 v 44.19531 H 261.104 Z"
         transform="matrix(0.33941169,0,0,0.33941169,-88.934306,-93.621001)"
         clip-rule="evenodd"
         id="path29" />
    </clipPath>
    <clipPath
       clipPathUnits="userSpaceOnUse"
       id="clipPath30">
      <path
         d="M 25.402344,302.34961 H 146.19971 v 44.19531 H 25.402344 Z"
         transform="matrix(0.33941169,0,0,0.33941169,-8.621806,-113.62101)"
         clip-rule="evenodd"
         id="path30" />
    </clipPath>
    <clipPath
       clipPathUnits="userSpaceOnUse"
       id="clipPath32">
      <path
         d="M 3.125,3.125 H 725 v 700 H 3.125 Z"
         transform="matrix(0.33941169,0,0,0.33941169,1876.8782,6769.8791)"
         clip-rule="evenodd"
         id="path32" />
    </clipPath>
    <clipPath
       clipPathUnits="userSpaceOnUse"
       id="clipPath33">
      <path
         d="M 19.509766,364.22266 H 673.58252 v 58.92578 H 19.509766 Z"
         transform="matrix(0.31999999,0,0,0.31999999,-86.040016,-130.69299)"
         clip-rule="evenodd"
         id="path33" />
    </clipPath>
    <clipPath
       clipPathUnits="userSpaceOnUse"
       id="clipPath34">
      <path
         d="M 25.402344,431.98633 H 275.83545 v 44.19336 H 25.402344 Z"
         transform="matrix(0.33941169,0,0,0.33941169,-8.621806,-157.621)"
         clip-rule="evenodd"
         id="path34" />
    </clipPath>
    <clipPath
       clipPathUnits="userSpaceOnUse"
       id="clipPath35">
      <path
         d="M 25.402344,431.98633 H 275.83545 v 44.19336 H 25.402344 Z"
         transform="matrix(0.33941169,0,0,0.33941169,-46.637406,-157.621)"
         clip-rule="evenodd"
         id="path35" />
    </clipPath>
    <clipPath
       clipPathUnits="userSpaceOnUse"
       id="clipPath37">
      <path
         d="M 3.125,3.125 H 725 v 700 H 3.125 Z"
         transform="matrix(0.33941169,0,0,0.33941169,1876.8782,6769.8791)"
         clip-rule="evenodd"
         id="path37" />
    </clipPath>
    <clipPath
       clipPathUnits="userSpaceOnUse"
       id="clipPath38">
      <path
         d="M 19.509766,493.85742 H 673.58252 V 552.7832 H 19.509766 Z"
         transform="matrix(0.31999999,0,0,0.31999999,-86.680616,-172.16169)"
         clip-rule="evenodd"
         id="path38" />
    </clipPath>
    <clipPath
       clipPathUnits="userSpaceOnUse"
       id="clipPath39">
      <path
         d="M 25.402344,561.62305 H 237.53418 v 44.19336 H 25.402344 Z"
         transform="matrix(0.33941169,0,0,0.33941169,-8.621806,-201.621)"
         clip-rule="evenodd"
         id="path39" />
    </clipPath>
    <clipPath
       clipPathUnits="userSpaceOnUse"
       id="clipPath40">
      <path
         d="M 25.402344,561.62305 H 237.53418 v 44.19336 H 25.402344 Z"
         transform="matrix(0.33941169,0,0,0.33941169,-46.637406,-201.621)"
         clip-rule="evenodd"
         id="path40" />
    </clipPath>
  </defs>
  <g
     id="g1">
    <path
       id="path1"
       d="M 0,0 H 233 V 226 H 0 Z"
       style="fill:#ffffff;fill-opacity:1;fill-rule:nonzero;stroke:none"
       clip-path="url(#clipPath2)" />
    <path
       id="path3"
       d="m 1910.5,6780 h 15 c 0.3314,0 0.6501,0.064 0.9564,0.1899 0.3063,0.1265 0.5767,0.3072 0.8112,0.5415 0.2344,0.2339 0.415,0.5044 0.5418,0.8106 0.127,0.3066 0.1905,0.626 0.1906,0.958 v 17 c -10e-5,0.3311 -0.064,0.6494 -0.1906,0.9556 -0.1268,0.3061 -0.3074,0.5766 -0.5418,0.8115 -0.2345,0.2344 -0.5049,0.415 -0.8112,0.542 -0.3063,0.1269 -0.625,0.1904 -0.9564,0.1909 h -15 c -0.3317,-5e-4 -0.6506,-0.064 -0.9569,-0.1909 -0.3063,-0.127 -0.5767,-0.3076 -0.811,-0.542 -0.2345,-0.2349 -0.4152,-0.5054 -0.542,-0.8115 -0.1269,-0.3062 -0.1902,-0.6245 -0.1901,-0.9556 v -17 c -10e-5,-0.332 0.063,-0.6514 0.1901,-0.958 0.1268,-0.3062 0.3075,-0.5767 0.542,-0.8106 0.2343,-0.2343 0.5047,-0.415 0.811,-0.5415 0.3063,-0.1264 0.6252,-0.1899 0.9569,-0.1899 z"
       style="fill:#ffffff;fill-opacity:1;fill-rule:nonzero;stroke:#000000;stroke-width:1;stroke-linecap:butt;stroke-linejoin:miter;stroke-miterlimit:10;stroke-dasharray:none;stroke-opacity:1"
       transform="matrix(0.9428078,0,0,0.9428078,-1769.5354,-6382.6948)"
       clip-path="url(#clipPath4)" />
    <text
       id="text4"
       xml:space="preserve"
       transform="translate(49.602518,24.146099)"
       clip-path="url(#clipPath5)"><tspan
         id="tspan4"
         style="font-variant:normal;font-weight:normal;font-size:11.31px;font-family:Arial;writing-mode:lr-tb;fill:#000000;fill-opacity:1;fill-rule:nonzero;stroke:none"
         x="0"
         y="0">a:Integer</tspan></text>
    <path
       id="path6"
       d="m 1907,6800 h 22 v 3 h -22 z"
       style="fill:#ffffff;fill-opacity:1;fill-rule:nonzero;stroke:none"
       transform="matrix(0.9428078,0,0,0.9428078,-1769.5354,-6382.6948)"
       clip-path="url(#clipPath7)" />
    <path
       id="path8"
       d="m 1918.04,6780 -0.07,10 0.05,7.7598"
       style="fill:none;stroke:#000000;stroke-width:1;stroke-linecap:butt;stroke-linejoin:miter;stroke-miterlimit:10;stroke-dasharray:none;stroke-opacity:1"
       transform="matrix(0.9428078,0,0,0.9428078,-1769.5354,-6382.6948)"
       clip-path="url(#clipPath9)" />
    <path
       id="path10"
       d="m 1914.48,6791.9102 3.55,6.9697 3.45,-7.02"
       style="fill:none;stroke:#000000;stroke-width:1;stroke-linecap:butt;stroke-linejoin:miter;stroke-miterlimit:10;stroke-dasharray:none;stroke-opacity:1"
       transform="matrix(0.9428078,0,0,0.9428078,-1769.5354,-6382.6948)"
       clip-path="url(#clipPath11)" />
    <path
       id="path12"
       d="m 2053.5,6976 h 15 c 0.3313,0 0.6501,0.064 0.9565,0.1899 0.3062,0.1265 0.5765,0.3072 0.8111,0.542 0.2344,0.2339 0.415,0.5044 0.542,0.8111 0.1267,0.3061 0.1902,0.6255 0.1904,0.957 v 17 c -2e-4,0.3311 -0.064,0.6499 -0.1904,0.9561 -0.127,0.3061 -0.3076,0.5761 -0.542,0.811 -0.2346,0.2344 -0.5049,0.415 -0.8111,0.542 -0.3064,0.1264 -0.6252,0.1904 -0.9565,0.1909 h -15 c -0.3315,-5e-4 -0.6506,-0.065 -0.957,-0.1909 -0.3064,-0.127 -0.5767,-0.3076 -0.8111,-0.542 -0.2346,-0.2349 -0.4152,-0.5049 -0.542,-0.811 -0.1267,-0.3062 -0.1901,-0.625 -0.1899,-0.9561 v -17 c -2e-4,-0.3315 0.063,-0.6509 0.1899,-0.957 0.1268,-0.3067 0.3074,-0.5772 0.542,-0.8111 0.2344,-0.2348 0.5047,-0.4155 0.8111,-0.5424 0.3064,-0.1265 0.6255,-0.1895 0.957,-0.1895 z"
       style="fill:#ffffff;fill-opacity:1;fill-rule:nonzero;stroke:#000000;stroke-width:1;stroke-linecap:butt;stroke-linejoin:miter;stroke-miterlimit:10;stroke-dasharray:none;stroke-opacity:1"
       transform="matrix(0.9428078,0,0,0.9428078,-1769.5354,-6382.6948)"
       clip-path="url(#clipPath13)" />
    <text
       id="text13"
       xml:space="preserve"
       transform="translate(184.43061,208.94299)"
       clip-path="url(#clipPath14)"><tspan
         id="tspan13"
         style="font-variant:normal;font-weight:normal;font-size:11.31px;font-family:Arial;writing-mode:lr-tb;fill:#000000;fill-opacity:1;fill-rule:nonzero;stroke:none"
         x="0"
         y="0">b:Integer</tspan></text>
    <path
       id="path15"
       d="m 2050,6975 h 22 v 3 h -22 z"
       style="fill:#ffffff;fill-opacity:1;fill-rule:nonzero;stroke:none"
       transform="matrix(0.9428078,0,0,0.9428078,-1769.5354,-6382.6948)"
       clip-path="url(#clipPath16)" />
    <path
       id="path17"
       d="m 2061.04,6978 -0.07,10 0.05,7.7598"
       style="fill:none;stroke:#000000;stroke-width:1;stroke-linecap:butt;stroke-linejoin:miter;stroke-miterlimit:10;stroke-dasharray:none;stroke-opacity:1"
       transform="matrix(0.9428078,0,0,0.9428078,-1769.5354,-6382.6948)"
       clip-path="url(#clipPath18)" />
    <path
       id="path19"
       d="m 2057.48,6989.9102 3.55,6.9697 3.45,-7.02"
       style="fill:none;stroke:#000000;stroke-width:1;stroke-linecap:butt;stroke-linejoin:miter;stroke-miterlimit:10;stroke-dasharray:none;stroke-opacity:1"
       transform="matrix(0.9428078,0,0,0.9428078,-1769.5354,-6382.6948)"
       clip-path="url(#clipPath20)" />
    <path
       id="path21"
       d="m 2110,6850 v -45 c 0,-3.3335 -1.6667,-5 -5,-5 h -220 c -3.3334,0 -5,1.6665 -5,5 v 45"
       style="fill:#ffffff;fill-opacity:1;fill-rule:nonzero;stroke:#000000;stroke-width:1;stroke-linecap:butt;stroke-linejoin:miter;stroke-miterlimit:10;stroke-dasharray:none;stroke-opacity:1"
       transform="matrix(0.9428078,0,0,0.9428078,-1769.5354,-6382.6948)"
       clip-path="url(#clipPath22)" />
    <path
       id="path23"
       d="m 1880,6850 v 123 c 0,3.3335 1.6666,5 5,5 h 220 c 3.3333,0 5,-1.6665 5,-5 v -123"
       style="fill:none;stroke:#000000;stroke-width:1;stroke-linecap:butt;stroke-linejoin:miter;stroke-miterlimit:10;stroke-dasharray:none;stroke-opacity:1"
       transform="matrix(0.9428078,0,0,0.9428078,-1769.5354,-6382.6948)"
       clip-path="url(#clipPath24)" />
    <path
       id="path25"
       d="m 1880,6850 h 230"
       style="fill:none;stroke:#000000;stroke-width:1;stroke-linecap:butt;stroke-linejoin:miter;stroke-miterlimit:10;stroke-dasharray:none;stroke-opacity:1"
       transform="matrix(0.9428078,0,0,0.9428078,-1769.5354,-6382.6948)"
       clip-path="url(#clipPath26)" />
    <text
       id="text26"
       xml:space="preserve"
       transform="matrix(0.9428078,0,0,0.9428078,99.198094,48.668682)"
       clip-path="url(#clipPath27)"><tspan
         id="tspan26"
         style="font-variant:normal;font-weight:normal;font-size:16px;font-family:Arial;writing-mode:lr-tb;fill:#000000;fill-opacity:1;fill-rule:nonzero;stroke:none"
         x="0"
         y="0">«if»</tspan></text>
    <text
       id="text27"
       xml:space="preserve"
       transform="matrix(0.9428078,0,0,0.9428078,54.768276,66.582031)"
       clip-path="url(#clipPath28)"><tspan
         id="tspan27"
         style="font-variant:normal;font-weight:normal;font-size:16px;font-family:Arial;writing-mode:lr-tb;fill:#000000;fill-opacity:1;fill-rule:nonzero;stroke:none"
         x="0"
         y="0">ifThenElseAction</tspan></text>
    <text
       id="text28"
       xml:space="preserve"
       transform="matrix(0.9428078,0,0,0.9428078,83.847957,88.26661)"
       clip-path="url(#clipPath29)"><tspan
         id="tspan28"
         style="font-style:italic;font-variant:normal;font-weight:normal;font-size:12px;font-family:Arial;writing-mode:lr-tb;fill:#000000;fill-opacity:1;fill-rule:nonzero;stroke:none"
         x="0"
         y="0">if condition</tspan></text>
    <text
       id="text29"
       xml:space="preserve"
       transform="matrix(0.9428078,0,0,0.9428078,8.1287059,107.12277)"
       clip-path="url(#clipPath30)"><tspan
         id="tspan29"
         style="font-variant:normal;font-weight:normal;font-size:12px;font-family:Arial;writing-mode:lr-tb;fill:#000000;fill-opacity:1;fill-rule:nonzero;stroke:none"
         x="0"
         y="0">a &gt;= 20</tspan></text>
    <path
       id="path31"
       d="m 1880,6892 h 230"
       style="fill:none;stroke:#000000;stroke-width:1;stroke-linecap:butt;stroke-linejoin:miter;stroke-miterlimit:10;stroke-dasharray:none;stroke-opacity:1"
       transform="matrix(0.9428078,0,0,0.9428078,-1769.5354,-6382.6948)"
       clip-path="url(#clipPath32)" />
    <text
       id="text32"
       xml:space="preserve"
       transform="translate(86.040016,130.69299)"
       clip-path="url(#clipPath33)"><tspan
         id="tspan32"
         style="font-style:italic;font-variant:normal;font-weight:normal;font-size:11.31px;font-family:Arial;writing-mode:lr-tb;fill:#000000;fill-opacity:1;fill-rule:nonzero;stroke:none"
         x="0"
         y="0">then body</tspan></text>
    <text
       id="text33"
       xml:space="preserve"
       transform="matrix(0.9428078,0,0,0.9428078,8.1287059,148.60631)"
       clip-path="url(#clipPath34)"><tspan
         id="tspan33"
         style="font-variant:normal;font-weight:700;font-size:12px;font-family:Arial;writing-mode:lr-tb;fill:#000000;fill-opacity:1;fill-rule:nonzero;stroke:none"
         x="0"
         y="0">assign</tspan></text>
    <text
       id="text34"
       xml:space="preserve"
       transform="matrix(0.9428078,0,0,0.9428078,43.97011,148.60631)"
       clip-path="url(#clipPath35)"><tspan
         id="tspan34"
         style="font-variant:normal;font-weight:normal;font-size:12px;font-family:Arial;writing-mode:lr-tb;fill:#000000;fill-opacity:1;fill-rule:nonzero;stroke:none"
         x="0"
         y="0"> b := 100</tspan></text>
    <path
       id="path36"
       d="m 1880,6936 h 230"
       style="fill:none;stroke:#000000;stroke-width:1;stroke-linecap:butt;stroke-linejoin:miter;stroke-miterlimit:10;stroke-dasharray:none;stroke-opacity:1"
       transform="matrix(0.9428078,0,0,0.9428078,-1769.5354,-6382.6948)"
       clip-path="url(#clipPath37)" />
    <text
       id="text37"
       xml:space="preserve"
       transform="translate(86.680616,172.16169)"
       clip-path="url(#clipPath38)"><tspan
         id="tspan37"
         style="font-style:italic;font-variant:normal;font-weight:normal;font-size:11.31px;font-family:Arial;writing-mode:lr-tb;fill:#000000;fill-opacity:1;fill-rule:nonzero;stroke:none"
         x="0"
         y="0">else body</tspan></text>
    <text
       id="text38"
       xml:space="preserve"
       transform="matrix(0.9428078,0,0,0.9428078,8.1287059,190.08985)"
       clip-path="url(#clipPath39)"><tspan
         id="tspan38"
         style="font-variant:normal;font-weight:700;font-size:12px;font-family:Arial;writing-mode:lr-tb;fill:#000000;fill-opacity:1;fill-rule:nonzero;stroke:none"
         x="0"
         y="0">assign</tspan></text>
    <text
       id="text39"
       xml:space="preserve"
       transform="matrix(0.9428078,0,0,0.9428078,43.97011,190.08985)"
       clip-path="url(#clipPath40)"><tspan
         id="tspan39"
         style="font-variant:normal;font-weight:normal;font-size:12px;font-family:Arial;writing-mode:lr-tb;fill:#000000;fill-opacity:1;fill-rule:nonzero;stroke:none"
         x="0"
         y="0"> b := 0</tspan></text>
  </g>
</svg>
