<?xml version="1.0" encoding="UTF-8" standalone="no"?>
<!-- Created with Inkscape (http://www.inkscape.org/) -->

<svg
   version="1.1"
   id="svg1"
   width="155.84"
   height="137.28"
   viewBox="0 0 155.84 137.28"
   xmlns="http://www.w3.org/2000/svg"
   xmlns:svg="http://www.w3.org/2000/svg">
  <defs
     id="defs1">
    <clipPath
       clipPathUnits="userSpaceOnUse"
       id="clipPath2">
      <path
         d="M 0,0 H 488 V 429.00391 H 0 Z"
         transform="scale(0.31999999)"
         clip-rule="evenodd"
         id="path2" />
    </clipPath>
    <clipPath
       clipPathUnits="userSpaceOnUse"
       id="clipPath4">
      <path
         d="M 3.125,3.125 H 487.5 v 425 H 3.125 Z"
         transform="matrix(0.34065602,0,0,0.34065602,490.86582,6016.8717)"
         clip-rule="evenodd"
         id="path4" />
    </clipPath>
    <clipPath
       clipPathUnits="userSpaceOnUse"
       id="clipPath5">
      <path
         d="M 3.125,3.125 H 487.5 v 425 H 3.125 Z"
         transform="matrix(0.34065602,0,0,0.34065602,-52.884176,-18.628927)"
         clip-rule="evenodd"
         id="path5" />
    </clipPath>
    <clipPath
       clipPathUnits="userSpaceOnUse"
       id="clipPath6">
      <path
         d="M 3.125,3.125 H 487.5 v 425 H 3.125 Z"
         transform="matrix(0.34065602,0,0,0.34065602,-24.431055,-38.628927)"
         clip-rule="evenodd"
         id="path6" />
    </clipPath>
    <clipPath
       clipPathUnits="userSpaceOnUse"
       id="clipPath8">
      <path
         d="M 3.125,3.125 H 487.5 v 425 H 3.125 Z"
         transform="matrix(0.34065602,0,0,0.34065602,490.86582,6016.8717)"
         clip-rule="evenodd"
         id="path8" />
    </clipPath>
    <clipPath
       clipPathUnits="userSpaceOnUse"
       id="clipPath9">
      <path
         d="M 3.125,3.125 H 487.5 v 425 H 3.125 Z"
         transform="matrix(0.34065602,0,0,0.34065602,-52.884176,-118.62893)"
         clip-rule="evenodd"
         id="path9" />
    </clipPath>
    <clipPath
       clipPathUnits="userSpaceOnUse"
       id="clipPath10">
      <path
         d="M 3.125,3.125 H 487.5 v 425 H 3.125 Z"
         transform="matrix(0.34065602,0,0,0.34065602,-24.431055,-138.62893)"
         clip-rule="evenodd"
         id="path10" />
    </clipPath>
    <clipPath
       clipPathUnits="userSpaceOnUse"
       id="clipPath12">
      <path
         d="M 3.125,3.125 H 487.5 v 425 H 3.125 Z"
         transform="matrix(0.34065602,0,0,0.34065602,490.86582,6016.8717)"
         clip-rule="evenodd"
         id="path12" />
    </clipPath>
    <clipPath
       clipPathUnits="userSpaceOnUse"
       id="clipPath14">
      <path
         d="M 3.125,3.125 H 487.5 v 425 H 3.125 Z"
         transform="matrix(0.34065602,0,0,0.34065602,490.86582,6016.8717)"
         clip-rule="evenodd"
         id="path14" />
    </clipPath>
  </defs>
  <g
     id="g1">
    <path
       id="path1"
       d="M 0,0 H 156 V 137 H 0 Z"
       style="fill:#ffffff;fill-opacity:1;fill-rule:nonzero;stroke:none"
       clip-path="url(#clipPath2)" />
    <path
       id="path3"
       d="m 502,6020 h 144 c 0.52527,5e-4 1.04547,0.052 1.56061,0.1538 0.5152,0.1021 1.01544,0.2534 1.50073,0.4541 0.48529,0.2007 0.94629,0.4473 1.38306,0.7393 0.43676,0.2924 0.84088,0.624 1.21234,0.9956 0.3714,0.3716 0.70306,0.7754 0.99487,1.2119 0.29187,0.4365 0.53833,0.8974 0.73932,1.3833 0.20105,0.4853 0.35284,0.9858 0.45532,1.501 0.10248,0.5151 0.15375,1.0356 0.15375,1.561 v 24 c 0,0.5249 -0.0513,1.0449 -0.15375,1.5601 -0.10248,0.5151 -0.25427,1.0151 -0.45532,1.5004 -0.20099,0.4854 -0.44745,0.9463 -0.73932,1.3833 -0.29181,0.4366 -0.62347,0.8409 -0.99487,1.2125 -0.37146,0.371 -0.77558,0.7026 -1.21234,0.9946 -0.43677,0.2915 -0.89777,0.5381 -1.38306,0.7387 -0.48529,0.2007 -0.98553,0.3531 -1.50073,0.4561 C 647.04547,6059.9487 646.52527,6060 646,6060 H 502 c -0.5253,0 -1.04556,-0.051 -1.56076,-0.1538 -0.5152,-0.1035 -1.01544,-0.2559 -1.50073,-0.4566 -0.48532,-0.2006 -0.94635,-0.4472 -1.38312,-0.7387 -0.43677,-0.292 -0.84085,-0.6236 -1.21228,-0.9946 -0.37143,-0.3716 -0.7031,-0.7759 -0.99493,-1.2125 -0.29184,-0.437 -0.53827,-0.8979 -0.73926,-1.3833 -0.20102,-0.4853 -0.35276,-0.9853 -0.45523,-1.5004 C 494.05124,6053.0449 494,6052.5249 494,6052 v -24 c 0,-0.5254 0.0512,-1.0459 0.15369,-1.561 0.10247,-0.5152 0.25421,-1.0157 0.45523,-1.501 0.20099,-0.4859 0.44742,-0.9468 0.73926,-1.3833 0.29183,-0.4365 0.6235,-0.8403 0.99493,-1.2119 0.37143,-0.3716 0.77551,-0.7032 1.21228,-0.9951 0.43674,-0.2925 0.89777,-0.5391 1.38309,-0.7398 0.48532,-0.2007 0.98556,-0.352 1.50076,-0.4541 0.5152,-0.102 1.03546,-0.1533 1.56076,-0.1538 z"
       style="fill:#ffffff;fill-opacity:1;fill-rule:nonzero;stroke:#000000;stroke-width:1;stroke-linecap:butt;stroke-linejoin:miter;stroke-miterlimit:10;stroke-dasharray:none;stroke-opacity:1"
       transform="matrix(0.93936396,0,0,0.93936396,-461.10166,-5652.0324)"
       clip-path="url(#clipPath4)" />
    <text
       id="text4"
       xml:space="preserve"
       transform="matrix(0.93936396,0,0,0.93936396,49.677489,17.499343)"
       clip-path="url(#clipPath5)"><tspan
         id="tspan4"
         style="font-variant:normal;font-weight:normal;font-size:16px;font-family:Arial;writing-mode:lr-tb;fill:#000000;fill-opacity:1;fill-rule:nonzero;stroke:none"
         x="0"
         y="0">«action»</tspan></text>
    <text
       id="text5"
       xml:space="preserve"
       transform="matrix(0.93936396,0,0,0.93936396,22.949653,36.286622)"
       clip-path="url(#clipPath6)"><tspan
         id="tspan5"
         style="font-variant:normal;font-weight:normal;font-size:16px;font-family:Arial;writing-mode:lr-tb;fill:#000000;fill-opacity:1;fill-rule:nonzero;stroke:none"
         x="0"
         dx="0 0 0 0 0 0 0 0 0 0 -0.8828122"
         y="0">action1 : Action1</tspan></text>
    <path
       id="path7"
       d="m 502,6120 h 144 c 0.52527,0 1.04547,0.051 1.56061,0.1538 0.5152,0.1021 1.01544,0.2539 1.50073,0.4546 0.48529,0.2012 0.94629,0.4478 1.38306,0.7397 0.43676,0.2915 0.84088,0.6236 1.21234,0.9952 0.3714,0.3711 0.70306,0.7754 0.99487,1.2124 0.29187,0.4365 0.53833,0.8974 0.73932,1.3828 0.20105,0.4853 0.35284,0.9853 0.45532,1.5005 0.10248,0.5151 0.15375,1.0356 0.15375,1.561 v 24 c 0,0.5249 -0.0513,1.0449 -0.15375,1.5601 -0.10248,0.5151 -0.25427,1.0156 -0.45532,1.5004 -0.20099,0.4849 -0.44745,0.9458 -0.73932,1.3829 -0.29181,0.437 -0.62347,0.8413 -0.99487,1.2129 -0.37146,0.3715 -0.77558,0.7031 -1.21234,0.9951 -0.43677,0.2915 -0.89777,0.5376 -1.38306,0.7387 -0.48529,0.2012 -0.98553,0.3531 -1.50073,0.4556 -0.51514,0.1025 -1.03534,0.1538 -1.56061,0.1543 H 502 c -0.5253,-5e-4 -1.04556,-0.052 -1.56076,-0.1543 -0.5152,-0.1025 -1.01544,-0.2544 -1.50073,-0.4556 -0.48532,-0.2011 -0.94635,-0.4472 -1.38312,-0.7387 -0.43677,-0.292 -0.84085,-0.6236 -1.21228,-0.9951 -0.37143,-0.3716 -0.7031,-0.7759 -0.99493,-1.2129 -0.29184,-0.4371 -0.53827,-0.898 -0.73926,-1.3829 -0.20102,-0.4848 -0.35276,-0.9853 -0.45523,-1.5009 C 494.05124,6153.0449 494,6152.5249 494,6152 v -24 c 0,-0.5254 0.0512,-1.0459 0.15369,-1.561 0.10247,-0.5152 0.25421,-1.0152 0.45523,-1.5005 0.20099,-0.4854 0.44742,-0.9463 0.73926,-1.3828 0.29183,-0.437 0.6235,-0.8413 0.99493,-1.2124 0.37143,-0.3716 0.77551,-0.7037 1.21228,-0.9952 0.43674,-0.2919 0.89777,-0.5385 1.38309,-0.7397 0.48532,-0.2007 0.98556,-0.3525 1.50076,-0.4546 C 500.95444,6120.0513 501.4747,6120 502,6120 Z"
       style="fill:#ffffff;fill-opacity:1;fill-rule:nonzero;stroke:#000000;stroke-width:1;stroke-linecap:butt;stroke-linejoin:miter;stroke-miterlimit:10;stroke-dasharray:none;stroke-opacity:1"
       transform="matrix(0.93936396,0,0,0.93936396,-461.10166,-5652.0324)"
       clip-path="url(#clipPath8)" />
    <text
       id="text8"
       xml:space="preserve"
       transform="matrix(0.93936396,0,0,0.93936396,49.677489,111.43574)"
       clip-path="url(#clipPath9)"><tspan
         id="tspan8"
         style="font-variant:normal;font-weight:normal;font-size:16px;font-family:Arial;writing-mode:lr-tb;fill:#000000;fill-opacity:1;fill-rule:nonzero;stroke:none"
         x="0"
         y="0">«action»</tspan></text>
    <text
       id="text9"
       xml:space="preserve"
       transform="matrix(0.93936396,0,0,0.93936396,22.949653,130.22302)"
       clip-path="url(#clipPath10)"><tspan
         id="tspan9"
         style="font-variant:normal;font-weight:normal;font-size:16px;font-family:Arial;writing-mode:lr-tb;fill:#000000;fill-opacity:1;fill-rule:nonzero;stroke:none"
         x="0"
         dx="0 0 0 0 0 0 0 0 0 0 -0.8828122"
         y="0">action2 : Action2</tspan></text>
    <path
       id="path11"
       d="m 574.5,6060 v 3 h -1 v -3 m 1,6 v 3 h -1 v -3 m 1,6 v 3 h -1 v -3 m 1,6 v 3 h -1 v -3 m 1,6 v 3 h -1 v -3 m 1,6 v 3 h -1 v -3 m 1,6 v 3 h -1 v -3 m 1,6 v 3 h -1 v -3 m 1,6 v 3 h -1 v -3 m 1,6 v 3 h -1 v -3"
       style="fill:#000000;fill-opacity:1;fill-rule:nonzero;stroke:none"
       transform="matrix(0.93936396,0,0,0.93936396,-461.10166,-5652.0324)"
       clip-path="url(#clipPath12)" />
    <path
       id="path13"
       d="m 569.5,6109.8799 4.5,9 4.5,-9"
       style="fill:none;stroke:#000000;stroke-width:1;stroke-linecap:butt;stroke-linejoin:miter;stroke-miterlimit:10;stroke-dasharray:none;stroke-opacity:1"
       transform="matrix(0.93936396,0,0,0.93936396,-461.10166,-5652.0324)"
       clip-path="url(#clipPath14)" />
  </g>
</svg>
