<?xml version="1.0" encoding="UTF-8" standalone="no"?>
<!-- Created with Inkscape (http://www.inkscape.org/) -->

<svg
   version="1.1"
   id="svg1"
   width="155.84"
   height="40"
   viewBox="0 0 155.84 40"
   xmlns="http://www.w3.org/2000/svg"
   xmlns:svg="http://www.w3.org/2000/svg">
  <defs
     id="defs1">
    <clipPath
       clipPathUnits="userSpaceOnUse"
       id="clipPath2">
      <path
         d="M 0,0 H 488 V 125.97656 H 0 Z"
         transform="scale(0.31999999)"
         clip-rule="evenodd"
         id="path2" />
    </clipPath>
    <clipPath
       clipPathUnits="userSpaceOnUse"
       id="clipPath4">
      <path
         d="M 3.125,0 H 487.5 V 125.97656 H 3.125 Z"
         transform="matrix(0.34066536,0,0,0.34066536,556.86352,-959.99996)"
         clip-rule="evenodd"
         id="path4" />
    </clipPath>
    <clipPath
       clipPathUnits="userSpaceOnUse"
       id="clipPath5">
      <path
         d="M 3.125,0 H 487.5 V 125.97656 H 3.125 Z"
         transform="matrix(0.34066536,0,0,0.34066536,-52.886498,-16.500033)"
         clip-rule="evenodd"
         id="path5" />
    </clipPath>
    <clipPath
       clipPathUnits="userSpaceOnUse"
       id="clipPath6">
      <path
         d="M 3.125,0 H 487.5 V 125.97656 H 3.125 Z"
         transform="matrix(0.34066536,0,0,0.34066536,-11.980247,-36.500033)"
         clip-rule="evenodd"
         id="path6" />
    </clipPath>
  </defs>
  <g
     id="g1">
    <path
       id="path1"
       d="M 0,0 H 156 V 40 H 0 Z"
       style="fill:#ffffff;fill-opacity:1;fill-rule:nonzero;stroke:none"
       clip-path="url(#clipPath2)" />
    <path
       id="path3"
       d="m 568,-959 h 144 c 0.52533,6e-5 1.04553,0.0513 1.56073,0.15381 0.51514,0.10248 1.01538,0.25421 1.50067,0.45526 0.48529,0.20099 0.94629,0.44745 1.38312,0.73926 0.43671,0.29181 0.84082,0.62341 1.21234,0.99481 0.3714,0.37146 0.70306,0.77557 0.99493,1.21234 0.29175,0.43677 0.53815,0.89783 0.7392,1.38312 0.20099,0.48529 0.35278,0.98559 0.45526,1.50079 0.10248,0.5152 0.15375,1.0354 0.15375,1.56061 v 24 c 0,0.52533 -0.0513,1.04559 -0.15375,1.56079 -0.10248,0.51526 -0.25427,1.01556 -0.45526,1.50086 -0.20105,0.48529 -0.44751,0.94635 -0.73932,1.38311 -0.29181,0.43677 -0.62341,0.84082 -0.99481,1.21222 -0.37152,0.3714 -0.77563,0.70307 -1.21234,0.99488 -0.43683,0.2918 -0.89783,0.53826 -1.38312,0.73931 -0.48529,0.20099 -0.98553,0.35273 -1.50073,0.45514 C 713.04553,-919.05121 712.52533,-919 712,-919 H 568 c -0.52527,0 -1.04553,-0.0512 -1.56073,-0.15369 -0.5152,-0.10247 -1.01544,-0.25421 -1.50079,-0.4552 -0.48535,-0.20099 -0.94641,-0.44745 -1.38312,-0.73925 -0.43671,-0.29181 -0.84082,-0.62348 -1.21222,-0.99488 -0.37146,-0.3714 -0.70313,-0.77545 -0.995,-1.21228 -0.2918,-0.4367 -0.53826,-0.89776 -0.73925,-1.38312 -0.20099,-0.48529 -0.35273,-0.98553 -0.4552,-1.50073 C 560.05121,-925.95441 560,-926.47467 560,-927 v -24 c 0,-0.52521 0.0512,-1.04541 0.15369,-1.56055 0.10247,-0.51519 0.25421,-1.0155 0.4552,-1.50079 0.20099,-0.48529 0.44745,-0.94635 0.73925,-1.38318 0.29187,-0.43677 0.62354,-0.84088 0.995,-1.21234 0.3714,-0.3714 0.77551,-0.703 1.21222,-0.99481 0.43671,-0.29181 0.89777,-0.53827 1.38312,-0.73926 0.48535,-0.20105 0.98559,-0.35284 1.50079,-0.45532 0.5152,-0.10248 1.03546,-0.15369 1.56073,-0.15375 z"
       style="fill:#ffffff;fill-opacity:1;fill-rule:nonzero;stroke:#000000;stroke-width:1;stroke-linecap:butt;stroke-linejoin:miter;stroke-miterlimit:10;stroke-dasharray:none;stroke-opacity:1"
       transform="matrix(0.9393382,0,0,0.9393382,-523.08318,901.76463)"
       clip-path="url(#clipPath4)" />
    <text
       id="text4"
       xml:space="preserve"
       transform="matrix(0.9393382,0,0,0.9393382,49.678308,15.499111)"
       clip-path="url(#clipPath5)"><tspan
         id="tspan4"
         style="font-variant:normal;font-weight:normal;font-size:16px;font-family:Arial;writing-mode:lr-tb;fill:#000000;fill-opacity:1;fill-rule:nonzero;stroke:none"
         x="0"
         y="0">«action»</tspan></text>
    <text
       id="text5"
       xml:space="preserve"
       transform="matrix(0.9393382,0,0,0.9393382,11.253504,34.285875)"
       clip-path="url(#clipPath6)"><tspan
         id="tspan5"
         style="font-variant:normal;font-weight:normal;font-size:16px;font-family:Arial;writing-mode:lr-tb;fill:#000000;fill-opacity:1;fill-rule:nonzero;stroke:none"
         x="0"
         dx="0 0 0 0 0 0 0 0 0 0 -0.8828122"
         y="0">action1 : ActionDef1</tspan></text>
  </g>
</svg>
