<?xml version="1.0" encoding="UTF-8" standalone="no"?>
<!-- Created with Inkscape (http://www.inkscape.org/) -->

<svg
   version="1.1"
   id="svg1"
   width="224"
   height="630.71997"
   viewBox="0 0 224 630.71997"
   xmlns="http://www.w3.org/2000/svg"
   xmlns:svg="http://www.w3.org/2000/svg">
  <defs
     id="defs1">
    <clipPath
       clipPathUnits="userSpaceOnUse"
       id="clipPath2">
      <path
         d="M 0,0 H 699.02344 V 1970.9961 H 0 Z"
         transform="scale(0.31999999)"
         clip-rule="evenodd"
         id="path2" />
    </clipPath>
    <clipPath
       clipPathUnits="userSpaceOnUse"
       id="clipPath4">
      <path
         d="m 3.125,12.5 h 693.75 V 1959.375 H 3.125 Z"
         transform="matrix(0.33840377,0,0,0.33840377,1596.883,6793.7122)"
         clip-rule="evenodd"
         id="path4" />
    </clipPath>
    <clipPath
       clipPathUnits="userSpaceOnUse"
       id="clipPath6">
      <path
         d="m 3.125,12.5 h 693.75 V 1959.375 H 3.125 Z"
         transform="matrix(0.33840377,0,0,0.33840377,1596.883,6793.7122)"
         clip-rule="evenodd"
         id="path6" />
    </clipPath>
    <clipPath
       clipPathUnits="userSpaceOnUse"
       id="clipPath8">
      <path
         d="m 3.125,12.5 h 693.75 V 1959.375 H 3.125 Z"
         transform="matrix(0.33840377,0,0,0.33840377,1596.883,6793.7122)"
         clip-rule="evenodd"
         id="path8" />
    </clipPath>
    <clipPath
       clipPathUnits="userSpaceOnUse"
       id="clipPath9">
      <path
         d="m 3.125,12.5 h 693.75 V 1959.375 H 3.125 Z"
         transform="matrix(0.33840377,0,0,0.33840377,-87.86687,-27.787597)"
         clip-rule="evenodd"
         id="path9" />
    </clipPath>
    <clipPath
       clipPathUnits="userSpaceOnUse"
       id="clipPath10">
      <path
         d="m 3.125,12.5 h 693.75 V 1959.375 H 3.125 Z"
         transform="matrix(0.33840377,0,0,0.33840377,-58.523119,-46.787597)"
         clip-rule="evenodd"
         id="path10" />
    </clipPath>
    <clipPath
       clipPathUnits="userSpaceOnUse"
       id="clipPath11">
      <path
         d="m 273.6875,173.71875 h 147.75244 v 44.32617 H 273.6875 Z"
         transform="matrix(0.33840377,0,0,0.33840377,-92.929369,-69.787598)"
         clip-rule="evenodd"
         id="path11" />
    </clipPath>
    <clipPath
       clipPathUnits="userSpaceOnUse"
       id="clipPath12">
      <path
         d="M 25.463379,232.82031 H 182.08105 v 44.32617 H 25.463379 Z"
         transform="matrix(0.33840377,0,0,0.33840377,-8.6168696,-89.787598)"
         clip-rule="evenodd"
         id="path12" />
    </clipPath>
    <clipPath
       clipPathUnits="userSpaceOnUse"
       id="clipPath13">
      <path
         d="M 25.463379,291.92188 H 380.06934 v 44.32617 H 25.463379 Z"
         transform="matrix(0.33840377,0,0,0.33840377,-8.6168696,-109.7876)"
         clip-rule="evenodd"
         id="path13" />
    </clipPath>
    <clipPath
       clipPathUnits="userSpaceOnUse"
       id="clipPath14">
      <path
         d="M 25.463379,351.02344 H 182.08105 v 44.32422 H 25.463379 Z"
         transform="matrix(0.33840377,0,0,0.33840377,-8.6168696,-129.7876)"
         clip-rule="evenodd"
         id="path14" />
    </clipPath>
    <clipPath
       clipPathUnits="userSpaceOnUse"
       id="clipPath16">
      <path
         d="m 3.125,12.5 h 693.75 V 1959.375 H 3.125 Z"
         transform="matrix(0.33840377,0,0,0.33840377,1596.883,6793.7122)"
         clip-rule="evenodd"
         id="path16" />
    </clipPath>
    <clipPath
       clipPathUnits="userSpaceOnUse"
       id="clipPath17">
      <path
         d="M 19.553223,413.07813 H 675.57422 v 59.10156 H 19.553223 Z"
         transform="matrix(0.31999999,0,0,0.31999999,-84.426552,-146.36257)"
         clip-rule="evenodd"
         id="path17" />
    </clipPath>
    <clipPath
       clipPathUnits="userSpaceOnUse"
       id="clipPath19">
      <path
         d="m 3.125,12.5 h 693.75 V 1959.375 H 3.125 Z"
         transform="matrix(0.33840377,0,0,0.33840377,1596.883,6793.7122)"
         clip-rule="evenodd"
         id="path19" />
    </clipPath>
    <clipPath
       clipPathUnits="userSpaceOnUse"
       id="clipPath21">
      <path
         d="m 3.125,12.5 h 693.75 V 1959.375 H 3.125 Z"
         transform="matrix(0.33840377,0,0,0.33840377,1596.883,6793.7122)"
         clip-rule="evenodd"
         id="path21" />
    </clipPath>
    <clipPath
       clipPathUnits="userSpaceOnUse"
       id="clipPath23">
      <path
         d="m 3.125,12.5 h 693.75 V 1959.375 H 3.125 Z"
         transform="matrix(0.33840377,0,0,0.33840377,1596.883,6793.7122)"
         clip-rule="evenodd"
         id="path23" />
    </clipPath>
    <clipPath
       clipPathUnits="userSpaceOnUse"
       id="clipPath24">
      <path
         d="m 3.125,12.5 h 693.75 V 1959.375 H 3.125 Z"
         transform="matrix(0.33840377,0,0,0.33840377,-86.101269,-215.78759)"
         clip-rule="evenodd"
         id="path24" />
    </clipPath>
    <clipPath
       clipPathUnits="userSpaceOnUse"
       id="clipPath25">
      <path
         d="m 3.125,12.5 h 693.75 V 1959.375 H 3.125 Z"
         transform="matrix(0.33840377,0,0,0.33840377,-98.335669,-235.7876)"
         clip-rule="evenodd"
         id="path25" />
    </clipPath>
    <clipPath
       clipPathUnits="userSpaceOnUse"
       id="clipPath27">
      <path
         d="m 3.125,12.5 h 693.75 V 1959.375 H 3.125 Z"
         transform="matrix(0.33840377,0,0,0.33840377,1596.883,6793.7122)"
         clip-rule="evenodd"
         id="path27" />
    </clipPath>
    <clipPath
       clipPathUnits="userSpaceOnUse"
       id="clipPath29">
      <path
         d="m 3.125,12.5 h 693.75 V 1959.375 H 3.125 Z"
         transform="matrix(0.33840377,0,0,0.33840377,1596.883,6793.7122)"
         clip-rule="evenodd"
         id="path29" />
    </clipPath>
    <clipPath
       clipPathUnits="userSpaceOnUse"
       id="clipPath31">
      <path
         d="m 3.125,12.5 h 693.75 V 1959.375 H 3.125 Z"
         transform="matrix(0.33840377,0,0,0.33840377,1596.883,6793.7122)"
         clip-rule="evenodd"
         id="path31" />
    </clipPath>
    <clipPath
       clipPathUnits="userSpaceOnUse"
       id="clipPath33">
      <path
         d="m 3.125,12.5 h 693.75 V 1959.375 H 3.125 Z"
         transform="matrix(0.33840377,0,0,0.33840377,1596.883,6793.7122)"
         clip-rule="evenodd"
         id="path33" />
    </clipPath>
    <clipPath
       clipPathUnits="userSpaceOnUse"
       id="clipPath35">
      <path
         d="m 3.125,12.5 h 693.75 V 1959.375 H 3.125 Z"
         transform="matrix(0.33840377,0,0,0.33840377,1596.883,6793.7122)"
         clip-rule="evenodd"
         id="path35" />
    </clipPath>
    <clipPath
       clipPathUnits="userSpaceOnUse"
       id="clipPath37">
      <path
         d="m 3.125,12.5 h 693.75 V 1959.375 H 3.125 Z"
         transform="matrix(0.33840377,0,0,0.33840377,1596.883,6793.7122)"
         clip-rule="evenodd"
         id="path37" />
    </clipPath>
    <clipPath
       clipPathUnits="userSpaceOnUse"
       id="clipPath39">
      <path
         d="m 3.125,12.5 h 693.75 V 1959.375 H 3.125 Z"
         transform="matrix(0.33840377,0,0,0.33840377,1596.883,6793.7122)"
         clip-rule="evenodd"
         id="path39" />
    </clipPath>
    <clipPath
       clipPathUnits="userSpaceOnUse"
       id="clipPath41">
      <path
         d="m 3.125,12.5 h 693.75 V 1959.375 H 3.125 Z"
         transform="matrix(0.33840377,0,0,0.33840377,1596.883,6793.7122)"
         clip-rule="evenodd"
         id="path41" />
    </clipPath>
    <clipPath
       clipPathUnits="userSpaceOnUse"
       id="clipPath43">
      <path
         d="m 3.125,12.5 h 693.75 V 1959.375 H 3.125 Z"
         transform="matrix(0.33840377,0,0,0.33840377,1596.883,6793.7122)"
         clip-rule="evenodd"
         id="path43" />
    </clipPath>
    <clipPath
       clipPathUnits="userSpaceOnUse"
       id="clipPath45">
      <path
         d="m 3.125,12.5 h 693.75 V 1959.375 H 3.125 Z"
         transform="matrix(0.33840377,0,0,0.33840377,1596.883,6793.7122)"
         clip-rule="evenodd"
         id="path45" />
    </clipPath>
    <clipPath
       clipPathUnits="userSpaceOnUse"
       id="clipPath46">
      <path
         d="m 3.125,12.5 h 693.75 V 1959.375 H 3.125 Z"
         transform="matrix(0.33840377,0,0,0.33840377,-95.101269,-283.78759)"
         clip-rule="evenodd"
         id="path46" />
    </clipPath>
    <clipPath
       clipPathUnits="userSpaceOnUse"
       id="clipPath47">
      <path
         d="m 3.125,12.5 h 693.75 V 1959.375 H 3.125 Z"
         transform="matrix(0.33840377,0,0,0.33840377,-99.538769,-302.7876)"
         clip-rule="evenodd"
         id="path47" />
    </clipPath>
    <clipPath
       clipPathUnits="userSpaceOnUse"
       id="clipPath48">
      <path
         d="m 273.6875,930.21289 h 153.6626 v 44.32617 H 273.6875 Z"
         transform="matrix(0.33840377,0,0,0.33840377,-92.585669,-325.7876)"
         clip-rule="evenodd"
         id="path48" />
    </clipPath>
    <clipPath
       clipPathUnits="userSpaceOnUse"
       id="clipPath50">
      <path
         d="m 3.125,12.5 h 693.75 V 1959.375 H 3.125 Z"
         transform="matrix(0.33840377,0,0,0.33840377,1596.883,6793.7122)"
         clip-rule="evenodd"
         id="path50" />
    </clipPath>
    <clipPath
       clipPathUnits="userSpaceOnUse"
       id="clipPath52">
      <path
         d="m 3.125,12.5 h 693.75 V 1959.375 H 3.125 Z"
         transform="matrix(0.33840377,0,0,0.33840377,1596.883,6793.7122)"
         clip-rule="evenodd"
         id="path52" />
    </clipPath>
    <clipPath
       clipPathUnits="userSpaceOnUse"
       id="clipPath54">
      <path
         d="m 3.125,12.5 h 693.75 V 1959.375 H 3.125 Z"
         transform="matrix(0.33840377,0,0,0.33840377,1596.883,6793.7122)"
         clip-rule="evenodd"
         id="path54" />
    </clipPath>
    <clipPath
       clipPathUnits="userSpaceOnUse"
       id="clipPath55">
      <path
         d="m 3.125,12.5 h 693.75 V 1959.375 H 3.125 Z"
         transform="matrix(0.33840377,0,0,0.33840377,-88.101269,-398.78759)"
         clip-rule="evenodd"
         id="path55" />
    </clipPath>
    <clipPath
       clipPathUnits="userSpaceOnUse"
       id="clipPath56">
      <path
         d="m 3.125,12.5 h 693.75 V 1959.375 H 3.125 Z"
         transform="matrix(0.33840377,0,0,0.33840377,-93.210669,-418.7876)"
         clip-rule="evenodd"
         id="path56" />
    </clipPath>
    <clipPath
       clipPathUnits="userSpaceOnUse"
       id="clipPath58">
      <path
         d="m 3.125,12.5 h 693.75 V 1959.375 H 3.125 Z"
         transform="matrix(0.33840377,0,0,0.33840377,1596.883,6793.7122)"
         clip-rule="evenodd"
         id="path58" />
    </clipPath>
    <clipPath
       clipPathUnits="userSpaceOnUse"
       id="clipPath59">
      <path
         d="m 3.125,12.5 h 693.75 V 1959.375 H 3.125 Z"
         transform="matrix(0.33840377,0,0,0.33840377,-88.085669,-468.78759)"
         clip-rule="evenodd"
         id="path59" />
    </clipPath>
    <clipPath
       clipPathUnits="userSpaceOnUse"
       id="clipPath60">
      <path
         d="m 3.125,12.5 h 693.75 V 1959.375 H 3.125 Z"
         transform="matrix(0.33840377,0,0,0.33840377,-60.976249,-488.78759)"
         clip-rule="evenodd"
         id="path60" />
    </clipPath>
    <clipPath
       clipPathUnits="userSpaceOnUse"
       id="clipPath62">
      <path
         d="m 3.125,12.5 h 693.75 V 1959.375 H 3.125 Z"
         transform="matrix(0.33840377,0,0,0.33840377,1596.883,6793.7122)"
         clip-rule="evenodd"
         id="path62" />
    </clipPath>
    <clipPath
       clipPathUnits="userSpaceOnUse"
       id="clipPath64">
      <path
         d="m 3.125,12.5 h 693.75 V 1959.375 H 3.125 Z"
         transform="matrix(0.33840377,0,0,0.33840377,1596.883,6793.7122)"
         clip-rule="evenodd"
         id="path64" />
    </clipPath>
    <clipPath
       clipPathUnits="userSpaceOnUse"
       id="clipPath66">
      <path
         d="m 3.125,12.5 h 693.75 V 1959.375 H 3.125 Z"
         transform="matrix(0.33840377,0,0,0.33840377,1596.883,6793.7122)"
         clip-rule="evenodd"
         id="path66" />
    </clipPath>
    <clipPath
       clipPathUnits="userSpaceOnUse"
       id="clipPath68">
      <path
         d="m 3.125,12.5 h 693.75 V 1959.375 H 3.125 Z"
         transform="matrix(0.33840377,0,0,0.33840377,1596.883,6793.7122)"
         clip-rule="evenodd"
         id="path68" />
    </clipPath>
    <clipPath
       clipPathUnits="userSpaceOnUse"
       id="clipPath70">
      <path
         d="m 3.125,12.5 h 693.75 V 1959.375 H 3.125 Z"
         transform="matrix(0.33840377,0,0,0.33840377,1596.883,6793.7122)"
         clip-rule="evenodd"
         id="path70" />
    </clipPath>
    <clipPath
       clipPathUnits="userSpaceOnUse"
       id="clipPath72">
      <path
         d="m 3.125,12.5 h 693.75 V 1959.375 H 3.125 Z"
         transform="matrix(0.33840377,0,0,0.33840377,1596.883,6793.7122)"
         clip-rule="evenodd"
         id="path72" />
    </clipPath>
    <clipPath
       clipPathUnits="userSpaceOnUse"
       id="clipPath74">
      <path
         d="m 3.125,12.5 h 693.75 V 1959.375 H 3.125 Z"
         transform="matrix(0.33840377,0,0,0.33840377,1596.883,6793.7122)"
         clip-rule="evenodd"
         id="path74" />
    </clipPath>
    <clipPath
       clipPathUnits="userSpaceOnUse"
       id="clipPath76">
      <path
         d="m 3.125,12.5 h 693.75 V 1959.375 H 3.125 Z"
         transform="matrix(0.33840377,0,0,0.33840377,1596.883,6793.7122)"
         clip-rule="evenodd"
         id="path76" />
    </clipPath>
    <clipPath
       clipPathUnits="userSpaceOnUse"
       id="clipPath77">
      <path
         d="M 81.609375,1639.4238 H 619.42822 v 56.1465 H 81.609375 Z"
         transform="matrix(0.31999999,0,0,0.31999999,-77.004683,-537.67506)"
         clip-rule="evenodd"
         id="path77" />
    </clipPath>
    <clipPath
       clipPathUnits="userSpaceOnUse"
       id="clipPath78">
      <path
         d="M 87.519043,1698.5254 H 205.72119 v 44.3262 H 87.519043 Z"
         transform="matrix(0.33840377,0,0,0.33840377,-29.61687,-585.78759)"
         clip-rule="evenodd"
         id="path78" />
    </clipPath>
  </defs>
  <g
     id="g1">
    <path
       id="path1"
       d="M 0,0 H 224 V 631 H 0 Z"
       style="fill:#ffffff;fill-opacity:1;fill-rule:nonzero;stroke:none"
       clip-path="url(#clipPath2)" />
    <path
       id="path3"
       d="m 1830,6850 v -45 c 0,-3.3335 -1.6666,-5 -5,-5 h -220 c -3.3334,0 -5,1.6665 -5,5 v 45"
       style="fill:none;stroke:#000000;stroke-width:1;stroke-linecap:butt;stroke-linejoin:miter;stroke-miterlimit:10;stroke-dasharray:none;stroke-opacity:1"
       transform="matrix(0.9456159,0,0,0.9456159,-1510.038,-6424.2423)"
       clip-path="url(#clipPath4)" />
    <path
       id="path5"
       d="m 1600,6850 v 599 c 0,3.3335 1.6666,5 5,5 h 220 c 3.3334,0 5,-1.6665 5,-5 v -599"
       style="fill:none;stroke:#000000;stroke-width:1;stroke-linecap:butt;stroke-linejoin:miter;stroke-miterlimit:10;stroke-dasharray:none;stroke-opacity:1"
       transform="matrix(0.9456159,0,0,0.9456159,-1510.038,-6424.2423)"
       clip-path="url(#clipPath6)" />
    <path
       id="path7"
       d="m 1600,6850 h 230"
       style="fill:none;stroke:#000000;stroke-width:1;stroke-linecap:butt;stroke-linejoin:miter;stroke-miterlimit:10;stroke-dasharray:none;stroke-opacity:1"
       transform="matrix(0.9456159,0,0,0.9456159,-1510.038,-6424.2423)"
       clip-path="url(#clipPath8)" />
    <text
       id="text8"
       xml:space="preserve"
       transform="matrix(0.9456159,0,0,0.9456159,83.088309,26.276394)"
       clip-path="url(#clipPath9)"><tspan
         id="tspan8"
         style="font-variant:normal;font-weight:normal;font-size:16px;font-family:Arial;writing-mode:lr-tb;fill:#000000;fill-opacity:1;fill-rule:nonzero;stroke:none"
         x="0"
         y="0">«action»</tspan></text>
    <text
       id="text9"
       xml:space="preserve"
       transform="matrix(0.9456159,0,0,0.9456159,55.340392,44.243096)"
       clip-path="url(#clipPath10)"><tspan
         id="tspan9"
         style="font-variant:normal;font-weight:normal;font-size:16px;font-family:Arial;writing-mode:lr-tb;fill:#000000;fill-opacity:1;fill-rule:nonzero;stroke:none"
         x="0"
         y="0">actionWithLoop1</tspan></text>
    <text
       id="text10"
       xml:space="preserve"
       transform="matrix(0.9456159,0,0,0.9456159,87.875489,65.992262)"
       clip-path="url(#clipPath11)"><tspan
         id="tspan10"
         style="font-style:italic;font-variant:normal;font-weight:normal;font-size:12px;font-family:Arial;writing-mode:lr-tb;fill:#000000;fill-opacity:1;fill-rule:nonzero;stroke:none"
         x="0"
         y="0">attributes</tspan></text>
    <text
       id="text11"
       xml:space="preserve"
       transform="matrix(0.9456159,0,0,0.9456159,8.1482489,84.90458)"
       clip-path="url(#clipPath12)"><tspan
         id="tspan11"
         style="font-variant:normal;font-weight:normal;font-size:12px;font-family:Arial;writing-mode:lr-tb;fill:#000000;fill-opacity:1;fill-rule:nonzero;stroke:none"
         x="0"
         y="0">x : Integer</tspan></text>
    <text
       id="text12"
       xml:space="preserve"
       transform="matrix(0.9456159,0,0,0.9456159,8.1482489,103.8169)"
       clip-path="url(#clipPath13)"><tspan
         id="tspan12"
         style="font-variant:normal;font-weight:normal;font-size:12px;font-family:Arial;writing-mode:lr-tb;fill:#000000;fill-opacity:1;fill-rule:nonzero;stroke:none"
         x="0"
         y="0">increment : Integer = 1</tspan></text>
    <text
       id="text13"
       xml:space="preserve"
       transform="matrix(0.9456159,0,0,0.9456159,8.1482489,122.72922)"
       clip-path="url(#clipPath14)"><tspan
         id="tspan13"
         style="font-variant:normal;font-weight:normal;font-size:12px;font-family:Arial;writing-mode:lr-tb;fill:#000000;fill-opacity:1;fill-rule:nonzero;stroke:none"
         x="0"
         y="0">y : Integer</tspan></text>
    <path
       id="path15"
       d="m 1600,6932 h 230"
       style="fill:none;stroke:#000000;stroke-width:1;stroke-linecap:butt;stroke-linejoin:miter;stroke-miterlimit:10;stroke-dasharray:none;stroke-opacity:1"
       transform="matrix(0.9456159,0,0,0.9456159,-1510.038,-6424.2423)"
       clip-path="url(#clipPath16)" />
    <text
       id="text16"
       xml:space="preserve"
       transform="translate(84.426552,146.36257)"
       clip-path="url(#clipPath17)"><tspan
         id="tspan16"
         style="font-style:italic;font-variant:normal;font-weight:normal;font-size:11.34px;font-family:Arial;writing-mode:lr-tb;fill:#000000;fill-opacity:1;fill-rule:nonzero;stroke:none"
         x="0"
         y="0">action flow</tspan></text>
    <path
       id="path18"
       d="m 1724.5,7423.0801 c 0,0.5908 -0.058,1.1758 -0.173,1.7549 -0.1152,0.5796 -0.286,1.1425 -0.5122,1.6884 -0.2262,0.5459 -0.5034,1.0645 -0.8316,1.5562 -0.3283,0.4912 -0.7015,0.9458 -1.1193,1.3642 -0.418,0.4175 -0.8727,0.7906 -1.364,1.1192 -0.4914,0.3276 -1.01,0.605 -1.5559,0.831 -0.5461,0.2261 -1.1088,0.397 -1.6883,0.5123 -0.5796,0.1152 -1.1648,0.1733 -1.7557,0.1738 -0.5909,-5e-4 -1.1763,-0.059 -1.756,-0.1734 -0.5796,-0.1157 -1.1423,-0.2866 -1.6883,-0.5127 -0.5461,-0.226 -1.0646,-0.5034 -1.5559,-0.8315 -0.4914,-0.3281 -0.946,-0.7012 -1.3638,-1.1187 -0.4179,-0.4184 -0.791,-0.873 -1.1193,-1.3642 -0.3283,-0.4917 -0.6056,-1.0103 -0.8318,-1.5562 -0.2262,-0.5459 -0.3969,-1.1084 -0.5122,-1.688 -0.1152,-0.5795 -0.1728,-1.1645 -0.1727,-1.7553 -10e-5,-0.5913 0.057,-1.1763 0.1729,-1.7559 0.1151,-0.5796 0.2858,-1.1426 0.512,-1.6889 0.2262,-0.5464 0.5035,-1.065 0.8318,-1.5562 0.3283,-0.4917 0.7014,-0.9463 1.1193,-1.3638 0.4178,-0.4174 0.8724,-0.791 1.3638,-1.1196 0.4913,-0.3281 1.0098,-0.605 1.5559,-0.8311 0.546,-0.226 1.1087,-0.3969 1.6883,-0.5117 0.5797,-0.1152 1.1651,-0.1728 1.756,-0.1728 0.5909,0 1.1761,0.058 1.7557,0.1728 0.5795,0.1148 1.1422,0.2857 1.6881,0.5117 0.5461,0.2261 1.0647,0.503 1.5561,0.8311 0.4913,0.3286 0.946,0.7022 1.364,1.1196 0.4178,0.4175 0.791,0.8721 1.1193,1.3638 0.3282,0.4912 0.6054,1.0098 0.8316,1.5562 0.2262,0.5463 0.397,1.1093 0.5122,1.6889 0.1154,0.5796 0.173,1.1646 0.173,1.7559 z"
       style="fill:#000000;fill-opacity:1;fill-rule:nonzero;stroke:#000000;stroke-width:1;stroke-linecap:butt;stroke-linejoin:miter;stroke-miterlimit:10;stroke-dasharray:none;stroke-opacity:1"
       transform="matrix(0.9456159,0,0,0.9456159,-1510.038,-6424.2423)"
       clip-path="url(#clipPath19)" />
    <path
       id="path20"
       d="m 1728.5,7423.0801 c -10e-5,0.853 -0.083,1.6982 -0.25,2.5356 -0.1666,0.8369 -0.4132,1.6499 -0.7397,2.4385 -0.3268,0.7886 -0.7272,1.5376 -1.2015,2.2471 -0.4742,0.7099 -1.0131,1.3667 -1.6167,1.9707 -0.6036,0.6035 -1.2603,1.1426 -1.9701,1.6167 -0.7097,0.4741 -1.4588,0.874 -2.2474,1.2007 -0.7886,0.3266 -1.6014,0.5737 -2.4386,0.7402 -0.8371,0.1665 -1.6825,0.25 -2.536,0.2505 -0.8536,-5e-4 -1.699,-0.084 -2.5363,-0.2505 -0.8372,-0.1665 -1.6501,-0.4136 -2.4388,-0.7402 -0.7887,-0.3267 -1.5378,-0.7271 -2.2477,-1.2012 -0.7098,-0.4741 -1.3664,-1.0127 -1.9698,-1.6162 -0.6037,-0.604 -1.1426,-1.2608 -1.6168,-1.9702 -0.4742,-0.71 -0.8746,-1.459 -1.2012,-2.2476 -0.3267,-0.7886 -0.5733,-1.6016 -0.7398,-2.4385 -0.1666,-0.8374 -0.2497,-1.6826 -0.2496,-2.5356 -10e-5,-0.854 0.083,-1.6997 0.2495,-2.5371 0.1666,-0.8369 0.4132,-1.6499 0.7399,-2.439 0.3266,-0.7886 0.727,-1.5381 1.2012,-2.2476 0.4742,-0.7094 1.0131,-1.3662 1.6168,-1.9692 0.6034,-0.6035 1.26,-1.1426 1.9698,-1.6172 0.7097,-0.4741 1.4589,-0.8745 2.2476,-1.2012 0.7887,-0.3266 1.6015,-0.5727 2.4388,-0.7392 0.8373,-0.1665 1.6828,-0.2495 2.5364,-0.2495 0.8535,0 1.6989,0.083 2.536,0.2495 0.8372,0.1665 1.65,0.4126 2.4387,0.7392 0.7885,0.3267 1.5376,0.7271 2.2475,1.2012 0.7096,0.4746 1.3663,1.0137 1.9699,1.6172 0.6036,0.603 1.1424,1.2598 1.6166,1.9692 0.4743,0.7095 0.8746,1.459 1.2014,2.2476 0.3267,0.7891 0.5733,1.6021 0.7399,2.439 0.1666,0.8374 0.2499,1.6831 0.25,2.5371 z"
       style="fill:none;stroke:#000000;stroke-width:1;stroke-linecap:butt;stroke-linejoin:miter;stroke-miterlimit:10;stroke-dasharray:none;stroke-opacity:1"
       transform="matrix(0.9456159,0,0,0.9456159,-1510.038,-6424.2423)"
       clip-path="url(#clipPath21)" />
    <path
       id="path22"
       d="m 1642.86,6993.5698 h 144.29 c 0.663,0 1.3007,0.1265 1.9134,0.3799 0.6124,0.2534 1.1532,0.6148 1.622,1.084 0.4689,0.4683 0.8301,1.0093 1.0838,1.6221 0.2537,0.6128 0.3807,1.2505 0.3808,1.914 v 30 c -1e-4,0.6626 -0.1269,1.3003 -0.3806,1.9126 -0.2538,0.6128 -0.6151,1.1533 -1.084,1.6226 -0.4688,0.4682 -1.0096,0.8296 -1.6222,1.0835 -0.6125,0.2534 -1.2502,0.3808 -1.9132,0.3813 h -144.29 c -0.6632,-5e-4 -1.301,-0.1279 -1.9136,-0.3813 -0.6127,-0.2539 -1.1534,-0.6153 -1.6222,-1.0835 -0.4687,-0.4693 -0.8299,-1.0098 -1.0837,-1.6226 -0.2538,-0.6123 -0.3806,-1.25 -0.3805,-1.9126 v -30 c -10e-5,-0.6635 0.1267,-1.3012 0.3805,-1.914 0.2538,-0.6128 0.615,-1.1538 1.0837,-1.6221 0.4688,-0.4692 1.0094,-0.8301 1.6221,-1.0835 0.6127,-0.2534 1.2505,-0.3804 1.9137,-0.3804 z"
       style="fill:#ffffff;fill-opacity:1;fill-rule:nonzero;stroke:#000000;stroke-width:1;stroke-linecap:butt;stroke-linejoin:miter;stroke-miterlimit:10;stroke-dasharray:none;stroke-opacity:1"
       transform="matrix(0.9456159,0,0,0.9456159,-1510.038,-6424.2423)"
       clip-path="url(#clipPath23)" />
    <text
       id="text23"
       xml:space="preserve"
       transform="matrix(0.9456159,0,0,0.9456159,81.418729,204.05218)"
       clip-path="url(#clipPath24)"><tspan
         id="tspan23"
         style="font-variant:normal;font-weight:normal;font-size:16px;font-family:Arial;writing-mode:lr-tb;fill:#000000;fill-opacity:1;fill-rule:nonzero;stroke:none"
         x="0"
         y="0">«assign»</tspan></text>
    <text
       id="text24"
       xml:space="preserve"
       transform="matrix(0.9456159,0,0,0.9456159,92.987772,222.9645)"
       clip-path="url(#clipPath25)"><tspan
         id="tspan24"
         style="font-variant:normal;font-weight:normal;font-size:16px;font-family:Arial;writing-mode:lr-tb;fill:#000000;fill-opacity:1;fill-rule:nonzero;stroke:none"
         x="0"
         y="0">x := 1</tspan></text>
    <path
       id="path26"
       d="m 1715.5,6974 v 3 h -1 v -3 m 1,6 v 3 h -1 v -3 m 1,6 v 3 h -1 v -3"
       style="fill:#000000;fill-opacity:1;fill-rule:nonzero;stroke:none"
       transform="matrix(0.9456159,0,0,0.9456159,-1510.038,-6424.2423)"
       clip-path="url(#clipPath27)" />
    <path
       id="path28"
       d="m 1710.5,6983.4502 4.5,9 4.5,-9"
       style="fill:none;stroke:#000000;stroke-width:1;stroke-linecap:butt;stroke-linejoin:miter;stroke-miterlimit:10;stroke-dasharray:none;stroke-opacity:1"
       transform="matrix(0.9456159,0,0,0.9456159,-1510.038,-6424.2423)"
       clip-path="url(#clipPath29)" />
    <path
       id="path30"
       d="m 1725,6964 c -10e-5,0.6567 -0.064,1.3066 -0.1923,1.9507 -0.128,0.644 -0.3177,1.269 -0.5689,1.8755 -0.2514,0.6069 -0.5594,1.1831 -0.9242,1.729 -0.3648,0.5459 -0.7793,1.0512 -1.2436,1.5156 -0.4643,0.4644 -0.9694,0.8784 -1.5155,1.2432 -0.5459,0.3647 -1.1222,0.6728 -1.7287,0.9243 -0.6067,0.2514 -1.2321,0.4409 -1.876,0.5688 -0.6439,0.1284 -1.2942,0.1924 -1.9508,0.1929 -0.6566,-5e-4 -1.307,-0.065 -1.951,-0.1929 -0.6441,-0.1279 -1.2695,-0.3174 -1.8761,-0.5688 -0.6066,-0.2515 -1.1828,-0.5596 -1.7287,-0.9243 -0.5459,-0.3648 -1.051,-0.7788 -1.5152,-1.2432 -0.4644,-0.4644 -0.879,-0.9697 -1.2438,-1.5156 -0.3648,-0.5459 -0.6727,-1.1221 -0.9241,-1.729 -0.2513,-0.6065 -0.441,-1.2315 -0.5691,-1.8755 -0.128,-0.6441 -0.1921,-1.294 -0.192,-1.9507 -10e-5,-0.6567 0.064,-1.3071 0.192,-1.9512 0.1281,-0.644 0.3178,-1.2695 0.5691,-1.8759 0.2514,-0.607 0.5593,-1.1836 0.9242,-1.7291 0.3647,-0.5463 0.7793,-1.0512 1.2437,-1.5151 0.4642,-0.4643 0.9693,-0.8789 1.5152,-1.2436 0.5459,-0.3648 1.1222,-0.6729 1.7289,-0.9244 0.6066,-0.2514 1.2319,-0.4409 1.8759,-0.5683 0.644,-0.1284 1.2944,-0.1924 1.951,-0.1924 0.6566,0 1.3069,0.064 1.9508,0.1924 0.6439,0.1274 1.2693,0.3169 1.876,0.5683 0.6065,0.2515 1.1828,0.5596 1.7287,0.9244 0.5461,0.3647 1.0512,0.7793 1.5155,1.2436 0.4643,0.4639 0.8788,0.9688 1.2437,1.5147 0.3647,0.5459 0.6727,1.122 0.9239,1.729 0.2514,0.6069 0.4411,1.2319 0.5691,1.8759 0.1281,0.6441 0.1922,1.295 0.1923,1.9517 z"
       style="fill:#000000;fill-opacity:1;fill-rule:nonzero;stroke:#000000;stroke-width:1;stroke-linecap:butt;stroke-linejoin:miter;stroke-miterlimit:10;stroke-dasharray:none;stroke-opacity:1"
       transform="matrix(0.9456159,0,0,0.9456159,-1510.038,-6424.2423)"
       clip-path="url(#clipPath31)" />
    <path
       id="path32"
       d="m 1715.4999,7033.5591 0.066,2.9995 -0.9998,0.021 -0.066,-2.9995 m 1.1315,5.977 0.066,2.9995 -0.9997,0.021 -0.066,-2.9995 m 1.1315,5.9771 0.066,2.9995 -0.9997,0.021 -0.066,-2.9995 m 1.1315,5.9771 0.055,2.4946 -0.9997,0.022 -0.055,-2.4946"
       style="fill:#000000;fill-opacity:1;fill-rule:nonzero;stroke:none"
       transform="matrix(0.9456159,0,0,0.9456159,-1510.038,-6424.2423)"
       clip-path="url(#clipPath33)" />
    <path
       id="path34"
       d="m 1710.78,7046.2798 4.7,8.9004 4.3,-9.1001"
       style="fill:none;stroke:#000000;stroke-width:1;stroke-linecap:butt;stroke-linejoin:miter;stroke-miterlimit:10;stroke-dasharray:none;stroke-opacity:1"
       transform="matrix(0.9456159,0,0,0.9456159,-1510.038,-6424.2423)"
       clip-path="url(#clipPath35)" />
    <path
       id="path36"
       d="m 1716,7385.6299 v 3 h -1 v -3 m 1,6 v 3 h -1 v -3 m 1,6 v 3 h -1 v -3 m 1,6 v 3 h -1 v -3"
       style="fill:#000000;fill-opacity:1;fill-rule:nonzero;stroke:none"
       transform="matrix(0.9456159,0,0,0.9456159,-1510.038,-6424.2423)"
       clip-path="url(#clipPath37)" />
    <path
       id="path38"
       d="m 1711,7399.96 4.5,9 4.5,-9"
       style="fill:none;stroke:#000000;stroke-width:1;stroke-linecap:butt;stroke-linejoin:miter;stroke-miterlimit:10;stroke-dasharray:none;stroke-opacity:1"
       transform="matrix(0.9456159,0,0,0.9456159,-1510.038,-6424.2423)"
       clip-path="url(#clipPath39)" />
    <path
       id="path40"
       d="m 1810.5,7106.2998 v -42.5 c 0,-5 -2.5,-7.5 -7.5,-7.5 h -175 c -5,0 -7.5,2.5 -7.5,7.5 v 42.5"
       style="fill:none;stroke:#000000;stroke-width:1;stroke-linecap:butt;stroke-linejoin:miter;stroke-miterlimit:10;stroke-dasharray:none;stroke-opacity:1"
       transform="matrix(0.9456159,0,0,0.9456159,-1510.038,-6424.2423)"
       clip-path="url(#clipPath41)" />
    <path
       id="path42"
       d="m 1620.5,7106.2998 v 271.8301 c 0,5 2.5,7.5 7.5,7.5 h 175 c 5,0 7.5,-2.5 7.5,-7.5 v -271.8301"
       style="fill:none;stroke:#000000;stroke-width:1;stroke-linecap:butt;stroke-linejoin:miter;stroke-miterlimit:10;stroke-dasharray:none;stroke-opacity:1"
       transform="matrix(0.9456159,0,0,0.9456159,-1510.038,-6424.2423)"
       clip-path="url(#clipPath43)" />
    <path
       id="path44"
       d="m 1620.5,7106.2998 h 190"
       style="fill:none;stroke:#000000;stroke-width:1;stroke-linecap:butt;stroke-linejoin:miter;stroke-miterlimit:10;stroke-dasharray:none;stroke-opacity:1"
       transform="matrix(0.9456159,0,0,0.9456159,-1510.038,-6424.2423)"
       clip-path="url(#clipPath45)" />
    <text
       id="text45"
       xml:space="preserve"
       transform="matrix(0.9456159,0,0,0.9456159,89.929272,268.35406)"
       clip-path="url(#clipPath46)"><tspan
         id="tspan45"
         style="font-variant:normal;font-weight:normal;font-size:16px;font-family:Arial;writing-mode:lr-tb;fill:#000000;fill-opacity:1;fill-rule:nonzero;stroke:none"
         x="0"
         y="0">«loop»</tspan></text>
    <text
       id="text46"
       xml:space="preserve"
       transform="matrix(0.9456159,0,0,0.9456159,94.125443,286.32077)"
       clip-path="url(#clipPath47)"><tspan
         id="tspan46"
         style="font-variant:normal;font-weight:normal;font-size:16px;font-family:Arial;writing-mode:lr-tb;fill:#000000;fill-opacity:1;fill-rule:nonzero;stroke:none"
         x="0"
         y="0">loop1</tspan></text>
    <text
       id="text47"
       xml:space="preserve"
       transform="matrix(0.9456159,0,0,0.9456159,87.550481,308.06993)"
       clip-path="url(#clipPath48)"><tspan
         id="tspan47"
         style="font-style:italic;font-variant:normal;font-weight:normal;font-size:12px;font-family:Arial;writing-mode:lr-tb;fill:#000000;fill-opacity:1;fill-rule:nonzero;stroke:none"
         x="0"
         y="0">loop body</tspan></text>
    <path
       id="path49"
       d="m 1724.3368,7319.6201 c 0,0.5191 -0.051,1.0337 -0.1522,1.5435 -0.1015,0.5097 -0.2517,1.0049 -0.4506,1.4848 -0.199,0.48 -0.4429,0.9366 -0.7316,1.3692 -0.2889,0.4321 -0.617,0.832 -0.9846,1.2002 -0.3675,0.3676 -0.7674,0.6958 -1.1997,0.9843 -0.4322,0.2891 -0.8884,0.5333 -1.3688,0.732 -0.4802,0.1987 -0.9752,0.3486 -1.4849,0.4502 -0.5098,0.1015 -1.0246,0.1523 -1.5442,0.1528 -0.5199,-5e-4 -1.0348,-0.051 -1.5447,-0.1528 -0.5099,-0.1016 -1.0049,-0.252 -1.4851,-0.4507 -0.4802,-0.1987 -0.9364,-0.4424 -1.3687,-0.731 -0.4322,-0.289 -0.8321,-0.6172 -1.1997,-0.9848 -0.3675,-0.3682 -0.6958,-0.7686 -0.9845,-1.2007 -0.2888,-0.4321 -0.5327,-0.8887 -0.7317,-1.3687 -0.1988,-0.4799 -0.349,-0.9751 -0.4504,-1.4843 -0.1014,-0.5103 -0.1521,-1.0249 -0.152,-1.544 -10e-5,-0.52 0.051,-1.0351 0.152,-1.5449 0.1014,-0.5098 0.2516,-1.0049 0.4506,-1.4849 0.1988,-0.4804 0.4427,-0.937 0.7314,-1.3691 0.2888,-0.4326 0.6171,-0.8325 0.9846,-1.1997 0.3676,-0.3677 0.7675,-0.6958 1.1997,-0.9844 0.4323,-0.2886 0.8885,-0.5322 1.3687,-0.7314 0.4802,-0.1988 0.9752,-0.3487 1.4851,-0.4502 0.5099,-0.1011 1.0248,-0.1519 1.5447,-0.1519 0.5196,0 1.0344,0.051 1.5442,0.1524 0.5098,0.101 1.0048,0.2509 1.4851,0.4497 0.4802,0.1992 0.9365,0.4428 1.3687,0.7314 0.4323,0.2886 0.8322,0.6167 1.1997,0.9844 0.3676,0.3672 0.6958,0.7671 0.9845,1.1997 0.2887,0.4321 0.5326,0.8882 0.7316,1.3686 0.1989,0.4805 0.3491,0.9756 0.4506,1.4859 0.1014,0.5093 0.1522,1.0244 0.1522,1.5444 z"
       style="fill:#000000;fill-opacity:1;fill-rule:nonzero;stroke:#000000;stroke-width:1;stroke-linecap:butt;stroke-linejoin:miter;stroke-miterlimit:10;stroke-dasharray:none;stroke-opacity:1"
       transform="matrix(0.9456159,0,0,0.9456159,-1510.038,-6424.2423)"
       clip-path="url(#clipPath50)" />
    <path
       id="path51"
       d="m 1728.3368,7319.6201 c -10e-5,0.7822 -0.076,1.5567 -0.2291,2.3237 -0.1527,0.7671 -0.3788,1.5127 -0.6783,2.2359 -0.2994,0.7231 -0.6665,1.4097 -1.1012,2.0605 -0.4346,0.6509 -0.9287,1.253 -1.4819,1.8062 -0.5533,0.5532 -1.1553,1.0469 -1.8059,1.4819 -0.6506,0.4346 -1.3374,0.8018 -2.0602,1.1011 -0.7228,0.2993 -1.468,0.5259 -2.2354,0.6787 -0.7674,0.1528 -1.5423,0.229 -2.3246,0.229 -0.7826,0 -1.5577,-0.077 -2.3251,-0.2295 -0.7675,-0.1528 -1.5127,-0.3789 -2.2355,-0.6787 -0.7229,-0.2998 -1.4096,-0.667 -2.0603,-1.1011 -0.6505,-0.4345 -1.2524,-0.9287 -1.8056,-1.4819 -0.5534,-0.5537 -1.0474,-1.1558 -1.4822,-1.8062 -0.4347,-0.6508 -0.8018,-1.3374 -1.1012,-2.0605 -0.2995,-0.7231 -0.5254,-1.4683 -0.678,-2.2354 -0.1526,-0.767 -0.2289,-1.5415 -0.2289,-2.3237 0,-0.7822 0.076,-1.5571 0.2288,-2.3252 0.1527,-0.7676 0.3786,-1.5127 0.6781,-2.2358 0.2994,-0.7227 0.6665,-1.4097 1.1012,-2.0606 0.4347,-0.6504 0.9287,-1.2519 1.482,-1.8051 0.5534,-0.5538 1.1553,-1.0479 1.8059,-1.482 0.6507,-0.435 1.3374,-0.8017 2.0603,-1.101 0.7228,-0.2994 1.4679,-0.5254 2.2354,-0.6778 0.7674,-0.1528 1.5425,-0.229 2.3251,-0.229 0.7823,0 1.5572,0.076 2.3246,0.229 0.7674,0.1524 1.5125,0.3784 2.2353,0.6778 0.7229,0.2993 1.4097,0.666 2.0602,1.1005 0.6507,0.4346 1.2527,0.9287 1.806,1.4825 0.5532,0.5532 1.0473,1.1547 1.4821,1.8051 0.4347,0.6509 0.8017,1.3379 1.1012,2.0611 0.2994,0.7231 0.5255,1.4682 0.6782,2.2353 0.1526,0.7681 0.2289,1.543 0.229,2.3252 z"
       style="fill:none;stroke:#000000;stroke-width:1;stroke-linecap:butt;stroke-linejoin:miter;stroke-miterlimit:10;stroke-dasharray:none;stroke-opacity:1"
       transform="matrix(0.9456159,0,0,0.9456159,-1510.038,-6424.2423)"
       clip-path="url(#clipPath52)" />
    <path
       id="path53"
       d="m 1661.5,7174.3901 h 110 c 0.663,0 1.3007,0.1265 1.9132,0.3799 0.6127,0.2539 1.1535,0.6153 1.6223,1.0845 0.4688,0.4683 0.83,1.0088 1.0838,1.6216 0.2537,0.6128 0.3806,1.2505 0.3807,1.914 v 34.44 c -10e-5,0.6626 -0.127,1.2998 -0.3807,1.9126 -0.2538,0.6123 -0.615,1.1533 -1.0838,1.6225 -0.4688,0.4683 -1.0096,0.8296 -1.6223,1.0835 -0.6125,0.2534 -1.2502,0.3809 -1.9132,0.3814 h -110 c -0.6632,-5e-4 -1.301,-0.128 -1.9137,-0.3814 -0.6125,-0.2539 -1.1532,-0.6152 -1.6219,-1.0835 -0.469,-0.4692 -0.8304,-1.0102 -1.0839,-1.6225 -0.2538,-0.6128 -0.3806,-1.25 -0.3805,-1.9126 v -34.44 c -10e-5,-0.6635 0.1266,-1.3017 0.3804,-1.9145 0.2536,-0.6128 0.615,-1.1528 1.084,-1.6211 0.4687,-0.4692 1.0094,-0.8306 1.6219,-1.0845 0.6127,-0.2534 1.2505,-0.3799 1.9137,-0.3799 z"
       style="fill:#ffffff;fill-opacity:1;fill-rule:nonzero;stroke:#000000;stroke-width:1;stroke-linecap:butt;stroke-linejoin:miter;stroke-miterlimit:10;stroke-dasharray:none;stroke-opacity:1"
       transform="matrix(0.9456159,0,0,0.9456159,-1510.038,-6424.2423)"
       clip-path="url(#clipPath54)" />
    <text
       id="text54"
       xml:space="preserve"
       transform="matrix(0.9456159,0,0,0.9456159,83.309961,377.09989)"
       clip-path="url(#clipPath55)"><tspan
         id="tspan54"
         style="font-variant:normal;font-weight:normal;font-size:16px;font-family:Arial;writing-mode:lr-tb;fill:#000000;fill-opacity:1;fill-rule:nonzero;stroke:none"
         x="0"
         y="0">«assign»</tspan></text>
    <text
       id="text55"
       xml:space="preserve"
       transform="matrix(0.9456159,0,0,0.9456159,88.141491,396.01221)"
       clip-path="url(#clipPath56)"><tspan
         id="tspan55"
         style="font-variant:normal;font-weight:normal;font-size:16px;font-family:Arial;writing-mode:lr-tb;fill:#000000;fill-opacity:1;fill-rule:nonzero;stroke:none"
         x="0"
         y="0">y := 2*x</tspan></text>
    <path
       id="path57"
       d="m 1651.5,7244.8398 h 130 c 0.663,0 1.3007,0.127 1.9131,0.3804 0.6125,0.2534 1.1533,0.6143 1.6222,1.0835 0.4687,0.4688 0.8301,1.0093 1.0838,1.6216 0.2538,0.6128 0.3808,1.251 0.3809,1.9145 v 34.44 c -10e-5,0.6626 -0.1271,1.3003 -0.3809,1.9126 -0.2537,0.6128 -0.6151,1.1533 -1.0838,1.6225 -0.4689,0.4683 -1.0097,0.8291 -1.6222,1.083 -0.6124,0.254 -1.2501,0.3814 -1.9131,0.3819 h -130 c -0.6632,-5e-4 -1.301,-0.1279 -1.9137,-0.3819 -0.6124,-0.2539 -1.1531,-0.6147 -1.6218,-1.083 -0.4689,-0.4692 -0.8302,-1.0097 -1.084,-1.6225 -0.2538,-0.6123 -0.3806,-1.25 -0.3805,-1.9126 v -34.44 c -10e-5,-0.6635 0.1267,-1.3017 0.3805,-1.9145 0.2538,-0.6123 0.6151,-1.1528 1.084,-1.6216 0.4687,-0.4692 1.0094,-0.8301 1.6221,-1.0835 0.6124,-0.2534 1.2502,-0.3804 1.9134,-0.3804 z"
       style="fill:#ffffff;fill-opacity:1;fill-rule:nonzero;stroke:#000000;stroke-width:1;stroke-linecap:butt;stroke-linejoin:miter;stroke-miterlimit:10;stroke-dasharray:none;stroke-opacity:1"
       transform="matrix(0.9456159,0,0,0.9456159,-1510.038,-6424.2423)"
       clip-path="url(#clipPath58)" />
    <text
       id="text58"
       xml:space="preserve"
       transform="matrix(0.9456159,0,0,0.9456159,83.295209,443.293)"
       clip-path="url(#clipPath59)"><tspan
         id="tspan58"
         style="font-variant:normal;font-weight:normal;font-size:16px;font-family:Arial;writing-mode:lr-tb;fill:#000000;fill-opacity:1;fill-rule:nonzero;stroke:none"
         x="0"
         y="0">«assign»</tspan></text>
    <text
       id="text59"
       xml:space="preserve"
       transform="matrix(0.9456159,0,0,0.9456159,57.660111,462.20532)"
       clip-path="url(#clipPath60)"><tspan
         id="tspan59"
         style="font-variant:normal;font-weight:normal;font-size:16px;font-family:Arial;writing-mode:lr-tb;fill:#000000;fill-opacity:1;fill-rule:nonzero;stroke:none"
         x="0"
         y="0">x := x+increment</tspan></text>
    <path
       id="path61"
       d="m 1717,7218.8398 v 3 h -1 v -3 m 1,6 v 3 h -1 v -3 m 1,6 v 3 h -1 v -3 m 1,6 v 3 h -1 v -3"
       style="fill:#000000;fill-opacity:1;fill-rule:nonzero;stroke:none"
       transform="matrix(0.9456159,0,0,0.9456159,-1510.038,-6424.2423)"
       clip-path="url(#clipPath62)" />
    <path
       id="path63"
       d="m 1712,7234.7202 4.5,9 4.5,-9"
       style="fill:none;stroke:#000000;stroke-width:1;stroke-linecap:butt;stroke-linejoin:miter;stroke-miterlimit:10;stroke-dasharray:none;stroke-opacity:1"
       transform="matrix(0.9456159,0,0,0.9456159,-1510.038,-6424.2423)"
       clip-path="url(#clipPath64)" />
    <path
       id="path65"
       d="m 1717,7289.2817 -0.013,3 h -1 l 0.013,-3 m 0.9741,6.0039 -0.013,3 h -1 l 0.013,-3 m 0.974,6.0039 -0.013,3 h -1 l 0.013,-3"
       style="fill:#000000;fill-opacity:1;fill-rule:nonzero;stroke:none"
       transform="matrix(0.9456159,0,0,0.9456159,-1510.038,-6424.2423)"
       clip-path="url(#clipPath66)" />
    <path
       id="path67"
       d="m 1711.96,7297.5601 4.46,9.02 4.54,-8.98"
       style="fill:none;stroke:#000000;stroke-width:1;stroke-linecap:butt;stroke-linejoin:miter;stroke-miterlimit:10;stroke-dasharray:none;stroke-opacity:1"
       transform="matrix(0.9456159,0,0,0.9456159,-1510.038,-6424.2423)"
       clip-path="url(#clipPath68)" />
    <path
       id="path69"
       d="m 1725.8368,7142.2598 c -10e-5,0.6015 -0.059,1.1972 -0.1764,1.7876 -0.1174,0.5903 -0.2913,1.1635 -0.5216,1.7192 -0.2304,0.5562 -0.5127,1.085 -0.8471,1.5855 -0.3344,0.5004 -0.7144,0.9638 -1.1398,1.3896 -0.4257,0.4253 -0.8887,0.8052 -1.3893,1.1396 -0.5005,0.3345 -1.0288,0.6167 -1.5849,0.8467 -0.556,0.2305 -1.1291,0.4048 -1.7194,0.5225 -0.5903,0.1172 -1.1863,0.1758 -1.7881,0.1763 -0.602,-5e-4 -1.198,-0.059 -1.7885,-0.1768 -0.5903,-0.1177 -1.1636,-0.2915 -1.7197,-0.522 -0.556,-0.23 -1.0844,-0.5127 -1.5849,-0.8471 -0.5004,-0.3345 -0.9635,-0.7144 -1.389,-1.1397 -0.4256,-0.4258 -0.8057,-0.8891 -1.14,-1.3896 -0.3345,-0.5005 -0.6168,-1.0288 -0.8472,-1.585 -0.2303,-0.5557 -0.4041,-1.1289 -0.5216,-1.7192 -0.1174,-0.5904 -0.176,-1.1861 -0.1759,-1.7876 -10e-5,-0.6021 0.058,-1.1983 0.176,-1.7886 0.1174,-0.5903 0.2912,-1.1641 0.5215,-1.7202 0.2304,-0.5562 0.5127,-1.0845 0.8472,-1.585 0.3343,-0.5005 0.7145,-0.9629 1.1401,-1.3882 0.4257,-0.4257 0.8887,-0.8056 1.3891,-1.1401 0.5003,-0.3345 1.0287,-0.6172 1.5847,-0.8472 0.5561,-0.23 1.1294,-0.4038 1.7197,-0.521 0.5905,-0.1172 1.1865,-0.1757 1.7885,-0.1762 0.6018,5e-4 1.1978,0.059 1.7881,0.1762 0.5903,0.1172 1.1635,0.291 1.7196,0.521 0.556,0.23 1.0842,0.5122 1.5847,0.8467 0.5006,0.3345 0.9636,0.7149 1.3893,1.1406 0.4254,0.4253 0.8054,0.8882 1.1398,1.3887 0.3344,0.5005 0.6167,1.0288 0.8471,1.585 0.2303,0.5561 0.4042,1.1294 0.5216,1.7197 0.1174,0.5903 0.1763,1.1865 0.1764,1.7886 z"
       style="fill:#000000;fill-opacity:1;fill-rule:nonzero;stroke:#000000;stroke-width:1;stroke-linecap:butt;stroke-linejoin:miter;stroke-miterlimit:10;stroke-dasharray:none;stroke-opacity:1"
       transform="matrix(0.9456159,0,0,0.9456159,-1510.038,-6424.2423)"
       clip-path="url(#clipPath70)" />
    <path
       id="path71"
       d="m 1717.17,7151.4233 -0.022,3 -1,-0.01 0.022,-3 m 0.9566,6.0068 -0.022,3 -1,-0.01 0.022,-3 m 0.9567,6.0064 -0.022,3 -1,-0.01 0.022,-3 m 0.9565,6.0069 -0.02,2.7407 -1,-0.01 0.02,-2.7407"
       style="fill:#000000;fill-opacity:1;fill-rule:nonzero;stroke:none"
       transform="matrix(0.9456159,0,0,0.9456159,-1510.038,-6424.2423)"
       clip-path="url(#clipPath72)" />
    <path
       id="path73"
       d="m 1712.0699,7164.2402 4.4401,9.0396 4.5599,-8.9697"
       style="fill:none;stroke:#000000;stroke-width:1;stroke-linecap:butt;stroke-linejoin:miter;stroke-miterlimit:10;stroke-dasharray:none;stroke-opacity:1"
       transform="matrix(0.9456159,0,0,0.9456159,-1510.038,-6424.2423)"
       clip-path="url(#clipPath74)" />
    <path
       id="path75"
       d="m 1620.5,7346.6899 h 190"
       style="fill:none;stroke:#000000;stroke-width:1;stroke-linecap:butt;stroke-linejoin:miter;stroke-miterlimit:10;stroke-dasharray:none;stroke-opacity:1"
       transform="matrix(0.9456159,0,0,0.9456159,-1510.038,-6424.2423)"
       clip-path="url(#clipPath76)" />
    <text
       id="text76"
       xml:space="preserve"
       transform="translate(77.004683,537.67506)"
       clip-path="url(#clipPath77)"><tspan
         id="tspan76"
         style="font-style:italic;font-variant:normal;font-weight:normal;font-size:11.34px;font-family:Arial;writing-mode:lr-tb;fill:#000000;fill-opacity:1;fill-rule:nonzero;stroke:none"
         x="0"
         y="0">until condition</tspan></text>
    <text
       id="text77"
       xml:space="preserve"
       transform="matrix(0.9456159,0,0,0.9456159,28.006183,553.93006)"
       clip-path="url(#clipPath78)"><tspan
         id="tspan77"
         style="font-variant:normal;font-weight:normal;font-size:12px;font-family:Arial;writing-mode:lr-tb;fill:#000000;fill-opacity:1;fill-rule:nonzero;stroke:none"
         x="0"
         y="0">x &gt;= 10</tspan></text>
  </g>
</svg>
