<?xml version="1.0" encoding="UTF-8" standalone="no"?>
<!-- Created with Inkscape (http://www.inkscape.org/) -->

<svg
   version="1.1"
   id="svg1"
   width="320"
   height="681.27997"
   viewBox="0 0 320 681.27997"
   xmlns="http://www.w3.org/2000/svg"
   xmlns:svg="http://www.w3.org/2000/svg">
  <defs
     id="defs1">
    <clipPath
       clipPathUnits="userSpaceOnUse"
       id="clipPath2">
      <path
         d="M 0,0 H 999.02344 V 2129.9805 H 0 Z"
         transform="scale(0.31999999)"
         clip-rule="evenodd"
         id="path2" />
    </clipPath>
    <clipPath
       clipPathUnits="userSpaceOnUse"
       id="clipPath4">
      <path
         d="m 3.125,9.375 h 993.75 v 2112.5 H 3.125 Z"
         transform="matrix(0.33736764,0,0,0.33736764,127.39203,7915.9323)"
         clip-rule="evenodd"
         id="path4" />
    </clipPath>
    <clipPath
       clipPathUnits="userSpaceOnUse"
       id="clipPath5">
      <path
         d="m 3.125,9.375 h 993.75 v 2112.5 H 3.125 Z"
         transform="matrix(0.33736764,0,0,0.33736764,-169.92047,-26.566708)"
         clip-rule="evenodd"
         id="path5" />
    </clipPath>
    <clipPath
       clipPathUnits="userSpaceOnUse"
       id="clipPath6">
      <path
         d="m 3.125,9.375 h 993.75 v 2112.5 H 3.125 Z"
         transform="matrix(0.33736764,0,0,0.33736764,-165.93611,-45.566707)"
         clip-rule="evenodd"
         id="path6" />
    </clipPath>
    <clipPath
       clipPathUnits="userSpaceOnUse"
       id="clipPath8">
      <path
         d="m 3.125,9.375 h 993.75 v 2112.5 H 3.125 Z"
         transform="matrix(0.33736764,0,0,0.33736764,127.39203,7915.9323)"
         clip-rule="evenodd"
         id="path8" />
    </clipPath>
    <clipPath
       clipPathUnits="userSpaceOnUse"
       id="clipPath9">
      <path
         d="m 3.125,9.375 h 993.75 v 2112.5 H 3.125 Z"
         transform="matrix(0.33736764,0,0,0.33736764,-230.10797,-189.56671)"
         clip-rule="evenodd"
         id="path9" />
    </clipPath>
    <clipPath
       clipPathUnits="userSpaceOnUse"
       id="clipPath11">
      <path
         d="m 3.125,9.375 h 993.75 v 2112.5 H 3.125 Z"
         transform="matrix(0.33736764,0,0,0.33736764,127.39203,7915.9323)"
         clip-rule="evenodd"
         id="path11" />
    </clipPath>
    <clipPath
       clipPathUnits="userSpaceOnUse"
       id="clipPath12">
      <path
         d="m 3.125,9.375 h 993.75 v 2112.5 H 3.125 Z"
         transform="matrix(0.33736764,0,0,0.33736764,-230.10797,-239.5667)"
         clip-rule="evenodd"
         id="path12" />
    </clipPath>
    <clipPath
       clipPathUnits="userSpaceOnUse"
       id="clipPath14">
      <path
         d="m 3.125,9.375 h 993.75 v 2112.5 H 3.125 Z"
         transform="matrix(0.33736764,0,0,0.33736764,127.39203,7915.9323)"
         clip-rule="evenodd"
         id="path14" />
    </clipPath>
    <clipPath
       clipPathUnits="userSpaceOnUse"
       id="clipPath16">
      <path
         d="m 3.125,9.375 h 993.75 v 2112.5 H 3.125 Z"
         transform="matrix(0.33736764,0,0,0.33736764,127.39203,7915.9323)"
         clip-rule="evenodd"
         id="path16" />
    </clipPath>
    <clipPath
       clipPathUnits="userSpaceOnUse"
       id="clipPath18">
      <path
         d="m 3.125,9.375 h 993.75 v 2112.5 H 3.125 Z"
         transform="matrix(0.33736764,0,0,0.33736764,127.39203,7915.9323)"
         clip-rule="evenodd"
         id="path18" />
    </clipPath>
    <clipPath
       clipPathUnits="userSpaceOnUse"
       id="clipPath20">
      <path
         d="m 3.125,9.375 h 993.75 v 2112.5 H 3.125 Z"
         transform="matrix(0.33736764,0,0,0.33736764,127.89203,7916.4333)"
         clip-rule="evenodd"
         id="path20" />
    </clipPath>
    <clipPath
       clipPathUnits="userSpaceOnUse"
       id="clipPath21">
      <path
         d="m 3.125,9.375 h 993.75 v 2112.5 H 3.125 Z"
         transform="matrix(0.33736764,0,0,0.33736764,-220.10797,-212.5667)"
         clip-rule="evenodd"
         id="path21" />
    </clipPath>
    <clipPath
       clipPathUnits="userSpaceOnUse"
       id="clipPath23">
      <path
         d="m 3.125,9.375 h 993.75 v 2112.5 H 3.125 Z"
         transform="matrix(0.33736764,0,0,0.33736764,127.39203,7915.9323)"
         clip-rule="evenodd"
         id="path23" />
    </clipPath>
    <clipPath
       clipPathUnits="userSpaceOnUse"
       id="clipPath24">
      <path
         d="m 3.125,9.375 h 993.75 v 2112.5 H 3.125 Z"
         transform="matrix(0.33736764,0,0,0.33736764,-230.10797,-471.56671)"
         clip-rule="evenodd"
         id="path24" />
    </clipPath>
    <clipPath
       clipPathUnits="userSpaceOnUse"
       id="clipPath26">
      <path
         d="m 3.125,9.375 h 993.75 v 2112.5 H 3.125 Z"
         transform="matrix(0.33736764,0,0,0.33736764,127.39203,7915.9323)"
         clip-rule="evenodd"
         id="path26" />
    </clipPath>
    <clipPath
       clipPathUnits="userSpaceOnUse"
       id="clipPath28">
      <path
         d="m 3.125,9.375 h 993.75 v 2112.5 H 3.125 Z"
         transform="matrix(0.33736764,0,0,0.33736764,127.39203,7915.9323)"
         clip-rule="evenodd"
         id="path28" />
    </clipPath>
    <clipPath
       clipPathUnits="userSpaceOnUse"
       id="clipPath30">
      <path
         d="m 3.125,9.375 h 993.75 v 2112.5 H 3.125 Z"
         transform="matrix(0.33736764,0,0,0.33736764,127.39203,7915.9323)"
         clip-rule="evenodd"
         id="path30" />
    </clipPath>
    <clipPath
       clipPathUnits="userSpaceOnUse"
       id="clipPath31">
      <path
         d="m 3.125,9.375 h 993.75 v 2112.5 H 3.125 Z"
         transform="matrix(0.33736764,0,0,0.33736764,-262.10797,-629.56671)"
         clip-rule="evenodd"
         id="path31" />
    </clipPath>
    <clipPath
       clipPathUnits="userSpaceOnUse"
       id="clipPath33">
      <path
         d="m 3.125,9.375 h 993.75 v 2112.5 H 3.125 Z"
         transform="matrix(0.33736764,0,0,0.33736764,127.39203,7915.9323)"
         clip-rule="evenodd"
         id="path33" />
    </clipPath>
    <clipPath
       clipPathUnits="userSpaceOnUse"
       id="clipPath34">
      <path
         d="m 3.125,9.375 h 993.75 v 2112.5 H 3.125 Z"
         transform="matrix(0.33736764,0,0,0.33736764,-264.10797,-97.566707)"
         clip-rule="evenodd"
         id="path34" />
    </clipPath>
    <clipPath
       clipPathUnits="userSpaceOnUse"
       id="clipPath36">
      <path
         d="m 3.125,9.375 h 993.75 v 2112.5 H 3.125 Z"
         transform="matrix(0.33736764,0,0,0.33736764,127.39203,7915.9323)"
         clip-rule="evenodd"
         id="path36" />
    </clipPath>
    <clipPath
       clipPathUnits="userSpaceOnUse"
       id="clipPath37">
      <path
         d="m 3.125,9.375 h 993.75 v 2112.5 H 3.125 Z"
         transform="matrix(0.33736764,0,0,0.33736764,-3.0923465,-89.566707)"
         clip-rule="evenodd"
         id="path37" />
    </clipPath>
    <clipPath
       clipPathUnits="userSpaceOnUse"
       id="clipPath39">
      <path
         d="m 3.125,9.375 h 993.75 v 2112.5 H 3.125 Z"
         transform="matrix(0.33736764,0,0,0.33736764,127.39203,7915.9323)"
         clip-rule="evenodd"
         id="path39" />
    </clipPath>
    <clipPath
       clipPathUnits="userSpaceOnUse"
       id="clipPath41">
      <path
         d="m 3.125,9.375 h 993.75 v 2112.5 H 3.125 Z"
         transform="matrix(0.33736764,0,0,0.33736764,127.89203,7916.4333)"
         clip-rule="evenodd"
         id="path41" />
    </clipPath>
    <clipPath
       clipPathUnits="userSpaceOnUse"
       id="clipPath42">
      <path
         d="m 3.125,9.375 h 993.75 v 2112.5 H 3.125 Z"
         transform="matrix(0.33736764,0,0,0.33736764,-162.38922,-78.566707)"
         clip-rule="evenodd"
         id="path42" />
    </clipPath>
    <clipPath
       clipPathUnits="userSpaceOnUse"
       id="clipPath44">
      <path
         d="m 3.125,9.375 h 993.75 v 2112.5 H 3.125 Z"
         transform="matrix(0.33736764,0,0,0.33736764,127.39203,7915.9323)"
         clip-rule="evenodd"
         id="path44" />
    </clipPath>
    <clipPath
       clipPathUnits="userSpaceOnUse"
       id="clipPath46">
      <path
         d="m 3.125,9.375 h 993.75 v 2112.5 H 3.125 Z"
         transform="matrix(0.33736764,0,0,0.33736764,127.39203,7915.9323)"
         clip-rule="evenodd"
         id="path46" />
    </clipPath>
    <clipPath
       clipPathUnits="userSpaceOnUse"
       id="clipPath48">
      <path
         d="m 3.125,9.375 h 993.75 v 2112.5 H 3.125 Z"
         transform="matrix(0.33736764,0,0,0.33736764,127.89203,7916.4333)"
         clip-rule="evenodd"
         id="path48" />
    </clipPath>
    <clipPath
       clipPathUnits="userSpaceOnUse"
       id="clipPath49">
      <path
         d="m 3.125,9.375 h 993.75 v 2112.5 H 3.125 Z"
         transform="matrix(0.33736764,0,0,0.33736764,-220.10797,-450.5667)"
         clip-rule="evenodd"
         id="path49" />
    </clipPath>
    <clipPath
       clipPathUnits="userSpaceOnUse"
       id="clipPath51">
      <path
         d="m 3.125,9.375 h 993.75 v 2112.5 H 3.125 Z"
         transform="matrix(0.33736764,0,0,0.33736764,127.39203,7915.9323)"
         clip-rule="evenodd"
         id="path51" />
    </clipPath>
    <clipPath
       clipPathUnits="userSpaceOnUse"
       id="clipPath52">
      <path
         d="m 3.125,9.375 h 993.75 v 2112.5 H 3.125 Z"
         transform="matrix(0.33736764,0,0,0.33736764,-138.27985,-498.56671)"
         clip-rule="evenodd"
         id="path52" />
    </clipPath>
    <clipPath
       clipPathUnits="userSpaceOnUse"
       id="clipPath53">
      <path
         d="m 3.125,9.375 h 993.75 v 2112.5 H 3.125 Z"
         transform="matrix(0.33736764,0,0,0.33736764,-145.84235,-517.56671)"
         clip-rule="evenodd"
         id="path53" />
    </clipPath>
    <clipPath
       clipPathUnits="userSpaceOnUse"
       id="clipPath55">
      <path
         d="m 3.125,9.375 h 993.75 v 2112.5 H 3.125 Z"
         transform="matrix(0.33736764,0,0,0.33736764,127.39203,7915.9323)"
         clip-rule="evenodd"
         id="path55" />
    </clipPath>
    <clipPath
       clipPathUnits="userSpaceOnUse"
       id="clipPath57">
      <path
         d="m 3.125,9.375 h 993.75 v 2112.5 H 3.125 Z"
         transform="matrix(0.33736764,0,0,0.33736764,127.39203,7915.9323)"
         clip-rule="evenodd"
         id="path57" />
    </clipPath>
    <clipPath
       clipPathUnits="userSpaceOnUse"
       id="clipPath58">
      <path
         d="m 3.125,9.375 h 993.75 v 2112.5 H 3.125 Z"
         transform="matrix(0.33736764,0,0,0.33736764,-132.0611,-124.5667)"
         clip-rule="evenodd"
         id="path58" />
    </clipPath>
    <clipPath
       clipPathUnits="userSpaceOnUse"
       id="clipPath59">
      <path
         d="m 3.125,9.375 h 993.75 v 2112.5 H 3.125 Z"
         transform="matrix(0.33736764,0,0,0.33736764,-165.42047,-143.56671)"
         clip-rule="evenodd"
         id="path59" />
    </clipPath>
    <clipPath
       clipPathUnits="userSpaceOnUse"
       id="clipPath60">
      <path
         d="m 3.125,9.375 h 993.75 v 2112.5 H 3.125 Z"
         transform="matrix(0.33736764,0,0,0.33736764,-150.0611,-162.56671)"
         clip-rule="evenodd"
         id="path60" />
    </clipPath>
    <clipPath
       clipPathUnits="userSpaceOnUse"
       id="clipPath62">
      <path
         d="m 3.125,9.375 h 993.75 v 2112.5 H 3.125 Z"
         transform="matrix(0.33736764,0,0,0.33736764,127.39203,7915.9323)"
         clip-rule="evenodd"
         id="path62" />
    </clipPath>
    <clipPath
       clipPathUnits="userSpaceOnUse"
       id="clipPath64">
      <path
         d="m 3.125,9.375 h 993.75 v 2112.5 H 3.125 Z"
         transform="matrix(0.33736764,0,0,0.33736764,127.39203,7915.9323)"
         clip-rule="evenodd"
         id="path64" />
    </clipPath>
    <clipPath
       clipPathUnits="userSpaceOnUse"
       id="clipPath65">
      <path
         d="m 3.125,9.375 h 993.75 v 2112.5 H 3.125 Z"
         transform="matrix(0.33736764,0,0,0.33736764,-157.85797,-266.56671)"
         clip-rule="evenodd"
         id="path65" />
    </clipPath>
    <clipPath
       clipPathUnits="userSpaceOnUse"
       id="clipPath66">
      <path
         d="m 3.125,9.375 h 993.75 v 2112.5 H 3.125 Z"
         transform="matrix(0.33736764,0,0,0.33736764,-168.98297,-285.56671)"
         clip-rule="evenodd"
         id="path66" />
    </clipPath>
    <clipPath
       clipPathUnits="userSpaceOnUse"
       id="clipPath68">
      <path
         d="m 3.125,9.375 h 993.75 v 2112.5 H 3.125 Z"
         transform="matrix(0.33736764,0,0,0.33736764,127.39203,7915.9323)"
         clip-rule="evenodd"
         id="path68" />
    </clipPath>
    <clipPath
       clipPathUnits="userSpaceOnUse"
       id="clipPath70">
      <path
         d="m 3.125,9.375 h 993.75 v 2112.5 H 3.125 Z"
         transform="matrix(0.33736764,0,0,0.33736764,127.39203,7915.9323)"
         clip-rule="evenodd"
         id="path70" />
    </clipPath>
    <clipPath
       clipPathUnits="userSpaceOnUse"
       id="clipPath72">
      <path
         d="m 3.125,9.375 h 993.75 v 2112.5 H 3.125 Z"
         transform="matrix(0.33736764,0,0,0.33736764,127.39203,7915.9323)"
         clip-rule="evenodd"
         id="path72" />
    </clipPath>
    <clipPath
       clipPathUnits="userSpaceOnUse"
       id="clipPath73">
      <path
         d="m 3.125,9.375 h 993.75 v 2112.5 H 3.125 Z"
         transform="matrix(0.33736764,0,0,0.33736764,-230.10797,-310.56671)"
         clip-rule="evenodd"
         id="path73" />
    </clipPath>
    <clipPath
       clipPathUnits="userSpaceOnUse"
       id="clipPath75">
      <path
         d="m 3.125,9.375 h 993.75 v 2112.5 H 3.125 Z"
         transform="matrix(0.33736764,0,0,0.33736764,127.39203,7915.9323)"
         clip-rule="evenodd"
         id="path75" />
    </clipPath>
    <clipPath
       clipPathUnits="userSpaceOnUse"
       id="clipPath77">
      <path
         d="m 3.125,9.375 h 993.75 v 2112.5 H 3.125 Z"
         transform="matrix(0.33736764,0,0,0.33736764,127.39203,7915.9323)"
         clip-rule="evenodd"
         id="path77" />
    </clipPath>
    <clipPath
       clipPathUnits="userSpaceOnUse"
       id="clipPath79">
      <path
         d="m 3.125,9.375 h 993.75 v 2112.5 H 3.125 Z"
         transform="matrix(0.33736764,0,0,0.33736764,127.39203,7915.9323)"
         clip-rule="evenodd"
         id="path79" />
    </clipPath>
    <clipPath
       clipPathUnits="userSpaceOnUse"
       id="clipPath80">
      <path
         d="m 3.125,9.375 h 993.75 v 2112.5 H 3.125 Z"
         transform="matrix(0.33736764,0,0,0.33736764,-157.85797,-388.56671)"
         clip-rule="evenodd"
         id="path80" />
    </clipPath>
    <clipPath
       clipPathUnits="userSpaceOnUse"
       id="clipPath81">
      <path
         d="m 3.125,9.375 h 993.75 v 2112.5 H 3.125 Z"
         transform="matrix(0.33736764,0,0,0.33736764,-168.52985,-407.56671)"
         clip-rule="evenodd"
         id="path81" />
    </clipPath>
    <clipPath
       clipPathUnits="userSpaceOnUse"
       id="clipPath83">
      <path
         d="m 3.125,9.375 h 993.75 v 2112.5 H 3.125 Z"
         transform="matrix(0.33736764,0,0,0.33736764,127.39203,7915.9323)"
         clip-rule="evenodd"
         id="path83" />
    </clipPath>
    <clipPath
       clipPathUnits="userSpaceOnUse"
       id="clipPath84">
      <path
         d="m 3.125,9.375 h 993.75 v 2112.5 H 3.125 Z"
         transform="matrix(0.33736764,0,0,0.33736764,-230.10797,-360.56671)"
         clip-rule="evenodd"
         id="path84" />
    </clipPath>
    <clipPath
       clipPathUnits="userSpaceOnUse"
       id="clipPath86">
      <path
         d="m 3.125,9.375 h 993.75 v 2112.5 H 3.125 Z"
         transform="matrix(0.33736764,0,0,0.33736764,127.39203,7915.9323)"
         clip-rule="evenodd"
         id="path86" />
    </clipPath>
    <clipPath
       clipPathUnits="userSpaceOnUse"
       id="clipPath88">
      <path
         d="m 3.125,9.375 h 993.75 v 2112.5 H 3.125 Z"
         transform="matrix(0.33736764,0,0,0.33736764,127.39203,7915.9323)"
         clip-rule="evenodd"
         id="path88" />
    </clipPath>
    <clipPath
       clipPathUnits="userSpaceOnUse"
       id="clipPath90">
      <path
         d="m 3.125,9.375 h 993.75 v 2112.5 H 3.125 Z"
         transform="matrix(0.33736764,0,0,0.33736764,127.39203,7915.9323)"
         clip-rule="evenodd"
         id="path90" />
    </clipPath>
    <clipPath
       clipPathUnits="userSpaceOnUse"
       id="clipPath91">
      <path
         d="m 3.125,9.375 h 993.75 v 2112.5 H 3.125 Z"
         transform="matrix(0.33736764,0,0,0.33736764,-230.10797,-431.56671)"
         clip-rule="evenodd"
         id="path91" />
    </clipPath>
    <clipPath
       clipPathUnits="userSpaceOnUse"
       id="clipPath93">
      <path
         d="m 3.125,9.375 h 993.75 v 2112.5 H 3.125 Z"
         transform="matrix(0.33736764,0,0,0.33736764,127.39203,7915.9323)"
         clip-rule="evenodd"
         id="path93" />
    </clipPath>
    <clipPath
       clipPathUnits="userSpaceOnUse"
       id="clipPath95">
      <path
         d="m 3.125,9.375 h 993.75 v 2112.5 H 3.125 Z"
         transform="matrix(0.33736764,0,0,0.33736764,127.39203,7915.9323)"
         clip-rule="evenodd"
         id="path95" />
    </clipPath>
    <clipPath
       clipPathUnits="userSpaceOnUse"
       id="clipPath97">
      <path
         d="m 3.125,9.375 h 993.75 v 2112.5 H 3.125 Z"
         transform="matrix(0.33736764,0,0,0.33736764,127.39203,7915.9323)"
         clip-rule="evenodd"
         id="path97" />
    </clipPath>
    <clipPath
       clipPathUnits="userSpaceOnUse"
       id="clipPath99">
      <path
         d="m 3.125,9.375 h 993.75 v 2112.5 H 3.125 Z"
         transform="matrix(0.33736764,0,0,0.33736764,127.39203,7915.9323)"
         clip-rule="evenodd"
         id="path99" />
    </clipPath>
    <clipPath
       clipPathUnits="userSpaceOnUse"
       id="clipPath101">
      <path
         d="m 3.125,9.375 h 993.75 v 2112.5 H 3.125 Z"
         transform="matrix(0.33736764,0,0,0.33736764,127.89203,7916.4333)"
         clip-rule="evenodd"
         id="path101" />
    </clipPath>
    <clipPath
       clipPathUnits="userSpaceOnUse"
       id="clipPath102">
      <path
         d="m 3.125,9.375 h 993.75 v 2112.5 H 3.125 Z"
         transform="matrix(0.33736764,0,0,0.33736764,-115.71735,-334.5667)"
         clip-rule="evenodd"
         id="path102" />
    </clipPath>
    <clipPath
       clipPathUnits="userSpaceOnUse"
       id="clipPath104">
      <path
         d="m 3.125,9.375 h 993.75 v 2112.5 H 3.125 Z"
         transform="matrix(0.33736764,0,0,0.33736764,127.39203,7915.9323)"
         clip-rule="evenodd"
         id="path104" />
    </clipPath>
    <clipPath
       clipPathUnits="userSpaceOnUse"
       id="clipPath106">
      <path
         d="m 3.125,9.375 h 993.75 v 2112.5 H 3.125 Z"
         transform="matrix(0.33736764,0,0,0.33736764,127.39203,7915.9323)"
         clip-rule="evenodd"
         id="path106" />
    </clipPath>
    <clipPath
       clipPathUnits="userSpaceOnUse"
       id="clipPath108">
      <path
         d="m 3.125,9.375 h 993.75 v 2112.5 H 3.125 Z"
         transform="matrix(0.33736764,0,0,0.33736764,127.39203,7915.9323)"
         clip-rule="evenodd"
         id="path108" />
    </clipPath>
    <clipPath
       clipPathUnits="userSpaceOnUse"
       id="clipPath109">
      <path
         d="m 3.125,9.375 h 993.75 v 2112.5 H 3.125 Z"
         transform="matrix(0.33736764,0,0,0.33736764,-193.92047,-683.5667)"
         clip-rule="evenodd"
         id="path109" />
    </clipPath>
    <clipPath
       clipPathUnits="userSpaceOnUse"
       id="clipPath110">
      <path
         d="m 3.125,9.375 h 993.75 v 2112.5 H 3.125 Z"
         transform="matrix(0.33736764,0,0,0.33736764,-192.59235,-702.56671)"
         clip-rule="evenodd"
         id="path110" />
    </clipPath>
    <clipPath
       clipPathUnits="userSpaceOnUse"
       id="clipPath112">
      <path
         d="m 3.125,9.375 h 993.75 v 2112.5 H 3.125 Z"
         transform="matrix(0.33736764,0,0,0.33736764,127.39203,7915.9323)"
         clip-rule="evenodd"
         id="path112" />
    </clipPath>
    <clipPath
       clipPathUnits="userSpaceOnUse"
       id="clipPath113">
      <path
         d="m 3.125,9.375 h 993.75 v 2112.5 H 3.125 Z"
         transform="matrix(0.33736764,0,0,0.33736764,-182.73297,-651.56671)"
         clip-rule="evenodd"
         id="path113" />
    </clipPath>
    <clipPath
       clipPathUnits="userSpaceOnUse"
       id="clipPath115">
      <path
         d="m 3.125,9.375 h 993.75 v 2112.5 H 3.125 Z"
         transform="matrix(0.33736764,0,0,0.33736764,127.39203,7915.9323)"
         clip-rule="evenodd"
         id="path115" />
    </clipPath>
    <clipPath
       clipPathUnits="userSpaceOnUse"
       id="clipPath117">
      <path
         d="m 3.125,9.375 h 993.75 v 2112.5 H 3.125 Z"
         transform="matrix(0.33736764,0,0,0.33736764,127.39203,7915.9323)"
         clip-rule="evenodd"
         id="path117" />
    </clipPath>
    <clipPath
       clipPathUnits="userSpaceOnUse"
       id="clipPath119">
      <path
         d="m 3.125,9.375 h 993.75 v 2112.5 H 3.125 Z"
         transform="matrix(0.33736764,0,0,0.33736764,127.89203,7916.4333)"
         clip-rule="evenodd"
         id="path119" />
    </clipPath>
    <clipPath
       clipPathUnits="userSpaceOnUse"
       id="clipPath120">
      <path
         d="m 3.125,9.375 h 993.75 v 2112.5 H 3.125 Z"
         transform="matrix(0.33736764,0,0,0.33736764,-254.10798,-589.56671)"
         clip-rule="evenodd"
         id="path120" />
    </clipPath>
    <clipPath
       clipPathUnits="userSpaceOnUse"
       id="clipPath122">
      <path
         d="m 3.125,9.375 h 993.75 v 2112.5 H 3.125 Z"
         transform="matrix(0.33736764,0,0,0.33736764,127.39203,7915.9323)"
         clip-rule="evenodd"
         id="path122" />
    </clipPath>
    <clipPath
       clipPathUnits="userSpaceOnUse"
       id="clipPath123">
      <path
         d="m 3.125,9.375 h 993.75 v 2112.5 H 3.125 Z"
         transform="matrix(0.33736764,0,0,0.33736764,-264.10797,-562.5667)"
         clip-rule="evenodd"
         id="path123" />
    </clipPath>
  </defs>
  <g
     id="g1">
    <path
       id="path1"
       d="M 0,0 H 320 V 682 H 0 Z"
       style="fill:#ffffff;fill-opacity:1;fill-rule:nonzero;stroke:none"
       clip-path="url(#clipPath2)" />
    <path
       id="path3"
       d="m 185,7921.1499 h 270 c 0.66299,0 1.30078,0.1265 1.91336,0.3799 0.61258,0.2539 1.15329,0.6152 1.62213,1.0845 0.46881,0.4682 0.83011,1.0087 1.08386,1.6215 0.25373,0.6128 0.38062,1.2505 0.38065,1.9141 L 460,8525 c -3e-5,0.6631 -0.12692,1.2998 -0.38065,1.9121 -0.25375,0.6123 -0.61505,1.1533 -1.08386,1.6231 -0.46884,0.4687 -1.00955,0.83 -1.62213,1.0839 C 456.30078,8529.873 455.66299,8530 455,8530 H 185 c -0.66306,0 -1.30087,-0.127 -1.91344,-0.3809 -0.61256,-0.2539 -1.15327,-0.6152 -1.6221,-1.0839 -0.46885,-0.4698 -0.83014,-1.0108 -1.08388,-1.6231 C 180.12686,8526.2998 180,8525.6631 180,8525 v -598.8501 c 0,-0.6636 0.12686,-1.3018 0.3806,-1.9145 0.25372,-0.6128 0.61501,-1.1529 1.08386,-1.6211 0.46883,-0.4693 1.00954,-0.8306 1.6221,-1.084 0.61257,-0.2534 1.25038,-0.3804 1.91344,-0.3804 z"
       style="fill:#ffffff;fill-opacity:1;fill-rule:nonzero;stroke:#000000;stroke-width:1;stroke-linecap:butt;stroke-linejoin:miter;stroke-miterlimit:10;stroke-dasharray:none;stroke-opacity:1"
       transform="matrix(0.94852009,0,0,0.94852009,-120.8339,-7508.4208)"
       clip-path="url(#clipPath4)" />
    <text
       id="text4"
       xml:space="preserve"
       transform="matrix(0.94852009,0,0,0.94852009,161.17298,25.199056)"
       clip-path="url(#clipPath5)"><tspan
         id="tspan4"
         style="font-variant:normal;font-weight:normal;font-size:16px;font-family:Arial;writing-mode:lr-tb;fill:#000000;fill-opacity:1;fill-rule:nonzero;stroke:none"
         x="0"
         y="0">«part»</tspan></text>
    <text
       id="text5"
       xml:space="preserve"
       transform="matrix(0.94852009,0,0,0.94852009,157.39373,43.220937)"
       clip-path="url(#clipPath6)"><tspan
         id="tspan5"
         style="font-variant:normal;font-weight:normal;font-size:16px;font-family:Arial;writing-mode:lr-tb;fill:#000000;fill-opacity:1;fill-rule:nonzero;stroke:none"
         x="0"
         y="0">camera</tspan></text>
    <path
       id="path7"
       d="m 338.5,8091.0898 h 15 c 0.33148,0 0.65036,0.063 0.95663,0.1895 0.30628,0.1265 0.57663,0.3071 0.8111,0.542 0.23441,0.2339 0.41504,0.5039 0.54193,0.8105 0.12686,0.3067 0.19031,0.626 0.19034,0.958 v 15 c -3e-5,0.3306 -0.0635,0.6495 -0.19034,0.9556 -0.12689,0.3062 -0.30752,0.5767 -0.54193,0.8115 -0.23447,0.2344 -0.50482,0.4151 -0.8111,0.542 -0.30627,0.127 -0.62515,0.1905 -0.95663,0.1909 h -15 c -0.33154,-4e-4 -0.65045,-0.064 -0.95673,-0.1909 -0.3063,-0.1269 -0.57666,-0.3076 -0.81106,-0.542 -0.23441,-0.2348 -0.41507,-0.5053 -0.54196,-0.8115 -0.12686,-0.3061 -0.19028,-0.625 -0.19025,-0.9556 v -15 c -3e-5,-0.332 0.0634,-0.6513 0.19025,-0.958 0.12689,-0.3066 0.30755,-0.5766 0.54196,-0.8105 0.2344,-0.2349 0.50476,-0.4155 0.81106,-0.542 0.30628,-0.1265 0.62519,-0.1895 0.95673,-0.1895 z"
       style="fill:none;stroke:#000000;stroke-width:1;stroke-linecap:butt;stroke-linejoin:miter;stroke-miterlimit:10;stroke-dasharray:none;stroke-opacity:1"
       transform="matrix(0.94852009,0,0,0.94852009,-120.8339,-7508.4208)"
       clip-path="url(#clipPath8)" />
    <text
       id="text8"
       xml:space="preserve"
       transform="matrix(0.94852009,0,0,0.94852009,218.26203,179.80783)"
       clip-path="url(#clipPath9)"><tspan
         id="tspan8"
         style="font-variant:normal;font-weight:normal;font-size:12px;font-family:Arial;writing-mode:lr-tb;fill:#000000;fill-opacity:1;fill-rule:nonzero;stroke:none"
         x="0"
         y="0">scene : Scene</tspan></text>
    <path
       id="path10"
       d="m 338.5,8141.4399 h 15 c 0.33148,0 0.65036,0.063 0.95663,0.1895 0.30628,0.1265 0.57663,0.3071 0.8111,0.542 0.23441,0.2339 0.41504,0.5044 0.54193,0.8105 0.12686,0.3062 0.19031,0.6255 0.19034,0.958 v 15 c -3e-5,0.3306 -0.0635,0.6495 -0.19034,0.9556 -0.12689,0.3062 -0.30752,0.5767 -0.54193,0.8115 -0.23447,0.2344 -0.50482,0.4151 -0.8111,0.5415 -0.30627,0.127 -0.62515,0.191 -0.95663,0.1914 h -15 c -0.33154,-4e-4 -0.65045,-0.064 -0.95673,-0.1914 -0.3063,-0.1264 -0.57666,-0.3071 -0.81106,-0.5415 -0.23441,-0.2348 -0.41507,-0.5053 -0.54196,-0.8115 -0.12686,-0.3061 -0.19028,-0.625 -0.19025,-0.9556 v -15 c -3e-5,-0.3325 0.0634,-0.6513 0.19025,-0.9575 0.12689,-0.3066 0.30755,-0.5771 0.54196,-0.811 0.2344,-0.2349 0.50476,-0.4155 0.81106,-0.542 0.30628,-0.1265 0.62519,-0.1895 0.95673,-0.1895 z"
       style="fill:none;stroke:#000000;stroke-width:1;stroke-linecap:butt;stroke-linejoin:miter;stroke-miterlimit:10;stroke-dasharray:none;stroke-opacity:1"
       transform="matrix(0.94852009,0,0,0.94852009,-120.8339,-7508.4208)"
       clip-path="url(#clipPath11)" />
    <text
       id="text11"
       xml:space="preserve"
       transform="matrix(0.94852009,0,0,0.94852009,218.26203,227.23383)"
       clip-path="url(#clipPath12)"><tspan
         id="tspan11"
         style="font-variant:normal;font-weight:normal;font-size:12px;font-family:Arial;writing-mode:lr-tb;fill:#000000;fill-opacity:1;fill-rule:nonzero;stroke:none"
         x="0"
         y="0">scene</tspan></text>
    <path
       id="path13"
       d="m 346,8141.4399 v 16.7603"
       style="fill:none;stroke:#000000;stroke-width:1;stroke-linecap:butt;stroke-linejoin:miter;stroke-miterlimit:10;stroke-dasharray:none;stroke-opacity:1"
       transform="matrix(0.94852009,0,0,0.94852009,-120.8339,-7508.4208)"
       clip-path="url(#clipPath14)" />
    <path
       id="path15"
       d="m 342,8151.3198 4,8 4,-8"
       style="fill:none;stroke:#000000;stroke-width:1;stroke-linecap:butt;stroke-linejoin:miter;stroke-miterlimit:10;stroke-dasharray:none;stroke-opacity:1"
       transform="matrix(0.94852009,0,0,0.94852009,-120.8339,-7508.4208)"
       clip-path="url(#clipPath16)" />
    <path
       id="path17"
       d="m 346,8141.4399 v -30.3501"
       style="fill:none;stroke:#000000;stroke-width:1;stroke-linecap:butt;stroke-linejoin:miter;stroke-miterlimit:10;stroke-dasharray:none;stroke-opacity:1"
       transform="matrix(0.94852009,0,0,0.94852009,-120.8339,-7508.4208)"
       clip-path="url(#clipPath18)" />
    <path
       id="path19"
       d="m 348,8118 h 7 v 15 h -7 z"
       style="fill:#ffffff;fill-opacity:1;fill-rule:nonzero;stroke:none"
       transform="matrix(0.94852009,0,0,0.94852009,-121.30816,-7508.896)"
       clip-path="url(#clipPath20)" />
    <text
       id="text20"
       xml:space="preserve"
       transform="matrix(0.94852009,0,0,0.94852009,208.77683,201.62379)"
       clip-path="url(#clipPath21)"><tspan
         id="tspan20"
         style="font-variant:normal;font-weight:normal;font-size:12px;font-family:Arial;writing-mode:lr-tb;fill:#000000;fill-opacity:1;fill-rule:nonzero;stroke:none"
         x="0"
         y="0">=</tspan></text>
    <path
       id="path22"
       d="m 338.5,8372.9004 h 15 c 0.33148,0 0.65036,0.064 0.95663,0.1894 0.30628,0.127 0.57663,0.3077 0.8111,0.542 0.23441,0.2334 0.41504,0.5039 0.54193,0.8106 0.12686,0.3066 0.19031,0.626 0.19034,0.958 v 15 c -3e-5,0.331 -0.0635,0.6494 -0.19034,0.956 -0.12689,0.3057 -0.30752,0.5762 -0.54193,0.8116 -0.23447,0.2334 -0.50482,0.414 -0.8111,0.541 -0.30627,0.1269 -0.62515,0.1904 -0.95663,0.1914 h -15 c -0.33154,0 -0.65045,-0.065 -0.95673,-0.1914 -0.3063,-0.127 -0.57666,-0.3076 -0.81106,-0.541 -0.23441,-0.2354 -0.41507,-0.5059 -0.54196,-0.8116 -0.12686,-0.3066 -0.19028,-0.625 -0.19025,-0.956 v -15 c -3e-5,-0.332 0.0634,-0.6514 0.19025,-0.958 0.12689,-0.3067 0.30755,-0.5772 0.54196,-0.8106 0.2344,-0.2343 0.50476,-0.415 0.81106,-0.542 0.30628,-0.1259 0.62519,-0.1894 0.95673,-0.1894 z"
       style="fill:none;stroke:#000000;stroke-width:1;stroke-linecap:butt;stroke-linejoin:miter;stroke-miterlimit:10;stroke-dasharray:none;stroke-opacity:1"
       transform="matrix(0.94852009,0,0,0.94852009,-120.8339,-7508.4208)"
       clip-path="url(#clipPath23)" />
    <text
       id="text23"
       xml:space="preserve"
       transform="matrix(0.94852009,0,0,0.94852009,218.26203,447.2905)"
       clip-path="url(#clipPath24)"><tspan
         id="tspan23"
         style="font-variant:normal;font-weight:normal;font-size:12px;font-family:Arial;writing-mode:lr-tb;fill:#000000;fill-opacity:1;fill-rule:nonzero;stroke:none"
         x="0"
         y="0">picture</tspan></text>
    <path
       id="path25"
       d="m 346,8372.9004 v 17.7598"
       style="fill:none;stroke:#000000;stroke-width:1;stroke-linecap:butt;stroke-linejoin:miter;stroke-miterlimit:10;stroke-dasharray:none;stroke-opacity:1"
       transform="matrix(0.94852009,0,0,0.94852009,-120.8339,-7508.4208)"
       clip-path="url(#clipPath26)" />
    <path
       id="path27"
       d="m 342,8383.7803 4,8 4,-8"
       style="fill:none;stroke:#000000;stroke-width:1;stroke-linecap:butt;stroke-linejoin:miter;stroke-miterlimit:10;stroke-dasharray:none;stroke-opacity:1"
       transform="matrix(0.94852009,0,0,0.94852009,-120.8339,-7508.4208)"
       clip-path="url(#clipPath28)" />
    <path
       id="path29"
       d="m 373,8519.5098 h 14 c 0.3978,0 0.78046,0.076 1.14798,0.2275 0.36752,0.1523 0.69196,0.3691 0.9733,0.6504 0.28128,0.2812 0.49807,0.6055 0.65033,0.9736 0.15222,0.3672 0.22836,0.75 0.22839,1.1485 v 14.2597 c -3e-5,0.3975 -0.0762,0.7793 -0.22839,1.1475 -0.15226,0.3672 -0.36905,0.6914 -0.65033,0.9736 -0.28134,0.2813 -0.60578,0.4981 -0.9733,0.6504 -0.36752,0.1514 -0.75018,0.2276 -1.14798,0.2285 h -14 c -0.39786,-9e-4 -0.78055,-0.077 -1.1481,-0.2285 -0.36756,-0.1523 -0.69196,-0.3691 -0.97324,-0.6504 -0.28131,-0.2822 -0.49808,-0.6064 -0.65033,-0.9736 -0.15225,-0.3682 -0.22836,-0.75 -0.22833,-1.1475 v -14.2597 c -3e-5,-0.3985 0.0761,-0.7813 0.22833,-1.1494 0.15225,-0.3672 0.36902,-0.6915 0.65033,-0.9727 0.28128,-0.2813 0.60568,-0.4981 0.97324,-0.6504 0.36755,-0.1514 0.75024,-0.2275 1.1481,-0.2275 z"
       style="fill:#ffffff;fill-opacity:1;fill-rule:nonzero;stroke:#000000;stroke-width:1;stroke-linecap:butt;stroke-linejoin:miter;stroke-miterlimit:10;stroke-dasharray:none;stroke-opacity:1"
       transform="matrix(0.94852009,0,0,0.94852009,-120.8339,-7508.4208)"
       clip-path="url(#clipPath30)" />
    <text
       id="text30"
       xml:space="preserve"
       transform="matrix(0.94852009,0,0,0.94852009,248.61468,597.15667)"
       clip-path="url(#clipPath31)"><tspan
         id="tspan30"
         style="font-variant:normal;font-weight:normal;font-size:12px;font-family:Arial;writing-mode:lr-tb;fill:#000000;fill-opacity:1;fill-rule:nonzero;stroke:none"
         x="0"
         y="0">displayPort</tspan></text>
    <path
       id="path32"
       d="m 372.5,7999 h 15 c 0.33148,0 0.65036,0.063 0.95663,0.1895 0.30631,0.1264 0.57666,0.3071 0.8111,0.5419 0.23441,0.2339 0.41504,0.5044 0.5419,0.8106 0.12686,0.3066 0.19034,0.626 0.19037,0.958 v 15 c -3e-5,0.3306 -0.0635,0.6494 -0.19037,0.9556 -0.12686,0.3061 -0.30749,0.5766 -0.5419,0.8115 -0.23444,0.2344 -0.50479,0.415 -0.81106,0.542 -0.30631,0.1264 -0.62519,0.1904 -0.95667,0.1909 h -15 c -0.33154,-5e-4 -0.65045,-0.065 -0.95676,-0.1909 -0.30627,-0.127 -0.57663,-0.3076 -0.81103,-0.542 -0.23444,-0.2349 -0.41507,-0.5054 -0.54193,-0.8115 -0.12686,-0.3062 -0.19031,-0.625 -0.19028,-0.9556 v -15 c -3e-5,-0.332 0.0634,-0.6514 0.19028,-0.958 0.12686,-0.3062 0.30749,-0.5767 0.54193,-0.8106 0.2344,-0.2348 0.50476,-0.4155 0.81103,-0.5419 C 371.84955,7999.063 372.16846,7999 372.5,7999 Z"
       style="fill:none;stroke:#000000;stroke-width:1;stroke-linecap:butt;stroke-linejoin:miter;stroke-miterlimit:10;stroke-dasharray:none;stroke-opacity:1"
       transform="matrix(0.94852009,0,0,0.94852009,-120.8339,-7508.4208)"
       clip-path="url(#clipPath33)" />
    <text
       id="text33"
       xml:space="preserve"
       transform="matrix(0.94852009,0,0,0.94852009,250.51172,92.543982)"
       clip-path="url(#clipPath34)"><tspan
         id="tspan33"
         style="font-variant:normal;font-weight:normal;font-size:12px;font-family:Arial;writing-mode:lr-tb;fill:#000000;fill-opacity:1;fill-rule:nonzero;stroke:none"
         x="0"
         y="0">receiver</tspan></text>
    <path
       id="path35"
       d="m 173,7974 h 14 c 0.39781,0 0.78049,0.076 1.14804,0.228 0.36754,0.1519 0.69196,0.3682 0.97327,0.6499 0.28129,0.2808 0.49807,0.605 0.65031,0.9727 0.15224,0.3677 0.22836,0.751 0.22838,1.1494 v 14 c -2e-5,0.397 -0.0761,0.7793 -0.22838,1.147 -0.15224,0.3676 -0.36902,0.6919 -0.65031,0.9736 -0.28131,0.2808 -0.60573,0.4976 -0.97327,0.6499 -0.36755,0.1524 -0.75023,0.229 -1.14804,0.2295 h -14 c -0.39784,-5e-4 -0.78053,-0.077 -1.14807,-0.2295 -0.36754,-0.1523 -0.69196,-0.3691 -0.97325,-0.6499 -0.28131,-0.2817 -0.4981,-0.606 -0.65033,-0.9736 -0.15224,-0.3677 -0.22837,-0.75 -0.22835,-1.147 v -14 c -2e-5,-0.3984 0.0761,-0.7812 0.22835,-1.1489 0.15223,-0.3682 0.36902,-0.6924 0.65033,-0.9732 0.28129,-0.2817 0.60571,-0.498 0.97325,-0.6499 0.36754,-0.1518 0.75023,-0.228 1.14807,-0.228 z"
       style="fill:#ffffff;fill-opacity:1;fill-rule:nonzero;stroke:#000000;stroke-width:1;stroke-linecap:butt;stroke-linejoin:miter;stroke-miterlimit:10;stroke-dasharray:none;stroke-opacity:1"
       transform="matrix(0.94852009,0,0,0.94852009,-120.8339,-7508.4208)"
       clip-path="url(#clipPath36)" />
    <text
       id="text36"
       xml:space="preserve"
       transform="matrix(0.94852009,0,0,0.94852009,2.9331528,84.955821)"
       clip-path="url(#clipPath37)"><tspan
         id="tspan36"
         style="font-variant:normal;font-weight:normal;font-size:12px;font-family:Arial;writing-mode:lr-tb;fill:#000000;fill-opacity:1;fill-rule:nonzero;stroke:none"
         x="0"
         y="0">viewPort</tspan></text>
    <path
       id="path38"
       d="m 380,7999 v -14.7998 H 280 L 190,7984"
       style="fill:none;stroke:#000000;stroke-width:1;stroke-linecap:butt;stroke-linejoin:miter;stroke-miterlimit:10;stroke-dasharray:none;stroke-opacity:1"
       transform="matrix(0.94852009,0,0,0.94852009,-120.8339,-7508.4208)"
       clip-path="url(#clipPath39)" />
    <path
       id="path40"
       d="m 290,7985 h 7 v 13 h -7 z"
       style="fill:#ffffff;fill-opacity:1;fill-rule:nonzero;stroke:none"
       transform="matrix(0.94852009,0,0,0.94852009,-121.30816,-7508.896)"
       clip-path="url(#clipPath41)" />
    <text
       id="text41"
       xml:space="preserve"
       transform="matrix(0.94852009,0,0,0.94852009,154.02944,74.5221)"
       clip-path="url(#clipPath42)"><tspan
         id="tspan41"
         style="font-variant:normal;font-weight:normal;font-size:11px;font-family:Arial;writing-mode:lr-tb;fill:#000000;fill-opacity:1;fill-rule:nonzero;stroke:none"
         x="0"
         y="0">=</tspan></text>
    <path
       id="path43"
       d="M 180,7969.7798 H 460"
       style="fill:none;stroke:#000000;stroke-width:1;stroke-linecap:butt;stroke-linejoin:miter;stroke-miterlimit:10;stroke-dasharray:none;stroke-opacity:1"
       transform="matrix(0.94852009,0,0,0.94852009,-120.8339,-7508.4208)"
       clip-path="url(#clipPath44)" />
    <path
       id="path45"
       d="M 346,8372.9004 V 8353.25"
       style="fill:none;stroke:#000000;stroke-width:1;stroke-linecap:butt;stroke-linejoin:miter;stroke-miterlimit:10;stroke-dasharray:none;stroke-opacity:1"
       transform="matrix(0.94852009,0,0,0.94852009,-120.8339,-7508.4208)"
       clip-path="url(#clipPath46)" />
    <path
       id="path47"
       d="m 348,8356 h 7 v 15 h -7 z"
       style="fill:#ffffff;fill-opacity:1;fill-rule:nonzero;stroke:none"
       transform="matrix(0.94852009,0,0,0.94852009,-121.30816,-7508.896)"
       clip-path="url(#clipPath48)" />
    <text
       id="text48"
       xml:space="preserve"
       transform="matrix(0.94852009,0,0,0.94852009,208.77683,427.37157)"
       clip-path="url(#clipPath49)"><tspan
         id="tspan48"
         style="font-variant:normal;font-weight:normal;font-size:12px;font-family:Arial;writing-mode:lr-tb;fill:#000000;fill-opacity:1;fill-rule:nonzero;stroke:none"
         x="0"
         y="0">=</tspan></text>
    <path
       id="path50"
       d="m 215,8393.1602 h 202.41 c 0.663,0 1.30078,0.1269 1.91336,0.3798 0.61258,0.253 1.15329,0.6143 1.62217,1.084 0.46881,0.4688 0.83007,1.0098 1.08383,1.6221 0.25375,0.6123 0.38061,1.251 0.38064,1.9141 v 60.9296 c -3e-5,0.6622 -0.12689,1.2998 -0.38064,1.9122 -0.25376,0.6123 -0.61502,1.1533 -1.08383,1.623 -0.46888,0.4688 -1.00959,0.8301 -1.62217,1.084 -0.61258,0.2529 -1.25036,0.3799 -1.91336,0.3808 H 215 c -0.66304,-9e-4 -1.30086,-0.1279 -1.91342,-0.3808 -0.61258,-0.2539 -1.15329,-0.6152 -1.62212,-1.084 -0.46885,-0.4697 -0.83015,-1.0107 -1.08389,-1.623 -0.25372,-0.6124 -0.38059,-1.25 -0.38057,-1.9122 v -60.9296 c -2e-5,-0.6631 0.12685,-1.3018 0.38058,-1.9141 0.25374,-0.6123 0.61503,-1.1533 1.08388,-1.6221 0.46883,-0.4697 1.00954,-0.831 1.6221,-1.084 0.61258,-0.2529 1.2504,-0.3798 1.91344,-0.3798 z"
       style="fill:#ffffff;fill-opacity:1;fill-rule:nonzero;stroke:#000000;stroke-width:1;stroke-linecap:butt;stroke-linejoin:miter;stroke-miterlimit:10;stroke-dasharray:none;stroke-opacity:1"
       transform="matrix(0.94852009,0,0,0.94852009,-120.8339,-7508.4208)"
       clip-path="url(#clipPath51)" />
    <text
       id="text51"
       xml:space="preserve"
       transform="matrix(0.94852009,0,0,0.94852009,131.16122,472.90054)"
       clip-path="url(#clipPath52)"><tspan
         id="tspan51"
         style="font-variant:normal;font-weight:normal;font-size:16px;font-family:Arial;writing-mode:lr-tb;fill:#000000;fill-opacity:1;fill-rule:nonzero;stroke:none"
         x="0"
         y="0">«send action»</tspan></text>
    <text
       id="text52"
       xml:space="preserve"
       transform="matrix(0.94852009,0,0,0.94852009,138.3344,490.92242)"
       clip-path="url(#clipPath53)"><tspan
         id="tspan52"
         style="font-variant:normal;font-weight:normal;font-size:16px;font-family:Arial;writing-mode:lr-tb;fill:#000000;fill-opacity:1;fill-rule:nonzero;stroke:none"
         x="0"
         y="0">sendPicture</tspan></text>
    <path
       id="path54"
       d="m 217.72,8401.2598 h 12.41 l 3.04,5.0703 -3.04,5.0703 h -12.41 z"
       style="fill:#000000;fill-opacity:1;fill-rule:nonzero;stroke:#000000;stroke-width:1;stroke-linecap:butt;stroke-linejoin:miter;stroke-miterlimit:10;stroke-dasharray:none;stroke-opacity:1"
       transform="matrix(0.94852009,0,0,0.94852009,-120.8339,-7508.4208)"
       clip-path="url(#clipPath55)" />
    <path
       id="path56"
       d="m 215,8019.1499 h 202.41 c 0.663,0 1.30078,0.1265 1.91336,0.3799 0.61258,0.2534 1.15329,0.6147 1.62217,1.084 0.46881,0.4682 0.83007,1.0092 1.08383,1.622 0.25375,0.6123 0.38061,1.2505 0.38064,1.9141 v 61.9399 c -3e-5,0.6626 -0.12689,1.2998 -0.38064,1.9126 -0.25376,0.6123 -0.61502,1.1529 -1.08383,1.6221 -0.46888,0.4683 -1.00959,0.8296 -1.62217,1.0835 -0.61258,0.2539 -1.25036,0.3814 -1.91336,0.3818 H 215 c -0.66304,-4e-4 -1.30086,-0.1279 -1.91342,-0.3818 -0.61258,-0.2539 -1.15329,-0.6152 -1.62212,-1.0835 -0.46885,-0.4692 -0.83015,-1.0098 -1.08389,-1.6225 -0.25372,-0.6124 -0.38059,-1.2496 -0.38057,-1.9122 v -61.9399 c -2e-5,-0.6636 0.12685,-1.3018 0.38058,-1.9145 0.25374,-0.6128 0.61503,-1.1534 1.08388,-1.6216 0.46883,-0.4693 1.00954,-0.8306 1.6221,-1.084 0.61258,-0.2534 1.2504,-0.3799 1.91344,-0.3799 z"
       style="fill:#ffffff;fill-opacity:1;fill-rule:nonzero;stroke:#000000;stroke-width:1;stroke-linecap:butt;stroke-linejoin:miter;stroke-miterlimit:10;stroke-dasharray:none;stroke-opacity:1"
       transform="matrix(0.94852009,0,0,0.94852009,-120.8339,-7508.4208)"
       clip-path="url(#clipPath57)" />
    <text
       id="text57"
       xml:space="preserve"
       transform="matrix(0.94852009,0,0,0.94852009,125.26261,118.15402)"
       clip-path="url(#clipPath58)"><tspan
         id="tspan57"
         style="font-variant:normal;font-weight:normal;font-size:16px;font-family:Arial;writing-mode:lr-tb;fill:#000000;fill-opacity:1;fill-rule:nonzero;stroke:none"
         x="0"
         y="0">«accept action»</tspan></text>
    <text
       id="text58"
       xml:space="preserve"
       transform="matrix(0.94852009,0,0,0.94852009,156.90464,136.17591)"
       clip-path="url(#clipPath59)"><tspan
         id="tspan58"
         style="font-variant:normal;font-weight:normal;font-size:16px;font-family:Arial;writing-mode:lr-tb;fill:#000000;fill-opacity:1;fill-rule:nonzero;stroke:none"
         x="0"
         y="0">trigger</tspan></text>
    <text
       id="text59"
       xml:space="preserve"
       transform="matrix(0.94852009,0,0,0.94852009,142.33597,154.19779)"
       clip-path="url(#clipPath60)"><tspan
         id="tspan59"
         style="font-variant:normal;font-weight:normal;font-size:12px;font-family:Arial;writing-mode:lr-tb;fill:#000000;fill-opacity:1;fill-rule:nonzero;stroke:none"
         x="0"
         y="0">scene : Scene</tspan></text>
    <path
       id="path61"
       d="m 217.72,8027.2598 h 15.45 v 10.1303 h -15.45 l 3.03999,-5.0703 z"
       style="fill:#000000;fill-opacity:1;fill-rule:nonzero;stroke:#000000;stroke-width:1;stroke-linecap:butt;stroke-linejoin:miter;stroke-miterlimit:10;stroke-dasharray:none;stroke-opacity:1"
       transform="matrix(0.94852009,0,0,0.94852009,-120.8339,-7508.4208)"
       clip-path="url(#clipPath62)" />
    <path
       id="path63"
       d="m 215,8161 h 202.41 c 0.663,0 1.30078,0.127 1.91336,0.3804 0.61258,0.2534 1.15329,0.6142 1.62217,1.0835 0.46881,0.4682 0.83007,1.0092 1.08383,1.622 0.25375,0.6123 0.38061,1.2505 0.38064,1.9141 v 40.6602 c -3e-5,0.663 -0.12689,1.3007 -0.38064,1.913 -0.25376,0.6123 -0.61502,1.1524 -1.08383,1.6221 -0.46888,0.4678 -1.00959,0.8291 -1.62217,1.083 -0.61258,0.2539 -1.25036,0.3809 -1.91336,0.3819 H 215 c -0.66304,0 -1.30086,-0.128 -1.91342,-0.3819 -0.61258,-0.2539 -1.15329,-0.6152 -1.62212,-1.083 -0.46885,-0.4697 -0.83015,-1.0098 -1.08389,-1.6221 -0.25372,-0.6123 -0.38059,-1.25 -0.38057,-1.913 L 210,8166 c -2e-5,-0.6636 0.12685,-1.3018 0.38058,-1.9141 0.25374,-0.6128 0.61503,-1.1538 1.08388,-1.622 0.46883,-0.4693 1.00954,-0.8301 1.6221,-1.0835 C 213.69914,8161.127 214.33696,8161 215,8161 Z"
       style="fill:#ffffff;fill-opacity:1;fill-rule:nonzero;stroke:#000000;stroke-width:1;stroke-linecap:butt;stroke-linejoin:miter;stroke-miterlimit:10;stroke-dasharray:none;stroke-opacity:1"
       transform="matrix(0.94852009,0,0,0.94852009,-120.8339,-7508.4208)"
       clip-path="url(#clipPath64)" />
    <text
       id="text64"
       xml:space="preserve"
       transform="matrix(0.94852009,0,0,0.94852009,149.73146,252.84388)"
       clip-path="url(#clipPath65)"><tspan
         id="tspan64"
         style="font-variant:normal;font-weight:normal;font-size:16px;font-family:Arial;writing-mode:lr-tb;fill:#000000;fill-opacity:1;fill-rule:nonzero;stroke:none"
         x="0"
         y="0">«action»</tspan></text>
    <text
       id="text65"
       xml:space="preserve"
       transform="matrix(0.94852009,0,0,0.94852009,160.28374,270.86576)"
       clip-path="url(#clipPath66)"><tspan
         id="tspan65"
         style="font-variant:normal;font-weight:normal;font-size:16px;font-family:Arial;writing-mode:lr-tb;fill:#000000;fill-opacity:1;fill-rule:nonzero;stroke:none"
         x="0"
         y="0">focus</tspan></text>
    <path
       id="path67"
       d="m 263.60001,8091.0898 v 3 h -1 v -3 m 1,6 v 3 h -1 v -3 m 1,6 v 3 h -1 v -3 m 1,6 v 3 h -1 v -3 m 1,6 v 3 h -1 v -3 m 1,6 v 3 h -1 v -3 m 1,6 v 3 h -1 v -3 m 1,6 v 3 h -1 v -3 m 1,6 v 3 h -1 v -3 m 1,6 v 3 h -1 v -3 m 1,6 v 3 h -1 v -3 m 1,6 v 1.67 h -1 v -1.67"
       style="fill:#000000;fill-opacity:1;fill-rule:nonzero;stroke:none"
       transform="matrix(0.94852009,0,0,0.94852009,-120.8339,-7508.4208)"
       clip-path="url(#clipPath68)" />
    <path
       id="path69"
       d="m 258.60001,8150.8799 4.5,9 4.5,-9"
       style="fill:none;stroke:#000000;stroke-width:1;stroke-linecap:butt;stroke-linejoin:miter;stroke-miterlimit:10;stroke-dasharray:none;stroke-opacity:1"
       transform="matrix(0.94852009,0,0,0.94852009,-120.8339,-7508.4208)"
       clip-path="url(#clipPath70)" />
    <path
       id="path71"
       d="m 338.5,8211.6602 h 15 c 0.33148,0 0.65036,0.063 0.95663,0.1894 0.30628,0.127 0.57663,0.3076 0.8111,0.542 0.23441,0.2344 0.41504,0.5049 0.54193,0.8105 0.12686,0.3067 0.19031,0.626 0.19034,0.9581 v 15 c -3e-5,0.331 -0.0635,0.6494 -0.19034,0.955 -0.12689,0.3067 -0.30752,0.5772 -0.54193,0.8116 -0.23447,0.2334 -0.50482,0.414 -0.8111,0.542 -0.30627,0.1269 -0.62515,0.1904 -0.95663,0.1914 h -15 c -0.33154,0 -0.65045,-0.065 -0.95673,-0.1914 -0.3063,-0.128 -0.57666,-0.3086 -0.81106,-0.542 -0.23441,-0.2344 -0.41507,-0.5049 -0.54196,-0.8106 -0.12686,-0.3066 -0.19028,-0.625 -0.19025,-0.956 v -15 c -3e-5,-0.3321 0.0634,-0.6514 0.19025,-0.9581 0.12689,-0.3056 0.30755,-0.5761 0.54196,-0.8105 0.2344,-0.2344 0.50476,-0.415 0.81106,-0.542 0.30628,-0.126 0.62519,-0.1894 0.95673,-0.1894 z"
       style="fill:none;stroke:#000000;stroke-width:1;stroke-linecap:butt;stroke-linejoin:miter;stroke-miterlimit:10;stroke-dasharray:none;stroke-opacity:1"
       transform="matrix(0.94852009,0,0,0.94852009,-120.8339,-7508.4208)"
       clip-path="url(#clipPath72)" />
    <text
       id="text72"
       xml:space="preserve"
       transform="matrix(0.94852009,0,0,0.94852009,218.26203,294.57876)"
       clip-path="url(#clipPath73)"><tspan
         id="tspan72"
         style="font-variant:normal;font-weight:normal;font-size:12px;font-family:Arial;writing-mode:lr-tb;fill:#000000;fill-opacity:1;fill-rule:nonzero;stroke:none"
         x="0"
         y="0">image</tspan></text>
    <path
       id="path74"
       d="m 345.89001,8211.6602 v 17.7597"
       style="fill:none;stroke:#000000;stroke-width:1;stroke-linecap:butt;stroke-linejoin:miter;stroke-miterlimit:10;stroke-dasharray:none;stroke-opacity:1"
       transform="matrix(0.94852009,0,0,0.94852009,-120.8339,-7508.4208)"
       clip-path="url(#clipPath75)" />
    <path
       id="path76"
       d="m 341.89001,8222.54 4,8 4,-8"
       style="fill:none;stroke:#000000;stroke-width:1;stroke-linecap:butt;stroke-linejoin:miter;stroke-miterlimit:10;stroke-dasharray:none;stroke-opacity:1"
       transform="matrix(0.94852009,0,0,0.94852009,-120.8339,-7508.4208)"
       clip-path="url(#clipPath77)" />
    <path
       id="path78"
       d="m 215,8282.5898 h 202.41 c 0.663,0 1.30078,0.127 1.91336,0.3799 0.61258,0.2539 1.15329,0.6153 1.62217,1.084 0.46881,0.4688 0.83007,1.0098 1.08383,1.6221 0.25375,0.6123 0.38061,1.251 0.38064,1.914 v 40.6602 c -3e-5,0.6631 -0.12689,1.2998 -0.38064,1.9121 -0.25376,0.6123 -0.61502,1.1533 -1.08383,1.6231 -0.46888,0.4687 -1.00959,0.83 -1.62217,1.0839 -0.61258,0.2539 -1.25036,0.3809 -1.91336,0.3809 H 215 c -0.66304,0 -1.30086,-0.127 -1.91342,-0.3809 -0.61258,-0.2539 -1.15329,-0.6152 -1.62212,-1.0839 -0.46885,-0.4698 -0.83015,-1.0108 -1.08389,-1.6231 -0.25372,-0.6123 -0.38059,-1.249 -0.38057,-1.9121 v -40.6602 c -2e-5,-0.663 0.12685,-1.3017 0.38058,-1.914 0.25374,-0.6123 0.61503,-1.1533 1.08388,-1.6221 0.46883,-0.4687 1.00954,-0.8301 1.6221,-1.084 0.61258,-0.2529 1.2504,-0.3799 1.91344,-0.3799 z"
       style="fill:#ffffff;fill-opacity:1;fill-rule:nonzero;stroke:#000000;stroke-width:1;stroke-linecap:butt;stroke-linejoin:miter;stroke-miterlimit:10;stroke-dasharray:none;stroke-opacity:1"
       transform="matrix(0.94852009,0,0,0.94852009,-120.8339,-7508.4208)"
       clip-path="url(#clipPath79)" />
    <text
       id="text79"
       xml:space="preserve"
       transform="matrix(0.94852009,0,0,0.94852009,149.73146,368.56333)"
       clip-path="url(#clipPath80)"><tspan
         id="tspan79"
         style="font-variant:normal;font-weight:normal;font-size:16px;font-family:Arial;writing-mode:lr-tb;fill:#000000;fill-opacity:1;fill-rule:nonzero;stroke:none"
         x="0"
         y="0">«action»</tspan></text>
    <text
       id="text80"
       xml:space="preserve"
       transform="matrix(0.94852009,0,0,0.94852009,159.85395,386.58521)"
       clip-path="url(#clipPath81)"><tspan
         id="tspan80"
         style="font-variant:normal;font-weight:normal;font-size:16px;font-family:Arial;writing-mode:lr-tb;fill:#000000;fill-opacity:1;fill-rule:nonzero;stroke:none"
         x="0"
         y="0">shoot</tspan></text>
    <path
       id="path82"
       d="m 338.5,8262.3203 h 15 c 0.33148,0 0.65036,0.064 0.95663,0.1895 0.30628,0.1269 0.57663,0.3076 0.8111,0.542 0.23441,0.2343 0.41504,0.5048 0.54193,0.8105 0.12686,0.3066 0.19031,0.626 0.19034,0.958 v 15 c -3e-5,0.3311 -0.0635,0.6504 -0.19034,0.9561 -0.12689,0.3056 -0.30752,0.5752 -0.54193,0.8105 -0.23447,0.2344 -0.50482,0.4151 -0.8111,0.542 -0.30627,0.127 -0.62515,0.1904 -0.95663,0.1914 h -15 c -0.33154,0 -0.65045,-0.064 -0.95673,-0.1924 -0.3063,-0.1259 -0.57666,-0.3066 -0.81106,-0.541 -0.23441,-0.2353 -0.41507,-0.5049 -0.54196,-0.8105 -0.12686,-0.3057 -0.19028,-0.625 -0.19025,-0.9561 v -15 c -3e-5,-0.332 0.0634,-0.6514 0.19025,-0.958 0.12689,-0.3057 0.30755,-0.5762 0.54196,-0.8105 0.2344,-0.2344 0.50476,-0.4151 0.81106,-0.542 0.30628,-0.126 0.62519,-0.1895 0.95673,-0.1895 z"
       style="fill:none;stroke:#000000;stroke-width:1;stroke-linecap:butt;stroke-linejoin:miter;stroke-miterlimit:10;stroke-dasharray:none;stroke-opacity:1"
       transform="matrix(0.94852009,0,0,0.94852009,-120.8339,-7508.4208)"
       clip-path="url(#clipPath83)" />
    <text
       id="text83"
       xml:space="preserve"
       transform="matrix(0.94852009,0,0,0.94852009,218.26203,342.00477)"
       clip-path="url(#clipPath84)"><tspan
         id="tspan83"
         style="font-variant:normal;font-weight:normal;font-size:12px;font-family:Arial;writing-mode:lr-tb;fill:#000000;fill-opacity:1;fill-rule:nonzero;stroke:none"
         x="0"
         y="0">image</tspan></text>
    <path
       id="path85"
       d="m 345.89001,8262.3203 v 17.7695"
       style="fill:none;stroke:#000000;stroke-width:1;stroke-linecap:butt;stroke-linejoin:miter;stroke-miterlimit:10;stroke-dasharray:none;stroke-opacity:1"
       transform="matrix(0.94852009,0,0,0.94852009,-120.8339,-7508.4208)"
       clip-path="url(#clipPath86)" />
    <path
       id="path87"
       d="m 341.89001,8273.2002 4,8 4,-8"
       style="fill:none;stroke:#000000;stroke-width:1;stroke-linecap:butt;stroke-linejoin:miter;stroke-miterlimit:10;stroke-dasharray:none;stroke-opacity:1"
       transform="matrix(0.94852009,0,0,0.94852009,-120.8339,-7508.4208)"
       clip-path="url(#clipPath88)" />
    <path
       id="path89"
       d="m 338.5,8333.25 h 15 c 0.33148,0 0.65036,0.064 0.95663,0.1904 0.30628,0.127 0.57663,0.3076 0.8111,0.542 0.23441,0.2334 0.41504,0.5039 0.54193,0.8106 0.12686,0.3056 0.19031,0.625 0.19034,0.957 v 15 c -3e-5,0.3311 -0.0635,0.6494 -0.19034,0.9551 -0.12689,0.3066 -0.30752,0.5771 -0.54193,0.8125 -0.23447,0.2334 -0.50482,0.414 -0.8111,0.541 -0.30627,0.1269 -0.62515,0.1904 -0.95663,0.1914 h -15 c -0.33154,0 -0.65045,-0.065 -0.95673,-0.1914 -0.3063,-0.127 -0.57666,-0.3076 -0.81106,-0.541 -0.23441,-0.2354 -0.41507,-0.5059 -0.54196,-0.8115 -0.12686,-0.3067 -0.19028,-0.625 -0.19025,-0.9561 v -15 c -3e-5,-0.332 0.0634,-0.6514 0.19025,-0.958 0.12689,-0.3057 0.30755,-0.5762 0.54196,-0.8096 0.2344,-0.2344 0.50476,-0.415 0.81106,-0.5429 0.30628,-0.126 0.62519,-0.1895 0.95673,-0.1895 z"
       style="fill:none;stroke:#000000;stroke-width:1;stroke-linecap:butt;stroke-linejoin:miter;stroke-miterlimit:10;stroke-dasharray:none;stroke-opacity:1"
       transform="matrix(0.94852009,0,0,0.94852009,-120.8339,-7508.4208)"
       clip-path="url(#clipPath90)" />
    <text
       id="text90"
       xml:space="preserve"
       transform="matrix(0.94852009,0,0,0.94852009,218.26203,409.34969)"
       clip-path="url(#clipPath91)"><tspan
         id="tspan90"
         style="font-variant:normal;font-weight:normal;font-size:12px;font-family:Arial;writing-mode:lr-tb;fill:#000000;fill-opacity:1;fill-rule:nonzero;stroke:none"
         x="0"
         y="0">picture</tspan></text>
    <path
       id="path92"
       d="m 346,8333.25 v 17.7598"
       style="fill:none;stroke:#000000;stroke-width:1;stroke-linecap:butt;stroke-linejoin:miter;stroke-miterlimit:10;stroke-dasharray:none;stroke-opacity:1"
       transform="matrix(0.94852009,0,0,0.94852009,-120.8339,-7508.4208)"
       clip-path="url(#clipPath93)" />
    <path
       id="path94"
       d="m 342,8344.1299 4,8 4,-8"
       style="fill:none;stroke:#000000;stroke-width:1;stroke-linecap:butt;stroke-linejoin:miter;stroke-miterlimit:10;stroke-dasharray:none;stroke-opacity:1"
       transform="matrix(0.94852009,0,0,0.94852009,-120.8339,-7508.4208)"
       clip-path="url(#clipPath95)" />
    <path
       id="path96"
       d="m 346.5,8231.6602 v 3 h -1 v -3 m 1,6 v 3 h -1 v -3 m 1,6 v 3 h -1 v -3 m 1,6 v 3 h -1 v -3"
       style="fill:#000000;fill-opacity:1;fill-rule:nonzero;stroke:none"
       transform="matrix(0.94852009,0,0,0.94852009,-120.8339,-7508.4208)"
       clip-path="url(#clipPath97)" />
    <path
       id="path98"
       d="m 346,8261.2002 -3.5,-7 h 7 z"
       style="fill:#000000;fill-opacity:1;fill-rule:nonzero;stroke:#000000;stroke-width:1;stroke-linecap:butt;stroke-linejoin:miter;stroke-miterlimit:10;stroke-dasharray:none;stroke-opacity:1"
       transform="matrix(0.94852009,0,0,0.94852009,-120.8339,-7508.4208)"
       clip-path="url(#clipPath99)" />
    <path
       id="path100"
       d="m 244,8240 h 97 v 15 h -97 z"
       style="fill:#ffffff;fill-opacity:1;fill-rule:nonzero;stroke:none"
       transform="matrix(0.94852009,0,0,0.94852009,-121.30816,-7508.896)"
       clip-path="url(#clipPath101)" />
    <text
       id="text101"
       xml:space="preserve"
       transform="matrix(0.94852009,0,0,0.94852009,109.76023,317.34324)"
       clip-path="url(#clipPath102)"><tspan
         id="tspan101"
         style="font-variant:normal;font-weight:normal;font-size:12px;font-family:Arial;writing-mode:lr-tb;fill:#000000;fill-opacity:1;fill-rule:nonzero;stroke:none"
         x="0"
         y="0">«succession flow»</tspan></text>
    <path
       id="path103"
       d="m 263.60001,8333.25 v 3 h -1 v -3 m 1,6 v 3 h -1 v -3 m 1,6 v 3 h -1 v -3 m 1,6 v 3 h -1 v -3 m 1,6 v 3 h -1 v -3 m 1,6 v 3 h -1 v -3 m 1,6 v 3 h -1 v -3 m 1,6 v 3 h -1 v -3 m 1,6 v 3 h -1 v -3 m 1,6 v 3 h -1 v -3"
       style="fill:#000000;fill-opacity:1;fill-rule:nonzero;stroke:none"
       transform="matrix(0.94852009,0,0,0.94852009,-120.8339,-7508.4208)"
       clip-path="url(#clipPath104)" />
    <path
       id="path105"
       d="m 258.60001,8383.04 4.5,9 4.5,-9"
       style="fill:none;stroke:#000000;stroke-width:1;stroke-linecap:butt;stroke-linejoin:miter;stroke-miterlimit:10;stroke-dasharray:none;stroke-opacity:1"
       transform="matrix(0.94852009,0,0,0.94852009,-120.8339,-7508.4208)"
       clip-path="url(#clipPath106)" />
    <path
       id="path107"
       d="m 281.54999,8578.3398 h 125.16998 c 0.66303,0 1.30081,0.127 1.91339,0.3809 0.61258,0.2529 1.15329,0.6133 1.62213,1.083 0.46881,0.4688 0.83011,1.0098 1.08387,1.6221 0.25372,0.6123 0.38058,1.251 0.38061,1.914 V 8624 c -3e-5,0.6631 -0.12689,1.3008 -0.38065,1.9131 -0.25375,0.6123 -0.61502,1.1533 -1.08383,1.6221 -0.46884,0.4677 -1.00958,0.8291 -1.62216,1.083 -0.61255,0.2539 -1.25033,0.3808 -1.91336,0.3818 H 281.54999 c -0.66306,0 -1.30088,-0.1279 -1.91345,-0.3818 -0.61258,-0.2539 -1.15329,-0.6153 -1.62211,-1.083 -0.46884,-0.4688 -0.83013,-1.0098 -1.08389,-1.6221 -0.25372,-0.6123 -0.38058,-1.25 -0.38055,-1.9131 v -40.6602 c -3e-5,-0.663 0.12683,-1.3017 0.38055,-1.914 0.25376,-0.6123 0.61505,-1.1533 1.08389,-1.6221 0.46882,-0.4697 1.00953,-0.8301 1.62211,-1.083 0.61257,-0.2539 1.25039,-0.3809 1.91345,-0.3809 z"
       style="fill:#ffffff;fill-opacity:1;fill-rule:nonzero;stroke:#000000;stroke-width:1;stroke-linecap:butt;stroke-linejoin:miter;stroke-miterlimit:10;stroke-dasharray:none;stroke-opacity:1"
       transform="matrix(0.94852009,0,0,0.94852009,-120.8339,-7508.4208)"
       clip-path="url(#clipPath108)" />
    <text
       id="text108"
       xml:space="preserve"
       transform="matrix(0.94852009,0,0,0.94852009,183.93746,648.37675)"
       clip-path="url(#clipPath109)"><tspan
         id="tspan108"
         style="font-variant:normal;font-weight:normal;font-size:16px;font-family:Arial;writing-mode:lr-tb;fill:#000000;fill-opacity:1;fill-rule:nonzero;stroke:none"
         x="0"
         y="0">«part»</tspan></text>
    <text
       id="text109"
       xml:space="preserve"
       transform="matrix(0.94852009,0,0,0.94852009,182.67771,666.39864)"
       clip-path="url(#clipPath110)"><tspan
         id="tspan109"
         style="font-variant:normal;font-weight:normal;font-size:16px;font-family:Arial;writing-mode:lr-tb;fill:#000000;fill-opacity:1;fill-rule:nonzero;stroke:none"
         x="0"
         y="0">screen</tspan></text>
    <path
       id="path111"
       d="m 373,8568.21 h 14 c 0.3978,0 0.78046,0.076 1.14798,0.2285 0.36752,0.1513 0.69196,0.3681 0.9733,0.6494 0.28128,0.2812 0.49807,0.6055 0.65033,0.9726 0.15222,0.3682 0.22836,0.752 0.22839,1.1495 v 14.2597 c -3e-5,0.3975 -0.0762,0.7803 -0.22839,1.1465 -0.15226,0.3682 -0.36905,0.6924 -0.65033,0.9736 -0.28134,0.2813 -0.60578,0.4981 -0.9733,0.6504 -0.36752,0.1514 -0.75018,0.2286 -1.14798,0.2295 h -14 c -0.39786,-9e-4 -0.78055,-0.078 -1.1481,-0.2295 -0.36756,-0.1523 -0.69196,-0.3691 -0.97324,-0.6504 -0.28131,-0.2812 -0.49808,-0.6054 -0.65033,-0.9736 -0.15225,-0.3662 -0.22836,-0.749 -0.22833,-1.1465 V 8571.21 c -3e-5,-0.3975 0.0761,-0.7813 0.22833,-1.1495 0.15225,-0.3671 0.36902,-0.6914 0.65033,-0.9726 0.28128,-0.2813 0.60568,-0.4981 0.97324,-0.6504 0.36755,-0.1514 0.75024,-0.2275 1.1481,-0.2275 z"
       style="fill:#ffffff;fill-opacity:1;fill-rule:nonzero;stroke:#000000;stroke-width:1;stroke-linecap:butt;stroke-linejoin:miter;stroke-miterlimit:10;stroke-dasharray:none;stroke-opacity:1"
       transform="matrix(0.94852009,0,0,0.94852009,-120.8339,-7508.4208)"
       clip-path="url(#clipPath112)" />
    <text
       id="text112"
       xml:space="preserve"
       transform="matrix(0.94852009,0,0,0.94852009,173.32589,618.02411)"
       clip-path="url(#clipPath113)"><tspan
         id="tspan112"
         style="font-variant:normal;font-weight:normal;font-size:12px;font-family:Arial;writing-mode:lr-tb;fill:#000000;fill-opacity:1;fill-rule:nonzero;stroke:none"
         x="0"
         y="0">displayPort</tspan></text>
    <path
       id="path114"
       d="m 380,8568.21 v -28.4297"
       style="fill:none;stroke:#000000;stroke-width:1;stroke-linecap:butt;stroke-linejoin:miter;stroke-miterlimit:10;stroke-dasharray:none;stroke-opacity:1"
       transform="matrix(0.94852009,0,0,0.94852009,-120.8339,-7508.4208)"
       clip-path="url(#clipPath115)" />
    <path
       id="path116"
       d="m 380,8484.0801 v 35.4297"
       style="fill:none;stroke:#000000;stroke-width:1;stroke-linecap:butt;stroke-linejoin:miter;stroke-miterlimit:10;stroke-dasharray:none;stroke-opacity:1"
       transform="matrix(0.94852009,0,0,0.94852009,-120.8339,-7508.4208)"
       clip-path="url(#clipPath117)" />
    <path
       id="path118"
       d="m 382,8496 h 6 v 13 h -6 z"
       style="fill:#ffffff;fill-opacity:1;fill-rule:nonzero;stroke:none"
       transform="matrix(0.94852009,0,0,0.94852009,-121.30816,-7508.896)"
       clip-path="url(#clipPath119)" />
    <text
       id="text119"
       xml:space="preserve"
       transform="matrix(0.94852009,0,0,0.94852009,241.02652,559.21587)"
       clip-path="url(#clipPath120)"><tspan
         id="tspan119"
         style="font-variant:normal;font-weight:normal;font-size:11px;font-family:Arial;writing-mode:lr-tb;fill:#000000;fill-opacity:1;fill-rule:nonzero;stroke:none"
         x="0"
         y="0">=</tspan></text>
    <path
       id="path121"
       d="m 372.5,8464.0801 h 15 c 0.33148,0 0.65036,0.064 0.95663,0.1894 0.30631,0.127 0.57666,0.3076 0.8111,0.543 0.23441,0.2334 0.41504,0.5039 0.5419,0.8096 0.12686,0.3066 0.19034,0.6259 0.19037,0.958 v 15 c -3e-5,0.331 -0.0635,0.6504 -0.19037,0.956 -0.12686,0.3057 -0.30749,0.5762 -0.5419,0.8116 -0.23444,0.2334 -0.50479,0.414 -0.81106,0.541 -0.30631,0.1269 -0.62519,0.1904 -0.95667,0.1914 h -15 c -0.33154,-10e-4 -0.65045,-0.064 -0.95676,-0.1914 -0.30627,-0.127 -0.57663,-0.3076 -0.81103,-0.541 -0.23444,-0.2354 -0.41507,-0.5059 -0.54193,-0.8116 -0.12686,-0.3056 -0.19031,-0.625 -0.19028,-0.956 v -15 c -3e-5,-0.3321 0.0634,-0.6514 0.19028,-0.9571 0.12686,-0.3066 0.30749,-0.5771 0.54193,-0.8105 0.2344,-0.2354 0.50476,-0.416 0.81103,-0.542 0.30631,-0.1269 0.62522,-0.1904 0.95676,-0.1904 z"
       style="fill:none;stroke:#000000;stroke-width:1;stroke-linecap:butt;stroke-linejoin:miter;stroke-miterlimit:10;stroke-dasharray:none;stroke-opacity:1"
       transform="matrix(0.94852009,0,0,0.94852009,-120.8339,-7508.4208)"
       clip-path="url(#clipPath122)" />
    <text
       id="text122"
       xml:space="preserve"
       transform="matrix(0.94852009,0,0,0.94852009,250.51172,533.60582)"
       clip-path="url(#clipPath123)"><tspan
         id="tspan122"
         style="font-variant:normal;font-weight:normal;font-size:12px;font-family:Arial;writing-mode:lr-tb;fill:#000000;fill-opacity:1;fill-rule:nonzero;stroke:none"
         x="0"
         y="0">sender</tspan></text>
  </g>
</svg>
