<?xml version="1.0" encoding="UTF-8" standalone="no"?>
<!-- Created with Inkscape (http://www.inkscape.org/) -->

<svg
   version="1.1"
   id="svg1"
   width="208"
   height="69.439995"
   viewBox="0 0 208 69.439995"
   xmlns="http://www.w3.org/2000/svg"
   xmlns:svg="http://www.w3.org/2000/svg">
  <defs
     id="defs1">
    <clipPath
       clipPathUnits="userSpaceOnUse"
       id="clipPath2">
      <path
         d="M 0,0 H 650.97656 V 216.01563 H 0 Z"
         transform="scale(0.31999999)"
         clip-rule="evenodd"
         id="path2" />
    </clipPath>
    <clipPath
       clipPathUnits="userSpaceOnUse"
       id="clipPath4">
      <path
         d="m 3.125,0 h 643.75 V 216.01563 H 3.125 Z"
         transform="matrix(0.34039431,0,0,0.34039431,2056.8559,-311)"
         clip-rule="evenodd"
         id="path4" />
    </clipPath>
    <clipPath
       clipPathUnits="userSpaceOnUse"
       id="clipPath5">
      <path
         d="m 3.125,0 h 643.75 V 216.01563 H 3.125 Z"
         transform="matrix(0.34039431,0,0,0.34039431,-60.316037,-22.499991)"
         clip-rule="evenodd"
         id="path5" />
    </clipPath>
    <clipPath
       clipPathUnits="userSpaceOnUse"
       id="clipPath6">
      <path
         d="m 3.125,0 h 643.75 V 216.01563 H 3.125 Z"
         transform="matrix(0.34039431,0,0,0.34039431,-88.347236,-41.49999)"
         clip-rule="evenodd"
         id="path6" />
    </clipPath>
    <clipPath
       clipPathUnits="userSpaceOnUse"
       id="clipPath7">
      <path
         d="m 3.125,0 h 643.75 V 216.01563 H 3.125 Z"
         transform="matrix(0.34039431,0,0,0.34039431,-32.769136,-60.49999)"
         clip-rule="evenodd"
         id="path7" />
    </clipPath>
    <clipPath
       clipPathUnits="userSpaceOnUse"
       id="clipPath8">
      <path
         d="m 3.125,0 h 643.75 V 216.01563 H 3.125 Z"
         transform="matrix(0.34039431,0,0,0.34039431,-56.112937,-60.49999)"
         clip-rule="evenodd"
         id="path8" />
    </clipPath>
    <clipPath
       clipPathUnits="userSpaceOnUse"
       id="clipPath9">
      <path
         d="m 3.125,0 h 643.75 V 216.01563 H 3.125 Z"
         transform="matrix(0.34039431,0,0,0.34039431,-108.12853,-60.49999)"
         clip-rule="evenodd"
         id="path9" />
    </clipPath>
    <clipPath
       clipPathUnits="userSpaceOnUse"
       id="clipPath10">
      <path
         d="m 3.125,0 h 643.75 V 216.01563 H 3.125 Z"
         transform="matrix(0.34039431,0,0,0.34039431,-124.81604,-60.49999)"
         clip-rule="evenodd"
         id="path10" />
    </clipPath>
    <clipPath
       clipPathUnits="userSpaceOnUse"
       id="clipPath12">
      <path
         d="m 3.125,0 h 643.75 V 216.01563 H 3.125 Z"
         transform="matrix(0.34039431,0,0,0.34039431,2056.8559,-311)"
         clip-rule="evenodd"
         id="path12" />
    </clipPath>
  </defs>
  <g
     id="g1">
    <path
       id="path1"
       d="M 0,0 H 208 V 69 H 0 Z"
       style="fill:#ffffff;fill-opacity:1;fill-rule:nonzero;stroke:none"
       clip-path="url(#clipPath2)" />
    <path
       id="path3"
       d="m 2065,-310 h 205 c 0.6628,0 1.3005,0.12689 1.9131,0.38065 0.6125,0.25369 1.1533,0.61499 1.6223,1.08383 0.4688,0.46884 0.8301,1.00955 1.0837,1.6221 0.2539,0.61258 0.3809,1.2504 0.3809,1.91342 v 60 c 0,0.66306 -0.127,1.30087 -0.3809,1.91344 -0.2536,0.61258 -0.6149,1.15329 -1.0837,1.62211 -0.469,0.46884 -1.0098,0.83013 -1.6223,1.08387 -0.6126,0.25372 -1.2503,0.38058 -1.9131,0.38058 h -205 c -0.6633,0 -1.301,-0.12686 -1.9136,-0.38058 -0.6125,-0.25374 -1.1533,-0.61503 -1.622,-1.08387 -0.469,-0.46882 -0.8304,-1.00953 -1.084,-1.62211 -0.2537,-0.61257 -0.3806,-1.25038 -0.3804,-1.91344 v -60 c -2e-4,-0.66302 0.1267,-1.30084 0.3804,-1.91342 0.2536,-0.61255 0.615,-1.15326 1.084,-1.6221 0.4687,-0.46884 1.0095,-0.83014 1.622,-1.08383 C 2063.699,-309.87311 2064.3367,-310 2065,-310 Z"
       style="fill:#ffffff;fill-opacity:1;fill-rule:nonzero;stroke:#000000;stroke-width:1;stroke-linecap:butt;stroke-linejoin:miter;stroke-miterlimit:10;stroke-dasharray:none;stroke-opacity:1"
       transform="matrix(0.94008617,0,0,0.94008617,-1933.6218,292.3668)"
       clip-path="url(#clipPath4)" />
    <text
       id="text4"
       xml:space="preserve"
       transform="matrix(0.94008617,0,0,0.94008617,56.702272,21.15193)"
       clip-path="url(#clipPath5)"><tspan
         id="tspan4"
         style="font-variant:normal;font-weight:normal;font-size:16px;font-family:Arial;writing-mode:lr-tb;fill:#000000;fill-opacity:1;fill-rule:nonzero;stroke:none"
         x="0"
         y="0">«send action»</tspan></text>
    <text
       id="text5"
       xml:space="preserve"
       transform="matrix(0.94008617,0,0,0.94008617,83.054015,39.013567)"
       clip-path="url(#clipPath6)"><tspan
         id="tspan5"
         style="font-variant:normal;font-weight:normal;font-size:16px;font-family:Arial;writing-mode:lr-tb;fill:#000000;fill-opacity:1;fill-rule:nonzero;stroke:none"
         x="0"
         y="0">send1</tspan></text>
    <text
       id="text6"
       xml:space="preserve"
       transform="matrix(0.94008617,0,0,0.94008617,30.805812,56.875204)"
       clip-path="url(#clipPath7)"><tspan
         id="tspan6"
         style="font-variant:normal;font-weight:700;font-size:12px;font-family:Arial;writing-mode:lr-tb;fill:#000000;fill-opacity:1;fill-rule:nonzero;stroke:none"
         x="0"
         y="0">new</tspan></text>
    <g
       id="g7" />
    <text
       id="text7"
       xml:space="preserve"
       transform="matrix(0.94008617,0,0,0.94008617,52.750996,56.875204)"
       clip-path="url(#clipPath8)"><tspan
         id="tspan7"
         style="font-variant:normal;font-weight:normal;font-size:12px;font-family:Arial;writing-mode:lr-tb;fill:#000000;fill-opacity:1;fill-rule:nonzero;stroke:none"
         x="0"
         y="0"> Picture() </tspan></text>
    <text
       id="text8"
       xml:space="preserve"
       transform="matrix(0.94008617,0,0,0.94008617,101.65014,56.875204)"
       clip-path="url(#clipPath9)"><tspan
         id="tspan8"
         style="font-variant:normal;font-weight:700;font-size:12px;font-family:Arial;writing-mode:lr-tb;fill:#000000;fill-opacity:1;fill-rule:nonzero;stroke:none"
         x="0"
         y="0">via</tspan></text>
    <g
       id="g9" />
    <text
       id="text9"
       xml:space="preserve"
       transform="matrix(0.94008617,0,0,0.94008617,117.33783,56.875204)"
       clip-path="url(#clipPath10)"><tspan
         id="tspan9"
         style="font-variant:normal;font-weight:normal;font-size:12px;font-family:Arial;writing-mode:lr-tb;fill:#000000;fill-opacity:1;fill-rule:nonzero;stroke:none"
         x="0"
         y="0"> displayPort</tspan></text>
    <path
       id="path11"
       d="m 2066,-304 h 13 l 3,5 -3,5 h -13 z"
       style="fill:#000000;fill-opacity:1;fill-rule:nonzero;stroke:#000000;stroke-width:1;stroke-linecap:butt;stroke-linejoin:miter;stroke-miterlimit:10;stroke-dasharray:none;stroke-opacity:1"
       transform="matrix(0.94008617,0,0,0.94008617,-1933.6218,292.3668)"
       clip-path="url(#clipPath12)" />
  </g>
</svg>
