<?xml version="1.0" encoding="UTF-8" standalone="no"?>
<!-- Created with Inkscape (http://www.inkscape.org/) -->

<svg
   version="1.1"
   id="svg1"
   width="288"
   height="184"
   viewBox="0 0 288 184"
   xmlns="http://www.w3.org/2000/svg"
   xmlns:svg="http://www.w3.org/2000/svg">
  <defs
     id="defs1">
    <clipPath
       clipPathUnits="userSpaceOnUse"
       id="clipPath2">
      <path
         d="M 0,0 H 900 V 575.97656 H 0 Z"
         transform="scale(0.31999999)"
         clip-rule="evenodd"
         id="path2" />
    </clipPath>
    <clipPath
       clipPathUnits="userSpaceOnUse"
       id="clipPath4">
      <path
         d="m 3.125,3.125 h 893.75 V 575 H 3.125 Z"
         transform="matrix(0.33809654,0,0,0.33809654,858.63247,27.386895)"
         clip-rule="evenodd"
         id="path4" />
    </clipPath>
    <clipPath
       clipPathUnits="userSpaceOnUse"
       id="clipPath6">
      <path
         d="m 3.125,3.125 h 893.75 V 575 H 3.125 Z"
         transform="matrix(0.33809654,0,0,0.33809654,858.63247,27.386895)"
         clip-rule="evenodd"
         id="path6" />
    </clipPath>
    <clipPath
       clipPathUnits="userSpaceOnUse"
       id="clipPath7">
      <path
         d="m 3.125,3.125 h 893.75 V 575 H 3.125 Z"
         transform="matrix(0,0.33809654,-0.33809654,0,146.55057,-119.1175)"
         clip-rule="evenodd"
         id="path7" />
    </clipPath>
    <clipPath
       clipPathUnits="userSpaceOnUse"
       id="clipPath9">
      <path
         d="m 3.125,3.125 h 893.75 V 575 H 3.125 Z"
         transform="matrix(0.33809654,0,0,0.33809654,858.63247,27.386895)"
         clip-rule="evenodd"
         id="path9" />
    </clipPath>
    <clipPath
       clipPathUnits="userSpaceOnUse"
       id="clipPath10">
      <path
         d="m 3.125,3.125 h 893.75 V 575 H 3.125 Z"
         transform="matrix(0.33809654,0,0,0.33809654,-37.164431,-47.113103)"
         clip-rule="evenodd"
         id="path10" />
    </clipPath>
    <clipPath
       clipPathUnits="userSpaceOnUse"
       id="clipPath12">
      <path
         d="m 3.125,3.125 h 893.75 V 575 H 3.125 Z"
         transform="matrix(0.33809654,0,0,0.33809654,858.63247,27.386895)"
         clip-rule="evenodd"
         id="path12" />
    </clipPath>
    <clipPath
       clipPathUnits="userSpaceOnUse"
       id="clipPath13">
      <path
         d="m 3.125,3.125 h 893.75 V 575 H 3.125 Z"
         transform="matrix(0.33809654,0,0,0.33809654,-37.164431,-87.113102)"
         clip-rule="evenodd"
         id="path13" />
    </clipPath>
    <clipPath
       clipPathUnits="userSpaceOnUse"
       id="clipPath15">
      <path
         d="m 3.125,3.125 h 893.75 V 575 H 3.125 Z"
         transform="matrix(0.33809654,0,0,0.33809654,858.63247,27.386895)"
         clip-rule="evenodd"
         id="path15" />
    </clipPath>
    <clipPath
       clipPathUnits="userSpaceOnUse"
       id="clipPath16">
      <path
         d="m 3.125,3.125 h 893.75 V 575 H 3.125 Z"
         transform="matrix(0.33809654,0,0,0.33809654,-37.164431,-127.1131)"
         clip-rule="evenodd"
         id="path16" />
    </clipPath>
    <clipPath
       clipPathUnits="userSpaceOnUse"
       id="clipPath18">
      <path
         d="m 3.125,3.125 h 893.75 V 575 H 3.125 Z"
         transform="matrix(0.33809654,0,0,0.33809654,858.63247,27.386895)"
         clip-rule="evenodd"
         id="path18" />
    </clipPath>
    <clipPath
       clipPathUnits="userSpaceOnUse"
       id="clipPath20">
      <path
         d="m 3.125,3.125 h 893.75 V 575 H 3.125 Z"
         transform="matrix(0.33809654,0,0,0.33809654,858.63247,27.386895)"
         clip-rule="evenodd"
         id="path20" />
    </clipPath>
    <clipPath
       clipPathUnits="userSpaceOnUse"
       id="clipPath22">
      <path
         d="m 3.125,3.125 h 893.75 V 575 H 3.125 Z"
         transform="matrix(0.33809654,0,0,0.33809654,858.63247,27.386895)"
         clip-rule="evenodd"
         id="path22" />
    </clipPath>
    <clipPath
       clipPathUnits="userSpaceOnUse"
       id="clipPath24">
      <path
         d="m 3.125,3.125 h 893.75 V 575 H 3.125 Z"
         transform="matrix(0.33809654,0,0,0.33809654,858.63247,27.386895)"
         clip-rule="evenodd"
         id="path24" />
    </clipPath>
    <clipPath
       clipPathUnits="userSpaceOnUse"
       id="clipPath26">
      <path
         d="m 3.125,3.125 h 893.75 V 575 H 3.125 Z"
         transform="matrix(0.33809654,0,0,0.33809654,858.63247,27.386895)"
         clip-rule="evenodd"
         id="path26" />
    </clipPath>
    <clipPath
       clipPathUnits="userSpaceOnUse"
       id="clipPath28">
      <path
         d="m 3.125,3.125 h 893.75 V 575 H 3.125 Z"
         transform="matrix(0.33809654,0,0,0.33809654,858.63247,27.386895)"
         clip-rule="evenodd"
         id="path28" />
    </clipPath>
    <clipPath
       clipPathUnits="userSpaceOnUse"
       id="clipPath30">
      <path
         d="m 3.125,3.125 h 893.75 V 575 H 3.125 Z"
         transform="matrix(0.33809654,0,0,0.33809654,858.63247,27.386895)"
         clip-rule="evenodd"
         id="path30" />
    </clipPath>
    <clipPath
       clipPathUnits="userSpaceOnUse"
       id="clipPath32">
      <path
         d="m 3.125,3.125 h 893.75 V 575 H 3.125 Z"
         transform="matrix(0.33809654,0,0,0.33809654,858.63247,27.386895)"
         clip-rule="evenodd"
         id="path32" />
    </clipPath>
    <clipPath
       clipPathUnits="userSpaceOnUse"
       id="clipPath34">
      <path
         d="m 3.125,3.125 h 893.75 V 575 H 3.125 Z"
         transform="matrix(0.33809654,0,0,0.33809654,858.63247,27.386895)"
         clip-rule="evenodd"
         id="path34" />
    </clipPath>
    <clipPath
       clipPathUnits="userSpaceOnUse"
       id="clipPath36">
      <path
         d="m 3.125,3.125 h 893.75 V 575 H 3.125 Z"
         transform="matrix(0.33809654,0,0,0.33809654,858.63247,27.386895)"
         clip-rule="evenodd"
         id="path36" />
    </clipPath>
    <clipPath
       clipPathUnits="userSpaceOnUse"
       id="clipPath37">
      <path
         d="m 3.125,3.125 h 893.75 V 575 H 3.125 Z"
         transform="matrix(0.33809654,0,0,0.33809654,-167.61755,-93.113102)"
         clip-rule="evenodd"
         id="path37" />
    </clipPath>
    <clipPath
       clipPathUnits="userSpaceOnUse"
       id="clipPath38">
      <path
         d="m 3.125,3.125 h 893.75 V 575 H 3.125 Z"
         transform="matrix(0.33809654,0,0,0.33809654,-172.07068,-113.11311)"
         clip-rule="evenodd"
         id="path38" />
    </clipPath>
    <clipPath
       clipPathUnits="userSpaceOnUse"
       id="clipPath40">
      <path
         d="m 3.125,3.125 h 893.75 V 575 H 3.125 Z"
         transform="matrix(0.33809654,0,0,0.33809654,858.63247,27.386895)"
         clip-rule="evenodd"
         id="path40" />
    </clipPath>
    <clipPath
       clipPathUnits="userSpaceOnUse"
       id="clipPath41">
      <path
         d="m 3.125,3.125 h 893.75 V 575 H 3.125 Z"
         transform="matrix(0.33809654,0,0,0.33809654,-170.49255,-70.113102)"
         clip-rule="evenodd"
         id="path41" />
    </clipPath>
    <clipPath
       clipPathUnits="userSpaceOnUse"
       id="clipPath43">
      <path
         d="m 3.125,3.125 h 893.75 V 575 H 3.125 Z"
         transform="matrix(0.33809654,0,0,0.33809654,858.63247,27.386895)"
         clip-rule="evenodd"
         id="path43" />
    </clipPath>
    <clipPath
       clipPathUnits="userSpaceOnUse"
       id="clipPath45">
      <path
         d="m 3.125,3.125 h 893.75 V 575 H 3.125 Z"
         transform="matrix(0.33809654,0,0,0.33809654,858.63247,27.386895)"
         clip-rule="evenodd"
         id="path45" />
    </clipPath>
  </defs>
  <g
     id="g1">
    <path
       id="path1"
       d="M 0,0 H 288 V 184 H 0 Z"
       style="fill:#ffffff;fill-opacity:1;fill-rule:nonzero;stroke:none"
       clip-path="url(#clipPath2)" />
    <path
       id="path3"
       d="M 861.25,30 H 1160 V 220 H 861.25 Z"
       style="fill:#ffffff;fill-opacity:1;fill-rule:nonzero;stroke:none"
       transform="matrix(0.94647519,0,0,0.94647519,-812.67433,-25.921017)"
       clip-path="url(#clipPath4)" />
    <path
       id="path5"
       d="m 962.89001,60 h 16.71998 c 0.35003,0 0.68676,0.06698 1.01019,0.200951 0.32342,0.133972 0.60888,0.324733 0.8565,0.572284 0.2475,0.247547 0.43824,0.533036 0.57227,0.856472 0.13397,0.323437 0.20099,0.660202 0.20105,1.010292 V 187.36 c -6e-5,0.35007 -0.0671,0.68681 -0.20105,1.01025 -0.13403,0.32345 -0.32477,0.60894 -0.57227,0.8565 -0.24762,0.24754 -0.53308,0.43829 -0.8565,0.57228 -0.32343,0.13397 -0.66016,0.20095 -1.01019,0.20097 h -16.71998 c -0.35015,-2e-5 -0.68695,-0.067 -1.01043,-0.20097 -0.32343,-0.13399 -0.60889,-0.32474 -0.85639,-0.57228 -0.24762,-0.24756 -0.43835,-0.53305 -0.57232,-0.8565 -0.13398,-0.32344 -0.20093,-0.66018 -0.20087,-1.01025 V 62.639999 c -6e-5,-0.35009 0.0669,-0.686855 0.20087,-1.010292 0.13397,-0.323436 0.3247,-0.608925 0.57232,-0.856472 0.2475,-0.247551 0.53296,-0.438312 0.85651,-0.572284 C 962.20313,60.066982 962.53986,60 962.89001,60 Z"
       style="fill:#ffffff;fill-opacity:1;fill-rule:nonzero;stroke:#000000;stroke-width:1;stroke-linecap:butt;stroke-linejoin:miter;stroke-miterlimit:10;stroke-dasharray:none;stroke-opacity:1"
       transform="matrix(0.94647519,0,0,0.94647519,-812.67433,-25.921017)"
       clip-path="url(#clipPath6)" />
    <text
       id="text6"
       xml:space="preserve"
       transform="matrix(0,-0.94647519,0.94647519,0,112.74176,138.70648)"
       clip-path="url(#clipPath7)"><tspan
         id="tspan6"
         style="font-variant:normal;font-weight:normal;font-size:12px;font-family:Arial;writing-mode:lr-tb;fill:#000000;fill-opacity:1;fill-rule:nonzero;stroke:none"
         x="0"
         y="0">param1 : ItemDef1</tspan></text>
    <path
       id="path8"
       d="m 943,80 h 14 c 0.39777,0 0.78046,0.07612 1.14801,0.228355 0.36749,0.152237 0.69189,0.369011 0.97327,0.650322 0.28131,0.281304 0.49804,0.605721 0.65027,0.973267 C 959.92377,82.21949 959.99994,82.602173 960,83 v 14 c -6e-5,0.39782 -0.0762,0.780502 -0.22845,1.148041 -0.15223,0.367546 -0.36896,0.691971 -0.65027,0.973274 -0.28138,0.281303 -0.60584,0.49807 -0.97339,0.650314 C 957.7804,99.923866 957.39777,99.999992 957,100 h -14 c -0.39789,-8e-6 -0.78064,-0.07613 -1.14813,-0.228378 -0.36756,-0.152237 -0.69196,-0.369004 -0.97321,-0.650307 -0.28131,-0.281303 -0.49811,-0.605728 -0.65039,-0.973274 C 940.07605,97.780502 939.99994,97.39782 940,97 V 83 c -6e-5,-0.397827 0.0761,-0.78051 0.22827,-1.148056 0.15228,-0.367546 0.36908,-0.691963 0.65039,-0.973267 0.28125,-0.281311 0.60565,-0.498085 0.97327,-0.650322 C 942.21942,80.076118 942.60211,80 943,80 Z"
       style="fill:#ffffff;fill-opacity:1;fill-rule:nonzero;stroke:#000000;stroke-width:1;stroke-linecap:butt;stroke-linejoin:miter;stroke-miterlimit:10;stroke-dasharray:none;stroke-opacity:1"
       transform="matrix(0.94647519,0,0,0.94647519,-812.67433,-25.921017)"
       clip-path="url(#clipPath9)" />
    <text
       id="text9"
       xml:space="preserve"
       transform="matrix(0.94647519,0,0,0.94647519,35.175212,44.591383)"
       clip-path="url(#clipPath10)"><tspan
         id="tspan9"
         style="font-variant:normal;font-weight:normal;font-size:12px;font-family:Arial;writing-mode:lr-tb;fill:#000000;fill-opacity:1;fill-rule:nonzero;stroke:none"
         x="0"
         y="0">item1_1</tspan></text>
    <path
       id="path11"
       d="m 943,120 h 14 c 0.39777,0 0.78046,0.0761 1.14801,0.22835 0.36749,0.15224 0.69189,0.36902 0.97327,0.65032 0.28131,0.2813 0.49804,0.60572 0.65027,0.97327 0.15222,0.36754 0.22839,0.75023 0.22845,1.14806 v 14 c -6e-5,0.39781 -0.0762,0.7805 -0.22845,1.14804 -0.15223,0.36754 -0.36896,0.69196 -0.65027,0.97327 -0.28138,0.28129 -0.60584,0.49806 -0.97339,0.65031 C 957.7804,139.92386 957.39777,139.99998 957,140 h -14 c -0.39789,-2e-5 -0.78064,-0.0761 -1.14813,-0.22838 -0.36756,-0.15225 -0.69196,-0.36902 -0.97321,-0.65031 -0.28131,-0.28131 -0.49811,-0.60573 -0.65039,-0.97327 C 940.07605,137.7805 939.99994,137.39781 940,137 v -14 c -6e-5,-0.39783 0.0761,-0.78052 0.22827,-1.14806 0.15228,-0.36755 0.36908,-0.69197 0.65039,-0.97327 0.28125,-0.2813 0.60565,-0.49808 0.97327,-0.65032 C 942.21942,120.07612 942.60211,120 943,120 Z"
       style="fill:#ffffff;fill-opacity:1;fill-rule:nonzero;stroke:#000000;stroke-width:1;stroke-linecap:butt;stroke-linejoin:miter;stroke-miterlimit:10;stroke-dasharray:none;stroke-opacity:1"
       transform="matrix(0.94647519,0,0,0.94647519,-812.67433,-25.921017)"
       clip-path="url(#clipPath12)" />
    <text
       id="text12"
       xml:space="preserve"
       transform="matrix(0.94647519,0,0,0.94647519,35.175212,82.45039)"
       clip-path="url(#clipPath13)"><tspan
         id="tspan12"
         style="font-variant:normal;font-weight:normal;font-size:12px;font-family:Arial;writing-mode:lr-tb;fill:#000000;fill-opacity:1;fill-rule:nonzero;stroke:none"
         x="0"
         y="0">item1_2</tspan></text>
    <path
       id="path14"
       d="m 943,160 h 14 c 0.39777,0 0.78046,0.0761 1.14801,0.22835 0.36749,0.15223 0.69189,0.36902 0.97327,0.65033 0.28131,0.28129 0.49804,0.60573 0.65027,0.97326 0.15222,0.36754 0.22839,0.75023 0.22845,1.14806 v 14 c -6e-5,0.39781 -0.0762,0.7805 -0.22845,1.14804 -0.15223,0.36755 -0.36896,0.69199 -0.65027,0.97328 -0.28138,0.2813 -0.60584,0.49806 -0.97339,0.6503 C 957.7804,179.92387 957.39777,180 957,180 h -14 c -0.39789,0 -0.78064,-0.0761 -1.14813,-0.22836 -0.36756,-0.15224 -0.69196,-0.36902 -0.97321,-0.65032 -0.28131,-0.28129 -0.49811,-0.60573 -0.65039,-0.97328 C 940.07605,177.7805 939.99994,177.39781 940,177 v -14 c -6e-5,-0.39783 0.0761,-0.78052 0.22827,-1.14806 0.15228,-0.36753 0.36908,-0.69197 0.65039,-0.97326 0.28125,-0.28131 0.60565,-0.4981 0.97327,-0.65033 C 942.21942,160.07611 942.60211,160 943,160 Z"
       style="fill:#ffffff;fill-opacity:1;fill-rule:nonzero;stroke:#000000;stroke-width:1;stroke-linecap:butt;stroke-linejoin:miter;stroke-miterlimit:10;stroke-dasharray:none;stroke-opacity:1"
       transform="matrix(0.94647519,0,0,0.94647519,-812.67433,-25.921017)"
       clip-path="url(#clipPath15)" />
    <text
       id="text15"
       xml:space="preserve"
       transform="matrix(0.94647519,0,0,0.94647519,35.175212,120.3094)"
       clip-path="url(#clipPath16)"><tspan
         id="tspan15"
         style="font-variant:normal;font-weight:normal;font-size:12px;font-family:Arial;writing-mode:lr-tb;fill:#000000;fill-opacity:1;fill-rule:nonzero;stroke:none"
         x="0"
         y="0">item1_3</tspan></text>
    <path
       id="path17"
       d="m 940,89.5 h 17.76001"
       style="fill:none;stroke:#000000;stroke-width:1;stroke-linecap:butt;stroke-linejoin:miter;stroke-miterlimit:10;stroke-dasharray:none;stroke-opacity:1"
       transform="matrix(0.94647519,0,0,0.94647519,-812.67433,-25.921017)"
       clip-path="url(#clipPath18)" />
    <path
       id="path19"
       d="m 950.88,93.5 8,-4 -8,-4"
       style="fill:none;stroke:#000000;stroke-width:1;stroke-linecap:butt;stroke-linejoin:miter;stroke-miterlimit:10;stroke-dasharray:none;stroke-opacity:1"
       transform="matrix(0.94647519,0,0,0.94647519,-812.67433,-25.921017)"
       clip-path="url(#clipPath20)" />
    <path
       id="path21"
       d="M 942.23999,130 H 960"
       style="fill:none;stroke:#000000;stroke-width:1;stroke-linecap:butt;stroke-linejoin:miter;stroke-miterlimit:10;stroke-dasharray:none;stroke-opacity:1"
       transform="matrix(0.94647519,0,0,0.94647519,-812.67433,-25.921017)"
       clip-path="url(#clipPath22)" />
    <path
       id="path23"
       d="m 949.12,126 -8,4 8,4"
       style="fill:none;stroke:#000000;stroke-width:1;stroke-linecap:butt;stroke-linejoin:miter;stroke-miterlimit:10;stroke-dasharray:none;stroke-opacity:1"
       transform="matrix(0.94647519,0,0,0.94647519,-812.67433,-25.921017)"
       clip-path="url(#clipPath24)" />
    <path
       id="path25"
       d="m 940,170 h 17.76001"
       style="fill:none;stroke:#000000;stroke-width:1;stroke-linecap:butt;stroke-linejoin:miter;stroke-miterlimit:10;stroke-dasharray:none;stroke-opacity:1"
       transform="matrix(0.94647519,0,0,0.94647519,-812.67433,-25.921017)"
       clip-path="url(#clipPath26)" />
    <path
       id="path27"
       d="m 950.88,174 8,-4 -8,-4"
       style="fill:none;stroke:#000000;stroke-width:1;stroke-linecap:butt;stroke-linejoin:miter;stroke-miterlimit:10;stroke-dasharray:none;stroke-opacity:1"
       transform="matrix(0.94647519,0,0,0.94647519,-812.67433,-25.921017)"
       clip-path="url(#clipPath28)" />
    <path
       id="path29"
       d="M 964.23999,66 H 972 h 7.76001"
       style="fill:none;stroke:#000000;stroke-width:1;stroke-linecap:butt;stroke-linejoin:miter;stroke-miterlimit:10;stroke-dasharray:none;stroke-opacity:1"
       transform="matrix(0.94647519,0,0,0.94647519,-812.67433,-25.921017)"
       clip-path="url(#clipPath30)" />
    <path
       id="path31"
       d="m 971.12,62 -8,4 8,4"
       style="fill:none;stroke:#000000;stroke-width:1;stroke-linecap:butt;stroke-linejoin:miter;stroke-miterlimit:10;stroke-dasharray:none;stroke-opacity:1"
       transform="matrix(0.94647519,0,0,0.94647519,-812.67433,-25.921017)"
       clip-path="url(#clipPath32)" />
    <path
       id="path33"
       d="m 972.88,70 8,-4 -8,-4"
       style="fill:none;stroke:#000000;stroke-width:1;stroke-linecap:butt;stroke-linejoin:miter;stroke-miterlimit:10;stroke-dasharray:none;stroke-opacity:1"
       transform="matrix(0.94647519,0,0,0.94647519,-812.67433,-25.921017)"
       clip-path="url(#clipPath34)" />
    <path
       id="path35"
       d="m 989.88,50 h 132.74 c 0.4845,0 0.9645,0.04727 1.4397,0.1418 0.4752,0.09454 0.9368,0.234528 1.3844,0.419964 0.4476,0.18544 0.873,0.412769 1.276,0.681988 0.4028,0.269218 0.7756,0.575149 1.1183,0.917797 0.3426,0.342647 0.6485,0.715427 0.9177,1.118335 0.2692,0.402912 0.4965,0.828217 0.6819,1.275906 0.1854,0.447689 0.3254,0.909172 0.4202,1.384441 0.094,0.475266 0.1417,0.955189 0.1418,1.43977 V 192.62 c -10e-5,0.48457 -0.047,0.96447 -0.1418,1.43974 -0.095,0.47526 -0.2348,0.93675 -0.4202,1.38443 -0.1854,0.44769 -0.4127,0.873 -0.6819,1.27591 -0.2692,0.40291 -0.5751,0.77569 -0.9177,1.11836 -0.3427,0.34264 -0.7155,0.64856 -1.1183,0.91779 -0.403,0.26921 -0.8284,0.49653 -1.276,0.68199 -0.4476,0.18544 -0.9092,0.32542 -1.3844,0.41995 -0.4752,0.0945 -0.9552,0.14181 -1.4397,0.14183 H 989.88 c -0.48461,-2e-5 -0.96459,-0.0473 -1.43988,-0.14182 -0.47528,-0.0945 -0.93676,-0.23454 -1.38446,-0.41998 -0.44769,-0.18544 -0.87304,-0.41278 -1.27594,-0.68199 -0.40289,-0.26921 -0.77569,-0.57513 -1.11828,-0.91777 -0.34271,-0.34267 -0.64862,-0.71544 -0.91779,-1.11835 -0.26928,-0.40291 -0.49664,-0.82821 -0.682,-1.27591 -0.18543,-0.44769 -0.32538,-0.90918 -0.41993,-1.38444 C 982.54724,193.58447 982.5,193.10457 982.5,192.62 V 57.380001 c 0,-0.484581 0.0472,-0.964504 0.14172,-1.439773 0.0946,-0.47527 0.2345,-0.936749 0.41993,-1.384442 0.18536,-0.447689 0.41272,-0.87299 0.68194,-1.275902 0.26923,-0.402908 0.57514,-0.775688 0.91785,-1.118335 0.34259,-0.342648 0.71539,-0.648579 1.11828,-0.917797 0.4029,-0.269219 0.82825,-0.496548 1.27594,-0.681988 0.4477,-0.185436 0.90918,-0.325424 1.38446,-0.419964 C 988.91541,50.047268 989.39539,50 989.88,50 Z"
       style="fill:#ffffff;fill-opacity:1;fill-rule:nonzero;stroke:#000000;stroke-width:1;stroke-linecap:butt;stroke-linejoin:miter;stroke-miterlimit:10;stroke-dasharray:none;stroke-opacity:1"
       transform="matrix(0.94647519,0,0,0.94647519,-812.67433,-25.921017)"
       clip-path="url(#clipPath36)" />
    <text
       id="text36"
       xml:space="preserve"
       transform="matrix(0.94647519,0,0,0.94647519,158.64585,88.129241)"
       clip-path="url(#clipPath37)"><tspan
         id="tspan36"
         style="font-variant:normal;font-weight:normal;font-size:16px;font-family:Arial;writing-mode:lr-tb;fill:#000000;fill-opacity:1;fill-rule:nonzero;stroke:none"
         x="0"
         y="0">«action»</tspan></text>
    <text
       id="text37"
       xml:space="preserve"
       transform="matrix(0.94647519,0,0,0.94647519,162.86063,107.05875)"
       clip-path="url(#clipPath38)"><tspan
         id="tspan37"
         style="font-variant:normal;font-weight:normal;font-size:16px;font-family:Arial;writing-mode:lr-tb;fill:#000000;fill-opacity:1;fill-rule:nonzero;stroke:none"
         x="0"
         y="0">action1</tspan></text>
    <path
       id="path39"
       d="m 1133,110 h 14 c 0.3978,0 0.7804,0.0761 1.148,0.22835 0.3675,0.15224 0.692,0.36902 0.9733,0.65032 0.2814,0.2813 0.4981,0.60572 0.6503,0.97327 0.1522,0.36754 0.2283,0.75023 0.2284,1.14806 v 14 c -10e-5,0.39782 -0.076,0.7805 -0.2284,1.14804 -0.1522,0.36754 -0.3689,0.69197 -0.6503,0.97328 -0.2813,0.2813 -0.6058,0.49808 -0.9733,0.65032 -0.3676,0.15223 -0.7502,0.22834 -1.148,0.22836 h -14 c -0.3978,-2e-5 -0.7806,-0.0761 -1.1482,-0.22836 -0.3675,-0.15224 -0.692,-0.36902 -0.9733,-0.65032 -0.2813,-0.28131 -0.4981,-0.60574 -0.6503,-0.97328 C 1130.0759,127.7805 1129.9999,127.39782 1130,127 v -14 c -10e-5,-0.39783 0.076,-0.78052 0.2282,-1.14806 0.1522,-0.36755 0.369,-0.69197 0.6503,-0.97327 0.2813,-0.2813 0.6058,-0.49808 0.9733,-0.65032 C 1132.2194,110.07612 1132.6022,110 1133,110 Z"
       style="fill:#ffffff;fill-opacity:1;fill-rule:nonzero;stroke:#000000;stroke-width:1;stroke-linecap:butt;stroke-linejoin:miter;stroke-miterlimit:10;stroke-dasharray:none;stroke-opacity:1"
       transform="matrix(0.94647519,0,0,0.94647519,-812.67433,-25.921017)"
       clip-path="url(#clipPath40)" />
    <text
       id="text40"
       xml:space="preserve"
       transform="matrix(0.94647519,0,0,0.94647519,161.36697,66.360312)"
       clip-path="url(#clipPath41)"><tspan
         id="tspan40"
         style="font-variant:normal;font-weight:normal;font-size:12px;font-family:Arial;writing-mode:lr-tb;fill:#000000;fill-opacity:1;fill-rule:nonzero;stroke:none"
         x="0"
         y="0">param2 : ItemDef2</tspan></text>
    <path
       id="path42"
       d="m 1130,120 h 17.76"
       style="fill:none;stroke:#000000;stroke-width:1;stroke-linecap:butt;stroke-linejoin:miter;stroke-miterlimit:10;stroke-dasharray:none;stroke-opacity:1"
       transform="matrix(0.94647519,0,0,0.94647519,-812.67433,-25.921017)"
       clip-path="url(#clipPath43)" />
    <path
       id="path44"
       d="m 1140.88,124 8,-4 -8,-4"
       style="fill:none;stroke:#000000;stroke-width:1;stroke-linecap:butt;stroke-linejoin:miter;stroke-miterlimit:10;stroke-dasharray:none;stroke-opacity:1"
       transform="matrix(0.94647519,0,0,0.94647519,-812.67433,-25.921017)"
       clip-path="url(#clipPath45)" />
  </g>
</svg>
