<?xml version="1.0" encoding="UTF-8" standalone="no"?>
<!-- Created with Inkscape (http://www.inkscape.org/) -->

<svg
   version="1.1"
   id="svg1"
   width="530.56"
   height="126.72"
   viewBox="0 0 530.56 126.72"
   xmlns="http://www.w3.org/2000/svg"
   xmlns:svg="http://www.w3.org/2000/svg">
  <defs
     id="defs1">
    <clipPath
       clipPathUnits="userSpaceOnUse"
       id="clipPath2">
      <path
         d="M 0,0 H 1658.9844 V 395.99609 H 0 Z"
         transform="scale(0.31999999)"
         clip-rule="evenodd"
         id="path2" />
    </clipPath>
    <clipPath
       clipPathUnits="userSpaceOnUse"
       id="clipPath4">
      <path
         d="M 3.125,0 H 1656.25 V 395.99609 H 3.125 Z"
         transform="matrix(0.33546792,0,0,0.33546792,915.88367,509)"
         clip-rule="evenodd"
         id="path4" />
    </clipPath>
    <clipPath
       clipPathUnits="userSpaceOnUse"
       id="clipPath5">
      <path
         d="M 3.125,0 H 1656.25 V 395.99609 H 3.125 Z"
         transform="matrix(0.33546792,0,0,0.33546792,-247.86632,-22.499994)"
         clip-rule="evenodd"
         id="path5" />
    </clipPath>
    <clipPath
       clipPathUnits="userSpaceOnUse"
       id="clipPath6">
      <path
         d="M 3.125,0 H 1656.25 V 395.99609 H 3.125 Z"
         transform="matrix(0.33546792,0,0,0.33546792,-219.4132,-41.499994)"
         clip-rule="evenodd"
         id="path6" />
    </clipPath>
    <clipPath
       clipPathUnits="userSpaceOnUse"
       id="clipPath8">
      <path
         d="M 3.125,0 H 1656.25 V 395.99609 H 3.125 Z"
         transform="matrix(0.33546792,0,0,0.33546792,915.88367,509)"
         clip-rule="evenodd"
         id="path8" />
    </clipPath>
    <clipPath
       clipPathUnits="userSpaceOnUse"
       id="clipPath10">
      <path
         d="M 3.125,0 H 1656.25 V 395.99609 H 3.125 Z"
         transform="matrix(0.33546792,0,0,0.33546792,915.88367,509)"
         clip-rule="evenodd"
         id="path10" />
    </clipPath>
    <clipPath
       clipPathUnits="userSpaceOnUse"
       id="clipPath12">
      <path
         d="M 3.125,0 H 1656.25 V 395.99609 H 3.125 Z"
         transform="matrix(0.33546792,0,0,0.33546792,915.88367,509)"
         clip-rule="evenodd"
         id="path12" />
    </clipPath>
    <clipPath
       clipPathUnits="userSpaceOnUse"
       id="clipPath13">
      <path
         d="M 3.125,0 H 1656.25 V 395.99609 H 3.125 Z"
         transform="matrix(0.33546792,0,0,0.33546792,-51.616317,-79.499995)"
         clip-rule="evenodd"
         id="path13" />
    </clipPath>
    <clipPath
       clipPathUnits="userSpaceOnUse"
       id="clipPath15">
      <path
         d="M 3.125,0 H 1656.25 V 395.99609 H 3.125 Z"
         transform="matrix(-0.33546792,0,0,-0.33546792,958.11636,678.99997)"
         clip-rule="evenodd"
         id="path15" />
    </clipPath>
    <clipPath
       clipPathUnits="userSpaceOnUse"
       id="clipPath17">
      <path
         d="M 3.125,0 H 1656.25 V 395.99609 H 3.125 Z"
         transform="matrix(0,0.33546792,-0.33546792,0,1027.0001,567.88371)"
         clip-rule="evenodd"
         id="path17" />
    </clipPath>
    <clipPath
       clipPathUnits="userSpaceOnUse"
       id="clipPath19">
      <path
         d="M 3.125,0 H 1656.25 V 395.99609 H 3.125 Z"
         transform="matrix(0,0.33546792,-0.33546792,0,1026,568.88367)"
         clip-rule="evenodd"
         id="path19" />
    </clipPath>
    <clipPath
       clipPathUnits="userSpaceOnUse"
       id="clipPath21">
      <path
         d="M 3.125,0 H 1656.25 V 395.99609 H 3.125 Z"
         transform="matrix(0.33546792,0,0,0.33546792,915.88367,509)"
         clip-rule="evenodd"
         id="path21" />
    </clipPath>
    <clipPath
       clipPathUnits="userSpaceOnUse"
       id="clipPath23">
      <path
         d="M 3.125,0 H 1656.25 V 395.99609 H 3.125 Z"
         transform="matrix(0.33546792,0,0,0.33546792,915.88367,509)"
         clip-rule="evenodd"
         id="path23" />
    </clipPath>
    <clipPath
       clipPathUnits="userSpaceOnUse"
       id="clipPath25">
      <path
         d="M 3.125,0 H 1656.25 V 395.99609 H 3.125 Z"
         transform="matrix(0.33546792,0,0,0.33546792,915.88367,509)"
         clip-rule="evenodd"
         id="path25" />
    </clipPath>
    <clipPath
       clipPathUnits="userSpaceOnUse"
       id="clipPath26">
      <path
         d="M 3.125,0 H 1656.25 V 395.99609 H 3.125 Z"
         transform="matrix(0.33546792,0,0,0.33546792,-133.86632,-76.499995)"
         clip-rule="evenodd"
         id="path26" />
    </clipPath>
    <clipPath
       clipPathUnits="userSpaceOnUse"
       id="clipPath27">
      <path
         d="M 3.125,0 H 1656.25 V 395.99609 H 3.125 Z"
         transform="matrix(0.33546792,0,0,0.33546792,-105.4132,-95.499994)"
         clip-rule="evenodd"
         id="path27" />
    </clipPath>
    <clipPath
       clipPathUnits="userSpaceOnUse"
       id="clipPath29">
      <path
         d="M 3.125,0 H 1656.25 V 395.99609 H 3.125 Z"
         transform="matrix(-0.33546792,0,0,-0.33546792,1094.1963,678.99997)"
         clip-rule="evenodd"
         id="path29" />
    </clipPath>
    <clipPath
       clipPathUnits="userSpaceOnUse"
       id="clipPath31">
      <path
         d="M 3.125,0 H 1656.25 V 395.99609 H 3.125 Z"
         transform="matrix(0,0.33546792,-0.33546792,0,1095.04,499.84371)"
         clip-rule="evenodd"
         id="path31" />
    </clipPath>
    <clipPath
       clipPathUnits="userSpaceOnUse"
       id="clipPath33">
      <path
         d="M 3.125,0 H 1656.25 V 395.99609 H 3.125 Z"
         transform="matrix(0,0.33546792,-0.33546792,0,1094.04,500.84373)"
         clip-rule="evenodd"
         id="path33" />
    </clipPath>
    <clipPath
       clipPathUnits="userSpaceOnUse"
       id="clipPath35">
      <path
         d="M 3.125,0 H 1656.25 V 395.99609 H 3.125 Z"
         transform="matrix(0.33546792,0,0,0.33546792,915.88367,509)"
         clip-rule="evenodd"
         id="path35" />
    </clipPath>
    <clipPath
       clipPathUnits="userSpaceOnUse"
       id="clipPath37">
      <path
         d="M 3.125,0 H 1656.25 V 395.99609 H 3.125 Z"
         transform="matrix(0.33546792,0,0,0.33546792,915.88367,509)"
         clip-rule="evenodd"
         id="path37" />
    </clipPath>
    <clipPath
       clipPathUnits="userSpaceOnUse"
       id="clipPath39">
      <path
         d="M 3.125,0 H 1656.25 V 395.99609 H 3.125 Z"
         transform="matrix(0.33546792,0,0,0.33546792,915.88367,509)"
         clip-rule="evenodd"
         id="path39" />
    </clipPath>
    <clipPath
       clipPathUnits="userSpaceOnUse"
       id="clipPath41">
      <path
         d="M 3.125,0 H 1656.25 V 395.99609 H 3.125 Z"
         transform="matrix(0,-0.33546792,0.33546792,0,1065.04,828.15636)"
         clip-rule="evenodd"
         id="path41" />
    </clipPath>
    <clipPath
       clipPathUnits="userSpaceOnUse"
       id="clipPath43">
      <path
         d="M 3.125,0 H 1656.25 V 395.99609 H 3.125 Z"
         transform="matrix(0,-0.33546792,0.33546792,0,1066.04,829.15629)"
         clip-rule="evenodd"
         id="path43" />
    </clipPath>
    <clipPath
       clipPathUnits="userSpaceOnUse"
       id="clipPath45">
      <path
         d="M 3.125,0 H 1656.25 V 395.99609 H 3.125 Z"
         transform="matrix(0.33546792,0,0,0.33546792,915.88367,509)"
         clip-rule="evenodd"
         id="path45" />
    </clipPath>
    <clipPath
       clipPathUnits="userSpaceOnUse"
       id="clipPath47">
      <path
         d="M 3.125,0 H 1656.25 V 395.99609 H 3.125 Z"
         transform="matrix(0.33546792,0,0,0.33546792,915.88367,509)"
         clip-rule="evenodd"
         id="path47" />
    </clipPath>
    <clipPath
       clipPathUnits="userSpaceOnUse"
       id="clipPath49">
      <path
         d="M 3.125,0 H 1656.25 V 395.99609 H 3.125 Z"
         transform="matrix(0.33546792,0,0,0.33546792,915.88367,509)"
         clip-rule="evenodd"
         id="path49" />
    </clipPath>
    <clipPath
       clipPathUnits="userSpaceOnUse"
       id="clipPath50">
      <path
         d="M 3.125,0 H 1656.25 V 395.99609 H 3.125 Z"
         transform="matrix(0.33546792,0,0,0.33546792,-496.61631,-79.499995)"
         clip-rule="evenodd"
         id="path50" />
    </clipPath>
    <clipPath
       clipPathUnits="userSpaceOnUse"
       id="clipPath52">
      <path
         d="M 3.125,0 H 1656.25 V 395.99609 H 3.125 Z"
         transform="matrix(0.33546792,0,0,0.33546792,915.88367,509)"
         clip-rule="evenodd"
         id="path52" />
    </clipPath>
    <clipPath
       clipPathUnits="userSpaceOnUse"
       id="clipPath53">
      <path
         d="M 3.125,0 H 1656.25 V 395.99609 H 3.125 Z"
         transform="matrix(0.33546792,0,0,0.33546792,-360.86632,-76.499995)"
         clip-rule="evenodd"
         id="path53" />
    </clipPath>
    <clipPath
       clipPathUnits="userSpaceOnUse"
       id="clipPath54">
      <path
         d="M 3.125,0 H 1656.25 V 395.99609 H 3.125 Z"
         transform="matrix(0.33546792,0,0,0.33546792,-332.4132,-95.499994)"
         clip-rule="evenodd"
         id="path54" />
    </clipPath>
    <clipPath
       clipPathUnits="userSpaceOnUse"
       id="clipPath56">
      <path
         d="M 3.125,0 H 1656.25 V 395.99609 H 3.125 Z"
         transform="matrix(-0.33546792,0,0,-0.33546792,1548.1963,678.99997)"
         clip-rule="evenodd"
         id="path56" />
    </clipPath>
    <clipPath
       clipPathUnits="userSpaceOnUse"
       id="clipPath58">
      <path
         d="M 3.125,0 H 1656.25 V 395.99609 H 3.125 Z"
         transform="matrix(0,0.33546792,-0.33546792,0,1322.04,272.84365)"
         clip-rule="evenodd"
         id="path58" />
    </clipPath>
    <clipPath
       clipPathUnits="userSpaceOnUse"
       id="clipPath60">
      <path
         d="M 3.125,0 H 1656.25 V 395.99609 H 3.125 Z"
         transform="matrix(0,0.33546792,-0.33546792,0,1321.04,273.84365)"
         clip-rule="evenodd"
         id="path60" />
    </clipPath>
    <clipPath
       clipPathUnits="userSpaceOnUse"
       id="clipPath62">
      <path
         d="M 3.125,0 H 1656.25 V 395.99609 H 3.125 Z"
         transform="matrix(0.33546792,0,0,0.33546792,915.88367,509)"
         clip-rule="evenodd"
         id="path62" />
    </clipPath>
    <clipPath
       clipPathUnits="userSpaceOnUse"
       id="clipPath64">
      <path
         d="M 3.125,0 H 1656.25 V 395.99609 H 3.125 Z"
         transform="matrix(0.33546792,0,0,0.33546792,915.88367,509)"
         clip-rule="evenodd"
         id="path64" />
    </clipPath>
    <clipPath
       clipPathUnits="userSpaceOnUse"
       id="clipPath66">
      <path
         d="M 3.125,0 H 1656.25 V 395.99609 H 3.125 Z"
         transform="matrix(0.33546792,0,0,0.33546792,915.88367,509)"
         clip-rule="evenodd"
         id="path66" />
    </clipPath>
    <clipPath
       clipPathUnits="userSpaceOnUse"
       id="clipPath68">
      <path
         d="M 3.125,0 H 1656.25 V 395.99609 H 3.125 Z"
         transform="matrix(0,-0.33546792,0.33546792,0,1292.0401,1055.1563)"
         clip-rule="evenodd"
         id="path68" />
    </clipPath>
    <clipPath
       clipPathUnits="userSpaceOnUse"
       id="clipPath70">
      <path
         d="M 3.125,0 H 1656.25 V 395.99609 H 3.125 Z"
         transform="matrix(0,-0.33546792,0.33546792,0,1293.0401,1056.1564)"
         clip-rule="evenodd"
         id="path70" />
    </clipPath>
    <clipPath
       clipPathUnits="userSpaceOnUse"
       id="clipPath72">
      <path
         d="M 3.125,0 H 1656.25 V 395.99609 H 3.125 Z"
         transform="matrix(0.33546792,0,0,0.33546792,915.88367,509)"
         clip-rule="evenodd"
         id="path72" />
    </clipPath>
    <clipPath
       clipPathUnits="userSpaceOnUse"
       id="clipPath74">
      <path
         d="M 3.125,0 H 1656.25 V 395.99609 H 3.125 Z"
         transform="matrix(0.33546792,0,0,0.33546792,915.88367,509)"
         clip-rule="evenodd"
         id="path74" />
    </clipPath>
    <clipPath
       clipPathUnits="userSpaceOnUse"
       id="clipPath76">
      <path
         d="M 3.125,0 H 1656.25 V 395.99609 H 3.125 Z"
         transform="matrix(0.33546792,0,0,0.33546792,915.88367,509)"
         clip-rule="evenodd"
         id="path76" />
    </clipPath>
    <clipPath
       clipPathUnits="userSpaceOnUse"
       id="clipPath78">
      <path
         d="M 3.125,0 H 1656.25 V 395.99609 H 3.125 Z"
         transform="matrix(0,-0.33546792,0.33546792,0,1360.0001,1123.1163)"
         clip-rule="evenodd"
         id="path78" />
    </clipPath>
    <clipPath
       clipPathUnits="userSpaceOnUse"
       id="clipPath80">
      <path
         d="M 3.125,0 H 1656.25 V 395.99609 H 3.125 Z"
         transform="matrix(0,-0.33546792,0.33546792,0,1361,1124.1162)"
         clip-rule="evenodd"
         id="path80" />
    </clipPath>
    <clipPath
       clipPathUnits="userSpaceOnUse"
       id="clipPath82">
      <path
         d="M 3.125,0 H 1656.25 V 395.99609 H 3.125 Z"
         transform="matrix(0.33546792,0,0,0.33546792,915.88367,509)"
         clip-rule="evenodd"
         id="path82" />
    </clipPath>
    <clipPath
       clipPathUnits="userSpaceOnUse"
       id="clipPath84">
      <path
         d="M 3.125,0 H 1656.25 V 395.99609 H 3.125 Z"
         transform="matrix(0.33546792,0,0,0.33546792,915.88367,509)"
         clip-rule="evenodd"
         id="path84" />
    </clipPath>
  </defs>
  <g
     id="g1">
    <path
       id="path1"
       d="M 0,0 H 531 V 127 H 0 Z"
       style="fill:#ffffff;fill-opacity:1;fill-rule:nonzero;stroke:none"
       clip-path="url(#clipPath2)" />
    <path
       id="path3"
       d="m 952,510 h 483 c 0.663,0 1.3008,0.12686 1.9132,0.38055 0.6127,0.25373 1.1535,0.61502 1.6223,1.08387 0.4688,0.46884 0.83,1.00952 1.0838,1.62207 0.2538,0.61261 0.3807,1.25042 0.3807,1.91351 v 120 c 0,0.66302 -0.1268,1.30078 -0.3806,1.91339 -0.2538,0.61255 -0.6151,1.15326 -1.0839,1.62213 -0.4688,0.46881 -1.0096,0.83002 -1.6223,1.08374 -0.6124,0.25379 -1.2502,0.38068 -1.9132,0.38074 H 952 c -0.66309,-6e-5 -1.3009,-0.12695 -1.91351,-0.38074 -0.61261,-0.25372 -1.15326,-0.61493 -1.62207,-1.08374 -0.46894,-0.46887 -0.8302,-1.00958 -1.08393,-1.62213 C 947.12677,636.30078 946.99994,635.66302 947,635 V 515 c -6e-5,-0.66309 0.12671,-1.3009 0.38043,-1.91351 0.25373,-0.61255 0.61505,-1.15323 1.08399,-1.62207 0.46881,-0.46885 1.00946,-0.83014 1.62207,-1.08387 C 950.6991,510.12686 951.33691,510 952,510 Z"
       style="fill:#ffffff;fill-opacity:1;fill-rule:nonzero;stroke:#000000;stroke-width:1;stroke-linecap:butt;stroke-linejoin:miter;stroke-miterlimit:10;stroke-dasharray:none;stroke-opacity:1"
       transform="matrix(0.95389148,0,0,0.95389148,-873.65363,-485.53076)"
       clip-path="url(#clipPath4)" />
    <text
       id="text4"
       xml:space="preserve"
       transform="matrix(0.95389148,0,0,0.95389148,236.43757,21.462553)"
       clip-path="url(#clipPath5)"><tspan
         id="tspan4"
         style="font-variant:normal;font-weight:normal;font-size:16px;font-family:Arial;writing-mode:lr-tb;fill:#000000;fill-opacity:1;fill-rule:nonzero;stroke:none"
         x="0"
         y="0">«action»</tspan></text>
    <text
       id="text5"
       xml:space="preserve"
       transform="matrix(0.95389148,0,0,0.95389148,209.29638,39.586491)"
       clip-path="url(#clipPath6)"><tspan
         id="tspan5"
         style="font-variant:normal;font-weight:normal;font-size:16px;font-family:Arial;writing-mode:lr-tb;fill:#000000;fill-opacity:1;fill-rule:nonzero;stroke:none"
         x="0"
         dx="0 0 0 0 0 0 0 0 0 0 -0.8828122"
         y="0">action1 : Action1</tspan></text>
    <path
       id="path7"
       d="m 1155.04,593.85999 h 56.84"
       style="fill:none;stroke:#000000;stroke-width:1;stroke-linecap:butt;stroke-linejoin:miter;stroke-miterlimit:10;stroke-dasharray:none;stroke-opacity:1"
       transform="matrix(0.95389148,0,0,0.95389148,-873.65363,-485.53076)"
       clip-path="url(#clipPath8)" />
    <path
       id="path9"
       d="m 1220.88,593.85999 -9,4.5 v -9 z"
       style="fill:#000000;fill-opacity:1;fill-rule:nonzero;stroke:#000000;stroke-width:1;stroke-linecap:butt;stroke-linejoin:miter;stroke-miterlimit:10;stroke-dasharray:none;stroke-opacity:1"
       transform="matrix(0.95389148,0,0,0.95389148,-873.65363,-485.53076)"
       clip-path="url(#clipPath10)" />
    <path
       id="path11"
       d="m 947,594 h 48"
       style="fill:none;stroke:#000000;stroke-width:1;stroke-linecap:butt;stroke-linejoin:miter;stroke-miterlimit:10;stroke-dasharray:none;stroke-opacity:1"
       transform="matrix(0.95389148,0,0,0.95389148,-873.65363,-485.53076)"
       clip-path="url(#clipPath12)" />
    <text
       id="text12"
       xml:space="preserve"
       transform="matrix(0.95389148,0,0,0.95389148,49.236365,75.834368)"
       clip-path="url(#clipPath13)"><tspan
         id="tspan12"
         style="font-variant:normal;font-weight:normal;font-size:12px;font-family:Arial;writing-mode:lr-tb;fill:#000000;fill-opacity:1;fill-rule:nonzero;stroke:none"
         x="0"
         y="0">=</tspan></text>
    <path
       id="path14"
       d="m 929,584 h 16 c 0.2652,0 0.52026,0.0507 0.76526,0.15216 0.24499,0.1015 0.4613,0.24603 0.64892,0.43359 0.1875,0.1875 0.33197,0.40375 0.43348,0.64881 0.1015,0.24499 0.15228,0.50012 0.15234,0.76544 v 16 c -6e-5,0.2652 -0.0509,0.52032 -0.1524,0.76532 -0.10145,0.24499 -0.24592,0.4613 -0.43342,0.64886 -0.18762,0.18757 -0.40393,0.33204 -0.64892,0.43354 -0.245,0.1015 -0.50006,0.15222 -0.76526,0.15228 h -16 c -0.26526,-6e-5 -0.52039,-0.0508 -0.76544,-0.15228 -0.24506,-0.1015 -0.46131,-0.24597 -0.64881,-0.43354 -0.18756,-0.18756 -0.33209,-0.40387 -0.43359,-0.64886 C 927.05066,602.52032 926.99994,602.2652 927,602 v -16 c -6e-5,-0.26532 0.0506,-0.52045 0.1521,-0.76544 0.1015,-0.24506 0.24609,-0.46131 0.43365,-0.64881 0.1875,-0.18756 0.40375,-0.33209 0.64881,-0.43359 C 928.47961,584.05072 928.73474,584 929,584 Z"
       style="fill:#ffffff;fill-opacity:1;fill-rule:nonzero;stroke:#000000;stroke-width:1;stroke-linecap:butt;stroke-linejoin:miter;stroke-miterlimit:10;stroke-dasharray:none;stroke-opacity:1"
       transform="matrix(-0.95389148,0,0,-0.95389148,913.93903,647.69229)"
       clip-path="url(#clipPath15)" />
    <path
       id="path16"
       d="m 952,589 v 10 h -20 v -10"
       style="fill:none;stroke:#000000;stroke-width:1;stroke-linecap:butt;stroke-linejoin:miter;stroke-miterlimit:10;stroke-dasharray:none;stroke-opacity:1"
       transform="matrix(0,-0.95389148,0.95389148,0,-541.69943,979.64662)"
       clip-path="url(#clipPath17)" />
    <path
       id="path18"
       d="m 950,589 v 10 h -18 v -10"
       style="fill:none;stroke:#ffffff;stroke-width:1;stroke-linecap:butt;stroke-linejoin:miter;stroke-miterlimit:10;stroke-dasharray:none;stroke-opacity:1"
       transform="matrix(0,-0.95389148,0.95389148,0,-542.65329,978.69263)"
       clip-path="url(#clipPath19)" />
    <path
       id="path20"
       d="m 927,594 h 17.76001"
       style="fill:none;stroke:#000000;stroke-width:1;stroke-linecap:butt;stroke-linejoin:miter;stroke-miterlimit:10;stroke-dasharray:none;stroke-opacity:1"
       transform="matrix(0.95389148,0,0,0.95389148,-873.65363,-485.53076)"
       clip-path="url(#clipPath21)" />
    <path
       id="path22"
       d="m 937.88,598 8,-4 -8,-4"
       style="fill:none;stroke:#000000;stroke-width:1;stroke-linecap:butt;stroke-linejoin:miter;stroke-miterlimit:10;stroke-dasharray:none;stroke-opacity:1"
       transform="matrix(0.95389148,0,0,0.95389148,-873.65363,-485.53076)"
       clip-path="url(#clipPath23)" />
    <path
       id="path24"
       d="m 1020.04,564 h 120 c 0.663,0 1.3007,0.12683 1.9133,0.38055 0.6126,0.25373 1.1533,0.61499 1.6221,1.08387 0.4689,0.46881 0.8301,1.00952 1.0839,1.62207 0.2538,0.61261 0.3806,1.25042 0.3807,1.91351 v 50 c -10e-5,0.66302 -0.1269,1.30084 -0.3807,1.91339 -0.2538,0.61255 -0.615,1.15326 -1.0839,1.62207 -0.4688,0.46881 -1.0095,0.83014 -1.6221,1.08386 -0.6126,0.25373 -1.2503,0.38062 -1.9133,0.38068 h -120 c -0.6632,-6e-5 -1.301,-0.12695 -1.9135,-0.38068 -0.6126,-0.25372 -1.1533,-0.61505 -1.6221,-1.08386 -0.4689,-0.46881 -0.8302,-1.00952 -1.0839,-1.62207 -0.2538,-0.61255 -0.3806,-1.25037 -0.3805,-1.91339 v -50 c -10e-5,-0.66309 0.1267,-1.3009 0.3805,-1.91351 0.2537,-0.61255 0.615,-1.15326 1.0839,-1.62207 0.4688,-0.46888 1.0095,-0.83014 1.6221,-1.08387 C 1018.739,564.12683 1019.3768,564 1020.04,564 Z"
       style="fill:#ffffff;fill-opacity:1;fill-rule:nonzero;stroke:#000000;stroke-width:1;stroke-linecap:butt;stroke-linejoin:miter;stroke-miterlimit:10;stroke-dasharray:none;stroke-opacity:1"
       transform="matrix(0.95389148,0,0,0.95389148,-873.65363,-485.53076)"
       clip-path="url(#clipPath25)" />
    <text
       id="text25"
       xml:space="preserve"
       transform="matrix(0.95389148,0,0,0.95389148,127.69394,72.972693)"
       clip-path="url(#clipPath26)"><tspan
         id="tspan25"
         style="font-variant:normal;font-weight:normal;font-size:16px;font-family:Arial;writing-mode:lr-tb;fill:#000000;fill-opacity:1;fill-rule:nonzero;stroke:none"
         x="0"
         y="0">«action»</tspan></text>
    <text
       id="text26"
       xml:space="preserve"
       transform="matrix(0.95389148,0,0,0.95389148,100.55275,91.096631)"
       clip-path="url(#clipPath27)"><tspan
         id="tspan26"
         style="font-variant:normal;font-weight:normal;font-size:16px;font-family:Arial;writing-mode:lr-tb;fill:#000000;fill-opacity:1;fill-rule:nonzero;stroke:none"
         x="0"
         dx="0 0 0 0 0 0 0 0 0 0 -0.8828122"
         y="0">action2 : Action2</tspan></text>
    <path
       id="path28"
       d="M 997.03998,584 H 1013.04 c 0.2651,0 0.5202,0.0507 0.7652,0.15216 0.245,0.1015 0.4613,0.24603 0.6489,0.43359 0.1875,0.1875 0.332,0.40375 0.4335,0.64881 0.1015,0.24499 0.1523,0.50012 0.1524,0.76544 v 16 c -10e-5,0.2652 -0.051,0.52032 -0.1524,0.76532 -0.1015,0.24499 -0.246,0.4613 -0.4335,0.64886 -0.1876,0.18757 -0.4039,0.33204 -0.6489,0.43354 -0.245,0.1015 -0.5001,0.15222 -0.7652,0.15228 h -16.00002 c -0.26526,-6e-5 -0.52045,-0.0508 -0.7655,-0.15228 -0.24506,-0.1015 -0.46131,-0.24597 -0.64875,-0.43354 -0.18762,-0.18756 -0.33215,-0.40387 -0.43365,-0.64886 -0.1015,-0.245 -0.15222,-0.50012 -0.1521,-0.76532 v -16 c -1.2e-4,-0.26532 0.0506,-0.52045 0.1521,-0.76544 0.1015,-0.24506 0.24603,-0.46131 0.43365,-0.64881 0.18744,-0.18756 0.40369,-0.33209 0.64875,-0.43359 0.24505,-0.10144 0.50024,-0.15216 0.7655,-0.15216 z"
       style="fill:#ffffff;fill-opacity:1;fill-rule:nonzero;stroke:#000000;stroke-width:1;stroke-linecap:butt;stroke-linejoin:miter;stroke-miterlimit:10;stroke-dasharray:none;stroke-opacity:1"
       transform="matrix(-0.95389148,0,0,-0.95389148,1043.7445,647.69229)"
       clip-path="url(#clipPath29)" />
    <path
       id="path30"
       d="m 1020.04,589 v 10 h -20 v -10"
       style="fill:none;stroke:#000000;stroke-width:1;stroke-linecap:butt;stroke-linejoin:miter;stroke-miterlimit:10;stroke-dasharray:none;stroke-opacity:1"
       transform="matrix(0,-0.95389148,0.95389148,0,-476.79666,1044.5493)"
       clip-path="url(#clipPath31)" />
    <path
       id="path32"
       d="m 1018.04,589 v 10 h -18 v -10"
       style="fill:none;stroke:#ffffff;stroke-width:1;stroke-linecap:butt;stroke-linejoin:miter;stroke-miterlimit:10;stroke-dasharray:none;stroke-opacity:1"
       transform="matrix(0,-0.95389148,0.95389148,0,-477.75057,1043.5954)"
       clip-path="url(#clipPath33)" />
    <path
       id="path34"
       d="M 995.03998,594 H 1012.8"
       style="fill:none;stroke:#000000;stroke-width:1;stroke-linecap:butt;stroke-linejoin:miter;stroke-miterlimit:10;stroke-dasharray:none;stroke-opacity:1"
       transform="matrix(0.95389148,0,0,0.95389148,-873.65363,-485.53076)"
       clip-path="url(#clipPath35)" />
    <path
       id="path36"
       d="m 1005.92,598 8,-4 -8,-4"
       style="fill:none;stroke:#000000;stroke-width:1;stroke-linecap:butt;stroke-linejoin:miter;stroke-miterlimit:10;stroke-dasharray:none;stroke-opacity:1"
       transform="matrix(0.95389148,0,0,0.95389148,-873.65363,-485.53076)"
       clip-path="url(#clipPath37)" />
    <path
       id="path38"
       d="m 1147.04,584 h 16 c 0.2652,0 0.5202,0.0507 0.7652,0.15216 0.245,0.1015 0.4613,0.24603 0.6489,0.43359 0.1874,0.1875 0.3319,0.40375 0.4335,0.64881 0.1014,0.24499 0.1523,0.50012 0.1524,0.76544 v 16 c -10e-5,0.2652 -0.051,0.52032 -0.1524,0.76532 -0.1016,0.24499 -0.2461,0.4613 -0.4335,0.64886 -0.1876,0.18757 -0.4039,0.33204 -0.6489,0.43354 -0.245,0.1015 -0.5,0.15222 -0.7652,0.15228 h -16 c -0.2652,-6e-5 -0.5203,-0.0508 -0.7653,-0.15228 -0.2452,-0.1015 -0.4615,-0.24597 -0.649,-0.43354 -0.1875,-0.18756 -0.332,-0.40387 -0.4336,-0.64886 -0.1014,-0.245 -0.1522,-0.50012 -0.1521,-0.76532 v -16 c -10e-5,-0.26532 0.051,-0.52045 0.1521,-0.76544 0.1016,-0.24506 0.2461,-0.46131 0.4336,-0.64881 0.1875,-0.18756 0.4038,-0.33209 0.649,-0.43359 0.245,-0.10144 0.5001,-0.15216 0.7653,-0.15216 z"
       style="fill:#ffffff;fill-opacity:1;fill-rule:nonzero;stroke:#000000;stroke-width:1;stroke-linecap:butt;stroke-linejoin:miter;stroke-miterlimit:10;stroke-dasharray:none;stroke-opacity:1"
       transform="matrix(0.95389148,0,0,0.95389148,-873.65363,-485.53076)"
       clip-path="url(#clipPath39)" />
    <path
       id="path40"
       d="m 1160.04,589 v 10 h -20 v -10"
       style="fill:none;stroke:#000000;stroke-width:1;stroke-linecap:butt;stroke-linejoin:miter;stroke-miterlimit:10;stroke-dasharray:none;stroke-opacity:1"
       transform="matrix(0,0.95389148,-0.95389148,0,789.9713,-1015.9326)"
       clip-path="url(#clipPath41)" />
    <path
       id="path42"
       d="m 1160.04,589 v 10 h -18 v -10"
       style="fill:none;stroke:#ffffff;stroke-width:1;stroke-linecap:butt;stroke-linejoin:miter;stroke-miterlimit:10;stroke-dasharray:none;stroke-opacity:1"
       transform="matrix(0,0.95389148,-0.95389148,0,790.92512,-1016.8865)"
       clip-path="url(#clipPath43)" />
    <path
       id="path44"
       d="m 1145.04,593.96997 h 17.7601"
       style="fill:none;stroke:#000000;stroke-width:1;stroke-linecap:butt;stroke-linejoin:miter;stroke-miterlimit:10;stroke-dasharray:none;stroke-opacity:1"
       transform="matrix(0.95389148,0,0,0.95389148,-873.65363,-485.53076)"
       clip-path="url(#clipPath45)" />
    <path
       id="path46"
       d="m 1155.92,597.96997 8,-4 -8,-4"
       style="fill:none;stroke:#000000;stroke-width:1;stroke-linecap:butt;stroke-linejoin:miter;stroke-miterlimit:10;stroke-dasharray:none;stroke-opacity:1"
       transform="matrix(0.95389148,0,0,0.95389148,-873.65363,-485.53076)"
       clip-path="url(#clipPath47)" />
    <path
       id="path48"
       d="m 1392.04,593.85999 h 48"
       style="fill:none;stroke:#000000;stroke-width:1;stroke-linecap:butt;stroke-linejoin:miter;stroke-miterlimit:10;stroke-dasharray:none;stroke-opacity:1"
       transform="matrix(0.95389148,0,0,0.95389148,-873.65363,-485.53076)"
       clip-path="url(#clipPath49)" />
    <text
       id="text49"
       xml:space="preserve"
       transform="matrix(0.95389148,0,0,0.95389148,473.71807,75.834368)"
       clip-path="url(#clipPath50)"><tspan
         id="tspan49"
         style="font-variant:normal;font-weight:normal;font-size:12px;font-family:Arial;writing-mode:lr-tb;fill:#000000;fill-opacity:1;fill-rule:nonzero;stroke:none"
         x="0"
         y="0">=</tspan></text>
    <path
       id="path51"
       d="m 1247.04,564 h 120 c 0.663,0 1.3007,0.12683 1.9133,0.38055 0.6126,0.25373 1.1533,0.61499 1.6221,1.08387 0.4688,0.46881 0.83,1.00952 1.0838,1.62207 0.2538,0.61261 0.3807,1.25042 0.3808,1.91351 v 50 c -10e-5,0.66302 -0.127,1.30084 -0.3808,1.91339 -0.2538,0.61255 -0.615,1.15326 -1.0838,1.62207 -0.4688,0.46881 -1.0095,0.83014 -1.6221,1.08386 -0.6126,0.25373 -1.2503,0.38062 -1.9133,0.38068 h -120 c -0.6632,-6e-5 -1.301,-0.12695 -1.9135,-0.38068 -0.6127,-0.25372 -1.1534,-0.61505 -1.6221,-1.08386 -0.469,-0.46881 -0.8303,-1.00952 -1.0839,-1.62207 -0.2537,-0.61255 -0.3806,-1.25037 -0.3805,-1.91339 v -50 c -10e-5,-0.66309 0.1268,-1.3009 0.3805,-1.91351 0.2536,-0.61255 0.6149,-1.15326 1.0839,-1.62207 0.4687,-0.46888 1.0094,-0.83014 1.6221,-1.08387 C 1245.739,564.12683 1246.3768,564 1247.04,564 Z"
       style="fill:#ffffff;fill-opacity:1;fill-rule:nonzero;stroke:#000000;stroke-width:1;stroke-linecap:butt;stroke-linejoin:miter;stroke-miterlimit:10;stroke-dasharray:none;stroke-opacity:1"
       transform="matrix(0.95389148,0,0,0.95389148,-873.65363,-485.53076)"
       clip-path="url(#clipPath52)" />
    <text
       id="text52"
       xml:space="preserve"
       transform="matrix(0.95389148,0,0,0.95389148,344.22731,72.972693)"
       clip-path="url(#clipPath53)"><tspan
         id="tspan52"
         style="font-variant:normal;font-weight:normal;font-size:16px;font-family:Arial;writing-mode:lr-tb;fill:#000000;fill-opacity:1;fill-rule:nonzero;stroke:none"
         x="0"
         y="0">«action»</tspan></text>
    <text
       id="text53"
       xml:space="preserve"
       transform="matrix(0.95389148,0,0,0.95389148,317.08612,91.096631)"
       clip-path="url(#clipPath54)"><tspan
         id="tspan53"
         style="font-variant:normal;font-weight:normal;font-size:16px;font-family:Arial;writing-mode:lr-tb;fill:#000000;fill-opacity:1;fill-rule:nonzero;stroke:none"
         x="0"
         dx="0 0 0 0 0 0 0 0 0 0 -0.8828122"
         y="0">action3 : Action3</tspan></text>
    <path
       id="path55"
       d="m 1224.04,584 h 16 c 0.2653,0 0.5203,0.0507 0.7653,0.15216 0.245,0.1015 0.4613,0.24603 0.6488,0.43359 0.1874,0.1875 0.3319,0.40375 0.4335,0.64881 0.1014,0.24499 0.1523,0.50012 0.1524,0.76544 v 16 c -10e-5,0.2652 -0.051,0.52032 -0.1524,0.76532 -0.1016,0.24499 -0.2461,0.4613 -0.4335,0.64886 -0.1875,0.18757 -0.4038,0.33204 -0.6488,0.43354 -0.245,0.1015 -0.5,0.15222 -0.7653,0.15228 h -16 c -0.2652,-6e-5 -0.5205,-0.0508 -0.7655,-0.15228 -0.245,-0.1015 -0.4613,-0.24597 -0.6488,-0.43354 -0.1876,-0.18756 -0.3321,-0.40387 -0.4336,-0.64886 -0.1015,-0.245 -0.1522,-0.50012 -0.1521,-0.76532 v -16 c -10e-5,-0.26532 0.051,-0.52045 0.1521,-0.76544 0.1015,-0.24506 0.246,-0.46131 0.4336,-0.64881 0.1875,-0.18756 0.4038,-0.33209 0.6488,-0.43359 0.245,-0.10144 0.5003,-0.15216 0.7655,-0.15216 z"
       style="fill:#ffffff;fill-opacity:1;fill-rule:nonzero;stroke:#000000;stroke-width:1;stroke-linecap:butt;stroke-linejoin:miter;stroke-miterlimit:10;stroke-dasharray:none;stroke-opacity:1"
       transform="matrix(-0.95389148,0,0,-0.95389148,1476.8113,647.69229)"
       clip-path="url(#clipPath56)" />
    <path
       id="path57"
       d="m 1247.04,589 v 10 h -20 v -10"
       style="fill:none;stroke:#000000;stroke-width:1;stroke-linecap:butt;stroke-linejoin:miter;stroke-miterlimit:10;stroke-dasharray:none;stroke-opacity:1"
       transform="matrix(0,-0.95389148,0.95389148,0,-260.26323,1261.0827)"
       clip-path="url(#clipPath58)" />
    <path
       id="path59"
       d="m 1245.04,589 v 10 h -18 v -10"
       style="fill:none;stroke:#ffffff;stroke-width:1;stroke-linecap:butt;stroke-linejoin:miter;stroke-miterlimit:10;stroke-dasharray:none;stroke-opacity:1"
       transform="matrix(0,-0.95389148,0.95389148,0,-261.21712,1260.1288)"
       clip-path="url(#clipPath60)" />
    <path
       id="path61"
       d="m 1222.04,594 h 17.7601"
       style="fill:none;stroke:#000000;stroke-width:1;stroke-linecap:butt;stroke-linejoin:miter;stroke-miterlimit:10;stroke-dasharray:none;stroke-opacity:1"
       transform="matrix(0.95389148,0,0,0.95389148,-873.65363,-485.53076)"
       clip-path="url(#clipPath62)" />
    <path
       id="path63"
       d="m 1232.92,598 8,-4 -8,-4"
       style="fill:none;stroke:#000000;stroke-width:1;stroke-linecap:butt;stroke-linejoin:miter;stroke-miterlimit:10;stroke-dasharray:none;stroke-opacity:1"
       transform="matrix(0.95389148,0,0,0.95389148,-873.65363,-485.53076)"
       clip-path="url(#clipPath64)" />
    <path
       id="path65"
       d="m 1374.04,584 h 16 c 0.2651,0 0.5201,0.0507 0.7651,0.15216 0.245,0.1015 0.4614,0.24603 0.649,0.43359 0.1874,0.1875 0.3319,0.40375 0.4335,0.64881 0.1014,0.24499 0.1523,0.50012 0.1524,0.76544 v 16 c -10e-5,0.2652 -0.051,0.52032 -0.1524,0.76532 -0.1016,0.24499 -0.2461,0.4613 -0.4335,0.64886 -0.1876,0.18757 -0.404,0.33204 -0.649,0.43354 -0.245,0.1015 -0.5,0.15222 -0.7651,0.15228 h -16 c -0.2652,-6e-5 -0.5205,-0.0508 -0.7655,-0.15228 -0.2451,-0.1015 -0.4614,-0.24597 -0.6488,-0.43354 -0.1876,-0.18756 -0.3321,-0.40387 -0.4336,-0.64886 -0.1014,-0.245 -0.1522,-0.50012 -0.1521,-0.76532 v -16 c -10e-5,-0.26532 0.051,-0.52045 0.1521,-0.76544 0.1015,-0.24506 0.246,-0.46131 0.4336,-0.64881 0.1874,-0.18756 0.4037,-0.33209 0.6488,-0.43359 0.245,-0.10144 0.5003,-0.15216 0.7655,-0.15216 z"
       style="fill:#ffffff;fill-opacity:1;fill-rule:nonzero;stroke:#000000;stroke-width:1;stroke-linecap:butt;stroke-linejoin:miter;stroke-miterlimit:10;stroke-dasharray:none;stroke-opacity:1"
       transform="matrix(0.95389148,0,0,0.95389148,-873.65363,-485.53076)"
       clip-path="url(#clipPath66)" />
    <path
       id="path67"
       d="m 1387.04,589 v 10 h -20 v -10"
       style="fill:none;stroke:#000000;stroke-width:1;stroke-linecap:butt;stroke-linejoin:miter;stroke-miterlimit:10;stroke-dasharray:none;stroke-opacity:1"
       transform="matrix(0,0.95389148,-0.95389148,0,1006.5046,-1232.466)"
       clip-path="url(#clipPath68)" />
    <path
       id="path69"
       d="m 1387.04,589 v 10 h -18 v -10"
       style="fill:none;stroke:#ffffff;stroke-width:1;stroke-linecap:butt;stroke-linejoin:miter;stroke-miterlimit:10;stroke-dasharray:none;stroke-opacity:1"
       transform="matrix(0,0.95389148,-0.95389148,0,1007.4586,-1233.4199)"
       clip-path="url(#clipPath70)" />
    <path
       id="path71"
       d="m 1372.04,593.96997 h 17.7601"
       style="fill:none;stroke:#000000;stroke-width:1;stroke-linecap:butt;stroke-linejoin:miter;stroke-miterlimit:10;stroke-dasharray:none;stroke-opacity:1"
       transform="matrix(0.95389148,0,0,0.95389148,-873.65363,-485.53076)"
       clip-path="url(#clipPath72)" />
    <path
       id="path73"
       d="m 1382.92,597.96997 8,-4 -8,-4"
       style="fill:none;stroke:#000000;stroke-width:1;stroke-linecap:butt;stroke-linejoin:miter;stroke-miterlimit:10;stroke-dasharray:none;stroke-opacity:1"
       transform="matrix(0.95389148,0,0,0.95389148,-873.65363,-485.53076)"
       clip-path="url(#clipPath74)" />
    <path
       id="path75"
       d="m 1442,584 h 16 c 0.2651,0 0.5203,0.0507 0.7653,0.15216 0.245,0.1015 0.4613,0.24603 0.6489,0.43359 0.1875,0.1875 0.332,0.40375 0.4335,0.64881 0.1015,0.24499 0.1523,0.50012 0.1523,0.76544 v 16 c 0,0.2652 -0.051,0.52032 -0.1523,0.76532 -0.1015,0.24499 -0.246,0.4613 -0.4335,0.64886 -0.1876,0.18757 -0.4039,0.33204 -0.6489,0.43354 -0.245,0.1015 -0.5002,0.15222 -0.7653,0.15228 h -16 c -0.2654,-6e-5 -0.5205,-0.0508 -0.7655,-0.15228 -0.245,-0.1015 -0.4613,-0.24597 -0.6487,-0.43354 -0.1876,-0.18756 -0.3321,-0.40387 -0.4337,-0.64886 C 1440.0507,602.52032 1440,602.2652 1440,602 v -16 c 0,-0.26532 0.051,-0.52045 0.1522,-0.76544 0.1015,-0.24506 0.246,-0.46131 0.4336,-0.64881 0.1874,-0.18756 0.4037,-0.33209 0.6487,-0.43359 C 1441.4795,584.05072 1441.7346,584 1442,584 Z"
       style="fill:#ffffff;fill-opacity:1;fill-rule:nonzero;stroke:#000000;stroke-width:1;stroke-linecap:butt;stroke-linejoin:miter;stroke-miterlimit:10;stroke-dasharray:none;stroke-opacity:1"
       transform="matrix(0.95389148,0,0,0.95389148,-873.65363,-485.53076)"
       clip-path="url(#clipPath76)" />
    <path
       id="path77"
       d="m 1455,589 v 10 h -20 v -10"
       style="fill:none;stroke:#000000;stroke-width:1;stroke-linecap:butt;stroke-linejoin:miter;stroke-miterlimit:10;stroke-dasharray:none;stroke-opacity:1"
       transform="matrix(0,0.95389148,-0.95389148,0,1071.3311,-1297.2925)"
       clip-path="url(#clipPath78)" />
    <path
       id="path79"
       d="m 1455,589 v 10 h -18 v -10"
       style="fill:none;stroke:#ffffff;stroke-width:1;stroke-linecap:butt;stroke-linejoin:miter;stroke-miterlimit:10;stroke-dasharray:none;stroke-opacity:1"
       transform="matrix(0,0.95389148,-0.95389148,0,1072.2849,-1298.2463)"
       clip-path="url(#clipPath80)" />
    <path
       id="path81"
       d="m 1440,593.96997 h 17.76"
       style="fill:none;stroke:#000000;stroke-width:1;stroke-linecap:butt;stroke-linejoin:miter;stroke-miterlimit:10;stroke-dasharray:none;stroke-opacity:1"
       transform="matrix(0.95389148,0,0,0.95389148,-873.65363,-485.53076)"
       clip-path="url(#clipPath82)" />
    <path
       id="path83"
       d="m 1450.88,597.96997 8,-4 -8,-4"
       style="fill:none;stroke:#000000;stroke-width:1;stroke-linecap:butt;stroke-linejoin:miter;stroke-miterlimit:10;stroke-dasharray:none;stroke-opacity:1"
       transform="matrix(0.95389148,0,0,0.95389148,-873.65363,-485.53076)"
       clip-path="url(#clipPath84)" />
  </g>
</svg>
