<?xml version="1.0" encoding="UTF-8" standalone="no"?>
<!-- Created with Inkscape (http://www.inkscape.org/) -->

<svg
   version="1.1"
   id="svg1"
   width="155.84"
   height="137.28"
   viewBox="0 0 155.84 137.28"
   xmlns="http://www.w3.org/2000/svg"
   xmlns:svg="http://www.w3.org/2000/svg">
  <defs
     id="defs1">
    <clipPath
       clipPathUnits="userSpaceOnUse"
       id="clipPath2">
      <path
         d="M 0,0 H 488 V 429.00391 H 0 Z"
         transform="scale(0.31999999)"
         clip-rule="evenodd"
         id="path2" />
    </clipPath>
    <clipPath
       clipPathUnits="userSpaceOnUse"
       id="clipPath4">
      <path
         d="M 3.125,3.125 H 487.5 v 425 H 3.125 Z"
         transform="matrix(0.34065602,0,0,0.34065602,282.1958,6016.8717)"
         clip-rule="evenodd"
         id="path4" />
    </clipPath>
    <clipPath
       clipPathUnits="userSpaceOnUse"
       id="clipPath5">
      <path
         d="M 3.125,3.125 H 487.5 v 425 H 3.125 Z"
         transform="matrix(0.34065602,0,0,0.34065602,-52.554198,-18.628927)"
         clip-rule="evenodd"
         id="path5" />
    </clipPath>
    <clipPath
       clipPathUnits="userSpaceOnUse"
       id="clipPath6">
      <path
         d="M 3.125,3.125 H 487.5 v 425 H 3.125 Z"
         transform="matrix(0.34065602,0,0,0.34065602,-24.101078,-38.628927)"
         clip-rule="evenodd"
         id="path6" />
    </clipPath>
    <clipPath
       clipPathUnits="userSpaceOnUse"
       id="clipPath8">
      <path
         d="M 3.125,3.125 H 487.5 v 425 H 3.125 Z"
         transform="matrix(0.34065602,0,0,0.34065602,282.1958,6016.8717)"
         clip-rule="evenodd"
         id="path8" />
    </clipPath>
    <clipPath
       clipPathUnits="userSpaceOnUse"
       id="clipPath9">
      <path
         d="M 3.125,3.125 H 487.5 v 425 H 3.125 Z"
         transform="matrix(0.34065602,0,0,0.34065602,-52.554198,-118.62893)"
         clip-rule="evenodd"
         id="path9" />
    </clipPath>
    <clipPath
       clipPathUnits="userSpaceOnUse"
       id="clipPath10">
      <path
         d="M 3.125,3.125 H 487.5 v 425 H 3.125 Z"
         transform="matrix(0.34065602,0,0,0.34065602,-24.101078,-138.62893)"
         clip-rule="evenodd"
         id="path10" />
    </clipPath>
    <clipPath
       clipPathUnits="userSpaceOnUse"
       id="clipPath12">
      <path
         d="M 3.125,3.125 H 487.5 v 425 H 3.125 Z"
         transform="matrix(0.34065602,0,0,0.34065602,282.1958,6016.8717)"
         clip-rule="evenodd"
         id="path12" />
    </clipPath>
    <clipPath
       clipPathUnits="userSpaceOnUse"
       id="clipPath14">
      <path
         d="M 3.125,3.125 H 487.5 v 425 H 3.125 Z"
         transform="matrix(0.34065602,0,0,0.34065602,282.1958,6016.8717)"
         clip-rule="evenodd"
         id="path14" />
    </clipPath>
    <clipPath
       clipPathUnits="userSpaceOnUse"
       id="clipPath15">
      <path
         d="M 3.125,3.125 H 487.5 v 425 H 3.125 Z"
         transform="matrix(0.34065602,0,0,0.34065602,-90.788578,-77.628928)"
         clip-rule="evenodd"
         id="path15" />
    </clipPath>
  </defs>
  <g
     id="g1">
    <path
       id="path1"
       d="M 0,0 H 156 V 137 H 0 Z"
       style="fill:#ffffff;fill-opacity:1;fill-rule:nonzero;stroke:none"
       clip-path="url(#clipPath2)" />
    <path
       id="path3"
       d="m 290.32999,6020 h 150 c 0.66302,0 1.30081,0.127 1.91336,0.3804 0.61258,0.2534 1.15329,0.6147 1.62213,1.084 0.46884,0.4687 0.83011,1.0092 1.08386,1.622 0.25372,0.6123 0.38062,1.25 0.38065,1.9136 v 30 c -3e-5,0.6626 -0.12693,1.3003 -0.38065,1.9126 -0.25375,0.6123 -0.61502,1.1528 -1.08386,1.6221 -0.46884,0.4687 -1.00955,0.83 -1.62213,1.0835 -0.61255,0.2539 -1.25034,0.3813 -1.91336,0.3818 h -150 c -0.66306,-5e-4 -1.30088,-0.1279 -1.91346,-0.3818 -0.61257,-0.2535 -1.15325,-0.6148 -1.6221,-1.0835 -0.46887,-0.4693 -0.83017,-1.0098 -1.08389,-1.6226 -0.25372,-0.6118 -0.38058,-1.2495 -0.38055,-1.9121 v -30 c -3e-5,-0.6636 0.12683,-1.3013 0.38055,-1.9136 0.25372,-0.6128 0.61502,-1.1533 1.08389,-1.622 0.46885,-0.4693 1.00953,-0.8306 1.6221,-1.084 0.61258,-0.2534 1.2504,-0.3804 1.91346,-0.3804 z"
       style="fill:#ffffff;fill-opacity:1;fill-rule:nonzero;stroke:#000000;stroke-width:1;stroke-linecap:butt;stroke-linejoin:miter;stroke-miterlimit:10;stroke-dasharray:none;stroke-opacity:1"
       transform="matrix(0.93936396,0,0,0.93936396,-265.08456,-5652.0324)"
       clip-path="url(#clipPath4)" />
    <text
       id="text4"
       xml:space="preserve"
       transform="matrix(0.93936396,0,0,0.93936396,49.36752,17.499343)"
       clip-path="url(#clipPath5)"><tspan
         id="tspan4"
         style="font-variant:normal;font-weight:normal;font-size:16px;font-family:Arial;writing-mode:lr-tb;fill:#000000;fill-opacity:1;fill-rule:nonzero;stroke:none"
         x="0"
         y="0">«action»</tspan></text>
    <text
       id="text5"
       xml:space="preserve"
       transform="matrix(0.93936396,0,0,0.93936396,22.639684,36.286622)"
       clip-path="url(#clipPath6)"><tspan
         id="tspan5"
         style="font-variant:normal;font-weight:normal;font-size:16px;font-family:Arial;writing-mode:lr-tb;fill:#000000;fill-opacity:1;fill-rule:nonzero;stroke:none"
         x="0"
         dx="0 0 0 0 0 0 0 0 0 0 -0.8828122"
         y="0">action1 : Action1</tspan></text>
    <path
       id="path7"
       d="m 290.32999,6120 h 150 c 0.66302,0 1.30081,0.1265 1.91336,0.3799 0.61258,0.2539 1.15329,0.6152 1.62213,1.0845 0.46884,0.4682 0.83011,1.0087 1.08386,1.6215 0.25372,0.6128 0.38062,1.2505 0.38065,1.9141 v 30 c -3e-5,0.6626 -0.12693,1.2998 -0.38065,1.9126 -0.25375,0.6123 -0.61502,1.1528 -1.08386,1.6221 -0.46884,0.4687 -1.00955,0.83 -1.62213,1.084 -0.61255,0.2539 -1.25034,0.3808 -1.91336,0.3813 h -150 c -0.66306,-5e-4 -1.30088,-0.1274 -1.91346,-0.3813 -0.61257,-0.254 -1.15325,-0.6153 -1.6221,-1.084 -0.46887,-0.4693 -0.83017,-1.0098 -1.08389,-1.6221 -0.25372,-0.6128 -0.38058,-1.25 -0.38055,-1.9126 v -30 c -3e-5,-0.6636 0.12683,-1.3013 0.38055,-1.9141 0.25372,-0.6128 0.61502,-1.1533 1.08389,-1.6215 0.46885,-0.4693 1.00953,-0.8306 1.6221,-1.0845 0.61258,-0.2534 1.2504,-0.3799 1.91346,-0.3799 z"
       style="fill:#ffffff;fill-opacity:1;fill-rule:nonzero;stroke:#000000;stroke-width:1;stroke-linecap:butt;stroke-linejoin:miter;stroke-miterlimit:10;stroke-dasharray:none;stroke-opacity:1"
       transform="matrix(0.93936396,0,0,0.93936396,-265.08456,-5652.0324)"
       clip-path="url(#clipPath8)" />
    <text
       id="text8"
       xml:space="preserve"
       transform="matrix(0.93936396,0,0,0.93936396,49.36752,111.43574)"
       clip-path="url(#clipPath9)"><tspan
         id="tspan8"
         style="font-variant:normal;font-weight:normal;font-size:16px;font-family:Arial;writing-mode:lr-tb;fill:#000000;fill-opacity:1;fill-rule:nonzero;stroke:none"
         x="0"
         y="0">«action»</tspan></text>
    <text
       id="text9"
       xml:space="preserve"
       transform="matrix(0.93936396,0,0,0.93936396,22.639684,130.22302)"
       clip-path="url(#clipPath10)"><tspan
         id="tspan9"
         style="font-variant:normal;font-weight:normal;font-size:16px;font-family:Arial;writing-mode:lr-tb;fill:#000000;fill-opacity:1;fill-rule:nonzero;stroke:none"
         x="0"
         dx="0 0 0 0 0 0 0 0 0 0 -0.8828122"
         y="0">action2 : Action2</tspan></text>
    <path
       id="path11"
       d="m 365.82999,6060 v 3 h -1 v -3 m 1,6 v 3 h -1 v -3 m 1,6 v 3 h -1 v -3 m 1,6 v 3 h -1 v -3 m 1,6 v 3 h -1 v -3 m 1,6 v 3 h -1 v -3 m 1,6 v 3 h -1 v -3 m 1,6 v 3 h -1 v -3 m 1,6 v 3 h -1 v -3 m 1,6 v 3 h -1 v -3"
       style="fill:#000000;fill-opacity:1;fill-rule:nonzero;stroke:none"
       transform="matrix(0.93936396,0,0,0.93936396,-265.08456,-5652.0324)"
       clip-path="url(#clipPath12)" />
    <path
       id="path13"
       d="m 360.82999,6109.8799 4.5,9 4.5,-9"
       style="fill:none;stroke:#000000;stroke-width:1;stroke-linecap:butt;stroke-linejoin:miter;stroke-miterlimit:10;stroke-dasharray:none;stroke-opacity:1"
       transform="matrix(0.93936396,0,0,0.93936396,-265.08456,-5652.0324)"
       clip-path="url(#clipPath14)" />
    <text
       id="text14"
       xml:space="preserve"
       transform="matrix(0.93936396,0,0,0.93936396,85.283518,72.921817)"
       clip-path="url(#clipPath15)"><tspan
         id="tspan14"
         style="font-variant:normal;font-weight:normal;font-size:12px;font-family:Arial;writing-mode:lr-tb;fill:#000000;fill-opacity:1;fill-rule:nonzero;stroke:none"
         x="0"
         y="0">[guard1]</tspan></text>
  </g>
</svg>
