<?xml version="1.0" encoding="UTF-8" standalone="no"?>
<!-- Created with Inkscape (http://www.inkscape.org/) -->

<svg
   version="1.1"
   id="svg1"
   width="193.27998"
   height="216"
   viewBox="0 0 193.27998 216"
   xmlns="http://www.w3.org/2000/svg"
   xmlns:svg="http://www.w3.org/2000/svg">
  <defs
     id="defs1">
    <clipPath
       clipPathUnits="userSpaceOnUse"
       id="clipPath2">
      <path
         d="M 0,0 H 605 V 675 H 0 Z"
         transform="scale(0.31999999)"
         clip-rule="evenodd"
         id="path2" />
    </clipPath>
    <clipPath
       clipPathUnits="userSpaceOnUse"
       id="clipPath4">
      <path
         d="m 3.125,6.25 h 600 v 662.5 h -600 z"
         transform="matrix(0.34090308,0,0,0.34090308,1776.8637,-180.19597)"
         clip-rule="evenodd"
         id="path4" />
    </clipPath>
    <clipPath
       clipPathUnits="userSpaceOnUse"
       id="clipPath5">
      <path
         d="m 3.125,6.25 h 600 v 662.5 h -600 z"
         transform="matrix(0.34090308,0,0,0.34090308,-74.573901,-149.69595)"
         clip-rule="evenodd"
         id="path5" />
    </clipPath>
    <clipPath
       clipPathUnits="userSpaceOnUse"
       id="clipPath7">
      <path
         d="m 3.125,6.25 h 600 v 662.5 h -600 z"
         transform="matrix(0.34090308,0,0,0.34090308,1776.8637,-180.19597)"
         clip-rule="evenodd"
         id="path7" />
    </clipPath>
    <clipPath
       clipPathUnits="userSpaceOnUse"
       id="clipPath9">
      <path
         d="m 3.125,6.25 h 600 v 662.5 h -600 z"
         transform="matrix(0.34090308,0,0,0.34090308,1776.8637,-180.19597)"
         clip-rule="evenodd"
         id="path9" />
    </clipPath>
    <clipPath
       clipPathUnits="userSpaceOnUse"
       id="clipPath11">
      <path
         d="m 3.125,6.25 h 600 v 662.5 h -600 z"
         transform="matrix(0.34090308,0,0,0.34090308,1776.8637,-180.19597)"
         clip-rule="evenodd"
         id="path11" />
    </clipPath>
    <clipPath
       clipPathUnits="userSpaceOnUse"
       id="clipPath12">
      <path
         d="m 3.125,6.25 h 600 v 662.5 h -600 z"
         transform="matrix(0.34090308,0,0,0.34090308,-72.386401,-176.69595)"
         clip-rule="evenodd"
         id="path12" />
    </clipPath>
    <clipPath
       clipPathUnits="userSpaceOnUse"
       id="clipPath13">
      <path
         d="m 3.125,6.25 h 600 v 662.5 h -600 z"
         transform="matrix(0.34090308,0,0,0.34090308,-76.839501,-195.69595)"
         clip-rule="evenodd"
         id="path13" />
    </clipPath>
    <clipPath
       clipPathUnits="userSpaceOnUse"
       id="clipPath15">
      <path
         d="m 3.125,6.25 h 600 v 662.5 h -600 z"
         transform="matrix(0.34090308,0,0,0.34090308,1776.8637,-180.19597)"
         clip-rule="evenodd"
         id="path15" />
    </clipPath>
    <clipPath
       clipPathUnits="userSpaceOnUse"
       id="clipPath16">
      <path
         d="m 3.125,6.25 h 600 v 662.5 h -600 z"
         transform="matrix(0.34090308,0,0,0.34090308,-46.589501,-25.695953)"
         clip-rule="evenodd"
         id="path16" />
    </clipPath>
    <clipPath
       clipPathUnits="userSpaceOnUse"
       id="clipPath17">
      <path
         d="m 3.125,6.25 h 600 v 662.5 h -600 z"
         transform="matrix(0.34090308,0,0,0.34090308,-75.511401,-44.695953)"
         clip-rule="evenodd"
         id="path17" />
    </clipPath>
    <clipPath
       clipPathUnits="userSpaceOnUse"
       id="clipPath18">
      <path
         d="m 3.125,6.25 h 600 v 662.5 h -600 z"
         transform="matrix(0.34090308,0,0,0.34090308,-29.917701,-63.695953)"
         clip-rule="evenodd"
         id="path18" />
    </clipPath>
    <clipPath
       clipPathUnits="userSpaceOnUse"
       id="clipPath19">
      <path
         d="m 3.125,6.25 h 600 v 662.5 h -600 z"
         transform="matrix(0.34090308,0,0,0.34090308,-109.3083,-63.695953)"
         clip-rule="evenodd"
         id="path19" />
    </clipPath>
    <clipPath
       clipPathUnits="userSpaceOnUse"
       id="clipPath20">
      <path
         d="m 3.125,6.25 h 600 v 662.5 h -600 z"
         transform="matrix(0.34090308,0,0,0.34090308,-125.9958,-63.695953)"
         clip-rule="evenodd"
         id="path20" />
    </clipPath>
    <clipPath
       clipPathUnits="userSpaceOnUse"
       id="clipPath22">
      <path
         d="m 3.125,6.25 h 600 v 662.5 h -600 z"
         transform="matrix(0.34090308,0,0,0.34090308,1776.8637,-180.19597)"
         clip-rule="evenodd"
         id="path22" />
    </clipPath>
    <clipPath
       clipPathUnits="userSpaceOnUse"
       id="clipPath23">
      <path
         d="m 3.125,6.25 h 600 v 662.5 h -600 z"
         transform="matrix(0.34090308,0,0,0.34090308,-74.573901,-89.695953)"
         clip-rule="evenodd"
         id="path23" />
    </clipPath>
    <clipPath
       clipPathUnits="userSpaceOnUse"
       id="clipPath25">
      <path
         d="m 3.125,6.25 h 600 v 662.5 h -600 z"
         transform="matrix(0.34090308,0,0,0.34090308,1776.8637,-180.19597)"
         clip-rule="evenodd"
         id="path25" />
    </clipPath>
  </defs>
  <g
     id="g1">
    <path
       id="path1"
       d="M 0,0 H 194 V 216 H 0 Z"
       style="fill:#ffffff;fill-opacity:1;fill-rule:nonzero;stroke:none"
       clip-path="url(#clipPath2)" />
    <path
       id="path3"
       d="m 1930,-45 h 18 c 0.276,0 0.5117,0.09763 0.707,0.292892 0.1952,0.195263 0.2929,0.430966 0.293,0.707108 v 18 c -10e-5,0.276144 -0.098,0.511847 -0.293,0.707108 C 1948.5117,-25.097631 1948.276,-25 1948,-25 h -18 c -0.2762,0 -0.5121,-0.09763 -0.7073,-0.292892 C 1929.0974,-25.488153 1928.9999,-25.723856 1929,-26 v -18 c -10e-5,-0.276142 0.097,-0.511845 0.2927,-0.707108 C 1929.4879,-44.90237 1929.7238,-45 1930,-45 Z"
       style="fill:none;stroke:#000000;stroke-width:1;stroke-linecap:butt;stroke-linejoin:miter;stroke-miterlimit:10;stroke-dasharray:none;stroke-opacity:1"
       transform="matrix(0.93868319,0,0,0.93868319,-1667.9121,169.14693)"
       clip-path="url(#clipPath4)" />
    <text
       id="text4"
       xml:space="preserve"
       transform="matrix(0.93868319,0,0,0.93868319,70.001267,140.51707)"
       clip-path="url(#clipPath5)"><tspan
         id="tspan4"
         style="font-variant:normal;font-weight:normal;font-size:12px;font-family:Arial;writing-mode:lr-tb;fill:#000000;fill-opacity:1;fill-rule:nonzero;stroke:none"
         x="0"
         y="0">scene : Scene</tspan></text>
    <path
       id="path6"
       d="m 1938.5,-53.119999 v -3 h 1 v 3 m -1,-6 v -3 h 1 v 3 m -1,-5.999996 v -3 h 1 v 3 m -1,-6 v -3 h 1 v 3 m -1,-6 v -3 h 1 v 3 m -1,-6 V -85 h 1 v 1.880005"
       style="fill:#000000;fill-opacity:1;fill-rule:nonzero;stroke:none"
       transform="matrix(0.93868319,0,0,0.93868319,-1667.9121,169.14693)"
       clip-path="url(#clipPath7)" />
    <path
       id="path8"
       d="m 1939,-46.119999 -3.5,-7 h 7 z"
       style="fill:#000000;fill-opacity:1;fill-rule:nonzero;stroke:#000000;stroke-width:1;stroke-linecap:butt;stroke-linejoin:miter;stroke-miterlimit:10;stroke-dasharray:none;stroke-opacity:1"
       transform="matrix(0.93868319,0,0,0.93868319,-1667.9121,169.14693)"
       clip-path="url(#clipPath9)" />
    <path
       id="path10"
       d="m 1785,-25 h 190 c 0.663,2e-6 1.3007,0.126871 1.9131,0.380608 0.6127,0.253734 1.1533,0.61502 1.6222,1.08386 0.4686,0.468843 0.8299,1.009548 1.0837,1.622118 0.2538,0.61257 0.3809,1.250374 0.381,1.913414 v 61 c -10e-5,0.66304 -0.1272,1.300846 -0.381,1.913414 -0.2538,0.612572 -0.6151,1.153278 -1.0837,1.62212 -0.4689,0.468838 -1.0095,0.830128 -1.6222,1.083862 -0.6124,0.253735 -1.2501,0.3806 -1.9131,0.380604 h -190 c -0.6632,-4e-6 -1.301,-0.126869 -1.9137,-0.380604 -0.6125,-0.253734 -1.1532,-0.615024 -1.6221,-1.083862 -0.4688,-0.468842 -0.8302,-1.009548 -1.0838,-1.62212 C 1780.1266,42.300846 1779.9999,41.66304 1780,41 v -61 c -10e-5,-0.66304 0.1266,-1.300844 0.3804,-1.913414 0.2536,-0.61257 0.615,-1.153275 1.0838,-1.622118 0.4689,-0.46884 1.0096,-0.830126 1.6221,-1.083862 0.6127,-0.253735 1.2505,-0.380604 1.9137,-0.380606 z"
       style="fill:#ffffff;fill-opacity:1;fill-rule:nonzero;stroke:#000000;stroke-width:1;stroke-linecap:butt;stroke-linejoin:miter;stroke-miterlimit:10;stroke-dasharray:none;stroke-opacity:1"
       transform="matrix(0.93868319,0,0,0.93868319,-1667.9121,169.14693)"
       clip-path="url(#clipPath11)" />
    <text
       id="text11"
       xml:space="preserve"
       transform="matrix(0.93868319,0,0,0.93868319,67.947898,165.86152)"
       clip-path="url(#clipPath12)"><tspan
         id="tspan11"
         style="font-variant:normal;font-weight:normal;font-size:16px;font-family:Arial;writing-mode:lr-tb;fill:#000000;fill-opacity:1;fill-rule:nonzero;stroke:none"
         x="0"
         y="0">«action»</tspan></text>
    <text
       id="text12"
       xml:space="preserve"
       transform="matrix(0.93868319,0,0,0.93868319,72.127948,183.6965)"
       clip-path="url(#clipPath13)"><tspan
         id="tspan12"
         style="font-variant:normal;font-weight:normal;font-size:16px;font-family:Arial;writing-mode:lr-tb;fill:#000000;fill-opacity:1;fill-rule:nonzero;stroke:none"
         x="0"
         y="0">action2</tspan></text>
    <path
       id="path14"
       d="m 1785,-176 h 190 c 0.663,2e-5 1.3007,0.12688 1.9131,0.38062 0.6127,0.25373 1.1533,0.61502 1.6222,1.08384 0.4686,0.46884 0.8299,1.00955 1.0837,1.62213 0.2538,0.61257 0.3809,1.25037 0.381,1.91341 v 61 c -10e-5,0.66305 -0.1272,1.30086 -0.381,1.91343 -0.2538,0.61257 -0.6151,1.15327 -1.0837,1.62211 -0.4689,0.46885 -1.0095,0.83013 -1.6222,1.08386 -0.6124,0.25373 -1.2501,0.3806 -1.9131,0.3806 h -190 c -0.6632,0 -1.301,-0.12687 -1.9137,-0.3806 -0.6125,-0.25373 -1.1532,-0.61501 -1.6221,-1.08386 -0.4688,-0.46884 -0.8302,-1.00954 -1.0838,-1.62211 -0.2538,-0.61257 -0.3805,-1.25038 -0.3804,-1.91343 v -61 c -10e-5,-0.66304 0.1266,-1.30084 0.3804,-1.91341 0.2536,-0.61258 0.615,-1.15329 1.0838,-1.62213 0.4689,-0.46882 1.0096,-0.83011 1.6221,-1.08384 0.6127,-0.25374 1.2505,-0.3806 1.9137,-0.38062 z"
       style="fill:#ffffff;fill-opacity:1;fill-rule:nonzero;stroke:#000000;stroke-width:1;stroke-linecap:butt;stroke-linejoin:miter;stroke-miterlimit:10;stroke-dasharray:none;stroke-opacity:1"
       transform="matrix(0.93868319,0,0,0.93868319,-1667.9121,169.14693)"
       clip-path="url(#clipPath15)" />
    <text
       id="text15"
       xml:space="preserve"
       transform="matrix(0.93868319,0,0,0.93868319,43.732781,24.120359)"
       clip-path="url(#clipPath16)"><tspan
         id="tspan15"
         style="font-variant:normal;font-weight:normal;font-size:16px;font-family:Arial;writing-mode:lr-tb;fill:#000000;fill-opacity:1;fill-rule:nonzero;stroke:none"
         x="0"
         y="0">«accept action»</tspan></text>
    <text
       id="text16"
       xml:space="preserve"
       transform="matrix(0.93868319,0,0,0.93868319,70.881283,41.95534)"
       clip-path="url(#clipPath17)"><tspan
         id="tspan16"
         style="font-variant:normal;font-weight:normal;font-size:16px;font-family:Arial;writing-mode:lr-tb;fill:#000000;fill-opacity:1;fill-rule:nonzero;stroke:none"
         x="0"
         y="0">trigger1</tspan></text>
    <text
       id="text17"
       xml:space="preserve"
       transform="matrix(0.93868319,0,0,0.93868319,28.083243,59.79032)"
       clip-path="url(#clipPath18)"><tspan
         id="tspan17"
         style="font-variant:normal;font-weight:normal;font-size:12px;font-family:Arial;writing-mode:lr-tb;fill:#000000;fill-opacity:1;fill-rule:nonzero;stroke:none"
         x="0"
         y="0">scene : Scene </tspan></text>
    <text
       id="text18"
       xml:space="preserve"
       transform="matrix(0.93868319,0,0,0.93868319,102.60586,59.79032)"
       clip-path="url(#clipPath19)"><tspan
         id="tspan18"
         style="font-variant:normal;font-weight:700;font-size:12px;font-family:Arial;writing-mode:lr-tb;fill:#000000;fill-opacity:1;fill-rule:nonzero;stroke:none"
         x="0"
         y="0">via</tspan></text>
    <text
       id="text19"
       xml:space="preserve"
       transform="matrix(0.93868319,0,0,0.93868319,118.27014,59.79032)"
       clip-path="url(#clipPath20)"><tspan
         id="tspan19"
         style="font-variant:normal;font-weight:normal;font-size:12px;font-family:Arial;writing-mode:lr-tb;fill:#000000;fill-opacity:1;fill-rule:nonzero;stroke:none"
         x="0"
         y="0"> viewPort</tspan></text>
    <path
       id="path21"
       d="m 1930,-105 h 18 c 0.276,1e-5 0.5117,0.0976 0.707,0.2929 0.1952,0.19526 0.2929,0.43096 0.293,0.7071 v 18 c -10e-5,0.276146 -0.098,0.511848 -0.293,0.707108 C 1948.5117,-85.097633 1948.276,-85 1948,-85 h -18 c -0.2762,0 -0.5121,-0.09763 -0.7073,-0.292892 -0.1953,-0.19526 -0.2928,-0.430962 -0.2927,-0.707108 v -18 c -10e-5,-0.27614 0.097,-0.51184 0.2927,-0.7071 0.1952,-0.19526 0.4311,-0.29289 0.7073,-0.2929 z"
       style="fill:none;stroke:#000000;stroke-width:1;stroke-linecap:butt;stroke-linejoin:miter;stroke-miterlimit:10;stroke-dasharray:none;stroke-opacity:1"
       transform="matrix(0.93868319,0,0,0.93868319,-1667.9121,169.14693)"
       clip-path="url(#clipPath22)" />
    <text
       id="text22"
       xml:space="preserve"
       transform="matrix(0.93868319,0,0,0.93868319,70.001267,84.196083)"
       clip-path="url(#clipPath23)"><tspan
         id="tspan22"
         style="font-variant:normal;font-weight:normal;font-size:12px;font-family:Arial;writing-mode:lr-tb;fill:#000000;fill-opacity:1;fill-rule:nonzero;stroke:none"
         x="0"
         y="0">scene : Scene</tspan></text>
    <path
       id="path24"
       d="m 1786,-170 h 16 v 10 h -16 l 3,-5 z"
       style="fill:#000000;fill-opacity:1;fill-rule:nonzero;stroke:#000000;stroke-width:1;stroke-linecap:butt;stroke-linejoin:miter;stroke-miterlimit:10;stroke-dasharray:none;stroke-opacity:1"
       transform="matrix(0.93868319,0,0,0.93868319,-1667.9121,169.14693)"
       clip-path="url(#clipPath25)" />
  </g>
</svg>
