<?xml version="1.0" encoding="UTF-8" standalone="no"?>
<!-- Created with Inkscape (http://www.inkscape.org/) -->

<svg
   version="1.1"
   id="svg1"
   width="299.84"
   height="224"
   viewBox="0 0 299.84 224"
   xmlns="http://www.w3.org/2000/svg"
   xmlns:svg="http://www.w3.org/2000/svg">
  <defs
     id="defs1">
    <clipPath
       clipPathUnits="userSpaceOnUse"
       id="clipPath2">
      <path
         d="M 0,0 H 935.98633 V 699.02344 H 0 Z"
         transform="scale(0.31999999)"
         clip-rule="evenodd"
         id="path2" />
    </clipPath>
    <clipPath
       clipPathUnits="userSpaceOnUse"
       id="clipPath4">
      <path
         d="m 3.125,0 h 931.25 V 696.875 H 3.125 Z"
         transform="matrix(0.33710441,0,0,0.33710441,117.88867,-822.05337)"
         clip-rule="evenodd"
         id="path4" />
    </clipPath>
    <clipPath
       clipPathUnits="userSpaceOnUse"
       id="clipPath5">
      <path
         d="m 3.125,0 h 931.25 V 696.875 H 3.125 Z"
         transform="matrix(0.33710441,0,0,0.33710441,-85.970716,-19.553411)"
         clip-rule="evenodd"
         id="path5" />
    </clipPath>
    <clipPath
       clipPathUnits="userSpaceOnUse"
       id="clipPath6">
      <path
         d="m 3.125,0 h 931.25 V 696.875 H 3.125 Z"
         transform="matrix(0.33710441,0,0,0.33710441,-4.6113355,-34.553411)"
         clip-rule="evenodd"
         id="path6" />
    </clipPath>
    <clipPath
       clipPathUnits="userSpaceOnUse"
       id="clipPath7">
      <path
         d="m 3.125,0 h 931.25 V 696.875 H 3.125 Z"
         transform="matrix(0.33710441,0,0,0.33710441,-11.62696,-34.553411)"
         clip-rule="evenodd"
         id="path7" />
    </clipPath>
    <clipPath
       clipPathUnits="userSpaceOnUse"
       id="clipPath8">
      <path
         d="m 3.125,0 h 931.25 V 696.875 H 3.125 Z"
         transform="matrix(0.33710441,0,0,0.33710441,-4.6113355,-51.553411)"
         clip-rule="evenodd"
         id="path8" />
    </clipPath>
    <clipPath
       clipPathUnits="userSpaceOnUse"
       id="clipPath9">
      <path
         d="m 3.125,0 h 931.25 V 696.875 H 3.125 Z"
         transform="matrix(0.33710441,0,0,0.33710441,-114.68947,-51.553411)"
         clip-rule="evenodd"
         id="path9" />
    </clipPath>
    <clipPath
       clipPathUnits="userSpaceOnUse"
       id="clipPath10">
      <path
         d="m 3.125,0 h 931.25 V 696.875 H 3.125 Z"
         transform="matrix(0.33710441,0,0,0.33710441,-118.68946,-51.553411)"
         clip-rule="evenodd"
         id="path10" />
    </clipPath>
    <clipPath
       clipPathUnits="userSpaceOnUse"
       id="clipPath11">
      <path
         d="m 3.125,0 h 931.25 V 696.875 H 3.125 Z"
         transform="matrix(0.33710441,0,0,0.33710441,-136.70508,-51.553411)"
         clip-rule="evenodd"
         id="path11" />
    </clipPath>
    <clipPath
       clipPathUnits="userSpaceOnUse"
       id="clipPath12">
      <path
         d="m 3.125,0 h 931.25 V 696.875 H 3.125 Z"
         transform="matrix(0.33710441,0,0,0.33710441,-140.70509,-51.553411)"
         clip-rule="evenodd"
         id="path12" />
    </clipPath>
    <clipPath
       clipPathUnits="userSpaceOnUse"
       id="clipPath13">
      <path
         d="m 3.125,0 h 931.25 V 696.875 H 3.125 Z"
         transform="matrix(0.33710441,0,0,0.33710441,-144.04884,-51.553411)"
         clip-rule="evenodd"
         id="path13" />
    </clipPath>
    <clipPath
       clipPathUnits="userSpaceOnUse"
       id="clipPath14">
      <path
         d="m 3.125,0 h 931.25 V 696.875 H 3.125 Z"
         transform="matrix(0.33710441,0,0,0.33710441,-4.6113355,-68.553411)"
         clip-rule="evenodd"
         id="path14" />
    </clipPath>
    <clipPath
       clipPathUnits="userSpaceOnUse"
       id="clipPath15">
      <path
         d="m 3.125,0 h 931.25 V 696.875 H 3.125 Z"
         transform="matrix(0.33710441,0,0,0.33710441,-132.01758,-68.553411)"
         clip-rule="evenodd"
         id="path15" />
    </clipPath>
    <clipPath
       clipPathUnits="userSpaceOnUse"
       id="clipPath16">
      <path
         d="m 3.125,0 h 931.25 V 696.875 H 3.125 Z"
         transform="matrix(0.33710441,0,0,0.33710441,-185.37697,-68.553411)"
         clip-rule="evenodd"
         id="path16" />
    </clipPath>
    <clipPath
       clipPathUnits="userSpaceOnUse"
       id="clipPath17">
      <path
         d="m 3.125,0 h 931.25 V 696.875 H 3.125 Z"
         transform="matrix(0.33710441,0,0,0.33710441,-4.6113355,-85.553411)"
         clip-rule="evenodd"
         id="path17" />
    </clipPath>
    <clipPath
       clipPathUnits="userSpaceOnUse"
       id="clipPath18">
      <path
         d="m 3.125,0 h 931.25 V 696.875 H 3.125 Z"
         transform="matrix(0.33710441,0,0,0.33710441,-132.01758,-85.553411)"
         clip-rule="evenodd"
         id="path18" />
    </clipPath>
    <clipPath
       clipPathUnits="userSpaceOnUse"
       id="clipPath19">
      <path
         d="m 3.125,0 h 931.25 V 696.875 H 3.125 Z"
         transform="matrix(0.33710441,0,0,0.33710441,-153.37696,-85.553411)"
         clip-rule="evenodd"
         id="path19" />
    </clipPath>
    <clipPath
       clipPathUnits="userSpaceOnUse"
       id="clipPath20">
      <path
         d="m 3.125,0 h 931.25 V 696.875 H 3.125 Z"
         transform="matrix(0.33710441,0,0,0.33710441,-4.6113355,-102.55341)"
         clip-rule="evenodd"
         id="path20" />
    </clipPath>
    <clipPath
       clipPathUnits="userSpaceOnUse"
       id="clipPath21">
      <path
         d="m 3.125,0 h 931.25 V 696.875 H 3.125 Z"
         transform="matrix(0.33710441,0,0,0.33710441,-22.626961,-102.55341)"
         clip-rule="evenodd"
         id="path21" />
    </clipPath>
    <clipPath
       clipPathUnits="userSpaceOnUse"
       id="clipPath22">
      <path
         d="m 3.125,0 h 931.25 V 696.875 H 3.125 Z"
         transform="matrix(0.33710441,0,0,0.33710441,-4.6113355,-118.55341)"
         clip-rule="evenodd"
         id="path22" />
    </clipPath>
    <clipPath
       clipPathUnits="userSpaceOnUse"
       id="clipPath23">
      <path
         d="m 3.125,0 h 931.25 V 696.875 H 3.125 Z"
         transform="matrix(0.33710441,0,0,0.33710441,-130.68946,-118.55341)"
         clip-rule="evenodd"
         id="path23" />
    </clipPath>
    <clipPath
       clipPathUnits="userSpaceOnUse"
       id="clipPath24">
      <path
         d="m 3.125,0 h 931.25 V 696.875 H 3.125 Z"
         transform="matrix(0.33710441,0,0,0.33710441,-134.68946,-118.55341)"
         clip-rule="evenodd"
         id="path24" />
    </clipPath>
    <clipPath
       clipPathUnits="userSpaceOnUse"
       id="clipPath25">
      <path
         d="m 3.125,0 h 931.25 V 696.875 H 3.125 Z"
         transform="matrix(0.33710441,0,0,0.33710441,-144.68946,-118.55341)"
         clip-rule="evenodd"
         id="path25" />
    </clipPath>
    <clipPath
       clipPathUnits="userSpaceOnUse"
       id="clipPath26">
      <path
         d="m 3.125,0 h 931.25 V 696.875 H 3.125 Z"
         transform="matrix(0.33710441,0,0,0.33710441,-148.68947,-118.55341)"
         clip-rule="evenodd"
         id="path26" />
    </clipPath>
    <clipPath
       clipPathUnits="userSpaceOnUse"
       id="clipPath27">
      <path
         d="m 3.125,0 h 931.25 V 696.875 H 3.125 Z"
         transform="matrix(0.33710441,0,0,0.33710441,-152.03322,-118.55341)"
         clip-rule="evenodd"
         id="path27" />
    </clipPath>
    <clipPath
       clipPathUnits="userSpaceOnUse"
       id="clipPath28">
      <path
         d="m 3.125,0 h 931.25 V 696.875 H 3.125 Z"
         transform="matrix(0.33710441,0,0,0.33710441,-197.39259,-118.55341)"
         clip-rule="evenodd"
         id="path28" />
    </clipPath>
    <clipPath
       clipPathUnits="userSpaceOnUse"
       id="clipPath29">
      <path
         d="m 3.125,0 h 931.25 V 696.875 H 3.125 Z"
         transform="matrix(0.33710441,0,0,0.33710441,-4.6113355,-135.55341)"
         clip-rule="evenodd"
         id="path29" />
    </clipPath>
    <clipPath
       clipPathUnits="userSpaceOnUse"
       id="clipPath30">
      <path
         d="m 3.125,0 h 931.25 V 696.875 H 3.125 Z"
         transform="matrix(0.33710441,0,0,0.33710441,-130.68946,-135.55341)"
         clip-rule="evenodd"
         id="path30" />
    </clipPath>
    <clipPath
       clipPathUnits="userSpaceOnUse"
       id="clipPath31">
      <path
         d="m 3.125,0 h 931.25 V 696.875 H 3.125 Z"
         transform="matrix(0.33710441,0,0,0.33710441,-134.68946,-135.55341)"
         clip-rule="evenodd"
         id="path31" />
    </clipPath>
    <clipPath
       clipPathUnits="userSpaceOnUse"
       id="clipPath32">
      <path
         d="m 3.125,0 h 931.25 V 696.875 H 3.125 Z"
         transform="matrix(0.33710441,0,0,0.33710441,-144.68946,-135.55341)"
         clip-rule="evenodd"
         id="path32" />
    </clipPath>
    <clipPath
       clipPathUnits="userSpaceOnUse"
       id="clipPath33">
      <path
         d="m 3.125,0 h 931.25 V 696.875 H 3.125 Z"
         transform="matrix(0.33710441,0,0,0.33710441,-148.68947,-135.55341)"
         clip-rule="evenodd"
         id="path33" />
    </clipPath>
    <clipPath
       clipPathUnits="userSpaceOnUse"
       id="clipPath34">
      <path
         d="m 3.125,0 h 931.25 V 696.875 H 3.125 Z"
         transform="matrix(0.33710441,0,0,0.33710441,-152.03322,-135.55341)"
         clip-rule="evenodd"
         id="path34" />
    </clipPath>
    <clipPath
       clipPathUnits="userSpaceOnUse"
       id="clipPath35">
      <path
         d="m 3.125,0 h 931.25 V 696.875 H 3.125 Z"
         transform="matrix(0.33710441,0,0,0.33710441,-163.04883,-135.55341)"
         clip-rule="evenodd"
         id="path35" />
    </clipPath>
    <clipPath
       clipPathUnits="userSpaceOnUse"
       id="clipPath36">
      <path
         d="m 3.125,0 h 931.25 V 696.875 H 3.125 Z"
         transform="matrix(0.33710441,0,0,0.33710441,-4.6113355,-152.55341)"
         clip-rule="evenodd"
         id="path36" />
    </clipPath>
    <clipPath
       clipPathUnits="userSpaceOnUse"
       id="clipPath37">
      <path
         d="m 3.125,0 h 931.25 V 696.875 H 3.125 Z"
         transform="matrix(0.33710441,0,0,0.33710441,-55.314466,-152.55341)"
         clip-rule="evenodd"
         id="path37" />
    </clipPath>
    <clipPath
       clipPathUnits="userSpaceOnUse"
       id="clipPath38">
      <path
         d="m 3.125,0 h 931.25 V 696.875 H 3.125 Z"
         transform="matrix(0.33710441,0,0,0.33710441,-62.330085,-152.55341)"
         clip-rule="evenodd"
         id="path38" />
    </clipPath>
    <clipPath
       clipPathUnits="userSpaceOnUse"
       id="clipPath39">
      <path
         d="m 3.125,0 h 931.25 V 696.875 H 3.125 Z"
         transform="matrix(0.33710441,0,0,0.33710441,-4.6113355,-169.55341)"
         clip-rule="evenodd"
         id="path39" />
    </clipPath>
    <clipPath
       clipPathUnits="userSpaceOnUse"
       id="clipPath40">
      <path
         d="m 3.125,0 h 931.25 V 696.875 H 3.125 Z"
         transform="matrix(0.33710441,0,0,0.33710441,-4.6113355,-187.55341)"
         clip-rule="evenodd"
         id="path40" />
    </clipPath>
  </defs>
  <g
     id="g1">
    <path
       id="path1"
       d="M 0,0 H 300 V 224 H 0 Z"
       style="fill:#ffffff;fill-opacity:1;fill-rule:nonzero;stroke:none"
       clip-path="url(#clipPath2)" />
    <path
       id="path3"
       d="m 121,-820 h 309 v 230 H 121 Z"
       style="fill:#ffffff;fill-opacity:1;fill-rule:nonzero;stroke:#000000;stroke-width:1;stroke-linecap:butt;stroke-linejoin:miter;stroke-miterlimit:10;stroke-dasharray:none;stroke-opacity:1"
       transform="matrix(0.94926076,0,0,0.94926076,-111.90709,780.34301)"
       clip-path="url(#clipPath4)" />
    <g
       id="g4" />
    <g
       id="g5" />
    <text
       id="text5"
       xml:space="preserve"
       transform="matrix(0.94926076,0,0,0.94926076,81.608627,18.561286)"
       clip-path="url(#clipPath5)"><tspan
         id="tspan5"
         style="font-style:italic;font-variant:normal;font-weight:normal;font-size:12px;font-family:Arial;writing-mode:lr-tb;fill:#000000;fill-opacity:1;fill-rule:nonzero;stroke:none"
         x="0"
         y="0"> perform actions</tspan></text>
    <text
       id="text6"
       xml:space="preserve"
       transform="matrix(0.94926076,0,0,0.94926076,4.3773598,32.800197)"
       clip-path="url(#clipPath6)"><tspan
         id="tspan6"
         style="font-variant:normal;font-weight:700;font-size:12px;font-family:Arial;writing-mode:lr-tb;fill:#000000;fill-opacity:1;fill-rule:nonzero;stroke:none"
         x="0"
         y="0">^</tspan></text>
    <text
       id="text7"
       xml:space="preserve"
       transform="matrix(0.94926076,0,0,0.94926076,11.037017,32.800197)"
       clip-path="url(#clipPath7)"><tspan
         id="tspan7"
         style="font-variant:normal;font-weight:normal;font-size:12px;font-family:Arial;writing-mode:lr-tb;fill:#000000;fill-opacity:1;fill-rule:nonzero;stroke:none"
         x="0"
         dx="0 0 0 0 0 0 0 0 0 0 -0.66210938"
         y="0">action2 : ActionDef2</tspan></text>
    <text
       id="text8"
       xml:space="preserve"
       transform="matrix(0.94926076,0,0,0.94926076,4.3773598,48.93763)"
       clip-path="url(#clipPath8)"><tspan
         id="tspan8"
         style="font-variant:normal;font-weight:normal;font-size:12px;font-family:Arial;writing-mode:lr-tb;fill:#000000;fill-opacity:1;fill-rule:nonzero;stroke:none"
         x="0"
         dx="0 0 0 0 0 0 0 0 0 0 -0.66210938"
         y="0">action1 : ActionDef1 </tspan></text>
    <text
       id="text9"
       xml:space="preserve"
       transform="matrix(0.94926076,0,0,0.94926076,108.87021,48.93763)"
       clip-path="url(#clipPath9)"><tspan
         id="tspan9"
         style="font-variant:normal;font-weight:700;font-size:12px;font-family:Arial;writing-mode:lr-tb;fill:#000000;fill-opacity:1;fill-rule:nonzero;stroke:none"
         x="0"
         y="0">[</tspan></text>
    <text
       id="text10"
       xml:space="preserve"
       transform="matrix(0.94926076,0,0,0.94926076,112.66725,48.93763)"
       clip-path="url(#clipPath10)"><tspan
         id="tspan10"
         style="font-variant:normal;font-weight:normal;font-size:12px;font-family:Arial;writing-mode:lr-tb;fill:#000000;fill-opacity:1;fill-rule:nonzero;stroke:none"
         x="0"
         y="0">1..*</tspan></text>
    <text
       id="text11"
       xml:space="preserve"
       transform="matrix(0.94926076,0,0,0.94926076,129.76877,48.93763)"
       clip-path="url(#clipPath11)"><tspan
         id="tspan11"
         style="font-variant:normal;font-weight:700;font-size:12px;font-family:Arial;writing-mode:lr-tb;fill:#000000;fill-opacity:1;fill-rule:nonzero;stroke:none"
         x="0"
         y="0">]</tspan></text>
    <text
       id="text12"
       xml:space="preserve"
       transform="matrix(0.94926076,0,0,0.94926076,133.56582,48.93763)"
       clip-path="url(#clipPath12)"><tspan
         id="tspan12"
         style="font-variant:normal;font-weight:normal;font-size:12px;font-family:Arial;writing-mode:lr-tb;fill:#000000;fill-opacity:1;fill-rule:nonzero;stroke:none"
         x="0"
         y="0"> </tspan></text>
    <text
       id="text13"
       xml:space="preserve"
       transform="matrix(0.94926076,0,0,0.94926076,136.73991,48.93763)"
       clip-path="url(#clipPath13)"><tspan
         id="tspan13"
         style="font-variant:normal;font-weight:700;font-size:12px;font-family:Arial;writing-mode:lr-tb;fill:#000000;fill-opacity:1;fill-rule:nonzero;stroke:none"
         x="0"
         y="0">ordered nonunique</tspan></text>
    <g
       id="g13" />
    <text
       id="text14"
       xml:space="preserve"
       transform="matrix(0.94926076,0,0,0.94926076,4.3773598,65.075063)"
       clip-path="url(#clipPath14)"><tspan
         id="tspan14"
         style="font-variant:normal;font-weight:normal;font-size:12px;font-family:Arial;writing-mode:lr-tb;fill:#000000;fill-opacity:1;fill-rule:nonzero;stroke:none"
         x="0"
         dx="0 0 0 0 0 0 0 0 0 0 0 -0.66210902"
         y="0">action3R : ActionDef3R </tspan></text>
    <text
       id="text15"
       xml:space="preserve"
       transform="matrix(0.94926076,0,0,0.94926076,125.31911,65.075063)"
       clip-path="url(#clipPath15)"><tspan
         id="tspan15"
         style="font-variant:normal;font-weight:700;font-size:12px;font-family:Arial;writing-mode:lr-tb;fill:#000000;fill-opacity:1;fill-rule:nonzero;stroke:none"
         x="0"
         y="0">redefines</tspan></text>
    <text
       id="text16"
       xml:space="preserve"
       transform="matrix(0.94926076,0,0,0.94926076,175.97108,65.075063)"
       clip-path="url(#clipPath16)"><tspan
         id="tspan16"
         style="font-variant:normal;font-weight:normal;font-size:12px;font-family:Arial;writing-mode:lr-tb;fill:#000000;fill-opacity:1;fill-rule:nonzero;stroke:none"
         x="0"
         y="0"> action3</tspan></text>
    <text
       id="text17"
       xml:space="preserve"
       transform="matrix(0.94926076,0,0,0.94926076,4.3773598,81.212496)"
       clip-path="url(#clipPath17)"><tspan
         id="tspan17"
         style="font-variant:normal;font-weight:normal;font-size:12px;font-family:Arial;writing-mode:lr-tb;fill:#000000;fill-opacity:1;fill-rule:nonzero;stroke:none"
         x="0"
         dx="0 0 0 0 0 0 0 0 0 0 0 -0.66210902"
         y="0">action4R : ActionDef4R </tspan></text>
    <g
       id="g17" />
    <text
       id="text18"
       xml:space="preserve"
       transform="matrix(0.94926076,0,0,0.94926076,125.31911,81.212496)"
       clip-path="url(#clipPath18)"><tspan
         id="tspan18"
         style="font-variant:normal;font-weight:700;font-size:12px;font-family:Arial;writing-mode:lr-tb;fill:#000000;fill-opacity:1;fill-rule:nonzero;stroke:none"
         x="0"
         y="0">:&gt;&gt; </tspan></text>
    <text
       id="text19"
       xml:space="preserve"
       transform="matrix(0.94926076,0,0,0.94926076,145.59473,81.212496)"
       clip-path="url(#clipPath19)"><tspan
         id="tspan19"
         style="font-variant:normal;font-weight:normal;font-size:12px;font-family:Arial;writing-mode:lr-tb;fill:#000000;fill-opacity:1;fill-rule:nonzero;stroke:none"
         x="0"
         y="0">action4</tspan></text>
    <text
       id="text20"
       xml:space="preserve"
       transform="matrix(0.94926076,0,0,0.94926076,4.3773598,97.349929)"
       clip-path="url(#clipPath20)"><tspan
         id="tspan20"
         style="font-variant:normal;font-weight:700;font-size:12px;font-family:Arial;writing-mode:lr-tb;fill:#000000;fill-opacity:1;fill-rule:nonzero;stroke:none"
         x="0"
         y="0">:&gt;&gt;</tspan></text>
    <text
       id="text21"
       xml:space="preserve"
       transform="matrix(0.94926076,0,0,0.94926076,21.478886,97.349929)"
       clip-path="url(#clipPath21)"><tspan
         id="tspan21"
         style="font-variant:normal;font-weight:normal;font-size:12px;font-family:Arial;writing-mode:lr-tb;fill:#000000;fill-opacity:1;fill-rule:nonzero;stroke:none"
         x="0"
         y="0"> action5</tspan></text>
    <text
       id="text22"
       xml:space="preserve"
       transform="matrix(0.94926076,0,0,0.94926076,4.3773598,112.5381)"
       clip-path="url(#clipPath22)"><tspan
         id="tspan22"
         style="font-variant:normal;font-weight:normal;font-size:12px;font-family:Arial;writing-mode:lr-tb;fill:#000000;fill-opacity:1;fill-rule:nonzero;stroke:none"
         x="0"
         dx="0 0 0 0 0 0 0 0 0 0 0 -0.66210866"
         y="0">action6S : ActionDef6S </tspan></text>
    <text
       id="text23"
       xml:space="preserve"
       transform="matrix(0.94926076,0,0,0.94926076,124.05838,112.5381)"
       clip-path="url(#clipPath23)"><tspan
         id="tspan23"
         style="font-variant:normal;font-weight:700;font-size:12px;font-family:Arial;writing-mode:lr-tb;fill:#000000;fill-opacity:1;fill-rule:nonzero;stroke:none"
         x="0"
         y="0">[</tspan></text>
    <text
       id="text24"
       xml:space="preserve"
       transform="matrix(0.94926076,0,0,0.94926076,127.85542,112.5381)"
       clip-path="url(#clipPath24)"><tspan
         id="tspan24"
         style="font-variant:normal;font-weight:normal;font-size:12px;font-family:Arial;writing-mode:lr-tb;fill:#000000;fill-opacity:1;fill-rule:nonzero;stroke:none"
         x="0"
         y="0">m</tspan></text>
    <text
       id="text25"
       xml:space="preserve"
       transform="matrix(0.94926076,0,0,0.94926076,137.34803,112.5381)"
       clip-path="url(#clipPath25)"><tspan
         id="tspan25"
         style="font-variant:normal;font-weight:700;font-size:12px;font-family:Arial;writing-mode:lr-tb;fill:#000000;fill-opacity:1;fill-rule:nonzero;stroke:none"
         x="0"
         y="0">]</tspan></text>
    <g
       id="g25" />
    <text
       id="text26"
       xml:space="preserve"
       transform="matrix(0.94926076,0,0,0.94926076,141.14508,112.5381)"
       clip-path="url(#clipPath26)"><tspan
         id="tspan26"
         style="font-variant:normal;font-weight:normal;font-size:12px;font-family:Arial;writing-mode:lr-tb;fill:#000000;fill-opacity:1;fill-rule:nonzero;stroke:none"
         x="0"
         y="0"> </tspan></text>
    <text
       id="text27"
       xml:space="preserve"
       transform="matrix(0.94926076,0,0,0.94926076,144.31917,112.5381)"
       clip-path="url(#clipPath27)"><tspan
         id="tspan27"
         style="font-variant:normal;font-weight:700;font-size:12px;font-family:Arial;writing-mode:lr-tb;fill:#000000;fill-opacity:1;fill-rule:nonzero;stroke:none"
         x="0"
         y="0">subsets</tspan></text>
    <text
       id="text28"
       xml:space="preserve"
       transform="matrix(0.94926076,0,0,0.94926076,187.37704,112.5381)"
       clip-path="url(#clipPath28)"><tspan
         id="tspan28"
         style="font-variant:normal;font-weight:normal;font-size:12px;font-family:Arial;writing-mode:lr-tb;fill:#000000;fill-opacity:1;fill-rule:nonzero;stroke:none"
         x="0"
         y="0"> action6</tspan></text>
    <text
       id="text29"
       xml:space="preserve"
       transform="matrix(0.94926076,0,0,0.94926076,4.3773598,128.67553)"
       clip-path="url(#clipPath29)"><tspan
         id="tspan29"
         style="font-variant:normal;font-weight:normal;font-size:12px;font-family:Arial;writing-mode:lr-tb;fill:#000000;fill-opacity:1;fill-rule:nonzero;stroke:none"
         x="0"
         dx="0 0 0 0 0 0 0 0 0 0 0 -0.66210866"
         y="0">action7S : ActionDef7S </tspan></text>
    <text
       id="text30"
       xml:space="preserve"
       transform="matrix(0.94926076,0,0,0.94926076,124.05838,128.67553)"
       clip-path="url(#clipPath30)"><tspan
         id="tspan30"
         style="font-variant:normal;font-weight:700;font-size:12px;font-family:Arial;writing-mode:lr-tb;fill:#000000;fill-opacity:1;fill-rule:nonzero;stroke:none"
         x="0"
         y="0">[</tspan></text>
    <text
       id="text31"
       xml:space="preserve"
       transform="matrix(0.94926076,0,0,0.94926076,127.85542,128.67553)"
       clip-path="url(#clipPath31)"><tspan
         id="tspan31"
         style="font-variant:normal;font-weight:normal;font-size:12px;font-family:Arial;writing-mode:lr-tb;fill:#000000;fill-opacity:1;fill-rule:nonzero;stroke:none"
         x="0"
         y="0">m</tspan></text>
    <text
       id="text32"
       xml:space="preserve"
       transform="matrix(0.94926076,0,0,0.94926076,137.34803,128.67553)"
       clip-path="url(#clipPath32)"><tspan
         id="tspan32"
         style="font-variant:normal;font-weight:700;font-size:12px;font-family:Arial;writing-mode:lr-tb;fill:#000000;fill-opacity:1;fill-rule:nonzero;stroke:none"
         x="0"
         y="0">]</tspan></text>
    <text
       id="text33"
       xml:space="preserve"
       transform="matrix(0.94926076,0,0,0.94926076,141.14508,128.67553)"
       clip-path="url(#clipPath33)"><tspan
         id="tspan33"
         style="font-variant:normal;font-weight:normal;font-size:12px;font-family:Arial;writing-mode:lr-tb;fill:#000000;fill-opacity:1;fill-rule:nonzero;stroke:none"
         x="0"
         y="0"> </tspan></text>
    <text
       id="text34"
       xml:space="preserve"
       transform="matrix(0.94926076,0,0,0.94926076,144.31917,128.67553)"
       clip-path="url(#clipPath34)"><tspan
         id="tspan34"
         style="font-variant:normal;font-weight:700;font-size:12px;font-family:Arial;writing-mode:lr-tb;fill:#000000;fill-opacity:1;fill-rule:nonzero;stroke:none"
         x="0"
         y="0">:&gt;</tspan></text>
    <text
       id="text35"
       xml:space="preserve"
       transform="matrix(0.94926076,0,0,0.94926076,154.77586,128.67553)"
       clip-path="url(#clipPath35)"><tspan
         id="tspan35"
         style="font-variant:normal;font-weight:normal;font-size:12px;font-family:Arial;writing-mode:lr-tb;fill:#000000;fill-opacity:1;fill-rule:nonzero;stroke:none"
         x="0"
         y="0"> action7</tspan></text>
    <text
       id="text36"
       xml:space="preserve"
       transform="matrix(0.94926076,0,0,0.94926076,4.3773598,144.81297)"
       clip-path="url(#clipPath36)"><tspan
         id="tspan36"
         style="font-variant:normal;font-weight:normal;font-size:12px;font-family:Arial;writing-mode:lr-tb;fill:#000000;fill-opacity:1;fill-rule:nonzero;stroke:none"
         x="0"
         y="0">action8R </tspan></text>
    <text
       id="text37"
       xml:space="preserve"
       transform="matrix(0.94926076,0,0,0.94926076,52.507852,144.81297)"
       clip-path="url(#clipPath37)"><tspan
         id="tspan37"
         style="font-variant:normal;font-weight:700;font-size:12px;font-family:Arial;writing-mode:lr-tb;fill:#000000;fill-opacity:1;fill-rule:nonzero;stroke:none"
         x="0"
         y="0">=</tspan></text>
    <text
       id="text38"
       xml:space="preserve"
       transform="matrix(0.94926076,0,0,0.94926076,59.167504,144.81297)"
       clip-path="url(#clipPath38)"><tspan
         id="tspan38"
         style="font-variant:normal;font-weight:normal;font-size:12px;font-family:Arial;writing-mode:lr-tb;fill:#000000;fill-opacity:1;fill-rule:nonzero;stroke:none"
         x="0"
         y="0"> action8</tspan></text>
    <text
       id="text39"
       xml:space="preserve"
       transform="matrix(0.94926076,0,0,0.94926076,4.3773598,160.9504)"
       clip-path="url(#clipPath39)"><tspan
         id="tspan39"
         style="font-variant:normal;font-weight:normal;font-size:12px;font-family:Arial;writing-mode:lr-tb;fill:#000000;fill-opacity:1;fill-rule:nonzero;stroke:none"
         x="0"
         dx="0 0 0 0 0 0 0 -0.89062434"
         y="0">action11</tspan></text>
    <text
       id="text40"
       xml:space="preserve"
       transform="matrix(0.94926076,0,0,0.94926076,4.3773598,178.03709)"
       clip-path="url(#clipPath40)"><tspan
         id="tspan40"
         style="font-variant:normal;font-weight:700;font-size:14px;font-family:Arial;writing-mode:lr-tb;fill:#000000;fill-opacity:1;fill-rule:nonzero;stroke:none"
         x="0"
         y="0">...</tspan></text>
  </g>
</svg>
