<?xml version="1.0" encoding="UTF-8" standalone="no"?>
<!-- Created with Inkscape (http://www.inkscape.org/) -->

<svg
   version="1.1"
   id="svg1"
   width="416"
   height="501.44"
   viewBox="0 0 416 501.44"
   xmlns="http://www.w3.org/2000/svg"
   xmlns:svg="http://www.w3.org/2000/svg">
  <defs
     id="defs1">
    <clipPath
       clipPathUnits="userSpaceOnUse"
       id="clipPath2">
      <path
         d="M 0,0 H 1299.0234 V 1566.0156 H 0 Z"
         transform="scale(0.31999999)"
         clip-rule="evenodd"
         id="path2" />
    </clipPath>
    <clipPath
       clipPathUnits="userSpaceOnUse"
       id="clipPath4">
      <path
         d="m 3.125,3.125 h 1293.75 V 1562.5 H 3.125 Z"
         transform="matrix(0.33603818,0,0,0.33603818,2756.8989,1226.8997)"
         clip-rule="evenodd"
         id="path4" />
    </clipPath>
    <clipPath
       clipPathUnits="userSpaceOnUse"
       id="clipPath6">
      <path
         d="m 3.125,3.125 h 1293.75 V 1562.5 H 3.125 Z"
         transform="matrix(0.33603818,0,0,0.33603818,2756.8989,1226.8997)"
         clip-rule="evenodd"
         id="path6" />
    </clipPath>
    <clipPath
       clipPathUnits="userSpaceOnUse"
       id="clipPath8">
      <path
         d="m 3.125,3.125 h 1293.75 V 1562.5 H 3.125 Z"
         transform="matrix(0.33603818,0,0,0.33603818,2756.8989,1226.8997)"
         clip-rule="evenodd"
         id="path8" />
    </clipPath>
    <clipPath
       clipPathUnits="userSpaceOnUse"
       id="clipPath10">
      <path
         d="m 3.125,3.125 h 1293.75 V 1562.5 H 3.125 Z"
         transform="matrix(0.33603818,0,0,0.33603818,2756.8989,1226.8997)"
         clip-rule="evenodd"
         id="path10" />
    </clipPath>
    <clipPath
       clipPathUnits="userSpaceOnUse"
       id="clipPath11">
      <path
         d="m 3.125,3.125 h 1293.75 V 1562.5 H 3.125 Z"
         transform="matrix(0.33603818,0,0,0.33603818,-194.89785,-64.600205)"
         clip-rule="evenodd"
         id="path11" />
    </clipPath>
    <clipPath
       clipPathUnits="userSpaceOnUse"
       id="clipPath12">
      <path
         d="m 3.125,3.125 h 1293.75 V 1562.5 H 3.125 Z"
         transform="matrix(0.33603818,0,0,0.33603818,-161.11655,-83.600206)"
         clip-rule="evenodd"
         id="path12" />
    </clipPath>
    <clipPath
       clipPathUnits="userSpaceOnUse"
       id="clipPath13">
      <path
         d="m 3.125,3.125 h 1293.75 V 1562.5 H 3.125 Z"
         transform="matrix(0.33603818,0,0,0.33603818,-204.75725,-106.60021)"
         clip-rule="evenodd"
         id="path13" />
    </clipPath>
    <clipPath
       clipPathUnits="userSpaceOnUse"
       id="clipPath15">
      <path
         d="m 3.125,3.125 h 1293.75 V 1562.5 H 3.125 Z"
         transform="matrix(0.33603818,0,0,0.33603818,2756.8989,1226.8997)"
         clip-rule="evenodd"
         id="path15" />
    </clipPath>
    <clipPath
       clipPathUnits="userSpaceOnUse"
       id="clipPath17">
      <path
         d="m 3.125,3.125 h 1293.75 V 1562.5 H 3.125 Z"
         transform="matrix(0.33603818,0,0,0.33603818,2756.8989,1226.8997)"
         clip-rule="evenodd"
         id="path17" />
    </clipPath>
    <clipPath
       clipPathUnits="userSpaceOnUse"
       id="clipPath19">
      <path
         d="m 3.125,3.125 h 1293.75 V 1562.5 H 3.125 Z"
         transform="matrix(0.33603818,0,0,0.33603818,2756.8989,1226.8997)"
         clip-rule="evenodd"
         id="path19" />
    </clipPath>
    <clipPath
       clipPathUnits="userSpaceOnUse"
       id="clipPath20">
      <path
         d="m 3.125,3.125 h 1293.75 V 1562.5 H 3.125 Z"
         transform="matrix(0.33603818,0,0,0.33603818,-187.33535,-210.60021)"
         clip-rule="evenodd"
         id="path20" />
    </clipPath>
    <clipPath
       clipPathUnits="userSpaceOnUse"
       id="clipPath21">
      <path
         d="m 3.125,3.125 h 1293.75 V 1562.5 H 3.125 Z"
         transform="matrix(0.33603818,0,0,0.33603818,-169.11655,-229.60021)"
         clip-rule="evenodd"
         id="path21" />
    </clipPath>
    <clipPath
       clipPathUnits="userSpaceOnUse"
       id="clipPath23">
      <path
         d="m 3.125,3.125 h 1293.75 V 1562.5 H 3.125 Z"
         transform="matrix(0.33603818,0,0,0.33603818,2756.8989,1226.8997)"
         clip-rule="evenodd"
         id="path23" />
    </clipPath>
    <clipPath
       clipPathUnits="userSpaceOnUse"
       id="clipPath25">
      <path
         d="m 3.125,3.125 h 1293.75 V 1562.5 H 3.125 Z"
         transform="matrix(0.33603818,0,0,0.33603818,2756.8989,1226.8997)"
         clip-rule="evenodd"
         id="path25" />
    </clipPath>
    <clipPath
       clipPathUnits="userSpaceOnUse"
       id="clipPath27">
      <path
         d="m 3.125,3.125 h 1293.75 V 1562.5 H 3.125 Z"
         transform="matrix(0.33603818,0,0,0.33603818,2756.8989,1226.8997)"
         clip-rule="evenodd"
         id="path27" />
    </clipPath>
    <clipPath
       clipPathUnits="userSpaceOnUse"
       id="clipPath29">
      <path
         d="m 3.125,3.125 h 1293.75 V 1562.5 H 3.125 Z"
         transform="matrix(0.33603818,0,0,0.33603818,2756.8989,1226.8997)"
         clip-rule="evenodd"
         id="path29" />
    </clipPath>
    <clipPath
       clipPathUnits="userSpaceOnUse"
       id="clipPath31">
      <path
         d="m 3.125,3.125 h 1293.75 V 1562.5 H 3.125 Z"
         transform="matrix(0.33603818,0,0,0.33603818,2756.8989,1226.8997)"
         clip-rule="evenodd"
         id="path31" />
    </clipPath>
    <clipPath
       clipPathUnits="userSpaceOnUse"
       id="clipPath33">
      <path
         d="m 3.125,3.125 h 1293.75 V 1562.5 H 3.125 Z"
         transform="matrix(0.33603818,0,0,0.33603818,2756.8989,1226.8997)"
         clip-rule="evenodd"
         id="path33" />
    </clipPath>
    <clipPath
       clipPathUnits="userSpaceOnUse"
       id="clipPath35">
      <path
         d="m 3.125,3.125 h 1293.75 V 1562.5 H 3.125 Z"
         transform="matrix(0.33603818,0,0,0.33603818,2756.8989,1226.8997)"
         clip-rule="evenodd"
         id="path35" />
    </clipPath>
    <clipPath
       clipPathUnits="userSpaceOnUse"
       id="clipPath36">
      <path
         d="m 3.125,3.125 h 1293.75 V 1562.5 H 3.125 Z"
         transform="matrix(0.33603818,0,0,0.33603818,-120.52285,-270.60021)"
         clip-rule="evenodd"
         id="path36" />
    </clipPath>
    <clipPath
       clipPathUnits="userSpaceOnUse"
       id="clipPath37">
      <path
         d="m 3.125,3.125 h 1293.75 V 1562.5 H 3.125 Z"
         transform="matrix(0.33603818,0,0,0.33603818,-123.17905,-289.60021)"
         clip-rule="evenodd"
         id="path37" />
    </clipPath>
    <clipPath
       clipPathUnits="userSpaceOnUse"
       id="clipPath38">
      <path
         d="m 3.125,3.125 h 1293.75 V 1562.5 H 3.125 Z"
         transform="matrix(0.33603818,0,0,0.33603818,-123.75725,-312.6002)"
         clip-rule="evenodd"
         id="path38" />
    </clipPath>
    <clipPath
       clipPathUnits="userSpaceOnUse"
       id="clipPath40">
      <path
         d="m 3.125,3.125 h 1293.75 V 1562.5 H 3.125 Z"
         transform="matrix(0.33603818,0,0,0.33603818,2756.8989,1226.8997)"
         clip-rule="evenodd"
         id="path40" />
    </clipPath>
    <clipPath
       clipPathUnits="userSpaceOnUse"
       id="clipPath41">
      <path
         d="m 3.125,3.125 h 1293.75 V 1562.5 H 3.125 Z"
         transform="matrix(0.33603818,0,0,0.33603818,-133.85095,-351.60021)"
         clip-rule="evenodd"
         id="path41" />
    </clipPath>
    <clipPath
       clipPathUnits="userSpaceOnUse"
       id="clipPath42">
      <path
         d="m 3.125,3.125 h 1293.75 V 1562.5 H 3.125 Z"
         transform="matrix(0.33603818,0,0,0.33603818,-138.30405,-371.6002)"
         clip-rule="evenodd"
         id="path42" />
    </clipPath>
    <clipPath
       clipPathUnits="userSpaceOnUse"
       id="clipPath44">
      <path
         d="m 3.125,3.125 h 1293.75 V 1562.5 H 3.125 Z"
         transform="matrix(0.33603818,0,0,0.33603818,2756.8989,1226.8997)"
         clip-rule="evenodd"
         id="path44" />
    </clipPath>
    <clipPath
       clipPathUnits="userSpaceOnUse"
       id="clipPath45">
      <path
         d="m 3.125,3.125 h 1293.75 V 1562.5 H 3.125 Z"
         transform="matrix(0.33603818,0,0,0.33603818,-133.85095,-421.6002)"
         clip-rule="evenodd"
         id="path45" />
    </clipPath>
    <clipPath
       clipPathUnits="userSpaceOnUse"
       id="clipPath46">
      <path
         d="m 3.125,3.125 h 1293.75 V 1562.5 H 3.125 Z"
         transform="matrix(0.33603818,0,0,0.33603818,-138.30405,-441.60021)"
         clip-rule="evenodd"
         id="path46" />
    </clipPath>
    <clipPath
       clipPathUnits="userSpaceOnUse"
       id="clipPath48">
      <path
         d="m 3.125,3.125 h 1293.75 V 1562.5 H 3.125 Z"
         transform="matrix(0.33603818,0,0,0.33603818,2756.8989,1226.8997)"
         clip-rule="evenodd"
         id="path48" />
    </clipPath>
    <clipPath
       clipPathUnits="userSpaceOnUse"
       id="clipPath50">
      <path
         d="m 3.125,3.125 h 1293.75 V 1562.5 H 3.125 Z"
         transform="matrix(0.33603818,0,0,0.33603818,2756.8989,1226.8997)"
         clip-rule="evenodd"
         id="path50" />
    </clipPath>
    <clipPath
       clipPathUnits="userSpaceOnUse"
       id="clipPath52">
      <path
         d="m 3.125,3.125 h 1293.75 V 1562.5 H 3.125 Z"
         transform="matrix(0.33603818,0,0,0.33603818,2756.8989,1226.8997)"
         clip-rule="evenodd"
         id="path52" />
    </clipPath>
    <clipPath
       clipPathUnits="userSpaceOnUse"
       id="clipPath54">
      <path
         d="m 3.125,3.125 h 1293.75 V 1562.5 H 3.125 Z"
         transform="matrix(0.33603818,0,0,0.33603818,2756.8989,1226.8997)"
         clip-rule="evenodd"
         id="path54" />
    </clipPath>
    <clipPath
       clipPathUnits="userSpaceOnUse"
       id="clipPath56">
      <path
         d="m 3.125,3.125 h 1293.75 V 1562.5 H 3.125 Z"
         transform="matrix(0.33603818,0,0,0.33603818,2756.8989,1226.8997)"
         clip-rule="evenodd"
         id="path56" />
    </clipPath>
    <clipPath
       clipPathUnits="userSpaceOnUse"
       id="clipPath58">
      <path
         d="m 3.125,3.125 h 1293.75 V 1562.5 H 3.125 Z"
         transform="matrix(0.33603818,0,0,0.33603818,2756.8989,1226.8997)"
         clip-rule="evenodd"
         id="path58" />
    </clipPath>
    <clipPath
       clipPathUnits="userSpaceOnUse"
       id="clipPath60">
      <path
         d="m 3.125,3.125 h 1293.75 V 1562.5 H 3.125 Z"
         transform="matrix(0.33603818,0,0,0.33603818,2756.8989,1226.8997)"
         clip-rule="evenodd"
         id="path60" />
    </clipPath>
    <clipPath
       clipPathUnits="userSpaceOnUse"
       id="clipPath62">
      <path
         d="m 3.125,3.125 h 1293.75 V 1562.5 H 3.125 Z"
         transform="matrix(0.33603818,0,0,0.33603818,2756.8989,1226.8997)"
         clip-rule="evenodd"
         id="path62" />
    </clipPath>
    <clipPath
       clipPathUnits="userSpaceOnUse"
       id="clipPath63">
      <path
         d="m 3.125,3.125 h 1293.75 V 1562.5 H 3.125 Z"
         transform="matrix(0.33603818,0,0,0.33603818,-271.52285,-270.60021)"
         clip-rule="evenodd"
         id="path63" />
    </clipPath>
    <clipPath
       clipPathUnits="userSpaceOnUse"
       id="clipPath64">
      <path
         d="m 3.125,3.125 h 1293.75 V 1562.5 H 3.125 Z"
         transform="matrix(0.33603818,0,0,0.33603818,-274.17905,-289.60021)"
         clip-rule="evenodd"
         id="path64" />
    </clipPath>
    <clipPath
       clipPathUnits="userSpaceOnUse"
       id="clipPath65">
      <path
         d="m 3.125,3.125 h 1293.75 V 1562.5 H 3.125 Z"
         transform="matrix(0.33603818,0,0,0.33603818,-274.75725,-312.6002)"
         clip-rule="evenodd"
         id="path65" />
    </clipPath>
    <clipPath
       clipPathUnits="userSpaceOnUse"
       id="clipPath67">
      <path
         d="m 3.125,3.125 h 1293.75 V 1562.5 H 3.125 Z"
         transform="matrix(0.33603818,0,0,0.33603818,2756.8989,1226.8997)"
         clip-rule="evenodd"
         id="path67" />
    </clipPath>
    <clipPath
       clipPathUnits="userSpaceOnUse"
       id="clipPath68">
      <path
         d="m 3.125,3.125 h 1293.75 V 1562.5 H 3.125 Z"
         transform="matrix(0.33603818,0,0,0.33603818,-287.85095,-351.60021)"
         clip-rule="evenodd"
         id="path68" />
    </clipPath>
    <clipPath
       clipPathUnits="userSpaceOnUse"
       id="clipPath69">
      <path
         d="m 3.125,3.125 h 1293.75 V 1562.5 H 3.125 Z"
         transform="matrix(0.33603818,0,0,0.33603818,-292.30405,-371.6002)"
         clip-rule="evenodd"
         id="path69" />
    </clipPath>
    <clipPath
       clipPathUnits="userSpaceOnUse"
       id="clipPath71">
      <path
         d="m 3.125,3.125 h 1293.75 V 1562.5 H 3.125 Z"
         transform="matrix(0.33603818,0,0,0.33603818,2756.8989,1226.8997)"
         clip-rule="evenodd"
         id="path71" />
    </clipPath>
    <clipPath
       clipPathUnits="userSpaceOnUse"
       id="clipPath72">
      <path
         d="m 3.125,3.125 h 1293.75 V 1562.5 H 3.125 Z"
         transform="matrix(0.33603818,0,0,0.33603818,-287.85095,-421.6002)"
         clip-rule="evenodd"
         id="path72" />
    </clipPath>
    <clipPath
       clipPathUnits="userSpaceOnUse"
       id="clipPath73">
      <path
         d="m 3.125,3.125 h 1293.75 V 1562.5 H 3.125 Z"
         transform="matrix(0.33603818,0,0,0.33603818,-292.30405,-441.60021)"
         clip-rule="evenodd"
         id="path73" />
    </clipPath>
    <clipPath
       clipPathUnits="userSpaceOnUse"
       id="clipPath75">
      <path
         d="m 3.125,3.125 h 1293.75 V 1562.5 H 3.125 Z"
         transform="matrix(0.33603818,0,0,0.33603818,2756.8989,1226.8997)"
         clip-rule="evenodd"
         id="path75" />
    </clipPath>
    <clipPath
       clipPathUnits="userSpaceOnUse"
       id="clipPath77">
      <path
         d="m 3.125,3.125 h 1293.75 V 1562.5 H 3.125 Z"
         transform="matrix(0.33603818,0,0,0.33603818,2756.8989,1226.8997)"
         clip-rule="evenodd"
         id="path77" />
    </clipPath>
    <clipPath
       clipPathUnits="userSpaceOnUse"
       id="clipPath79">
      <path
         d="m 3.125,3.125 h 1293.75 V 1562.5 H 3.125 Z"
         transform="matrix(0.33603818,0,0,0.33603818,2756.8989,1226.8997)"
         clip-rule="evenodd"
         id="path79" />
    </clipPath>
    <clipPath
       clipPathUnits="userSpaceOnUse"
       id="clipPath81">
      <path
         d="m 3.125,3.125 h 1293.75 V 1562.5 H 3.125 Z"
         transform="matrix(0.33603818,0,0,0.33603818,2756.8989,1226.8997)"
         clip-rule="evenodd"
         id="path81" />
    </clipPath>
    <clipPath
       clipPathUnits="userSpaceOnUse"
       id="clipPath83">
      <path
         d="m 3.125,3.125 h 1293.75 V 1562.5 H 3.125 Z"
         transform="matrix(0.33603818,0,0,0.33603818,2756.8989,1226.8997)"
         clip-rule="evenodd"
         id="path83" />
    </clipPath>
    <clipPath
       clipPathUnits="userSpaceOnUse"
       id="clipPath85">
      <path
         d="m 3.125,3.125 h 1293.75 V 1562.5 H 3.125 Z"
         transform="matrix(0.33603818,0,0,0.33603818,2756.8989,1226.8997)"
         clip-rule="evenodd"
         id="path85" />
    </clipPath>
    <clipPath
       clipPathUnits="userSpaceOnUse"
       id="clipPath86">
      <path
         d="m 3.125,3.125 h 1293.75 V 1562.5 H 3.125 Z"
         transform="matrix(0.33603818,0,0,0.33603818,-176.75725,-176.6002)"
         clip-rule="evenodd"
         id="path86" />
    </clipPath>
    <clipPath
       clipPathUnits="userSpaceOnUse"
       id="clipPath88">
      <path
         d="m 3.125,3.125 h 1293.75 V 1562.5 H 3.125 Z"
         transform="matrix(0.33603818,0,0,0.33603818,2756.8989,1226.8997)"
         clip-rule="evenodd"
         id="path88" />
    </clipPath>
    <clipPath
       clipPathUnits="userSpaceOnUse"
       id="clipPath89">
      <path
         d="m 3.125,3.125 h 1293.75 V 1562.5 H 3.125 Z"
         transform="matrix(0.33603818,0,0,0.33603818,-24.600952,-126.60021)"
         clip-rule="evenodd"
         id="path89" />
    </clipPath>
    <clipPath
       clipPathUnits="userSpaceOnUse"
       id="clipPath90">
      <path
         d="m 3.125,3.125 h 1293.75 V 1562.5 H 3.125 Z"
         transform="matrix(0.33603818,0,0,0.33603818,-24.600952,-146.6002)"
         clip-rule="evenodd"
         id="path90" />
    </clipPath>
    <linearGradient
       x1="0"
       y1="0"
       x2="0"
       y2="1"
       gradientUnits="userSpaceOnUse"
       gradientTransform="matrix(270.00003,0,0,20.000001,2760.0001,1230.2501)"
       spreadMethod="pad"
       id="linearGradient92">
      <stop
         style="stop-opacity:1;stop-color:#ffffff"
         offset="0"
         id="stop91" />
      <stop
         style="stop-opacity:1;stop-color:#ffffff"
         offset="1"
         id="stop92" />
    </linearGradient>
    <clipPath
       clipPathUnits="userSpaceOnUse"
       id="clipPath92">
      <path
         d="m 3.125,3.125 h 1293.75 V 1562.5 H 3.125 Z"
         transform="matrix(0.33603818,0,0,0.33603818,2756.8989,1226.8997)"
         clip-rule="evenodd"
         id="path92" />
    </clipPath>
    <clipPath
       clipPathUnits="userSpaceOnUse"
       id="clipPath93">
      <path
         d="m 3.125,3.125 h 1293.75 V 1562.5 H 3.125 Z"
         transform="matrix(0.31999999,0,0,0.31999999,-4.3761321,-16.993215)"
         clip-rule="evenodd"
         id="path93" />
    </clipPath>
  </defs>
  <g
     id="g1">
    <path
       id="path1"
       d="M 0,0 H 416 V 501 H 0 Z"
       style="fill:#ffffff;fill-opacity:1;fill-rule:nonzero;stroke:none"
       clip-path="url(#clipPath2)" />
    <path
       id="path3"
       d="m 2765,1230 h 420 c 0.6628,0 1.3005,0.1268 1.9131,0.3805 0.6125,0.2537 1.1533,0.615 1.6223,1.0839 0.4685,0.4687 0.8298,1.0094 1.0837,1.622 0.2537,0.6126 0.3807,1.2504 0.3809,1.9136 v 510 c -2e-4,0.663 -0.1272,1.3007 -0.3809,1.9133 -0.2539,0.6125 -0.6152,1.1532 -1.0837,1.6222 -0.469,0.4688 -1.0098,0.83 -1.6223,1.0838 -0.6126,0.2536 -1.2503,0.3806 -1.9131,0.3807 h -420 c -0.6633,-10e-5 -1.301,-0.1271 -1.9136,-0.3807 -0.6128,-0.2538 -1.1535,-0.615 -1.622,-1.0838 -0.469,-0.469 -0.8304,-1.0097 -1.084,-1.6222 -0.2539,-0.6126 -0.3806,-1.2503 -0.3804,-1.9133 v -510 c -2e-4,-0.6632 0.1265,-1.301 0.3804,-1.9136 0.2536,-0.6126 0.615,-1.1533 1.084,-1.622 0.4685,-0.4689 1.0092,-0.8302 1.622,-1.0839 0.6126,-0.2537 1.2503,-0.3805 1.9136,-0.3805 z"
       style="fill:#ffffff;fill-opacity:1;fill-rule:nonzero;stroke:#000000;stroke-width:1;stroke-linecap:butt;stroke-linejoin:miter;stroke-miterlimit:10;stroke-dasharray:none;stroke-opacity:1"
       transform="matrix(0.9522727,0,0,0.9522727,-2625.3196,-1168.3431)"
       clip-path="url(#clipPath4)" />
    <path
       id="path5"
       d="m 3170,1320 v -45 c 0,-3.3334 -1.6667,-5 -5,-5 h -380 c -3.3333,0 -5,1.6666 -5,5 v 45"
       style="fill:none;stroke:#000000;stroke-width:1;stroke-linecap:butt;stroke-linejoin:miter;stroke-miterlimit:10;stroke-dasharray:none;stroke-opacity:1"
       transform="matrix(0.9522727,0,0,0.9522727,-2625.3196,-1168.3431)"
       clip-path="url(#clipPath6)" />
    <path
       id="path7"
       d="m 2780,1320 v 405 c 0,3.3334 1.6667,5 5,5 h 380 c 3.3333,0 5,-1.6666 5,-5 v -405"
       style="fill:none;stroke:#000000;stroke-width:1;stroke-linecap:butt;stroke-linejoin:miter;stroke-miterlimit:10;stroke-dasharray:none;stroke-opacity:1"
       transform="matrix(0.9522727,0,0,0.9522727,-2625.3196,-1168.3431)"
       clip-path="url(#clipPath8)" />
    <path
       id="path9"
       d="m 2780,1320 h 390"
       style="fill:none;stroke:#000000;stroke-width:1;stroke-linecap:butt;stroke-linejoin:miter;stroke-miterlimit:10;stroke-dasharray:none;stroke-opacity:1"
       transform="matrix(0.9522727,0,0,0.9522727,-2625.3196,-1168.3431)"
       clip-path="url(#clipPath10)" />
    <text
       id="text10"
       xml:space="preserve"
       transform="matrix(0.9522727,0,0,0.9522727,185.5959,61.517012)"
       clip-path="url(#clipPath11)"><tspan
         id="tspan10"
         style="font-variant:normal;font-weight:normal;font-size:16px;font-family:Arial;writing-mode:lr-tb;fill:#000000;fill-opacity:1;fill-rule:nonzero;stroke:none"
         x="0"
         y="0">«part»</tspan></text>
    <text
       id="text11"
       xml:space="preserve"
       transform="matrix(0.9522727,0,0,0.9522727,153.42689,79.610194)"
       clip-path="url(#clipPath12)"><tspan
         id="tspan11"
         style="font-variant:normal;font-weight:normal;font-size:16px;font-family:Arial;writing-mode:lr-tb;fill:#000000;fill-opacity:1;fill-rule:nonzero;stroke:none"
         x="0"
         y="0">part0 : PartDef0</tspan></text>
    <text
       id="text12"
       xml:space="preserve"
       transform="matrix(0.9522727,0,0,0.9522727,194.98474,101.51247)"
       clip-path="url(#clipPath13)"><tspan
         id="tspan12"
         style="font-style:italic;font-variant:normal;font-weight:normal;font-size:12px;font-family:Arial;writing-mode:lr-tb;fill:#000000;fill-opacity:1;fill-rule:nonzero;stroke:none"
         x="0"
         y="0">parts</tspan></text>
    <path
       id="path14"
       d="m 3160,1466 v -45 c 0,-3.3334 -1.6667,-5 -5,-5 h -360 c -3.3333,0 -5,1.6666 -5,5 v 45"
       style="fill:none;stroke:#000000;stroke-width:1;stroke-linecap:butt;stroke-linejoin:miter;stroke-miterlimit:10;stroke-dasharray:none;stroke-opacity:1"
       transform="matrix(0.9522727,0,0,0.9522727,-2625.3196,-1168.3431)"
       clip-path="url(#clipPath15)" />
    <path
       id="path16"
       d="m 2790,1466 v 245 c 0,3.3334 1.6667,5 5,5 h 360 c 3.3333,0 5,-1.6666 5,-5 v -245"
       style="fill:none;stroke:#000000;stroke-width:1;stroke-linecap:butt;stroke-linejoin:miter;stroke-miterlimit:10;stroke-dasharray:none;stroke-opacity:1"
       transform="matrix(0.9522727,0,0,0.9522727,-2625.3196,-1168.3431)"
       clip-path="url(#clipPath17)" />
    <path
       id="path18"
       d="m 2790,1466 h 370"
       style="fill:none;stroke:#000000;stroke-width:1;stroke-linecap:butt;stroke-linejoin:miter;stroke-miterlimit:10;stroke-dasharray:none;stroke-opacity:1"
       transform="matrix(0.9522727,0,0,0.9522727,-2625.3196,-1168.3431)"
       clip-path="url(#clipPath19)" />
    <text
       id="text19"
       xml:space="preserve"
       transform="matrix(0.9522727,0,0,0.9522727,178.39434,200.54883)"
       clip-path="url(#clipPath20)"><tspan
         id="tspan19"
         style="font-variant:normal;font-weight:normal;font-size:16px;font-family:Arial;writing-mode:lr-tb;fill:#000000;fill-opacity:1;fill-rule:nonzero;stroke:none"
         x="0"
         y="0">«action»</tspan></text>
    <text
       id="text20"
       xml:space="preserve"
       transform="matrix(0.9522727,0,0,0.9522727,161.04507,218.64201)"
       clip-path="url(#clipPath21)"><tspan
         id="tspan20"
         style="font-variant:normal;font-weight:normal;font-size:16px;font-family:Arial;writing-mode:lr-tb;fill:#000000;fill-opacity:1;fill-rule:nonzero;stroke:none"
         x="0"
         y="0">part0::action0</tspan></text>
    <path
       id="path22"
       d="m 2824.979,1582.75 c 0,0.6132 -0.06,1.2203 -0.1794,1.8218 -0.1197,0.6014 -0.2969,1.1854 -0.5318,1.7519 -0.2346,0.5666 -0.5222,1.1048 -0.863,1.6145 -0.3406,0.5099 -0.7276,0.9817 -1.1614,1.4153 -0.4338,0.4336 -0.9055,0.8207 -1.4153,1.1614 -0.5097,0.3407 -1.0478,0.6283 -1.6142,0.863 -0.5667,0.2347 -1.1507,0.4118 -1.752,0.5315 -0.6015,0.1198 -1.2087,0.1796 -1.8218,0.1796 -0.6132,0 -1.2207,-0.06 -1.8222,-0.1796 -0.6013,-0.1197 -1.1853,-0.2968 -1.752,-0.5315 -0.5666,-0.2347 -1.1047,-0.5223 -1.6145,-0.863 -0.51,-0.3407 -0.9817,-0.7278 -1.415,-1.1614 -0.4336,-0.4336 -0.8208,-0.9053 -1.1616,-1.4151 -0.3411,-0.5099 -0.6287,-1.0481 -0.8633,-1.6147 -0.2346,-0.5665 -0.4119,-1.1505 -0.5313,-1.7518 -0.1194,-0.6014 -0.1792,-1.2087 -0.1792,-1.8219 0,-0.6134 0.06,-1.2208 0.1792,-1.8223 0.1194,-0.6014 0.2967,-1.1853 0.5313,-1.7518 0.2346,-0.5665 0.5222,-1.1046 0.8633,-1.6145 0.3408,-0.5099 0.728,-0.9817 1.1616,-1.4152 0.4333,-0.4335 0.905,-0.8206 1.4148,-1.1613 0.5097,-0.3409 1.0478,-0.6286 1.6145,-0.8632 0.5666,-0.2345 1.1509,-0.4116 1.7522,-0.5312 0.6015,-0.1197 1.209,-0.1795 1.8222,-0.1795 0.6131,0 1.2203,0.06 1.8218,0.1795 0.6013,0.1196 1.1851,0.2967 1.7517,0.5312 0.5664,0.2346 1.1045,0.5223 1.6143,0.863 0.51,0.3407 0.9817,0.728 1.4155,1.1615 0.4338,0.4335 0.8208,0.9052 1.1614,1.4151 0.3408,0.5099 0.6284,1.0481 0.863,1.6146 0.2349,0.5665 0.4121,1.1505 0.5318,1.752 0.1196,0.6014 0.1794,1.2087 0.1794,1.8221 z"
       style="fill:#000000;fill-opacity:1;fill-rule:nonzero;stroke:#000000;stroke-width:1;stroke-linecap:butt;stroke-linejoin:miter;stroke-miterlimit:10;stroke-dasharray:none;stroke-opacity:1"
       transform="matrix(0.9522727,0,0,0.9522727,-2625.3196,-1168.3431)"
       clip-path="url(#clipPath23)" />
    <path
       id="path24"
       d="m 2823.7805,1652.75 c -2e-4,0.5346 -0.052,1.0638 -0.157,1.5881 -0.1042,0.5242 -0.2585,1.0332 -0.4631,1.527 -0.2046,0.4938 -0.4553,0.963 -0.7524,1.4075 -0.2969,0.4444 -0.6343,0.8557 -1.0122,1.2338 -0.3782,0.378 -0.7894,0.7154 -1.2337,1.0123 -0.4443,0.297 -0.9136,0.5477 -1.4075,0.7522 -0.4936,0.2046 -1.0026,0.359 -1.5268,0.4632 -0.5242,0.1044 -1.0535,0.1565 -1.5879,0.1567 -0.5344,-2e-4 -1.064,-0.052 -1.5881,-0.1567 -0.5242,-0.1042 -1.0335,-0.2586 -1.5274,-0.4632 -0.4939,-0.2045 -0.9631,-0.4552 -1.4075,-0.7522 -0.4445,-0.2969 -0.8557,-0.6343 -1.2334,-1.0123 -0.3779,-0.3781 -0.7153,-0.7894 -1.0124,-1.2338 -0.2971,-0.4445 -0.5479,-0.9136 -0.7524,-1.4074 -0.2046,-0.4937 -0.3589,-1.0028 -0.4632,-1.5271 -0.1042,-0.5243 -0.1565,-1.0535 -0.1562,-1.5881 -3e-4,-0.5345 0.052,-1.0638 0.1562,-1.5881 0.1043,-0.5243 0.2588,-1.0335 0.4634,-1.5273 0.2046,-0.4938 0.4553,-0.963 0.7524,-1.4074 0.2969,-0.4444 0.6343,-0.8555 1.0122,-1.2335 0.3777,-0.3781 0.7889,-0.7156 1.2334,-1.0126 0.4444,-0.2969 0.9136,-0.5476 1.4075,-0.7521 0.4939,-0.2045 1.0029,-0.3589 1.5271,-0.4632 0.5244,-0.1043 1.054,-0.1564 1.5884,-0.1564 0.5344,0 1.064,0.052 1.5881,0.1565 0.5242,0.1041 1.033,0.2585 1.5266,0.463 0.4939,0.2045 0.9632,0.4552 1.4075,0.7522 0.4443,0.297 0.8555,0.6345 1.2337,1.0126 0.3779,0.378 0.7153,0.7891 1.0122,1.2335 0.2971,0.4444 0.5478,0.9136 0.7524,1.4074 0.2046,0.4938 0.3589,1.0029 0.4631,1.5271 0.1045,0.5243 0.1568,1.0538 0.157,1.5883 z"
       style="fill:#000000;fill-opacity:1;fill-rule:nonzero;stroke:#000000;stroke-width:1;stroke-linecap:butt;stroke-linejoin:miter;stroke-miterlimit:10;stroke-dasharray:none;stroke-opacity:1"
       transform="matrix(0.9522727,0,0,0.9522727,-2625.3196,-1168.3431)"
       clip-path="url(#clipPath25)" />
    <path
       id="path26"
       d="m 2827.7805,1652.75 c -2e-4,0.7971 -0.078,1.5866 -0.2334,2.3684 -0.156,0.7819 -0.3862,1.541 -0.6911,2.2775 -0.3052,0.7365 -0.6792,1.4363 -1.1219,2.099 -0.4428,0.6628 -0.946,1.2761 -1.5097,1.8398 -0.5638,0.5636 -1.177,1.0669 -1.8396,1.5098 -0.6631,0.4429 -1.3628,0.8167 -2.0992,1.1218 -0.7365,0.3052 -1.4956,0.5355 -2.2775,0.6909 -0.7818,0.1557 -1.5711,0.2334 -2.3682,0.2336 -0.7971,-2e-4 -1.5869,-0.078 -2.3689,-0.2334 -0.7817,-0.1556 -1.541,-0.3859 -2.2776,-0.6911 -0.7366,-0.3051 -1.436,-0.6789 -2.0989,-1.1219 -0.6628,-0.4428 -1.2758,-0.9461 -1.8396,-1.5097 -0.5637,-0.5637 -1.0671,-1.177 -1.51,-1.8397 -0.4428,-0.6628 -0.8169,-1.3626 -1.1218,-2.0991 -0.3049,-0.7365 -0.5352,-1.4956 -0.6907,-2.2775 -0.1555,-0.7818 -0.2334,-1.5713 -0.2331,-2.3684 -3e-4,-0.7972 0.078,-1.5867 0.2331,-2.3685 0.1555,-0.782 0.3858,-1.5413 0.6907,-2.2777 0.3049,-0.7365 0.679,-1.4362 1.1218,-2.0989 0.4429,-0.6627 0.9463,-1.276 1.51,-1.8397 0.5638,-0.5636 1.1768,-1.0669 1.8396,-1.5099 0.6629,-0.4429 1.3623,-0.8168 2.0989,-1.1218 0.7366,-0.3051 1.4959,-0.5353 2.2776,-0.6908 0.782,-0.1556 1.5718,-0.2333 2.3689,-0.2333 0.7971,0 1.5864,0.078 2.3682,0.2331 0.7819,0.1557 1.541,0.3859 2.2775,0.691 0.7364,0.305 1.4361,0.6789 2.0992,1.1218 0.6626,0.443 1.2758,0.9463 1.8396,1.5099 0.5637,0.5637 1.0669,1.177 1.5097,1.8397 0.4427,0.6627 0.8167,1.3624 1.1219,2.0989 0.3049,0.7364 0.5351,1.4957 0.6909,2.2777 0.1555,0.7818 0.2334,1.5713 0.2336,2.3685 z"
       style="fill:none;stroke:#000000;stroke-width:1;stroke-linecap:butt;stroke-linejoin:miter;stroke-miterlimit:10;stroke-dasharray:none;stroke-opacity:1"
       transform="matrix(0.9522727,0,0,0.9522727,-2625.3196,-1168.3431)"
       clip-path="url(#clipPath27)" />
    <path
       id="path28"
       d="m 2995.3,1526 v -45 c 0,-3.3334 -1.6667,-5 -5,-5 h -137.1999 c -3.3333,0 -5,1.6666 -5,5 v 45"
       style="fill:#ffffff;fill-opacity:1;fill-rule:nonzero;stroke:none"
       transform="matrix(0.9522727,0,0,0.9522727,-2625.3196,-1168.3431)"
       clip-path="url(#clipPath29)" />
    <path
       id="path30"
       d="m 2994.8,1526 v -3 h 1 v 3 z m 0,-6 v -3 h 1 v 3 z m 0,-6 v -3 h 1 v 3 z m 0,-6 v -3 h 1 v 3 z m 0,-6 v -3 h 1 v 3 z m 0,-6 v -3 h 1 v 3 z m 0,-6 v -3 h 1 v 3 z m 0,-6 v -3 h 1 v 3 z m -0.6464,-5.8138 c -0.4151,-0.6789 -1.0432,-1.1519 -1.8848,-1.4191 l 0.3027,-0.9531 c 1.0784,0.3426 1.8902,0.9594 2.4351,1.8504 z m -4.9478,-1.6862 h -3 v -1 h 3 z m -6,0 h -3 v -1 h 3 z m -6,0 h -3 v -1 h 3 z m -6,0 h -3 v -1 h 3 z m -6,0 h -3 v -1 h 3 z m -6,0 h -3 v -1 h 3 z m -6,0 h -3 v -1 h 3 z m -6,0 h -3 v -1 h 3 z m -6,0 h -3 v -1 h 3 z m -6,0 h -3 v -1 h 3 z m -6,0 h -3 v -1 h 3 z m -6,0 h -3 v -1 h 3 z m -6,0 h -3 v -1 h 3 z m -6,0 h -3 v -1 h 3 z m -6,0 h -3 v -1 h 3 z m -6,0 h -3 v -1 h 3 z m -6,0 h -3 v -1 h 3 z m -6,0 h -3 v -1 h 3 z m -6,0 h -3 v -1 h 3 z m -6,0 h -3 v -1 h 3 z m -6,0 h -3 v -1 h 3 z m -6,0 h -3 v -1 h 3 z m -6,0 h -3 v -1 h 3 z m -6.0644,0.264 c -0.8435,0.2658 -1.4734,0.7372 -1.8899,1.4143 l -0.8516,-0.5239 c 0.5471,-0.8891 1.3606,-1.5039 2.4407,-1.8442 z m -2.5413,4.2216 v 0.014 2.9887 h -1 v -2.9887 -0.014 z m 0,6.0031 v 3 h -1 v -3 z m 0,6 v 3 h -1 v -3 z m 0,6 v 3 h -1 v -3 z m 0,6 v 3 h -1 v -3 z m 0,6 v 3 h -1 v -3 z m 0,6 v 3 h -1 v -3 z m 0,6 v 3 h -1 v -3 z"
       style="fill:#000000;fill-opacity:1;fill-rule:nonzero;stroke:none"
       transform="matrix(0.9522727,0,0,0.9522727,-2625.3196,-1168.3431)"
       clip-path="url(#clipPath31)" />
    <path
       id="path32"
       d="m 2848.6001,1526 v 3 h -1 v -3 z m 0,6 v 3 h -1 v -3 z m 0,6 v 3 h -1 v -3 z m 0,6 v 3 h -1 v -3 z m 0,6 v 3 h -1 v -3 z m 0,6 v 3 h -1 v -3 z m 0,6 v 3 h -1 v -3 z m 0,6 v 3 h -1 v -3 z m 0,6 v 3 h -1 v -3 z m 0,6 v 3 h -1 v -3 z m 0,6 v 3 h -1 v -3 z m 0,6 v 3 h -1 v -3 z m 0,6 v 3 h -1 v -3 z m 0,6 v 3 h -1 v -3 z m 0,6 v 3 h -1 v -3 z m 0,6 v 3 h -1 v -3 z m 0,6 v 3 h -1 v -3 z m 0,6 v 3 h -1 v -3 z m 0,6 v 3 h -1 v -3 z m 0,6 v 3 h -1 v -3 z m 0,6 v 3 h -1 v -3 z m 0,6 v 3 h -1 v -3 z m 0,6 v 3 h -1 v -3 z m 0,6 v 3 h -1 v -3 z m 0,6 v 3 h -1 v -3 z m 0,6 v 3 h -1 v -3 z m 0,6 v 3 h -1 v -3 z m 0,6 v 3 h -1 v -3 z m 0,6 v 3 h -1 v -3 z m 0,6 v 0.5 c 0,0.9807 0.1514,1.7982 0.4539,2.4525 l -0.9078,0.4197 c -0.364,-0.7872 -0.5461,-1.7446 -0.5461,-2.8722 v -0.5 z m 2.1204,4.5789 c 0.6418,0.2807 1.435,0.4211 2.3796,0.4211 h 0.5942 v 1 h -0.5942 c -1.0842,0 -2.011,-0.1683 -2.7805,-0.5049 z m 5.9738,0.4211 h 3 v 1 h -3 z m 6,0 h 3 v 1 h -3 z m 6,0 h 3 v 1 h -3 z m 6,0 h 3 v 1 h -3 z m 6,0 h 3 v 1 h -3 z m 6,0 h 3 v 1 h -3 z m 6,0 h 3 v 1 h -3 z m 6,0 h 3 v 1 h -3 z m 6,0 h 3 v 1 h -3 z m 6,0 h 3 v 1 h -3 z m 6,0 h 3 v 1 h -3 z m 6,0 h 3 v 1 h -3 z m 6,0 h 3 v 1 h -3 z m 6,0 h 3 v 1 h -3 z m 6,0 h 3 v 1 h -3 z m 6,0 h 3 v 1 h -3 z m 6,0 h 3 v 1 h -3 z m 6,0 h 3 v 1 h -3 z m 6,0 h 3 v 1 h -3 z m 6,0 h 3 v 1 h -3 z m 6,0 h 3 v 1 h -3 z m 6,0 h 3 v 1 h -3 z m 6,0 h 1.6057 c 0.5525,0 1.0538,-0.048 1.5035,-0.1444 l 0.2094,0.9778 c -0.5188,0.1111 -1.0896,0.1666 -1.7129,0.1666 h -1.6057 z m 5.2288,-1.3569 c 0.4968,-0.6219 0.7827,-1.4724 0.8572,-2.5517 l 0.9975,0.069 c -0.089,1.2871 -0.4467,2.3227 -1.0735,3.107 l -0.7812,-0.6242 z m 0.8769,-5.6317 v -3 h 1 v 3 z m 0,-6 v -3 h 1 v 3 z m 0,-6 v -3 h 1 v 3 z m 0,-6 v -3 h 1 v 3 z m 0,-6 v -3 h 1 v 3 z m 0,-6 v -3 h 1 v 3 z m 0,-6 v -3 h 1 v 3 z m 0,-6 v -3 h 1 v 3 z m 0,-6 v -3 h 1 v 3 z m 0,-6 v -3 h 1 v 3 z m 0,-6 v -3 h 1 v 3 z m 0,-6 v -3 h 1 v 3 z m 0,-6 v -3 h 1 v 3 z m 0,-6 v -3 h 1 v 3 z m 0,-6 v -3 h 1 v 3 z m 0,-6 v -3 h 1 v 3 z m 0,-6 v -3 h 1 v 3 z m 0,-6 v -3 h 1 v 3 z m 0,-6 v -3 h 1 v 3 z m 0,-6 v -3 h 1 v 3 z m 0,-6 v -3 h 1 v 3 z m 0,-6 v -3 h 1 v 3 z m 0,-6 v -3 h 1 v 3 z m 0,-6 v -3 h 1 v 3 z m 0,-6 v -3 h 1 v 3 z m 0,-6 v -3 h 1 v 3 z m 0,-6 v -3 h 1 v 3 z m 0,-6 v -3 h 1 v 3 z m 0,-6 v -3 h 1 v 3 z"
       style="fill:#000000;fill-opacity:1;fill-rule:nonzero;stroke:none"
       transform="matrix(0.9522727,0,0,0.9522727,-2625.3196,-1168.3431)"
       clip-path="url(#clipPath33)" />
    <path
       id="path34"
       d="m 2848.1001,1525.5 h 3 v 1 h -3 m 6,-1 h 3 v 1 h -3 m 6,-1 h 3 v 1 h -3 m 6,-1 h 3 v 1 h -3 m 6,-1 h 3 v 1 h -3 m 6,-1 h 3 v 1 h -3 m 6,-1 h 3 v 1 h -3 m 6,-1 h 3 v 1 h -3 m 6,-1 h 3 v 1 h -3 m 6,-1 h 3 v 1 h -3 m 6,-1 h 3 v 1 h -3 m 6,-1 h 3 v 1 h -3 m 6,-1 h 3 v 1 h -3 m 6,-1 h 3 v 1 h -3 m 6,-1 h 3 v 1 h -3 m 6,-1 h 3 v 1 h -3 m 6,-1 h 3 v 1 h -3 m 6,-1 h 3 v 1 h -3 m 6,-1 h 3 v 1 h -3 m 6,-1 h 3 v 1 h -3 m 6,-1 h 3 v 1 h -3 m 6,-1 h 3 v 1 h -3 m 6,-1 h 3 v 1 h -3 m 6,-1 h 3 v 1 h -3 m 6,-1 h 3 v 1 h -3"
       style="fill:#000000;fill-opacity:1;fill-rule:nonzero;stroke:none"
       transform="matrix(0.9522727,0,0,0.9522727,-2625.3196,-1168.3431)"
       clip-path="url(#clipPath35)" />
    <text
       id="text35"
       xml:space="preserve"
       transform="matrix(0.9522727,0,0,0.9522727,114.77062,257.68519)"
       clip-path="url(#clipPath36)"><tspan
         id="tspan35"
         style="font-variant:normal;font-weight:normal;font-size:16px;font-family:Arial;writing-mode:lr-tb;fill:#000000;fill-opacity:1;fill-rule:nonzero;stroke:none"
         x="0"
         y="0">«performer»</tspan></text>
    <text
       id="text36"
       xml:space="preserve"
       transform="matrix(0.9522727,0,0,0.9522727,117.30005,275.77837)"
       clip-path="url(#clipPath37)"><tspan
         id="tspan36"
         style="font-variant:normal;font-weight:normal;font-size:16px;font-family:Arial;writing-mode:lr-tb;fill:#000000;fill-opacity:1;fill-rule:nonzero;stroke:none"
         x="0"
         y="0">part0::part1</tspan></text>
    <text
       id="text37"
       xml:space="preserve"
       transform="matrix(0.9522727,0,0,0.9522727,117.85065,297.68064)"
       clip-path="url(#clipPath38)"><tspan
         id="tspan37"
         style="font-style:italic;font-variant:normal;font-weight:normal;font-size:12px;font-family:Arial;writing-mode:lr-tb;fill:#000000;fill-opacity:1;fill-rule:nonzero;stroke:none"
         x="0"
         y="0">perform actions</tspan></text>
    <path
       id="path39"
       d="m 2884.0801,1559.5 h 75.24 c 0.6628,0 1.3007,0.1268 1.9133,0.3804 0.6125,0.2538 1.1531,0.6151 1.6221,1.084 0.4687,0.4687 0.83,1.0094 1.0837,1.6219 0.2539,0.6127 0.3809,1.2505 0.3809,1.9137 v 36.5 c 0,0.663 -0.127,1.3007 -0.3809,1.9131 -0.2537,0.6127 -0.615,1.1534 -1.0837,1.6223 -0.469,0.4688 -1.0096,0.83 -1.6221,1.0837 -0.6126,0.2538 -1.2505,0.3808 -1.9133,0.3809 h -75.24 c -0.6634,-10e-5 -1.3013,-0.1271 -1.9141,-0.3809 -0.6125,-0.2537 -1.1533,-0.6149 -1.6218,-1.0837 -0.469,-0.4689 -0.8301,-1.0095 -1.0838,-1.6222 -0.2539,-0.6125 -0.3806,-1.2502 -0.3803,-1.9132 v -36.5 c -3e-4,-0.6632 0.1264,-1.301 0.3801,-1.9136 0.2537,-0.6126 0.615,-1.1533 1.084,-1.622 0.4685,-0.4689 1.0093,-0.8302 1.6218,-1.0839 0.6128,-0.2537 1.2507,-0.3805 1.9141,-0.3805 z"
       style="fill:#ffffff;fill-opacity:1;fill-rule:nonzero;stroke:#000000;stroke-width:1;stroke-linecap:butt;stroke-linejoin:miter;stroke-miterlimit:10;stroke-dasharray:none;stroke-opacity:1"
       transform="matrix(0.9522727,0,0,0.9522727,-2625.3196,-1168.3431)"
       clip-path="url(#clipPath40)" />
    <text
       id="text40"
       xml:space="preserve"
       transform="matrix(0.9522727,0,0,0.9522727,127.46261,334.81928)"
       clip-path="url(#clipPath41)"><tspan
         id="tspan40"
         style="font-variant:normal;font-weight:normal;font-size:16px;font-family:Arial;writing-mode:lr-tb;fill:#000000;fill-opacity:1;fill-rule:nonzero;stroke:none"
         x="0"
         y="0">«action»</tspan></text>
    <text
       id="text41"
       xml:space="preserve"
       transform="matrix(0.9522727,0,0,0.9522727,131.70317,353.86473)"
       clip-path="url(#clipPath42)"><tspan
         id="tspan41"
         style="font-variant:normal;font-weight:normal;font-size:16px;font-family:Arial;writing-mode:lr-tb;fill:#000000;fill-opacity:1;fill-rule:nonzero;stroke:none"
         x="0"
         y="0">action1</tspan></text>
    <path
       id="path43"
       d="m 2884.0801,1629.5 h 75.24 c 0.6628,0 1.3007,0.1268 1.9133,0.3805 0.6125,0.2538 1.1531,0.615 1.6221,1.0839 0.4687,0.4687 0.83,1.0094 1.0837,1.622 0.2539,0.6126 0.3809,1.2504 0.3809,1.9136 v 36.5 c 0,0.663 -0.127,1.3007 -0.3809,1.9133 -0.2537,0.6125 -0.615,1.1532 -1.0837,1.6221 -0.469,0.4689 -1.0096,0.8301 -1.6221,1.0837 -0.6126,0.2538 -1.2505,0.3808 -1.9133,0.3809 h -75.24 c -0.6634,-10e-5 -1.3013,-0.1272 -1.9141,-0.381 -0.6125,-0.2535 -1.1533,-0.6147 -1.6218,-1.0836 -0.469,-0.4689 -0.8301,-1.0096 -1.0838,-1.6221 -0.2539,-0.6126 -0.3806,-1.2503 -0.3803,-1.9133 v -36.5 c -3e-4,-0.6632 0.1264,-1.301 0.3801,-1.9137 0.2537,-0.6125 0.615,-1.1532 1.084,-1.6219 0.4685,-0.4689 1.0093,-0.8302 1.6218,-1.084 0.6128,-0.2536 1.2507,-0.3804 1.9141,-0.3804 z"
       style="fill:#ffffff;fill-opacity:1;fill-rule:nonzero;stroke:#000000;stroke-width:1;stroke-linecap:butt;stroke-linejoin:miter;stroke-miterlimit:10;stroke-dasharray:none;stroke-opacity:1"
       transform="matrix(0.9522727,0,0,0.9522727,-2625.3196,-1168.3431)"
       clip-path="url(#clipPath44)" />
    <text
       id="text44"
       xml:space="preserve"
       transform="matrix(0.9522727,0,0,0.9522727,127.46261,401.47836)"
       clip-path="url(#clipPath45)"><tspan
         id="tspan44"
         style="font-variant:normal;font-weight:normal;font-size:16px;font-family:Arial;writing-mode:lr-tb;fill:#000000;fill-opacity:1;fill-rule:nonzero;stroke:none"
         x="0"
         y="0">«action»</tspan></text>
    <text
       id="text45"
       xml:space="preserve"
       transform="matrix(0.9522727,0,0,0.9522727,131.70317,420.52382)"
       clip-path="url(#clipPath46)"><tspan
         id="tspan45"
         style="font-variant:normal;font-weight:normal;font-size:16px;font-family:Arial;writing-mode:lr-tb;fill:#000000;fill-opacity:1;fill-rule:nonzero;stroke:none"
         x="0"
         y="0">action4</tspan></text>
    <path
       id="path47"
       d="m 2824.98,1582.25 h 3 v 1 h -3 m 6,-1 h 3 v 1 h -3 m 6,-1 h 3 v 1 h -3 m 6,-1 h 3 v 1 h -3 m 6,-1 h 3 v 1 h -3 m 6,-1 h 3 v 1 h -3 m 6,-1 h 3 v 1 h -3 m 6,-1 h 3 v 1 h -3 m 6,-1 h 3 v 1 h -3"
       style="fill:#000000;fill-opacity:1;fill-rule:nonzero;stroke:none"
       transform="matrix(0.9522727,0,0,0.9522727,-2625.3196,-1168.3431)"
       clip-path="url(#clipPath48)" />
    <path
       id="path49"
       d="m 2868.96,1587.25 9,-4.5 -9,-4.5"
       style="fill:none;stroke:#000000;stroke-width:1;stroke-linecap:butt;stroke-linejoin:miter;stroke-miterlimit:10;stroke-dasharray:none;stroke-opacity:1"
       transform="matrix(0.9522727,0,0,0.9522727,-2625.3196,-1168.3431)"
       clip-path="url(#clipPath50)" />
    <path
       id="path51"
       d="m 2879.0801,1653.3001 h -3 v -1 h 3 z m -6,0 h -3 v -1 h 3 z m -6,0 h -3 v -1 h 3 z m -6,0 h -3 v -1 h 3 z m -6,0 h -1.5801 -1.4209 v -1 h 1.4189 1.5801 v 1 z m -6.001,-0.01 -3,-0.01 v -1 l 3,0.01 z m -6,-0.013 -3,-0.01 v -1 l 3,0.01 z m -6,-0.013 -3,-0.01 v -1 l 3,0.01 z m -6,-0.013 h -1.0601 v -1 h 1.0601 z"
       style="fill:#000000;fill-opacity:1;fill-rule:nonzero;stroke:none"
       transform="matrix(0.9522727,0,0,0.9522727,-2625.3196,-1168.3431)"
       clip-path="url(#clipPath52)" />
    <path
       id="path53"
       d="m 2837.9099,1648.27 -9.01,4.48 8.99,4.52"
       style="fill:none;stroke:#000000;stroke-width:1;stroke-linecap:butt;stroke-linejoin:miter;stroke-miterlimit:10;stroke-dasharray:none;stroke-opacity:1"
       transform="matrix(0.9522727,0,0,0.9522727,-2625.3196,-1168.3431)"
       clip-path="url(#clipPath54)" />
    <path
       id="path55"
       d="m 3146.5,1526 v -45 c 0,-3.3334 -1.6667,-5 -5,-5 h -137.2 c -3.3332,0 -5,1.6666 -5,5 v 45"
       style="fill:#ffffff;fill-opacity:1;fill-rule:nonzero;stroke:none"
       transform="matrix(0.9522727,0,0,0.9522727,-2625.3196,-1168.3431)"
       clip-path="url(#clipPath56)" />
    <path
       id="path57"
       d="m 3146,1526 v -3 h 1 v 3 z m 0,-6 v -3 h 1 v 3 z m 0,-6 v -3 h 1 v 3 z m 0,-6 v -3 h 1 v 3 z m 0,-6 v -3 h 1 v 3 z m 0,-6 v -3 h 1 v 3 z m 0,-6 v -3 h 1 v 3 z m 0,-6 v -3 h 1 v 3 z m -0.6465,-5.8138 c -0.415,-0.6789 -1.0432,-1.1519 -1.8847,-1.4191 l 0.3027,-0.9531 c 1.0784,0.3426 1.8901,0.9594 2.435,1.8504 z m -4.9477,-1.6862 h -3 v -1 h 3 z m -6,0 h -3 v -1 h 3 z m -6,0 h -3 v -1 h 3 z m -6,0 h -3 v -1 h 3 z m -6,0 h -3 v -1 h 3 z m -6,0 h -3 v -1 h 3 z m -6,0 h -3 v -1 h 3 z m -6,0 h -3 v -1 h 3 z m -6,0 h -3 v -1 h 3 z m -6,0 h -3 v -1 h 3 z m -6,0 h -3 v -1 h 3 z m -6,0 h -3 v -1 h 3 z m -6,0 h -3 v -1 h 3 z m -6,0 h -3 v -1 h 3 z m -6,0 h -3 v -1 h 3 z m -6,0 h -3 v -1 h 3 z m -6,0 h -3 v -1 h 3 z m -6,0 h -3 v -1 h 3 z m -6,0 h -3 v -1 h 3 z m -6,0 h -3 v -1 h 3 z m -6,0 h -3 v -1 h 3 z m -6,0 h -3 v -1 h 3 z m -6,0 h -3 v -1 h 3 z m -6.0645,0.264 c -0.8435,0.2658 -1.4734,0.7372 -1.8899,1.4143 l -0.8515,-0.5239 c 0.5471,-0.8891 1.3605,-1.5039 2.4406,-1.8442 z m -2.5413,4.2216 v 0.014 2.9887 h -1 v -2.9887 -0.014 z m 0,6.0031 v 3 h -1 v -3 z m 0,6 v 3 h -1 v -3 z m 0,6 v 3 h -1 v -3 z m 0,6 v 3 h -1 v -3 z m 0,6 v 3 h -1 v -3 z m 0,6 v 3 h -1 v -3 z m 0,6 v 3 h -1 v -3 z"
       style="fill:#000000;fill-opacity:1;fill-rule:nonzero;stroke:none"
       transform="matrix(0.9522727,0,0,0.9522727,-2625.3196,-1168.3431)"
       clip-path="url(#clipPath58)" />
    <path
       id="path59"
       d="m 2999.8,1526 v 3 h -1 v -3 z m 0,6 v 3 h -1 v -3 z m 0,6 v 3 h -1 v -3 z m 0,6 v 3 h -1 v -3 z m 0,6 v 3 h -1 v -3 z m 0,6 v 3 h -1 v -3 z m 0,6 v 3 h -1 v -3 z m 0,6 v 3 h -1 v -3 z m 0,6 v 3 h -1 v -3 z m 0,6 v 3 h -1 v -3 z m 0,6 v 3 h -1 v -3 z m 0,6 v 3 h -1 v -3 z m 0,6 v 3 h -1 v -3 z m 0,6 v 3 h -1 v -3 z m 0,6 v 3 h -1 v -3 z m 0,6 v 3 h -1 v -3 z m 0,6 v 3 h -1 v -3 z m 0,6 v 3 h -1 v -3 z m 0,6 v 3 h -1 v -3 z m 0,6 v 3 h -1 v -3 z m 0,6 v 3 h -1 v -3 z m 0,6 v 3 h -1 v -3 z m 0,6 v 3 h -1 v -3 z m 0,6 v 3 h -1 v -3 z m 0,6 v 3 h -1 v -3 z m 0,6 v 3 h -1 v -3 z m 0,6 v 3 h -1 v -3 z m 0,6 v 3 h -1 v -3 z m 0,6 v 3 h -1 v -3 z m 0,6 v 0.5 c 0,0.9807 0.1514,1.7982 0.4539,2.4525 l -0.9077,0.4197 c -0.364,-0.7872 -0.5462,-1.7446 -0.5462,-2.8722 v -0.5 z m 2.1204,4.5789 c 0.6419,0.2807 1.4351,0.4211 2.3796,0.4211 h 0.5943 v 1 H 3004.3 c -1.0842,0 -2.0109,-0.1683 -2.7805,-0.5049 z m 5.9739,0.4211 h 3 v 1 h -3 z m 6,0 h 3 v 1 h -3 z m 6,0 h 3 v 1 h -3 z m 6,0 h 3 v 1 h -3 z m 6,0 h 3 v 1 h -3 z m 6,0 h 3 v 1 h -3 z m 6,0 h 3 v 1 h -3 z m 6,0 h 3 v 1 h -3 z m 6,0 h 3 v 1 h -3 z m 6,0 h 3 v 1 h -3 z m 6,0 h 3 v 1 h -3 z m 6,0 h 3 v 1 h -3 z m 6,0 h 3 v 1 h -3 z m 6,0 h 3 v 1 h -3 z m 6,0 h 3 v 1 h -3 z m 6,0 h 3 v 1 h -3 z m 6,0 h 3 v 1 h -3 z m 6,0 h 3 v 1 h -3 z m 6,0 h 3 v 1 h -3 z m 6,0 h 3 v 1 h -3 z m 6,0 h 3 v 1 h -3 z m 6,0 h 3 v 1 h -3 z m 6,0 h 1.6057 c 0.5527,0 1.054,-0.048 1.5034,-0.1444 l 0.2095,0.9778 c -0.5188,0.1111 -1.0899,0.1666 -1.7129,0.1666 h -1.6057 z m 5.2287,-1.3569 c 0.4969,-0.6219 0.7828,-1.4724 0.8572,-2.5517 l 0.9976,0.069 c -0.089,1.2871 -0.4468,2.3227 -1.0735,3.107 l -0.7813,-0.6242 z m 0.877,-5.6317 v -3 h 1 v 3 z m 0,-6 v -3 h 1 v 3 z m 0,-6 v -3 h 1 v 3 z m 0,-6 v -3 h 1 v 3 z m 0,-6 v -3 h 1 v 3 z m 0,-6 v -3 h 1 v 3 z m 0,-6 v -3 h 1 v 3 z m 0,-6 v -3 h 1 v 3 z m 0,-6 v -3 h 1 v 3 z m 0,-6 v -3 h 1 v 3 z m 0,-6 v -3 h 1 v 3 z m 0,-6 v -3 h 1 v 3 z m 0,-6 v -3 h 1 v 3 z m 0,-6 v -3 h 1 v 3 z m 0,-6 v -3 h 1 v 3 z m 0,-6 v -3 h 1 v 3 z m 0,-6 v -3 h 1 v 3 z m 0,-6 v -3 h 1 v 3 z m 0,-6 v -3 h 1 v 3 z m 0,-6 v -3 h 1 v 3 z m 0,-6 v -3 h 1 v 3 z m 0,-6 v -3 h 1 v 3 z m 0,-6 v -3 h 1 v 3 z m 0,-6 v -3 h 1 v 3 z m 0,-6 v -3 h 1 v 3 z m 0,-6 v -3 h 1 v 3 z m 0,-6 v -3 h 1 v 3 z m 0,-6 v -3 h 1 v 3 z m 0,-6 v -3 h 1 v 3 z"
       style="fill:#000000;fill-opacity:1;fill-rule:nonzero;stroke:none"
       transform="matrix(0.9522727,0,0,0.9522727,-2625.3196,-1168.3431)"
       clip-path="url(#clipPath60)" />
    <path
       id="path61"
       d="m 2999.3,1525.5 h 3 v 1 h -3 m 6,-1 h 3 v 1 h -3 m 6,-1 h 3 v 1 h -3 m 6,-1 h 3 v 1 h -3 m 6,-1 h 3 v 1 h -3 m 6,-1 h 3 v 1 h -3 m 6,-1 h 3 v 1 h -3 m 6,-1 h 3 v 1 h -3 m 6,-1 h 3 v 1 h -3 m 6,-1 h 3 v 1 h -3 m 6,-1 h 3 v 1 h -3 m 6,-1 h 3 v 1 h -3 m 6,-1 h 3 v 1 h -3 m 6,-1 h 3 v 1 h -3 m 6,-1 h 3 v 1 h -3 m 6,-1 h 3 v 1 h -3 m 6,-1 h 3 v 1 h -3 m 6,-1 h 3 v 1 h -3 m 6,-1 h 3 v 1 h -3 m 6,-1 h 3 v 1 h -3 m 6,-1 h 3 v 1 h -3 m 6,-1 h 3 v 1 h -3 m 6,-1 h 3 v 1 h -3 m 6,-1 h 3 v 1 h -3 m 6,-1 h 3 v 1 h -3"
       style="fill:#000000;fill-opacity:1;fill-rule:nonzero;stroke:none"
       transform="matrix(0.9522727,0,0,0.9522727,-2625.3196,-1168.3431)"
       clip-path="url(#clipPath62)" />
    <text
       id="text62"
       xml:space="preserve"
       transform="matrix(0.9522727,0,0,0.9522727,258.5638,257.68519)"
       clip-path="url(#clipPath63)"><tspan
         id="tspan62"
         style="font-variant:normal;font-weight:normal;font-size:16px;font-family:Arial;writing-mode:lr-tb;fill:#000000;fill-opacity:1;fill-rule:nonzero;stroke:none"
         x="0"
         y="0">«performer»</tspan></text>
    <text
       id="text63"
       xml:space="preserve"
       transform="matrix(0.9522727,0,0,0.9522727,261.09322,275.77837)"
       clip-path="url(#clipPath64)"><tspan
         id="tspan63"
         style="font-variant:normal;font-weight:normal;font-size:16px;font-family:Arial;writing-mode:lr-tb;fill:#000000;fill-opacity:1;fill-rule:nonzero;stroke:none"
         x="0"
         y="0">part0::part2</tspan></text>
    <text
       id="text64"
       xml:space="preserve"
       transform="matrix(0.9522727,0,0,0.9522727,261.64383,297.68064)"
       clip-path="url(#clipPath65)"><tspan
         id="tspan64"
         style="font-style:italic;font-variant:normal;font-weight:normal;font-size:12px;font-family:Arial;writing-mode:lr-tb;fill:#000000;fill-opacity:1;fill-rule:nonzero;stroke:none"
         x="0"
         y="0">perform actions</tspan></text>
    <path
       id="path66"
       d="m 3037.6599,1559.5 h 75.24 c 0.6628,0 1.3005,0.1268 1.9131,0.3804 0.6125,0.2538 1.1531,0.6151 1.6221,1.084 0.4687,0.4687 0.83,1.0094 1.0839,1.6219 0.2537,0.6127 0.3807,1.2505 0.3809,1.9137 v 36.5 c -2e-4,0.663 -0.1272,1.3007 -0.3809,1.9131 -0.2539,0.6127 -0.6152,1.1534 -1.0839,1.6223 -0.469,0.4688 -1.0096,0.83 -1.6221,1.0837 -0.6126,0.2538 -1.2503,0.3808 -1.9131,0.3809 h -75.24 c -0.6633,-10e-5 -1.3013,-0.1271 -1.9138,-0.3809 -0.6126,-0.2537 -1.1531,-0.6149 -1.6218,-1.0837 -0.469,-0.4689 -0.8304,-1.0095 -1.084,-1.6222 -0.2537,-0.6125 -0.3806,-1.2502 -0.3804,-1.9132 v -36.5 c -2e-4,-0.6632 0.1265,-1.301 0.3801,-1.9136 0.2537,-0.6126 0.6153,-1.1533 1.0843,-1.622 0.4687,-0.4689 1.0095,-0.8302 1.622,-1.0839 0.6126,-0.2537 1.2503,-0.3805 1.9136,-0.3805 z"
       style="fill:#ffffff;fill-opacity:1;fill-rule:nonzero;stroke:#000000;stroke-width:1;stroke-linecap:butt;stroke-linejoin:miter;stroke-miterlimit:10;stroke-dasharray:none;stroke-opacity:1"
       transform="matrix(0.9522727,0,0,0.9522727,-2625.3196,-1168.3431)"
       clip-path="url(#clipPath67)" />
    <text
       id="text67"
       xml:space="preserve"
       transform="matrix(0.9522727,0,0,0.9522727,274.1126,334.81928)"
       clip-path="url(#clipPath68)"><tspan
         id="tspan67"
         style="font-variant:normal;font-weight:normal;font-size:16px;font-family:Arial;writing-mode:lr-tb;fill:#000000;fill-opacity:1;fill-rule:nonzero;stroke:none"
         x="0"
         y="0">«action»</tspan></text>
    <text
       id="text68"
       xml:space="preserve"
       transform="matrix(0.9522727,0,0,0.9522727,278.35317,353.86473)"
       clip-path="url(#clipPath69)"><tspan
         id="tspan68"
         style="font-variant:normal;font-weight:normal;font-size:16px;font-family:Arial;writing-mode:lr-tb;fill:#000000;fill-opacity:1;fill-rule:nonzero;stroke:none"
         x="0"
         y="0">action2</tspan></text>
    <path
       id="path70"
       d="m 3037.6599,1629.5 h 75.24 c 0.6628,0 1.3005,0.1268 1.9131,0.3805 0.6125,0.2538 1.1531,0.615 1.6221,1.0839 0.4687,0.4687 0.83,1.0094 1.0839,1.622 0.2537,0.6126 0.3807,1.2504 0.3809,1.9136 v 36.5 c -2e-4,0.663 -0.1272,1.3007 -0.3809,1.9133 -0.2539,0.6125 -0.6152,1.1532 -1.0839,1.6221 -0.469,0.4689 -1.0096,0.8301 -1.6221,1.0837 -0.6126,0.2538 -1.2503,0.3808 -1.9131,0.3809 h -75.24 c -0.6633,-10e-5 -1.3013,-0.1272 -1.9138,-0.381 -0.6126,-0.2535 -1.1531,-0.6147 -1.6218,-1.0836 -0.469,-0.4689 -0.8304,-1.0096 -1.084,-1.6221 -0.2537,-0.6126 -0.3806,-1.2503 -0.3804,-1.9133 v -36.5 c -2e-4,-0.6632 0.1265,-1.301 0.3801,-1.9137 0.2537,-0.6125 0.6153,-1.1532 1.0843,-1.6219 0.4687,-0.4689 1.0095,-0.8302 1.622,-1.084 0.6126,-0.2536 1.2503,-0.3804 1.9136,-0.3804 z"
       style="fill:#ffffff;fill-opacity:1;fill-rule:nonzero;stroke:#000000;stroke-width:1;stroke-linecap:butt;stroke-linejoin:miter;stroke-miterlimit:10;stroke-dasharray:none;stroke-opacity:1"
       transform="matrix(0.9522727,0,0,0.9522727,-2625.3196,-1168.3431)"
       clip-path="url(#clipPath71)" />
    <text
       id="text71"
       xml:space="preserve"
       transform="matrix(0.9522727,0,0,0.9522727,274.1126,401.47836)"
       clip-path="url(#clipPath72)"><tspan
         id="tspan71"
         style="font-variant:normal;font-weight:normal;font-size:16px;font-family:Arial;writing-mode:lr-tb;fill:#000000;fill-opacity:1;fill-rule:nonzero;stroke:none"
         x="0"
         y="0">«action»</tspan></text>
    <text
       id="text72"
       xml:space="preserve"
       transform="matrix(0.9522727,0,0,0.9522727,278.35317,420.52382)"
       clip-path="url(#clipPath73)"><tspan
         id="tspan72"
         style="font-variant:normal;font-weight:normal;font-size:16px;font-family:Arial;writing-mode:lr-tb;fill:#000000;fill-opacity:1;fill-rule:nonzero;stroke:none"
         x="0"
         y="0">action3</tspan></text>
    <path
       id="path74"
       d="m 3075.8,1606 v 3 h -1 v -3 z m 0,6 v 3 h -1 v -3 z m 0,6 v 3 h -1 v -3 z m 0,6 v 2 l -0.01,1.004 -1,-0.01 0.01,-0.996 v -2 h 1 z"
       style="fill:#000000;fill-opacity:1;fill-rule:nonzero;stroke:none"
       transform="matrix(0.9522727,0,0,0.9522727,-2625.3196,-1168.3431)"
       clip-path="url(#clipPath75)" />
    <path
       id="path76"
       d="m 3070.8401,1619.36 4.4499,9.02 4.5501,-8.97"
       style="fill:none;stroke:#000000;stroke-width:1;stroke-linecap:butt;stroke-linejoin:miter;stroke-miterlimit:10;stroke-dasharray:none;stroke-opacity:1"
       transform="matrix(0.9522727,0,0,0.9522727,-2625.3196,-1168.3431)"
       clip-path="url(#clipPath77)" />
    <path
       id="path78"
       d="m 2964.3208,1582.25 h 3 v 1 h -3 z m 6,0.01 h 3 v 1 h -3 z m 6,0.01 h 3 v 1 h -3 z m 6,0.01 h 3 v 1 h -3 z m 6,0.01 h 3 v 1 h -3 z m 6,0.01 h 3 v 1 h -3 z m 5.9993,0.01 h 3 v 1 h -3 z m 6,0 h 3 v 1 h -3 z m 6,0 h 3 v 1 h -3 z m 6,0 h 3 v 1 h -3 z m 6,0 h 3 v 1 h -3 z m 6,0 h 0.1 v 1 h -0.1 z"
       style="fill:#000000;fill-opacity:1;fill-rule:nonzero;stroke:none"
       transform="matrix(0.9522727,0,0,0.9522727,-2625.3196,-1168.3431)"
       clip-path="url(#clipPath79)" />
    <path
       id="path80"
       d="m 3022.54,1587.3001 9,-4.5 -9,-4.5"
       style="fill:none;stroke:#000000;stroke-width:1;stroke-linecap:butt;stroke-linejoin:miter;stroke-miterlimit:10;stroke-dasharray:none;stroke-opacity:1"
       transform="matrix(0.9522727,0,0,0.9522727,-2625.3196,-1168.3431)"
       clip-path="url(#clipPath81)" />
    <path
       id="path82"
       d="m 3032.6599,1653.3001 h -3 v -1 h 3 z m -6,0 h -3 v -1 h 3 z m -6,0 h -3 v -1 h 3 z m -6,0 h -3 v -1 h 3 z m -6,0 h -3 v -1 h 3 z m -6,0 h -3 v -1 h 3 z m -6.0007,0 h -3 v -1 h 3 z m -6,-0.01 h -3 v -1 h 3 z m -6,-0.01 h -3 v -1 h 3 z m -6,-0.01 h -3 v -1 h 3 z m -6,-0.01 h -3 v -1 h 3 z m -6,-0.01 -0.1,-10e-5 v -1 l 0.1,10e-5 z"
       style="fill:#000000;fill-opacity:1;fill-rule:nonzero;stroke:none"
       transform="matrix(0.9522727,0,0,0.9522727,-2625.3196,-1168.3431)"
       clip-path="url(#clipPath83)" />
    <path
       id="path84"
       d="m 2974.4399,1648.26 -9,4.49 8.99,4.51"
       style="fill:none;stroke:#000000;stroke-width:1;stroke-linecap:butt;stroke-linejoin:miter;stroke-miterlimit:10;stroke-dasharray:none;stroke-opacity:1"
       transform="matrix(0.9522727,0,0,0.9522727,-2625.3196,-1168.3431)"
       clip-path="url(#clipPath85)" />
    <text
       id="text85"
       xml:space="preserve"
       transform="matrix(0.9522727,0,0,0.9522727,168.3211,168.17155)"
       clip-path="url(#clipPath86)"><tspan
         id="tspan85"
         style="font-style:italic;font-variant:normal;font-weight:normal;font-size:12px;font-family:Arial;writing-mode:lr-tb;fill:#000000;fill-opacity:1;fill-rule:nonzero;stroke:none"
         x="0"
         y="0">perform actions</tspan></text>
    <path
       id="path87"
       d="m 2780,1390 h 390"
       style="fill:none;stroke:#000000;stroke-width:1;stroke-linecap:butt;stroke-linejoin:miter;stroke-miterlimit:10;stroke-dasharray:none;stroke-opacity:1"
       transform="matrix(0.9522727,0,0,0.9522727,-2625.3196,-1168.3431)"
       clip-path="url(#clipPath88)" />
    <text
       id="text88"
       xml:space="preserve"
       transform="matrix(0.9522727,0,0,0.9522727,23.426815,120.55792)"
       clip-path="url(#clipPath89)"><tspan
         id="tspan88"
         style="font-variant:normal;font-weight:normal;font-size:12px;font-family:Arial;writing-mode:lr-tb;fill:#000000;fill-opacity:1;fill-rule:nonzero;stroke:none"
         x="0"
         y="0">part1 : PartDef1</tspan></text>
    <text
       id="text89"
       xml:space="preserve"
       transform="matrix(0.9522727,0,0,0.9522727,23.426815,139.60337)"
       clip-path="url(#clipPath90)"><tspan
         id="tspan89"
         style="font-variant:normal;font-weight:normal;font-size:12px;font-family:Arial;writing-mode:lr-tb;fill:#000000;fill-opacity:1;fill-rule:nonzero;stroke:none"
         x="0"
         y="0">part2 : PartDef2</tspan></text>
    <path
       id="path91"
       d="m 2765,1230.25 h 265 v 15 c 0,2.76 -2.24,5 -5,5 h -265 v -15 c 0,-2.76 2.24,-5 5,-5 z"
       style="fill:url(#linearGradient92);fill-opacity:1;fill-rule:nonzero;stroke:#000000;stroke-width:1;stroke-linecap:butt;stroke-linejoin:miter;stroke-miterlimit:10;stroke-dasharray:none;stroke-opacity:1"
       transform="matrix(0.9522727,0,0,0.9522727,-2625.3196,-1168.3431)"
       clip-path="url(#clipPath92)" />
    <text
       id="text92"
       xml:space="preserve"
       transform="translate(4.3761321,16.993215)"
       clip-path="url(#clipPath93)"><tspan
         id="tspan92"
         style="font-variant:normal;font-weight:normal;font-size:11.42px;font-family:Arial;writing-mode:lr-tb;fill:#000000;fill-opacity:1;fill-rule:nonzero;stroke:none"
         x="0"
         dx="0 0 0 0 0 0 0 0 0 0 0 0 0 0 0 0 0 0 0 0 0 0 0 -0.20631479 0 0 0 0 0 0 -0.63011724 0 0 0 0 0 0 0 0 0 0 -0.20631479"
         y="0">«view» part0ActionFlowView1 : ActionFlowView</tspan></text>
  </g>
</svg>
