<?xml version="1.0" encoding="UTF-8" standalone="no"?>
<!-- Created with Inkscape (http://www.inkscape.org/) -->

<svg
   version="1.1"
   id="svg1"
   width="224"
   height="453.44"
   viewBox="0 0 224 453.44"
   xmlns="http://www.w3.org/2000/svg"
   xmlns:svg="http://www.w3.org/2000/svg">
  <defs
     id="defs1">
    <clipPath
       clipPathUnits="userSpaceOnUse"
       id="clipPath2">
      <path
         d="M 0,0 H 699.02344 V 1416.0156 H 0 Z"
         transform="scale(0.31999999)"
         clip-rule="evenodd"
         id="path2" />
    </clipPath>
    <clipPath
       clipPathUnits="userSpaceOnUse"
       id="clipPath4">
      <path
         d="m 3.125,6.25 h 693.75 V 1409.375 H 3.125 Z"
         transform="matrix(0.3384088,0,0,0.3384088,1316.8812,6795.827)"
         clip-rule="evenodd"
         id="path4" />
    </clipPath>
    <clipPath
       clipPathUnits="userSpaceOnUse"
       id="clipPath6">
      <path
         d="m 3.125,6.25 h 693.75 V 1409.375 H 3.125 Z"
         transform="matrix(0.3384088,0,0,0.3384088,1316.8812,6795.827)"
         clip-rule="evenodd"
         id="path6" />
    </clipPath>
    <clipPath
       clipPathUnits="userSpaceOnUse"
       id="clipPath8">
      <path
         d="m 3.125,6.25 h 693.75 V 1409.375 H 3.125 Z"
         transform="matrix(0.3384088,0,0,0.3384088,1316.8812,6795.827)"
         clip-rule="evenodd"
         id="path8" />
    </clipPath>
    <clipPath
       clipPathUnits="userSpaceOnUse"
       id="clipPath9">
      <path
         d="m 3.125,6.25 h 693.75 V 1409.375 H 3.125 Z"
         transform="matrix(0.3384088,0,0,0.3384088,-87.86884,-25.67313)"
         clip-rule="evenodd"
         id="path9" />
    </clipPath>
    <clipPath
       clipPathUnits="userSpaceOnUse"
       id="clipPath10">
      <path
         d="m 3.125,6.25 h 693.75 V 1409.375 H 3.125 Z"
         transform="matrix(0.3384088,0,0,0.3384088,-58.52509,-44.67313)"
         clip-rule="evenodd"
         id="path10" />
    </clipPath>
    <clipPath
       clipPathUnits="userSpaceOnUse"
       id="clipPath11">
      <path
         d="m 273.68896,167.4707 h 147.75049 v 44.32422 H 273.68896 Z"
         transform="matrix(0.3384088,0,0,0.3384088,-92.93134,-67.67313)"
         clip-rule="evenodd"
         id="path11" />
    </clipPath>
    <clipPath
       clipPathUnits="userSpaceOnUse"
       id="clipPath12">
      <path
         d="m 25.46875,226.57031 h 156.61523 v 44.32422 H 25.46875 Z"
         transform="matrix(0.3384088,0,0,0.3384088,-8.6188401,-87.67313)"
         clip-rule="evenodd"
         id="path12" />
    </clipPath>
    <clipPath
       clipPathUnits="userSpaceOnUse"
       id="clipPath13">
      <path
         d="m 25.46875,285.66992 h 354.60059 v 44.32422 H 25.46875 Z"
         transform="matrix(0.3384088,0,0,0.3384088,-8.6188401,-107.67313)"
         clip-rule="evenodd"
         id="path13" />
    </clipPath>
    <clipPath
       clipPathUnits="userSpaceOnUse"
       id="clipPath14">
      <path
         d="M 25.46875,344.76953 H 182.08398 V 389.0957 H 25.46875 Z"
         transform="matrix(0.3384088,0,0,0.3384088,-8.6188401,-127.67313)"
         clip-rule="evenodd"
         id="path14" />
    </clipPath>
    <clipPath
       clipPathUnits="userSpaceOnUse"
       id="clipPath16">
      <path
         d="m 3.125,6.25 h 693.75 V 1409.375 H 3.125 Z"
         transform="matrix(0.3384088,0,0,0.3384088,1316.8812,6795.827)"
         clip-rule="evenodd"
         id="path16" />
    </clipPath>
    <clipPath
       clipPathUnits="userSpaceOnUse"
       id="clipPath17">
      <path
         d="M 19.558594,406.82617 H 675.56982 v 59.09961 H 19.558594 Z"
         transform="matrix(0.31999999,0,0,0.31999999,-84.422514,-144.36487)"
         clip-rule="evenodd"
         id="path17" />
    </clipPath>
    <clipPath
       clipPathUnits="userSpaceOnUse"
       id="clipPath19">
      <path
         d="m 3.125,6.25 h 693.75 V 1409.375 H 3.125 Z"
         transform="matrix(0.3384088,0,0,0.3384088,1316.8812,6795.827)"
         clip-rule="evenodd"
         id="path19" />
    </clipPath>
    <clipPath
       clipPathUnits="userSpaceOnUse"
       id="clipPath21">
      <path
         d="m 3.125,6.25 h 693.75 V 1409.375 H 3.125 Z"
         transform="matrix(0.3384088,0,0,0.3384088,1316.8812,6795.827)"
         clip-rule="evenodd"
         id="path21" />
    </clipPath>
    <clipPath
       clipPathUnits="userSpaceOnUse"
       id="clipPath23">
      <path
         d="m 3.125,6.25 h 693.75 V 1409.375 H 3.125 Z"
         transform="matrix(0.3384088,0,0,0.3384088,1316.8812,6795.827)"
         clip-rule="evenodd"
         id="path23" />
    </clipPath>
    <clipPath
       clipPathUnits="userSpaceOnUse"
       id="clipPath24">
      <path
         d="m 3.125,6.25 h 693.75 V 1409.375 H 3.125 Z"
         transform="matrix(0.3384088,0,0,0.3384088,-86.10322,-213.67313)"
         clip-rule="evenodd"
         id="path24" />
    </clipPath>
    <clipPath
       clipPathUnits="userSpaceOnUse"
       id="clipPath25">
      <path
         d="m 3.125,6.25 h 693.75 V 1409.375 H 3.125 Z"
         transform="matrix(0.3384088,0,0,0.3384088,-98.33759,-233.67313)"
         clip-rule="evenodd"
         id="path25" />
    </clipPath>
    <clipPath
       clipPathUnits="userSpaceOnUse"
       id="clipPath27">
      <path
         d="m 3.125,6.25 h 693.75 V 1409.375 H 3.125 Z"
         transform="matrix(0.3384088,0,0,0.3384088,1316.8812,6795.827)"
         clip-rule="evenodd"
         id="path27" />
    </clipPath>
    <clipPath
       clipPathUnits="userSpaceOnUse"
       id="clipPath29">
      <path
         d="m 3.125,6.25 h 693.75 V 1409.375 H 3.125 Z"
         transform="matrix(0.3384088,0,0,0.3384088,1316.8812,6795.827)"
         clip-rule="evenodd"
         id="path29" />
    </clipPath>
    <clipPath
       clipPathUnits="userSpaceOnUse"
       id="clipPath31">
      <path
         d="m 3.125,6.25 h 693.75 V 1409.375 H 3.125 Z"
         transform="matrix(0.3384088,0,0,0.3384088,1316.8812,6795.827)"
         clip-rule="evenodd"
         id="path31" />
    </clipPath>
    <clipPath
       clipPathUnits="userSpaceOnUse"
       id="clipPath33">
      <path
         d="m 3.125,6.25 h 693.75 V 1409.375 H 3.125 Z"
         transform="matrix(0.3384088,0,0,0.3384088,1316.8812,6795.827)"
         clip-rule="evenodd"
         id="path33" />
    </clipPath>
    <clipPath
       clipPathUnits="userSpaceOnUse"
       id="clipPath35">
      <path
         d="m 3.125,6.25 h 693.75 V 1409.375 H 3.125 Z"
         transform="matrix(0.3384088,0,0,0.3384088,1316.8812,6795.827)"
         clip-rule="evenodd"
         id="path35" />
    </clipPath>
    <clipPath
       clipPathUnits="userSpaceOnUse"
       id="clipPath37">
      <path
         d="m 3.125,6.25 h 693.75 V 1409.375 H 3.125 Z"
         transform="matrix(0.3384088,0,0,0.3384088,1316.8812,6795.827)"
         clip-rule="evenodd"
         id="path37" />
    </clipPath>
    <clipPath
       clipPathUnits="userSpaceOnUse"
       id="clipPath39">
      <path
         d="m 3.125,6.25 h 693.75 V 1409.375 H 3.125 Z"
         transform="matrix(0.3384088,0,0,0.3384088,1316.8812,6795.827)"
         clip-rule="evenodd"
         id="path39" />
    </clipPath>
    <clipPath
       clipPathUnits="userSpaceOnUse"
       id="clipPath41">
      <path
         d="m 3.125,6.25 h 693.75 V 1409.375 H 3.125 Z"
         transform="matrix(0.3384088,0,0,0.3384088,1316.8812,6795.827)"
         clip-rule="evenodd"
         id="path41" />
    </clipPath>
    <clipPath
       clipPathUnits="userSpaceOnUse"
       id="clipPath43">
      <path
         d="m 3.125,6.25 h 693.75 V 1409.375 H 3.125 Z"
         transform="matrix(0.3384088,0,0,0.3384088,1316.8812,6795.827)"
         clip-rule="evenodd"
         id="path43" />
    </clipPath>
    <clipPath
       clipPathUnits="userSpaceOnUse"
       id="clipPath45">
      <path
         d="m 3.125,6.25 h 693.75 V 1409.375 H 3.125 Z"
         transform="matrix(0.3384088,0,0,0.3384088,1316.8812,6795.827)"
         clip-rule="evenodd"
         id="path45" />
    </clipPath>
    <clipPath
       clipPathUnits="userSpaceOnUse"
       id="clipPath46">
      <path
         d="m 3.125,6.25 h 693.75 V 1409.375 H 3.125 Z"
         transform="matrix(0.3384088,0,0,0.3384088,-95.10322,-281.67313)"
         clip-rule="evenodd"
         id="path46" />
    </clipPath>
    <clipPath
       clipPathUnits="userSpaceOnUse"
       id="clipPath47">
      <path
         d="m 3.125,6.25 h 693.75 V 1409.375 H 3.125 Z"
         transform="matrix(0.3384088,0,0,0.3384088,-99.54072,-300.67313)"
         clip-rule="evenodd"
         id="path47" />
    </clipPath>
    <clipPath
       clipPathUnits="userSpaceOnUse"
       id="clipPath48">
      <path
         d="M 273.68896,920.99609 H 427.3496 v 44.32617 H 273.68896 Z"
         transform="matrix(0.3384088,0,0,0.3384088,-92.58759,-322.67313)"
         clip-rule="evenodd"
         id="path48" />
    </clipPath>
    <clipPath
       clipPathUnits="userSpaceOnUse"
       id="clipPath49">
      <path
         d="M 87.523682,977.14063 H 329.83447 v 44.32617 H 87.523682 Z"
         transform="matrix(0.3384088,0,0,0.3384088,-29.61884,-341.67313)"
         clip-rule="evenodd"
         id="path49" />
    </clipPath>
    <clipPath
       clipPathUnits="userSpaceOnUse"
       id="clipPath50">
      <path
         d="M 87.523682,977.14063 H 329.83447 v 44.32617 H 87.523682 Z"
         transform="matrix(0.3384088,0,0,0.3384088,-67.63447,-341.67313)"
         clip-rule="evenodd"
         id="path50" />
    </clipPath>
    <clipPath
       clipPathUnits="userSpaceOnUse"
       id="clipPath51">
      <path
         d="M 87.523682,1033.2871 H 557.36963 v 44.3242 H 87.523682 Z"
         transform="matrix(0.3384088,0,0,0.3384088,-29.61884,-360.67313)"
         clip-rule="evenodd"
         id="path51" />
    </clipPath>
    <clipPath
       clipPathUnits="userSpaceOnUse"
       id="clipPath52">
      <path
         d="M 87.523682,1033.2871 H 557.36963 v 44.3242 H 87.523682 Z"
         transform="matrix(0.3384088,0,0,0.3384088,-54.96259,-360.67313)"
         clip-rule="evenodd"
         id="path52" />
    </clipPath>
    <clipPath
       clipPathUnits="userSpaceOnUse"
       id="clipPath53">
      <path
         d="M 87.523682,1033.2871 H 557.36963 v 44.3242 H 87.523682 Z"
         transform="matrix(0.3384088,0,0,0.3384088,-58.30634,-360.67313)"
         clip-rule="evenodd"
         id="path53" />
    </clipPath>
    <clipPath
       clipPathUnits="userSpaceOnUse"
       id="clipPath54">
      <path
         d="M 87.523682,1033.2871 H 557.36963 v 44.3242 H 87.523682 Z"
         transform="matrix(0.3384088,0,0,0.3384088,-96.32197,-360.67313)"
         clip-rule="evenodd"
         id="path54" />
    </clipPath>
    <clipPath
       clipPathUnits="userSpaceOnUse"
       id="clipPath56">
      <path
         d="m 3.125,6.25 h 693.75 V 1409.375 H 3.125 Z"
         transform="matrix(0.3384088,0,0,0.3384088,1316.8812,6795.827)"
         clip-rule="evenodd"
         id="path56" />
    </clipPath>
    <clipPath
       clipPathUnits="userSpaceOnUse"
       id="clipPath57">
      <path
         d="m 81.61377,1092.3867 h 537.81104 v 56.1446 H 81.61377 Z"
         transform="matrix(0.31999999,0,0,0.31999999,-77.000635,-363.30236)"
         clip-rule="evenodd"
         id="path57" />
    </clipPath>
    <clipPath
       clipPathUnits="userSpaceOnUse"
       id="clipPath58">
      <path
         d="M 87.523682,1154.4414 H 205.72412 v 44.3262 H 87.523682 Z"
         transform="matrix(0.3384088,0,0,0.3384088,-29.61884,-401.67312)"
         clip-rule="evenodd"
         id="path58" />
    </clipPath>
    <clipPath
       clipPathUnits="userSpaceOnUse"
       id="clipPath59">
      <path
         d="m 25.46875,1349.4727 h 8.86499 v 44.3242 h -8.86499 z"
         transform="matrix(0.3384088,0,0,0.3384088,-8.6188401,-467.67313)"
         clip-rule="evenodd"
         id="path59" />
    </clipPath>
  </defs>
  <g
     id="g1">
    <path
       id="path1"
       d="M 0,0 H 224 V 453 H 0 Z"
       style="fill:#ffffff;fill-opacity:1;fill-rule:nonzero;stroke:none"
       clip-path="url(#clipPath2)" />
    <path
       id="path3"
       d="m 1550,6850 v -45 c 0,-3.3335 -1.6666,-5 -5,-5 h -220 c -3.3334,0 -5,1.6665 -5,5 v 45"
       style="fill:none;stroke:#000000;stroke-width:1;stroke-linecap:butt;stroke-linejoin:miter;stroke-miterlimit:10;stroke-dasharray:none;stroke-opacity:1"
       transform="matrix(0.94560185,0,0,0.94560185,-1245.2453,-6426.1466)"
       clip-path="url(#clipPath4)" />
    <path
       id="path5"
       d="m 1320,6850 v 415 c 0,3.3335 1.6666,5 5,5 h 220 c 3.3334,0 5,-1.6665 5,-5 v -415"
       style="fill:none;stroke:#000000;stroke-width:1;stroke-linecap:butt;stroke-linejoin:miter;stroke-miterlimit:10;stroke-dasharray:none;stroke-opacity:1"
       transform="matrix(0.94560185,0,0,0.94560185,-1245.2453,-6426.1466)"
       clip-path="url(#clipPath6)" />
    <path
       id="path7"
       d="m 1320,6850 h 230"
       style="fill:none;stroke:#000000;stroke-width:1;stroke-linecap:butt;stroke-linejoin:miter;stroke-miterlimit:10;stroke-dasharray:none;stroke-opacity:1"
       transform="matrix(0.94560185,0,0,0.94560185,-1245.2453,-6426.1466)"
       clip-path="url(#clipPath8)" />
    <text
       id="text8"
       xml:space="preserve"
       transform="matrix(0.94560185,0,0,0.94560185,83.088938,24.276559)"
       clip-path="url(#clipPath9)"><tspan
         id="tspan8"
         style="font-variant:normal;font-weight:normal;font-size:16px;font-family:Arial;writing-mode:lr-tb;fill:#000000;fill-opacity:1;fill-rule:nonzero;stroke:none"
         x="0"
         y="0">«action»</tspan></text>
    <text
       id="text9"
       xml:space="preserve"
       transform="matrix(0.94560185,0,0,0.94560185,55.341433,42.242994)"
       clip-path="url(#clipPath10)"><tspan
         id="tspan9"
         style="font-variant:normal;font-weight:normal;font-size:16px;font-family:Arial;writing-mode:lr-tb;fill:#000000;fill-opacity:1;fill-rule:nonzero;stroke:none"
         x="0"
         y="0">actionWithLoop1</tspan></text>
    <text
       id="text10"
       xml:space="preserve"
       transform="matrix(0.94560185,0,0,0.94560185,87.876047,63.991837)"
       clip-path="url(#clipPath11)"><tspan
         id="tspan10"
         style="font-style:italic;font-variant:normal;font-weight:normal;font-size:12px;font-family:Arial;writing-mode:lr-tb;fill:#000000;fill-opacity:1;fill-rule:nonzero;stroke:none"
         x="0"
         y="0">attributes</tspan></text>
    <text
       id="text11"
       xml:space="preserve"
       transform="matrix(0.94560185,0,0,0.94560185,8.1499911,82.903874)"
       clip-path="url(#clipPath12)"><tspan
         id="tspan11"
         style="font-variant:normal;font-weight:normal;font-size:12px;font-family:Arial;writing-mode:lr-tb;fill:#000000;fill-opacity:1;fill-rule:nonzero;stroke:none"
         x="0"
         y="0">x : Integer</tspan></text>
    <text
       id="text12"
       xml:space="preserve"
       transform="matrix(0.94560185,0,0,0.94560185,8.1499911,101.81591)"
       clip-path="url(#clipPath13)"><tspan
         id="tspan12"
         style="font-variant:normal;font-weight:normal;font-size:12px;font-family:Arial;writing-mode:lr-tb;fill:#000000;fill-opacity:1;fill-rule:nonzero;stroke:none"
         x="0"
         y="0">increment : Integer = 1</tspan></text>
    <text
       id="text13"
       xml:space="preserve"
       transform="matrix(0.94560185,0,0,0.94560185,8.1499911,120.72795)"
       clip-path="url(#clipPath14)"><tspan
         id="tspan13"
         style="font-variant:normal;font-weight:normal;font-size:12px;font-family:Arial;writing-mode:lr-tb;fill:#000000;fill-opacity:1;fill-rule:nonzero;stroke:none"
         x="0"
         y="0">y : Integer</tspan></text>
    <path
       id="path15"
       d="m 1320,6932 h 230"
       style="fill:none;stroke:#000000;stroke-width:1;stroke-linecap:butt;stroke-linejoin:miter;stroke-miterlimit:10;stroke-dasharray:none;stroke-opacity:1"
       transform="matrix(0.94560185,0,0,0.94560185,-1245.2453,-6426.1466)"
       clip-path="url(#clipPath16)" />
    <text
       id="text16"
       xml:space="preserve"
       transform="translate(84.422514,144.36487)"
       clip-path="url(#clipPath17)"><tspan
         id="tspan16"
         style="font-style:italic;font-variant:normal;font-weight:normal;font-size:11.34px;font-family:Arial;writing-mode:lr-tb;fill:#000000;fill-opacity:1;fill-rule:nonzero;stroke:none"
         x="0"
         y="0">action flow</tspan></text>
    <path
       id="path18"
       d="m 1444.5,7237 c -10e-5,0.5903 -0.058,1.1753 -0.1732,1.7549 -0.1151,0.5796 -0.2859,1.1421 -0.5121,1.688 -0.2262,0.5459 -0.5034,1.0644 -0.8317,1.5556 -0.3282,0.4917 -0.7013,0.9463 -1.1191,1.3648 -0.4179,0.418 -0.8726,0.791 -1.3639,1.1191 -0.4913,0.3281 -1.01,0.6055 -1.5559,0.8316 -0.546,0.226 -1.1088,0.3969 -1.6884,0.5127 -0.5795,0.1152 -1.1648,0.1728 -1.7557,0.1733 -0.5909,-5e-4 -1.1763,-0.058 -1.756,-0.1733 -0.5796,-0.1158 -1.1423,-0.2867 -1.6883,-0.5127 -0.5461,-0.2261 -1.0647,-0.5035 -1.5561,-0.8321 -0.4913,-0.3276 -0.9459,-0.7006 -1.3637,-1.1186 -0.4179,-0.4185 -0.791,-0.8731 -1.1193,-1.3648 -0.3284,-0.4912 -0.6056,-1.0097 -0.8318,-1.5556 -0.2261,-0.5459 -0.3967,-1.1084 -0.5119,-1.688 -0.1154,-0.5796 -0.173,-1.1646 -0.1729,-1.7549 -10e-5,-0.5913 0.057,-1.1768 0.1729,-1.7568 0.1152,-0.5796 0.2858,-1.1421 0.5119,-1.688 0.2262,-0.5459 0.5034,-1.0645 0.8318,-1.5562 0.3283,-0.4912 0.7014,-0.9458 1.1193,-1.3633 0.4178,-0.4179 0.8724,-0.791 1.3637,-1.1196 0.4914,-0.3281 1.01,-0.6055 1.5561,-0.8315 0.546,-0.2261 1.1087,-0.3965 1.6883,-0.5117 0.5797,-0.1153 1.1651,-0.1729 1.756,-0.1729 0.5909,0 1.1762,0.058 1.7557,0.1729 0.5796,0.1152 1.1424,0.2856 1.6884,0.5117 0.5459,0.226 1.0644,0.5034 1.5558,0.8315 0.4914,0.3286 0.9461,0.7017 1.364,1.1196 0.4178,0.4175 0.7909,0.8721 1.1193,1.3633 0.3282,0.4917 0.6053,1.0103 0.8315,1.5562 0.2262,0.5459 0.397,1.1084 0.5122,1.688 0.1154,0.58 0.173,1.1655 0.1731,1.7568 z"
       style="fill:#000000;fill-opacity:1;fill-rule:nonzero;stroke:#000000;stroke-width:1;stroke-linecap:butt;stroke-linejoin:miter;stroke-miterlimit:10;stroke-dasharray:none;stroke-opacity:1"
       transform="matrix(0.94560185,0,0,0.94560185,-1245.2453,-6426.1466)"
       clip-path="url(#clipPath19)" />
    <path
       id="path20"
       d="m 1448.5,7237 c -10e-5,0.853 -0.083,1.6982 -0.25,2.5352 -0.1666,0.8369 -0.4133,1.6494 -0.7399,2.4379 -0.3266,0.7886 -0.727,1.5376 -1.2013,2.2476 -0.4742,0.71 -1.013,1.3667 -1.6165,1.9707 -0.6037,0.6035 -1.2603,1.1426 -1.9701,1.6167 -0.7097,0.4741 -1.4589,0.8745 -2.2475,1.2012 -0.7885,0.3266 -1.6014,0.5732 -2.4387,0.7402 -0.8371,0.1665 -1.6825,0.25 -2.536,0.2505 -0.8536,-5e-4 -1.6991,-0.084 -2.5364,-0.2505 -0.8371,-0.167 -1.65,-0.4136 -2.4386,-0.7402 -0.7887,-0.3267 -1.5378,-0.7271 -2.2475,-1.2012 -0.7099,-0.4741 -1.3665,-1.0132 -1.97,-1.6167 -0.6036,-0.604 -1.1427,-1.2607 -1.6169,-1.9707 -0.4743,-0.71 -0.8747,-1.459 -1.2012,-2.2476 -0.3267,-0.7885 -0.5733,-1.601 -0.7398,-2.4379 -0.1665,-0.837 -0.2497,-1.6822 -0.2496,-2.5352 -10e-5,-0.854 0.083,-1.6997 0.2496,-2.5371 0.1665,-0.8374 0.4131,-1.6504 0.7398,-2.439 0.3265,-0.7885 0.727,-1.5376 1.2013,-2.2475 0.4742,-0.7095 1.0132,-1.3662 1.6168,-1.9698 0.6035,-0.604 1.2601,-1.1425 1.9698,-1.6167 0.7099,-0.4741 1.459,-0.874 2.2477,-1.2006 0.7886,-0.3267 1.6015,-0.5733 2.4388,-0.7398 0.8371,-0.1665 1.6826,-0.2495 2.5362,-0.2495 0.8535,0 1.6989,0.083 2.536,0.2495 0.8373,0.1665 1.6502,0.4126 2.4387,0.7393 0.7886,0.3266 1.5378,0.727 2.2476,1.2011 0.7097,0.4742 1.3663,1.0127 1.97,1.6167 0.6035,0.6036 1.1423,1.2603 1.6165,1.9698 0.4743,0.7099 0.8747,1.459 1.2013,2.2475 0.3266,0.7886 0.5733,1.6016 0.7399,2.439 0.1666,0.8374 0.2499,1.6831 0.25,2.5371 z"
       style="fill:none;stroke:#000000;stroke-width:1;stroke-linecap:butt;stroke-linejoin:miter;stroke-miterlimit:10;stroke-dasharray:none;stroke-opacity:1"
       transform="matrix(0.94560185,0,0,0.94560185,-1245.2453,-6426.1466)"
       clip-path="url(#clipPath21)" />
    <path
       id="path22"
       d="m 1362.86,6994 h 144.29 c 0.6629,0 1.3006,0.1265 1.9131,0.3799 0.6126,0.2539 1.1533,0.6152 1.6222,1.084 0.4687,0.4687 0.8301,1.0092 1.0839,1.6215 0.2538,0.6128 0.3807,1.251 0.3808,1.9146 v 30 c -1e-4,0.6626 -0.127,1.3003 -0.3808,1.9131 -0.2538,0.6128 -0.6152,1.1533 -1.0839,1.6221 -0.4689,0.4682 -1.0096,0.8295 -1.6221,1.0835 -0.6126,0.2534 -1.2503,0.3808 -1.9132,0.3813 h -144.29 c -0.6632,-5e-4 -1.301,-0.1279 -1.9136,-0.3813 -0.6127,-0.254 -1.1533,-0.6153 -1.6221,-1.0835 -0.4688,-0.4688 -0.8302,-1.0093 -1.0839,-1.6221 -0.2538,-0.6128 -0.3805,-1.2505 -0.3804,-1.9131 v -30 c -10e-5,-0.6636 0.1266,-1.3018 0.3804,-1.9146 0.2537,-0.6123 0.6151,-1.1528 1.0839,-1.6215 0.4688,-0.4688 1.0094,-0.8301 1.6221,-1.084 0.6126,-0.2534 1.2504,-0.3799 1.9136,-0.3799 z"
       style="fill:#ffffff;fill-opacity:1;fill-rule:nonzero;stroke:#000000;stroke-width:1;stroke-linecap:butt;stroke-linejoin:miter;stroke-miterlimit:10;stroke-dasharray:none;stroke-opacity:1"
       transform="matrix(0.94560185,0,0,0.94560185,-1245.2453,-6426.1466)"
       clip-path="url(#clipPath23)" />
    <text
       id="text23"
       xml:space="preserve"
       transform="matrix(0.94560185,0,0,0.94560185,81.419364,202.04971)"
       clip-path="url(#clipPath24)"><tspan
         id="tspan23"
         style="font-variant:normal;font-weight:normal;font-size:16px;font-family:Arial;writing-mode:lr-tb;fill:#000000;fill-opacity:1;fill-rule:nonzero;stroke:none"
         x="0"
         y="0">«assign»</tspan></text>
    <text
       id="text24"
       xml:space="preserve"
       transform="matrix(0.94560185,0,0,0.94560185,92.988207,220.96174)"
       clip-path="url(#clipPath25)"><tspan
         id="tspan24"
         style="font-variant:normal;font-weight:normal;font-size:16px;font-family:Arial;writing-mode:lr-tb;fill:#000000;fill-opacity:1;fill-rule:nonzero;stroke:none"
         x="0"
         y="0">x := 1</tspan></text>
    <path
       id="path26"
       d="m 1435.5,6974 v 3 h -1 v -3 m 1,6 v 3 h -1 v -3 m 1,6 v 3 h -1 v -3"
       style="fill:#000000;fill-opacity:1;fill-rule:nonzero;stroke:none"
       transform="matrix(0.94560185,0,0,0.94560185,-1245.2453,-6426.1466)"
       clip-path="url(#clipPath27)" />
    <path
       id="path28"
       d="m 1430.5,6983.8799 4.5,9 4.5,-9"
       style="fill:none;stroke:#000000;stroke-width:1;stroke-linecap:butt;stroke-linejoin:miter;stroke-miterlimit:10;stroke-dasharray:none;stroke-opacity:1"
       transform="matrix(0.94560185,0,0,0.94560185,-1245.2453,-6426.1466)"
       clip-path="url(#clipPath29)" />
    <path
       id="path30"
       d="m 1445,6964 c -10e-5,0.6567 -0.064,1.3066 -0.1923,1.9507 -0.1281,0.644 -0.3178,1.269 -0.5692,1.8755 -0.2512,0.6069 -0.5592,1.1831 -0.9241,1.729 -0.3647,0.5459 -0.7792,1.0512 -1.2435,1.5156 -0.4642,0.4644 -0.9693,0.8784 -1.5152,1.2432 -0.5461,0.3647 -1.1225,0.6728 -1.729,0.9243 -0.6066,0.2514 -1.232,0.4409 -1.8759,0.5688 -0.6439,0.1284 -1.2942,0.1924 -1.9508,0.1929 -0.6566,-5e-4 -1.3069,-0.065 -1.9509,-0.1929 -0.6441,-0.1279 -1.2694,-0.3174 -1.876,-0.5688 -0.6067,-0.2515 -1.183,-0.5596 -1.729,-0.9243 -0.5459,-0.3648 -1.051,-0.7788 -1.5153,-1.2432 -0.4642,-0.4644 -0.8787,-0.9697 -1.2436,-1.5156 -0.3649,-0.5459 -0.6729,-1.1221 -0.9242,-1.729 -0.2514,-0.6065 -0.4409,-1.2315 -0.569,-1.8755 -0.128,-0.6441 -0.1921,-1.294 -0.192,-1.9507 -10e-5,-0.6567 0.064,-1.3071 0.192,-1.9512 0.1281,-0.644 0.3176,-1.2695 0.569,-1.8759 0.2513,-0.607 0.5593,-1.1836 0.9242,-1.7291 0.3649,-0.5463 0.7794,-1.0512 1.2436,-1.5151 0.4643,-0.4643 0.9694,-0.8789 1.5153,-1.2436 0.546,-0.3648 1.1223,-0.6729 1.729,-0.9244 0.6066,-0.2514 1.2319,-0.4409 1.876,-0.5683 0.644,-0.1284 1.2943,-0.1924 1.9509,-0.1924 0.6566,0 1.3069,0.064 1.9508,0.1924 0.6439,0.1274 1.2693,0.3169 1.8759,0.5683 0.6065,0.2515 1.1829,0.5596 1.729,0.9244 0.5459,0.3647 1.051,0.7793 1.5152,1.2436 0.4643,0.4639 0.8788,0.9688 1.2435,1.5147 0.3649,0.5459 0.6729,1.122 0.9241,1.729 0.2514,0.6069 0.4411,1.2319 0.5692,1.8759 0.1281,0.6441 0.1922,1.295 0.1923,1.9517 z"
       style="fill:#000000;fill-opacity:1;fill-rule:nonzero;stroke:#000000;stroke-width:1;stroke-linecap:butt;stroke-linejoin:miter;stroke-miterlimit:10;stroke-dasharray:none;stroke-opacity:1"
       transform="matrix(0.94560185,0,0,0.94560185,-1245.2453,-6426.1466)"
       clip-path="url(#clipPath31)" />
    <path
       id="path32"
       d="m 1435.4999,7033.9888 0.068,2.999 -0.9997,0.023 -0.068,-2.9991 m 1.1364,5.9761 0.068,2.999 -0.9997,0.023 -0.068,-2.999 m 1.1364,5.976 0.068,2.9991 -0.9997,0.022 -0.068,-2.999 m 1.1364,5.9756 0.04,1.7646 -0.9997,0.023 -0.04,-1.7647"
       style="fill:#000000;fill-opacity:1;fill-rule:nonzero;stroke:none"
       transform="matrix(0.94560185,0,0,0.94560185,-1245.2453,-6426.1466)"
       clip-path="url(#clipPath33)" />
    <path
       id="path34"
       d="m 1430.77,7045.9902 4.7,8.8897 4.3,-9.1001"
       style="fill:none;stroke:#000000;stroke-width:1;stroke-linecap:butt;stroke-linejoin:miter;stroke-miterlimit:10;stroke-dasharray:none;stroke-opacity:1"
       transform="matrix(0.94560185,0,0,0.94560185,-1245.2453,-6426.1466)"
       clip-path="url(#clipPath35)" />
    <path
       id="path36"
       d="m 1436,7203.3398 v 3 h -1 v -3 m 1,6 v 3 h -1 v -3 m 1,6 v 3 h -1 v -3 m 1,6 v 0.42 h -1 v -0.42"
       style="fill:#000000;fill-opacity:1;fill-rule:nonzero;stroke:none"
       transform="matrix(0.94560185,0,0,0.94560185,-1245.2453,-6426.1466)"
       clip-path="url(#clipPath37)" />
    <path
       id="path38"
       d="m 1431,7213.8799 4.5,9 4.5,-9"
       style="fill:none;stroke:#000000;stroke-width:1;stroke-linecap:butt;stroke-linejoin:miter;stroke-miterlimit:10;stroke-dasharray:none;stroke-opacity:1"
       transform="matrix(0.94560185,0,0,0.94560185,-1245.2453,-6426.1466)"
       clip-path="url(#clipPath39)" />
    <path
       id="path40"
       d="m 1530.5,7106 v -42.5 c 0,-5 -2.5,-7.5 -7.5,-7.5 h -175 c -5,0 -7.5,2.5 -7.5,7.5 v 42.5"
       style="fill:none;stroke:#000000;stroke-width:1;stroke-linecap:butt;stroke-linejoin:miter;stroke-miterlimit:10;stroke-dasharray:none;stroke-opacity:1"
       transform="matrix(0.94560185,0,0,0.94560185,-1245.2453,-6426.1466)"
       clip-path="url(#clipPath41)" />
    <path
       id="path42"
       d="m 1340.5,7106 v 89.8398 c 0,5 2.5,7.5 7.5,7.5 h 175 c 5,0 7.5,-2.5 7.5,-7.5 V 7106"
       style="fill:none;stroke:#000000;stroke-width:1;stroke-linecap:butt;stroke-linejoin:miter;stroke-miterlimit:10;stroke-dasharray:none;stroke-opacity:1"
       transform="matrix(0.94560185,0,0,0.94560185,-1245.2453,-6426.1466)"
       clip-path="url(#clipPath43)" />
    <path
       id="path44"
       d="m 1340.5,7106 h 190"
       style="fill:none;stroke:#000000;stroke-width:1;stroke-linecap:butt;stroke-linejoin:miter;stroke-miterlimit:10;stroke-dasharray:none;stroke-opacity:1"
       transform="matrix(0.94560185,0,0,0.94560185,-1245.2453,-6426.1466)"
       clip-path="url(#clipPath45)" />
    <text
       id="text45"
       xml:space="preserve"
       transform="matrix(0.94560185,0,0,0.94560185,89.929781,266.35063)"
       clip-path="url(#clipPath46)"><tspan
         id="tspan45"
         style="font-variant:normal;font-weight:normal;font-size:16px;font-family:Arial;writing-mode:lr-tb;fill:#000000;fill-opacity:1;fill-rule:nonzero;stroke:none"
         x="0"
         y="0">«loop»</tspan></text>
    <text
       id="text46"
       xml:space="preserve"
       transform="matrix(0.94560185,0,0,0.94560185,94.125889,284.31707)"
       clip-path="url(#clipPath47)"><tspan
         id="tspan46"
         style="font-variant:normal;font-weight:normal;font-size:16px;font-family:Arial;writing-mode:lr-tb;fill:#000000;fill-opacity:1;fill-rule:nonzero;stroke:none"
         x="0"
         y="0">loop1</tspan></text>
    <text
       id="text47"
       xml:space="preserve"
       transform="matrix(0.94560185,0,0,0.94560185,87.550996,305.12031)"
       clip-path="url(#clipPath48)"><tspan
         id="tspan47"
         style="font-style:italic;font-variant:normal;font-weight:normal;font-size:12px;font-family:Arial;writing-mode:lr-tb;fill:#000000;fill-opacity:1;fill-rule:nonzero;stroke:none"
         x="0"
         y="0">loop body</tspan></text>
    <text
       id="text48"
       xml:space="preserve"
       transform="matrix(0.94560185,0,0,0.94560185,28.00763,323.08674)"
       clip-path="url(#clipPath49)"><tspan
         id="tspan48"
         style="font-variant:normal;font-weight:700;font-size:12px;font-family:Arial;writing-mode:lr-tb;fill:#000000;fill-opacity:1;fill-rule:nonzero;stroke:none"
         x="0"
         y="0">assign</tspan></text>
    <g
       id="g49" />
    <text
       id="text49"
       xml:space="preserve"
       transform="matrix(0.94560185,0,0,0.94560185,63.95528,323.08674)"
       clip-path="url(#clipPath50)"><tspan
         id="tspan49"
         style="font-variant:normal;font-weight:normal;font-size:12px;font-family:Arial;writing-mode:lr-tb;fill:#000000;fill-opacity:1;fill-rule:nonzero;stroke:none"
         x="0"
         y="0"> y := 2*x</tspan></text>
    <text
       id="text50"
       xml:space="preserve"
       transform="matrix(0.94560185,0,0,0.94560185,28.00763,341.05318)"
       clip-path="url(#clipPath51)"><tspan
         id="tspan50"
         style="font-variant:normal;font-weight:700;font-size:12px;font-family:Arial;writing-mode:lr-tb;fill:#000000;fill-opacity:1;fill-rule:nonzero;stroke:none"
         x="0"
         y="0">then</tspan></text>
    <g
       id="g51" />
    <text
       id="text51"
       xml:space="preserve"
       transform="matrix(0.94560185,0,0,0.94560185,51.972727,341.05318)"
       clip-path="url(#clipPath52)"><tspan
         id="tspan51"
         style="font-variant:normal;font-weight:normal;font-size:12px;font-family:Arial;writing-mode:lr-tb;fill:#000000;fill-opacity:1;fill-rule:nonzero;stroke:none"
         x="0"
         y="0"> </tspan></text>
    <text
       id="text52"
       xml:space="preserve"
       transform="matrix(0.94560185,0,0,0.94560185,55.134583,341.05318)"
       clip-path="url(#clipPath53)"><tspan
         id="tspan52"
         style="font-variant:normal;font-weight:700;font-size:12px;font-family:Arial;writing-mode:lr-tb;fill:#000000;fill-opacity:1;fill-rule:nonzero;stroke:none"
         x="0"
         y="0">assign</tspan></text>
    <g
       id="g53" />
    <text
       id="text53"
       xml:space="preserve"
       transform="matrix(0.94560185,0,0,0.94560185,91.082233,341.05318)"
       clip-path="url(#clipPath54)"><tspan
         id="tspan53"
         style="font-variant:normal;font-weight:normal;font-size:12px;font-family:Arial;writing-mode:lr-tb;fill:#000000;fill-opacity:1;fill-rule:nonzero;stroke:none"
         x="0"
         y="0"> x := x+increment</tspan></text>
    <path
       id="path55"
       d="m 1340.5,7164.4102 h 190"
       style="fill:none;stroke:#000000;stroke-width:1;stroke-linecap:butt;stroke-linejoin:miter;stroke-miterlimit:10;stroke-dasharray:none;stroke-opacity:1"
       transform="matrix(0.94560185,0,0,0.94560185,-1245.2453,-6426.1466)"
       clip-path="url(#clipPath56)" />
    <text
       id="text56"
       xml:space="preserve"
       transform="translate(77.000635,363.30236)"
       clip-path="url(#clipPath57)"><tspan
         id="tspan56"
         style="font-style:italic;font-variant:normal;font-weight:normal;font-size:11.34px;font-family:Arial;writing-mode:lr-tb;fill:#000000;fill-opacity:1;fill-rule:nonzero;stroke:none"
         x="0"
         y="0">until condition</tspan></text>
    <text
       id="text57"
       xml:space="preserve"
       transform="matrix(0.94560185,0,0,0.94560185,28.00763,379.82285)"
       clip-path="url(#clipPath58)"><tspan
         id="tspan57"
         style="font-variant:normal;font-weight:normal;font-size:12px;font-family:Arial;writing-mode:lr-tb;fill:#000000;fill-opacity:1;fill-rule:nonzero;stroke:none"
         x="0"
         y="0">x &gt;= 10</tspan></text>
    <g
       id="g58" />
    <text
       id="text58"
       xml:space="preserve"
       transform="matrix(0.94560185,0,0,0.94560185,8.1499911,442.23258)"
       clip-path="url(#clipPath59)"><tspan
         id="tspan58"
         style="font-variant:normal;font-weight:normal;font-size:12px;font-family:Arial;writing-mode:lr-tb;fill:#000000;fill-opacity:1;fill-rule:nonzero;stroke:none"
         x="0"
         y="0"> </tspan></text>
  </g>
</svg>
