<?xml version="1.0" encoding="UTF-8" standalone="no"?>
<!-- Created with Inkscape (http://www.inkscape.org/) -->

<svg
   version="1.1"
   id="svg1"
   width="280"
   height="234.56"
   viewBox="0 0 280 234.56"
   xmlns="http://www.w3.org/2000/svg"
   xmlns:svg="http://www.w3.org/2000/svg">
  <defs
     id="defs1">
    <clipPath
       clipPathUnits="userSpaceOnUse"
       id="clipPath2">
      <path
         d="M 0,0 H 875.97656 V 731.98242 H 0 Z"
         transform="scale(0.31999999)"
         clip-rule="evenodd"
         id="path2" />
    </clipPath>
    <clipPath
       clipPathUnits="userSpaceOnUse"
       id="clipPath4">
      <path
         d="m 3.125,3.125 h 868.75 v 725 H 3.125 Z"
         transform="matrix(0.33853532,0,0,0.33853532,120.87631,3533.8843)"
         clip-rule="evenodd"
         id="path4" />
    </clipPath>
    <clipPath
       clipPathUnits="userSpaceOnUse"
       id="clipPath5">
      <path
         d="m 3.125,3.125 h 868.75 v 725 H 3.125 Z"
         transform="matrix(0.33853532,0,0,0.33853532,-126.31119,-20.615831)"
         clip-rule="evenodd"
         id="path5" />
    </clipPath>
    <clipPath
       clipPathUnits="userSpaceOnUse"
       id="clipPath6">
      <path
         d="m 3.125,3.125 h 868.75 v 725 H 3.125 Z"
         transform="matrix(0.33853532,0,0,0.33853532,-129.65494,-20.615831)"
         clip-rule="evenodd"
         id="path6" />
    </clipPath>
    <clipPath
       clipPathUnits="userSpaceOnUse"
       id="clipPath7">
      <path
         d="m 3.125,3.125 h 868.75 v 725 H 3.125 Z"
         transform="matrix(0.33853532,0,0,0.33853532,-4.6236914,-35.61583)"
         clip-rule="evenodd"
         id="path7" />
    </clipPath>
    <clipPath
       clipPathUnits="userSpaceOnUse"
       id="clipPath8">
      <path
         d="m 3.125,3.125 h 868.75 v 725 H 3.125 Z"
         transform="matrix(0.33853532,0,0,0.33853532,-22.295566,-35.61583)"
         clip-rule="evenodd"
         id="path8" />
    </clipPath>
    <clipPath
       clipPathUnits="userSpaceOnUse"
       id="clipPath9">
      <path
         d="m 3.125,3.125 h 868.75 v 725 H 3.125 Z"
         transform="matrix(0.33853532,0,0,0.33853532,-4.6236914,-52.615831)"
         clip-rule="evenodd"
         id="path9" />
    </clipPath>
    <clipPath
       clipPathUnits="userSpaceOnUse"
       id="clipPath10">
      <path
         d="m 3.125,3.125 h 868.75 v 725 H 3.125 Z"
         transform="matrix(0.33853532,0,0,0.33853532,-15.295566,-52.615831)"
         clip-rule="evenodd"
         id="path10" />
    </clipPath>
    <clipPath
       clipPathUnits="userSpaceOnUse"
       id="clipPath11">
      <path
         d="m 3.125,3.125 h 868.75 v 725 H 3.125 Z"
         transform="matrix(0.33853532,0,0,0.33853532,-133.35807,-52.615831)"
         clip-rule="evenodd"
         id="path11" />
    </clipPath>
    <clipPath
       clipPathUnits="userSpaceOnUse"
       id="clipPath12">
      <path
         d="m 3.125,3.125 h 868.75 v 725 H 3.125 Z"
         transform="matrix(0.33853532,0,0,0.33853532,-137.35807,-52.615831)"
         clip-rule="evenodd"
         id="path12" />
    </clipPath>
    <clipPath
       clipPathUnits="userSpaceOnUse"
       id="clipPath13">
      <path
         d="m 3.125,3.125 h 868.75 v 725 H 3.125 Z"
         transform="matrix(0.33853532,0,0,0.33853532,-155.37369,-52.615831)"
         clip-rule="evenodd"
         id="path13" />
    </clipPath>
    <clipPath
       clipPathUnits="userSpaceOnUse"
       id="clipPath14">
      <path
         d="m 3.125,3.125 h 868.75 v 725 H 3.125 Z"
         transform="matrix(0.33853532,0,0,0.33853532,-159.37369,-52.615831)"
         clip-rule="evenodd"
         id="path14" />
    </clipPath>
    <clipPath
       clipPathUnits="userSpaceOnUse"
       id="clipPath15">
      <path
         d="m 3.125,3.125 h 868.75 v 725 H 3.125 Z"
         transform="matrix(0.33853532,0,0,0.33853532,-162.71744,-52.615831)"
         clip-rule="evenodd"
         id="path15" />
    </clipPath>
    <clipPath
       clipPathUnits="userSpaceOnUse"
       id="clipPath16">
      <path
         d="m 3.125,3.125 h 868.75 v 725 H 3.125 Z"
         transform="matrix(0.33853532,0,0,0.33853532,-4.6236914,-69.61583)"
         clip-rule="evenodd"
         id="path16" />
    </clipPath>
    <clipPath
       clipPathUnits="userSpaceOnUse"
       id="clipPath17">
      <path
         d="m 3.125,3.125 h 868.75 v 725 H 3.125 Z"
         transform="matrix(0.33853532,0,0,0.33853532,-23.279941,-69.61583)"
         clip-rule="evenodd"
         id="path17" />
    </clipPath>
    <clipPath
       clipPathUnits="userSpaceOnUse"
       id="clipPath18">
      <path
         d="m 3.125,3.125 h 868.75 v 725 H 3.125 Z"
         transform="matrix(0.33853532,0,0,0.33853532,-4.6236914,-86.615831)"
         clip-rule="evenodd"
         id="path18" />
    </clipPath>
    <clipPath
       clipPathUnits="userSpaceOnUse"
       id="clipPath19">
      <path
         d="m 3.125,3.125 h 868.75 v 725 H 3.125 Z"
         transform="matrix(0.33853532,0,0,0.33853532,-33.951817,-86.615831)"
         clip-rule="evenodd"
         id="path19" />
    </clipPath>
    <clipPath
       clipPathUnits="userSpaceOnUse"
       id="clipPath20">
      <path
         d="m 3.125,3.125 h 868.75 v 725 H 3.125 Z"
         transform="matrix(0.33853532,0,0,0.33853532,-4.6236914,-103.61583)"
         clip-rule="evenodd"
         id="path20" />
    </clipPath>
    <clipPath
       clipPathUnits="userSpaceOnUse"
       id="clipPath21">
      <path
         d="m 3.125,3.125 h 868.75 v 725 H 3.125 Z"
         transform="matrix(0.33853532,0,0,0.33853532,-39.295567,-103.61583)"
         clip-rule="evenodd"
         id="path21" />
    </clipPath>
    <clipPath
       clipPathUnits="userSpaceOnUse"
       id="clipPath22">
      <path
         d="m 3.125,3.125 h 868.75 v 725 H 3.125 Z"
         transform="matrix(0.33853532,0,0,0.33853532,-4.6236914,-119.61583)"
         clip-rule="evenodd"
         id="path22" />
    </clipPath>
    <clipPath
       clipPathUnits="userSpaceOnUse"
       id="clipPath23">
      <path
         d="m 3.125,3.125 h 868.75 v 725 H 3.125 Z"
         transform="matrix(0.33853532,0,0,0.33853532,-15.295566,-119.61583)"
         clip-rule="evenodd"
         id="path23" />
    </clipPath>
    <clipPath
       clipPathUnits="userSpaceOnUse"
       id="clipPath24">
      <path
         d="m 3.125,3.125 h 868.75 v 725 H 3.125 Z"
         transform="matrix(0.33853532,0,0,0.33853532,-4.6236914,-136.61583)"
         clip-rule="evenodd"
         id="path24" />
    </clipPath>
    <clipPath
       clipPathUnits="userSpaceOnUse"
       id="clipPath25">
      <path
         d="m 3.125,3.125 h 868.75 v 725 H 3.125 Z"
         transform="matrix(0.33853532,0,0,0.33853532,-15.295566,-136.61583)"
         clip-rule="evenodd"
         id="path25" />
    </clipPath>
    <clipPath
       clipPathUnits="userSpaceOnUse"
       id="clipPath26">
      <path
         d="m 3.125,3.125 h 868.75 v 725 H 3.125 Z"
         transform="matrix(0.33853532,0,0,0.33853532,-4.6236914,-153.61583)"
         clip-rule="evenodd"
         id="path26" />
    </clipPath>
    <clipPath
       clipPathUnits="userSpaceOnUse"
       id="clipPath27">
      <path
         d="m 3.125,3.125 h 868.75 v 725 H 3.125 Z"
         transform="matrix(0.33853532,0,0,0.33853532,-15.295566,-153.61583)"
         clip-rule="evenodd"
         id="path27" />
    </clipPath>
    <clipPath
       clipPathUnits="userSpaceOnUse"
       id="clipPath28">
      <path
         d="m 3.125,3.125 h 868.75 v 725 H 3.125 Z"
         transform="matrix(0.33853532,0,0,0.33853532,-18.639317,-153.61583)"
         clip-rule="evenodd"
         id="path28" />
    </clipPath>
    <clipPath
       clipPathUnits="userSpaceOnUse"
       id="clipPath29">
      <path
         d="m 3.125,3.125 h 868.75 v 725 H 3.125 Z"
         transform="matrix(0.33853532,0,0,0.33853532,-36.654941,-153.61583)"
         clip-rule="evenodd"
         id="path29" />
    </clipPath>
    <clipPath
       clipPathUnits="userSpaceOnUse"
       id="clipPath30">
      <path
         d="m 3.125,3.125 h 868.75 v 725 H 3.125 Z"
         transform="matrix(0.33853532,0,0,0.33853532,-4.6236914,-170.61583)"
         clip-rule="evenodd"
         id="path30" />
    </clipPath>
    <clipPath
       clipPathUnits="userSpaceOnUse"
       id="clipPath31">
      <path
         d="m 3.125,3.125 h 868.75 v 725 H 3.125 Z"
         transform="matrix(0.33853532,0,0,0.33853532,-15.295566,-170.61583)"
         clip-rule="evenodd"
         id="path31" />
    </clipPath>
    <clipPath
       clipPathUnits="userSpaceOnUse"
       id="clipPath32">
      <path
         d="m 3.125,3.125 h 868.75 v 725 H 3.125 Z"
         transform="matrix(0.33853532,0,0,0.33853532,-149.35807,-170.61583)"
         clip-rule="evenodd"
         id="path32" />
    </clipPath>
    <clipPath
       clipPathUnits="userSpaceOnUse"
       id="clipPath33">
      <path
         d="m 3.125,3.125 h 868.75 v 725 H 3.125 Z"
         transform="matrix(0.33853532,0,0,0.33853532,-153.35807,-170.61583)"
         clip-rule="evenodd"
         id="path33" />
    </clipPath>
    <clipPath
       clipPathUnits="userSpaceOnUse"
       id="clipPath34">
      <path
         d="m 3.125,3.125 h 868.75 v 725 H 3.125 Z"
         transform="matrix(0.33853532,0,0,0.33853532,-163.35807,-170.61583)"
         clip-rule="evenodd"
         id="path34" />
    </clipPath>
    <clipPath
       clipPathUnits="userSpaceOnUse"
       id="clipPath35">
      <path
         d="m 3.125,3.125 h 868.75 v 725 H 3.125 Z"
         transform="matrix(0.33853532,0,0,0.33853532,-167.35808,-170.61583)"
         clip-rule="evenodd"
         id="path35" />
    </clipPath>
    <clipPath
       clipPathUnits="userSpaceOnUse"
       id="clipPath36">
      <path
         d="m 3.125,3.125 h 868.75 v 725 H 3.125 Z"
         transform="matrix(0.33853532,0,0,0.33853532,-170.70182,-170.61583)"
         clip-rule="evenodd"
         id="path36" />
    </clipPath>
    <clipPath
       clipPathUnits="userSpaceOnUse"
       id="clipPath37">
      <path
         d="m 3.125,3.125 h 868.75 v 725 H 3.125 Z"
         transform="matrix(0.33853532,0,0,0.33853532,-216.06119,-170.61583)"
         clip-rule="evenodd"
         id="path37" />
    </clipPath>
    <clipPath
       clipPathUnits="userSpaceOnUse"
       id="clipPath38">
      <path
         d="m 3.125,3.125 h 868.75 v 725 H 3.125 Z"
         transform="matrix(0.33853532,0,0,0.33853532,-4.6236914,-187.61583)"
         clip-rule="evenodd"
         id="path38" />
    </clipPath>
    <clipPath
       clipPathUnits="userSpaceOnUse"
       id="clipPath39">
      <path
         d="m 3.125,3.125 h 868.75 v 725 H 3.125 Z"
         transform="matrix(0.33853532,0,0,0.33853532,-15.295566,-187.61583)"
         clip-rule="evenodd"
         id="path39" />
    </clipPath>
    <clipPath
       clipPathUnits="userSpaceOnUse"
       id="clipPath40">
      <path
         d="m 3.125,3.125 h 868.75 v 725 H 3.125 Z"
         transform="matrix(0.33853532,0,0,0.33853532,-162.70182,-187.61583)"
         clip-rule="evenodd"
         id="path40" />
    </clipPath>
    <clipPath
       clipPathUnits="userSpaceOnUse"
       id="clipPath41">
      <path
         d="m 3.125,3.125 h 868.75 v 725 H 3.125 Z"
         transform="matrix(0.33853532,0,0,0.33853532,-166.70182,-187.61583)"
         clip-rule="evenodd"
         id="path41" />
    </clipPath>
    <clipPath
       clipPathUnits="userSpaceOnUse"
       id="clipPath42">
      <path
         d="m 3.125,3.125 h 868.75 v 725 H 3.125 Z"
         transform="matrix(0.33853532,0,0,0.33853532,-176.70182,-187.61583)"
         clip-rule="evenodd"
         id="path42" />
    </clipPath>
    <clipPath
       clipPathUnits="userSpaceOnUse"
       id="clipPath43">
      <path
         d="m 3.125,3.125 h 868.75 v 725 H 3.125 Z"
         transform="matrix(0.33853532,0,0,0.33853532,-180.70182,-187.61583)"
         clip-rule="evenodd"
         id="path43" />
    </clipPath>
    <clipPath
       clipPathUnits="userSpaceOnUse"
       id="clipPath44">
      <path
         d="m 3.125,3.125 h 868.75 v 725 H 3.125 Z"
         transform="matrix(0.33853532,0,0,0.33853532,-184.04557,-187.61583)"
         clip-rule="evenodd"
         id="path44" />
    </clipPath>
    <clipPath
       clipPathUnits="userSpaceOnUse"
       id="clipPath45">
      <path
         d="m 3.125,3.125 h 868.75 v 725 H 3.125 Z"
         transform="matrix(0.33853532,0,0,0.33853532,-195.06119,-187.61583)"
         clip-rule="evenodd"
         id="path45" />
    </clipPath>
    <clipPath
       clipPathUnits="userSpaceOnUse"
       id="clipPath46">
      <path
         d="m 3.125,3.125 h 868.75 v 725 H 3.125 Z"
         transform="matrix(0.33853532,0,0,0.33853532,-4.6236914,-203.61583)"
         clip-rule="evenodd"
         id="path46" />
    </clipPath>
    <clipPath
       clipPathUnits="userSpaceOnUse"
       id="clipPath47">
      <path
         d="m 3.125,3.125 h 868.75 v 725 H 3.125 Z"
         transform="matrix(0.33853532,0,0,0.33853532,-15.295566,-203.61583)"
         clip-rule="evenodd"
         id="path47" />
    </clipPath>
    <clipPath
       clipPathUnits="userSpaceOnUse"
       id="clipPath48">
      <path
         d="m 3.125,3.125 h 868.75 v 725 H 3.125 Z"
         transform="matrix(0.33853532,0,0,0.33853532,-144.92057,-203.61583)"
         clip-rule="evenodd"
         id="path48" />
    </clipPath>
    <clipPath
       clipPathUnits="userSpaceOnUse"
       id="clipPath49">
      <path
         d="m 3.125,3.125 h 868.75 v 725 H 3.125 Z"
         transform="matrix(0.33853532,0,0,0.33853532,-151.93619,-203.61583)"
         clip-rule="evenodd"
         id="path49" />
    </clipPath>
    <clipPath
       clipPathUnits="userSpaceOnUse"
       id="clipPath50">
      <path
         d="m 3.125,3.125 h 868.75 v 725 H 3.125 Z"
         transform="matrix(0.33853532,0,0,0.33853532,-4.6236914,-221.61583)"
         clip-rule="evenodd"
         id="path50" />
    </clipPath>
  </defs>
  <g
     id="g1">
    <path
       id="path1"
       d="M 0,0 H 280 V 234 H 0 Z"
       style="fill:#ffffff;fill-opacity:1;fill-rule:nonzero;stroke:none"
       clip-path="url(#clipPath2)" />
    <path
       id="path3"
       d="m 124,3537 h 290 v 230 H 124 Z"
       style="fill:#ffffff;fill-opacity:1;fill-rule:nonzero;stroke:#000000;stroke-width:1;stroke-linecap:butt;stroke-linejoin:miter;stroke-miterlimit:10;stroke-dasharray:none;stroke-opacity:1"
       transform="matrix(0.94524844,0,0,0.94524844,-114.25814,-3340.3986)"
       clip-path="url(#clipPath4)" />
    <g
       id="g4" />
    <text
       id="text4"
       xml:space="preserve"
       transform="matrix(0.94524844,0,0,0.94524844,119.39546,19.487082)"
       clip-path="url(#clipPath5)"><tspan
         id="tspan4"
         style="font-variant:normal;font-weight:normal;font-size:12px;font-family:Arial;writing-mode:lr-tb;fill:#000000;fill-opacity:1;fill-rule:nonzero;stroke:none"
         x="0"
         y="0"> </tspan></text>
    <text
       id="text5"
       xml:space="preserve"
       transform="matrix(0.94524844,0,0,0.94524844,122.55613,19.487082)"
       clip-path="url(#clipPath6)"><tspan
         id="tspan5"
         style="font-style:italic;font-variant:normal;font-weight:normal;font-size:12px;font-family:Arial;writing-mode:lr-tb;fill:#000000;fill-opacity:1;fill-rule:nonzero;stroke:none"
         x="0"
         y="0">parameters</tspan></text>
    <text
       id="text6"
       xml:space="preserve"
       transform="matrix(0.94524844,0,0,0.94524844,4.3705371,33.665808)"
       clip-path="url(#clipPath7)"><tspan
         id="tspan6"
         style="font-variant:normal;font-weight:700;font-size:12px;font-family:Arial;writing-mode:lr-tb;fill:#000000;fill-opacity:1;fill-rule:nonzero;stroke:none"
         x="0"
         y="0">^in</tspan></text>
    <text
       id="text7"
       xml:space="preserve"
       transform="matrix(0.94524844,0,0,0.94524844,21.074849,33.665808)"
       clip-path="url(#clipPath8)"><tspan
         id="tspan7"
         style="font-variant:normal;font-weight:normal;font-size:12px;font-family:Arial;writing-mode:lr-tb;fill:#000000;fill-opacity:1;fill-rule:nonzero;stroke:none"
         x="0"
         y="0"> param5 : ParamDef5</tspan></text>
    <text
       id="text8"
       xml:space="preserve"
       transform="matrix(0.94524844,0,0,0.94524844,4.3705371,49.735032)"
       clip-path="url(#clipPath9)"><tspan
         id="tspan8"
         style="font-variant:normal;font-weight:700;font-size:12px;font-family:Arial;writing-mode:lr-tb;fill:#000000;fill-opacity:1;fill-rule:nonzero;stroke:none"
         x="0"
         y="0">in</tspan></text>
    <text
       id="text9"
       xml:space="preserve"
       transform="matrix(0.94524844,0,0,0.94524844,14.45811,49.735032)"
       clip-path="url(#clipPath10)"><tspan
         id="tspan9"
         style="font-variant:normal;font-weight:normal;font-size:12px;font-family:Arial;writing-mode:lr-tb;fill:#000000;fill-opacity:1;fill-rule:nonzero;stroke:none"
         x="0"
         y="0"> param1 : ParamDef1 </tspan></text>
    <text
       id="text10"
       xml:space="preserve"
       transform="matrix(0.94524844,0,0,0.94524844,126.05651,49.735032)"
       clip-path="url(#clipPath11)"><tspan
         id="tspan10"
         style="font-variant:normal;font-weight:700;font-size:12px;font-family:Arial;writing-mode:lr-tb;fill:#000000;fill-opacity:1;fill-rule:nonzero;stroke:none"
         x="0"
         y="0">[</tspan></text>
    <text
       id="text11"
       xml:space="preserve"
       transform="matrix(0.94524844,0,0,0.94524844,129.8375,49.735032)"
       clip-path="url(#clipPath12)"><tspan
         id="tspan11"
         style="font-variant:normal;font-weight:normal;font-size:12px;font-family:Arial;writing-mode:lr-tb;fill:#000000;fill-opacity:1;fill-rule:nonzero;stroke:none"
         x="0"
         y="0">1..*</tspan></text>
    <text
       id="text12"
       xml:space="preserve"
       transform="matrix(0.94524844,0,0,0.94524844,146.86674,49.735032)"
       clip-path="url(#clipPath13)"><tspan
         id="tspan12"
         style="font-variant:normal;font-weight:700;font-size:12px;font-family:Arial;writing-mode:lr-tb;fill:#000000;fill-opacity:1;fill-rule:nonzero;stroke:none"
         x="0"
         y="0">]</tspan></text>
    <text
       id="text13"
       xml:space="preserve"
       transform="matrix(0.94524844,0,0,0.94524844,150.64773,49.735032)"
       clip-path="url(#clipPath14)"><tspan
         id="tspan13"
         style="font-variant:normal;font-weight:normal;font-size:12px;font-family:Arial;writing-mode:lr-tb;fill:#000000;fill-opacity:1;fill-rule:nonzero;stroke:none"
         x="0"
         y="0"> </tspan></text>
    <text
       id="text14"
       xml:space="preserve"
       transform="matrix(0.94524844,0,0,0.94524844,153.80841,49.735032)"
       clip-path="url(#clipPath15)"><tspan
         id="tspan14"
         style="font-variant:normal;font-weight:700;font-size:12px;font-family:Arial;writing-mode:lr-tb;fill:#000000;fill-opacity:1;fill-rule:nonzero;stroke:none"
         x="0"
         y="0">ordered nonunique</tspan></text>
    <text
       id="text15"
       xml:space="preserve"
       transform="matrix(0.94524844,0,0,0.94524844,4.3705371,65.804255)"
       clip-path="url(#clipPath16)"><tspan
         id="tspan15"
         style="font-variant:normal;font-weight:700;font-size:12px;font-family:Arial;writing-mode:lr-tb;fill:#000000;fill-opacity:1;fill-rule:nonzero;stroke:none"
         x="0"
         y="0">out</tspan></text>
    <text
       id="text16"
       xml:space="preserve"
       transform="matrix(0.94524844,0,0,0.94524844,22.005328,65.804255)"
       clip-path="url(#clipPath17)"><tspan
         id="tspan16"
         style="font-variant:normal;font-weight:normal;font-size:12px;font-family:Arial;writing-mode:lr-tb;fill:#000000;fill-opacity:1;fill-rule:nonzero;stroke:none"
         x="0"
         y="0"> param2 : ParamDef2</tspan></text>
    <text
       id="text17"
       xml:space="preserve"
       transform="matrix(0.94524844,0,0,0.94524844,4.3705371,81.873479)"
       clip-path="url(#clipPath18)"><tspan
         id="tspan17"
         style="font-variant:normal;font-weight:700;font-size:12px;font-family:Arial;writing-mode:lr-tb;fill:#000000;fill-opacity:1;fill-rule:nonzero;stroke:none"
         x="0"
         y="0">inout</tspan></text>
    <text
       id="text18"
       xml:space="preserve"
       transform="matrix(0.94524844,0,0,0.94524844,32.092902,81.873479)"
       clip-path="url(#clipPath19)"><tspan
         id="tspan18"
         style="font-variant:normal;font-weight:normal;font-size:12px;font-family:Arial;writing-mode:lr-tb;fill:#000000;fill-opacity:1;fill-rule:nonzero;stroke:none"
         x="0"
         y="0"> param3 : ParamDef3</tspan></text>
    <text
       id="text19"
       xml:space="preserve"
       transform="matrix(0.94524844,0,0,0.94524844,4.3705371,97.942702)"
       clip-path="url(#clipPath20)"><tspan
         id="tspan19"
         style="font-variant:normal;font-weight:700;font-size:12px;font-family:Arial;writing-mode:lr-tb;fill:#000000;fill-opacity:1;fill-rule:nonzero;stroke:none"
         x="0"
         y="0">return</tspan></text>
    <text
       id="text20"
       xml:space="preserve"
       transform="matrix(0.94524844,0,0,0.94524844,37.144073,97.942702)"
       clip-path="url(#clipPath21)"><tspan
         id="tspan20"
         style="font-variant:normal;font-weight:normal;font-size:12px;font-family:Arial;writing-mode:lr-tb;fill:#000000;fill-opacity:1;fill-rule:nonzero;stroke:none"
         x="0"
         y="0"> param4 : ParamDef4</tspan></text>
    <text
       id="text21"
       xml:space="preserve"
       transform="matrix(0.94524844,0,0,0.94524844,4.3705371,113.06668)"
       clip-path="url(#clipPath22)"><tspan
         id="tspan21"
         style="font-variant:normal;font-weight:700;font-size:12px;font-family:Arial;writing-mode:lr-tb;fill:#000000;fill-opacity:1;fill-rule:nonzero;stroke:none"
         x="0"
         y="0">in</tspan></text>
    <g
       id="g22" />
    <text
       id="text22"
       xml:space="preserve"
       transform="matrix(0.94524844,0,0,0.94524844,14.45811,113.06668)"
       clip-path="url(#clipPath23)"><tspan
         id="tspan22"
         style="font-variant:normal;font-weight:normal;font-size:12px;font-family:Arial;writing-mode:lr-tb;fill:#000000;fill-opacity:1;fill-rule:nonzero;stroke:none"
         x="0"
         y="0"> param6R : ParamDef6R redefines param6</tspan></text>
    <text
       id="text23"
       xml:space="preserve"
       transform="matrix(0.94524844,0,0,0.94524844,4.3705371,129.1359)"
       clip-path="url(#clipPath24)"><tspan
         id="tspan23"
         style="font-variant:normal;font-weight:700;font-size:12px;font-family:Arial;writing-mode:lr-tb;fill:#000000;fill-opacity:1;fill-rule:nonzero;stroke:none"
         x="0"
         y="0">in</tspan></text>
    <text
       id="text24"
       xml:space="preserve"
       transform="matrix(0.94524844,0,0,0.94524844,14.45811,129.1359)"
       clip-path="url(#clipPath25)"><tspan
         id="tspan24"
         style="font-variant:normal;font-weight:normal;font-size:12px;font-family:Arial;writing-mode:lr-tb;fill:#000000;fill-opacity:1;fill-rule:nonzero;stroke:none"
         x="0"
         y="0"> param7R : ParamDef7R :&gt;&gt;param7</tspan></text>
    <text
       id="text25"
       xml:space="preserve"
       transform="matrix(0.94524844,0,0,0.94524844,4.3705371,145.20512)"
       clip-path="url(#clipPath26)"><tspan
         id="tspan25"
         style="font-variant:normal;font-weight:700;font-size:12px;font-family:Arial;writing-mode:lr-tb;fill:#000000;fill-opacity:1;fill-rule:nonzero;stroke:none"
         x="0"
         y="0">in</tspan></text>
    <text
       id="text26"
       xml:space="preserve"
       transform="matrix(0.94524844,0,0,0.94524844,14.45811,145.20512)"
       clip-path="url(#clipPath27)"><tspan
         id="tspan26"
         style="font-variant:normal;font-weight:normal;font-size:12px;font-family:Arial;writing-mode:lr-tb;fill:#000000;fill-opacity:1;fill-rule:nonzero;stroke:none"
         x="0"
         y="0"> </tspan></text>
    <text
       id="text27"
       xml:space="preserve"
       transform="matrix(0.94524844,0,0,0.94524844,17.618785,145.20512)"
       clip-path="url(#clipPath28)"><tspan
         id="tspan27"
         style="font-variant:normal;font-weight:700;font-size:12px;font-family:Arial;writing-mode:lr-tb;fill:#000000;fill-opacity:1;fill-rule:nonzero;stroke:none"
         x="0"
         y="0">:&gt;&gt;</tspan></text>
    <text
       id="text28"
       xml:space="preserve"
       transform="matrix(0.94524844,0,0,0.94524844,34.648026,145.20512)"
       clip-path="url(#clipPath29)"><tspan
         id="tspan28"
         style="font-variant:normal;font-weight:normal;font-size:12px;font-family:Arial;writing-mode:lr-tb;fill:#000000;fill-opacity:1;fill-rule:nonzero;stroke:none"
         x="0"
         y="0"> param8</tspan></text>
    <text
       id="text29"
       xml:space="preserve"
       transform="matrix(0.94524844,0,0,0.94524844,4.3705371,161.27435)"
       clip-path="url(#clipPath30)"><tspan
         id="tspan29"
         style="font-variant:normal;font-weight:700;font-size:12px;font-family:Arial;writing-mode:lr-tb;fill:#000000;fill-opacity:1;fill-rule:nonzero;stroke:none"
         x="0"
         y="0">in</tspan></text>
    <text
       id="text30"
       xml:space="preserve"
       transform="matrix(0.94524844,0,0,0.94524844,14.45811,161.27435)"
       clip-path="url(#clipPath31)"><tspan
         id="tspan30"
         style="font-variant:normal;font-weight:normal;font-size:12px;font-family:Arial;writing-mode:lr-tb;fill:#000000;fill-opacity:1;fill-rule:nonzero;stroke:none"
         x="0"
         y="0"> param9S : ParamDef9S </tspan></text>
    <text
       id="text31"
       xml:space="preserve"
       transform="matrix(0.94524844,0,0,0.94524844,141.18048,161.27435)"
       clip-path="url(#clipPath32)"><tspan
         id="tspan31"
         style="font-variant:normal;font-weight:700;font-size:12px;font-family:Arial;writing-mode:lr-tb;fill:#000000;fill-opacity:1;fill-rule:nonzero;stroke:none"
         x="0"
         y="0">[</tspan></text>
    <text
       id="text32"
       xml:space="preserve"
       transform="matrix(0.94524844,0,0,0.94524844,144.96148,161.27435)"
       clip-path="url(#clipPath33)"><tspan
         id="tspan32"
         style="font-variant:normal;font-weight:normal;font-size:12px;font-family:Arial;writing-mode:lr-tb;fill:#000000;fill-opacity:1;fill-rule:nonzero;stroke:none"
         x="0"
         y="0">m</tspan></text>
    <text
       id="text33"
       xml:space="preserve"
       transform="matrix(0.94524844,0,0,0.94524844,154.41396,161.27435)"
       clip-path="url(#clipPath34)"><tspan
         id="tspan33"
         style="font-variant:normal;font-weight:700;font-size:12px;font-family:Arial;writing-mode:lr-tb;fill:#000000;fill-opacity:1;fill-rule:nonzero;stroke:none"
         x="0"
         y="0">]</tspan></text>
    <g
       id="g34" />
    <text
       id="text34"
       xml:space="preserve"
       transform="matrix(0.94524844,0,0,0.94524844,158.19496,161.27435)"
       clip-path="url(#clipPath35)"><tspan
         id="tspan34"
         style="font-variant:normal;font-weight:normal;font-size:12px;font-family:Arial;writing-mode:lr-tb;fill:#000000;fill-opacity:1;fill-rule:nonzero;stroke:none"
         x="0"
         y="0"> </tspan></text>
    <text
       id="text35"
       xml:space="preserve"
       transform="matrix(0.94524844,0,0,0.94524844,161.35563,161.27435)"
       clip-path="url(#clipPath36)"><tspan
         id="tspan35"
         style="font-variant:normal;font-weight:700;font-size:12px;font-family:Arial;writing-mode:lr-tb;fill:#000000;fill-opacity:1;fill-rule:nonzero;stroke:none"
         x="0"
         y="0">subsets</tspan></text>
    <g
       id="g36" />
    <text
       id="text36"
       xml:space="preserve"
       transform="matrix(0.94524844,0,0,0.94524844,204.2315,161.27435)"
       clip-path="url(#clipPath37)"><tspan
         id="tspan36"
         style="font-variant:normal;font-weight:normal;font-size:12px;font-family:Arial;writing-mode:lr-tb;fill:#000000;fill-opacity:1;fill-rule:nonzero;stroke:none"
         x="0"
         y="0"> param9</tspan></text>
    <text
       id="text37"
       xml:space="preserve"
       transform="matrix(0.94524844,0,0,0.94524844,4.3705371,177.34357)"
       clip-path="url(#clipPath38)"><tspan
         id="tspan37"
         style="font-variant:normal;font-weight:700;font-size:12px;font-family:Arial;writing-mode:lr-tb;fill:#000000;fill-opacity:1;fill-rule:nonzero;stroke:none"
         x="0"
         y="0">in</tspan></text>
    <text
       id="text38"
       xml:space="preserve"
       transform="matrix(0.94524844,0,0,0.94524844,14.45811,177.34357)"
       clip-path="url(#clipPath39)"><tspan
         id="tspan38"
         style="font-variant:normal;font-weight:normal;font-size:12px;font-family:Arial;writing-mode:lr-tb;fill:#000000;fill-opacity:1;fill-rule:nonzero;stroke:none"
         x="0"
         y="0"> param10S : ParamDef10S </tspan></text>
    <text
       id="text39"
       xml:space="preserve"
       transform="matrix(0.94524844,0,0,0.94524844,153.79364,177.34357)"
       clip-path="url(#clipPath40)"><tspan
         id="tspan39"
         style="font-variant:normal;font-weight:700;font-size:12px;font-family:Arial;writing-mode:lr-tb;fill:#000000;fill-opacity:1;fill-rule:nonzero;stroke:none"
         x="0"
         y="0">[</tspan></text>
    <text
       id="text40"
       xml:space="preserve"
       transform="matrix(0.94524844,0,0,0.94524844,157.57464,177.34357)"
       clip-path="url(#clipPath41)"><tspan
         id="tspan40"
         style="font-variant:normal;font-weight:normal;font-size:12px;font-family:Arial;writing-mode:lr-tb;fill:#000000;fill-opacity:1;fill-rule:nonzero;stroke:none"
         x="0"
         y="0">m</tspan></text>
    <text
       id="text41"
       xml:space="preserve"
       transform="matrix(0.94524844,0,0,0.94524844,167.02712,177.34357)"
       clip-path="url(#clipPath42)"><tspan
         id="tspan41"
         style="font-variant:normal;font-weight:700;font-size:12px;font-family:Arial;writing-mode:lr-tb;fill:#000000;fill-opacity:1;fill-rule:nonzero;stroke:none"
         x="0"
         y="0">]</tspan></text>
    <text
       id="text42"
       xml:space="preserve"
       transform="matrix(0.94524844,0,0,0.94524844,170.80811,177.34357)"
       clip-path="url(#clipPath43)"><tspan
         id="tspan42"
         style="font-variant:normal;font-weight:normal;font-size:12px;font-family:Arial;writing-mode:lr-tb;fill:#000000;fill-opacity:1;fill-rule:nonzero;stroke:none"
         x="0"
         y="0"> </tspan></text>
    <text
       id="text43"
       xml:space="preserve"
       transform="matrix(0.94524844,0,0,0.94524844,173.96879,177.34357)"
       clip-path="url(#clipPath44)"><tspan
         id="tspan43"
         style="font-variant:normal;font-weight:700;font-size:12px;font-family:Arial;writing-mode:lr-tb;fill:#000000;fill-opacity:1;fill-rule:nonzero;stroke:none"
         x="0"
         y="0">:&gt;</tspan></text>
    <text
       id="text44"
       xml:space="preserve"
       transform="matrix(0.94524844,0,0,0.94524844,184.38129,177.34357)"
       clip-path="url(#clipPath45)"><tspan
         id="tspan44"
         style="font-variant:normal;font-weight:normal;font-size:12px;font-family:Arial;writing-mode:lr-tb;fill:#000000;fill-opacity:1;fill-rule:nonzero;stroke:none"
         x="0"
         y="0"> param10</tspan></text>
    <text
       id="text45"
       xml:space="preserve"
       transform="matrix(0.94524844,0,0,0.94524844,4.3705371,192.46755)"
       clip-path="url(#clipPath46)"><tspan
         id="tspan45"
         style="font-variant:normal;font-weight:700;font-size:12px;font-family:Arial;writing-mode:lr-tb;fill:#000000;fill-opacity:1;fill-rule:nonzero;stroke:none"
         x="0"
         y="0">in</tspan></text>
    <text
       id="text46"
       xml:space="preserve"
       transform="matrix(0.94524844,0,0,0.94524844,14.45811,192.46755)"
       clip-path="url(#clipPath47)"><tspan
         id="tspan46"
         style="font-variant:normal;font-weight:normal;font-size:12px;font-family:Arial;writing-mode:lr-tb;fill:#000000;fill-opacity:1;fill-rule:nonzero;stroke:none"
         x="0"
         dx="0 0 0 0 0 0 0 -0.89062512 0 0 0 0 0 0 0 0 0 0 0 0 -0.89062423"
         y="0"> param11 : ParamDef11 </tspan></text>
    <text
       id="text47"
       xml:space="preserve"
       transform="matrix(0.94524844,0,0,0.94524844,136.98594,192.46755)"
       clip-path="url(#clipPath48)"><tspan
         id="tspan47"
         style="font-variant:normal;font-weight:700;font-size:12px;font-family:Arial;writing-mode:lr-tb;fill:#000000;fill-opacity:1;fill-rule:nonzero;stroke:none"
         x="0"
         y="0">=</tspan></text>
    <text
       id="text48"
       xml:space="preserve"
       transform="matrix(0.94524844,0,0,0.94524844,143.61745,192.46755)"
       clip-path="url(#clipPath49)"><tspan
         id="tspan48"
         style="font-variant:normal;font-weight:normal;font-size:12px;font-family:Arial;writing-mode:lr-tb;fill:#000000;fill-opacity:1;fill-rule:nonzero;stroke:none"
         x="0"
         y="0"> expression1</tspan></text>
    <text
       id="text49"
       xml:space="preserve"
       transform="matrix(0.94524844,0,0,0.94524844,4.3705371,209.48202)"
       clip-path="url(#clipPath50)"><tspan
         id="tspan49"
         style="font-variant:normal;font-weight:700;font-size:14px;font-family:Arial;writing-mode:lr-tb;fill:#000000;fill-opacity:1;fill-rule:nonzero;stroke:none"
         x="0"
         y="0">...</tspan></text>
  </g>
</svg>
