<?xml version="1.0" encoding="UTF-8" standalone="no"?>
<!-- Created with Inkscape (http://www.inkscape.org/) -->

<svg
   version="1.1"
   id="svg1"
   width="416"
   height="358.72"
   viewBox="0 0 416 358.72"
   xmlns="http://www.w3.org/2000/svg"
   xmlns:svg="http://www.w3.org/2000/svg">
  <defs
     id="defs1">
    <clipPath
       clipPathUnits="userSpaceOnUse"
       id="clipPath2">
      <path
         d="M 0,0 H 1299.0234 V 1118.9941 H 0 Z"
         transform="scale(0.31999999)"
         clip-rule="evenodd"
         id="path2" />
    </clipPath>
    <clipPath
       clipPathUnits="userSpaceOnUse"
       id="clipPath4">
      <path
         d="m 3.125,3.125 h 1293.75 v 1112.5 H 3.125 Z"
         transform="matrix(0.33604088,0,0,0.33604088,2756.8975,1791.8997)"
         clip-rule="evenodd"
         id="path4" />
    </clipPath>
    <clipPath
       clipPathUnits="userSpaceOnUse"
       id="clipPath6">
      <path
         d="m 3.125,3.125 h 1293.75 v 1112.5 H 3.125 Z"
         transform="matrix(0.33604088,0,0,0.33604088,2756.8975,1791.8997)"
         clip-rule="evenodd"
         id="path6" />
    </clipPath>
    <clipPath
       clipPathUnits="userSpaceOnUse"
       id="clipPath8">
      <path
         d="m 3.125,3.125 h 1293.75 v 1112.5 H 3.125 Z"
         transform="matrix(0.33604088,0,0,0.33604088,2756.8975,1791.8997)"
         clip-rule="evenodd"
         id="path8" />
    </clipPath>
    <clipPath
       clipPathUnits="userSpaceOnUse"
       id="clipPath10">
      <path
         d="m 3.125,3.125 h 1293.75 v 1112.5 H 3.125 Z"
         transform="matrix(0.33604088,0,0,0.33604088,2756.8975,1791.8997)"
         clip-rule="evenodd"
         id="path10" />
    </clipPath>
    <clipPath
       clipPathUnits="userSpaceOnUse"
       id="clipPath11">
      <path
         d="m 3.125,3.125 h 1293.75 v 1112.5 H 3.125 Z"
         transform="matrix(0.33604088,0,0,0.33604088,-147.57156,-70.600277)"
         clip-rule="evenodd"
         id="path11" />
    </clipPath>
    <clipPath
       clipPathUnits="userSpaceOnUse"
       id="clipPath12">
      <path
         d="m 3.125,3.125 h 1293.75 v 1112.5 H 3.125 Z"
         transform="matrix(0.33604088,0,0,0.33604088,-159.11837,-89.600277)"
         clip-rule="evenodd"
         id="path12" />
    </clipPath>
    <clipPath
       clipPathUnits="userSpaceOnUse"
       id="clipPath14">
      <path
         d="m 3.125,3.125 h 1293.75 v 1112.5 H 3.125 Z"
         transform="matrix(0.33604088,0,0,0.33604088,2756.8975,1791.8997)"
         clip-rule="evenodd"
         id="path14" />
    </clipPath>
    <clipPath
       clipPathUnits="userSpaceOnUse"
       id="clipPath16">
      <path
         d="m 3.125,3.125 h 1293.75 v 1112.5 H 3.125 Z"
         transform="matrix(0.33604088,0,0,0.33604088,2756.8975,1791.8997)"
         clip-rule="evenodd"
         id="path16" />
    </clipPath>
    <clipPath
       clipPathUnits="userSpaceOnUse"
       id="clipPath18">
      <path
         d="m 3.125,3.125 h 1293.75 v 1112.5 H 3.125 Z"
         transform="matrix(0.33604088,0,0,0.33604088,2756.8975,1791.8997)"
         clip-rule="evenodd"
         id="path18" />
    </clipPath>
    <clipPath
       clipPathUnits="userSpaceOnUse"
       id="clipPath20">
      <path
         d="m 3.125,3.125 h 1293.75 v 1112.5 H 3.125 Z"
         transform="matrix(0.33604088,0,0,0.33604088,2756.8975,1791.8997)"
         clip-rule="evenodd"
         id="path20" />
    </clipPath>
    <clipPath
       clipPathUnits="userSpaceOnUse"
       id="clipPath22">
      <path
         d="m 3.125,3.125 h 1293.75 v 1112.5 H 3.125 Z"
         transform="matrix(0.33604088,0,0,0.33604088,2756.8975,1791.8997)"
         clip-rule="evenodd"
         id="path22" />
    </clipPath>
    <clipPath
       clipPathUnits="userSpaceOnUse"
       id="clipPath24">
      <path
         d="m 3.125,3.125 h 1293.75 v 1112.5 H 3.125 Z"
         transform="matrix(0.33604088,0,0,0.33604088,2756.8975,1791.8997)"
         clip-rule="evenodd"
         id="path24" />
    </clipPath>
    <clipPath
       clipPathUnits="userSpaceOnUse"
       id="clipPath26">
      <path
         d="m 3.125,3.125 h 1293.75 v 1112.5 H 3.125 Z"
         transform="matrix(0.33604088,0,0,0.33604088,2756.8975,1791.8997)"
         clip-rule="evenodd"
         id="path26" />
    </clipPath>
    <clipPath
       clipPathUnits="userSpaceOnUse"
       id="clipPath27">
      <path
         d="m 3.125,3.125 h 1293.75 v 1112.5 H 3.125 Z"
         transform="matrix(0.33604088,0,0,0.33604088,-110.52467,-130.60028)"
         clip-rule="evenodd"
         id="path27" />
    </clipPath>
    <clipPath
       clipPathUnits="userSpaceOnUse"
       id="clipPath28">
      <path
         d="m 3.125,3.125 h 1293.75 v 1112.5 H 3.125 Z"
         transform="matrix(0.33604088,0,0,0.33604088,-113.18086,-149.60027)"
         clip-rule="evenodd"
         id="path28" />
    </clipPath>
    <clipPath
       clipPathUnits="userSpaceOnUse"
       id="clipPath29">
      <path
         d="m 3.125,3.125 h 1293.75 v 1112.5 H 3.125 Z"
         transform="matrix(0.33604088,0,0,0.33604088,-113.75906,-171.60028)"
         clip-rule="evenodd"
         id="path29" />
    </clipPath>
    <clipPath
       clipPathUnits="userSpaceOnUse"
       id="clipPath31">
      <path
         d="m 3.125,3.125 h 1293.75 v 1112.5 H 3.125 Z"
         transform="matrix(0.33604088,0,0,0.33604088,2756.8975,1791.8997)"
         clip-rule="evenodd"
         id="path31" />
    </clipPath>
    <clipPath
       clipPathUnits="userSpaceOnUse"
       id="clipPath32">
      <path
         d="m 3.125,3.125 h 1293.75 v 1112.5 H 3.125 Z"
         transform="matrix(0.33604088,0,0,0.33604088,-123.85277,-210.60027)"
         clip-rule="evenodd"
         id="path32" />
    </clipPath>
    <clipPath
       clipPathUnits="userSpaceOnUse"
       id="clipPath33">
      <path
         d="m 3.125,3.125 h 1293.75 v 1112.5 H 3.125 Z"
         transform="matrix(0.33604088,0,0,0.33604088,-128.30586,-230.60027)"
         clip-rule="evenodd"
         id="path33" />
    </clipPath>
    <clipPath
       clipPathUnits="userSpaceOnUse"
       id="clipPath35">
      <path
         d="m 3.125,3.125 h 1293.75 v 1112.5 H 3.125 Z"
         transform="matrix(0.33604088,0,0,0.33604088,2756.8975,1791.8997)"
         clip-rule="evenodd"
         id="path35" />
    </clipPath>
    <clipPath
       clipPathUnits="userSpaceOnUse"
       id="clipPath36">
      <path
         d="m 3.125,3.125 h 1293.75 v 1112.5 H 3.125 Z"
         transform="matrix(0.33604088,0,0,0.33604088,-123.85277,-280.60028)"
         clip-rule="evenodd"
         id="path36" />
    </clipPath>
    <clipPath
       clipPathUnits="userSpaceOnUse"
       id="clipPath37">
      <path
         d="m 3.125,3.125 h 1293.75 v 1112.5 H 3.125 Z"
         transform="matrix(0.33604088,0,0,0.33604088,-128.30586,-300.60028)"
         clip-rule="evenodd"
         id="path37" />
    </clipPath>
    <clipPath
       clipPathUnits="userSpaceOnUse"
       id="clipPath39">
      <path
         d="m 3.125,3.125 h 1293.75 v 1112.5 H 3.125 Z"
         transform="matrix(0.33604088,0,0,0.33604088,2756.8975,1791.8997)"
         clip-rule="evenodd"
         id="path39" />
    </clipPath>
    <clipPath
       clipPathUnits="userSpaceOnUse"
       id="clipPath41">
      <path
         d="m 3.125,3.125 h 1293.75 v 1112.5 H 3.125 Z"
         transform="matrix(0.33604088,0,0,0.33604088,2756.8975,1791.8997)"
         clip-rule="evenodd"
         id="path41" />
    </clipPath>
    <clipPath
       clipPathUnits="userSpaceOnUse"
       id="clipPath43">
      <path
         d="m 3.125,3.125 h 1293.75 v 1112.5 H 3.125 Z"
         transform="matrix(0.33604088,0,0,0.33604088,2756.8975,1791.8997)"
         clip-rule="evenodd"
         id="path43" />
    </clipPath>
    <clipPath
       clipPathUnits="userSpaceOnUse"
       id="clipPath45">
      <path
         d="m 3.125,3.125 h 1293.75 v 1112.5 H 3.125 Z"
         transform="matrix(0.33604088,0,0,0.33604088,2756.8975,1791.8997)"
         clip-rule="evenodd"
         id="path45" />
    </clipPath>
    <clipPath
       clipPathUnits="userSpaceOnUse"
       id="clipPath47">
      <path
         d="m 3.125,3.125 h 1293.75 v 1112.5 H 3.125 Z"
         transform="matrix(0.33604088,0,0,0.33604088,2756.8975,1791.8997)"
         clip-rule="evenodd"
         id="path47" />
    </clipPath>
    <clipPath
       clipPathUnits="userSpaceOnUse"
       id="clipPath49">
      <path
         d="m 3.125,3.125 h 1293.75 v 1112.5 H 3.125 Z"
         transform="matrix(0.33604088,0,0,0.33604088,2756.8975,1791.8997)"
         clip-rule="evenodd"
         id="path49" />
    </clipPath>
    <clipPath
       clipPathUnits="userSpaceOnUse"
       id="clipPath51">
      <path
         d="m 3.125,3.125 h 1293.75 v 1112.5 H 3.125 Z"
         transform="matrix(0.33604088,0,0,0.33604088,2756.8975,1791.8997)"
         clip-rule="evenodd"
         id="path51" />
    </clipPath>
    <clipPath
       clipPathUnits="userSpaceOnUse"
       id="clipPath53">
      <path
         d="m 3.125,3.125 h 1293.75 v 1112.5 H 3.125 Z"
         transform="matrix(0.33604088,0,0,0.33604088,2756.8975,1791.8997)"
         clip-rule="evenodd"
         id="path53" />
    </clipPath>
    <clipPath
       clipPathUnits="userSpaceOnUse"
       id="clipPath54">
      <path
         d="m 3.125,3.125 h 1293.75 v 1112.5 H 3.125 Z"
         transform="matrix(0.33604088,0,0,0.33604088,-261.52467,-130.60028)"
         clip-rule="evenodd"
         id="path54" />
    </clipPath>
    <clipPath
       clipPathUnits="userSpaceOnUse"
       id="clipPath55">
      <path
         d="m 3.125,3.125 h 1293.75 v 1112.5 H 3.125 Z"
         transform="matrix(0.33604088,0,0,0.33604088,-264.18086,-149.60027)"
         clip-rule="evenodd"
         id="path55" />
    </clipPath>
    <clipPath
       clipPathUnits="userSpaceOnUse"
       id="clipPath56">
      <path
         d="m 3.125,3.125 h 1293.75 v 1112.5 H 3.125 Z"
         transform="matrix(0.33604088,0,0,0.33604088,-264.75906,-171.60028)"
         clip-rule="evenodd"
         id="path56" />
    </clipPath>
    <clipPath
       clipPathUnits="userSpaceOnUse"
       id="clipPath58">
      <path
         d="m 3.125,3.125 h 1293.75 v 1112.5 H 3.125 Z"
         transform="matrix(0.33604088,0,0,0.33604088,2756.8975,1791.8997)"
         clip-rule="evenodd"
         id="path58" />
    </clipPath>
    <clipPath
       clipPathUnits="userSpaceOnUse"
       id="clipPath59">
      <path
         d="m 3.125,3.125 h 1293.75 v 1112.5 H 3.125 Z"
         transform="matrix(0.33604088,0,0,0.33604088,-277.85277,-210.60027)"
         clip-rule="evenodd"
         id="path59" />
    </clipPath>
    <clipPath
       clipPathUnits="userSpaceOnUse"
       id="clipPath60">
      <path
         d="m 3.125,3.125 h 1293.75 v 1112.5 H 3.125 Z"
         transform="matrix(0.33604088,0,0,0.33604088,-282.30587,-230.60027)"
         clip-rule="evenodd"
         id="path60" />
    </clipPath>
    <clipPath
       clipPathUnits="userSpaceOnUse"
       id="clipPath62">
      <path
         d="m 3.125,3.125 h 1293.75 v 1112.5 H 3.125 Z"
         transform="matrix(0.33604088,0,0,0.33604088,2756.8975,1791.8997)"
         clip-rule="evenodd"
         id="path62" />
    </clipPath>
    <clipPath
       clipPathUnits="userSpaceOnUse"
       id="clipPath63">
      <path
         d="m 3.125,3.125 h 1293.75 v 1112.5 H 3.125 Z"
         transform="matrix(0.33604088,0,0,0.33604088,-277.85277,-280.60028)"
         clip-rule="evenodd"
         id="path63" />
    </clipPath>
    <clipPath
       clipPathUnits="userSpaceOnUse"
       id="clipPath64">
      <path
         d="m 3.125,3.125 h 1293.75 v 1112.5 H 3.125 Z"
         transform="matrix(0.33604088,0,0,0.33604088,-282.30587,-300.60028)"
         clip-rule="evenodd"
         id="path64" />
    </clipPath>
    <clipPath
       clipPathUnits="userSpaceOnUse"
       id="clipPath66">
      <path
         d="m 3.125,3.125 h 1293.75 v 1112.5 H 3.125 Z"
         transform="matrix(0.33604088,0,0,0.33604088,2756.8975,1791.8997)"
         clip-rule="evenodd"
         id="path66" />
    </clipPath>
    <clipPath
       clipPathUnits="userSpaceOnUse"
       id="clipPath68">
      <path
         d="m 3.125,3.125 h 1293.75 v 1112.5 H 3.125 Z"
         transform="matrix(0.33604088,0,0,0.33604088,2756.8975,1791.8997)"
         clip-rule="evenodd"
         id="path68" />
    </clipPath>
    <clipPath
       clipPathUnits="userSpaceOnUse"
       id="clipPath70">
      <path
         d="m 3.125,3.125 h 1293.75 v 1112.5 H 3.125 Z"
         transform="matrix(0.33604088,0,0,0.33604088,2756.8975,1791.8997)"
         clip-rule="evenodd"
         id="path70" />
    </clipPath>
    <clipPath
       clipPathUnits="userSpaceOnUse"
       id="clipPath72">
      <path
         d="m 3.125,3.125 h 1293.75 v 1112.5 H 3.125 Z"
         transform="matrix(0.33604088,0,0,0.33604088,2756.8975,1791.8997)"
         clip-rule="evenodd"
         id="path72" />
    </clipPath>
    <clipPath
       clipPathUnits="userSpaceOnUse"
       id="clipPath74">
      <path
         d="m 3.125,3.125 h 1293.75 v 1112.5 H 3.125 Z"
         transform="matrix(0.33604088,0,0,0.33604088,2756.8975,1791.8997)"
         clip-rule="evenodd"
         id="path74" />
    </clipPath>
    <clipPath
       clipPathUnits="userSpaceOnUse"
       id="clipPath76">
      <path
         d="m 3.125,3.125 h 1293.75 v 1112.5 H 3.125 Z"
         transform="matrix(0.33604088,0,0,0.33604088,2756.8975,1791.8997)"
         clip-rule="evenodd"
         id="path76" />
    </clipPath>
    <linearGradient
       x1="0"
       y1="0"
       x2="0"
       y2="1"
       gradientUnits="userSpaceOnUse"
       gradientTransform="matrix(270.00001,0,0,20.000001,2760,1795)"
       spreadMethod="pad"
       id="linearGradient78">
      <stop
         style="stop-opacity:1;stop-color:#ffffff"
         offset="0"
         id="stop77" />
      <stop
         style="stop-opacity:1;stop-color:#ffffff"
         offset="1"
         id="stop78" />
    </linearGradient>
    <clipPath
       clipPathUnits="userSpaceOnUse"
       id="clipPath78">
      <path
         d="m 3.125,3.125 h 1293.75 v 1112.5 H 3.125 Z"
         transform="matrix(0.33604088,0,0,0.33604088,2756.8975,1791.8997)"
         clip-rule="evenodd"
         id="path78" />
    </clipPath>
    <clipPath
       clipPathUnits="userSpaceOnUse"
       id="clipPath79">
      <path
         d="m 3.125,3.125 h 1293.75 v 1112.5 H 3.125 Z"
         transform="matrix(0.31999999,0,0,0.31999999,-4.3831798,-16.754119)"
         clip-rule="evenodd"
         id="path79" />
    </clipPath>
  </defs>
  <g
     id="g1">
    <path
       id="path1"
       d="M 0,0 H 416 V 358 H 0 Z"
       style="fill:#ffffff;fill-opacity:1;fill-rule:nonzero;stroke:none"
       clip-path="url(#clipPath2)" />
    <path
       id="path3"
       d="m 2765,1795 h 420 c 0.6628,0 1.3005,0.1268 1.9131,0.3804 0.6125,0.2538 1.1533,0.6151 1.6223,1.084 0.4685,0.4688 0.8298,1.0095 1.0837,1.6219 0.2537,0.6127 0.3807,1.2506 0.3809,1.9137 v 360 c -2e-4,0.6628 -0.1272,1.3005 -0.3809,1.9131 -0.2539,0.6125 -0.6152,1.1533 -1.0837,1.6223 -0.469,0.4688 -1.0098,0.8301 -1.6223,1.0837 -0.6126,0.2537 -1.2503,0.3807 -1.9131,0.3809 h -420 c -0.6633,-2e-4 -1.301,-0.1272 -1.9136,-0.3809 -0.6128,-0.2536 -1.1535,-0.6149 -1.622,-1.0837 -0.469,-0.469 -0.8304,-1.0098 -1.084,-1.6223 -0.2539,-0.6126 -0.3806,-1.2503 -0.3804,-1.9131 v -360 c -2e-4,-0.6631 0.1265,-1.3009 0.3804,-1.9136 0.2536,-0.6125 0.615,-1.1532 1.084,-1.622 0.4685,-0.4689 1.0092,-0.8302 1.622,-1.084 0.6126,-0.2536 1.2503,-0.3804 1.9136,-0.3804 z"
       style="fill:#ffffff;fill-opacity:1;fill-rule:nonzero;stroke:#000000;stroke-width:1;stroke-linecap:butt;stroke-linejoin:miter;stroke-miterlimit:10;stroke-dasharray:none;stroke-opacity:1"
       transform="matrix(0.95226505,0,0,0.95226505,-2625.2971,-1706.3635)"
       clip-path="url(#clipPath4)" />
    <path
       id="path5"
       d="m 3150,1890.5 v -45 c 0,-3.3334 -1.6667,-5 -5,-5 h -360 c -3.3333,0 -5,1.6666 -5,5 v 45"
       style="fill:none;stroke:#000000;stroke-width:1;stroke-linecap:butt;stroke-linejoin:miter;stroke-miterlimit:10;stroke-dasharray:none;stroke-opacity:1"
       transform="matrix(0.95226505,0,0,0.95226505,-2625.2971,-1706.3635)"
       clip-path="url(#clipPath6)" />
    <path
       id="path7"
       d="m 2780,1890.5 v 245 c 0,3.3333 1.6667,5 5,5 h 360 c 3.3333,0 5,-1.6667 5,-5 v -245"
       style="fill:none;stroke:#000000;stroke-width:1;stroke-linecap:butt;stroke-linejoin:miter;stroke-miterlimit:10;stroke-dasharray:none;stroke-opacity:1"
       transform="matrix(0.95226505,0,0,0.95226505,-2625.2971,-1706.3635)"
       clip-path="url(#clipPath8)" />
    <path
       id="path9"
       d="m 2780,1890.5 h 370"
       style="fill:none;stroke:#000000;stroke-width:1;stroke-linecap:butt;stroke-linejoin:miter;stroke-miterlimit:10;stroke-dasharray:none;stroke-opacity:1"
       transform="matrix(0.95226505,0,0,0.95226505,-2625.2971,-1706.3635)"
       clip-path="url(#clipPath10)" />
    <text
       id="text10"
       xml:space="preserve"
       transform="matrix(0.95226505,0,0,0.95226505,140.52724,67.230176)"
       clip-path="url(#clipPath11)"><tspan
         id="tspan10"
         style="font-variant:normal;font-weight:normal;font-size:16px;font-family:Arial;writing-mode:lr-tb;fill:#000000;fill-opacity:1;fill-rule:nonzero;stroke:none"
         x="0"
         y="0">«perform action»</tspan></text>
    <text
       id="text11"
       xml:space="preserve"
       transform="matrix(0.95226505,0,0,0.95226505,151.52286,85.323212)"
       clip-path="url(#clipPath12)"><tspan
         id="tspan11"
         style="font-variant:normal;font-weight:normal;font-size:16px;font-family:Arial;writing-mode:lr-tb;fill:#000000;fill-opacity:1;fill-rule:nonzero;stroke:none"
         x="0"
         y="0">part0::action0</tspan></text>
    <path
       id="path13"
       d="m 2814.979,2007.25 c 0,0.6132 -0.06,1.2205 -0.1797,1.8219 -0.1196,0.6014 -0.2969,1.1853 -0.5315,1.7518 -0.2346,0.5666 -0.5222,1.1048 -0.863,1.6147 -0.3406,0.5098 -0.7276,0.9815 -1.1611,1.4151 -0.4339,0.4335 -0.9056,0.8206 -1.4156,1.1613 -0.51,0.3407 -1.0481,0.6283 -1.6145,0.863 -0.5666,0.2347 -1.1504,0.4119 -1.7517,0.5315 -0.6013,0.1198 -1.2087,0.1796 -1.8218,0.1797 -0.6132,-10e-5 -1.2207,-0.06 -1.822,-0.1796 -0.6015,-0.1197 -1.1855,-0.2969 -1.7522,-0.5316 -0.5666,-0.2347 -1.1047,-0.5223 -1.6147,-0.863 -0.5098,-0.3407 -0.9815,-0.7278 -1.4151,-1.1613 -0.4338,-0.4336 -0.8208,-0.9053 -1.1613,-1.4151 -0.3409,-0.5099 -0.6287,-1.0481 -0.8633,-1.6147 -0.2346,-0.5665 -0.4119,-1.1504 -0.5313,-1.7518 -0.1194,-0.6014 -0.1792,-1.2087 -0.1792,-1.8219 0,-0.6132 0.06,-1.2206 0.1792,-1.822 0.1194,-0.6015 0.2967,-1.1854 0.5313,-1.752 0.2346,-0.5666 0.5224,-1.1048 0.863,-1.6146 0.3406,-0.5099 0.7278,-0.9817 1.1616,-1.4152 0.4336,-0.4337 0.9053,-0.8208 1.4151,-1.1613 0.51,-0.3407 1.0481,-0.6285 1.6147,-0.8631 0.5667,-0.2347 1.1507,-0.4118 1.7522,-0.5315 0.6013,-0.1195 1.2088,-0.1793 1.822,-0.1793 0.6131,0 1.2203,0.06 1.8216,0.1793 0.6013,0.1197 1.1853,0.2968 1.7519,0.5315 0.5664,0.2346 1.1048,0.5224 1.6148,0.8631 0.5097,0.3405 0.9814,0.7276 1.4153,1.1613 0.4335,0.4335 0.8205,0.9052 1.1611,1.415 0.3408,0.5098 0.6284,1.0482 0.863,1.6147 0.2346,0.5665 0.4119,1.1506 0.5318,1.7521 0.1196,0.6014 0.1794,1.2088 0.1794,1.822 z"
       style="fill:#000000;fill-opacity:1;fill-rule:nonzero;stroke:#000000;stroke-width:1;stroke-linecap:butt;stroke-linejoin:miter;stroke-miterlimit:10;stroke-dasharray:none;stroke-opacity:1"
       transform="matrix(0.95226505,0,0,0.95226505,-2625.2971,-1706.3635)"
       clip-path="url(#clipPath14)" />
    <path
       id="path15"
       d="m 2813.7805,2077.25 c 0,0.5344 -0.052,1.064 -0.1567,1.5881 -0.1043,0.5242 -0.2586,1.033 -0.4632,1.5269 -0.2048,0.4939 -0.4555,0.9629 -0.7522,1.4072 -0.2971,0.4446 -0.6347,0.8557 -1.0124,1.2339 -0.3782,0.3779 -0.7893,0.7153 -1.2336,1.0125 -0.4446,0.2968 -0.9136,0.5476 -1.4075,0.7522 -0.4939,0.2043 -1.0029,0.3588 -1.5274,0.4631 -0.5241,0.1045 -1.0532,0.1567 -1.5876,0.1567 -0.5347,0 -1.0642,-0.052 -1.5884,-0.1567 -0.5244,-0.1043 -1.0334,-0.2588 -1.5271,-0.4634 -0.4939,-0.2046 -0.9629,-0.4553 -1.4075,-0.7522 -0.4445,-0.2969 -0.8557,-0.6343 -1.2336,-1.0122 -0.3779,-0.3782 -0.7153,-0.7893 -1.0122,-1.2339 -0.2971,-0.4443 -0.5479,-0.9133 -0.7524,-1.4072 -0.2046,-0.4939 -0.3592,-1.0027 -0.4634,-1.5269 -0.1043,-0.5241 -0.1563,-1.0537 -0.156,-1.5881 -3e-4,-0.5344 0.052,-1.064 0.156,-1.5881 0.1042,-0.5242 0.2588,-1.0335 0.4631,-1.5274 0.2048,-0.4939 0.4556,-0.9631 0.7522,-1.4074 0.2971,-0.4444 0.6348,-0.8555 1.0127,-1.2334 0.3779,-0.3782 0.7893,-0.7156 1.2339,-1.0125 0.4443,-0.2971 0.9133,-0.5479 1.4072,-0.7522 0.4937,-0.2046 1.0027,-0.3589 1.5271,-0.4631 0.5242,-0.1043 1.0537,-0.1565 1.5884,-0.1565 0.5344,0 1.0637,0.052 1.5879,0.1565 0.5242,0.1042 1.0329,0.2585 1.5268,0.4631 0.4939,0.2043 0.9632,0.4551 1.4078,0.7522 0.4443,0.2969 0.8554,0.6343 1.2336,1.0125 0.3777,0.3779 0.7151,0.789 1.0122,1.2334 0.2969,0.4443 0.5476,0.9135 0.7522,1.4074 0.2048,0.4939 0.3591,1.0032 0.4634,1.5274 0.1045,0.5241 0.1567,1.0537 0.1567,1.5881 z"
       style="fill:#000000;fill-opacity:1;fill-rule:nonzero;stroke:#000000;stroke-width:1;stroke-linecap:butt;stroke-linejoin:miter;stroke-miterlimit:10;stroke-dasharray:none;stroke-opacity:1"
       transform="matrix(0.95226505,0,0,0.95226505,-2625.2971,-1706.3635)"
       clip-path="url(#clipPath16)" />
    <path
       id="path17"
       d="m 2817.7805,2077.25 c -2e-4,0.7971 -0.078,1.5864 -0.2334,2.3682 -0.1557,0.7819 -0.3862,1.5412 -0.6911,2.2778 -0.305,0.7366 -0.679,1.436 -1.1219,2.0989 -0.4428,0.6628 -0.946,1.2761 -1.5097,1.8398 -0.5638,0.5637 -1.1773,1.0669 -1.8401,1.5095 -0.6626,0.4432 -1.3621,0.8172 -2.0987,1.1221 -0.7363,0.3052 -1.4953,0.5354 -2.2773,0.6909 -0.7817,0.1555 -1.5713,0.2332 -2.3684,0.2334 -0.7971,-2e-4 -1.5867,-0.078 -2.3689,-0.2334 -0.7817,-0.1555 -1.541,-0.3857 -2.2776,-0.6909 -0.7366,-0.3049 -1.436,-0.6789 -2.0989,-1.1218 -0.6628,-0.4429 -1.2758,-0.9461 -1.8396,-1.5098 -0.5637,-0.5637 -1.0671,-1.177 -1.51,-1.8398 -0.4428,-0.6629 -0.8169,-1.3626 -1.1218,-2.0991 -0.3049,-0.7364 -0.5352,-1.4957 -0.6907,-2.2776 -0.1555,-0.7818 -0.2331,-1.5711 -0.2331,-2.3682 0,-0.7971 0.078,-1.5867 0.2331,-2.3687 0.1555,-0.7819 0.3858,-1.541 0.6907,-2.2775 0.3049,-0.7366 0.679,-1.4361 1.1218,-2.0989 0.4429,-0.6629 0.9463,-1.2759 1.51,-1.8396 0.5638,-0.5637 1.1768,-1.0672 1.8396,-1.51 0.6629,-0.4429 1.3623,-0.8169 2.0989,-1.1219 0.7366,-0.3049 1.4959,-0.5351 2.2776,-0.6906 0.7822,-0.1555 1.5718,-0.2334 2.3689,-0.2334 0.7971,0 1.5867,0.078 2.3684,0.2334 0.782,0.1555 1.541,0.3857 2.2773,0.6906 0.7366,0.305 1.4361,0.679 2.0989,1.1219 0.6629,0.4428 1.2761,0.9463 1.8399,1.51 0.5637,0.5637 1.0669,1.1767 1.5095,1.8396 0.4431,0.6628 0.8171,1.3623 1.1221,2.0989 0.3049,0.7365 0.5354,1.4956 0.6909,2.2775 0.1555,0.782 0.2334,1.5716 0.2336,2.3687 z"
       style="fill:none;stroke:#000000;stroke-width:1;stroke-linecap:butt;stroke-linejoin:miter;stroke-miterlimit:10;stroke-dasharray:none;stroke-opacity:1"
       transform="matrix(0.95226505,0,0,0.95226505,-2625.2971,-1706.3635)"
       clip-path="url(#clipPath18)" />
    <path
       id="path19"
       d="m 2985.3,1950.5 v -45 c 0,-3.3334 -1.6667,-5 -5,-5 h -137.1999 c -3.3333,0 -5,1.6666 -5,5 v 45"
       style="fill:#ffffff;fill-opacity:1;fill-rule:nonzero;stroke:none"
       transform="matrix(0.95226505,0,0,0.95226505,-2625.2971,-1706.3635)"
       clip-path="url(#clipPath20)" />
    <path
       id="path21"
       d="m 2984.8,1950.5 v -3 h 1 v 3 z m 0,-6 v -3 h 1 v 3 z m 0,-6 v -3 h 1 v 3 z m 0,-6 v -3 h 1 v 3 z m 0,-6 v -3 h 1 v 3 z m 0,-6 v -3 h 1 v 3 z m 0,-6 v -3 h 1 v 3 z m 0,-6 v -3 h 1 v 3 z m -0.6464,-5.8138 c -0.4151,-0.6789 -1.0432,-1.1519 -1.8848,-1.4191 l 0.3027,-0.9531 c 1.0784,0.3426 1.8902,0.9594 2.4351,1.8504 z M 2979.2058,1901 h -3 v -1 h 3 z m -6,0 h -3 v -1 h 3 z m -6,0 h -3 v -1 h 3 z m -6,0 h -3 v -1 h 3 z m -6,0 h -3 v -1 h 3 z m -6,0 h -3 v -1 h 3 z m -6,0 h -3 v -1 h 3 z m -6,0 h -3 v -1 h 3 z m -6,0 h -3 v -1 h 3 z m -6,0 h -3 v -1 h 3 z m -6,0 h -3 v -1 h 3 z m -6,0 h -3 v -1 h 3 z m -6,0 h -3 v -1 h 3 z m -6,0 h -3 v -1 h 3 z m -6,0 h -3 v -1 h 3 z m -6,0 h -3 v -1 h 3 z m -6,0 h -3 v -1 h 3 z m -6,0 h -3 v -1 h 3 z m -6,0 h -3 v -1 h 3 z m -6,0 h -3 v -1 h 3 z m -6,0 h -3 v -1 h 3 z m -6,0 h -3 v -1 h 3 z m -6,0 h -3 v -1 h 3 z m -6.0644,0.264 c -0.8435,0.2658 -1.4734,0.7372 -1.8899,1.4143 l -0.8516,-0.5239 c 0.5471,-0.8891 1.3606,-1.5039 2.4407,-1.8442 z m -2.5413,4.2216 v 0.014 2.9886 h -1 v -2.9886 -0.014 z m 0,6.003 v 3 h -1 v -3 z m 0,6 v 3 h -1 v -3 z m 0,6 v 3 h -1 v -3 z m 0,6 v 3 h -1 v -3 z m 0,6 v 3 h -1 v -3 z m 0,6 v 3 h -1 v -3 z m 0,6 v 3 h -1 v -3 z"
       style="fill:#000000;fill-opacity:1;fill-rule:nonzero;stroke:none"
       transform="matrix(0.95226505,0,0,0.95226505,-2625.2971,-1706.3635)"
       clip-path="url(#clipPath22)" />
    <path
       id="path23"
       d="m 2838.6001,1950.5 v 3 h -1 v -3 z m 0,6 v 3 h -1 v -3 z m 0,6 v 3 h -1 v -3 z m 0,6 v 3 h -1 v -3 z m 0,6 v 3 h -1 v -3 z m 0,6 v 3 h -1 v -3 z m 0,6 v 3 h -1 v -3 z m 0,6 v 3 h -1 v -3 z m 0,6 v 3 h -1 v -3 z m 0,6 v 3 h -1 v -3 z m 0,6 v 3 h -1 v -3 z m 0,6 v 3 h -1 v -3 z m 0,6 v 3 h -1 v -3 z m 0,6 v 3 h -1 v -3 z m 0,6 v 3 h -1 v -3 z m 0,6 v 3 h -1 v -3 z m 0,6 v 3 h -1 v -3 z m 0,6 v 3 h -1 v -3 z m 0,6 v 3 h -1 v -3 z m 0,6 v 3 h -1 v -3 z m 0,6 v 3 h -1 v -3 z m 0,6 v 3 h -1 v -3 z m 0,6 v 3 h -1 v -3 z m 0,6 v 3 h -1 v -3 z m 0,6 v 3 h -1 v -3 z m 0,6 v 3 h -1 v -3 z m 0,6 v 3 h -1 v -3 z m 0,6 v 3 h -1 v -3 z m 0,6 v 3 h -1 v -3 z m 0,6 v 0.5 c 0,0.9807 0.1514,1.7981 0.4539,2.4521 l -0.9078,0.42 c -0.364,-0.7874 -0.5461,-1.7447 -0.5461,-2.8721 v -0.5 z m 2.1204,4.5791 c 0.6418,0.2805 1.435,0.4209 2.3796,0.4209 h 0.5942 v 1 h -0.5942 c -1.084,0 -2.0107,-0.1682 -2.7805,-0.5049 z m 5.9738,0.4209 h 3 v 1 h -3 z m 6,0 h 3 v 1 h -3 z m 6,0 h 3 v 1 h -3 z m 6,0 h 3 v 1 h -3 z m 6,0 h 3 v 1 h -3 z m 6,0 h 3 v 1 h -3 z m 6,0 h 3 v 1 h -3 z m 6,0 h 3 v 1 h -3 z m 6,0 h 3 v 1 h -3 z m 6,0 h 3 v 1 h -3 z m 6,0 h 3 v 1 h -3 z m 6,0 h 3 v 1 h -3 z m 6,0 h 3 v 1 h -3 z m 6,0 h 3 v 1 h -3 z m 6,0 h 3 v 1 h -3 z m 6,0 h 3 v 1 h -3 z m 6,0 h 3 v 1 h -3 z m 6,0 h 3 v 1 h -3 z m 6,0 h 3 v 1 h -3 z m 6,0 h 3 v 1 h -3 z m 6,0 h 3 v 1 h -3 z m 6,0 h 3 v 1 h -3 z m 6,0 h 1.6057 c 0.5523,0 1.0535,-0.048 1.5035,-0.1445 l 0.2094,0.978 c -0.5183,0.1111 -1.0893,0.1665 -1.7129,0.1665 h -1.6057 z m 5.2288,-1.3569 c 0.4968,-0.6219 0.7827,-1.4724 0.8572,-2.5515 l 0.9975,0.069 c -0.089,1.2869 -0.4467,2.3223 -1.0735,3.1067 l -0.7812,-0.624 z m 0.8769,-5.6319 v -3 h 1 v 3 z m 0,-6 v -3 h 1 v 3 z m 0,-6 v -3 h 1 v 3 z m 0,-6 v -2.9997 h 1 v 2.9997 z m 0,-6 v -3 h 1 v 3 z m 0,-6 v -3 h 1 v 3 z m 0,-6 v -3 h 1 v 3 z m 0,-6 v -3 h 1 v 3 z m 0,-6 v -3 h 1 v 3 z m 0,-6 v -3 h 1 v 3 z m 0,-6 v -3 h 1 v 3 z m 0,-6 v -3 h 1 v 3 z m 0,-6 v -2.9998 h 1 v 2.9998 z m 0,-5.9998 v -3 h 1 v 3 z m 0,-6 v -3 h 1 v 3 z m 0,-6 v -3 h 1 v 3 z m 0,-6 v -3 h 1 v 3 z m 0,-6 v -3 h 1 v 3 z m 0,-6 v -3 h 1 v 3 z m 0,-6 v -3 h 1 v 3 z m 0,-6 v -3 h 1 v 3 z m 0,-6 v -3 h 1 v 3 z m 0,-6 v -3 h 1 v 3 z m 0,-6 v -3 h 1 v 3 z m 0,-6 v -3 h 1 v 3 z m 0,-6 v -3 h 1 v 3 z m 0,-6 v -3 h 1 v 3 z m 0,-6 v -3 h 1 v 3 z m 0,-6 v -3 h 1 v 3 z"
       style="fill:#000000;fill-opacity:1;fill-rule:nonzero;stroke:none"
       transform="matrix(0.95226505,0,0,0.95226505,-2625.2971,-1706.3635)"
       clip-path="url(#clipPath24)" />
    <path
       id="path25"
       d="m 2838.1001,1950 h 3 v 1 h -3 m 6,-1 h 3 v 1 h -3 m 6,-1 h 3 v 1 h -3 m 6,-1 h 3 v 1 h -3 m 6,-1 h 3 v 1 h -3 m 6,-1 h 3 v 1 h -3 m 6,-1 h 3 v 1 h -3 m 6,-1 h 3 v 1 h -3 m 6,-1 h 3 v 1 h -3 m 6,-1 h 3 v 1 h -3 m 6,-1 h 3 v 1 h -3 m 6,-1 h 3 v 1 h -3 m 6,-1 h 3 v 1 h -3 m 6,-1 h 3 v 1 h -3 m 6,-1 h 3 v 1 h -3 m 6,-1 h 3 v 1 h -3 m 6,-1 h 3 v 1 h -3 m 6,-1 h 3 v 1 h -3 m 6,-1 h 3 v 1 h -3 m 6,-1 h 3 v 1 h -3 m 6,-1 h 3 v 1 h -3 m 6,-1 h 3 v 1 h -3 m 6,-1 h 3 v 1 h -3 m 6,-1 h 3 v 1 h -3 m 6,-1 h 3 v 1 h -3"
       style="fill:#000000;fill-opacity:1;fill-rule:nonzero;stroke:none"
       transform="matrix(0.95226505,0,0,0.95226505,-2625.2971,-1706.3635)"
       clip-path="url(#clipPath26)" />
    <text
       id="text26"
       xml:space="preserve"
       transform="matrix(0.95226505,0,0,0.95226505,105.24878,124.36608)"
       clip-path="url(#clipPath27)"><tspan
         id="tspan26"
         style="font-variant:normal;font-weight:normal;font-size:16px;font-family:Arial;writing-mode:lr-tb;fill:#000000;fill-opacity:1;fill-rule:nonzero;stroke:none"
         x="0"
         y="0">«performer»</tspan></text>
    <text
       id="text27"
       xml:space="preserve"
       transform="matrix(0.95226505,0,0,0.95226505,107.77818,142.45911)"
       clip-path="url(#clipPath28)"><tspan
         id="tspan27"
         style="font-variant:normal;font-weight:normal;font-size:16px;font-family:Arial;writing-mode:lr-tb;fill:#000000;fill-opacity:1;fill-rule:nonzero;stroke:none"
         x="0"
         y="0">part0::part1</tspan></text>
    <text
       id="text28"
       xml:space="preserve"
       transform="matrix(0.95226505,0,0,0.95226505,108.32878,163.40895)"
       clip-path="url(#clipPath29)"><tspan
         id="tspan28"
         style="font-style:italic;font-variant:normal;font-weight:normal;font-size:12px;font-family:Arial;writing-mode:lr-tb;fill:#000000;fill-opacity:1;fill-rule:nonzero;stroke:none"
         x="0"
         y="0">perform actions</tspan></text>
    <path
       id="path30"
       d="m 2874.0801,1984 h 75.24 c 0.6628,0 1.3005,0.1268 1.9131,0.3805 0.6125,0.2537 1.1533,0.615 1.6223,1.0839 0.4685,0.4688 0.8298,1.0095 1.0835,1.6219 0.2539,0.6127 0.3808,1.2506 0.3811,1.9137 v 36.5 c -3e-4,0.663 -0.1272,1.3007 -0.3811,1.9132 -0.2537,0.6124 -0.615,1.1532 -1.0835,1.6222 -0.469,0.4688 -1.0098,0.83 -1.6223,1.0837 -0.6126,0.2538 -1.2503,0.3808 -1.9131,0.3809 h -75.24 c -0.6634,-10e-5 -1.3013,-0.1271 -1.9138,-0.3809 -0.6126,-0.2537 -1.1534,-0.6149 -1.6219,-1.0837 -0.469,-0.469 -0.83,-1.0098 -1.0837,-1.6222 -0.2539,-0.6125 -0.3809,-1.2502 -0.3806,-1.9132 V 1989 c -3e-4,-0.6631 0.1267,-1.3009 0.3806,-1.9136 0.2537,-0.6125 0.6147,-1.1532 1.0837,-1.622 0.4685,-0.4689 1.0093,-0.8302 1.6219,-1.0839 0.6125,-0.2537 1.2504,-0.3805 1.9138,-0.3805 z"
       style="fill:#ffffff;fill-opacity:1;fill-rule:nonzero;stroke:#000000;stroke-width:1;stroke-linecap:butt;stroke-linejoin:miter;stroke-miterlimit:10;stroke-dasharray:none;stroke-opacity:1"
       transform="matrix(0.95226505,0,0,0.95226505,-2625.2971,-1706.3635)"
       clip-path="url(#clipPath31)" />
    <text
       id="text31"
       xml:space="preserve"
       transform="matrix(0.95226505,0,0,0.95226505,117.94066,200.54728)"
       clip-path="url(#clipPath32)"><tspan
         id="tspan31"
         style="font-variant:normal;font-weight:normal;font-size:16px;font-family:Arial;writing-mode:lr-tb;fill:#000000;fill-opacity:1;fill-rule:nonzero;stroke:none"
         x="0"
         y="0">«action»</tspan></text>
    <text
       id="text32"
       xml:space="preserve"
       transform="matrix(0.95226505,0,0,0.95226505,122.18119,219.59258)"
       clip-path="url(#clipPath33)"><tspan
         id="tspan32"
         style="font-variant:normal;font-weight:normal;font-size:16px;font-family:Arial;writing-mode:lr-tb;fill:#000000;fill-opacity:1;fill-rule:nonzero;stroke:none"
         x="0"
         y="0">action1</tspan></text>
    <path
       id="path34"
       d="m 2874.0801,2054 h 75.24 c 0.6628,0 1.3005,0.1267 1.9131,0.3804 0.6125,0.2536 1.1533,0.615 1.6223,1.084 0.4685,0.4687 0.8298,1.0095 1.0835,1.622 0.2539,0.6126 0.3808,1.2503 0.3811,1.9136 v 36.5 c -3e-4,0.6628 -0.1272,1.3008 -0.3811,1.9133 -0.2537,0.6126 -0.615,1.1531 -1.0835,1.6221 -0.469,0.4688 -1.0098,0.8301 -1.6223,1.0837 -0.6126,0.2537 -1.2503,0.3807 -1.9131,0.3809 h -75.24 c -0.6634,-2e-4 -1.3013,-0.1272 -1.9138,-0.3809 -0.6126,-0.2536 -1.1534,-0.6149 -1.6219,-1.0837 -0.469,-0.469 -0.83,-1.0095 -1.0837,-1.6221 -0.2539,-0.6125 -0.3809,-1.2505 -0.3806,-1.9133 V 2059 c -3e-4,-0.6633 0.1267,-1.301 0.3806,-1.9136 0.2537,-0.6125 0.6147,-1.1533 1.0837,-1.622 0.4685,-0.469 1.0093,-0.8304 1.6219,-1.084 0.6125,-0.2537 1.2504,-0.3804 1.9138,-0.3804 z"
       style="fill:#ffffff;fill-opacity:1;fill-rule:nonzero;stroke:#000000;stroke-width:1;stroke-linecap:butt;stroke-linejoin:miter;stroke-miterlimit:10;stroke-dasharray:none;stroke-opacity:1"
       transform="matrix(0.95226505,0,0,0.95226505,-2625.2971,-1706.3635)"
       clip-path="url(#clipPath35)" />
    <text
       id="text35"
       xml:space="preserve"
       transform="matrix(0.95226505,0,0,0.95226505,117.94066,267.20584)"
       clip-path="url(#clipPath36)"><tspan
         id="tspan35"
         style="font-variant:normal;font-weight:normal;font-size:16px;font-family:Arial;writing-mode:lr-tb;fill:#000000;fill-opacity:1;fill-rule:nonzero;stroke:none"
         x="0"
         y="0">«action»</tspan></text>
    <text
       id="text36"
       xml:space="preserve"
       transform="matrix(0.95226505,0,0,0.95226505,122.18119,286.25114)"
       clip-path="url(#clipPath37)"><tspan
         id="tspan36"
         style="font-variant:normal;font-weight:normal;font-size:16px;font-family:Arial;writing-mode:lr-tb;fill:#000000;fill-opacity:1;fill-rule:nonzero;stroke:none"
         x="0"
         y="0">action4</tspan></text>
    <path
       id="path38"
       d="m 2814.98,2006.75 h 3 v 1 h -3 m 6,-1 h 3 v 1 h -3 m 6,-1 h 3 v 1 h -3 m 6,-1 h 3 v 1 h -3 m 6,-1 h 3 v 1 h -3 m 6,-1 h 3 v 1 h -3 m 6,-1 h 3 v 1 h -3 m 6,-1 h 3 v 1 h -3 m 6,-1 h 3 v 1 h -3"
       style="fill:#000000;fill-opacity:1;fill-rule:nonzero;stroke:none"
       transform="matrix(0.95226505,0,0,0.95226505,-2625.2971,-1706.3635)"
       clip-path="url(#clipPath39)" />
    <path
       id="path40"
       d="m 2858.96,2011.75 9,-4.5 -9,-4.5"
       style="fill:none;stroke:#000000;stroke-width:1;stroke-linecap:butt;stroke-linejoin:miter;stroke-miterlimit:10;stroke-dasharray:none;stroke-opacity:1"
       transform="matrix(0.95226505,0,0,0.95226505,-2625.2971,-1706.3635)"
       clip-path="url(#clipPath41)" />
    <path
       id="path42"
       d="m 2869.0801,2077.8 h -3 v -1 h 3 z m -6,0 h -3 v -1 h 3 z m -6,0 h -3 v -1 h 3 z m -6,0 h -3 v -1 h 3 z m -6,0 h -1.5801 -1.4209 v -1 h 1.4189 1.5801 v 1 z m -6.001,-0.01 -3,-0.01 v -1 l 3,0.01 z m -6,-0.013 -3,-0.01 v -1 l 3,0.01 z m -6,-0.013 -3,-0.01 v -1 l 3,0.01 z m -6,-0.013 h -1.0601 v -1 h 1.0601 z"
       style="fill:#000000;fill-opacity:1;fill-rule:nonzero;stroke:none"
       transform="matrix(0.95226505,0,0,0.95226505,-2625.2971,-1706.3635)"
       clip-path="url(#clipPath43)" />
    <path
       id="path44"
       d="m 2827.9099,2072.77 -9.01,4.48 8.99,4.52"
       style="fill:none;stroke:#000000;stroke-width:1;stroke-linecap:butt;stroke-linejoin:miter;stroke-miterlimit:10;stroke-dasharray:none;stroke-opacity:1"
       transform="matrix(0.95226505,0,0,0.95226505,-2625.2971,-1706.3635)"
       clip-path="url(#clipPath45)" />
    <path
       id="path46"
       d="m 3136.5,1950.5 v -45 c 0,-3.3334 -1.6667,-5 -5,-5 h -137.2 c -3.3332,0 -5,1.6666 -5,5 v 45"
       style="fill:#ffffff;fill-opacity:1;fill-rule:nonzero;stroke:none"
       transform="matrix(0.95226505,0,0,0.95226505,-2625.2971,-1706.3635)"
       clip-path="url(#clipPath47)" />
    <path
       id="path48"
       d="m 3136,1950.5 v -3 h 1 v 3 z m 0,-6 v -3 h 1 v 3 z m 0,-6 v -3 h 1 v 3 z m 0,-6 v -3 h 1 v 3 z m 0,-6 v -3 h 1 v 3 z m 0,-6 v -3 h 1 v 3 z m 0,-6 v -3 h 1 v 3 z m 0,-6 v -3 h 1 v 3 z m -0.6465,-5.8138 c -0.415,-0.6789 -1.0432,-1.1519 -1.8847,-1.4191 l 0.3027,-0.9531 c 1.0784,0.3426 1.8901,0.9594 2.435,1.8504 z M 3130.4058,1901 h -3 v -1 h 3 z m -6,0 h -3 v -1 h 3 z m -6,0 h -3 v -1 h 3 z m -6,0 h -3 v -1 h 3 z m -6,0 h -3 v -1 h 3 z m -6,0 h -3 v -1 h 3 z m -6,0 h -3 v -1 h 3 z m -6,0 h -3 v -1 h 3 z m -6,0 h -3 v -1 h 3 z m -6,0 h -3 v -1 h 3 z m -6,0 h -3 v -1 h 3 z m -6,0 h -3 v -1 h 3 z m -6,0 h -3 v -1 h 3 z m -6,0 h -3 v -1 h 3 z m -6,0 h -3 v -1 h 3 z m -6,0 h -3 v -1 h 3 z m -6,0 h -3 v -1 h 3 z m -6,0 h -3 v -1 h 3 z m -6,0 h -3 v -1 h 3 z m -6,0 h -3 v -1 h 3 z m -6,0 h -3 v -1 h 3 z m -6,0 h -3 v -1 h 3 z m -6,0 h -3 v -1 h 3 z m -6.0645,0.264 c -0.8435,0.2658 -1.4734,0.7372 -1.8899,1.4143 l -0.8515,-0.5239 c 0.5471,-0.8891 1.3605,-1.5039 2.4406,-1.8442 z m -2.5413,4.2216 v 0.014 2.9886 h -1 v -2.9886 -0.014 z m 0,6.003 v 3 h -1 v -3 z m 0,6 v 3 h -1 v -3 z m 0,6 v 3 h -1 v -3 z m 0,6 v 3 h -1 v -3 z m 0,6 v 3 h -1 v -3 z m 0,6 v 3 h -1 v -3 z m 0,6 v 3 h -1 v -3 z"
       style="fill:#000000;fill-opacity:1;fill-rule:nonzero;stroke:none"
       transform="matrix(0.95226505,0,0,0.95226505,-2625.2971,-1706.3635)"
       clip-path="url(#clipPath49)" />
    <path
       id="path50"
       d="m 2989.8,1950.5 v 3 h -1 v -3 z m 0,6 v 3 h -1 v -3 z m 0,6 v 3 h -1 v -3 z m 0,6 v 3 h -1 v -3 z m 0,6 v 3 h -1 v -3 z m 0,6 v 3 h -1 v -3 z m 0,6 v 3 h -1 v -3 z m 0,6 v 3 h -1 v -3 z m 0,6 v 3 h -1 v -3 z m 0,6 v 3 h -1 v -3 z m 0,6 v 3 h -1 v -3 z m 0,6 v 3 h -1 v -3 z m 0,6 v 3 h -1 v -3 z m 0,6 v 3 h -1 v -3 z m 0,6 v 3 h -1 v -3 z m 0,6 v 3 h -1 v -3 z m 0,6 v 3 h -1 v -3 z m 0,6 v 3 h -1 v -3 z m 0,6 v 3 h -1 v -3 z m 0,6 v 3 h -1 v -3 z m 0,6 v 3 h -1 v -3 z m 0,6 v 3 h -1 v -3 z m 0,6 v 3 h -1 v -3 z m 0,6 v 3 h -1 v -3 z m 0,6 v 3 h -1 v -3 z m 0,6 v 3 h -1 v -3 z m 0,6 v 3 h -1 v -3 z m 0,6 v 3 h -1 v -3 z m 0,6 v 3 h -1 v -3 z m 0,6 v 0.5 c 0,0.9807 0.1514,1.7981 0.4539,2.4521 l -0.9077,0.42 c -0.364,-0.7874 -0.5462,-1.7447 -0.5462,-2.8721 v -0.5 z m 2.1204,4.5791 c 0.6419,0.2805 1.4351,0.4209 2.3796,0.4209 h 0.5943 v 1 H 2994.3 c -1.0839,0 -2.0107,-0.1682 -2.7805,-0.5049 z m 5.9739,0.4209 h 3 v 1 h -3 z m 6,0 h 3 v 1 h -3 z m 6,0 h 3 v 1 h -3 z m 6,0 h 3 v 1 h -3 z m 6,0 h 3 v 1 h -3 z m 6,0 h 3 v 1 h -3 z m 6,0 h 3 v 1 h -3 z m 6,0 h 3 v 1 h -3 z m 6,0 h 3 v 1 h -3 z m 6,0 h 3 v 1 h -3 z m 6,0 h 3 v 1 h -3 z m 6,0 h 3 v 1 h -3 z m 6,0 h 3 v 1 h -3 z m 6,0 h 3 v 1 h -3 z m 6,0 h 3 v 1 h -3 z m 6,0 h 3 v 1 h -3 z m 6,0 h 3 v 1 h -3 z m 6,0 h 3 v 1 h -3 z m 6,0 h 3 v 1 h -3 z m 6,0 h 3 v 1 h -3 z m 6,0 h 3 v 1 h -3 z m 6,0 h 3 v 1 h -3 z m 6,0 h 1.6057 c 0.5522,0 1.0535,-0.048 1.5034,-0.1445 l 0.2095,0.978 c -0.5183,0.1111 -1.0894,0.1665 -1.7129,0.1665 h -1.6057 z m 5.2287,-1.3569 c 0.4969,-0.6219 0.7828,-1.4724 0.8572,-2.5515 l 0.9976,0.069 c -0.089,1.2869 -0.4468,2.3223 -1.0735,3.1067 l -0.7813,-0.624 z m 0.877,-5.6319 v -3 h 1 v 3 z m 0,-6 v -3 h 1 v 3 z m 0,-6 v -3 h 1 v 3 z m 0,-6 v -2.9997 h 1 v 2.9997 z m 0,-6 v -3 h 1 v 3 z m 0,-6 v -3 h 1 v 3 z m 0,-6 v -3 h 1 v 3 z m 0,-6 v -3 h 1 v 3 z m 0,-6 v -3 h 1 v 3 z m 0,-6 v -3 h 1 v 3 z m 0,-6 v -3 h 1 v 3 z m 0,-6 v -3 h 1 v 3 z m 0,-6 v -2.9998 h 1 v 2.9998 z m 0,-5.9998 v -3 h 1 v 3 z m 0,-6 v -3 h 1 v 3 z m 0,-6 v -3 h 1 v 3 z m 0,-6 v -3 h 1 v 3 z m 0,-6 v -3 h 1 v 3 z m 0,-6 v -3 h 1 v 3 z m 0,-6 v -3 h 1 v 3 z m 0,-6 v -3 h 1 v 3 z m 0,-6 v -3 h 1 v 3 z m 0,-6 v -3 h 1 v 3 z m 0,-6 v -3 h 1 v 3 z m 0,-6 v -3 h 1 v 3 z m 0,-6 v -3 h 1 v 3 z m 0,-6 v -3 h 1 v 3 z m 0,-6 v -3 h 1 v 3 z m 0,-6 v -3 h 1 v 3 z"
       style="fill:#000000;fill-opacity:1;fill-rule:nonzero;stroke:none"
       transform="matrix(0.95226505,0,0,0.95226505,-2625.2971,-1706.3635)"
       clip-path="url(#clipPath51)" />
    <path
       id="path52"
       d="m 2989.3,1950 h 3 v 1 h -3 m 6,-1 h 3 v 1 h -3 m 6,-1 h 3 v 1 h -3 m 6,-1 h 3 v 1 h -3 m 6,-1 h 3 v 1 h -3 m 6,-1 h 3 v 1 h -3 m 6,-1 h 3 v 1 h -3 m 6,-1 h 3 v 1 h -3 m 6,-1 h 3 v 1 h -3 m 6,-1 h 3 v 1 h -3 m 6,-1 h 3 v 1 h -3 m 6,-1 h 3 v 1 h -3 m 6,-1 h 3 v 1 h -3 m 6,-1 h 3 v 1 h -3 m 6,-1 h 3 v 1 h -3 m 6,-1 h 3 v 1 h -3 m 6,-1 h 3 v 1 h -3 m 6,-1 h 3 v 1 h -3 m 6,-1 h 3 v 1 h -3 m 6,-1 h 3 v 1 h -3 m 6,-1 h 3 v 1 h -3 m 6,-1 h 3 v 1 h -3 m 6,-1 h 3 v 1 h -3 m 6,-1 h 3 v 1 h -3 m 6,-1 h 3 v 1 h -3"
       style="fill:#000000;fill-opacity:1;fill-rule:nonzero;stroke:none"
       transform="matrix(0.95226505,0,0,0.95226505,-2625.2971,-1706.3635)"
       clip-path="url(#clipPath53)" />
    <text
       id="text53"
       xml:space="preserve"
       transform="matrix(0.95226505,0,0,0.95226505,249.0408,124.36608)"
       clip-path="url(#clipPath54)"><tspan
         id="tspan53"
         style="font-variant:normal;font-weight:normal;font-size:16px;font-family:Arial;writing-mode:lr-tb;fill:#000000;fill-opacity:1;fill-rule:nonzero;stroke:none"
         x="0"
         y="0">«performer»</tspan></text>
    <text
       id="text54"
       xml:space="preserve"
       transform="matrix(0.95226505,0,0,0.95226505,251.5702,142.45911)"
       clip-path="url(#clipPath55)"><tspan
         id="tspan54"
         style="font-variant:normal;font-weight:normal;font-size:16px;font-family:Arial;writing-mode:lr-tb;fill:#000000;fill-opacity:1;fill-rule:nonzero;stroke:none"
         x="0"
         y="0">part0::part2</tspan></text>
    <text
       id="text55"
       xml:space="preserve"
       transform="matrix(0.95226505,0,0,0.95226505,252.1208,163.40895)"
       clip-path="url(#clipPath56)"><tspan
         id="tspan55"
         style="font-style:italic;font-variant:normal;font-weight:normal;font-size:12px;font-family:Arial;writing-mode:lr-tb;fill:#000000;fill-opacity:1;fill-rule:nonzero;stroke:none"
         x="0"
         y="0">perform actions</tspan></text>
    <path
       id="path57"
       d="m 3027.6599,1984 h 75.24 c 0.6628,0 1.3003,0.1268 1.9128,0.3805 0.6126,0.2537 1.1534,0.615 1.6224,1.0839 0.4685,0.4688 0.8298,1.0095 1.0837,1.6219 0.2537,0.6127 0.3809,1.2506 0.3811,1.9137 v 36.5 c -2e-4,0.663 -0.1274,1.3007 -0.3811,1.9132 -0.2539,0.6124 -0.6152,1.1532 -1.0837,1.6222 -0.469,0.4688 -1.0098,0.83 -1.6224,1.0837 -0.6125,0.2538 -1.25,0.3808 -1.9128,0.3809 h -75.24 c -0.6633,-10e-5 -1.3013,-0.1271 -1.9138,-0.3809 -0.6126,-0.2537 -1.1533,-0.6149 -1.6218,-1.0837 -0.469,-0.469 -0.8304,-1.0098 -1.084,-1.6222 -0.2537,-0.6125 -0.3806,-1.2502 -0.3804,-1.9132 V 1989 c -2e-4,-0.6631 0.1265,-1.3009 0.3801,-1.9136 0.2537,-0.6125 0.6153,-1.1532 1.0843,-1.622 0.4685,-0.4689 1.0092,-0.8302 1.6218,-1.0839 0.6125,-0.2537 1.2505,-0.3805 1.9138,-0.3805 z"
       style="fill:#ffffff;fill-opacity:1;fill-rule:nonzero;stroke:#000000;stroke-width:1;stroke-linecap:butt;stroke-linejoin:miter;stroke-miterlimit:10;stroke-dasharray:none;stroke-opacity:1"
       transform="matrix(0.95226505,0,0,0.95226505,-2625.2971,-1706.3635)"
       clip-path="url(#clipPath58)" />
    <text
       id="text58"
       xml:space="preserve"
       transform="matrix(0.95226505,0,0,0.95226505,264.58948,200.54728)"
       clip-path="url(#clipPath59)"><tspan
         id="tspan58"
         style="font-variant:normal;font-weight:normal;font-size:16px;font-family:Arial;writing-mode:lr-tb;fill:#000000;fill-opacity:1;fill-rule:nonzero;stroke:none"
         x="0"
         y="0">«action»</tspan></text>
    <text
       id="text59"
       xml:space="preserve"
       transform="matrix(0.95226505,0,0,0.95226505,268.83001,219.59258)"
       clip-path="url(#clipPath60)"><tspan
         id="tspan59"
         style="font-variant:normal;font-weight:normal;font-size:16px;font-family:Arial;writing-mode:lr-tb;fill:#000000;fill-opacity:1;fill-rule:nonzero;stroke:none"
         x="0"
         y="0">action2</tspan></text>
    <path
       id="path61"
       d="m 3027.6599,2054 h 75.24 c 0.6628,0 1.3003,0.1267 1.9128,0.3804 0.6126,0.2536 1.1534,0.615 1.6224,1.084 0.4685,0.4687 0.8298,1.0095 1.0837,1.622 0.2537,0.6126 0.3809,1.2503 0.3811,1.9136 v 36.5 c -2e-4,0.6628 -0.1274,1.3008 -0.3811,1.9133 -0.2539,0.6126 -0.6152,1.1531 -1.0837,1.6221 -0.469,0.4688 -1.0098,0.8301 -1.6224,1.0837 -0.6125,0.2537 -1.25,0.3807 -1.9128,0.3809 h -75.24 c -0.6633,-2e-4 -1.3013,-0.1272 -1.9138,-0.3809 -0.6126,-0.2536 -1.1533,-0.6149 -1.6218,-1.0837 -0.469,-0.469 -0.8304,-1.0095 -1.084,-1.6221 -0.2537,-0.6125 -0.3806,-1.2505 -0.3804,-1.9133 V 2059 c -2e-4,-0.6633 0.1265,-1.301 0.3801,-1.9136 0.2537,-0.6125 0.6153,-1.1533 1.0843,-1.622 0.4685,-0.469 1.0092,-0.8304 1.6218,-1.084 0.6125,-0.2537 1.2505,-0.3804 1.9138,-0.3804 z"
       style="fill:#ffffff;fill-opacity:1;fill-rule:nonzero;stroke:#000000;stroke-width:1;stroke-linecap:butt;stroke-linejoin:miter;stroke-miterlimit:10;stroke-dasharray:none;stroke-opacity:1"
       transform="matrix(0.95226505,0,0,0.95226505,-2625.2971,-1706.3635)"
       clip-path="url(#clipPath62)" />
    <text
       id="text62"
       xml:space="preserve"
       transform="matrix(0.95226505,0,0,0.95226505,264.58948,267.20584)"
       clip-path="url(#clipPath63)"><tspan
         id="tspan62"
         style="font-variant:normal;font-weight:normal;font-size:16px;font-family:Arial;writing-mode:lr-tb;fill:#000000;fill-opacity:1;fill-rule:nonzero;stroke:none"
         x="0"
         y="0">«action»</tspan></text>
    <text
       id="text63"
       xml:space="preserve"
       transform="matrix(0.95226505,0,0,0.95226505,268.83001,286.25114)"
       clip-path="url(#clipPath64)"><tspan
         id="tspan63"
         style="font-variant:normal;font-weight:normal;font-size:16px;font-family:Arial;writing-mode:lr-tb;fill:#000000;fill-opacity:1;fill-rule:nonzero;stroke:none"
         x="0"
         y="0">action3</tspan></text>
    <path
       id="path65"
       d="m 3065.8,2030.5 v 3 h -1 v -3 z m 0,6 v 3 h -1 v -3 z m 0,6 v 3 h -1 v -3 z m 0,6 v 2 l -0.01,1.0039 -1,-0.01 0.01,-0.9961 v -2 h 1 z"
       style="fill:#000000;fill-opacity:1;fill-rule:nonzero;stroke:none"
       transform="matrix(0.95226505,0,0,0.95226505,-2625.2971,-1706.3635)"
       clip-path="url(#clipPath66)" />
    <path
       id="path67"
       d="m 3060.8401,2043.86 4.4499,9.0199 4.5501,-8.9699"
       style="fill:none;stroke:#000000;stroke-width:1;stroke-linecap:butt;stroke-linejoin:miter;stroke-miterlimit:10;stroke-dasharray:none;stroke-opacity:1"
       transform="matrix(0.95226505,0,0,0.95226505,-2625.2971,-1706.3635)"
       clip-path="url(#clipPath68)" />
    <path
       id="path69"
       d="m 2954.3208,2006.75 h 3 v 1 h -3 z m 6,0.01 h 3 v 1 h -3 z m 6,0.01 h 3 v 1 h -3 z m 6,0.01 h 3 v 1 h -3 z m 6,0.01 h 3 v 1 h -3 z m 6,0.01 h 3 v 1 h -3 z m 5.9993,0.01 h 3 v 1 h -3 z m 6,0 h 3 v 1 h -3 z m 6,0 h 3 v 1 h -3 z m 6,0 h 3 v 1 h -3 z m 6,0 h 3 v 1 h -3 z m 6,0 h 0.1 v 1 h -0.1 z"
       style="fill:#000000;fill-opacity:1;fill-rule:nonzero;stroke:none"
       transform="matrix(0.95226505,0,0,0.95226505,-2625.2971,-1706.3635)"
       clip-path="url(#clipPath70)" />
    <path
       id="path71"
       d="m 3012.54,2011.8 9,-4.5 -9,-4.5"
       style="fill:none;stroke:#000000;stroke-width:1;stroke-linecap:butt;stroke-linejoin:miter;stroke-miterlimit:10;stroke-dasharray:none;stroke-opacity:1"
       transform="matrix(0.95226505,0,0,0.95226505,-2625.2971,-1706.3635)"
       clip-path="url(#clipPath72)" />
    <path
       id="path73"
       d="m 3022.6599,2077.8 h -3 v -1 h 3 z m -6,0 h -3 v -1 h 3 z m -6,0 h -3 v -1 h 3 z m -6,0 h -3 v -1 h 3 z m -6,0 h -3 v -1 h 3 z m -6,0 h -3 v -1 h 3 z m -6.0007,0 h -3 v -1 h 3 z m -6,-0.01 h -3 v -1 h 3 z m -6,-0.01 h -3 v -1 h 3 z m -6,-0.01 h -3 v -1 h 3 z m -6,-0.01 h -3 v -1 h 3 z m -6.0005,-0.01 -0.1,-2e-4 v -1 l 0.1,2e-4 z"
       style="fill:#000000;fill-opacity:1;fill-rule:nonzero;stroke:none"
       transform="matrix(0.95226505,0,0,0.95226505,-2625.2971,-1706.3635)"
       clip-path="url(#clipPath74)" />
    <path
       id="path75"
       d="m 2964.4399,2072.76 -9,4.49 8.99,4.51"
       style="fill:none;stroke:#000000;stroke-width:1;stroke-linecap:butt;stroke-linejoin:miter;stroke-miterlimit:10;stroke-dasharray:none;stroke-opacity:1"
       transform="matrix(0.95226505,0,0,0.95226505,-2625.2971,-1706.3635)"
       clip-path="url(#clipPath76)" />
    <path
       id="path77"
       d="m 2765,1795 h 265 v 15 c 0,2.76 -2.24,5 -5,5 h -265 v -15 c 0,-2.76 2.24,-5 5,-5 z"
       style="fill:url(#linearGradient78);fill-opacity:1;fill-rule:nonzero;stroke:#000000;stroke-width:1;stroke-linecap:butt;stroke-linejoin:miter;stroke-miterlimit:10;stroke-dasharray:none;stroke-opacity:1"
       transform="matrix(0.95226505,0,0,0.95226505,-2625.2971,-1706.3635)"
       clip-path="url(#clipPath78)" />
    <text
       id="text78"
       xml:space="preserve"
       transform="translate(4.3831798,16.754119)"
       clip-path="url(#clipPath79)"><tspan
         id="tspan78"
         style="font-variant:normal;font-weight:normal;font-size:11.42px;font-family:Arial;writing-mode:lr-tb;fill:#000000;fill-opacity:1;fill-rule:nonzero;stroke:none"
         x="0"
         dx="0 0 0 0 0 0 0 0 0 0 0 0 0 0 0 0 0 0 0 0 0 0 0 -0.20631479 0 0 0 0 0 0 -0.63011724 0 0 0 0 0 0 0 0 0 0 -0.20631479"
         y="0">«view» part0ActionFlowView2 : ActionFlowView</tspan></text>
  </g>
</svg>
