<?xml version="1.0" encoding="UTF-8" standalone="no"?>
<!-- Created with Inkscape (http://www.inkscape.org/) -->

<svg
   version="1.1"
   id="svg1"
   width="259.84"
   height="396.16"
   viewBox="0 0 259.84 396.16"
   xmlns="http://www.w3.org/2000/svg"
   xmlns:svg="http://www.w3.org/2000/svg">
  <defs
     id="defs1">
    <clipPath
       clipPathUnits="userSpaceOnUse"
       id="clipPath2">
      <path
         d="M 0,0 H 812.98828 V 1235.9863 H 0 Z"
         transform="scale(0.31999999)"
         clip-rule="evenodd"
         id="path2" />
    </clipPath>
    <clipPath
       clipPathUnits="userSpaceOnUse"
       id="clipPath4">
      <path
         d="m 3.125,9.375 h 806.25 v 1218.75 H 3.125 Z"
         transform="matrix(0.33893103,0,0,0.33893103,720.84722,5915.2633)"
         clip-rule="evenodd"
         id="path4" />
    </clipPath>
    <clipPath
       clipPathUnits="userSpaceOnUse"
       id="clipPath5">
      <path
         d="m 3.125,9.375 h 806.25 v 1218.75 H 3.125 Z"
         transform="matrix(0.33893103,0,0,0.33893103,-158.48096,-27.236155)"
         clip-rule="evenodd"
         id="path5" />
    </clipPath>
    <clipPath
       clipPathUnits="userSpaceOnUse"
       id="clipPath7">
      <path
         d="m 3.125,9.375 h 806.25 v 1218.75 H 3.125 Z"
         transform="matrix(0.33893103,0,0,0.33893103,720.84722,5915.2633)"
         clip-rule="evenodd"
         id="path7" />
    </clipPath>
    <clipPath
       clipPathUnits="userSpaceOnUse"
       id="clipPath9">
      <path
         d="m 3.125,9.375 h 806.25 v 1218.75 H 3.125 Z"
         transform="matrix(0.33893103,0,0,0.33893103,720.84722,5915.2633)"
         clip-rule="evenodd"
         id="path9" />
    </clipPath>
    <clipPath
       clipPathUnits="userSpaceOnUse"
       id="clipPath11">
      <path
         d="m 3.125,9.375 h 806.25 v 1218.75 H 3.125 Z"
         transform="matrix(0.33893103,0,0,0.33893103,720.84722,5915.2633)"
         clip-rule="evenodd"
         id="path11" />
    </clipPath>
    <clipPath
       clipPathUnits="userSpaceOnUse"
       id="clipPath12">
      <path
         d="m 3.125,9.375 h 806.25 v 1218.75 H 3.125 Z"
         transform="matrix(0.33893103,0,0,0.33893103,-31.902823,-110.23616)"
         clip-rule="evenodd"
         id="path12" />
    </clipPath>
    <clipPath
       clipPathUnits="userSpaceOnUse"
       id="clipPath13">
      <path
         d="m 3.125,9.375 h 806.25 v 1218.75 H 3.125 Z"
         transform="matrix(0.33893103,0,0,0.33893103,-36.355952,-130.23616)"
         clip-rule="evenodd"
         id="path13" />
    </clipPath>
    <clipPath
       clipPathUnits="userSpaceOnUse"
       id="clipPath15">
      <path
         d="m 3.125,9.375 h 806.25 v 1218.75 H 3.125 Z"
         transform="matrix(0.33893103,0,0,0.33893103,720.84722,5915.2633)"
         clip-rule="evenodd"
         id="path15" />
    </clipPath>
    <clipPath
       clipPathUnits="userSpaceOnUse"
       id="clipPath16">
      <path
         d="m 3.125,9.375 h 806.25 v 1218.75 H 3.125 Z"
         transform="matrix(0.33893103,0,0,0.33893103,-166.90282,-110.23616)"
         clip-rule="evenodd"
         id="path16" />
    </clipPath>
    <clipPath
       clipPathUnits="userSpaceOnUse"
       id="clipPath17">
      <path
         d="m 3.125,9.375 h 806.25 v 1218.75 H 3.125 Z"
         transform="matrix(0.33893103,0,0,0.33893103,-171.35595,-130.23616)"
         clip-rule="evenodd"
         id="path17" />
    </clipPath>
    <clipPath
       clipPathUnits="userSpaceOnUse"
       id="clipPath19">
      <path
         d="m 3.125,9.375 h 806.25 v 1218.75 H 3.125 Z"
         transform="matrix(0.33893103,0,0,0.33893103,720.84722,5915.2633)"
         clip-rule="evenodd"
         id="path19" />
    </clipPath>
    <clipPath
       clipPathUnits="userSpaceOnUse"
       id="clipPath21">
      <path
         d="m 3.125,9.375 h 806.25 v 1218.75 H 3.125 Z"
         transform="matrix(0.33893103,0,0,0.33893103,720.84722,5915.2633)"
         clip-rule="evenodd"
         id="path21" />
    </clipPath>
    <clipPath
       clipPathUnits="userSpaceOnUse"
       id="clipPath23">
      <path
         d="m 3.125,9.375 h 806.25 v 1218.75 H 3.125 Z"
         transform="matrix(0.33893103,0,0,0.33893103,720.84722,5915.2633)"
         clip-rule="evenodd"
         id="path23" />
    </clipPath>
    <clipPath
       clipPathUnits="userSpaceOnUse"
       id="clipPath25">
      <path
         d="m 3.125,9.375 h 806.25 v 1218.75 H 3.125 Z"
         transform="matrix(0.33893103,0,0,0.33893103,720.84722,5915.2633)"
         clip-rule="evenodd"
         id="path25" />
    </clipPath>
    <clipPath
       clipPathUnits="userSpaceOnUse"
       id="clipPath27">
      <path
         d="m 3.125,9.375 h 806.25 v 1218.75 H 3.125 Z"
         transform="matrix(0.33893103,0,0,0.33893103,720.84722,5915.2633)"
         clip-rule="evenodd"
         id="path27" />
    </clipPath>
    <clipPath
       clipPathUnits="userSpaceOnUse"
       id="clipPath29">
      <path
         d="m 3.125,9.375 h 806.25 v 1218.75 H 3.125 Z"
         transform="matrix(0.33893103,0,0,0.33893103,720.84722,5915.2633)"
         clip-rule="evenodd"
         id="path29" />
    </clipPath>
    <clipPath
       clipPathUnits="userSpaceOnUse"
       id="clipPath31">
      <path
         d="m 3.125,9.375 h 806.25 v 1218.75 H 3.125 Z"
         transform="matrix(0.33893103,0,0,0.33893103,720.84722,5915.2633)"
         clip-rule="evenodd"
         id="path31" />
    </clipPath>
    <clipPath
       clipPathUnits="userSpaceOnUse"
       id="clipPath33">
      <path
         d="m 3.125,9.375 h 806.25 v 1218.75 H 3.125 Z"
         transform="matrix(0.33893103,0,0,0.33893103,720.84722,5915.2633)"
         clip-rule="evenodd"
         id="path33" />
    </clipPath>
    <clipPath
       clipPathUnits="userSpaceOnUse"
       id="clipPath35">
      <path
         d="m 3.125,9.375 h 806.25 v 1218.75 H 3.125 Z"
         transform="matrix(0.33893103,0,0,0.33893103,720.84722,5915.2633)"
         clip-rule="evenodd"
         id="path35" />
    </clipPath>
    <clipPath
       clipPathUnits="userSpaceOnUse"
       id="clipPath36">
      <path
         d="m 3.125,9.375 h 806.25 v 1218.75 H 3.125 Z"
         transform="matrix(0.33893103,0,0,0.33893103,-104.80907,-241.23616)"
         clip-rule="evenodd"
         id="path36" />
    </clipPath>
    <clipPath
       clipPathUnits="userSpaceOnUse"
       id="clipPath38">
      <path
         d="m 3.125,9.375 h 806.25 v 1218.75 H 3.125 Z"
         transform="matrix(0.33893103,0,0,0.33893103,720.84722,5915.2633)"
         clip-rule="evenodd"
         id="path38" />
    </clipPath>
    <clipPath
       clipPathUnits="userSpaceOnUse"
       id="clipPath40">
      <path
         d="m 3.125,9.375 h 806.25 v 1218.75 H 3.125 Z"
         transform="matrix(0.33893103,0,0,0.33893103,720.84722,5915.2633)"
         clip-rule="evenodd"
         id="path40" />
    </clipPath>
    <clipPath
       clipPathUnits="userSpaceOnUse"
       id="clipPath42">
      <path
         d="m 3.125,9.375 h 806.25 v 1218.75 H 3.125 Z"
         transform="matrix(0.33893103,0,0,0.33893103,720.84722,5915.2633)"
         clip-rule="evenodd"
         id="path42" />
    </clipPath>
    <clipPath
       clipPathUnits="userSpaceOnUse"
       id="clipPath43">
      <path
         d="m 3.125,9.375 h 806.25 v 1218.75 H 3.125 Z"
         transform="matrix(0.33893103,0,0,0.33893103,-31.902823,-270.23616)"
         clip-rule="evenodd"
         id="path43" />
    </clipPath>
    <clipPath
       clipPathUnits="userSpaceOnUse"
       id="clipPath44">
      <path
         d="m 3.125,9.375 h 806.25 v 1218.75 H 3.125 Z"
         transform="matrix(0.33893103,0,0,0.33893103,-36.355952,-290.23615)"
         clip-rule="evenodd"
         id="path44" />
    </clipPath>
    <clipPath
       clipPathUnits="userSpaceOnUse"
       id="clipPath46">
      <path
         d="m 3.125,9.375 h 806.25 v 1218.75 H 3.125 Z"
         transform="matrix(0.33893103,0,0,0.33893103,720.84722,5915.2633)"
         clip-rule="evenodd"
         id="path46" />
    </clipPath>
    <clipPath
       clipPathUnits="userSpaceOnUse"
       id="clipPath47">
      <path
         d="m 3.125,9.375 h 806.25 v 1218.75 H 3.125 Z"
         transform="matrix(0.33893103,0,0,0.33893103,-170.90282,-270.23616)"
         clip-rule="evenodd"
         id="path47" />
    </clipPath>
    <clipPath
       clipPathUnits="userSpaceOnUse"
       id="clipPath48">
      <path
         d="m 3.125,9.375 h 806.25 v 1218.75 H 3.125 Z"
         transform="matrix(0.33893103,0,0,0.33893103,-175.35595,-290.23615)"
         clip-rule="evenodd"
         id="path48" />
    </clipPath>
    <clipPath
       clipPathUnits="userSpaceOnUse"
       id="clipPath50">
      <path
         d="m 3.125,9.375 h 806.25 v 1218.75 H 3.125 Z"
         transform="matrix(0.33893103,0,0,0.33893103,720.84722,5915.2633)"
         clip-rule="evenodd"
         id="path50" />
    </clipPath>
    <clipPath
       clipPathUnits="userSpaceOnUse"
       id="clipPath51">
      <path
         d="m 3.125,9.375 h 806.25 v 1218.75 H 3.125 Z"
         transform="matrix(0.33893103,0,0,0.33893103,-108.80908,-315.23615)"
         clip-rule="evenodd"
         id="path51" />
    </clipPath>
    <clipPath
       clipPathUnits="userSpaceOnUse"
       id="clipPath53">
      <path
         d="m 3.125,9.375 h 806.25 v 1218.75 H 3.125 Z"
         transform="matrix(0.33893103,0,0,0.33893103,720.84722,5915.2633)"
         clip-rule="evenodd"
         id="path53" />
    </clipPath>
    <clipPath
       clipPathUnits="userSpaceOnUse"
       id="clipPath55">
      <path
         d="m 3.125,9.375 h 806.25 v 1218.75 H 3.125 Z"
         transform="matrix(0.33893103,0,0,0.33893103,720.84722,5915.2633)"
         clip-rule="evenodd"
         id="path55" />
    </clipPath>
    <clipPath
       clipPathUnits="userSpaceOnUse"
       id="clipPath57">
      <path
         d="m 3.125,9.375 h 806.25 v 1218.75 H 3.125 Z"
         transform="matrix(0.33893103,0,0,0.33893103,720.84722,5915.2633)"
         clip-rule="evenodd"
         id="path57" />
    </clipPath>
    <clipPath
       clipPathUnits="userSpaceOnUse"
       id="clipPath59">
      <path
         d="m 3.125,9.375 h 806.25 v 1218.75 H 3.125 Z"
         transform="matrix(0.33893103,0,0,0.33893103,720.84722,5915.2633)"
         clip-rule="evenodd"
         id="path59" />
    </clipPath>
    <clipPath
       clipPathUnits="userSpaceOnUse"
       id="clipPath61">
      <path
         d="m 3.125,9.375 h 806.25 v 1218.75 H 3.125 Z"
         transform="matrix(0.33893103,0,0,0.33893103,720.84722,5915.2633)"
         clip-rule="evenodd"
         id="path61" />
    </clipPath>
    <clipPath
       clipPathUnits="userSpaceOnUse"
       id="clipPath63">
      <path
         d="m 3.125,9.375 h 806.25 v 1218.75 H 3.125 Z"
         transform="matrix(0.33893103,0,0,0.33893103,720.84722,5915.2633)"
         clip-rule="evenodd"
         id="path63" />
    </clipPath>
    <clipPath
       clipPathUnits="userSpaceOnUse"
       id="clipPath65">
      <path
         d="m 3.125,9.375 h 806.25 v 1218.75 H 3.125 Z"
         transform="matrix(0.33893103,0,0,0.33893103,720.84722,5915.2633)"
         clip-rule="evenodd"
         id="path65" />
    </clipPath>
    <clipPath
       clipPathUnits="userSpaceOnUse"
       id="clipPath67">
      <path
         d="m 3.125,9.375 h 806.25 v 1218.75 H 3.125 Z"
         transform="matrix(0.33893103,0,0,0.33893103,720.84722,5915.2633)"
         clip-rule="evenodd"
         id="path67" />
    </clipPath>
    <clipPath
       clipPathUnits="userSpaceOnUse"
       id="clipPath68">
      <path
         d="m 3.125,9.375 h 806.25 v 1218.75 H 3.125 Z"
         transform="matrix(0.33893103,0,0,0.33893103,-161.1372,-205.23615)"
         clip-rule="evenodd"
         id="path68" />
    </clipPath>
    <clipPath
       clipPathUnits="userSpaceOnUse"
       id="clipPath70">
      <path
         d="m 3.125,9.375 h 806.25 v 1218.75 H 3.125 Z"
         transform="matrix(0.33893103,0,0,0.33893103,720.84722,5915.2633)"
         clip-rule="evenodd"
         id="path70" />
    </clipPath>
    <clipPath
       clipPathUnits="userSpaceOnUse"
       id="clipPath72">
      <path
         d="m 3.125,9.375 h 806.25 v 1218.75 H 3.125 Z"
         transform="matrix(0.33893103,0,0,0.33893103,720.84722,5915.2633)"
         clip-rule="evenodd"
         id="path72" />
    </clipPath>
    <clipPath
       clipPathUnits="userSpaceOnUse"
       id="clipPath73">
      <path
         d="m 3.125,9.375 h 806.25 v 1218.75 H 3.125 Z"
         transform="matrix(0.33893103,0,0,0.33893103,-46.137202,-205.23615)"
         clip-rule="evenodd"
         id="path73" />
    </clipPath>
    <clipPath
       clipPathUnits="userSpaceOnUse"
       id="clipPath75">
      <path
         d="m 3.125,9.375 h 806.25 v 1218.75 H 3.125 Z"
         transform="matrix(0.33893103,0,0,0.33893103,720.84722,5915.2633)"
         clip-rule="evenodd"
         id="path75" />
    </clipPath>
    <clipPath
       clipPathUnits="userSpaceOnUse"
       id="clipPath76">
      <path
         d="m 3.125,9.375 h 806.25 v 1218.75 H 3.125 Z"
         transform="matrix(0.33893103,0,0,0.33893103,-116.30907,-81.236155)"
         clip-rule="evenodd"
         id="path76" />
    </clipPath>
    <clipPath
       clipPathUnits="userSpaceOnUse"
       id="clipPath78">
      <path
         d="m 3.125,9.375 h 806.25 v 1218.75 H 3.125 Z"
         transform="matrix(0.33893103,0,0,0.33893103,720.84722,5915.2633)"
         clip-rule="evenodd"
         id="path78" />
    </clipPath>
    <clipPath
       clipPathUnits="userSpaceOnUse"
       id="clipPath79">
      <path
         d="m 3.125,9.375 h 806.25 v 1218.75 H 3.125 Z"
         transform="matrix(0.33893103,0,0,0.33893103,-116.96532,-159.23616)"
         clip-rule="evenodd"
         id="path79" />
    </clipPath>
    <clipPath
       clipPathUnits="userSpaceOnUse"
       id="clipPath81">
      <path
         d="m 3.125,9.375 h 806.25 v 1218.75 H 3.125 Z"
         transform="matrix(0.33893103,0,0,0.33893103,720.84722,5915.2633)"
         clip-rule="evenodd"
         id="path81" />
    </clipPath>
    <clipPath
       clipPathUnits="userSpaceOnUse"
       id="clipPath83">
      <path
         d="m 3.125,9.375 h 806.25 v 1218.75 H 3.125 Z"
         transform="matrix(0.33893103,0,0,0.33893103,720.84722,5915.2633)"
         clip-rule="evenodd"
         id="path83" />
    </clipPath>
    <clipPath
       clipPathUnits="userSpaceOnUse"
       id="clipPath85">
      <path
         d="m 3.125,9.375 h 806.25 v 1218.75 H 3.125 Z"
         transform="matrix(0.33893103,0,0,0.33893103,720.84722,5915.2633)"
         clip-rule="evenodd"
         id="path85" />
    </clipPath>
  </defs>
  <g
     id="g1">
    <path
       id="path1"
       d="M 0,0 H 260 V 396 H 0 Z"
       style="fill:#ffffff;fill-opacity:1;fill-rule:nonzero;stroke:none"
       clip-path="url(#clipPath2)" />
    <path
       id="path3"
       d="m 861.03003,5940 c -6e-5,0.6563 -0.0642,1.3062 -0.19226,1.9502 -0.12811,0.644 -0.31781,1.269 -0.56909,1.876 -0.25128,0.6069 -0.55927,1.1831 -0.92401,1.729 -0.36481,0.5459 -0.77936,1.0512 -1.2436,1.5156 -0.46435,0.4644 -0.96954,0.8784 -1.5155,1.2432 -0.54596,0.3647 -1.12225,0.6723 -1.72888,0.9238 -0.60663,0.2515 -1.23193,0.4414 -1.87586,0.5693 -0.64398,0.1284 -1.29425,0.1924 -1.9508,0.1929 -0.65662,-5e-4 -1.30695,-0.065 -1.95093,-0.1929 -0.64398,-0.1279 -1.26935,-0.3178 -1.87604,-0.5693 -0.60662,-0.2515 -1.18292,-0.5591 -1.72888,-0.9238 -0.54596,-0.3648 -1.05102,-0.7788 -1.51532,-1.2432 -0.46429,-0.4644 -0.8789,-0.9697 -1.24371,-1.5156 -0.36475,-0.5459 -0.67279,-1.1221 -0.92407,-1.729 -0.25129,-0.607 -0.44092,-1.232 -0.56903,-1.8755 -0.12806,-0.6441 -0.19208,-1.2944 -0.19202,-1.9507 -6e-5,-0.6567 0.064,-1.3076 0.19202,-1.9517 0.12811,-0.644 0.31781,-1.269 0.56909,-1.8759 0.25128,-0.607 0.55932,-1.1831 0.92413,-1.729 0.36475,-0.5459 0.7793,-1.0508 1.24359,-1.5152 0.4643,-0.4643 0.96936,-0.8784 1.51532,-1.2431 0.54596,-0.3648 1.12232,-0.6729 1.72895,-0.9244 0.60662,-0.2509 1.23199,-0.4404 1.87597,-0.5688 0.64398,-0.1279 1.29431,-0.1919 1.95093,-0.1919 0.65655,0 1.30682,0.064 1.9508,0.1914 0.64399,0.1284 1.26929,0.3179 1.87592,0.5689 0.60663,0.2514 1.18286,0.5595 1.72882,0.9243 0.54596,0.3647 1.05115,0.7793 1.5155,1.2436 0.46424,0.4644 0.87879,0.9693 1.2436,1.5152 0.36474,0.5459 0.67273,1.122 0.92401,1.729 0.25128,0.6069 0.44098,1.2319 0.56915,1.8759 0.12811,0.6441 0.19214,1.295 0.1922,1.9517 z"
       style="fill:#000000;fill-opacity:1;fill-rule:nonzero;stroke:#000000;stroke-width:1;stroke-linecap:butt;stroke-linejoin:miter;stroke-miterlimit:10;stroke-dasharray:none;stroke-opacity:1"
       transform="matrix(0.94414486,0,0,0.94414486,-680.5842,-5584.8654)"
       clip-path="url(#clipPath4)" />
    <g
       id="g4" />
    <text
       id="text4"
       xml:space="preserve"
       transform="matrix(0.94414486,0,0,0.94414486,149.62898,25.714876)"
       clip-path="url(#clipPath5)"><tspan
         id="tspan4"
         style="font-variant:normal;font-weight:normal;font-size:12px;font-family:Arial;writing-mode:lr-tb;fill:#000000;fill-opacity:1;fill-rule:nonzero;stroke:none"
         x="0"
         y="0"> </tspan></text>
    <path
       id="path6"
       d="m 851.53003,5950.001 -0.005,3 h -1 l 0.005,-3 m 0.9892,6.002 -0.005,3 h -1 l 0.005,-3 m 0.98919,6.002 -0.005,3 h -1 l 0.005,-3 m 0.98914,6.002 -0.005,3 h -1 l 0.005,-3 m 0.9892,6.002 -0.005,3 h -1 l 0.005,-3"
       style="fill:#000000;fill-opacity:1;fill-rule:nonzero;stroke:none"
       transform="matrix(0.94414486,0,0,0.94414486,-680.5842,-5584.8654)"
       clip-path="url(#clipPath7)" />
    <path
       id="path8"
       d="m 846.48999,5969.8701 4.47998,9.0098 4.52002,-8.9898"
       style="fill:none;stroke:#000000;stroke-width:1;stroke-linecap:butt;stroke-linejoin:miter;stroke-miterlimit:10;stroke-dasharray:none;stroke-opacity:1"
       transform="matrix(0.94414486,0,0,0.94414486,-680.5842,-5584.8654)"
       clip-path="url(#clipPath9)" />
    <path
       id="path10"
       d="m 738.46997,6010 h 90 c 0.66296,0 1.30072,0.1265 1.91333,0.3799 0.61261,0.2539 1.15332,0.6152 1.62219,1.0845 0.46875,0.4687 0.83002,1.0092 1.0838,1.6215 0.25373,0.6128 0.38062,1.251 0.38068,1.9141 v 30 c -6e-5,0.6626 -0.12695,1.3003 -0.38074,1.9131 -0.25372,0.6123 -0.61499,1.1528 -1.08374,1.6221 -0.46887,0.4682 -1.00958,0.8295 -1.62219,1.0835 -0.61261,0.2534 -1.25037,0.3808 -1.91333,0.3813 h -90 c -0.66309,-5e-4 -1.3009,-0.1279 -1.91351,-0.3813 -0.61255,-0.254 -1.15326,-0.6153 -1.62207,-1.0835 -0.46887,-0.4693 -0.83014,-1.0098 -1.08387,-1.6221 -0.25372,-0.6128 -0.38061,-1.2505 -0.38055,-1.9131 v -30 c -6e-5,-0.6631 0.12677,-1.3008 0.38049,-1.9136 0.25373,-0.6128 0.61506,-1.1533 1.08393,-1.622 0.46881,-0.4693 1.00952,-0.8306 1.62207,-1.0845 0.61261,-0.2534 1.25042,-0.3799 1.91351,-0.3799 z"
       style="fill:#ffffff;fill-opacity:1;fill-rule:nonzero;stroke:#000000;stroke-width:1;stroke-linecap:butt;stroke-linejoin:miter;stroke-miterlimit:10;stroke-dasharray:none;stroke-opacity:1"
       transform="matrix(0.94414486,0,0,0.94414486,-680.5842,-5584.8654)"
       clip-path="url(#clipPath11)" />
    <text
       id="text11"
       xml:space="preserve"
       transform="matrix(0.94414486,0,0,0.94414486,30.120886,104.0789)"
       clip-path="url(#clipPath12)"><tspan
         id="tspan11"
         style="font-variant:normal;font-weight:normal;font-size:16px;font-family:Arial;writing-mode:lr-tb;fill:#000000;fill-opacity:1;fill-rule:nonzero;stroke:none"
         x="0"
         y="0">«action»</tspan></text>
    <text
       id="text12"
       xml:space="preserve"
       transform="matrix(0.94414486,0,0,0.94414486,34.325285,122.9618)"
       clip-path="url(#clipPath13)"><tspan
         id="tspan12"
         style="font-variant:normal;font-weight:normal;font-size:16px;font-family:Arial;writing-mode:lr-tb;fill:#000000;fill-opacity:1;fill-rule:nonzero;stroke:none"
         x="0"
         y="0">action1</tspan></text>
    <path
       id="path14"
       d="m 873.39001,6010 h 90 c 0.66291,0 1.30066,0.1265 1.91327,0.3799 0.61261,0.2539 1.15332,0.6152 1.62226,1.0845 0.46875,0.4687 0.83001,1.0092 1.0838,1.6215 0.25372,0.6128 0.38061,1.251 0.38067,1.9141 v 30 c -6e-5,0.6626 -0.12701,1.3003 -0.38073,1.9131 -0.25373,0.6123 -0.61499,1.1528 -1.08374,1.6221 -0.46894,0.4682 -1.00965,0.8295 -1.62226,1.0835 -0.61261,0.2534 -1.25036,0.3808 -1.91327,0.3813 h -90 c -0.66314,-5e-4 -1.30096,-0.1279 -1.91351,-0.3813 -0.61261,-0.254 -1.15326,-0.6153 -1.62201,-1.0835 -0.46893,-0.4693 -0.83026,-1.0098 -1.08398,-1.6221 -0.25373,-0.6128 -0.38056,-1.2505 -0.3805,-1.9131 v -30 c -6e-5,-0.6631 0.12677,-1.3008 0.3805,-1.9136 0.25372,-0.6128 0.61505,-1.1533 1.08398,-1.622 0.46875,-0.4693 1.0094,-0.8306 1.62201,-1.0845 0.61255,-0.2534 1.25037,-0.3799 1.91351,-0.3799 z"
       style="fill:#ffffff;fill-opacity:1;fill-rule:nonzero;stroke:#000000;stroke-width:1;stroke-linecap:butt;stroke-linejoin:miter;stroke-miterlimit:10;stroke-dasharray:none;stroke-opacity:1"
       transform="matrix(0.94414486,0,0,0.94414486,-680.5842,-5584.8654)"
       clip-path="url(#clipPath15)" />
    <text
       id="text15"
       xml:space="preserve"
       transform="matrix(0.94414486,0,0,0.94414486,157.58044,104.0789)"
       clip-path="url(#clipPath16)"><tspan
         id="tspan15"
         style="font-variant:normal;font-weight:normal;font-size:16px;font-family:Arial;writing-mode:lr-tb;fill:#000000;fill-opacity:1;fill-rule:nonzero;stroke:none"
         x="0"
         y="0">«action»</tspan></text>
    <text
       id="text16"
       xml:space="preserve"
       transform="matrix(0.94414486,0,0,0.94414486,161.78484,122.9618)"
       clip-path="url(#clipPath17)"><tspan
         id="tspan16"
         style="font-variant:normal;font-weight:normal;font-size:16px;font-family:Arial;writing-mode:lr-tb;fill:#000000;fill-opacity:1;fill-rule:nonzero;stroke:none"
         x="0"
         y="0">action2</tspan></text>
    <path
       id="path18"
       d="m 783.96997,5985 v 3 h -1 v -3 m 1,6 v 3 h -1 v -3 m 1,6 v 3 h -1 v -3 m 1,6 v 3 h -1 v -3"
       style="fill:#000000;fill-opacity:1;fill-rule:nonzero;stroke:none"
       transform="matrix(0.94414486,0,0,0.94414486,-680.5842,-5584.8654)"
       clip-path="url(#clipPath19)" />
    <path
       id="path20"
       d="m 778.96997,5999.8799 4.5,9 4.5,-9"
       style="fill:none;stroke:#000000;stroke-width:1;stroke-linecap:butt;stroke-linejoin:miter;stroke-miterlimit:10;stroke-dasharray:none;stroke-opacity:1"
       transform="matrix(0.94414486,0,0,0.94414486,-680.5842,-5584.8654)"
       clip-path="url(#clipPath21)" />
    <path
       id="path22"
       d="m 918.96997,5985.0015 -0.009,3 h -1 l 0.009,-3 m 0.98157,6.003 -0.009,3 h -1 l 0.009,-3 m 0.98157,6.003 -0.009,3 h -1 l 0.009,-3 m 0.98156,6.003 -0.009,3 h -1 l 0.009,-3"
       style="fill:#000000;fill-opacity:1;fill-rule:nonzero;stroke:none"
       transform="matrix(0.94414486,0,0,0.94414486,-680.5842,-5584.8654)"
       clip-path="url(#clipPath23)" />
    <path
       id="path24"
       d="m 913.91998,5999.8701 4.47003,9.0098 4.52997,-8.98"
       style="fill:none;stroke:#000000;stroke-width:1;stroke-linecap:butt;stroke-linejoin:miter;stroke-miterlimit:10;stroke-dasharray:none;stroke-opacity:1"
       transform="matrix(0.94414486,0,0,0.94414486,-680.5842,-5584.8654)"
       clip-path="url(#clipPath25)" />
    <path
       id="path26"
       d="m 783.96997,6050 v 3 h -1 v -3 m 1,6 v 3 h -1 v -3 m 1,6 v 3 h -1 v -3 m 1,6 v 3 h -1 v -3 m 1,6 v 3 h -1 v -3"
       style="fill:#000000;fill-opacity:1;fill-rule:nonzero;stroke:none"
       transform="matrix(0.94414486,0,0,0.94414486,-680.5842,-5584.8654)"
       clip-path="url(#clipPath27)" />
    <path
       id="path28"
       d="m 778.96997,6069.8799 4.5,9 4.5,-9"
       style="fill:none;stroke:#000000;stroke-width:1;stroke-linecap:butt;stroke-linejoin:miter;stroke-miterlimit:10;stroke-dasharray:none;stroke-opacity:1"
       transform="matrix(0.94414486,0,0,0.94414486,-680.5842,-5584.8654)"
       clip-path="url(#clipPath29)" />
    <path
       id="path30"
       d="m 918.89001,6049.9985 0.009,3 h -1 l -0.009,-3 m 1.01728,5.997 0.009,3 h -1 l -0.009,-3 m 1.01727,5.997 0.009,3 h -1 l -0.009,-3 m 1.01727,5.997 0.009,3 h -1 l -0.009,-3 m 1.01734,5.997 0.009,3 h -1 l -0.009,-3"
       style="fill:#000000;fill-opacity:1;fill-rule:nonzero;stroke:none"
       transform="matrix(0.94414486,0,0,0.94414486,-680.5842,-5584.8654)"
       clip-path="url(#clipPath31)" />
    <path
       id="path32"
       d="m 913.94,6069.8901 4.52997,8.9898 4.47003,-9.0098"
       style="fill:none;stroke:#000000;stroke-width:1;stroke-linecap:butt;stroke-linejoin:miter;stroke-miterlimit:10;stroke-dasharray:none;stroke-opacity:1"
       transform="matrix(0.94414486,0,0,0.94414486,-680.5842,-5584.8654)"
       clip-path="url(#clipPath33)" />
    <path
       id="path34"
       d="m 851.46997,6110 15.5,15.5 -15.5,15.5 -15.5,-15.5 z"
       style="fill:#ffffff;fill-opacity:1;fill-rule:nonzero;stroke:#000000;stroke-width:1;stroke-linecap:butt;stroke-linejoin:miter;stroke-miterlimit:10;stroke-dasharray:none;stroke-opacity:1"
       transform="matrix(0.94414486,0,0,0.94414486,-680.5842,-5584.8654)"
       clip-path="url(#clipPath35)" />
    <text
       id="text35"
       xml:space="preserve"
       transform="matrix(0.94414486,0,0,0.94414486,98.954947,227.76188)"
       clip-path="url(#clipPath36)"><tspan
         id="tspan35"
         style="font-variant:normal;font-weight:normal;font-size:12px;font-family:Arial;writing-mode:lr-tb;fill:#000000;fill-opacity:1;fill-rule:nonzero;stroke:none"
         x="0"
         y="0">decision1</tspan></text>
    <path
       id="path37"
       d="m 851.46985,6084.9902 0.0593,2.9995 -0.99975,0.02 -0.0593,-2.9995 m 1.11835,5.9795 0.0593,2.999 -0.99976,0.02 -0.0593,-2.999 m 1.11841,5.979 0.0593,2.9995 -0.99976,0.02 -0.0593,-2.9995 m 1.11834,5.9795 0.0593,2.9995 -0.99976,0.02 -0.0593,-2.9996"
       style="fill:#000000;fill-opacity:1;fill-rule:nonzero;stroke:none"
       transform="matrix(0.94414486,0,0,0.94414486,-680.5842,-5584.8654)"
       clip-path="url(#clipPath38)" />
    <path
       id="path39"
       d="m 846.77002,6099.9702 4.67999,8.9097 4.32001,-9.0899"
       style="fill:none;stroke:#000000;stroke-width:1;stroke-linecap:butt;stroke-linejoin:miter;stroke-miterlimit:10;stroke-dasharray:none;stroke-opacity:1"
       transform="matrix(0.94414486,0,0,0.94414486,-680.5842,-5584.8654)"
       clip-path="url(#clipPath40)" />
    <path
       id="path41"
       d="m 738.46997,6170 h 90 c 0.66296,0 1.30072,0.1265 1.91333,0.3799 0.61261,0.2534 1.15332,0.6147 1.62219,1.084 0.46875,0.4682 0.83002,1.0088 1.0838,1.6215 0.25373,0.6128 0.38062,1.251 0.38068,1.9146 v 30 c -6e-5,0.6626 -0.12695,1.3003 -0.38074,1.9126 -0.25372,0.6128 -0.61499,1.1533 -1.08374,1.6226 -0.46887,0.4682 -1.00958,0.8295 -1.62219,1.083 -0.61261,0.2539 -1.25037,0.3813 -1.91333,0.3818 h -90 c -0.66309,-5e-4 -1.3009,-0.1279 -1.91351,-0.3818 -0.61255,-0.2535 -1.15326,-0.6148 -1.62207,-1.083 -0.46887,-0.4693 -0.83014,-1.0098 -1.08387,-1.6226 -0.25372,-0.6123 -0.38061,-1.25 -0.38055,-1.9126 v -30 c -6e-5,-0.6636 0.12677,-1.3018 0.38049,-1.9146 0.25373,-0.6127 0.61506,-1.1533 1.08393,-1.6215 0.46881,-0.4693 1.00952,-0.8306 1.62207,-1.084 0.61261,-0.2534 1.25042,-0.3799 1.91351,-0.3799 z"
       style="fill:#ffffff;fill-opacity:1;fill-rule:nonzero;stroke:#000000;stroke-width:1;stroke-linecap:butt;stroke-linejoin:miter;stroke-miterlimit:10;stroke-dasharray:none;stroke-opacity:1"
       transform="matrix(0.94414486,0,0,0.94414486,-680.5842,-5584.8654)"
       clip-path="url(#clipPath42)" />
    <text
       id="text42"
       xml:space="preserve"
       transform="matrix(0.94414486,0,0,0.94414486,30.120886,255.14208)"
       clip-path="url(#clipPath43)"><tspan
         id="tspan42"
         style="font-variant:normal;font-weight:normal;font-size:16px;font-family:Arial;writing-mode:lr-tb;fill:#000000;fill-opacity:1;fill-rule:nonzero;stroke:none"
         x="0"
         y="0">«action»</tspan></text>
    <text
       id="text43"
       xml:space="preserve"
       transform="matrix(0.94414486,0,0,0.94414486,34.325285,274.02497)"
       clip-path="url(#clipPath44)"><tspan
         id="tspan43"
         style="font-variant:normal;font-weight:normal;font-size:16px;font-family:Arial;writing-mode:lr-tb;fill:#000000;fill-opacity:1;fill-rule:nonzero;stroke:none"
         x="0"
         y="0">action3</tspan></text>
    <path
       id="path45"
       d="m 877.39001,6170 h 90 c 0.66303,0 1.30079,0.1265 1.9134,0.3799 0.61254,0.2534 1.15326,0.6147 1.62213,1.084 0.46881,0.4682 0.83008,1.0088 1.0838,1.6215 0.25372,0.6128 0.38061,1.251 0.38067,1.9146 v 30 c -6e-5,0.6626 -0.12701,1.3003 -0.38073,1.9126 -0.25373,0.6128 -0.61493,1.1533 -1.08374,1.6226 -0.46887,0.4682 -1.00959,0.8295 -1.6222,1.083 -0.61254,0.2539 -1.2503,0.3813 -1.91333,0.3818 h -90 c -0.66308,-5e-4 -1.3009,-0.1279 -1.91351,-0.3818 -0.61261,-0.2535 -1.15326,-0.6148 -1.62207,-1.083 -0.46893,-0.4693 -0.8302,-1.0098 -1.08392,-1.6226 -0.25373,-0.6123 -0.38056,-1.25 -0.3805,-1.9126 v -30 c -6e-5,-0.6636 0.12677,-1.3018 0.3805,-1.9146 0.25372,-0.6127 0.61499,-1.1533 1.08392,-1.6215 0.46881,-0.4693 1.00946,-0.8306 1.62207,-1.084 0.61261,-0.2534 1.25043,-0.3799 1.91351,-0.3799 z"
       style="fill:#ffffff;fill-opacity:1;fill-rule:nonzero;stroke:#000000;stroke-width:1;stroke-linecap:butt;stroke-linejoin:miter;stroke-miterlimit:10;stroke-dasharray:none;stroke-opacity:1"
       transform="matrix(0.94414486,0,0,0.94414486,-680.5842,-5584.8654)"
       clip-path="url(#clipPath46)" />
    <text
       id="text46"
       xml:space="preserve"
       transform="matrix(0.94414486,0,0,0.94414486,161.35702,255.14208)"
       clip-path="url(#clipPath47)"><tspan
         id="tspan46"
         style="font-variant:normal;font-weight:normal;font-size:16px;font-family:Arial;writing-mode:lr-tb;fill:#000000;fill-opacity:1;fill-rule:nonzero;stroke:none"
         x="0"
         y="0">«action»</tspan></text>
    <text
       id="text47"
       xml:space="preserve"
       transform="matrix(0.94414486,0,0,0.94414486,165.56142,274.02497)"
       clip-path="url(#clipPath48)"><tspan
         id="tspan47"
         style="font-variant:normal;font-weight:normal;font-size:16px;font-family:Arial;writing-mode:lr-tb;fill:#000000;fill-opacity:1;fill-rule:nonzero;stroke:none"
         x="0"
         y="0">action4</tspan></text>
    <path
       id="path49"
       d="m 850.03003,6237 15.5,15.5 -15.5,15.5 -15.5,-15.5 z"
       style="fill:#ffffff;fill-opacity:1;fill-rule:nonzero;stroke:#000000;stroke-width:1;stroke-linecap:butt;stroke-linejoin:miter;stroke-miterlimit:10;stroke-dasharray:none;stroke-opacity:1"
       transform="matrix(0.94414486,0,0,0.94414486,-680.5842,-5584.8654)"
       clip-path="url(#clipPath50)" />
    <text
       id="text50"
       xml:space="preserve"
       transform="matrix(0.94414486,0,0,0.94414486,102.73153,297.62859)"
       clip-path="url(#clipPath51)"><tspan
         id="tspan50"
         style="font-variant:normal;font-weight:normal;font-size:12px;font-family:Arial;writing-mode:lr-tb;fill:#000000;fill-opacity:1;fill-rule:nonzero;stroke:none"
         x="0"
         y="0">merge1</tspan></text>
    <path
       id="path52"
       d="m 922.89001,6210 8e-4,3 h -1 l -8e-4,-3 z m 0.002,6 8e-4,3 h -1 l -8e-4,-3 z m 0.002,6 8.5e-4,3 h -1 l -8.5e-4,-3 z m 0.002,6 7.9e-4,3 h -1 l -7.9e-4,-3 z m 0.002,6 8e-4,3 h -1 l -8e-4,-3 z m 0.002,6 7.9e-4,3 h -1 l -7.9e-4,-3 z m 0.002,6 4.2e-4,1.5 c 0,0.6709 -0.0644,1.2813 -0.19317,1.8311 l -0.97363,-0.2276 c 0.1112,-0.4751 0.1668,-1.0093 0.1668,-1.6035 l -4.2e-4,-1.5 z m -1.81781,5.9712 c -0.80133,0.6064 -1.85297,0.9448 -3.15479,1.0151 l -0.0539,-0.999 c 1.09814,-0.059 1.96655,-0.3306 2.60522,-0.814 l 0.60352,0.7979 z M 914.80814,6253 h -3 v -1 h 3 z m -6,0 h -3 v -1 h 3 z m -6,0 h -3 v -1 h 3 z m -6,0 h -3 v -1 h 3 z m -6,0 h -3 v -1 h 3 z m -6,0 h -3 v -1 h 3 z m -6,0 h -3 v -1 h 3 z m -6,0 h -3 v -1 h 3 z"
       style="fill:#000000;fill-opacity:1;fill-rule:nonzero;stroke:none"
       transform="matrix(0.94414486,0,0,0.94414486,-680.5842,-5584.8654)"
       clip-path="url(#clipPath53)" />
    <path
       id="path54"
       d="m 875.65002,6248 -9,4.5 9,4.5"
       style="fill:none;stroke:#000000;stroke-width:1;stroke-linecap:butt;stroke-linejoin:miter;stroke-miterlimit:10;stroke-dasharray:none;stroke-opacity:1"
       transform="matrix(0.94414486,0,0,0.94414486,-680.5842,-5584.8654)"
       clip-path="url(#clipPath55)" />
    <path
       id="path56"
       d="m 783.96997,6209.9995 0.002,3 h -1 l -0.002,-3 z m 0.005,6 0.002,3 h -1 l -0.002,-3 z m 0.005,6 0.002,3 h -1 l -0.002,-3 z m 0.005,6 0.002,3 h -1 l -0.002,-3 z m 0.005,6 0.002,3 h -1 l -0.002,-3 z m 0.005,6 0.002,3 h -1 l -0.002,-3 z m 0.005,6 0.001,1.5 c 0,0.5943 0.0556,1.1289 0.16681,1.604 l -0.97363,0.2276 C 783.06439,6248.7813 783,6248.1709 783,6247.5005 l -10e-4,-1.5 h 1 z m 1.42297,5.1738 c 0.63867,0.4834 1.50708,0.7549 2.60523,0.814 l -0.054,0.999 c -1.30182,-0.07 -2.35345,-0.4087 -3.15478,-1.0151 l 0.60351,-0.7979 z m 5.67255,0.8267 h 3 v 1 h -3 z m 6,0 h 3 v 1 h -3 z m 6,0 h 3 v 1 h -3 z m 6,0 h 3 v 1 h -3 z m 6,0 h 3 v 1 h -3 z m 6,0 h 3 v 1 h -3 z m 6,0 h 3 v 1 h -3 z"
       style="fill:#000000;fill-opacity:1;fill-rule:nonzero;stroke:none"
       transform="matrix(0.94414486,0,0,0.94414486,-680.5842,-5584.8654)"
       clip-path="url(#clipPath57)" />
    <path
       id="path58"
       d="m 824.40997,6257 9,-4.5 -9,-4.5"
       style="fill:none;stroke:#000000;stroke-width:1;stroke-linecap:butt;stroke-linejoin:miter;stroke-miterlimit:10;stroke-dasharray:none;stroke-opacity:1"
       transform="matrix(0.94414486,0,0,0.94414486,-680.5842,-5584.8654)"
       clip-path="url(#clipPath59)" />
    <path
       id="path60"
       d="m 850.53003,6268.0015 -0.008,3 h -1 l 0.008,-3 m 0.98486,6.003 -0.008,3 h -1 l 0.008,-3 m 0.9848,6.003 -0.008,3 h -1 l 0.008,-3 m 0.98487,6.003 -0.008,3 h -1 l 0.008,-3"
       style="fill:#000000;fill-opacity:1;fill-rule:nonzero;stroke:none"
       transform="matrix(0.94414486,0,0,0.94414486,-680.5842,-5584.8654)"
       clip-path="url(#clipPath61)" />
    <path
       id="path62"
       d="m 845.48999,6283.8701 4.47998,9.0098 4.52002,-8.9898"
       style="fill:none;stroke:#000000;stroke-width:1;stroke-linecap:butt;stroke-linejoin:miter;stroke-miterlimit:10;stroke-dasharray:none;stroke-opacity:1"
       transform="matrix(0.94414486,0,0,0.94414486,-680.5842,-5584.8654)"
       clip-path="url(#clipPath63)" />
    <path
       id="path64"
       d="m 866.96997,6125 h 3 v 1 h -3 z m 6,0 h 3 v 1 h -3 z m 6,0 h 3 v 1 h -3 z m 6,0 h 3 v 1 h -3 z m 6,0 h 3 v 1 h -3 z m 6,0 h 3 v 1 h -3 z m 6,0 h 3 v 1 h -3 z m 6,0 h 3 v 1 h -3 z m 6,0 h 2.43005 c 0.25342,0 0.49793,0.01 0.73352,0.027 l -0.0771,0.9971 c -0.21039,-0.016 -0.42914,-0.024 -0.65638,-0.024 h -2.43005 v -1 z m 6.24402,1.1338 c 0.78497,0.6465 1.29602,1.5532 1.53326,2.7197 l -0.97998,0.1992 c -0.19018,-0.9355 -0.58654,-1.6513 -1.18902,-2.1474 z m 1.68561,6.0303 -8.6e-4,3 h -1 l 8.6e-4,-3 z m -0.002,6 -7.9e-4,3 h -1 l 7.9e-4,-3 z m -0.002,6 -7.9e-4,3 h -1 l 7.9e-4,-3 z m -0.002,6 -7.9e-4,3 h -1 l 7.9e-4,-3 z m -0.002,6 -8e-4,3 h -1 l 8e-4,-3 z m -0.002,6 -8.5e-4,3 h -1 l 8.5e-4,-3 z"
       style="fill:#000000;fill-opacity:1;fill-rule:nonzero;stroke:none"
       transform="matrix(0.94414486,0,0,0.94414486,-680.5842,-5584.8654)"
       clip-path="url(#clipPath65)" />
    <path
       id="path66"
       d="m 917.89001,6159.8799 4.5,9 4.5,-9"
       style="fill:none;stroke:#000000;stroke-width:1;stroke-linecap:butt;stroke-linejoin:miter;stroke-miterlimit:10;stroke-dasharray:none;stroke-opacity:1"
       transform="matrix(0.94414486,0,0,0.94414486,-680.5842,-5584.8654)"
       clip-path="url(#clipPath67)" />
    <text
       id="text67"
       xml:space="preserve"
       transform="matrix(0.94414486,0,0,0.94414486,152.13686,193.77266)"
       clip-path="url(#clipPath68)"><tspan
         id="tspan67"
         style="font-variant:normal;font-weight:normal;font-size:12px;font-family:Arial;writing-mode:lr-tb;fill:#000000;fill-opacity:1;fill-rule:nonzero;stroke:none"
         x="0"
         y="0">[guard1]</tspan></text>
    <path
       id="path69"
       d="m 835.96997,6126 h -3 v -1 h 3 z m -6,0 h -3 v -1 h 3 z m -6,0 h -3 v -1 h 3 z m -6,0 h -3 v -1 h 3 z m -6,0 h -3 v -1 h 3 z m -6,0 h -3 v -1 h 3 z m -6,0 h -3 v -1 h 3 z m -6,0 h -3 v -1 h 3 z m -6.08203,0.021 c -1.07587,0.078 -1.92328,0.3657 -2.5423,0.8652 l -0.62781,-0.7783 c 0.78119,-0.6304 1.81397,-0.9917 3.09833,-1.084 l 0.0718,0.9971 z m -3.74731,2.9932 C 784.04688,6129.4595 784,6129.9546 784,6130.5 l -10e-4,1.625 h -1 l 10e-4,-1.624 c 0,-0.6147 0.054,-1.1787 0.16211,-1.6919 l 0.97852,0.2061 z m -0.14435,6.1108 -0.002,3 h -1 l 0.002,-3 z m -0.005,6 -0.002,3 h -1 l 0.002,-3 z m -0.005,6 -0.002,3 h -1 l 0.002,-3 z m -0.005,6 -0.002,3 h -1 l 0.002,-3 z m -0.005,6 -0.002,3 h -1 l 0.002,-3 z m -0.005,6 -0.002,2.6353 h -1 l 0.002,-2.6353 z"
       style="fill:#000000;fill-opacity:1;fill-rule:nonzero;stroke:none"
       transform="matrix(0.94414486,0,0,0.94414486,-680.5842,-5584.8654)"
       clip-path="url(#clipPath70)" />
    <path
       id="path71"
       d="m 778.97998,6159.8799 4.48999,9 4.51001,-8.9898"
       style="fill:none;stroke:#000000;stroke-width:1;stroke-linecap:butt;stroke-linejoin:miter;stroke-miterlimit:10;stroke-dasharray:none;stroke-opacity:1"
       transform="matrix(0.94414486,0,0,0.94414486,-680.5842,-5584.8654)"
       clip-path="url(#clipPath72)" />
    <text
       id="text72"
       xml:space="preserve"
       transform="matrix(0.94414486,0,0,0.94414486,43.560202,193.77266)"
       clip-path="url(#clipPath73)"><tspan
         id="tspan72"
         style="font-variant:normal;font-weight:normal;font-size:12px;font-family:Arial;writing-mode:lr-tb;fill:#000000;fill-opacity:1;fill-rule:nonzero;stroke:none"
         x="0"
         y="0">[guard2]</tspan></text>
    <path
       id="path74"
       d="m 776.71997,5980 h 148.5 c 0.20709,0 0.38385,0.073 0.53027,0.2192 0.14643,0.146 0.21967,0.3233 0.21973,0.5308 v 3.5 c -6e-5,0.207 -0.0733,0.3838 -0.21973,0.5298 -0.14642,0.1465 -0.32318,0.2197 -0.53027,0.2202 h -148.5 c -0.20715,-5e-4 -0.38397,-0.074 -0.53039,-0.2202 -0.14643,-0.146 -0.21967,-0.3228 -0.21961,-0.5298 v -3.5 c -6e-5,-0.2075 0.0732,-0.3848 0.21961,-0.5308 0.14642,-0.146 0.32324,-0.2192 0.53039,-0.2192 z"
       style="fill:#000000;fill-opacity:1;fill-rule:nonzero;stroke:#000000;stroke-width:1;stroke-linecap:butt;stroke-linejoin:miter;stroke-miterlimit:10;stroke-dasharray:none;stroke-opacity:1"
       transform="matrix(0.94414486,0,0,0.94414486,-680.5842,-5584.8654)"
       clip-path="url(#clipPath75)" />
    <text
       id="text75"
       xml:space="preserve"
       transform="matrix(0.94414486,0,0,0.94414486,109.81261,76.698698)"
       clip-path="url(#clipPath76)"><tspan
         id="tspan75"
         style="font-variant:normal;font-weight:normal;font-size:12px;font-family:Arial;writing-mode:lr-tb;fill:#000000;fill-opacity:1;fill-rule:nonzero;stroke:none"
         x="0"
         y="0">fork1</tspan></text>
    <path
       id="path77"
       d="m 776.71997,6080 h 148.5 c 0.20709,0 0.38385,0.073 0.53027,0.2192 0.14643,0.1465 0.21967,0.3233 0.21973,0.5308 v 3.5 c -6e-5,0.2065 -0.0733,0.3833 -0.21973,0.5298 -0.14642,0.146 -0.32318,0.2197 -0.53027,0.2202 h -148.5 c -0.20715,-5e-4 -0.38397,-0.074 -0.53039,-0.2202 -0.14643,-0.1465 -0.21967,-0.3233 -0.21961,-0.5298 v -3.5 c -6e-5,-0.2075 0.0732,-0.3843 0.21961,-0.5308 0.14642,-0.146 0.32324,-0.2192 0.53039,-0.2192 z"
       style="fill:#000000;fill-opacity:1;fill-rule:nonzero;stroke:#000000;stroke-width:1;stroke-linecap:butt;stroke-linejoin:miter;stroke-miterlimit:10;stroke-dasharray:none;stroke-opacity:1"
       transform="matrix(0.94414486,0,0,0.94414486,-680.5842,-5584.8654)"
       clip-path="url(#clipPath78)" />
    <text
       id="text78"
       xml:space="preserve"
       transform="matrix(0.94414486,0,0,0.94414486,110.43221,150.342)"
       clip-path="url(#clipPath79)"><tspan
         id="tspan78"
         style="font-variant:normal;font-weight:normal;font-size:12px;font-family:Arial;writing-mode:lr-tb;fill:#000000;fill-opacity:1;fill-rule:nonzero;stroke:none"
         x="0"
         y="0">join1</tspan></text>
    <path
       id="path80"
       d="m 862.96997,6307 c -6e-5,0.853 -0.0833,1.6982 -0.24988,2.5352 -0.1665,0.8374 -0.41308,1.6503 -0.73974,2.4389 -0.32666,0.7886 -0.72712,1.5376 -1.20136,2.2476 -0.47424,0.7095 -1.01312,1.3662 -1.6167,1.9697 -0.60357,0.6035 -1.26025,1.1426 -1.97003,1.6167 -0.70978,0.4741 -1.45892,0.8745 -2.24756,1.2012 -0.78857,0.3266 -1.60144,0.5732 -2.43866,0.7397 -0.83722,0.167 -1.68255,0.2505 -2.53607,0.251 -0.85364,-5e-4 -1.69903,-0.084 -2.53619,-0.2505 -0.83722,-0.167 -1.65009,-0.4136 -2.43872,-0.7402 -0.78864,-0.3267 -1.53778,-0.7276 -2.24756,-1.2017 -0.70978,-0.4741 -1.3664,-1.0127 -1.96997,-1.6162 -0.60358,-0.6035 -1.14252,-1.2602 -1.6167,-1.9697 -0.47425,-0.71 -0.8747,-1.459 -1.20136,-2.2476 -0.32666,-0.7886 -0.57324,-1.6015 -0.73974,-2.4389 -0.16651,-0.837 -0.24976,-1.6822 -0.24976,-2.5352 0,-0.854 0.0833,-1.6997 0.24976,-2.5371 0.1665,-0.8374 0.41308,-1.6504 0.73974,-2.439 0.32666,-0.7885 0.72711,-1.5381 1.20136,-2.2475 0.47418,-0.7095 1.01312,-1.3662 1.6167,-1.9698 0.60357,-0.603 1.26019,-1.142 1.96991,-1.6167 0.70977,-0.4741 1.45892,-0.8745 2.24756,-1.2011 0.78863,-0.3267 1.60156,-0.5728 2.43878,-0.7393 0.83716,-0.1665 1.68255,-0.2495 2.53619,-0.2495 0.85352,0 1.69891,0.083 2.53613,0.2495 0.83716,0.1665 1.65003,0.4131 2.43866,0.7398 0.78864,0.3266 1.53778,0.727 2.24756,1.2011 0.70972,0.4742 1.3664,1.0132 1.96997,1.6162 0.60358,0.6036 1.14246,1.2598 1.61664,1.9693 0.4743,0.7099 0.87476,1.4595 1.20142,2.248 0.32666,0.7886 0.57324,1.6021 0.7398,2.4395 0.16651,0.8369 0.24976,1.6826 0.24982,2.5366 z"
       style="fill:#ffffff;fill-opacity:1;fill-rule:nonzero;stroke:#000000;stroke-width:1;stroke-linecap:butt;stroke-linejoin:miter;stroke-miterlimit:10;stroke-dasharray:none;stroke-opacity:1"
       transform="matrix(0.94414486,0,0,0.94414486,-680.5842,-5584.8654)"
       clip-path="url(#clipPath81)" />
    <path
       id="path82"
       d="m 840.73999,6297.77 18.46002,18.46"
       style="fill:none;stroke:#000000;stroke-width:1;stroke-linecap:butt;stroke-linejoin:miter;stroke-miterlimit:10;stroke-dasharray:none;stroke-opacity:1"
       transform="matrix(0.94414486,0,0,0.94414486,-680.5842,-5584.8654)"
       clip-path="url(#clipPath83)" />
    <path
       id="path84"
       d="m 859.20001,6297.77 -18.46002,18.46"
       style="fill:none;stroke:#000000;stroke-width:1;stroke-linecap:butt;stroke-linejoin:miter;stroke-miterlimit:10;stroke-dasharray:none;stroke-opacity:1"
       transform="matrix(0.94414486,0,0,0.94414486,-680.5842,-5584.8654)"
       clip-path="url(#clipPath85)" />
  </g>
</svg>
