<?xml version="1.0" encoding="UTF-8" standalone="no"?>
<!-- Created with Inkscape (http://www.inkscape.org/) -->

<svg
   version="1.1"
   id="svg1"
   width="289.28"
   height="252.16"
   viewBox="0 0 289.28 252.16"
   xmlns="http://www.w3.org/2000/svg"
   xmlns:svg="http://www.w3.org/2000/svg">
  <defs
     id="defs1">
    <clipPath
       clipPathUnits="userSpaceOnUse"
       id="clipPath2">
      <path
         d="M 0,0 H 905 V 789 H 0 Z"
         transform="scale(0.31999999)"
         clip-rule="evenodd"
         id="path2" />
    </clipPath>
    <clipPath
       clipPathUnits="userSpaceOnUse"
       id="clipPath4">
      <path
         d="m 3.125,3.125 h 900 v 781.25 h -900 z"
         transform="matrix(0.33836859,0,0,0.33836859,117.87717,-1093.1149)"
         clip-rule="evenodd"
         id="path4" />
    </clipPath>
    <clipPath
       clipPathUnits="userSpaceOnUse"
       id="clipPath5">
      <path
         d="m 3.125,3.125 h 900 v 781.25 h -900 z"
         transform="matrix(0.33836859,0,0,0.33836859,-107.65408,-20.614798)"
         clip-rule="evenodd"
         id="path5" />
    </clipPath>
    <clipPath
       clipPathUnits="userSpaceOnUse"
       id="clipPath6">
      <path
         d="m 3.125,3.125 h 900 v 781.25 h -900 z"
         transform="matrix(0.33836859,0,0,0.33836859,-110.99783,-20.614798)"
         clip-rule="evenodd"
         id="path6" />
    </clipPath>
    <clipPath
       clipPathUnits="userSpaceOnUse"
       id="clipPath7">
      <path
         d="m 3.125,3.125 h 900 v 781.25 h -900 z"
         transform="matrix(0.33836859,0,0,0.33836859,-4.6228334,-35.614798)"
         clip-rule="evenodd"
         id="path7" />
    </clipPath>
    <clipPath
       clipPathUnits="userSpaceOnUse"
       id="clipPath8">
      <path
         d="m 3.125,3.125 h 900 v 781.25 h -900 z"
         transform="matrix(0.33836859,0,0,0.33836859,-11.638459,-35.614798)"
         clip-rule="evenodd"
         id="path8" />
    </clipPath>
    <clipPath
       clipPathUnits="userSpaceOnUse"
       id="clipPath9">
      <path
         d="m 3.125,3.125 h 900 v 781.25 h -900 z"
         transform="matrix(0.33836859,0,0,0.33836859,-4.6228334,-52.614798)"
         clip-rule="evenodd"
         id="path9" />
    </clipPath>
    <clipPath
       clipPathUnits="userSpaceOnUse"
       id="clipPath10">
      <path
         d="m 3.125,3.125 h 900 v 781.25 h -900 z"
         transform="matrix(0.33836859,0,0,0.33836859,-142.71658,-52.614798)"
         clip-rule="evenodd"
         id="path10" />
    </clipPath>
    <clipPath
       clipPathUnits="userSpaceOnUse"
       id="clipPath11">
      <path
         d="m 3.125,3.125 h 900 v 781.25 h -900 z"
         transform="matrix(0.33836859,0,0,0.33836859,-4.6228334,-69.614798)"
         clip-rule="evenodd"
         id="path11" />
    </clipPath>
    <clipPath
       clipPathUnits="userSpaceOnUse"
       id="clipPath12">
      <path
         d="m 3.125,3.125 h 900 v 781.25 h -900 z"
         transform="matrix(0.33836859,0,0,0.33836859,-132.02908,-69.614798)"
         clip-rule="evenodd"
         id="path12" />
    </clipPath>
    <clipPath
       clipPathUnits="userSpaceOnUse"
       id="clipPath13">
      <path
         d="m 3.125,3.125 h 900 v 781.25 h -900 z"
         transform="matrix(0.33836859,0,0,0.33836859,-185.38847,-69.614798)"
         clip-rule="evenodd"
         id="path13" />
    </clipPath>
    <clipPath
       clipPathUnits="userSpaceOnUse"
       id="clipPath14">
      <path
         d="m 3.125,3.125 h 900 v 781.25 h -900 z"
         transform="matrix(0.33836859,0,0,0.33836859,-4.6228334,-86.614798)"
         clip-rule="evenodd"
         id="path14" />
    </clipPath>
    <clipPath
       clipPathUnits="userSpaceOnUse"
       id="clipPath15">
      <path
         d="m 3.125,3.125 h 900 v 781.25 h -900 z"
         transform="matrix(0.33836859,0,0,0.33836859,-132.02908,-86.614798)"
         clip-rule="evenodd"
         id="path15" />
    </clipPath>
    <clipPath
       clipPathUnits="userSpaceOnUse"
       id="clipPath16">
      <path
         d="m 3.125,3.125 h 900 v 781.25 h -900 z"
         transform="matrix(0.33836859,0,0,0.33836859,-153.38846,-86.614798)"
         clip-rule="evenodd"
         id="path16" />
    </clipPath>
    <clipPath
       clipPathUnits="userSpaceOnUse"
       id="clipPath17">
      <path
         d="m 3.125,3.125 h 900 v 781.25 h -900 z"
         transform="matrix(0.33836859,0,0,0.33836859,-4.6228334,-103.6148)"
         clip-rule="evenodd"
         id="path17" />
    </clipPath>
    <clipPath
       clipPathUnits="userSpaceOnUse"
       id="clipPath18">
      <path
         d="m 3.125,3.125 h 900 v 781.25 h -900 z"
         transform="matrix(0.33836859,0,0,0.33836859,-22.638458,-103.6148)"
         clip-rule="evenodd"
         id="path18" />
    </clipPath>
    <clipPath
       clipPathUnits="userSpaceOnUse"
       id="clipPath19">
      <path
         d="m 3.125,3.125 h 900 v 781.25 h -900 z"
         transform="matrix(0.33836859,0,0,0.33836859,-4.6228334,-119.6148)"
         clip-rule="evenodd"
         id="path19" />
    </clipPath>
    <clipPath
       clipPathUnits="userSpaceOnUse"
       id="clipPath20">
      <path
         d="m 3.125,3.125 h 900 v 781.25 h -900 z"
         transform="matrix(0.33836859,0,0,0.33836859,-150.70097,-119.6148)"
         clip-rule="evenodd"
         id="path20" />
    </clipPath>
    <clipPath
       clipPathUnits="userSpaceOnUse"
       id="clipPath21">
      <path
         d="m 3.125,3.125 h 900 v 781.25 h -900 z"
         transform="matrix(0.33836859,0,0,0.33836859,-196.06034,-119.6148)"
         clip-rule="evenodd"
         id="path21" />
    </clipPath>
    <clipPath
       clipPathUnits="userSpaceOnUse"
       id="clipPath22">
      <path
         d="m 3.125,3.125 h 900 v 781.25 h -900 z"
         transform="matrix(0.33836859,0,0,0.33836859,-4.6228334,-136.6148)"
         clip-rule="evenodd"
         id="path22" />
    </clipPath>
    <clipPath
       clipPathUnits="userSpaceOnUse"
       id="clipPath23">
      <path
         d="m 3.125,3.125 h 900 v 781.25 h -900 z"
         transform="matrix(0.33836859,0,0,0.33836859,-150.70097,-136.6148)"
         clip-rule="evenodd"
         id="path23" />
    </clipPath>
    <clipPath
       clipPathUnits="userSpaceOnUse"
       id="clipPath24">
      <path
         d="m 3.125,3.125 h 900 v 781.25 h -900 z"
         transform="matrix(0.33836859,0,0,0.33836859,-161.71658,-136.6148)"
         clip-rule="evenodd"
         id="path24" />
    </clipPath>
    <clipPath
       clipPathUnits="userSpaceOnUse"
       id="clipPath25">
      <path
         d="m 3.125,3.125 h 900 v 781.25 h -900 z"
         transform="matrix(0.33836859,0,0,0.33836859,-4.6228334,-153.6148)"
         clip-rule="evenodd"
         id="path25" />
    </clipPath>
    <clipPath
       clipPathUnits="userSpaceOnUse"
       id="clipPath26">
      <path
         d="m 3.125,3.125 h 900 v 781.25 h -900 z"
         transform="matrix(0.33836859,0,0,0.33836859,-55.325964,-153.6148)"
         clip-rule="evenodd"
         id="path26" />
    </clipPath>
    <clipPath
       clipPathUnits="userSpaceOnUse"
       id="clipPath27">
      <path
         d="m 3.125,3.125 h 900 v 781.25 h -900 z"
         transform="matrix(0.33836859,0,0,0.33836859,-62.341584,-153.6148)"
         clip-rule="evenodd"
         id="path27" />
    </clipPath>
    <clipPath
       clipPathUnits="userSpaceOnUse"
       id="clipPath28">
      <path
         d="m 3.125,3.125 h 900 v 781.25 h -900 z"
         transform="matrix(0.33836859,0,0,0.33836859,-4.6228334,-170.6148)"
         clip-rule="evenodd"
         id="path28" />
    </clipPath>
    <clipPath
       clipPathUnits="userSpaceOnUse"
       id="clipPath29">
      <path
         d="m 3.125,3.125 h 900 v 781.25 h -900 z"
         transform="matrix(0.33836859,0,0,0.33836859,-19.966583,-170.6148)"
         clip-rule="evenodd"
         id="path29" />
    </clipPath>
    <clipPath
       clipPathUnits="userSpaceOnUse"
       id="clipPath30">
      <path
         d="m 3.125,3.125 h 900 v 781.25 h -900 z"
         transform="matrix(0.33836859,0,0,0.33836859,-4.6228334,-187.61479)"
         clip-rule="evenodd"
         id="path30" />
    </clipPath>
    <clipPath
       clipPathUnits="userSpaceOnUse"
       id="clipPath31">
      <path
         d="m 3.125,3.125 h 900 v 781.25 h -900 z"
         transform="matrix(0.33836859,0,0,0.33836859,-49.966583,-187.61479)"
         clip-rule="evenodd"
         id="path31" />
    </clipPath>
    <clipPath
       clipPathUnits="userSpaceOnUse"
       id="clipPath32">
      <path
         d="m 3.125,3.125 h 900 v 781.25 h -900 z"
         transform="matrix(0.33836859,0,0,0.33836859,-4.6228334,-203.6148)"
         clip-rule="evenodd"
         id="path32" />
    </clipPath>
    <clipPath
       clipPathUnits="userSpaceOnUse"
       id="clipPath33">
      <path
         d="m 3.125,3.125 h 900 v 781.25 h -900 z"
         transform="matrix(0.33836859,0,0,0.33836859,-4.6228334,-221.6148)"
         clip-rule="evenodd"
         id="path33" />
    </clipPath>
  </defs>
  <g
     id="g1">
    <path
       id="path1"
       d="M 0,0 H 290 V 252 H 0 Z"
       style="fill:#ffffff;fill-opacity:1;fill-rule:nonzero;stroke:none"
       clip-path="url(#clipPath2)" />
    <path
       id="path3"
       d="m 121,-1090 h 300 v 260 H 121 Z"
       style="fill:#ffffff;fill-opacity:1;fill-rule:nonzero;stroke:#000000;stroke-width:1;stroke-linecap:butt;stroke-linejoin:miter;stroke-miterlimit:10;stroke-dasharray:none;stroke-opacity:1"
       transform="matrix(0.94571423,0,0,0.94571423,-111.47812,1033.7743)"
       clip-path="url(#clipPath4)" />
    <g
       id="g4" />
    <text
       id="text4"
       xml:space="preserve"
       transform="matrix(0.94571423,0,0,0.94571423,101.81,19.495708)"
       clip-path="url(#clipPath5)"><tspan
         id="tspan4"
         style="font-variant:normal;font-weight:normal;font-size:12px;font-family:Arial;writing-mode:lr-tb;fill:#000000;fill-opacity:1;fill-rule:nonzero;stroke:none"
         x="0"
         y="0"> </tspan></text>
    <text
       id="text5"
       xml:space="preserve"
       transform="matrix(0.94571423,0,0,0.94571423,104.97223,19.495708)"
       clip-path="url(#clipPath6)"><tspan
         id="tspan5"
         style="font-style:italic;font-variant:normal;font-weight:normal;font-size:12px;font-family:Arial;writing-mode:lr-tb;fill:#000000;fill-opacity:1;fill-rule:nonzero;stroke:none"
         x="0"
         y="0">actions</tspan></text>
    <text
       id="text6"
       xml:space="preserve"
       transform="matrix(0.94571423,0,0,0.94571423,4.3718793,33.681421)"
       clip-path="url(#clipPath7)"><tspan
         id="tspan6"
         style="font-variant:normal;font-weight:700;font-size:12px;font-family:Arial;writing-mode:lr-tb;fill:#000000;fill-opacity:1;fill-rule:nonzero;stroke:none"
         x="0"
         y="0">^</tspan></text>
    <text
       id="text7"
       xml:space="preserve"
       transform="matrix(0.94571423,0,0,0.94571423,11.006656,33.681421)"
       clip-path="url(#clipPath8)"><tspan
         id="tspan7"
         style="font-variant:normal;font-weight:normal;font-size:12px;font-family:Arial;writing-mode:lr-tb;fill:#000000;fill-opacity:1;fill-rule:nonzero;stroke:none"
         x="0"
         dx="0 0 0 0 0 0 0 0 0 0 -0.66210938"
         y="0">action2 : ActionDef2</tspan></text>
    <text
       id="text8"
       xml:space="preserve"
       transform="matrix(0.94571423,0,0,0.94571423,4.3718793,49.758563)"
       clip-path="url(#clipPath9)"><tspan
         id="tspan8"
         style="font-variant:normal;font-weight:normal;font-size:12px;font-family:Arial;writing-mode:lr-tb;fill:#000000;fill-opacity:1;fill-rule:nonzero;stroke:none"
         x="0"
         dx="0 0 0 0 0 0 0 0 0 0 -0.66210938"
         y="0">action1 : ActionDef1 [1..*] </tspan></text>
    <text
       id="text9"
       xml:space="preserve"
       transform="matrix(0.94571423,0,0,0.94571423,134.9691,49.758563)"
       clip-path="url(#clipPath10)"><tspan
         id="tspan9"
         style="font-variant:normal;font-weight:700;font-size:12px;font-family:Arial;writing-mode:lr-tb;fill:#000000;fill-opacity:1;fill-rule:nonzero;stroke:none"
         x="0"
         y="0">ordered nonunique</tspan></text>
    <g
       id="g10" />
    <text
       id="text10"
       xml:space="preserve"
       transform="matrix(0.94571423,0,0,0.94571423,4.3718793,65.835705)"
       clip-path="url(#clipPath11)"><tspan
         id="tspan10"
         style="font-variant:normal;font-weight:normal;font-size:12px;font-family:Arial;writing-mode:lr-tb;fill:#000000;fill-opacity:1;fill-rule:nonzero;stroke:none"
         x="0"
         dx="0 0 0 0 0 0 0 0 0 0 0 -0.66210902"
         y="0">action3R : ActionDef3R </tspan></text>
    <text
       id="text11"
       xml:space="preserve"
       transform="matrix(0.94571423,0,0,0.94571423,124.86178,65.835705)"
       clip-path="url(#clipPath12)"><tspan
         id="tspan11"
         style="font-variant:normal;font-weight:700;font-size:12px;font-family:Arial;writing-mode:lr-tb;fill:#000000;fill-opacity:1;fill-rule:nonzero;stroke:none"
         x="0"
         y="0">redefines</tspan></text>
    <text
       id="text12"
       xml:space="preserve"
       transform="matrix(0.94571423,0,0,0.94571423,175.32451,65.835705)"
       clip-path="url(#clipPath13)"><tspan
         id="tspan12"
         style="font-variant:normal;font-weight:normal;font-size:12px;font-family:Arial;writing-mode:lr-tb;fill:#000000;fill-opacity:1;fill-rule:nonzero;stroke:none"
         x="0"
         y="0"> action3</tspan></text>
    <text
       id="text13"
       xml:space="preserve"
       transform="matrix(0.94571423,0,0,0.94571423,4.3718793,81.912847)"
       clip-path="url(#clipPath14)"><tspan
         id="tspan13"
         style="font-variant:normal;font-weight:normal;font-size:12px;font-family:Arial;writing-mode:lr-tb;fill:#000000;fill-opacity:1;fill-rule:nonzero;stroke:none"
         x="0"
         dx="0 0 0 0 0 0 0 0 0 0 0 -0.66210902"
         y="0">action4R : ActionDef4R </tspan></text>
    <g
       id="g14" />
    <text
       id="text14"
       xml:space="preserve"
       transform="matrix(0.94571423,0,0,0.94571423,124.86178,81.912847)"
       clip-path="url(#clipPath15)"><tspan
         id="tspan14"
         style="font-variant:normal;font-weight:700;font-size:12px;font-family:Arial;writing-mode:lr-tb;fill:#000000;fill-opacity:1;fill-rule:nonzero;stroke:none"
         x="0"
         y="0">:&gt;&gt; </tspan></text>
    <text
       id="text15"
       xml:space="preserve"
       transform="matrix(0.94571423,0,0,0.94571423,145.06165,81.912847)"
       clip-path="url(#clipPath16)"><tspan
         id="tspan15"
         style="font-variant:normal;font-weight:normal;font-size:12px;font-family:Arial;writing-mode:lr-tb;fill:#000000;fill-opacity:1;fill-rule:nonzero;stroke:none"
         x="0"
         y="0">action4</tspan></text>
    <text
       id="text16"
       xml:space="preserve"
       transform="matrix(0.94571423,0,0,0.94571423,4.3718793,97.989989)"
       clip-path="url(#clipPath17)"><tspan
         id="tspan16"
         style="font-variant:normal;font-weight:700;font-size:12px;font-family:Arial;writing-mode:lr-tb;fill:#000000;fill-opacity:1;fill-rule:nonzero;stroke:none"
         x="0"
         y="0">:&gt;&gt;</tspan></text>
    <text
       id="text17"
       xml:space="preserve"
       transform="matrix(0.94571423,0,0,0.94571423,21.409512,97.989989)"
       clip-path="url(#clipPath18)"><tspan
         id="tspan17"
         style="font-variant:normal;font-weight:normal;font-size:12px;font-family:Arial;writing-mode:lr-tb;fill:#000000;fill-opacity:1;fill-rule:nonzero;stroke:none"
         x="0"
         y="0"> action5</tspan></text>
    <g
       id="g18" />
    <text
       id="text18"
       xml:space="preserve"
       transform="matrix(0.94571423,0,0,0.94571423,4.3718793,113.12142)"
       clip-path="url(#clipPath19)"><tspan
         id="tspan18"
         style="font-variant:normal;font-weight:normal;font-size:12px;font-family:Arial;writing-mode:lr-tb;fill:#000000;fill-opacity:1;fill-rule:nonzero;stroke:none"
         x="0"
         dx="0 0 0 0 0 0 0 0 0 0 0 -0.66210866"
         y="0">action6S : ActionDef6S [m] </tspan></text>
    <text
       id="text19"
       xml:space="preserve"
       transform="matrix(0.94571423,0,0,0.94571423,142.52005,113.12142)"
       clip-path="url(#clipPath20)"><tspan
         id="tspan19"
         style="font-variant:normal;font-weight:700;font-size:12px;font-family:Arial;writing-mode:lr-tb;fill:#000000;fill-opacity:1;fill-rule:nonzero;stroke:none"
         x="0"
         y="0">subsets</tspan></text>
    <text
       id="text20"
       xml:space="preserve"
       transform="matrix(0.94571423,0,0,0.94571423,185.41705,113.12142)"
       clip-path="url(#clipPath21)"><tspan
         id="tspan20"
         style="font-variant:normal;font-weight:normal;font-size:12px;font-family:Arial;writing-mode:lr-tb;fill:#000000;fill-opacity:1;fill-rule:nonzero;stroke:none"
         x="0"
         y="0"> action6</tspan></text>
    <text
       id="text21"
       xml:space="preserve"
       transform="matrix(0.94571423,0,0,0.94571423,4.3718793,129.19856)"
       clip-path="url(#clipPath22)"><tspan
         id="tspan21"
         style="font-variant:normal;font-weight:normal;font-size:12px;font-family:Arial;writing-mode:lr-tb;fill:#000000;fill-opacity:1;fill-rule:nonzero;stroke:none"
         x="0"
         dx="0 0 0 0 0 0 0 0 0 0 0 -0.66210866"
         y="0">action7S : ActionDef7S [m] </tspan></text>
    <text
       id="text22"
       xml:space="preserve"
       transform="matrix(0.94571423,0,0,0.94571423,142.52005,129.19856)"
       clip-path="url(#clipPath23)"><tspan
         id="tspan22"
         style="font-variant:normal;font-weight:700;font-size:12px;font-family:Arial;writing-mode:lr-tb;fill:#000000;fill-opacity:1;fill-rule:nonzero;stroke:none"
         x="0"
         y="0">:&gt;</tspan></text>
    <text
       id="text23"
       xml:space="preserve"
       transform="matrix(0.94571423,0,0,0.94571423,152.93767,129.19856)"
       clip-path="url(#clipPath24)"><tspan
         id="tspan23"
         style="font-variant:normal;font-weight:normal;font-size:12px;font-family:Arial;writing-mode:lr-tb;fill:#000000;fill-opacity:1;fill-rule:nonzero;stroke:none"
         x="0"
         y="0"> action7</tspan></text>
    <text
       id="text24"
       xml:space="preserve"
       transform="matrix(0.94571423,0,0,0.94571423,4.3718793,145.2757)"
       clip-path="url(#clipPath25)"><tspan
         id="tspan24"
         style="font-variant:normal;font-weight:normal;font-size:12px;font-family:Arial;writing-mode:lr-tb;fill:#000000;fill-opacity:1;fill-rule:nonzero;stroke:none"
         x="0"
         y="0">action8R </tspan></text>
    <text
       id="text25"
       xml:space="preserve"
       transform="matrix(0.94571423,0,0,0.94571423,52.322551,145.2757)"
       clip-path="url(#clipPath26)"><tspan
         id="tspan25"
         style="font-variant:normal;font-weight:700;font-size:12px;font-family:Arial;writing-mode:lr-tb;fill:#000000;fill-opacity:1;fill-rule:nonzero;stroke:none"
         x="0"
         y="0">=</tspan></text>
    <text
       id="text26"
       xml:space="preserve"
       transform="matrix(0.94571423,0,0,0.94571423,58.957323,145.2757)"
       clip-path="url(#clipPath27)"><tspan
         id="tspan26"
         style="font-variant:normal;font-weight:normal;font-size:12px;font-family:Arial;writing-mode:lr-tb;fill:#000000;fill-opacity:1;fill-rule:nonzero;stroke:none"
         x="0"
         y="0"> action8</tspan></text>
    <text
       id="text27"
       xml:space="preserve"
       transform="matrix(0.94571423,0,0,0.94571423,4.3718793,161.35284)"
       clip-path="url(#clipPath28)"><tspan
         id="tspan27"
         style="font-variant:normal;font-weight:700;font-size:12px;font-family:Arial;writing-mode:lr-tb;fill:#000000;fill-opacity:1;fill-rule:nonzero;stroke:none"
         x="0"
         y="0">ref</tspan></text>
    <g
       id="g28" />
    <text
       id="text28"
       xml:space="preserve"
       transform="matrix(0.94571423,0,0,0.94571423,18.882682,161.35284)"
       clip-path="url(#clipPath29)"><tspan
         id="tspan28"
         style="font-variant:normal;font-weight:normal;font-size:12px;font-family:Arial;writing-mode:lr-tb;fill:#000000;fill-opacity:1;fill-rule:nonzero;stroke:none"
         x="0"
         dx="0 0 0 0 0 0 0 0 0 0 0 -0.66210878"
         y="0"> action9 : ActionDef9</tspan></text>
    <text
       id="text29"
       xml:space="preserve"
       transform="matrix(0.94571423,0,0,0.94571423,4.3718793,177.42998)"
       clip-path="url(#clipPath30)"><tspan
         id="tspan29"
         style="font-variant:normal;font-weight:700;font-size:12px;font-family:Arial;writing-mode:lr-tb;fill:#000000;fill-opacity:1;fill-rule:nonzero;stroke:none"
         x="0"
         y="0">perform</tspan></text>
    <text
       id="text30"
       xml:space="preserve"
       transform="matrix(0.94571423,0,0,0.94571423,47.254109,177.42998)"
       clip-path="url(#clipPath31)"><tspan
         id="tspan30"
         style="font-variant:normal;font-weight:normal;font-size:12px;font-family:Arial;writing-mode:lr-tb;fill:#000000;fill-opacity:1;fill-rule:nonzero;stroke:none"
         x="0"
         y="0"> action10</tspan></text>
    <text
       id="text31"
       xml:space="preserve"
       transform="matrix(0.94571423,0,0,0.94571423,4.3718793,192.56141)"
       clip-path="url(#clipPath32)"><tspan
         id="tspan31"
         style="font-variant:normal;font-weight:normal;font-size:12px;font-family:Arial;writing-mode:lr-tb;fill:#000000;fill-opacity:1;fill-rule:nonzero;stroke:none"
         x="0"
         dx="0 0 0 0 0 0 0 -0.89062434"
         y="0">action11</tspan></text>
    <text
       id="text32"
       xml:space="preserve"
       transform="matrix(0.94571423,0,0,0.94571423,4.3718793,209.58427)"
       clip-path="url(#clipPath33)"><tspan
         id="tspan32"
         style="font-variant:normal;font-weight:700;font-size:14px;font-family:Arial;writing-mode:lr-tb;fill:#000000;fill-opacity:1;fill-rule:nonzero;stroke:none"
         x="0"
         y="0">...</tspan></text>
  </g>
</svg>
