<?xml version="1.0" encoding="UTF-8" standalone="no"?>
<!-- Created with Inkscape (http://www.inkscape.org/) -->

<svg
   version="1.1"
   id="svg1"
   width="210.56"
   height="137.28"
   viewBox="0 0 210.56 137.28"
   xmlns="http://www.w3.org/2000/svg"
   xmlns:svg="http://www.w3.org/2000/svg">
  <defs
     id="defs1">
    <clipPath
       clipPathUnits="userSpaceOnUse"
       id="clipPath2">
      <path
         d="M 0,0 H 656.98242 V 429.00391 H 0 Z"
         transform="scale(0.31999999)"
         clip-rule="evenodd"
         id="path2" />
    </clipPath>
    <clipPath
       clipPathUnits="userSpaceOnUse"
       id="clipPath4">
      <path
         d="m 3.125,0 h 650 v 428.125 h -650 z"
         transform="matrix(0.338758,0,0,0.338758,395.87176,6187.9423)"
         clip-rule="evenodd"
         id="path4" />
    </clipPath>
    <clipPath
       clipPathUnits="userSpaceOnUse"
       id="clipPath5">
      <path
         d="m 3.125,0 h 650 v 428.125 h -650 z"
         transform="matrix(0.338758,0,0,0.338758,-56.878243,-17.558341)"
         clip-rule="evenodd"
         id="path5" />
    </clipPath>
    <clipPath
       clipPathUnits="userSpaceOnUse"
       id="clipPath6">
      <path
         d="m 3.125,0 h 650 v 428.125 h -650 z"
         transform="matrix(0.338758,0,0,0.338758,-31.534493,-37.558341)"
         clip-rule="evenodd"
         id="path6" />
    </clipPath>
    <clipPath
       clipPathUnits="userSpaceOnUse"
       id="clipPath8">
      <path
         d="m 3.125,0 h 650 v 428.125 h -650 z"
         transform="matrix(0.338758,0,0,0.338758,395.87176,6187.9423)"
         clip-rule="evenodd"
         id="path8" />
    </clipPath>
    <clipPath
       clipPathUnits="userSpaceOnUse"
       id="clipPath9">
      <path
         d="m 3.125,0 h 650 v 428.125 h -650 z"
         transform="matrix(0.338758,0,0,0.338758,-56.878243,-117.55834)"
         clip-rule="evenodd"
         id="path9" />
    </clipPath>
    <clipPath
       clipPathUnits="userSpaceOnUse"
       id="clipPath10">
      <path
         d="m 3.125,0 h 650 v 428.125 h -650 z"
         transform="matrix(0.338758,0,0,0.338758,-31.534493,-137.55834)"
         clip-rule="evenodd"
         id="path10" />
    </clipPath>
    <clipPath
       clipPathUnits="userSpaceOnUse"
       id="clipPath12">
      <path
         d="m 3.125,0 h 650 v 428.125 h -650 z"
         transform="matrix(0.338758,0,0,0.338758,395.87176,6187.9423)"
         clip-rule="evenodd"
         id="path12" />
    </clipPath>
    <clipPath
       clipPathUnits="userSpaceOnUse"
       id="clipPath14">
      <path
         d="m 3.125,0 h 650 v 428.125 h -650 z"
         transform="matrix(0.338758,0,0,0.338758,395.87176,6187.9423)"
         clip-rule="evenodd"
         id="path14" />
    </clipPath>
    <clipPath
       clipPathUnits="userSpaceOnUse"
       id="clipPath15">
      <path
         d="m 3.125,0 h 650 v 428.125 h -650 z"
         transform="matrix(0.338758,0,0,0.338758,-86.425124,-76.558341)"
         clip-rule="evenodd"
         id="path15" />
    </clipPath>
  </defs>
  <g
     id="g1">
    <path
       id="path1"
       d="M 0,0 H 210 V 137 H 0 Z"
       style="fill:#ffffff;fill-opacity:1;fill-rule:nonzero;stroke:none"
       clip-path="url(#clipPath2)" />
    <path
       id="path3"
       d="m 407,6190 h 144 c 0.52527,0 1.04553,0.051 1.56073,0.1533 0.51514,0.1026 1.01538,0.2544 1.50067,0.4551 0.48529,0.2007 0.94635,0.4473 1.38312,0.7388 0.43671,0.292 0.84082,0.6235 1.21228,0.9951 0.3714,0.3716 0.70306,0.7754 0.99493,1.2119 0.29181,0.437 0.53821,0.8979 0.73926,1.3833 0.20099,0.4854 0.35278,0.9858 0.45526,1.501 0.10248,0.5151 0.15375,1.0356 0.15375,1.5615 v 24 c 0,0.5249 -0.0513,1.0449 -0.15375,1.5601 -0.10248,0.5151 -0.25427,1.0151 -0.45526,1.5004 -0.20105,0.4859 -0.44751,0.9468 -0.73932,1.3833 -0.29181,0.4371 -0.62347,0.8414 -0.99487,1.2129 -0.37146,0.3711 -0.77557,0.7027 -1.21228,0.9947 -0.43677,0.2915 -0.89783,0.5381 -1.38312,0.7387 -0.48529,0.2007 -0.98553,0.3526 -1.50067,0.4556 -0.5152,0.1025 -1.03546,0.1538 -1.56073,0.1543 H 407 c -0.5253,-5e-4 -1.04553,-0.052 -1.56073,-0.1543 -0.51523,-0.103 -1.01547,-0.2549 -1.50076,-0.4556 -0.48532,-0.2006 -0.94635,-0.4472 -1.38309,-0.7392 -0.43677,-0.2915 -0.84085,-0.6231 -1.21228,-0.9942 -0.37143,-0.3715 -0.70309,-0.7758 -0.99493,-1.2129 -0.29184,-0.4365 -0.53827,-0.8974 -0.73929,-1.3828 -0.20102,-0.4858 -0.35276,-0.9858 -0.45523,-1.5009 C 399.05124,6223.0449 399,6222.5249 399,6222 v -24 c 0,-0.5259 0.0512,-1.0464 0.15369,-1.5615 0.10247,-0.5152 0.25421,-1.0156 0.45523,-1.501 0.20102,-0.4854 0.44745,-0.9463 0.73929,-1.3833 0.29184,-0.4365 0.6235,-0.8403 0.99493,-1.2119 0.37143,-0.3716 0.77551,-0.7031 1.21228,-0.9946 0.43674,-0.292 0.89774,-0.5386 1.38306,-0.7393 0.48532,-0.2007 0.98556,-0.3525 1.50079,-0.4551 C 405.95447,6190.0513 406.4747,6190 407,6190 Z"
       style="fill:#ffffff;fill-opacity:1;fill-rule:nonzero;stroke:#000000;stroke-width:1;stroke-linecap:butt;stroke-linejoin:miter;stroke-miterlimit:10;stroke-dasharray:none;stroke-opacity:1"
       transform="matrix(0.9446271,0,0,0.9446271,-373.95119,-5845.298)"
       clip-path="url(#clipPath4)" />
    <text
       id="text4"
       xml:space="preserve"
       transform="matrix(0.9446271,0,0,0.9446271,53.72873,16.586085)"
       clip-path="url(#clipPath5)"><tspan
         id="tspan4"
         style="font-variant:normal;font-weight:normal;font-size:16px;font-family:Arial;writing-mode:lr-tb;fill:#000000;fill-opacity:1;fill-rule:nonzero;stroke:none"
         x="0"
         y="0">«state»</tspan></text>
    <text
       id="text5"
       xml:space="preserve"
       transform="matrix(0.9446271,0,0,0.9446271,29.788337,35.478627)"
       clip-path="url(#clipPath6)"><tspan
         id="tspan5"
         style="font-variant:normal;font-weight:normal;font-size:16px;font-family:Arial;writing-mode:lr-tb;fill:#000000;fill-opacity:1;fill-rule:nonzero;stroke:none"
         x="0"
         y="0">state1 : State1</tspan></text>
    <path
       id="path7"
       d="m 407,6290 h 144 c 0.52527,0 1.04553,0.051 1.56073,0.1533 0.51514,0.1026 1.01538,0.2544 1.50067,0.4551 0.48529,0.2007 0.94635,0.4473 1.38312,0.7393 0.43671,0.2915 0.84082,0.623 1.21228,0.9946 0.3714,0.3711 0.70306,0.7749 0.99493,1.2119 0.29181,0.4365 0.53821,0.8975 0.73926,1.3833 0.20099,0.4849 0.35278,0.9854 0.45526,1.501 0.10248,0.5151 0.15375,1.0356 0.15375,1.5615 v 24 c 0,0.5249 -0.0513,1.0449 -0.15375,1.5601 -0.10248,0.5156 -0.25427,1.0161 -0.45526,1.5009 -0.20105,0.4849 -0.44751,0.9458 -0.73932,1.3828 -0.29181,0.4371 -0.62347,0.8414 -0.99487,1.2129 -0.37146,0.3716 -0.77557,0.7032 -1.21228,0.9947 -0.43677,0.2915 -0.89783,0.5381 -1.38312,0.7392 -0.48529,0.2012 -0.98553,0.3531 -1.50067,0.4556 C 552.04553,6329.9487 551.52527,6330 551,6330 H 407 c -0.5253,0 -1.04553,-0.051 -1.56073,-0.1538 -0.51523,-0.1025 -1.01547,-0.2544 -1.50076,-0.4556 -0.48532,-0.2011 -0.94635,-0.4477 -1.38309,-0.7397 -0.43677,-0.2915 -0.84085,-0.6226 -1.21228,-0.9942 -0.37143,-0.3715 -0.70309,-0.7758 -0.99493,-1.2129 -0.29184,-0.437 -0.53827,-0.8979 -0.73929,-1.3828 -0.20102,-0.4848 -0.35276,-0.9853 -0.45523,-1.5009 C 399.05124,6323.0449 399,6322.5249 399,6322 v -24 c 0,-0.5259 0.0512,-1.0464 0.15369,-1.5615 0.10247,-0.5156 0.25421,-1.0161 0.45523,-1.501 0.20102,-0.4858 0.44745,-0.9468 0.73929,-1.3838 0.29184,-0.4365 0.6235,-0.8403 0.99493,-1.2114 0.37143,-0.3716 0.77551,-0.7031 1.21228,-0.9946 0.43674,-0.292 0.89774,-0.5386 1.38306,-0.7393 0.48532,-0.2007 0.98556,-0.3525 1.50079,-0.4551 C 405.95447,6290.0513 406.4747,6290 407,6290 Z"
       style="fill:#ffffff;fill-opacity:1;fill-rule:nonzero;stroke:#000000;stroke-width:1;stroke-linecap:butt;stroke-linejoin:miter;stroke-miterlimit:10;stroke-dasharray:none;stroke-opacity:1"
       transform="matrix(0.9446271,0,0,0.9446271,-373.95119,-5845.298)"
       clip-path="url(#clipPath8)" />
    <text
       id="text8"
       xml:space="preserve"
       transform="matrix(0.9446271,0,0,0.9446271,53.72873,111.04879)"
       clip-path="url(#clipPath9)"><tspan
         id="tspan8"
         style="font-variant:normal;font-weight:normal;font-size:16px;font-family:Arial;writing-mode:lr-tb;fill:#000000;fill-opacity:1;fill-rule:nonzero;stroke:none"
         x="0"
         y="0">«state»</tspan></text>
    <text
       id="text9"
       xml:space="preserve"
       transform="matrix(0.9446271,0,0,0.9446271,29.788337,129.94134)"
       clip-path="url(#clipPath10)"><tspan
         id="tspan9"
         style="font-variant:normal;font-weight:normal;font-size:16px;font-family:Arial;writing-mode:lr-tb;fill:#000000;fill-opacity:1;fill-rule:nonzero;stroke:none"
         x="0"
         y="0">state2 : State2</tspan></text>
    <path
       id="path11"
       d="m 479,6230 v 57.7598"
       style="fill:none;stroke:#000000;stroke-width:1;stroke-linecap:butt;stroke-linejoin:miter;stroke-miterlimit:10;stroke-dasharray:none;stroke-opacity:1"
       transform="matrix(0.9446271,0,0,0.9446271,-373.95119,-5845.298)"
       clip-path="url(#clipPath12)" />
    <path
       id="path13"
       d="m 474.5,6279.8799 4.5,9 4.5,-9"
       style="fill:none;stroke:#000000;stroke-width:1;stroke-linecap:butt;stroke-linejoin:miter;stroke-miterlimit:10;stroke-dasharray:none;stroke-opacity:1"
       transform="matrix(0.9446271,0,0,0.9446271,-373.95119,-5845.298)"
       clip-path="url(#clipPath14)" />
    <text
       id="text14"
       xml:space="preserve"
       transform="matrix(0.9446271,0,0,0.9446271,81.639514,72.319084)"
       clip-path="url(#clipPath15)"><tspan
         id="tspan14"
         style="font-variant:normal;font-weight:normal;font-size:12px;font-family:Arial;writing-mode:lr-tb;fill:#000000;fill-opacity:1;fill-rule:nonzero;stroke:none"
         x="0"
         y="0">trigger1[guard1] / action1</tspan></text>
  </g>
</svg>
