<?xml version="1.0" encoding="UTF-8" standalone="no"?>
<!-- Created with Inkscape (http://www.inkscape.org/) -->

<svg
   version="1.1"
   id="svg1"
   width="155.84"
   height="137.28"
   viewBox="0 0 155.84 137.28"
   xmlns="http://www.w3.org/2000/svg"
   xmlns:svg="http://www.w3.org/2000/svg">
  <defs
     id="defs1">
    <clipPath
       clipPathUnits="userSpaceOnUse"
       id="clipPath2">
      <path
         d="M 0,0 H 488 V 429.00391 H 0 Z"
         transform="scale(0.31999999)"
         clip-rule="evenodd"
         id="path2" />
    </clipPath>
    <clipPath
       clipPathUnits="userSpaceOnUse"
       id="clipPath4">
      <path
         d="M 3.125,3.125 H 487.5 v 425 H 3.125 Z"
         transform="matrix(0.34065602,0,0,0.34065602,756.86583,1716.871)"
         clip-rule="evenodd"
         id="path4" />
    </clipPath>
    <clipPath
       clipPathUnits="userSpaceOnUse"
       id="clipPath5">
      <path
         d="M 3.125,3.125 H 487.5 v 425 H 3.125 Z"
         transform="matrix(0.34065602,0,0,0.34065602,-60.446691,-18.629081)"
         clip-rule="evenodd"
         id="path5" />
    </clipPath>
    <clipPath
       clipPathUnits="userSpaceOnUse"
       id="clipPath6">
      <path
         d="M 3.125,3.125 H 487.5 v 425 H 3.125 Z"
         transform="matrix(0.34065602,0,0,0.34065602,-64.899821,-38.62908)"
         clip-rule="evenodd"
         id="path6" />
    </clipPath>
    <clipPath
       clipPathUnits="userSpaceOnUse"
       id="clipPath8">
      <path
         d="M 3.125,3.125 H 487.5 v 425 H 3.125 Z"
         transform="matrix(0.34065602,0,0,0.34065602,756.86583,1716.871)"
         clip-rule="evenodd"
         id="path8" />
    </clipPath>
    <clipPath
       clipPathUnits="userSpaceOnUse"
       id="clipPath9">
      <path
         d="M 3.125,3.125 H 487.5 v 425 H 3.125 Z"
         transform="matrix(0.34065602,0,0,0.34065602,-31.54044,-118.62908)"
         clip-rule="evenodd"
         id="path9" />
    </clipPath>
    <clipPath
       clipPathUnits="userSpaceOnUse"
       id="clipPath10">
      <path
         d="M 3.125,3.125 H 487.5 v 425 H 3.125 Z"
         transform="matrix(0.34065602,0,0,0.34065602,-31.54044,-138.62908)"
         clip-rule="evenodd"
         id="path10" />
    </clipPath>
    <clipPath
       clipPathUnits="userSpaceOnUse"
       id="clipPath12">
      <path
         d="M 3.125,3.125 H 487.5 v 425 H 3.125 Z"
         transform="matrix(0.34065602,0,0,0.34065602,756.86583,1716.871)"
         clip-rule="evenodd"
         id="path12" />
    </clipPath>
    <clipPath
       clipPathUnits="userSpaceOnUse"
       id="clipPath14">
      <path
         d="M 3.125,3.125 H 487.5 v 425 H 3.125 Z"
         transform="matrix(0.34065602,0,0,0.34065602,756.86583,1716.871)"
         clip-rule="evenodd"
         id="path14" />
    </clipPath>
  </defs>
  <g
     id="g1">
    <path
       id="path1"
       d="M 0,0 H 156 V 137 H 0 Z"
       style="fill:#ffffff;fill-opacity:1;fill-rule:nonzero;stroke:none"
       clip-path="url(#clipPath2)" />
    <path
       id="path3"
       d="m 768,1720 h 144 c 0.52527,0 1.04553,0.051 1.56073,0.1536 0.51514,0.1024 1.01538,0.2541 1.50067,0.455 0.48529,0.2011 0.94629,0.4477 1.38306,0.7395 0.43677,0.2919 0.84088,0.6235 1.21234,0.9949 0.3714,0.3715 0.70306,0.7755 0.99487,1.2124 0.29181,0.4367 0.53821,0.8976 0.7392,1.3828 0.20105,0.4854 0.35284,0.9858 0.45532,1.501 0.10248,0.5153 0.15375,1.0355 0.15381,1.5608 v 24 c -6e-5,0.5253 -0.0513,1.0454 -0.15381,1.5605 -0.10248,0.5152 -0.25427,1.0154 -0.45532,1.5007 -0.20099,0.4852 -0.44739,0.9462 -0.73926,1.3831 -0.29181,0.4368 -0.62341,0.8409 -0.99481,1.2123 -0.37146,0.3715 -0.77557,0.703 -1.21234,0.9949 -0.43677,0.2917 -0.89777,0.5382 -1.38306,0.7392 -0.48529,0.2011 -0.98553,0.353 -1.50067,0.4554 -0.5152,0.1025 -1.03546,0.1538 -1.56073,0.1539 H 768 c -0.52533,-10e-5 -1.04553,-0.051 -1.56073,-0.1539 -0.51526,-0.1024 -1.01556,-0.2543 -1.50085,-0.4554 -0.48529,-0.201 -0.94635,-0.4475 -1.38306,-0.7392 -0.43671,-0.2919 -0.84082,-0.6234 -1.21228,-0.9949 -0.37146,-0.3714 -0.70313,-0.7755 -0.995,-1.2124 -0.29181,-0.4368 -0.5382,-0.8978 -0.73919,-1.383 -0.20105,-0.4853 -0.35279,-0.9855 -0.45526,-1.5007 -0.10248,-0.5151 -0.15369,-1.0352 -0.15363,-1.5605 v -24 c -6e-5,-0.5253 0.0512,-1.0455 0.15363,-1.5607 0.10247,-0.5153 0.25421,-1.0157 0.45526,-1.5011 0.20099,-0.4852 0.44738,-0.9463 0.73919,-1.383 0.29187,-0.4367 0.62354,-0.8407 0.995,-1.2122 0.37146,-0.3714 0.77557,-0.703 1.21228,-0.9949 0.43671,-0.2918 0.89777,-0.5383 1.38306,-0.7393 0.48529,-0.201 0.98559,-0.3527 1.50079,-0.4551 C 766.95441,1720.0513 767.47467,1720 768,1720 Z"
       style="fill:#ffffff;fill-opacity:1;fill-rule:nonzero;stroke:#000000;stroke-width:1;stroke-linecap:butt;stroke-linejoin:miter;stroke-miterlimit:10;stroke-dasharray:none;stroke-opacity:1"
       transform="matrix(0.93936396,0,0,0.93936396,-710.97248,-1612.7667)"
       clip-path="url(#clipPath4)" />
    <text
       id="text4"
       xml:space="preserve"
       transform="matrix(0.93936396,0,0,0.93936396,56.781443,17.499487)"
       clip-path="url(#clipPath5)"><tspan
         id="tspan4"
         style="font-variant:normal;font-weight:normal;font-size:16px;font-family:Arial;writing-mode:lr-tb;fill:#000000;fill-opacity:1;fill-rule:nonzero;stroke:none"
         x="0"
         y="0">«part»</tspan></text>
    <text
       id="text5"
       xml:space="preserve"
       transform="matrix(0.93936396,0,0,0.93936396,60.964553,36.286766)"
       clip-path="url(#clipPath6)"><tspan
         id="tspan5"
         style="font-variant:normal;font-weight:normal;font-size:16px;font-family:Arial;writing-mode:lr-tb;fill:#000000;fill-opacity:1;fill-rule:nonzero;stroke:none"
         x="0"
         y="0">part1</tspan></text>
    <path
       id="path7"
       d="m 768,1820 h 144 c 0.52527,0 1.04553,0.051 1.56073,0.1537 0.51514,0.1024 1.01538,0.2541 1.50067,0.4551 0.48529,0.201 0.94629,0.4474 1.38306,0.7391 0.43677,0.2919 0.84088,0.6237 1.21234,0.9951 0.3714,0.3715 0.70306,0.7755 0.99487,1.2123 0.29181,0.4366 0.53821,0.8977 0.7392,1.3831 0.20105,0.4852 0.35284,0.9856 0.45532,1.5008 0.10248,0.5153 0.15375,1.0355 0.15381,1.5608 v 24 c -6e-5,0.5253 -0.0513,1.0455 -0.15381,1.5607 -0.10248,0.515 -0.25427,1.0152 -0.45532,1.5006 -0.20099,0.4852 -0.44739,0.9463 -0.73926,1.383 -0.29181,0.4369 -0.62341,0.8411 -0.99481,1.2126 -0.37146,0.3713 -0.77557,0.7028 -1.21234,0.9947 -0.43677,0.2919 -0.89777,0.5382 -1.38306,0.7393 -0.48529,0.201 -0.98553,0.3528 -1.50067,0.4553 -0.5152,0.1024 -1.03546,0.1537 -1.56073,0.1538 H 768 c -0.52533,-10e-5 -1.04553,-0.051 -1.56073,-0.1538 -0.51526,-0.1025 -1.01556,-0.2543 -1.50085,-0.4553 -0.48529,-0.2011 -0.94635,-0.4475 -1.38306,-0.7394 -0.43671,-0.2918 -0.84082,-0.6233 -1.21228,-0.9946 -0.37146,-0.3715 -0.70313,-0.7757 -0.995,-1.2126 -0.29181,-0.4367 -0.5382,-0.8978 -0.73919,-1.383 -0.20105,-0.4854 -0.35279,-0.9856 -0.45526,-1.5008 -0.10248,-0.515 -0.15369,-1.0352 -0.15363,-1.5605 v -24 c -6e-5,-0.5253 0.0512,-1.0455 0.15363,-1.5608 0.10247,-0.5152 0.25421,-1.0156 0.45526,-1.5008 0.20099,-0.4854 0.44738,-0.9465 0.73919,-1.3832 0.29187,-0.4367 0.62354,-0.8407 0.995,-1.2122 0.37146,-0.3714 0.77557,-0.7031 1.21228,-0.995 0.43671,-0.2918 0.89777,-0.5382 1.38306,-0.7392 0.48529,-0.201 0.98559,-0.3527 1.50079,-0.4551 C 766.95441,1820.0513 767.47467,1820 768,1820 Z"
       style="fill:#ffffff;fill-opacity:1;fill-rule:nonzero;stroke:#000000;stroke-width:1;stroke-linecap:butt;stroke-linejoin:miter;stroke-miterlimit:10;stroke-dasharray:none;stroke-opacity:1"
       transform="matrix(0.93936396,0,0,0.93936396,-710.97248,-1612.7667)"
       clip-path="url(#clipPath8)" />
    <text
       id="text8"
       xml:space="preserve"
       transform="matrix(0.93936396,0,0,0.93936396,29.627953,111.43588)"
       clip-path="url(#clipPath9)"><tspan
         id="tspan8"
         style="font-variant:normal;font-weight:normal;font-size:16px;font-family:Arial;writing-mode:lr-tb;fill:#000000;fill-opacity:1;fill-rule:nonzero;stroke:none"
         x="0"
         y="0">«exhibit state»</tspan></text>
    <text
       id="text9"
       xml:space="preserve"
       transform="matrix(0.93936396,0,0,0.93936396,29.627953,130.22316)"
       clip-path="url(#clipPath10)"><tspan
         id="tspan9"
         style="font-variant:normal;font-weight:normal;font-size:16px;font-family:Arial;writing-mode:lr-tb;fill:#000000;fill-opacity:1;fill-rule:nonzero;stroke:none"
         x="0"
         y="0">state1 : State1</tspan></text>
    <path
       id="path11"
       d="M 835.66998,1771.99 V 1820"
       style="fill:none;stroke:#000000;stroke-width:1;stroke-linecap:butt;stroke-linejoin:miter;stroke-miterlimit:10;stroke-dasharray:none;stroke-opacity:1"
       transform="matrix(0.93936396,0,0,0.93936396,-710.97248,-1612.7667)"
       clip-path="url(#clipPath12)" />
    <path
       id="path13"
       d="m 835.66998,1760.99 3.23999,5.5 -3.23999,5.5 -3.23999,-5.5 z"
       style="fill:none;stroke:#000000;stroke-width:1;stroke-linecap:butt;stroke-linejoin:miter;stroke-miterlimit:10;stroke-dasharray:none;stroke-opacity:1"
       transform="matrix(0.93936396,0,0,0.93936396,-710.97248,-1612.7667)"
       clip-path="url(#clipPath14)" />
  </g>
</svg>
