<?xml version="1.0" encoding="UTF-8" standalone="no"?>
<!-- Created with Inkscape (http://www.inkscape.org/) -->

<svg
   version="1.1"
   id="svg1"
   width="155.84"
   height="118.72"
   viewBox="0 0 155.84 118.72"
   xmlns="http://www.w3.org/2000/svg"
   xmlns:svg="http://www.w3.org/2000/svg">
  <defs
     id="defs1">
    <clipPath
       clipPathUnits="userSpaceOnUse"
       id="clipPath2">
      <path
         d="M 0,0 H 488 V 368.99414 H 0 Z"
         transform="scale(0.31999999)"
         clip-rule="evenodd"
         id="path2" />
    </clipPath>
    <clipPath
       clipPathUnits="userSpaceOnUse"
       id="clipPath4">
      <path
         d="M 3.125,3.125 H 487.5 V 368.75 H 3.125 Z"
         transform="matrix(0.34063817,0,0,0.34063817,560.88017,12544.872)"
         clip-rule="evenodd"
         id="path4" />
    </clipPath>
    <clipPath
       clipPathUnits="userSpaceOnUse"
       id="clipPath6">
      <path
         d="M 3.125,3.125 H 487.5 V 368.75 H 3.125 Z"
         transform="matrix(0.34063817,0,0,0.34063817,560.88017,12544.872)"
         clip-rule="evenodd"
         id="path6" />
    </clipPath>
    <clipPath
       clipPathUnits="userSpaceOnUse"
       id="clipPath8">
      <path
         d="M 3.125,3.125 H 487.5 V 368.75 H 3.125 Z"
         transform="matrix(0.34063817,0,0,0.34063817,560.88017,12544.872)"
         clip-rule="evenodd"
         id="path8" />
    </clipPath>
    <clipPath
       clipPathUnits="userSpaceOnUse"
       id="clipPath9">
      <path
         d="M 3.125,3.125 H 487.5 V 368.75 H 3.125 Z"
         transform="matrix(0.34063817,0,0,0.34063817,-56.885442,-24.628954)"
         clip-rule="evenodd"
         id="path9" />
    </clipPath>
    <clipPath
       clipPathUnits="userSpaceOnUse"
       id="clipPath10">
      <path
         d="M 3.125,3.125 H 487.5 V 368.75 H 3.125 Z"
         transform="matrix(0.34063817,0,0,0.34063817,-19.088561,-43.628955)"
         clip-rule="evenodd"
         id="path10" />
    </clipPath>
    <clipPath
       clipPathUnits="userSpaceOnUse"
       id="clipPath11">
      <path
         d="m 142.73157,163.30859 h 199.62524 v 44.03516 H 142.73157 Z"
         transform="matrix(0.34063817,0,0,0.34063817,-48.932311,-66.628954)"
         clip-rule="evenodd"
         id="path11" />
    </clipPath>
    <clipPath
       clipPathUnits="userSpaceOnUse"
       id="clipPath12">
      <path
         d="M 25.304932,224.95703 H 233.73718 V 351.19141 H 25.304932 Z"
         transform="matrix(0.34063817,0,0,0.34063817,-8.6198118,-87.628954)"
         clip-rule="evenodd"
         id="path12" />
    </clipPath>
    <clipPath
       clipPathUnits="userSpaceOnUse"
       id="clipPath13">
      <path
         d="M 25.304932,224.95703 H 233.73718 V 351.19141 H 25.304932 Z"
         transform="matrix(0.34063817,0,0,0.34063817,-37.963561,-87.628954)"
         clip-rule="evenodd"
         id="path13" />
    </clipPath>
    <clipPath
       clipPathUnits="userSpaceOnUse"
       id="clipPath14">
      <path
         d="M 25.304932,224.95703 H 233.73718 V 351.19141 H 25.304932 Z"
         transform="matrix(0.34063817,0,0,0.34063817,-8.6198118,-101.62895)"
         clip-rule="evenodd"
         id="path14" />
    </clipPath>
    <clipPath
       clipPathUnits="userSpaceOnUse"
       id="clipPath15">
      <path
         d="M 25.304932,224.95703 H 233.73718 V 351.19141 H 25.304932 Z"
         transform="matrix(0.34063817,0,0,0.34063817,-23.291692,-101.62895)"
         clip-rule="evenodd"
         id="path15" />
    </clipPath>
    <clipPath
       clipPathUnits="userSpaceOnUse"
       id="clipPath16">
      <path
         d="M 25.304932,224.95703 H 233.73718 V 351.19141 H 25.304932 Z"
         transform="matrix(0.34063817,0,0,0.34063817,-8.6198118,-116.62896)"
         clip-rule="evenodd"
         id="path16" />
    </clipPath>
    <clipPath
       clipPathUnits="userSpaceOnUse"
       id="clipPath17">
      <path
         d="M 25.304932,224.95703 H 233.73718 V 351.19141 H 25.304932 Z"
         transform="matrix(0.34063817,0,0,0.34063817,-29.307312,-116.62896)"
         clip-rule="evenodd"
         id="path17" />
    </clipPath>
  </defs>
  <g
     id="g1">
    <path
       id="path1"
       d="M 0,0 H 156 V 118 H 0 Z"
       style="fill:#ffffff;fill-opacity:1;fill-rule:nonzero;stroke:none"
       clip-path="url(#clipPath2)" />
    <path
       id="path3"
       d="m 724.01001,12598 v -42.5 c 0,-5 -2.5,-7.5 -7.5,-7.5 h -145 c -5,0 -7.5,2.5 -7.5,7.5 v 42.5"
       style="fill:none;stroke:#000000;stroke-width:1;stroke-linecap:butt;stroke-linejoin:miter;stroke-miterlimit:10;stroke-dasharray:none;stroke-opacity:1"
       transform="matrix(0.93941318,0,0,0.93941318,-526.89822,-11784.818)"
       clip-path="url(#clipPath4)" />
    <path
       id="path5"
       d="m 564.01001,12598 v 62.5 c 0,5 2.5,7.5 7.5,7.5 h 145 c 5,0 7.5,-2.5 7.5,-7.5 v -62.5"
       style="fill:none;stroke:#000000;stroke-width:1;stroke-linecap:butt;stroke-linejoin:miter;stroke-miterlimit:10;stroke-dasharray:none;stroke-opacity:1"
       transform="matrix(0.93941318,0,0,0.93941318,-526.89822,-11784.818)"
       clip-path="url(#clipPath6)" />
    <path
       id="path7"
       d="m 564.01001,12598 h 160"
       style="fill:none;stroke:#000000;stroke-width:1;stroke-linecap:butt;stroke-linejoin:miter;stroke-miterlimit:10;stroke-dasharray:none;stroke-opacity:1"
       transform="matrix(0.93941318,0,0,0.93941318,-526.89822,-11784.818)"
       clip-path="url(#clipPath8)" />
    <text
       id="text8"
       xml:space="preserve"
       transform="matrix(0.93941318,0,0,0.93941318,53.438934,23.136764)"
       clip-path="url(#clipPath9)"><tspan
         id="tspan8"
         style="font-variant:normal;font-weight:normal;font-size:16px;font-family:Arial;writing-mode:lr-tb;fill:#000000;fill-opacity:1;fill-rule:nonzero;stroke:none"
         x="0"
         y="0">«state»</tspan></text>
    <text
       id="text9"
       xml:space="preserve"
       transform="matrix(0.93941318,0,0,0.93941318,17.932046,40.985615)"
       clip-path="url(#clipPath10)"><tspan
         id="tspan9"
         style="font-variant:normal;font-weight:normal;font-size:16px;font-family:Arial;writing-mode:lr-tb;fill:#000000;fill-opacity:1;fill-rule:nonzero;stroke:none"
         x="0"
         y="0">state1 : StateDef1</tspan></text>
    <text
       id="text10"
       xml:space="preserve"
       transform="matrix(0.93941318,0,0,0.93941318,45.967658,62.592118)"
       clip-path="url(#clipPath11)"><tspan
         id="tspan10"
         style="font-style:italic;font-variant:normal;font-weight:normal;font-size:12px;font-family:Arial;writing-mode:lr-tb;fill:#000000;fill-opacity:1;fill-rule:nonzero;stroke:none"
         x="0"
         y="0">state actions</tspan></text>
    <text
       id="text11"
       xml:space="preserve"
       transform="matrix(0.93941318,0,0,0.93941318,8.0975648,82.319794)"
       clip-path="url(#clipPath12)"><tspan
         id="tspan11"
         style="font-variant:normal;font-weight:700;font-size:12px;font-family:Arial;writing-mode:lr-tb;fill:#000000;fill-opacity:1;fill-rule:nonzero;stroke:none"
         x="0"
         y="0">entry</tspan></text>
    <text
       id="text12"
       xml:space="preserve"
       transform="matrix(0.93941318,0,0,0.93941318,35.66347,82.319794)"
       clip-path="url(#clipPath13)"><tspan
         id="tspan12"
         style="font-variant:normal;font-weight:normal;font-size:12px;font-family:Arial;writing-mode:lr-tb;fill:#000000;fill-opacity:1;fill-rule:nonzero;stroke:none"
         x="0"
         y="0"> action1</tspan></text>
    <text
       id="text13"
       xml:space="preserve"
       transform="matrix(0.93941318,0,0,0.93941318,8.0975648,95.471579)"
       clip-path="url(#clipPath14)"><tspan
         id="tspan13"
         style="font-variant:normal;font-weight:700;font-size:12px;font-family:Arial;writing-mode:lr-tb;fill:#000000;fill-opacity:1;fill-rule:nonzero;stroke:none"
         x="0"
         y="0">do</tspan></text>
    <g
       id="g14" />
    <text
       id="text14"
       xml:space="preserve"
       transform="matrix(0.93941318,0,0,0.93941318,21.880522,95.471579)"
       clip-path="url(#clipPath15)"><tspan
         id="tspan14"
         style="font-variant:normal;font-weight:normal;font-size:12px;font-family:Arial;writing-mode:lr-tb;fill:#000000;fill-opacity:1;fill-rule:nonzero;stroke:none"
         x="0"
         y="0"> action2</tspan></text>
    <text
       id="text15"
       xml:space="preserve"
       transform="matrix(0.93941318,0,0,0.93941318,8.0975648,109.56278)"
       clip-path="url(#clipPath16)"><tspan
         id="tspan15"
         style="font-variant:normal;font-weight:700;font-size:12px;font-family:Arial;writing-mode:lr-tb;fill:#000000;fill-opacity:1;fill-rule:nonzero;stroke:none"
         x="0"
         y="0">exit</tspan></text>
    <g
       id="g16" />
    <text
       id="text16"
       xml:space="preserve"
       transform="matrix(0.93941318,0,0,0.93941318,27.531675,109.56278)"
       clip-path="url(#clipPath17)"><tspan
         id="tspan16"
         style="font-variant:normal;font-weight:normal;font-size:12px;font-family:Arial;writing-mode:lr-tb;fill:#000000;fill-opacity:1;fill-rule:nonzero;stroke:none"
         x="0"
         y="0"> action3</tspan></text>
  </g>
</svg>
