<?xml version="1.0" encoding="UTF-8" standalone="no"?>
<!-- Created with Inkscape (http://www.inkscape.org/) -->

<svg
   version="1.1"
   id="svg1"
   width="280"
   height="204.15999"
   viewBox="0 0 280 204.15999"
   xmlns="http://www.w3.org/2000/svg"
   xmlns:svg="http://www.w3.org/2000/svg">
  <defs
     id="defs1">
    <clipPath
       clipPathUnits="userSpaceOnUse"
       id="clipPath2">
      <path
         d="M 0,0 H 875.97656 V 639 H 0 Z"
         transform="scale(0.31999999)"
         clip-rule="evenodd"
         id="path2" />
    </clipPath>
    <clipPath
       clipPathUnits="userSpaceOnUse"
       id="clipPath4">
      <path
         d="m 3.125,3.125 h 868.75 V 637.5 H 3.125 Z"
         transform="matrix(0.33851898,0,0,0.33851898,119.88348,5983.8843)"
         clip-rule="evenodd"
         id="path4" />
    </clipPath>
    <clipPath
       clipPathUnits="userSpaceOnUse"
       id="clipPath5">
      <path
         d="m 3.125,3.125 h 868.75 V 637.5 H 3.125 Z"
         transform="matrix(0.33851898,0,0,0.33851898,-108.64778,-20.615746)"
         clip-rule="evenodd"
         id="path5" />
    </clipPath>
    <clipPath
       clipPathUnits="userSpaceOnUse"
       id="clipPath6">
      <path
         d="m 3.125,3.125 h 868.75 V 637.5 H 3.125 Z"
         transform="matrix(0.33851898,0,0,0.33851898,-4.616523,-35.615745)"
         clip-rule="evenodd"
         id="path6" />
    </clipPath>
    <clipPath
       clipPathUnits="userSpaceOnUse"
       id="clipPath7">
      <path
         d="m 3.125,3.125 h 868.75 V 637.5 H 3.125 Z"
         transform="matrix(0.33851898,0,0,0.33851898,-11.632149,-35.615745)"
         clip-rule="evenodd"
         id="path7" />
    </clipPath>
    <clipPath
       clipPathUnits="userSpaceOnUse"
       id="clipPath8">
      <path
         d="m 3.125,3.125 h 868.75 V 637.5 H 3.125 Z"
         transform="matrix(0.33851898,0,0,0.33851898,-4.616523,-52.615745)"
         clip-rule="evenodd"
         id="path8" />
    </clipPath>
    <clipPath
       clipPathUnits="userSpaceOnUse"
       id="clipPath9">
      <path
         d="m 3.125,3.125 h 868.75 V 637.5 H 3.125 Z"
         transform="matrix(0.33851898,0,0,0.33851898,-104.02277,-52.615745)"
         clip-rule="evenodd"
         id="path9" />
    </clipPath>
    <clipPath
       clipPathUnits="userSpaceOnUse"
       id="clipPath10">
      <path
         d="m 3.125,3.125 h 868.75 V 637.5 H 3.125 Z"
         transform="matrix(0.33851898,0,0,0.33851898,-108.02278,-52.615745)"
         clip-rule="evenodd"
         id="path10" />
    </clipPath>
    <clipPath
       clipPathUnits="userSpaceOnUse"
       id="clipPath11">
      <path
         d="m 3.125,3.125 h 868.75 V 637.5 H 3.125 Z"
         transform="matrix(0.33851898,0,0,0.33851898,-126.03841,-52.615745)"
         clip-rule="evenodd"
         id="path11" />
    </clipPath>
    <clipPath
       clipPathUnits="userSpaceOnUse"
       id="clipPath12">
      <path
         d="m 3.125,3.125 h 868.75 V 637.5 H 3.125 Z"
         transform="matrix(0.33851898,0,0,0.33851898,-130.0384,-52.615745)"
         clip-rule="evenodd"
         id="path12" />
    </clipPath>
    <clipPath
       clipPathUnits="userSpaceOnUse"
       id="clipPath13">
      <path
         d="m 3.125,3.125 h 868.75 V 637.5 H 3.125 Z"
         transform="matrix(0.33851898,0,0,0.33851898,-133.38215,-52.615745)"
         clip-rule="evenodd"
         id="path13" />
    </clipPath>
    <clipPath
       clipPathUnits="userSpaceOnUse"
       id="clipPath14">
      <path
         d="m 3.125,3.125 h 868.75 V 637.5 H 3.125 Z"
         transform="matrix(0.33851898,0,0,0.33851898,-4.616523,-69.615745)"
         clip-rule="evenodd"
         id="path14" />
    </clipPath>
    <clipPath
       clipPathUnits="userSpaceOnUse"
       id="clipPath15">
      <path
         d="m 3.125,3.125 h 868.75 V 637.5 H 3.125 Z"
         transform="matrix(0.33851898,0,0,0.33851898,-121.3509,-69.615745)"
         clip-rule="evenodd"
         id="path15" />
    </clipPath>
    <clipPath
       clipPathUnits="userSpaceOnUse"
       id="clipPath16">
      <path
         d="m 3.125,3.125 h 868.75 V 637.5 H 3.125 Z"
         transform="matrix(0.33851898,0,0,0.33851898,-174.71028,-69.615745)"
         clip-rule="evenodd"
         id="path16" />
    </clipPath>
    <clipPath
       clipPathUnits="userSpaceOnUse"
       id="clipPath17">
      <path
         d="m 3.125,3.125 h 868.75 V 637.5 H 3.125 Z"
         transform="matrix(0.33851898,0,0,0.33851898,-4.616523,-86.615746)"
         clip-rule="evenodd"
         id="path17" />
    </clipPath>
    <clipPath
       clipPathUnits="userSpaceOnUse"
       id="clipPath18">
      <path
         d="m 3.125,3.125 h 868.75 V 637.5 H 3.125 Z"
         transform="matrix(0.33851898,0,0,0.33851898,-121.3509,-86.615746)"
         clip-rule="evenodd"
         id="path18" />
    </clipPath>
    <clipPath
       clipPathUnits="userSpaceOnUse"
       id="clipPath19">
      <path
         d="m 3.125,3.125 h 868.75 V 637.5 H 3.125 Z"
         transform="matrix(0.33851898,0,0,0.33851898,-139.36653,-86.615746)"
         clip-rule="evenodd"
         id="path19" />
    </clipPath>
    <clipPath
       clipPathUnits="userSpaceOnUse"
       id="clipPath20">
      <path
         d="m 3.125,3.125 h 868.75 V 637.5 H 3.125 Z"
         transform="matrix(0.33851898,0,0,0.33851898,-4.616523,-103.61575)"
         clip-rule="evenodd"
         id="path20" />
    </clipPath>
    <clipPath
       clipPathUnits="userSpaceOnUse"
       id="clipPath21">
      <path
         d="m 3.125,3.125 h 868.75 V 637.5 H 3.125 Z"
         transform="matrix(0.33851898,0,0,0.33851898,-22.632148,-103.61575)"
         clip-rule="evenodd"
         id="path21" />
    </clipPath>
    <clipPath
       clipPathUnits="userSpaceOnUse"
       id="clipPath22">
      <path
         d="m 3.125,3.125 h 868.75 V 637.5 H 3.125 Z"
         transform="matrix(0.33851898,0,0,0.33851898,-4.616523,-119.61574)"
         clip-rule="evenodd"
         id="path22" />
    </clipPath>
    <clipPath
       clipPathUnits="userSpaceOnUse"
       id="clipPath23">
      <path
         d="m 3.125,3.125 h 868.75 V 637.5 H 3.125 Z"
         transform="matrix(0.33851898,0,0,0.33851898,-120.02278,-119.61574)"
         clip-rule="evenodd"
         id="path23" />
    </clipPath>
    <clipPath
       clipPathUnits="userSpaceOnUse"
       id="clipPath24">
      <path
         d="m 3.125,3.125 h 868.75 V 637.5 H 3.125 Z"
         transform="matrix(0.33851898,0,0,0.33851898,-124.02277,-119.61574)"
         clip-rule="evenodd"
         id="path24" />
    </clipPath>
    <clipPath
       clipPathUnits="userSpaceOnUse"
       id="clipPath25">
      <path
         d="m 3.125,3.125 h 868.75 V 637.5 H 3.125 Z"
         transform="matrix(0.33851898,0,0,0.33851898,-134.02277,-119.61574)"
         clip-rule="evenodd"
         id="path25" />
    </clipPath>
    <clipPath
       clipPathUnits="userSpaceOnUse"
       id="clipPath26">
      <path
         d="m 3.125,3.125 h 868.75 V 637.5 H 3.125 Z"
         transform="matrix(0.33851898,0,0,0.33851898,-138.02277,-119.61574)"
         clip-rule="evenodd"
         id="path26" />
    </clipPath>
    <clipPath
       clipPathUnits="userSpaceOnUse"
       id="clipPath27">
      <path
         d="m 3.125,3.125 h 868.75 V 637.5 H 3.125 Z"
         transform="matrix(0.33851898,0,0,0.33851898,-141.36653,-119.61574)"
         clip-rule="evenodd"
         id="path27" />
    </clipPath>
    <clipPath
       clipPathUnits="userSpaceOnUse"
       id="clipPath28">
      <path
         d="m 3.125,3.125 h 868.75 V 637.5 H 3.125 Z"
         transform="matrix(0.33851898,0,0,0.33851898,-186.7259,-119.61574)"
         clip-rule="evenodd"
         id="path28" />
    </clipPath>
    <clipPath
       clipPathUnits="userSpaceOnUse"
       id="clipPath29">
      <path
         d="m 3.125,3.125 h 868.75 V 637.5 H 3.125 Z"
         transform="matrix(0.33851898,0,0,0.33851898,-4.616523,-136.61574)"
         clip-rule="evenodd"
         id="path29" />
    </clipPath>
    <clipPath
       clipPathUnits="userSpaceOnUse"
       id="clipPath30">
      <path
         d="m 3.125,3.125 h 868.75 V 637.5 H 3.125 Z"
         transform="matrix(0.33851898,0,0,0.33851898,-120.02278,-136.61574)"
         clip-rule="evenodd"
         id="path30" />
    </clipPath>
    <clipPath
       clipPathUnits="userSpaceOnUse"
       id="clipPath31">
      <path
         d="m 3.125,3.125 h 868.75 V 637.5 H 3.125 Z"
         transform="matrix(0.33851898,0,0,0.33851898,-124.02277,-136.61574)"
         clip-rule="evenodd"
         id="path31" />
    </clipPath>
    <clipPath
       clipPathUnits="userSpaceOnUse"
       id="clipPath32">
      <path
         d="m 3.125,3.125 h 868.75 V 637.5 H 3.125 Z"
         transform="matrix(0.33851898,0,0,0.33851898,-134.02277,-136.61574)"
         clip-rule="evenodd"
         id="path32" />
    </clipPath>
    <clipPath
       clipPathUnits="userSpaceOnUse"
       id="clipPath33">
      <path
         d="m 3.125,3.125 h 868.75 V 637.5 H 3.125 Z"
         transform="matrix(0.33851898,0,0,0.33851898,-138.02277,-136.61574)"
         clip-rule="evenodd"
         id="path33" />
    </clipPath>
    <clipPath
       clipPathUnits="userSpaceOnUse"
       id="clipPath34">
      <path
         d="m 3.125,3.125 h 868.75 V 637.5 H 3.125 Z"
         transform="matrix(0.33851898,0,0,0.33851898,-141.36653,-136.61574)"
         clip-rule="evenodd"
         id="path34" />
    </clipPath>
    <clipPath
       clipPathUnits="userSpaceOnUse"
       id="clipPath35">
      <path
         d="m 3.125,3.125 h 868.75 V 637.5 H 3.125 Z"
         transform="matrix(0.33851898,0,0,0.33851898,-152.38216,-136.61574)"
         clip-rule="evenodd"
         id="path35" />
    </clipPath>
    <clipPath
       clipPathUnits="userSpaceOnUse"
       id="clipPath36">
      <path
         d="m 3.125,3.125 h 868.75 V 637.5 H 3.125 Z"
         transform="matrix(0.33851898,0,0,0.33851898,-4.616523,-153.61574)"
         clip-rule="evenodd"
         id="path36" />
    </clipPath>
    <clipPath
       clipPathUnits="userSpaceOnUse"
       id="clipPath37">
      <path
         d="m 3.125,3.125 h 868.75 V 637.5 H 3.125 Z"
         transform="matrix(0.33851898,0,0,0.33851898,-49.319654,-153.61574)"
         clip-rule="evenodd"
         id="path37" />
    </clipPath>
    <clipPath
       clipPathUnits="userSpaceOnUse"
       id="clipPath38">
      <path
         d="m 3.125,3.125 h 868.75 V 637.5 H 3.125 Z"
         transform="matrix(0.33851898,0,0,0.33851898,-56.335274,-153.61574)"
         clip-rule="evenodd"
         id="path38" />
    </clipPath>
    <clipPath
       clipPathUnits="userSpaceOnUse"
       id="clipPath39">
      <path
         d="m 3.125,3.125 h 868.75 V 637.5 H 3.125 Z"
         transform="matrix(0.33851898,0,0,0.33851898,-4.616523,-170.61574)"
         clip-rule="evenodd"
         id="path39" />
    </clipPath>
    <clipPath
       clipPathUnits="userSpaceOnUse"
       id="clipPath40">
      <path
         d="m 3.125,3.125 h 868.75 V 637.5 H 3.125 Z"
         transform="matrix(0.33851898,0,0,0.33851898,-4.616523,-188.61575)"
         clip-rule="evenodd"
         id="path40" />
    </clipPath>
  </defs>
  <g
     id="g1">
    <path
       id="path1"
       d="M 0,0 H 280 V 204 H 0 Z"
       style="fill:#ffffff;fill-opacity:1;fill-rule:nonzero;stroke:none"
       clip-path="url(#clipPath2)" />
    <path
       id="path3"
       d="m 123,5987 h 290 v 210 H 123 Z"
       style="fill:#ffffff;fill-opacity:1;fill-rule:nonzero;stroke:#000000;stroke-width:1;stroke-linecap:butt;stroke-linejoin:miter;stroke-miterlimit:10;stroke-dasharray:none;stroke-opacity:1"
       transform="matrix(0.94529407,0,0,0.94529407,-113.32514,-5656.5303)"
       clip-path="url(#clipPath4)" />
    <text
       id="text4"
       xml:space="preserve"
       transform="matrix(0.94529407,0,0,0.94529407,102.7041,19.487942)"
       clip-path="url(#clipPath5)"><tspan
         id="tspan4"
         style="font-style:italic;font-variant:normal;font-weight:normal;font-size:12px;font-family:Arial;writing-mode:lr-tb;fill:#000000;fill-opacity:1;fill-rule:nonzero;stroke:none"
         x="0"
         y="0">exhibit states</tspan></text>
    <text
       id="text5"
       xml:space="preserve"
       transform="matrix(0.94529407,0,0,0.94529407,4.3639718,33.667353)"
       clip-path="url(#clipPath6)"><tspan
         id="tspan5"
         style="font-variant:normal;font-weight:700;font-size:12px;font-family:Arial;writing-mode:lr-tb;fill:#000000;fill-opacity:1;fill-rule:nonzero;stroke:none"
         x="0"
         y="0">^</tspan></text>
    <text
       id="text6"
       xml:space="preserve"
       transform="matrix(0.94529407,0,0,0.94529407,10.995801,33.667353)"
       clip-path="url(#clipPath7)"><tspan
         id="tspan6"
         style="font-variant:normal;font-weight:normal;font-size:12px;font-family:Arial;writing-mode:lr-tb;fill:#000000;fill-opacity:1;fill-rule:nonzero;stroke:none"
         x="0"
         y="0">state2 : StateDef2</tspan></text>
    <text
       id="text7"
       xml:space="preserve"
       transform="matrix(0.94529407,0,0,0.94529407,4.3639718,49.737352)"
       clip-path="url(#clipPath8)"><tspan
         id="tspan7"
         style="font-variant:normal;font-weight:normal;font-size:12px;font-family:Arial;writing-mode:lr-tb;fill:#000000;fill-opacity:1;fill-rule:nonzero;stroke:none"
         x="0"
         y="0">state1 : StateDef1 </tspan></text>
    <text
       id="text8"
       xml:space="preserve"
       transform="matrix(0.94529407,0,0,0.94529407,98.332111,49.737352)"
       clip-path="url(#clipPath9)"><tspan
         id="tspan8"
         style="font-variant:normal;font-weight:700;font-size:12px;font-family:Arial;writing-mode:lr-tb;fill:#000000;fill-opacity:1;fill-rule:nonzero;stroke:none"
         x="0"
         y="0">[</tspan></text>
    <text
       id="text9"
       xml:space="preserve"
       transform="matrix(0.94529407,0,0,0.94529407,102.11329,49.737352)"
       clip-path="url(#clipPath10)"><tspan
         id="tspan9"
         style="font-variant:normal;font-weight:normal;font-size:12px;font-family:Arial;writing-mode:lr-tb;fill:#000000;fill-opacity:1;fill-rule:nonzero;stroke:none"
         x="0"
         y="0">1..*</tspan></text>
    <text
       id="text10"
       xml:space="preserve"
       transform="matrix(0.94529407,0,0,0.94529407,119.14336,49.737352)"
       clip-path="url(#clipPath11)"><tspan
         id="tspan10"
         style="font-variant:normal;font-weight:700;font-size:12px;font-family:Arial;writing-mode:lr-tb;fill:#000000;fill-opacity:1;fill-rule:nonzero;stroke:none"
         x="0"
         y="0">]</tspan></text>
    <text
       id="text11"
       xml:space="preserve"
       transform="matrix(0.94529407,0,0,0.94529407,122.92453,49.737352)"
       clip-path="url(#clipPath12)"><tspan
         id="tspan11"
         style="font-variant:normal;font-weight:normal;font-size:12px;font-family:Arial;writing-mode:lr-tb;fill:#000000;fill-opacity:1;fill-rule:nonzero;stroke:none"
         x="0"
         y="0"> </tspan></text>
    <text
       id="text12"
       xml:space="preserve"
       transform="matrix(0.94529407,0,0,0.94529407,126.08536,49.737352)"
       clip-path="url(#clipPath13)"><tspan
         id="tspan12"
         style="font-variant:normal;font-weight:700;font-size:12px;font-family:Arial;writing-mode:lr-tb;fill:#000000;fill-opacity:1;fill-rule:nonzero;stroke:none"
         x="0"
         y="0">ordered nonunique</tspan></text>
    <g
       id="g13" />
    <text
       id="text13"
       xml:space="preserve"
       transform="matrix(0.94529407,0,0,0.94529407,4.3639718,65.807351)"
       clip-path="url(#clipPath14)"><tspan
         id="tspan13"
         style="font-variant:normal;font-weight:normal;font-size:12px;font-family:Arial;writing-mode:lr-tb;fill:#000000;fill-opacity:1;fill-rule:nonzero;stroke:none"
         x="0"
         y="0">state3R : StateDef3R </tspan></text>
    <text
       id="text14"
       xml:space="preserve"
       transform="matrix(0.94529407,0,0,0.94529407,114.71229,65.807351)"
       clip-path="url(#clipPath15)"><tspan
         id="tspan14"
         style="font-variant:normal;font-weight:700;font-size:12px;font-family:Arial;writing-mode:lr-tb;fill:#000000;fill-opacity:1;fill-rule:nonzero;stroke:none"
         x="0"
         y="0">redefines</tspan></text>
    <text
       id="text15"
       xml:space="preserve"
       transform="matrix(0.94529407,0,0,0.94529407,165.15259,65.807351)"
       clip-path="url(#clipPath16)"><tspan
         id="tspan15"
         style="font-variant:normal;font-weight:normal;font-size:12px;font-family:Arial;writing-mode:lr-tb;fill:#000000;fill-opacity:1;fill-rule:nonzero;stroke:none"
         x="0"
         y="0"> state3</tspan></text>
    <text
       id="text16"
       xml:space="preserve"
       transform="matrix(0.94529407,0,0,0.94529407,4.3639718,81.877351)"
       clip-path="url(#clipPath17)"><tspan
         id="tspan16"
         style="font-variant:normal;font-weight:normal;font-size:12px;font-family:Arial;writing-mode:lr-tb;fill:#000000;fill-opacity:1;fill-rule:nonzero;stroke:none"
         x="0"
         y="0">state4R : StateDef4R </tspan></text>
    <text
       id="text17"
       xml:space="preserve"
       transform="matrix(0.94529407,0,0,0.94529407,114.71229,81.877351)"
       clip-path="url(#clipPath18)"><tspan
         id="tspan17"
         style="font-variant:normal;font-weight:700;font-size:12px;font-family:Arial;writing-mode:lr-tb;fill:#000000;fill-opacity:1;fill-rule:nonzero;stroke:none"
         x="0"
         y="0">:&gt;&gt;</tspan></text>
    <text
       id="text18"
       xml:space="preserve"
       transform="matrix(0.94529407,0,0,0.94529407,131.74235,81.877351)"
       clip-path="url(#clipPath19)"><tspan
         id="tspan18"
         style="font-variant:normal;font-weight:normal;font-size:12px;font-family:Arial;writing-mode:lr-tb;fill:#000000;fill-opacity:1;fill-rule:nonzero;stroke:none"
         x="0"
         y="0"> state4</tspan></text>
    <text
       id="text19"
       xml:space="preserve"
       transform="matrix(0.94529407,0,0,0.94529407,4.3639718,97.94735)"
       clip-path="url(#clipPath20)"><tspan
         id="tspan19"
         style="font-variant:normal;font-weight:700;font-size:12px;font-family:Arial;writing-mode:lr-tb;fill:#000000;fill-opacity:1;fill-rule:nonzero;stroke:none"
         x="0"
         y="0">:&gt;&gt;</tspan></text>
    <text
       id="text20"
       xml:space="preserve"
       transform="matrix(0.94529407,0,0,0.94529407,21.394035,97.94735)"
       clip-path="url(#clipPath21)"><tspan
         id="tspan20"
         style="font-variant:normal;font-weight:normal;font-size:12px;font-family:Arial;writing-mode:lr-tb;fill:#000000;fill-opacity:1;fill-rule:nonzero;stroke:none"
         x="0"
         y="0"> state5</tspan></text>
    <text
       id="text21"
       xml:space="preserve"
       transform="matrix(0.94529407,0,0,0.94529407,4.3639718,113.07205)"
       clip-path="url(#clipPath22)"><tspan
         id="tspan21"
         style="font-variant:normal;font-weight:normal;font-size:12px;font-family:Arial;writing-mode:lr-tb;fill:#000000;fill-opacity:1;fill-rule:nonzero;stroke:none"
         x="0"
         y="0">state6S : StateDef6S </tspan></text>
    <text
       id="text22"
       xml:space="preserve"
       transform="matrix(0.94529407,0,0,0.94529407,113.45682,113.07205)"
       clip-path="url(#clipPath23)"><tspan
         id="tspan22"
         style="font-variant:normal;font-weight:700;font-size:12px;font-family:Arial;writing-mode:lr-tb;fill:#000000;fill-opacity:1;fill-rule:nonzero;stroke:none"
         x="0"
         y="0">[</tspan></text>
    <text
       id="text23"
       xml:space="preserve"
       transform="matrix(0.94529407,0,0,0.94529407,117.23799,113.07205)"
       clip-path="url(#clipPath24)"><tspan
         id="tspan23"
         style="font-variant:normal;font-weight:normal;font-size:12px;font-family:Arial;writing-mode:lr-tb;fill:#000000;fill-opacity:1;fill-rule:nonzero;stroke:none"
         x="0"
         y="0">m</tspan></text>
    <text
       id="text24"
       xml:space="preserve"
       transform="matrix(0.94529407,0,0,0.94529407,126.69093,113.07205)"
       clip-path="url(#clipPath25)"><tspan
         id="tspan24"
         style="font-variant:normal;font-weight:700;font-size:12px;font-family:Arial;writing-mode:lr-tb;fill:#000000;fill-opacity:1;fill-rule:nonzero;stroke:none"
         x="0"
         y="0">]</tspan></text>
    <g
       id="g25" />
    <text
       id="text25"
       xml:space="preserve"
       transform="matrix(0.94529407,0,0,0.94529407,130.47211,113.07205)"
       clip-path="url(#clipPath26)"><tspan
         id="tspan25"
         style="font-variant:normal;font-weight:normal;font-size:12px;font-family:Arial;writing-mode:lr-tb;fill:#000000;fill-opacity:1;fill-rule:nonzero;stroke:none"
         x="0"
         y="0"> </tspan></text>
    <text
       id="text26"
       xml:space="preserve"
       transform="matrix(0.94529407,0,0,0.94529407,133.63294,113.07205)"
       clip-path="url(#clipPath27)"><tspan
         id="tspan26"
         style="font-variant:normal;font-weight:700;font-size:12px;font-family:Arial;writing-mode:lr-tb;fill:#000000;fill-opacity:1;fill-rule:nonzero;stroke:none"
         x="0"
         y="0">subsets</tspan></text>
    <text
       id="text27"
       xml:space="preserve"
       transform="matrix(0.94529407,0,0,0.94529407,176.51089,113.07205)"
       clip-path="url(#clipPath28)"><tspan
         id="tspan27"
         style="font-variant:normal;font-weight:normal;font-size:12px;font-family:Arial;writing-mode:lr-tb;fill:#000000;fill-opacity:1;fill-rule:nonzero;stroke:none"
         x="0"
         y="0"> state6</tspan></text>
    <text
       id="text28"
       xml:space="preserve"
       transform="matrix(0.94529407,0,0,0.94529407,4.3639718,129.14205)"
       clip-path="url(#clipPath29)"><tspan
         id="tspan28"
         style="font-variant:normal;font-weight:normal;font-size:12px;font-family:Arial;writing-mode:lr-tb;fill:#000000;fill-opacity:1;fill-rule:nonzero;stroke:none"
         x="0"
         y="0">state7S : StateDef7S </tspan></text>
    <text
       id="text29"
       xml:space="preserve"
       transform="matrix(0.94529407,0,0,0.94529407,113.45682,129.14205)"
       clip-path="url(#clipPath30)"><tspan
         id="tspan29"
         style="font-variant:normal;font-weight:700;font-size:12px;font-family:Arial;writing-mode:lr-tb;fill:#000000;fill-opacity:1;fill-rule:nonzero;stroke:none"
         x="0"
         y="0">[</tspan></text>
    <text
       id="text30"
       xml:space="preserve"
       transform="matrix(0.94529407,0,0,0.94529407,117.23799,129.14205)"
       clip-path="url(#clipPath31)"><tspan
         id="tspan30"
         style="font-variant:normal;font-weight:normal;font-size:12px;font-family:Arial;writing-mode:lr-tb;fill:#000000;fill-opacity:1;fill-rule:nonzero;stroke:none"
         x="0"
         y="0">m</tspan></text>
    <text
       id="text31"
       xml:space="preserve"
       transform="matrix(0.94529407,0,0,0.94529407,126.69093,129.14205)"
       clip-path="url(#clipPath32)"><tspan
         id="tspan31"
         style="font-variant:normal;font-weight:700;font-size:12px;font-family:Arial;writing-mode:lr-tb;fill:#000000;fill-opacity:1;fill-rule:nonzero;stroke:none"
         x="0"
         y="0">]</tspan></text>
    <text
       id="text32"
       xml:space="preserve"
       transform="matrix(0.94529407,0,0,0.94529407,130.47211,129.14205)"
       clip-path="url(#clipPath33)"><tspan
         id="tspan32"
         style="font-variant:normal;font-weight:normal;font-size:12px;font-family:Arial;writing-mode:lr-tb;fill:#000000;fill-opacity:1;fill-rule:nonzero;stroke:none"
         x="0"
         y="0"> </tspan></text>
    <text
       id="text33"
       xml:space="preserve"
       transform="matrix(0.94529407,0,0,0.94529407,133.63294,129.14205)"
       clip-path="url(#clipPath34)"><tspan
         id="tspan33"
         style="font-variant:normal;font-weight:700;font-size:12px;font-family:Arial;writing-mode:lr-tb;fill:#000000;fill-opacity:1;fill-rule:nonzero;stroke:none"
         x="0"
         y="0">:&gt;</tspan></text>
    <text
       id="text34"
       xml:space="preserve"
       transform="matrix(0.94529407,0,0,0.94529407,144.04595,129.14205)"
       clip-path="url(#clipPath35)"><tspan
         id="tspan34"
         style="font-variant:normal;font-weight:normal;font-size:12px;font-family:Arial;writing-mode:lr-tb;fill:#000000;fill-opacity:1;fill-rule:nonzero;stroke:none"
         x="0"
         y="0"> state7</tspan></text>
    <text
       id="text35"
       xml:space="preserve"
       transform="matrix(0.94529407,0,0,0.94529407,4.3639718,145.21205)"
       clip-path="url(#clipPath36)"><tspan
         id="tspan35"
         style="font-variant:normal;font-weight:normal;font-size:12px;font-family:Arial;writing-mode:lr-tb;fill:#000000;fill-opacity:1;fill-rule:nonzero;stroke:none"
         x="0"
         y="0">state8R </tspan></text>
    <text
       id="text36"
       xml:space="preserve"
       transform="matrix(0.94529407,0,0,0.94529407,46.621576,145.21205)"
       clip-path="url(#clipPath37)"><tspan
         id="tspan36"
         style="font-variant:normal;font-weight:700;font-size:12px;font-family:Arial;writing-mode:lr-tb;fill:#000000;fill-opacity:1;fill-rule:nonzero;stroke:none"
         x="0"
         y="0">=</tspan></text>
    <text
       id="text37"
       xml:space="preserve"
       transform="matrix(0.94529407,0,0,0.94529407,53.2534,145.21205)"
       clip-path="url(#clipPath38)"><tspan
         id="tspan37"
         style="font-variant:normal;font-weight:normal;font-size:12px;font-family:Arial;writing-mode:lr-tb;fill:#000000;fill-opacity:1;fill-rule:nonzero;stroke:none"
         x="0"
         y="0"> state8</tspan></text>
    <text
       id="text38"
       xml:space="preserve"
       transform="matrix(0.94529407,0,0,0.94529407,4.3639718,161.28205)"
       clip-path="url(#clipPath39)"><tspan
         id="tspan38"
         style="font-variant:normal;font-weight:normal;font-size:12px;font-family:Arial;writing-mode:lr-tb;fill:#000000;fill-opacity:1;fill-rule:nonzero;stroke:none"
         x="0"
         dx="0 0 0 0 0 0 -0.89062494"
         y="0">state11</tspan></text>
    <text
       id="text39"
       xml:space="preserve"
       transform="matrix(0.94529407,0,0,0.94529407,4.3639718,178.29735)"
       clip-path="url(#clipPath40)"><tspan
         id="tspan39"
         style="font-variant:normal;font-weight:700;font-size:14px;font-family:Arial;writing-mode:lr-tb;fill:#000000;fill-opacity:1;fill-rule:nonzero;stroke:none"
         x="0"
         y="0">...</tspan></text>
  </g>
</svg>
