<?xml version="1.0" encoding="UTF-8" standalone="no"?>
<!-- Created with Inkscape (http://www.inkscape.org/) -->

<svg
   version="1.1"
   id="svg1"
   width="155.84"
   height="40"
   viewBox="0 0 155.84 40"
   xmlns="http://www.w3.org/2000/svg"
   xmlns:svg="http://www.w3.org/2000/svg">
  <defs
     id="defs1">
    <clipPath
       clipPathUnits="userSpaceOnUse"
       id="clipPath2">
      <path
         d="M 0,0 H 488 V 125.97656 H 0 Z"
         transform="scale(0.31999999)"
         clip-rule="evenodd"
         id="path2" />
    </clipPath>
    <clipPath
       clipPathUnits="userSpaceOnUse"
       id="clipPath4">
      <path
         d="M 3.125,0 H 487.5 V 125.97656 H 3.125 Z"
         transform="matrix(0.34066536,0,0,0.34066536,557.86353,12345.001)"
         clip-rule="evenodd"
         id="path4" />
    </clipPath>
    <clipPath
       clipPathUnits="userSpaceOnUse"
       id="clipPath5">
      <path
         d="M 3.125,0 H 487.5 V 125.97656 H 3.125 Z"
         transform="matrix(0.34066536,0,0,0.34066536,-56.902129,-16.500257)"
         clip-rule="evenodd"
         id="path5" />
    </clipPath>
    <clipPath
       clipPathUnits="userSpaceOnUse"
       id="clipPath6">
      <path
         d="M 3.125,0 H 487.5 V 125.97656 H 3.125 Z"
         transform="matrix(0.34066536,0,0,0.34066536,-19.105249,-36.500257)"
         clip-rule="evenodd"
         id="path6" />
    </clipPath>
  </defs>
  <g
     id="g1">
    <path
       id="path1"
       d="M 0,0 H 156 V 40 H 0 Z"
       style="fill:#ffffff;fill-opacity:1;fill-rule:nonzero;stroke:none"
       clip-path="url(#clipPath2)" />
    <path
       id="path3"
       d="m 569,12346 h 144 c 0.52527,0 1.04553,0.05 1.56073,0.153 0.51514,0.103 1.01538,0.254 1.50067,0.455 0.48529,0.201 0.94629,0.447 1.38312,0.739 0.43671,0.292 0.84082,0.624 1.21228,0.996 0.3714,0.371 0.70306,0.775 0.99493,1.212 0.29181,0.436 0.53821,0.897 0.73926,1.383 0.20099,0.485 0.35278,0.986 0.45526,1.501 0.10248,0.515 0.15375,1.036 0.15375,1.561 v 24 c 0,0.524 -0.0512,1.044 -0.15369,1.559 -0.10254,0.515 -0.25433,1.015 -0.45532,1.501 -0.20105,0.485 -0.44751,0.946 -0.73932,1.382 -0.29181,0.438 -0.62347,0.842 -0.99487,1.214 -0.37146,0.371 -0.77557,0.702 -1.21228,0.994 -0.43683,0.291 -0.89783,0.538 -1.38312,0.74 -0.48529,0.2 -0.98553,0.352 -1.50067,0.456 -0.5152,0.102 -1.03546,0.153 -1.56073,0.154 H 569 c -0.52533,0 -1.04559,-0.05 -1.56079,-0.154 -0.5152,-0.104 -1.0155,-0.256 -1.50079,-0.456 -0.48529,-0.202 -0.94635,-0.449 -1.38306,-0.74 -0.43671,-0.292 -0.84082,-0.623 -1.21228,-0.994 -0.37146,-0.372 -0.70313,-0.776 -0.995,-1.214 -0.29181,-0.436 -0.5382,-0.897 -0.73919,-1.382 -0.20099,-0.486 -0.35279,-0.986 -0.45526,-1.5 -0.10248,-0.516 -0.15369,-1.036 -0.15363,-1.56 v -24 c -6e-5,-0.525 0.0512,-1.046 0.15363,-1.561 0.10247,-0.515 0.25427,-1.016 0.45526,-1.501 0.20099,-0.486 0.44738,-0.947 0.73919,-1.383 0.29187,-0.437 0.62354,-0.841 0.995,-1.212 0.37146,-0.372 0.77557,-0.704 1.21228,-0.996 0.43671,-0.292 0.89777,-0.538 1.38306,-0.739 0.48529,-0.201 0.98559,-0.352 1.50079,-0.455 0.5152,-0.102 1.03546,-0.153 1.56079,-0.153 z"
       style="fill:#ffffff;fill-opacity:1;fill-rule:nonzero;stroke:#000000;stroke-width:1;stroke-linecap:butt;stroke-linejoin:miter;stroke-miterlimit:10;stroke-dasharray:none;stroke-opacity:1"
       transform="matrix(0.9393382,0,0,0.9393382,-524.02252,-11596.131)"
       clip-path="url(#clipPath4)" />
    <text
       id="text4"
       xml:space="preserve"
       transform="matrix(0.9393382,0,0,0.9393382,53.450343,15.499322)"
       clip-path="url(#clipPath5)"><tspan
         id="tspan4"
         style="font-variant:normal;font-weight:normal;font-size:16px;font-family:Arial;writing-mode:lr-tb;fill:#000000;fill-opacity:1;fill-rule:nonzero;stroke:none"
         x="0"
         y="0">«state»</tspan></text>
    <text
       id="text5"
       xml:space="preserve"
       transform="matrix(0.9393382,0,0,0.9393382,17.94629,34.286086)"
       clip-path="url(#clipPath6)"><tspan
         id="tspan5"
         style="font-variant:normal;font-weight:normal;font-size:16px;font-family:Arial;writing-mode:lr-tb;fill:#000000;fill-opacity:1;fill-rule:nonzero;stroke:none"
         x="0"
         y="0">state1 : StateDef1</tspan></text>
  </g>
</svg>
