<?xml version="1.0" encoding="UTF-8" standalone="no"?>
<!-- Created with Inkscape (http://www.inkscape.org/) -->

<svg
   version="1.1"
   id="svg1"
   width="310.72"
   height="208"
   viewBox="0 0 310.72 208"
   xmlns="http://www.w3.org/2000/svg"
   xmlns:svg="http://www.w3.org/2000/svg">
  <defs
     id="defs1">
    <clipPath
       clipPathUnits="userSpaceOnUse"
       id="clipPath2">
      <path
         d="M 0,0 H 968.99414 V 650.97656 H 0 Z"
         transform="scale(0.31999999)"
         clip-rule="evenodd"
         id="path2" />
    </clipPath>
    <clipPath
       clipPathUnits="userSpaceOnUse"
       id="clipPath4">
      <path
         d="m 3.125,0 h 962.5 V 650 H 3.125 Z"
         transform="matrix(0.33696952,0,0,0.33696952,959.89049,822.94702)"
         clip-rule="evenodd"
         id="path4" />
    </clipPath>
    <clipPath
       clipPathUnits="userSpaceOnUse"
       id="clipPath5">
      <path
         d="m 3.125,0 h 962.5 V 650 H 3.125 Z"
         transform="matrix(0.33696952,0,0,0.33696952,-136.35942,-23.553055)"
         clip-rule="evenodd"
         id="path5" />
    </clipPath>
    <clipPath
       clipPathUnits="userSpaceOnUse"
       id="clipPath6">
      <path
         d="m 3.125,0 h 962.5 V 650 H 3.125 Z"
         transform="matrix(0.33696952,0,0,0.33696952,-103.01567,-42.553054)"
         clip-rule="evenodd"
         id="path6" />
    </clipPath>
    <clipPath
       clipPathUnits="userSpaceOnUse"
       id="clipPath8">
      <path
         d="m 3.125,0 h 962.5 V 650 H 3.125 Z"
         transform="matrix(0.33696952,0,0,0.33696952,959.89049,822.94702)"
         clip-rule="evenodd"
         id="path8" />
    </clipPath>
    <clipPath
       clipPathUnits="userSpaceOnUse"
       id="clipPath9">
      <path
         d="m 3.125,0 h 962.5 V 650 H 3.125 Z"
         transform="matrix(0.33696952,0,0,0.33696952,-160.81255,-95.553054)"
         clip-rule="evenodd"
         id="path9" />
    </clipPath>
    <clipPath
       clipPathUnits="userSpaceOnUse"
       id="clipPath11">
      <path
         d="m 3.125,0 h 962.5 V 650 H 3.125 Z"
         transform="matrix(0.33696952,0,0,0.33696952,959.89049,822.94702)"
         clip-rule="evenodd"
         id="path11" />
    </clipPath>
    <clipPath
       clipPathUnits="userSpaceOnUse"
       id="clipPath12">
      <path
         d="m 3.125,0 h 962.5 V 650 H 3.125 Z"
         transform="matrix(0.33696952,0,0,0.33696952,-160.81255,-180.55305)"
         clip-rule="evenodd"
         id="path12" />
    </clipPath>
    <clipPath
       clipPathUnits="userSpaceOnUse"
       id="clipPath14">
      <path
         d="m 3.125,0 h 962.5 V 650 H 3.125 Z"
         transform="matrix(0.33696952,0,0,0.33696952,959.89049,822.94702)"
         clip-rule="evenodd"
         id="path14" />
    </clipPath>
    <clipPath
       clipPathUnits="userSpaceOnUse"
       id="clipPath16">
      <path
         d="m 3.125,0 h 962.5 V 650 H 3.125 Z"
         transform="matrix(0.33696952,0,0,0.33696952,959.89049,822.94702)"
         clip-rule="evenodd"
         id="path16" />
    </clipPath>
    <clipPath
       clipPathUnits="userSpaceOnUse"
       id="clipPath18">
      <path
         d="m 3.125,0 h 962.5 V 650 H 3.125 Z"
         transform="matrix(0.33696952,0,0,0.33696952,959.89049,822.94702)"
         clip-rule="evenodd"
         id="path18" />
    </clipPath>
    <clipPath
       clipPathUnits="userSpaceOnUse"
       id="clipPath20">
      <path
         d="m 3.125,0 h 962.5 V 650 H 3.125 Z"
         transform="matrix(0.33696952,0,0,0.33696952,959.89049,822.94702)"
         clip-rule="evenodd"
         id="path20" />
    </clipPath>
    <clipPath
       clipPathUnits="userSpaceOnUse"
       id="clipPath22">
      <path
         d="m 3.125,0 h 962.5 V 650 H 3.125 Z"
         transform="matrix(0.33696952,0,0,0.33696952,959.89049,822.94702)"
         clip-rule="evenodd"
         id="path22" />
    </clipPath>
    <clipPath
       clipPathUnits="userSpaceOnUse"
       id="clipPath24">
      <path
         d="m 3.125,0 h 962.5 V 650 H 3.125 Z"
         transform="matrix(0.33696952,0,0,0.33696952,959.89049,822.94702)"
         clip-rule="evenodd"
         id="path24" />
    </clipPath>
    <clipPath
       clipPathUnits="userSpaceOnUse"
       id="clipPath26">
      <path
         d="m 3.125,0 h 962.5 V 650 H 3.125 Z"
         transform="matrix(0.33696952,0,0,0.33696952,959.89049,822.94702)"
         clip-rule="evenodd"
         id="path26" />
    </clipPath>
    <clipPath
       clipPathUnits="userSpaceOnUse"
       id="clipPath28">
      <path
         d="m 3.125,0 h 962.5 V 650 H 3.125 Z"
         transform="matrix(0.33696952,0,0,0.33696952,959.89049,822.94702)"
         clip-rule="evenodd"
         id="path28" />
    </clipPath>
    <clipPath
       clipPathUnits="userSpaceOnUse"
       id="clipPath30">
      <path
         d="m 3.125,0 h 962.5 V 650 H 3.125 Z"
         transform="matrix(0.33696952,0,0,0.33696952,959.89049,822.94702)"
         clip-rule="evenodd"
         id="path30" />
    </clipPath>
    <clipPath
       clipPathUnits="userSpaceOnUse"
       id="clipPath31">
      <path
         d="m 3.125,0 h 962.5 V 650 H 3.125 Z"
         transform="matrix(0.33696952,0,0,0.33696952,-186.4063,-140.55306)"
         clip-rule="evenodd"
         id="path31" />
    </clipPath>
  </defs>
  <g
     id="g1">
    <path
       id="path1"
       d="M 0,0 H 310 V 208 H 0 Z"
       style="fill:#ffffff;fill-opacity:1;fill-rule:nonzero;stroke:none"
       clip-path="url(#clipPath2)" />
    <path
       id="path3"
       d="m 973.75,825 h 298.5 c 0.7059,6e-5 1.4049,0.0689 2.0971,0.2066 0.6923,0.13764 1.3646,0.34156 2.0167,0.61164 0.6521,0.27008 1.2716,0.60125 1.8584,0.99341 0.587,0.39209 1.13,0.8377 1.6291,1.33685 0.4992,0.49914 0.9447,1.04217 1.3369,1.62903 0.3921,0.58691 0.7233,1.20642 0.9934,1.85852 0.2702,0.6521 0.474,1.32428 0.6117,2.0166 0.1377,0.69232 0.2066,1.39148 0.2067,2.09735 v 193.5 c -10e-5,0.7058 -0.069,1.4048 -0.2067,2.0971 -0.1377,0.6922 -0.3415,1.3645 -0.6117,2.0167 -0.2701,0.6521 -0.6013,1.2716 -0.9934,1.8585 -0.3922,0.5869 -0.8377,1.1299 -1.3369,1.629 -0.4991,0.4992 -1.0421,0.9447 -1.6291,1.3369 -0.5868,0.3921 -1.2063,0.7233 -1.8584,0.9934 -0.6521,0.2702 -1.3244,0.474 -2.0167,0.6117 -0.6922,0.1377 -1.3912,0.2066 -2.0971,0.2067 h -298.5 c -0.70587,-10e-5 -1.40497,-0.069 -2.09729,-0.2067 -0.69232,-0.1377 -1.3645,-0.3415 -2.01666,-0.6117 -0.65216,-0.2701 -1.27167,-0.6013 -1.85852,-0.9935 -0.58692,-0.3921 -1.12989,-0.8376 -1.62897,-1.3368 -0.49921,-0.4991 -0.94482,-1.0421 -1.33698,-1.6291 -0.39215,-0.5868 -0.72332,-1.2063 -0.9934,-1.8584 -0.27008,-0.6522 -0.47394,-1.3245 -0.6117,-2.0167 C 963.06885,1030.6548 963,1029.9558 963,1029.25 v -193.5 c 0,-0.70587 0.0688,-1.40503 0.20648,-2.09735 0.13776,-0.69232 0.34162,-1.3645 0.6117,-2.0166 0.27008,-0.6521 0.60125,-1.27161 0.99347,-1.85852 0.39209,-0.58686 0.8377,-1.12989 1.33691,-1.62903 0.49908,-0.49915 1.04205,-0.94476 1.62891,-1.33685 0.58685,-0.39216 1.20642,-0.72333 1.85858,-0.99341 0.65216,-0.27008 1.3244,-0.474 2.01672,-0.6117 0.69226,-0.13763 1.39136,-0.20648 2.09723,-0.20654 z"
       style="fill:#ffffff;fill-opacity:1;fill-rule:nonzero;stroke:#000000;stroke-width:1;stroke-linecap:butt;stroke-linejoin:miter;stroke-miterlimit:10;stroke-dasharray:none;stroke-opacity:1"
       transform="matrix(0.94964076,0,0,0.94964076,-911.55113,-781.50403)"
       clip-path="url(#clipPath4)" />
    <text
       id="text4"
       xml:space="preserve"
       transform="matrix(0.94964076,0,0,0.94964076,129.49246,22.366941)"
       clip-path="url(#clipPath5)"><tspan
         id="tspan4"
         style="font-variant:normal;font-weight:normal;font-size:16px;font-family:Arial;writing-mode:lr-tb;fill:#000000;fill-opacity:1;fill-rule:nonzero;stroke:none"
         x="0"
         y="0">«state»</tspan></text>
    <text
       id="text5"
       xml:space="preserve"
       transform="matrix(0.94964076,0,0,0.94964076,97.827878,40.410115)"
       clip-path="url(#clipPath6)"><tspan
         id="tspan5"
         style="font-variant:normal;font-weight:normal;font-size:16px;font-family:Arial;writing-mode:lr-tb;fill:#000000;fill-opacity:1;fill-rule:nonzero;stroke:none"
         x="0"
         y="0">compositeState1</tspan></text>
    <path
       id="path7"
       d="m 1090.5,888 h 105 c 0.4924,0 0.9801,0.048 1.463,0.1441 0.483,0.0961 0.9519,0.23835 1.4069,0.42676 0.4549,0.18842 0.8873,0.41944 1.2969,0.69306 0.4094,0.27362 0.7882,0.58453 1.1364,0.93274 0.3482,0.3482 0.6591,0.72699 0.9328,1.13647 0.2735,0.40942 0.5045,0.84161 0.693,1.29663 0.1883,0.45496 0.3306,0.92395 0.4268,1.40692 0.096,0.48303 0.1442,0.97083 0.1442,1.46332 v 35 c 0,0.49237 -0.048,0.9801 -0.1442,1.46307 -0.096,0.48297 -0.2385,0.95197 -0.4268,1.40699 -0.1885,0.45495 -0.4195,0.88714 -0.693,1.29663 -0.2737,0.40942 -0.5846,0.78827 -0.9328,1.13653 -0.3482,0.34821 -0.727,0.65912 -1.1364,0.93268 -0.4096,0.27362 -0.842,0.50464 -1.2969,0.69312 -0.455,0.18841 -0.9239,0.33068 -1.4069,0.42681 -0.4829,0.0961 -0.9706,0.14411 -1.463,0.14417 h -105 c -0.4925,-6e-5 -0.9802,-0.0481 -1.4633,-0.14417 -0.483,-0.0961 -0.952,-0.2384 -1.4069,-0.42681 -0.455,-0.18848 -0.8872,-0.4195 -1.2967,-0.69312 -0.4094,-0.27356 -0.7882,-0.58447 -1.1364,-0.93268 -0.3483,-0.34826 -0.6593,-0.72711 -0.9329,-1.13653 -0.2736,-0.40949 -0.5046,-0.84168 -0.6931,-1.29663 -0.1884,-0.45502 -0.3306,-0.92402 -0.4267,-1.40699 C 1083.048,931.4801 1083,930.99237 1083,930.5 v -35 c 0,-0.49249 0.048,-0.98029 0.144,-1.46332 0.096,-0.48297 0.2383,-0.95196 0.4268,-1.40692 0.1884,-0.45502 0.4194,-0.88721 0.693,-1.29663 0.2736,-0.40948 0.5846,-0.78827 0.9329,-1.13647 0.3482,-0.34821 0.727,-0.65912 1.1364,-0.93274 0.4095,-0.27362 0.8417,-0.50464 1.2967,-0.69306 0.4549,-0.18841 0.9239,-0.33069 1.4069,-0.42676 0.4831,-0.0961 0.9708,-0.1441 1.4633,-0.1441 z"
       style="fill:#ffffff;fill-opacity:1;fill-rule:nonzero;stroke:#000000;stroke-width:1;stroke-linecap:butt;stroke-linejoin:miter;stroke-miterlimit:10;stroke-dasharray:none;stroke-opacity:1"
       transform="matrix(0.94964076,0,0,0.94964076,-911.55113,-781.50403)"
       clip-path="url(#clipPath8)" />
    <text
       id="text8"
       xml:space="preserve"
       transform="matrix(0.94964076,0,0,0.94964076,152.71415,90.741075)"
       clip-path="url(#clipPath9)"><tspan
         id="tspan8"
         style="font-variant:normal;font-weight:normal;font-size:16px;font-family:Arial;writing-mode:lr-tb;fill:#000000;fill-opacity:1;fill-rule:nonzero;stroke:none"
         x="0"
         y="0">state1</tspan></text>
    <path
       id="path10"
       d="m 1089,978 h 108 c 0.3939,0 0.7841,0.0384 1.1704,0.11523 0.3864,0.0769 0.7616,0.19068 1.1256,0.34144 0.364,0.15075 0.7097,0.33557 1.0373,0.55444 0.3275,0.21887 0.6306,0.46759 0.9093,0.74615 0.2785,0.27857 0.5272,0.58161 0.7461,0.90918 0.2188,0.32758 0.4036,0.67334 0.5544,1.0373 0.1507,0.36395 0.2646,0.73919 0.3415,1.12561 0.077,0.38641 0.1154,0.77667 0.1154,1.17065 v 28 c 0,0.394 -0.038,0.7841 -0.1154,1.1705 -0.077,0.3864 -0.1908,0.7616 -0.3415,1.1255 -0.1508,0.364 -0.3356,0.7098 -0.5543,1.0374 -0.2189,0.3275 -0.4677,0.6306 -0.7462,0.9092 -0.2787,0.2785 -0.5818,0.5272 -0.9093,0.7461 -0.3276,0.2188 -0.6733,0.4036 -1.0373,0.5544 -0.364,0.1508 -0.7392,0.2646 -1.1256,0.3415 -0.3863,0.077 -0.7765,0.1153 -1.1704,0.1154 h -108 c -0.394,-10e-5 -0.7843,-0.038 -1.1706,-0.1154 -0.3864,-0.077 -0.7616,-0.1907 -1.1257,-0.3415 -0.364,-0.1508 -0.7097,-0.3356 -1.0372,-0.5544 -0.3275,-0.2189 -0.6306,-0.4676 -0.9092,-0.7461 -0.2785,-0.2786 -0.5273,-0.5817 -0.7462,-0.9093 -0.2189,-0.3276 -0.4037,-0.6733 -0.5544,-1.0373 -0.1508,-0.364 -0.2647,-0.7391 -0.3415,-1.1255 C 1083.0385,1012.7841 1083,1012.394 1083,1012 v -28 c 0,-0.39398 0.039,-0.78424 0.1152,-1.17065 0.077,-0.38642 0.1907,-0.76166 0.3415,-1.12561 0.1507,-0.36396 0.3355,-0.70972 0.5544,-1.0373 0.2189,-0.32757 0.4677,-0.63061 0.7462,-0.90918 0.2786,-0.27856 0.5817,-0.52728 0.9092,-0.74621 0.3275,-0.21881 0.6732,-0.40363 1.0372,-0.55438 0.3641,-0.15076 0.7393,-0.26459 1.1257,-0.34144 C 1088.2157,978.03839 1088.606,978 1089,978 Z"
       style="fill:#ffffff;fill-opacity:1;fill-rule:nonzero;stroke:#000000;stroke-width:1;stroke-linecap:butt;stroke-linejoin:miter;stroke-miterlimit:10;stroke-dasharray:none;stroke-opacity:1"
       transform="matrix(0.94964076,0,0,0.94964076,-911.55113,-781.50403)"
       clip-path="url(#clipPath11)" />
    <text
       id="text11"
       xml:space="preserve"
       transform="matrix(0.94964076,0,0,0.94964076,152.71415,171.46054)"
       clip-path="url(#clipPath12)"><tspan
         id="tspan11"
         style="font-variant:normal;font-weight:normal;font-size:16px;font-family:Arial;writing-mode:lr-tb;fill:#000000;fill-opacity:1;fill-rule:nonzero;stroke:none"
         x="0"
         y="0">state2</tspan></text>
    <path
       id="path13"
       d="m 1008,913 c -10e-5,0.82074 -0.08,1.63354 -0.2403,2.43854 -0.1601,0.80499 -0.3972,1.58661 -0.7113,2.34485 -0.3141,0.75824 -0.6992,1.47863 -1.1552,2.16113 -0.4559,0.68243 -0.9741,1.31384 -1.5544,1.89423 -0.5804,0.58038 -1.2118,1.09851 -1.8943,1.55444 -0.6824,0.45599 -1.4028,0.841 -2.161,1.15515 -0.75835,0.31409 -1.53997,0.55121 -2.34496,0.71136 -0.805,0.16016 -1.6178,0.24024 -2.43854,0.2403 -0.82074,-6e-5 -1.63367,-0.0801 -2.43872,-0.2403 -0.80499,-0.16015 -1.58667,-0.39727 -2.34497,-0.71136 -0.7583,-0.31415 -1.47864,-0.69916 -2.16107,-1.15515 -0.68244,-0.45593 -1.31378,-0.97406 -1.89417,-1.55444 -0.58038,-0.58039 -1.09857,-1.2118 -1.55456,-1.89429 -0.456,-0.68244 -0.84101,-1.40283 -1.15509,-2.16107 -0.31415,-0.75824 -0.55121,-1.53986 -0.71125,-2.34485 -0.16015,-0.805 -0.24023,-1.6178 -0.24017,-2.43854 -6e-5,-0.8208 0.08,-1.63373 0.24011,-2.43872 0.1601,-0.80499 0.39716,-1.58667 0.71131,-2.34491 0.31408,-0.75836 0.69909,-1.4787 1.15509,-2.16113 0.45599,-0.68244 0.97418,-1.31378 1.55456,-1.89417 0.58039,-0.58038 1.21173,-1.09857 1.89417,-1.55456 0.68243,-0.456 1.40277,-0.84101 2.16107,-1.15509 0.7583,-0.31409 1.53998,-0.55115 2.34497,-0.71125 0.80505,-0.16009 1.61798,-0.24017 2.43872,-0.24017 0.82074,0 1.63354,0.0801 2.43854,0.24017 0.80499,0.1601 1.58661,0.39722 2.34496,0.71131 0.7582,0.31402 1.4786,0.69903 2.161,1.15503 0.6825,0.45599 1.3139,0.97418 1.8943,1.55456 0.5803,0.58039 1.0985,1.21173 1.5544,1.89417 0.456,0.68243 0.8411,1.40277 1.1552,2.16107 0.3141,0.7583 0.5512,1.53998 0.7113,2.34497 0.1602,0.80499 0.2402,1.61792 0.2403,2.43872 z"
       style="fill:#000000;fill-opacity:1;fill-rule:nonzero;stroke:#000000;stroke-width:1;stroke-linecap:butt;stroke-linejoin:miter;stroke-miterlimit:10;stroke-dasharray:none;stroke-opacity:1"
       transform="matrix(0.94964076,0,0,0.94964076,-911.55113,-781.50403)"
       clip-path="url(#clipPath14)" />
    <path
       id="path15"
       d="m 1008,913 h 72.76"
       style="fill:none;stroke:#000000;stroke-width:1;stroke-linecap:butt;stroke-linejoin:miter;stroke-miterlimit:10;stroke-dasharray:none;stroke-opacity:1"
       transform="matrix(0.94964076,0,0,0.94964076,-911.55113,-781.50403)"
       clip-path="url(#clipPath16)" />
    <path
       id="path17"
       d="m 1072.88,917.5 9,-4.5 -9,-4.5"
       style="fill:none;stroke:#000000;stroke-width:1;stroke-linecap:butt;stroke-linejoin:miter;stroke-miterlimit:10;stroke-dasharray:none;stroke-opacity:1"
       transform="matrix(0.94964076,0,0,0.94964076,-911.55113,-781.50403)"
       clip-path="url(#clipPath18)" />
    <path
       id="path19"
       d="m 1005,998 c -10e-5,0.59088 -0.058,1.17615 -0.1731,1.75574 -0.1153,0.57956 -0.286,1.14226 -0.5121,1.68826 -0.2261,0.5459 -0.5034,1.0646 -0.8317,1.5559 -0.3283,0.4914 -0.7014,0.9461 -1.1192,1.364 -0.4179,0.4178 -0.8725,0.7909 -1.3639,1.1192 -0.4914,0.3283 -1.01001,0.6055 -1.55597,0.8317 -0.54596,0.2261 -1.10876,0.3969 -1.68835,0.5122 -0.57953,0.1153 -1.16474,0.1729 -1.75568,0.173 -0.591,-10e-5 -1.17633,-0.058 -1.75592,-0.1731 -0.57965,-0.1153 -1.14246,-0.286 -1.68842,-0.5121 -0.54596,-0.2262 -1.06463,-0.5034 -1.55597,-0.8316 -0.49133,-0.3284 -0.94592,-0.7015 -1.36376,-1.1193 -0.41791,-0.4179 -0.79102,-0.8725 -1.11939,-1.3639 -0.32825,-0.4913 -0.60547,-1.01 -0.8316,-1.556 -0.22614,-0.5459 -0.39679,-1.1087 -0.51209,-1.68826 C 987.05756,999.17615 986.99994,998.59088 987,998 c -6e-5,-0.591 0.0576,-1.17627 0.17285,-1.75592 0.1153,-0.57953 0.28595,-1.14233 0.51209,-1.68829 0.22613,-0.54596 0.50335,-1.06464 0.83166,-1.55603 0.32831,-0.49134 0.70142,-0.94593 1.11933,-1.36377 0.41784,-0.41791 0.87243,-0.79096 1.36376,-1.11927 0.49134,-0.32837 1.01001,-0.60559 1.55597,-0.83172 0.54596,-0.22614 1.10877,-0.39685 1.68842,-0.51215 C 994.82367,989.05762 995.409,989 996,989 c 0.59094,0 1.17621,0.0576 1.75574,0.17285 0.57953,0.1153 1.14233,0.28601 1.68829,0.51215 0.54596,0.22613 1.06457,0.50335 1.55597,0.83172 0.4914,0.32831 0.946,0.70136 1.3639,1.11927 0.4178,0.41784 0.7909,0.87243 1.1192,1.36377 0.3283,0.49133 0.6056,1.01001 0.8317,1.55597 0.2261,0.54595 0.3968,1.10876 0.5121,1.68835 0.1154,0.57965 0.173,1.16492 0.1731,1.75592 z"
       style="fill:#000000;fill-opacity:1;fill-rule:nonzero;stroke:#000000;stroke-width:1;stroke-linecap:butt;stroke-linejoin:miter;stroke-miterlimit:10;stroke-dasharray:none;stroke-opacity:1"
       transform="matrix(0.94964076,0,0,0.94964076,-911.55113,-781.50403)"
       clip-path="url(#clipPath20)" />
    <path
       id="path21"
       d="m 1009,998 c -10e-5,0.85358 -0.083,1.69891 -0.2499,2.5361 -0.1665,0.8372 -0.4131,1.6501 -0.7398,2.4387 -0.3267,0.7886 -0.7272,1.5378 -1.2013,2.2475 -0.4743,0.7098 -1.0132,1.3665 -1.6167,1.9701 -0.6035,0.6036 -1.2602,1.1424 -1.97,1.6166 -0.7098,0.4743 -1.4589,0.8747 -2.2476,1.2014 -0.7885,0.3266 -1.60141,0.5732 -2.43857,0.7398 -0.83716,0.1665 -1.68255,0.2498 -2.53613,0.2498 -0.85364,0 -1.69904,-0.083 -2.53625,-0.2498 -0.83722,-0.1666 -1.65009,-0.4132 -2.43873,-0.7398 -0.78863,-0.3267 -1.53784,-0.7271 -2.24755,-1.2014 -0.70972,-0.4742 -1.36634,-1.013 -1.96991,-1.6166 -0.60358,-0.6036 -1.14246,-1.2603 -1.6167,-1.9701 -0.47425,-0.7097 -0.8747,-1.4589 -1.20136,-2.2475 -0.32672,-0.7886 -0.5733,-1.6015 -0.73974,-2.4387 C 983.08319,999.69891 982.99994,998.85358 983,998 c -6e-5,-0.85364 0.0832,-1.69904 0.24969,-2.53619 0.16651,-0.83722 0.41309,-1.65015 0.73981,-2.43879 0.32666,-0.78863 0.72711,-1.53778 1.20136,-2.24749 0.47424,-0.70978 1.01312,-1.3664 1.6167,-1.96991 0.60357,-0.60358 1.26019,-1.14252 1.96991,-1.61676 0.70971,-0.47425 1.45892,-0.8747 2.24755,-1.20136 0.78864,-0.32666 1.60151,-0.57324 2.43873,-0.73968 C 994.30096,985.08325 995.14636,985 996,985 c 0.85358,0 1.69897,0.0833 2.53613,0.24976 0.83716,0.1665 1.65007,0.41308 2.43867,0.73974 0.7886,0.32666 1.5378,0.72711 2.2475,1.2013 0.7098,0.4743 1.3665,1.01324 1.97,1.61682 0.6035,0.60351 1.1424,1.26013 1.6166,1.96991 0.4742,0.70971 0.8747,1.45886 1.2014,2.24749 0.3267,0.78864 0.5733,1.60157 0.7398,2.43879 0.1666,0.83715 0.2498,1.68255 0.2499,2.53619 z"
       style="fill:none;stroke:#000000;stroke-width:1;stroke-linecap:butt;stroke-linejoin:miter;stroke-miterlimit:10;stroke-dasharray:none;stroke-opacity:1"
       transform="matrix(0.94964076,0,0,0.94964076,-911.55113,-781.50403)"
       clip-path="url(#clipPath22)" />
    <path
       id="path23"
       d="m 1083,997.65997 -71.76,0.33002"
       style="fill:none;stroke:#000000;stroke-width:1;stroke-linecap:butt;stroke-linejoin:miter;stroke-miterlimit:10;stroke-dasharray:none;stroke-opacity:1"
       transform="matrix(0.94964076,0,0,0.94964076,-911.55113,-781.50403)"
       clip-path="url(#clipPath24)" />
    <path
       id="path25"
       d="m 1019.1,993.45001 -8.98,4.53998 9.02,4.46001"
       style="fill:none;stroke:#000000;stroke-width:1;stroke-linecap:butt;stroke-linejoin:miter;stroke-miterlimit:10;stroke-dasharray:none;stroke-opacity:1"
       transform="matrix(0.94964076,0,0,0.94964076,-911.55113,-781.50403)"
       clip-path="url(#clipPath26)" />
    <path
       id="path27"
       d="m 1142.66,938 0.32,39.76001"
       style="fill:none;stroke:#000000;stroke-width:1;stroke-linecap:butt;stroke-linejoin:miter;stroke-miterlimit:10;stroke-dasharray:none;stroke-opacity:1"
       transform="matrix(0.94964076,0,0,0.94964076,-911.55113,-781.50403)"
       clip-path="url(#clipPath28)" />
    <path
       id="path29"
       d="m 1138.42,969.91998 4.57,8.96002 4.43,-9.03002"
       style="fill:none;stroke:#000000;stroke-width:1;stroke-linecap:butt;stroke-linejoin:miter;stroke-miterlimit:10;stroke-dasharray:none;stroke-opacity:1"
       transform="matrix(0.94964076,0,0,0.94964076,-911.55113,-781.50403)"
       clip-path="url(#clipPath30)" />
    <text
       id="text30"
       xml:space="preserve"
       transform="matrix(0.94964076,0,0,0.94964076,177.01902,133.47491)"
       clip-path="url(#clipPath31)"><tspan
         id="tspan30"
         style="font-variant:normal;font-weight:normal;font-size:12px;font-family:Arial;writing-mode:lr-tb;fill:#000000;fill-opacity:1;fill-rule:nonzero;stroke:none"
         x="0"
         y="0">trigger1[guard1] / action1</tspan></text>
  </g>
</svg>
