<?xml version="1.0" encoding="UTF-8" standalone="no"?>
<!-- Created with Inkscape (http://www.inkscape.org/) -->

<svg
   version="1.1"
   id="svg1"
   width="320"
   height="272"
   viewBox="0 0 320 272"
   xmlns="http://www.w3.org/2000/svg"
   xmlns:svg="http://www.w3.org/2000/svg">
  <defs
     id="defs1">
    <clipPath
       clipPathUnits="userSpaceOnUse"
       id="clipPath2">
      <path
         d="M 0,0 H 999.02344 V 849.02344 H 0 Z"
         transform="scale(0.31999999)"
         clip-rule="evenodd"
         id="path2" />
    </clipPath>
    <clipPath
       clipPathUnits="userSpaceOnUse"
       id="clipPath4">
      <path
         d="m 3.125,3.125 h 993.75 v 843.75 H 3.125 Z"
         transform="matrix(0.33686172,0,0,0.33686172,1746.8932,806.89463)"
         clip-rule="evenodd"
         id="path4" />
    </clipPath>
    <clipPath
       clipPathUnits="userSpaceOnUse"
       id="clipPath5">
      <path
         d="m 3.125,3.125 h 993.75 v 843.75 H 3.125 Z"
         transform="matrix(0.33686172,0,0,0.33686172,-141.35678,-24.605373)"
         clip-rule="evenodd"
         id="path5" />
    </clipPath>
    <clipPath
       clipPathUnits="userSpaceOnUse"
       id="clipPath6">
      <path
         d="m 3.125,3.125 h 993.75 v 843.75 H 3.125 Z"
         transform="matrix(0.33686172,0,0,0.33686172,-150.26308,-24.605373)"
         clip-rule="evenodd"
         id="path6" />
    </clipPath>
    <clipPath
       clipPathUnits="userSpaceOnUse"
       id="clipPath7">
      <path
         d="m 3.125,3.125 h 993.75 v 843.75 H 3.125 Z"
         transform="matrix(0.33686172,0,0,0.33686172,-184.95058,-24.605373)"
         clip-rule="evenodd"
         id="path7" />
    </clipPath>
    <clipPath
       clipPathUnits="userSpaceOnUse"
       id="clipPath8">
      <path
         d="m 3.125,3.125 h 993.75 v 843.75 H 3.125 Z"
         transform="matrix(0.33686172,0,0,0.33686172,-108.01307,-43.605373)"
         clip-rule="evenodd"
         id="path8" />
    </clipPath>
    <clipPath
       clipPathUnits="userSpaceOnUse"
       id="clipPath9">
      <path
         d="m 3.125,3.125 h 993.75 v 843.75 H 3.125 Z"
         transform="matrix(0.33686172,0,0,0.33686172,-132.90368,-62.605373)"
         clip-rule="evenodd"
         id="path9" />
    </clipPath>
    <clipPath
       clipPathUnits="userSpaceOnUse"
       id="clipPath11">
      <path
         d="m 3.125,3.125 h 993.75 v 843.75 H 3.125 Z"
         transform="matrix(0.33686172,0,0,0.33686172,1746.8932,806.89463)"
         clip-rule="evenodd"
         id="path11" />
    </clipPath>
    <clipPath
       clipPathUnits="userSpaceOnUse"
       id="clipPath12">
      <path
         d="m 3.125,3.125 h 993.75 v 843.75 H 3.125 Z"
         transform="matrix(0.33686172,0,0,0.33686172,-115.84118,-203.60537)"
         clip-rule="evenodd"
         id="path12" />
    </clipPath>
    <clipPath
       clipPathUnits="userSpaceOnUse"
       id="clipPath14">
      <path
         d="m 3.125,3.125 h 993.75 v 843.75 H 3.125 Z"
         transform="matrix(0.33686172,0,0,0.33686172,1746.8932,806.89463)"
         clip-rule="evenodd"
         id="path14" />
    </clipPath>
    <clipPath
       clipPathUnits="userSpaceOnUse"
       id="clipPath15">
      <path
         d="m 3.125,3.125 h 993.75 v 843.75 H 3.125 Z"
         transform="matrix(0.33686172,0,0,0.33686172,-115.84118,-104.60537)"
         clip-rule="evenodd"
         id="path15" />
    </clipPath>
    <clipPath
       clipPathUnits="userSpaceOnUse"
       id="clipPath17">
      <path
         d="m 3.125,3.125 h 993.75 v 843.75 H 3.125 Z"
         transform="matrix(0.33686172,0,0,0.33686172,1746.8932,806.89463)"
         clip-rule="evenodd"
         id="path17" />
    </clipPath>
    <clipPath
       clipPathUnits="userSpaceOnUse"
       id="clipPath18">
      <path
         d="m 3.125,3.125 h 993.75 v 843.75 H 3.125 Z"
         transform="matrix(0.33686172,0,0,0.33686172,-154.16928,-139.60537)"
         clip-rule="evenodd"
         id="path18" />
    </clipPath>
    <clipPath
       clipPathUnits="userSpaceOnUse"
       id="clipPath20">
      <path
         d="m 3.125,3.125 h 993.75 v 843.75 H 3.125 Z"
         transform="matrix(0.33686172,0,0,0.33686172,1746.8932,806.89463)"
         clip-rule="evenodd"
         id="path20" />
    </clipPath>
    <clipPath
       clipPathUnits="userSpaceOnUse"
       id="clipPath21">
      <path
         d="m 3.125,3.125 h 993.75 v 843.75 H 3.125 Z"
         transform="matrix(0.33686172,0,0,0.33686172,-154.16928,-237.60537)"
         clip-rule="evenodd"
         id="path21" />
    </clipPath>
    <clipPath
       clipPathUnits="userSpaceOnUse"
       id="clipPath23">
      <path
         d="m 3.125,3.125 h 993.75 v 843.75 H 3.125 Z"
         transform="matrix(0.33686172,0,0,0.33686172,1746.8932,806.89463)"
         clip-rule="evenodd"
         id="path23" />
    </clipPath>
    <clipPath
       clipPathUnits="userSpaceOnUse"
       id="clipPath25">
      <path
         d="m 3.125,3.125 h 993.75 v 843.75 H 3.125 Z"
         transform="matrix(0.33686172,0,0,0.33686172,1746.8932,806.89463)"
         clip-rule="evenodd"
         id="path25" />
    </clipPath>
    <clipPath
       clipPathUnits="userSpaceOnUse"
       id="clipPath27">
      <path
         d="m 3.125,3.125 h 993.75 v 843.75 H 3.125 Z"
         transform="matrix(0.33686172,0,0,0.33686172,1746.8932,806.89463)"
         clip-rule="evenodd"
         id="path27" />
    </clipPath>
    <clipPath
       clipPathUnits="userSpaceOnUse"
       id="clipPath29">
      <path
         d="m 3.125,3.125 h 993.75 v 843.75 H 3.125 Z"
         transform="matrix(0.33686172,0,0,0.33686172,1746.8932,806.89463)"
         clip-rule="evenodd"
         id="path29" />
    </clipPath>
    <clipPath
       clipPathUnits="userSpaceOnUse"
       id="clipPath31">
      <path
         d="m 3.125,3.125 h 993.75 v 843.75 H 3.125 Z"
         transform="matrix(0.33686172,0,0,0.33686172,1746.8932,806.89463)"
         clip-rule="evenodd"
         id="path31" />
    </clipPath>
    <clipPath
       clipPathUnits="userSpaceOnUse"
       id="clipPath33">
      <path
         d="m 3.125,3.125 h 993.75 v 843.75 H 3.125 Z"
         transform="matrix(0.33686172,0,0,0.33686172,1746.8932,806.89463)"
         clip-rule="evenodd"
         id="path33" />
    </clipPath>
  </defs>
  <g
     id="g1">
    <path
       id="path1"
       d="M 0,0 H 320 V 272 H 0 Z"
       style="fill:#ffffff;fill-opacity:1;fill-rule:nonzero;stroke:none"
       clip-path="url(#clipPath2)" />
    <path
       id="path3"
       d="m 1764,810 h 302 c 0.9192,0 1.8296,0.0897 2.7312,0.26898 0.9016,0.17932 1.7769,0.44489 2.6262,0.79669 0.8491,0.35175 1.656,0.78296 2.4204,1.29377 0.7644,0.51068 1.4715,1.091 2.1216,1.74102 0.6499,0.64997 1.2302,1.35712 1.741,2.12146 0.5107,0.76429 0.9419,1.57111 1.2937,2.42041 0.3518,0.84931 0.6172,1.72474 0.7966,2.62629 0.1795,0.90167 0.2691,1.81213 0.2693,2.73138 v 252 c -2e-4,0.9192 -0.09,1.8296 -0.2693,2.7312 -0.1794,0.9015 -0.4448,1.777 -0.7966,2.6262 -0.3518,0.8493 -0.783,1.6562 -1.2937,2.4204 -0.5108,0.7643 -1.0911,1.4716 -1.741,2.1216 -0.6501,0.65 -1.3572,1.2304 -2.1216,1.741 -0.7644,0.5106 -1.5713,0.9419 -2.4204,1.2937 -0.8493,0.3518 -1.7246,0.6174 -2.6262,0.7967 -0.9016,0.1795 -1.812,0.2692 -2.7312,0.2692 h -302 c -0.9193,0 -1.8297,-0.09 -2.7312,-0.2692 -0.9017,-0.1793 -1.7772,-0.4449 -2.6265,-0.7967 -0.8492,-0.3518 -1.656,-0.7831 -2.4203,-1.2937 -0.7644,-0.5106 -1.4715,-1.091 -2.1215,-1.741 -0.6501,-0.65 -1.2305,-1.3573 -1.7411,-2.1216 -0.5108,-0.7642 -0.942,-1.5711 -1.2938,-2.4204 -0.352,-0.8492 -0.6175,-1.7247 -0.7968,-2.6262 -0.1793,-0.9016 -0.2689,-1.812 -0.2688,-2.7312 V 824 c -10e-5,-0.91925 0.09,-1.82971 0.2688,-2.73132 0.1793,-0.90161 0.4448,-1.77704 0.7968,-2.62628 0.3518,-0.84931 0.783,-1.65613 1.2938,-2.42042 0.5106,-0.76434 1.091,-1.47155 1.7411,-2.12152 0.65,-0.65002 1.3571,-1.2304 2.1215,-1.74108 0.7643,-0.51075 1.5711,-0.94202 2.4203,-1.29377 0.8493,-0.35174 1.7246,-0.61731 2.6264,-0.79663 C 1762.1703,810.08966 1763.0807,810 1764,810 Z"
       style="fill:#ffffff;fill-opacity:1;fill-rule:nonzero;stroke:#000000;stroke-width:1;stroke-linecap:butt;stroke-linejoin:miter;stroke-miterlimit:10;stroke-dasharray:none;stroke-opacity:1"
       transform="matrix(0.94994463,0,0,0.94994463,-1659.4518,-766.50522)"
       clip-path="url(#clipPath4)" />
    <text
       id="text4"
       xml:space="preserve"
       transform="matrix(0.94994463,0,0,0.94994463,134.28111,23.373742)"
       clip-path="url(#clipPath5)"><tspan
         id="tspan4"
         style="font-variant:normal;font-weight:normal;font-size:16px;font-family:Arial;writing-mode:lr-tb;fill:#000000;fill-opacity:1;fill-rule:nonzero;stroke:none"
         x="0"
         y="0">«</tspan></text>
    <text
       id="text5"
       xml:space="preserve"
       transform="matrix(0.94994463,0,0,0.94994463,142.74161,23.373742)"
       clip-path="url(#clipPath6)"><tspan
         id="tspan5"
         style="font-variant:normal;font-weight:normal;font-size:16px;font-family:Arial;writing-mode:lr-tb;fill:#000000;fill-opacity:1;fill-rule:nonzero;stroke:none"
         x="0"
         y="0">state</tspan></text>
    <text
       id="text6"
       xml:space="preserve"
       transform="matrix(0.94994463,0,0,0.94994463,175.69281,23.373742)"
       clip-path="url(#clipPath7)"><tspan
         id="tspan6"
         style="font-variant:normal;font-weight:normal;font-size:16px;font-family:Arial;writing-mode:lr-tb;fill:#000000;fill-opacity:1;fill-rule:nonzero;stroke:none"
         x="0"
         y="0">»</tspan></text>
    <text
       id="text7"
       xml:space="preserve"
       transform="matrix(0.94994463,0,0,0.94994463,102.60644,41.42269)"
       clip-path="url(#clipPath8)"><tspan
         id="tspan7"
         style="font-variant:normal;font-weight:normal;font-size:16px;font-family:Arial;writing-mode:lr-tb;fill:#000000;fill-opacity:1;fill-rule:nonzero;stroke:none"
         x="0"
         y="0">compositeState2</tspan></text>
    <text
       id="text8"
       xml:space="preserve"
       transform="matrix(0.94994463,0,0,0.94994463,126.25114,59.471638)"
       clip-path="url(#clipPath9)"><tspan
         id="tspan8"
         style="font-variant:normal;font-weight:normal;font-size:16px;font-family:Arial;writing-mode:lr-tb;fill:#000000;fill-opacity:1;fill-rule:nonzero;stroke:none"
         x="0"
         y="0">«parallel»</tspan></text>
    <path
       id="path10"
       d="m 1789.75,989 h 247.5 c 0.837,0 1.6661,0.0817 2.4872,0.24493 0.8211,0.16327 1.6184,0.40516 2.3918,0.72553 0.7735,0.32037 1.5082,0.71307 2.2044,1.17816 0.696,0.46509 1.3401,0.99365 1.9321,1.58569 0.5919,0.59198 1.1204,1.23597 1.5856,1.93201 0.4651,0.69611 0.8576,1.43085 1.1782,2.20435 0.3203,0.7735 0.5623,1.5708 0.7256,2.3919 0.1633,0.82103 0.2449,1.65023 0.2451,2.48743 v 59.5 c -2e-4,0.8372 -0.082,1.6663 -0.2451,2.4873 -0.1633,0.8211 -0.4053,1.6183 -0.7256,2.3917 -0.3206,0.7735 -0.7131,1.5082 -1.1782,2.2044 -0.4652,0.6961 -0.9937,1.3402 -1.5856,1.9321 -0.592,0.5919 -1.2361,1.1205 -1.9322,1.5856 -0.6961,0.4651 -1.4308,0.8578 -2.2043,1.1782 -0.7734,0.3204 -1.5707,0.5623 -2.3918,0.7256 -0.8211,0.1633 -1.6502,0.245 -2.4872,0.2451 h -247.5 c -0.8373,-10e-5 -1.6664,-0.082 -2.4874,-0.2451 -0.8212,-0.1633 -1.6184,-0.4052 -2.3919,-0.7256 -0.7735,-0.3204 -1.5083,-0.7131 -2.2043,-1.1782 -0.6961,-0.4651 -1.3401,-0.9937 -1.932,-1.5856 -0.5919,-0.5919 -1.1205,-1.2361 -1.5857,-1.9322 -0.4652,-0.6961 -0.8579,-1.4308 -1.1784,-2.2043 -0.3204,-0.7734 -0.5622,-1.5706 -0.7254,-2.3917 -0.1632,-0.821 -0.2449,-1.6501 -0.2449,-2.4873 v -59.5 c 0,-0.8372 0.082,-1.6664 0.2449,-2.48749 0.1632,-0.82104 0.405,-1.61828 0.7254,-2.39178 0.3205,-0.7735 0.7132,-1.50824 1.1784,-2.20435 0.4652,-0.6961 0.9938,-1.34009 1.5857,-1.93207 0.5919,-0.59204 1.2359,-1.1206 1.932,-1.58569 0.696,-0.46509 1.4308,-0.85779 2.2043,-1.17816 0.7735,-0.32037 1.5707,-0.5622 2.3919,-0.72546 0.821,-0.16333 1.6501,-0.245 2.4874,-0.245 z"
       style="fill:#ffffff;fill-opacity:1;fill-rule:nonzero;stroke:#000000;stroke-width:1;stroke-linecap:butt;stroke-linejoin:miter;stroke-miterlimit:10;stroke-dasharray:none;stroke-opacity:1"
       transform="matrix(0.94994463,0,0,0.94994463,-1659.4518,-766.50522)"
       clip-path="url(#clipPath11)" />
    <text
       id="text11"
       xml:space="preserve"
       transform="matrix(0.94994463,0,0,0.94994463,110.04271,193.41383)"
       clip-path="url(#clipPath12)"><tspan
         id="tspan11"
         style="font-variant:normal;font-weight:normal;font-size:16px;font-family:Arial;writing-mode:lr-tb;fill:#000000;fill-opacity:1;fill-rule:nonzero;stroke:none"
         x="0"
         y="0">«state» state2</tspan></text>
    <path
       id="path13"
       d="m 1789.75,890 h 247.5 c 0.837,0 1.6661,0.0817 2.4872,0.24493 0.8211,0.16333 1.6184,0.40516 2.3918,0.72553 0.7735,0.32031 1.5082,0.71307 2.2044,1.17822 0.696,0.46509 1.3401,0.99365 1.9321,1.58563 0.5919,0.59198 1.1204,1.23597 1.5856,1.93201 0.4651,0.69611 0.8576,1.43085 1.1782,2.20435 0.3203,0.77343 0.5623,1.57074 0.7256,2.39184 0.1633,0.82111 0.2449,1.65027 0.2451,2.48749 v 59.5 c -2e-4,0.83716 -0.082,1.66626 -0.2451,2.48737 -0.1633,0.8211 -0.4053,1.61834 -0.7256,2.39178 -0.3206,0.77338 -0.7131,1.50812 -1.1782,2.20422 -0.4652,0.69611 -0.9937,1.34015 -1.5856,1.93213 -0.592,0.59198 -1.2361,1.12049 -1.9322,1.58564 -0.6961,0.46508 -1.4308,0.85784 -2.2043,1.17822 -0.7734,0.32037 -1.5707,0.56219 -2.3918,0.72558 -0.8211,0.16333 -1.6502,0.245 -2.4872,0.24506 h -247.5 c -0.8373,-6e-5 -1.6664,-0.0817 -2.4874,-0.24506 -0.8212,-0.16339 -1.6184,-0.40521 -2.3919,-0.72558 -0.7735,-0.32038 -1.5083,-0.71314 -2.2043,-1.17822 -0.6961,-0.46515 -1.3401,-0.99366 -1.932,-1.58564 -0.5919,-0.59198 -1.1205,-1.23602 -1.5857,-1.93206 -0.4652,-0.69611 -0.8579,-1.43091 -1.1784,-2.20435 -0.3204,-0.77344 -0.5622,-1.57068 -0.7254,-2.39179 C 1777.0817,963.91626 1777,963.08716 1777,962.25 v -59.5 c 0,-0.83722 0.082,-1.66638 0.2449,-2.48749 0.1632,-0.8211 0.405,-1.61841 0.7254,-2.39184 0.3205,-0.7735 0.7132,-1.50824 1.1784,-2.20429 0.4652,-0.6961 0.9938,-1.34009 1.5857,-1.93207 0.5919,-0.59198 1.2359,-1.12054 1.932,-1.58569 0.696,-0.46515 1.4308,-0.85785 2.2043,-1.17816 0.7735,-0.32037 1.5707,-0.5622 2.3919,-0.72553 0.821,-0.16326 1.6501,-0.24493 2.4874,-0.24493 z"
       style="fill:#ffffff;fill-opacity:1;fill-rule:nonzero;stroke:#000000;stroke-width:1;stroke-linecap:butt;stroke-linejoin:miter;stroke-miterlimit:10;stroke-dasharray:none;stroke-opacity:1"
       transform="matrix(0.94994463,0,0,0.94994463,-1659.4518,-766.50522)"
       clip-path="url(#clipPath14)" />
    <text
       id="text14"
       xml:space="preserve"
       transform="matrix(0.94994463,0,0,0.94994463,110.04271,99.369313)"
       clip-path="url(#clipPath15)"><tspan
         id="tspan14"
         style="font-variant:normal;font-weight:normal;font-size:16px;font-family:Arial;writing-mode:lr-tb;fill:#000000;fill-opacity:1;fill-rule:nonzero;stroke:none"
         x="0"
         y="0">«state» state1</tspan></text>
    <path
       id="path16"
       d="m 1893,920.5 h 131 c 0.3939,0 0.7841,0.0385 1.1704,0.1153 0.3862,0.0768 0.7614,0.19061 1.1254,0.34137 0.3639,0.15075 0.7097,0.33557 1.0375,0.55444 0.3275,0.21893 0.6306,0.46765 0.9093,0.74621 0.2784,0.27851 0.5271,0.58161 0.7459,0.90918 0.2189,0.32758 0.4038,0.67334 0.5546,1.0373 0.1507,0.36395 0.2646,0.73913 0.3414,1.12555 0.077,0.38641 0.1154,0.77661 0.1155,1.17065 v 28 c -10e-5,0.39398 -0.039,0.78412 -0.1155,1.17047 -0.077,0.38641 -0.1907,0.7616 -0.3414,1.12555 -0.1508,0.36395 -0.3357,0.70972 -0.5546,1.03729 -0.2188,0.32758 -0.4675,0.63062 -0.7459,0.90924 -0.2787,0.27857 -0.5818,0.52729 -0.9093,0.74616 -0.3278,0.21887 -0.6736,0.40369 -1.0375,0.55444 -0.364,0.15082 -0.7392,0.26465 -1.1255,0.34149 -0.3864,0.0769 -0.7764,0.1153 -1.1703,0.11536 h -131 c -0.3939,-6e-5 -0.7842,-0.0385 -1.1707,-0.11536 -0.3863,-0.0768 -0.7616,-0.19067 -1.1256,-0.34149 -0.364,-0.15075 -0.7098,-0.33557 -1.0373,-0.55438 -0.3275,-0.21893 -0.6306,-0.46765 -0.9091,-0.74622 -0.2785,-0.27862 -0.5273,-0.58172 -0.7463,-0.9093 -0.2189,-0.32757 -0.4037,-0.67334 -0.5545,-1.03729 -0.1507,-0.36395 -0.2646,-0.73914 -0.3414,-1.12549 -0.077,-0.38635 -0.1152,-0.77649 -0.1151,-1.17047 v -28 c -10e-5,-0.39404 0.038,-0.78424 0.1151,-1.17065 0.077,-0.38642 0.1907,-0.7616 0.3414,-1.12555 0.1508,-0.36396 0.3356,-0.70972 0.5545,-1.0373 0.219,-0.32757 0.4678,-0.63067 0.7463,-0.90918 0.2785,-0.27856 0.5816,-0.52728 0.9091,-0.74621 0.3275,-0.21887 0.6733,-0.40369 1.0372,-0.55444 0.3641,-0.15076 0.7393,-0.26453 1.1256,-0.34137 0.3866,-0.0769 0.7769,-0.1153 1.1708,-0.1153 z"
       style="fill:#ffffff;fill-opacity:1;fill-rule:nonzero;stroke:#000000;stroke-width:1;stroke-linecap:butt;stroke-linejoin:miter;stroke-miterlimit:10;stroke-dasharray:none;stroke-opacity:1"
       transform="matrix(0.94994463,0,0,0.94994463,-1659.4518,-766.50522)"
       clip-path="url(#clipPath17)" />
    <text
       id="text17"
       xml:space="preserve"
       transform="matrix(0.94994463,0,0,0.94994463,146.45228,132.61737)"
       clip-path="url(#clipPath18)"><tspan
         id="tspan17"
         style="font-variant:normal;font-weight:normal;font-size:16px;font-family:Arial;writing-mode:lr-tb;fill:#000000;fill-opacity:1;fill-rule:nonzero;stroke:none"
         x="0"
         y="0">«state» state1.1</tspan></text>
    <path
       id="path19"
       d="m 1893,1019 h 131 c 0.3939,0 0.7841,0.038 1.1704,0.1152 0.3862,0.077 0.7614,0.1908 1.1254,0.3415 0.3639,0.1507 0.7097,0.3355 1.0375,0.5545 0.3275,0.2188 0.6306,0.4674 0.9093,0.7461 0.2784,0.2785 0.5271,0.5816 0.7459,0.9091 0.2189,0.3276 0.4038,0.6733 0.5546,1.0373 0.1507,0.364 0.2646,0.7393 0.3414,1.1257 0.077,0.3864 0.1154,0.7766 0.1155,1.1706 v 28 c -10e-5,0.3939 -0.039,0.7842 -0.1155,1.1705 -0.077,0.3864 -0.1907,0.7615 -0.3414,1.1254 -0.1508,0.3639 -0.3357,0.7097 -0.5546,1.0374 -0.2188,0.3276 -0.4675,0.6307 -0.7459,0.9093 -0.2787,0.2784 -0.5818,0.5271 -0.9093,0.7459 -0.3278,0.2189 -0.6736,0.4038 -1.0375,0.5546 -0.364,0.1507 -0.7392,0.2646 -1.1255,0.3415 -0.3864,0.077 -0.7764,0.1153 -1.1703,0.1154 h -131 c -0.3939,-10e-5 -0.7842,-0.039 -1.1707,-0.1154 -0.3863,-0.077 -0.7616,-0.1906 -1.1256,-0.3414 -0.364,-0.1507 -0.7098,-0.3357 -1.0373,-0.5545 -0.3275,-0.2189 -0.6306,-0.4677 -0.9091,-0.7461 -0.2785,-0.2786 -0.5273,-0.5817 -0.7463,-0.9093 -0.2189,-0.3277 -0.4037,-0.6735 -0.5545,-1.0374 -0.1507,-0.3639 -0.2646,-0.739 -0.3414,-1.1254 -0.077,-0.3863 -0.1152,-0.7766 -0.1151,-1.1705 v -28 c -10e-5,-0.394 0.038,-0.7842 0.1151,-1.1706 0.077,-0.3864 0.1907,-0.7617 0.3414,-1.1256 0.1508,-0.3641 0.3356,-0.7098 0.5545,-1.0374 0.219,-0.3275 0.4678,-0.6306 0.7463,-0.9091 0.2785,-0.2787 0.5816,-0.5274 0.9091,-0.7462 0.3275,-0.2189 0.6733,-0.4037 1.0372,-0.5545 0.3641,-0.1507 0.7393,-0.2645 1.1256,-0.3413 0.3866,-0.077 0.7769,-0.1153 1.1708,-0.1153 z"
       style="fill:#ffffff;fill-opacity:1;fill-rule:nonzero;stroke:#000000;stroke-width:1;stroke-linecap:butt;stroke-linejoin:miter;stroke-miterlimit:10;stroke-dasharray:none;stroke-opacity:1"
       transform="matrix(0.94994463,0,0,0.94994463,-1659.4518,-766.50522)"
       clip-path="url(#clipPath20)" />
    <text
       id="text20"
       xml:space="preserve"
       transform="matrix(0.94994463,0,0,0.94994463,146.45228,225.71195)"
       clip-path="url(#clipPath21)"><tspan
         id="tspan20"
         style="font-variant:normal;font-weight:normal;font-size:16px;font-family:Arial;writing-mode:lr-tb;fill:#000000;fill-opacity:1;fill-rule:nonzero;stroke:none"
         x="0"
         y="0">«state» state2.1</tspan></text>
    <path
       id="path22"
       d="m 1825,940.5 c 0,0.82074 -0.08,1.63354 -0.2402,2.43854 -0.1602,0.80493 -0.3974,1.58655 -0.7115,2.34485 -0.314,0.7583 -0.6992,1.47869 -1.1552,2.16113 -0.4561,0.68243 -0.9743,1.3139 -1.5545,1.89429 -0.5803,0.58032 -1.2118,1.09845 -1.8943,1.55444 -0.6825,0.45599 -1.4028,0.84106 -2.1611,1.15515 -0.7582,0.31409 -1.5398,0.55121 -2.3447,0.71137 -0.805,0.16009 -1.6178,0.24017 -2.4385,0.24023 -0.8208,-6e-5 -1.6337,-0.0801 -2.4387,-0.2403 -0.8051,-0.16009 -1.5867,-0.39721 -2.345,-0.7113 -0.7583,-0.31409 -1.4786,-0.6991 -2.1611,-1.15509 -0.6824,-0.45599 -1.3137,-0.97418 -1.8941,-1.5545 -0.5804,-0.58039 -1.0986,-1.21186 -1.5547,-1.89429 -0.456,-0.68244 -0.841,-1.40283 -1.1551,-2.16113 -0.3141,-0.7583 -0.5512,-1.53992 -0.7112,-2.34485 -0.16,-0.805 -0.2401,-1.6178 -0.2401,-2.43854 0,-0.8208 0.08,-1.63373 0.2401,-2.43872 0.16,-0.80499 0.3971,-1.58661 0.7112,-2.34491 0.3141,-0.7583 0.6991,-1.4787 1.1551,-2.16113 0.4561,-0.68244 0.9743,-1.31385 1.5547,-1.89417 0.5804,-0.58038 1.2117,-1.09857 1.8941,-1.55456 0.6825,-0.456 1.4028,-0.84101 2.1611,-1.15509 0.7583,-0.31409 1.5399,-0.55115 2.345,-0.71125 0.805,-0.16009 1.6179,-0.24017 2.4387,-0.24017 0.8207,0 1.6335,0.08 2.4385,0.24011 0.8049,0.1601 1.5865,0.39722 2.3447,0.71131 0.7583,0.31408 1.4786,0.69909 2.1611,1.15509 0.6825,0.45599 1.314,0.97418 1.8943,1.55456 0.5802,0.58032 1.0984,1.21173 1.5545,1.89417 0.4559,0.68243 0.841,1.40283 1.1551,2.16113 0.3141,0.7583 0.5513,1.53992 0.7114,2.34491 0.1603,0.80499 0.2404,1.61792 0.2404,2.43872 z"
       style="fill:#000000;fill-opacity:1;fill-rule:nonzero;stroke:#000000;stroke-width:1;stroke-linecap:butt;stroke-linejoin:miter;stroke-miterlimit:10;stroke-dasharray:none;stroke-opacity:1"
       transform="matrix(0.94994463,0,0,0.94994463,-1659.4518,-766.50522)"
       clip-path="url(#clipPath23)" />
    <path
       id="path24"
       d="m 1825,940.5 h 59.76"
       style="fill:none;stroke:#000000;stroke-width:1;stroke-linecap:butt;stroke-linejoin:miter;stroke-miterlimit:10;stroke-dasharray:none;stroke-opacity:1"
       transform="matrix(0.94994463,0,0,0.94994463,-1659.4518,-766.50522)"
       clip-path="url(#clipPath25)" />
    <path
       id="path26"
       d="m 1876.88,945 9,-4.5 -9,-4.5"
       style="fill:none;stroke:#000000;stroke-width:1;stroke-linecap:butt;stroke-linejoin:miter;stroke-miterlimit:10;stroke-dasharray:none;stroke-opacity:1"
       transform="matrix(0.94994463,0,0,0.94994463,-1659.4518,-766.50522)"
       clip-path="url(#clipPath27)" />
    <path
       id="path28"
       d="m 1825,1039 c 0,0.8208 -0.08,1.6337 -0.2402,2.4386 -0.1602,0.8049 -0.3974,1.5866 -0.7115,2.3449 -0.314,0.7583 -0.6992,1.4786 -1.1552,2.161 -0.4561,0.6825 -0.9743,1.3139 -1.5545,1.8943 -0.5803,0.5803 -1.2118,1.0985 -1.8943,1.5544 -0.6825,0.456 -1.4028,0.8411 -2.1611,1.1551 -0.7582,0.3141 -1.5398,0.5513 -2.3447,0.7115 -0.805,0.1601 -1.6178,0.2402 -2.4385,0.2402 -0.8208,0 -1.6337,-0.08 -2.4387,-0.2402 -0.8051,-0.1602 -1.5867,-0.3974 -2.345,-0.7115 -0.7583,-0.314 -1.4786,-0.6991 -2.1611,-1.1551 -0.6824,-0.4559 -1.3137,-0.9741 -1.8941,-1.5544 -0.5804,-0.5804 -1.0986,-1.2118 -1.5547,-1.8943 -0.456,-0.6824 -0.841,-1.4027 -1.1551,-2.161 -0.3141,-0.7583 -0.5512,-1.54 -0.7112,-2.3449 -0.16,-0.8049 -0.2401,-1.6178 -0.2401,-2.4386 0,-0.8208 0.08,-1.6337 0.2401,-2.4387 0.16,-0.8051 0.3971,-1.5867 0.7112,-2.345 0.3141,-0.7583 0.6991,-1.4786 1.1551,-2.161 0.4561,-0.6825 0.9743,-1.3138 1.5547,-1.8942 0.5804,-0.5804 1.2117,-1.0986 1.8941,-1.5546 0.6825,-0.456 1.4028,-0.841 2.1611,-1.1551 0.7583,-0.3141 1.5399,-0.5511 2.345,-0.7113 0.805,-0.16 1.6179,-0.2401 2.4387,-0.2401 0.8207,0 1.6335,0.08 2.4385,0.2401 0.8049,0.1602 1.5865,0.3972 2.3447,0.7113 0.7583,0.3141 1.4786,0.6991 2.1611,1.1552 0.6825,0.4559 1.314,0.9741 1.8943,1.5545 0.5802,0.5804 1.0984,1.2117 1.5545,1.8942 0.4559,0.6824 0.841,1.4027 1.1551,2.161 0.3141,0.7583 0.5513,1.5399 0.7114,2.345 0.1603,0.805 0.2404,1.6179 0.2404,2.4387 z"
       style="fill:#000000;fill-opacity:1;fill-rule:nonzero;stroke:#000000;stroke-width:1;stroke-linecap:butt;stroke-linejoin:miter;stroke-miterlimit:10;stroke-dasharray:none;stroke-opacity:1"
       transform="matrix(0.94994463,0,0,0.94994463,-1659.4518,-766.50522)"
       clip-path="url(#clipPath29)" />
    <path
       id="path30"
       d="m 1825,1039 h 59.76"
       style="fill:none;stroke:#000000;stroke-width:1;stroke-linecap:butt;stroke-linejoin:miter;stroke-miterlimit:10;stroke-dasharray:none;stroke-opacity:1"
       transform="matrix(0.94994463,0,0,0.94994463,-1659.4518,-766.50522)"
       clip-path="url(#clipPath31)" />
    <path
       id="path32"
       d="m 1876.88,1043.5 9,-4.5 -9,-4.5"
       style="fill:none;stroke:#000000;stroke-width:1;stroke-linecap:butt;stroke-linejoin:miter;stroke-miterlimit:10;stroke-dasharray:none;stroke-opacity:1"
       transform="matrix(0.94994463,0,0,0.94994463,-1659.4518,-766.50522)"
       clip-path="url(#clipPath33)" />
  </g>
</svg>
