<?xml version="1.0" encoding="UTF-8" standalone="no"?>
<!-- Created with Inkscape (http://www.inkscape.org/) -->

<svg
   version="1.1"
   id="svg1"
   width="280"
   height="234.56"
   viewBox="0 0 280 234.56"
   xmlns="http://www.w3.org/2000/svg"
   xmlns:svg="http://www.w3.org/2000/svg">
  <defs
     id="defs1">
    <clipPath
       clipPathUnits="userSpaceOnUse"
       id="clipPath2">
      <path
         d="M 0,0 H 875.97656 V 731.98242 H 0 Z"
         transform="scale(0.31999999)"
         clip-rule="evenodd"
         id="path2" />
    </clipPath>
    <clipPath
       clipPathUnits="userSpaceOnUse"
       id="clipPath4">
      <path
         d="m 3.125,3.125 h 868.75 v 725 H 3.125 Z"
         transform="matrix(0.33853532,0,0,0.33853532,119.8763,5703.8845)"
         clip-rule="evenodd"
         id="path4" />
    </clipPath>
    <clipPath
       clipPathUnits="userSpaceOnUse"
       id="clipPath5">
      <path
         d="m 3.125,3.125 h 868.75 v 725 H 3.125 Z"
         transform="matrix(0.33853532,0,0,0.33853532,-127.67056,-20.615815)"
         clip-rule="evenodd"
         id="path5" />
    </clipPath>
    <clipPath
       clipPathUnits="userSpaceOnUse"
       id="clipPath6">
      <path
         d="m 3.125,3.125 h 868.75 v 725 H 3.125 Z"
         transform="matrix(0.33853532,0,0,0.33853532,-4.6236875,-35.615815)"
         clip-rule="evenodd"
         id="path6" />
    </clipPath>
    <clipPath
       clipPathUnits="userSpaceOnUse"
       id="clipPath7">
      <path
         d="m 3.125,3.125 h 868.75 v 725 H 3.125 Z"
         transform="matrix(0.33853532,0,0,0.33853532,-11.639313,-35.615815)"
         clip-rule="evenodd"
         id="path7" />
    </clipPath>
    <clipPath
       clipPathUnits="userSpaceOnUse"
       id="clipPath8">
      <path
         d="m 3.125,3.125 h 868.75 v 725 H 3.125 Z"
         transform="matrix(0.33853532,0,0,0.33853532,-4.6236875,-52.615815)"
         clip-rule="evenodd"
         id="path8" />
    </clipPath>
    <clipPath
       clipPathUnits="userSpaceOnUse"
       id="clipPath9">
      <path
         d="m 3.125,3.125 h 868.75 v 725 H 3.125 Z"
         transform="matrix(0.33853532,0,0,0.33853532,-104.02994,-52.615815)"
         clip-rule="evenodd"
         id="path9" />
    </clipPath>
    <clipPath
       clipPathUnits="userSpaceOnUse"
       id="clipPath10">
      <path
         d="m 3.125,3.125 h 868.75 v 725 H 3.125 Z"
         transform="matrix(0.33853532,0,0,0.33853532,-108.02994,-52.615815)"
         clip-rule="evenodd"
         id="path10" />
    </clipPath>
    <clipPath
       clipPathUnits="userSpaceOnUse"
       id="clipPath11">
      <path
         d="m 3.125,3.125 h 868.75 v 725 H 3.125 Z"
         transform="matrix(0.33853532,0,0,0.33853532,-126.04557,-52.615815)"
         clip-rule="evenodd"
         id="path11" />
    </clipPath>
    <clipPath
       clipPathUnits="userSpaceOnUse"
       id="clipPath12">
      <path
         d="m 3.125,3.125 h 868.75 v 725 H 3.125 Z"
         transform="matrix(0.33853532,0,0,0.33853532,-130.04557,-52.615815)"
         clip-rule="evenodd"
         id="path12" />
    </clipPath>
    <clipPath
       clipPathUnits="userSpaceOnUse"
       id="clipPath13">
      <path
         d="m 3.125,3.125 h 868.75 v 725 H 3.125 Z"
         transform="matrix(0.33853532,0,0,0.33853532,-133.38931,-52.615815)"
         clip-rule="evenodd"
         id="path13" />
    </clipPath>
    <clipPath
       clipPathUnits="userSpaceOnUse"
       id="clipPath14">
      <path
         d="m 3.125,3.125 h 868.75 v 725 H 3.125 Z"
         transform="matrix(0.33853532,0,0,0.33853532,-4.6236875,-69.615815)"
         clip-rule="evenodd"
         id="path14" />
    </clipPath>
    <clipPath
       clipPathUnits="userSpaceOnUse"
       id="clipPath15">
      <path
         d="m 3.125,3.125 h 868.75 v 725 H 3.125 Z"
         transform="matrix(0.33853532,0,0,0.33853532,-121.35806,-69.615815)"
         clip-rule="evenodd"
         id="path15" />
    </clipPath>
    <clipPath
       clipPathUnits="userSpaceOnUse"
       id="clipPath16">
      <path
         d="m 3.125,3.125 h 868.75 v 725 H 3.125 Z"
         transform="matrix(0.33853532,0,0,0.33853532,-174.71744,-69.615815)"
         clip-rule="evenodd"
         id="path16" />
    </clipPath>
    <clipPath
       clipPathUnits="userSpaceOnUse"
       id="clipPath17">
      <path
         d="m 3.125,3.125 h 868.75 v 725 H 3.125 Z"
         transform="matrix(0.33853532,0,0,0.33853532,-4.6236875,-86.615815)"
         clip-rule="evenodd"
         id="path17" />
    </clipPath>
    <clipPath
       clipPathUnits="userSpaceOnUse"
       id="clipPath18">
      <path
         d="m 3.125,3.125 h 868.75 v 725 H 3.125 Z"
         transform="matrix(0.33853532,0,0,0.33853532,-121.35806,-86.615815)"
         clip-rule="evenodd"
         id="path18" />
    </clipPath>
    <clipPath
       clipPathUnits="userSpaceOnUse"
       id="clipPath19">
      <path
         d="m 3.125,3.125 h 868.75 v 725 H 3.125 Z"
         transform="matrix(0.33853532,0,0,0.33853532,-139.37369,-86.615815)"
         clip-rule="evenodd"
         id="path19" />
    </clipPath>
    <clipPath
       clipPathUnits="userSpaceOnUse"
       id="clipPath20">
      <path
         d="m 3.125,3.125 h 868.75 v 725 H 3.125 Z"
         transform="matrix(0.33853532,0,0,0.33853532,-4.6236875,-103.61582)"
         clip-rule="evenodd"
         id="path20" />
    </clipPath>
    <clipPath
       clipPathUnits="userSpaceOnUse"
       id="clipPath21">
      <path
         d="m 3.125,3.125 h 868.75 v 725 H 3.125 Z"
         transform="matrix(0.33853532,0,0,0.33853532,-22.639313,-103.61582)"
         clip-rule="evenodd"
         id="path21" />
    </clipPath>
    <clipPath
       clipPathUnits="userSpaceOnUse"
       id="clipPath22">
      <path
         d="m 3.125,3.125 h 868.75 v 725 H 3.125 Z"
         transform="matrix(0.33853532,0,0,0.33853532,-4.6236875,-119.61581)"
         clip-rule="evenodd"
         id="path22" />
    </clipPath>
    <clipPath
       clipPathUnits="userSpaceOnUse"
       id="clipPath23">
      <path
         d="m 3.125,3.125 h 868.75 v 725 H 3.125 Z"
         transform="matrix(0.33853532,0,0,0.33853532,-120.02994,-119.61581)"
         clip-rule="evenodd"
         id="path23" />
    </clipPath>
    <clipPath
       clipPathUnits="userSpaceOnUse"
       id="clipPath24">
      <path
         d="m 3.125,3.125 h 868.75 v 725 H 3.125 Z"
         transform="matrix(0.33853532,0,0,0.33853532,-124.02994,-119.61581)"
         clip-rule="evenodd"
         id="path24" />
    </clipPath>
    <clipPath
       clipPathUnits="userSpaceOnUse"
       id="clipPath25">
      <path
         d="m 3.125,3.125 h 868.75 v 725 H 3.125 Z"
         transform="matrix(0.33853532,0,0,0.33853532,-134.02994,-119.61581)"
         clip-rule="evenodd"
         id="path25" />
    </clipPath>
    <clipPath
       clipPathUnits="userSpaceOnUse"
       id="clipPath26">
      <path
         d="m 3.125,3.125 h 868.75 v 725 H 3.125 Z"
         transform="matrix(0.33853532,0,0,0.33853532,-138.02993,-119.61581)"
         clip-rule="evenodd"
         id="path26" />
    </clipPath>
    <clipPath
       clipPathUnits="userSpaceOnUse"
       id="clipPath27">
      <path
         d="m 3.125,3.125 h 868.75 v 725 H 3.125 Z"
         transform="matrix(0.33853532,0,0,0.33853532,-141.37369,-119.61581)"
         clip-rule="evenodd"
         id="path27" />
    </clipPath>
    <clipPath
       clipPathUnits="userSpaceOnUse"
       id="clipPath28">
      <path
         d="m 3.125,3.125 h 868.75 v 725 H 3.125 Z"
         transform="matrix(0.33853532,0,0,0.33853532,-186.73307,-119.61581)"
         clip-rule="evenodd"
         id="path28" />
    </clipPath>
    <clipPath
       clipPathUnits="userSpaceOnUse"
       id="clipPath29">
      <path
         d="m 3.125,3.125 h 868.75 v 725 H 3.125 Z"
         transform="matrix(0.33853532,0,0,0.33853532,-4.6236875,-136.61582)"
         clip-rule="evenodd"
         id="path29" />
    </clipPath>
    <clipPath
       clipPathUnits="userSpaceOnUse"
       id="clipPath30">
      <path
         d="m 3.125,3.125 h 868.75 v 725 H 3.125 Z"
         transform="matrix(0.33853532,0,0,0.33853532,-120.02994,-136.61582)"
         clip-rule="evenodd"
         id="path30" />
    </clipPath>
    <clipPath
       clipPathUnits="userSpaceOnUse"
       id="clipPath31">
      <path
         d="m 3.125,3.125 h 868.75 v 725 H 3.125 Z"
         transform="matrix(0.33853532,0,0,0.33853532,-124.02994,-136.61582)"
         clip-rule="evenodd"
         id="path31" />
    </clipPath>
    <clipPath
       clipPathUnits="userSpaceOnUse"
       id="clipPath32">
      <path
         d="m 3.125,3.125 h 868.75 v 725 H 3.125 Z"
         transform="matrix(0.33853532,0,0,0.33853532,-140.70181,-136.61582)"
         clip-rule="evenodd"
         id="path32" />
    </clipPath>
    <clipPath
       clipPathUnits="userSpaceOnUse"
       id="clipPath33">
      <path
         d="m 3.125,3.125 h 868.75 v 725 H 3.125 Z"
         transform="matrix(0.33853532,0,0,0.33853532,-151.71744,-136.61582)"
         clip-rule="evenodd"
         id="path33" />
    </clipPath>
    <clipPath
       clipPathUnits="userSpaceOnUse"
       id="clipPath34">
      <path
         d="m 3.125,3.125 h 868.75 v 725 H 3.125 Z"
         transform="matrix(0.33853532,0,0,0.33853532,-4.6236875,-153.61582)"
         clip-rule="evenodd"
         id="path34" />
    </clipPath>
    <clipPath
       clipPathUnits="userSpaceOnUse"
       id="clipPath35">
      <path
         d="m 3.125,3.125 h 868.75 v 725 H 3.125 Z"
         transform="matrix(0.33853532,0,0,0.33853532,-49.326817,-153.61582)"
         clip-rule="evenodd"
         id="path35" />
    </clipPath>
    <clipPath
       clipPathUnits="userSpaceOnUse"
       id="clipPath36">
      <path
         d="m 3.125,3.125 h 868.75 v 725 H 3.125 Z"
         transform="matrix(0.33853532,0,0,0.33853532,-56.342437,-153.61582)"
         clip-rule="evenodd"
         id="path36" />
    </clipPath>
    <clipPath
       clipPathUnits="userSpaceOnUse"
       id="clipPath37">
      <path
         d="m 3.125,3.125 h 868.75 v 725 H 3.125 Z"
         transform="matrix(0.33853532,0,0,0.33853532,-4.6236875,-170.61581)"
         clip-rule="evenodd"
         id="path37" />
    </clipPath>
    <clipPath
       clipPathUnits="userSpaceOnUse"
       id="clipPath38">
      <path
         d="m 3.125,3.125 h 868.75 v 725 H 3.125 Z"
         transform="matrix(0.33853532,0,0,0.33853532,-19.967437,-170.61581)"
         clip-rule="evenodd"
         id="path38" />
    </clipPath>
    <clipPath
       clipPathUnits="userSpaceOnUse"
       id="clipPath39">
      <path
         d="m 3.125,3.125 h 868.75 v 725 H 3.125 Z"
         transform="matrix(0.33853532,0,0,0.33853532,-4.6236875,-187.61582)"
         clip-rule="evenodd"
         id="path39" />
    </clipPath>
    <clipPath
       clipPathUnits="userSpaceOnUse"
       id="clipPath40">
      <path
         d="m 3.125,3.125 h 868.75 v 725 H 3.125 Z"
         transform="matrix(0.33853532,0,0,0.33853532,-4.6236875,-203.61581)"
         clip-rule="evenodd"
         id="path40" />
    </clipPath>
    <clipPath
       clipPathUnits="userSpaceOnUse"
       id="clipPath41">
      <path
         d="m 3.125,3.125 h 868.75 v 725 H 3.125 Z"
         transform="matrix(0.33853532,0,0,0.33853532,-4.6236875,-221.61581)"
         clip-rule="evenodd"
         id="path41" />
    </clipPath>
  </defs>
  <g
     id="g1">
    <path
       id="path1"
       d="M 0,0 H 280 V 234 H 0 Z"
       style="fill:#ffffff;fill-opacity:1;fill-rule:nonzero;stroke:none"
       clip-path="url(#clipPath2)" />
    <path
       id="path3"
       d="m 123,5707 h 290 v 240 H 123 Z"
       style="fill:#ffffff;fill-opacity:1;fill-rule:nonzero;stroke:#000000;stroke-width:1;stroke-linecap:butt;stroke-linejoin:miter;stroke-miterlimit:10;stroke-dasharray:none;stroke-opacity:1"
       transform="matrix(0.94524844,0,0,0.94524844,-113.31289,-5391.5879)"
       clip-path="url(#clipPath4)" />
    <text
       id="text4"
       xml:space="preserve"
       transform="matrix(0.94524844,0,0,0.94524844,120.6804,19.487067)"
       clip-path="url(#clipPath5)"><tspan
         id="tspan4"
         style="font-style:italic;font-variant:normal;font-weight:normal;font-size:12px;font-family:Arial;writing-mode:lr-tb;fill:#000000;fill-opacity:1;fill-rule:nonzero;stroke:none"
         x="0"
         y="0">states</tspan></text>
    <text
       id="text5"
       xml:space="preserve"
       transform="matrix(0.94524844,0,0,0.94524844,4.3705334,33.665794)"
       clip-path="url(#clipPath6)"><tspan
         id="tspan5"
         style="font-variant:normal;font-weight:700;font-size:12px;font-family:Arial;writing-mode:lr-tb;fill:#000000;fill-opacity:1;fill-rule:nonzero;stroke:none"
         x="0"
         y="0">^</tspan></text>
    <text
       id="text6"
       xml:space="preserve"
       transform="matrix(0.94524844,0,0,0.94524844,11.002042,33.665794)"
       clip-path="url(#clipPath7)"><tspan
         id="tspan6"
         style="font-variant:normal;font-weight:normal;font-size:12px;font-family:Arial;writing-mode:lr-tb;fill:#000000;fill-opacity:1;fill-rule:nonzero;stroke:none"
         x="0"
         y="0">state2 : StateDef2</tspan></text>
    <text
       id="text7"
       xml:space="preserve"
       transform="matrix(0.94524844,0,0,0.94524844,4.3705334,49.735017)"
       clip-path="url(#clipPath8)"><tspan
         id="tspan7"
         style="font-variant:normal;font-weight:normal;font-size:12px;font-family:Arial;writing-mode:lr-tb;fill:#000000;fill-opacity:1;fill-rule:nonzero;stroke:none"
         x="0"
         y="0">state1 : StateDef1 </tspan></text>
    <text
       id="text8"
       xml:space="preserve"
       transform="matrix(0.94524844,0,0,0.94524844,98.334136,49.735017)"
       clip-path="url(#clipPath9)"><tspan
         id="tspan8"
         style="font-variant:normal;font-weight:700;font-size:12px;font-family:Arial;writing-mode:lr-tb;fill:#000000;fill-opacity:1;fill-rule:nonzero;stroke:none"
         x="0"
         y="0">[</tspan></text>
    <text
       id="text9"
       xml:space="preserve"
       transform="matrix(0.94524844,0,0,0.94524844,102.11513,49.735017)"
       clip-path="url(#clipPath10)"><tspan
         id="tspan9"
         style="font-variant:normal;font-weight:normal;font-size:12px;font-family:Arial;writing-mode:lr-tb;fill:#000000;fill-opacity:1;fill-rule:nonzero;stroke:none"
         x="0"
         y="0">1..*</tspan></text>
    <text
       id="text10"
       xml:space="preserve"
       transform="matrix(0.94524844,0,0,0.94524844,119.14438,49.735017)"
       clip-path="url(#clipPath11)"><tspan
         id="tspan10"
         style="font-variant:normal;font-weight:700;font-size:12px;font-family:Arial;writing-mode:lr-tb;fill:#000000;fill-opacity:1;fill-rule:nonzero;stroke:none"
         x="0"
         y="0">]</tspan></text>
    <text
       id="text11"
       xml:space="preserve"
       transform="matrix(0.94524844,0,0,0.94524844,122.92537,49.735017)"
       clip-path="url(#clipPath12)"><tspan
         id="tspan11"
         style="font-variant:normal;font-weight:normal;font-size:12px;font-family:Arial;writing-mode:lr-tb;fill:#000000;fill-opacity:1;fill-rule:nonzero;stroke:none"
         x="0"
         y="0"> </tspan></text>
    <text
       id="text12"
       xml:space="preserve"
       transform="matrix(0.94524844,0,0,0.94524844,126.08604,49.735017)"
       clip-path="url(#clipPath13)"><tspan
         id="tspan12"
         style="font-variant:normal;font-weight:700;font-size:12px;font-family:Arial;writing-mode:lr-tb;fill:#000000;fill-opacity:1;fill-rule:nonzero;stroke:none"
         x="0"
         y="0">ordered nonunique</tspan></text>
    <g
       id="g13" />
    <text
       id="text13"
       xml:space="preserve"
       transform="matrix(0.94524844,0,0,0.94524844,4.3705334,65.804241)"
       clip-path="url(#clipPath14)"><tspan
         id="tspan13"
         style="font-variant:normal;font-weight:normal;font-size:12px;font-family:Arial;writing-mode:lr-tb;fill:#000000;fill-opacity:1;fill-rule:nonzero;stroke:none"
         x="0"
         y="0">state3R : StateDef3R </tspan></text>
    <text
       id="text14"
       xml:space="preserve"
       transform="matrix(0.94524844,0,0,0.94524844,114.71352,65.804241)"
       clip-path="url(#clipPath15)"><tspan
         id="tspan14"
         style="font-variant:normal;font-weight:700;font-size:12px;font-family:Arial;writing-mode:lr-tb;fill:#000000;fill-opacity:1;fill-rule:nonzero;stroke:none"
         x="0"
         y="0">redefines</tspan></text>
    <text
       id="text15"
       xml:space="preserve"
       transform="matrix(0.94524844,0,0,0.94524844,165.15139,65.804241)"
       clip-path="url(#clipPath16)"><tspan
         id="tspan15"
         style="font-variant:normal;font-weight:normal;font-size:12px;font-family:Arial;writing-mode:lr-tb;fill:#000000;fill-opacity:1;fill-rule:nonzero;stroke:none"
         x="0"
         y="0"> state3</tspan></text>
    <text
       id="text16"
       xml:space="preserve"
       transform="matrix(0.94524844,0,0,0.94524844,4.3705334,81.873464)"
       clip-path="url(#clipPath17)"><tspan
         id="tspan16"
         style="font-variant:normal;font-weight:normal;font-size:12px;font-family:Arial;writing-mode:lr-tb;fill:#000000;fill-opacity:1;fill-rule:nonzero;stroke:none"
         x="0"
         y="0">state4R : StateDef4R </tspan></text>
    <text
       id="text17"
       xml:space="preserve"
       transform="matrix(0.94524844,0,0,0.94524844,114.71352,81.873464)"
       clip-path="url(#clipPath18)"><tspan
         id="tspan17"
         style="font-variant:normal;font-weight:700;font-size:12px;font-family:Arial;writing-mode:lr-tb;fill:#000000;fill-opacity:1;fill-rule:nonzero;stroke:none"
         x="0"
         y="0">:&gt;&gt;</tspan></text>
    <text
       id="text18"
       xml:space="preserve"
       transform="matrix(0.94524844,0,0,0.94524844,131.74276,81.873464)"
       clip-path="url(#clipPath19)"><tspan
         id="tspan18"
         style="font-variant:normal;font-weight:normal;font-size:12px;font-family:Arial;writing-mode:lr-tb;fill:#000000;fill-opacity:1;fill-rule:nonzero;stroke:none"
         x="0"
         y="0"> state4</tspan></text>
    <text
       id="text19"
       xml:space="preserve"
       transform="matrix(0.94524844,0,0,0.94524844,4.3705334,97.942688)"
       clip-path="url(#clipPath20)"><tspan
         id="tspan19"
         style="font-variant:normal;font-weight:700;font-size:12px;font-family:Arial;writing-mode:lr-tb;fill:#000000;fill-opacity:1;fill-rule:nonzero;stroke:none"
         x="0"
         y="0">:&gt;&gt;</tspan></text>
    <text
       id="text20"
       xml:space="preserve"
       transform="matrix(0.94524844,0,0,0.94524844,21.399775,97.942688)"
       clip-path="url(#clipPath21)"><tspan
         id="tspan20"
         style="font-variant:normal;font-weight:normal;font-size:12px;font-family:Arial;writing-mode:lr-tb;fill:#000000;fill-opacity:1;fill-rule:nonzero;stroke:none"
         x="0"
         y="0"> state5</tspan></text>
    <text
       id="text21"
       xml:space="preserve"
       transform="matrix(0.94524844,0,0,0.94524844,4.3705334,113.06666)"
       clip-path="url(#clipPath22)"><tspan
         id="tspan21"
         style="font-variant:normal;font-weight:normal;font-size:12px;font-family:Arial;writing-mode:lr-tb;fill:#000000;fill-opacity:1;fill-rule:nonzero;stroke:none"
         x="0"
         y="0">state6S : StateDef6S </tspan></text>
    <text
       id="text22"
       xml:space="preserve"
       transform="matrix(0.94524844,0,0,0.94524844,113.45811,113.06666)"
       clip-path="url(#clipPath23)"><tspan
         id="tspan22"
         style="font-variant:normal;font-weight:700;font-size:12px;font-family:Arial;writing-mode:lr-tb;fill:#000000;fill-opacity:1;fill-rule:nonzero;stroke:none"
         x="0"
         y="0">[</tspan></text>
    <text
       id="text23"
       xml:space="preserve"
       transform="matrix(0.94524844,0,0,0.94524844,117.23911,113.06666)"
       clip-path="url(#clipPath24)"><tspan
         id="tspan23"
         style="font-variant:normal;font-weight:normal;font-size:12px;font-family:Arial;writing-mode:lr-tb;fill:#000000;fill-opacity:1;fill-rule:nonzero;stroke:none"
         x="0"
         y="0">m</tspan></text>
    <text
       id="text24"
       xml:space="preserve"
       transform="matrix(0.94524844,0,0,0.94524844,126.69159,113.06666)"
       clip-path="url(#clipPath25)"><tspan
         id="tspan24"
         style="font-variant:normal;font-weight:700;font-size:12px;font-family:Arial;writing-mode:lr-tb;fill:#000000;fill-opacity:1;fill-rule:nonzero;stroke:none"
         x="0"
         y="0">]</tspan></text>
    <g
       id="g25" />
    <text
       id="text25"
       xml:space="preserve"
       transform="matrix(0.94524844,0,0,0.94524844,130.47258,113.06666)"
       clip-path="url(#clipPath26)"><tspan
         id="tspan25"
         style="font-variant:normal;font-weight:normal;font-size:12px;font-family:Arial;writing-mode:lr-tb;fill:#000000;fill-opacity:1;fill-rule:nonzero;stroke:none"
         x="0"
         y="0"> </tspan></text>
    <text
       id="text26"
       xml:space="preserve"
       transform="matrix(0.94524844,0,0,0.94524844,133.63326,113.06666)"
       clip-path="url(#clipPath27)"><tspan
         id="tspan26"
         style="font-variant:normal;font-weight:700;font-size:12px;font-family:Arial;writing-mode:lr-tb;fill:#000000;fill-opacity:1;fill-rule:nonzero;stroke:none"
         x="0"
         y="0">subsets</tspan></text>
    <text
       id="text27"
       xml:space="preserve"
       transform="matrix(0.94524844,0,0,0.94524844,176.50914,113.06666)"
       clip-path="url(#clipPath28)"><tspan
         id="tspan27"
         style="font-variant:normal;font-weight:normal;font-size:12px;font-family:Arial;writing-mode:lr-tb;fill:#000000;fill-opacity:1;fill-rule:nonzero;stroke:none"
         x="0"
         y="0"> state6</tspan></text>
    <text
       id="text28"
       xml:space="preserve"
       transform="matrix(0.94524844,0,0,0.94524844,4.3705334,129.13589)"
       clip-path="url(#clipPath29)"><tspan
         id="tspan28"
         style="font-variant:normal;font-weight:normal;font-size:12px;font-family:Arial;writing-mode:lr-tb;fill:#000000;fill-opacity:1;fill-rule:nonzero;stroke:none"
         x="0"
         y="0">state7S : StateDef7S </tspan></text>
    <text
       id="text29"
       xml:space="preserve"
       transform="matrix(0.94524844,0,0,0.94524844,113.45811,129.13589)"
       clip-path="url(#clipPath30)"><tspan
         id="tspan29"
         style="font-variant:normal;font-weight:700;font-size:12px;font-family:Arial;writing-mode:lr-tb;fill:#000000;fill-opacity:1;fill-rule:nonzero;stroke:none"
         x="0"
         y="0">[</tspan></text>
    <text
       id="text30"
       xml:space="preserve"
       transform="matrix(0.94524844,0,0,0.94524844,117.23911,129.13589)"
       clip-path="url(#clipPath31)"><tspan
         id="tspan30"
         style="font-variant:normal;font-weight:normal;font-size:12px;font-family:Arial;writing-mode:lr-tb;fill:#000000;fill-opacity:1;fill-rule:nonzero;stroke:none"
         x="0"
         y="0">m] </tspan></text>
    <text
       id="text31"
       xml:space="preserve"
       transform="matrix(0.94524844,0,0,0.94524844,132.99817,129.13589)"
       clip-path="url(#clipPath32)"><tspan
         id="tspan31"
         style="font-variant:normal;font-weight:700;font-size:12px;font-family:Arial;writing-mode:lr-tb;fill:#000000;fill-opacity:1;fill-rule:nonzero;stroke:none"
         x="0"
         y="0">:&gt;</tspan></text>
    <text
       id="text32"
       xml:space="preserve"
       transform="matrix(0.94524844,0,0,0.94524844,143.41067,129.13589)"
       clip-path="url(#clipPath33)"><tspan
         id="tspan32"
         style="font-variant:normal;font-weight:normal;font-size:12px;font-family:Arial;writing-mode:lr-tb;fill:#000000;fill-opacity:1;fill-rule:nonzero;stroke:none"
         x="0"
         y="0"> state7</tspan></text>
    <text
       id="text33"
       xml:space="preserve"
       transform="matrix(0.94524844,0,0,0.94524844,4.3705334,145.20511)"
       clip-path="url(#clipPath34)"><tspan
         id="tspan33"
         style="font-variant:normal;font-weight:normal;font-size:12px;font-family:Arial;writing-mode:lr-tb;fill:#000000;fill-opacity:1;fill-rule:nonzero;stroke:none"
         x="0"
         y="0">state8R </tspan></text>
    <text
       id="text34"
       xml:space="preserve"
       transform="matrix(0.94524844,0,0,0.94524844,46.626097,145.20511)"
       clip-path="url(#clipPath35)"><tspan
         id="tspan34"
         style="font-variant:normal;font-weight:700;font-size:12px;font-family:Arial;writing-mode:lr-tb;fill:#000000;fill-opacity:1;fill-rule:nonzero;stroke:none"
         x="0"
         y="0">=</tspan></text>
    <text
       id="text35"
       xml:space="preserve"
       transform="matrix(0.94524844,0,0,0.94524844,53.257601,145.20511)"
       clip-path="url(#clipPath36)"><tspan
         id="tspan35"
         style="font-variant:normal;font-weight:normal;font-size:12px;font-family:Arial;writing-mode:lr-tb;fill:#000000;fill-opacity:1;fill-rule:nonzero;stroke:none"
         x="0"
         y="0"> state8</tspan></text>
    <text
       id="text36"
       xml:space="preserve"
       transform="matrix(0.94524844,0,0,0.94524844,4.3705334,161.27433)"
       clip-path="url(#clipPath37)"><tspan
         id="tspan36"
         style="font-variant:normal;font-weight:700;font-size:12px;font-family:Arial;writing-mode:lr-tb;fill:#000000;fill-opacity:1;fill-rule:nonzero;stroke:none"
         x="0"
         y="0">ref</tspan></text>
    <g
       id="g37" />
    <text
       id="text37"
       xml:space="preserve"
       transform="matrix(0.94524844,0,0,0.94524844,18.874189,161.27433)"
       clip-path="url(#clipPath38)"><tspan
         id="tspan37"
         style="font-variant:normal;font-weight:normal;font-size:12px;font-family:Arial;writing-mode:lr-tb;fill:#000000;fill-opacity:1;fill-rule:nonzero;stroke:none"
         x="0"
         y="0"> state9 : StateDef9</tspan></text>
    <text
       id="text38"
       xml:space="preserve"
       transform="matrix(0.94524844,0,0,0.94524844,4.3705334,177.34356)"
       clip-path="url(#clipPath39)"><tspan
         id="tspan38"
         style="font-variant:normal;font-weight:normal;font-size:12px;font-family:Arial;writing-mode:lr-tb;fill:#000000;fill-opacity:1;fill-rule:nonzero;stroke:none"
         x="0"
         y="0">exhibit state10</tspan></text>
    <text
       id="text39"
       xml:space="preserve"
       transform="matrix(0.94524844,0,0,0.94524844,4.3705334,192.46753)"
       clip-path="url(#clipPath40)"><tspan
         id="tspan39"
         style="font-variant:normal;font-weight:normal;font-size:12px;font-family:Arial;writing-mode:lr-tb;fill:#000000;fill-opacity:1;fill-rule:nonzero;stroke:none"
         x="0"
         dx="0 0 0 0 0 0 -0.89062494"
         y="0">state11</tspan></text>
    <text
       id="text40"
       xml:space="preserve"
       transform="matrix(0.94524844,0,0,0.94524844,4.3705334,209.482)"
       clip-path="url(#clipPath41)"><tspan
         id="tspan40"
         style="font-variant:normal;font-weight:700;font-size:14px;font-family:Arial;writing-mode:lr-tb;fill:#000000;fill-opacity:1;fill-rule:nonzero;stroke:none"
         x="0"
         y="0">...</tspan></text>
  </g>
</svg>
