<?xml version="1.0" encoding="UTF-8" standalone="no"?>
<!-- Created with Inkscape (http://www.inkscape.org/) -->

<svg
   version="1.1"
   id="svg1"
   width="155.84"
   height="89.279999"
   viewBox="0 0 155.84 89.279999"
   xmlns="http://www.w3.org/2000/svg"
   xmlns:svg="http://www.w3.org/2000/svg">
  <defs
     id="defs1">
    <clipPath
       clipPathUnits="userSpaceOnUse"
       id="clipPath2">
      <path
         d="M 0,0 H 488 V 279.00391 H 0 Z"
         transform="scale(0.31999999)"
         clip-rule="evenodd"
         id="path2" />
    </clipPath>
    <clipPath
       clipPathUnits="userSpaceOnUse"
       id="clipPath4">
      <path
         d="M 3.125,0 H 487.5 V 278.125 H 3.125 Z"
         transform="matrix(0.34065814,0,0,0.34065814,554.86521,1927.9355)"
         clip-rule="evenodd"
         id="path4" />
    </clipPath>
    <clipPath
       clipPathUnits="userSpaceOnUse"
       id="clipPath6">
      <path
         d="M 3.125,0 H 487.5 V 278.125 H 3.125 Z"
         transform="matrix(0.34065814,0,0,0.34065814,554.86521,1927.9355)"
         clip-rule="evenodd"
         id="path6" />
    </clipPath>
    <clipPath
       clipPathUnits="userSpaceOnUse"
       id="clipPath8">
      <path
         d="M 3.125,0 H 487.5 V 278.125 H 3.125 Z"
         transform="matrix(0.34065814,0,0,0.34065814,554.86521,1927.9355)"
         clip-rule="evenodd"
         id="path8" />
    </clipPath>
    <clipPath
       clipPathUnits="userSpaceOnUse"
       id="clipPath9">
      <path
         d="M 3.125,0 H 487.5 V 278.125 H 3.125 Z"
         transform="matrix(0.34065814,0,0,0.34065814,-60.009747,-23.564713)"
         clip-rule="evenodd"
         id="path9" />
    </clipPath>
    <clipPath
       clipPathUnits="userSpaceOnUse"
       id="clipPath10">
      <path
         d="M 3.125,0 H 487.5 V 278.125 H 3.125 Z"
         transform="matrix(0.34065814,0,0,0.34065814,-24.884746,-42.564713)"
         clip-rule="evenodd"
         id="path10" />
    </clipPath>
    <clipPath
       clipPathUnits="userSpaceOnUse"
       id="clipPath11">
      <path
         d="m 198.54138,160.17432 h 88.06482 v 44.03222 h -88.06482 z"
         transform="matrix(0.34065814,0,0,0.34065814,-67.962877,-65.564714)"
         clip-rule="evenodd"
         id="path11" />
    </clipPath>
    <clipPath
       clipPathUnits="userSpaceOnUse"
       id="clipPath12">
      <path
         d="M 25.34729,218.88428 H 216.1543 v 44.03223 H 25.34729 Z"
         transform="matrix(0.34065814,0,0,0.34065814,-8.6347467,-85.564714)"
         clip-rule="evenodd"
         id="path12" />
    </clipPath>
  </defs>
  <g
     id="g1">
    <path
       id="path1"
       d="M 0,0 H 156 V 89 H 0 Z"
       style="fill:#ffffff;fill-opacity:1;fill-rule:nonzero;stroke:none"
       clip-path="url(#clipPath2)" />
    <path
       id="path3"
       d="m 718,1980 v -42.5 c 0,-5 -2.5,-7.5 -7.5,-7.5 h -145 c -5,0 -7.5,2.5 -7.5,7.5 v 42.5"
       style="fill:none;stroke:#000000;stroke-width:1;stroke-linecap:butt;stroke-linejoin:miter;stroke-miterlimit:10;stroke-dasharray:none;stroke-opacity:1"
       transform="matrix(0.9393581,0,0,0.9393581,-521.21713,-1811.0218)"
       clip-path="url(#clipPath4)" />
    <path
       id="path5"
       d="m 558,1980 v 32.5 c 0,5 2.5,7.5 7.5,7.5 h 145 c 5,0 7.5,-2.5 7.5,-7.5 V 1980"
       style="fill:none;stroke:#000000;stroke-width:1;stroke-linecap:butt;stroke-linejoin:miter;stroke-miterlimit:10;stroke-dasharray:none;stroke-opacity:1"
       transform="matrix(0.9393581,0,0,0.9393581,-521.21713,-1811.0218)"
       clip-path="url(#clipPath6)" />
    <path
       id="path7"
       d="M 558,1980 H 718"
       style="fill:none;stroke:#000000;stroke-width:1;stroke-linecap:butt;stroke-linejoin:miter;stroke-miterlimit:10;stroke-dasharray:none;stroke-opacity:1"
       transform="matrix(0.9393581,0,0,0.9393581,-521.21713,-1811.0218)"
       clip-path="url(#clipPath8)" />
    <text
       id="text8"
       xml:space="preserve"
       transform="matrix(0.9393581,0,0,0.9393581,56.370642,22.135704)"
       clip-path="url(#clipPath9)"><tspan
         id="tspan8"
         style="font-variant:normal;font-weight:normal;font-size:16px;font-family:Arial;writing-mode:lr-tb;fill:#000000;fill-opacity:1;fill-rule:nonzero;stroke:none"
         x="0"
         y="0">«calc»</tspan></text>
    <text
       id="text9"
       xml:space="preserve"
       transform="matrix(0.9393581,0,0,0.9393581,23.375688,39.983508)"
       clip-path="url(#clipPath10)"><tspan
         id="tspan9"
         style="font-variant:normal;font-weight:normal;font-size:16px;font-family:Arial;writing-mode:lr-tb;fill:#000000;fill-opacity:1;fill-rule:nonzero;stroke:none"
         x="0"
         y="0">calc1 : CalcDef1</tspan></text>
    <text
       id="text10"
       xml:space="preserve"
       transform="matrix(0.9393581,0,0,0.9393581,63.841479,61.588745)"
       clip-path="url(#clipPath11)"><tspan
         id="tspan10"
         style="font-style:italic;font-variant:normal;font-weight:normal;font-size:12px;font-family:Arial;writing-mode:lr-tb;fill:#000000;fill-opacity:1;fill-rule:nonzero;stroke:none"
         x="0"
         y="0">result</tspan></text>
    <text
       id="text11"
       xml:space="preserve"
       transform="matrix(0.9393581,0,0,0.9393581,8.1111193,80.375907)"
       clip-path="url(#clipPath12)"><tspan
         id="tspan11"
         style="font-variant:normal;font-weight:normal;font-size:12px;font-family:Arial;writing-mode:lr-tb;fill:#000000;fill-opacity:1;fill-rule:nonzero;stroke:none"
         x="0"
         y="0">expression1</tspan></text>
  </g>
</svg>
