<?xml version="1.0" encoding="UTF-8" standalone="no"?>
<!-- Created with Inkscape (http://www.inkscape.org/) -->

<svg
   version="1.1"
   id="svg1"
   width="224"
   height="40"
   viewBox="0 0 224 40"
   xmlns="http://www.w3.org/2000/svg"
   xmlns:svg="http://www.w3.org/2000/svg">
  <defs
     id="defs1">
    <clipPath
       clipPathUnits="userSpaceOnUse"
       id="clipPath2">
      <path
         d="M 0,0 H 699.02344 V 125.97656 H 0 Z"
         transform="scale(0.31999999)"
         clip-rule="evenodd"
         id="path2" />
    </clipPath>
    <clipPath
       clipPathUnits="userSpaceOnUse"
       id="clipPath4">
      <path
         d="m 3.125,0 h 693.75 V 125.97656 H 3.125 Z"
         transform="matrix(0.33841369,0,0,0.33841369,534.3796,3559.5)"
         clip-rule="evenodd"
         id="path4" />
    </clipPath>
    <clipPath
       clipPathUnits="userSpaceOnUse"
       id="clipPath5">
      <path
         d="m 3.125,0 h 693.75 V 125.97656 H 3.125 Z"
         transform="matrix(0.33841369,0,0,0.33841369,-75.042313,-17.000032)"
         clip-rule="evenodd"
         id="path5" />
    </clipPath>
    <clipPath
       clipPathUnits="userSpaceOnUse"
       id="clipPath6">
      <path
         d="m 3.125,0 h 693.75 V 125.97656 H 3.125 Z"
         transform="matrix(0.33841369,0,0,0.33841369,-19.464182,-37.000031)"
         clip-rule="evenodd"
         id="path6" />
    </clipPath>
  </defs>
  <g
     id="g1">
    <path
       id="path1"
       d="M 0,0 H 224 V 40 H 0 Z"
       style="fill:#ffffff;fill-opacity:1;fill-rule:nonzero;stroke:none"
       clip-path="url(#clipPath2)" />
    <path
       id="path3"
       d="m 545.5,3560.5 h 214 c 0.52521,0 1.04541,0.051 1.56061,0.1536 0.5152,0.1025 1.01544,0.2541 1.50073,0.455 0.48535,0.201 0.94641,0.4473 1.38312,0.7393 0.43683,0.2917 0.84094,0.6235 1.21234,0.9949 0.3714,0.3713 0.703,0.7756 0.99481,1.2124 0.29181,0.4365 0.53827,0.8974 0.73932,1.3828 0.20099,0.4853 0.35278,0.9856 0.45526,1.5007 0.10254,0.5154 0.15381,1.0357 0.15381,1.5613 v 24 c 0,0.5251 -0.0513,1.0454 -0.15381,1.5605 -0.10248,0.5152 -0.25427,1.0154 -0.45526,1.5005 -0.20105,0.4854 -0.44751,0.9466 -0.73932,1.3833 -0.29181,0.4368 -0.62341,0.8411 -0.99481,1.2124 -0.3714,0.3714 -0.77551,0.7029 -1.21234,0.9949 -0.43671,0.2918 -0.89777,0.5383 -1.38312,0.7393 -0.48529,0.2009 -0.98553,0.3528 -1.50073,0.4553 -0.5152,0.1025 -1.0354,0.1538 -1.56061,0.1538 h -214 c -0.52533,0 -1.04559,-0.051 -1.56079,-0.1538 -0.5152,-0.1025 -1.0155,-0.2544 -1.50079,-0.4553 -0.48529,-0.201 -0.94629,-0.4475 -1.38306,-0.7393 -0.43671,-0.292 -0.84082,-0.6235 -1.21228,-0.9949 -0.37152,-0.3713 -0.70319,-0.7756 -0.995,-1.2124 -0.29181,-0.4367 -0.5382,-0.8979 -0.73919,-1.3833 -0.20099,-0.4851 -0.35273,-0.9853 -0.4552,-1.5005 -0.10248,-0.5151 -0.15369,-1.0354 -0.15369,-1.5605 v -24 c 0,-0.5256 0.0512,-1.0459 0.15369,-1.5613 0.10247,-0.5151 0.25421,-1.0154 0.4552,-1.5007 0.20099,-0.4854 0.44738,-0.9465 0.73919,-1.3833 0.29181,-0.4365 0.62348,-0.8406 0.995,-1.2119 0.37146,-0.3714 0.77557,-0.7032 1.21234,-0.9949 0.43671,-0.292 0.89777,-0.5383 1.38306,-0.7393 0.48529,-0.2009 0.98553,-0.3525 1.50073,-0.4548 0.5152,-0.1025 1.03546,-0.1538 1.56079,-0.1538 z"
       style="fill:#ffffff;fill-opacity:1;fill-rule:nonzero;stroke:#000000;stroke-width:1;stroke-linecap:butt;stroke-linejoin:miter;stroke-miterlimit:10;stroke-dasharray:none;stroke-opacity:1"
       transform="matrix(0.94558818,0,0,0.94558818,-505.30303,-3365.8211)"
       clip-path="url(#clipPath4)" />
    <text
       id="text4"
       xml:space="preserve"
       transform="matrix(0.94558818,0,0,0.94558818,70.959124,16.075029)"
       clip-path="url(#clipPath5)"><tspan
         id="tspan4"
         style="font-variant:normal;font-weight:normal;font-size:16px;font-family:Arial;writing-mode:lr-tb;fill:#000000;fill-opacity:1;fill-rule:nonzero;stroke:none"
         x="0"
         y="0">«constraint»</tspan></text>
    <text
       id="text5"
       xml:space="preserve"
       transform="matrix(0.94558818,0,0,0.94558818,18.4051,34.986792)"
       clip-path="url(#clipPath6)"><tspan
         id="tspan5"
         style="font-variant:normal;font-weight:normal;font-size:16px;font-family:Arial;writing-mode:lr-tb;fill:#000000;fill-opacity:1;fill-rule:nonzero;stroke:none"
         x="0"
         y="0">constraint1 : ConstraintDef1</tspan></text>
  </g>
</svg>
