<?xml version="1.0" encoding="UTF-8" standalone="no"?>
<!-- Created with Inkscape (http://www.inkscape.org/) -->

<svg
   version="1.1"
   id="svg1"
   width="310.72"
   height="291.84"
   viewBox="0 0 310.72 291.84"
   xmlns="http://www.w3.org/2000/svg"
   xmlns:svg="http://www.w3.org/2000/svg">
  <defs
     id="defs1">
    <clipPath
       clipPathUnits="userSpaceOnUse"
       id="clipPath2">
      <path
         d="M 0,0 H 968.99414 V 912.01172 H 0 Z"
         transform="scale(0.31999999)"
         clip-rule="evenodd"
         id="path2" />
    </clipPath>
    <clipPath
       clipPathUnits="userSpaceOnUse"
       id="clipPath4">
      <path
         d="m 3.125,0 h 962.5 V 912.01172 H 3.125 Z"
         transform="matrix(0.33698045,0,0,0.33698045,118.88524,705.94699)"
         clip-rule="evenodd"
         id="path4" />
    </clipPath>
    <clipPath
       clipPathUnits="userSpaceOnUse"
       id="clipPath5">
      <path
         d="m 3.125,0 h 962.5 V 912.01172 H 3.125 Z"
         transform="matrix(0.33698045,0,0,0.33698045,-124.00538,-19.553072)"
         clip-rule="evenodd"
         id="path5" />
    </clipPath>
    <clipPath
       clipPathUnits="userSpaceOnUse"
       id="clipPath6">
      <path
         d="m 3.125,0 h 962.5 V 912.01172 H 3.125 Z"
         transform="matrix(0.33698045,0,0,0.33698045,-4.6147514,-34.553072)"
         clip-rule="evenodd"
         id="path6" />
    </clipPath>
    <clipPath
       clipPathUnits="userSpaceOnUse"
       id="clipPath7">
      <path
         d="m 3.125,0 h 962.5 V 912.01172 H 3.125 Z"
         transform="matrix(0.33698045,0,0,0.33698045,-11.630376,-34.553072)"
         clip-rule="evenodd"
         id="path7" />
    </clipPath>
    <clipPath
       clipPathUnits="userSpaceOnUse"
       id="clipPath8">
      <path
         d="m 3.125,0 h 962.5 V 912.01172 H 3.125 Z"
         transform="matrix(0.33698045,0,0,0.33698045,-4.6147514,-51.553072)"
         clip-rule="evenodd"
         id="path8" />
    </clipPath>
    <clipPath
       clipPathUnits="userSpaceOnUse"
       id="clipPath9">
      <path
         d="m 3.125,0 h 962.5 V 912.01172 H 3.125 Z"
         transform="matrix(0.33698045,0,0,0.33698045,-156.69288,-51.553072)"
         clip-rule="evenodd"
         id="path9" />
    </clipPath>
    <clipPath
       clipPathUnits="userSpaceOnUse"
       id="clipPath10">
      <path
         d="m 3.125,0 h 962.5 V 912.01172 H 3.125 Z"
         transform="matrix(0.33698045,0,0,0.33698045,-160.69288,-51.553072)"
         clip-rule="evenodd"
         id="path10" />
    </clipPath>
    <clipPath
       clipPathUnits="userSpaceOnUse"
       id="clipPath11">
      <path
         d="m 3.125,0 h 962.5 V 912.01172 H 3.125 Z"
         transform="matrix(0.33698045,0,0,0.33698045,-178.7085,-51.553072)"
         clip-rule="evenodd"
         id="path11" />
    </clipPath>
    <clipPath
       clipPathUnits="userSpaceOnUse"
       id="clipPath12">
      <path
         d="m 3.125,0 h 962.5 V 912.01172 H 3.125 Z"
         transform="matrix(0.33698045,0,0,0.33698045,-182.7085,-51.553072)"
         clip-rule="evenodd"
         id="path12" />
    </clipPath>
    <clipPath
       clipPathUnits="userSpaceOnUse"
       id="clipPath13">
      <path
         d="m 3.125,0 h 962.5 V 912.01172 H 3.125 Z"
         transform="matrix(0.33698045,0,0,0.33698045,-186.05225,-51.553072)"
         clip-rule="evenodd"
         id="path13" />
    </clipPath>
    <clipPath
       clipPathUnits="userSpaceOnUse"
       id="clipPath14">
      <path
         d="m 3.125,0 h 962.5 V 912.01172 H 3.125 Z"
         transform="matrix(0.33698045,0,0,0.33698045,-4.6147514,-68.553072)"
         clip-rule="evenodd"
         id="path14" />
    </clipPath>
    <clipPath
       clipPathUnits="userSpaceOnUse"
       id="clipPath15">
      <path
         d="m 3.125,0 h 962.5 V 912.01172 H 3.125 Z"
         transform="matrix(0.33698045,0,0,0.33698045,-174.021,-68.553072)"
         clip-rule="evenodd"
         id="path15" />
    </clipPath>
    <clipPath
       clipPathUnits="userSpaceOnUse"
       id="clipPath16">
      <path
         d="m 3.125,0 h 962.5 V 912.01172 H 3.125 Z"
         transform="matrix(0.33698045,0,0,0.33698045,-227.38038,-68.553072)"
         clip-rule="evenodd"
         id="path16" />
    </clipPath>
    <clipPath
       clipPathUnits="userSpaceOnUse"
       id="clipPath17">
      <path
         d="m 3.125,0 h 962.5 V 912.01172 H 3.125 Z"
         transform="matrix(0.33698045,0,0,0.33698045,-4.6147514,-85.553072)"
         clip-rule="evenodd"
         id="path17" />
    </clipPath>
    <clipPath
       clipPathUnits="userSpaceOnUse"
       id="clipPath18">
      <path
         d="m 3.125,0 h 962.5 V 912.01172 H 3.125 Z"
         transform="matrix(0.33698045,0,0,0.33698045,-174.021,-85.553072)"
         clip-rule="evenodd"
         id="path18" />
    </clipPath>
    <clipPath
       clipPathUnits="userSpaceOnUse"
       id="clipPath19">
      <path
         d="m 3.125,0 h 962.5 V 912.01172 H 3.125 Z"
         transform="matrix(0.33698045,0,0,0.33698045,-192.03663,-85.553072)"
         clip-rule="evenodd"
         id="path19" />
    </clipPath>
    <clipPath
       clipPathUnits="userSpaceOnUse"
       id="clipPath20">
      <path
         d="m 3.125,0 h 962.5 V 912.01172 H 3.125 Z"
         transform="matrix(0.33698045,0,0,0.33698045,-4.6147514,-102.55307)"
         clip-rule="evenodd"
         id="path20" />
    </clipPath>
    <clipPath
       clipPathUnits="userSpaceOnUse"
       id="clipPath21">
      <path
         d="m 3.125,0 h 962.5 V 912.01172 H 3.125 Z"
         transform="matrix(0.33698045,0,0,0.33698045,-22.630376,-102.55307)"
         clip-rule="evenodd"
         id="path21" />
    </clipPath>
    <clipPath
       clipPathUnits="userSpaceOnUse"
       id="clipPath22">
      <path
         d="m 3.125,0 h 962.5 V 912.01172 H 3.125 Z"
         transform="matrix(0.33698045,0,0,0.33698045,-4.6147514,-118.55308)"
         clip-rule="evenodd"
         id="path22" />
    </clipPath>
    <clipPath
       clipPathUnits="userSpaceOnUse"
       id="clipPath23">
      <path
         d="m 3.125,0 h 962.5 V 912.01172 H 3.125 Z"
         transform="matrix(0.33698045,0,0,0.33698045,-172.7085,-118.55308)"
         clip-rule="evenodd"
         id="path23" />
    </clipPath>
    <clipPath
       clipPathUnits="userSpaceOnUse"
       id="clipPath24">
      <path
         d="m 3.125,0 h 962.5 V 912.01172 H 3.125 Z"
         transform="matrix(0.33698045,0,0,0.33698045,-176.7085,-118.55308)"
         clip-rule="evenodd"
         id="path24" />
    </clipPath>
    <clipPath
       clipPathUnits="userSpaceOnUse"
       id="clipPath25">
      <path
         d="m 3.125,0 h 962.5 V 912.01172 H 3.125 Z"
         transform="matrix(0.33698045,0,0,0.33698045,-186.7085,-118.55308)"
         clip-rule="evenodd"
         id="path25" />
    </clipPath>
    <clipPath
       clipPathUnits="userSpaceOnUse"
       id="clipPath26">
      <path
         d="m 3.125,0 h 962.5 V 912.01172 H 3.125 Z"
         transform="matrix(0.33698045,0,0,0.33698045,-190.7085,-118.55308)"
         clip-rule="evenodd"
         id="path26" />
    </clipPath>
    <clipPath
       clipPathUnits="userSpaceOnUse"
       id="clipPath27">
      <path
         d="m 3.125,0 h 962.5 V 912.01172 H 3.125 Z"
         transform="matrix(0.33698045,0,0,0.33698045,-194.05225,-118.55308)"
         clip-rule="evenodd"
         id="path27" />
    </clipPath>
    <clipPath
       clipPathUnits="userSpaceOnUse"
       id="clipPath28">
      <path
         d="m 3.125,0 h 962.5 V 912.01172 H 3.125 Z"
         transform="matrix(0.33698045,0,0,0.33698045,-242.73975,-118.55308)"
         clip-rule="evenodd"
         id="path28" />
    </clipPath>
    <clipPath
       clipPathUnits="userSpaceOnUse"
       id="clipPath29">
      <path
         d="m 3.125,0 h 962.5 V 912.01172 H 3.125 Z"
         transform="matrix(0.33698045,0,0,0.33698045,-4.6147514,-135.55308)"
         clip-rule="evenodd"
         id="path29" />
    </clipPath>
    <clipPath
       clipPathUnits="userSpaceOnUse"
       id="clipPath30">
      <path
         d="m 3.125,0 h 962.5 V 912.01172 H 3.125 Z"
         transform="matrix(0.33698045,0,0,0.33698045,-172.7085,-135.55308)"
         clip-rule="evenodd"
         id="path30" />
    </clipPath>
    <clipPath
       clipPathUnits="userSpaceOnUse"
       id="clipPath31">
      <path
         d="m 3.125,0 h 962.5 V 912.01172 H 3.125 Z"
         transform="matrix(0.33698045,0,0,0.33698045,-176.7085,-135.55308)"
         clip-rule="evenodd"
         id="path31" />
    </clipPath>
    <clipPath
       clipPathUnits="userSpaceOnUse"
       id="clipPath32">
      <path
         d="m 3.125,0 h 962.5 V 912.01172 H 3.125 Z"
         transform="matrix(0.33698045,0,0,0.33698045,-186.7085,-135.55308)"
         clip-rule="evenodd"
         id="path32" />
    </clipPath>
    <clipPath
       clipPathUnits="userSpaceOnUse"
       id="clipPath33">
      <path
         d="m 3.125,0 h 962.5 V 912.01172 H 3.125 Z"
         transform="matrix(0.33698045,0,0,0.33698045,-190.7085,-135.55308)"
         clip-rule="evenodd"
         id="path33" />
    </clipPath>
    <clipPath
       clipPathUnits="userSpaceOnUse"
       id="clipPath34">
      <path
         d="m 3.125,0 h 962.5 V 912.01172 H 3.125 Z"
         transform="matrix(0.33698045,0,0,0.33698045,-194.05225,-135.55308)"
         clip-rule="evenodd"
         id="path34" />
    </clipPath>
    <clipPath
       clipPathUnits="userSpaceOnUse"
       id="clipPath35">
      <path
         d="m 3.125,0 h 962.5 V 912.01172 H 3.125 Z"
         transform="matrix(0.33698045,0,0,0.33698045,-205.06788,-135.55308)"
         clip-rule="evenodd"
         id="path35" />
    </clipPath>
    <clipPath
       clipPathUnits="userSpaceOnUse"
       id="clipPath36">
      <path
         d="m 3.125,0 h 962.5 V 912.01172 H 3.125 Z"
         transform="matrix(0.33698045,0,0,0.33698045,-4.6147514,-152.55307)"
         clip-rule="evenodd"
         id="path36" />
    </clipPath>
    <clipPath
       clipPathUnits="userSpaceOnUse"
       id="clipPath37">
      <path
         d="m 3.125,0 h 962.5 V 912.01172 H 3.125 Z"
         transform="matrix(0.33698045,0,0,0.33698045,-78.661631,-152.55307)"
         clip-rule="evenodd"
         id="path37" />
    </clipPath>
    <clipPath
       clipPathUnits="userSpaceOnUse"
       id="clipPath38">
      <path
         d="m 3.125,0 h 962.5 V 912.01172 H 3.125 Z"
         transform="matrix(0.33698045,0,0,0.33698045,-85.677252,-152.55307)"
         clip-rule="evenodd"
         id="path38" />
    </clipPath>
    <clipPath
       clipPathUnits="userSpaceOnUse"
       id="clipPath39">
      <path
         d="m 3.125,0 h 962.5 V 912.01172 H 3.125 Z"
         transform="matrix(0.33698045,0,0,0.33698045,-4.6147514,-169.55307)"
         clip-rule="evenodd"
         id="path39" />
    </clipPath>
    <clipPath
       clipPathUnits="userSpaceOnUse"
       id="clipPath40">
      <path
         d="m 3.125,0 h 962.5 V 912.01172 H 3.125 Z"
         transform="matrix(0.33698045,0,0,0.33698045,-19.958501,-169.55307)"
         clip-rule="evenodd"
         id="path40" />
    </clipPath>
    <clipPath
       clipPathUnits="userSpaceOnUse"
       id="clipPath41">
      <path
         d="m 3.125,0 h 962.5 V 912.01172 H 3.125 Z"
         transform="matrix(0.33698045,0,0,0.33698045,-4.6147514,-186.55307)"
         clip-rule="evenodd"
         id="path41" />
    </clipPath>
    <clipPath
       clipPathUnits="userSpaceOnUse"
       id="clipPath42">
      <path
         d="m 3.125,0 h 962.5 V 912.01172 H 3.125 Z"
         transform="matrix(0.33698045,0,0,0.33698045,-39.989752,-186.55307)"
         clip-rule="evenodd"
         id="path42" />
    </clipPath>
    <clipPath
       clipPathUnits="userSpaceOnUse"
       id="clipPath43">
      <path
         d="m 3.125,0 h 962.5 V 912.01172 H 3.125 Z"
         transform="matrix(0.33698045,0,0,0.33698045,-4.6147514,-202.55307)"
         clip-rule="evenodd"
         id="path43" />
    </clipPath>
    <clipPath
       clipPathUnits="userSpaceOnUse"
       id="clipPath44">
      <path
         d="m 3.125,0 h 962.5 V 912.01172 H 3.125 Z"
         transform="matrix(0.33698045,0,0,0.33698045,-39.989752,-202.55307)"
         clip-rule="evenodd"
         id="path44" />
    </clipPath>
    <clipPath
       clipPathUnits="userSpaceOnUse"
       id="clipPath45">
      <path
         d="m 3.125,0 h 962.5 V 912.01172 H 3.125 Z"
         transform="matrix(0.33698045,0,0,0.33698045,-43.333502,-202.55307)"
         clip-rule="evenodd"
         id="path45" />
    </clipPath>
    <clipPath
       clipPathUnits="userSpaceOnUse"
       id="clipPath46">
      <path
         d="m 3.125,0 h 962.5 V 912.01172 H 3.125 Z"
         transform="matrix(0.33698045,0,0,0.33698045,-48.005377,-202.55307)"
         clip-rule="evenodd"
         id="path46" />
    </clipPath>
    <clipPath
       clipPathUnits="userSpaceOnUse"
       id="clipPath47">
      <path
         d="m 3.125,0 h 962.5 V 912.01172 H 3.125 Z"
         transform="matrix(0.33698045,0,0,0.33698045,-162.09914,-202.55307)"
         clip-rule="evenodd"
         id="path47" />
    </clipPath>
    <clipPath
       clipPathUnits="userSpaceOnUse"
       id="clipPath48">
      <path
         d="m 3.125,0 h 962.5 V 912.01172 H 3.125 Z"
         transform="matrix(0.33698045,0,0,0.33698045,-4.6147514,-219.55307)"
         clip-rule="evenodd"
         id="path48" />
    </clipPath>
    <clipPath
       clipPathUnits="userSpaceOnUse"
       id="clipPath49">
      <path
         d="m 3.125,0 h 962.5 V 912.01172 H 3.125 Z"
         transform="matrix(0.33698045,0,0,0.33698045,-9.2866265,-219.55307)"
         clip-rule="evenodd"
         id="path49" />
    </clipPath>
    <clipPath
       clipPathUnits="userSpaceOnUse"
       id="clipPath50">
      <path
         d="m 3.125,0 h 962.5 V 912.01172 H 3.125 Z"
         transform="matrix(0.33698045,0,0,0.33698045,-123.38039,-219.55307)"
         clip-rule="evenodd"
         id="path50" />
    </clipPath>
    <clipPath
       clipPathUnits="userSpaceOnUse"
       id="clipPath51">
      <path
         d="m 3.125,0 h 962.5 V 912.01172 H 3.125 Z"
         transform="matrix(0.33698045,0,0,0.33698045,-4.6147514,-236.55307)"
         clip-rule="evenodd"
         id="path51" />
    </clipPath>
    <clipPath
       clipPathUnits="userSpaceOnUse"
       id="clipPath52">
      <path
         d="m 3.125,0 h 962.5 V 912.01172 H 3.125 Z"
         transform="matrix(0.33698045,0,0,0.33698045,-4.6147514,-253.55307)"
         clip-rule="evenodd"
         id="path52" />
    </clipPath>
    <clipPath
       clipPathUnits="userSpaceOnUse"
       id="clipPath53">
      <path
         d="m 3.125,0 h 962.5 V 912.01172 H 3.125 Z"
         transform="matrix(0.33698045,0,0,0.33698045,-45.302251,-253.55307)"
         clip-rule="evenodd"
         id="path53" />
    </clipPath>
    <clipPath
       clipPathUnits="userSpaceOnUse"
       id="clipPath54">
      <path
         d="m 3.125,0 h 962.5 V 912.01172 H 3.125 Z"
         transform="matrix(0.33698045,0,0,0.33698045,-4.6147514,-270.55308)"
         clip-rule="evenodd"
         id="path54" />
    </clipPath>
    <clipPath
       clipPathUnits="userSpaceOnUse"
       id="clipPath55">
      <path
         d="m 3.125,0 h 962.5 V 912.01172 H 3.125 Z"
         transform="matrix(0.33698045,0,0,0.33698045,-49.317882,-270.55308)"
         clip-rule="evenodd"
         id="path55" />
    </clipPath>
    <clipPath
       clipPathUnits="userSpaceOnUse"
       id="clipPath56">
      <path
         d="m 3.125,0 h 962.5 V 912.01172 H 3.125 Z"
         transform="matrix(0.33698045,0,0,0.33698045,-4.6147514,-287.55308)"
         clip-rule="evenodd"
         id="path56" />
    </clipPath>
  </defs>
  <g
     id="g1">
    <path
       id="path1"
       d="M 0,0 H 310 V 292 H 0 Z"
       style="fill:#ffffff;fill-opacity:1;fill-rule:nonzero;stroke:none"
       clip-path="url(#clipPath2)" />
    <path
       id="path3"
       d="m 122,708 h 320 v 302 H 122 Z"
       style="fill:#ffffff;fill-opacity:1;fill-rule:nonzero;stroke:#000000;stroke-width:1;stroke-linecap:butt;stroke-linejoin:miter;stroke-miterlimit:10;stroke-dasharray:none;stroke-opacity:1"
       transform="matrix(0.94960994,0,0,0.94960994,-112.89461,-670.37428)"
       clip-path="url(#clipPath4)" />
    <text
       id="text4"
       xml:space="preserve"
       transform="matrix(0.94960994,0,0,0.94960994,117.75674,18.567792)"
       clip-path="url(#clipPath5)"><tspan
         id="tspan4"
         style="font-style:italic;font-variant:normal;font-weight:normal;font-size:12px;font-family:Arial;writing-mode:lr-tb;fill:#000000;fill-opacity:1;fill-rule:nonzero;stroke:none"
         x="0"
         y="0">constraints</tspan></text>
    <text
       id="text5"
       xml:space="preserve"
       transform="matrix(0.94960994,0,0,0.94960994,4.3822138,32.811941)"
       clip-path="url(#clipPath6)"><tspan
         id="tspan5"
         style="font-variant:normal;font-weight:700;font-size:12px;font-family:Arial;writing-mode:lr-tb;fill:#000000;fill-opacity:1;fill-rule:nonzero;stroke:none"
         x="0"
         y="0">^</tspan></text>
    <text
       id="text6"
       xml:space="preserve"
       transform="matrix(0.94960994,0,0,0.94960994,11.044321,32.811941)"
       clip-path="url(#clipPath7)"><tspan
         id="tspan6"
         style="font-variant:normal;font-weight:normal;font-size:12px;font-family:Arial;writing-mode:lr-tb;fill:#000000;fill-opacity:1;fill-rule:nonzero;stroke:none"
         x="0"
         y="0">constraint2 : ConstraintDef2</tspan></text>
    <text
       id="text7"
       xml:space="preserve"
       transform="matrix(0.94960994,0,0,0.94960994,4.3822138,48.95531)"
       clip-path="url(#clipPath8)"><tspan
         id="tspan7"
         style="font-variant:normal;font-weight:normal;font-size:12px;font-family:Arial;writing-mode:lr-tb;fill:#000000;fill-opacity:1;fill-rule:nonzero;stroke:none"
         x="0"
         y="0">constraint1 : ConstraintDef1 </tspan></text>
    <text
       id="text8"
       xml:space="preserve"
       transform="matrix(0.94960994,0,0,0.94960994,148.79712,48.95531)"
       clip-path="url(#clipPath9)"><tspan
         id="tspan8"
         style="font-variant:normal;font-weight:700;font-size:12px;font-family:Arial;writing-mode:lr-tb;fill:#000000;fill-opacity:1;fill-rule:nonzero;stroke:none"
         x="0"
         y="0">[</tspan></text>
    <text
       id="text9"
       xml:space="preserve"
       transform="matrix(0.94960994,0,0,0.94960994,152.59556,48.95531)"
       clip-path="url(#clipPath10)"><tspan
         id="tspan9"
         style="font-variant:normal;font-weight:normal;font-size:12px;font-family:Arial;writing-mode:lr-tb;fill:#000000;fill-opacity:1;fill-rule:nonzero;stroke:none"
         x="0"
         y="0">1..*</tspan></text>
    <text
       id="text10"
       xml:space="preserve"
       transform="matrix(0.94960994,0,0,0.94960994,169.70337,48.95531)"
       clip-path="url(#clipPath11)"><tspan
         id="tspan10"
         style="font-variant:normal;font-weight:700;font-size:12px;font-family:Arial;writing-mode:lr-tb;fill:#000000;fill-opacity:1;fill-rule:nonzero;stroke:none"
         x="0"
         y="0">]</tspan></text>
    <text
       id="text11"
       xml:space="preserve"
       transform="matrix(0.94960994,0,0,0.94960994,173.50181,48.95531)"
       clip-path="url(#clipPath12)"><tspan
         id="tspan11"
         style="font-variant:normal;font-weight:normal;font-size:12px;font-family:Arial;writing-mode:lr-tb;fill:#000000;fill-opacity:1;fill-rule:nonzero;stroke:none"
         x="0"
         y="0"> </tspan></text>
    <text
       id="text12"
       xml:space="preserve"
       transform="matrix(0.94960994,0,0,0.94960994,176.67707,48.95531)"
       clip-path="url(#clipPath13)"><tspan
         id="tspan12"
         style="font-variant:normal;font-weight:700;font-size:12px;font-family:Arial;writing-mode:lr-tb;fill:#000000;fill-opacity:1;fill-rule:nonzero;stroke:none"
         x="0"
         y="0">ordered nonunique</tspan></text>
    <g
       id="g13" />
    <text
       id="text13"
       xml:space="preserve"
       transform="matrix(0.94960994,0,0,0.94960994,4.3822138,65.098679)"
       clip-path="url(#clipPath14)"><tspan
         id="tspan13"
         style="font-variant:normal;font-weight:normal;font-size:12px;font-family:Arial;writing-mode:lr-tb;fill:#000000;fill-opacity:1;fill-rule:nonzero;stroke:none"
         x="0"
         y="0">constraint3R : ConstraintDef3R </tspan></text>
    <text
       id="text14"
       xml:space="preserve"
       transform="matrix(0.94960994,0,0,0.94960994,165.25207,65.098679)"
       clip-path="url(#clipPath15)"><tspan
         id="tspan14"
         style="font-variant:normal;font-weight:700;font-size:12px;font-family:Arial;writing-mode:lr-tb;fill:#000000;fill-opacity:1;fill-rule:nonzero;stroke:none"
         x="0"
         y="0">redefines</tspan></text>
    <text
       id="text15"
       xml:space="preserve"
       transform="matrix(0.94960994,0,0,0.94960994,215.92267,65.098679)"
       clip-path="url(#clipPath16)"><tspan
         id="tspan15"
         style="font-variant:normal;font-weight:normal;font-size:12px;font-family:Arial;writing-mode:lr-tb;fill:#000000;fill-opacity:1;fill-rule:nonzero;stroke:none"
         x="0"
         y="0"> constraint3</tspan></text>
    <text
       id="text16"
       xml:space="preserve"
       transform="matrix(0.94960994,0,0,0.94960994,4.3822138,81.242048)"
       clip-path="url(#clipPath17)"><tspan
         id="tspan16"
         style="font-variant:normal;font-weight:normal;font-size:12px;font-family:Arial;writing-mode:lr-tb;fill:#000000;fill-opacity:1;fill-rule:nonzero;stroke:none"
         x="0"
         y="0">constraint4R : ConstraintDef4R </tspan></text>
    <text
       id="text17"
       xml:space="preserve"
       transform="matrix(0.94960994,0,0,0.94960994,165.25207,81.242048)"
       clip-path="url(#clipPath18)"><tspan
         id="tspan17"
         style="font-variant:normal;font-weight:700;font-size:12px;font-family:Arial;writing-mode:lr-tb;fill:#000000;fill-opacity:1;fill-rule:nonzero;stroke:none"
         x="0"
         y="0">:&gt;&gt;</tspan></text>
    <text
       id="text18"
       xml:space="preserve"
       transform="matrix(0.94960994,0,0,0.94960994,182.35989,81.242048)"
       clip-path="url(#clipPath19)"><tspan
         id="tspan18"
         style="font-variant:normal;font-weight:normal;font-size:12px;font-family:Arial;writing-mode:lr-tb;fill:#000000;fill-opacity:1;fill-rule:nonzero;stroke:none"
         x="0"
         y="0"> constraint4</tspan></text>
    <text
       id="text19"
       xml:space="preserve"
       transform="matrix(0.94960994,0,0,0.94960994,4.3822138,97.385417)"
       clip-path="url(#clipPath20)"><tspan
         id="tspan19"
         style="font-variant:normal;font-weight:700;font-size:12px;font-family:Arial;writing-mode:lr-tb;fill:#000000;fill-opacity:1;fill-rule:nonzero;stroke:none"
         x="0"
         y="0">:&gt;&gt;</tspan></text>
    <text
       id="text20"
       xml:space="preserve"
       transform="matrix(0.94960994,0,0,0.94960994,21.49003,97.385417)"
       clip-path="url(#clipPath21)"><tspan
         id="tspan20"
         style="font-variant:normal;font-weight:normal;font-size:12px;font-family:Arial;writing-mode:lr-tb;fill:#000000;fill-opacity:1;fill-rule:nonzero;stroke:none"
         x="0"
         y="0"> constraint5</tspan></text>
    <text
       id="text21"
       xml:space="preserve"
       transform="matrix(0.94960994,0,0,0.94960994,4.3822138,112.57918)"
       clip-path="url(#clipPath22)"><tspan
         id="tspan21"
         style="font-variant:normal;font-weight:normal;font-size:12px;font-family:Arial;writing-mode:lr-tb;fill:#000000;fill-opacity:1;fill-rule:nonzero;stroke:none"
         x="0"
         y="0">constraint6S : ConstraintDef6S </tspan></text>
    <text
       id="text22"
       xml:space="preserve"
       transform="matrix(0.94960994,0,0,0.94960994,164.00571,112.57918)"
       clip-path="url(#clipPath23)"><tspan
         id="tspan22"
         style="font-variant:normal;font-weight:700;font-size:12px;font-family:Arial;writing-mode:lr-tb;fill:#000000;fill-opacity:1;fill-rule:nonzero;stroke:none"
         x="0"
         y="0">[</tspan></text>
    <text
       id="text23"
       xml:space="preserve"
       transform="matrix(0.94960994,0,0,0.94960994,167.80415,112.57918)"
       clip-path="url(#clipPath24)"><tspan
         id="tspan23"
         style="font-variant:normal;font-weight:normal;font-size:12px;font-family:Arial;writing-mode:lr-tb;fill:#000000;fill-opacity:1;fill-rule:nonzero;stroke:none"
         x="0"
         y="0">m</tspan></text>
    <text
       id="text24"
       xml:space="preserve"
       transform="matrix(0.94960994,0,0,0.94960994,177.30025,112.57918)"
       clip-path="url(#clipPath25)"><tspan
         id="tspan24"
         style="font-variant:normal;font-weight:700;font-size:12px;font-family:Arial;writing-mode:lr-tb;fill:#000000;fill-opacity:1;fill-rule:nonzero;stroke:none"
         x="0"
         y="0">]</tspan></text>
    <g
       id="g25" />
    <text
       id="text25"
       xml:space="preserve"
       transform="matrix(0.94960994,0,0,0.94960994,181.09869,112.57918)"
       clip-path="url(#clipPath26)"><tspan
         id="tspan25"
         style="font-variant:normal;font-weight:normal;font-size:12px;font-family:Arial;writing-mode:lr-tb;fill:#000000;fill-opacity:1;fill-rule:nonzero;stroke:none"
         x="0"
         y="0"> </tspan></text>
    <g
       id="g26" />
    <text
       id="text26"
       xml:space="preserve"
       transform="matrix(0.94960994,0,0,0.94960994,184.27395,112.57918)"
       clip-path="url(#clipPath27)"><tspan
         id="tspan26"
         style="font-variant:normal;font-weight:700;font-size:12px;font-family:Arial;writing-mode:lr-tb;fill:#000000;fill-opacity:1;fill-rule:nonzero;stroke:none"
         x="0"
         y="0">subsets </tspan></text>
    <text
       id="text27"
       xml:space="preserve"
       transform="matrix(0.94960994,0,0,0.94960994,230.50808,112.57918)"
       clip-path="url(#clipPath28)"><tspan
         id="tspan27"
         style="font-variant:normal;font-weight:normal;font-size:12px;font-family:Arial;writing-mode:lr-tb;fill:#000000;fill-opacity:1;fill-rule:nonzero;stroke:none"
         x="0"
         y="0">constraint6</tspan></text>
    <text
       id="text28"
       xml:space="preserve"
       transform="matrix(0.94960994,0,0,0.94960994,4.3822138,128.72255)"
       clip-path="url(#clipPath29)"><tspan
         id="tspan28"
         style="font-variant:normal;font-weight:normal;font-size:12px;font-family:Arial;writing-mode:lr-tb;fill:#000000;fill-opacity:1;fill-rule:nonzero;stroke:none"
         x="0"
         y="0">constraint7S : ConstraintDef7S </tspan></text>
    <text
       id="text29"
       xml:space="preserve"
       transform="matrix(0.94960994,0,0,0.94960994,164.00571,128.72255)"
       clip-path="url(#clipPath30)"><tspan
         id="tspan29"
         style="font-variant:normal;font-weight:700;font-size:12px;font-family:Arial;writing-mode:lr-tb;fill:#000000;fill-opacity:1;fill-rule:nonzero;stroke:none"
         x="0"
         y="0">[</tspan></text>
    <text
       id="text30"
       xml:space="preserve"
       transform="matrix(0.94960994,0,0,0.94960994,167.80415,128.72255)"
       clip-path="url(#clipPath31)"><tspan
         id="tspan30"
         style="font-variant:normal;font-weight:normal;font-size:12px;font-family:Arial;writing-mode:lr-tb;fill:#000000;fill-opacity:1;fill-rule:nonzero;stroke:none"
         x="0"
         y="0">m</tspan></text>
    <text
       id="text31"
       xml:space="preserve"
       transform="matrix(0.94960994,0,0,0.94960994,177.30025,128.72255)"
       clip-path="url(#clipPath32)"><tspan
         id="tspan31"
         style="font-variant:normal;font-weight:700;font-size:12px;font-family:Arial;writing-mode:lr-tb;fill:#000000;fill-opacity:1;fill-rule:nonzero;stroke:none"
         x="0"
         y="0">]</tspan></text>
    <text
       id="text32"
       xml:space="preserve"
       transform="matrix(0.94960994,0,0,0.94960994,181.09869,128.72255)"
       clip-path="url(#clipPath33)"><tspan
         id="tspan32"
         style="font-variant:normal;font-weight:normal;font-size:12px;font-family:Arial;writing-mode:lr-tb;fill:#000000;fill-opacity:1;fill-rule:nonzero;stroke:none"
         x="0"
         y="0"> </tspan></text>
    <text
       id="text33"
       xml:space="preserve"
       transform="matrix(0.94960994,0,0,0.94960994,184.27395,128.72255)"
       clip-path="url(#clipPath34)"><tspan
         id="tspan33"
         style="font-variant:normal;font-weight:700;font-size:12px;font-family:Arial;writing-mode:lr-tb;fill:#000000;fill-opacity:1;fill-rule:nonzero;stroke:none"
         x="0"
         y="0">:&gt;</tspan></text>
    <text
       id="text34"
       xml:space="preserve"
       transform="matrix(0.94960994,0,0,0.94960994,194.7345,128.72255)"
       clip-path="url(#clipPath35)"><tspan
         id="tspan34"
         style="font-variant:normal;font-weight:normal;font-size:12px;font-family:Arial;writing-mode:lr-tb;fill:#000000;fill-opacity:1;fill-rule:nonzero;stroke:none"
         x="0"
         y="0"> constraint7</tspan></text>
    <g
       id="g35" />
    <text
       id="text35"
       xml:space="preserve"
       transform="matrix(0.94960994,0,0,0.94960994,4.3822138,144.86591)"
       clip-path="url(#clipPath36)"><tspan
         id="tspan35"
         style="font-variant:normal;font-weight:normal;font-size:12px;font-family:Arial;writing-mode:lr-tb;fill:#000000;fill-opacity:1;fill-rule:nonzero;stroke:none"
         x="0"
         y="0">constraint8R  </tspan></text>
    <text
       id="text36"
       xml:space="preserve"
       transform="matrix(0.94960994,0,0,0.94960994,74.697867,144.86591)"
       clip-path="url(#clipPath37)"><tspan
         id="tspan36"
         style="font-variant:normal;font-weight:700;font-size:12px;font-family:Arial;writing-mode:lr-tb;fill:#000000;fill-opacity:1;fill-rule:nonzero;stroke:none"
         x="0"
         y="0">=</tspan></text>
    <text
       id="text37"
       xml:space="preserve"
       transform="matrix(0.94960994,0,0,0.94960994,81.35997,144.86591)"
       clip-path="url(#clipPath38)"><tspan
         id="tspan37"
         style="font-variant:normal;font-weight:normal;font-size:12px;font-family:Arial;writing-mode:lr-tb;fill:#000000;fill-opacity:1;fill-rule:nonzero;stroke:none"
         x="0"
         y="0"> constraint8</tspan></text>
    <text
       id="text38"
       xml:space="preserve"
       transform="matrix(0.94960994,0,0,0.94960994,4.3822138,161.00928)"
       clip-path="url(#clipPath39)"><tspan
         id="tspan38"
         style="font-variant:normal;font-weight:700;font-size:12px;font-family:Arial;writing-mode:lr-tb;fill:#000000;fill-opacity:1;fill-rule:nonzero;stroke:none"
         x="0"
         y="0">ref</tspan></text>
    <g
       id="g39" />
    <text
       id="text39"
       xml:space="preserve"
       transform="matrix(0.94960994,0,0,0.94960994,18.952791,161.00928)"
       clip-path="url(#clipPath40)"><tspan
         id="tspan39"
         style="font-variant:normal;font-weight:normal;font-size:12px;font-family:Arial;writing-mode:lr-tb;fill:#000000;fill-opacity:1;fill-rule:nonzero;stroke:none"
         x="0"
         y="0"> constraint9 : ConstraintDef9</tspan></text>
    <text
       id="text40"
       xml:space="preserve"
       transform="matrix(0.94960994,0,0,0.94960994,4.3822138,177.15265)"
       clip-path="url(#clipPath41)"><tspan
         id="tspan40"
         style="font-variant:normal;font-weight:700;font-size:12px;font-family:Arial;writing-mode:lr-tb;fill:#000000;fill-opacity:1;fill-rule:nonzero;stroke:none"
         x="0"
         y="0">assert</tspan></text>
    <text
       id="text41"
       xml:space="preserve"
       transform="matrix(0.94960994,0,0,0.94960994,37.974666,177.15265)"
       clip-path="url(#clipPath42)"><tspan
         id="tspan41"
         style="font-variant:normal;font-weight:normal;font-size:12px;font-family:Arial;writing-mode:lr-tb;fill:#000000;fill-opacity:1;fill-rule:nonzero;stroke:none"
         x="0"
         y="0"> constraint10</tspan></text>
    <text
       id="text42"
       xml:space="preserve"
       transform="matrix(0.94960994,0,0,0.94960994,4.3822138,192.34641)"
       clip-path="url(#clipPath43)"><tspan
         id="tspan42"
         style="font-variant:normal;font-weight:700;font-size:12px;font-family:Arial;writing-mode:lr-tb;fill:#000000;fill-opacity:1;fill-rule:nonzero;stroke:none"
         x="0"
         y="0">assert</tspan></text>
    <text
       id="text43"
       xml:space="preserve"
       transform="matrix(0.94960994,0,0,0.94960994,37.974666,192.34641)"
       clip-path="url(#clipPath44)"><tspan
         id="tspan43"
         style="font-variant:normal;font-weight:normal;font-size:12px;font-family:Arial;writing-mode:lr-tb;fill:#000000;fill-opacity:1;fill-rule:nonzero;stroke:none"
         x="0"
         y="0"> </tspan></text>
    <text
       id="text44"
       xml:space="preserve"
       transform="matrix(0.94960994,0,0,0.94960994,41.149924,192.34641)"
       clip-path="url(#clipPath45)"><tspan
         id="tspan44"
         style="font-variant:normal;font-weight:700;font-size:12px;font-family:Arial;writing-mode:lr-tb;fill:#000000;fill-opacity:1;fill-rule:nonzero;stroke:none"
         x="0"
         y="0">{</tspan></text>
    <text
       id="text45"
       xml:space="preserve"
       transform="matrix(0.94960994,0,0,0.94960994,45.586383,192.34641)"
       clip-path="url(#clipPath46)"><tspan
         id="tspan45"
         style="font-variant:normal;font-weight:normal;font-size:12px;font-family:Arial;writing-mode:lr-tb;fill:#000000;fill-opacity:1;fill-rule:nonzero;stroke:none"
         x="0"
         y="0">boolean_expression1</tspan></text>
    <text
       id="text46"
       xml:space="preserve"
       transform="matrix(0.94960994,0,0,0.94960994,153.93095,192.34641)"
       clip-path="url(#clipPath47)"><tspan
         id="tspan46"
         style="font-variant:normal;font-weight:700;font-size:12px;font-family:Arial;writing-mode:lr-tb;fill:#000000;fill-opacity:1;fill-rule:nonzero;stroke:none"
         x="0"
         y="0">}</tspan></text>
    <text
       id="text47"
       xml:space="preserve"
       transform="matrix(0.94960994,0,0,0.94960994,4.3822138,208.48978)"
       clip-path="url(#clipPath48)"><tspan
         id="tspan47"
         style="font-variant:normal;font-weight:700;font-size:12px;font-family:Arial;writing-mode:lr-tb;fill:#000000;fill-opacity:1;fill-rule:nonzero;stroke:none"
         x="0"
         y="0">{</tspan></text>
    <text
       id="text48"
       xml:space="preserve"
       transform="matrix(0.94960994,0,0,0.94960994,8.8186728,208.48978)"
       clip-path="url(#clipPath49)"><tspan
         id="tspan48"
         style="font-variant:normal;font-weight:normal;font-size:12px;font-family:Arial;writing-mode:lr-tb;fill:#000000;fill-opacity:1;fill-rule:nonzero;stroke:none"
         x="0"
         y="0">boolean_expression1</tspan></text>
    <text
       id="text49"
       xml:space="preserve"
       transform="matrix(0.94960994,0,0,0.94960994,117.16324,208.48978)"
       clip-path="url(#clipPath50)"><tspan
         id="tspan49"
         style="font-variant:normal;font-weight:700;font-size:12px;font-family:Arial;writing-mode:lr-tb;fill:#000000;fill-opacity:1;fill-rule:nonzero;stroke:none"
         x="0"
         y="0">}</tspan></text>
    <text
       id="text50"
       xml:space="preserve"
       transform="matrix(0.94960994,0,0,0.94960994,4.3822138,224.63315)"
       clip-path="url(#clipPath51)"><tspan
         id="tspan50"
         style="font-variant:normal;font-weight:normal;font-size:12px;font-family:Arial;writing-mode:lr-tb;fill:#000000;fill-opacity:1;fill-rule:nonzero;stroke:none"
         x="0"
         dx="0 0 0 0 0 0 0 0 0 0 0 -0.89062446"
         y="0">constraint11</tspan></text>
    <text
       id="text51"
       xml:space="preserve"
       transform="matrix(0.94960994,0,0,0.94960994,4.3822138,240.77652)"
       clip-path="url(#clipPath52)"><tspan
         id="tspan51"
         style="font-variant:normal;font-weight:700;font-size:12px;font-family:Arial;writing-mode:lr-tb;fill:#000000;fill-opacity:1;fill-rule:nonzero;stroke:none"
         x="0"
         y="0">require</tspan></text>
    <text
       id="text52"
       xml:space="preserve"
       transform="matrix(0.94960994,0,0,0.94960994,43.019468,240.77652)"
       clip-path="url(#clipPath53)"><tspan
         id="tspan52"
         style="font-variant:normal;font-weight:normal;font-size:12px;font-family:Arial;writing-mode:lr-tb;fill:#000000;fill-opacity:1;fill-rule:nonzero;stroke:none"
         x="0"
         y="0"> constraint12</tspan></text>
    <text
       id="text53"
       xml:space="preserve"
       transform="matrix(0.94960994,0,0,0.94960994,4.3822138,256.91989)"
       clip-path="url(#clipPath54)"><tspan
         id="tspan53"
         style="font-variant:normal;font-weight:700;font-size:12px;font-family:Arial;writing-mode:lr-tb;fill:#000000;fill-opacity:1;fill-rule:nonzero;stroke:none"
         x="0"
         y="0">assume</tspan></text>
    <text
       id="text54"
       xml:space="preserve"
       transform="matrix(0.94960994,0,0,0.94960994,46.832751,256.91989)"
       clip-path="url(#clipPath55)"><tspan
         id="tspan54"
         style="font-variant:normal;font-weight:normal;font-size:12px;font-family:Arial;writing-mode:lr-tb;fill:#000000;fill-opacity:1;fill-rule:nonzero;stroke:none"
         x="0"
         y="0"> constraint13</tspan></text>
    <text
       id="text55"
       xml:space="preserve"
       transform="matrix(0.94960994,0,0,0.94960994,4.3822138,273.06326)"
       clip-path="url(#clipPath56)"><tspan
         id="tspan55"
         style="font-variant:normal;font-weight:700;font-size:14px;font-family:Arial;writing-mode:lr-tb;fill:#000000;fill-opacity:1;fill-rule:nonzero;stroke:none"
         x="0"
         y="0">...</tspan></text>
  </g>
</svg>
