<?xml version="1.0" encoding="UTF-8" standalone="no"?>
<!-- Created with Inkscape (http://www.inkscape.org/) -->

<svg
   version="1.1"
   id="svg1"
   width="224"
   height="89.279999"
   viewBox="0 0 224 89.279999"
   xmlns="http://www.w3.org/2000/svg"
   xmlns:svg="http://www.w3.org/2000/svg">
  <defs
     id="defs1">
    <clipPath
       clipPathUnits="userSpaceOnUse"
       id="clipPath2">
      <path
         d="M 0,0 H 699.02344 V 279.00391 H 0 Z"
         transform="scale(0.31999999)"
         clip-rule="evenodd"
         id="path2" />
    </clipPath>
    <clipPath
       clipPathUnits="userSpaceOnUse"
       id="clipPath4">
      <path
         d="m 3.125,0 h 693.75 V 278.125 H 3.125 Z"
         transform="matrix(0.33840659,0,0,0.33840659,534.38209,3637.9426)"
         clip-rule="evenodd"
         id="path4" />
    </clipPath>
    <clipPath
       clipPathUnits="userSpaceOnUse"
       id="clipPath6">
      <path
         d="m 3.125,0 h 693.75 V 278.125 H 3.125 Z"
         transform="matrix(0.33840659,0,0,0.33840659,534.38209,3637.9426)"
         clip-rule="evenodd"
         id="path6" />
    </clipPath>
    <clipPath
       clipPathUnits="userSpaceOnUse"
       id="clipPath8">
      <path
         d="m 3.125,0 h 693.75 V 278.125 H 3.125 Z"
         transform="matrix(0.33840659,0,0,0.33840659,534.38209,3637.9426)"
         clip-rule="evenodd"
         id="path8" />
    </clipPath>
    <clipPath
       clipPathUnits="userSpaceOnUse"
       id="clipPath9">
      <path
         d="m 3.125,0 h 693.75 V 278.125 H 3.125 Z"
         transform="matrix(0.33840659,0,0,0.33840659,-75.039778,-23.557424)"
         clip-rule="evenodd"
         id="path9" />
    </clipPath>
    <clipPath
       clipPathUnits="userSpaceOnUse"
       id="clipPath10">
      <path
         d="m 3.125,0 h 693.75 V 278.125 H 3.125 Z"
         transform="matrix(0.33840659,0,0,0.33840659,-19.461649,-42.557425)"
         clip-rule="evenodd"
         id="path10" />
    </clipPath>
    <clipPath
       clipPathUnits="userSpaceOnUse"
       id="clipPath11">
      <path
         d="m 198.33508,161.21875 h 301.41248 v 44.32519 H 198.33508 Z"
         transform="matrix(0.33840659,0,0,0.33840659,-67.430399,-65.557424)"
         clip-rule="evenodd"
         id="path11" />
    </clipPath>
    <clipPath
       clipPathUnits="userSpaceOnUse"
       id="clipPath12">
      <path
         d="m 26.943604,220.31934 h 38.415283 v 44.3252 H 26.943604 Z"
         transform="matrix(0.33840659,0,0,0.33840659,-9.1178982,-85.557425)"
         clip-rule="evenodd"
         id="path12" />
    </clipPath>
  </defs>
  <g
     id="g1">
    <path
       id="path1"
       d="M 0,0 H 224 V 89 H 0 Z"
       style="fill:#ffffff;fill-opacity:1;fill-rule:nonzero;stroke:none"
       clip-path="url(#clipPath2)" />
    <path
       id="path3"
       d="m 767.5,3690 v -42.5 c 0,-5 -2.5,-7.5 -7.5,-7.5 H 545 c -5,0 -7.5,2.5 -7.5,7.5 v 42.5"
       style="fill:none;stroke:#000000;stroke-width:1;stroke-linecap:butt;stroke-linejoin:miter;stroke-miterlimit:10;stroke-dasharray:none;stroke-opacity:1"
       transform="matrix(0.94560802,0,0,0.94560802,-505.31599,-3440.0677)"
       clip-path="url(#clipPath4)" />
    <path
       id="path5"
       d="m 537.5,3690 v 32.5 c 0,5 2.5,7.5 7.5,7.5 h 215 c 5,0 7.5,-2.5 7.5,-7.5 V 3690"
       style="fill:none;stroke:#000000;stroke-width:1;stroke-linecap:butt;stroke-linejoin:miter;stroke-miterlimit:10;stroke-dasharray:none;stroke-opacity:1"
       transform="matrix(0.94560802,0,0,0.94560802,-505.31599,-3440.0677)"
       clip-path="url(#clipPath6)" />
    <path
       id="path7"
       d="m 537.5,3690 h 230"
       style="fill:none;stroke:#000000;stroke-width:1;stroke-linecap:butt;stroke-linejoin:miter;stroke-miterlimit:10;stroke-dasharray:none;stroke-opacity:1"
       transform="matrix(0.94560802,0,0,0.94560802,-505.31599,-3440.0677)"
       clip-path="url(#clipPath8)" />
    <text
       id="text8"
       xml:space="preserve"
       transform="matrix(0.94560802,0,0,0.94560802,70.958216,22.276089)"
       clip-path="url(#clipPath9)"><tspan
         id="tspan8"
         style="font-variant:normal;font-weight:normal;font-size:16px;font-family:Arial;writing-mode:lr-tb;fill:#000000;fill-opacity:1;fill-rule:nonzero;stroke:none"
         x="0"
         y="0">«constraint»</tspan></text>
    <text
       id="text9"
       xml:space="preserve"
       transform="matrix(0.94560802,0,0,0.94560802,18.403091,40.242642)"
       clip-path="url(#clipPath10)"><tspan
         id="tspan9"
         style="font-variant:normal;font-weight:normal;font-size:16px;font-family:Arial;writing-mode:lr-tb;fill:#000000;fill-opacity:1;fill-rule:nonzero;stroke:none"
         x="0"
         y="0">constraint1 : ConstraintDef1</tspan></text>
    <text
       id="text10"
       xml:space="preserve"
       transform="matrix(0.94560802,0,0,0.94560802,63.762726,61.991626)"
       clip-path="url(#clipPath11)"><tspan
         id="tspan10"
         style="font-style:italic;font-variant:normal;font-weight:normal;font-size:12px;font-family:Arial;writing-mode:lr-tb;fill:#000000;fill-opacity:1;fill-rule:nonzero;stroke:none"
         x="0"
         y="0">compartment stack</tspan></text>
    <text
       id="text11"
       xml:space="preserve"
       transform="matrix(0.94560802,0,0,0.94560802,8.6219577,80.903787)"
       clip-path="url(#clipPath12)"><tspan
         id="tspan11"
         style="font-variant:normal;font-weight:normal;font-size:12px;font-family:Arial;writing-mode:lr-tb;fill:#000000;fill-opacity:1;fill-rule:nonzero;stroke:none"
         x="0"
         y="0">•••</tspan></text>
  </g>
</svg>
