<?xml version="1.0" encoding="UTF-8" standalone="no"?>
<!-- Created with Inkscape (http://www.inkscape.org/) -->

<svg
   version="1.1"
   id="svg1"
   width="232"
   height="166.72"
   viewBox="0 0 232 166.72"
   xmlns="http://www.w3.org/2000/svg"
   xmlns:svg="http://www.w3.org/2000/svg">
  <defs
     id="defs1">
    <clipPath
       clipPathUnits="userSpaceOnUse"
       id="clipPath2">
      <path
         d="M 0,0 H 725.97656 V 518.99414 H 0 Z"
         transform="scale(0.31999999)"
         clip-rule="evenodd"
         id="path2" />
    </clipPath>
    <clipPath
       clipPathUnits="userSpaceOnUse"
       id="clipPath4">
      <path
         d="m 3.125,3.125 h 718.75 V 518.75 H 3.125 Z"
         transform="matrix(0.33963188,0,0,0.33963188,1069.8681,4916.3772)"
         clip-rule="evenodd"
         id="path4" />
    </clipPath>
    <clipPath
       clipPathUnits="userSpaceOnUse"
       id="clipPath5">
      <path
         d="m 3.125,3.125 h 718.75 V 518.75 H 3.125 Z"
         transform="matrix(0.33963188,0,0,0.33963188,-71.553821,-18.123002)"
         clip-rule="evenodd"
         id="path5" />
    </clipPath>
    <clipPath
       clipPathUnits="userSpaceOnUse"
       id="clipPath6">
      <path
         d="m 3.125,3.125 h 718.75 V 518.75 H 3.125 Z"
         transform="matrix(0.33963188,0,0,0.33963188,-75.991321,-37.123002)"
         clip-rule="evenodd"
         id="path6" />
    </clipPath>
    <clipPath
       clipPathUnits="userSpaceOnUse"
       id="clipPath8">
      <path
         d="m 3.125,3.125 h 718.75 V 518.75 H 3.125 Z"
         transform="matrix(0.33963188,0,0,0.33963188,1069.8681,4916.3772)"
         clip-rule="evenodd"
         id="path8" />
    </clipPath>
    <clipPath
       clipPathUnits="userSpaceOnUse"
       id="clipPath9">
      <path
         d="m 3.125,3.125 h 718.75 V 518.75 H 3.125 Z"
         transform="matrix(0.33963188,0,0,0.33963188,-19.538191,-92.123002)"
         clip-rule="evenodd"
         id="path9" />
    </clipPath>
    <clipPath
       clipPathUnits="userSpaceOnUse"
       id="clipPath10">
      <path
         d="m 3.125,3.125 h 718.75 V 518.75 H 3.125 Z"
         transform="matrix(0.33963188,0,0,0.33963188,-17.772571,-111.123)"
         clip-rule="evenodd"
         id="path10" />
    </clipPath>
    <clipPath
       clipPathUnits="userSpaceOnUse"
       id="clipPath12">
      <path
         d="m 3.125,3.125 h 718.75 V 518.75 H 3.125 Z"
         transform="matrix(0.33963188,0,0,0.33963188,1069.8681,4916.3772)"
         clip-rule="evenodd"
         id="path12" />
    </clipPath>
    <clipPath
       clipPathUnits="userSpaceOnUse"
       id="clipPath14">
      <path
         d="m 3.125,3.125 h 718.75 V 518.75 H 3.125 Z"
         transform="matrix(0.33963188,0,0,0.33963188,1069.8681,4916.3772)"
         clip-rule="evenodd"
         id="path14" />
    </clipPath>
    <clipPath
       clipPathUnits="userSpaceOnUse"
       id="clipPath16">
      <path
         d="m 3.125,3.125 h 718.75 V 518.75 H 3.125 Z"
         transform="matrix(0.33963188,0,0,0.33963188,1070.3681,4916.877)"
         clip-rule="evenodd"
         id="path16" />
    </clipPath>
    <clipPath
       clipPathUnits="userSpaceOnUse"
       id="clipPath17">
      <path
         d="m 3.125,3.125 h 718.75 V 518.75 H 3.125 Z"
         transform="matrix(0.33963188,0,0,0.33963188,-64.631941,-64.123002)"
         clip-rule="evenodd"
         id="path17" />
    </clipPath>
    <clipPath
       clipPathUnits="userSpaceOnUse"
       id="clipPath19">
      <path
         d="m 3.125,3.125 h 718.75 V 518.75 H 3.125 Z"
         transform="matrix(0.33963188,0,0,0.33963188,1069.8681,4916.3772)"
         clip-rule="evenodd"
         id="path19" />
    </clipPath>
    <clipPath
       clipPathUnits="userSpaceOnUse"
       id="clipPath20">
      <path
         d="m 3.125,3.125 h 718.75 V 518.75 H 3.125 Z"
         transform="matrix(0.33963188,0,0,0.33963188,-139.55382,-92.123002)"
         clip-rule="evenodd"
         id="path20" />
    </clipPath>
    <clipPath
       clipPathUnits="userSpaceOnUse"
       id="clipPath21">
      <path
         d="m 3.125,3.125 h 718.75 V 518.75 H 3.125 Z"
         transform="matrix(0.33963188,0,0,0.33963188,-144.00694,-111.123)"
         clip-rule="evenodd"
         id="path21" />
    </clipPath>
    <clipPath
       clipPathUnits="userSpaceOnUse"
       id="clipPath23">
      <path
         d="m 3.125,3.125 h 718.75 V 518.75 H 3.125 Z"
         transform="matrix(0.33963188,0,0,0.33963188,1069.8681,4916.3772)"
         clip-rule="evenodd"
         id="path23" />
    </clipPath>
    <clipPath
       clipPathUnits="userSpaceOnUse"
       id="clipPath25">
      <path
         d="m 3.125,3.125 h 718.75 V 518.75 H 3.125 Z"
         transform="matrix(0.33963188,0,0,0.33963188,1069.8681,4916.3772)"
         clip-rule="evenodd"
         id="path25" />
    </clipPath>
    <clipPath
       clipPathUnits="userSpaceOnUse"
       id="clipPath27">
      <path
         d="m 3.125,3.125 h 718.75 V 518.75 H 3.125 Z"
         transform="matrix(0.33963188,0,0,0.33963188,1070.3681,4916.877)"
         clip-rule="evenodd"
         id="path27" />
    </clipPath>
    <clipPath
       clipPathUnits="userSpaceOnUse"
       id="clipPath28">
      <path
         d="m 3.125,3.125 h 718.75 V 518.75 H 3.125 Z"
         transform="matrix(0.33963188,0,0,0.33963188,-184.63195,-64.123002)"
         clip-rule="evenodd"
         id="path28" />
    </clipPath>
    <clipPath
       clipPathUnits="userSpaceOnUse"
       id="clipPath30">
      <path
         d="m 3.125,3.125 h 718.75 V 518.75 H 3.125 Z"
         transform="matrix(0.33963188,0,0,0.33963188,1069.8681,4916.3772)"
         clip-rule="evenodd"
         id="path30" />
    </clipPath>
    <clipPath
       clipPathUnits="userSpaceOnUse"
       id="clipPath31">
      <path
         d="m 3.125,3.125 h 718.75 V 518.75 H 3.125 Z"
         transform="matrix(0.33963188,0,0,0.33963188,-49.319441,-148.123)"
         clip-rule="evenodd"
         id="path31" />
    </clipPath>
    <clipPath
       clipPathUnits="userSpaceOnUse"
       id="clipPath32">
      <path
         d="m 3.125,3.125 h 718.75 V 518.75 H 3.125 Z"
         transform="matrix(0.33963188,0,0,0.33963188,-77.772571,-167.123)"
         clip-rule="evenodd"
         id="path32" />
    </clipPath>
    <clipPath
       clipPathUnits="userSpaceOnUse"
       id="clipPath34">
      <path
         d="m 3.125,3.125 h 718.75 V 518.75 H 3.125 Z"
         transform="matrix(0.33963188,0,0,0.33963188,1069.8681,4916.3772)"
         clip-rule="evenodd"
         id="path34" />
    </clipPath>
    <clipPath
       clipPathUnits="userSpaceOnUse"
       id="clipPath36">
      <path
         d="m 3.125,3.125 h 718.75 V 518.75 H 3.125 Z"
         transform="matrix(0.33963188,0,0,0.33963188,1069.8681,4916.3772)"
         clip-rule="evenodd"
         id="path36" />
    </clipPath>
  </defs>
  <g
     id="g1">
    <path
       id="path1"
       d="M 0,0 H 232 V 166 H 0 Z"
       style="fill:#ffffff;fill-opacity:1;fill-rule:nonzero;stroke:none"
       clip-path="url(#clipPath2)" />
    <path
       id="path3"
       d="m 1078,4920 h 230 c 0.663,0 1.3007,0.1265 1.9132,0.3799 0.6127,0.2534 1.1533,0.6147 1.6222,1.084 0.4688,0.4682 0.83,1.0092 1.0837,1.622 0.2538,0.6128 0.3808,1.2505 0.3809,1.9141 v 30 c -10e-5,0.6626 -0.1271,1.3003 -0.3809,1.9126 -0.2537,0.6128 -0.6149,1.1538 -1.0837,1.623 -0.4689,0.4688 -1.0095,0.8301 -1.6222,1.0835 -0.6125,0.2539 -1.2502,0.3809 -1.9132,0.3809 h -230 c -0.6631,0 -1.3009,-0.127 -1.9136,-0.3809 -0.6125,-0.2534 -1.1532,-0.6147 -1.622,-1.0835 -0.4689,-0.4692 -0.8301,-1.0102 -1.0839,-1.623 -0.2538,-0.6123 -0.3806,-1.25 -0.3805,-1.9126 v -30 c -10e-5,-0.6636 0.1267,-1.3013 0.3805,-1.9141 0.2538,-0.6128 0.615,-1.1538 1.0839,-1.622 0.4688,-0.4693 1.0095,-0.8306 1.622,-1.084 0.6127,-0.2534 1.2505,-0.3799 1.9136,-0.3799 z"
       style="fill:#ffffff;fill-opacity:1;fill-rule:nonzero;stroke:#000000;stroke-width:1;stroke-linecap:butt;stroke-linejoin:miter;stroke-miterlimit:10;stroke-dasharray:none;stroke-opacity:1"
       transform="matrix(0.94219654,0,0,0.94219654,-1008.026,-4632.1936)"
       clip-path="url(#clipPath4)" />
    <text
       id="text4"
       xml:space="preserve"
       transform="matrix(0.94219654,0,0,0.94219654,67.417763,17.07543)"
       clip-path="url(#clipPath5)"><tspan
         id="tspan4"
         style="font-variant:normal;font-weight:normal;font-size:16px;font-family:Arial;writing-mode:lr-tb;fill:#000000;fill-opacity:1;fill-rule:nonzero;stroke:none"
         x="0"
         y="0">«requirement»</tspan></text>
    <text
       id="text5"
       xml:space="preserve"
       transform="matrix(0.94219654,0,0,0.94219654,71.59876,34.977164)"
       clip-path="url(#clipPath6)"><tspan
         id="tspan5"
         style="font-variant:normal;font-weight:normal;font-size:16px;font-family:Arial;writing-mode:lr-tb;fill:#000000;fill-opacity:1;fill-rule:nonzero;stroke:none"
         x="0"
         y="0">requirement1</tspan></text>
    <path
       id="path7"
       d="m 1087.83,4994 h 90 c 0.6629,0 1.3007,0.1265 1.9133,0.3799 0.6125,0.2539 1.1533,0.6152 1.6222,1.084 0.4687,0.4687 0.8299,1.0097 1.0837,1.6225 0.2538,0.6123 0.3806,1.25 0.3808,1.9136 v 30 c -2e-4,0.6626 -0.127,1.3003 -0.3808,1.9131 -0.2538,0.6123 -0.615,1.1528 -1.0837,1.6221 -0.4689,0.4682 -1.0097,0.8295 -1.6222,1.083 -0.6126,0.2539 -1.2504,0.3813 -1.9133,0.3818 h -90 c -0.6631,-5e-4 -1.3009,-0.1279 -1.9135,-0.3818 -0.6127,-0.2535 -1.1533,-0.6148 -1.6222,-1.083 -0.4689,-0.4693 -0.8302,-1.0098 -1.0838,-1.6221 -0.2538,-0.6128 -0.3807,-1.2505 -0.3805,-1.9131 v -30 c -2e-4,-0.6636 0.1267,-1.3013 0.3805,-1.9136 0.2536,-0.6128 0.6149,-1.1538 1.0838,-1.6225 0.4689,-0.4688 1.0095,-0.8301 1.6222,-1.084 0.6126,-0.2534 1.2504,-0.3799 1.9135,-0.3799 z"
       style="fill:#ffffff;fill-opacity:1;fill-rule:nonzero;stroke:#000000;stroke-width:1;stroke-linecap:butt;stroke-linejoin:miter;stroke-miterlimit:10;stroke-dasharray:none;stroke-opacity:1"
       transform="matrix(0.94219654,0,0,0.94219654,-1008.026,-4632.1936)"
       clip-path="url(#clipPath8)" />
    <text
       id="text8"
       xml:space="preserve"
       transform="matrix(0.94219654,0,0,0.94219654,18.408816,86.797974)"
       clip-path="url(#clipPath9)"><tspan
         id="tspan8"
         style="font-variant:normal;font-weight:normal;font-size:16px;font-family:Arial;writing-mode:lr-tb;fill:#000000;fill-opacity:1;fill-rule:nonzero;stroke:none"
         x="0"
         y="0">«constraint»</tspan></text>
    <text
       id="text9"
       xml:space="preserve"
       transform="matrix(0.94219654,0,0,0.94219654,16.745255,104.69971)"
       clip-path="url(#clipPath10)"><tspan
         id="tspan9"
         style="font-variant:normal;font-weight:normal;font-size:16px;font-family:Arial;writing-mode:lr-tb;fill:#000000;fill-opacity:1;fill-rule:nonzero;stroke:none"
         x="0"
         y="0">assumption1</tspan></text>
    <path
       id="path11"
       d="m 1133,4960 -0.1,31.7598"
       style="fill:none;stroke:#000000;stroke-width:1;stroke-linecap:butt;stroke-linejoin:miter;stroke-miterlimit:10;stroke-dasharray:none;stroke-opacity:1"
       transform="matrix(0.94219654,0,0,0.94219654,-1008.026,-4632.1936)"
       clip-path="url(#clipPath12)" />
    <path
       id="path13"
       d="m 1128.42,4983.8701 4.48,9.0098 4.52,-8.98"
       style="fill:none;stroke:#000000;stroke-width:1;stroke-linecap:butt;stroke-linejoin:miter;stroke-miterlimit:10;stroke-dasharray:none;stroke-opacity:1"
       transform="matrix(0.94219654,0,0,0.94219654,-1008.026,-4632.1936)"
       clip-path="url(#clipPath14)" />
    <path
       id="path15"
       d="m 1135,4971 h 51 v 13 h -51 z"
       style="fill:#ffffff;fill-opacity:1;fill-rule:nonzero;stroke:none"
       transform="matrix(0.94219654,0,0,0.94219654,-1008.4971,-4632.6645)"
       clip-path="url(#clipPath16)" />
    <text
       id="text16"
       xml:space="preserve"
       transform="matrix(0.94219654,0,0,0.94219654,60.895991,60.416471)"
       clip-path="url(#clipPath17)"><tspan
         id="tspan16"
         style="font-variant:normal;font-weight:normal;font-size:11px;font-family:Arial;writing-mode:lr-tb;fill:#000000;fill-opacity:1;fill-rule:nonzero;stroke:none"
         x="0"
         y="0">«assume»</tspan></text>
    <path
       id="path18"
       d="m 1208,4994 h 90 c 0.663,0 1.3007,0.1265 1.9132,0.3799 0.6127,0.2539 1.1533,0.6152 1.6222,1.084 0.4688,0.4687 0.83,1.0097 1.0837,1.6225 0.2538,0.6123 0.3808,1.25 0.3809,1.9136 v 30 c -10e-5,0.6626 -0.1271,1.3003 -0.3809,1.9131 -0.2537,0.6123 -0.6149,1.1528 -1.0837,1.6221 -0.4689,0.4682 -1.0095,0.8295 -1.6222,1.083 -0.6125,0.2539 -1.2502,0.3813 -1.9132,0.3818 h -90 c -0.6631,-5e-4 -1.3009,-0.1279 -1.9136,-0.3818 -0.6125,-0.2535 -1.1532,-0.6148 -1.622,-1.083 -0.4689,-0.4693 -0.8302,-1.0098 -1.084,-1.6221 -0.2537,-0.6128 -0.3805,-1.2505 -0.3804,-1.9131 v -30 c -10e-5,-0.6636 0.1267,-1.3013 0.3804,-1.9136 0.2538,-0.6128 0.6151,-1.1538 1.084,-1.6225 0.4688,-0.4688 1.0095,-0.8301 1.622,-1.084 0.6127,-0.2534 1.2505,-0.3799 1.9136,-0.3799 z"
       style="fill:#ffffff;fill-opacity:1;fill-rule:nonzero;stroke:#000000;stroke-width:1;stroke-linecap:butt;stroke-linejoin:miter;stroke-miterlimit:10;stroke-dasharray:none;stroke-opacity:1"
       transform="matrix(0.94219654,0,0,0.94219654,-1008.026,-4632.1936)"
       clip-path="url(#clipPath19)" />
    <text
       id="text19"
       xml:space="preserve"
       transform="matrix(0.94219654,0,0,0.94219654,131.48713,86.797974)"
       clip-path="url(#clipPath20)"><tspan
         id="tspan19"
         style="font-variant:normal;font-weight:normal;font-size:16px;font-family:Arial;writing-mode:lr-tb;fill:#000000;fill-opacity:1;fill-rule:nonzero;stroke:none"
         x="0"
         y="0">«constraint»</tspan></text>
    <text
       id="text20"
       xml:space="preserve"
       transform="matrix(0.94219654,0,0,0.94219654,135.68284,104.69971)"
       clip-path="url(#clipPath21)"><tspan
         id="tspan20"
         style="font-variant:normal;font-weight:normal;font-size:16px;font-family:Arial;writing-mode:lr-tb;fill:#000000;fill-opacity:1;fill-rule:nonzero;stroke:none"
         x="0"
         y="0">constraint1</tspan></text>
    <path
       id="path22"
       d="m 1253,4960 v 31.7598"
       style="fill:none;stroke:#000000;stroke-width:1;stroke-linecap:butt;stroke-linejoin:miter;stroke-miterlimit:10;stroke-dasharray:none;stroke-opacity:1"
       transform="matrix(0.94219654,0,0,0.94219654,-1008.026,-4632.1936)"
       clip-path="url(#clipPath23)" />
    <path
       id="path24"
       d="m 1248.5,4983.8799 4.5,9 4.5,-9"
       style="fill:none;stroke:#000000;stroke-width:1;stroke-linecap:butt;stroke-linejoin:miter;stroke-miterlimit:10;stroke-dasharray:none;stroke-opacity:1"
       transform="matrix(0.94219654,0,0,0.94219654,-1008.026,-4632.1936)"
       clip-path="url(#clipPath25)" />
    <path
       id="path26"
       d="m 1255,4971 h 46 v 13 h -46 z"
       style="fill:#ffffff;fill-opacity:1;fill-rule:nonzero;stroke:none"
       transform="matrix(0.94219654,0,0,0.94219654,-1008.4971,-4632.6645)"
       clip-path="url(#clipPath27)" />
    <text
       id="text27"
       xml:space="preserve"
       transform="matrix(0.94219654,0,0,0.94219654,173.95958,60.416471)"
       clip-path="url(#clipPath28)"><tspan
         id="tspan27"
         style="font-variant:normal;font-weight:normal;font-size:11px;font-family:Arial;writing-mode:lr-tb;fill:#000000;fill-opacity:1;fill-rule:nonzero;stroke:none"
         x="0"
         y="0">«require»</tspan></text>
    <path
       id="path29"
       d="m 1118,5050 h 150 c 0.663,0 1.3007,0.127 1.9133,0.3804 0.6126,0.2534 1.1534,0.6147 1.6222,1.0835 0.4689,0.4687 0.8301,1.0092 1.0838,1.622 0.2538,0.6123 0.3806,1.2505 0.3807,1.9141 v 30 c -10e-5,0.6626 -0.1269,1.3003 -0.3807,1.9131 -0.2537,0.6128 -0.6149,1.1533 -1.0838,1.6225 -0.4688,0.4683 -1.0096,0.8296 -1.6222,1.0831 -0.6126,0.2539 -1.2503,0.3808 -1.9133,0.3813 h -150 c -0.6631,-5e-4 -1.3009,-0.1274 -1.9136,-0.3813 -0.6125,-0.2535 -1.1532,-0.6148 -1.622,-1.0831 -0.4689,-0.4692 -0.8302,-1.0097 -1.084,-1.6225 -0.2537,-0.6128 -0.3805,-1.2505 -0.3804,-1.9131 v -30 c -10e-5,-0.6636 0.1267,-1.3018 0.3804,-1.9141 0.2538,-0.6128 0.6151,-1.1533 1.084,-1.622 0.4688,-0.4688 1.0095,-0.8301 1.622,-1.0835 0.6127,-0.2534 1.2505,-0.3804 1.9136,-0.3804 z"
       style="fill:#ffffff;fill-opacity:1;fill-rule:nonzero;stroke:#000000;stroke-width:1;stroke-linecap:butt;stroke-linejoin:miter;stroke-miterlimit:10;stroke-dasharray:none;stroke-opacity:1"
       transform="matrix(0.94219654,0,0,0.94219654,-1008.026,-4632.1936)"
       clip-path="url(#clipPath30)" />
    <text
       id="text30"
       xml:space="preserve"
       transform="matrix(0.94219654,0,0,0.94219654,46.468607,139.56098)"
       clip-path="url(#clipPath31)"><tspan
         id="tspan30"
         style="font-variant:normal;font-weight:normal;font-size:16px;font-family:Arial;writing-mode:lr-tb;fill:#000000;fill-opacity:1;fill-rule:nonzero;stroke:none"
         x="0"
         y="0">«assume constraint»</tspan></text>
    <text
       id="text31"
       xml:space="preserve"
       transform="matrix(0.94219654,0,0,0.94219654,73.277047,157.46271)"
       clip-path="url(#clipPath32)"><tspan
         id="tspan31"
         style="font-variant:normal;font-weight:normal;font-size:16px;font-family:Arial;writing-mode:lr-tb;fill:#000000;fill-opacity:1;fill-rule:nonzero;stroke:none"
         x="0"
         y="0">assumption2</tspan></text>
    <path
       id="path33"
       d="M 1193,4969.9902 V 5050"
       style="fill:none;stroke:#000000;stroke-width:1;stroke-linecap:butt;stroke-linejoin:miter;stroke-miterlimit:10;stroke-dasharray:none;stroke-opacity:1"
       transform="matrix(0.94219654,0,0,0.94219654,-1008.026,-4632.1936)"
       clip-path="url(#clipPath34)" />
    <path
       id="path35"
       d="m 1193,4960.9902 2.65,4.5 -2.65,4.5 -2.65,-4.5 z"
       style="fill:none;stroke:#000000;stroke-width:1;stroke-linecap:butt;stroke-linejoin:miter;stroke-miterlimit:10;stroke-dasharray:none;stroke-opacity:1"
       transform="matrix(0.94219654,0,0,0.94219654,-1008.026,-4632.1936)"
       clip-path="url(#clipPath36)" />
  </g>
</svg>
