<?xml version="1.0" encoding="UTF-8" standalone="no"?>
<!-- Created with Inkscape (http://www.inkscape.org/) -->

<svg
   version="1.1"
   id="svg1"
   width="282.56"
   height="61.439999"
   viewBox="0 0 282.56 61.439999"
   xmlns="http://www.w3.org/2000/svg"
   xmlns:svg="http://www.w3.org/2000/svg">
  <defs
     id="defs1">
    <clipPath
       clipPathUnits="userSpaceOnUse"
       id="clipPath2">
      <path
         d="M 0,0 H 881.98242 V 191.99219 H 0 Z"
         transform="scale(0.31999999)"
         clip-rule="evenodd"
         id="path2" />
    </clipPath>
    <clipPath
       clipPathUnits="userSpaceOnUse"
       id="clipPath4">
      <path
         d="m 3.125,0 h 875 v 191.99219 h -875 z"
         transform="matrix(0.3373489,0,0,0.3373489,503.37826,10584.946)"
         clip-rule="evenodd"
         id="path4" />
    </clipPath>
    <clipPath
       clipPathUnits="userSpaceOnUse"
       id="clipPath5">
      <path
         d="m 3.125,0 h 875 v 191.99219 h -875 z"
         transform="matrix(0.3373489,0,0,0.3373489,-97.027982,-28.554264)"
         clip-rule="evenodd"
         id="path5" />
    </clipPath>
    <clipPath
       clipPathUnits="userSpaceOnUse"
       id="clipPath6">
      <path
         d="m 3.125,0 h 875 v 191.99219 h -875 z"
         transform="matrix(0.3373489,0,0,0.3373489,-13.434232,-48.554264)"
         clip-rule="evenodd"
         id="path6" />
    </clipPath>
  </defs>
  <g
     id="g1">
    <path
       id="path1"
       d="M 0,0 H 282 V 61 H 0 Z"
       style="fill:#ffffff;fill-opacity:1;fill-rule:nonzero;stroke:none"
       clip-path="url(#clipPath2)" />
    <path
       id="path3"
       d="m 518.69,10587 h 266.60999 c 0.80102,0 1.59436,0.08 2.38006,0.234 0.78565,0.157 1.54853,0.388 2.28864,0.694 0.74005,0.306 1.44311,0.682 2.10919,1.127 0.66608,0.445 1.28229,0.951 1.84876,1.517 0.56646,0.568 1.0722,1.184 1.51721,1.849 0.445,0.667 0.82086,1.37 1.12744,2.109 0.30658,0.741 0.53796,1.503 0.69427,2.289 0.15632,0.786 0.23444,1.579 0.23444,2.381 v 36.6 c 0,0.801 -0.0781,1.594 -0.23444,2.38 -0.15631,0.784 -0.38769,1.547 -0.69427,2.287 -0.30658,0.74 -0.68244,1.443 -1.12744,2.11 -0.44501,0.667 -0.95075,1.283 -1.51721,1.849 -0.56647,0.565 -1.18268,1.071 -1.84876,1.516 -0.66608,0.445 -1.3692,0.822 -2.10925,1.129 -0.74005,0.307 -1.50293,0.538 -2.28864,0.695 -0.78564,0.156 -1.57898,0.234 -2.38,0.234 H 518.69 c -0.80108,0 -1.59442,-0.08 -2.38012,-0.234 -0.78571,-0.157 -1.54859,-0.388 -2.28864,-0.695 -0.74005,-0.307 -1.44311,-0.683 -2.10922,-1.128 -0.66608,-0.445 -1.28232,-0.951 -1.84876,-1.516 -0.56643,-0.567 -1.0722,-1.183 -1.51727,-1.849 -0.44504,-0.667 -0.82083,-1.37 -1.12738,-2.11 -0.30658,-0.74 -0.53799,-1.503 -0.69424,-2.288 -0.15629,-0.786 -0.23441,-1.579 -0.23438,-2.38 v -36.6 c -3e-5,-0.802 0.0781,-1.595 0.23434,-2.38 0.15625,-0.786 0.38767,-1.549 0.69425,-2.29 0.30655,-0.739 0.68234,-1.442 1.12741,-2.109 0.44504,-0.665 0.95078,-1.281 1.51721,-1.849 0.56644,-0.566 1.18268,-1.072 1.84876,-1.517 0.66604,-0.445 1.36917,-0.821 2.10922,-1.127 0.74011,-0.306 1.50299,-0.537 2.2887,-0.694 0.7857,-0.156 1.57904,-0.234 2.38012,-0.234 z"
       style="fill:#ffffff;fill-opacity:1;fill-rule:nonzero;stroke:#000000;stroke-width:1;stroke-linecap:butt;stroke-linejoin:miter;stroke-miterlimit:10;stroke-dasharray:none;stroke-opacity:1"
       transform="matrix(0.94857279,0,0,0.94857279,-477.49092,-10040.592)"
       clip-path="url(#clipPath4)" />
    <text
       id="text4"
       xml:space="preserve"
       transform="matrix(0.94857279,0,0,0.94857279,92.038104,27.085798)"
       clip-path="url(#clipPath5)"><tspan
         id="tspan4"
         style="font-variant:normal;font-weight:normal;font-size:16px;font-family:Arial;writing-mode:lr-tb;fill:#000000;fill-opacity:1;fill-rule:nonzero;stroke:none"
         x="0"
         y="0">«requirement»</tspan></text>
    <text
       id="text5"
       xml:space="preserve"
       transform="matrix(0.94857279,0,0,0.94857279,12.743347,46.057254)"
       clip-path="url(#clipPath6)"><tspan
         id="tspan5"
         style="font-variant:normal;font-weight:normal;font-size:16px;font-family:Arial;writing-mode:lr-tb;fill:#000000;fill-opacity:1;fill-rule:nonzero;stroke:none"
         x="0"
         y="0">&lt;r1&gt; requirement1 : RequirementDef1</tspan></text>
  </g>
</svg>
