<?xml version="1.0" encoding="UTF-8" standalone="no"?>
<!-- Created with Inkscape (http://www.inkscape.org/) -->

<svg
   version="1.1"
   id="svg1"
   width="181.44"
   height="118.72"
   viewBox="0 0 181.44 118.72"
   xmlns="http://www.w3.org/2000/svg"
   xmlns:svg="http://www.w3.org/2000/svg">
  <defs
     id="defs1">
    <clipPath
       clipPathUnits="userSpaceOnUse"
       id="clipPath2">
      <path
         d="M 0,0 H 566.99219 V 368.99414 H 0 Z"
         transform="scale(0.31999999)"
         clip-rule="evenodd"
         id="path2" />
    </clipPath>
    <clipPath
       clipPathUnits="userSpaceOnUse"
       id="clipPath4">
      <path
         d="m 3.125,0 h 562.5 V 368.75 H 3.125 Z"
         transform="matrix(0.34091759,0,0,0.34091759,386.86373,5007.4346)"
         clip-rule="evenodd"
         id="path4" />
    </clipPath>
    <clipPath
       clipPathUnits="userSpaceOnUse"
       id="clipPath5">
      <path
         d="m 3.125,0 h 562.5 V 368.75 H 3.125 Z"
         transform="matrix(0.34091759,0,0,0.34091759,-73.448799,-17.065416)"
         clip-rule="evenodd"
         id="path5" />
    </clipPath>
    <clipPath
       clipPathUnits="userSpaceOnUse"
       id="clipPath6">
      <path
         d="m 3.125,0 h 562.5 V 368.75 H 3.125 Z"
         transform="matrix(0.34091759,0,0,0.34091759,-52.120678,-36.065416)"
         clip-rule="evenodd"
         id="path6" />
    </clipPath>
    <clipPath
       clipPathUnits="userSpaceOnUse"
       id="clipPath8">
      <path
         d="m 3.125,0 h 562.5 V 368.75 H 3.125 Z"
         transform="matrix(0.34091759,0,0,0.34091759,386.86373,5007.4346)"
         clip-rule="evenodd"
         id="path8" />
    </clipPath>
    <clipPath
       clipPathUnits="userSpaceOnUse"
       id="clipPath9">
      <path
         d="m 3.125,0 h 562.5 V 368.75 H 3.125 Z"
         transform="matrix(0.34091759,0,0,0.34091759,-44.558178,-97.065416)"
         clip-rule="evenodd"
         id="path9" />
    </clipPath>
    <clipPath
       clipPathUnits="userSpaceOnUse"
       id="clipPath10">
      <path
         d="m 3.125,0 h 562.5 V 368.75 H 3.125 Z"
         transform="matrix(0.34091759,0,0,0.34091759,-48.995678,-116.06542)"
         clip-rule="evenodd"
         id="path10" />
    </clipPath>
    <clipPath
       clipPathUnits="userSpaceOnUse"
       id="clipPath12">
      <path
         d="m 3.125,0 h 562.5 V 368.75 H 3.125 Z"
         transform="matrix(0.34091759,0,0,0.34091759,386.86373,5007.4346)"
         clip-rule="evenodd"
         id="path12" />
    </clipPath>
    <clipPath
       clipPathUnits="userSpaceOnUse"
       id="clipPath14">
      <path
         d="m 3.125,0 h 562.5 V 368.75 H 3.125 Z"
         transform="matrix(0.34091759,0,0,0.34091759,386.86373,5007.4346)"
         clip-rule="evenodd"
         id="path14" />
    </clipPath>
    <clipPath
       clipPathUnits="userSpaceOnUse"
       id="clipPath15">
      <path
         d="m 3.125,0 h 562.5 V 368.75 H 3.125 Z"
         transform="matrix(0.34091759,0,0,0.34091759,-97.636299,-66.065416)"
         clip-rule="evenodd"
         id="path15" />
    </clipPath>
  </defs>
  <g
     id="g1">
    <path
       id="path1"
       d="M 0,0 H 181 V 118 H 0 Z"
       style="fill:#ffffff;fill-opacity:1;fill-rule:nonzero;stroke:none"
       clip-path="url(#clipPath2)" />
    <path
       id="path3"
       d="m 430.5,5010 h 104 c 0.52521,0 1.04547,0.051 1.56067,0.1538 0.5152,0.1025 1.01544,0.2544 1.50073,0.4551 0.48529,0.2007 0.94629,0.4473 1.38306,0.7392 0.43683,0.2915 0.84094,0.6236 1.21234,0.9952 0.3714,0.3711 0.70306,0.7749 0.99487,1.2119 0.29181,0.437 0.53827,0.8979 0.73926,1.3828 0.20105,0.4849 0.35284,0.9853 0.45532,1.501 0.10248,0.5151 0.15369,1.0356 0.15375,1.561 v 24 c -6e-5,0.5249 -0.0513,1.0449 -0.15375,1.5601 -0.10248,0.5151 -0.25427,1.0151 -0.45532,1.5004 -0.20099,0.4854 -0.44745,0.9463 -0.73926,1.3833 -0.29181,0.4371 -0.62347,0.8409 -0.99487,1.2125 -0.3714,0.3715 -0.77551,0.7031 -1.21228,0.9946 -0.43683,0.292 -0.89783,0.5386 -1.38312,0.7397 -0.48529,0.2007 -0.98553,0.3526 -1.50073,0.4551 -0.5152,0.1025 -1.03546,0.1538 -1.56067,0.1543 h -104 c -0.5253,-5e-4 -1.04553,-0.052 -1.56073,-0.1543 -0.5152,-0.1025 -1.01544,-0.2544 -1.50076,-0.4551 -0.48529,-0.2011 -0.94632,-0.4477 -1.38309,-0.7397 -0.43674,-0.2915 -0.84085,-0.6231 -1.21228,-0.9946 -0.37143,-0.3716 -0.70309,-0.7754 -0.99493,-1.2125 -0.29184,-0.437 -0.5383,-0.8979 -0.73932,-1.3833 -0.20102,-0.4853 -0.35276,-0.9853 -0.4552,-1.5004 C 422.55124,5043.0449 422.5,5042.5249 422.5,5042 v -24 c 0,-0.5254 0.0512,-1.0459 0.15369,-1.561 0.10247,-0.5157 0.25421,-1.0161 0.45523,-1.501 0.20102,-0.4849 0.44745,-0.9458 0.73929,-1.3828 0.29184,-0.437 0.6235,-0.8408 0.99493,-1.2119 0.37143,-0.3716 0.77554,-0.7037 1.21228,-0.9952 0.43674,-0.2919 0.89777,-0.5385 1.38306,-0.7392 0.48532,-0.2007 0.98559,-0.3526 1.50079,-0.4551 0.5152,-0.1025 1.03543,-0.1538 1.56073,-0.1538 z"
       style="fill:#ffffff;fill-opacity:1;fill-rule:nonzero;stroke:#000000;stroke-width:1;stroke-linecap:butt;stroke-linejoin:miter;stroke-miterlimit:10;stroke-dasharray:none;stroke-opacity:1"
       transform="matrix(0.93864322,0,0,0.93864322,-363.12702,-4700.1945)"
       clip-path="url(#clipPath4)" />
    <text
       id="text4"
       xml:space="preserve"
       transform="matrix(0.93864322,0,0,0.93864322,68.942217,16.018337)"
       clip-path="url(#clipPath5)"><tspan
         id="tspan4"
         style="font-variant:normal;font-weight:normal;font-size:16px;font-family:Arial;writing-mode:lr-tb;fill:#000000;fill-opacity:1;fill-rule:nonzero;stroke:none"
         x="0"
         y="0">«part»</tspan></text>
    <text
       id="text5"
       xml:space="preserve"
       transform="matrix(0.93864322,0,0,0.93864322,48.922721,33.852558)"
       clip-path="url(#clipPath6)"><tspan
         id="tspan5"
         style="font-variant:normal;font-weight:normal;font-size:16px;font-family:Arial;writing-mode:lr-tb;fill:#000000;fill-opacity:1;fill-rule:nonzero;stroke:none"
         x="0"
         y="0">part1 : Part1</tspan></text>
    <path
       id="path7"
       d="m 410.5,5090 h 144 c 0.52527,0 1.04547,0.051 1.56067,0.1538 0.5152,0.1025 1.01544,0.2544 1.50073,0.4551 0.48529,0.2007 0.94629,0.4473 1.38312,0.7397 0.43677,0.2915 0.84088,0.6231 1.21228,0.9947 0.3714,0.3711 0.70306,0.7749 0.99487,1.2119 0.29187,0.437 0.53833,0.8979 0.73932,1.3828 0.20099,0.4853 0.35272,0.9858 0.4552,1.5015 0.10248,0.5151 0.15375,1.0351 0.15381,1.5605 v 24 c -6e-5,0.5249 -0.0513,1.0449 -0.15381,1.5601 -0.10248,0.5151 -0.25421,1.0156 -0.4552,1.5009 -0.20099,0.4854 -0.44745,0.9463 -0.73932,1.3828 -0.29181,0.4371 -0.62347,0.8414 -0.99487,1.2129 -0.3714,0.3716 -0.77551,0.7027 -1.21222,0.9942 -0.43683,0.292 -0.89789,0.5386 -1.38318,0.7397 -0.48529,0.2007 -0.98553,0.3526 -1.50073,0.4551 -0.5152,0.1025 -1.0354,0.1538 -1.56067,0.1543 h -144 c -0.5253,-5e-4 -1.04556,-0.052 -1.56076,-0.1543 -0.51523,-0.1025 -1.01547,-0.2544 -1.50076,-0.4551 -0.48532,-0.2011 -0.94635,-0.4477 -1.38309,-0.7397 -0.43677,-0.2915 -0.84085,-0.6226 -1.21228,-0.9942 -0.37143,-0.3715 -0.7031,-0.7758 -0.99493,-1.2129 -0.29184,-0.4365 -0.53824,-0.8974 -0.73926,-1.3828 -0.20102,-0.4853 -0.35276,-0.9858 -0.45523,-1.5009 -0.10248,-0.5152 -0.15372,-1.0352 -0.15369,-1.5601 v -24 c -3e-5,-0.5254 0.0512,-1.0454 0.15369,-1.5605 0.10247,-0.5157 0.25421,-1.0162 0.45523,-1.5015 0.20102,-0.4849 0.44745,-0.9458 0.73929,-1.3828 0.29184,-0.437 0.62347,-0.8408 0.9949,-1.2119 0.37143,-0.3716 0.77551,-0.7032 1.21228,-0.9947 0.43674,-0.2924 0.89777,-0.539 1.38309,-0.7397 0.48529,-0.2007 0.98553,-0.3526 1.50076,-0.4551 0.5152,-0.1025 1.03546,-0.1538 1.56076,-0.1538 z"
       style="fill:#ffffff;fill-opacity:1;fill-rule:nonzero;stroke:#000000;stroke-width:1;stroke-linecap:butt;stroke-linejoin:miter;stroke-miterlimit:10;stroke-dasharray:none;stroke-opacity:1"
       transform="matrix(0.93864322,0,0,0.93864322,-363.12702,-4700.1945)"
       clip-path="url(#clipPath8)" />
    <text
       id="text8"
       xml:space="preserve"
       transform="matrix(0.93864322,0,0,0.93864322,41.824232,91.109795)"
       clip-path="url(#clipPath9)"><tspan
         id="tspan8"
         style="font-variant:normal;font-weight:normal;font-size:16px;font-family:Arial;writing-mode:lr-tb;fill:#000000;fill-opacity:1;fill-rule:nonzero;stroke:none"
         x="0"
         y="0">«requirement»</tspan></text>
    <text
       id="text9"
       xml:space="preserve"
       transform="matrix(0.93864322,0,0,0.93864322,45.989461,108.94402)"
       clip-path="url(#clipPath10)"><tspan
         id="tspan9"
         style="font-variant:normal;font-weight:normal;font-size:16px;font-family:Arial;writing-mode:lr-tb;fill:#000000;fill-opacity:1;fill-rule:nonzero;stroke:none"
         x="0"
         y="0">requirement1</tspan></text>
    <path
       id="path11"
       d="m 482.5,5050 v 37.7598"
       style="fill:none;stroke:#000000;stroke-width:1;stroke-linecap:butt;stroke-linejoin:miter;stroke-miterlimit:10;stroke-dasharray:none;stroke-opacity:1"
       transform="matrix(0.93864322,0,0,0.93864322,-363.12702,-4700.1945)"
       clip-path="url(#clipPath12)" />
    <path
       id="path13"
       d="m 478,5079.8799 4.5,9 4.5,-9"
       style="fill:none;stroke:#000000;stroke-width:1;stroke-linecap:butt;stroke-linejoin:miter;stroke-miterlimit:10;stroke-dasharray:none;stroke-opacity:1"
       transform="matrix(0.93864322,0,0,0.93864322,-363.12702,-4700.1945)"
       clip-path="url(#clipPath14)" />
    <text
       id="text14"
       xml:space="preserve"
       transform="matrix(0.93864322,0,0,0.93864322,91.64565,62.011855)"
       clip-path="url(#clipPath15)"><tspan
         id="tspan14"
         style="font-variant:normal;font-weight:normal;font-size:12px;font-family:Arial;writing-mode:lr-tb;fill:#000000;fill-opacity:1;fill-rule:nonzero;stroke:none"
         x="0"
         y="0">«satisfy»</tspan></text>
  </g>
</svg>
