<?xml version="1.0" encoding="UTF-8" standalone="no"?>
<!-- Created with Inkscape (http://www.inkscape.org/) -->

<svg
   version="1.1"
   id="svg1"
   width="137.28"
   height="89.279999"
   viewBox="0 0 137.28 89.279999"
   xmlns="http://www.w3.org/2000/svg"
   xmlns:svg="http://www.w3.org/2000/svg">
  <defs
     id="defs1">
    <clipPath
       clipPathUnits="userSpaceOnUse"
       id="clipPath2">
      <path
         d="M 0,0 H 429.00391 V 279.00391 H 0 Z"
         transform="scale(0.31999999)"
         clip-rule="evenodd"
         id="path2" />
    </clipPath>
    <clipPath
       clipPathUnits="userSpaceOnUse"
       id="clipPath4">
      <path
         d="M 3.125,0 H 425 V 278.125 H 3.125 Z"
         transform="matrix(0.34170075,0,0,0.34170075,120.86275,4664.9321)"
         clip-rule="evenodd"
         id="path4" />
    </clipPath>
    <clipPath
       clipPathUnits="userSpaceOnUse"
       id="clipPath5">
      <path
         d="M 3.125,0 H 425 V 278.125 H 3.125 Z"
         transform="matrix(0.34170075,0,0,0.34170075,-4.6372414,-19.56775)"
         clip-rule="evenodd"
         id="path5" />
    </clipPath>
    <clipPath
       clipPathUnits="userSpaceOnUse"
       id="clipPath6">
      <path
         d="M 3.125,0 H 425 V 278.125 H 3.125 Z"
         transform="matrix(0.34170075,0,0,0.34170075,-4.6372414,-34.56775)"
         clip-rule="evenodd"
         id="path6" />
    </clipPath>
    <clipPath
       clipPathUnits="userSpaceOnUse"
       id="clipPath7">
      <path
         d="M 3.125,0 H 425 V 278.125 H 3.125 Z"
         transform="matrix(0.34170075,0,0,0.34170075,-4.6372414,-51.56775)"
         clip-rule="evenodd"
         id="path7" />
    </clipPath>
    <clipPath
       clipPathUnits="userSpaceOnUse"
       id="clipPath8">
      <path
         d="M 3.125,0 H 425 V 278.125 H 3.125 Z"
         transform="matrix(0.34170075,0,0,0.34170075,-4.6372414,-69.56775)"
         clip-rule="evenodd"
         id="path8" />
    </clipPath>
  </defs>
  <g
     id="g1">
    <path
       id="path1"
       d="M 0,0 H 137 V 89 H 0 Z"
       style="fill:#ffffff;fill-opacity:1;fill-rule:nonzero;stroke:none"
       clip-path="url(#clipPath2)" />
    <path
       id="path3"
       d="m 124,4667 h 140 v 90 H 124 Z"
       style="fill:#ffffff;fill-opacity:1;fill-rule:nonzero;stroke:#000000;stroke-width:1;stroke-linecap:butt;stroke-linejoin:miter;stroke-miterlimit:10;stroke-dasharray:none;stroke-opacity:1"
       transform="matrix(0.9364919,0,0,0.9364919,-113.18699,-4368.6711)"
       clip-path="url(#clipPath4)" />
    <g
       id="g4" />
    <g
       id="g5" />
    <text
       id="text5"
       xml:space="preserve"
       transform="matrix(0.9364919,0,0,0.9364919,4.342739,18.325039)"
       clip-path="url(#clipPath5)"><tspan
         id="tspan5"
         style="font-style:italic;font-variant:normal;font-weight:normal;font-size:12px;font-family:Arial;writing-mode:lr-tb;fill:#000000;fill-opacity:1;fill-rule:nonzero;stroke:none"
         x="0"
         y="0">    satisfy requirements</tspan></text>
    <text
       id="text6"
       xml:space="preserve"
       transform="matrix(0.9364919,0,0,0.9364919,4.342739,32.372418)"
       clip-path="url(#clipPath6)"><tspan
         id="tspan6"
         style="font-variant:normal;font-weight:normal;font-size:12px;font-family:Arial;writing-mode:lr-tb;fill:#000000;fill-opacity:1;fill-rule:nonzero;stroke:none"
         x="0"
         dx="0 0 0 0 0 0 0 0 0 0 0 0 -0.8906247"
         y="0">requirement11</tspan></text>
    <text
       id="text7"
       xml:space="preserve"
       transform="matrix(0.9364919,0,0,0.9364919,4.342739,48.29278)"
       clip-path="url(#clipPath7)"><tspan
         id="tspan7"
         style="font-variant:normal;font-weight:normal;font-size:12px;font-family:Arial;writing-mode:lr-tb;fill:#000000;fill-opacity:1;fill-rule:nonzero;stroke:none"
         x="0"
         y="0">requirement12</tspan></text>
    <text
       id="text8"
       xml:space="preserve"
       transform="matrix(0.9364919,0,0,0.9364919,4.342739,65.149634)"
       clip-path="url(#clipPath8)"><tspan
         id="tspan8"
         style="font-variant:normal;font-weight:700;font-size:14px;font-family:Arial;writing-mode:lr-tb;fill:#000000;fill-opacity:1;fill-rule:nonzero;stroke:none"
         x="0"
         y="0">...</tspan></text>
  </g>
</svg>
