<?xml version="1.0" encoding="UTF-8" standalone="no"?>
<!-- Created with Inkscape (http://www.inkscape.org/) -->

<svg
   version="1.1"
   id="svg1"
   width="337.28"
   height="217.27998"
   viewBox="0 0 337.28 217.27998"
   xmlns="http://www.w3.org/2000/svg"
   xmlns:svg="http://www.w3.org/2000/svg">
  <defs
     id="defs1">
    <clipPath
       clipPathUnits="userSpaceOnUse"
       id="clipPath2">
      <path
         d="M 0,0 H 1055 V 680 H 0 Z"
         transform="scale(0.31999999)"
         clip-rule="evenodd"
         id="path2" />
    </clipPath>
    <clipPath
       clipPathUnits="userSpaceOnUse"
       id="clipPath4">
      <path
         d="m 3.125,0 h 1050 v 680 h -1050 z"
         transform="matrix(0.33763964,0,0,0.33763964,121.88462,4784.9448)"
         clip-rule="evenodd"
         id="path4" />
    </clipPath>
    <clipPath
       clipPathUnits="userSpaceOnUse"
       id="clipPath5">
      <path
         d="m 3.125,0 h 1050 v 680 h -1050 z"
         transform="matrix(0.33763964,0,0,0.33763964,-137.02163,-19.554659)"
         clip-rule="evenodd"
         id="path5" />
    </clipPath>
    <clipPath
       clipPathUnits="userSpaceOnUse"
       id="clipPath6">
      <path
         d="m 3.125,0 h 1050 v 680 h -1050 z"
         transform="matrix(0.33763964,0,0,0.33763964,-4.6153803,-34.554659)"
         clip-rule="evenodd"
         id="path6" />
    </clipPath>
    <clipPath
       clipPathUnits="userSpaceOnUse"
       id="clipPath7">
      <path
         d="m 3.125,0 h 1050 v 680 h -1050 z"
         transform="matrix(0.33763964,0,0,0.33763964,-11.631005,-34.554659)"
         clip-rule="evenodd"
         id="path7" />
    </clipPath>
    <clipPath
       clipPathUnits="userSpaceOnUse"
       id="clipPath8">
      <path
         d="m 3.125,0 h 1050 v 680 h -1050 z"
         transform="matrix(0.33763964,0,0,0.33763964,-4.6153803,-51.554659)"
         clip-rule="evenodd"
         id="path8" />
    </clipPath>
    <clipPath
       clipPathUnits="userSpaceOnUse"
       id="clipPath9">
      <path
         d="m 3.125,0 h 1050 v 680 h -1050 z"
         transform="matrix(0.33763964,0,0,0.33763964,-182.70913,-51.554659)"
         clip-rule="evenodd"
         id="path9" />
    </clipPath>
    <clipPath
       clipPathUnits="userSpaceOnUse"
       id="clipPath10">
      <path
         d="m 3.125,0 h 1050 v 680 h -1050 z"
         transform="matrix(0.33763964,0,0,0.33763964,-186.70913,-51.554659)"
         clip-rule="evenodd"
         id="path10" />
    </clipPath>
    <clipPath
       clipPathUnits="userSpaceOnUse"
       id="clipPath11">
      <path
         d="m 3.125,0 h 1050 v 680 h -1050 z"
         transform="matrix(0.33763964,0,0,0.33763964,-204.72476,-51.554659)"
         clip-rule="evenodd"
         id="path11" />
    </clipPath>
    <clipPath
       clipPathUnits="userSpaceOnUse"
       id="clipPath12">
      <path
         d="m 3.125,0 h 1050 v 680 h -1050 z"
         transform="matrix(0.33763964,0,0,0.33763964,-208.72476,-51.554659)"
         clip-rule="evenodd"
         id="path12" />
    </clipPath>
    <clipPath
       clipPathUnits="userSpaceOnUse"
       id="clipPath13">
      <path
         d="m 3.125,0 h 1050 v 680 h -1050 z"
         transform="matrix(0.33763964,0,0,0.33763964,-212.06851,-51.554659)"
         clip-rule="evenodd"
         id="path13" />
    </clipPath>
    <clipPath
       clipPathUnits="userSpaceOnUse"
       id="clipPath14">
      <path
         d="m 3.125,0 h 1050 v 680 h -1050 z"
         transform="matrix(0.33763964,0,0,0.33763964,-4.6153803,-68.554659)"
         clip-rule="evenodd"
         id="path14" />
    </clipPath>
    <clipPath
       clipPathUnits="userSpaceOnUse"
       id="clipPath15">
      <path
         d="m 3.125,0 h 1050 v 680 h -1050 z"
         transform="matrix(0.33763964,0,0,0.33763964,-200.03726,-68.554659)"
         clip-rule="evenodd"
         id="path15" />
    </clipPath>
    <clipPath
       clipPathUnits="userSpaceOnUse"
       id="clipPath16">
      <path
         d="m 3.125,0 h 1050 v 680 h -1050 z"
         transform="matrix(0.33763964,0,0,0.33763964,-253.39663,-68.554659)"
         clip-rule="evenodd"
         id="path16" />
    </clipPath>
    <clipPath
       clipPathUnits="userSpaceOnUse"
       id="clipPath17">
      <path
         d="m 3.125,0 h 1050 v 680 h -1050 z"
         transform="matrix(0.33763964,0,0,0.33763964,-4.6153803,-85.554658)"
         clip-rule="evenodd"
         id="path17" />
    </clipPath>
    <clipPath
       clipPathUnits="userSpaceOnUse"
       id="clipPath18">
      <path
         d="m 3.125,0 h 1050 v 680 h -1050 z"
         transform="matrix(0.33763964,0,0,0.33763964,-200.03726,-85.554658)"
         clip-rule="evenodd"
         id="path18" />
    </clipPath>
    <clipPath
       clipPathUnits="userSpaceOnUse"
       id="clipPath19">
      <path
         d="m 3.125,0 h 1050 v 680 h -1050 z"
         transform="matrix(0.33763964,0,0,0.33763964,-218.05288,-85.554658)"
         clip-rule="evenodd"
         id="path19" />
    </clipPath>
    <clipPath
       clipPathUnits="userSpaceOnUse"
       id="clipPath20">
      <path
         d="m 3.125,0 h 1050 v 680 h -1050 z"
         transform="matrix(0.33763964,0,0,0.33763964,-4.6153803,-102.55466)"
         clip-rule="evenodd"
         id="path20" />
    </clipPath>
    <clipPath
       clipPathUnits="userSpaceOnUse"
       id="clipPath21">
      <path
         d="m 3.125,0 h 1050 v 680 h -1050 z"
         transform="matrix(0.33763964,0,0,0.33763964,-22.631005,-102.55466)"
         clip-rule="evenodd"
         id="path21" />
    </clipPath>
    <clipPath
       clipPathUnits="userSpaceOnUse"
       id="clipPath22">
      <path
         d="m 3.125,0 h 1050 v 680 h -1050 z"
         transform="matrix(0.33763964,0,0,0.33763964,-4.6153803,-118.55466)"
         clip-rule="evenodd"
         id="path22" />
    </clipPath>
    <clipPath
       clipPathUnits="userSpaceOnUse"
       id="clipPath23">
      <path
         d="m 3.125,0 h 1050 v 680 h -1050 z"
         transform="matrix(0.33763964,0,0,0.33763964,-198.72476,-118.55466)"
         clip-rule="evenodd"
         id="path23" />
    </clipPath>
    <clipPath
       clipPathUnits="userSpaceOnUse"
       id="clipPath24">
      <path
         d="m 3.125,0 h 1050 v 680 h -1050 z"
         transform="matrix(0.33763964,0,0,0.33763964,-202.72476,-118.55466)"
         clip-rule="evenodd"
         id="path24" />
    </clipPath>
    <clipPath
       clipPathUnits="userSpaceOnUse"
       id="clipPath25">
      <path
         d="m 3.125,0 h 1050 v 680 h -1050 z"
         transform="matrix(0.33763964,0,0,0.33763964,-212.72476,-118.55466)"
         clip-rule="evenodd"
         id="path25" />
    </clipPath>
    <clipPath
       clipPathUnits="userSpaceOnUse"
       id="clipPath26">
      <path
         d="m 3.125,0 h 1050 v 680 h -1050 z"
         transform="matrix(0.33763964,0,0,0.33763964,-216.72476,-118.55466)"
         clip-rule="evenodd"
         id="path26" />
    </clipPath>
    <clipPath
       clipPathUnits="userSpaceOnUse"
       id="clipPath27">
      <path
         d="m 3.125,0 h 1050 v 680 h -1050 z"
         transform="matrix(0.33763964,0,0,0.33763964,-220.06851,-118.55466)"
         clip-rule="evenodd"
         id="path27" />
    </clipPath>
    <clipPath
       clipPathUnits="userSpaceOnUse"
       id="clipPath28">
      <path
         d="m 3.125,0 h 1050 v 680 h -1050 z"
         transform="matrix(0.33763964,0,0,0.33763964,-265.42788,-118.55466)"
         clip-rule="evenodd"
         id="path28" />
    </clipPath>
    <clipPath
       clipPathUnits="userSpaceOnUse"
       id="clipPath29">
      <path
         d="m 3.125,0 h 1050 v 680 h -1050 z"
         transform="matrix(0.33763964,0,0,0.33763964,-4.6153803,-135.55466)"
         clip-rule="evenodd"
         id="path29" />
    </clipPath>
    <clipPath
       clipPathUnits="userSpaceOnUse"
       id="clipPath30">
      <path
         d="m 3.125,0 h 1050 v 680 h -1050 z"
         transform="matrix(0.33763964,0,0,0.33763964,-201.38101,-135.55466)"
         clip-rule="evenodd"
         id="path30" />
    </clipPath>
    <clipPath
       clipPathUnits="userSpaceOnUse"
       id="clipPath31">
      <path
         d="m 3.125,0 h 1050 v 680 h -1050 z"
         transform="matrix(0.33763964,0,0,0.33763964,-205.38101,-135.55466)"
         clip-rule="evenodd"
         id="path31" />
    </clipPath>
    <clipPath
       clipPathUnits="userSpaceOnUse"
       id="clipPath32">
      <path
         d="m 3.125,0 h 1050 v 680 h -1050 z"
         transform="matrix(0.33763964,0,0,0.33763964,-215.38101,-135.55466)"
         clip-rule="evenodd"
         id="path32" />
    </clipPath>
    <clipPath
       clipPathUnits="userSpaceOnUse"
       id="clipPath33">
      <path
         d="m 3.125,0 h 1050 v 680 h -1050 z"
         transform="matrix(0.33763964,0,0,0.33763964,-219.38101,-135.55466)"
         clip-rule="evenodd"
         id="path33" />
    </clipPath>
    <clipPath
       clipPathUnits="userSpaceOnUse"
       id="clipPath34">
      <path
         d="m 3.125,0 h 1050 v 680 h -1050 z"
         transform="matrix(0.33763964,0,0,0.33763964,-222.72476,-135.55466)"
         clip-rule="evenodd"
         id="path34" />
    </clipPath>
    <clipPath
       clipPathUnits="userSpaceOnUse"
       id="clipPath35">
      <path
         d="m 3.125,0 h 1050 v 680 h -1050 z"
         transform="matrix(0.33763964,0,0,0.33763964,-233.74039,-135.55466)"
         clip-rule="evenodd"
         id="path35" />
    </clipPath>
    <clipPath
       clipPathUnits="userSpaceOnUse"
       id="clipPath36">
      <path
         d="m 3.125,0 h 1050 v 680 h -1050 z"
         transform="matrix(0.33763964,0,0,0.33763964,-4.6153803,-152.55466)"
         clip-rule="evenodd"
         id="path36" />
    </clipPath>
    <clipPath
       clipPathUnits="userSpaceOnUse"
       id="clipPath37">
      <path
         d="m 3.125,0 h 1050 v 680 h -1050 z"
         transform="matrix(0.33763964,0,0,0.33763964,-87.33413,-152.55466)"
         clip-rule="evenodd"
         id="path37" />
    </clipPath>
    <clipPath
       clipPathUnits="userSpaceOnUse"
       id="clipPath38">
      <path
         d="m 3.125,0 h 1050 v 680 h -1050 z"
         transform="matrix(0.33763964,0,0,0.33763964,-94.349761,-152.55466)"
         clip-rule="evenodd"
         id="path38" />
    </clipPath>
    <clipPath
       clipPathUnits="userSpaceOnUse"
       id="clipPath39">
      <path
         d="m 3.125,0 h 1050 v 680 h -1050 z"
         transform="matrix(0.33763964,0,0,0.33763964,-4.6153803,-169.55466)"
         clip-rule="evenodd"
         id="path39" />
    </clipPath>
    <clipPath
       clipPathUnits="userSpaceOnUse"
       id="clipPath40">
      <path
         d="m 3.125,0 h 1050 v 680 h -1050 z"
         transform="matrix(0.33763964,0,0,0.33763964,-19.95913,-169.55466)"
         clip-rule="evenodd"
         id="path40" />
    </clipPath>
    <clipPath
       clipPathUnits="userSpaceOnUse"
       id="clipPath41">
      <path
         d="m 3.125,0 h 1050 v 680 h -1050 z"
         transform="matrix(0.33763964,0,0,0.33763964,-4.6153803,-186.55466)"
         clip-rule="evenodd"
         id="path41" />
    </clipPath>
    <clipPath
       clipPathUnits="userSpaceOnUse"
       id="clipPath42">
      <path
         d="m 3.125,0 h 1050 v 680 h -1050 z"
         transform="matrix(0.33763964,0,0,0.33763964,-4.6153803,-203.55466)"
         clip-rule="evenodd"
         id="path42" />
    </clipPath>
  </defs>
  <g
     id="g1">
    <path
       id="path1"
       d="M 0,0 H 338 V 218 H 0 Z"
       style="fill:#ffffff;fill-opacity:1;fill-rule:nonzero;stroke:none"
       clip-path="url(#clipPath2)" />
    <path
       id="path3"
       d="m 125,4787 h 350 v 220 H 125 Z"
       style="fill:#ffffff;fill-opacity:1;fill-rule:nonzero;stroke:#000000;stroke-width:1;stroke-linecap:butt;stroke-linejoin:miter;stroke-miterlimit:10;stroke-dasharray:none;stroke-opacity:1"
       transform="matrix(0.94775599,0,0,0.94775599,-115.51688,-4534.9601)"
       clip-path="url(#clipPath4)" />
    <text
       id="text4"
       xml:space="preserve"
       transform="matrix(0.94775599,0,0,0.94775599,129.86307,18.533045)"
       clip-path="url(#clipPath5)"><tspan
         id="tspan4"
         style="font-style:italic;font-variant:normal;font-weight:normal;font-size:12px;font-family:Arial;writing-mode:lr-tb;fill:#000000;fill-opacity:1;fill-rule:nonzero;stroke:none"
         x="0"
         y="0">requirements</tspan></text>
    <text
       id="text5"
       xml:space="preserve"
       transform="matrix(0.94775599,0,0,0.94775599,4.3742543,32.749385)"
       clip-path="url(#clipPath6)"><tspan
         id="tspan5"
         style="font-variant:normal;font-weight:700;font-size:12px;font-family:Arial;writing-mode:lr-tb;fill:#000000;fill-opacity:1;fill-rule:nonzero;stroke:none"
         x="0"
         y="0">^</tspan></text>
    <text
       id="text6"
       xml:space="preserve"
       transform="matrix(0.94775599,0,0,0.94775599,11.023355,32.749385)"
       clip-path="url(#clipPath7)"><tspan
         id="tspan6"
         style="font-variant:normal;font-weight:normal;font-size:12px;font-family:Arial;writing-mode:lr-tb;fill:#000000;fill-opacity:1;fill-rule:nonzero;stroke:none"
         x="0"
         y="0">requirement2 : RequirementDef2</tspan></text>
    <text
       id="text7"
       xml:space="preserve"
       transform="matrix(0.94775599,0,0,0.94775599,4.3742543,48.861237)"
       clip-path="url(#clipPath8)"><tspan
         id="tspan7"
         style="font-variant:normal;font-weight:normal;font-size:12px;font-family:Arial;writing-mode:lr-tb;fill:#000000;fill-opacity:1;fill-rule:nonzero;stroke:none"
         x="0"
         y="0">requirement1 : RequirementDef1 </tspan></text>
    <text
       id="text8"
       xml:space="preserve"
       transform="matrix(0.94775599,0,0,0.94775599,173.16367,48.861237)"
       clip-path="url(#clipPath9)"><tspan
         id="tspan8"
         style="font-variant:normal;font-weight:700;font-size:12px;font-family:Arial;writing-mode:lr-tb;fill:#000000;fill-opacity:1;fill-rule:nonzero;stroke:none"
         x="0"
         y="0">[</tspan></text>
    <text
       id="text9"
       xml:space="preserve"
       transform="matrix(0.94775599,0,0,0.94775599,176.9547,48.861237)"
       clip-path="url(#clipPath10)"><tspan
         id="tspan9"
         style="font-variant:normal;font-weight:normal;font-size:12px;font-family:Arial;writing-mode:lr-tb;fill:#000000;fill-opacity:1;fill-rule:nonzero;stroke:none"
         x="0"
         y="0">1..*</tspan></text>
    <text
       id="text10"
       xml:space="preserve"
       transform="matrix(0.94775599,0,0,0.94775599,194.02912,48.861237)"
       clip-path="url(#clipPath11)"><tspan
         id="tspan10"
         style="font-variant:normal;font-weight:700;font-size:12px;font-family:Arial;writing-mode:lr-tb;fill:#000000;fill-opacity:1;fill-rule:nonzero;stroke:none"
         x="0"
         y="0">]</tspan></text>
    <text
       id="text11"
       xml:space="preserve"
       transform="matrix(0.94775599,0,0,0.94775599,197.82014,48.861237)"
       clip-path="url(#clipPath12)"><tspan
         id="tspan11"
         style="font-variant:normal;font-weight:normal;font-size:12px;font-family:Arial;writing-mode:lr-tb;fill:#000000;fill-opacity:1;fill-rule:nonzero;stroke:none"
         x="0"
         y="0"> </tspan></text>
    <text
       id="text12"
       xml:space="preserve"
       transform="matrix(0.94775599,0,0,0.94775599,200.9892,48.861237)"
       clip-path="url(#clipPath13)"><tspan
         id="tspan12"
         style="font-variant:normal;font-weight:700;font-size:12px;font-family:Arial;writing-mode:lr-tb;fill:#000000;fill-opacity:1;fill-rule:nonzero;stroke:none"
         x="0"
         y="0">ordered nonunique</tspan></text>
    <g
       id="g13" />
    <text
       id="text13"
       xml:space="preserve"
       transform="matrix(0.94775599,0,0,0.94775599,4.3742543,64.973089)"
       clip-path="url(#clipPath14)"><tspan
         id="tspan13"
         style="font-variant:normal;font-weight:normal;font-size:12px;font-family:Arial;writing-mode:lr-tb;fill:#000000;fill-opacity:1;fill-rule:nonzero;stroke:none"
         x="0"
         y="0">requirement3R : RequirementDef3R </tspan></text>
    <text
       id="text14"
       xml:space="preserve"
       transform="matrix(0.94775599,0,0,0.94775599,189.58651,64.973089)"
       clip-path="url(#clipPath15)"><tspan
         id="tspan14"
         style="font-variant:normal;font-weight:700;font-size:12px;font-family:Arial;writing-mode:lr-tb;fill:#000000;fill-opacity:1;fill-rule:nonzero;stroke:none"
         x="0"
         y="0">redefines</tspan></text>
    <text
       id="text15"
       xml:space="preserve"
       transform="matrix(0.94775599,0,0,0.94775599,240.15817,64.973089)"
       clip-path="url(#clipPath16)"><tspan
         id="tspan15"
         style="font-variant:normal;font-weight:normal;font-size:12px;font-family:Arial;writing-mode:lr-tb;fill:#000000;fill-opacity:1;fill-rule:nonzero;stroke:none"
         x="0"
         y="0"> requirement3</tspan></text>
    <text
       id="text16"
       xml:space="preserve"
       transform="matrix(0.94775599,0,0,0.94775599,4.3742543,81.08494)"
       clip-path="url(#clipPath17)"><tspan
         id="tspan16"
         style="font-variant:normal;font-weight:normal;font-size:12px;font-family:Arial;writing-mode:lr-tb;fill:#000000;fill-opacity:1;fill-rule:nonzero;stroke:none"
         x="0"
         y="0">requirement4R : RequirementDef4R </tspan></text>
    <text
       id="text17"
       xml:space="preserve"
       transform="matrix(0.94775599,0,0,0.94775599,189.58651,81.08494)"
       clip-path="url(#clipPath18)"><tspan
         id="tspan17"
         style="font-variant:normal;font-weight:700;font-size:12px;font-family:Arial;writing-mode:lr-tb;fill:#000000;fill-opacity:1;fill-rule:nonzero;stroke:none"
         x="0"
         y="0">:&gt;&gt;</tspan></text>
    <text
       id="text18"
       xml:space="preserve"
       transform="matrix(0.94775599,0,0,0.94775599,206.66092,81.08494)"
       clip-path="url(#clipPath19)"><tspan
         id="tspan18"
         style="font-variant:normal;font-weight:normal;font-size:12px;font-family:Arial;writing-mode:lr-tb;fill:#000000;fill-opacity:1;fill-rule:nonzero;stroke:none"
         x="0"
         y="0"> requirement4</tspan></text>
    <text
       id="text19"
       xml:space="preserve"
       transform="matrix(0.94775599,0,0,0.94775599,4.3742543,97.196792)"
       clip-path="url(#clipPath20)"><tspan
         id="tspan19"
         style="font-variant:normal;font-weight:700;font-size:12px;font-family:Arial;writing-mode:lr-tb;fill:#000000;fill-opacity:1;fill-rule:nonzero;stroke:none"
         x="0"
         y="0">:&gt;&gt;</tspan></text>
    <text
       id="text20"
       xml:space="preserve"
       transform="matrix(0.94775599,0,0,0.94775599,21.448671,97.196792)"
       clip-path="url(#clipPath21)"><tspan
         id="tspan20"
         style="font-variant:normal;font-weight:normal;font-size:12px;font-family:Arial;writing-mode:lr-tb;fill:#000000;fill-opacity:1;fill-rule:nonzero;stroke:none"
         x="0"
         y="0"> requirement5</tspan></text>
    <text
       id="text21"
       xml:space="preserve"
       transform="matrix(0.94775599,0,0,0.94775599,4.3742543,112.36089)"
       clip-path="url(#clipPath22)"><tspan
         id="tspan21"
         style="font-variant:normal;font-weight:normal;font-size:12px;font-family:Arial;writing-mode:lr-tb;fill:#000000;fill-opacity:1;fill-rule:nonzero;stroke:none"
         x="0"
         y="0">requirement6S : RequirementDef6S </tspan></text>
    <text
       id="text22"
       xml:space="preserve"
       transform="matrix(0.94775599,0,0,0.94775599,188.34258,112.36089)"
       clip-path="url(#clipPath23)"><tspan
         id="tspan22"
         style="font-variant:normal;font-weight:700;font-size:12px;font-family:Arial;writing-mode:lr-tb;fill:#000000;fill-opacity:1;fill-rule:nonzero;stroke:none"
         x="0"
         y="0">[</tspan></text>
    <text
       id="text23"
       xml:space="preserve"
       transform="matrix(0.94775599,0,0,0.94775599,192.13361,112.36089)"
       clip-path="url(#clipPath24)"><tspan
         id="tspan23"
         style="font-variant:normal;font-weight:normal;font-size:12px;font-family:Arial;writing-mode:lr-tb;fill:#000000;fill-opacity:1;fill-rule:nonzero;stroke:none"
         x="0"
         y="0">m</tspan></text>
    <text
       id="text24"
       xml:space="preserve"
       transform="matrix(0.94775599,0,0,0.94775599,201.61117,112.36089)"
       clip-path="url(#clipPath25)"><tspan
         id="tspan24"
         style="font-variant:normal;font-weight:700;font-size:12px;font-family:Arial;writing-mode:lr-tb;fill:#000000;fill-opacity:1;fill-rule:nonzero;stroke:none"
         x="0"
         y="0">]</tspan></text>
    <g
       id="g25" />
    <text
       id="text25"
       xml:space="preserve"
       transform="matrix(0.94775599,0,0,0.94775599,205.40219,112.36089)"
       clip-path="url(#clipPath26)"><tspan
         id="tspan25"
         style="font-variant:normal;font-weight:normal;font-size:12px;font-family:Arial;writing-mode:lr-tb;fill:#000000;fill-opacity:1;fill-rule:nonzero;stroke:none"
         x="0"
         y="0"> </tspan></text>
    <text
       id="text26"
       xml:space="preserve"
       transform="matrix(0.94775599,0,0,0.94775599,208.57125,112.36089)"
       clip-path="url(#clipPath27)"><tspan
         id="tspan26"
         style="font-variant:normal;font-weight:700;font-size:12px;font-family:Arial;writing-mode:lr-tb;fill:#000000;fill-opacity:1;fill-rule:nonzero;stroke:none"
         x="0"
         y="0">subsets</tspan></text>
    <text
       id="text27"
       xml:space="preserve"
       transform="matrix(0.94775599,0,0,0.94775599,251.56086,112.36089)"
       clip-path="url(#clipPath28)"><tspan
         id="tspan27"
         style="font-variant:normal;font-weight:normal;font-size:12px;font-family:Arial;writing-mode:lr-tb;fill:#000000;fill-opacity:1;fill-rule:nonzero;stroke:none"
         x="0"
         y="0"> requirement6</tspan></text>
    <text
       id="text28"
       xml:space="preserve"
       transform="matrix(0.94775599,0,0,0.94775599,4.3742543,128.47274)"
       clip-path="url(#clipPath29)"><tspan
         id="tspan28"
         style="font-variant:normal;font-weight:normal;font-size:12px;font-family:Arial;writing-mode:lr-tb;fill:#000000;fill-opacity:1;fill-rule:nonzero;stroke:none"
         x="0"
         y="0">requirement7S : ReqiuirementDef7S </tspan></text>
    <text
       id="text29"
       xml:space="preserve"
       transform="matrix(0.94775599,0,0,0.94775599,190.86006,128.47274)"
       clip-path="url(#clipPath30)"><tspan
         id="tspan29"
         style="font-variant:normal;font-weight:700;font-size:12px;font-family:Arial;writing-mode:lr-tb;fill:#000000;fill-opacity:1;fill-rule:nonzero;stroke:none"
         x="0"
         y="0">[</tspan></text>
    <text
       id="text30"
       xml:space="preserve"
       transform="matrix(0.94775599,0,0,0.94775599,194.65108,128.47274)"
       clip-path="url(#clipPath31)"><tspan
         id="tspan30"
         style="font-variant:normal;font-weight:normal;font-size:12px;font-family:Arial;writing-mode:lr-tb;fill:#000000;fill-opacity:1;fill-rule:nonzero;stroke:none"
         x="0"
         y="0">m</tspan></text>
    <text
       id="text31"
       xml:space="preserve"
       transform="matrix(0.94775599,0,0,0.94775599,204.12864,128.47274)"
       clip-path="url(#clipPath32)"><tspan
         id="tspan31"
         style="font-variant:normal;font-weight:700;font-size:12px;font-family:Arial;writing-mode:lr-tb;fill:#000000;fill-opacity:1;fill-rule:nonzero;stroke:none"
         x="0"
         y="0">]</tspan></text>
    <text
       id="text32"
       xml:space="preserve"
       transform="matrix(0.94775599,0,0,0.94775599,207.91967,128.47274)"
       clip-path="url(#clipPath33)"><tspan
         id="tspan32"
         style="font-variant:normal;font-weight:normal;font-size:12px;font-family:Arial;writing-mode:lr-tb;fill:#000000;fill-opacity:1;fill-rule:nonzero;stroke:none"
         x="0"
         y="0"> </tspan></text>
    <text
       id="text33"
       xml:space="preserve"
       transform="matrix(0.94775599,0,0,0.94775599,211.08873,128.47274)"
       clip-path="url(#clipPath34)"><tspan
         id="tspan33"
         style="font-variant:normal;font-weight:700;font-size:12px;font-family:Arial;writing-mode:lr-tb;fill:#000000;fill-opacity:1;fill-rule:nonzero;stroke:none"
         x="0"
         y="0">:&gt;</tspan></text>
    <text
       id="text34"
       xml:space="preserve"
       transform="matrix(0.94775599,0,0,0.94775599,221.52885,128.47274)"
       clip-path="url(#clipPath35)"><tspan
         id="tspan34"
         style="font-variant:normal;font-weight:normal;font-size:12px;font-family:Arial;writing-mode:lr-tb;fill:#000000;fill-opacity:1;fill-rule:nonzero;stroke:none"
         x="0"
         y="0"> requirement7</tspan></text>
    <text
       id="text35"
       xml:space="preserve"
       transform="matrix(0.94775599,0,0,0.94775599,4.3742543,144.58459)"
       clip-path="url(#clipPath36)"><tspan
         id="tspan35"
         style="font-variant:normal;font-weight:normal;font-size:12px;font-family:Arial;writing-mode:lr-tb;fill:#000000;fill-opacity:1;fill-rule:nonzero;stroke:none"
         x="0"
         y="0">requirement8R </tspan></text>
    <text
       id="text36"
       xml:space="preserve"
       transform="matrix(0.94775599,0,0,0.94775599,82.771445,144.58459)"
       clip-path="url(#clipPath37)"><tspan
         id="tspan36"
         style="font-variant:normal;font-weight:700;font-size:12px;font-family:Arial;writing-mode:lr-tb;fill:#000000;fill-opacity:1;fill-rule:nonzero;stroke:none"
         x="0"
         y="0">=</tspan></text>
    <text
       id="text37"
       xml:space="preserve"
       transform="matrix(0.94775599,0,0,0.94775599,89.420551,144.58459)"
       clip-path="url(#clipPath38)"><tspan
         id="tspan37"
         style="font-variant:normal;font-weight:normal;font-size:12px;font-family:Arial;writing-mode:lr-tb;fill:#000000;fill-opacity:1;fill-rule:nonzero;stroke:none"
         x="0"
         y="0"> requirement8</tspan></text>
    <text
       id="text38"
       xml:space="preserve"
       transform="matrix(0.94775599,0,0,0.94775599,4.3742543,160.69644)"
       clip-path="url(#clipPath39)"><tspan
         id="tspan38"
         style="font-variant:normal;font-weight:700;font-size:12px;font-family:Arial;writing-mode:lr-tb;fill:#000000;fill-opacity:1;fill-rule:nonzero;stroke:none"
         x="0"
         y="0">ref</tspan></text>
    <g
       id="g39" />
    <text
       id="text39"
       xml:space="preserve"
       transform="matrix(0.94775599,0,0,0.94775599,18.916385,160.69644)"
       clip-path="url(#clipPath40)"><tspan
         id="tspan39"
         style="font-variant:normal;font-weight:normal;font-size:12px;font-family:Arial;writing-mode:lr-tb;fill:#000000;fill-opacity:1;fill-rule:nonzero;stroke:none"
         x="0"
         y="0"> requirement9 : RequirementDef9</tspan></text>
    <text
       id="text40"
       xml:space="preserve"
       transform="matrix(0.94775599,0,0,0.94775599,4.3742543,176.8083)"
       clip-path="url(#clipPath41)"><tspan
         id="tspan40"
         style="font-variant:normal;font-weight:normal;font-size:12px;font-family:Arial;writing-mode:lr-tb;fill:#000000;fill-opacity:1;fill-rule:nonzero;stroke:none"
         x="0"
         dx="0 0 0 0 0 0 0 0 0 0 0 0 -0.8906247"
         y="0">requirement11</tspan></text>
    <text
       id="text41"
       xml:space="preserve"
       transform="matrix(0.94775599,0,0,0.94775599,4.3742543,192.92015)"
       clip-path="url(#clipPath42)"><tspan
         id="tspan41"
         style="font-variant:normal;font-weight:700;font-size:14px;font-family:Arial;writing-mode:lr-tb;fill:#000000;fill-opacity:1;fill-rule:nonzero;stroke:none"
         x="0"
         y="0">...</tspan></text>
  </g>
</svg>
