<?xml version="1.0" encoding="UTF-8" standalone="no"?>
<!-- Created with Inkscape (http://www.inkscape.org/) -->

<svg
   version="1.1"
   id="svg1"
   width="309.44"
   height="131.84"
   viewBox="0 0 309.44 131.84"
   xmlns="http://www.w3.org/2000/svg"
   xmlns:svg="http://www.w3.org/2000/svg">
  <defs
     id="defs1">
    <clipPath
       clipPathUnits="userSpaceOnUse"
       id="clipPath2">
      <path
         d="M 0,0 H 966.01563 V 410.98633 H 0 Z"
         transform="scale(0.31999999)"
         clip-rule="evenodd"
         id="path2" />
    </clipPath>
    <clipPath
       clipPathUnits="userSpaceOnUse"
       id="clipPath4">
      <path
         d="M 3.125,0 H 962.5 V 410.98633 H 3.125 Z"
         transform="matrix(0.33728197,0,0,0.33728197,695.88954,5016.0018)"
         clip-rule="evenodd"
         id="path4" />
    </clipPath>
    <clipPath
       clipPathUnits="userSpaceOnUse"
       id="clipPath5">
      <path
         d="M 3.125,0 H 962.5 V 410.98633 H 3.125 Z"
         transform="matrix(0.33728197,0,0,0.33728197,-210.53235,-108.49784)"
         clip-rule="evenodd"
         id="path5" />
    </clipPath>
    <clipPath
       clipPathUnits="userSpaceOnUse"
       id="clipPath6">
      <path
         d="M 3.125,0 H 962.5 V 410.98633 H 3.125 Z"
         transform="matrix(0.33728197,0,0,0.33728197,-214.96986,-128.49784)"
         clip-rule="evenodd"
         id="path6" />
    </clipPath>
    <clipPath
       clipPathUnits="userSpaceOnUse"
       id="clipPath8">
      <path
         d="M 3.125,0 H 962.5 V 410.98633 H 3.125 Z"
         transform="matrix(0.33728197,0,0,0.33728197,695.88954,5016.0018)"
         clip-rule="evenodd"
         id="path8" />
    </clipPath>
    <clipPath
       clipPathUnits="userSpaceOnUse"
       id="clipPath9">
      <path
         d="M 3.125,0 H 962.5 V 410.98633 H 3.125 Z"
         transform="matrix(0.33728197,0,0,0.33728197,-59.422971,-17.497838)"
         clip-rule="evenodd"
         id="path9" />
    </clipPath>
    <clipPath
       clipPathUnits="userSpaceOnUse"
       id="clipPath10">
      <path
         d="M 3.125,0 H 962.5 V 410.98633 H 3.125 Z"
         transform="matrix(0.33728197,0,0,0.33728197,-63.876101,-36.497839)"
         clip-rule="evenodd"
         id="path10" />
    </clipPath>
    <clipPath
       clipPathUnits="userSpaceOnUse"
       id="clipPath12">
      <path
         d="M 3.125,0 H 962.5 V 410.98633 H 3.125 Z"
         transform="matrix(0.33728197,0,0,0.33728197,695.88954,5016.0018)"
         clip-rule="evenodd"
         id="path12" />
    </clipPath>
    <clipPath
       clipPathUnits="userSpaceOnUse"
       id="clipPath13">
      <path
         d="M 3.125,0 H 962.5 V 410.98633 H 3.125 Z"
         transform="matrix(0.33728197,0,0,0.33728197,-5.6261019,-108.49784)"
         clip-rule="evenodd"
         id="path13" />
    </clipPath>
    <clipPath
       clipPathUnits="userSpaceOnUse"
       id="clipPath14">
      <path
         d="M 3.125,0 H 962.5 V 410.98633 H 3.125 Z"
         transform="matrix(0.33728197,0,0,0.33728197,-34.969852,-128.49784)"
         clip-rule="evenodd"
         id="path14" />
    </clipPath>
    <clipPath
       clipPathUnits="userSpaceOnUse"
       id="clipPath16">
      <path
         d="M 3.125,0 H 962.5 V 410.98633 H 3.125 Z"
         transform="matrix(0.33728197,0,0,0.33728197,695.88954,5016.0018)"
         clip-rule="evenodd"
         id="path16" />
    </clipPath>
    <clipPath
       clipPathUnits="userSpaceOnUse"
       id="clipPath18">
      <path
         d="M 3.125,0 H 962.5 V 410.98633 H 3.125 Z"
         transform="matrix(0.33728197,0,0,0.33728197,695.88954,5016.0018)"
         clip-rule="evenodd"
         id="path18" />
    </clipPath>
    <clipPath
       clipPathUnits="userSpaceOnUse"
       id="clipPath20">
      <path
         d="M 3.125,0 H 962.5 V 410.98633 H 3.125 Z"
         transform="matrix(0.33728197,0,0,0.33728197,695.88954,5016.0018)"
         clip-rule="evenodd"
         id="path20" />
    </clipPath>
    <clipPath
       clipPathUnits="userSpaceOnUse"
       id="clipPath22">
      <path
         d="M 3.125,0 H 962.5 V 410.98633 H 3.125 Z"
         transform="matrix(0.33728197,0,0,0.33728197,695.88954,5016.0018)"
         clip-rule="evenodd"
         id="path22" />
    </clipPath>
    <clipPath
       clipPathUnits="userSpaceOnUse"
       id="clipPath24">
      <path
         d="M 3.125,0 H 962.5 V 410.98633 H 3.125 Z"
         transform="matrix(0.33728197,0,0,0.33728197,695.88954,5016.0018)"
         clip-rule="evenodd"
         id="path24" />
    </clipPath>
    <clipPath
       clipPathUnits="userSpaceOnUse"
       id="clipPath26">
      <path
         d="M 3.125,0 H 962.5 V 410.98633 H 3.125 Z"
         transform="matrix(0.33728197,0,0,0.33728197,695.88954,5016.0018)"
         clip-rule="evenodd"
         id="path26" />
    </clipPath>
    <clipPath
       clipPathUnits="userSpaceOnUse"
       id="clipPath28">
      <path
         d="M 3.125,0 H 962.5 V 410.98633 H 3.125 Z"
         transform="matrix(0.33728197,0,0,0.33728197,695.88954,5016.0018)"
         clip-rule="evenodd"
         id="path28" />
    </clipPath>
    <clipPath
       clipPathUnits="userSpaceOnUse"
       id="clipPath30">
      <path
         d="M 3.125,0 H 962.5 V 410.98633 H 3.125 Z"
         transform="matrix(0.33728197,0,0,0.33728197,695.88954,5016.0018)"
         clip-rule="evenodd"
         id="path30" />
    </clipPath>
  </defs>
  <g
     id="g1">
    <path
       id="path1"
       d="M 0,0 H 309 V 132 H 0 Z"
       style="fill:#ffffff;fill-opacity:1;fill-rule:nonzero;stroke:none"
       clip-path="url(#clipPath2)" />
    <path
       id="path3"
       d="M 907.58002,5105.8398 H 1008.98 c 0.6106,0 1.2154,0.06 1.8143,0.1788 0.5988,0.1191 1.1804,0.2954 1.7445,0.5288 0.5642,0.2334 1.1002,0.5195 1.6079,0.8589 0.5077,0.3393 0.9775,0.7246 1.4093,1.1567 0.4318,0.4321 0.8173,0.9018 1.1565,1.4092 0.3393,0.5073 0.6258,1.0434 0.8595,1.6074 0.2337,0.5644 0.4101,1.146 0.5293,1.7451 0.1191,0.5991 0.1787,1.2041 0.1787,1.8149 v 27.8907 c 0,0.6103 -0.06,1.2148 -0.1787,1.8135 -0.1192,0.5991 -0.2956,1.1806 -0.5293,1.7446 -0.2337,0.5639 -0.5202,1.1001 -0.8594,1.6079 -0.3393,0.5078 -0.7248,0.9775 -1.1566,1.4097 -0.4318,0.4321 -0.9016,0.8173 -1.4093,1.1562 -0.5077,0.3394 -1.0437,0.626 -1.6079,0.8594 -0.5641,0.2339 -1.1457,0.4101 -1.7445,0.5298 -0.5989,0.1191 -1.2037,0.1787 -1.8143,0.1787 H 907.58002 c -0.61066,0 -1.21546,-0.06 -1.81439,-0.1787 -0.59894,-0.1197 -1.18055,-0.2959 -1.74469,-0.5298 -0.56415,-0.2334 -1.1001,-0.52 -1.60785,-0.8594 -0.50776,-0.3389 -0.97748,-0.7241 -1.40924,-1.1562 -0.43183,-0.4322 -0.81733,-0.9019 -1.15662,-1.4092 -0.33923,-0.5083 -0.62567,-1.044 -0.85938,-1.6079 -0.2337,-0.564 -0.41015,-1.1455 -0.52923,-1.7447 -0.11908,-0.5991 -0.17865,-1.2036 -0.17859,-1.8139 v -27.8907 c -6e-5,-0.6108 0.0595,-1.2158 0.17859,-1.8149 0.11908,-0.5991 0.29553,-1.1807 0.52923,-1.7446 0.23371,-0.564 0.52015,-1.1001 0.85944,-1.6079 0.33923,-0.5074 0.72473,-0.9771 1.15656,-1.4092 0.43176,-0.4321 0.90148,-0.8174 1.40924,-1.1567 0.50775,-0.3394 1.0437,-0.6255 1.60785,-0.8589 0.56414,-0.2334 1.14575,-0.4097 1.74469,-0.5288 0.59893,-0.1192 1.20373,-0.1788 1.81439,-0.1788 z"
       style="fill:#ffffff;fill-opacity:1;fill-rule:nonzero;stroke:#000000;stroke-width:1;stroke-linecap:butt;stroke-linejoin:miter;stroke-miterlimit:10;stroke-dasharray:none;stroke-opacity:1"
       transform="matrix(0.94876102,0,0,0.94876102,-660.23287,-4758.987)"
       clip-path="url(#clipPath4)" />
    <text
       id="text4"
       xml:space="preserve"
       transform="matrix(0.94876102,0,0,0.94876102,199.74489,102.93852)"
       clip-path="url(#clipPath5)"><tspan
         id="tspan4"
         style="font-variant:normal;font-weight:normal;font-size:16px;font-family:Arial;writing-mode:lr-tb;fill:#000000;fill-opacity:1;fill-rule:nonzero;stroke:none"
         x="0"
         y="0">«requirement»</tspan></text>
    <text
       id="text5"
       xml:space="preserve"
       transform="matrix(0.94876102,0,0,0.94876102,203.95502,121.91374)"
       clip-path="url(#clipPath6)"><tspan
         id="tspan5"
         style="font-variant:normal;font-weight:normal;font-size:16px;font-family:Arial;writing-mode:lr-tb;fill:#000000;fill-opacity:1;fill-rule:nonzero;stroke:none"
         x="0"
         y="0">requirement1</tspan></text>
    <path
       id="path7"
       d="m 726.44,5021.3701 h 103.12 c 0.48846,0 0.97229,0.047 1.45141,0.1426 0.47913,0.095 0.94434,0.2363 1.39563,0.4233 0.45136,0.187 0.88013,0.4161 1.28632,0.6875 0.40619,0.2715 0.78204,0.5801 1.1275,0.9258 0.3454,0.3452 0.65381,0.7212 0.92517,1.1275 0.27137,0.4057 0.50055,0.8344 0.6875,1.2861 0.18695,0.4507 0.32807,0.916 0.4234,1.395 0.0953,0.4795 0.14301,0.9634 0.14307,1.4522 v 22.31 c -6e-5,0.4883 -0.0477,0.9722 -0.14301,1.4517 -0.0954,0.479 -0.23651,0.9438 -0.42346,1.3955 -0.18695,0.4507 -0.41613,0.8794 -0.6875,1.2856 -0.27136,0.4063 -0.57977,0.7823 -0.92517,1.128 -0.34546,0.3452 -0.72125,0.6538 -1.12744,0.9253 -0.40619,0.2709 -0.83496,0.5 -1.28632,0.687 -0.45135,0.187 -0.91656,0.3286 -1.39569,0.4238 -0.47912,0.095 -0.96295,0.1431 -1.45141,0.1431 H 726.44 c -0.48852,0 -0.97235,-0.047 -1.45154,-0.1426 -0.47912,-0.096 -0.94433,-0.2373 -1.39569,-0.4243 -0.45135,-0.187 -0.88006,-0.4161 -1.28625,-0.687 -0.40619,-0.2715 -0.78204,-0.5801 -1.12744,-0.9253 -0.3454,-0.3457 -0.65387,-0.7217 -0.9253,-1.128 -0.27142,-0.4062 -0.50061,-0.8349 -0.68756,-1.2856 -0.18695,-0.4517 -0.32806,-0.917 -0.42334,-1.396 -0.0953,-0.479 -0.14294,-0.9629 -0.14288,-1.4512 v -22.31 c -6e-5,-0.4888 0.0476,-0.9727 0.14288,-1.4522 0.0953,-0.479 0.23639,-0.9443 0.42334,-1.3955 0.18695,-0.4512 0.4162,-0.8799 0.68763,-1.2861 0.27142,-0.4063 0.57983,-0.7823 0.92523,-1.1275 0.3454,-0.3457 0.72125,-0.6543 1.12744,-0.9258 0.40619,-0.2714 0.8349,-0.5004 1.28619,-0.687 0.45136,-0.187 0.91657,-0.3281 1.39575,-0.4233 0.47919,-0.095 0.96302,-0.1426 1.45154,-0.1426 z"
       style="fill:#ffffff;fill-opacity:1;fill-rule:nonzero;stroke:#000000;stroke-width:1;stroke-linecap:butt;stroke-linejoin:miter;stroke-miterlimit:10;stroke-dasharray:none;stroke-opacity:1"
       transform="matrix(0.94876102,0,0,0.94876102,-660.23287,-4758.987)"
       clip-path="url(#clipPath8)" />
    <text
       id="text8"
       xml:space="preserve"
       transform="matrix(0.94876102,0,0,0.94876102,56.378199,16.601267)"
       clip-path="url(#clipPath9)"><tspan
         id="tspan8"
         style="font-variant:normal;font-weight:normal;font-size:16px;font-family:Arial;writing-mode:lr-tb;fill:#000000;fill-opacity:1;fill-rule:nonzero;stroke:none"
         x="0"
         y="0">«part»</tspan></text>
    <text
       id="text9"
       xml:space="preserve"
       transform="matrix(0.94876102,0,0,0.94876102,60.603155,34.627727)"
       clip-path="url(#clipPath10)"><tspan
         id="tspan9"
         style="font-variant:normal;font-weight:normal;font-size:16px;font-family:Arial;writing-mode:lr-tb;fill:#000000;fill-opacity:1;fill-rule:nonzero;stroke:none"
         x="0"
         y="0">part1</tspan></text>
    <path
       id="path11"
       d="m 708.29999,5105.8398 h 139.40002 c 0.61066,0 1.2154,0.06 1.81421,0.1788 0.59894,0.1191 1.18042,0.2954 1.74457,0.5288 0.56415,0.2334 1.1001,0.5195 1.60785,0.8589 0.50775,0.3393 0.97754,0.7246 1.40936,1.1567 0.43182,0.4321 0.81732,0.9018 1.15656,1.4092 0.33929,0.5073 0.62573,1.0434 0.85937,1.6074 0.2337,0.5644 0.4101,1.146 0.52924,1.7451 0.1192,0.5991 0.17883,1.2041 0.17883,1.8149 v 27.8907 c 0,0.6103 -0.0596,1.2148 -0.17877,1.8135 -0.1192,0.5991 -0.29566,1.1806 -0.52936,1.7446 -0.23364,0.5639 -0.52008,1.1001 -0.85931,1.6079 -0.33924,0.5078 -0.72474,0.9775 -1.15656,1.4097 -0.43182,0.4321 -0.90161,0.8173 -1.40936,1.1562 -0.50775,0.3394 -1.04364,0.626 -1.60779,0.8594 -0.56415,0.2339 -1.14569,0.4101 -1.74463,0.5298 -0.59881,0.1191 -1.20355,0.1787 -1.81421,0.1787 H 708.29999 c -0.61066,0 -1.21546,-0.06 -1.81439,-0.1787 -0.59894,-0.1197 -1.18049,-0.2959 -1.74463,-0.5298 -0.56415,-0.2334 -1.1001,-0.52 -1.60785,-0.8594 -0.50775,-0.3389 -0.97754,-0.7241 -1.4093,-1.1562 -0.43177,-0.4322 -0.81726,-0.9019 -1.15656,-1.4092 -0.33929,-0.5083 -0.62573,-1.044 -0.85944,-1.6079 -0.2337,-0.564 -0.41015,-1.1455 -0.52923,-1.7447 -0.11908,-0.5991 -0.17865,-1.2036 -0.17859,-1.8139 v -27.8907 c -6e-5,-0.6108 0.0595,-1.2158 0.17859,-1.8149 0.11908,-0.5991 0.29553,-1.1807 0.52923,-1.7446 0.23371,-0.564 0.52015,-1.1001 0.85944,-1.6079 0.3393,-0.5074 0.72479,-0.9771 1.15656,-1.4092 0.43176,-0.4321 0.90155,-0.8174 1.4093,-1.1567 0.50775,-0.3394 1.0437,-0.6255 1.60785,-0.8589 0.56414,-0.2334 1.14569,-0.4097 1.74469,-0.5288 0.59887,-0.1192 1.20367,-0.1788 1.81433,-0.1788 z"
       style="fill:#ffffff;fill-opacity:1;fill-rule:nonzero;stroke:#000000;stroke-width:1;stroke-linecap:butt;stroke-linejoin:miter;stroke-miterlimit:10;stroke-dasharray:none;stroke-opacity:1"
       transform="matrix(0.94876102,0,0,0.94876102,-660.23287,-4758.987)"
       clip-path="url(#clipPath12)" />
    <text
       id="text12"
       xml:space="preserve"
       transform="matrix(0.94876102,0,0,0.94876102,5.3378262,102.93852)"
       clip-path="url(#clipPath13)"><tspan
         id="tspan12"
         style="font-variant:normal;font-weight:normal;font-size:16px;font-family:Arial;writing-mode:lr-tb;fill:#000000;fill-opacity:1;fill-rule:nonzero;stroke:none"
         x="0"
         y="0">«satisfy requirement»</tspan></text>
    <text
       id="text13"
       xml:space="preserve"
       transform="matrix(0.94876102,0,0,0.94876102,33.178032,121.91374)"
       clip-path="url(#clipPath14)"><tspan
         id="tspan13"
         style="font-variant:normal;font-weight:normal;font-size:16px;font-family:Arial;writing-mode:lr-tb;fill:#000000;fill-opacity:1;fill-rule:nonzero;stroke:none"
         x="0"
         y="0">requirement2</tspan></text>
    <path
       id="path15"
       d="m 778,5068.54 v 37.2998"
       style="fill:none;stroke:#000000;stroke-width:1;stroke-linecap:butt;stroke-linejoin:miter;stroke-miterlimit:10;stroke-dasharray:none;stroke-opacity:1"
       transform="matrix(0.94876102,0,0,0.94876102,-660.23287,-4758.987)"
       clip-path="url(#clipPath16)" />
    <path
       id="path17"
       d="m 778,5059.54 2.65002,4.5 -2.65002,4.5 -2.65002,-4.5 z"
       style="fill:none;stroke:#000000;stroke-width:1;stroke-linecap:butt;stroke-linejoin:miter;stroke-miterlimit:10;stroke-dasharray:none;stroke-opacity:1"
       transform="matrix(0.94876102,0,0,0.94876102,-660.23287,-4758.987)"
       clip-path="url(#clipPath18)" />
    <path
       id="path19"
       d="m 857,5129.0898 31.15997,-0.01"
       style="fill:none;stroke:#000000;stroke-width:1;stroke-linecap:butt;stroke-linejoin:miter;stroke-miterlimit:10;stroke-dasharray:none;stroke-opacity:1"
       transform="matrix(0.94876102,0,0,0.94876102,-660.23287,-4758.987)"
       clip-path="url(#clipPath20)" />
    <path
       id="path21"
       d="m 897.15997,5129.0801 -9,4.5 v -9 z"
       style="fill:none;stroke:#000000;stroke-width:1;stroke-linecap:butt;stroke-linejoin:miter;stroke-miterlimit:10;stroke-dasharray:none;stroke-opacity:1"
       transform="matrix(0.94876102,0,0,0.94876102,-660.23287,-4758.987)"
       clip-path="url(#clipPath22)" />
    <path
       id="path23"
       d="m 885.99945,5125.9902 c -6e-5,0.2461 -0.0473,0.4829 -0.14166,0.711 -0.0944,0.228 -0.2287,0.4292 -0.40302,0.6035 -0.17437,0.1743 -0.37549,0.3086 -0.60321,0.4028 -0.22784,0.094 -0.46502,0.1416 -0.71155,0.1421 -0.24664,-5e-4 -0.48382,-0.048 -0.71167,-0.1421 -0.22784,-0.094 -0.42889,-0.2285 -0.60327,-0.4028 -0.17437,-0.1743 -0.30871,-0.3755 -0.40313,-0.6035 -0.0943,-0.2281 -0.14142,-0.4649 -0.14136,-0.711 -6e-5,-0.2465 0.0471,-0.4839 0.14148,-0.7119 0.0943,-0.228 0.2287,-0.4287 0.40307,-0.603 0.17432,-0.1743 0.37537,-0.3091 0.60321,-0.4033 0.22785,-0.094 0.46503,-0.1411 0.71167,-0.1411 0.24653,0 0.48365,0.047 0.71143,0.1411 0.22784,0.094 0.42896,0.229 0.60333,0.4033 0.17432,0.1743 0.30866,0.375 0.40302,0.603 0.0944,0.228 0.1416,0.4654 0.14166,0.7119 z"
       style="fill:#000000;fill-opacity:1;fill-rule:nonzero;stroke:none"
       transform="matrix(0.94876102,0,0,0.94876102,-660.23287,-4758.987)"
       clip-path="url(#clipPath24)" />
    <path
       id="path25"
       d="m 885.99945,5132.5 c -6e-5,0.2466 -0.0473,0.4834 -0.14166,0.7104 -0.0944,0.2281 -0.2287,0.4297 -0.40302,0.6041 -0.17437,0.1743 -0.37549,0.3085 -0.60321,0.4028 -0.22784,0.094 -0.46502,0.1416 -0.71155,0.1421 -0.24664,-5e-4 -0.48382,-0.048 -0.71167,-0.1421 -0.22784,-0.094 -0.42889,-0.2285 -0.60327,-0.4028 -0.17437,-0.1744 -0.30871,-0.376 -0.40313,-0.6041 -0.0943,-0.227 -0.14142,-0.4638 -0.14136,-0.7104 -6e-5,-0.2471 0.0471,-0.4849 0.14148,-0.7129 0.0943,-0.2275 0.2287,-0.4282 0.40307,-0.6025 0.17432,-0.1743 0.37537,-0.3086 0.60321,-0.4029 0.22785,-0.094 0.46503,-0.1411 0.71167,-0.1411 0.24653,0 0.48365,0.047 0.71143,0.1411 0.22784,0.094 0.42896,0.2286 0.60333,0.4029 0.17432,0.1743 0.30866,0.375 0.40302,0.6025 0.0944,0.228 0.1416,0.4658 0.14166,0.7129 z"
       style="fill:#000000;fill-opacity:1;fill-rule:nonzero;stroke:none"
       transform="matrix(0.94876102,0,0,0.94876102,-660.23287,-4758.987)"
       clip-path="url(#clipPath26)" />
    <path
       id="path27"
       d="m 879.99945,5125.9902 c -6e-5,0.2461 -0.0473,0.4829 -0.14166,0.711 -0.0944,0.228 -0.22882,0.4292 -0.40308,0.6035 -0.17438,0.1743 -0.37543,0.3086 -0.60327,0.4028 -0.22772,0.094 -0.4649,0.1416 -0.71143,0.1421 -0.24664,-5e-4 -0.48382,-0.048 -0.7116,-0.1421 -0.22791,-0.094 -0.42902,-0.2285 -0.60334,-0.4028 -0.17437,-0.1743 -0.30877,-0.3755 -0.40307,-0.6035 -0.0944,-0.2281 -0.14148,-0.4649 -0.14142,-0.711 -6e-5,-0.2465 0.0471,-0.4839 0.14142,-0.7119 0.0944,-0.228 0.22876,-0.4287 0.40313,-0.603 0.17438,-0.1743 0.37543,-0.3091 0.60328,-0.4033 0.22778,-0.094 0.46496,-0.1411 0.7116,-0.1411 0.24653,0 0.48371,0.047 0.71143,0.1411 0.22784,0.094 0.42889,0.229 0.60327,0.4033 0.17426,0.1743 0.30866,0.375 0.40308,0.603 0.0944,0.228 0.1416,0.4654 0.14166,0.7119 z"
       style="fill:#000000;fill-opacity:1;fill-rule:nonzero;stroke:none"
       transform="matrix(0.94876102,0,0,0.94876102,-660.23287,-4758.987)"
       clip-path="url(#clipPath28)" />
    <path
       id="path29"
       d="m 879.99945,5132.5 c -6e-5,0.2466 -0.0473,0.4834 -0.14166,0.7104 -0.0944,0.2281 -0.22882,0.4297 -0.40308,0.6041 -0.17438,0.1743 -0.37543,0.3085 -0.60327,0.4028 -0.22772,0.094 -0.4649,0.1416 -0.71143,0.1421 -0.24664,-5e-4 -0.48382,-0.048 -0.7116,-0.1421 -0.22791,-0.094 -0.42902,-0.2285 -0.60334,-0.4028 -0.17437,-0.1744 -0.30877,-0.376 -0.40307,-0.6041 -0.0944,-0.227 -0.14148,-0.4638 -0.14142,-0.7104 -6e-5,-0.2471 0.0471,-0.4849 0.14142,-0.7129 0.0944,-0.2275 0.22876,-0.4282 0.40313,-0.6025 0.17438,-0.1743 0.37543,-0.3086 0.60328,-0.4029 0.22778,-0.094 0.46496,-0.1411 0.7116,-0.1411 0.24653,0 0.48371,0.047 0.71143,0.1411 0.22784,0.094 0.42889,0.2286 0.60327,0.4029 0.17426,0.1743 0.30866,0.375 0.40308,0.6025 0.0944,0.228 0.1416,0.4658 0.14166,0.7129 z"
       style="fill:#000000;fill-opacity:1;fill-rule:nonzero;stroke:none"
       transform="matrix(0.94876102,0,0,0.94876102,-660.23287,-4758.987)"
       clip-path="url(#clipPath30)" />
  </g>
</svg>
