<?xml version="1.0" encoding="UTF-8" standalone="no"?>
<!-- Created with Inkscape (http://www.inkscape.org/) -->

<svg
   version="1.1"
   id="svg1"
   width="252.16"
   height="89.279999"
   viewBox="0 0 252.16 89.279999"
   xmlns="http://www.w3.org/2000/svg"
   xmlns:svg="http://www.w3.org/2000/svg">
  <defs
     id="defs1">
    <clipPath
       clipPathUnits="userSpaceOnUse"
       id="clipPath2">
      <path
         d="M 0,0 H 789 V 279.00391 H 0 Z"
         transform="scale(0.31999999)"
         clip-rule="evenodd"
         id="path2" />
    </clipPath>
    <clipPath
       clipPathUnits="userSpaceOnUse"
       id="clipPath4">
      <path
         d="M 3.125,0 H 787.5 V 278.125 H 3.125 Z"
         transform="matrix(0.33786338,0,0,0.33786338,520.37989,10665.944)"
         clip-rule="evenodd"
         id="path4" />
    </clipPath>
    <clipPath
       clipPathUnits="userSpaceOnUse"
       id="clipPath6">
      <path
         d="M 3.125,0 H 787.5 V 278.125 H 3.125 Z"
         transform="matrix(0.33786338,0,0,0.33786338,520.37989,10665.944)"
         clip-rule="evenodd"
         id="path6" />
    </clipPath>
    <clipPath
       clipPathUnits="userSpaceOnUse"
       id="clipPath8">
      <path
         d="M 3.125,0 H 787.5 V 278.125 H 3.125 Z"
         transform="matrix(0.33786338,0,0,0.33786338,520.37989,10665.944)"
         clip-rule="evenodd"
         id="path8" />
    </clipPath>
    <clipPath
       clipPathUnits="userSpaceOnUse"
       id="clipPath9">
      <path
         d="M 3.125,0 H 787.5 V 278.125 H 3.125 Z"
         transform="matrix(0.33786338,0,0,0.33786338,-82.042045,-23.555355)"
         clip-rule="evenodd"
         id="path9" />
    </clipPath>
    <clipPath
       clipPathUnits="userSpaceOnUse"
       id="clipPath10">
      <path
         d="M 3.125,0 H 787.5 V 278.125 H 3.125 Z"
         transform="matrix(0.33786338,0,0,0.33786338,-17.120165,-42.555355)"
         clip-rule="evenodd"
         id="path10" />
    </clipPath>
    <clipPath
       clipPathUnits="userSpaceOnUse"
       id="clipPath11">
      <path
         d="m 243.05725,161.4707 h 301.89709 v 44.39649 H 243.05725 Z"
         transform="matrix(0.33786338,0,0,0.33786338,-82.432665,-65.555355)"
         clip-rule="evenodd"
         id="path11" />
    </clipPath>
    <clipPath
       clipPathUnits="userSpaceOnUse"
       id="clipPath12">
      <path
         d="M 26.993652,220.66602 H 65.470703 V 265.0625 H 26.993652 Z"
         transform="matrix(0.33786338,0,0,0.33786338,-9.1201646,-85.555355)"
         clip-rule="evenodd"
         id="path12" />
    </clipPath>
  </defs>
  <g
     id="g1">
    <path
       id="path1"
       d="M 0,0 H 252 V 89 H 0 Z"
       style="fill:#ffffff;fill-opacity:1;fill-rule:nonzero;stroke:none"
       clip-path="url(#clipPath2)" />
    <path
       id="path3"
       d="m 783.51001,10718 v -42.5 c 0,-5 -2.5,-7.5 -7.5,-7.5 h -245 c -5,0 -7.5,2.5 -7.5,7.5 v 42.5"
       style="fill:none;stroke:#000000;stroke-width:1;stroke-linecap:butt;stroke-linejoin:miter;stroke-miterlimit:10;stroke-dasharray:none;stroke-opacity:1"
       transform="matrix(0.94712834,0,0,0.94712834,-492.86654,-10102.018)"
       clip-path="url(#clipPath4)" />
    <path
       id="path5"
       d="m 523.51001,10718 v 32.5 c 0,5 2.5,7.5 7.5,7.5 h 245 c 5,0 7.5,-2.5 7.5,-7.5 v -32.5"
       style="fill:none;stroke:#000000;stroke-width:1;stroke-linecap:butt;stroke-linejoin:miter;stroke-miterlimit:10;stroke-dasharray:none;stroke-opacity:1"
       transform="matrix(0.94712834,0,0,0.94712834,-492.86654,-10102.018)"
       clip-path="url(#clipPath6)" />
    <path
       id="path7"
       d="m 523.51001,10718 h 260"
       style="fill:none;stroke:#000000;stroke-width:1;stroke-linecap:butt;stroke-linejoin:miter;stroke-miterlimit:10;stroke-dasharray:none;stroke-opacity:1"
       transform="matrix(0.94712834,0,0,0.94712834,-492.86654,-10102.018)"
       clip-path="url(#clipPath8)" />
    <text
       id="text8"
       xml:space="preserve"
       transform="matrix(0.94712834,0,0,0.94712834,77.704346,22.309944)"
       clip-path="url(#clipPath9)"><tspan
         id="tspan8"
         style="font-variant:normal;font-weight:normal;font-size:16px;font-family:Arial;writing-mode:lr-tb;fill:#000000;fill-opacity:1;fill-rule:nonzero;stroke:none"
         x="0"
         y="0">«requirement»</tspan></text>
    <text
       id="text9"
       xml:space="preserve"
       transform="matrix(0.94712834,0,0,0.94712834,16.214993,40.305383)"
       clip-path="url(#clipPath10)"><tspan
         id="tspan9"
         style="font-variant:normal;font-weight:normal;font-size:16px;font-family:Arial;writing-mode:lr-tb;fill:#000000;fill-opacity:1;fill-rule:nonzero;stroke:none"
         x="0"
         y="0">requirement1 : RequirementDef1</tspan></text>
    <text
       id="text10"
       xml:space="preserve"
       transform="matrix(0.94712834,0,0,0.94712834,78.074313,62.089335)"
       clip-path="url(#clipPath11)"><tspan
         id="tspan10"
         style="font-style:italic;font-variant:normal;font-weight:normal;font-size:12px;font-family:Arial;writing-mode:lr-tb;fill:#000000;fill-opacity:1;fill-rule:nonzero;stroke:none"
         x="0"
         y="0">compartment stack</tspan></text>
    <text
       id="text11"
       xml:space="preserve"
       transform="matrix(0.94712834,0,0,0.94712834,8.6379664,81.031901)"
       clip-path="url(#clipPath12)"><tspan
         id="tspan11"
         style="font-variant:normal;font-weight:normal;font-size:12px;font-family:Arial;writing-mode:lr-tb;fill:#000000;fill-opacity:1;fill-rule:nonzero;stroke:none"
         x="0"
         y="0">•••</tspan></text>
  </g>
</svg>
