<?xml version="1.0" encoding="UTF-8" standalone="no"?>
<!-- Created with Inkscape (http://www.inkscape.org/) -->

<svg
   version="1.1"
   id="svg1"
   width="252.16"
   height="249.27998"
   viewBox="0 0 252.16 249.27998"
   xmlns="http://www.w3.org/2000/svg"
   xmlns:svg="http://www.w3.org/2000/svg">
  <defs
     id="defs1">
    <clipPath
       clipPathUnits="userSpaceOnUse"
       id="clipPath2">
      <path
         d="M 0,0 H 789 V 779.98047 H 0 Z"
         transform="scale(0.31999999)"
         clip-rule="evenodd"
         id="path2" />
    </clipPath>
    <clipPath
       clipPathUnits="userSpaceOnUse"
       id="clipPath4">
      <path
         d="M 3.125,3.125 H 787.5 v 775 H 3.125 Z"
         transform="matrix(0.33781846,0,0,0.33781846,518.88758,10784.888)"
         clip-rule="evenodd"
         id="path4" />
    </clipPath>
    <clipPath
       clipPathUnits="userSpaceOnUse"
       id="clipPath6">
      <path
         d="M 3.125,3.125 H 787.5 v 775 H 3.125 Z"
         transform="matrix(0.33781846,0,0,0.33781846,518.88758,10784.888)"
         clip-rule="evenodd"
         id="path6" />
    </clipPath>
    <clipPath
       clipPathUnits="userSpaceOnUse"
       id="clipPath8">
      <path
         d="M 3.125,3.125 H 787.5 v 775 H 3.125 Z"
         transform="matrix(0.33781846,0,0,0.33781846,518.88758,10784.888)"
         clip-rule="evenodd"
         id="path8" />
    </clipPath>
    <clipPath
       clipPathUnits="userSpaceOnUse"
       id="clipPath9">
      <path
         d="M 3.125,3.125 H 787.5 v 775 H 3.125 Z"
         transform="matrix(0.33781846,0,0,0.33781846,-81.534289,-24.611945)"
         clip-rule="evenodd"
         id="path9" />
    </clipPath>
    <clipPath
       clipPathUnits="userSpaceOnUse"
       id="clipPath10">
      <path
         d="M 3.125,3.125 H 787.5 v 775 H 3.125 Z"
         transform="matrix(0.33781846,0,0,0.33781846,-16.612409,-43.611946)"
         clip-rule="evenodd"
         id="path10" />
    </clipPath>
    <clipPath
       clipPathUnits="userSpaceOnUse"
       id="clipPath11">
      <path
         d="m 362.95349,167.58008 h 59.20349 v 44.40234 h -59.20349 z"
         transform="matrix(0.33781846,0,0,0.33781846,-122.92491,-67.611945)"
         clip-rule="evenodd"
         id="path11" />
    </clipPath>
    <clipPath
       clipPathUnits="userSpaceOnUse"
       id="clipPath12">
      <path
         d="m 25.494141,229.74414 h 38.4823 v 44.40234 h -38.4823 z"
         transform="matrix(0.33781846,0,0,0.33781846,-8.6124095,-88.611945)"
         clip-rule="evenodd"
         id="path12" />
    </clipPath>
    <clipPath
       clipPathUnits="userSpaceOnUse"
       id="clipPath14">
      <path
         d="M 3.125,3.125 H 787.5 v 775 H 3.125 Z"
         transform="matrix(0.33781846,0,0,0.33781846,518.88758,10784.888)"
         clip-rule="evenodd"
         id="path14" />
    </clipPath>
    <clipPath
       clipPathUnits="userSpaceOnUse"
       id="clipPath15">
      <path
         d="M 336.31201,300.78906 H 448.79846 V 345.1914 H 336.31201 Z"
         transform="matrix(0.33781846,0,0,0.33781846,-113.59679,-112.61195)"
         clip-rule="evenodd"
         id="path15" />
    </clipPath>
    <clipPath
       clipPathUnits="userSpaceOnUse"
       id="clipPath16">
      <path
         d="M 25.494141,362.95117 H 436.95776 v 44.4043 H 25.494141 Z"
         transform="matrix(0.33781846,0,0,0.33781846,-8.6124095,-133.61195)"
         clip-rule="evenodd"
         id="path16" />
    </clipPath>
    <clipPath
       clipPathUnits="userSpaceOnUse"
       id="clipPath17">
      <path
         d="M 25.494141,362.95117 H 436.95776 v 44.4043 H 25.494141 Z"
         transform="matrix(0.33781846,0,0,0.33781846,-61.971789,-133.61195)"
         clip-rule="evenodd"
         id="path17" />
    </clipPath>
    <clipPath
       clipPathUnits="userSpaceOnUse"
       id="clipPath19">
      <path
         d="M 3.125,3.125 H 787.5 v 775 H 3.125 Z"
         transform="matrix(0.33781846,0,0,0.33781846,518.88758,10784.888)"
         clip-rule="evenodd"
         id="path19" />
    </clipPath>
    <clipPath
       clipPathUnits="userSpaceOnUse"
       id="clipPath20">
      <path
         d="M 19.573853,425.11523 H 765.53674 v 59.20312 H 19.573853 Z"
         transform="matrix(0.31999999,0,0,0.31999999,-78.88285,-150.24439)"
         clip-rule="evenodd"
         id="path20" />
    </clipPath>
    <clipPath
       clipPathUnits="userSpaceOnUse"
       id="clipPath21">
      <path
         d="M 19.573853,484.31836 H 765.53674 v 85.8457 H 19.573853 Z"
         transform="matrix(0.31999999,0,0,0.31999999,-8.1484825,-167.29129)"
         clip-rule="evenodd"
         id="path21" />
    </clipPath>
    <clipPath
       clipPathUnits="userSpaceOnUse"
       id="clipPath22">
      <path
         d="M 19.573853,484.31836 H 765.53674 v 85.8457 H 19.573853 Z"
         transform="matrix(0.31999999,0,0,0.31999999,-8.1484825,-180.55689)"
         clip-rule="evenodd"
         id="path22" />
    </clipPath>
    <clipPath
       clipPathUnits="userSpaceOnUse"
       id="clipPath24">
      <path
         d="M 3.125,3.125 H 787.5 v 775 H 3.125 Z"
         transform="matrix(0.33781846,0,0,0.33781846,518.88758,10784.888)"
         clip-rule="evenodd"
         id="path24" />
    </clipPath>
    <clipPath
       clipPathUnits="userSpaceOnUse"
       id="clipPath25">
      <path
         d="M 19.573853,582.00391 H 765.53674 v 59.20313 H 19.573853 Z"
         transform="matrix(0.31999999,0,0,0.31999999,-76.67973,-200.44749)"
         clip-rule="evenodd"
         id="path25" />
    </clipPath>
    <clipPath
       clipPathUnits="userSpaceOnUse"
       id="clipPath26">
      <path
         d="M 19.573853,641.20703 H 765.53674 V 768.49609 H 19.573853 Z"
         transform="matrix(0.31999999,0,0,0.31999999,-8.1484825,-223.65069)"
         clip-rule="evenodd"
         id="path26" />
    </clipPath>
    <clipPath
       clipPathUnits="userSpaceOnUse"
       id="clipPath27">
      <path
         d="M 19.573853,641.20703 H 765.53674 V 768.49609 H 19.573853 Z"
         transform="matrix(0.31999999,0,0,0.31999999,-8.1484825,-236.91629)"
         clip-rule="evenodd"
         id="path27" />
    </clipPath>
  </defs>
  <g
     id="g1">
    <path
       id="path1"
       d="M 0,0 H 252 V 250 H 0 Z"
       style="fill:#ffffff;fill-opacity:1;fill-rule:nonzero;stroke:none"
       clip-path="url(#clipPath2)" />
    <path
       id="path3"
       d="m 782,10839 v -43.35 c 0,-5.1 -2.54999,-7.65 -7.65002,-7.65 H 529.65002 c -5.10003,0 -7.65002,2.55 -7.65002,7.65 v 43.35"
       style="fill:none;stroke:#000000;stroke-width:1;stroke-linecap:butt;stroke-linejoin:miter;stroke-miterlimit:10;stroke-dasharray:none;stroke-opacity:1"
       transform="matrix(0.9472543,0,0,0.9472543,-491.51849,-10216.032)"
       clip-path="url(#clipPath4)" />
    <path
       id="path5"
       d="m 522,10839 v 198.35 c 0,5.1 2.54999,7.65 7.65002,7.65 h 244.69996 c 5.10003,0 7.65002,-2.55 7.65002,-7.65 V 10839"
       style="fill:none;stroke:#000000;stroke-width:1;stroke-linecap:butt;stroke-linejoin:miter;stroke-miterlimit:10;stroke-dasharray:none;stroke-opacity:1"
       transform="matrix(0.9472543,0,0,0.9472543,-491.51849,-10216.032)"
       clip-path="url(#clipPath6)" />
    <path
       id="path7"
       d="M 522,10839 H 782"
       style="fill:none;stroke:#000000;stroke-width:1;stroke-linecap:butt;stroke-linejoin:miter;stroke-miterlimit:10;stroke-dasharray:none;stroke-opacity:1"
       transform="matrix(0.9472543,0,0,0.9472543,-491.51849,-10216.032)"
       clip-path="url(#clipPath8)" />
    <text
       id="text8"
       xml:space="preserve"
       transform="matrix(0.9472543,0,0,0.9472543,77.233706,23.313771)"
       clip-path="url(#clipPath9)"><tspan
         id="tspan8"
         style="font-variant:normal;font-weight:normal;font-size:16px;font-family:Arial;writing-mode:lr-tb;fill:#000000;fill-opacity:1;fill-rule:nonzero;stroke:none"
         x="0"
         y="0">«requirement»</tspan></text>
    <text
       id="text9"
       xml:space="preserve"
       transform="matrix(0.9472543,0,0,0.9472543,15.736176,41.311603)"
       clip-path="url(#clipPath10)"><tspan
         id="tspan9"
         style="font-variant:normal;font-weight:normal;font-size:16px;font-family:Arial;writing-mode:lr-tb;fill:#000000;fill-opacity:1;fill-rule:nonzero;stroke:none"
         x="0"
         y="0">requirement1 : RequirementDef1</tspan></text>
    <text
       id="text10"
       xml:space="preserve"
       transform="matrix(0.9472543,0,0,0.9472543,116.44115,64.045706)"
       clip-path="url(#clipPath11)"><tspan
         id="tspan10"
         style="font-style:italic;font-variant:normal;font-weight:normal;font-size:12px;font-family:Arial;writing-mode:lr-tb;fill:#000000;fill-opacity:1;fill-rule:nonzero;stroke:none"
         x="0"
         y="0">doc</tspan></text>
    <text
       id="text11"
       xml:space="preserve"
       transform="matrix(0.9472543,0,0,0.9472543,8.1581419,83.938046)"
       clip-path="url(#clipPath12)"><tspan
         id="tspan11"
         style="font-variant:normal;font-weight:normal;font-size:12px;font-family:Arial;writing-mode:lr-tb;fill:#000000;fill-opacity:1;fill-rule:nonzero;stroke:none"
         x="0"
         y="0">•••</tspan></text>
    <path
       id="path13"
       d="M 522,10882 H 782"
       style="fill:none;stroke:#000000;stroke-width:1;stroke-linecap:butt;stroke-linejoin:miter;stroke-miterlimit:10;stroke-dasharray:none;stroke-opacity:1"
       transform="matrix(0.9472543,0,0,0.9472543,-491.51849,-10216.032)"
       clip-path="url(#clipPath14)" />
    <text
       id="text14"
       xml:space="preserve"
       transform="matrix(0.9472543,0,0,0.9472543,107.60505,106.67215)"
       clip-path="url(#clipPath15)"><tspan
         id="tspan14"
         style="font-style:italic;font-variant:normal;font-weight:normal;font-size:12px;font-family:Arial;writing-mode:lr-tb;fill:#000000;fill-opacity:1;fill-rule:nonzero;stroke:none"
         x="0"
         y="0">subject</tspan></text>
    <text
       id="text15"
       xml:space="preserve"
       transform="matrix(0.9472543,0,0,0.9472543,8.1581419,126.56449)"
       clip-path="url(#clipPath16)"><tspan
         id="tspan15"
         style="font-variant:normal;font-weight:700;font-size:12px;font-family:Arial;writing-mode:lr-tb;fill:#000000;fill-opacity:1;fill-rule:nonzero;stroke:none"
         x="0"
         y="0">redefines</tspan></text>
    <text
       id="text16"
       xml:space="preserve"
       transform="matrix(0.9472543,0,0,0.9472543,58.703044,126.56449)"
       clip-path="url(#clipPath17)"><tspan
         id="tspan16"
         style="font-variant:normal;font-weight:normal;font-size:12px;font-family:Arial;writing-mode:lr-tb;fill:#000000;fill-opacity:1;fill-rule:nonzero;stroke:none"
         x="0"
         y="0"> s1 = mySubject</tspan></text>
    <path
       id="path18"
       d="M 522,10927 H 782"
       style="fill:none;stroke:#000000;stroke-width:1;stroke-linecap:butt;stroke-linejoin:miter;stroke-miterlimit:10;stroke-dasharray:none;stroke-opacity:1"
       transform="matrix(0.9472543,0,0,0.9472543,-491.51849,-10216.032)"
       clip-path="url(#clipPath19)" />
    <text
       id="text19"
       xml:space="preserve"
       transform="translate(78.88285,150.24439)"
       clip-path="url(#clipPath20)"><tspan
         id="tspan19"
         style="font-style:italic;font-variant:normal;font-weight:normal;font-size:11.36px;font-family:Arial;writing-mode:lr-tb;fill:#000000;fill-opacity:1;fill-rule:nonzero;stroke:none"
         x="0"
         y="0">require constraints</tspan></text>
    <text
       id="text20"
       xml:space="preserve"
       transform="translate(8.1484825,167.29129)"
       clip-path="url(#clipPath21)"><tspan
         id="tspan20"
         style="font-variant:normal;font-weight:normal;font-size:11.36px;font-family:Arial;writing-mode:lr-tb;fill:#000000;fill-opacity:1;fill-rule:nonzero;stroke:none"
         x="0"
         y="0">require2</tspan></text>
    <text
       id="text21"
       xml:space="preserve"
       transform="translate(8.1484825,180.55689)"
       clip-path="url(#clipPath22)"><tspan
         id="tspan21"
         style="font-variant:normal;font-weight:normal;font-size:11.36px;font-family:Arial;writing-mode:lr-tb;fill:#000000;fill-opacity:1;fill-rule:nonzero;stroke:none"
         x="0"
         y="0">•••</tspan></text>
    <path
       id="path23"
       d="M 522,10980 H 782"
       style="fill:none;stroke:#000000;stroke-width:1;stroke-linecap:butt;stroke-linejoin:miter;stroke-miterlimit:10;stroke-dasharray:none;stroke-opacity:1"
       transform="matrix(0.9472543,0,0,0.9472543,-491.51849,-10216.032)"
       clip-path="url(#clipPath24)" />
    <text
       id="text24"
       xml:space="preserve"
       transform="translate(76.67973,200.44749)"
       clip-path="url(#clipPath25)"><tspan
         id="tspan24"
         style="font-style:italic;font-variant:normal;font-weight:normal;font-size:11.36px;font-family:Arial;writing-mode:lr-tb;fill:#000000;fill-opacity:1;fill-rule:nonzero;stroke:none"
         x="0"
         y="0">assume constraints</tspan></text>
    <text
       id="text25"
       xml:space="preserve"
       transform="translate(8.1484825,223.65069)"
       clip-path="url(#clipPath26)"><tspan
         id="tspan25"
         style="font-variant:normal;font-weight:normal;font-size:11.36px;font-family:Arial;writing-mode:lr-tb;fill:#000000;fill-opacity:1;fill-rule:nonzero;stroke:none"
         x="0"
         y="0">constraint1</tspan></text>
    <text
       id="text26"
       xml:space="preserve"
       transform="translate(8.1484825,236.91629)"
       clip-path="url(#clipPath27)"><tspan
         id="tspan26"
         style="font-variant:normal;font-weight:normal;font-size:11.36px;font-family:Arial;writing-mode:lr-tb;fill:#000000;fill-opacity:1;fill-rule:nonzero;stroke:none"
         x="0"
         y="0">•••</tspan></text>
  </g>
</svg>
