<?xml version="1.0" encoding="UTF-8" standalone="no"?>
<!-- Created with Inkscape (http://www.inkscape.org/) -->

<svg
   version="1.1"
   id="svg1"
   width="250.56"
   height="212.15999"
   viewBox="0 0 250.56 212.15999"
   xmlns="http://www.w3.org/2000/svg"
   xmlns:svg="http://www.w3.org/2000/svg">
  <defs
     id="defs1">
    <clipPath
       clipPathUnits="userSpaceOnUse"
       id="clipPath2">
      <path
         d="M 0,0 H 783.00781 V 662.98828 H 0 Z"
         transform="scale(0.31999999)"
         clip-rule="evenodd"
         id="path2" />
    </clipPath>
    <clipPath
       clipPathUnits="userSpaceOnUse"
       id="clipPath4">
      <path
         d="M 3.125,3.125 H 781.25 v 656.25 H 3.125 Z"
         transform="matrix(0.33915433,0,0,0.33915433,527.88366,986.88023)"
         clip-rule="evenodd"
         id="path4" />
    </clipPath>
    <clipPath
       clipPathUnits="userSpaceOnUse"
       id="clipPath6">
      <path
         d="M 3.125,3.125 H 781.25 v 656.25 H 3.125 Z"
         transform="matrix(0.33915433,0,0,0.33915433,527.88366,986.88023)"
         clip-rule="evenodd"
         id="path6" />
    </clipPath>
    <clipPath
       clipPathUnits="userSpaceOnUse"
       id="clipPath8">
      <path
         d="M 3.125,3.125 H 781.25 v 656.25 H 3.125 Z"
         transform="matrix(0.33915433,0,0,0.33915433,527.88366,986.88023)"
         clip-rule="evenodd"
         id="path8" />
    </clipPath>
    <clipPath
       clipPathUnits="userSpaceOnUse"
       id="clipPath9">
      <path
         d="M 3.125,3.125 H 781.25 v 656.25 H 3.125 Z"
         transform="matrix(0.33915433,0,0,0.33915433,-95.303851,-24.619729)"
         clip-rule="evenodd"
         id="path9" />
    </clipPath>
    <clipPath
       clipPathUnits="userSpaceOnUse"
       id="clipPath10">
      <path
         d="M 3.125,3.125 H 781.25 v 656.25 H 3.125 Z"
         transform="matrix(0.33915433,0,0,0.33915433,-46.85073,-43.619729)"
         clip-rule="evenodd"
         id="path10" />
    </clipPath>
    <clipPath
       clipPathUnits="userSpaceOnUse"
       id="clipPath11">
      <path
         d="M 332.05042,163.99536 H 447.04236 V 208.2229 H 332.05042 Z"
         transform="matrix(0.33915433,0,0,0.33915433,-113.10074,-66.61973)"
         clip-rule="evenodd"
         id="path11" />
    </clipPath>
    <clipPath
       clipPathUnits="userSpaceOnUse"
       id="clipPath12">
      <path
         d="M 25.405396,222.96558 H 435.2483 v 44.22754 H 25.405396 Z"
         transform="matrix(0.33915433,0,0,0.33915433,-8.6163505,-86.619729)"
         clip-rule="evenodd"
         id="path12" />
    </clipPath>
    <clipPath
       clipPathUnits="userSpaceOnUse"
       id="clipPath13">
      <path
         d="M 25.405396,222.96558 H 435.2483 v 44.22754 H 25.405396 Z"
         transform="matrix(0.33915433,0,0,0.33915433,-61.975731,-86.619729)"
         clip-rule="evenodd"
         id="path13" />
    </clipPath>
    <clipPath
       clipPathUnits="userSpaceOnUse"
       id="clipPath14">
      <path
         d="M 25.405396,222.96558 H 435.2483 v 44.22754 H 25.405396 Z"
         transform="matrix(0.33915433,0,0,0.33915433,-81.31948,-86.619729)"
         clip-rule="evenodd"
         id="path14" />
    </clipPath>
    <clipPath
       clipPathUnits="userSpaceOnUse"
       id="clipPath15">
      <path
         d="M 25.405396,222.96558 H 435.2483 v 44.22754 H 25.405396 Z"
         transform="matrix(0.33915433,0,0,0.33915433,-88.335101,-86.619729)"
         clip-rule="evenodd"
         id="path15" />
    </clipPath>
    <clipPath
       clipPathUnits="userSpaceOnUse"
       id="clipPath17">
      <path
         d="M 3.125,3.125 H 781.25 v 656.25 H 3.125 Z"
         transform="matrix(0.33915433,0,0,0.33915433,527.88366,986.88023)"
         clip-rule="evenodd"
         id="path17" />
    </clipPath>
    <clipPath
       clipPathUnits="userSpaceOnUse"
       id="clipPath18">
      <path
         d="m 320.25635,293.72974 h 138.58008 v 44.22778 H 320.25635 Z"
         transform="matrix(0.33915433,0,0,0.33915433,-108.42885,-110.61973)"
         clip-rule="evenodd"
         id="path18" />
    </clipPath>
    <clipPath
       clipPathUnits="userSpaceOnUse"
       id="clipPath19">
      <path
         d="M 25.405396,352.69995 H 149.2428 v 44.22778 H 25.405396 Z"
         transform="matrix(0.33915433,0,0,0.33915433,-8.6163505,-130.61973)"
         clip-rule="evenodd"
         id="path19" />
    </clipPath>
    <clipPath
       clipPathUnits="userSpaceOnUse"
       id="clipPath20">
      <path
         d="M 25.405396,352.69995 H 149.2428 v 44.22778 H 25.405396 Z"
         transform="matrix(0.33915433,0,0,0.33915433,-29.960101,-130.61973)"
         clip-rule="evenodd"
         id="path20" />
    </clipPath>
    <clipPath
       clipPathUnits="userSpaceOnUse"
       id="clipPath21">
      <path
         d="M 25.405396,411.67017 H 367.43262 v 44.22778 H 25.405396 Z"
         transform="matrix(0.33915433,0,0,0.33915433,-8.6163505,-150.61973)"
         clip-rule="evenodd"
         id="path21" />
    </clipPath>
    <clipPath
       clipPathUnits="userSpaceOnUse"
       id="clipPath22">
      <path
         d="M 25.405396,411.67017 H 367.43262 v 44.22778 H 25.405396 Z"
         transform="matrix(0.33915433,0,0,0.33915433,-53.319481,-150.61973)"
         clip-rule="evenodd"
         id="path22" />
    </clipPath>
    <clipPath
       clipPathUnits="userSpaceOnUse"
       id="clipPath24">
      <path
         d="M 3.125,3.125 H 781.25 v 656.25 H 3.125 Z"
         transform="matrix(0.33915433,0,0,0.33915433,527.88366,986.88023)"
         clip-rule="evenodd"
         id="path24" />
    </clipPath>
    <clipPath
       clipPathUnits="userSpaceOnUse"
       id="clipPath25">
      <path
         d="m 320.25635,482.43433 h 138.58008 v 44.22778 H 320.25635 Z"
         transform="matrix(0.33915433,0,0,0.33915433,-108.42885,-174.61973)"
         clip-rule="evenodd"
         id="path25" />
    </clipPath>
    <clipPath
       clipPathUnits="userSpaceOnUse"
       id="clipPath26">
      <path
         d="M 25.405396,541.40454 H 426.40271 v 44.22778 H 25.405396 Z"
         transform="matrix(0.33915433,0,0,0.33915433,-8.6163505,-194.61973)"
         clip-rule="evenodd"
         id="path26" />
    </clipPath>
    <clipPath
       clipPathUnits="userSpaceOnUse"
       id="clipPath27">
      <path
         d="M 25.405396,541.40454 H 426.40271 v 44.22778 H 25.405396 Z"
         transform="matrix(0.33915433,0,0,0.33915433,-15.631981,-194.61973)"
         clip-rule="evenodd"
         id="path27" />
    </clipPath>
    <clipPath
       clipPathUnits="userSpaceOnUse"
       id="clipPath28">
      <path
         d="M 25.405396,600.37476 H 405.76319 v 44.22778 H 25.405396 Z"
         transform="matrix(0.33915433,0,0,0.33915433,-8.6163505,-214.61973)"
         clip-rule="evenodd"
         id="path28" />
    </clipPath>
  </defs>
  <g
     id="g1">
    <path
       id="path1"
       d="M 0,0 H 251 V 212 H 0 Z"
       style="fill:#ffffff;fill-opacity:1;fill-rule:nonzero;stroke:none"
       clip-path="url(#clipPath2)" />
    <path
       id="path3"
       d="m 790,1040 v -42.5 c 0,-5 -2.5,-7.5 -7.5,-7.5 H 538.51001 c -5,0 -7.5,2.5 -7.5,7.5 v 42.5"
       style="fill:none;stroke:#000000;stroke-width:1;stroke-linecap:butt;stroke-linejoin:miter;stroke-miterlimit:10;stroke-dasharray:none;stroke-opacity:1"
       transform="matrix(0.94352322,0,0,0.94352322,-498.07049,-931.14441)"
       clip-path="url(#clipPath4)" />
    <path
       id="path5"
       d="m 531.01001,1040 v 160.5 c 0,5 2.5,7.5 7.5,7.5 H 782.5 c 5,0 7.5,-2.5 7.5,-7.5 V 1040"
       style="fill:none;stroke:#000000;stroke-width:1;stroke-linecap:butt;stroke-linejoin:miter;stroke-miterlimit:10;stroke-dasharray:none;stroke-opacity:1"
       transform="matrix(0.94352322,0,0,0.94352322,-498.07049,-931.14441)"
       clip-path="url(#clipPath6)" />
    <path
       id="path7"
       d="M 531.01001,1040 H 790"
       style="fill:none;stroke:#000000;stroke-width:1;stroke-linecap:butt;stroke-linejoin:miter;stroke-miterlimit:10;stroke-dasharray:none;stroke-opacity:1"
       transform="matrix(0.94352322,0,0,0.94352322,-498.07049,-931.14441)"
       clip-path="url(#clipPath8)" />
    <text
       id="text8"
       xml:space="preserve"
       transform="matrix(0.94352322,0,0,0.94352322,89.921396,23.229286)"
       clip-path="url(#clipPath9)"><tspan
         id="tspan8"
         style="font-variant:normal;font-weight:normal;font-size:16px;font-family:Arial;writing-mode:lr-tb;fill:#000000;fill-opacity:1;fill-rule:nonzero;stroke:none"
         x="0"
         y="0">«analysis»</tspan></text>
    <text
       id="text9"
       xml:space="preserve"
       transform="matrix(0.94352322,0,0,0.94352322,44.204752,41.156227)"
       clip-path="url(#clipPath10)"><tspan
         id="tspan9"
         style="font-variant:normal;font-weight:normal;font-size:16px;font-family:Arial;writing-mode:lr-tb;fill:#000000;fill-opacity:1;fill-rule:nonzero;stroke:none"
         x="0"
         dx="0 0 0 0 0 0 0 0 0 0 0 0 -0.88281226"
         y="0">analysis1 : AnalysisDef1</tspan></text>
    <text
       id="text10"
       xml:space="preserve"
       transform="matrix(0.94352322,0,0,0.94352322,106.71317,62.857262)"
       clip-path="url(#clipPath11)"><tspan
         id="tspan10"
         style="font-style:italic;font-variant:normal;font-weight:normal;font-size:12px;font-family:Arial;writing-mode:lr-tb;fill:#000000;fill-opacity:1;fill-rule:nonzero;stroke:none"
         x="0"
         y="0">subject</tspan></text>
    <text
       id="text11"
       xml:space="preserve"
       transform="matrix(0.94352322,0,0,0.94352322,8.1297268,81.727726)"
       clip-path="url(#clipPath12)"><tspan
         id="tspan11"
         style="font-variant:normal;font-weight:700;font-size:12px;font-family:Arial;writing-mode:lr-tb;fill:#000000;fill-opacity:1;fill-rule:nonzero;stroke:none"
         x="0"
         y="0">redefines</tspan></text>
    <text
       id="text12"
       xml:space="preserve"
       transform="matrix(0.94352322,0,0,0.94352322,58.475541,81.727726)"
       clip-path="url(#clipPath13)"><tspan
         id="tspan12"
         style="font-variant:normal;font-weight:normal;font-size:12px;font-family:Arial;writing-mode:lr-tb;fill:#000000;fill-opacity:1;fill-rule:nonzero;stroke:none"
         x="0"
         y="0"> s1 </tspan></text>
    <text
       id="text13"
       xml:space="preserve"
       transform="matrix(0.94352322,0,0,0.94352322,76.726818,81.727726)"
       clip-path="url(#clipPath14)"><tspan
         id="tspan13"
         style="font-variant:normal;font-weight:700;font-size:12px;font-family:Arial;writing-mode:lr-tb;fill:#000000;fill-opacity:1;fill-rule:nonzero;stroke:none"
         x="0"
         y="0">=</tspan></text>
    <text
       id="text14"
       xml:space="preserve"
       transform="matrix(0.94352322,0,0,0.94352322,83.346219,81.727726)"
       clip-path="url(#clipPath15)"><tspan
         id="tspan14"
         style="font-variant:normal;font-weight:normal;font-size:12px;font-family:Arial;writing-mode:lr-tb;fill:#000000;fill-opacity:1;fill-rule:nonzero;stroke:none"
         x="0"
         y="0"> mySubject</tspan></text>
    <path
       id="path16"
       d="M 531.01001,1082 H 790"
       style="fill:none;stroke:#000000;stroke-width:1;stroke-linecap:butt;stroke-linejoin:miter;stroke-miterlimit:10;stroke-dasharray:none;stroke-opacity:1"
       transform="matrix(0.94352322,0,0,0.94352322,-498.07049,-931.14441)"
       clip-path="url(#clipPath17)" />
    <text
       id="text17"
       xml:space="preserve"
       transform="matrix(0.94352322,0,0,0.94352322,102.30514,104.37228)"
       clip-path="url(#clipPath18)"><tspan
         id="tspan17"
         style="font-style:italic;font-variant:normal;font-weight:normal;font-size:12px;font-family:Arial;writing-mode:lr-tb;fill:#000000;fill-opacity:1;fill-rule:nonzero;stroke:none"
         x="0"
         y="0">objective</tspan></text>
    <text
       id="text18"
       xml:space="preserve"
       transform="matrix(0.94352322,0,0,0.94352322,8.1297268,123.24275)"
       clip-path="url(#clipPath19)"><tspan
         id="tspan18"
         style="font-variant:normal;font-weight:700;font-size:12px;font-family:Arial;writing-mode:lr-tb;fill:#000000;fill-opacity:1;fill-rule:nonzero;stroke:none"
         x="0"
         y="0">doc</tspan></text>
    <g
       id="g19" />
    <text
       id="text19"
       xml:space="preserve"
       transform="matrix(0.94352322,0,0,0.94352322,28.268051,123.24275)"
       clip-path="url(#clipPath20)"><tspan
         id="tspan19"
         style="font-variant:normal;font-weight:normal;font-size:12px;font-family:Arial;writing-mode:lr-tb;fill:#000000;fill-opacity:1;fill-rule:nonzero;stroke:none"
         x="0"
         y="0"> '•••'</tspan></text>
    <text
       id="text20"
       xml:space="preserve"
       transform="matrix(0.94352322,0,0,0.94352322,8.1297268,142.11321)"
       clip-path="url(#clipPath21)"><tspan
         id="tspan20"
         style="font-variant:normal;font-weight:700;font-size:12px;font-family:Arial;writing-mode:lr-tb;fill:#000000;fill-opacity:1;fill-rule:nonzero;stroke:none"
         x="0"
         y="0">assume</tspan></text>
    <g
       id="g21" />
    <text
       id="text21"
       xml:space="preserve"
       transform="matrix(0.94352322,0,0,0.94352322,50.308168,142.11321)"
       clip-path="url(#clipPath22)"><tspan
         id="tspan21"
         style="font-variant:normal;font-weight:normal;font-size:12px;font-family:Arial;writing-mode:lr-tb;fill:#000000;fill-opacity:1;fill-rule:nonzero;stroke:none"
         x="0"
         y="0"> assumption1</tspan></text>
    <path
       id="path23"
       d="M 531.01001,1146 H 790"
       style="fill:none;stroke:#000000;stroke-width:1;stroke-linecap:butt;stroke-linejoin:miter;stroke-miterlimit:10;stroke-dasharray:none;stroke-opacity:1"
       transform="matrix(0.94352322,0,0,0.94352322,-498.07049,-931.14441)"
       clip-path="url(#clipPath24)" />
    <text
       id="text24"
       xml:space="preserve"
       transform="matrix(0.94352322,0,0,0.94352322,102.30514,164.75777)"
       clip-path="url(#clipPath25)"><tspan
         id="tspan24"
         style="font-style:italic;font-variant:normal;font-weight:normal;font-size:12px;font-family:Arial;writing-mode:lr-tb;fill:#000000;fill-opacity:1;fill-rule:nonzero;stroke:none"
         x="0"
         y="0">analyses</tspan></text>
    <text
       id="text25"
       xml:space="preserve"
       transform="matrix(0.94352322,0,0,0.94352322,8.1297268,183.62823)"
       clip-path="url(#clipPath26)"><tspan
         id="tspan25"
         style="font-variant:normal;font-weight:700;font-size:12px;font-family:Arial;writing-mode:lr-tb;fill:#000000;fill-opacity:1;fill-rule:nonzero;stroke:none"
         x="0"
         y="0">^</tspan></text>
    <text
       id="text26"
       xml:space="preserve"
       transform="matrix(0.94352322,0,0,0.94352322,14.749137,183.62823)"
       clip-path="url(#clipPath27)"><tspan
         id="tspan26"
         style="font-variant:normal;font-weight:normal;font-size:12px;font-family:Arial;writing-mode:lr-tb;fill:#000000;fill-opacity:1;fill-rule:nonzero;stroke:none"
         x="0"
         dx="0 0 0 0 0 0 0 0 0 0 0 0 -0.66210866"
         y="0">analysis3 : AnalysisDef3</tspan></text>
    <text
       id="text27"
       xml:space="preserve"
       transform="matrix(0.94352322,0,0,0.94352322,8.1297268,202.4987)"
       clip-path="url(#clipPath28)"><tspan
         id="tspan27"
         style="font-variant:normal;font-weight:normal;font-size:12px;font-family:Arial;writing-mode:lr-tb;fill:#000000;fill-opacity:1;fill-rule:nonzero;stroke:none"
         x="0"
         dx="0 0 0 0 0 0 0 0 0 0 0 0 -0.66210866"
         y="0">analysis4 : AnalysisDef4</tspan></text>
  </g>
</svg>
