<?xml version="1.0" encoding="UTF-8" standalone="no"?>
<!-- Created with Inkscape (http://www.inkscape.org/) -->

<svg
   version="1.1"
   id="svg1"
   width="250.56"
   height="149.43999"
   viewBox="0 0 250.56 149.43999"
   xmlns="http://www.w3.org/2000/svg"
   xmlns:svg="http://www.w3.org/2000/svg">
  <defs
     id="defs1">
    <clipPath
       clipPathUnits="userSpaceOnUse"
       id="clipPath2">
      <path
         d="M 0,0 H 783.00781 V 468 H 0 Z"
         transform="scale(0.31999999)"
         clip-rule="evenodd"
         id="path2" />
    </clipPath>
    <clipPath
       clipPathUnits="userSpaceOnUse"
       id="clipPath4">
      <path
         d="M 3.125,0 H 781.25 V 468 H 3.125 Z"
         transform="matrix(0.33916615,0,0,0.33916615,520.88908,637.94016)"
         clip-rule="evenodd"
         id="path4" />
    </clipPath>
    <clipPath
       clipPathUnits="userSpaceOnUse"
       id="clipPath6">
      <path
         d="M 3.125,0 H 781.25 V 468 H 3.125 Z"
         transform="matrix(0.33916615,0,0,0.33916615,520.88908,637.94016)"
         clip-rule="evenodd"
         id="path6" />
    </clipPath>
    <clipPath
       clipPathUnits="userSpaceOnUse"
       id="clipPath8">
      <path
         d="M 3.125,0 H 781.25 V 468 H 3.125 Z"
         transform="matrix(0.33916615,0,0,0.33916615,520.88908,637.94016)"
         clip-rule="evenodd"
         id="path8" />
    </clipPath>
    <clipPath
       clipPathUnits="userSpaceOnUse"
       id="clipPath9">
      <path
         d="M 3.125,0 H 781.25 V 468 H 3.125 Z"
         transform="matrix(0.33916615,0,0,0.33916615,-95.298407,-23.559872)"
         clip-rule="evenodd"
         id="path9" />
    </clipPath>
    <clipPath
       clipPathUnits="userSpaceOnUse"
       id="clipPath10">
      <path
         d="M 3.125,0 H 781.25 V 468 H 3.125 Z"
         transform="matrix(0.33916615,0,0,0.33916615,-46.845287,-42.559871)"
         clip-rule="evenodd"
         id="path10" />
    </clipPath>
    <clipPath
       clipPathUnits="userSpaceOnUse"
       id="clipPath11">
      <path
         d="m 332.02283,160.86475 h 114.98792 v 44.22607 H 332.02283 Z"
         transform="matrix(0.33916615,0,0,0.33916615,-113.09529,-65.559871)"
         clip-rule="evenodd"
         id="path11" />
    </clipPath>
    <clipPath
       clipPathUnits="userSpaceOnUse"
       id="clipPath12">
      <path
         d="M 25.388428,219.83301 H 435.21717 v 44.22607 H 25.388428 Z"
         transform="matrix(0.33916615,0,0,0.33916615,-8.610907,-85.559871)"
         clip-rule="evenodd"
         id="path12" />
    </clipPath>
    <clipPath
       clipPathUnits="userSpaceOnUse"
       id="clipPath13">
      <path
         d="M 25.388428,219.83301 H 435.21717 v 44.22607 H 25.388428 Z"
         transform="matrix(0.33916615,0,0,0.33916615,-61.970286,-85.559871)"
         clip-rule="evenodd"
         id="path13" />
    </clipPath>
    <clipPath
       clipPathUnits="userSpaceOnUse"
       id="clipPath14">
      <path
         d="M 25.388428,219.83301 H 435.21717 v 44.22607 H 25.388428 Z"
         transform="matrix(0.33916615,0,0,0.33916615,-81.314037,-85.559871)"
         clip-rule="evenodd"
         id="path14" />
    </clipPath>
    <clipPath
       clipPathUnits="userSpaceOnUse"
       id="clipPath15">
      <path
         d="M 25.388428,219.83301 H 435.21717 v 44.22607 H 25.388428 Z"
         transform="matrix(0.33916615,0,0,0.33916615,-88.329657,-85.559871)"
         clip-rule="evenodd"
         id="path15" />
    </clipPath>
    <clipPath
       clipPathUnits="userSpaceOnUse"
       id="clipPath17">
      <path
         d="M 3.125,0 H 781.25 V 468 H 3.125 Z"
         transform="matrix(0.33916615,0,0,0.33916615,520.88908,637.94016)"
         clip-rule="evenodd"
         id="path17" />
    </clipPath>
    <clipPath
       clipPathUnits="userSpaceOnUse"
       id="clipPath18">
      <path
         d="M 320.22925,290.59473 H 458.80432 V 334.8208 H 320.22925 Z"
         transform="matrix(0.33916615,0,0,0.33916615,-108.42341,-109.55987)"
         clip-rule="evenodd"
         id="path18" />
    </clipPath>
    <clipPath
       clipPathUnits="userSpaceOnUse"
       id="clipPath19">
      <path
         d="M 25.388428,358.40796 H 367.40369 v 85.50391 H 25.388428 Z"
         transform="matrix(0.33916615,0,0,0.33916615,-8.610907,-132.55987)"
         clip-rule="evenodd"
         id="path19" />
    </clipPath>
    <clipPath
       clipPathUnits="userSpaceOnUse"
       id="clipPath20">
      <path
         d="M 25.388428,358.40796 H 367.40369 v 85.50391 H 25.388428 Z"
         transform="matrix(0.33916615,0,0,0.33916615,-29.954657,-132.55987)"
         clip-rule="evenodd"
         id="path20" />
    </clipPath>
    <clipPath
       clipPathUnits="userSpaceOnUse"
       id="clipPath21">
      <path
         d="M 25.388428,358.40796 H 367.40369 v 85.50391 H 25.388428 Z"
         transform="matrix(0.33916615,0,0,0.33916615,-8.610907,-147.55987)"
         clip-rule="evenodd"
         id="path21" />
    </clipPath>
    <clipPath
       clipPathUnits="userSpaceOnUse"
       id="clipPath22">
      <path
         d="M 25.388428,358.40796 H 367.40369 v 85.50391 H 25.388428 Z"
         transform="matrix(0.33916615,0,0,0.33916615,-53.314037,-147.55987)"
         clip-rule="evenodd"
         id="path22" />
    </clipPath>
  </defs>
  <g
     id="g1">
    <path
       id="path1"
       d="M 0,0 H 251 V 150 H 0 Z"
       style="fill:#ffffff;fill-opacity:1;fill-rule:nonzero;stroke:none"
       clip-path="url(#clipPath2)" />
    <path
       id="path3"
       d="m 783.01001,690 v -42.5 c 0,-5 -2.5,-7.5 -7.5,-7.5 H 531.52002 c -5,0 -7.5,2.5 -7.5,7.5 V 690"
       style="fill:none;stroke:#000000;stroke-width:1;stroke-linecap:butt;stroke-linejoin:miter;stroke-miterlimit:10;stroke-dasharray:none;stroke-opacity:1"
       transform="matrix(0.94349033,0,0,0.94349033,-491.45381,-601.89037)"
       clip-path="url(#clipPath4)" />
    <path
       id="path5"
       d="m 524.02002,690 v 96.5 c 0,5 2.5,7.5 7.5,7.5 h 243.98999 c 5,0 7.5,-2.5 7.5,-7.5 V 690"
       style="fill:none;stroke:#000000;stroke-width:1;stroke-linecap:butt;stroke-linejoin:miter;stroke-miterlimit:10;stroke-dasharray:none;stroke-opacity:1"
       transform="matrix(0.94349033,0,0,0.94349033,-491.45381,-601.89037)"
       clip-path="url(#clipPath6)" />
    <path
       id="path7"
       d="M 524.02002,690 H 783.01001"
       style="fill:none;stroke:#000000;stroke-width:1;stroke-linecap:butt;stroke-linejoin:miter;stroke-miterlimit:10;stroke-dasharray:none;stroke-opacity:1"
       transform="matrix(0.94349033,0,0,0.94349033,-491.45381,-601.89037)"
       clip-path="url(#clipPath8)" />
    <text
       id="text8"
       xml:space="preserve"
       transform="matrix(0.94349033,0,0,0.94349033,89.913125,22.228511)"
       clip-path="url(#clipPath9)"><tspan
         id="tspan8"
         style="font-variant:normal;font-weight:normal;font-size:16px;font-family:Arial;writing-mode:lr-tb;fill:#000000;fill-opacity:1;fill-rule:nonzero;stroke:none"
         x="0"
         y="0">«analysis»</tspan></text>
    <text
       id="text9"
       xml:space="preserve"
       transform="matrix(0.94349033,0,0,0.94349033,44.198075,40.154827)"
       clip-path="url(#clipPath10)"><tspan
         id="tspan9"
         style="font-variant:normal;font-weight:normal;font-size:16px;font-family:Arial;writing-mode:lr-tb;fill:#000000;fill-opacity:1;fill-rule:nonzero;stroke:none"
         x="0"
         dx="0 0 0 0 0 0 0 0 0 0 0 0 -0.88281226"
         y="0">analysis1 : AnalysisDef1</tspan></text>
    <text
       id="text10"
       xml:space="preserve"
       transform="matrix(0.94349033,0,0,0.94349033,106.70431,61.855104)"
       clip-path="url(#clipPath11)"><tspan
         id="tspan10"
         style="font-style:italic;font-variant:normal;font-weight:normal;font-size:12px;font-family:Arial;writing-mode:lr-tb;fill:#000000;fill-opacity:1;fill-rule:nonzero;stroke:none"
         x="0"
         y="0">subject</tspan></text>
    <text
       id="text11"
       xml:space="preserve"
       transform="matrix(0.94349033,0,0,0.94349033,8.1243075,80.724911)"
       clip-path="url(#clipPath12)"><tspan
         id="tspan11"
         style="font-variant:normal;font-weight:700;font-size:12px;font-family:Arial;writing-mode:lr-tb;fill:#000000;fill-opacity:1;fill-rule:nonzero;stroke:none"
         x="0"
         y="0">redefines</tspan></text>
    <text
       id="text12"
       xml:space="preserve"
       transform="matrix(0.94349033,0,0,0.94349033,58.468366,80.724911)"
       clip-path="url(#clipPath13)"><tspan
         id="tspan12"
         style="font-variant:normal;font-weight:normal;font-size:12px;font-family:Arial;writing-mode:lr-tb;fill:#000000;fill-opacity:1;fill-rule:nonzero;stroke:none"
         x="0"
         y="0"> s1 </tspan></text>
    <text
       id="text13"
       xml:space="preserve"
       transform="matrix(0.94349033,0,0,0.94349033,76.719008,80.724911)"
       clip-path="url(#clipPath14)"><tspan
         id="tspan13"
         style="font-variant:normal;font-weight:700;font-size:12px;font-family:Arial;writing-mode:lr-tb;fill:#000000;fill-opacity:1;fill-rule:nonzero;stroke:none"
         x="0"
         y="0">=</tspan></text>
    <text
       id="text14"
       xml:space="preserve"
       transform="matrix(0.94349033,0,0,0.94349033,83.338177,80.724911)"
       clip-path="url(#clipPath15)"><tspan
         id="tspan14"
         style="font-variant:normal;font-weight:normal;font-size:12px;font-family:Arial;writing-mode:lr-tb;fill:#000000;fill-opacity:1;fill-rule:nonzero;stroke:none"
         x="0"
         y="0"> mySubject</tspan></text>
    <path
       id="path16"
       d="M 524.02002,732 H 783.01001"
       style="fill:none;stroke:#000000;stroke-width:1;stroke-linecap:butt;stroke-linejoin:miter;stroke-miterlimit:10;stroke-dasharray:none;stroke-opacity:1"
       transform="matrix(0.94349033,0,0,0.94349033,-491.45381,-601.89037)"
       clip-path="url(#clipPath17)" />
    <text
       id="text17"
       xml:space="preserve"
       transform="matrix(0.94349033,0,0,0.94349033,102.29644,103.36868)"
       clip-path="url(#clipPath18)"><tspan
         id="tspan17"
         style="font-style:italic;font-variant:normal;font-weight:normal;font-size:12px;font-family:Arial;writing-mode:lr-tb;fill:#000000;fill-opacity:1;fill-rule:nonzero;stroke:none"
         x="0"
         y="0">objective</tspan></text>
    <text
       id="text18"
       xml:space="preserve"
       transform="matrix(0.94349033,0,0,0.94349033,8.1243075,125.06896)"
       clip-path="url(#clipPath19)"><tspan
         id="tspan18"
         style="font-variant:normal;font-weight:700;font-size:12px;font-family:Arial;writing-mode:lr-tb;fill:#000000;fill-opacity:1;fill-rule:nonzero;stroke:none"
         x="0"
         y="0">doc</tspan></text>
    <g
       id="g19" />
    <text
       id="text19"
       xml:space="preserve"
       transform="matrix(0.94349033,0,0,0.94349033,28.261929,125.06896)"
       clip-path="url(#clipPath20)"><tspan
         id="tspan19"
         style="font-variant:normal;font-weight:normal;font-size:12px;font-family:Arial;writing-mode:lr-tb;fill:#000000;fill-opacity:1;fill-rule:nonzero;stroke:none"
         x="0"
         y="0"> '•••'</tspan></text>
    <text
       id="text20"
       xml:space="preserve"
       transform="matrix(0.94349033,0,0,0.94349033,8.1243075,139.22131)"
       clip-path="url(#clipPath21)"><tspan
         id="tspan20"
         style="font-variant:normal;font-weight:700;font-size:12px;font-family:Arial;writing-mode:lr-tb;fill:#000000;fill-opacity:1;fill-rule:nonzero;stroke:none"
         x="0"
         y="0">assume</tspan></text>
    <g
       id="g21" />
    <text
       id="text21"
       xml:space="preserve"
       transform="matrix(0.94349033,0,0,0.94349033,50.301278,139.22131)"
       clip-path="url(#clipPath22)"><tspan
         id="tspan21"
         style="font-variant:normal;font-weight:normal;font-size:12px;font-family:Arial;writing-mode:lr-tb;fill:#000000;fill-opacity:1;fill-rule:nonzero;stroke:none"
         x="0"
         y="0"> assumption1</tspan></text>
  </g>
</svg>
