<?xml version="1.0" encoding="UTF-8" standalone="no"?>
<!-- Created with Inkscape (http://www.inkscape.org/) -->

<svg
   version="1.1"
   id="svg1"
   width="193.27998"
   height="89.279999"
   viewBox="0 0 193.27998 89.279999"
   xmlns="http://www.w3.org/2000/svg"
   xmlns:svg="http://www.w3.org/2000/svg">
  <defs
     id="defs1">
    <clipPath
       clipPathUnits="userSpaceOnUse"
       id="clipPath2">
      <path
         d="M 0,0 H 605 V 279.00391 H 0 Z"
         transform="scale(0.31999999)"
         clip-rule="evenodd"
         id="path2" />
    </clipPath>
    <clipPath
       clipPathUnits="userSpaceOnUse"
       id="clipPath4">
      <path
         d="m 3.125,0 h 600 v 278.125 h -600 z"
         transform="matrix(0.34090338,0,0,0.34090338,539.87377,837.93468)"
         clip-rule="evenodd"
         id="path4" />
    </clipPath>
    <clipPath
       clipPathUnits="userSpaceOnUse"
       id="clipPath6">
      <path
         d="m 3.125,0 h 600 v 278.125 h -600 z"
         transform="matrix(0.34090338,0,0,0.34090338,539.87377,837.93468)"
         clip-rule="evenodd"
         id="path6" />
    </clipPath>
    <clipPath
       clipPathUnits="userSpaceOnUse"
       id="clipPath8">
      <path
         d="m 3.125,0 h 600 v 278.125 h -600 z"
         transform="matrix(0.34090338,0,0,0.34090338,539.87377,837.93468)"
         clip-rule="evenodd"
         id="path8" />
    </clipPath>
    <clipPath
       clipPathUnits="userSpaceOnUse"
       id="clipPath9">
      <path
         d="m 3.125,0 h 600 v 278.125 h -600 z"
         transform="matrix(0.34090338,0,0,0.34090338,-65.313744,-23.565292)"
         clip-rule="evenodd"
         id="path9" />
    </clipPath>
    <clipPath
       clipPathUnits="userSpaceOnUse"
       id="clipPath10">
      <path
         d="m 3.125,0 h 600 v 278.125 h -600 z"
         transform="matrix(0.34090338,0,0,0.34090338,-16.860624,-42.565292)"
         clip-rule="evenodd"
         id="path10" />
    </clipPath>
    <clipPath
       clipPathUnits="userSpaceOnUse"
       id="clipPath11">
      <path
         d="m 151.43957,160.06079 h 299.20497 v 44.00073 H 151.43957 Z"
         transform="matrix(0.34090338,0,0,0.34090338,-51.938744,-65.565292)"
         clip-rule="evenodd"
         id="path11" />
    </clipPath>
    <clipPath
       clipPathUnits="userSpaceOnUse"
       id="clipPath12">
      <path
         d="m 25.304077,218.72852 h 38.133911 v 44.00073 H 25.304077 Z"
         transform="matrix(0.34090338,0,0,0.34090338,-8.6262438,-85.565292)"
         clip-rule="evenodd"
         id="path12" />
    </clipPath>
  </defs>
  <g
     id="g1">
    <path
       id="path1"
       d="M 0,0 H 194 V 89 H 0 Z"
       style="fill:#ffffff;fill-opacity:1;fill-rule:nonzero;stroke:none"
       clip-path="url(#clipPath2)" />
    <path
       id="path3"
       d="m 743.01001,890 v -42.5 c 0,-5 -2.5,-7.5 -7.5,-7.5 h -185 c -5,0 -7.5,2.5 -7.5,7.5 V 890"
       style="fill:none;stroke:#000000;stroke-width:1;stroke-linecap:butt;stroke-linejoin:miter;stroke-miterlimit:10;stroke-dasharray:none;stroke-opacity:1"
       transform="matrix(0.93868236,0,0,0.93868236,-506.76998,-786.5545)"
       clip-path="url(#clipPath4)" />
    <path
       id="path5"
       d="m 543.01001,890 v 32.5 c 0,5 2.5,7.5 7.5,7.5 h 185 c 5,0 7.5,-2.5 7.5,-7.5 V 890"
       style="fill:none;stroke:#000000;stroke-width:1;stroke-linecap:butt;stroke-linejoin:miter;stroke-miterlimit:10;stroke-dasharray:none;stroke-opacity:1"
       transform="matrix(0.93868236,0,0,0.93868236,-506.76998,-786.5545)"
       clip-path="url(#clipPath6)" />
    <path
       id="path7"
       d="m 543.01001,890 h 200"
       style="fill:none;stroke:#000000;stroke-width:1;stroke-linecap:butt;stroke-linejoin:miter;stroke-miterlimit:10;stroke-dasharray:none;stroke-opacity:1"
       transform="matrix(0.93868236,0,0,0.93868236,-506.76998,-786.5545)"
       clip-path="url(#clipPath8)" />
    <text
       id="text8"
       xml:space="preserve"
       transform="matrix(0.93868236,0,0,0.93868236,61.308859,22.120324)"
       clip-path="url(#clipPath9)"><tspan
         id="tspan8"
         style="font-variant:normal;font-weight:normal;font-size:16px;font-family:Arial;writing-mode:lr-tb;fill:#000000;fill-opacity:1;fill-rule:nonzero;stroke:none"
         x="0"
         y="0">«analysis»</tspan></text>
    <text
       id="text9"
       xml:space="preserve"
       transform="matrix(0.93868236,0,0,0.93868236,15.82677,39.955289)"
       clip-path="url(#clipPath10)"><tspan
         id="tspan9"
         style="font-variant:normal;font-weight:normal;font-size:16px;font-family:Arial;writing-mode:lr-tb;fill:#000000;fill-opacity:1;fill-rule:nonzero;stroke:none"
         x="0"
         dx="0 0 0 0 0 0 0 0 0 0 0 0 -0.88281226"
         y="0">analysis1 : AnalysisDef1</tspan></text>
    <text
       id="text10"
       xml:space="preserve"
       transform="matrix(0.93868236,0,0,0.93868236,48.753983,61.544983)"
       clip-path="url(#clipPath11)"><tspan
         id="tspan10"
         style="font-style:italic;font-variant:normal;font-weight:normal;font-size:12px;font-family:Arial;writing-mode:lr-tb;fill:#000000;fill-opacity:1;fill-rule:nonzero;stroke:none"
         x="0"
         y="0">compartment stack</tspan></text>
    <text
       id="text11"
       xml:space="preserve"
       transform="matrix(0.93868236,0,0,0.93868236,8.0973029,80.31863)"
       clip-path="url(#clipPath12)"><tspan
         id="tspan11"
         style="font-variant:normal;font-weight:normal;font-size:12px;font-family:Arial;writing-mode:lr-tb;fill:#000000;fill-opacity:1;fill-rule:nonzero;stroke:none"
         x="0"
         y="0">•••</tspan></text>
  </g>
</svg>
