<?xml version="1.0" encoding="UTF-8" standalone="no"?>
<!-- Created with Inkscape (http://www.inkscape.org/) -->

<svg
   version="1.1"
   id="svg1"
   width="174.71999"
   height="149.43999"
   viewBox="0 0 174.71999 149.43999"
   xmlns="http://www.w3.org/2000/svg"
   xmlns:svg="http://www.w3.org/2000/svg">
  <defs
     id="defs1">
    <clipPath
       clipPathUnits="userSpaceOnUse"
       id="clipPath2">
      <path
         d="M 0,0 H 545.99609 V 468 H 0 Z"
         transform="scale(0.31999999)"
         clip-rule="evenodd"
         id="path2" />
    </clipPath>
    <clipPath
       clipPathUnits="userSpaceOnUse"
       id="clipPath4">
      <path
         d="M 3.125,3.125 H 543.75 v 462.5 H 3.125 Z"
         transform="matrix(0.34173366,0,0,0.34173366,39.86726,636.86414)"
         clip-rule="evenodd"
         id="path4" />
    </clipPath>
    <clipPath
       clipPathUnits="userSpaceOnUse"
       id="clipPath6">
      <path
         d="M 3.125,3.125 H 543.75 v 462.5 H 3.125 Z"
         transform="matrix(0.34173366,0,0,0.34173366,39.86726,636.86414)"
         clip-rule="evenodd"
         id="path6" />
    </clipPath>
    <clipPath
       clipPathUnits="userSpaceOnUse"
       id="clipPath8">
      <path
         d="M 3.125,3.125 H 543.75 v 462.5 H 3.125 Z"
         transform="matrix(0.34173366,0,0,0.34173366,39.86726,636.86414)"
         clip-rule="evenodd"
         id="path8" />
    </clipPath>
    <clipPath
       clipPathUnits="userSpaceOnUse"
       id="clipPath9">
      <path
         d="M 3.125,3.125 H 543.75 v 462.5 H 3.125 Z"
         transform="matrix(0.34173366,0,0,0.34173366,-41.992115,-24.635867)"
         clip-rule="evenodd"
         id="path9" />
    </clipPath>
    <clipPath
       clipPathUnits="userSpaceOnUse"
       id="clipPath10">
      <path
         d="M 3.125,3.125 H 543.75 v 462.5 H 3.125 Z"
         transform="matrix(0.34173366,0,0,0.34173366,-46.44524,-43.635867)"
         clip-rule="evenodd"
         id="path10" />
    </clipPath>
    <clipPath
       clipPathUnits="userSpaceOnUse"
       id="clipPath11">
      <path
         d="m 215.4682,162.80469 h 111.19772 v 43.8938 H 215.4682 Z"
         transform="matrix(0.34173366,0,0,0.34173366,-73.617115,-66.635866)"
         clip-rule="evenodd"
         id="path11" />
    </clipPath>
    <clipPath
       clipPathUnits="userSpaceOnUse"
       id="clipPath12">
      <path
         d="M 25.261604,221.32983 H 209.6157 v 43.8938 H 25.261604 Z"
         transform="matrix(0.34173366,0,0,0.34173366,-8.6327402,-86.635867)"
         clip-rule="evenodd"
         id="path12" />
    </clipPath>
    <clipPath
       clipPathUnits="userSpaceOnUse"
       id="clipPath14">
      <path
         d="M 3.125,3.125 H 543.75 v 462.5 H 3.125 Z"
         transform="matrix(0.34173366,0,0,0.34173366,39.86726,636.86414)"
         clip-rule="evenodd"
         id="path14" />
    </clipPath>
    <clipPath
       clipPathUnits="userSpaceOnUse"
       id="clipPath15">
      <path
         d="m 200.83694,291.56006 h 140.46027 v 43.8938 H 200.83694 Z"
         transform="matrix(0.34173366,0,0,0.34173366,-68.945241,-110.63587)"
         clip-rule="evenodd"
         id="path15" />
    </clipPath>
    <clipPath
       clipPathUnits="userSpaceOnUse"
       id="clipPath16">
      <path
         d="M 25.261604,358.86377 H 364.70725 v 84.86157 H 25.261604 Z"
         transform="matrix(0.34173366,0,0,0.34173366,-8.6327402,-133.63587)"
         clip-rule="evenodd"
         id="path16" />
    </clipPath>
    <clipPath
       clipPathUnits="userSpaceOnUse"
       id="clipPath17">
      <path
         d="M 25.261604,358.86377 H 364.70725 v 84.86157 H 25.261604 Z"
         transform="matrix(0.34173366,0,0,0.34173366,-29.97649,-133.63587)"
         clip-rule="evenodd"
         id="path17" />
    </clipPath>
    <clipPath
       clipPathUnits="userSpaceOnUse"
       id="clipPath18">
      <path
         d="M 25.261604,358.86377 H 364.70725 v 84.86157 H 25.261604 Z"
         transform="matrix(0.34173366,0,0,0.34173366,-8.6327402,-148.63587)"
         clip-rule="evenodd"
         id="path18" />
    </clipPath>
    <clipPath
       clipPathUnits="userSpaceOnUse"
       id="clipPath19">
      <path
         d="M 25.261604,358.86377 H 364.70725 v 84.86157 H 25.261604 Z"
         transform="matrix(0.34173366,0,0,0.34173366,-53.335865,-148.63587)"
         clip-rule="evenodd"
         id="path19" />
    </clipPath>
  </defs>
  <g
     id="g1">
    <path
       id="path1"
       d="M 0,0 H 175 V 150 H 0 Z"
       style="fill:#ffffff;fill-opacity:1;fill-rule:nonzero;stroke:none"
       clip-path="url(#clipPath2)" />
    <path
       id="path3"
       d="M 43.009998,690 V 640 H 223.00999 v 50"
       style="fill:none;stroke:#000000;stroke-width:1;stroke-linecap:butt;stroke-linejoin:miter;stroke-miterlimit:10;stroke-dasharray:none;stroke-opacity:1"
       transform="matrix(0.93640172,0,0,0.93640172,-37.331771,-596.36068)"
       clip-path="url(#clipPath4)" />
    <path
       id="path5"
       d="M 43.009998,690 V 794 H 223.00999 V 690"
       style="fill:none;stroke:#000000;stroke-width:1;stroke-linecap:butt;stroke-linejoin:miter;stroke-miterlimit:10;stroke-dasharray:none;stroke-opacity:1"
       transform="matrix(0.93640172,0,0,0.93640172,-37.331771,-596.36068)"
       clip-path="url(#clipPath6)" />
    <path
       id="path7"
       d="M 43.009998,690 H 223.00999"
       style="fill:none;stroke:#000000;stroke-width:1;stroke-linecap:butt;stroke-linejoin:miter;stroke-miterlimit:10;stroke-dasharray:none;stroke-opacity:1"
       transform="matrix(0.93640172,0,0,0.93640172,-37.331771,-596.36068)"
       clip-path="url(#clipPath8)" />
    <text
       id="text8"
       xml:space="preserve"
       transform="matrix(0.93640172,0,0,0.93640172,39.321489,23.069068)"
       clip-path="url(#clipPath9)"><tspan
         id="tspan8"
         style="font-variant:normal;font-weight:normal;font-size:16px;font-family:Arial;writing-mode:lr-tb;fill:#000000;fill-opacity:1;fill-rule:nonzero;stroke:none"
         x="0"
         y="0">«analysis def»</tspan></text>
    <text
       id="text9"
       xml:space="preserve"
       transform="matrix(0.93640172,0,0,0.93640172,43.491403,40.860701)"
       clip-path="url(#clipPath10)"><tspan
         id="tspan9"
         style="font-variant:normal;font-weight:normal;font-size:16px;font-family:Arial;writing-mode:lr-tb;fill:#000000;fill-opacity:1;fill-rule:nonzero;stroke:none"
         x="0"
         y="0">AnalysisDef1</tspan></text>
    <text
       id="text10"
       xml:space="preserve"
       transform="matrix(0.93640172,0,0,0.93640172,68.935193,62.39794)"
       clip-path="url(#clipPath11)"><tspan
         id="tspan10"
         style="font-style:italic;font-variant:normal;font-weight:normal;font-size:12px;font-family:Arial;writing-mode:lr-tb;fill:#000000;fill-opacity:1;fill-rule:nonzero;stroke:none"
         x="0"
         y="0">subject</tspan></text>
    <text
       id="text11"
       xml:space="preserve"
       transform="matrix(0.93640172,0,0,0.93640172,8.0837128,81.125975)"
       clip-path="url(#clipPath12)"><tspan
         id="tspan11"
         style="font-variant:normal;font-weight:normal;font-size:12px;font-family:Arial;writing-mode:lr-tb;fill:#000000;fill-opacity:1;fill-rule:nonzero;stroke:none"
         x="0"
         y="0">s1 : Subject</tspan></text>
    <path
       id="path13"
       d="M 43.009998,732 H 223.00999"
       style="fill:none;stroke:#000000;stroke-width:1;stroke-linecap:butt;stroke-linejoin:miter;stroke-miterlimit:10;stroke-dasharray:none;stroke-opacity:1"
       transform="matrix(0.93640172,0,0,0.93640172,-37.331771,-596.36068)"
       clip-path="url(#clipPath14)" />
    <text
       id="text14"
       xml:space="preserve"
       transform="matrix(0.93640172,0,0,0.93640172,64.560442,103.59962)"
       clip-path="url(#clipPath15)"><tspan
         id="tspan14"
         style="font-style:italic;font-variant:normal;font-weight:normal;font-size:12px;font-family:Arial;writing-mode:lr-tb;fill:#000000;fill-opacity:1;fill-rule:nonzero;stroke:none"
         x="0"
         y="0">objective</tspan></text>
    <text
       id="text15"
       xml:space="preserve"
       transform="matrix(0.93640172,0,0,0.93640172,8.0837128,125.13686)"
       clip-path="url(#clipPath16)"><tspan
         id="tspan15"
         style="font-variant:normal;font-weight:700;font-size:12px;font-family:Arial;writing-mode:lr-tb;fill:#000000;fill-opacity:1;fill-rule:nonzero;stroke:none"
         x="0"
         y="0">doc</tspan></text>
    <text
       id="text16"
       xml:space="preserve"
       transform="matrix(0.93640172,0,0,0.93640172,28.070037,125.13686)"
       clip-path="url(#clipPath17)"><tspan
         id="tspan16"
         style="font-variant:normal;font-weight:normal;font-size:12px;font-family:Arial;writing-mode:lr-tb;fill:#000000;fill-opacity:1;fill-rule:nonzero;stroke:none"
         x="0"
         y="0"> '•••'</tspan></text>
    <text
       id="text17"
       xml:space="preserve"
       transform="matrix(0.93640172,0,0,0.93640172,8.0837128,139.18288)"
       clip-path="url(#clipPath18)"><tspan
         id="tspan17"
         style="font-variant:normal;font-weight:700;font-size:12px;font-family:Arial;writing-mode:lr-tb;fill:#000000;fill-opacity:1;fill-rule:nonzero;stroke:none"
         x="0"
         y="0">assume</tspan></text>
    <text
       id="text18"
       xml:space="preserve"
       transform="matrix(0.93640172,0,0,0.93640172,49.943796,139.18288)"
       clip-path="url(#clipPath19)"><tspan
         id="tspan18"
         style="font-variant:normal;font-weight:normal;font-size:12px;font-family:Arial;writing-mode:lr-tb;fill:#000000;fill-opacity:1;fill-rule:nonzero;stroke:none"
         x="0"
         y="0"> assumption1</tspan></text>
  </g>
</svg>
