<?xml version="1.0" encoding="UTF-8" standalone="no"?>
<!-- Created with Inkscape (http://www.inkscape.org/) -->

<svg
   version="1.1"
   id="svg1"
   width="337.28"
   height="252.16"
   viewBox="0 0 337.28 252.16"
   xmlns="http://www.w3.org/2000/svg"
   xmlns:svg="http://www.w3.org/2000/svg">
  <defs
     id="defs1">
    <clipPath
       clipPathUnits="userSpaceOnUse"
       id="clipPath2">
      <path
         d="M 0,0 H 1055 V 789 H 0 Z"
         transform="scale(0.31999999)"
         clip-rule="evenodd"
         id="path2" />
    </clipPath>
    <clipPath
       clipPathUnits="userSpaceOnUse"
       id="clipPath4">
      <path
         d="m 3.125,3.125 h 1050 V 787.5 h -1050 z"
         transform="matrix(0.33764602,0,0,0.33764602,116.88123,6723.8895)"
         clip-rule="evenodd"
         id="path4" />
    </clipPath>
    <clipPath
       clipPathUnits="userSpaceOnUse"
       id="clipPath5">
      <path
         d="m 3.125,3.125 h 1050 V 787.5 h -1050 z"
         transform="matrix(0.33764602,0,0,0.33764602,-145.2594,-20.610046)"
         clip-rule="evenodd"
         id="path5" />
    </clipPath>
    <clipPath
       clipPathUnits="userSpaceOnUse"
       id="clipPath6">
      <path
         d="m 3.125,3.125 h 1050 V 787.5 h -1050 z"
         transform="matrix(0.33764602,0,0,0.33764602,-4.6187663,-35.610046)"
         clip-rule="evenodd"
         id="path6" />
    </clipPath>
    <clipPath
       clipPathUnits="userSpaceOnUse"
       id="clipPath7">
      <path
         d="m 3.125,3.125 h 1050 V 787.5 h -1050 z"
         transform="matrix(0.33764602,0,0,0.33764602,-11.634392,-35.610046)"
         clip-rule="evenodd"
         id="path7" />
    </clipPath>
    <clipPath
       clipPathUnits="userSpaceOnUse"
       id="clipPath8">
      <path
         d="m 3.125,3.125 h 1050 V 787.5 h -1050 z"
         transform="matrix(0.33764602,0,0,0.33764602,-169.72815,-35.610046)"
         clip-rule="evenodd"
         id="path8" />
    </clipPath>
    <clipPath
       clipPathUnits="userSpaceOnUse"
       id="clipPath9">
      <path
         d="m 3.125,3.125 h 1050 V 787.5 h -1050 z"
         transform="matrix(0.33764602,0,0,0.33764602,-177.0719,-35.610046)"
         clip-rule="evenodd"
         id="path9" />
    </clipPath>
    <clipPath
       clipPathUnits="userSpaceOnUse"
       id="clipPath10">
      <path
         d="m 3.125,3.125 h 1050 V 787.5 h -1050 z"
         transform="matrix(0.33764602,0,0,0.33764602,-187.74377,-35.610046)"
         clip-rule="evenodd"
         id="path10" />
    </clipPath>
    <clipPath
       clipPathUnits="userSpaceOnUse"
       id="clipPath11">
      <path
         d="m 3.125,3.125 h 1050 V 787.5 h -1050 z"
         transform="matrix(0.33764602,0,0,0.33764602,-265.11877,-35.610046)"
         clip-rule="evenodd"
         id="path11" />
    </clipPath>
    <clipPath
       clipPathUnits="userSpaceOnUse"
       id="clipPath12">
      <path
         d="m 3.125,3.125 h 1050 V 787.5 h -1050 z"
         transform="matrix(0.33764602,0,0,0.33764602,-283.77502,-35.610046)"
         clip-rule="evenodd"
         id="path12" />
    </clipPath>
    <clipPath
       clipPathUnits="userSpaceOnUse"
       id="clipPath13">
      <path
         d="m 3.125,3.125 h 1050 V 787.5 h -1050 z"
         transform="matrix(0.33764602,0,0,0.33764602,-4.6187663,-52.610046)"
         clip-rule="evenodd"
         id="path13" />
    </clipPath>
    <clipPath
       clipPathUnits="userSpaceOnUse"
       id="clipPath14">
      <path
         d="m 3.125,3.125 h 1050 V 787.5 h -1050 z"
         transform="matrix(0.33764602,0,0,0.33764602,-4.6187663,-69.610045)"
         clip-rule="evenodd"
         id="path14" />
    </clipPath>
    <clipPath
       clipPathUnits="userSpaceOnUse"
       id="clipPath15">
      <path
         d="m 3.125,3.125 h 1050 V 787.5 h -1050 z"
         transform="matrix(0.33764602,0,0,0.33764602,-166.04064,-69.610045)"
         clip-rule="evenodd"
         id="path15" />
    </clipPath>
    <clipPath
       clipPathUnits="userSpaceOnUse"
       id="clipPath16">
      <path
         d="m 3.125,3.125 h 1050 V 787.5 h -1050 z"
         transform="matrix(0.33764602,0,0,0.33764602,-170.04064,-69.610045)"
         clip-rule="evenodd"
         id="path16" />
    </clipPath>
    <clipPath
       clipPathUnits="userSpaceOnUse"
       id="clipPath17">
      <path
         d="m 3.125,3.125 h 1050 V 787.5 h -1050 z"
         transform="matrix(0.33764602,0,0,0.33764602,-188.05626,-69.610045)"
         clip-rule="evenodd"
         id="path17" />
    </clipPath>
    <clipPath
       clipPathUnits="userSpaceOnUse"
       id="clipPath18">
      <path
         d="m 3.125,3.125 h 1050 V 787.5 h -1050 z"
         transform="matrix(0.33764602,0,0,0.33764602,-192.05627,-69.610045)"
         clip-rule="evenodd"
         id="path18" />
    </clipPath>
    <clipPath
       clipPathUnits="userSpaceOnUse"
       id="clipPath19">
      <path
         d="m 3.125,3.125 h 1050 V 787.5 h -1050 z"
         transform="matrix(0.33764602,0,0,0.33764602,-195.40001,-69.610045)"
         clip-rule="evenodd"
         id="path19" />
    </clipPath>
    <clipPath
       clipPathUnits="userSpaceOnUse"
       id="clipPath20">
      <path
         d="m 3.125,3.125 h 1050 V 787.5 h -1050 z"
         transform="matrix(0.33764602,0,0,0.33764602,-4.6187663,-86.610045)"
         clip-rule="evenodd"
         id="path20" />
    </clipPath>
    <clipPath
       clipPathUnits="userSpaceOnUse"
       id="clipPath21">
      <path
         d="m 3.125,3.125 h 1050 V 787.5 h -1050 z"
         transform="matrix(0.33764602,0,0,0.33764602,-178.04065,-86.610045)"
         clip-rule="evenodd"
         id="path21" />
    </clipPath>
    <clipPath
       clipPathUnits="userSpaceOnUse"
       id="clipPath22">
      <path
         d="m 3.125,3.125 h 1050 V 787.5 h -1050 z"
         transform="matrix(0.33764602,0,0,0.33764602,-231.40002,-86.610045)"
         clip-rule="evenodd"
         id="path22" />
    </clipPath>
    <clipPath
       clipPathUnits="userSpaceOnUse"
       id="clipPath23">
      <path
         d="m 3.125,3.125 h 1050 V 787.5 h -1050 z"
         transform="matrix(0.33764602,0,0,0.33764602,-4.6187663,-103.61005)"
         clip-rule="evenodd"
         id="path23" />
    </clipPath>
    <clipPath
       clipPathUnits="userSpaceOnUse"
       id="clipPath24">
      <path
         d="m 3.125,3.125 h 1050 V 787.5 h -1050 z"
         transform="matrix(0.33764602,0,0,0.33764602,-183.36877,-103.61005)"
         clip-rule="evenodd"
         id="path24" />
    </clipPath>
    <clipPath
       clipPathUnits="userSpaceOnUse"
       id="clipPath25">
      <path
         d="m 3.125,3.125 h 1050 V 787.5 h -1050 z"
         transform="matrix(0.33764602,0,0,0.33764602,-201.3844,-103.61005)"
         clip-rule="evenodd"
         id="path25" />
    </clipPath>
    <clipPath
       clipPathUnits="userSpaceOnUse"
       id="clipPath26">
      <path
         d="m 3.125,3.125 h 1050 V 787.5 h -1050 z"
         transform="matrix(0.33764602,0,0,0.33764602,-4.6187663,-119.61004)"
         clip-rule="evenodd"
         id="path26" />
    </clipPath>
    <clipPath
       clipPathUnits="userSpaceOnUse"
       id="clipPath27">
      <path
         d="m 3.125,3.125 h 1050 V 787.5 h -1050 z"
         transform="matrix(0.33764602,0,0,0.33764602,-22.634391,-119.61004)"
         clip-rule="evenodd"
         id="path27" />
    </clipPath>
    <clipPath
       clipPathUnits="userSpaceOnUse"
       id="clipPath28">
      <path
         d="m 3.125,3.125 h 1050 V 787.5 h -1050 z"
         transform="matrix(0.33764602,0,0,0.33764602,-4.6187663,-136.61004)"
         clip-rule="evenodd"
         id="path28" />
    </clipPath>
    <clipPath
       clipPathUnits="userSpaceOnUse"
       id="clipPath29">
      <path
         d="m 3.125,3.125 h 1050 V 787.5 h -1050 z"
         transform="matrix(0.33764602,0,0,0.33764602,-182.04065,-136.61004)"
         clip-rule="evenodd"
         id="path29" />
    </clipPath>
    <clipPath
       clipPathUnits="userSpaceOnUse"
       id="clipPath30">
      <path
         d="m 3.125,3.125 h 1050 V 787.5 h -1050 z"
         transform="matrix(0.33764602,0,0,0.33764602,-186.04064,-136.61004)"
         clip-rule="evenodd"
         id="path30" />
    </clipPath>
    <clipPath
       clipPathUnits="userSpaceOnUse"
       id="clipPath31">
      <path
         d="m 3.125,3.125 h 1050 V 787.5 h -1050 z"
         transform="matrix(0.33764602,0,0,0.33764602,-196.04064,-136.61004)"
         clip-rule="evenodd"
         id="path31" />
    </clipPath>
    <clipPath
       clipPathUnits="userSpaceOnUse"
       id="clipPath32">
      <path
         d="m 3.125,3.125 h 1050 V 787.5 h -1050 z"
         transform="matrix(0.33764602,0,0,0.33764602,-200.04065,-136.61004)"
         clip-rule="evenodd"
         id="path32" />
    </clipPath>
    <clipPath
       clipPathUnits="userSpaceOnUse"
       id="clipPath33">
      <path
         d="m 3.125,3.125 h 1050 V 787.5 h -1050 z"
         transform="matrix(0.33764602,0,0,0.33764602,-203.3844,-136.61004)"
         clip-rule="evenodd"
         id="path33" />
    </clipPath>
    <clipPath
       clipPathUnits="userSpaceOnUse"
       id="clipPath34">
      <path
         d="m 3.125,3.125 h 1050 V 787.5 h -1050 z"
         transform="matrix(0.33764602,0,0,0.33764602,-248.74377,-136.61004)"
         clip-rule="evenodd"
         id="path34" />
    </clipPath>
    <clipPath
       clipPathUnits="userSpaceOnUse"
       id="clipPath35">
      <path
         d="m 3.125,3.125 h 1050 V 787.5 h -1050 z"
         transform="matrix(0.33764602,0,0,0.33764602,-4.6187663,-153.61005)"
         clip-rule="evenodd"
         id="path35" />
    </clipPath>
    <clipPath
       clipPathUnits="userSpaceOnUse"
       id="clipPath36">
      <path
         d="m 3.125,3.125 h 1050 V 787.5 h -1050 z"
         transform="matrix(0.33764602,0,0,0.33764602,-182.04065,-153.61005)"
         clip-rule="evenodd"
         id="path36" />
    </clipPath>
    <clipPath
       clipPathUnits="userSpaceOnUse"
       id="clipPath37">
      <path
         d="m 3.125,3.125 h 1050 V 787.5 h -1050 z"
         transform="matrix(0.33764602,0,0,0.33764602,-186.04064,-153.61005)"
         clip-rule="evenodd"
         id="path37" />
    </clipPath>
    <clipPath
       clipPathUnits="userSpaceOnUse"
       id="clipPath38">
      <path
         d="m 3.125,3.125 h 1050 V 787.5 h -1050 z"
         transform="matrix(0.33764602,0,0,0.33764602,-196.04064,-153.61005)"
         clip-rule="evenodd"
         id="path38" />
    </clipPath>
    <clipPath
       clipPathUnits="userSpaceOnUse"
       id="clipPath39">
      <path
         d="m 3.125,3.125 h 1050 V 787.5 h -1050 z"
         transform="matrix(0.33764602,0,0,0.33764602,-200.04065,-153.61005)"
         clip-rule="evenodd"
         id="path39" />
    </clipPath>
    <clipPath
       clipPathUnits="userSpaceOnUse"
       id="clipPath40">
      <path
         d="m 3.125,3.125 h 1050 V 787.5 h -1050 z"
         transform="matrix(0.33764602,0,0,0.33764602,-203.3844,-153.61005)"
         clip-rule="evenodd"
         id="path40" />
    </clipPath>
    <clipPath
       clipPathUnits="userSpaceOnUse"
       id="clipPath41">
      <path
         d="m 3.125,3.125 h 1050 V 787.5 h -1050 z"
         transform="matrix(0.33764602,0,0,0.33764602,-214.40002,-153.61005)"
         clip-rule="evenodd"
         id="path41" />
    </clipPath>
    <clipPath
       clipPathUnits="userSpaceOnUse"
       id="clipPath42">
      <path
         d="m 3.125,3.125 h 1050 V 787.5 h -1050 z"
         transform="matrix(0.33764602,0,0,0.33764602,-4.6187663,-170.61005)"
         clip-rule="evenodd"
         id="path42" />
    </clipPath>
    <clipPath
       clipPathUnits="userSpaceOnUse"
       id="clipPath43">
      <path
         d="m 3.125,3.125 h 1050 V 787.5 h -1050 z"
         transform="matrix(0.33764602,0,0,0.33764602,-80.650017,-170.61005)"
         clip-rule="evenodd"
         id="path43" />
    </clipPath>
    <clipPath
       clipPathUnits="userSpaceOnUse"
       id="clipPath44">
      <path
         d="m 3.125,3.125 h 1050 V 787.5 h -1050 z"
         transform="matrix(0.33764602,0,0,0.33764602,-87.665647,-170.61005)"
         clip-rule="evenodd"
         id="path44" />
    </clipPath>
    <clipPath
       clipPathUnits="userSpaceOnUse"
       id="clipPath45">
      <path
         d="m 3.125,3.125 h 1050 V 787.5 h -1050 z"
         transform="matrix(0.33764602,0,0,0.33764602,-4.6187663,-187.61004)"
         clip-rule="evenodd"
         id="path45" />
    </clipPath>
    <clipPath
       clipPathUnits="userSpaceOnUse"
       id="clipPath46">
      <path
         d="m 3.125,3.125 h 1050 V 787.5 h -1050 z"
         transform="matrix(0.33764602,0,0,0.33764602,-19.962517,-187.61004)"
         clip-rule="evenodd"
         id="path46" />
    </clipPath>
    <clipPath
       clipPathUnits="userSpaceOnUse"
       id="clipPath47">
      <path
         d="m 3.125,3.125 h 1050 V 787.5 h -1050 z"
         transform="matrix(0.33764602,0,0,0.33764602,-4.6187663,-203.61004)"
         clip-rule="evenodd"
         id="path47" />
    </clipPath>
    <clipPath
       clipPathUnits="userSpaceOnUse"
       id="clipPath48">
      <path
         d="m 3.125,3.125 h 1050 V 787.5 h -1050 z"
         transform="matrix(0.33764602,0,0,0.33764602,-49.962517,-203.61004)"
         clip-rule="evenodd"
         id="path48" />
    </clipPath>
    <clipPath
       clipPathUnits="userSpaceOnUse"
       id="clipPath49">
      <path
         d="m 3.125,3.125 h 1050 V 787.5 h -1050 z"
         transform="matrix(0.33764602,0,0,0.33764602,-4.6187663,-220.61005)"
         clip-rule="evenodd"
         id="path49" />
    </clipPath>
    <clipPath
       clipPathUnits="userSpaceOnUse"
       id="clipPath50">
      <path
         d="m 3.125,3.125 h 1050 V 787.5 h -1050 z"
         transform="matrix(0.33764602,0,0,0.33764602,-4.6187663,-238.61004)"
         clip-rule="evenodd"
         id="path50" />
    </clipPath>
  </defs>
  <g
     id="g1">
    <path
       id="path1"
       d="M 0,0 H 338 V 252 H 0 Z"
       style="fill:#ffffff;fill-opacity:1;fill-rule:nonzero;stroke:none"
       clip-path="url(#clipPath2)" />
    <path
       id="path3"
       d="m 120,6727 h 350 v 260 H 120 Z"
       style="fill:#ffffff;fill-opacity:1;fill-rule:nonzero;stroke:#000000;stroke-width:1;stroke-linecap:butt;stroke-linejoin:miter;stroke-miterlimit:10;stroke-dasharray:none;stroke-opacity:1"
       transform="matrix(0.94773807,0,0,0.94773807,-110.77279,-6372.4861)"
       clip-path="url(#clipPath4)" />
    <g
       id="g4" />
    <text
       id="text4"
       xml:space="preserve"
       transform="matrix(0.94773807,0,0,0.94773807,137.66786,19.532925)"
       clip-path="url(#clipPath5)"><tspan
         id="tspan4"
         style="font-style:italic;font-variant:normal;font-weight:normal;font-size:12px;font-family:Arial;writing-mode:lr-tb;fill:#000000;fill-opacity:1;fill-rule:nonzero;stroke:none"
         x="0"
         y="0"> verifications</tspan></text>
    <text
       id="text5"
       xml:space="preserve"
       transform="matrix(0.94773807,0,0,0.94773807,4.3773807,33.748996)"
       clip-path="url(#clipPath6)"><tspan
         id="tspan5"
         style="font-variant:normal;font-weight:700;font-size:12px;font-family:Arial;writing-mode:lr-tb;fill:#000000;fill-opacity:1;fill-rule:nonzero;stroke:none"
         x="0"
         y="0">^</tspan></text>
    <text
       id="text6"
       xml:space="preserve"
       transform="matrix(0.94773807,0,0,0.94773807,11.026356,33.748996)"
       clip-path="url(#clipPath7)"><tspan
         id="tspan6"
         style="font-variant:normal;font-weight:normal;font-size:12px;font-family:Arial;writing-mode:lr-tb;fill:#000000;fill-opacity:1;fill-rule:nonzero;stroke:none"
         x="0"
         dx="0 0 0 0 0 0 0 0 0 0 0 0 0 0 0 0 0 -0.66210914"
         y="0">verification2 : VerificationDef2</tspan></text>
    <g
       id="g7" />
    <text
       id="text7"
       xml:space="preserve"
       transform="matrix(0.94773807,0,0,0.94773807,160.85783,33.748996)"
       clip-path="url(#clipPath8)"><tspan
         id="tspan7"
         style="font-variant:normal;font-weight:normal;font-size:12px;font-family:Arial;writing-mode:lr-tb;fill:#0d0d0d;fill-opacity:1;fill-rule:nonzero;stroke:none"
         x="0"
         y="0"> (</tspan></text>
    <text
       id="text8"
       xml:space="preserve"
       transform="matrix(0.94773807,0,0,0.94773807,167.81778,33.748996)"
       clip-path="url(#clipPath9)"><tspan
         id="tspan8"
         style="font-variant:normal;font-weight:700;font-size:12px;font-family:Arial;writing-mode:lr-tb;fill:#0d0d0d;fill-opacity:1;fill-rule:nonzero;stroke:none"
         x="0"
         y="0">in</tspan></text>
    <text
       id="text9"
       xml:space="preserve"
       transform="matrix(0.94773807,0,0,0.94773807,177.93192,33.748996)"
       clip-path="url(#clipPath10)"><tspan
         id="tspan9"
         style="font-variant:normal;font-weight:normal;font-size:12px;font-family:Arial;writing-mode:lr-tb;fill:#0d0d0d;fill-opacity:1;fill-rule:nonzero;stroke:none"
         x="0"
         y="0"> : ParamDef1, </tspan></text>
    <text
       id="text10"
       xml:space="preserve"
       transform="matrix(0.94773807,0,0,0.94773807,251.26315,33.748996)"
       clip-path="url(#clipPath11)"><tspan
         id="tspan10"
         style="font-variant:normal;font-weight:700;font-size:12px;font-family:Arial;writing-mode:lr-tb;fill:#0d0d0d;fill-opacity:1;fill-rule:nonzero;stroke:none"
         x="0"
         y="0">out</tspan></text>
    <text
       id="text11"
       xml:space="preserve"
       transform="matrix(0.94773807,0,0,0.94773807,268.94439,33.748996)"
       clip-path="url(#clipPath12)"><tspan
         id="tspan11"
         style="font-variant:normal;font-weight:normal;font-size:12px;font-family:Arial;writing-mode:lr-tb;fill:#0d0d0d;fill-opacity:1;fill-rule:nonzero;stroke:none"
         x="0"
         y="0"> :</tspan></text>
    <text
       id="text12"
       xml:space="preserve"
       transform="matrix(0.94773807,0,0,0.94773807,4.3773807,49.860543)"
       clip-path="url(#clipPath13)"><tspan
         id="tspan12"
         style="font-variant:normal;font-weight:normal;font-size:12px;font-family:Arial;writing-mode:lr-tb;fill:#0d0d0d;fill-opacity:1;fill-rule:nonzero;stroke:none"
         x="0"
         y="0">ParamDef2)</tspan></text>
    <text
       id="text13"
       xml:space="preserve"
       transform="matrix(0.94773807,0,0,0.94773807,4.3773807,65.97209)"
       clip-path="url(#clipPath14)"><tspan
         id="tspan13"
         style="font-variant:normal;font-weight:normal;font-size:12px;font-family:Arial;writing-mode:lr-tb;fill:#000000;fill-opacity:1;fill-rule:nonzero;stroke:none"
         x="0"
         dx="0 0 0 0 0 0 0 0 0 0 0 0 0 0 0 0 0 -0.66210914"
         y="0">verification1 : VerificationDef1 </tspan></text>
    <text
       id="text14"
       xml:space="preserve"
       transform="matrix(0.94773807,0,0,0.94773807,157.36304,65.97209)"
       clip-path="url(#clipPath15)"><tspan
         id="tspan14"
         style="font-variant:normal;font-weight:700;font-size:12px;font-family:Arial;writing-mode:lr-tb;fill:#000000;fill-opacity:1;fill-rule:nonzero;stroke:none"
         x="0"
         y="0">[</tspan></text>
    <text
       id="text15"
       xml:space="preserve"
       transform="matrix(0.94773807,0,0,0.94773807,161.15399,65.97209)"
       clip-path="url(#clipPath16)"><tspan
         id="tspan15"
         style="font-variant:normal;font-weight:normal;font-size:12px;font-family:Arial;writing-mode:lr-tb;fill:#000000;fill-opacity:1;fill-rule:nonzero;stroke:none"
         x="0"
         y="0">1..*</tspan></text>
    <text
       id="text16"
       xml:space="preserve"
       transform="matrix(0.94773807,0,0,0.94773807,178.22808,65.97209)"
       clip-path="url(#clipPath17)"><tspan
         id="tspan16"
         style="font-variant:normal;font-weight:700;font-size:12px;font-family:Arial;writing-mode:lr-tb;fill:#000000;fill-opacity:1;fill-rule:nonzero;stroke:none"
         x="0"
         y="0">]</tspan></text>
    <text
       id="text17"
       xml:space="preserve"
       transform="matrix(0.94773807,0,0,0.94773807,182.01904,65.97209)"
       clip-path="url(#clipPath18)"><tspan
         id="tspan17"
         style="font-variant:normal;font-weight:normal;font-size:12px;font-family:Arial;writing-mode:lr-tb;fill:#000000;fill-opacity:1;fill-rule:nonzero;stroke:none"
         x="0"
         y="0"> </tspan></text>
    <text
       id="text18"
       xml:space="preserve"
       transform="matrix(0.94773807,0,0,0.94773807,185.18803,65.97209)"
       clip-path="url(#clipPath19)"><tspan
         id="tspan18"
         style="font-variant:normal;font-weight:700;font-size:12px;font-family:Arial;writing-mode:lr-tb;fill:#000000;fill-opacity:1;fill-rule:nonzero;stroke:none"
         x="0"
         y="0">ordered nonunique</tspan></text>
    <g
       id="g19" />
    <text
       id="text19"
       xml:space="preserve"
       transform="matrix(0.94773807,0,0,0.94773807,4.3773807,82.083637)"
       clip-path="url(#clipPath20)"><tspan
         id="tspan19"
         style="font-variant:normal;font-weight:normal;font-size:12px;font-family:Arial;writing-mode:lr-tb;fill:#000000;fill-opacity:1;fill-rule:nonzero;stroke:none"
         x="0"
         dx="0 0 0 0 0 0 0 0 0 0 0 0 0 0 0 0 0 -0.66210914"
         y="0">verifcation3R : VerficationDef3R </tspan></text>
    <text
       id="text20"
       xml:space="preserve"
       transform="matrix(0.94773807,0,0,0.94773807,168.7359,82.083637)"
       clip-path="url(#clipPath21)"><tspan
         id="tspan20"
         style="font-variant:normal;font-weight:700;font-size:12px;font-family:Arial;writing-mode:lr-tb;fill:#000000;fill-opacity:1;fill-rule:nonzero;stroke:none"
         x="0"
         y="0">redefines</tspan></text>
    <text
       id="text21"
       xml:space="preserve"
       transform="matrix(0.94773807,0,0,0.94773807,219.30661,82.083637)"
       clip-path="url(#clipPath22)"><tspan
         id="tspan21"
         style="font-variant:normal;font-weight:normal;font-size:12px;font-family:Arial;writing-mode:lr-tb;fill:#000000;fill-opacity:1;fill-rule:nonzero;stroke:none"
         x="0"
         y="0"> verification3</tspan></text>
    <text
       id="text22"
       xml:space="preserve"
       transform="matrix(0.94773807,0,0,0.94773807,4.3773807,98.195185)"
       clip-path="url(#clipPath23)"><tspan
         id="tspan22"
         style="font-variant:normal;font-weight:normal;font-size:12px;font-family:Arial;writing-mode:lr-tb;fill:#000000;fill-opacity:1;fill-rule:nonzero;stroke:none"
         x="0"
         dx="0 0 0 0 0 0 0 0 0 0 0 0 0 0 0 0 0 0 -0.66210878"
         y="0">verification4R : VerificationDef4R </tspan></text>
    <text
       id="text23"
       xml:space="preserve"
       transform="matrix(0.94773807,0,0,0.94773807,173.78556,98.195185)"
       clip-path="url(#clipPath24)"><tspan
         id="tspan23"
         style="font-variant:normal;font-weight:700;font-size:12px;font-family:Arial;writing-mode:lr-tb;fill:#000000;fill-opacity:1;fill-rule:nonzero;stroke:none"
         x="0"
         y="0">:&gt;&gt;</tspan></text>
    <text
       id="text24"
       xml:space="preserve"
       transform="matrix(0.94773807,0,0,0.94773807,190.85966,98.195185)"
       clip-path="url(#clipPath25)"><tspan
         id="tspan24"
         style="font-variant:normal;font-weight:normal;font-size:12px;font-family:Arial;writing-mode:lr-tb;fill:#000000;fill-opacity:1;fill-rule:nonzero;stroke:none"
         x="0"
         y="0"> verification4</tspan></text>
    <text
       id="text25"
       xml:space="preserve"
       transform="matrix(0.94773807,0,0,0.94773807,4.3773807,113.35899)"
       clip-path="url(#clipPath26)"><tspan
         id="tspan25"
         style="font-variant:normal;font-weight:700;font-size:12px;font-family:Arial;writing-mode:lr-tb;fill:#000000;fill-opacity:1;fill-rule:nonzero;stroke:none"
         x="0"
         y="0">:&gt;&gt;</tspan></text>
    <text
       id="text26"
       xml:space="preserve"
       transform="matrix(0.94773807,0,0,0.94773807,21.451474,113.35899)"
       clip-path="url(#clipPath27)"><tspan
         id="tspan26"
         style="font-variant:normal;font-weight:normal;font-size:12px;font-family:Arial;writing-mode:lr-tb;fill:#000000;fill-opacity:1;fill-rule:nonzero;stroke:none"
         x="0"
         y="0"> verification5</tspan></text>
    <text
       id="text27"
       xml:space="preserve"
       transform="matrix(0.94773807,0,0,0.94773807,4.3773807,129.47054)"
       clip-path="url(#clipPath28)"><tspan
         id="tspan27"
         style="font-variant:normal;font-weight:normal;font-size:12px;font-family:Arial;writing-mode:lr-tb;fill:#000000;fill-opacity:1;fill-rule:nonzero;stroke:none"
         x="0"
         dx="0 0 0 0 0 0 0 0 0 0 0 0 0 0 0 0 0 0 -0.66210938"
         y="0">verification6S : VerificationDef6S </tspan></text>
    <text
       id="text28"
       xml:space="preserve"
       transform="matrix(0.94773807,0,0,0.94773807,172.52685,129.47054)"
       clip-path="url(#clipPath29)"><tspan
         id="tspan28"
         style="font-variant:normal;font-weight:700;font-size:12px;font-family:Arial;writing-mode:lr-tb;fill:#000000;fill-opacity:1;fill-rule:nonzero;stroke:none"
         x="0"
         y="0">[</tspan></text>
    <text
       id="text29"
       xml:space="preserve"
       transform="matrix(0.94773807,0,0,0.94773807,176.3178,129.47054)"
       clip-path="url(#clipPath30)"><tspan
         id="tspan29"
         style="font-variant:normal;font-weight:normal;font-size:12px;font-family:Arial;writing-mode:lr-tb;fill:#000000;fill-opacity:1;fill-rule:nonzero;stroke:none"
         x="0"
         y="0">m</tspan></text>
    <text
       id="text30"
       xml:space="preserve"
       transform="matrix(0.94773807,0,0,0.94773807,185.79518,129.47054)"
       clip-path="url(#clipPath31)"><tspan
         id="tspan30"
         style="font-variant:normal;font-weight:700;font-size:12px;font-family:Arial;writing-mode:lr-tb;fill:#000000;fill-opacity:1;fill-rule:nonzero;stroke:none"
         x="0"
         y="0">]</tspan></text>
    <g
       id="g31" />
    <text
       id="text31"
       xml:space="preserve"
       transform="matrix(0.94773807,0,0,0.94773807,189.58614,129.47054)"
       clip-path="url(#clipPath32)"><tspan
         id="tspan31"
         style="font-variant:normal;font-weight:normal;font-size:12px;font-family:Arial;writing-mode:lr-tb;fill:#000000;fill-opacity:1;fill-rule:nonzero;stroke:none"
         x="0"
         y="0"> </tspan></text>
    <text
       id="text32"
       xml:space="preserve"
       transform="matrix(0.94773807,0,0,0.94773807,192.75514,129.47054)"
       clip-path="url(#clipPath33)"><tspan
         id="tspan32"
         style="font-variant:normal;font-weight:700;font-size:12px;font-family:Arial;writing-mode:lr-tb;fill:#000000;fill-opacity:1;fill-rule:nonzero;stroke:none"
         x="0"
         y="0">subsets</tspan></text>
    <g
       id="g33" />
    <text
       id="text33"
       xml:space="preserve"
       transform="matrix(0.94773807,0,0,0.94773807,235.74394,129.47054)"
       clip-path="url(#clipPath34)"><tspan
         id="tspan33"
         style="font-variant:normal;font-weight:normal;font-size:12px;font-family:Arial;writing-mode:lr-tb;fill:#000000;fill-opacity:1;fill-rule:nonzero;stroke:none"
         x="0"
         y="0"> verification6</tspan></text>
    <text
       id="text34"
       xml:space="preserve"
       transform="matrix(0.94773807,0,0,0.94773807,4.3773807,145.58209)"
       clip-path="url(#clipPath35)"><tspan
         id="tspan34"
         style="font-variant:normal;font-weight:normal;font-size:12px;font-family:Arial;writing-mode:lr-tb;fill:#000000;fill-opacity:1;fill-rule:nonzero;stroke:none"
         x="0"
         dx="0 0 0 0 0 0 0 0 0 0 0 0 0 0 0 0 0 0 -0.66210938"
         y="0">verification7S : VerificationDef7S </tspan></text>
    <text
       id="text35"
       xml:space="preserve"
       transform="matrix(0.94773807,0,0,0.94773807,172.52685,145.58209)"
       clip-path="url(#clipPath36)"><tspan
         id="tspan35"
         style="font-variant:normal;font-weight:700;font-size:12px;font-family:Arial;writing-mode:lr-tb;fill:#000000;fill-opacity:1;fill-rule:nonzero;stroke:none"
         x="0"
         y="0">[</tspan></text>
    <text
       id="text36"
       xml:space="preserve"
       transform="matrix(0.94773807,0,0,0.94773807,176.3178,145.58209)"
       clip-path="url(#clipPath37)"><tspan
         id="tspan36"
         style="font-variant:normal;font-weight:normal;font-size:12px;font-family:Arial;writing-mode:lr-tb;fill:#000000;fill-opacity:1;fill-rule:nonzero;stroke:none"
         x="0"
         y="0">m</tspan></text>
    <text
       id="text37"
       xml:space="preserve"
       transform="matrix(0.94773807,0,0,0.94773807,185.79518,145.58209)"
       clip-path="url(#clipPath38)"><tspan
         id="tspan37"
         style="font-variant:normal;font-weight:700;font-size:12px;font-family:Arial;writing-mode:lr-tb;fill:#000000;fill-opacity:1;fill-rule:nonzero;stroke:none"
         x="0"
         y="0">]</tspan></text>
    <text
       id="text38"
       xml:space="preserve"
       transform="matrix(0.94773807,0,0,0.94773807,189.58614,145.58209)"
       clip-path="url(#clipPath39)"><tspan
         id="tspan38"
         style="font-variant:normal;font-weight:normal;font-size:12px;font-family:Arial;writing-mode:lr-tb;fill:#000000;fill-opacity:1;fill-rule:nonzero;stroke:none"
         x="0"
         y="0"> </tspan></text>
    <text
       id="text39"
       xml:space="preserve"
       transform="matrix(0.94773807,0,0,0.94773807,192.75514,145.58209)"
       clip-path="url(#clipPath40)"><tspan
         id="tspan39"
         style="font-variant:normal;font-weight:700;font-size:12px;font-family:Arial;writing-mode:lr-tb;fill:#000000;fill-opacity:1;fill-rule:nonzero;stroke:none"
         x="0"
         y="0">:&gt;</tspan></text>
    <text
       id="text40"
       xml:space="preserve"
       transform="matrix(0.94773807,0,0,0.94773807,203.19506,145.58209)"
       clip-path="url(#clipPath41)"><tspan
         id="tspan40"
         style="font-variant:normal;font-weight:normal;font-size:12px;font-family:Arial;writing-mode:lr-tb;fill:#000000;fill-opacity:1;fill-rule:nonzero;stroke:none"
         x="0"
         y="0"> verification7</tspan></text>
    <text
       id="text41"
       xml:space="preserve"
       transform="matrix(0.94773807,0,0,0.94773807,4.3773807,161.69364)"
       clip-path="url(#clipPath42)"><tspan
         id="tspan41"
         style="font-variant:normal;font-weight:normal;font-size:12px;font-family:Arial;writing-mode:lr-tb;fill:#000000;fill-opacity:1;fill-rule:nonzero;stroke:none"
         x="0"
         y="0">verification8R </tspan></text>
    <text
       id="text42"
       xml:space="preserve"
       transform="matrix(0.94773807,0,0,0.94773807,76.435091,161.69364)"
       clip-path="url(#clipPath43)"><tspan
         id="tspan42"
         style="font-variant:normal;font-weight:700;font-size:12px;font-family:Arial;writing-mode:lr-tb;fill:#000000;fill-opacity:1;fill-rule:nonzero;stroke:none"
         x="0"
         y="0">=</tspan></text>
    <text
       id="text43"
       xml:space="preserve"
       transform="matrix(0.94773807,0,0,0.94773807,83.084071,161.69364)"
       clip-path="url(#clipPath44)"><tspan
         id="tspan43"
         style="font-variant:normal;font-weight:normal;font-size:12px;font-family:Arial;writing-mode:lr-tb;fill:#000000;fill-opacity:1;fill-rule:nonzero;stroke:none"
         x="0"
         y="0"> verification8</tspan></text>
    <text
       id="text44"
       xml:space="preserve"
       transform="matrix(0.94773807,0,0,0.94773807,4.3773807,177.80518)"
       clip-path="url(#clipPath45)"><tspan
         id="tspan44"
         style="font-variant:normal;font-weight:700;font-size:12px;font-family:Arial;writing-mode:lr-tb;fill:#000000;fill-opacity:1;fill-rule:nonzero;stroke:none"
         x="0"
         y="0">ref</tspan></text>
    <g
       id="g45" />
    <text
       id="text45"
       xml:space="preserve"
       transform="matrix(0.94773807,0,0,0.94773807,18.919237,177.80518)"
       clip-path="url(#clipPath46)"><tspan
         id="tspan45"
         style="font-variant:normal;font-weight:normal;font-size:12px;font-family:Arial;writing-mode:lr-tb;fill:#000000;fill-opacity:1;fill-rule:nonzero;stroke:none"
         x="0"
         dx="0 0 0 0 0 0 0 0 0 0 0 0 0 0 0 0 0 0 -0.66210949"
         y="0"> verification9 : VerificationDef9</tspan></text>
    <text
       id="text46"
       xml:space="preserve"
       transform="matrix(0.94773807,0,0,0.94773807,4.3773807,192.96899)"
       clip-path="url(#clipPath47)"><tspan
         id="tspan46"
         style="font-variant:normal;font-weight:700;font-size:12px;font-family:Arial;writing-mode:lr-tb;fill:#000000;fill-opacity:1;fill-rule:nonzero;stroke:none"
         x="0"
         y="0">perform</tspan></text>
    <g
       id="g47" />
    <text
       id="text47"
       xml:space="preserve"
       transform="matrix(0.94773807,0,0,0.94773807,47.351379,192.96899)"
       clip-path="url(#clipPath48)"><tspan
         id="tspan47"
         style="font-variant:normal;font-weight:normal;font-size:12px;font-family:Arial;writing-mode:lr-tb;fill:#000000;fill-opacity:1;fill-rule:nonzero;stroke:none"
         x="0"
         y="0"> verification10</tspan></text>
    <text
       id="text48"
       xml:space="preserve"
       transform="matrix(0.94773807,0,0,0.94773807,4.3773807,209.08054)"
       clip-path="url(#clipPath49)"><tspan
         id="tspan48"
         style="font-variant:normal;font-weight:normal;font-size:12px;font-family:Arial;writing-mode:lr-tb;fill:#000000;fill-opacity:1;fill-rule:nonzero;stroke:none"
         x="0"
         dx="0 0 0 0 0 0 0 0 0 0 0 0 0 -0.89062476"
         y="0">verification11</tspan></text>
    <text
       id="text49"
       xml:space="preserve"
       transform="matrix(0.94773807,0,0,0.94773807,4.3773807,226.13982)"
       clip-path="url(#clipPath50)"><tspan
         id="tspan49"
         style="font-variant:normal;font-weight:700;font-size:14px;font-family:Arial;writing-mode:lr-tb;fill:#000000;fill-opacity:1;fill-rule:nonzero;stroke:none"
         x="0"
         y="0">...</tspan></text>
  </g>
</svg>
