<?xml version="1.0" encoding="UTF-8" standalone="no"?>
<!-- Created with Inkscape (http://www.inkscape.org/) -->

<svg
   version="1.1"
   id="svg1"
   width="296"
   height="126.72"
   viewBox="0 0 296 126.72"
   xmlns="http://www.w3.org/2000/svg"
   xmlns:svg="http://www.w3.org/2000/svg">
  <defs
     id="defs1">
    <clipPath
       clipPathUnits="userSpaceOnUse"
       id="clipPath2">
      <path
         d="M 0,0 H 924.02344 V 395.99609 H 0 Z"
         transform="scale(0.31999999)"
         clip-rule="evenodd"
         id="path2" />
    </clipPath>
    <clipPath
       clipPathUnits="userSpaceOnUse"
       id="clipPath4">
      <path
         d="m 3.125,0 h 918.75 V 395.99609 H 3.125 Z"
         transform="matrix(0.33717693,0,0,0.33717693,269.87975,6599.0002)"
         clip-rule="evenodd"
         id="path4" />
    </clipPath>
    <clipPath
       clipPathUnits="userSpaceOnUse"
       id="clipPath5">
      <path
         d="m 3.125,0 h 918.75 V 395.99609 H 3.125 Z"
         transform="matrix(0.33717693,0,0,0.33717693,-107.97964,-16.500438)"
         clip-rule="evenodd"
         id="path5" />
    </clipPath>
    <clipPath
       clipPathUnits="userSpaceOnUse"
       id="clipPath6">
      <path
         d="m 3.125,0 h 918.75 V 395.99609 H 3.125 Z"
         transform="matrix(0.33717693,0,0,0.33717693,-24.839015,-36.500438)"
         clip-rule="evenodd"
         id="path6" />
    </clipPath>
    <clipPath
       clipPathUnits="userSpaceOnUse"
       id="clipPath8">
      <path
         d="m 3.125,0 h 918.75 V 395.99609 H 3.125 Z"
         transform="matrix(0.33717693,0,0,0.33717693,269.87975,6599.0002)"
         clip-rule="evenodd"
         id="path8" />
    </clipPath>
    <clipPath
       clipPathUnits="userSpaceOnUse"
       id="clipPath9">
      <path
         d="m 3.125,0 h 918.75 V 395.99609 H 3.125 Z"
         transform="matrix(0.33717693,0,0,0.33717693,-103.54214,-106.50043)"
         clip-rule="evenodd"
         id="path9" />
    </clipPath>
    <clipPath
       clipPathUnits="userSpaceOnUse"
       id="clipPath10">
      <path
         d="m 3.125,0 h 918.75 V 395.99609 H 3.125 Z"
         transform="matrix(0.33717693,0,0,0.33717693,-51.073394,-126.50044)"
         clip-rule="evenodd"
         id="path10" />
    </clipPath>
    <clipPath
       clipPathUnits="userSpaceOnUse"
       id="clipPath12">
      <path
         d="m 3.125,0 h 918.75 V 395.99609 H 3.125 Z"
         transform="matrix(0.33717693,0,0,0.33717693,269.87975,6599.0002)"
         clip-rule="evenodd"
         id="path12" />
    </clipPath>
    <clipPath
       clipPathUnits="userSpaceOnUse"
       id="clipPath14">
      <path
         d="m 3.125,0 h 918.75 V 395.99609 H 3.125 Z"
         transform="matrix(0.33717693,0,0,0.33717693,269.87975,6599.0002)"
         clip-rule="evenodd"
         id="path14" />
    </clipPath>
    <clipPath
       clipPathUnits="userSpaceOnUse"
       id="clipPath16">
      <path
         d="m 3.125,0 h 918.75 V 395.99609 H 3.125 Z"
         transform="matrix(0.33717693,0,0,0.33717693,270.37973,6599.4995)"
         clip-rule="evenodd"
         id="path16" />
    </clipPath>
    <clipPath
       clipPathUnits="userSpaceOnUse"
       id="clipPath18">
      <path
         d="m 3.125,0 h 918.75 V 395.99609 H 3.125 Z"
         transform="matrix(0.33717693,0,0,0.33717693,270.37973,6599.4995)"
         clip-rule="evenodd"
         id="path18" />
    </clipPath>
    <clipPath
       clipPathUnits="userSpaceOnUse"
       id="clipPath19">
      <path
         d="m 3.125,0 h 918.75 V 395.99609 H 3.125 Z"
         transform="matrix(0.33717693,0,0,0.33717693,-101.10464,-67.500438)"
         clip-rule="evenodd"
         id="path19" />
    </clipPath>
  </defs>
  <g
     id="g1">
    <path
       id="path1"
       d="M 0,0 H 296 V 127 H 0 Z"
       style="fill:#ffffff;fill-opacity:1;fill-rule:nonzero;stroke:none"
       clip-path="url(#clipPath2)" />
    <path
       id="path3"
       d="m 281,6600 h 289 c 0.52527,5e-4 1.04547,0.052 1.56061,0.1543 0.5152,0.102 1.0155,0.2534 1.50079,0.4541 0.48529,0.2007 0.94629,0.4468 1.38306,0.7388 0.43683,0.292 0.84094,0.6235 1.21234,0.9951 0.3714,0.3716 0.70306,0.7754 0.99487,1.2119 0.29181,0.437 0.53827,0.8979 0.73926,1.3833 0.20105,0.4854 0.35284,0.9858 0.45532,1.501 0.10248,0.5151 0.15369,1.0356 0.15375,1.5615 v 24 c -6e-5,0.5254 -0.0513,1.0454 -0.15375,1.5605 -0.10248,0.5152 -0.25427,1.0152 -0.45532,1.5 -0.20099,0.4854 -0.44745,0.9463 -0.73926,1.3833 -0.29181,0.4366 -0.62347,0.8409 -0.99487,1.2129 -0.3714,0.3711 -0.77551,0.7027 -1.21228,0.9947 -0.43683,0.2915 -0.89783,0.5381 -1.38312,0.7392 -0.48529,0.2007 -0.98559,0.3526 -1.50079,0.4556 C 571.04547,6639.9487 570.52527,6640 570,6640 H 281 c -0.5253,0 -1.04556,-0.051 -1.56076,-0.1538 -0.5152,-0.103 -1.01544,-0.2549 -1.50076,-0.4556 -0.48526,-0.2011 -0.94629,-0.4477 -1.38309,-0.7397 -0.43674,-0.2915 -0.84082,-0.6231 -1.21225,-0.9942 -0.37146,-0.372 -0.70309,-0.7763 -0.99493,-1.2129 -0.29181,-0.437 -0.53824,-0.8979 -0.73926,-1.3833 -0.20102,-0.4848 -0.35279,-0.9853 -0.45526,-1.5004 C 273.05124,6633.0454 273,6632.5254 273,6632 v -24 c 0,-0.5259 0.0512,-1.0464 0.15369,-1.5615 0.10247,-0.5156 0.25424,-1.0161 0.45526,-1.5015 0.20102,-0.4853 0.44745,-0.9463 0.73926,-1.3833 0.29184,-0.436 0.62347,-0.8398 0.99493,-1.2114 0.37143,-0.3716 0.77551,-0.7031 1.21225,-0.9951 0.4368,-0.292 0.89783,-0.5381 1.38309,-0.7388 0.48532,-0.2007 0.98556,-0.3525 1.50076,-0.4546 0.5152,-0.102 1.03546,-0.1533 1.56076,-0.1538 z"
       style="fill:#ffffff;fill-opacity:1;fill-rule:nonzero;stroke:#000000;stroke-width:1;stroke-linecap:butt;stroke-linejoin:miter;stroke-miterlimit:10;stroke-dasharray:none;stroke-opacity:1"
       transform="matrix(0.9490566,0,0,0.9490566,-256.13116,-6262.8247)"
       clip-path="url(#clipPath4)" />
    <text
       id="text4"
       xml:space="preserve"
       transform="matrix(0.9490566,0,0,0.9490566,102.47879,15.65985)"
       clip-path="url(#clipPath5)"><tspan
         id="tspan4"
         style="font-variant:normal;font-weight:normal;font-size:16px;font-family:Arial;writing-mode:lr-tb;fill:#000000;fill-opacity:1;fill-rule:nonzero;stroke:none"
         x="0"
         y="0">«verification»</tspan></text>
    <text
       id="text5"
       xml:space="preserve"
       transform="matrix(0.9490566,0,0,0.9490566,23.573631,34.640982)"
       clip-path="url(#clipPath6)"><tspan
         id="tspan5"
         style="font-variant:normal;font-weight:normal;font-size:16px;font-family:Arial;writing-mode:lr-tb;fill:#000000;fill-opacity:1;fill-rule:nonzero;stroke:none"
         x="0"
         dx="0 0 0 0 0 0 0 0 0 0 0 0 0 0 0 0 0 0 0 0 0 -0.88281155"
         y="0">verificationCase1 : VerificationCase1</tspan></text>
    <path
       id="path7"
       d="m 306.82999,6690 h 237.33999 c 0.52527,0 1.04554,0.051 1.56073,0.1533 0.51514,0.1026 1.01538,0.2544 1.50067,0.4551 0.48529,0.2007 0.94635,0.4473 1.38318,0.7397 0.43677,0.2915 0.84088,0.6236 1.21228,0.9952 0.3714,0.3711 0.70301,0.7749 0.99488,1.2114 0.29181,0.437 0.5382,0.8979 0.73925,1.3833 0.20099,0.4853 0.35279,0.9858 0.45527,1.501 0.10247,0.5151 0.15374,1.0351 0.15374,1.561 v 24 c 0,0.5249 -0.0513,1.0449 -0.15374,1.5601 -0.10248,0.5151 -0.25428,1.0151 -0.45527,1.5004 -0.20105,0.4849 -0.44744,0.9458 -0.73925,1.3829 -0.29187,0.437 -0.62348,0.8413 -0.99488,1.2129 -0.3714,0.3715 -0.77551,0.7031 -1.21228,0.9951 -0.43683,0.2915 -0.89789,0.5376 -1.38318,0.7387 -0.48529,0.2007 -0.98553,0.3526 -1.50073,0.4556 -0.5152,0.1025 -1.0354,0.1538 -1.56067,0.1543 H 306.82999 c -0.5253,-5e-4 -1.04554,-0.052 -1.56076,-0.1543 -0.51517,-0.103 -1.01545,-0.2549 -1.50077,-0.4556 -0.48532,-0.2011 -0.94635,-0.4477 -1.38308,-0.7392 -0.43674,-0.2915 -0.84082,-0.6231 -1.21225,-0.9946 -0.37143,-0.3716 -0.70307,-0.7759 -0.99491,-1.2129 -0.29184,-0.4371 -0.53827,-0.898 -0.73929,-1.3829 -0.20101,-0.4853 -0.35278,-0.9853 -0.45526,-1.5004 -0.10244,-0.5152 -0.15368,-1.0352 -0.15368,-1.5601 v -24 c 0,-0.5259 0.0512,-1.0464 0.15371,-1.5615 0.10245,-0.5147 0.25422,-1.0147 0.45523,-1.5 0.20102,-0.4859 0.44742,-0.9468 0.73926,-1.3833 0.29184,-0.437 0.62351,-0.8408 0.99494,-1.2119 0.37143,-0.3716 0.77551,-0.7037 1.21225,-0.9956 0.43673,-0.292 0.89776,-0.5386 1.38308,-0.7393 0.48532,-0.2007 0.9856,-0.3525 1.50077,-0.4551 0.51522,-0.102 1.03546,-0.1533 1.56076,-0.1533 z"
       style="fill:#ffffff;fill-opacity:1;fill-rule:nonzero;stroke:#000000;stroke-width:1;stroke-linecap:butt;stroke-linejoin:miter;stroke-miterlimit:10;stroke-dasharray:none;stroke-opacity:1"
       transform="matrix(0.9490566,0,0,0.9490566,-256.13116,-6262.8247)"
       clip-path="url(#clipPath8)" />
    <text
       id="text8"
       xml:space="preserve"
       transform="matrix(0.9490566,0,0,0.9490566,98.267356,101.07494)"
       clip-path="url(#clipPath9)"><tspan
         id="tspan8"
         style="font-variant:normal;font-weight:normal;font-size:16px;font-family:Arial;writing-mode:lr-tb;fill:#000000;fill-opacity:1;fill-rule:nonzero;stroke:none"
         x="0"
         y="0">«requirement»</tspan></text>
    <text
       id="text9"
       xml:space="preserve"
       transform="matrix(0.9490566,0,0,0.9490566,48.471542,120.05608)"
       clip-path="url(#clipPath10)"><tspan
         id="tspan9"
         style="font-variant:normal;font-weight:normal;font-size:16px;font-family:Arial;writing-mode:lr-tb;fill:#000000;fill-opacity:1;fill-rule:nonzero;stroke:none"
         x="0"
         y="0">requirement1 : Requirement1</tspan></text>
    <path
       id="path11"
       d="m 425.5,6640 v 47.7598"
       style="fill:none;stroke:#000000;stroke-width:1;stroke-linecap:butt;stroke-linejoin:miter;stroke-miterlimit:10;stroke-dasharray:none;stroke-opacity:1"
       transform="matrix(0.9490566,0,0,0.9490566,-256.13116,-6262.8247)"
       clip-path="url(#clipPath12)" />
    <path
       id="path13"
       d="m 421,6679.8799 4.5,9 4.5,-9"
       style="fill:none;stroke:#000000;stroke-width:1;stroke-linecap:butt;stroke-linejoin:miter;stroke-miterlimit:10;stroke-dasharray:none;stroke-opacity:1"
       transform="matrix(0.9490566,0,0,0.9490566,-256.13116,-6262.8247)"
       clip-path="url(#clipPath14)" />
    <path
       id="path15"
       d="m 371,6656 h 43 v 15 h -43 z"
       style="fill:#ffffff;fill-opacity:1;fill-rule:nonzero;stroke:none"
       transform="matrix(0.9490566,0,0,0.9490566,-256.60567,-6263.2986)"
       clip-path="url(#clipPath16)" />
    <path
       id="path17"
       d="m 371,6656 h 43 v 14 h -43 z"
       style="fill:#f8f9fa;fill-opacity:1;fill-rule:nonzero;stroke:none"
       transform="matrix(0.9490566,0,0,0.9490566,-256.60567,-6263.2986)"
       clip-path="url(#clipPath18)" />
    <text
       id="text18"
       xml:space="preserve"
       transform="matrix(0.9490566,0,0,0.9490566,95.95403,64.061736)"
       clip-path="url(#clipPath19)"><tspan
         id="tspan18"
         style="font-variant:normal;font-weight:normal;font-size:12px;font-family:Arial;writing-mode:lr-tb;fill:#000000;fill-opacity:1;fill-rule:nonzero;stroke:none"
         x="0"
         y="0">«verify»</tspan></text>
  </g>
</svg>
