<?xml version="1.0" encoding="UTF-8" standalone="no"?>
<!-- Created with Inkscape (http://www.inkscape.org/) -->

<svg
   version="1.1"
   id="svg1"
   width="174.71999"
   height="169.28"
   viewBox="0 0 174.71999 169.28"
   xmlns="http://www.w3.org/2000/svg"
   xmlns:svg="http://www.w3.org/2000/svg">
  <defs
     id="defs1">
    <clipPath
       clipPathUnits="userSpaceOnUse"
       id="clipPath2">
      <path
         d="M 0,0 H 545.99609 V 527.97852 H 0 Z"
         transform="scale(0.31999999)"
         clip-rule="evenodd"
         id="path2" />
    </clipPath>
    <clipPath
       clipPathUnits="userSpaceOnUse"
       id="clipPath4">
      <path
         d="M 3.125,3.125 H 543.75 V 525 H 3.125 Z"
         transform="matrix(0.34172054,0,0,0.34172054,38.860844,15064.864)"
         clip-rule="evenodd"
         id="path4" />
    </clipPath>
    <clipPath
       clipPathUnits="userSpaceOnUse"
       id="clipPath6">
      <path
         d="M 3.125,3.125 H 543.75 V 525 H 3.125 Z"
         transform="matrix(0.34172054,0,0,0.34172054,38.860844,15064.864)"
         clip-rule="evenodd"
         id="path6" />
    </clipPath>
    <clipPath
       clipPathUnits="userSpaceOnUse"
       id="clipPath8">
      <path
         d="M 3.125,3.125 H 543.75 V 525 H 3.125 Z"
         transform="matrix(0.34172054,0,0,0.34172054,38.860844,15064.864)"
         clip-rule="evenodd"
         id="path8" />
    </clipPath>
    <clipPath
       clipPathUnits="userSpaceOnUse"
       id="clipPath9">
      <path
         d="M 3.125,3.125 H 543.75 V 525 H 3.125 Z"
         transform="matrix(0.34172054,0,0,0.34172054,-32.654779,-24.635694)"
         clip-rule="evenodd"
         id="path9" />
    </clipPath>
    <clipPath
       clipPathUnits="userSpaceOnUse"
       id="clipPath10">
      <path
         d="M 3.125,3.125 H 543.75 V 525 H 3.125 Z"
         transform="matrix(0.34172054,0,0,0.34172054,-37.107904,-43.635694)"
         clip-rule="evenodd"
         id="path10" />
    </clipPath>
    <clipPath
       clipPathUnits="userSpaceOnUse"
       id="clipPath11">
      <path
         d="M 215.49525,162.80859 H 326.6972 v 43.89844 H 215.49525 Z"
         transform="matrix(0.34172054,0,0,0.34172054,-73.623529,-66.635694)"
         clip-rule="evenodd"
         id="path11" />
    </clipPath>
    <clipPath
       clipPathUnits="userSpaceOnUse"
       id="clipPath12">
      <path
         d="M 25.281342,221.33594 H 227.20073 v 43.89844 H 25.281342 Z"
         transform="matrix(0.34172054,0,0,0.34172054,-8.6391545,-86.635693)"
         clip-rule="evenodd"
         id="path12" />
    </clipPath>
    <clipPath
       clipPathUnits="userSpaceOnUse"
       id="clipPath14">
      <path
         d="M 3.125,3.125 H 543.75 V 525 H 3.125 Z"
         transform="matrix(0.34172054,0,0,0.34172054,38.860844,15064.864)"
         clip-rule="evenodd"
         id="path14" />
    </clipPath>
    <clipPath
       clipPathUnits="userSpaceOnUse"
       id="clipPath15">
      <path
         d="m 200.86342,291.57031 h 140.46562 v 43.89453 H 200.86342 Z"
         transform="matrix(0.34172054,0,0,0.34172054,-68.951655,-110.63569)"
         clip-rule="evenodd"
         id="path15" />
    </clipPath>
    <clipPath
       clipPathUnits="userSpaceOnUse"
       id="clipPath16">
      <path
         d="M 25.281342,350.09766 H 399.85638 v 43.89453 H 25.281342 Z"
         transform="matrix(0.34172054,0,0,0.34172054,-8.6391545,-130.63569)"
         clip-rule="evenodd"
         id="path16" />
    </clipPath>
    <clipPath
       clipPathUnits="userSpaceOnUse"
       id="clipPath17">
      <path
         d="M 25.281342,350.09766 H 399.85638 v 43.89453 H 25.281342 Z"
         transform="matrix(0.34172054,0,0,0.34172054,-29.982905,-130.63569)"
         clip-rule="evenodd"
         id="path17" />
    </clipPath>
    <clipPath
       clipPathUnits="userSpaceOnUse"
       id="clipPath18">
      <path
         d="M 25.281342,408.625 H 335.47632 v 43.89453 H 25.281342 Z"
         transform="matrix(0.34172054,0,0,0.34172054,-8.6391545,-150.6357)"
         clip-rule="evenodd"
         id="path18" />
    </clipPath>
    <clipPath
       clipPathUnits="userSpaceOnUse"
       id="clipPath19">
      <path
         d="M 25.281342,408.625 H 335.47632 v 43.89453 H 25.281342 Z"
         transform="matrix(0.34172054,0,0,0.34172054,-43.998529,-150.6357)"
         clip-rule="evenodd"
         id="path19" />
    </clipPath>
    <clipPath
       clipPathUnits="userSpaceOnUse"
       id="clipPath20">
      <path
         d="m 25.281342,467.15234 h 38.042786 v 43.89453 H 25.281342 Z"
         transform="matrix(0.34172054,0,0,0.34172054,-8.6391545,-170.63569)"
         clip-rule="evenodd"
         id="path20" />
    </clipPath>
  </defs>
  <g
     id="g1">
    <path
       id="path1"
       d="M 0,0 H 175 V 169 H 0 Z"
       style="fill:#ffffff;fill-opacity:1;fill-rule:nonzero;stroke:none"
       clip-path="url(#clipPath2)" />
    <path
       id="path3"
       d="m 42,15118 v -50 h 180 v 50"
       style="fill:none;stroke:#000000;stroke-width:1;stroke-linecap:butt;stroke-linejoin:miter;stroke-miterlimit:10;stroke-dasharray:none;stroke-opacity:1"
       transform="matrix(0.93643766,0,0,0.93643766,-36.390758,-14107.306)"
       clip-path="url(#clipPath4)" />
    <path
       id="path5"
       d="m 42,15118 v 124 h 180 v -124"
       style="fill:none;stroke:#000000;stroke-width:1;stroke-linecap:butt;stroke-linejoin:miter;stroke-miterlimit:10;stroke-dasharray:none;stroke-opacity:1"
       transform="matrix(0.93643766,0,0,0.93643766,-36.390758,-14107.306)"
       clip-path="url(#clipPath6)" />
    <path
       id="path7"
       d="M 42,15118 H 222"
       style="fill:none;stroke:#000000;stroke-width:1;stroke-linecap:butt;stroke-linejoin:miter;stroke-miterlimit:10;stroke-dasharray:none;stroke-opacity:1"
       transform="matrix(0.93643766,0,0,0.93643766,-36.390758,-14107.306)"
       clip-path="url(#clipPath8)" />
    <text
       id="text8"
       xml:space="preserve"
       transform="matrix(0.93643766,0,0,0.93643766,30.579165,23.069792)"
       clip-path="url(#clipPath9)"><tspan
         id="tspan8"
         style="font-variant:normal;font-weight:normal;font-size:16px;font-family:Arial;writing-mode:lr-tb;fill:#000000;fill-opacity:1;fill-rule:nonzero;stroke:none"
         x="0"
         y="0">«verification def»</tspan></text>
    <text
       id="text9"
       xml:space="preserve"
       transform="matrix(0.93643766,0,0,0.93643766,34.749239,40.862107)"
       clip-path="url(#clipPath10)"><tspan
         id="tspan9"
         style="font-variant:normal;font-weight:normal;font-size:16px;font-family:Arial;writing-mode:lr-tb;fill:#000000;fill-opacity:1;fill-rule:nonzero;stroke:none"
         x="0"
         dx="0 -0.88281256"
         y="0">VerificationDef1</tspan></text>
    <text
       id="text10"
       xml:space="preserve"
       transform="matrix(0.93643766,0,0,0.93643766,68.943845,62.400173)"
       clip-path="url(#clipPath11)"><tspan
         id="tspan10"
         style="font-style:italic;font-variant:normal;font-weight:normal;font-size:12px;font-family:Arial;writing-mode:lr-tb;fill:#000000;fill-opacity:1;fill-rule:nonzero;stroke:none"
         x="0"
         y="0">subject</tspan></text>
    <text
       id="text11"
       xml:space="preserve"
       transform="matrix(0.93643766,0,0,0.93643766,8.0900296,81.128926)"
       clip-path="url(#clipPath12)"><tspan
         id="tspan11"
         style="font-variant:normal;font-weight:normal;font-size:12px;font-family:Arial;writing-mode:lr-tb;fill:#000000;fill-opacity:1;fill-rule:nonzero;stroke:none"
         x="0"
         y="0">s1 : Subject1</tspan></text>
    <path
       id="path13"
       d="M 42,15160 H 222"
       style="fill:none;stroke:#000000;stroke-width:1;stroke-linecap:butt;stroke-linejoin:miter;stroke-miterlimit:10;stroke-dasharray:none;stroke-opacity:1"
       transform="matrix(0.93643766,0,0,0.93643766,-36.390758,-14107.306)"
       clip-path="url(#clipPath14)" />
    <text
       id="text14"
       xml:space="preserve"
       transform="matrix(0.93643766,0,0,0.93643766,64.568926,103.60343)"
       clip-path="url(#clipPath15)"><tspan
         id="tspan14"
         style="font-style:italic;font-variant:normal;font-weight:normal;font-size:12px;font-family:Arial;writing-mode:lr-tb;fill:#000000;fill-opacity:1;fill-rule:nonzero;stroke:none"
         x="0"
         y="0">objective</tspan></text>
    <text
       id="text15"
       xml:space="preserve"
       transform="matrix(0.93643766,0,0,0.93643766,8.0900296,122.33218)"
       clip-path="url(#clipPath16)"><tspan
         id="tspan15"
         style="font-variant:normal;font-weight:700;font-size:12px;font-family:Arial;writing-mode:lr-tb;fill:#000000;fill-opacity:1;fill-rule:nonzero;stroke:none"
         x="0"
         y="0">doc</tspan></text>
    <g
       id="g16" />
    <text
       id="text16"
       xml:space="preserve"
       transform="matrix(0.93643766,0,0,0.93643766,28.077121,122.33218)"
       clip-path="url(#clipPath17)"><tspan
         id="tspan16"
         style="font-variant:normal;font-weight:normal;font-size:12px;font-family:Arial;writing-mode:lr-tb;fill:#000000;fill-opacity:1;fill-rule:nonzero;stroke:none"
         x="0"
         y="0"> objective statement</tspan></text>
    <g
       id="g17" />
    <text
       id="text17"
       xml:space="preserve"
       transform="matrix(0.93643766,0,0,0.93643766,8.0900296,141.06094)"
       clip-path="url(#clipPath18)"><tspan
         id="tspan17"
         style="font-variant:normal;font-weight:700;font-size:12px;font-family:Arial;writing-mode:lr-tb;fill:#000000;fill-opacity:1;fill-rule:nonzero;stroke:none"
         x="0"
         y="0">verify </tspan></text>
    <text
       id="text18"
       xml:space="preserve"
       transform="matrix(0.93643766,0,0,0.93643766,41.20188,141.06094)"
       clip-path="url(#clipPath19)"><tspan
         id="tspan18"
         style="font-variant:normal;font-weight:normal;font-size:12px;font-family:Arial;writing-mode:lr-tb;fill:#000000;fill-opacity:1;fill-rule:nonzero;stroke:none"
         x="0"
         y="0">requirement1</tspan></text>
    <text
       id="text19"
       xml:space="preserve"
       transform="matrix(0.93643766,0,0,0.93643766,8.0900296,159.78969)"
       clip-path="url(#clipPath20)"><tspan
         id="tspan19"
         style="font-variant:normal;font-weight:normal;font-size:12px;font-family:Arial;writing-mode:lr-tb;fill:#000000;fill-opacity:1;fill-rule:nonzero;stroke:none"
         x="0"
         y="0">•••</tspan></text>
  </g>
</svg>
