<?xml version="1.0" encoding="UTF-8" standalone="no"?>
<!-- Created with Inkscape (http://www.inkscape.org/) -->

<svg
   version="1.1"
   id="svg1"
   width="250.56"
   height="169.28"
   viewBox="0 0 250.56 169.28"
   xmlns="http://www.w3.org/2000/svg"
   xmlns:svg="http://www.w3.org/2000/svg">
  <defs
     id="defs1">
    <clipPath
       clipPathUnits="userSpaceOnUse"
       id="clipPath2">
      <path
         d="M 0,0 H 783.00781 V 527.97852 H 0 Z"
         transform="scale(0.31999999)"
         clip-rule="evenodd"
         id="path2" />
    </clipPath>
    <clipPath
       clipPathUnits="userSpaceOnUse"
       id="clipPath4">
      <path
         d="M 3.125,0 H 781.25 V 527.97852 H 3.125 Z"
         transform="matrix(0.33915557,0,0,0.33915557,520.38318,15065.941)"
         clip-rule="evenodd"
         id="path4" />
    </clipPath>
    <clipPath
       clipPathUnits="userSpaceOnUse"
       id="clipPath6">
      <path
         d="M 3.125,0 H 781.25 V 527.97852 H 3.125 Z"
         transform="matrix(0.33915557,0,0,0.33915557,520.38318,15065.941)"
         clip-rule="evenodd"
         id="path6" />
    </clipPath>
    <clipPath
       clipPathUnits="userSpaceOnUse"
       id="clipPath8">
      <path
         d="M 3.125,0 H 781.25 V 527.97852 H 3.125 Z"
         transform="matrix(0.33915557,0,0,0.33915557,520.38318,15065.941)"
         clip-rule="evenodd"
         id="path8" />
    </clipPath>
    <clipPath
       clipPathUnits="userSpaceOnUse"
       id="clipPath9">
      <path
         d="M 3.125,0 H 781.25 V 527.97852 H 3.125 Z"
         transform="matrix(0.33915557,0,0,0.33915557,-85.476163,-23.559424)"
         clip-rule="evenodd"
         id="path9" />
    </clipPath>
    <clipPath
       clipPathUnits="userSpaceOnUse"
       id="clipPath10">
      <path
         d="M 3.125,0 H 781.25 V 527.97852 H 3.125 Z"
         transform="matrix(0.33915557,0,0,0.33915557,-27.226164,-42.559423)"
         clip-rule="evenodd"
         id="path10" />
    </clipPath>
    <clipPath
       clipPathUnits="userSpaceOnUse"
       id="clipPath11">
      <path
         d="m 333.52478,160.87109 h 114.99146 v 44.22657 H 333.52478 Z"
         transform="matrix(0.33915557,0,0,0.33915557,-113.60116,-65.559423)"
         clip-rule="evenodd"
         id="path11" />
    </clipPath>
    <clipPath
       clipPathUnits="userSpaceOnUse"
       id="clipPath12">
      <path
         d="M 26.880859,219.83984 H 436.72229 V 264.0664 H 26.880859 Z"
         transform="matrix(0.33915557,0,0,0.33915557,-9.116784,-85.559423)"
         clip-rule="evenodd"
         id="path12" />
    </clipPath>
    <clipPath
       clipPathUnits="userSpaceOnUse"
       id="clipPath13">
      <path
         d="M 26.880859,219.83984 H 436.72229 V 264.0664 H 26.880859 Z"
         transform="matrix(0.33915557,0,0,0.33915557,-62.476164,-85.559423)"
         clip-rule="evenodd"
         id="path13" />
    </clipPath>
    <clipPath
       clipPathUnits="userSpaceOnUse"
       id="clipPath15">
      <path
         d="M 3.125,0 H 781.25 V 527.97852 H 3.125 Z"
         transform="matrix(0.33915557,0,0,0.33915557,520.38318,15065.941)"
         clip-rule="evenodd"
         id="path15" />
    </clipPath>
    <clipPath
       clipPathUnits="userSpaceOnUse"
       id="clipPath16">
      <path
         d="M 321.73083,290.60156 H 460.3103 v 44.23047 H 321.73083 Z"
         transform="matrix(0.33915557,0,0,0.33915557,-108.92928,-109.55942)"
         clip-rule="evenodd"
         id="path16" />
    </clipPath>
    <clipPath
       clipPathUnits="userSpaceOnUse"
       id="clipPath17">
      <path
         d="M 26.880859,349.57422 H 404.28882 v 44.22656 H 26.880859 Z"
         transform="matrix(0.33915557,0,0,0.33915557,-9.116784,-129.55943)"
         clip-rule="evenodd"
         id="path17" />
    </clipPath>
    <clipPath
       clipPathUnits="userSpaceOnUse"
       id="clipPath18">
      <path
         d="M 26.880859,349.57422 H 404.28882 v 44.22656 H 26.880859 Z"
         transform="matrix(0.33915557,0,0,0.33915557,-30.460534,-129.55943)"
         clip-rule="evenodd"
         id="path18" />
    </clipPath>
    <clipPath
       clipPathUnits="userSpaceOnUse"
       id="clipPath19">
      <path
         d="M 26.880859,408.54297 H 339.42175 v 44.22656 H 26.880859 Z"
         transform="matrix(0.33915557,0,0,0.33915557,-9.116784,-149.55942)"
         clip-rule="evenodd"
         id="path19" />
    </clipPath>
    <clipPath
       clipPathUnits="userSpaceOnUse"
       id="clipPath20">
      <path
         d="M 26.880859,408.54297 H 339.42175 v 44.22656 H 26.880859 Z"
         transform="matrix(0.33915557,0,0,0.33915557,-41.148033,-149.55942)"
         clip-rule="evenodd"
         id="path20" />
    </clipPath>
    <clipPath
       clipPathUnits="userSpaceOnUse"
       id="clipPath21">
      <path
         d="m 26.880859,467.51172 h 38.330444 v 44.23047 H 26.880859 Z"
         transform="matrix(0.33915557,0,0,0.33915557,-9.116784,-169.55943)"
         clip-rule="evenodd"
         id="path21" />
    </clipPath>
  </defs>
  <g
     id="g1">
    <path
       id="path1"
       d="M 0,0 H 251 V 169 H 0 Z"
       style="fill:#ffffff;fill-opacity:1;fill-rule:nonzero;stroke:none"
       clip-path="url(#clipPath2)" />
    <path
       id="path3"
       d="m 782.5,15118 v -42.5 c 0,-5 -2.5,-7.5 -7.5,-7.5 H 531.01001 c -5,0 -7.5,2.5 -7.5,7.5 v 42.5"
       style="fill:none;stroke:#000000;stroke-width:1;stroke-linecap:butt;stroke-linejoin:miter;stroke-miterlimit:10;stroke-dasharray:none;stroke-opacity:1"
       transform="matrix(0.94351977,0,0,0.94351977,-490.99182,-14215.013)"
       clip-path="url(#clipPath4)" />
    <path
       id="path5"
       d="m 523.51001,15118 v 116.5 c 0,5 2.5,7.5 7.5,7.5 H 775 c 5,0 7.5,-2.5 7.5,-7.5 V 15118"
       style="fill:none;stroke:#000000;stroke-width:1;stroke-linecap:butt;stroke-linejoin:miter;stroke-miterlimit:10;stroke-dasharray:none;stroke-opacity:1"
       transform="matrix(0.94351977,0,0,0.94351977,-490.99182,-14215.013)"
       clip-path="url(#clipPath6)" />
    <path
       id="path7"
       d="M 523.51001,15118 H 782.5"
       style="fill:none;stroke:#000000;stroke-width:1;stroke-linecap:butt;stroke-linejoin:miter;stroke-miterlimit:10;stroke-dasharray:none;stroke-opacity:1"
       transform="matrix(0.94351977,0,0,0.94351977,-490.99182,-14215.013)"
       clip-path="url(#clipPath8)" />
    <text
       id="text8"
       xml:space="preserve"
       transform="matrix(0.94351977,0,0,0.94351977,80.64845,22.228782)"
       clip-path="url(#clipPath9)"><tspan
         id="tspan8"
         style="font-variant:normal;font-weight:normal;font-size:16px;font-family:Arial;writing-mode:lr-tb;fill:#000000;fill-opacity:1;fill-rule:nonzero;stroke:none"
         x="0"
         y="0">«verification»</tspan></text>
    <text
       id="text9"
       xml:space="preserve"
       transform="matrix(0.94351977,0,0,0.94351977,25.688424,40.155657)"
       clip-path="url(#clipPath10)"><tspan
         id="tspan9"
         style="font-variant:normal;font-weight:normal;font-size:16px;font-family:Arial;writing-mode:lr-tb;fill:#000000;fill-opacity:1;fill-rule:nonzero;stroke:none"
         x="0"
         dx="0 0 0 0 0 0 0 0 0 0 0 0 0 0 0 0 0 -0.88281214"
         y="0">verification1 : VerificationDef1</tspan></text>
    <text
       id="text10"
       xml:space="preserve"
       transform="matrix(0.94351977,0,0,0.94351977,107.18494,61.856612)"
       clip-path="url(#clipPath11)"><tspan
         id="tspan10"
         style="font-style:italic;font-variant:normal;font-weight:normal;font-size:12px;font-family:Arial;writing-mode:lr-tb;fill:#000000;fill-opacity:1;fill-rule:nonzero;stroke:none"
         x="0"
         y="0">subject</tspan></text>
    <text
       id="text11"
       xml:space="preserve"
       transform="matrix(0.94351977,0,0,0.94351977,8.6018659,80.727007)"
       clip-path="url(#clipPath12)"><tspan
         id="tspan11"
         style="font-variant:normal;font-weight:700;font-size:12px;font-family:Arial;writing-mode:lr-tb;fill:#000000;fill-opacity:1;fill-rule:nonzero;stroke:none"
         x="0"
         y="0">redefines</tspan></text>
    <text
       id="text12"
       xml:space="preserve"
       transform="matrix(0.94351977,0,0,0.94351977,58.947496,80.727007)"
       clip-path="url(#clipPath13)"><tspan
         id="tspan12"
         style="font-variant:normal;font-weight:normal;font-size:12px;font-family:Arial;writing-mode:lr-tb;fill:#000000;fill-opacity:1;fill-rule:nonzero;stroke:none"
         x="0"
         y="0"> s1 = mySubject</tspan></text>
    <path
       id="path14"
       d="M 523.51001,15160 H 782.5"
       style="fill:none;stroke:#000000;stroke-width:1;stroke-linecap:butt;stroke-linejoin:miter;stroke-miterlimit:10;stroke-dasharray:none;stroke-opacity:1"
       transform="matrix(0.94351977,0,0,0.94351977,-490.99182,-14215.013)"
       clip-path="url(#clipPath15)" />
    <text
       id="text15"
       xml:space="preserve"
       transform="matrix(0.94351977,0,0,0.94351977,102.77693,103.37148)"
       clip-path="url(#clipPath16)"><tspan
         id="tspan15"
         style="font-style:italic;font-variant:normal;font-weight:normal;font-size:12px;font-family:Arial;writing-mode:lr-tb;fill:#000000;fill-opacity:1;fill-rule:nonzero;stroke:none"
         x="0"
         y="0">objective</tspan></text>
    <text
       id="text16"
       xml:space="preserve"
       transform="matrix(0.94351977,0,0,0.94351977,8.6018659,122.24188)"
       clip-path="url(#clipPath17)"><tspan
         id="tspan16"
         style="font-variant:normal;font-weight:700;font-size:12px;font-family:Arial;writing-mode:lr-tb;fill:#000000;fill-opacity:1;fill-rule:nonzero;stroke:none"
         x="0"
         y="0">doc</tspan></text>
    <text
       id="text17"
       xml:space="preserve"
       transform="matrix(0.94351977,0,0,0.94351977,28.740116,122.24188)"
       clip-path="url(#clipPath18)"><tspan
         id="tspan17"
         style="font-variant:normal;font-weight:normal;font-size:12px;font-family:Arial;writing-mode:lr-tb;fill:#000000;fill-opacity:1;fill-rule:nonzero;stroke:none"
         x="0"
         y="0"> objective statement</tspan></text>
    <text
       id="text18"
       xml:space="preserve"
       transform="matrix(0.94351977,0,0,0.94351977,8.6018659,141.11227)"
       clip-path="url(#clipPath19)"><tspan
         id="tspan18"
         style="font-variant:normal;font-weight:700;font-size:12px;font-family:Arial;writing-mode:lr-tb;fill:#000000;fill-opacity:1;fill-rule:nonzero;stroke:none"
         x="0"
         y="0">verify</tspan></text>
    <text
       id="text19"
       xml:space="preserve"
       transform="matrix(0.94351977,0,0,0.94351977,38.823983,141.11227)"
       clip-path="url(#clipPath20)"><tspan
         id="tspan19"
         style="font-variant:normal;font-weight:normal;font-size:12px;font-family:Arial;writing-mode:lr-tb;fill:#000000;fill-opacity:1;fill-rule:nonzero;stroke:none"
         x="0"
         y="0"> requirement2</tspan></text>
    <text
       id="text20"
       xml:space="preserve"
       transform="matrix(0.94351977,0,0,0.94351977,8.6018659,159.98267)"
       clip-path="url(#clipPath21)"><tspan
         id="tspan20"
         style="font-variant:normal;font-weight:normal;font-size:12px;font-family:Arial;writing-mode:lr-tb;fill:#000000;fill-opacity:1;fill-rule:nonzero;stroke:none"
         x="0"
         y="0">•••</tspan></text>
  </g>
</svg>
