<?xml version="1.0" encoding="UTF-8" standalone="no"?>
<!-- Created with Inkscape (http://www.inkscape.org/) -->

<svg
   version="1.1"
   id="svg1"
   width="232"
   height="89.279999"
   viewBox="0 0 232 89.279999"
   xmlns="http://www.w3.org/2000/svg"
   xmlns:svg="http://www.w3.org/2000/svg">
  <defs
     id="defs1">
    <clipPath
       clipPathUnits="userSpaceOnUse"
       id="clipPath2">
      <path
         d="M 0,0 H 725.97656 V 279.00391 H 0 Z"
         transform="scale(0.31999999)"
         clip-rule="evenodd"
         id="path2" />
    </clipPath>
    <clipPath
       clipPathUnits="userSpaceOnUse"
       id="clipPath4">
      <path
         d="m 3.125,0 h 718.75 V 278.125 H 3.125 Z"
         transform="matrix(0.33961992,0,0,0.33961992,520.89243,15285.939)"
         clip-rule="evenodd"
         id="path4" />
    </clipPath>
    <clipPath
       clipPathUnits="userSpaceOnUse"
       id="clipPath6">
      <path
         d="m 3.125,0 h 718.75 V 278.125 H 3.125 Z"
         transform="matrix(0.33961992,0,0,0.33961992,520.89243,15285.939)"
         clip-rule="evenodd"
         id="path6" />
    </clipPath>
    <clipPath
       clipPathUnits="userSpaceOnUse"
       id="clipPath8">
      <path
         d="m 3.125,0 h 718.75 V 278.125 H 3.125 Z"
         transform="matrix(0.33961992,0,0,0.33961992,520.89243,15285.939)"
         clip-rule="evenodd"
         id="path8" />
    </clipPath>
    <clipPath
       clipPathUnits="userSpaceOnUse"
       id="clipPath9">
      <path
         d="m 3.125,0 h 718.75 V 278.125 H 3.125 Z"
         transform="matrix(0.33961992,0,0,0.33961992,-75.966928,-23.56116)"
         clip-rule="evenodd"
         id="path9" />
    </clipPath>
    <clipPath
       clipPathUnits="userSpaceOnUse"
       id="clipPath10">
      <path
         d="m 3.125,0 h 718.75 V 278.125 H 3.125 Z"
         transform="matrix(0.33961992,0,0,0.33961992,-17.716928,-42.561159)"
         clip-rule="evenodd"
         id="path10" />
    </clipPath>
    <clipPath
       clipPathUnits="userSpaceOnUse"
       id="clipPath11">
      <path
         d="m 210.84619,160.65234 h 300.33569 v 44.16797 H 210.84619 Z"
         transform="matrix(0.33961992,0,0,0.33961992,-71.920048,-65.56116)"
         clip-rule="evenodd"
         id="path11" />
    </clipPath>
    <clipPath
       clipPathUnits="userSpaceOnUse"
       id="clipPath12">
      <path
         d="m 25.344604,219.54297 h 38.278198 v 44.16797 H 25.344604 Z"
         transform="matrix(0.33961992,0,0,0.33961992,-8.6075482,-85.561159)"
         clip-rule="evenodd"
         id="path12" />
    </clipPath>
  </defs>
  <g
     id="g1">
    <path
       id="path1"
       d="M 0,0 H 232 V 89 H 0 Z"
       style="fill:#ffffff;fill-opacity:1;fill-rule:nonzero;stroke:none"
       clip-path="url(#clipPath2)" />
    <path
       id="path3"
       d="m 764.02002,15338 v -42.5 c 0,-5 -2.5,-7.5 -7.5,-7.5 h -225 c -5,0 -7.5,2.5 -7.5,7.5 v 42.5"
       style="fill:none;stroke:#000000;stroke-width:1;stroke-linecap:butt;stroke-linejoin:miter;stroke-miterlimit:10;stroke-dasharray:none;stroke-opacity:1"
       transform="matrix(0.94222972,0,0,0.94222972,-490.80033,-14402.866)"
       clip-path="url(#clipPath4)" />
    <path
       id="path5"
       d="m 524.02002,15338 v 32.5 c 0,5 2.5,7.5 7.5,7.5 h 225 c 5,0 7.5,-2.5 7.5,-7.5 v -32.5"
       style="fill:none;stroke:#000000;stroke-width:1;stroke-linecap:butt;stroke-linejoin:miter;stroke-miterlimit:10;stroke-dasharray:none;stroke-opacity:1"
       transform="matrix(0.94222972,0,0,0.94222972,-490.80033,-14402.866)"
       clip-path="url(#clipPath6)" />
    <path
       id="path7"
       d="m 524.02002,15338 h 240"
       style="fill:none;stroke:#000000;stroke-width:1;stroke-linecap:butt;stroke-linejoin:miter;stroke-miterlimit:10;stroke-dasharray:none;stroke-opacity:1"
       transform="matrix(0.94222972,0,0,0.94222972,-490.80033,-14402.866)"
       clip-path="url(#clipPath8)" />
    <text
       id="text8"
       xml:space="preserve"
       transform="matrix(0.94222972,0,0,0.94222972,71.578297,22.200025)"
       clip-path="url(#clipPath9)"><tspan
         id="tspan8"
         style="font-variant:normal;font-weight:normal;font-size:16px;font-family:Arial;writing-mode:lr-tb;fill:#000000;fill-opacity:1;fill-rule:nonzero;stroke:none"
         x="0"
         y="0">«verification»</tspan></text>
    <text
       id="text9"
       xml:space="preserve"
       transform="matrix(0.94222972,0,0,0.94222972,16.693416,40.102389)"
       clip-path="url(#clipPath10)"><tspan
         id="tspan9"
         style="font-variant:normal;font-weight:normal;font-size:16px;font-family:Arial;writing-mode:lr-tb;fill:#000000;fill-opacity:1;fill-rule:nonzero;stroke:none"
         x="0"
         dx="0 0 0 0 0 0 0 0 0 0 0 0 0 0 0 0 0 -0.88281214"
         y="0">verification1 : VerificationDef1</tspan></text>
    <text
       id="text10"
       xml:space="preserve"
       transform="matrix(0.94222972,0,0,0.94222972,67.765207,61.773673)"
       clip-path="url(#clipPath11)"><tspan
         id="tspan10"
         style="font-style:italic;font-variant:normal;font-weight:normal;font-size:12px;font-family:Arial;writing-mode:lr-tb;fill:#000000;fill-opacity:1;fill-rule:nonzero;stroke:none"
         x="0"
         y="0">compartment stack</tspan></text>
    <text
       id="text11"
       xml:space="preserve"
       transform="matrix(0.94222972,0,0,0.94222972,8.1102877,80.618267)"
       clip-path="url(#clipPath12)"><tspan
         id="tspan11"
         style="font-variant:normal;font-weight:normal;font-size:12px;font-family:Arial;writing-mode:lr-tb;fill:#000000;fill-opacity:1;fill-rule:nonzero;stroke:none"
         x="0"
         y="0">•••</tspan></text>
  </g>
</svg>
