<?xml version="1.0" encoding="UTF-8" standalone="no"?>
<!-- Created with Inkscape (http://www.inkscape.org/) -->

<svg
   version="1.1"
   id="svg1"
   width="341.44"
   height="289.28"
   viewBox="0 0 341.44 289.28"
   xmlns="http://www.w3.org/2000/svg"
   xmlns:svg="http://www.w3.org/2000/svg">
  <defs
     id="defs1">
    <clipPath
       clipPathUnits="userSpaceOnUse"
       id="clipPath2">
      <path
         d="M 0,0 H 1068 V 905 H 0 Z"
         transform="scale(0.31999999)"
         clip-rule="evenodd"
         id="path2" />
    </clipPath>
    <clipPath
       clipPathUnits="userSpaceOnUse"
       id="clipPath4">
      <path
         d="m 3.125,3.125 h 1062.5 v 900 H 3.125 Z"
         transform="matrix(0.33759468,0,0,0.33759468,83.880809,666.89006)"
         clip-rule="evenodd"
         id="path4" />
    </clipPath>
    <clipPath
       clipPathUnits="userSpaceOnUse"
       id="clipPath6">
      <path
         d="m 3.125,3.125 h 1062.5 v 900 H 3.125 Z"
         transform="matrix(0.33759468,0,0,0.33759468,83.880809,666.89006)"
         clip-rule="evenodd"
         id="path6" />
    </clipPath>
    <clipPath
       clipPathUnits="userSpaceOnUse"
       id="clipPath7">
      <path
         d="m 3.125,3.125 h 1062.5 v 900 H 3.125 Z"
         transform="matrix(0.33759468,0,0,0.33759468,-142.69733,-91.609925)"
         clip-rule="evenodd"
         id="path7" />
    </clipPath>
    <clipPath
       clipPathUnits="userSpaceOnUse"
       id="clipPath8">
      <path
         d="m 3.125,3.125 h 1062.5 v 900 H 3.125 Z"
         transform="matrix(0.33759468,0,0,0.33759468,-147.58795,-110.60993)"
         clip-rule="evenodd"
         id="path8" />
    </clipPath>
    <clipPath
       clipPathUnits="userSpaceOnUse"
       id="clipPath10">
      <path
         d="m 3.125,3.125 h 1062.5 v 900 H 3.125 Z"
         transform="matrix(0.33759468,0,0,0.33759468,83.880809,666.89006)"
         clip-rule="evenodd"
         id="path10" />
    </clipPath>
    <clipPath
       clipPathUnits="userSpaceOnUse"
       id="clipPath12">
      <path
         d="m 3.125,3.125 h 1062.5 v 900 H 3.125 Z"
         transform="matrix(0.33759468,0,0,0.33759468,83.880809,666.89006)"
         clip-rule="evenodd"
         id="path12" />
    </clipPath>
    <clipPath
       clipPathUnits="userSpaceOnUse"
       id="clipPath13">
      <path
         d="m 3.125,3.125 h 1062.5 v 900 H 3.125 Z"
         transform="matrix(0.33759468,0,0,0.33759468,-2.4316959,-127.60993)"
         clip-rule="evenodd"
         id="path13" />
    </clipPath>
    <clipPath
       clipPathUnits="userSpaceOnUse"
       id="clipPath15">
      <path
         d="m 3.125,3.125 h 1062.5 v 900 H 3.125 Z"
         transform="matrix(0.33759468,0,0,0.33759468,83.880809,666.89006)"
         clip-rule="evenodd"
         id="path15" />
    </clipPath>
    <clipPath
       clipPathUnits="userSpaceOnUse"
       id="clipPath17">
      <path
         d="m 3.125,3.125 h 1062.5 v 900 H 3.125 Z"
         transform="matrix(0.33759468,0,0,0.33759468,83.880809,666.89006)"
         clip-rule="evenodd"
         id="path17" />
    </clipPath>
    <clipPath
       clipPathUnits="userSpaceOnUse"
       id="clipPath18">
      <path
         d="m 3.125,3.125 h 1062.5 v 900 H 3.125 Z"
         transform="matrix(0.33759468,0,0,0.33759468,-2.4316959,-197.60992)"
         clip-rule="evenodd"
         id="path18" />
    </clipPath>
    <clipPath
       clipPathUnits="userSpaceOnUse"
       id="clipPath20">
      <path
         d="m 3.125,3.125 h 1062.5 v 900 H 3.125 Z"
         transform="matrix(0.33759468,0,0,0.33759468,83.880809,666.89006)"
         clip-rule="evenodd"
         id="path20" />
    </clipPath>
    <clipPath
       clipPathUnits="userSpaceOnUse"
       id="clipPath22">
      <path
         d="m 3.125,3.125 h 1062.5 v 900 H 3.125 Z"
         transform="matrix(0.33759468,0,0,0.33759468,83.880809,666.89006)"
         clip-rule="evenodd"
         id="path22" />
    </clipPath>
    <clipPath
       clipPathUnits="userSpaceOnUse"
       id="clipPath23">
      <path
         d="m 3.125,3.125 h 1062.5 v 900 H 3.125 Z"
         transform="matrix(0.33759468,0,0,0.33759468,-280.43169,-167.60992)"
         clip-rule="evenodd"
         id="path23" />
    </clipPath>
    <clipPath
       clipPathUnits="userSpaceOnUse"
       id="clipPath25">
      <path
         d="m 3.125,3.125 h 1062.5 v 900 H 3.125 Z"
         transform="matrix(0.33759468,0,0,0.33759468,83.880809,666.89006)"
         clip-rule="evenodd"
         id="path25" />
    </clipPath>
    <clipPath
       clipPathUnits="userSpaceOnUse"
       id="clipPath27">
      <path
         d="m 3.125,3.125 h 1062.5 v 900 H 3.125 Z"
         transform="matrix(0.33759468,0,0,0.33759468,83.880809,666.89006)"
         clip-rule="evenodd"
         id="path27" />
    </clipPath>
    <clipPath
       clipPathUnits="userSpaceOnUse"
       id="clipPath29">
      <path
         d="m 3.125,3.125 h 1062.5 v 900 H 3.125 Z"
         transform="matrix(0.33759468,0,0,0.33759468,83.880809,666.89006)"
         clip-rule="evenodd"
         id="path29" />
    </clipPath>
    <clipPath
       clipPathUnits="userSpaceOnUse"
       id="clipPath31">
      <path
         d="m 3.125,3.125 h 1062.5 v 900 H 3.125 Z"
         transform="matrix(0.33759468,0,0,0.33759468,83.880809,666.89006)"
         clip-rule="evenodd"
         id="path31" />
    </clipPath>
    <clipPath
       clipPathUnits="userSpaceOnUse"
       id="clipPath32">
      <path
         d="m 3.125,3.125 h 1062.5 v 900 H 3.125 Z"
         transform="matrix(0.33759468,0,0,0.33759468,-49.697321,-264.60993)"
         clip-rule="evenodd"
         id="path32" />
    </clipPath>
    <clipPath
       clipPathUnits="userSpaceOnUse"
       id="clipPath33">
      <path
         d="m 3.125,3.125 h 1062.5 v 900 H 3.125 Z"
         transform="matrix(0.33759468,0,0,0.33759468,-54.587946,-283.60993)"
         clip-rule="evenodd"
         id="path33" />
    </clipPath>
    <clipPath
       clipPathUnits="userSpaceOnUse"
       id="clipPath35">
      <path
         d="m 3.125,3.125 h 1062.5 v 900 H 3.125 Z"
         transform="matrix(0.33759468,0,0,0.33759468,83.880809,666.89006)"
         clip-rule="evenodd"
         id="path35" />
    </clipPath>
    <clipPath
       clipPathUnits="userSpaceOnUse"
       id="clipPath36">
      <path
         d="m 3.125,3.125 h 1062.5 v 900 H 3.125 Z"
         transform="matrix(0.33759468,0,0,0.33759468,-239.69733,-264.60993)"
         clip-rule="evenodd"
         id="path36" />
    </clipPath>
    <clipPath
       clipPathUnits="userSpaceOnUse"
       id="clipPath37">
      <path
         d="m 3.125,3.125 h 1062.5 v 900 H 3.125 Z"
         transform="matrix(0.33759468,0,0,0.33759468,-244.58795,-283.60993)"
         clip-rule="evenodd"
         id="path37" />
    </clipPath>
    <clipPath
       clipPathUnits="userSpaceOnUse"
       id="clipPath39">
      <path
         d="m 3.125,3.125 h 1062.5 v 900 H 3.125 Z"
         transform="matrix(0.33759468,0,0,0.33759468,83.880809,666.89006)"
         clip-rule="evenodd"
         id="path39" />
    </clipPath>
    <clipPath
       clipPathUnits="userSpaceOnUse"
       id="clipPath41">
      <path
         d="m 3.125,3.125 h 1062.5 v 900 H 3.125 Z"
         transform="matrix(0.33759468,0,0,0.33759468,83.880809,666.89006)"
         clip-rule="evenodd"
         id="path41" />
    </clipPath>
    <clipPath
       clipPathUnits="userSpaceOnUse"
       id="clipPath42">
      <path
         d="m 3.125,3.125 h 1062.5 v 900 H 3.125 Z"
         transform="matrix(0.33759468,0,0,0.33759468,-125.43169,-227.60993)"
         clip-rule="evenodd"
         id="path42" />
    </clipPath>
    <clipPath
       clipPathUnits="userSpaceOnUse"
       id="clipPath44">
      <path
         d="m 3.125,3.125 h 1062.5 v 900 H 3.125 Z"
         transform="matrix(0.33759468,0,0,0.33759468,83.880809,666.89006)"
         clip-rule="evenodd"
         id="path44" />
    </clipPath>
    <clipPath
       clipPathUnits="userSpaceOnUse"
       id="clipPath46">
      <path
         d="m 3.125,3.125 h 1062.5 v 900 H 3.125 Z"
         transform="matrix(0.33759468,0,0,0.33759468,83.880809,666.89006)"
         clip-rule="evenodd"
         id="path46" />
    </clipPath>
    <clipPath
       clipPathUnits="userSpaceOnUse"
       id="clipPath47">
      <path
         d="m 3.125,3.125 h 1062.5 v 900 H 3.125 Z"
         transform="matrix(0.33759468,0,0,0.33759468,-189.43169,-227.60993)"
         clip-rule="evenodd"
         id="path47" />
    </clipPath>
    <clipPath
       clipPathUnits="userSpaceOnUse"
       id="clipPath49">
      <path
         d="m 3.125,3.125 h 1062.5 v 900 H 3.125 Z"
         transform="matrix(0.33759468,0,0,0.33759468,83.880809,666.89006)"
         clip-rule="evenodd"
         id="path49" />
    </clipPath>
    <clipPath
       clipPathUnits="userSpaceOnUse"
       id="clipPath50">
      <path
         d="m 3.125,3.125 h 1062.5 v 900 H 3.125 Z"
         transform="matrix(0.33759468,0,0,0.33759468,-157.91608,-20.609924)"
         clip-rule="evenodd"
         id="path50" />
    </clipPath>
    <clipPath
       clipPathUnits="userSpaceOnUse"
       id="clipPath51">
      <path
         d="m 3.125,3.125 h 1062.5 v 900 H 3.125 Z"
         transform="matrix(0.33759468,0,0,0.33759468,-135.43169,-34.609924)"
         clip-rule="evenodd"
         id="path51" />
    </clipPath>
  </defs>
  <g
     id="g1">
    <path
       id="path1"
       d="M 0,0 H 342 V 290 H 0 Z"
       style="fill:#ffffff;fill-opacity:1;fill-rule:nonzero;stroke:none"
       clip-path="url(#clipPath2)" />
    <path
       id="path3"
       d="M 341.75,797 H 390"
       style="fill:none;stroke:#000000;stroke-width:1;stroke-linecap:butt;stroke-linejoin:miter;stroke-miterlimit:10;stroke-dasharray:none;stroke-opacity:1"
       transform="matrix(0.9478822,0,0,0.9478822,-79.509126,-632.13322)"
       clip-path="url(#clipPath4)" />
    <path
       id="path5"
       d="m 199.25,737 h 137.5 c 0.66302,0 1.30081,0.12683 1.91339,0.38049 0.61258,0.25373 1.15329,0.61505 1.62213,1.08393 0.46884,0.46881 0.83011,1.00946 1.0838,1.62207 0.25376,0.61261 0.38065,1.25042 0.38068,1.91351 v 110 c -3e-5,0.66296 -0.12692,1.30072 -0.38068,1.91327 -0.25369,0.61261 -0.61496,1.15332 -1.0838,1.62219 -0.46884,0.46881 -1.00955,0.83008 -1.62213,1.08386 -0.61258,0.25373 -1.25037,0.38062 -1.91339,0.38068 h -137.5 c -0.66307,-6e-5 -1.30087,-0.12701 -1.91344,-0.3808 -0.61256,-0.25372 -1.15327,-0.61493 -1.62211,-1.08374 -0.46886,-0.46887 -0.83014,-1.00958 -1.08388,-1.62219 C 194.37683,853.30072 194.24998,852.66296 194.25,852 V 742 c -2e-5,-0.66309 0.12683,-1.3009 0.38057,-1.91351 0.25374,-0.61261 0.61502,-1.15326 1.08388,-1.62207 0.46884,-0.46888 1.00955,-0.83014 1.62211,-1.08387 C 197.94913,737.12683 198.58693,737 199.25,737 Z"
       style="fill:#ffffff;fill-opacity:1;fill-rule:nonzero;stroke:#000000;stroke-width:1;stroke-linecap:butt;stroke-linejoin:miter;stroke-miterlimit:10;stroke-dasharray:none;stroke-opacity:1"
       transform="matrix(0.9478822,0,0,0.9478822,-79.509126,-632.13322)"
       clip-path="url(#clipPath6)" />
    <text
       id="text6"
       xml:space="preserve"
       transform="matrix(0.9478822,0,0,0.9478822,135.26026,86.835417)"
       clip-path="url(#clipPath7)"><tspan
         id="tspan6"
         style="font-variant:normal;font-weight:normal;font-size:16px;font-family:Arial;writing-mode:lr-tb;fill:#000000;fill-opacity:1;fill-rule:nonzero;stroke:none"
         x="0"
         y="0">«use case»</tspan></text>
    <text
       id="text7"
       xml:space="preserve"
       transform="matrix(0.9478822,0,0,0.9478822,139.89599,104.84518)"
       clip-path="url(#clipPath8)"><tspan
         id="tspan7"
         style="font-variant:normal;font-weight:normal;font-size:16px;font-family:Arial;writing-mode:lr-tb;fill:#000000;fill-opacity:1;fill-rule:nonzero;stroke:none"
         x="0"
         y="0">useCase1</tspan></text>
    <path
       id="path9"
       d="m 130,742 c -2e-5,0.66296 -0.12688,1.30072 -0.38062,1.91327 -0.25373,0.61261 -0.61502,1.15332 -1.08384,1.62219 -0.46884,0.46881 -1.00955,0.83014 -1.62213,1.08386 -0.61257,0.25373 -1.25038,0.38062 -1.91341,0.38068 -0.66305,-6e-5 -1.30087,-0.12701 -1.91344,-0.38074 -0.61257,-0.25372 -1.15326,-0.61499 -1.6221,-1.0838 -0.46885,-0.46887 -0.83014,-1.00958 -1.08387,-1.62213 C 120.12685,743.30072 119.99999,742.66296 120,742 c -1e-5,-0.66309 0.12685,-1.3009 0.38059,-1.91351 0.25373,-0.61261 0.61502,-1.15326 1.08387,-1.62207 0.46884,-0.46888 1.00953,-0.83014 1.6221,-1.08387 C 123.69913,737.12683 124.33695,737 125,737 c 0.66303,0 1.30084,0.12683 1.91341,0.38049 0.61258,0.25373 1.15329,0.61505 1.62213,1.08393 0.46882,0.46881 0.83011,1.00946 1.08384,1.62207 0.25374,0.61261 0.3806,1.25042 0.38062,1.91351 z"
       style="fill:#ffffff;fill-opacity:1;fill-rule:nonzero;stroke:#000000;stroke-width:1;stroke-linecap:butt;stroke-linejoin:miter;stroke-miterlimit:10;stroke-dasharray:none;stroke-opacity:1"
       transform="matrix(0.9478822,0,0,0.9478822,-79.509126,-632.13322)"
       clip-path="url(#clipPath10)" />
    <path
       id="path11"
       d="m 125,747 v 16.66998 m 0,-13.33996 h -10 m 10,0 h 10 M 125,763.66998 115,777 M 125,763.66998 135,777"
       style="fill:none;stroke:#000000;stroke-width:1;stroke-linecap:butt;stroke-linejoin:miter;stroke-miterlimit:10;stroke-dasharray:none;stroke-opacity:1"
       transform="matrix(0.9478822,0,0,0.9478822,-79.509126,-632.13322)"
       clip-path="url(#clipPath12)" />
    <text
       id="text12"
       xml:space="preserve"
       transform="matrix(0.9478822,0,0,0.9478822,2.3049613,120.95918)"
       clip-path="url(#clipPath13)"><tspan
         id="tspan12"
         style="font-variant:normal;font-weight:normal;font-size:12px;font-family:Arial;writing-mode:lr-tb;fill:#000000;fill-opacity:1;fill-rule:nonzero;stroke:none"
         x="0"
         dx="0 0 0 0 0 0 0 0 0 -0.66210938"
         y="0">actor1 : Actor1</tspan></text>
    <path
       id="path14"
       d="m 130,812 c -2e-5,0.66296 -0.12688,1.30072 -0.38062,1.91333 -0.25373,0.61261 -0.61502,1.15332 -1.08384,1.62219 -0.46884,0.46881 -1.00955,0.83008 -1.62213,1.0838 -0.61257,0.25373 -1.25038,0.38062 -1.91341,0.38068 -0.66305,-6e-5 -1.30087,-0.12695 -1.91344,-0.38068 -0.61257,-0.25372 -1.15326,-0.61499 -1.6221,-1.0838 -0.46885,-0.46887 -0.83014,-1.00958 -1.08387,-1.62219 C 120.12685,813.30072 119.99999,812.66296 120,812 c -1e-5,-0.66302 0.12685,-1.30084 0.38059,-1.91345 0.25373,-0.61261 0.61502,-1.15326 1.08387,-1.62207 0.46884,-0.46887 1.00953,-0.8302 1.6221,-1.08399 C 123.69913,807.12683 124.33695,807 125,807 c 0.66303,0 1.30084,0.12683 1.91341,0.38049 0.61258,0.25379 1.15329,0.61512 1.62213,1.08399 0.46882,0.46881 0.83011,1.00946 1.08384,1.62207 0.25374,0.61261 0.3806,1.25043 0.38062,1.91345 z"
       style="fill:#ffffff;fill-opacity:1;fill-rule:nonzero;stroke:#000000;stroke-width:1;stroke-linecap:butt;stroke-linejoin:miter;stroke-miterlimit:10;stroke-dasharray:none;stroke-opacity:1"
       transform="matrix(0.9478822,0,0,0.9478822,-79.509126,-632.13322)"
       clip-path="url(#clipPath15)" />
    <path
       id="path16"
       d="m 125,817 v 16.66998 m 0,-13.33996 h -10 m 10,0 h 10 M 125,833.66998 115,847 M 125,833.66998 135,847"
       style="fill:none;stroke:#000000;stroke-width:1;stroke-linecap:butt;stroke-linejoin:miter;stroke-miterlimit:10;stroke-dasharray:none;stroke-opacity:1"
       transform="matrix(0.9478822,0,0,0.9478822,-79.509126,-632.13322)"
       clip-path="url(#clipPath17)" />
    <text
       id="text17"
       xml:space="preserve"
       transform="matrix(0.9478822,0,0,0.9478822,2.3049613,187.31093)"
       clip-path="url(#clipPath18)"><tspan
         id="tspan17"
         style="font-variant:normal;font-weight:normal;font-size:12px;font-family:Arial;writing-mode:lr-tb;fill:#000000;fill-opacity:1;fill-rule:nonzero;stroke:none"
         x="0"
         dx="0 0 0 0 0 0 0 0 0 -0.66210938"
         y="0">actor2 : Actor2</tspan></text>
    <path
       id="path19"
       d="m 408,782 c -3e-5,0.66302 -0.12689,1.30078 -0.38062,1.91333 -0.25375,0.61255 -0.61502,1.15326 -1.08386,1.62213 -0.46887,0.46881 -1.00958,0.83008 -1.62213,1.0838 -0.61258,0.25373 -1.2504,0.38068 -1.91339,0.38074 -0.66306,-6e-5 -1.3009,-0.12701 -1.91348,-0.38074 -0.61258,-0.25372 -1.15329,-0.61499 -1.6221,-1.0838 -0.46885,-0.46887 -0.83014,-1.00958 -1.08387,-1.62213 C 398.12683,783.30078 397.99997,782.66302 398,782 c -3e-5,-0.66315 0.12683,-1.30096 0.38055,-1.91357 0.25373,-0.61261 0.61502,-1.15326 1.08387,-1.62207 0.46881,-0.46882 1.00952,-0.83008 1.6221,-1.08381 C 401.6991,777.12683 402.33694,777 403,777 c 0.66299,0 1.30078,0.12683 1.91336,0.38055 0.61258,0.25373 1.15329,0.61499 1.62216,1.08381 0.46884,0.46881 0.83011,1.00946 1.08383,1.62207 0.25376,0.61261 0.38062,1.25042 0.38065,1.91357 z"
       style="fill:#ffffff;fill-opacity:1;fill-rule:nonzero;stroke:#000000;stroke-width:1;stroke-linecap:butt;stroke-linejoin:miter;stroke-miterlimit:10;stroke-dasharray:none;stroke-opacity:1"
       transform="matrix(0.9478822,0,0,0.9478822,-79.509126,-632.13322)"
       clip-path="url(#clipPath20)" />
    <path
       id="path21"
       d="m 403,787 v 16.66998 m 0,-13.33996 h -10 m 10,0 h 10 M 403,803.66998 393,817 M 403,803.66998 413,817"
       style="fill:none;stroke:#000000;stroke-width:1;stroke-linecap:butt;stroke-linejoin:miter;stroke-miterlimit:10;stroke-dasharray:none;stroke-opacity:1"
       transform="matrix(0.9478822,0,0,0.9478822,-79.509126,-632.13322)"
       clip-path="url(#clipPath22)" />
    <text
       id="text22"
       xml:space="preserve"
       transform="matrix(0.9478822,0,0,0.9478822,265.81621,158.87446)"
       clip-path="url(#clipPath23)"><tspan
         id="tspan22"
         style="font-variant:normal;font-weight:normal;font-size:12px;font-family:Arial;writing-mode:lr-tb;fill:#000000;fill-opacity:1;fill-rule:nonzero;stroke:none"
         x="0"
         dx="0 0 0 0 0 0 0 0 0 -0.66210938"
         y="0">actor3 : Actor3</tspan></text>
    <path
       id="path24"
       d="m 145,756.5 h 50"
       style="fill:none;stroke:#000000;stroke-width:1;stroke-linecap:butt;stroke-linejoin:miter;stroke-miterlimit:10;stroke-dasharray:none;stroke-opacity:1"
       transform="matrix(0.9478822,0,0,0.9478822,-79.509126,-632.13322)"
       clip-path="url(#clipPath25)" />
    <path
       id="path26"
       d="m 145,826.5 h 50"
       style="fill:none;stroke:#000000;stroke-width:1;stroke-linecap:butt;stroke-linejoin:miter;stroke-miterlimit:10;stroke-dasharray:none;stroke-opacity:1"
       transform="matrix(0.9478822,0,0,0.9478822,-79.509126,-632.13322)"
       clip-path="url(#clipPath27)" />
    <path
       id="path28"
       d="M 268,737 V 720"
       style="fill:none;stroke:#000000;stroke-width:1;stroke-linecap:butt;stroke-linejoin:miter;stroke-miterlimit:10;stroke-dasharray:none;stroke-opacity:1"
       transform="matrix(0.9478822,0,0,0.9478822,-79.509126,-632.13322)"
       clip-path="url(#clipPath29)" />
    <path
       id="path30"
       d="m 118,910 h 114 c 0.39781,0 0.78049,0.0761 1.14803,0.22833 0.36753,0.15216 0.69197,0.36896 0.97328,0.65027 0.28129,0.28125 0.49807,0.60565 0.65031,0.97321 0.15224,0.36761 0.22836,0.7503 0.22838,1.14819 v 54 c -2e-5,0.39777 -0.0761,0.78046 -0.22838,1.14795 -0.15224,0.36749 -0.36902,0.69195 -0.65031,0.97333 -0.28131,0.28125 -0.60575,0.49798 -0.97328,0.65027 C 232.78049,969.92377 232.39781,969.99994 232,970 H 118 c -0.39783,-6e-5 -0.78052,-0.0762 -1.14807,-0.22845 -0.36754,-0.15229 -0.69196,-0.36902 -0.97326,-0.65027 -0.2813,-0.28138 -0.49809,-0.60584 -0.65033,-0.97339 C 115.0761,967.7804 114.99999,967.39777 115,967 v -54 c -1e-5,-0.39789 0.0761,-0.78058 0.22834,-1.14813 0.15224,-0.36762 0.36903,-0.69202 0.65033,-0.97327 0.2813,-0.28131 0.60572,-0.49811 0.97327,-0.65033 C 117.21948,910.07611 117.60217,910 118,910 Z"
       style="fill:#ffffff;fill-opacity:1;fill-rule:nonzero;stroke:#000000;stroke-width:1;stroke-linecap:butt;stroke-linejoin:miter;stroke-miterlimit:10;stroke-dasharray:none;stroke-opacity:1"
       transform="matrix(0.9478822,0,0,0.9478822,-79.509126,-632.13322)"
       clip-path="url(#clipPath31)" />
    <text
       id="text31"
       xml:space="preserve"
       transform="matrix(0.9478822,0,0,0.9478822,47.107206,250.81904)"
       clip-path="url(#clipPath32)"><tspan
         id="tspan31"
         style="font-variant:normal;font-weight:normal;font-size:16px;font-family:Arial;writing-mode:lr-tb;fill:#000000;fill-opacity:1;fill-rule:nonzero;stroke:none"
         x="0"
         y="0">«use case»</tspan></text>
    <text
       id="text32"
       xml:space="preserve"
       transform="matrix(0.9478822,0,0,0.9478822,51.742942,268.8288)"
       clip-path="url(#clipPath33)"><tspan
         id="tspan32"
         style="font-variant:normal;font-weight:normal;font-size:16px;font-family:Arial;writing-mode:lr-tb;fill:#000000;fill-opacity:1;fill-rule:nonzero;stroke:none"
         x="0"
         y="0">useCase2</tspan></text>
    <path
       id="path34"
       d="m 308,910 h 114 c 0.3978,0 0.78049,0.0761 1.14801,0.22833 0.36752,0.15216 0.69196,0.36896 0.9733,0.65027 0.28128,0.28125 0.49801,0.60565 0.65027,0.97321 0.15225,0.36761 0.22839,0.7503 0.22842,1.14819 v 54 c -3e-5,0.39777 -0.0761,0.78046 -0.22839,1.14795 -0.15226,0.36749 -0.36902,0.69195 -0.6503,0.97333 -0.28134,0.28125 -0.60578,0.49798 -0.9733,0.65027 C 422.78049,969.92377 422.3978,969.99994 422,970 H 308 c -0.39786,-6e-5 -0.78055,-0.0762 -1.14807,-0.22845 -0.36755,-0.15229 -0.69196,-0.36902 -0.97324,-0.65027 -0.28131,-0.28138 -0.49811,-0.60584 -0.65036,-0.97339 C 305.07608,967.7804 304.99997,967.39777 305,967 v -54 c -3e-5,-0.39789 0.0761,-0.78058 0.22833,-1.14813 0.15225,-0.36762 0.36905,-0.69202 0.65036,-0.97327 0.28128,-0.28131 0.60569,-0.49811 0.97324,-0.65033 C 307.21945,910.07611 307.60214,910 308,910 Z"
       style="fill:#ffffff;fill-opacity:1;fill-rule:nonzero;stroke:#000000;stroke-width:1;stroke-linecap:butt;stroke-linejoin:miter;stroke-miterlimit:10;stroke-dasharray:none;stroke-opacity:1"
       transform="matrix(0.9478822,0,0,0.9478822,-79.509126,-632.13322)"
       clip-path="url(#clipPath35)" />
    <text
       id="text35"
       xml:space="preserve"
       transform="matrix(0.9478822,0,0,0.9478822,227.20483,250.81904)"
       clip-path="url(#clipPath36)"><tspan
         id="tspan35"
         style="font-variant:normal;font-weight:normal;font-size:16px;font-family:Arial;writing-mode:lr-tb;fill:#000000;fill-opacity:1;fill-rule:nonzero;stroke:none"
         x="0"
         y="0">«use case»</tspan></text>
    <text
       id="text36"
       xml:space="preserve"
       transform="matrix(0.9478822,0,0,0.9478822,231.84056,268.8288)"
       clip-path="url(#clipPath37)"><tspan
         id="tspan36"
         style="font-variant:normal;font-weight:normal;font-size:16px;font-family:Arial;writing-mode:lr-tb;fill:#000000;fill-opacity:1;fill-rule:nonzero;stroke:none"
         x="0"
         y="0">useCase3</tspan></text>
    <path
       id="path38"
       d="m 245,857 -68.22,51.65002"
       style="fill:none;stroke:#000000;stroke-width:1;stroke-linecap:butt;stroke-linejoin:miter;stroke-miterlimit:10;stroke-dasharray:none;stroke-opacity:1"
       transform="matrix(0.9478822,0,0,0.9478822,-79.509126,-632.13322)"
       clip-path="url(#clipPath39)" />
    <path
       id="path40"
       d="m 180.35001,900.29999 -4.46001,9.03003 9.89,-1.85004"
       style="fill:none;stroke:#000000;stroke-width:1;stroke-linecap:butt;stroke-linejoin:miter;stroke-miterlimit:10;stroke-dasharray:none;stroke-opacity:1"
       transform="matrix(0.9478822,0,0,0.9478822,-79.509126,-632.13322)"
       clip-path="url(#clipPath41)" />
    <text
       id="text41"
       xml:space="preserve"
       transform="matrix(0.9478822,0,0,0.9478822,118.89447,215.7474)"
       clip-path="url(#clipPath42)"><tspan
         id="tspan41"
         style="font-variant:normal;font-weight:normal;font-size:12px;font-family:Arial;writing-mode:lr-tb;fill:#000000;fill-opacity:1;fill-rule:nonzero;stroke:none"
         x="0"
         y="0">«include»</tspan></text>
    <path
       id="path43"
       d="m 299,857 64.26001,51.59998"
       style="fill:none;stroke:#000000;stroke-width:1;stroke-linecap:butt;stroke-linejoin:miter;stroke-miterlimit:10;stroke-dasharray:none;stroke-opacity:1"
       transform="matrix(0.9478822,0,0,0.9478822,-79.509126,-632.13322)"
       clip-path="url(#clipPath44)" />
    <path
       id="path45"
       d="m 354.29001,907.16998 9.83999,2.13001 -4.20001,-9.14002"
       style="fill:none;stroke:#000000;stroke-width:1;stroke-linecap:butt;stroke-linejoin:miter;stroke-miterlimit:10;stroke-dasharray:none;stroke-opacity:1"
       transform="matrix(0.9478822,0,0,0.9478822,-79.509126,-632.13322)"
       clip-path="url(#clipPath46)" />
    <text
       id="text46"
       xml:space="preserve"
       transform="matrix(0.9478822,0,0,0.9478822,179.55893,215.7474)"
       clip-path="url(#clipPath47)"><tspan
         id="tspan46"
         style="font-variant:normal;font-weight:normal;font-size:12px;font-family:Arial;writing-mode:lr-tb;fill:#000000;fill-opacity:1;fill-rule:nonzero;stroke:none"
         x="0"
         y="0">«include»</tspan></text>
    <path
       id="path48"
       d="m 218,670 h 100 c 0.66302,0 1.30081,0.12683 1.91339,0.38049 0.61258,0.25373 1.15329,0.61505 1.62213,1.08387 0.46884,0.46881 0.83011,1.00952 1.08383,1.62213 0.25376,0.61261 0.38062,1.25042 0.38065,1.91351 v 40 c -3e-5,0.66302 -0.12689,1.30078 -0.38065,1.91339 -0.25372,0.61255 -0.61499,1.15326 -1.08383,1.62213 -0.46884,0.46881 -1.00955,0.83008 -1.62213,1.0838 C 319.30081,719.87311 318.66302,720 318,720 H 218 c -0.66306,0 -1.30087,-0.12689 -1.91344,-0.38062 -0.61258,-0.25378 -1.15329,-0.61505 -1.62211,-1.08386 -0.46884,-0.46887 -0.83014,-1.00958 -1.08388,-1.62213 C 213.12683,716.30078 212.99998,715.66302 213,715 v -40 c -2e-5,-0.66309 0.12683,-1.3009 0.38057,-1.91351 0.25374,-0.61261 0.61504,-1.15332 1.08388,-1.62213 0.46882,-0.46882 1.00953,-0.83014 1.62211,-1.08387 C 216.69913,670.12683 217.33694,670 218,670 Z"
       style="fill:#ffffff;fill-opacity:1;fill-rule:nonzero;stroke:#000000;stroke-width:1;stroke-linecap:butt;stroke-linejoin:miter;stroke-miterlimit:10;stroke-dasharray:none;stroke-opacity:1"
       transform="matrix(0.9478822,0,0,0.9478822,-79.509126,-632.13322)"
       clip-path="url(#clipPath49)" />
    <text
       id="text49"
       xml:space="preserve"
       transform="matrix(0.9478822,0,0,0.9478822,149.68584,19.53578)"
       clip-path="url(#clipPath50)"><tspan
         id="tspan49"
         style="font-variant:normal;font-weight:normal;font-size:12px;font-family:Arial;writing-mode:lr-tb;fill:#000000;fill-opacity:1;fill-rule:nonzero;stroke:none"
         x="0"
         y="0">«subject»</tspan></text>
    <text
       id="text50"
       xml:space="preserve"
       transform="matrix(0.9478822,0,0,0.9478822,128.37329,32.806131)"
       clip-path="url(#clipPath51)"><tspan
         id="tspan50"
         style="font-variant:normal;font-weight:normal;font-size:12px;font-family:Arial;writing-mode:lr-tb;fill:#000000;fill-opacity:1;fill-rule:nonzero;stroke:none"
         x="0"
         y="0">system = system1</tspan></text>
  </g>
</svg>
