<?xml version="1.0" encoding="UTF-8" standalone="no"?>
<!-- Created with Inkscape (http://www.inkscape.org/) -->

<svg
   version="1.1"
   id="svg1"
   width="323.84"
   height="224"
   viewBox="0 0 323.84 224"
   xmlns="http://www.w3.org/2000/svg"
   xmlns:svg="http://www.w3.org/2000/svg">
  <defs
     id="defs1">
    <clipPath
       clipPathUnits="userSpaceOnUse"
       id="clipPath2">
      <path
         d="M 0,0 H 1010.9863 V 699.02344 H 0 Z"
         transform="scale(0.31999999)"
         clip-rule="evenodd"
         id="path2" />
    </clipPath>
    <clipPath
       clipPathUnits="userSpaceOnUse"
       id="clipPath4">
      <path
         d="m 3.125,0 h 1006.25 V 696.875 H 3.125 Z"
         transform="matrix(0.33681828,0,0,0.33681828,499.89199,6694.9474)"
         clip-rule="evenodd"
         id="path4" />
    </clipPath>
    <clipPath
       clipPathUnits="userSpaceOnUse"
       id="clipPath5">
      <path
         d="m 3.125,0 h 1006.25 V 696.875 H 3.125 Z"
         transform="matrix(0.33681828,0,0,0.33681828,-121.23301,-19.552436)"
         clip-rule="evenodd"
         id="path5" />
    </clipPath>
    <clipPath
       clipPathUnits="userSpaceOnUse"
       id="clipPath6">
      <path
         d="m 3.125,0 h 1006.25 V 696.875 H 3.125 Z"
         transform="matrix(0.33681828,0,0,0.33681828,-4.6080109,-34.552436)"
         clip-rule="evenodd"
         id="path6" />
    </clipPath>
    <clipPath
       clipPathUnits="userSpaceOnUse"
       id="clipPath7">
      <path
         d="m 3.125,0 h 1006.25 V 696.875 H 3.125 Z"
         transform="matrix(0.33681828,0,0,0.33681828,-11.62364,-34.552436)"
         clip-rule="evenodd"
         id="path7" />
    </clipPath>
    <clipPath
       clipPathUnits="userSpaceOnUse"
       id="clipPath8">
      <path
         d="m 3.125,0 h 1006.25 V 696.875 H 3.125 Z"
         transform="matrix(0.33681828,0,0,0.33681828,-150.37364,-34.552436)"
         clip-rule="evenodd"
         id="path8" />
    </clipPath>
    <clipPath
       clipPathUnits="userSpaceOnUse"
       id="clipPath9">
      <path
         d="m 3.125,0 h 1006.25 V 696.875 H 3.125 Z"
         transform="matrix(0.33681828,0,0,0.33681828,-157.71739,-34.552436)"
         clip-rule="evenodd"
         id="path9" />
    </clipPath>
    <clipPath
       clipPathUnits="userSpaceOnUse"
       id="clipPath10">
      <path
         d="m 3.125,0 h 1006.25 V 696.875 H 3.125 Z"
         transform="matrix(0.33681828,0,0,0.33681828,-168.38926,-34.552436)"
         clip-rule="evenodd"
         id="path10" />
    </clipPath>
    <clipPath
       clipPathUnits="userSpaceOnUse"
       id="clipPath11">
      <path
         d="m 3.125,0 h 1006.25 V 696.875 H 3.125 Z"
         transform="matrix(0.33681828,0,0,0.33681828,-245.76426,-34.552436)"
         clip-rule="evenodd"
         id="path11" />
    </clipPath>
    <clipPath
       clipPathUnits="userSpaceOnUse"
       id="clipPath12">
      <path
         d="m 3.125,0 h 1006.25 V 696.875 H 3.125 Z"
         transform="matrix(0.33681828,0,0,0.33681828,-264.42051,-34.552436)"
         clip-rule="evenodd"
         id="path12" />
    </clipPath>
    <clipPath
       clipPathUnits="userSpaceOnUse"
       id="clipPath13">
      <path
         d="m 3.125,0 h 1006.25 V 696.875 H 3.125 Z"
         transform="matrix(0.33681828,0,0,0.33681828,-4.6080109,-51.552436)"
         clip-rule="evenodd"
         id="path13" />
    </clipPath>
    <clipPath
       clipPathUnits="userSpaceOnUse"
       id="clipPath14">
      <path
         d="m 3.125,0 h 1006.25 V 696.875 H 3.125 Z"
         transform="matrix(0.33681828,0,0,0.33681828,-4.6080109,-68.552436)"
         clip-rule="evenodd"
         id="path14" />
    </clipPath>
    <clipPath
       clipPathUnits="userSpaceOnUse"
       id="clipPath15">
      <path
         d="m 3.125,0 h 1006.25 V 696.875 H 3.125 Z"
         transform="matrix(0.33681828,0,0,0.33681828,-128.01427,-68.552436)"
         clip-rule="evenodd"
         id="path15" />
    </clipPath>
    <clipPath
       clipPathUnits="userSpaceOnUse"
       id="clipPath16">
      <path
         d="m 3.125,0 h 1006.25 V 696.875 H 3.125 Z"
         transform="matrix(0.33681828,0,0,0.33681828,-132.01426,-68.552436)"
         clip-rule="evenodd"
         id="path16" />
    </clipPath>
    <clipPath
       clipPathUnits="userSpaceOnUse"
       id="clipPath17">
      <path
         d="m 3.125,0 h 1006.25 V 696.875 H 3.125 Z"
         transform="matrix(0.33681828,0,0,0.33681828,-150.02989,-68.552436)"
         clip-rule="evenodd"
         id="path17" />
    </clipPath>
    <clipPath
       clipPathUnits="userSpaceOnUse"
       id="clipPath18">
      <path
         d="m 3.125,0 h 1006.25 V 696.875 H 3.125 Z"
         transform="matrix(0.33681828,0,0,0.33681828,-154.02989,-68.552436)"
         clip-rule="evenodd"
         id="path18" />
    </clipPath>
    <clipPath
       clipPathUnits="userSpaceOnUse"
       id="clipPath19">
      <path
         d="m 3.125,0 h 1006.25 V 696.875 H 3.125 Z"
         transform="matrix(0.33681828,0,0,0.33681828,-157.37364,-68.552436)"
         clip-rule="evenodd"
         id="path19" />
    </clipPath>
    <clipPath
       clipPathUnits="userSpaceOnUse"
       id="clipPath20">
      <path
         d="m 3.125,0 h 1006.25 V 696.875 H 3.125 Z"
         transform="matrix(0.33681828,0,0,0.33681828,-4.6080109,-85.552436)"
         clip-rule="evenodd"
         id="path20" />
    </clipPath>
    <clipPath
       clipPathUnits="userSpaceOnUse"
       id="clipPath21">
      <path
         d="m 3.125,0 h 1006.25 V 696.875 H 3.125 Z"
         transform="matrix(0.33681828,0,0,0.33681828,-164.01426,-85.552436)"
         clip-rule="evenodd"
         id="path21" />
    </clipPath>
    <clipPath
       clipPathUnits="userSpaceOnUse"
       id="clipPath22">
      <path
         d="m 3.125,0 h 1006.25 V 696.875 H 3.125 Z"
         transform="matrix(0.33681828,0,0,0.33681828,-217.37364,-85.552436)"
         clip-rule="evenodd"
         id="path22" />
    </clipPath>
    <clipPath
       clipPathUnits="userSpaceOnUse"
       id="clipPath23">
      <path
         d="m 3.125,0 h 1006.25 V 696.875 H 3.125 Z"
         transform="matrix(0.33681828,0,0,0.33681828,-4.6080109,-102.55244)"
         clip-rule="evenodd"
         id="path23" />
    </clipPath>
    <clipPath
       clipPathUnits="userSpaceOnUse"
       id="clipPath24">
      <path
         d="m 3.125,0 h 1006.25 V 696.875 H 3.125 Z"
         transform="matrix(0.33681828,0,0,0.33681828,-164.01426,-102.55244)"
         clip-rule="evenodd"
         id="path24" />
    </clipPath>
    <clipPath
       clipPathUnits="userSpaceOnUse"
       id="clipPath25">
      <path
         d="m 3.125,0 h 1006.25 V 696.875 H 3.125 Z"
         transform="matrix(0.33681828,0,0,0.33681828,-182.02989,-102.55244)"
         clip-rule="evenodd"
         id="path25" />
    </clipPath>
    <clipPath
       clipPathUnits="userSpaceOnUse"
       id="clipPath26">
      <path
         d="m 3.125,0 h 1006.25 V 696.875 H 3.125 Z"
         transform="matrix(0.33681828,0,0,0.33681828,-4.6080109,-118.55244)"
         clip-rule="evenodd"
         id="path26" />
    </clipPath>
    <clipPath
       clipPathUnits="userSpaceOnUse"
       id="clipPath27">
      <path
         d="m 3.125,0 h 1006.25 V 696.875 H 3.125 Z"
         transform="matrix(0.33681828,0,0,0.33681828,-22.623641,-118.55244)"
         clip-rule="evenodd"
         id="path27" />
    </clipPath>
    <clipPath
       clipPathUnits="userSpaceOnUse"
       id="clipPath28">
      <path
         d="m 3.125,0 h 1006.25 V 696.875 H 3.125 Z"
         transform="matrix(0.33681828,0,0,0.33681828,-4.6080109,-135.55244)"
         clip-rule="evenodd"
         id="path28" />
    </clipPath>
    <clipPath
       clipPathUnits="userSpaceOnUse"
       id="clipPath29">
      <path
         d="m 3.125,0 h 1006.25 V 696.875 H 3.125 Z"
         transform="matrix(0.33681828,0,0,0.33681828,-162.70176,-135.55244)"
         clip-rule="evenodd"
         id="path29" />
    </clipPath>
    <clipPath
       clipPathUnits="userSpaceOnUse"
       id="clipPath30">
      <path
         d="m 3.125,0 h 1006.25 V 696.875 H 3.125 Z"
         transform="matrix(0.33681828,0,0,0.33681828,-166.70176,-135.55244)"
         clip-rule="evenodd"
         id="path30" />
    </clipPath>
    <clipPath
       clipPathUnits="userSpaceOnUse"
       id="clipPath31">
      <path
         d="m 3.125,0 h 1006.25 V 696.875 H 3.125 Z"
         transform="matrix(0.33681828,0,0,0.33681828,-176.70176,-135.55244)"
         clip-rule="evenodd"
         id="path31" />
    </clipPath>
    <clipPath
       clipPathUnits="userSpaceOnUse"
       id="clipPath32">
      <path
         d="m 3.125,0 h 1006.25 V 696.875 H 3.125 Z"
         transform="matrix(0.33681828,0,0,0.33681828,-180.70176,-135.55244)"
         clip-rule="evenodd"
         id="path32" />
    </clipPath>
    <clipPath
       clipPathUnits="userSpaceOnUse"
       id="clipPath33">
      <path
         d="m 3.125,0 h 1006.25 V 696.875 H 3.125 Z"
         transform="matrix(0.33681828,0,0,0.33681828,-184.04552,-135.55244)"
         clip-rule="evenodd"
         id="path33" />
    </clipPath>
    <clipPath
       clipPathUnits="userSpaceOnUse"
       id="clipPath34">
      <path
         d="m 3.125,0 h 1006.25 V 696.875 H 3.125 Z"
         transform="matrix(0.33681828,0,0,0.33681828,-229.40489,-135.55244)"
         clip-rule="evenodd"
         id="path34" />
    </clipPath>
    <clipPath
       clipPathUnits="userSpaceOnUse"
       id="clipPath35">
      <path
         d="m 3.125,0 h 1006.25 V 696.875 H 3.125 Z"
         transform="matrix(0.33681828,0,0,0.33681828,-4.6080109,-152.55244)"
         clip-rule="evenodd"
         id="path35" />
    </clipPath>
    <clipPath
       clipPathUnits="userSpaceOnUse"
       id="clipPath36">
      <path
         d="m 3.125,0 h 1006.25 V 696.875 H 3.125 Z"
         transform="matrix(0.33681828,0,0,0.33681828,-162.70176,-152.55244)"
         clip-rule="evenodd"
         id="path36" />
    </clipPath>
    <clipPath
       clipPathUnits="userSpaceOnUse"
       id="clipPath37">
      <path
         d="m 3.125,0 h 1006.25 V 696.875 H 3.125 Z"
         transform="matrix(0.33681828,0,0,0.33681828,-166.70176,-152.55244)"
         clip-rule="evenodd"
         id="path37" />
    </clipPath>
    <clipPath
       clipPathUnits="userSpaceOnUse"
       id="clipPath38">
      <path
         d="m 3.125,0 h 1006.25 V 696.875 H 3.125 Z"
         transform="matrix(0.33681828,0,0,0.33681828,-176.70176,-152.55244)"
         clip-rule="evenodd"
         id="path38" />
    </clipPath>
    <clipPath
       clipPathUnits="userSpaceOnUse"
       id="clipPath39">
      <path
         d="m 3.125,0 h 1006.25 V 696.875 H 3.125 Z"
         transform="matrix(0.33681828,0,0,0.33681828,-180.70176,-152.55244)"
         clip-rule="evenodd"
         id="path39" />
    </clipPath>
    <clipPath
       clipPathUnits="userSpaceOnUse"
       id="clipPath40">
      <path
         d="m 3.125,0 h 1006.25 V 696.875 H 3.125 Z"
         transform="matrix(0.33681828,0,0,0.33681828,-184.04552,-152.55244)"
         clip-rule="evenodd"
         id="path40" />
    </clipPath>
    <clipPath
       clipPathUnits="userSpaceOnUse"
       id="clipPath41">
      <path
         d="m 3.125,0 h 1006.25 V 696.875 H 3.125 Z"
         transform="matrix(0.33681828,0,0,0.33681828,-195.06114,-152.55244)"
         clip-rule="evenodd"
         id="path41" />
    </clipPath>
    <clipPath
       clipPathUnits="userSpaceOnUse"
       id="clipPath42">
      <path
         d="m 3.125,0 h 1006.25 V 696.875 H 3.125 Z"
         transform="matrix(0.33681828,0,0,0.33681828,-4.6080109,-169.55243)"
         clip-rule="evenodd"
         id="path42" />
    </clipPath>
    <clipPath
       clipPathUnits="userSpaceOnUse"
       id="clipPath43">
      <path
         d="m 3.125,0 h 1006.25 V 696.875 H 3.125 Z"
         transform="matrix(0.33681828,0,0,0.33681828,-70.654891,-169.55243)"
         clip-rule="evenodd"
         id="path43" />
    </clipPath>
    <clipPath
       clipPathUnits="userSpaceOnUse"
       id="clipPath44">
      <path
         d="m 3.125,0 h 1006.25 V 696.875 H 3.125 Z"
         transform="matrix(0.33681828,0,0,0.33681828,-77.670511,-169.55243)"
         clip-rule="evenodd"
         id="path44" />
    </clipPath>
    <clipPath
       clipPathUnits="userSpaceOnUse"
       id="clipPath45">
      <path
         d="m 3.125,0 h 1006.25 V 696.875 H 3.125 Z"
         transform="matrix(0.33681828,0,0,0.33681828,-4.6080109,-186.55243)"
         clip-rule="evenodd"
         id="path45" />
    </clipPath>
    <clipPath
       clipPathUnits="userSpaceOnUse"
       id="clipPath46">
      <path
         d="m 3.125,0 h 1006.25 V 696.875 H 3.125 Z"
         transform="matrix(0.33681828,0,0,0.33681828,-4.6080109,-203.55243)"
         clip-rule="evenodd"
         id="path46" />
    </clipPath>
  </defs>
  <g
     id="g1">
    <path
       id="path1"
       d="M 0,0 H 324 V 224 H 0 Z"
       style="fill:#ffffff;fill-opacity:1;fill-rule:nonzero;stroke:none"
       clip-path="url(#clipPath2)" />
    <path
       id="path3"
       d="m 503,6697 h 334 v 230 H 503 Z"
       style="fill:#ffffff;fill-opacity:1;fill-rule:nonzero;stroke:#000000;stroke-width:1;stroke-linecap:butt;stroke-linejoin:miter;stroke-miterlimit:10;stroke-dasharray:none;stroke-opacity:1"
       transform="matrix(0.95006716,0,0,0.95006716,-474.93096,-6360.6497)"
       clip-path="url(#clipPath4)" />
    <g
       id="g4" />
    <text
       id="text4"
       xml:space="preserve"
       transform="matrix(0.95006716,0,0,0.95006716,115.1795,18.576127)"
       clip-path="url(#clipPath5)"><tspan
         id="tspan4"
         style="font-style:italic;font-variant:normal;font-weight:normal;font-size:12px;font-family:Arial;writing-mode:lr-tb;fill:#000000;fill-opacity:1;fill-rule:nonzero;stroke:none"
         x="0"
         y="0"> include use cases</tspan></text>
    <text
       id="text5"
       xml:space="preserve"
       transform="matrix(0.95006716,0,0,0.95006716,4.3779198,32.827135)"
       clip-path="url(#clipPath6)"><tspan
         id="tspan5"
         style="font-variant:normal;font-weight:700;font-size:12px;font-family:Arial;writing-mode:lr-tb;fill:#000000;fill-opacity:1;fill-rule:nonzero;stroke:none"
         x="0"
         y="0">^</tspan></text>
    <text
       id="text6"
       xml:space="preserve"
       transform="matrix(0.95006716,0,0,0.95006716,11.043239,32.827135)"
       clip-path="url(#clipPath7)"><tspan
         id="tspan6"
         style="font-variant:normal;font-weight:normal;font-size:12px;font-family:Arial;writing-mode:lr-tb;fill:#000000;fill-opacity:1;fill-rule:nonzero;stroke:none"
         x="0"
         y="0">useCase2 : UseCaseDef2</tspan></text>
    <g
       id="g7" />
    <text
       id="text7"
       xml:space="preserve"
       transform="matrix(0.95006716,0,0,0.95006716,142.86506,32.827135)"
       clip-path="url(#clipPath8)"><tspan
         id="tspan7"
         style="font-variant:normal;font-weight:normal;font-size:12px;font-family:Arial;writing-mode:lr-tb;fill:#0f0f0f;fill-opacity:1;fill-rule:nonzero;stroke:none"
         x="0"
         y="0"> (</tspan></text>
    <text
       id="text8"
       xml:space="preserve"
       transform="matrix(0.95006716,0,0,0.95006716,149.84211,32.827135)"
       clip-path="url(#clipPath9)"><tspan
         id="tspan8"
         style="font-variant:normal;font-weight:700;font-size:12px;font-family:Arial;writing-mode:lr-tb;fill:#0f0f0f;fill-opacity:1;fill-rule:nonzero;stroke:none"
         x="0"
         y="0">in</tspan></text>
    <text
       id="text9"
       xml:space="preserve"
       transform="matrix(0.95006716,0,0,0.95006716,159.98111,32.827135)"
       clip-path="url(#clipPath10)"><tspan
         id="tspan9"
         style="font-variant:normal;font-weight:normal;font-size:12px;font-family:Arial;writing-mode:lr-tb;fill:#0f0f0f;fill-opacity:1;fill-rule:nonzero;stroke:none"
         x="0"
         y="0"> : ParamDef1, </tspan></text>
    <text
       id="text10"
       xml:space="preserve"
       transform="matrix(0.95006716,0,0,0.95006716,233.49255,32.827135)"
       clip-path="url(#clipPath11)"><tspan
         id="tspan10"
         style="font-variant:normal;font-weight:700;font-size:12px;font-family:Arial;writing-mode:lr-tb;fill:#0f0f0f;fill-opacity:1;fill-rule:nonzero;stroke:none"
         x="0"
         y="0">out</tspan></text>
    <text
       id="text11"
       xml:space="preserve"
       transform="matrix(0.95006716,0,0,0.95006716,251.21724,32.827135)"
       clip-path="url(#clipPath12)"><tspan
         id="tspan11"
         style="font-variant:normal;font-weight:normal;font-size:12px;font-family:Arial;writing-mode:lr-tb;fill:#0f0f0f;fill-opacity:1;fill-rule:nonzero;stroke:none"
         x="0"
         y="0"> :</tspan></text>
    <text
       id="text12"
       xml:space="preserve"
       transform="matrix(0.95006716,0,0,0.95006716,4.3779198,48.978276)"
       clip-path="url(#clipPath13)"><tspan
         id="tspan12"
         style="font-variant:normal;font-weight:normal;font-size:12px;font-family:Arial;writing-mode:lr-tb;fill:#0f0f0f;fill-opacity:1;fill-rule:nonzero;stroke:none"
         x="0"
         y="0">ParamDef2)</tspan></text>
    <text
       id="text13"
       xml:space="preserve"
       transform="matrix(0.95006716,0,0,0.95006716,4.3779198,65.129418)"
       clip-path="url(#clipPath14)"><tspan
         id="tspan13"
         style="font-variant:normal;font-weight:normal;font-size:12px;font-family:Arial;writing-mode:lr-tb;fill:#000000;fill-opacity:1;fill-rule:nonzero;stroke:none"
         x="0"
         y="0">useCase1 : UseCase1 </tspan></text>
    <text
       id="text14"
       xml:space="preserve"
       transform="matrix(0.95006716,0,0,0.95006716,121.62215,65.129418)"
       clip-path="url(#clipPath15)"><tspan
         id="tspan14"
         style="font-variant:normal;font-weight:700;font-size:12px;font-family:Arial;writing-mode:lr-tb;fill:#000000;fill-opacity:1;fill-rule:nonzero;stroke:none"
         x="0"
         y="0">[</tspan></text>
    <text
       id="text15"
       xml:space="preserve"
       transform="matrix(0.95006716,0,0,0.95006716,125.42241,65.129418)"
       clip-path="url(#clipPath16)"><tspan
         id="tspan15"
         style="font-variant:normal;font-weight:normal;font-size:12px;font-family:Arial;writing-mode:lr-tb;fill:#000000;fill-opacity:1;fill-rule:nonzero;stroke:none"
         x="0"
         y="0">1..*</tspan></text>
    <text
       id="text16"
       xml:space="preserve"
       transform="matrix(0.95006716,0,0,0.95006716,142.53847,65.129418)"
       clip-path="url(#clipPath17)"><tspan
         id="tspan16"
         style="font-variant:normal;font-weight:700;font-size:12px;font-family:Arial;writing-mode:lr-tb;fill:#000000;fill-opacity:1;fill-rule:nonzero;stroke:none"
         x="0"
         y="0">]</tspan></text>
    <text
       id="text17"
       xml:space="preserve"
       transform="matrix(0.95006716,0,0,0.95006716,146.33874,65.129418)"
       clip-path="url(#clipPath18)"><tspan
         id="tspan17"
         style="font-variant:normal;font-weight:normal;font-size:12px;font-family:Arial;writing-mode:lr-tb;fill:#000000;fill-opacity:1;fill-rule:nonzero;stroke:none"
         x="0"
         y="0"> </tspan></text>
    <text
       id="text18"
       xml:space="preserve"
       transform="matrix(0.95006716,0,0,0.95006716,149.51553,65.129418)"
       clip-path="url(#clipPath19)"><tspan
         id="tspan18"
         style="font-variant:normal;font-weight:700;font-size:12px;font-family:Arial;writing-mode:lr-tb;fill:#000000;fill-opacity:1;fill-rule:nonzero;stroke:none"
         x="0"
         y="0">ordered nonunique</tspan></text>
    <g
       id="g19" />
    <text
       id="text19"
       xml:space="preserve"
       transform="matrix(0.95006716,0,0,0.95006716,4.3779198,81.28056)"
       clip-path="url(#clipPath20)"><tspan
         id="tspan19"
         style="font-variant:normal;font-weight:normal;font-size:12px;font-family:Arial;writing-mode:lr-tb;fill:#000000;fill-opacity:1;fill-rule:nonzero;stroke:none"
         x="0"
         y="0">useCase3R : UseCaseDef3R </tspan></text>
    <text
       id="text20"
       xml:space="preserve"
       transform="matrix(0.95006716,0,0,0.95006716,155.82456,81.28056)"
       clip-path="url(#clipPath21)"><tspan
         id="tspan20"
         style="font-variant:normal;font-weight:700;font-size:12px;font-family:Arial;writing-mode:lr-tb;fill:#000000;fill-opacity:1;fill-rule:nonzero;stroke:none"
         x="0"
         y="0">redefines</tspan></text>
    <g
       id="g21" />
    <text
       id="text21"
       xml:space="preserve"
       transform="matrix(0.95006716,0,0,0.95006716,206.51956,81.28056)"
       clip-path="url(#clipPath22)"><tspan
         id="tspan21"
         style="font-variant:normal;font-weight:normal;font-size:12px;font-family:Arial;writing-mode:lr-tb;fill:#000000;fill-opacity:1;fill-rule:nonzero;stroke:none"
         x="0"
         y="0"> useCase3</tspan></text>
    <text
       id="text22"
       xml:space="preserve"
       transform="matrix(0.95006716,0,0,0.95006716,4.3779198,97.431702)"
       clip-path="url(#clipPath23)"><tspan
         id="tspan22"
         style="font-variant:normal;font-weight:normal;font-size:12px;font-family:Arial;writing-mode:lr-tb;fill:#000000;fill-opacity:1;fill-rule:nonzero;stroke:none"
         x="0"
         y="0">useCase4R : UseCaseDef4R </tspan></text>
    <text
       id="text23"
       xml:space="preserve"
       transform="matrix(0.95006716,0,0,0.95006716,155.82456,97.431702)"
       clip-path="url(#clipPath24)"><tspan
         id="tspan23"
         style="font-variant:normal;font-weight:700;font-size:12px;font-family:Arial;writing-mode:lr-tb;fill:#000000;fill-opacity:1;fill-rule:nonzero;stroke:none"
         x="0"
         y="0">:&gt;&gt;</tspan></text>
    <text
       id="text24"
       xml:space="preserve"
       transform="matrix(0.95006716,0,0,0.95006716,172.94062,97.431702)"
       clip-path="url(#clipPath25)"><tspan
         id="tspan24"
         style="font-variant:normal;font-weight:normal;font-size:12px;font-family:Arial;writing-mode:lr-tb;fill:#000000;fill-opacity:1;fill-rule:nonzero;stroke:none"
         x="0"
         y="0"> useCase4</tspan></text>
    <text
       id="text25"
       xml:space="preserve"
       transform="matrix(0.95006716,0,0,0.95006716,4.3779198,112.63278)"
       clip-path="url(#clipPath26)"><tspan
         id="tspan25"
         style="font-variant:normal;font-weight:700;font-size:12px;font-family:Arial;writing-mode:lr-tb;fill:#000000;fill-opacity:1;fill-rule:nonzero;stroke:none"
         x="0"
         y="0">:&gt;&gt;</tspan></text>
    <text
       id="text26"
       xml:space="preserve"
       transform="matrix(0.95006716,0,0,0.95006716,21.493978,112.63278)"
       clip-path="url(#clipPath27)"><tspan
         id="tspan26"
         style="font-variant:normal;font-weight:normal;font-size:12px;font-family:Arial;writing-mode:lr-tb;fill:#000000;fill-opacity:1;fill-rule:nonzero;stroke:none"
         x="0"
         y="0"> useCase5</tspan></text>
    <text
       id="text27"
       xml:space="preserve"
       transform="matrix(0.95006716,0,0,0.95006716,4.3779198,128.78392)"
       clip-path="url(#clipPath28)"><tspan
         id="tspan27"
         style="font-variant:normal;font-weight:normal;font-size:12px;font-family:Arial;writing-mode:lr-tb;fill:#000000;fill-opacity:1;fill-rule:nonzero;stroke:none"
         x="0"
         y="0">useCase6S : UseCaseDef6S </tspan></text>
    <text
       id="text28"
       xml:space="preserve"
       transform="matrix(0.95006716,0,0,0.95006716,154.5776,128.78392)"
       clip-path="url(#clipPath29)"><tspan
         id="tspan28"
         style="font-variant:normal;font-weight:700;font-size:12px;font-family:Arial;writing-mode:lr-tb;fill:#000000;fill-opacity:1;fill-rule:nonzero;stroke:none"
         x="0"
         y="0">[</tspan></text>
    <text
       id="text29"
       xml:space="preserve"
       transform="matrix(0.95006716,0,0,0.95006716,158.37787,128.78392)"
       clip-path="url(#clipPath30)"><tspan
         id="tspan29"
         style="font-variant:normal;font-weight:normal;font-size:12px;font-family:Arial;writing-mode:lr-tb;fill:#000000;fill-opacity:1;fill-rule:nonzero;stroke:none"
         x="0"
         y="0">m</tspan></text>
    <text
       id="text30"
       xml:space="preserve"
       transform="matrix(0.95006716,0,0,0.95006716,167.87854,128.78392)"
       clip-path="url(#clipPath31)"><tspan
         id="tspan30"
         style="font-variant:normal;font-weight:700;font-size:12px;font-family:Arial;writing-mode:lr-tb;fill:#000000;fill-opacity:1;fill-rule:nonzero;stroke:none"
         x="0"
         y="0">]</tspan></text>
    <g
       id="g31" />
    <text
       id="text31"
       xml:space="preserve"
       transform="matrix(0.95006716,0,0,0.95006716,171.67881,128.78392)"
       clip-path="url(#clipPath32)"><tspan
         id="tspan31"
         style="font-variant:normal;font-weight:normal;font-size:12px;font-family:Arial;writing-mode:lr-tb;fill:#000000;fill-opacity:1;fill-rule:nonzero;stroke:none"
         x="0"
         y="0"> </tspan></text>
    <text
       id="text32"
       xml:space="preserve"
       transform="matrix(0.95006716,0,0,0.95006716,174.8556,128.78392)"
       clip-path="url(#clipPath33)"><tspan
         id="tspan32"
         style="font-variant:normal;font-weight:700;font-size:12px;font-family:Arial;writing-mode:lr-tb;fill:#000000;fill-opacity:1;fill-rule:nonzero;stroke:none"
         x="0"
         y="0">subsets</tspan></text>
    <g
       id="g33" />
    <text
       id="text33"
       xml:space="preserve"
       transform="matrix(0.95006716,0,0,0.95006716,217.95005,128.78392)"
       clip-path="url(#clipPath34)"><tspan
         id="tspan33"
         style="font-variant:normal;font-weight:normal;font-size:12px;font-family:Arial;writing-mode:lr-tb;fill:#000000;fill-opacity:1;fill-rule:nonzero;stroke:none"
         x="0"
         y="0"> useCase6</tspan></text>
    <text
       id="text34"
       xml:space="preserve"
       transform="matrix(0.95006716,0,0,0.95006716,4.3779198,144.93506)"
       clip-path="url(#clipPath35)"><tspan
         id="tspan34"
         style="font-variant:normal;font-weight:normal;font-size:12px;font-family:Arial;writing-mode:lr-tb;fill:#000000;fill-opacity:1;fill-rule:nonzero;stroke:none"
         x="0"
         y="0">useCase7S : UseCaseDef7S </tspan></text>
    <text
       id="text35"
       xml:space="preserve"
       transform="matrix(0.95006716,0,0,0.95006716,154.5776,144.93506)"
       clip-path="url(#clipPath36)"><tspan
         id="tspan35"
         style="font-variant:normal;font-weight:700;font-size:12px;font-family:Arial;writing-mode:lr-tb;fill:#000000;fill-opacity:1;fill-rule:nonzero;stroke:none"
         x="0"
         y="0">[</tspan></text>
    <text
       id="text36"
       xml:space="preserve"
       transform="matrix(0.95006716,0,0,0.95006716,158.37787,144.93506)"
       clip-path="url(#clipPath37)"><tspan
         id="tspan36"
         style="font-variant:normal;font-weight:normal;font-size:12px;font-family:Arial;writing-mode:lr-tb;fill:#000000;fill-opacity:1;fill-rule:nonzero;stroke:none"
         x="0"
         y="0">m</tspan></text>
    <text
       id="text37"
       xml:space="preserve"
       transform="matrix(0.95006716,0,0,0.95006716,167.87854,144.93506)"
       clip-path="url(#clipPath38)"><tspan
         id="tspan37"
         style="font-variant:normal;font-weight:700;font-size:12px;font-family:Arial;writing-mode:lr-tb;fill:#000000;fill-opacity:1;fill-rule:nonzero;stroke:none"
         x="0"
         y="0">]</tspan></text>
    <text
       id="text38"
       xml:space="preserve"
       transform="matrix(0.95006716,0,0,0.95006716,171.67881,144.93506)"
       clip-path="url(#clipPath39)"><tspan
         id="tspan38"
         style="font-variant:normal;font-weight:normal;font-size:12px;font-family:Arial;writing-mode:lr-tb;fill:#000000;fill-opacity:1;fill-rule:nonzero;stroke:none"
         x="0"
         y="0"> </tspan></text>
    <text
       id="text39"
       xml:space="preserve"
       transform="matrix(0.95006716,0,0,0.95006716,174.8556,144.93506)"
       clip-path="url(#clipPath40)"><tspan
         id="tspan39"
         style="font-variant:normal;font-weight:700;font-size:12px;font-family:Arial;writing-mode:lr-tb;fill:#000000;fill-opacity:1;fill-rule:nonzero;stroke:none"
         x="0"
         y="0">:&gt;</tspan></text>
    <text
       id="text40"
       xml:space="preserve"
       transform="matrix(0.95006716,0,0,0.95006716,185.32118,144.93506)"
       clip-path="url(#clipPath41)"><tspan
         id="tspan40"
         style="font-variant:normal;font-weight:normal;font-size:12px;font-family:Arial;writing-mode:lr-tb;fill:#000000;fill-opacity:1;fill-rule:nonzero;stroke:none"
         x="0"
         y="0"> useCase7</tspan></text>
    <text
       id="text41"
       xml:space="preserve"
       transform="matrix(0.95006716,0,0,0.95006716,4.3779198,161.0862)"
       clip-path="url(#clipPath42)"><tspan
         id="tspan41"
         style="font-variant:normal;font-weight:normal;font-size:12px;font-family:Arial;writing-mode:lr-tb;fill:#000000;fill-opacity:1;fill-rule:nonzero;stroke:none"
         x="0"
         y="0">useCase8R </tspan></text>
    <text
       id="text42"
       xml:space="preserve"
       transform="matrix(0.95006716,0,0,0.95006716,67.126892,161.0862)"
       clip-path="url(#clipPath43)"><tspan
         id="tspan42"
         style="font-variant:normal;font-weight:700;font-size:12px;font-family:Arial;writing-mode:lr-tb;fill:#000000;fill-opacity:1;fill-rule:nonzero;stroke:none"
         x="0"
         y="0">=</tspan></text>
    <text
       id="text43"
       xml:space="preserve"
       transform="matrix(0.95006716,0,0,0.95006716,73.792202,161.0862)"
       clip-path="url(#clipPath44)"><tspan
         id="tspan43"
         style="font-variant:normal;font-weight:normal;font-size:12px;font-family:Arial;writing-mode:lr-tb;fill:#000000;fill-opacity:1;fill-rule:nonzero;stroke:none"
         x="0"
         y="0"> useCase8</tspan></text>
    <text
       id="text44"
       xml:space="preserve"
       transform="matrix(0.95006716,0,0,0.95006716,4.3779198,177.23734)"
       clip-path="url(#clipPath45)"><tspan
         id="tspan44"
         style="font-variant:normal;font-weight:normal;font-size:12px;font-family:Arial;writing-mode:lr-tb;fill:#000000;fill-opacity:1;fill-rule:nonzero;stroke:none"
         x="0"
         dx="0 0 0 0 0 0 0 0 -0.89062506"
         y="0">useCase11</tspan></text>
    <text
       id="text45"
       xml:space="preserve"
       transform="matrix(0.95006716,0,0,0.95006716,4.3779198,193.38848)"
       clip-path="url(#clipPath46)"><tspan
         id="tspan45"
         style="font-variant:normal;font-weight:700;font-size:14px;font-family:Arial;writing-mode:lr-tb;fill:#000000;fill-opacity:1;fill-rule:nonzero;stroke:none"
         x="0"
         y="0">...</tspan></text>
  </g>
</svg>
