<?xml version="1.0" encoding="UTF-8" standalone="no"?>
<!-- Created with Inkscape (http://www.inkscape.org/) -->

<svg
   version="1.1"
   id="svg1"
   width="250.56"
   height="169.28"
   viewBox="0 0 250.56 169.28"
   xmlns="http://www.w3.org/2000/svg"
   xmlns:svg="http://www.w3.org/2000/svg">
  <defs
     id="defs1">
    <clipPath
       clipPathUnits="userSpaceOnUse"
       id="clipPath2">
      <path
         d="M 0,0 H 783.00781 V 527.97852 H 0 Z"
         transform="scale(0.31999999)"
         clip-rule="evenodd"
         id="path2" />
    </clipPath>
    <clipPath
       clipPathUnits="userSpaceOnUse"
       id="clipPath4">
      <path
         d="M 3.125,0 H 781.25 V 527.97852 H 3.125 Z"
         transform="matrix(0.33915557,0,0,0.33915557,520.38318,14216.441)"
         clip-rule="evenodd"
         id="path4" />
    </clipPath>
    <clipPath
       clipPathUnits="userSpaceOnUse"
       id="clipPath6">
      <path
         d="M 3.125,0 H 781.25 V 527.97852 H 3.125 Z"
         transform="matrix(0.33915557,0,0,0.33915557,520.38318,14216.441)"
         clip-rule="evenodd"
         id="path6" />
    </clipPath>
    <clipPath
       clipPathUnits="userSpaceOnUse"
       id="clipPath8">
      <path
         d="M 3.125,0 H 781.25 V 527.97852 H 3.125 Z"
         transform="matrix(0.33915557,0,0,0.33915557,520.38318,14216.441)"
         clip-rule="evenodd"
         id="path8" />
    </clipPath>
    <clipPath
       clipPathUnits="userSpaceOnUse"
       id="clipPath9">
      <path
         d="M 3.125,0 H 781.25 V 527.97852 H 3.125 Z"
         transform="matrix(0.33915557,0,0,0.33915557,-91.694914,-24.059342)"
         clip-rule="evenodd"
         id="path9" />
    </clipPath>
    <clipPath
       clipPathUnits="userSpaceOnUse"
       id="clipPath10">
      <path
         d="M 3.125,0 H 781.25 V 527.97852 H 3.125 Z"
         transform="matrix(0.33915557,0,0,0.33915557,-40.132414,-43.059342)"
         clip-rule="evenodd"
         id="path10" />
    </clipPath>
    <clipPath
       clipPathUnits="userSpaceOnUse"
       id="clipPath11">
      <path
         d="m 333.52478,162.34375 h 114.99146 v 44.22656 H 333.52478 Z"
         transform="matrix(0.33915557,0,0,0.33915557,-113.60116,-66.059342)"
         clip-rule="evenodd"
         id="path11" />
    </clipPath>
    <clipPath
       clipPathUnits="userSpaceOnUse"
       id="clipPath12">
      <path
         d="M 26.880859,221.3125 H 436.72229 v 44.22656 H 26.880859 Z"
         transform="matrix(0.33915557,0,0,0.33915557,-9.116784,-86.059341)"
         clip-rule="evenodd"
         id="path12" />
    </clipPath>
    <clipPath
       clipPathUnits="userSpaceOnUse"
       id="clipPath13">
      <path
         d="M 26.880859,221.3125 H 436.72229 v 44.22656 H 26.880859 Z"
         transform="matrix(0.33915557,0,0,0.33915557,-62.476164,-86.059341)"
         clip-rule="evenodd"
         id="path13" />
    </clipPath>
    <clipPath
       clipPathUnits="userSpaceOnUse"
       id="clipPath15">
      <path
         d="M 3.125,0 H 781.25 V 527.97852 H 3.125 Z"
         transform="matrix(0.33915557,0,0,0.33915557,520.38318,14216.441)"
         clip-rule="evenodd"
         id="path15" />
    </clipPath>
    <clipPath
       clipPathUnits="userSpaceOnUse"
       id="clipPath16">
      <path
         d="M 321.73083,292.07813 H 460.3103 v 44.22656 H 321.73083 Z"
         transform="matrix(0.33915557,0,0,0.33915557,-108.92928,-110.05934)"
         clip-rule="evenodd"
         id="path16" />
    </clipPath>
    <clipPath
       clipPathUnits="userSpaceOnUse"
       id="clipPath17">
      <path
         d="M 26.880859,351.04688 H 601.83826 v 44.22656 H 26.880859 Z"
         transform="matrix(0.33915557,0,0,0.33915557,-9.116784,-130.05934)"
         clip-rule="evenodd"
         id="path17" />
    </clipPath>
    <clipPath
       clipPathUnits="userSpaceOnUse"
       id="clipPath18">
      <path
         d="M 26.880859,351.04688 H 601.83826 v 44.22656 H 26.880859 Z"
         transform="matrix(0.33915557,0,0,0.33915557,-30.460534,-130.05934)"
         clip-rule="evenodd"
         id="path18" />
    </clipPath>
    <clipPath
       clipPathUnits="userSpaceOnUse"
       id="clipPath19">
      <path
         d="M 26.880859,410.01563 H 365.95825 V 454.2461 H 26.880859 Z"
         transform="matrix(0.33915557,0,0,0.33915557,-9.116784,-150.05935)"
         clip-rule="evenodd"
         id="path19" />
    </clipPath>
    <clipPath
       clipPathUnits="userSpaceOnUse"
       id="clipPath20">
      <path
         d="M 26.880859,410.01563 H 365.95825 V 454.2461 H 26.880859 Z"
         transform="matrix(0.33915557,0,0,0.33915557,-49.804283,-150.05935)"
         clip-rule="evenodd"
         id="path20" />
    </clipPath>
    <clipPath
       clipPathUnits="userSpaceOnUse"
       id="clipPath21">
      <path
         d="m 26.880859,468.98828 h 38.330444 v 44.22656 H 26.880859 Z"
         transform="matrix(0.33915557,0,0,0.33915557,-9.116784,-170.05934)"
         clip-rule="evenodd"
         id="path21" />
    </clipPath>
  </defs>
  <g
     id="g1">
    <path
       id="path1"
       d="M 0,0 H 251 V 169 H 0 Z"
       style="fill:#ffffff;fill-opacity:1;fill-rule:nonzero;stroke:none"
       clip-path="url(#clipPath2)" />
    <path
       id="path3"
       d="m 782.5,14268.5 v -42.5 c 0,-5 -2.5,-7.5 -7.5,-7.5 H 531.01001 c -5,0 -7.5,2.5 -7.5,7.5 v 42.5"
       style="fill:none;stroke:#000000;stroke-width:1;stroke-linecap:butt;stroke-linejoin:miter;stroke-miterlimit:10;stroke-dasharray:none;stroke-opacity:1"
       transform="matrix(0.94351977,0,0,0.94351977,-490.99182,-13413.493)"
       clip-path="url(#clipPath4)" />
    <path
       id="path5"
       d="m 523.51001,14268.5 v 116.5 c 0,5 2.5,7.5 7.5,7.5 H 775 c 5,0 7.5,-2.5 7.5,-7.5 v -116.5"
       style="fill:none;stroke:#000000;stroke-width:1;stroke-linecap:butt;stroke-linejoin:miter;stroke-miterlimit:10;stroke-dasharray:none;stroke-opacity:1"
       transform="matrix(0.94351977,0,0,0.94351977,-490.99182,-13413.493)"
       clip-path="url(#clipPath6)" />
    <path
       id="path7"
       d="M 523.51001,14268.5 H 782.5"
       style="fill:none;stroke:#000000;stroke-width:1;stroke-linecap:butt;stroke-linejoin:miter;stroke-miterlimit:10;stroke-dasharray:none;stroke-opacity:1"
       transform="matrix(0.94351977,0,0,0.94351977,-490.99182,-13413.493)"
       clip-path="url(#clipPath8)" />
    <text
       id="text8"
       xml:space="preserve"
       transform="matrix(0.94351977,0,0,0.94351977,86.515964,22.700465)"
       clip-path="url(#clipPath9)"><tspan
         id="tspan8"
         style="font-variant:normal;font-weight:normal;font-size:16px;font-family:Arial;writing-mode:lr-tb;fill:#000000;fill-opacity:1;fill-rule:nonzero;stroke:none"
         x="0"
         y="0">«use case»</tspan></text>
    <text
       id="text9"
       xml:space="preserve"
       transform="matrix(0.94351977,0,0,0.94351977,37.865726,40.62734)"
       clip-path="url(#clipPath10)"><tspan
         id="tspan9"
         style="font-variant:normal;font-weight:normal;font-size:16px;font-family:Arial;writing-mode:lr-tb;fill:#000000;fill-opacity:1;fill-rule:nonzero;stroke:none"
         x="0"
         y="0">useCase1 : UseCaseDef1</tspan></text>
    <text
       id="text10"
       xml:space="preserve"
       transform="matrix(0.94351977,0,0,0.94351977,107.18494,62.328295)"
       clip-path="url(#clipPath11)"><tspan
         id="tspan10"
         style="font-style:italic;font-variant:normal;font-weight:normal;font-size:12px;font-family:Arial;writing-mode:lr-tb;fill:#000000;fill-opacity:1;fill-rule:nonzero;stroke:none"
         x="0"
         y="0">subject</tspan></text>
    <text
       id="text11"
       xml:space="preserve"
       transform="matrix(0.94351977,0,0,0.94351977,8.6018659,81.19869)"
       clip-path="url(#clipPath12)"><tspan
         id="tspan11"
         style="font-variant:normal;font-weight:700;font-size:12px;font-family:Arial;writing-mode:lr-tb;fill:#000000;fill-opacity:1;fill-rule:nonzero;stroke:none"
         x="0"
         y="0">redefines</tspan></text>
    <text
       id="text12"
       xml:space="preserve"
       transform="matrix(0.94351977,0,0,0.94351977,58.947496,81.19869)"
       clip-path="url(#clipPath13)"><tspan
         id="tspan12"
         style="font-variant:normal;font-weight:normal;font-size:12px;font-family:Arial;writing-mode:lr-tb;fill:#000000;fill-opacity:1;fill-rule:nonzero;stroke:none"
         x="0"
         y="0"> s1 = mySubject</tspan></text>
    <path
       id="path14"
       d="M 523.51001,14310.5 H 782.5"
       style="fill:none;stroke:#000000;stroke-width:1;stroke-linecap:butt;stroke-linejoin:miter;stroke-miterlimit:10;stroke-dasharray:none;stroke-opacity:1"
       transform="matrix(0.94351977,0,0,0.94351977,-490.99182,-13413.493)"
       clip-path="url(#clipPath15)" />
    <text
       id="text15"
       xml:space="preserve"
       transform="matrix(0.94351977,0,0,0.94351977,102.77693,103.84316)"
       clip-path="url(#clipPath16)"><tspan
         id="tspan15"
         style="font-style:italic;font-variant:normal;font-weight:normal;font-size:12px;font-family:Arial;writing-mode:lr-tb;fill:#000000;fill-opacity:1;fill-rule:nonzero;stroke:none"
         x="0"
         y="0">objective</tspan></text>
    <text
       id="text16"
       xml:space="preserve"
       transform="matrix(0.94351977,0,0,0.94351977,8.6018659,122.71356)"
       clip-path="url(#clipPath17)"><tspan
         id="tspan16"
         style="font-variant:normal;font-weight:700;font-size:12px;font-family:Arial;writing-mode:lr-tb;fill:#000000;fill-opacity:1;fill-rule:nonzero;stroke:none"
         x="0"
         y="0">doc</tspan></text>
    <g
       id="g17" />
    <text
       id="text17"
       xml:space="preserve"
       transform="matrix(0.94351977,0,0,0.94351977,28.740116,122.71356)"
       clip-path="url(#clipPath18)"><tspan
         id="tspan17"
         style="font-variant:normal;font-weight:normal;font-size:12px;font-family:Arial;writing-mode:lr-tb;fill:#000000;fill-opacity:1;fill-rule:nonzero;stroke:none"
         x="0"
         dx="0 -0.21679686"
         y="0"> This is the objective description.</tspan></text>
    <text
       id="text18"
       xml:space="preserve"
       transform="matrix(0.94351977,0,0,0.94351977,8.6018659,141.58396)"
       clip-path="url(#clipPath19)"><tspan
         id="tspan18"
         style="font-variant:normal;font-weight:700;font-size:12px;font-family:Arial;writing-mode:lr-tb;fill:#000000;fill-opacity:1;fill-rule:nonzero;stroke:none"
         x="0"
         y="0">require</tspan></text>
    <g
       id="g19" />
    <text
       id="text19"
       xml:space="preserve"
       transform="matrix(0.94351977,0,0,0.94351977,46.991326,141.58396)"
       clip-path="url(#clipPath20)"><tspan
         id="tspan19"
         style="font-variant:normal;font-weight:normal;font-size:12px;font-family:Arial;writing-mode:lr-tb;fill:#000000;fill-opacity:1;fill-rule:nonzero;stroke:none"
         x="0"
         y="0"> requirement1</tspan></text>
    <text
       id="text20"
       xml:space="preserve"
       transform="matrix(0.94351977,0,0,0.94351977,8.6018659,160.45435)"
       clip-path="url(#clipPath21)"><tspan
         id="tspan20"
         style="font-variant:normal;font-weight:normal;font-size:12px;font-family:Arial;writing-mode:lr-tb;fill:#000000;fill-opacity:1;fill-rule:nonzero;stroke:none"
         x="0"
         y="0">•••</tspan></text>
  </g>
</svg>
