<?xml version="1.0" encoding="UTF-8" standalone="no"?>
<!-- Created with Inkscape (http://www.inkscape.org/) -->

<svg
   version="1.1"
   id="svg1"
   width="341.44"
   height="289.28"
   viewBox="0 0 341.44 289.28"
   xmlns="http://www.w3.org/2000/svg"
   xmlns:svg="http://www.w3.org/2000/svg">
  <defs
     id="defs1">
    <clipPath
       clipPathUnits="userSpaceOnUse"
       id="clipPath2">
      <path
         d="M 0,0 H 1068 V 905 H 0 Z"
         transform="scale(0.31999999)"
         clip-rule="evenodd"
         id="path2" />
    </clipPath>
    <clipPath
       clipPathUnits="userSpaceOnUse"
       id="clipPath4">
      <path
         d="m 3.125,3.125 h 1062.5 v 900 H 3.125 Z"
         transform="matrix(0.33759468,0,0,0.33759468,78.880812,676.89006)"
         clip-rule="evenodd"
         id="path4" />
    </clipPath>
    <clipPath
       clipPathUnits="userSpaceOnUse"
       id="clipPath6">
      <path
         d="m 3.125,3.125 h 1062.5 v 900 H 3.125 Z"
         transform="matrix(0.33759468,0,0,0.33759468,78.880812,676.89006)"
         clip-rule="evenodd"
         id="path6" />
    </clipPath>
    <clipPath
       clipPathUnits="userSpaceOnUse"
       id="clipPath7">
      <path
         d="m 3.125,3.125 h 1062.5 v 900 H 3.125 Z"
         transform="matrix(0.33759468,0,0,0.33759468,-142.69732,-125.60993)"
         clip-rule="evenodd"
         id="path7" />
    </clipPath>
    <clipPath
       clipPathUnits="userSpaceOnUse"
       id="clipPath8">
      <path
         d="m 3.125,3.125 h 1062.5 v 900 H 3.125 Z"
         transform="matrix(0.33759468,0,0,0.33759468,-147.58794,-145.60993)"
         clip-rule="evenodd"
         id="path8" />
    </clipPath>
    <clipPath
       clipPathUnits="userSpaceOnUse"
       id="clipPath10">
      <path
         d="m 3.125,3.125 h 1062.5 v 900 H 3.125 Z"
         transform="matrix(0.33759468,0,0,0.33759468,78.880812,676.89006)"
         clip-rule="evenodd"
         id="path10" />
    </clipPath>
    <clipPath
       clipPathUnits="userSpaceOnUse"
       id="clipPath12">
      <path
         d="m 3.125,3.125 h 1062.5 v 900 H 3.125 Z"
         transform="matrix(0.33759468,0,0,0.33759468,78.880812,676.89006)"
         clip-rule="evenodd"
         id="path12" />
    </clipPath>
    <clipPath
       clipPathUnits="userSpaceOnUse"
       id="clipPath13">
      <path
         d="m 3.125,3.125 h 1062.5 v 900 H 3.125 Z"
         transform="matrix(0.33759468,0,0,0.33759468,-2.4316892,-127.60993)"
         clip-rule="evenodd"
         id="path13" />
    </clipPath>
    <clipPath
       clipPathUnits="userSpaceOnUse"
       id="clipPath15">
      <path
         d="m 3.125,3.125 h 1062.5 v 900 H 3.125 Z"
         transform="matrix(0.33759468,0,0,0.33759468,78.880812,676.89006)"
         clip-rule="evenodd"
         id="path15" />
    </clipPath>
    <clipPath
       clipPathUnits="userSpaceOnUse"
       id="clipPath17">
      <path
         d="m 3.125,3.125 h 1062.5 v 900 H 3.125 Z"
         transform="matrix(0.33759468,0,0,0.33759468,78.880812,676.89006)"
         clip-rule="evenodd"
         id="path17" />
    </clipPath>
    <clipPath
       clipPathUnits="userSpaceOnUse"
       id="clipPath18">
      <path
         d="m 3.125,3.125 h 1062.5 v 900 H 3.125 Z"
         transform="matrix(0.33759468,0,0,0.33759468,-2.4316892,-197.60994)"
         clip-rule="evenodd"
         id="path18" />
    </clipPath>
    <clipPath
       clipPathUnits="userSpaceOnUse"
       id="clipPath20">
      <path
         d="m 3.125,3.125 h 1062.5 v 900 H 3.125 Z"
         transform="matrix(0.33759468,0,0,0.33759468,78.880812,676.89006)"
         clip-rule="evenodd"
         id="path20" />
    </clipPath>
    <clipPath
       clipPathUnits="userSpaceOnUse"
       id="clipPath22">
      <path
         d="m 3.125,3.125 h 1062.5 v 900 H 3.125 Z"
         transform="matrix(0.33759468,0,0,0.33759468,78.880812,676.89006)"
         clip-rule="evenodd"
         id="path22" />
    </clipPath>
    <clipPath
       clipPathUnits="userSpaceOnUse"
       id="clipPath23">
      <path
         d="m 3.125,3.125 h 1062.5 v 900 H 3.125 Z"
         transform="matrix(0.33759468,0,0,0.33759468,-280.43169,-157.60993)"
         clip-rule="evenodd"
         id="path23" />
    </clipPath>
    <clipPath
       clipPathUnits="userSpaceOnUse"
       id="clipPath25">
      <path
         d="m 3.125,3.125 h 1062.5 v 900 H 3.125 Z"
         transform="matrix(0.33759468,0,0,0.33759468,78.880812,676.89006)"
         clip-rule="evenodd"
         id="path25" />
    </clipPath>
    <clipPath
       clipPathUnits="userSpaceOnUse"
       id="clipPath26">
      <path
         d="m 3.125,3.125 h 1062.5 v 900 H 3.125 Z"
         transform="matrix(0.33759468,0,0,0.33759468,-167.77544,-18.609931)"
         clip-rule="evenodd"
         id="path26" />
    </clipPath>
    <clipPath
       clipPathUnits="userSpaceOnUse"
       id="clipPath27">
      <path
         d="m 3.125,3.125 h 1062.5 v 900 H 3.125 Z"
         transform="matrix(0.33759468,0,0,0.33759468,-146.24419,-38.609931)"
         clip-rule="evenodd"
         id="path27" />
    </clipPath>
    <clipPath
       clipPathUnits="userSpaceOnUse"
       id="clipPath29">
      <path
         d="m 3.125,3.125 h 1062.5 v 900 H 3.125 Z"
         transform="matrix(0.33759468,0,0,0.33759468,78.880812,676.89006)"
         clip-rule="evenodd"
         id="path29" />
    </clipPath>
    <clipPath
       clipPathUnits="userSpaceOnUse"
       id="clipPath31">
      <path
         d="m 3.125,3.125 h 1062.5 v 900 H 3.125 Z"
         transform="matrix(0.33759468,0,0,0.33759468,78.880812,676.89006)"
         clip-rule="evenodd"
         id="path31" />
    </clipPath>
    <clipPath
       clipPathUnits="userSpaceOnUse"
       id="clipPath33">
      <path
         d="m 3.125,3.125 h 1062.5 v 900 H 3.125 Z"
         transform="matrix(0.33759468,0,0,0.33759468,78.880812,676.89006)"
         clip-rule="evenodd"
         id="path33" />
    </clipPath>
    <clipPath
       clipPathUnits="userSpaceOnUse"
       id="clipPath35">
      <path
         d="m 3.125,3.125 h 1062.5 v 900 H 3.125 Z"
         transform="matrix(0.33759468,0,0,0.33759468,78.880812,676.89006)"
         clip-rule="evenodd"
         id="path35" />
    </clipPath>
    <clipPath
       clipPathUnits="userSpaceOnUse"
       id="clipPath36">
      <path
         d="m 3.125,3.125 h 1062.5 v 900 H 3.125 Z"
         transform="matrix(0.33759468,0,0,0.33759468,-49.697314,-268.60993)"
         clip-rule="evenodd"
         id="path36" />
    </clipPath>
    <clipPath
       clipPathUnits="userSpaceOnUse"
       id="clipPath37">
      <path
         d="m 3.125,3.125 h 1062.5 v 900 H 3.125 Z"
         transform="matrix(0.33759468,0,0,0.33759468,-54.587939,-288.60993)"
         clip-rule="evenodd"
         id="path37" />
    </clipPath>
    <clipPath
       clipPathUnits="userSpaceOnUse"
       id="clipPath39">
      <path
         d="m 3.125,3.125 h 1062.5 v 900 H 3.125 Z"
         transform="matrix(0.33759468,0,0,0.33759468,78.880812,676.89006)"
         clip-rule="evenodd"
         id="path39" />
    </clipPath>
    <clipPath
       clipPathUnits="userSpaceOnUse"
       id="clipPath40">
      <path
         d="m 3.125,3.125 h 1062.5 v 900 H 3.125 Z"
         transform="matrix(0.33759468,0,0,0.33759468,-239.69732,-268.60993)"
         clip-rule="evenodd"
         id="path40" />
    </clipPath>
    <clipPath
       clipPathUnits="userSpaceOnUse"
       id="clipPath41">
      <path
         d="m 3.125,3.125 h 1062.5 v 900 H 3.125 Z"
         transform="matrix(0.33759468,0,0,0.33759468,-244.58794,-288.60993)"
         clip-rule="evenodd"
         id="path41" />
    </clipPath>
    <clipPath
       clipPathUnits="userSpaceOnUse"
       id="clipPath43">
      <path
         d="m 3.125,3.125 h 1062.5 v 900 H 3.125 Z"
         transform="matrix(0.33759468,0,0,0.33759468,78.880812,676.89006)"
         clip-rule="evenodd"
         id="path43" />
    </clipPath>
    <clipPath
       clipPathUnits="userSpaceOnUse"
       id="clipPath45">
      <path
         d="m 3.125,3.125 h 1062.5 v 900 H 3.125 Z"
         transform="matrix(0.33759468,0,0,0.33759468,78.880812,676.89006)"
         clip-rule="evenodd"
         id="path45" />
    </clipPath>
    <clipPath
       clipPathUnits="userSpaceOnUse"
       id="clipPath46">
      <path
         d="m 3.125,3.125 h 1062.5 v 900 H 3.125 Z"
         transform="matrix(0.33759468,0,0,0.33759468,-125.43169,-227.60993)"
         clip-rule="evenodd"
         id="path46" />
    </clipPath>
    <clipPath
       clipPathUnits="userSpaceOnUse"
       id="clipPath48">
      <path
         d="m 3.125,3.125 h 1062.5 v 900 H 3.125 Z"
         transform="matrix(0.33759468,0,0,0.33759468,78.880812,676.89006)"
         clip-rule="evenodd"
         id="path48" />
    </clipPath>
    <clipPath
       clipPathUnits="userSpaceOnUse"
       id="clipPath50">
      <path
         d="m 3.125,3.125 h 1062.5 v 900 H 3.125 Z"
         transform="matrix(0.33759468,0,0,0.33759468,78.880812,676.89006)"
         clip-rule="evenodd"
         id="path50" />
    </clipPath>
    <clipPath
       clipPathUnits="userSpaceOnUse"
       id="clipPath51">
      <path
         d="m 3.125,3.125 h 1062.5 v 900 H 3.125 Z"
         transform="matrix(0.33759468,0,0,0.33759468,-189.43169,-227.60993)"
         clip-rule="evenodd"
         id="path51" />
    </clipPath>
  </defs>
  <g
     id="g1">
    <path
       id="path1"
       d="M 0,0 H 342 V 290 H 0 Z"
       style="fill:#ffffff;fill-opacity:1;fill-rule:nonzero;stroke:none"
       clip-path="url(#clipPath2)" />
    <path
       id="path3"
       d="m 338,796.5 h 50"
       style="fill:none;stroke:#000000;stroke-width:1;stroke-linecap:butt;stroke-linejoin:miter;stroke-miterlimit:10;stroke-dasharray:none;stroke-opacity:1"
       transform="matrix(0.9478822,0,0,0.9478822,-74.769718,-641.61204)"
       clip-path="url(#clipPath4)" />
    <path
       id="path5"
       d="m 195.25,747 h 135.5 c 0.39395,0 0.78412,0.0385 1.1705,0.1153 0.38638,0.0768 0.76157,0.19061 1.12555,0.34137 0.36398,0.15075 0.70975,0.33557 1.03735,0.55444 0.32758,0.21893 0.63065,0.46765 0.90925,0.74621 0.27859,0.27851 0.52731,0.58155 0.74615,0.90912 0.21887,0.32758 0.40369,0.6734 0.55447,1.03736 0.15076,0.36395 0.26456,0.73919 0.3414,1.12561 0.0769,0.38641 0.1153,0.77661 0.11533,1.17059 v 108 c -3e-5,0.39392 -0.0385,0.78406 -0.11533,1.17047 -0.0768,0.38641 -0.19064,0.7616 -0.3414,1.12555 -0.15078,0.36395 -0.3356,0.70966 -0.55447,1.03723 -0.21884,0.32758 -0.46756,0.63068 -0.74615,0.9093 -0.2786,0.27857 -0.58167,0.52729 -0.90928,0.74616 -0.32757,0.21887 -0.67334,0.40369 -1.03732,0.55444 -0.36398,0.15082 -0.73917,0.26465 -1.12555,0.34149 C 331.53412,866.96155 331.14395,867 330.75,867 h -135.5 c -0.39397,0 -0.78416,-0.0385 -1.17056,-0.11536 -0.3864,-0.0768 -0.76158,-0.19067 -1.12557,-0.34149 -0.36398,-0.15075 -0.70976,-0.33557 -1.03732,-0.5545 -0.32758,-0.21881 -0.63065,-0.46753 -0.90921,-0.7461 -0.27858,-0.27862 -0.5273,-0.58172 -0.74619,-0.9093 -0.21887,-0.32757 -0.40368,-0.67334 -0.55445,-1.03729 -0.15078,-0.36395 -0.26459,-0.73914 -0.34145,-1.12555 C 189.28845,861.78406 189.24998,861.39392 189.25,861 V 753 c -2e-5,-0.39398 0.0384,-0.78418 0.11525,-1.17059 0.0769,-0.38642 0.19066,-0.76166 0.34143,-1.12561 0.15077,-0.36396 0.3356,-0.70978 0.55446,-1.03736 0.21889,-0.32757 0.46762,-0.63061 0.7462,-0.90912 0.27856,-0.27856 0.58163,-0.52728 0.90921,-0.74621 0.32756,-0.21887 0.67334,-0.40369 1.03732,-0.55444 0.36399,-0.15076 0.73918,-0.26453 1.12558,-0.34137 C 194.46585,747.0384 194.85603,747 195.25,747 Z"
       style="fill:#ffffff;fill-opacity:1;fill-rule:nonzero;stroke:#000000;stroke-width:1;stroke-linecap:butt;stroke-linejoin:miter;stroke-miterlimit:10;stroke-dasharray:none;stroke-opacity:1"
       transform="matrix(0.9478822,0,0,0.9478822,-74.769718,-641.61204)"
       clip-path="url(#clipPath6)" />
    <text
       id="text6"
       xml:space="preserve"
       transform="matrix(0.9478822,0,0,0.9478822,135.26025,119.06342)"
       clip-path="url(#clipPath7)"><tspan
         id="tspan6"
         style="font-variant:normal;font-weight:normal;font-size:16px;font-family:Arial;writing-mode:lr-tb;fill:#000000;fill-opacity:1;fill-rule:nonzero;stroke:none"
         x="0"
         y="0">«use case»</tspan></text>
    <text
       id="text7"
       xml:space="preserve"
       transform="matrix(0.9478822,0,0,0.9478822,139.89598,138.02106)"
       clip-path="url(#clipPath8)"><tspan
         id="tspan7"
         style="font-variant:normal;font-weight:normal;font-size:16px;font-family:Arial;writing-mode:lr-tb;fill:#000000;fill-opacity:1;fill-rule:nonzero;stroke:none"
         x="0"
         y="0">useCase1</tspan></text>
    <path
       id="path9"
       d="m 125,752 c -1e-5,0.66296 -0.12689,1.30072 -0.38062,1.91327 -0.25374,0.61261 -0.61502,1.15332 -1.08386,1.62219 -0.46885,0.46881 -1.00955,0.83008 -1.62211,1.08386 -0.61258,0.25373 -1.25038,0.38062 -1.91341,0.38068 -0.66305,-6e-5 -1.30087,-0.12701 -1.91344,-0.38074 -0.61257,-0.25372 -1.15327,-0.61499 -1.6221,-1.0838 -0.46885,-0.46887 -0.83014,-1.00958 -1.08388,-1.62219 C 115.12685,753.30072 114.99999,752.66296 115,752 c -1e-5,-0.66309 0.12685,-1.3009 0.38058,-1.91351 0.25374,-0.61261 0.61503,-1.15326 1.08388,-1.62207 0.46883,-0.46881 1.00954,-0.83014 1.62211,-1.08387 C 118.69914,747.12683 119.33695,747 120,747 c 0.66303,0 1.30083,0.12683 1.91341,0.38055 0.61256,0.25373 1.15326,0.61506 1.62211,1.08387 0.46884,0.46881 0.83012,1.00946 1.08386,1.62207 0.25373,0.61261 0.38061,1.25042 0.38062,1.91351 z"
       style="fill:#ffffff;fill-opacity:1;fill-rule:nonzero;stroke:#000000;stroke-width:1;stroke-linecap:butt;stroke-linejoin:miter;stroke-miterlimit:10;stroke-dasharray:none;stroke-opacity:1"
       transform="matrix(0.9478822,0,0,0.9478822,-74.769718,-641.61204)"
       clip-path="url(#clipPath10)" />
    <path
       id="path11"
       d="m 120,757 v 16.66998 m 0,-13.33996 h -10 m 10,0 h 10 M 120,773.66998 110,787 M 120,773.66998 130,787"
       style="fill:none;stroke:#000000;stroke-width:1;stroke-linecap:butt;stroke-linejoin:miter;stroke-miterlimit:10;stroke-dasharray:none;stroke-opacity:1"
       transform="matrix(0.9478822,0,0,0.9478822,-74.769718,-641.61204)"
       clip-path="url(#clipPath12)" />
    <text
       id="text12"
       xml:space="preserve"
       transform="matrix(0.9478822,0,0,0.9478822,2.3049549,120.95918)"
       clip-path="url(#clipPath13)"><tspan
         id="tspan12"
         style="font-variant:normal;font-weight:normal;font-size:12px;font-family:Arial;writing-mode:lr-tb;fill:#000000;fill-opacity:1;fill-rule:nonzero;stroke:none"
         x="0"
         dx="0 0 0 0 0 0 0 0 0 -0.66210938"
         y="0">actor1 : Actor1</tspan></text>
    <path
       id="path14"
       d="m 125,822 c -1e-5,0.66302 -0.12689,1.30078 -0.38062,1.91333 -0.25374,0.61261 -0.61502,1.15332 -1.08386,1.62219 -0.46885,0.46881 -1.00955,0.83008 -1.62211,1.0838 -0.61258,0.25373 -1.25038,0.38062 -1.91341,0.38068 -0.66305,-6e-5 -1.30087,-0.12695 -1.91344,-0.38068 -0.61257,-0.25372 -1.15327,-0.61499 -1.6221,-1.0838 -0.46885,-0.46887 -0.83014,-1.00958 -1.08388,-1.62219 C 115.12685,823.30078 114.99999,822.66302 115,822 c -1e-5,-0.66302 0.12685,-1.30084 0.38058,-1.91345 0.25374,-0.61261 0.61503,-1.15326 1.08388,-1.62207 0.46883,-0.46887 1.00954,-0.8302 1.62211,-1.08393 C 118.69914,817.12683 119.33695,817 120,817 c 0.66303,0 1.30083,0.12683 1.91341,0.38049 0.61256,0.25379 1.15326,0.61512 1.62211,1.08399 0.46884,0.46881 0.83012,1.00946 1.08386,1.62207 0.25373,0.61261 0.38061,1.25043 0.38062,1.91345 z"
       style="fill:#ffffff;fill-opacity:1;fill-rule:nonzero;stroke:#000000;stroke-width:1;stroke-linecap:butt;stroke-linejoin:miter;stroke-miterlimit:10;stroke-dasharray:none;stroke-opacity:1"
       transform="matrix(0.9478822,0,0,0.9478822,-74.769718,-641.61204)"
       clip-path="url(#clipPath15)" />
    <path
       id="path16"
       d="m 120,827 v 16.66998 m 0,-13.33996 h -10 m 10,0 h 10 M 120,843.66998 110,857 M 120,843.66998 130,857"
       style="fill:none;stroke:#000000;stroke-width:1;stroke-linecap:butt;stroke-linejoin:miter;stroke-miterlimit:10;stroke-dasharray:none;stroke-opacity:1"
       transform="matrix(0.9478822,0,0,0.9478822,-74.769718,-641.61204)"
       clip-path="url(#clipPath17)" />
    <text
       id="text17"
       xml:space="preserve"
       transform="matrix(0.9478822,0,0,0.9478822,2.3049549,187.31094)"
       clip-path="url(#clipPath18)"><tspan
         id="tspan17"
         style="font-variant:normal;font-weight:normal;font-size:12px;font-family:Arial;writing-mode:lr-tb;fill:#000000;fill-opacity:1;fill-rule:nonzero;stroke:none"
         x="0"
         dx="0 0 0 0 0 0 0 0 0 -0.66210938"
         y="0">actor2 : Actor2</tspan></text>
    <path
       id="path19"
       d="m 403,782 c -6e-5,0.66302 -0.12695,1.30078 -0.38068,1.91333 -0.25375,0.61255 -0.61502,1.15326 -1.08383,1.62213 -0.46884,0.46881 -1.00955,0.83008 -1.62213,1.0838 -0.61258,0.25373 -1.25037,0.38068 -1.91336,0.38074 -0.66306,-6e-5 -1.3009,-0.12701 -1.91348,-0.38074 -0.61258,-0.25372 -1.15329,-0.61499 -1.6221,-1.0838 -0.46885,-0.46887 -0.83014,-1.00958 -1.08387,-1.62213 C 393.1268,783.30078 392.99997,782.66302 393,782 c -3e-5,-0.66315 0.1268,-1.30096 0.38049,-1.91357 0.25376,-0.61261 0.61508,-1.15326 1.08393,-1.62207 0.46881,-0.46882 1.00952,-0.83008 1.6221,-1.08381 C 396.6991,777.12683 397.33694,777 398,777 c 0.66299,0 1.30078,0.12683 1.91336,0.38055 0.61258,0.25373 1.15329,0.61499 1.62213,1.08381 0.46881,0.46881 0.83008,1.00946 1.08383,1.62207 0.25373,0.61261 0.38062,1.25042 0.38068,1.91357 z"
       style="fill:#ffffff;fill-opacity:1;fill-rule:nonzero;stroke:#000000;stroke-width:1;stroke-linecap:butt;stroke-linejoin:miter;stroke-miterlimit:10;stroke-dasharray:none;stroke-opacity:1"
       transform="matrix(0.9478822,0,0,0.9478822,-74.769718,-641.61204)"
       clip-path="url(#clipPath20)" />
    <path
       id="path21"
       d="m 398,787 v 16.66998 m 0,-13.33996 h -10 m 10,0 h 10 M 398,803.66998 388,817 M 398,803.66998 408,817"
       style="fill:none;stroke:#000000;stroke-width:1;stroke-linecap:butt;stroke-linejoin:miter;stroke-miterlimit:10;stroke-dasharray:none;stroke-opacity:1"
       transform="matrix(0.9478822,0,0,0.9478822,-74.769718,-641.61204)"
       clip-path="url(#clipPath22)" />
    <text
       id="text22"
       xml:space="preserve"
       transform="matrix(0.9478822,0,0,0.9478822,265.81621,149.39565)"
       clip-path="url(#clipPath23)"><tspan
         id="tspan22"
         style="font-variant:normal;font-weight:normal;font-size:12px;font-family:Arial;writing-mode:lr-tb;fill:#000000;fill-opacity:1;fill-rule:nonzero;stroke:none"
         x="0"
         dx="0 0 0 0 0 0 0 0 0 -0.66210938"
         y="0">actor3 : Actor3</tspan></text>
    <path
       id="path24"
       d="m 219,680 h 88 c 0.2652,0 0.52029,0.0507 0.76532,0.15222 0.24503,0.1015 0.4613,0.24597 0.64886,0.43353 0.18754,0.1875 0.33204,0.40381 0.43354,0.64887 0.1015,0.24506 0.15225,0.50018 0.15228,0.76538 v 36 c -3e-5,0.2652 -0.0508,0.52026 -0.15228,0.76532 -0.1015,0.24506 -0.246,0.4613 -0.43354,0.64886 -0.18756,0.1875 -0.40383,0.33204 -0.64886,0.43354 C 307.52029,719.94922 307.2652,720 307,720 h -88 c -0.26523,0 -0.52036,-0.0508 -0.7654,-0.15228 -0.24502,-0.1015 -0.4613,-0.24604 -0.64883,-0.43354 -0.18755,-0.18756 -0.33206,-0.4038 -0.43355,-0.64886 C 217.05074,718.52026 216.99998,718.2652 217,718 v -36 c -2e-5,-0.2652 0.0507,-0.52032 0.15222,-0.76538 0.10149,-0.24506 0.246,-0.46137 0.43355,-0.64887 0.18753,-0.18756 0.40381,-0.33203 0.64883,-0.43353 C 218.47964,680.05072 218.73477,680 219,680 Z"
       style="fill:#ffffff;fill-opacity:1;fill-rule:nonzero;stroke:#000000;stroke-width:1;stroke-linecap:butt;stroke-linejoin:miter;stroke-miterlimit:10;stroke-dasharray:none;stroke-opacity:1"
       transform="matrix(0.9478822,0,0,0.9478822,-74.769718,-641.61204)"
       clip-path="url(#clipPath25)" />
    <text
       id="text25"
       xml:space="preserve"
       transform="matrix(0.9478822,0,0,0.9478822,159.03135,17.640022)"
       clip-path="url(#clipPath26)"><tspan
         id="tspan25"
         style="font-variant:normal;font-weight:normal;font-size:10px;font-family:Arial;writing-mode:lr-tb;fill:#000000;fill-opacity:1;fill-rule:nonzero;stroke:none"
         x="0"
         y="0">subject</tspan></text>
    <text
       id="text26"
       xml:space="preserve"
       transform="matrix(0.9478822,0,0,0.9478822,138.62226,36.597666)"
       clip-path="url(#clipPath27)"><tspan
         id="tspan26"
         style="font-variant:normal;font-weight:normal;font-size:10px;font-family:Arial;writing-mode:lr-tb;fill:#000000;fill-opacity:1;fill-rule:nonzero;stroke:none"
         x="0"
         y="0">system=system1</tspan></text>
    <path
       id="path28"
       d="m 140,766.5 h 50"
       style="fill:none;stroke:#000000;stroke-width:1;stroke-linecap:butt;stroke-linejoin:miter;stroke-miterlimit:10;stroke-dasharray:none;stroke-opacity:1"
       transform="matrix(0.9478822,0,0,0.9478822,-74.769718,-641.61204)"
       clip-path="url(#clipPath29)" />
    <path
       id="path30"
       d="m 140,836.5 h 50"
       style="fill:none;stroke:#000000;stroke-width:1;stroke-linecap:butt;stroke-linejoin:miter;stroke-miterlimit:10;stroke-dasharray:none;stroke-opacity:1"
       transform="matrix(0.9478822,0,0,0.9478822,-74.769718,-641.61204)"
       clip-path="url(#clipPath31)" />
    <path
       id="path32"
       d="m 263,747 -0.5,-27"
       style="fill:none;stroke:#000000;stroke-width:1;stroke-linecap:butt;stroke-linejoin:miter;stroke-miterlimit:10;stroke-dasharray:none;stroke-opacity:1"
       transform="matrix(0.9478822,0,0,0.9478822,-74.769718,-641.61204)"
       clip-path="url(#clipPath33)" />
    <path
       id="path34"
       d="m 113,920 h 114 c 0.39781,0 0.7805,0.0761 1.14804,0.22833 0.36752,0.15216 0.69194,0.36896 0.97327,0.65027 0.28129,0.28125 0.49806,0.60565 0.6503,0.97321 0.15223,0.36761 0.22837,0.7503 0.22839,1.14819 v 54 c -2e-5,0.39777 -0.0762,0.7804 -0.22839,1.14789 -0.15224,0.36755 -0.36901,0.69201 -0.6503,0.97333 -0.28133,0.28131 -0.60575,0.49804 -0.97328,0.65026 C 227.78049,979.92377 227.39781,979.99994 227,980 H 113 c -0.39783,-6e-5 -0.78052,-0.0763 -1.14806,-0.22858 -0.36755,-0.15216 -0.69197,-0.36889 -0.97327,-0.6502 -0.2813,-0.28132 -0.49808,-0.60578 -0.65032,-0.97333 C 110.0761,977.7804 109.99999,977.39777 110,977 v -54 c -1e-5,-0.39789 0.0761,-0.78058 0.22834,-1.14813 0.15224,-0.36762 0.36903,-0.69202 0.65033,-0.97327 0.2813,-0.28131 0.60572,-0.49811 0.97327,-0.65033 C 112.21948,920.07611 112.60217,920 113,920 Z"
       style="fill:#ffffff;fill-opacity:1;fill-rule:nonzero;stroke:#000000;stroke-width:1;stroke-linecap:butt;stroke-linejoin:miter;stroke-miterlimit:10;stroke-dasharray:none;stroke-opacity:1"
       transform="matrix(0.9478822,0,0,0.9478822,-74.769718,-641.61204)"
       clip-path="url(#clipPath35)" />
    <text
       id="text35"
       xml:space="preserve"
       transform="matrix(0.9478822,0,0,0.9478822,47.107199,254.61057)"
       clip-path="url(#clipPath36)"><tspan
         id="tspan35"
         style="font-variant:normal;font-weight:normal;font-size:16px;font-family:Arial;writing-mode:lr-tb;fill:#000000;fill-opacity:1;fill-rule:nonzero;stroke:none"
         x="0"
         y="0">«use case»</tspan></text>
    <text
       id="text36"
       xml:space="preserve"
       transform="matrix(0.9478822,0,0,0.9478822,51.742936,273.56822)"
       clip-path="url(#clipPath37)"><tspan
         id="tspan36"
         style="font-variant:normal;font-weight:normal;font-size:16px;font-family:Arial;writing-mode:lr-tb;fill:#000000;fill-opacity:1;fill-rule:nonzero;stroke:none"
         x="0"
         y="0">useCase2</tspan></text>
    <path
       id="path38"
       d="m 303,920 h 114 c 0.3978,0 0.78046,0.0761 1.14798,0.22833 0.36755,0.15216 0.69199,0.36896 0.97333,0.65027 0.28128,0.28125 0.49801,0.60565 0.65027,0.97321 0.15225,0.36761 0.22839,0.7503 0.22842,1.14819 v 54 c -3e-5,0.39777 -0.0761,0.7804 -0.22839,1.14789 -0.15226,0.36755 -0.36902,0.69201 -0.6503,0.97333 -0.28134,0.28131 -0.60578,0.49804 -0.97333,0.65026 C 417.78046,979.92377 417.3978,979.99994 417,980 H 303 c -0.39786,-6e-5 -0.78055,-0.0763 -1.1481,-0.22858 -0.36752,-0.15216 -0.69196,-0.36889 -0.97324,-0.6502 -0.28134,-0.28132 -0.49811,-0.60578 -0.65036,-0.97333 C 300.07605,977.7804 299.99997,977.39777 300,977 v -54 c -3e-5,-0.39789 0.0761,-0.78058 0.2283,-1.14813 0.15225,-0.36762 0.36902,-0.69202 0.65036,-0.97327 0.28128,-0.28131 0.60572,-0.49811 0.97324,-0.65033 C 302.21945,920.07611 302.60214,920 303,920 Z"
       style="fill:#ffffff;fill-opacity:1;fill-rule:nonzero;stroke:#000000;stroke-width:1;stroke-linecap:butt;stroke-linejoin:miter;stroke-miterlimit:10;stroke-dasharray:none;stroke-opacity:1"
       transform="matrix(0.9478822,0,0,0.9478822,-74.769718,-641.61204)"
       clip-path="url(#clipPath39)" />
    <text
       id="text39"
       xml:space="preserve"
       transform="matrix(0.9478822,0,0,0.9478822,227.20482,254.61057)"
       clip-path="url(#clipPath40)"><tspan
         id="tspan39"
         style="font-variant:normal;font-weight:normal;font-size:16px;font-family:Arial;writing-mode:lr-tb;fill:#000000;fill-opacity:1;fill-rule:nonzero;stroke:none"
         x="0"
         y="0">«use case»</tspan></text>
    <text
       id="text40"
       xml:space="preserve"
       transform="matrix(0.9478822,0,0,0.9478822,231.84055,273.56822)"
       clip-path="url(#clipPath41)"><tspan
         id="tspan40"
         style="font-variant:normal;font-weight:normal;font-size:16px;font-family:Arial;writing-mode:lr-tb;fill:#000000;fill-opacity:1;fill-rule:nonzero;stroke:none"
         x="0"
         y="0">useCase3</tspan></text>
    <path
       id="path42"
       d="m 240,867 -68.22,51.65002"
       style="fill:none;stroke:#000000;stroke-width:1;stroke-linecap:butt;stroke-linejoin:miter;stroke-miterlimit:10;stroke-dasharray:none;stroke-opacity:1"
       transform="matrix(0.9478822,0,0,0.9478822,-74.769718,-641.61204)"
       clip-path="url(#clipPath43)" />
    <path
       id="path44"
       d="m 175.35001,910.29999 -4.46001,9.03003 9.89,-1.85004"
       style="fill:none;stroke:#000000;stroke-width:1;stroke-linecap:butt;stroke-linejoin:miter;stroke-miterlimit:10;stroke-dasharray:none;stroke-opacity:1"
       transform="matrix(0.9478822,0,0,0.9478822,-74.769718,-641.61204)"
       clip-path="url(#clipPath45)" />
    <text
       id="text45"
       xml:space="preserve"
       transform="matrix(0.9478822,0,0,0.9478822,118.89447,215.7474)"
       clip-path="url(#clipPath46)"><tspan
         id="tspan45"
         style="font-variant:normal;font-weight:normal;font-size:12px;font-family:Arial;writing-mode:lr-tb;fill:#000000;fill-opacity:1;fill-rule:nonzero;stroke:none"
         x="0"
         y="0">«include»</tspan></text>
    <path
       id="path47"
       d="m 294,867 64.26001,51.59998"
       style="fill:none;stroke:#000000;stroke-width:1;stroke-linecap:butt;stroke-linejoin:miter;stroke-miterlimit:10;stroke-dasharray:none;stroke-opacity:1"
       transform="matrix(0.9478822,0,0,0.9478822,-74.769718,-641.61204)"
       clip-path="url(#clipPath48)" />
    <path
       id="path49"
       d="m 349.29001,917.16998 9.83999,2.13001 -4.20001,-9.14002"
       style="fill:none;stroke:#000000;stroke-width:1;stroke-linecap:butt;stroke-linejoin:miter;stroke-miterlimit:10;stroke-dasharray:none;stroke-opacity:1"
       transform="matrix(0.9478822,0,0,0.9478822,-74.769718,-641.61204)"
       clip-path="url(#clipPath50)" />
    <text
       id="text50"
       xml:space="preserve"
       transform="matrix(0.9478822,0,0,0.9478822,179.55893,215.7474)"
       clip-path="url(#clipPath51)"><tspan
         id="tspan50"
         style="font-variant:normal;font-weight:normal;font-size:12px;font-family:Arial;writing-mode:lr-tb;fill:#000000;fill-opacity:1;fill-rule:nonzero;stroke:none"
         x="0"
         y="0">«include»</tspan></text>
  </g>
</svg>
