<?xml version="1.0" encoding="UTF-8" standalone="no"?>
<!-- Created with Inkscape (http://www.inkscape.org/) -->

<svg
   version="1.1"
   id="svg1"
   width="204.15999"
   height="89.279999"
   viewBox="0 0 204.15999 89.279999"
   xmlns="http://www.w3.org/2000/svg"
   xmlns:svg="http://www.w3.org/2000/svg">
  <defs
     id="defs1">
    <clipPath
       clipPathUnits="userSpaceOnUse"
       id="clipPath2">
      <path
         d="M 0,0 H 639 V 279.00391 H 0 Z"
         transform="scale(0.31999999)"
         clip-rule="evenodd"
         id="path2" />
    </clipPath>
    <clipPath
       clipPathUnits="userSpaceOnUse"
       id="clipPath4">
      <path
         d="M 3.125,0 H 637.5 V 278.125 H 3.125 Z"
         transform="matrix(0.33889088,0,0,0.33889088,543.381,14435.941)"
         clip-rule="evenodd"
         id="path4" />
    </clipPath>
    <clipPath
       clipPathUnits="userSpaceOnUse"
       id="clipPath6">
      <path
         d="M 3.125,0 H 637.5 V 278.125 H 3.125 Z"
         transform="matrix(0.33889088,0,0,0.33889088,543.381,14435.941)"
         clip-rule="evenodd"
         id="path6" />
    </clipPath>
    <clipPath
       clipPathUnits="userSpaceOnUse"
       id="clipPath8">
      <path
         d="M 3.125,0 H 637.5 V 278.125 H 3.125 Z"
         transform="matrix(0.33889088,0,0,0.33889088,543.381,14435.941)"
         clip-rule="evenodd"
         id="path8" />
    </clipPath>
    <clipPath
       clipPathUnits="userSpaceOnUse"
       id="clipPath9">
      <path
         d="M 3.125,0 H 637.5 V 278.125 H 3.125 Z"
         transform="matrix(0.33889088,0,0,0.33889088,-67.697064,-23.558088)"
         clip-rule="evenodd"
         id="path9" />
    </clipPath>
    <clipPath
       clipPathUnits="userSpaceOnUse"
       id="clipPath10">
      <path
         d="M 3.125,0 H 637.5 V 278.125 H 3.125 Z"
         transform="matrix(0.33889088,0,0,0.33889088,-16.134564,-42.558087)"
         clip-rule="evenodd"
         id="path10" />
    </clipPath>
    <clipPath
       clipPathUnits="userSpaceOnUse"
       id="clipPath11">
      <path
         d="m 168.54675,160.99219 h 300.98181 v 44.26172 H 168.54675 Z"
         transform="matrix(0.33889088,0,0,0.33889088,-57.431434,-65.558087)"
         clip-rule="evenodd"
         id="path11" />
    </clipPath>
    <clipPath
       clipPathUnits="userSpaceOnUse"
       id="clipPath12">
      <path
         d="m 26.908203,220.00781 h 38.360474 v 44.26172 H 26.908203 Z"
         transform="matrix(0.33889088,0,0,0.33889088,-9.1189341,-85.558087)"
         clip-rule="evenodd"
         id="path12" />
    </clipPath>
  </defs>
  <g
     id="g1">
    <path
       id="path1"
       d="M 0,0 H 204 V 89 H 0 Z"
       style="fill:#ffffff;fill-opacity:1;fill-rule:nonzero;stroke:none"
       clip-path="url(#clipPath2)" />
    <path
       id="path3"
       d="m 756.5,14488 v -42.5 c 0,-5 -2.5,-7.5 -7.5,-7.5 H 554 c -5,0 -7.5,2.5 -7.5,7.5 v 42.5"
       style="fill:none;stroke:#000000;stroke-width:1;stroke-linecap:butt;stroke-linejoin:miter;stroke-miterlimit:10;stroke-dasharray:none;stroke-opacity:1"
       transform="matrix(0.9442567,0,0,0.9442567,-513.09115,-13631.234)"
       clip-path="url(#clipPath4)" />
    <path
       id="path5"
       d="m 546.5,14488 v 32.5 c 0,5 2.5,7.5 7.5,7.5 h 195 c 5,0 7.5,-2.5 7.5,-7.5 v -32.5"
       style="fill:none;stroke:#000000;stroke-width:1;stroke-linecap:butt;stroke-linejoin:miter;stroke-miterlimit:10;stroke-dasharray:none;stroke-opacity:1"
       transform="matrix(0.9442567,0,0,0.9442567,-513.09115,-13631.234)"
       clip-path="url(#clipPath6)" />
    <path
       id="path7"
       d="m 546.5,14488 h 210"
       style="fill:none;stroke:#000000;stroke-width:1;stroke-linecap:butt;stroke-linejoin:miter;stroke-miterlimit:10;stroke-dasharray:none;stroke-opacity:1"
       transform="matrix(0.9442567,0,0,0.9442567,-513.09115,-13631.234)"
       clip-path="url(#clipPath8)" />
    <text
       id="text8"
       xml:space="preserve"
       transform="matrix(0.9442567,0,0,0.9442567,63.923406,22.244882)"
       clip-path="url(#clipPath9)"><tspan
         id="tspan8"
         style="font-variant:normal;font-weight:normal;font-size:16px;font-family:Arial;writing-mode:lr-tb;fill:#000000;fill-opacity:1;fill-rule:nonzero;stroke:none"
         x="0"
         y="0">«use case»</tspan></text>
    <text
       id="text9"
       xml:space="preserve"
       transform="matrix(0.9442567,0,0,0.9442567,15.23517,40.185759)"
       clip-path="url(#clipPath10)"><tspan
         id="tspan9"
         style="font-variant:normal;font-weight:normal;font-size:16px;font-family:Arial;writing-mode:lr-tb;fill:#000000;fill-opacity:1;fill-rule:nonzero;stroke:none"
         x="0"
         y="0">useCase1 : UseCaseDef1</tspan></text>
    <text
       id="text10"
       xml:space="preserve"
       transform="matrix(0.9442567,0,0,0.9442567,54.230016,61.903663)"
       clip-path="url(#clipPath11)"><tspan
         id="tspan10"
         style="font-style:italic;font-variant:normal;font-weight:normal;font-size:12px;font-family:Arial;writing-mode:lr-tb;fill:#000000;fill-opacity:1;fill-rule:nonzero;stroke:none"
         x="0"
         y="0">compartment stack</tspan></text>
    <text
       id="text11"
       xml:space="preserve"
       transform="matrix(0.9442567,0,0,0.9442567,8.6106146,80.788797)"
       clip-path="url(#clipPath12)"><tspan
         id="tspan11"
         style="font-variant:normal;font-weight:normal;font-size:12px;font-family:Arial;writing-mode:lr-tb;fill:#000000;fill-opacity:1;fill-rule:nonzero;stroke:none"
         x="0"
         y="0">•••</tspan></text>
  </g>
</svg>
