<?xml version="1.0" encoding="UTF-8" standalone="no"?>
<!-- Created with Inkscape (http://www.inkscape.org/) -->

<svg
   version="1.1"
   id="svg1"
   width="214.71999"
   height="176"
   viewBox="0 0 214.71999 176"
   xmlns="http://www.w3.org/2000/svg"
   xmlns:svg="http://www.w3.org/2000/svg">
  <defs
     id="defs1">
    <clipPath
       clipPathUnits="userSpaceOnUse"
       id="clipPath2">
      <path
         d="M 0,0 H 668.99414 V 549.02344 H 0 Z"
         transform="scale(0.31999999)"
         clip-rule="evenodd"
         id="path2" />
    </clipPath>
    <clipPath
       clipPathUnits="userSpaceOnUse"
       id="clipPath4">
      <path
         d="m 3.125,0 h 662.5 V 549.02344 H 3.125 Z"
         transform="matrix(0.33862677,0,0,0.33862677,38.881128,14216.44)"
         clip-rule="evenodd"
         id="path4" />
    </clipPath>
    <clipPath
       clipPathUnits="userSpaceOnUse"
       id="clipPath6">
      <path
         d="m 3.125,0 h 662.5 V 549.02344 H 3.125 Z"
         transform="matrix(0.33862677,0,0,0.33862677,38.881128,14216.44)"
         clip-rule="evenodd"
         id="path6" />
    </clipPath>
    <clipPath
       clipPathUnits="userSpaceOnUse"
       id="clipPath8">
      <path
         d="m 3.125,0 h 662.5 V 549.02344 H 3.125 Z"
         transform="matrix(0.33862677,0,0,0.33862677,38.881128,14216.44)"
         clip-rule="evenodd"
         id="path8" />
    </clipPath>
    <clipPath
       clipPathUnits="userSpaceOnUse"
       id="clipPath9">
      <path
         d="m 3.125,0 h 662.5 V 549.02344 H 3.125 Z"
         transform="matrix(0.33862677,0,0,0.33862677,-58.853248,-24.059166)"
         clip-rule="evenodd"
         id="path9" />
    </clipPath>
    <clipPath
       clipPathUnits="userSpaceOnUse"
       id="clipPath10">
      <path
         d="m 3.125,0 h 662.5 V 549.02344 H 3.125 Z"
         transform="matrix(0.33862677,0,0,0.33862677,-63.306373,-43.059166)"
         clip-rule="evenodd"
         id="path10" />
    </clipPath>
    <clipPath
       clipPathUnits="userSpaceOnUse"
       id="clipPath11">
      <path
         d="M 19.546219,162.59375 H 645.6042 v 59.0625 H 19.546219 Z"
         transform="matrix(0.31999999,0,0,0.31999999,-88.456982,-65.728821)"
         clip-rule="evenodd"
         id="path11" />
    </clipPath>
    <clipPath
       clipPathUnits="userSpaceOnUse"
       id="clipPath12">
      <path
         d="M 19.546219,221.65625 H 645.6042 v 70.875 H 19.546219 Z"
         transform="matrix(0.31999999,0,0,0.31999999,-8.14448,-86.510122)"
         clip-rule="evenodd"
         id="path12" />
    </clipPath>
    <clipPath
       clipPathUnits="userSpaceOnUse"
       id="clipPath14">
      <path
         d="m 3.125,0 h 662.5 V 549.02344 H 3.125 Z"
         transform="matrix(0.33862677,0,0,0.33862677,38.881128,14216.44)"
         clip-rule="evenodd"
         id="path14" />
    </clipPath>
    <clipPath
       clipPathUnits="userSpaceOnUse"
       id="clipPath15">
      <path
         d="M 19.546219,304.34375 H 645.6042 v 59.0625 H 19.546219 Z"
         transform="matrix(0.31999999,0,0,0.31999999,-84.050732,-111.08822)"
         clip-rule="evenodd"
         id="path15" />
    </clipPath>
    <clipPath
       clipPathUnits="userSpaceOnUse"
       id="clipPath16">
      <path
         d="M 25.452423,372.26563 H 601.30764 V 416.5625 H 25.452423 Z"
         transform="matrix(0.33862677,0,0,0.33862677,-8.6188732,-137.05917)"
         clip-rule="evenodd"
         id="path16" />
    </clipPath>
    <clipPath
       clipPathUnits="userSpaceOnUse"
       id="clipPath17">
      <path
         d="M 25.452423,372.26563 H 601.30764 V 416.5625 H 25.452423 Z"
         transform="matrix(0.33862677,0,0,0.33862677,-29.962624,-137.05917)"
         clip-rule="evenodd"
         id="path17" />
    </clipPath>
    <clipPath
       clipPathUnits="userSpaceOnUse"
       id="clipPath18">
      <path
         d="M 25.452423,431.32813 H 365.05938 V 475.625 H 25.452423 Z"
         transform="matrix(0.33862677,0,0,0.33862677,-8.6188732,-157.05917)"
         clip-rule="evenodd"
         id="path18" />
    </clipPath>
    <clipPath
       clipPathUnits="userSpaceOnUse"
       id="clipPath19">
      <path
         d="M 25.452423,431.32813 H 365.05938 V 475.625 H 25.452423 Z"
         transform="matrix(0.33862677,0,0,0.33862677,-49.306373,-157.05917)"
         clip-rule="evenodd"
         id="path19" />
    </clipPath>
    <clipPath
       clipPathUnits="userSpaceOnUse"
       id="clipPath20">
      <path
         d="M 19.546219,481.53125 H 645.6042 v 59.0625 H 19.546219 Z"
         transform="matrix(0.31999999,0,0,0.31999999,-8.14448,-167.79132)"
         clip-rule="evenodd"
         id="path20" />
    </clipPath>
  </defs>
  <g
     id="g1">
    <path
       id="path1"
       d="M 0,0 H 214 V 176 H 0 Z"
       style="fill:#ffffff;fill-opacity:1;fill-rule:nonzero;stroke:none"
       clip-path="url(#clipPath2)" />
    <path
       id="path3"
       d="m 42,14271.5 v -53 h 220 v 53"
       style="fill:none;stroke:#000000;stroke-width:1;stroke-linecap:butt;stroke-linejoin:miter;stroke-miterlimit:10;stroke-dasharray:none;stroke-opacity:1"
       transform="matrix(0.94499318,0,0,0.94499318,-36.742401,-13434.439)"
       clip-path="url(#clipPath4)" />
    <path
       id="path5"
       d="m 42,14271.5 v 128 h 220 v -128"
       style="fill:none;stroke:#000000;stroke-width:1;stroke-linecap:butt;stroke-linejoin:miter;stroke-miterlimit:10;stroke-dasharray:none;stroke-opacity:1"
       transform="matrix(0.94499318,0,0,0.94499318,-36.742401,-13434.439)"
       clip-path="url(#clipPath6)" />
    <path
       id="path7"
       d="M 42,14271.5 H 262"
       style="fill:none;stroke:#000000;stroke-width:1;stroke-linecap:butt;stroke-linejoin:miter;stroke-miterlimit:10;stroke-dasharray:none;stroke-opacity:1"
       transform="matrix(0.94499318,0,0,0.94499318,-36.742401,-13434.439)"
       clip-path="url(#clipPath8)" />
    <text
       id="text8"
       xml:space="preserve"
       transform="matrix(0.94499318,0,0,0.94499318,55.615918,22.735748)"
       clip-path="url(#clipPath9)"><tspan
         id="tspan8"
         style="font-variant:normal;font-weight:normal;font-size:16px;font-family:Arial;writing-mode:lr-tb;fill:#000000;fill-opacity:1;fill-rule:nonzero;stroke:none"
         x="0"
         y="0">«use case def»</tspan></text>
    <text
       id="text9"
       xml:space="preserve"
       transform="matrix(0.94499318,0,0,0.94499318,59.824091,40.690618)"
       clip-path="url(#clipPath10)"><tspan
         id="tspan9"
         style="font-variant:normal;font-weight:normal;font-size:16px;font-family:Arial;writing-mode:lr-tb;fill:#000000;fill-opacity:1;fill-rule:nonzero;stroke:none"
         x="0"
         y="0">UseCaseDef1</tspan></text>
    <text
       id="text10"
       xml:space="preserve"
       transform="translate(88.456982,65.728821)"
       clip-path="url(#clipPath11)"><tspan
         id="tspan10"
         style="font-style:italic;font-variant:normal;font-weight:normal;font-size:11.33px;font-family:Arial;writing-mode:lr-tb;fill:#000000;fill-opacity:1;fill-rule:nonzero;stroke:none"
         x="0"
         y="0">subject</tspan></text>
    <text
       id="text11"
       xml:space="preserve"
       transform="translate(8.14448,86.510122)"
       clip-path="url(#clipPath12)"><tspan
         id="tspan11"
         style="font-variant:normal;font-weight:normal;font-size:11.33px;font-family:Arial;writing-mode:lr-tb;fill:#000000;fill-opacity:1;fill-rule:nonzero;stroke:none"
         x="0"
         y="0">s1 : Subject1</tspan></text>
    <path
       id="path13"
       d="M 42,14317.5 H 262"
       style="fill:none;stroke:#000000;stroke-width:1;stroke-linecap:butt;stroke-linejoin:miter;stroke-miterlimit:10;stroke-dasharray:none;stroke-opacity:1"
       transform="matrix(0.94499318,0,0,0.94499318,-36.742401,-13434.439)"
       clip-path="url(#clipPath14)" />
    <text
       id="text14"
       xml:space="preserve"
       transform="translate(84.050732,111.08822)"
       clip-path="url(#clipPath15)"><tspan
         id="tspan14"
         style="font-style:italic;font-variant:normal;font-weight:normal;font-size:11.33px;font-family:Arial;writing-mode:lr-tb;fill:#000000;fill-opacity:1;fill-rule:nonzero;stroke:none"
         x="0"
         y="0">objective</tspan></text>
    <text
       id="text15"
       xml:space="preserve"
       transform="matrix(0.94499318,0,0,0.94499318,8.1447764,129.51998)"
       clip-path="url(#clipPath16)"><tspan
         id="tspan15"
         style="font-variant:normal;font-weight:700;font-size:12px;font-family:Arial;writing-mode:lr-tb;fill:#000000;fill-opacity:1;fill-rule:nonzero;stroke:none"
         x="0"
         y="0">doc</tspan></text>
    <g
       id="g16" />
    <text
       id="text16"
       xml:space="preserve"
       transform="matrix(0.94499318,0,0,0.94499318,28.314475,129.51998)"
       clip-path="url(#clipPath17)"><tspan
         id="tspan16"
         style="font-variant:normal;font-weight:normal;font-size:12px;font-family:Arial;writing-mode:lr-tb;fill:#000000;fill-opacity:1;fill-rule:nonzero;stroke:none"
         x="0"
         dx="0 -0.21679686"
         y="0"> This is the objective description.</tspan></text>
    <text
       id="text17"
       xml:space="preserve"
       transform="matrix(0.94499318,0,0,0.94499318,8.1447764,148.41984)"
       clip-path="url(#clipPath18)"><tspan
         id="tspan17"
         style="font-variant:normal;font-weight:700;font-size:12px;font-family:Arial;writing-mode:lr-tb;fill:#000000;fill-opacity:1;fill-rule:nonzero;stroke:none"
         x="0"
         y="0">require</tspan></text>
    <text
       id="text18"
       xml:space="preserve"
       transform="matrix(0.94499318,0,0,0.94499318,46.594186,148.41984)"
       clip-path="url(#clipPath19)"><tspan
         id="tspan18"
         style="font-variant:normal;font-weight:normal;font-size:12px;font-family:Arial;writing-mode:lr-tb;fill:#000000;fill-opacity:1;fill-rule:nonzero;stroke:none"
         x="0"
         y="0"> requirement1</tspan></text>
    <text
       id="text19"
       xml:space="preserve"
       transform="translate(8.14448,167.79132)"
       clip-path="url(#clipPath20)"><tspan
         id="tspan19"
         style="font-variant:normal;font-weight:normal;font-size:11.33px;font-family:Arial;writing-mode:lr-tb;fill:#000000;fill-opacity:1;fill-rule:nonzero;stroke:none"
         x="0"
         y="0">•••</tspan></text>
  </g>
</svg>
