<?xml version="1.0" encoding="UTF-8" standalone="no"?>
<!-- Created with Inkscape (http://www.inkscape.org/) -->

<svg
   version="1.1"
   id="svg1"
   width="539.84003"
   height="118.72"
   viewBox="0 0 539.84003 118.72"
   xmlns="http://www.w3.org/2000/svg"
   xmlns:svg="http://www.w3.org/2000/svg">
  <defs
     id="defs1">
    <clipPath
       clipPathUnits="userSpaceOnUse"
       id="clipPath2">
      <path
         d="M 0,0 H 1688 V 368.99414 H 0 Z"
         transform="scale(0.31999999)"
         clip-rule="evenodd"
         id="path2" />
    </clipPath>
    <clipPath
       clipPathUnits="userSpaceOnUse"
       id="clipPath4">
      <path
         d="M 3.125,0 H 1687.5 V 368.75 H 3.125 Z"
         transform="matrix(0.33544592,0,0,0.33544592,36.873548,517.95176)"
         clip-rule="evenodd"
         id="path4" />
    </clipPath>
    <clipPath
       clipPathUnits="userSpaceOnUse"
       id="clipPath6">
      <path
         d="M 3.125,0 H 1687.5 V 368.75 H 3.125 Z"
         transform="matrix(0.33544592,0,0,0.33544592,36.873548,517.95176)"
         clip-rule="evenodd"
         id="path6" />
    </clipPath>
    <clipPath
       clipPathUnits="userSpaceOnUse"
       id="clipPath8">
      <path
         d="M 3.125,0 H 1687.5 V 368.75 H 3.125 Z"
         transform="matrix(0.33544592,0,0,0.33544592,36.873548,517.95176)"
         clip-rule="evenodd"
         id="path8" />
    </clipPath>
    <clipPath
       clipPathUnits="userSpaceOnUse"
       id="clipPath10">
      <path
         d="M 3.125,0 H 1687.5 V 368.75 H 3.125 Z"
         transform="matrix(0.33544592,0,0,0.33544592,36.873548,517.95176)"
         clip-rule="evenodd"
         id="path10" />
    </clipPath>
    <clipPath
       clipPathUnits="userSpaceOnUse"
       id="clipPath12">
      <path
         d="M 3.125,0 H 1687.5 V 368.75 H 3.125 Z"
         transform="matrix(0.33544592,0,0,0.33544592,36.873548,517.95176)"
         clip-rule="evenodd"
         id="path12" />
    </clipPath>
    <clipPath
       clipPathUnits="userSpaceOnUse"
       id="clipPath14">
      <path
         d="M 3.125,0 H 1687.5 V 368.75 H 3.125 Z"
         transform="matrix(0.33544592,0,0,0.33544592,36.873548,517.95176)"
         clip-rule="evenodd"
         id="path14" />
    </clipPath>
    <clipPath
       clipPathUnits="userSpaceOnUse"
       id="clipPath16">
      <path
         d="M 3.125,0 H 1687.5 V 368.75 H 3.125 Z"
         transform="matrix(0.33544592,0,0,0.33544592,36.873548,517.95176)"
         clip-rule="evenodd"
         id="path16" />
    </clipPath>
    <clipPath
       clipPathUnits="userSpaceOnUse"
       id="clipPath18">
      <path
         d="M 3.125,0 H 1687.5 V 368.75 H 3.125 Z"
         transform="matrix(0.33544592,0,0,0.33544592,36.873548,517.95176)"
         clip-rule="evenodd"
         id="path18" />
    </clipPath>
    <clipPath
       clipPathUnits="userSpaceOnUse"
       id="clipPath20">
      <path
         d="M 3.125,0 H 1687.5 V 368.75 H 3.125 Z"
         transform="matrix(0.33544592,0,0,0.33544592,36.873548,517.95176)"
         clip-rule="evenodd"
         id="path20" />
    </clipPath>
    <clipPath
       clipPathUnits="userSpaceOnUse"
       id="clipPath22">
      <path
         d="M 3.125,0 H 1687.5 V 368.75 H 3.125 Z"
         transform="matrix(0.33544592,0,0,0.33544592,36.873548,517.95176)"
         clip-rule="evenodd"
         id="path22" />
    </clipPath>
    <clipPath
       clipPathUnits="userSpaceOnUse"
       id="clipPath24">
      <path
         d="M 3.125,0 H 1687.5 V 368.75 H 3.125 Z"
         transform="matrix(0.33544592,0,0,0.33544592,36.873548,517.95176)"
         clip-rule="evenodd"
         id="path24" />
    </clipPath>
    <clipPath
       clipPathUnits="userSpaceOnUse"
       id="clipPath25">
      <path
         d="m 73.414085,100.01099 h 20.867752 v 44.71655 H 73.414085 Z"
         transform="matrix(0.33544592,0,0,0.33544592,-24.782707,-44.548274)"
         clip-rule="evenodd"
         id="path25" />
    </clipPath>
    <clipPath
       clipPathUnits="userSpaceOnUse"
       id="clipPath26">
      <path
         d="m 159.86618,100.01099 h 318.97839 v 44.71655 H 159.86618 Z"
         transform="matrix(0.33544592,0,0,0.33544592,-53.423332,-44.548274)"
         clip-rule="evenodd"
         id="path26" />
    </clipPath>
    <clipPath
       clipPathUnits="userSpaceOnUse"
       id="clipPath27">
      <path
         d="m 538.46674,100.01099 h 318.97839 v 44.71655 H 538.46674 Z"
         transform="matrix(0.33544592,0,0,0.33544592,-180.42334,-44.548274)"
         clip-rule="evenodd"
         id="path27" />
    </clipPath>
    <clipPath
       clipPathUnits="userSpaceOnUse"
       id="clipPath28">
      <path
         d="m 914.08612,100.01099 h 318.97828 v 44.71655 H 914.08612 Z"
         transform="matrix(0.33544592,0,0,0.33544592,-306.42334,-44.548274)"
         clip-rule="evenodd"
         id="path28" />
    </clipPath>
    <clipPath
       clipPathUnits="userSpaceOnUse"
       id="clipPath29">
      <path
         d="m 1358.271,100.01099 h 190.7908 v 44.71655 H 1358.271 Z"
         transform="matrix(0.33544592,0,0,0.33544592,-455.93896,-44.548274)"
         clip-rule="evenodd"
         id="path29" />
    </clipPath>
    <clipPath
       clipPathUnits="userSpaceOnUse"
       id="clipPath30">
      <path
         d="m 73.414085,159.63306 h 20.867752 v 44.71667 H 73.414085 Z"
         transform="matrix(0.33544592,0,0,0.33544592,-24.782707,-64.548274)"
         clip-rule="evenodd"
         id="path30" />
    </clipPath>
    <clipPath
       clipPathUnits="userSpaceOnUse"
       id="clipPath31">
      <path
         d="m 136.01733,159.63306 h 313.01614 v 44.71667 H 136.01733 Z"
         transform="matrix(0.33544592,0,0,0.33544592,-45.626457,-64.548274)"
         clip-rule="evenodd"
         id="path31" />
    </clipPath>
    <clipPath
       clipPathUnits="userSpaceOnUse"
       id="clipPath32">
      <path
         d="m 1265.8567,159.63306 h 152.0364 v 44.71667 h -152.0364 z"
         transform="matrix(0.33544592,0,0,0.33544592,-424.62645,-64.548274)"
         clip-rule="evenodd"
         id="path32" />
    </clipPath>
    <clipPath
       clipPathUnits="userSpaceOnUse"
       id="clipPath33">
      <path
         d="M 73.414085,219.25525 H 94.281837 V 263.9718 H 73.414085 Z"
         transform="matrix(0.33544592,0,0,0.33544592,-24.782707,-84.548274)"
         clip-rule="evenodd"
         id="path33" />
    </clipPath>
    <clipPath
       clipPathUnits="userSpaceOnUse"
       id="clipPath34">
      <path
         d="M 514.61786,219.25525 H 720.31421 V 263.9718 H 514.61786 Z"
         transform="matrix(0.33544592,0,0,0.33544592,-172.62646,-84.548274)"
         clip-rule="evenodd"
         id="path34" />
    </clipPath>
    <clipPath
       clipPathUnits="userSpaceOnUse"
       id="clipPath35">
      <path
         d="M 893.21838,219.25525 H 1054.1981 V 263.9718 H 893.21838 Z"
         transform="matrix(0.33544592,0,0,0.33544592,-299.62646,-84.548274)"
         clip-rule="evenodd"
         id="path35" />
    </clipPath>
    <clipPath
       clipPathUnits="userSpaceOnUse"
       id="clipPath36">
      <path
         d="m 1265.8567,219.25525 h 247.4318 v 44.71655 h -247.4318 z"
         transform="matrix(0.33544592,0,0,0.33544592,-424.62645,-84.548274)"
         clip-rule="evenodd"
         id="path36" />
    </clipPath>
    <clipPath
       clipPathUnits="userSpaceOnUse"
       id="clipPath37">
      <path
         d="m 73.414085,278.87732 h 20.867752 v 44.71667 H 73.414085 Z"
         transform="matrix(0.33544592,0,0,0.33544592,-24.782707,-104.54827)"
         clip-rule="evenodd"
         id="path37" />
    </clipPath>
    <clipPath
       clipPathUnits="userSpaceOnUse"
       id="clipPath38">
      <path
         d="m 514.61786,278.87732 h 277.24292 v 44.71667 H 514.61786 Z"
         transform="matrix(0.33544592,0,0,0.33544592,-172.62646,-104.54827)"
         clip-rule="evenodd"
         id="path38" />
    </clipPath>
    <clipPath
       clipPathUnits="userSpaceOnUse"
       id="clipPath39">
      <path
         d="m 893.21838,278.87732 h 283.20512 v 44.71667 H 893.21838 Z"
         transform="matrix(0.33544592,0,0,0.33544592,-299.62646,-104.54827)"
         clip-rule="evenodd"
         id="path39" />
    </clipPath>
    <clipPath
       clipPathUnits="userSpaceOnUse"
       id="clipPath40">
      <path
         d="m 1265.8567,278.87732 h 366.676 v 44.71667 h -366.676 z"
         transform="matrix(0.33544592,0,0,0.33544592,-424.62645,-104.54827)"
         clip-rule="evenodd"
         id="path40" />
    </clipPath>
    <linearGradient
       x1="0"
       y1="0"
       x2="0"
       y2="1"
       gradientUnits="userSpaceOnUse"
       gradientTransform="matrix(370.00002,0,0,20,40.000001,520)"
       spreadMethod="pad"
       id="linearGradient42">
      <stop
         style="stop-opacity:1;stop-color:#ffffff"
         offset="0"
         id="stop41" />
      <stop
         style="stop-opacity:1;stop-color:#ffffff"
         offset="1"
         id="stop42" />
    </linearGradient>
    <clipPath
       clipPathUnits="userSpaceOnUse"
       id="clipPath42">
      <path
         d="M 3.125,0 H 1687.5 V 368.75 H 3.125 Z"
         transform="matrix(0.33544592,0,0,0.33544592,36.873548,517.95176)"
         clip-rule="evenodd"
         id="path42" />
    </clipPath>
    <clipPath
       clipPathUnits="userSpaceOnUse"
       id="clipPath43">
      <path
         d="M 3.125,0 H 1687.5 V 368.75 H 3.125 Z"
         transform="matrix(0.31999999,0,0,0.31999999,-4.4098531,-15.780207)"
         clip-rule="evenodd"
         id="path43" />
    </clipPath>
  </defs>
  <g
     id="g1">
    <path
       id="path1"
       d="M 0,0 H 540 V 118 H 0 Z"
       style="fill:#ffffff;fill-opacity:1;fill-rule:nonzero;stroke:none"
       clip-path="url(#clipPath2)" />
    <path
       id="path3"
       d="m 45,520 h 550 c 0.66302,0 1.30078,0.12683 1.91333,0.38055 0.61261,0.25373 1.15332,0.61506 1.62213,1.08393 0.46881,0.46881 0.83014,1.00946 1.08386,1.62207 0.25373,0.61255 0.38062,1.25036 0.38068,1.91345 v 110 c -6e-5,0.66302 -0.12695,1.30078 -0.38068,1.91339 -0.25372,0.61255 -0.61505,1.15326 -1.08386,1.62213 -0.46881,0.46881 -1.00952,0.83002 -1.62213,1.08374 C 596.30078,639.87305 595.66302,639.99994 595,640 H 45 c -0.663044,-6e-5 -1.30085,-0.12695 -1.913425,-0.38074 -0.612568,-0.25372 -1.153275,-0.61493 -1.622113,-1.08374 -0.468845,-0.46887 -0.830131,-1.00958 -1.083866,-1.62213 C 40.126862,636.30078 39.999996,635.66302 40,635 V 525 c -4e-6,-0.66309 0.126862,-1.3009 0.380596,-1.91351 0.253735,-0.61255 0.615021,-1.1532 1.083866,-1.62201 0.468838,-0.46887 1.009545,-0.8302 1.622113,-1.08393 C 43.69915,520.12683 44.336956,520 45,520 Z"
       style="fill:#ffffff;fill-opacity:1;fill-rule:nonzero;stroke:#000000;stroke-width:1;stroke-linecap:butt;stroke-linejoin:miter;stroke-miterlimit:10;stroke-dasharray:none;stroke-opacity:1"
       transform="matrix(0.95395404,0,0,0.95395404,-35.17567,-494.10217)"
       clip-path="url(#clipPath4)" />
    <path
       id="path5"
       d="m 50,548.5 h 540 v 80 H 50 Z"
       style="fill:#ffffff;fill-opacity:1;fill-rule:nonzero;stroke:none"
       transform="matrix(0.95395404,0,0,0.95395404,-35.17567,-494.10217)"
       clip-path="url(#clipPath6)" />
    <path
       id="path7"
       d="m 50,548.5 h 540 v 80 H 50 v -80"
       style="fill:none;stroke:#000000;stroke-width:1;stroke-linecap:butt;stroke-linejoin:miter;stroke-miterlimit:10;stroke-dasharray:none;stroke-opacity:1"
       transform="matrix(0.95395404,0,0,0.95395404,-35.17567,-494.10217)"
       clip-path="url(#clipPath8)" />
    <path
       id="path9"
       d="M 50,568.5 H 81 208 335 460 590"
       style="fill:none;stroke:#000000;stroke-width:1;stroke-linecap:butt;stroke-linejoin:miter;stroke-miterlimit:10;stroke-dasharray:none;stroke-opacity:1"
       transform="matrix(0.95395404,0,0,0.95395404,-35.17567,-494.10217)"
       clip-path="url(#clipPath10)" />
    <path
       id="path11"
       d="M 50,588.5 H 81 208 335 460 590"
       style="fill:none;stroke:#000000;stroke-width:1;stroke-linecap:butt;stroke-linejoin:miter;stroke-miterlimit:10;stroke-dasharray:none;stroke-opacity:1"
       transform="matrix(0.95395404,0,0,0.95395404,-35.17567,-494.10217)"
       clip-path="url(#clipPath12)" />
    <path
       id="path13"
       d="M 50,608.5 H 81 208 335 460 590"
       style="fill:none;stroke:#000000;stroke-width:1;stroke-linecap:butt;stroke-linejoin:miter;stroke-miterlimit:10;stroke-dasharray:none;stroke-opacity:1"
       transform="matrix(0.95395404,0,0,0.95395404,-35.17567,-494.10217)"
       clip-path="url(#clipPath14)" />
    <path
       id="path15"
       d="m 81,548.5 v 20 20 20 20"
       style="fill:none;stroke:#000000;stroke-width:1;stroke-linecap:butt;stroke-linejoin:miter;stroke-miterlimit:10;stroke-dasharray:none;stroke-opacity:1"
       transform="matrix(0.95395404,0,0,0.95395404,-35.17567,-494.10217)"
       clip-path="url(#clipPath16)" />
    <path
       id="path17"
       d="m 208,548.5 v 20 20 20 20"
       style="fill:none;stroke:#000000;stroke-width:1;stroke-linecap:butt;stroke-linejoin:miter;stroke-miterlimit:10;stroke-dasharray:none;stroke-opacity:1"
       transform="matrix(0.95395404,0,0,0.95395404,-35.17567,-494.10217)"
       clip-path="url(#clipPath18)" />
    <path
       id="path19"
       d="m 335,548.5 v 20 20 20 20"
       style="fill:none;stroke:#000000;stroke-width:1;stroke-linecap:butt;stroke-linejoin:miter;stroke-miterlimit:10;stroke-dasharray:none;stroke-opacity:1"
       transform="matrix(0.95395404,0,0,0.95395404,-35.17567,-494.10217)"
       clip-path="url(#clipPath20)" />
    <path
       id="path21"
       d="m 460,548.5 v 20 20 20 20"
       style="fill:none;stroke:#000000;stroke-width:1;stroke-linecap:butt;stroke-linejoin:miter;stroke-miterlimit:10;stroke-dasharray:none;stroke-opacity:1"
       transform="matrix(0.95395404,0,0,0.95395404,-35.17567,-494.10217)"
       clip-path="url(#clipPath22)" />
    <path
       id="path23"
       d="m 50,548.5 h 540 v 20 H 50 Z"
       style="fill:#b3b3b3;fill-opacity:0.3;fill-rule:nonzero;stroke:none"
       transform="matrix(0.95395404,0,0,0.95395404,-35.17567,-494.10217)"
       clip-path="url(#clipPath24)" />
    <text
       id="text24"
       xml:space="preserve"
       transform="matrix(0.95395404,0,0,0.95395404,23.641563,42.497006)"
       clip-path="url(#clipPath25)"><tspan
         id="tspan24"
         style="font-variant:normal;font-weight:normal;font-size:12px;font-family:Arial;writing-mode:lr-tb;fill:#000000;fill-opacity:1;fill-rule:nonzero;stroke:none"
         x="0"
         y="0">#</tspan></text>
    <text
       id="text25"
       xml:space="preserve"
       transform="matrix(0.95395404,0,0,0.95395404,50.963403,42.497006)"
       clip-path="url(#clipPath26)"><tspan
         id="tspan25"
         style="font-variant:normal;font-weight:normal;font-size:12px;font-family:Arial;writing-mode:lr-tb;fill:#000000;fill-opacity:1;fill-rule:nonzero;stroke:none"
         x="0"
         y="0">Specification-Level0</tspan></text>
    <text
       id="text26"
       xml:space="preserve"
       transform="matrix(0.95395404,0,0,0.95395404,172.11557,42.497006)"
       clip-path="url(#clipPath27)"><tspan
         id="tspan26"
         style="font-variant:normal;font-weight:normal;font-size:12px;font-family:Arial;writing-mode:lr-tb;fill:#000000;fill-opacity:1;fill-rule:nonzero;stroke:none"
         x="0"
         y="0">Specification-Level1</tspan></text>
    <text
       id="text27"
       xml:space="preserve"
       transform="matrix(0.95395404,0,0,0.95395404,292.31378,42.497006)"
       clip-path="url(#clipPath28)"><tspan
         id="tspan27"
         style="font-variant:normal;font-weight:normal;font-size:12px;font-family:Arial;writing-mode:lr-tb;fill:#000000;fill-opacity:1;fill-rule:nonzero;stroke:none"
         x="0"
         y="0">Specification-Level2</tspan></text>
    <text
       id="text28"
       xml:space="preserve"
       transform="matrix(0.95395404,0,0,0.95395404,434.94481,42.497006)"
       clip-path="url(#clipPath29)"><tspan
         id="tspan28"
         style="font-variant:normal;font-weight:normal;font-size:12px;font-family:Arial;writing-mode:lr-tb;fill:#000000;fill-opacity:1;fill-rule:nonzero;stroke:none"
         x="0"
         y="0">Satisfied By</tspan></text>
    <text
       id="text29"
       xml:space="preserve"
       transform="matrix(0.95395404,0,0,0.95395404,23.641563,61.576087)"
       clip-path="url(#clipPath30)"><tspan
         id="tspan29"
         style="font-variant:normal;font-weight:normal;font-size:12px;font-family:Arial;writing-mode:lr-tb;fill:#000000;fill-opacity:1;fill-rule:nonzero;stroke:none"
         x="0"
         y="0">1</tspan></text>
    <text
       id="text30"
       xml:space="preserve"
       transform="matrix(0.95395404,0,0,0.95395404,43.525543,61.576087)"
       clip-path="url(#clipPath31)"><tspan
         id="tspan30"
         style="font-variant:normal;font-weight:normal;font-size:12px;font-family:Arial;writing-mode:lr-tb;fill:#000000;fill-opacity:1;fill-rule:nonzero;stroke:none"
         x="0"
         y="0">vehicleSpecification</tspan></text>
    <text
       id="text31"
       xml:space="preserve"
       transform="matrix(0.95395404,0,0,0.95395404,405.07412,61.576087)"
       clip-path="url(#clipPath32)"><tspan
         id="tspan31"
         style="font-variant:normal;font-weight:normal;font-size:12px;font-family:Arial;writing-mode:lr-tb;fill:#000000;fill-opacity:1;fill-rule:nonzero;stroke:none"
         x="0"
         y="0">vehicle_b</tspan></text>
    <text
       id="text32"
       xml:space="preserve"
       transform="matrix(0.95395404,0,0,0.95395404,23.641563,80.655168)"
       clip-path="url(#clipPath33)"><tspan
         id="tspan32"
         style="font-variant:normal;font-weight:normal;font-size:12px;font-family:Arial;writing-mode:lr-tb;fill:#000000;fill-opacity:1;fill-rule:nonzero;stroke:none"
         x="0"
         y="0">2</tspan></text>
    <text
       id="text33"
       xml:space="preserve"
       transform="matrix(0.95395404,0,0,0.95395404,164.67771,80.655168)"
       clip-path="url(#clipPath34)"><tspan
         id="tspan33"
         style="font-variant:normal;font-weight:normal;font-size:12px;font-family:Arial;writing-mode:lr-tb;fill:#000000;fill-opacity:1;fill-rule:nonzero;stroke:none"
         x="0"
         y="0">physicalReqt</tspan></text>
    <text
       id="text34"
       xml:space="preserve"
       transform="matrix(0.95395404,0,0,0.95395404,285.82987,80.655168)"
       clip-path="url(#clipPath35)"><tspan
         id="tspan34"
         style="font-variant:normal;font-weight:normal;font-size:12px;font-family:Arial;writing-mode:lr-tb;fill:#000000;fill-opacity:1;fill-rule:nonzero;stroke:none"
         x="0"
         y="0">massReqt</tspan></text>
    <text
       id="text35"
       xml:space="preserve"
       transform="matrix(0.95395404,0,0,0.95395404,405.07412,80.655168)"
       clip-path="url(#clipPath36)"><tspan
         id="tspan35"
         style="font-variant:normal;font-weight:normal;font-size:12px;font-family:Arial;writing-mode:lr-tb;fill:#000000;fill-opacity:1;fill-rule:nonzero;stroke:none"
         x="0"
         y="0">vehicle_b.mass</tspan></text>
    <text
       id="text36"
       xml:space="preserve"
       transform="matrix(0.95395404,0,0,0.95395404,23.641563,99.734248)"
       clip-path="url(#clipPath37)"><tspan
         id="tspan36"
         style="font-variant:normal;font-weight:normal;font-size:12px;font-family:Arial;writing-mode:lr-tb;fill:#000000;fill-opacity:1;fill-rule:nonzero;stroke:none"
         x="0"
         y="0">3</tspan></text>
    <text
       id="text37"
       xml:space="preserve"
       transform="matrix(0.95395404,0,0,0.95395404,164.67771,99.734248)"
       clip-path="url(#clipPath38)"><tspan
         id="tspan37"
         style="font-variant:normal;font-weight:normal;font-size:12px;font-family:Arial;writing-mode:lr-tb;fill:#000000;fill-opacity:1;fill-rule:nonzero;stroke:none"
         x="0"
         y="0">performanceReqt</tspan></text>
    <text
       id="text38"
       xml:space="preserve"
       transform="matrix(0.95395404,0,0,0.95395404,285.82987,99.734248)"
       clip-path="url(#clipPath39)"><tspan
         id="tspan38"
         style="font-variant:normal;font-weight:normal;font-size:12px;font-family:Arial;writing-mode:lr-tb;fill:#000000;fill-opacity:1;fill-rule:nonzero;stroke:none"
         x="0"
         y="0">fuelEconomyReqt</tspan></text>
    <text
       id="text39"
       xml:space="preserve"
       transform="matrix(0.95395404,0,0,0.95395404,405.07412,99.734248)"
       clip-path="url(#clipPath40)"><tspan
         id="tspan39"
         style="font-variant:normal;font-weight:normal;font-size:12px;font-family:Arial;writing-mode:lr-tb;fill:#000000;fill-opacity:1;fill-rule:nonzero;stroke:none"
         x="0"
         y="0">vehicle_b.fuelEconomy</tspan></text>
    <path
       id="path41"
       d="m 45,520 h 365 v 15 c 0,2.76001 -2.23999,5 -5,5 H 40 v -15 c 0,-2.76001 2.240002,-5 5,-5 z"
       style="fill:url(#linearGradient42);fill-opacity:1;fill-rule:nonzero;stroke:#000000;stroke-width:1;stroke-linecap:butt;stroke-linejoin:miter;stroke-miterlimit:10;stroke-dasharray:none;stroke-opacity:1"
       transform="matrix(0.95395404,0,0,0.95395404,-35.17567,-494.10217)"
       clip-path="url(#clipPath42)" />
    <text
       id="text42"
       xml:space="preserve"
       transform="translate(4.4098531,15.780207)"
       clip-path="url(#clipPath43)"><tspan
         id="tspan42"
         style="font-variant:normal;font-weight:normal;font-size:11.44px;font-family:Arial;writing-mode:lr-tb;fill:#000000;fill-opacity:1;fill-rule:nonzero;stroke:none"
         x="0"
         y="0">«view» vehicleReqtsSatisfaction : RequirementsSatisfactionMatrix</tspan></text>
  </g>
</svg>
