<?xml version="1.0" encoding="UTF-8" standalone="no"?>
<!-- Created with Inkscape (http://www.inkscape.org/) -->

<svg
   version="1.1"
   id="svg1"
   width="214.71999"
   height="40"
   viewBox="0 0 214.71999 40"
   xmlns="http://www.w3.org/2000/svg"
   xmlns:svg="http://www.w3.org/2000/svg">
  <defs
     id="defs1">
    <clipPath
       clipPathUnits="userSpaceOnUse"
       id="clipPath2">
      <path
         d="M 0,0 H 668.99414 V 125.97656 H 0 Z"
         transform="scale(0.31999999)"
         clip-rule="evenodd"
         id="path2" />
    </clipPath>
    <clipPath
       clipPathUnits="userSpaceOnUse"
       id="clipPath4">
      <path
         d="m 3.125,0 h 662.5 V 125.97656 H 3.125 Z"
         transform="matrix(0.33867703,0,0,0.33867703,533.36427,16586.998)"
         clip-rule="evenodd"
         id="path4" />
    </clipPath>
    <clipPath
       clipPathUnits="userSpaceOnUse"
       id="clipPath5">
      <path
         d="m 3.125,0 h 662.5 V 125.97656 H 3.125 Z"
         transform="matrix(0.33867703,0,0,0.33867703,-71.385742,-16.501572)"
         clip-rule="evenodd"
         id="path5" />
    </clipPath>
    <clipPath
       clipPathUnits="userSpaceOnUse"
       id="clipPath6">
      <path
         d="m 3.125,0 h 662.5 V 125.97656 H 3.125 Z"
         transform="matrix(0.33867703,0,0,0.33867703,-17.729492,-36.501572)"
         clip-rule="evenodd"
         id="path6" />
    </clipPath>
  </defs>
  <g
     id="g1">
    <path
       id="path1"
       d="M 0,0 H 214 V 40 H 0 Z"
       style="fill:#ffffff;fill-opacity:1;fill-rule:nonzero;stroke:none"
       clip-path="url(#clipPath2)" />
    <path
       id="path3"
       d="m 544.5,16588 h 204 c 0.52527,0 1.04547,0.05 1.56067,0.152 0.51514,0.104 1.01538,0.254 1.50067,0.455 0.48529,0.202 0.94635,0.448 1.38312,0.739 0.43683,0.291 0.84094,0.623 1.21234,0.996 0.3714,0.371 0.70306,0.775 0.99493,1.211 0.29181,0.437 0.53821,0.898 0.73926,1.384 0.20099,0.487 0.35272,0.987 0.4552,1.5 0.10248,0.516 0.15375,1.038 0.15381,1.563 v 24 c -6e-5,0.525 -0.0513,1.045 -0.15381,1.56 -0.10248,0.514 -0.25421,1.014 -0.45526,1.499 -0.20099,0.486 -0.44745,0.947 -0.73926,1.384 -0.29181,0.436 -0.62347,0.84 -0.99487,1.213 -0.3714,0.371 -0.77551,0.703 -1.21234,0.994 -0.43671,0.291 -0.89777,0.537 -1.38306,0.739 -0.48535,0.201 -0.98559,0.353 -1.50073,0.457 -0.5152,0.101 -1.0354,0.152 -1.56067,0.154 h -204 c -0.52533,0 -1.04553,-0.05 -1.56073,-0.154 -0.5152,-0.104 -1.01544,-0.256 -1.50073,-0.457 -0.48535,-0.202 -0.94641,-0.448 -1.38312,-0.739 -0.43677,-0.291 -0.84088,-0.623 -1.21228,-0.994 -0.3714,-0.373 -0.70306,-0.777 -0.99493,-1.213 -0.29181,-0.437 -0.53827,-0.898 -0.73926,-1.384 -0.20099,-0.485 -0.35279,-0.985 -0.45526,-1.499 -0.10248,-0.515 -0.15369,-1.035 -0.15369,-1.56 v -24 c 0,-0.525 0.0512,-1.047 0.15369,-1.563 0.10247,-0.513 0.25427,-1.013 0.45526,-1.5 0.20099,-0.486 0.44745,-0.947 0.73926,-1.382 0.29187,-0.438 0.62353,-0.842 0.99493,-1.213 0.3714,-0.373 0.77551,-0.705 1.21228,-0.996 0.43671,-0.291 0.89777,-0.537 1.38306,-0.739 0.48529,-0.201 0.98553,-0.351 1.50073,-0.455 0.5152,-0.101 1.03546,-0.152 1.56079,-0.152 z"
       style="fill:#ffffff;fill-opacity:1;fill-rule:nonzero;stroke:#000000;stroke-width:1;stroke-linecap:butt;stroke-linejoin:miter;stroke-miterlimit:10;stroke-dasharray:none;stroke-opacity:1"
       transform="matrix(0.94485295,0,0,0.94485295,-503.9508,-15672.274)"
       clip-path="url(#clipPath4)" />
    <text
       id="text4"
       xml:space="preserve"
       transform="matrix(0.94485295,0,0,0.94485295,67.449029,15.591559)"
       clip-path="url(#clipPath5)"><tspan
         id="tspan4"
         style="font-variant:normal;font-weight:normal;font-size:16px;font-family:Arial;writing-mode:lr-tb;fill:#000000;fill-opacity:1;fill-rule:nonzero;stroke:none"
         x="0"
         y="0">«viewpoint»</tspan></text>
    <text
       id="text5"
       xml:space="preserve"
       transform="matrix(0.94485295,0,0,0.94485295,16.751763,34.488618)"
       clip-path="url(#clipPath6)"><tspan
         id="tspan5"
         style="font-variant:normal;font-weight:normal;font-size:16px;font-family:Arial;writing-mode:lr-tb;fill:#000000;fill-opacity:1;fill-rule:nonzero;stroke:none"
         x="0"
         dx="0 0 0 0 0 0 0 0 0 0 0 0 0 0 -0.28906173"
         y="0">viewpoint1 : ViewpointDef1</tspan></text>
  </g>
</svg>
