<?xml version="1.0" encoding="UTF-8" standalone="no"?>
<!-- Created with Inkscape (http://www.inkscape.org/) -->

<svg
   version="1.1"
   id="svg1"
   width="214.71999"
   height="173.44"
   viewBox="0 0 214.71999 173.44"
   xmlns="http://www.w3.org/2000/svg"
   xmlns:svg="http://www.w3.org/2000/svg">
  <defs
     id="defs1">
    <clipPath
       clipPathUnits="userSpaceOnUse"
       id="clipPath2">
      <path
         d="M 0,0 H 668.99414 V 539.99023 H 0 Z"
         transform="scale(0.31999999)"
         clip-rule="evenodd"
         id="path2" />
    </clipPath>
    <clipPath
       clipPathUnits="userSpaceOnUse"
       id="clipPath4">
      <path
         d="m 3.125,0 h 662.5 V 539.99023 H 3.125 Z"
         transform="matrix(0.33864419,0,0,0.33864419,18.875298,15946.942)"
         clip-rule="evenodd"
         id="path4" />
    </clipPath>
    <clipPath
       clipPathUnits="userSpaceOnUse"
       id="clipPath6">
      <path
         d="m 3.125,0 h 662.5 V 539.99023 H 3.125 Z"
         transform="matrix(0.33864419,0,0,0.33864419,18.875298,15946.942)"
         clip-rule="evenodd"
         id="path6" />
    </clipPath>
    <clipPath
       clipPathUnits="userSpaceOnUse"
       id="clipPath8">
      <path
         d="m 3.125,0 h 662.5 V 539.99023 H 3.125 Z"
         transform="matrix(0.33864419,0,0,0.33864419,18.875298,15946.942)"
         clip-rule="evenodd"
         id="path8" />
    </clipPath>
    <clipPath
       clipPathUnits="userSpaceOnUse"
       id="clipPath9">
      <path
         d="m 3.125,0 h 662.5 V 539.99023 H 3.125 Z"
         transform="matrix(0.33864419,0,0,0.33864419,-74.874703,-23.558729)"
         clip-rule="evenodd"
         id="path9" />
    </clipPath>
    <clipPath
       clipPathUnits="userSpaceOnUse"
       id="clipPath10">
      <path
         d="m 3.125,0 h 662.5 V 539.99023 H 3.125 Z"
         transform="matrix(0.33864419,0,0,0.33864419,-79.030952,-42.558729)"
         clip-rule="evenodd"
         id="path10" />
    </clipPath>
    <clipPath
       clipPathUnits="userSpaceOnUse"
       id="clipPath11">
      <path
         d="M 19.562428,152.25 H 645.58825 v 59.05859 H 19.562428 Z"
         transform="matrix(0.31999999,0,0,0.31999999,-79.957039,-62.879457)"
         clip-rule="evenodd"
         id="path11" />
    </clipPath>
    <clipPath
       clipPathUnits="userSpaceOnUse"
       id="clipPath12">
      <path
         d="M 19.562428,211.30859 H 645.58825 v 59.05859 H 19.562428 Z"
         transform="matrix(0.31999999,0,0,0.31999999,-8.1445419,-81.785757)"
         clip-rule="evenodd"
         id="path12" />
    </clipPath>
    <clipPath
       clipPathUnits="userSpaceOnUse"
       id="clipPath14">
      <path
         d="m 3.125,0 h 662.5 V 539.99023 H 3.125 Z"
         transform="matrix(0.33864419,0,0,0.33864419,18.875298,15946.942)"
         clip-rule="evenodd"
         id="path14" />
    </clipPath>
    <clipPath
       clipPathUnits="userSpaceOnUse"
       id="clipPath15">
      <path
         d="M 19.562428,282.17969 H 645.58825 v 59.05859 H 19.562428 Z"
         transform="matrix(0.31999999,0,0,0.31999999,-92.878913,-104.45766)"
         clip-rule="evenodd"
         id="path15" />
    </clipPath>
    <clipPath
       clipPathUnits="userSpaceOnUse"
       id="clipPath16">
      <path
         d="M 19.562428,341.23828 H 645.58825 v 59.05859 H 19.562428 Z"
         transform="matrix(0.31999999,0,0,0.31999999,-8.1445419,-123.36385)"
         clip-rule="evenodd"
         id="path16" />
    </clipPath>
    <clipPath
       clipPathUnits="userSpaceOnUse"
       id="clipPath18">
      <path
         d="m 3.125,0 h 662.5 V 539.99023 H 3.125 Z"
         transform="matrix(0.33864419,0,0,0.33864419,18.875298,15946.942)"
         clip-rule="evenodd"
         id="path18" />
    </clipPath>
    <clipPath
       clipPathUnits="userSpaceOnUse"
       id="clipPath19">
      <path
         d="M 19.562428,412.10938 H 645.58825 v 59.05859 H 19.562428 Z"
         transform="matrix(0.31999999,0,0,0.31999999,-82.472664,-146.03575)"
         clip-rule="evenodd"
         id="path19" />
    </clipPath>
    <clipPath
       clipPathUnits="userSpaceOnUse"
       id="clipPath20">
      <path
         d="M 19.562428,471.16797 H 645.58825 v 59.05859 H 19.562428 Z"
         transform="matrix(0.31999999,0,0,0.31999999,-8.1445419,-164.94195)"
         clip-rule="evenodd"
         id="path20" />
    </clipPath>
  </defs>
  <g
     id="g1">
    <path
       id="path1"
       d="M 0,0 H 214 V 173 H 0 Z"
       style="fill:#ffffff;fill-opacity:1;fill-rule:nonzero;stroke:none"
       clip-path="url(#clipPath2)" />
    <path
       id="path3"
       d="m 22,15999 v -50 h 220 v 50"
       style="fill:none;stroke:#000000;stroke-width:1;stroke-linecap:butt;stroke-linejoin:miter;stroke-miterlimit:10;stroke-dasharray:none;stroke-opacity:1"
       transform="matrix(0.94494457,0,0,0.94494457,-17.83611,-15068.976)"
       clip-path="url(#clipPath4)" />
    <path
       id="path5"
       d="m 22,15999 v 128 h 220 v -128"
       style="fill:none;stroke:#000000;stroke-width:1;stroke-linecap:butt;stroke-linejoin:miter;stroke-miterlimit:10;stroke-dasharray:none;stroke-opacity:1"
       transform="matrix(0.94494457,0,0,0.94494457,-17.83611,-15068.976)"
       clip-path="url(#clipPath6)" />
    <path
       id="path7"
       d="M 22,15999 H 242"
       style="fill:none;stroke:#000000;stroke-width:1;stroke-linecap:butt;stroke-linejoin:miter;stroke-miterlimit:10;stroke-dasharray:none;stroke-opacity:1"
       transform="matrix(0.94494457,0,0,0.94494457,-17.83611,-15068.976)"
       clip-path="url(#clipPath8)" />
    <text
       id="text8"
       xml:space="preserve"
       transform="matrix(0.94494457,0,0,0.94494457,70.752444,22.261693)"
       clip-path="url(#clipPath9)"><tspan
         id="tspan8"
         style="font-variant:normal;font-weight:normal;font-size:16px;font-family:Arial;writing-mode:lr-tb;fill:#000000;fill-opacity:1;fill-rule:nonzero;stroke:none"
         x="0"
         y="0">«view def»</tspan></text>
    <text
       id="text9"
       xml:space="preserve"
       transform="matrix(0.94494457,0,0,0.94494457,74.679869,40.21564)"
       clip-path="url(#clipPath10)"><tspan
         id="tspan9"
         style="font-variant:normal;font-weight:normal;font-size:16px;font-family:Arial;writing-mode:lr-tb;fill:#000000;fill-opacity:1;fill-rule:nonzero;stroke:none"
         x="0"
         dx="0 -0.28906253"
         y="0">ViewDef1</tspan></text>
    <text
       id="text10"
       xml:space="preserve"
       transform="translate(79.957039,62.879457)"
       clip-path="url(#clipPath11)"><tspan
         id="tspan10"
         style="font-style:italic;font-variant:normal;font-weight:normal;font-size:11.33px;font-family:Arial;writing-mode:lr-tb;fill:#000000;fill-opacity:1;fill-rule:nonzero;stroke:none"
         x="0"
         y="0">viewpoints</tspan></text>
    <text
       id="text11"
       xml:space="preserve"
       transform="translate(8.1445419,81.785757)"
       clip-path="url(#clipPath12)"><tspan
         id="tspan11"
         style="font-variant:normal;font-weight:normal;font-size:11.33px;font-family:Arial;writing-mode:lr-tb;fill:#000000;fill-opacity:1;fill-rule:nonzero;stroke:none"
         x="0"
         y="0">•••</tspan></text>
    <path
       id="path13"
       d="M 22,16041 H 242"
       style="fill:none;stroke:#000000;stroke-width:1;stroke-linecap:butt;stroke-linejoin:miter;stroke-miterlimit:10;stroke-dasharray:none;stroke-opacity:1"
       transform="matrix(0.94494457,0,0,0.94494457,-17.83611,-15068.976)"
       clip-path="url(#clipPath14)" />
    <text
       id="text14"
       xml:space="preserve"
       transform="translate(92.878913,104.45766)"
       clip-path="url(#clipPath15)"><tspan
         id="tspan14"
         style="font-style:italic;font-variant:normal;font-weight:normal;font-size:11.33px;font-family:Arial;writing-mode:lr-tb;fill:#000000;fill-opacity:1;fill-rule:nonzero;stroke:none"
         x="0"
         y="0">filters</tspan></text>
    <text
       id="text15"
       xml:space="preserve"
       transform="translate(8.1445419,123.36385)"
       clip-path="url(#clipPath16)"><tspan
         id="tspan15"
         style="font-variant:normal;font-weight:normal;font-size:11.33px;font-family:Arial;writing-mode:lr-tb;fill:#000000;fill-opacity:1;fill-rule:nonzero;stroke:none"
         x="0"
         y="0">•••</tspan></text>
    <path
       id="path17"
       d="M 22,16085 H 242"
       style="fill:none;stroke:#000000;stroke-width:1;stroke-linecap:butt;stroke-linejoin:miter;stroke-miterlimit:10;stroke-dasharray:none;stroke-opacity:1"
       transform="matrix(0.94494457,0,0,0.94494457,-17.83611,-15068.976)"
       clip-path="url(#clipPath18)" />
    <text
       id="text18"
       xml:space="preserve"
       transform="translate(82.472664,146.03575)"
       clip-path="url(#clipPath19)"><tspan
         id="tspan18"
         style="font-style:italic;font-variant:normal;font-weight:normal;font-size:11.33px;font-family:Arial;writing-mode:lr-tb;fill:#000000;fill-opacity:1;fill-rule:nonzero;stroke:none"
         x="0"
         y="0">rendering</tspan></text>
    <text
       id="text19"
       xml:space="preserve"
       transform="translate(8.1445419,164.94195)"
       clip-path="url(#clipPath20)"><tspan
         id="tspan19"
         style="font-variant:normal;font-weight:normal;font-size:11.33px;font-family:Arial;writing-mode:lr-tb;fill:#000000;fill-opacity:1;fill-rule:nonzero;stroke:none"
         x="0"
         y="0">rendering1</tspan></text>
  </g>
</svg>
