<?xml version="1.0" encoding="UTF-8" standalone="no"?>
<!-- Created with Inkscape (http://www.inkscape.org/) -->

<svg
   version="1.1"
   id="svg1"
   width="539.84003"
   height="365.44"
   viewBox="0 0 539.84003 365.44"
   xmlns="http://www.w3.org/2000/svg"
   xmlns:svg="http://www.w3.org/2000/svg">
  <defs
     id="defs1">
    <clipPath
       clipPathUnits="userSpaceOnUse"
       id="clipPath2">
      <path
         d="M 0,0 H 1688 V 1143 H 0 Z"
         transform="scale(0.31999999)"
         clip-rule="evenodd"
         id="path2" />
    </clipPath>
    <clipPath
       clipPathUnits="userSpaceOnUse"
       id="clipPath4">
      <path
         d="M 3.125,0 H 1687.5 V 1140.625 H 3.125 Z"
         transform="matrix(0.33541257,0,0,0.33541257,2153.9019,16224.953)"
         clip-rule="evenodd"
         id="path4" />
    </clipPath>
    <clipPath
       clipPathUnits="userSpaceOnUse"
       id="clipPath6">
      <path
         d="M 3.125,0 H 1687.5 V 1140.625 H 3.125 Z"
         transform="matrix(0.33541257,0,0,0.33541257,2153.9019,16224.953)"
         clip-rule="evenodd"
         id="path6" />
    </clipPath>
    <clipPath
       clipPathUnits="userSpaceOnUse"
       id="clipPath7">
      <path
         d="M 3.125,0 H 1687.5 V 1140.625 H 3.125 Z"
         transform="matrix(0.33541257,0,0,0.33541257,-260.41059,-99.548217)"
         clip-rule="evenodd"
         id="path7" />
    </clipPath>
    <clipPath
       clipPathUnits="userSpaceOnUse"
       id="clipPath8">
      <path
         d="M 3.125,0 H 1687.5 V 1140.625 H 3.125 Z"
         transform="matrix(0.33541257,0,0,0.33541257,-216.83249,-118.54821)"
         clip-rule="evenodd"
         id="path8" />
    </clipPath>
    <clipPath
       clipPathUnits="userSpaceOnUse"
       id="clipPath10">
      <path
         d="M 3.125,0 H 1687.5 V 1140.625 H 3.125 Z"
         transform="matrix(0.33541257,0,0,0.33541257,2153.9019,16224.953)"
         clip-rule="evenodd"
         id="path10" />
    </clipPath>
    <clipPath
       clipPathUnits="userSpaceOnUse"
       id="clipPath11">
      <path
         d="M 3.125,0 H 1687.5 V 1140.625 H 3.125 Z"
         transform="matrix(0.33541257,0,0,0.33541257,-135.41059,-156.54821)"
         clip-rule="evenodd"
         id="path11" />
    </clipPath>
    <clipPath
       clipPathUnits="userSpaceOnUse"
       id="clipPath12">
      <path
         d="M 3.125,0 H 1687.5 V 1140.625 H 3.125 Z"
         transform="matrix(0.33541257,0,0,0.33541257,-91.848091,-175.54822)"
         clip-rule="evenodd"
         id="path12" />
    </clipPath>
    <clipPath
       clipPathUnits="userSpaceOnUse"
       id="clipPath14">
      <path
         d="M 3.125,0 H 1687.5 V 1140.625 H 3.125 Z"
         transform="matrix(0.33541257,0,0,0.33541257,2153.9019,16224.953)"
         clip-rule="evenodd"
         id="path14" />
    </clipPath>
    <clipPath
       clipPathUnits="userSpaceOnUse"
       id="clipPath15">
      <path
         d="M 3.125,0 H 1687.5 V 1140.625 H 3.125 Z"
         transform="matrix(0.33541257,0,0,0.33541257,-136.41059,-271.54821)"
         clip-rule="evenodd"
         id="path15" />
    </clipPath>
    <clipPath
       clipPathUnits="userSpaceOnUse"
       id="clipPath16">
      <path
         d="M 3.125,0 H 1687.5 V 1140.625 H 3.125 Z"
         transform="matrix(0.33541257,0,0,0.33541257,-79.95749,-291.54821)"
         clip-rule="evenodd"
         id="path16" />
    </clipPath>
    <clipPath
       clipPathUnits="userSpaceOnUse"
       id="clipPath18">
      <path
         d="M 3.125,0 H 1687.5 V 1140.625 H 3.125 Z"
         transform="matrix(0.33541257,0,0,0.33541257,2153.9019,16224.953)"
         clip-rule="evenodd"
         id="path18" />
    </clipPath>
    <clipPath
       clipPathUnits="userSpaceOnUse"
       id="clipPath19">
      <path
         d="M 3.125,0 H 1687.5 V 1140.625 H 3.125 Z"
         transform="matrix(0.33541257,0,0,0.33541257,-165.75439,-252.54822)"
         clip-rule="evenodd"
         id="path19" />
    </clipPath>
    <clipPath
       clipPathUnits="userSpaceOnUse"
       id="clipPath21">
      <path
         d="M 3.125,0 H 1687.5 V 1140.625 H 3.125 Z"
         transform="matrix(0.33541257,0,0,0.33541257,2153.9019,16224.953)"
         clip-rule="evenodd"
         id="path21" />
    </clipPath>
    <clipPath
       clipPathUnits="userSpaceOnUse"
       id="clipPath22">
      <path
         d="M 3.125,0 H 1687.5 V 1140.625 H 3.125 Z"
         transform="matrix(0.33541257,0,0,0.33541257,-137.41059,-202.54822)"
         clip-rule="evenodd"
         id="path22" />
    </clipPath>
    <clipPath
       clipPathUnits="userSpaceOnUse"
       id="clipPath23">
      <path
         d="M 3.125,0 H 1687.5 V 1140.625 H 3.125 Z"
         transform="matrix(0.33541257,0,0,0.33541257,-106.73869,-222.54822)"
         clip-rule="evenodd"
         id="path23" />
    </clipPath>
    <clipPath
       clipPathUnits="userSpaceOnUse"
       id="clipPath25">
      <path
         d="M 3.125,0 H 1687.5 V 1140.625 H 3.125 Z"
         transform="matrix(0.33541257,0,0,0.33541257,2153.9019,16224.953)"
         clip-rule="evenodd"
         id="path25" />
    </clipPath>
    <clipPath
       clipPathUnits="userSpaceOnUse"
       id="clipPath26">
      <path
         d="M 3.125,0 H 1687.5 V 1140.625 H 3.125 Z"
         transform="matrix(0.33541257,0,0,0.33541257,-387.41059,-156.54821)"
         clip-rule="evenodd"
         id="path26" />
    </clipPath>
    <clipPath
       clipPathUnits="userSpaceOnUse"
       id="clipPath27">
      <path
         d="M 3.125,0 H 1687.5 V 1140.625 H 3.125 Z"
         transform="matrix(0.33541257,0,0,0.33541257,-345.62939,-175.54822)"
         clip-rule="evenodd"
         id="path27" />
    </clipPath>
    <clipPath
       clipPathUnits="userSpaceOnUse"
       id="clipPath29">
      <path
         d="M 3.125,0 H 1687.5 V 1140.625 H 3.125 Z"
         transform="matrix(0.33541257,0,0,0.33541257,2153.9019,16224.953)"
         clip-rule="evenodd"
         id="path29" />
    </clipPath>
    <clipPath
       clipPathUnits="userSpaceOnUse"
       id="clipPath30">
      <path
         d="M 3.125,0 H 1687.5 V 1140.625 H 3.125 Z"
         transform="matrix(0.33541257,0,0,0.33541257,-388.41059,-271.54821)"
         clip-rule="evenodd"
         id="path30" />
    </clipPath>
    <clipPath
       clipPathUnits="userSpaceOnUse"
       id="clipPath31">
      <path
         d="M 3.125,0 H 1687.5 V 1140.625 H 3.125 Z"
         transform="matrix(0.33541257,0,0,0.33541257,-333.73869,-291.54821)"
         clip-rule="evenodd"
         id="path31" />
    </clipPath>
    <clipPath
       clipPathUnits="userSpaceOnUse"
       id="clipPath33">
      <path
         d="M 3.125,0 H 1687.5 V 1140.625 H 3.125 Z"
         transform="matrix(0.33541257,0,0,0.33541257,2153.9019,16224.953)"
         clip-rule="evenodd"
         id="path33" />
    </clipPath>
    <clipPath
       clipPathUnits="userSpaceOnUse"
       id="clipPath34">
      <path
         d="M 3.125,0 H 1687.5 V 1140.625 H 3.125 Z"
         transform="matrix(0.33541257,0,0,0.33541257,-417.75439,-252.54822)"
         clip-rule="evenodd"
         id="path34" />
    </clipPath>
    <clipPath
       clipPathUnits="userSpaceOnUse"
       id="clipPath36">
      <path
         d="M 3.125,0 H 1687.5 V 1140.625 H 3.125 Z"
         transform="matrix(0.33541257,0,0,0.33541257,2153.9019,16224.953)"
         clip-rule="evenodd"
         id="path36" />
    </clipPath>
    <clipPath
       clipPathUnits="userSpaceOnUse"
       id="clipPath37">
      <path
         d="M 3.125,0 H 1687.5 V 1140.625 H 3.125 Z"
         transform="matrix(0.33541257,0,0,0.33541257,-388.41059,-202.54822)"
         clip-rule="evenodd"
         id="path37" />
    </clipPath>
    <clipPath
       clipPathUnits="userSpaceOnUse"
       id="clipPath38">
      <path
         d="M 3.125,0 H 1687.5 V 1140.625 H 3.125 Z"
         transform="matrix(0.33541257,0,0,0.33541257,-359.51999,-222.54822)"
         clip-rule="evenodd"
         id="path38" />
    </clipPath>
    <linearGradient
       x1="0"
       y1="0"
       x2="0"
       y2="1"
       gradientUnits="userSpaceOnUse"
       gradientTransform="matrix(320,0,0,19.999999,2157,16227)"
       spreadMethod="pad"
       id="linearGradient40">
      <stop
         style="stop-opacity:1;stop-color:#ffffff"
         offset="0"
         id="stop39" />
      <stop
         style="stop-opacity:1;stop-color:#ffffff"
         offset="1"
         id="stop40" />
    </linearGradient>
    <clipPath
       clipPathUnits="userSpaceOnUse"
       id="clipPath40">
      <path
         d="M 3.125,0 H 1687.5 V 1140.625 H 3.125 Z"
         transform="matrix(0.33541257,0,0,0.33541257,2153.9019,16224.953)"
         clip-rule="evenodd"
         id="path40" />
    </clipPath>
    <clipPath
       clipPathUnits="userSpaceOnUse"
       id="clipPath41">
      <path
         d="M 3.125,0 H 1687.5 V 1140.625 H 3.125 Z"
         transform="matrix(0.33541257,0,0,0.33541257,-4.5980908,-15.548217)"
         clip-rule="evenodd"
         id="path41" />
    </clipPath>
    <clipPath
       clipPathUnits="userSpaceOnUse"
       id="clipPath42">
      <path
         d="M 3.125,0 H 1687.5 V 1140.625 H 3.125 Z"
         transform="matrix(0.33541257,0,0,0.33541257,-192.70749,-15.548217)"
         clip-rule="evenodd"
         id="path42" />
    </clipPath>
    <linearGradient
       x1="0"
       y1="0"
       x2="0"
       y2="1"
       gradientUnits="userSpaceOnUse"
       gradientTransform="matrix(165.99999,0,0,50,2550.9997,16227)"
       spreadMethod="pad"
       id="linearGradient44">
      <stop
         style="stop-opacity:1;stop-color:#ffffff"
         offset="0"
         id="stop43" />
      <stop
         style="stop-opacity:1;stop-color:#ffffff"
         offset="1"
         id="stop44" />
    </linearGradient>
    <clipPath
       clipPathUnits="userSpaceOnUse"
       id="clipPath44">
      <path
         d="M 3.125,0 H 1687.5 V 1140.625 H 3.125 Z"
         transform="matrix(-0.33541257,0,0,0.33541257,3114.0984,16224.953)"
         clip-rule="evenodd"
         id="path44" />
    </clipPath>
    <clipPath
       clipPathUnits="userSpaceOnUse"
       id="clipPath45">
      <path
         d="M 3.125,0 H 1687.5 V 1140.625 H 3.125 Z"
         transform="matrix(0.33541257,0,0,0.33541257,-398.59809,-16.548217)"
         clip-rule="evenodd"
         id="path45" />
    </clipPath>
    <clipPath
       clipPathUnits="userSpaceOnUse"
       id="clipPath46">
      <path
         d="M 3.125,0 H 1687.5 V 1140.625 H 3.125 Z"
         transform="matrix(0.33541257,0,0,0.33541257,-439.95748,-16.548217)"
         clip-rule="evenodd"
         id="path46" />
    </clipPath>
    <clipPath
       clipPathUnits="userSpaceOnUse"
       id="clipPath47">
      <path
         d="M 3.125,0 H 1687.5 V 1140.625 H 3.125 Z"
         transform="matrix(0.33541257,0,0,0.33541257,-398.59809,-30.548216)"
         clip-rule="evenodd"
         id="path47" />
    </clipPath>
    <clipPath
       clipPathUnits="userSpaceOnUse"
       id="clipPath48">
      <path
         d="M 3.125,0 H 1687.5 V 1140.625 H 3.125 Z"
         transform="matrix(0.33541257,0,0,0.33541257,-424.61369,-30.548216)"
         clip-rule="evenodd"
         id="path48" />
    </clipPath>
    <clipPath
       clipPathUnits="userSpaceOnUse"
       id="clipPath49">
      <path
         d="M 3.125,0 H 1687.5 V 1140.625 H 3.125 Z"
         transform="matrix(0.33541257,0,0,0.33541257,-543.50439,-30.548216)"
         clip-rule="evenodd"
         id="path49" />
    </clipPath>
    <clipPath
       clipPathUnits="userSpaceOnUse"
       id="clipPath50">
      <path
         d="M 3.125,0 H 1687.5 V 1140.625 H 3.125 Z"
         transform="matrix(0.33541257,0,0,0.33541257,-398.59809,-45.548217)"
         clip-rule="evenodd"
         id="path50" />
    </clipPath>
    <linearGradient
       x1="0"
       y1="0"
       x2="0"
       y2="1"
       gradientUnits="userSpaceOnUse"
       gradientTransform="matrix(165.99999,0,0,45,2550.9999,16559.999)"
       spreadMethod="pad"
       id="linearGradient52">
      <stop
         style="stop-opacity:1;stop-color:#ffffff"
         offset="0"
         id="stop51" />
      <stop
         style="stop-opacity:1;stop-color:#ffffff"
         offset="1"
         id="stop52" />
    </linearGradient>
    <clipPath
       clipPathUnits="userSpaceOnUse"
       id="clipPath52">
      <path
         d="M 3.125,0 H 1687.5 V 1140.625 H 3.125 Z"
         transform="matrix(0.33541257,0,0,0.33541257,2153.9019,16224.953)"
         clip-rule="evenodd"
         id="path52" />
    </clipPath>
    <clipPath
       clipPathUnits="userSpaceOnUse"
       id="clipPath60">
      <path
         d="M 3.125,0 H 1687.5 V 1140.625 H 3.125 Z"
         transform="matrix(0.33541257,0,0,0.33541257,-398.59809,-347.54822)"
         clip-rule="evenodd"
         id="path60" />
    </clipPath>
    <clipPath
       clipPathUnits="userSpaceOnUse"
       id="clipPath61">
      <path
         d="M 3.125,0 H 1687.5 V 1140.625 H 3.125 Z"
         transform="matrix(0.33541257,0,0,0.33541257,-398.59809,-361.54821)"
         clip-rule="evenodd"
         id="path61" />
    </clipPath>
    <clipPath
       clipPathUnits="userSpaceOnUse"
       id="clipPath62">
      <path
         d="M 3.125,0 H 1687.5 V 1140.625 H 3.125 Z"
         transform="matrix(0.33541257,0,0,0.33541257,-398.59809,-376.54822)"
         clip-rule="evenodd"
         id="path62" />
    </clipPath>
  </defs>
  <g
     id="g1">
    <path
       id="path1"
       d="M 0,0 H 540 V 366 H 0 Z"
       style="fill:#ffffff;fill-opacity:1;fill-rule:nonzero;stroke:none"
       clip-path="url(#clipPath2)" />
    <path
       id="path3"
       d="m 2162,16227 h 550 c 0.6628,0 1.3005,0.126 1.9131,0.379 0.6125,0.254 1.1533,0.615 1.6223,1.085 0.4685,0.468 0.8298,1.009 1.0837,1.621 0.2537,0.613 0.3807,1.252 0.3809,1.915 v 368 c -2e-4,0.662 -0.1272,1.299 -0.3809,1.912 -0.2539,0.611 -0.6152,1.152 -1.0837,1.623 -0.469,0.467 -1.0098,0.828 -1.6223,1.082 -0.6126,0.254 -1.2503,0.381 -1.9131,0.383 h -550 c -0.6631,0 -1.301,-0.129 -1.9138,-0.383 -0.6126,-0.254 -1.1531,-0.615 -1.6218,-1.082 -0.469,-0.471 -0.8304,-1.012 -1.0843,-1.623 -0.2536,-0.613 -0.3803,-1.25 -0.3801,-1.912 v -368 c -2e-4,-0.663 0.1265,-1.302 0.3801,-1.914 0.2539,-0.613 0.6153,-1.154 1.0843,-1.622 0.4687,-0.47 1.0092,-0.831 1.6218,-1.085 0.6128,-0.253 1.2507,-0.379 1.9138,-0.379 z"
       style="fill:#ffffff;fill-opacity:1;fill-rule:nonzero;stroke:#000000;stroke-width:1;stroke-linecap:butt;stroke-linejoin:miter;stroke-miterlimit:10;stroke-dasharray:none;stroke-opacity:1"
       transform="matrix(0.95404889,0,0,0.95404889,-2054.9277,-15479.398)"
       clip-path="url(#clipPath4)" />
    <path
       id="path5"
       d="m 2187,16303 h 500 c 0.6628,0 1.3003,0.126 1.9128,0.378 0.6126,0.255 1.1534,0.616 1.6224,1.085 0.4687,0.468 0.83,1.009 1.0837,1.622 0.2539,0.613 0.3809,1.252 0.3811,1.915 v 237 c -2e-4,0.662 -0.1272,1.299 -0.3811,1.912 -0.2537,0.611 -0.615,1.152 -1.0837,1.623 -0.469,0.467 -1.0098,0.828 -1.6224,1.082 -0.6125,0.254 -1.25,0.381 -1.9128,0.383 h -500 c -0.6633,0 -1.3013,-0.129 -1.9138,-0.383 -0.6126,-0.254 -1.1533,-0.615 -1.6218,-1.082 -0.469,-0.471 -0.8304,-1.012 -1.084,-1.623 -0.2537,-0.613 -0.3804,-1.25 -0.3804,-1.912 v -237 c 0,-0.663 0.1267,-1.302 0.3804,-1.915 0.2536,-0.613 0.615,-1.154 1.084,-1.622 0.4685,-0.469 1.0092,-0.83 1.622,-1.084 0.6126,-0.253 1.2503,-0.379 1.9136,-0.379 z"
       style="fill:#ffffff;fill-opacity:1;fill-rule:nonzero;stroke:#000000;stroke-width:1;stroke-linecap:butt;stroke-linejoin:miter;stroke-miterlimit:10;stroke-dasharray:none;stroke-opacity:1"
       transform="matrix(0.95404889,0,0,0.95404889,-2054.9277,-15479.398)"
       clip-path="url(#clipPath6)" />
    <text
       id="text6"
       xml:space="preserve"
       transform="matrix(0.95404889,0,0,0.95404889,248.44443,94.973866)"
       clip-path="url(#clipPath7)"><tspan
         id="tspan6"
         style="font-variant:normal;font-weight:normal;font-size:16px;font-family:Arial;writing-mode:lr-tb;fill:#000000;fill-opacity:1;fill-rule:nonzero;stroke:none"
         x="0"
         y="0">«part»</tspan></text>
    <text
       id="text7"
       xml:space="preserve"
       transform="matrix(0.95404889,0,0,0.95404889,206.8688,113.10079)"
       clip-path="url(#clipPath8)"><tspan
         id="tspan7"
         style="font-variant:normal;font-weight:normal;font-size:16px;font-family:Arial;writing-mode:lr-tb;fill:#000000;fill-opacity:1;fill-rule:nonzero;stroke:none"
         x="0"
         dx="0 0 0 0 0 0 0 0 0 0 0 0 0 -0.88281173"
         y="0">vehicle_b : Vehicle</tspan></text>
    <path
       id="path9"
       d="M 2201.03,16360 H 2423 c 0.6628,0 1.3005,0.127 1.9131,0.38 0.6125,0.253 1.1533,0.614 1.6223,1.083 0.4688,0.468 0.8301,1.008 1.0837,1.621 0.2539,0.613 0.3809,1.252 0.3809,1.916 v 160 c 0,0.662 -0.127,1.301 -0.3809,1.912 -0.2536,0.611 -0.6149,1.152 -1.0837,1.623 -0.469,0.467 -1.0098,0.828 -1.6223,1.082 -0.6126,0.254 -1.2503,0.381 -1.9131,0.383 h -221.97 c -0.6631,0 -1.301,-0.129 -1.9135,-0.383 -0.6126,-0.254 -1.1534,-0.615 -1.6221,-1.082 -0.469,-0.471 -0.8303,-1.012 -1.084,-1.623 -0.2537,-0.611 -0.3804,-1.25 -0.3804,-1.912 v -160 c 0,-0.664 0.1267,-1.303 0.3804,-1.916 0.2537,-0.613 0.615,-1.153 1.084,-1.621 0.4687,-0.469 1.0095,-0.83 1.6221,-1.083 0.6125,-0.253 1.2504,-0.38 1.9135,-0.38 z"
       style="fill:#ffffff;fill-opacity:1;fill-rule:nonzero;stroke:#000000;stroke-width:1;stroke-linecap:butt;stroke-linejoin:miter;stroke-miterlimit:10;stroke-dasharray:none;stroke-opacity:1"
       transform="matrix(0.95404889,0,0,0.95404889,-2054.9277,-15479.398)"
       clip-path="url(#clipPath10)" />
    <text
       id="text10"
       xml:space="preserve"
       transform="matrix(0.95404889,0,0,0.95404889,129.18832,149.35465)"
       clip-path="url(#clipPath11)"><tspan
         id="tspan10"
         style="font-variant:normal;font-weight:normal;font-size:16px;font-family:Arial;writing-mode:lr-tb;fill:#000000;fill-opacity:1;fill-rule:nonzero;stroke:none"
         x="0"
         y="0">«part»</tspan></text>
    <text
       id="text11"
       xml:space="preserve"
       transform="matrix(0.95404889,0,0,0.95404889,87.627569,167.48158)"
       clip-path="url(#clipPath12)"><tspan
         id="tspan11"
         style="font-variant:normal;font-weight:normal;font-size:16px;font-family:Arial;writing-mode:lr-tb;fill:#000000;fill-opacity:1;fill-rule:nonzero;stroke:none"
         x="0"
         y="0">frontAxleAssembly</tspan></text>
    <path
       id="path13"
       d="m 2236.01,16481 h 154 c 0.5252,0 1.0454,0.05 1.5603,0.152 0.5151,0.104 1.0154,0.254 1.5007,0.455 0.4856,0.202 0.9468,0.45 1.3836,0.741 0.4368,0.291 0.8408,0.623 1.2121,0.996 0.3711,0.371 0.7027,0.775 0.9947,1.211 0.2917,0.435 0.5383,0.896 0.7392,1.382 0.2012,0.487 0.3531,0.987 0.4556,1.502 0.1025,0.514 0.1538,1.036 0.1538,1.561 v 24 c 0,0.525 -0.051,1.045 -0.1538,1.559 -0.1025,0.515 -0.2544,1.015 -0.4556,1.501 -0.2009,0.485 -0.4475,0.946 -0.7392,1.383 -0.292,0.436 -0.6236,0.84 -0.9947,1.213 -0.3713,0.371 -0.7753,0.703 -1.2121,0.994 -0.4368,0.291 -0.898,0.537 -1.3836,0.739 -0.4853,0.201 -0.9856,0.353 -1.5007,0.455 -0.5149,0.103 -1.0351,0.154 -1.5603,0.156 h -154 c -0.5254,0 -1.0456,-0.05 -1.561,-0.156 -0.5154,-0.102 -1.0157,-0.254 -1.501,-0.455 -0.4851,-0.202 -0.9463,-0.448 -1.3831,-0.739 -0.4367,-0.291 -0.8408,-0.623 -1.2121,-0.994 -0.3716,-0.373 -0.7034,-0.777 -0.9951,-1.213 -0.2918,-0.437 -0.5384,-0.898 -0.7393,-1.383 -0.2009,-0.486 -0.3528,-0.986 -0.4551,-1.501 -0.1023,-0.514 -0.1535,-1.034 -0.1533,-1.559 v -24 c -2e-4,-0.525 0.051,-1.047 0.1533,-1.561 0.1023,-0.515 0.2542,-1.015 0.4551,-1.502 0.2009,-0.486 0.4475,-0.947 0.7393,-1.382 0.2917,-0.436 0.6235,-0.84 0.9951,-1.211 0.3713,-0.373 0.7754,-0.705 1.2121,-0.996 0.4368,-0.291 0.898,-0.539 1.3831,-0.741 0.4853,-0.201 0.9856,-0.351 1.5007,-0.455 0.5154,-0.101 1.0359,-0.152 1.5613,-0.152 z"
       style="fill:#ffffff;fill-opacity:1;fill-rule:nonzero;stroke:#000000;stroke-width:1;stroke-linecap:butt;stroke-linejoin:miter;stroke-miterlimit:10;stroke-dasharray:none;stroke-opacity:1"
       transform="matrix(0.95404889,0,0,0.95404889,-2054.9277,-15479.398)"
       clip-path="url(#clipPath14)" />
    <text
       id="text14"
       xml:space="preserve"
       transform="matrix(0.95404889,0,0,0.95404889,130.14237,259.07027)"
       clip-path="url(#clipPath15)"><tspan
         id="tspan14"
         style="font-variant:normal;font-weight:normal;font-size:16px;font-family:Arial;writing-mode:lr-tb;fill:#000000;fill-opacity:1;fill-rule:nonzero;stroke:none"
         x="0"
         y="0">«part»</tspan></text>
    <text
       id="text15"
       xml:space="preserve"
       transform="matrix(0.95404889,0,0,0.95404889,76.283355,278.15125)"
       clip-path="url(#clipPath16)"><tspan
         id="tspan15"
         style="font-variant:normal;font-weight:normal;font-size:16px;font-family:Arial;writing-mode:lr-tb;fill:#000000;fill-opacity:1;fill-rule:nonzero;stroke:none"
         x="0"
         y="0">frontWheel : Wheel [2]</tspan></text>
    <path
       id="path17"
       d="m 2313.3101,16452 -0.3001,29"
       style="fill:none;stroke:#000000;stroke-width:1;stroke-linecap:butt;stroke-linejoin:miter;stroke-miterlimit:10;stroke-dasharray:none;stroke-opacity:1"
       transform="matrix(0.95404889,0,0,0.95404889,-2054.9277,-15479.398)"
       clip-path="url(#clipPath18)" />
    <text
       id="text18"
       xml:space="preserve"
       transform="matrix(0.95404889,0,0,0.95404889,158.13779,240.94335)"
       clip-path="url(#clipPath19)"><tspan
         id="tspan18"
         style="font-variant:normal;font-weight:normal;font-size:12px;font-family:Arial;writing-mode:lr-tb;fill:#000000;fill-opacity:1;fill-rule:nonzero;stroke:none"
         x="0"
         y="0">2</tspan></text>
    <path
       id="path20"
       d="m 2262,16412 h 103.03 c 0.5252,0 1.0454,0.05 1.5603,0.154 0.5154,0.102 1.0157,0.252 1.5008,0.453 0.4853,0.202 0.9465,0.448 1.3833,0.741 0.4367,0.291 0.841,0.623 1.2124,0.994 0.3713,0.371 0.7028,0.775 0.9948,1.211 0.2918,0.435 0.5384,0.896 0.7393,1.382 0.2009,0.487 0.3528,0.987 0.4553,1.502 0.1026,0.516 0.1538,1.038 0.1538,1.563 v 24 c 0,0.525 -0.051,1.045 -0.1538,1.56 -0.1025,0.514 -0.2544,1.014 -0.4555,1.5 -0.201,0.485 -0.4476,0.946 -0.7393,1.383 -0.2918,0.436 -0.6233,0.84 -0.9946,1.213 -0.3714,0.371 -0.7757,0.703 -1.2124,0.994 -0.4368,0.291 -0.898,0.537 -1.3831,0.739 -0.4853,0.201 -0.9856,0.351 -1.5007,0.455 -0.5152,0.103 -1.0354,0.156 -1.5606,0.156 H 2262 c -0.5254,0 -1.0457,-0.05 -1.561,-0.154 -0.5152,-0.104 -1.0154,-0.256 -1.5008,-0.457 -0.4853,-0.202 -0.9463,-0.448 -1.383,-0.739 -0.4368,-0.291 -0.8408,-0.623 -1.2122,-0.994 -0.3713,-0.373 -0.7031,-0.777 -0.9949,-1.213 -0.2919,-0.437 -0.5385,-0.898 -0.7395,-1.383 -0.2009,-0.486 -0.3525,-0.986 -0.455,-1.5 -0.1023,-0.515 -0.1536,-1.035 -0.1536,-1.56 v -24 c 0,-0.525 0.051,-1.047 0.1536,-1.563 0.1025,-0.515 0.2541,-1.015 0.455,-1.5 0.201,-0.486 0.4476,-0.947 0.7395,-1.384 0.2918,-0.436 0.6236,-0.84 0.9949,-1.211 0.3714,-0.371 0.7757,-0.703 1.2124,-0.994 0.4365,-0.293 0.8975,-0.539 1.3828,-0.741 0.4854,-0.201 0.9856,-0.351 1.5008,-0.453 0.5153,-0.103 1.0356,-0.154 1.561,-0.154 z"
       style="fill:#ffffff;fill-opacity:1;fill-rule:nonzero;stroke:#000000;stroke-width:1;stroke-linecap:butt;stroke-linejoin:miter;stroke-miterlimit:10;stroke-dasharray:none;stroke-opacity:1"
       transform="matrix(0.95404889,0,0,0.95404889,-2054.9277,-15479.398)"
       clip-path="url(#clipPath21)" />
    <text
       id="text21"
       xml:space="preserve"
       transform="matrix(0.95404889,0,0,0.95404889,131.09642,193.2409)"
       clip-path="url(#clipPath22)"><tspan
         id="tspan21"
         style="font-variant:normal;font-weight:normal;font-size:16px;font-family:Arial;writing-mode:lr-tb;fill:#000000;fill-opacity:1;fill-rule:nonzero;stroke:none"
         x="0"
         y="0">«part»</tspan></text>
    <text
       id="text22"
       xml:space="preserve"
       transform="matrix(0.95404889,0,0,0.95404889,101.83393,212.32188)"
       clip-path="url(#clipPath23)"><tspan
         id="tspan22"
         style="font-variant:normal;font-weight:normal;font-size:16px;font-family:Arial;writing-mode:lr-tb;fill:#000000;fill-opacity:1;fill-rule:nonzero;stroke:none"
         x="0"
         dx="0 0 0 0 0 0 0 0 0 0 0 0 -0.88281226"
         y="0">frontAxle : Axle</tspan></text>
    <path
       id="path24"
       d="m 2453,16360 h 221.97 c 0.6628,0 1.3005,0.127 1.9131,0.38 0.6125,0.253 1.153,0.614 1.622,1.083 0.469,0.468 0.8303,1.008 1.084,1.621 0.2537,0.613 0.3806,1.252 0.3809,1.916 v 160 c -3e-4,0.662 -0.1272,1.301 -0.3809,1.912 -0.2537,0.611 -0.615,1.152 -1.084,1.623 -0.469,0.467 -1.0095,0.828 -1.622,1.082 -0.6126,0.254 -1.2503,0.381 -1.9131,0.383 H 2453 c -0.6631,0 -1.301,-0.129 -1.9136,-0.383 -0.6128,-0.254 -1.1535,-0.615 -1.6223,-1.082 -0.469,-0.471 -0.8301,-1.012 -1.0837,-1.623 -0.2537,-0.611 -0.3806,-1.25 -0.3804,-1.912 v -160 c -2e-4,-0.664 0.1267,-1.303 0.3804,-1.916 0.2536,-0.613 0.6147,-1.153 1.0837,-1.621 0.4688,-0.469 1.0095,-0.83 1.6223,-1.083 0.6126,-0.253 1.2505,-0.38 1.9136,-0.38 z"
       style="fill:#ffffff;fill-opacity:1;fill-rule:nonzero;stroke:#000000;stroke-width:1;stroke-linecap:butt;stroke-linejoin:miter;stroke-miterlimit:10;stroke-dasharray:none;stroke-opacity:1"
       transform="matrix(0.95404889,0,0,0.95404889,-2054.9277,-15479.398)"
       clip-path="url(#clipPath25)" />
    <text
       id="text25"
       xml:space="preserve"
       transform="matrix(0.95404889,0,0,0.95404889,369.60864,149.35465)"
       clip-path="url(#clipPath26)"><tspan
         id="tspan25"
         style="font-variant:normal;font-weight:normal;font-size:16px;font-family:Arial;writing-mode:lr-tb;fill:#000000;fill-opacity:1;fill-rule:nonzero;stroke:none"
         x="0"
         y="0">«part»</tspan></text>
    <text
       id="text26"
       xml:space="preserve"
       transform="matrix(0.95404889,0,0,0.95404889,329.74734,167.48158)"
       clip-path="url(#clipPath27)"><tspan
         id="tspan26"
         style="font-variant:normal;font-weight:normal;font-size:16px;font-family:Arial;writing-mode:lr-tb;fill:#000000;fill-opacity:1;fill-rule:nonzero;stroke:none"
         x="0"
         y="0">rearAxleAssembly</tspan></text>
    <path
       id="path28"
       d="m 2487.98,16481 h 154 c 0.5251,0 1.0454,0.05 1.5605,0.152 0.5152,0.104 1.0154,0.254 1.5008,0.455 0.4851,0.202 0.9462,0.45 1.383,0.741 0.4368,0.291 0.8408,0.623 1.2124,0.996 0.3714,0.371 0.7029,0.775 0.9946,1.211 0.2918,0.435 0.5384,0.896 0.7393,1.382 0.2009,0.487 0.3528,0.987 0.4553,1.502 0.1026,0.514 0.1538,1.036 0.1541,1.561 v 24 c -3e-4,0.525 -0.052,1.045 -0.1541,1.559 -0.1025,0.515 -0.2544,1.015 -0.4553,1.501 -0.2009,0.485 -0.4475,0.946 -0.7393,1.383 -0.2917,0.436 -0.6232,0.84 -0.9946,1.213 -0.3716,0.371 -0.7756,0.703 -1.2124,0.994 -0.4368,0.291 -0.8979,0.537 -1.383,0.739 -0.4854,0.201 -0.9856,0.353 -1.5008,0.455 -0.5151,0.103 -1.0354,0.154 -1.5605,0.156 h -154 c -0.5252,0 -1.0454,-0.05 -1.5608,-0.156 -0.5151,-0.102 -1.0154,-0.254 -1.5007,-0.455 -0.4854,-0.202 -0.9466,-0.448 -1.3833,-0.739 -0.4368,-0.291 -0.8409,-0.623 -1.2122,-0.994 -0.3713,-0.373 -0.7031,-0.777 -0.9951,-1.213 -0.2918,-0.437 -0.5381,-0.898 -0.739,-1.383 -0.2012,-0.486 -0.3531,-0.986 -0.4554,-1.501 -0.1025,-0.514 -0.1538,-1.034 -0.1535,-1.559 v -24 c -3e-4,-0.525 0.051,-1.047 0.1535,-1.561 0.1023,-0.515 0.2542,-1.015 0.4554,-1.502 0.2009,-0.486 0.4472,-0.947 0.739,-1.382 0.292,-0.436 0.6238,-0.84 0.9951,-1.211 0.3713,-0.373 0.7754,-0.705 1.2122,-0.996 0.4367,-0.291 0.8977,-0.539 1.383,-0.741 0.4854,-0.201 0.9856,-0.351 1.501,-0.455 0.5154,-0.101 1.0356,-0.152 1.5608,-0.152 z"
       style="fill:#ffffff;fill-opacity:1;fill-rule:nonzero;stroke:#000000;stroke-width:1;stroke-linecap:butt;stroke-linejoin:miter;stroke-miterlimit:10;stroke-dasharray:none;stroke-opacity:1"
       transform="matrix(0.95404889,0,0,0.95404889,-2054.9277,-15479.398)"
       clip-path="url(#clipPath29)" />
    <text
       id="text29"
       xml:space="preserve"
       transform="matrix(0.95404889,0,0,0.95404889,370.56269,259.07027)"
       clip-path="url(#clipPath30)"><tspan
         id="tspan29"
         style="font-variant:normal;font-weight:normal;font-size:16px;font-family:Arial;writing-mode:lr-tb;fill:#000000;fill-opacity:1;fill-rule:nonzero;stroke:none"
         x="0"
         y="0">«part»</tspan></text>
    <text
       id="text30"
       xml:space="preserve"
       transform="matrix(0.95404889,0,0,0.95404889,318.40303,278.15125)"
       clip-path="url(#clipPath31)"><tspan
         id="tspan30"
         style="font-variant:normal;font-weight:normal;font-size:16px;font-family:Arial;writing-mode:lr-tb;fill:#000000;fill-opacity:1;fill-rule:nonzero;stroke:none"
         x="0"
         y="0">rearWheel : Wheel [2]</tspan></text>
    <path
       id="path32"
       d="m 2565.28,16452 -0.3,29"
       style="fill:none;stroke:#000000;stroke-width:1;stroke-linecap:butt;stroke-linejoin:miter;stroke-miterlimit:10;stroke-dasharray:none;stroke-opacity:1"
       transform="matrix(0.95404889,0,0,0.95404889,-2054.9277,-15479.398)"
       clip-path="url(#clipPath33)" />
    <text
       id="text33"
       xml:space="preserve"
       transform="matrix(0.95404889,0,0,0.95404889,398.55811,240.94335)"
       clip-path="url(#clipPath34)"><tspan
         id="tspan33"
         style="font-variant:normal;font-weight:normal;font-size:12px;font-family:Arial;writing-mode:lr-tb;fill:#000000;fill-opacity:1;fill-rule:nonzero;stroke:none"
         x="0"
         y="0">2</tspan></text>
    <path
       id="path35"
       d="M 2513.97,16412 H 2617 c 0.5251,0 1.0452,0.05 1.5605,0.154 0.5152,0.102 1.0154,0.252 1.5008,0.453 0.4851,0.202 0.9463,0.448 1.383,0.741 0.4368,0.291 0.8411,0.623 1.2124,0.994 0.3714,0.371 0.7032,0.775 0.9949,1.211 0.2918,0.435 0.5381,0.896 0.739,1.382 0.2012,0.487 0.3531,0.987 0.4556,1.502 0.1025,0.516 0.1538,1.038 0.1538,1.563 v 24 c 0,0.525 -0.051,1.045 -0.1538,1.56 -0.1025,0.514 -0.2544,1.014 -0.4556,1.5 -0.2009,0.485 -0.4472,0.946 -0.739,1.383 -0.2917,0.436 -0.6235,0.84 -0.9949,1.213 -0.3713,0.371 -0.7756,0.703 -1.2124,0.994 -0.4367,0.291 -0.8979,0.537 -1.383,0.739 -0.4854,0.201 -0.9856,0.351 -1.5008,0.455 -0.5153,0.103 -1.0354,0.156 -1.5605,0.156 h -103.03 c -0.5254,0 -1.0457,-0.05 -1.5611,-0.154 -0.5153,-0.104 -1.0156,-0.256 -1.5009,-0.457 -0.4851,-0.202 -0.9463,-0.448 -1.3831,-0.739 -0.4368,-0.291 -0.8408,-0.623 -1.2122,-0.994 -0.3715,-0.373 -0.7033,-0.777 -0.9951,-1.213 -0.2917,-0.437 -0.5383,-0.898 -0.7392,-1.383 -0.201,-0.486 -0.3528,-0.986 -0.4551,-1.5 -0.1023,-0.515 -0.1536,-1.035 -0.1533,-1.56 v -24 c -3e-4,-0.525 0.051,-1.047 0.1533,-1.563 0.1023,-0.515 0.2541,-1.015 0.4551,-1.5 0.2009,-0.486 0.4475,-0.947 0.7392,-1.384 0.2918,-0.436 0.6236,-0.84 0.9951,-1.211 0.3714,-0.371 0.7754,-0.703 1.2122,-0.994 0.4368,-0.293 0.898,-0.539 1.3831,-0.741 0.4853,-0.201 0.9856,-0.351 1.5007,-0.453 0.5154,-0.103 1.0359,-0.154 1.5613,-0.154 z"
       style="fill:#ffffff;fill-opacity:1;fill-rule:nonzero;stroke:#000000;stroke-width:1;stroke-linecap:butt;stroke-linejoin:miter;stroke-miterlimit:10;stroke-dasharray:none;stroke-opacity:1"
       transform="matrix(0.95404889,0,0,0.95404889,-2054.9277,-15479.398)"
       clip-path="url(#clipPath36)" />
    <text
       id="text36"
       xml:space="preserve"
       transform="matrix(0.95404889,0,0,0.95404889,370.56269,193.2409)"
       clip-path="url(#clipPath37)"><tspan
         id="tspan36"
         style="font-variant:normal;font-weight:normal;font-size:16px;font-family:Arial;writing-mode:lr-tb;fill:#000000;fill-opacity:1;fill-rule:nonzero;stroke:none"
         x="0"
         y="0">«part»</tspan></text>
    <text
       id="text37"
       xml:space="preserve"
       transform="matrix(0.95404889,0,0,0.95404889,342.99965,212.32188)"
       clip-path="url(#clipPath38)"><tspan
         id="tspan37"
         style="font-variant:normal;font-weight:normal;font-size:16px;font-family:Arial;writing-mode:lr-tb;fill:#000000;fill-opacity:1;fill-rule:nonzero;stroke:none"
         x="0"
         dx="0 0 0 0 0 0 0 0 0 0 0 -0.88281226"
         y="0">rearAxle : Axle</tspan></text>
    <path
       id="path39"
       d="m 2162,16227 h 315 v 15 c 0,2.76 -2.24,5 -5,5 h -315 v -15 c 0,-2.76 2.24,-5 5,-5 z"
       style="fill:url(#linearGradient40);fill-opacity:1;fill-rule:nonzero;stroke:#000000;stroke-width:1;stroke-linecap:butt;stroke-linejoin:miter;stroke-miterlimit:10;stroke-dasharray:none;stroke-opacity:1"
       transform="matrix(0.95404889,0,0,0.95404889,-2054.9277,-15479.398)"
       clip-path="url(#clipPath40)" />
    <text
       id="text40"
       xml:space="preserve"
       transform="matrix(0.95404889,0,0,0.95404889,4.3868034,14.833759)"
       clip-path="url(#clipPath41)"><tspan
         id="tspan40"
         style="font-variant:normal;font-weight:normal;font-size:12px;font-family:Arial;writing-mode:lr-tb;fill:#000000;fill-opacity:1;fill-rule:nonzero;stroke:none"
         x="0"
         y="0">«view» vehiclePartsInterconnection</tspan></text>
    <g
       id="g41" />
    <text
       id="text41"
       xml:space="preserve"
       transform="matrix(0.95404889,0,0,0.95404889,183.85237,14.833759)"
       clip-path="url(#clipPath42)"><tspan
         id="tspan41"
         style="font-variant:normal;font-weight:normal;font-size:12px;font-family:Arial;writing-mode:lr-tb;fill:#000000;fill-opacity:1;fill-rule:nonzero;stroke:none"
         x="0"
         y="0"> : PartsInterconnection</tspan></text>
    <path
       id="path43"
       d="m 2556,16227 h 161 v 45 c 0,2.76 -2.24,5 -5,5 h -161 v -45 c 0,-2.76 2.24,-5 5,-5 z"
       style="fill:url(#linearGradient44);fill-opacity:1;fill-rule:nonzero;stroke:#000000;stroke-width:1;stroke-linecap:butt;stroke-linejoin:miter;stroke-miterlimit:10;stroke-dasharray:none;stroke-opacity:1"
       transform="matrix(-0.95404889,0,0,0.95404889,2971.0021,-15479.398)"
       clip-path="url(#clipPath44)" />
    <text
       id="text44"
       xml:space="preserve"
       transform="matrix(0.95404889,0,0,0.95404889,380.28207,15.787808)"
       clip-path="url(#clipPath45)"><tspan
         id="tspan44"
         style="font-variant:normal;font-weight:700;font-size:12px;font-family:Arial;writing-mode:lr-tb;fill:#000000;fill-opacity:1;fill-rule:nonzero;stroke:none"
         x="0"
         y="0">expose</tspan></text>
    <g
       id="g45" />
    <text
       id="text45"
       xml:space="preserve"
       transform="matrix(0.95404889,0,0,0.95404889,419.74095,15.787808)"
       clip-path="url(#clipPath46)"><tspan
         id="tspan45"
         style="font-variant:normal;font-weight:normal;font-size:12px;font-family:Arial;writing-mode:lr-tb;fill:#000000;fill-opacity:1;fill-rule:nonzero;stroke:none"
         x="0"
         y="0"> vehicle_b::**</tspan></text>
    <text
       id="text46"
       xml:space="preserve"
       transform="matrix(0.95404889,0,0,0.95404889,380.28207,29.144492)"
       clip-path="url(#clipPath47)"><tspan
         id="tspan46"
         style="font-variant:normal;font-weight:700;font-size:12px;font-family:Arial;writing-mode:lr-tb;fill:#000000;fill-opacity:1;fill-rule:nonzero;stroke:none"
         x="0"
         y="0">filter</tspan></text>
    <g
       id="g47" />
    <text
       id="text47"
       xml:space="preserve"
       transform="matrix(0.95404889,0,0,0.95404889,405.10222,29.144492)"
       clip-path="url(#clipPath48)"><tspan
         id="tspan47"
         style="font-variant:normal;font-weight:normal;font-size:12px;font-family:Arial;writing-mode:lr-tb;fill:#000000;fill-opacity:1;fill-rule:nonzero;stroke:none"
         x="0"
         y="0"> @SysML::PartUsage </tspan></text>
    <text
       id="text48"
       xml:space="preserve"
       transform="matrix(0.95404889,0,0,0.95404889,518.52976,29.144492)"
       clip-path="url(#clipPath49)"><tspan
         id="tspan48"
         style="font-variant:normal;font-weight:700;font-size:12px;font-family:Arial;writing-mode:lr-tb;fill:#000000;fill-opacity:1;fill-rule:nonzero;stroke:none"
         x="0"
         y="0">or</tspan></text>
    <text
       id="text49"
       xml:space="preserve"
       transform="matrix(0.95404889,0,0,0.95404889,380.28207,43.455226)"
       clip-path="url(#clipPath50)"><tspan
         id="tspan49"
         style="font-variant:normal;font-weight:normal;font-size:12px;font-family:Arial;writing-mode:lr-tb;fill:#000000;fill-opacity:1;fill-rule:nonzero;stroke:none"
         x="0"
         y="0">@SysML::ConnectionUsage</tspan></text>
    <path
       id="path51"
       d="m 2556,16560 h 161 v 40 c 0,2.76 -2.24,5 -5,5 h -161 v -40 c 0,-2.76 2.24,-5 5,-5 z"
       style="fill:url(#linearGradient52);fill-opacity:1;fill-rule:nonzero;stroke:#000000;stroke-width:1;stroke-linecap:butt;stroke-linejoin:miter;stroke-miterlimit:10;stroke-dasharray:none;stroke-opacity:1"
       transform="matrix(0.95404889,0,0,0.95404889,-2054.9277,-15479.398)"
       clip-path="url(#clipPath52)" />
    <g
       id="g52" />
    <g
       id="g53" />
    <g
       id="g54" />
    <g
       id="g55" />
    <g
       id="g56" />
    <g
       id="g57" />
    <g
       id="g58" />
    <g
       id="g59" />
    <g
       id="g60" />
    <text
       id="text60"
       xml:space="preserve"
       transform="matrix(0.95404889,0,0,0.95404889,380.28207,331.57799)"
       clip-path="url(#clipPath60)"><tspan
         id="tspan60"
         style="font-variant:normal;font-weight:normal;font-size:8px;font-family:Arial;writing-mode:lr-tb;fill:#000000;fill-opacity:1;fill-rule:nonzero;stroke:none"
         x="0"
         y="0">Date: 2024-06-05                 Status: Draft</tspan></text>
    <text
       id="text61"
       xml:space="preserve"
       transform="matrix(0.95404889,0,0,0.95404889,380.28207,344.93467)"
       clip-path="url(#clipPath61)"><tspan
         id="tspan61"
         style="font-variant:normal;font-weight:normal;font-size:8px;font-family:Arial;writing-mode:lr-tb;fill:#000000;fill-opacity:1;fill-rule:nonzero;stroke:none"
         x="0"
         y="0">Project: My Project XYZ</tspan></text>
    <text
       id="text62"
       xml:space="preserve"
       transform="matrix(0.95404889,0,0,0.95404889,380.28207,359.24541)"
       clip-path="url(#clipPath62)"><tspan
         id="tspan62"
         style="font-variant:normal;font-weight:normal;font-size:8px;font-family:Arial;writing-mode:lr-tb;fill:#000000;fill-opacity:1;fill-rule:nonzero;stroke:none"
         x="0"
         y="0">Author: John Doe</tspan></text>
  </g>
</svg>
