<?xml version="1.0" encoding="UTF-8" standalone="no"?>
<!-- Created with Inkscape (http://www.inkscape.org/) -->

<svg
   version="1.1"
   id="svg1"
   width="155.84"
   height="118.72"
   viewBox="0 0 155.84 118.72"
   xmlns="http://www.w3.org/2000/svg"
   xmlns:svg="http://www.w3.org/2000/svg">
  <defs
     id="defs1">
    <clipPath
       clipPathUnits="userSpaceOnUse"
       id="clipPath2">
      <path
         d="M 0,0 H 488 V 368.99414 H 0 Z"
         transform="scale(0.31999999)"
         clip-rule="evenodd"
         id="path2" />
    </clipPath>
    <clipPath
       clipPathUnits="userSpaceOnUse"
       id="clipPath4">
      <path
         d="M 3.125,3.125 H 487.5 V 368.75 H 3.125 Z"
         transform="matrix(0.34063817,0,0,0.34063817,356.85021,2076.8711)"
         clip-rule="evenodd"
         id="path4" />
    </clipPath>
    <clipPath
       clipPathUnits="userSpaceOnUse"
       id="clipPath5">
      <path
         d="M 3.125,3.125 H 487.5 V 368.75 H 3.125 Z"
         transform="matrix(0.34063817,0,0,0.34063817,-58.24356,-18.62891)"
         clip-rule="evenodd"
         id="path5" />
    </clipPath>
    <clipPath
       clipPathUnits="userSpaceOnUse"
       id="clipPath6">
      <path
         d="M 3.125,3.125 H 487.5 V 368.75 H 3.125 Z"
         transform="matrix(0.34063817,0,0,0.34063817,-34.38419,-38.628911)"
         clip-rule="evenodd"
         id="path6" />
    </clipPath>
    <clipPath
       clipPathUnits="userSpaceOnUse"
       id="clipPath8">
      <path
         d="M 3.125,3.125 H 487.5 V 368.75 H 3.125 Z"
         transform="matrix(0.34063817,0,0,0.34063817,356.85021,2076.8711)"
         clip-rule="evenodd"
         id="path8" />
    </clipPath>
    <clipPath
       clipPathUnits="userSpaceOnUse"
       id="clipPath9">
      <path
         d="M 3.125,3.125 H 487.5 V 368.75 H 3.125 Z"
         transform="matrix(0.34063817,0,0,0.34063817,-60.46231,-98.62891)"
         clip-rule="evenodd"
         id="path9" />
    </clipPath>
    <clipPath
       clipPathUnits="userSpaceOnUse"
       id="clipPath10">
      <path
         d="M 3.125,3.125 H 487.5 V 368.75 H 3.125 Z"
         transform="matrix(0.34063817,0,0,0.34063817,-39.13419,-118.62891)"
         clip-rule="evenodd"
         id="path10" />
    </clipPath>
    <clipPath
       clipPathUnits="userSpaceOnUse"
       id="clipPath12">
      <path
         d="M 3.125,3.125 H 487.5 V 368.75 H 3.125 Z"
         transform="matrix(0.34063817,0,0,0.34063817,356.85021,2076.8711)"
         clip-rule="evenodd"
         id="path12" />
    </clipPath>
    <clipPath
       clipPathUnits="userSpaceOnUse"
       id="clipPath14">
      <path
         d="M 3.125,3.125 H 487.5 V 368.75 H 3.125 Z"
         transform="matrix(0.34063817,0,0,0.34063817,356.85021,2076.8711)"
         clip-rule="evenodd"
         id="path14" />
    </clipPath>
    <clipPath
       clipPathUnits="userSpaceOnUse"
       id="clipPath16">
      <path
         d="M 3.125,3.125 H 487.5 V 368.75 H 3.125 Z"
         transform="matrix(0.34063817,0,0,0.34063817,357.35019,2077.3711)"
         clip-rule="evenodd"
         id="path16" />
    </clipPath>
    <clipPath
       clipPathUnits="userSpaceOnUse"
       id="clipPath18">
      <path
         d="M 3.125,3.125 H 487.5 V 368.75 H 3.125 Z"
         transform="matrix(0.34063817,0,0,0.34063817,357.35019,2077.3711)"
         clip-rule="evenodd"
         id="path18" />
    </clipPath>
    <clipPath
       clipPathUnits="userSpaceOnUse"
       id="clipPath19">
      <path
         d="M 3.125,3.125 H 487.5 V 368.75 H 3.125 Z"
         transform="matrix(0.34063817,0,0,0.34063817,-25.13419,-62.628911)"
         clip-rule="evenodd"
         id="path19" />
    </clipPath>
  </defs>
  <g
     id="g1">
    <path
       id="path1"
       d="M 0,0 H 156 V 118 H 0 Z"
       style="fill:#ffffff;fill-opacity:1;fill-rule:nonzero;stroke:none"
       clip-path="url(#clipPath2)" />
    <path
       id="path3"
       d="m 367.98001,2080 h 143.99997 c 0.52527,0 1.04553,0.051 1.56073,0.1538 0.5152,0.1023 1.01544,0.2539 1.50073,0.4548 0.48529,0.201 0.94635,0.4476 1.38306,0.7395 0.43683,0.2918 0.84094,0.6236 1.21234,0.9949 0.3714,0.3714 0.70306,0.7754 0.99487,1.2122 0.29181,0.4367 0.53827,0.8977 0.73926,1.383 0.20099,0.4851 0.35278,0.9856 0.45526,1.501 0.10248,0.5151 0.15369,1.0354 0.15375,1.5608 v 24 c -6e-5,0.5251 -0.0513,1.0454 -0.15381,1.5605 -0.10248,0.5152 -0.25421,1.0154 -0.4552,1.5008 -0.20099,0.4851 -0.44745,0.9463 -0.73926,1.383 -0.29181,0.4368 -0.62347,0.8409 -0.99487,1.2124 -0.3714,0.3714 -0.77551,0.7029 -1.21234,0.9947 -0.43677,0.292 -0.89783,0.5385 -1.38312,0.7395 -0.48529,0.2009 -0.98553,0.3525 -1.50073,0.455 -0.5152,0.1028 -1.0354,0.1541 -1.56067,0.1541 H 367.98001 c -0.5253,0 -1.04556,-0.051 -1.56076,-0.1541 -0.51523,-0.1025 -1.01547,-0.2541 -1.50076,-0.455 -0.48532,-0.201 -0.94635,-0.4475 -1.38309,-0.7395 -0.43677,-0.2918 -0.84085,-0.6233 -1.21228,-0.9947 -0.37143,-0.3715 -0.70306,-0.7756 -0.9949,-1.2124 -0.29184,-0.4367 -0.53827,-0.8979 -0.73929,-1.383 -0.20102,-0.4854 -0.35278,-0.9856 -0.45523,-1.5008 -0.10245,-0.5151 -0.15369,-1.0354 -0.15369,-1.5605 v -24 c 0,-0.5254 0.0512,-1.0457 0.15369,-1.5608 0.10245,-0.5154 0.25421,-1.0159 0.45523,-1.501 0.20102,-0.4853 0.44742,-0.9465 0.73926,-1.3833 0.29184,-0.4365 0.6235,-0.8405 0.99493,-1.2119 0.37143,-0.3713 0.77551,-0.7031 1.21228,-0.9949 0.43674,-0.2919 0.89777,-0.5385 1.38309,-0.7395 0.48529,-0.2009 0.98553,-0.3525 1.50076,-0.4548 0.5152,-0.1025 1.03546,-0.1538 1.56076,-0.1538 z"
       style="fill:#ffffff;fill-opacity:1;fill-rule:nonzero;stroke:#000000;stroke-width:1;stroke-linecap:butt;stroke-linejoin:miter;stroke-miterlimit:10;stroke-dasharray:none;stroke-opacity:1"
       transform="matrix(0.93941318,0,0,0.93941318,-335.22979,-1951.0401)"
       clip-path="url(#clipPath4)" />
    <text
       id="text4"
       xml:space="preserve"
       transform="matrix(0.93941318,0,0,0.93941318,54.714768,17.500244)"
       clip-path="url(#clipPath5)"><tspan
         id="tspan4"
         style="font-variant:normal;font-weight:normal;font-size:16px;font-family:Arial;writing-mode:lr-tb;fill:#000000;fill-opacity:1;fill-rule:nonzero;stroke:none"
         x="0"
         y="0">«view»</tspan></text>
    <text
       id="text5"
       xml:space="preserve"
       transform="matrix(0.93941318,0,0,0.93941318,32.300961,36.288508)"
       clip-path="url(#clipPath6)"><tspan
         id="tspan5"
         style="font-variant:normal;font-weight:normal;font-size:16px;font-family:Arial;writing-mode:lr-tb;fill:#000000;fill-opacity:1;fill-rule:nonzero;stroke:none"
         x="0"
         dx="0 0 0 0 0 0 0 0 0 -0.28906241"
         y="0">view1 : View1</tspan></text>
    <path
       id="path7"
       d="m 367.98001,2160 h 143.99997 c 0.52527,0 1.04553,0.051 1.56073,0.1538 0.5152,0.1025 1.01544,0.2542 1.50073,0.4551 0.48529,0.2009 0.94635,0.4475 1.38306,0.7392 0.43683,0.2918 0.84094,0.6236 1.21234,0.9949 0.3714,0.3714 0.70306,0.7752 0.99487,1.2119 0.29181,0.4368 0.53827,0.898 0.73926,1.3833 0.20099,0.4854 0.35278,0.9856 0.45526,1.5008 0.10248,0.5151 0.15369,1.0354 0.15375,1.561 v 24 c -6e-5,0.5251 -0.0513,1.0452 -0.15381,1.5603 -0.10248,0.5154 -0.25421,1.0156 -0.4552,1.5007 -0.20099,0.4854 -0.44745,0.9466 -0.73926,1.3833 -0.29181,0.4368 -0.62347,0.8411 -0.99487,1.2124 -0.3714,0.3714 -0.77551,0.7029 -1.21234,0.9949 -0.43677,0.2918 -0.89783,0.5383 -1.38312,0.7393 -0.48529,0.2009 -0.98553,0.3528 -1.50073,0.4553 -0.5152,0.1025 -1.0354,0.1538 -1.56067,0.1538 H 367.98001 c -0.5253,0 -1.04556,-0.051 -1.56076,-0.1538 -0.51523,-0.1025 -1.01547,-0.2544 -1.50076,-0.4553 -0.48532,-0.201 -0.94635,-0.4475 -1.38309,-0.7393 -0.43677,-0.292 -0.84085,-0.6235 -1.21228,-0.9949 -0.37143,-0.3713 -0.70306,-0.7756 -0.9949,-1.2124 -0.29184,-0.4367 -0.53827,-0.8979 -0.73929,-1.383 -0.20102,-0.4854 -0.35278,-0.9856 -0.45523,-1.501 -0.10245,-0.5151 -0.15369,-1.0352 -0.15369,-1.5603 v -24 c 0,-0.5256 0.0512,-1.0459 0.15369,-1.561 0.10245,-0.5152 0.25421,-1.0154 0.45523,-1.5008 0.20102,-0.4853 0.44742,-0.9465 0.73926,-1.3833 0.29184,-0.4367 0.6235,-0.8405 0.99493,-1.2119 0.37143,-0.3713 0.77551,-0.7029 1.21228,-0.9946 0.43674,-0.292 0.89777,-0.5386 1.38309,-0.7395 0.48529,-0.2009 0.98553,-0.3526 1.50076,-0.4551 0.5152,-0.1025 1.03546,-0.1538 1.56076,-0.1538 z"
       style="fill:#ffffff;fill-opacity:1;fill-rule:nonzero;stroke:#000000;stroke-width:1;stroke-linecap:butt;stroke-linejoin:miter;stroke-miterlimit:10;stroke-dasharray:none;stroke-opacity:1"
       transform="matrix(0.93941318,0,0,0.93941318,-335.22979,-1951.0401)"
       clip-path="url(#clipPath8)" />
    <text
       id="text8"
       xml:space="preserve"
       transform="matrix(0.93941318,0,0,0.93941318,56.799091,92.653298)"
       clip-path="url(#clipPath9)"><tspan
         id="tspan8"
         style="font-variant:normal;font-weight:normal;font-size:16px;font-family:Arial;writing-mode:lr-tb;fill:#000000;fill-opacity:1;fill-rule:nonzero;stroke:none"
         x="0"
         y="0">«part»</tspan></text>
    <text
       id="text9"
       xml:space="preserve"
       transform="matrix(0.93941318,0,0,0.93941318,36.763174,111.44156)"
       clip-path="url(#clipPath10)"><tspan
         id="tspan9"
         style="font-variant:normal;font-weight:normal;font-size:16px;font-family:Arial;writing-mode:lr-tb;fill:#000000;fill-opacity:1;fill-rule:nonzero;stroke:none"
         x="0"
         y="0">part1 : Part1</tspan></text>
    <path
       id="path11"
       d="m 440.48001,2120 v 3 h -1 v -3 m 1,6 v 3 h -1 v -3 m 1,6 v 3 h -1 v -3 m 1,6 v 3 h -1 v -3 m 1,6 v 3 h -1 v -3 m 1,6 v 3 h -1 v -3 m 1,6 v 1.76 h -1 V 2156"
       style="fill:#000000;fill-opacity:1;fill-rule:nonzero;stroke:none"
       transform="matrix(0.93941318,0,0,0.93941318,-335.22979,-1951.0401)"
       clip-path="url(#clipPath12)" />
    <path
       id="path13"
       d="m 435.48001,2149.8799 4.5,9 4.5,-9"
       style="fill:none;stroke:#000000;stroke-width:1;stroke-linecap:butt;stroke-linejoin:miter;stroke-miterlimit:10;stroke-dasharray:none;stroke-opacity:1"
       transform="matrix(0.93941318,0,0,0.93941318,-335.22979,-1951.0401)"
       clip-path="url(#clipPath14)" />
    <path
       id="path15"
       d="m 382,2129 h 53 v 15 h -53 z"
       style="fill:#ffffff;fill-opacity:1;fill-rule:nonzero;stroke:none"
       transform="matrix(0.93941318,0,0,0.93941318,-335.69948,-1951.5098)"
       clip-path="url(#clipPath16)" />
    <path
       id="path17"
       d="m 382,2129 h 53 v 14 h -53 z"
       style="fill:#f8f9fa;fill-opacity:1;fill-rule:nonzero;stroke:none"
       transform="matrix(0.93941318,0,0,0.93941318,-335.69948,-1951.5098)"
       clip-path="url(#clipPath18)" />
    <text
       id="text18"
       xml:space="preserve"
       transform="matrix(0.93941318,0,0,0.93941318,23.611389,58.834424)"
       clip-path="url(#clipPath19)"><tspan
         id="tspan18"
         style="font-variant:normal;font-weight:normal;font-size:12px;font-family:Arial;writing-mode:lr-tb;fill:#000000;fill-opacity:1;fill-rule:nonzero;stroke:none"
         x="0"
         y="0">«expose»</tspan></text>
  </g>
</svg>
