<?xml version="1.0" encoding="UTF-8" standalone="no"?>
<!-- Created with Inkscape (http://www.inkscape.org/) -->

<svg
   version="1.1"
   id="svg1"
   width="214.71999"
   height="89.279999"
   viewBox="0 0 214.71999 89.279999"
   xmlns="http://www.w3.org/2000/svg"
   xmlns:svg="http://www.w3.org/2000/svg">
  <defs
     id="defs1">
    <clipPath
       clipPathUnits="userSpaceOnUse"
       id="clipPath2">
      <path
         d="M 0,0 H 668.99414 V 279.00391 H 0 Z"
         transform="scale(0.31999999)"
         clip-rule="evenodd"
         id="path2" />
    </clipPath>
    <clipPath
       clipPathUnits="userSpaceOnUse"
       id="clipPath4">
      <path
         d="m 3.125,0 h 662.5 V 278.125 H 3.125 Z"
         transform="matrix(0.33864854,0,0,0.33864854,533.8738,16665.941)"
         clip-rule="evenodd"
         id="path4" />
    </clipPath>
    <clipPath
       clipPathUnits="userSpaceOnUse"
       id="clipPath6">
      <path
         d="m 3.125,0 h 662.5 V 278.125 H 3.125 Z"
         transform="matrix(0.33864854,0,0,0.33864854,533.8738,16665.941)"
         clip-rule="evenodd"
         id="path6" />
    </clipPath>
    <clipPath
       clipPathUnits="userSpaceOnUse"
       id="clipPath8">
      <path
         d="m 3.125,0 h 662.5 V 278.125 H 3.125 Z"
         transform="matrix(0.33864854,0,0,0.33864854,533.8738,16665.941)"
         clip-rule="evenodd"
         id="path8" />
    </clipPath>
    <clipPath
       clipPathUnits="userSpaceOnUse"
       id="clipPath9">
      <path
         d="m 3.125,0 h 662.5 V 278.125 H 3.125 Z"
         transform="matrix(0.33864854,0,0,0.33864854,-70.876172,-23.559325)"
         clip-rule="evenodd"
         id="path9" />
    </clipPath>
    <clipPath
       clipPathUnits="userSpaceOnUse"
       id="clipPath10">
      <path
         d="m 3.125,0 h 662.5 V 278.125 H 3.125 Z"
         transform="matrix(0.33864854,0,0,0.33864854,-17.219921,-42.559325)"
         clip-rule="evenodd"
         id="path10" />
    </clipPath>
    <clipPath
       clipPathUnits="userSpaceOnUse"
       id="clipPath11">
      <path
         d="m 181.97681,161.10937 h 301.19727 v 44.29297 H 181.97681 Z"
         transform="matrix(0.33864854,0,0,0.33864854,-61.938672,-65.559325)"
         clip-rule="evenodd"
         id="path11" />
    </clipPath>
    <clipPath
       clipPathUnits="userSpaceOnUse"
       id="clipPath12">
      <path
         d="m 25.47229,220.16797 h 38.387939 v 44.29297 H 25.47229 Z"
         transform="matrix(0.33864854,0,0,0.33864854,-8.6261713,-85.559325)"
         clip-rule="evenodd"
         id="path12" />
    </clipPath>
  </defs>
  <g
     id="g1">
    <path
       id="path1"
       d="M 0,0 H 214 V 89 H 0 Z"
       style="fill:#ffffff;fill-opacity:1;fill-rule:nonzero;stroke:none"
       clip-path="url(#clipPath2)" />
    <path
       id="path3"
       d="m 757,16718 v -42.5 c 0,-5 -2.5,-7.5 -7.5,-7.5 h -205 c -5,0 -7.5,2.5 -7.5,7.5 v 42.5"
       style="fill:none;stroke:#000000;stroke-width:1;stroke-linecap:butt;stroke-linejoin:miter;stroke-miterlimit:10;stroke-dasharray:none;stroke-opacity:1"
       transform="matrix(0.94493244,0,0,0.94493244,-504.47467,-15748.188)"
       clip-path="url(#clipPath4)" />
    <path
       id="path5"
       d="m 537,16718 v 32.5 c 0,5 2.5,7.5 7.5,7.5 h 205 c 5,0 7.5,-2.5 7.5,-7.5 v -32.5"
       style="fill:none;stroke:#000000;stroke-width:1;stroke-linecap:butt;stroke-linejoin:miter;stroke-miterlimit:10;stroke-dasharray:none;stroke-opacity:1"
       transform="matrix(0.94493244,0,0,0.94493244,-504.47467,-15748.188)"
       clip-path="url(#clipPath6)" />
    <path
       id="path7"
       d="M 537,16718 H 757"
       style="fill:none;stroke:#000000;stroke-width:1;stroke-linecap:butt;stroke-linejoin:miter;stroke-miterlimit:10;stroke-dasharray:none;stroke-opacity:1"
       transform="matrix(0.94493244,0,0,0.94493244,-504.47467,-15748.188)"
       clip-path="url(#clipPath8)" />
    <text
       id="text8"
       xml:space="preserve"
       transform="matrix(0.94493244,0,0,0.94493244,66.973194,22.26197)"
       clip-path="url(#clipPath9)"><tspan
         id="tspan8"
         style="font-variant:normal;font-weight:normal;font-size:16px;font-family:Arial;writing-mode:lr-tb;fill:#000000;fill-opacity:1;fill-rule:nonzero;stroke:none"
         x="0"
         y="0">«viewpoint»</tspan></text>
    <text
       id="text9"
       xml:space="preserve"
       transform="matrix(0.94493244,0,0,0.94493244,16.271662,40.215687)"
       clip-path="url(#clipPath10)"><tspan
         id="tspan9"
         style="font-variant:normal;font-weight:normal;font-size:16px;font-family:Arial;writing-mode:lr-tb;fill:#000000;fill-opacity:1;fill-rule:nonzero;stroke:none"
         x="0"
         dx="0 0 0 0 0 0 0 0 0 0 0 0 0 0 -0.28906173"
         y="0">viewpoint1 : ViewpointDef1</tspan></text>
    <text
       id="text10"
       xml:space="preserve"
       transform="matrix(0.94493244,0,0,0.94493244,58.52786,61.949133)"
       clip-path="url(#clipPath11)"><tspan
         id="tspan10"
         style="font-style:italic;font-variant:normal;font-weight:normal;font-size:12px;font-family:Arial;writing-mode:lr-tb;fill:#000000;fill-opacity:1;fill-rule:nonzero;stroke:none"
         x="0"
         y="0">compartment stack</tspan></text>
    <text
       id="text11"
       xml:space="preserve"
       transform="matrix(0.94493244,0,0,0.94493244,8.1511491,80.847782)"
       clip-path="url(#clipPath12)"><tspan
         id="tspan11"
         style="font-variant:normal;font-weight:normal;font-size:12px;font-family:Arial;writing-mode:lr-tb;fill:#000000;fill-opacity:1;fill-rule:nonzero;stroke:none"
         x="0"
         y="0">•••</tspan></text>
  </g>
</svg>
