<?xml version="1.0" encoding="UTF-8" standalone="no"?>
<!-- Created with Inkscape (http://www.inkscape.org/) -->

<svg
   version="1.1"
   id="svg1"
   width="254.71999"
   height="73.279999"
   viewBox="0 0 254.71999 73.279999"
   xmlns="http://www.w3.org/2000/svg"
   xmlns:svg="http://www.w3.org/2000/svg">
  <defs
     id="defs1">
    <clipPath
       clipPathUnits="userSpaceOnUse"
       id="clipPath2">
      <path
         d="M 0,0 H 795.01953 V 227.97852 H 0 Z"
         transform="scale(0.31999999)"
         clip-rule="evenodd"
         id="path2" />
    </clipPath>
    <clipPath
       clipPathUnits="userSpaceOnUse"
       id="clipPath4">
      <path
         d="m 3.125,0 h 787.5 V 227.97852 H 3.125 Z"
         transform="matrix(0.33785111,0,0,0.33785111,434.8602,7246.0003)"
         clip-rule="evenodd"
         id="path4" />
    </clipPath>
    <clipPath
       clipPathUnits="userSpaceOnUse"
       id="clipPath5">
      <path
         d="m 3.125,0 h 787.5 V 227.97852 H 3.125 Z"
         transform="matrix(0.33785111,0,0,0.33785111,-85.999207,-18.500078)"
         clip-rule="evenodd"
         id="path5" />
    </clipPath>
    <clipPath
       clipPathUnits="userSpaceOnUse"
       id="clipPath6">
      <path
         d="m 3.125,0 h 787.5 V 227.97852 H 3.125 Z"
         transform="matrix(0.33785111,0,0,0.33785111,-4.6398269,-33.500078)"
         clip-rule="evenodd"
         id="path6" />
    </clipPath>
    <clipPath
       clipPathUnits="userSpaceOnUse"
       id="clipPath7">
      <path
         d="m 3.125,0 h 787.5 V 227.97852 H 3.125 Z"
         transform="matrix(0.33785111,0,0,0.33785111,-147.38982,-33.500078)"
         clip-rule="evenodd"
         id="path7" />
    </clipPath>
    <clipPath
       clipPathUnits="userSpaceOnUse"
       id="clipPath8">
      <path
         d="m 3.125,0 h 787.5 V 227.97852 H 3.125 Z"
         transform="matrix(0.33785111,0,0,0.33785111,-192.07733,-33.500078)"
         clip-rule="evenodd"
         id="path8" />
    </clipPath>
    <clipPath
       clipPathUnits="userSpaceOnUse"
       id="clipPath9">
      <path
         d="m 3.125,0 h 787.5 V 227.97852 H 3.125 Z"
         transform="matrix(0.33785111,0,0,0.33785111,-195.42107,-33.500078)"
         clip-rule="evenodd"
         id="path9" />
    </clipPath>
    <clipPath
       clipPathUnits="userSpaceOnUse"
       id="clipPath10">
      <path
         d="m 3.125,0 h 787.5 V 227.97852 H 3.125 Z"
         transform="matrix(0.33785111,0,0,0.33785111,-4.6398269,-51.500079)"
         clip-rule="evenodd"
         id="path10" />
    </clipPath>
  </defs>
  <g
     id="g1">
    <path
       id="path1"
       d="M 0,0 H 254 V 73 H 0 Z"
       style="fill:#ffffff;fill-opacity:1;fill-rule:nonzero;stroke:none"
       clip-path="url(#clipPath2)" />
    <path
       id="path3"
       d="m 438,7247 h 262 v 60 H 438 Z"
       style="fill:#ffffff;fill-opacity:1;fill-rule:nonzero;stroke:#000000;stroke-width:1;stroke-linecap:butt;stroke-linejoin:miter;stroke-miterlimit:10;stroke-dasharray:none;stroke-opacity:1"
       transform="matrix(0.94716274,0,0,0.94716274,-411.88338,-6863.1415)"
       clip-path="url(#clipPath4)" />
    <g
       id="g4" />
    <g
       id="g5" />
    <text
       id="text5"
       xml:space="preserve"
       transform="matrix(0.94716274,0,0,0.94716274,81.455245,17.522585)"
       clip-path="url(#clipPath5)"><tspan
         id="tspan5"
         style="font-style:italic;font-variant:normal;font-weight:normal;font-size:12px;font-family:Arial;writing-mode:lr-tb;fill:#000000;fill-opacity:1;fill-rule:nonzero;stroke:none"
         x="0"
         y="0"> frame concerns </tspan></text>
    <text
       id="text6"
       xml:space="preserve"
       transform="matrix(0.94716274,0,0,0.94716274,4.3946712,31.730026)"
       clip-path="url(#clipPath6)"><tspan
         id="tspan6"
         style="font-variant:normal;font-weight:normal;font-size:12px;font-family:Arial;writing-mode:lr-tb;fill:#000000;fill-opacity:1;fill-rule:nonzero;stroke:none"
         x="0"
         y="0">concern1 : Concern1 [1..*] </tspan></text>
    <text
       id="text7"
       xml:space="preserve"
       transform="matrix(0.94716274,0,0,0.94716274,139.60215,31.730026)"
       clip-path="url(#clipPath7)"><tspan
         id="tspan7"
         style="font-variant:normal;font-weight:700;font-size:12px;font-family:Arial;writing-mode:lr-tb;fill:#000000;fill-opacity:1;fill-rule:nonzero;stroke:none"
         x="0"
         y="0">ordered</tspan></text>
    <text
       id="text8"
       xml:space="preserve"
       transform="matrix(0.94716274,0,0,0.94716274,181.92849,31.730026)"
       clip-path="url(#clipPath8)"><tspan
         id="tspan8"
         style="font-variant:normal;font-weight:normal;font-size:12px;font-family:Arial;writing-mode:lr-tb;fill:#000000;fill-opacity:1;fill-rule:nonzero;stroke:none"
         x="0"
         y="0"> </tspan></text>
    <text
       id="text9"
       xml:space="preserve"
       transform="matrix(0.94716274,0,0,0.94716274,185.09556,31.730026)"
       clip-path="url(#clipPath9)"><tspan
         id="tspan9"
         style="font-variant:normal;font-weight:700;font-size:12px;font-family:Arial;writing-mode:lr-tb;fill:#000000;fill-opacity:1;fill-rule:nonzero;stroke:none"
         x="0"
         y="0">nonunique</tspan></text>
    <text
       id="text10"
       xml:space="preserve"
       transform="matrix(0.94716274,0,0,0.94716274,4.3946712,48.778956)"
       clip-path="url(#clipPath10)"><tspan
         id="tspan10"
         style="font-variant:normal;font-weight:700;font-size:14px;font-family:Arial;writing-mode:lr-tb;fill:#000000;fill-opacity:1;fill-rule:nonzero;stroke:none"
         x="0"
         y="0">...</tspan></text>
  </g>
</svg>
