<?xml version="1.0" encoding="UTF-8" standalone="no"?>
<!-- Created with Inkscape (http://www.inkscape.org/) -->

<svg
   version="1.1"
   id="svg1"
   width="155.84"
   height="89.279999"
   viewBox="0 0 155.84 89.279999"
   xmlns="http://www.w3.org/2000/svg"
   xmlns:svg="http://www.w3.org/2000/svg">
  <defs
     id="defs1">
    <clipPath
       clipPathUnits="userSpaceOnUse"
       id="clipPath2">
      <path
         d="M 0,0 H 488 V 279.00391 H 0 Z"
         transform="scale(0.31999999)"
         clip-rule="evenodd"
         id="path2" />
    </clipPath>
    <clipPath
       clipPathUnits="userSpaceOnUse"
       id="clipPath4">
      <path
         d="M 3.125,0 H 487.5 V 278.125 H 3.125 Z"
         transform="matrix(0.34065814,0,0,0.34065814,36.855267,16665.935)"
         clip-rule="evenodd"
         id="path4" />
    </clipPath>
    <clipPath
       clipPathUnits="userSpaceOnUse"
       id="clipPath6">
      <path
         d="M 3.125,0 H 487.5 V 278.125 H 3.125 Z"
         transform="matrix(0.34065814,0,0,0.34065814,36.855267,16665.935)"
         clip-rule="evenodd"
         id="path6" />
    </clipPath>
    <clipPath
       clipPathUnits="userSpaceOnUse"
       id="clipPath8">
      <path
         d="M 3.125,0 H 487.5 V 278.125 H 3.125 Z"
         transform="matrix(0.34065814,0,0,0.34065814,36.855267,16665.935)"
         clip-rule="evenodd"
         id="path8" />
    </clipPath>
    <clipPath
       clipPathUnits="userSpaceOnUse"
       id="clipPath9">
      <path
         d="M 3.125,0 H 487.5 V 278.125 H 3.125 Z"
         transform="matrix(0.34065814,0,0,0.34065814,-27.550984,-23.565094)"
         clip-rule="evenodd"
         id="path9" />
    </clipPath>
    <clipPath
       clipPathUnits="userSpaceOnUse"
       id="clipPath10">
      <path
         d="M 3.125,0 H 487.5 V 278.125 H 3.125 Z"
         transform="matrix(0.34065814,0,0,0.34065814,-31.691609,-42.565094)"
         clip-rule="evenodd"
         id="path10" />
    </clipPath>
    <clipPath
       clipPathUnits="userSpaceOnUse"
       id="clipPath11">
      <path
         d="M 92.892937,160.17578 H 392.31335 v 44.03125 H 92.892937 Z"
         transform="matrix(0.34065814,0,0,0.34065814,-31.957234,-65.565095)"
         clip-rule="evenodd"
         id="path11" />
    </clipPath>
    <clipPath
       clipPathUnits="userSpaceOnUse"
       id="clipPath12">
      <path
         d="m 25.376564,218.88672 h 38.161423 v 44.03125 H 25.376564 Z"
         transform="matrix(0.34065814,0,0,0.34065814,-8.6447343,-85.565095)"
         clip-rule="evenodd"
         id="path12" />
    </clipPath>
  </defs>
  <g
     id="g1">
    <path
       id="path1"
       d="M 0,0 H 156 V 89 H 0 Z"
       style="fill:#ffffff;fill-opacity:1;fill-rule:nonzero;stroke:none"
       clip-path="url(#clipPath2)" />
    <path
       id="path3"
       d="m 39.990002,16718 v -50 H 199.99001 v 50"
       style="fill:none;stroke:#000000;stroke-width:1;stroke-linecap:butt;stroke-linejoin:miter;stroke-miterlimit:10;stroke-dasharray:none;stroke-opacity:1"
       transform="matrix(0.9393581,0,0,0.9393581,-34.620294,-15655.281)"
       clip-path="url(#clipPath4)" />
    <path
       id="path5"
       d="m 39.990002,16718 v 40 H 199.99001 v -40"
       style="fill:none;stroke:#000000;stroke-width:1;stroke-linecap:butt;stroke-linejoin:miter;stroke-miterlimit:10;stroke-dasharray:none;stroke-opacity:1"
       transform="matrix(0.9393581,0,0,0.9393581,-34.620294,-15655.281)"
       clip-path="url(#clipPath6)" />
    <path
       id="path7"
       d="M 39.990002,16718 H 199.99001"
       style="fill:none;stroke:#000000;stroke-width:1;stroke-linecap:butt;stroke-linejoin:miter;stroke-miterlimit:10;stroke-dasharray:none;stroke-opacity:1"
       transform="matrix(0.9393581,0,0,0.9393581,-34.620294,-15655.281)"
       clip-path="url(#clipPath8)" />
    <text
       id="text8"
       xml:space="preserve"
       transform="matrix(0.9393581,0,0,0.9393581,25.88024,22.136062)"
       clip-path="url(#clipPath9)"><tspan
         id="tspan8"
         style="font-variant:normal;font-weight:normal;font-size:16px;font-family:Arial;writing-mode:lr-tb;fill:#000000;fill-opacity:1;fill-rule:nonzero;stroke:none"
         x="0"
         y="0">«viewpoint def»</tspan></text>
    <text
       id="text9"
       xml:space="preserve"
       transform="matrix(0.9393581,0,0,0.9393581,29.76977,39.983866)"
       clip-path="url(#clipPath10)"><tspan
         id="tspan9"
         style="font-variant:normal;font-weight:normal;font-size:16px;font-family:Arial;writing-mode:lr-tb;fill:#000000;fill-opacity:1;fill-rule:nonzero;stroke:none"
         x="0"
         dx="0 -0.28906253"
         y="0">ViewpointDef1</tspan></text>
    <text
       id="text10"
       xml:space="preserve"
       transform="matrix(0.9393581,0,0,0.9393581,30.019287,61.589103)"
       clip-path="url(#clipPath11)"><tspan
         id="tspan10"
         style="font-style:italic;font-variant:normal;font-weight:normal;font-size:12px;font-family:Arial;writing-mode:lr-tb;fill:#000000;fill-opacity:1;fill-rule:nonzero;stroke:none"
         x="0"
         y="0">compartment stack</tspan></text>
    <text
       id="text11"
       xml:space="preserve"
       transform="matrix(0.9393581,0,0,0.9393581,8.1205012,80.376265)"
       clip-path="url(#clipPath12)"><tspan
         id="tspan11"
         style="font-variant:normal;font-weight:normal;font-size:12px;font-family:Arial;writing-mode:lr-tb;fill:#000000;fill-opacity:1;fill-rule:nonzero;stroke:none"
         x="0"
         y="0">•••</tspan></text>
  </g>
</svg>
