<?xml version="1.0" encoding="UTF-8" standalone="no"?>
<!-- Created with Inkscape (http://www.inkscape.org/) -->

<svg
   version="1.1"
   id="svg1"
   width="472"
   height="280"
   viewBox="0 0 472 280"
   xmlns="http://www.w3.org/2000/svg"
   xmlns:svg="http://www.w3.org/2000/svg">
  <defs
     id="defs1">
    <clipPath
       clipPathUnits="userSpaceOnUse"
       id="clipPath2">
      <path
         d="M 0,0 H 1475.9766 V 875.97656 H 0 Z"
         transform="scale(0.31999999)"
         clip-rule="evenodd"
         id="path2" />
    </clipPath>
    <clipPath
       clipPathUnits="userSpaceOnUse"
       id="clipPath4">
      <path
         d="m 3.125,3.125 h 1468.75 V 875 H 3.125 Z"
         transform="matrix(0.33640933,0,0,0.33640933,1528.8853,15823.396)"
         clip-rule="evenodd"
         id="path4" />
    </clipPath>
    <clipPath
       clipPathUnits="userSpaceOnUse"
       id="clipPath6">
      <path
         d="m 3.125,3.125 h 1468.75 V 875 H 3.125 Z"
         transform="matrix(0.33640933,0,0,0.33640933,1528.8853,15823.396)"
         clip-rule="evenodd"
         id="path6" />
    </clipPath>
    <clipPath
       clipPathUnits="userSpaceOnUse"
       id="clipPath7">
      <path
         d="m 3.125,3.125 h 1468.75 V 875 H 3.125 Z"
         transform="matrix(0.33640933,0,0,0.33640933,-197.42721,-54.102948)"
         clip-rule="evenodd"
         id="path7" />
    </clipPath>
    <clipPath
       clipPathUnits="userSpaceOnUse"
       id="clipPath8">
      <path
         d="m 3.125,3.125 h 1468.75 V 875 H 3.125 Z"
         transform="matrix(0.33640933,0,0,0.33640933,-153.84912,-74.102948)"
         clip-rule="evenodd"
         id="path8" />
    </clipPath>
    <clipPath
       clipPathUnits="userSpaceOnUse"
       id="clipPath10">
      <path
         d="m 3.125,3.125 h 1468.75 V 875 H 3.125 Z"
         transform="matrix(0.33640933,0,0,0.33640933,1528.8853,15823.396)"
         clip-rule="evenodd"
         id="path10" />
    </clipPath>
    <clipPath
       clipPathUnits="userSpaceOnUse"
       id="clipPath11">
      <path
         d="m 3.125,3.125 h 1468.75 V 875 H 3.125 Z"
         transform="matrix(0.33640933,0,0,0.33640933,-328.42721,-134.10295)"
         clip-rule="evenodd"
         id="path11" />
    </clipPath>
    <clipPath
       clipPathUnits="userSpaceOnUse"
       id="clipPath12">
      <path
         d="m 3.125,3.125 h 1468.75 V 875 H 3.125 Z"
         transform="matrix(0.33640933,0,0,0.33640933,-286.64601,-154.10295)"
         clip-rule="evenodd"
         id="path12" />
    </clipPath>
    <clipPath
       clipPathUnits="userSpaceOnUse"
       id="clipPath14">
      <path
         d="m 3.125,3.125 h 1468.75 V 875 H 3.125 Z"
         transform="matrix(0.33640933,0,0,0.33640933,1528.8853,15823.396)"
         clip-rule="evenodd"
         id="path14" />
    </clipPath>
    <clipPath
       clipPathUnits="userSpaceOnUse"
       id="clipPath15">
      <path
         d="m 3.125,3.125 h 1468.75 V 875 H 3.125 Z"
         transform="matrix(0.33640933,0,0,0.33640933,-288.42721,-204.10295)"
         clip-rule="evenodd"
         id="path15" />
    </clipPath>
    <clipPath
       clipPathUnits="userSpaceOnUse"
       id="clipPath16">
      <path
         d="m 3.125,3.125 h 1468.75 V 875 H 3.125 Z"
         transform="matrix(0.33640933,0,0,0.33640933,-259.53661,-224.10295)"
         clip-rule="evenodd"
         id="path16" />
    </clipPath>
    <clipPath
       clipPathUnits="userSpaceOnUse"
       id="clipPath18">
      <path
         d="m 3.125,3.125 h 1468.75 V 875 H 3.125 Z"
         transform="matrix(0.33640933,0,0,0.33640933,1528.8853,15823.396)"
         clip-rule="evenodd"
         id="path18" />
    </clipPath>
    <clipPath
       clipPathUnits="userSpaceOnUse"
       id="clipPath19">
      <path
         d="m 3.125,3.125 h 1468.75 V 875 H 3.125 Z"
         transform="matrix(0.33640933,0,0,0.33640933,-368.42722,-254.10295)"
         clip-rule="evenodd"
         id="path19" />
    </clipPath>
    <clipPath
       clipPathUnits="userSpaceOnUse"
       id="clipPath20">
      <path
         d="m 3.125,3.125 h 1468.75 V 875 H 3.125 Z"
         transform="matrix(0.33640933,0,0,0.33640933,-313.75532,-274.10295)"
         clip-rule="evenodd"
         id="path20" />
    </clipPath>
    <clipPath
       clipPathUnits="userSpaceOnUse"
       id="clipPath22">
      <path
         d="m 3.125,3.125 h 1468.75 V 875 H 3.125 Z"
         transform="matrix(0.33640933,0,0,0.33640933,1528.8853,15823.396)"
         clip-rule="evenodd"
         id="path22" />
    </clipPath>
    <clipPath
       clipPathUnits="userSpaceOnUse"
       id="clipPath24">
      <path
         d="m 3.125,3.125 h 1468.75 V 875 H 3.125 Z"
         transform="matrix(0.33640933,0,0,0.33640933,1528.8853,15823.396)"
         clip-rule="evenodd"
         id="path24" />
    </clipPath>
    <clipPath
       clipPathUnits="userSpaceOnUse"
       id="clipPath26">
      <path
         d="m 3.125,3.125 h 1468.75 V 875 H 3.125 Z"
         transform="matrix(0.33640933,0,0,0.33640933,1528.8853,15823.396)"
         clip-rule="evenodd"
         id="path26" />
    </clipPath>
    <clipPath
       clipPathUnits="userSpaceOnUse"
       id="clipPath28">
      <path
         d="m 3.125,3.125 h 1468.75 V 875 H 3.125 Z"
         transform="matrix(0.33640933,0,0,0.33640933,1528.8853,15823.396)"
         clip-rule="evenodd"
         id="path28" />
    </clipPath>
    <clipPath
       clipPathUnits="userSpaceOnUse"
       id="clipPath30">
      <path
         d="m 3.125,3.125 h 1468.75 V 875 H 3.125 Z"
         transform="matrix(0.33640933,0,0,0.33640933,1528.8853,15823.396)"
         clip-rule="evenodd"
         id="path30" />
    </clipPath>
    <clipPath
       clipPathUnits="userSpaceOnUse"
       id="clipPath31">
      <path
         d="m 3.125,3.125 h 1468.75 V 875 H 3.125 Z"
         transform="matrix(0.33640933,0,0,0.33640933,-97.427213,-134.10295)"
         clip-rule="evenodd"
         id="path31" />
    </clipPath>
    <clipPath
       clipPathUnits="userSpaceOnUse"
       id="clipPath32">
      <path
         d="m 3.125,3.125 h 1468.75 V 875 H 3.125 Z"
         transform="matrix(0.33640933,0,0,0.33640933,-53.864713,-154.10295)"
         clip-rule="evenodd"
         id="path32" />
    </clipPath>
    <clipPath
       clipPathUnits="userSpaceOnUse"
       id="clipPath34">
      <path
         d="m 3.125,3.125 h 1468.75 V 875 H 3.125 Z"
         transform="matrix(0.33640933,0,0,0.33640933,1528.8853,15823.396)"
         clip-rule="evenodd"
         id="path34" />
    </clipPath>
    <clipPath
       clipPathUnits="userSpaceOnUse"
       id="clipPath35">
      <path
         d="m 3.125,3.125 h 1468.75 V 875 H 3.125 Z"
         transform="matrix(0.33640933,0,0,0.33640933,-57.427213,-204.10295)"
         clip-rule="evenodd"
         id="path35" />
    </clipPath>
    <clipPath
       clipPathUnits="userSpaceOnUse"
       id="clipPath36">
      <path
         d="m 3.125,3.125 h 1468.75 V 875 H 3.125 Z"
         transform="matrix(0.33640933,0,0,0.33640933,-26.755342,-224.10295)"
         clip-rule="evenodd"
         id="path36" />
    </clipPath>
    <clipPath
       clipPathUnits="userSpaceOnUse"
       id="clipPath38">
      <path
         d="m 3.125,3.125 h 1468.75 V 875 H 3.125 Z"
         transform="matrix(0.33640933,0,0,0.33640933,1528.8853,15823.396)"
         clip-rule="evenodd"
         id="path38" />
    </clipPath>
    <clipPath
       clipPathUnits="userSpaceOnUse"
       id="clipPath39">
      <path
         d="m 3.125,3.125 h 1468.75 V 875 H 3.125 Z"
         transform="matrix(0.33640933,0,0,0.33640933,-137.42721,-254.10295)"
         clip-rule="evenodd"
         id="path39" />
    </clipPath>
    <clipPath
       clipPathUnits="userSpaceOnUse"
       id="clipPath40">
      <path
         d="m 3.125,3.125 h 1468.75 V 875 H 3.125 Z"
         transform="matrix(0.33640933,0,0,0.33640933,-80.974093,-274.10295)"
         clip-rule="evenodd"
         id="path40" />
    </clipPath>
    <clipPath
       clipPathUnits="userSpaceOnUse"
       id="clipPath42">
      <path
         d="m 3.125,3.125 h 1468.75 V 875 H 3.125 Z"
         transform="matrix(0.33640933,0,0,0.33640933,1528.8853,15823.396)"
         clip-rule="evenodd"
         id="path42" />
    </clipPath>
    <clipPath
       clipPathUnits="userSpaceOnUse"
       id="clipPath44">
      <path
         d="m 3.125,3.125 h 1468.75 V 875 H 3.125 Z"
         transform="matrix(0.33640933,0,0,0.33640933,1528.8853,15823.396)"
         clip-rule="evenodd"
         id="path44" />
    </clipPath>
    <clipPath
       clipPathUnits="userSpaceOnUse"
       id="clipPath46">
      <path
         d="m 3.125,3.125 h 1468.75 V 875 H 3.125 Z"
         transform="matrix(0.33640933,0,0,0.33640933,1528.8853,15823.396)"
         clip-rule="evenodd"
         id="path46" />
    </clipPath>
    <clipPath
       clipPathUnits="userSpaceOnUse"
       id="clipPath48">
      <path
         d="m 3.125,3.125 h 1468.75 V 875 H 3.125 Z"
         transform="matrix(0.33640933,0,0,0.33640933,1528.8853,15823.396)"
         clip-rule="evenodd"
         id="path48" />
    </clipPath>
    <clipPath
       clipPathUnits="userSpaceOnUse"
       id="clipPath50">
      <path
         d="m 3.125,3.125 h 1468.75 V 875 H 3.125 Z"
         transform="matrix(0.33640933,0,0,0.33640933,1528.8853,15823.396)"
         clip-rule="evenodd"
         id="path50" />
    </clipPath>
    <clipPath
       clipPathUnits="userSpaceOnUse"
       id="clipPath52">
      <path
         d="m 3.125,3.125 h 1468.75 V 875 H 3.125 Z"
         transform="matrix(0.33640933,0,0,0.33640933,1528.8853,15823.396)"
         clip-rule="evenodd"
         id="path52" />
    </clipPath>
    <clipPath
       clipPathUnits="userSpaceOnUse"
       id="clipPath54">
      <path
         d="m 3.125,3.125 h 1468.75 V 875 H 3.125 Z"
         transform="matrix(0.33640933,0,0,0.33640933,1528.8853,15823.396)"
         clip-rule="evenodd"
         id="path54" />
    </clipPath>
    <clipPath
       clipPathUnits="userSpaceOnUse"
       id="clipPath56">
      <path
         d="m 3.125,3.125 h 1468.75 V 875 H 3.125 Z"
         transform="matrix(0.33640933,0,0,0.33640933,1528.8853,15823.396)"
         clip-rule="evenodd"
         id="path56" />
    </clipPath>
    <linearGradient
       x1="0"
       y1="0"
       x2="0"
       y2="1"
       gradientUnits="userSpaceOnUse"
       gradientTransform="matrix(209.99999,0,0,20,1531.9999,15826.5)"
       spreadMethod="pad"
       id="linearGradient58">
      <stop
         style="stop-opacity:1;stop-color:#ffffff"
         offset="0"
         id="stop57" />
      <stop
         style="stop-opacity:1;stop-color:#ffffff"
         offset="1"
         id="stop58" />
    </linearGradient>
    <clipPath
       clipPathUnits="userSpaceOnUse"
       id="clipPath58">
      <path
         d="m 3.125,3.125 h 1468.75 V 875 H 3.125 Z"
         transform="matrix(0.33640933,0,0,0.33640933,1528.8853,15823.396)"
         clip-rule="evenodd"
         id="path58" />
    </clipPath>
    <clipPath
       clipPathUnits="userSpaceOnUse"
       id="clipPath59">
      <path
         d="m 3.125,3.125 h 1468.75 V 875 H 3.125 Z"
         transform="matrix(0.33640933,0,0,0.33640933,-4.6147127,-17.102948)"
         clip-rule="evenodd"
         id="path59" />
    </clipPath>
    <clipPath
       clipPathUnits="userSpaceOnUse"
       id="clipPath60">
      <path
         d="m 3.125,3.125 h 1468.75 V 875 H 3.125 Z"
         transform="matrix(0.33640933,0,0,0.33640933,-134.89596,-17.102948)"
         clip-rule="evenodd"
         id="path60" />
    </clipPath>
  </defs>
  <g
     id="g1">
    <path
       id="path1"
       d="M 0,0 H 472 V 280 H 0 Z"
       style="fill:#ffffff;fill-opacity:1;fill-rule:nonzero;stroke:none"
       clip-path="url(#clipPath2)" />
    <path
       id="path3"
       d="m 1537,15826.5 h 480 c 0.663,0 1.3007,0.127 1.9132,0.38 0.6127,0.253 1.1535,0.614 1.6223,1.084 0.4688,0.468 0.83,1.009 1.0838,1.621 0.2537,0.612 0.3806,1.251 0.3807,1.915 v 279 c -10e-5,0.662 -0.127,1.3 -0.3807,1.912 -0.2538,0.612 -0.615,1.153 -1.0838,1.622 -0.4688,0.468 -1.0096,0.829 -1.6223,1.083 -0.6125,0.255 -1.2502,0.382 -1.9132,0.383 h -480 c -0.6632,0 -1.301,-0.128 -1.9136,-0.382 -0.6126,-0.255 -1.1533,-0.616 -1.622,-1.084 -0.4689,-0.469 -0.8302,-1.01 -1.0839,-1.622 -0.2538,-0.612 -0.3806,-1.25 -0.3805,-1.912 v -279 c -10e-5,-0.664 0.1266,-1.303 0.3804,-1.915 0.2538,-0.612 0.6151,-1.153 1.084,-1.621 0.4687,-0.47 1.0094,-0.831 1.622,-1.085 0.6126,-0.253 1.2504,-0.379 1.9136,-0.379 z"
       style="fill:#ffffff;fill-opacity:1;fill-rule:nonzero;stroke:#000000;stroke-width:1;stroke-linecap:butt;stroke-linejoin:miter;stroke-miterlimit:10;stroke-dasharray:none;stroke-opacity:1"
       transform="matrix(0.9512221,0,0,0.9512221,-1454.3095,-15051.564)"
       clip-path="url(#clipPath4)" />
    <path
       id="path5"
       d="m 1624.48,15862 h 250 c 0.6629,0 1.3006,0.127 1.9133,0.38 0.6126,0.254 1.1532,0.615 1.6221,1.084 0.4687,0.468 0.8301,1.009 1.0838,1.621 0.2538,0.612 0.3807,1.251 0.3808,1.915 v 30 c -10e-5,0.662 -0.1271,1.3 -0.3809,1.912 -0.2538,0.612 -0.615,1.153 -1.0837,1.622 -0.4689,0.468 -1.0095,0.829 -1.6222,1.083 -0.6126,0.254 -1.2503,0.382 -1.9132,0.383 h -250 c -0.6632,0 -1.301,-0.129 -1.9136,-0.383 -0.6127,-0.254 -1.1533,-0.615 -1.6221,-1.083 -0.4688,-0.469 -0.8302,-1.01 -1.0839,-1.622 -0.2537,-0.612 -0.3805,-1.25 -0.3804,-1.912 v -30 c -10e-5,-0.664 0.1267,-1.303 0.3804,-1.915 0.2537,-0.612 0.6151,-1.153 1.0839,-1.621 0.4688,-0.469 1.0094,-0.83 1.6221,-1.084 0.6126,-0.253 1.2504,-0.38 1.9136,-0.38 z"
       style="fill:#ffffff;fill-opacity:1;fill-rule:nonzero;stroke:#000000;stroke-width:1;stroke-linecap:butt;stroke-linejoin:miter;stroke-miterlimit:10;stroke-dasharray:none;stroke-opacity:1"
       transform="matrix(0.9512221,0,0,0.9512221,-1454.3095,-15051.564)"
       clip-path="url(#clipPath6)" />
    <text
       id="text6"
       xml:space="preserve"
       transform="matrix(0.9512221,0,0,0.9512221,187.79713,51.46392)"
       clip-path="url(#clipPath7)"><tspan
         id="tspan6"
         style="font-variant:normal;font-weight:normal;font-size:16px;font-family:Arial;writing-mode:lr-tb;fill:#000000;fill-opacity:1;fill-rule:nonzero;stroke:none"
         x="0"
         y="0">«part»</tspan></text>
    <text
       id="text7"
       xml:space="preserve"
       transform="matrix(0.9512221,0,0,0.9512221,146.34468,70.488362)"
       clip-path="url(#clipPath8)"><tspan
         id="tspan7"
         style="font-variant:normal;font-weight:normal;font-size:16px;font-family:Arial;writing-mode:lr-tb;fill:#000000;fill-opacity:1;fill-rule:nonzero;stroke:none"
         x="0"
         dx="0 0 0 0 0 0 0 0 0 0 0 0 0 -0.88281173"
         y="0">vehicle_b : Vehicle</tspan></text>
    <path
       id="path9"
       d="m 1804.51,15942 h 150 c 0.663,0 1.3007,0.126 1.9132,0.379 0.6124,0.254 1.1532,0.615 1.6222,1.084 0.4688,0.468 0.83,1.009 1.0838,1.622 0.2537,0.612 0.3807,1.251 0.3808,1.915 v 30 c -10e-5,0.662 -0.1271,1.3 -0.3808,1.912 -0.2538,0.611 -0.615,1.153 -1.0838,1.622 -0.469,0.468 -1.0098,0.829 -1.6222,1.083 -0.6125,0.254 -1.2502,0.382 -1.9132,0.383 h -150 c -0.6632,0 -1.3011,-0.129 -1.9138,-0.383 -0.6126,-0.254 -1.1532,-0.615 -1.622,-1.083 -0.469,-0.469 -0.8303,-1.011 -1.0838,-1.622 -0.2538,-0.612 -0.3805,-1.25 -0.3804,-1.912 v -30 c -10e-5,-0.664 0.1266,-1.303 0.3803,-1.915 0.2536,-0.613 0.6149,-1.154 1.0839,-1.622 0.4688,-0.469 1.0094,-0.83 1.6221,-1.084 0.6127,-0.253 1.2505,-0.379 1.9137,-0.379 z"
       style="fill:#ffffff;fill-opacity:1;fill-rule:nonzero;stroke:#000000;stroke-width:1;stroke-linecap:butt;stroke-linejoin:miter;stroke-miterlimit:10;stroke-dasharray:none;stroke-opacity:1"
       transform="matrix(0.9512221,0,0,0.9512221,-1454.3095,-15051.564)"
       clip-path="url(#clipPath10)" />
    <text
       id="text10"
       xml:space="preserve"
       transform="matrix(0.9512221,0,0,0.9512221,312.40722,127.56169)"
       clip-path="url(#clipPath11)"><tspan
         id="tspan10"
         style="font-variant:normal;font-weight:normal;font-size:16px;font-family:Arial;writing-mode:lr-tb;fill:#000000;fill-opacity:1;fill-rule:nonzero;stroke:none"
         x="0"
         y="0">«part»</tspan></text>
    <text
       id="text11"
       xml:space="preserve"
       transform="matrix(0.9512221,0,0,0.9512221,272.66402,146.58613)"
       clip-path="url(#clipPath12)"><tspan
         id="tspan11"
         style="font-variant:normal;font-weight:normal;font-size:16px;font-family:Arial;writing-mode:lr-tb;fill:#000000;fill-opacity:1;fill-rule:nonzero;stroke:none"
         x="0"
         y="0">rearAxleAssembly</tspan></text>
    <path
       id="path13"
       d="m 1785.48,16012 h 109.03 c 0.663,0 1.3008,0.126 1.9132,0.379 0.6127,0.253 1.1535,0.614 1.6223,1.084 0.4687,0.469 0.83,1.009 1.0838,1.621 0.2536,0.612 0.3806,1.251 0.3807,1.916 v 30 c -10e-5,0.661 -0.1271,1.299 -0.3808,1.911 -0.2538,0.612 -0.615,1.154 -1.0837,1.623 -0.4688,0.468 -1.0096,0.829 -1.6223,1.083 -0.6124,0.254 -1.2502,0.382 -1.9132,0.383 h -109.03 c -0.6632,0 -1.3012,-0.129 -1.9136,-0.383 -0.6127,-0.254 -1.1534,-0.615 -1.6221,-1.083 -0.4688,-0.469 -0.8302,-1.011 -1.0839,-1.623 -0.2537,-0.612 -0.3805,-1.25 -0.3804,-1.911 v -30 c -10e-5,-0.665 0.1267,-1.304 0.3804,-1.917 0.2537,-0.611 0.6151,-1.151 1.0839,-1.62 0.4687,-0.47 1.0093,-0.831 1.622,-1.084 0.6125,-0.253 1.2505,-0.379 1.9137,-0.379 z"
       style="fill:#ffffff;fill-opacity:1;fill-rule:nonzero;stroke:#000000;stroke-width:1;stroke-linecap:butt;stroke-linejoin:miter;stroke-miterlimit:10;stroke-dasharray:none;stroke-opacity:1"
       transform="matrix(0.9512221,0,0,0.9512221,-1454.3095,-15051.564)"
       clip-path="url(#clipPath14)" />
    <text
       id="text14"
       xml:space="preserve"
       transform="matrix(0.9512221,0,0,0.9512221,274.35834,194.14724)"
       clip-path="url(#clipPath15)"><tspan
         id="tspan14"
         style="font-variant:normal;font-weight:normal;font-size:16px;font-family:Arial;writing-mode:lr-tb;fill:#000000;fill-opacity:1;fill-rule:nonzero;stroke:none"
         x="0"
         y="0">«part»</tspan></text>
    <text
       id="text15"
       xml:space="preserve"
       transform="matrix(0.9512221,0,0,0.9512221,246.87696,213.17168)"
       clip-path="url(#clipPath16)"><tspan
         id="tspan15"
         style="font-variant:normal;font-weight:normal;font-size:16px;font-family:Arial;writing-mode:lr-tb;fill:#000000;fill-opacity:1;fill-rule:nonzero;stroke:none"
         x="0"
         dx="0 0 0 0 0 0 0 0 0 0 0 -0.88281226"
         y="0">rearAxle : Axle</tspan></text>
    <path
       id="path17"
       d="m 1839.51,16062 h 160 c 0.663,0 1.3007,0.127 1.9131,0.38 0.6127,0.253 1.1534,0.613 1.6223,1.083 0.4688,0.468 0.8301,1.009 1.0839,1.621 0.2538,0.613 0.3806,1.252 0.3807,1.916 v 30 c -10e-5,0.662 -0.1271,1.299 -0.3808,1.911 -0.2538,0.612 -0.615,1.154 -1.0838,1.623 -0.4689,0.468 -1.0096,0.828 -1.6222,1.083 -0.6125,0.254 -1.2502,0.382 -1.9132,0.383 h -160 c -0.6632,0 -1.3011,-0.129 -1.9136,-0.383 -0.6126,-0.255 -1.1533,-0.615 -1.6219,-1.083 -0.4689,-0.469 -0.8303,-1.011 -1.0841,-1.623 -0.2536,-0.612 -0.3804,-1.249 -0.3804,-1.911 v -30 c 0,-0.664 0.1268,-1.303 0.3805,-1.916 0.2538,-0.612 0.6151,-1.153 1.084,-1.621 0.4686,-0.47 1.0093,-0.83 1.6219,-1.083 0.6125,-0.253 1.2504,-0.38 1.9136,-0.38 z"
       style="fill:#ffffff;fill-opacity:1;fill-rule:nonzero;stroke:#000000;stroke-width:1;stroke-linecap:butt;stroke-linejoin:miter;stroke-miterlimit:10;stroke-dasharray:none;stroke-opacity:1"
       transform="matrix(0.9512221,0,0,0.9512221,-1454.3095,-15051.564)"
       clip-path="url(#clipPath18)" />
    <text
       id="text18"
       xml:space="preserve"
       transform="matrix(0.9512221,0,0,0.9512221,350.45611,241.70834)"
       clip-path="url(#clipPath19)"><tspan
         id="tspan18"
         style="font-variant:normal;font-weight:normal;font-size:16px;font-family:Arial;writing-mode:lr-tb;fill:#000000;fill-opacity:1;fill-rule:nonzero;stroke:none"
         x="0"
         y="0">«part»</tspan></text>
    <text
       id="text19"
       xml:space="preserve"
       transform="matrix(0.9512221,0,0,0.9512221,298.45099,260.73278)"
       clip-path="url(#clipPath20)"><tspan
         id="tspan19"
         style="font-variant:normal;font-weight:normal;font-size:16px;font-family:Arial;writing-mode:lr-tb;fill:#000000;fill-opacity:1;fill-rule:nonzero;stroke:none"
         x="0"
         y="0">rearWheel : Wheel [2]</tspan></text>
    <path
       id="path21"
       d="m 1839.7,15993.98 0.3,18.02"
       style="fill:none;stroke:#000000;stroke-width:1;stroke-linecap:butt;stroke-linejoin:miter;stroke-miterlimit:10;stroke-dasharray:none;stroke-opacity:1"
       transform="matrix(0.9512221,0,0,0.9512221,-1454.3095,-15051.564)"
       clip-path="url(#clipPath22)" />
    <path
       id="path23"
       d="m 1839.53,15982.99 3.32,5.44 -3.15,5.55 -3.32,-5.44 z"
       style="fill:#000000;fill-opacity:1;fill-rule:nonzero;stroke:#000000;stroke-width:1;stroke-linecap:butt;stroke-linejoin:miter;stroke-miterlimit:10;stroke-dasharray:none;stroke-opacity:1"
       transform="matrix(0.9512221,0,0,0.9512221,-1454.3095,-15051.564)"
       clip-path="url(#clipPath24)" />
    <path
       id="path25"
       d="M 1919.51,15993.99 V 16062"
       style="fill:none;stroke:#000000;stroke-width:1;stroke-linecap:butt;stroke-linejoin:miter;stroke-miterlimit:10;stroke-dasharray:none;stroke-opacity:1"
       transform="matrix(0.9512221,0,0,0.9512221,-1454.3095,-15051.564)"
       clip-path="url(#clipPath26)" />
    <path
       id="path27"
       d="m 1919.51,15982.99 3.24,5.5 -3.24,5.5 -3.24,-5.5 z"
       style="fill:#000000;fill-opacity:1;fill-rule:nonzero;stroke:#000000;stroke-width:1;stroke-linecap:butt;stroke-linejoin:miter;stroke-miterlimit:10;stroke-dasharray:none;stroke-opacity:1"
       transform="matrix(0.9512221,0,0,0.9512221,-1454.3095,-15051.564)"
       clip-path="url(#clipPath28)" />
    <path
       id="path29"
       d="m 1573.51,15942 h 150 c 0.6629,0 1.3005,0.126 1.9132,0.379 0.6124,0.254 1.1532,0.615 1.6221,1.084 0.4687,0.468 0.8299,1.009 1.0837,1.622 0.2538,0.612 0.3809,1.251 0.381,1.915 v 30 c -10e-5,0.662 -0.1271,1.3 -0.3808,1.912 -0.2538,0.611 -0.6152,1.153 -1.0839,1.622 -0.4689,0.468 -1.0097,0.829 -1.6223,1.083 -0.6125,0.254 -1.2501,0.382 -1.913,0.383 h -150 c -0.6632,0 -1.301,-0.129 -1.9136,-0.383 -0.6126,-0.254 -1.1533,-0.615 -1.622,-1.083 -0.4689,-0.469 -0.8302,-1.011 -1.084,-1.622 -0.2537,-0.612 -0.3805,-1.25 -0.3804,-1.912 v -30 c -10e-5,-0.664 0.1267,-1.303 0.3804,-1.915 0.2538,-0.613 0.6151,-1.154 1.084,-1.622 0.4687,-0.469 1.0094,-0.83 1.622,-1.084 0.6126,-0.253 1.2504,-0.379 1.9136,-0.379 z"
       style="fill:#ffffff;fill-opacity:1;fill-rule:nonzero;stroke:#000000;stroke-width:1;stroke-linecap:butt;stroke-linejoin:miter;stroke-miterlimit:10;stroke-dasharray:none;stroke-opacity:1"
       transform="matrix(0.9512221,0,0,0.9512221,-1454.3095,-15051.564)"
       clip-path="url(#clipPath30)" />
    <text
       id="text30"
       xml:space="preserve"
       transform="matrix(0.9512221,0,0,0.9512221,92.674918,127.56169)"
       clip-path="url(#clipPath31)"><tspan
         id="tspan30"
         style="font-variant:normal;font-weight:normal;font-size:16px;font-family:Arial;writing-mode:lr-tb;fill:#000000;fill-opacity:1;fill-rule:nonzero;stroke:none"
         x="0"
         y="0">«part»</tspan></text>
    <text
       id="text31"
       xml:space="preserve"
       transform="matrix(0.9512221,0,0,0.9512221,51.237305,146.58613)"
       clip-path="url(#clipPath32)"><tspan
         id="tspan31"
         style="font-variant:normal;font-weight:normal;font-size:16px;font-family:Arial;writing-mode:lr-tb;fill:#000000;fill-opacity:1;fill-rule:nonzero;stroke:none"
         x="0"
         y="0">frontAxleAssembly</tspan></text>
    <path
       id="path33"
       d="m 1554.48,16012 h 109.03 c 0.663,0 1.3007,0.126 1.9132,0.379 0.6126,0.253 1.1533,0.614 1.6222,1.084 0.4688,0.469 0.83,1.009 1.0838,1.621 0.2537,0.612 0.3807,1.251 0.3808,1.916 v 30 c -10e-5,0.661 -0.1269,1.299 -0.3807,1.911 -0.2538,0.612 -0.6151,1.154 -1.0839,1.623 -0.4689,0.468 -1.0096,0.829 -1.6223,1.083 -0.6124,0.254 -1.2501,0.382 -1.9131,0.383 h -109.03 c -0.6632,0 -1.301,-0.129 -1.9135,-0.383 -0.6126,-0.254 -1.1533,-0.615 -1.622,-1.083 -0.4689,-0.469 -0.8302,-1.011 -1.084,-1.623 -0.2538,-0.612 -0.3806,-1.25 -0.3805,-1.911 v -30 c -10e-5,-0.665 0.1267,-1.304 0.3805,-1.917 0.2538,-0.611 0.6151,-1.151 1.084,-1.62 0.4687,-0.47 1.0094,-0.831 1.622,-1.084 0.6125,-0.253 1.2503,-0.379 1.9135,-0.379 z"
       style="fill:#ffffff;fill-opacity:1;fill-rule:nonzero;stroke:#000000;stroke-width:1;stroke-linecap:butt;stroke-linejoin:miter;stroke-miterlimit:10;stroke-dasharray:none;stroke-opacity:1"
       transform="matrix(0.9512221,0,0,0.9512221,-1454.3095,-15051.564)"
       clip-path="url(#clipPath34)" />
    <text
       id="text34"
       xml:space="preserve"
       transform="matrix(0.9512221,0,0,0.9512221,54.626034,194.14724)"
       clip-path="url(#clipPath35)"><tspan
         id="tspan34"
         style="font-variant:normal;font-weight:normal;font-size:16px;font-family:Arial;writing-mode:lr-tb;fill:#000000;fill-opacity:1;fill-rule:nonzero;stroke:none"
         x="0"
         y="0">«part»</tspan></text>
    <text
       id="text35"
       xml:space="preserve"
       transform="matrix(0.9512221,0,0,0.9512221,25.450273,213.17168)"
       clip-path="url(#clipPath36)"><tspan
         id="tspan35"
         style="font-variant:normal;font-weight:normal;font-size:16px;font-family:Arial;writing-mode:lr-tb;fill:#000000;fill-opacity:1;fill-rule:nonzero;stroke:none"
         x="0"
         dx="0 0 0 0 0 0 0 0 0 0 0 0 -0.88281226"
         y="0">frontAxle : Axle</tspan></text>
    <path
       id="path37"
       d="m 1608.51,16062 h 160 c 0.663,0 1.3007,0.127 1.9132,0.38 0.6126,0.253 1.1532,0.613 1.6221,1.083 0.4687,0.468 0.8301,1.009 1.0839,1.621 0.2537,0.613 0.3807,1.252 0.3808,1.916 v 30 c -10e-5,0.662 -0.1271,1.299 -0.3808,1.911 -0.2538,0.612 -0.6152,1.154 -1.0839,1.623 -0.4689,0.468 -1.0095,0.828 -1.6222,1.083 -0.6124,0.254 -1.2501,0.382 -1.9131,0.383 h -160 c -0.6632,0 -1.301,-0.129 -1.9134,-0.383 -0.6127,-0.255 -1.1535,-0.615 -1.6222,-1.083 -0.4689,-0.469 -0.8302,-1.011 -1.0839,-1.623 -0.2538,-0.612 -0.3806,-1.249 -0.3805,-1.911 v -30 c -10e-5,-0.664 0.1267,-1.303 0.3805,-1.916 0.2537,-0.612 0.615,-1.153 1.0839,-1.621 0.4687,-0.47 1.0094,-0.83 1.6219,-1.083 0.6127,-0.253 1.2505,-0.38 1.9137,-0.38 z"
       style="fill:#ffffff;fill-opacity:1;fill-rule:nonzero;stroke:#000000;stroke-width:1;stroke-linecap:butt;stroke-linejoin:miter;stroke-miterlimit:10;stroke-dasharray:none;stroke-opacity:1"
       transform="matrix(0.9512221,0,0,0.9512221,-1454.3095,-15051.564)"
       clip-path="url(#clipPath38)" />
    <text
       id="text38"
       xml:space="preserve"
       transform="matrix(0.9512221,0,0,0.9512221,130.7238,241.70834)"
       clip-path="url(#clipPath39)"><tspan
         id="tspan38"
         style="font-variant:normal;font-weight:normal;font-size:16px;font-family:Arial;writing-mode:lr-tb;fill:#000000;fill-opacity:1;fill-rule:nonzero;stroke:none"
         x="0"
         y="0">«part»</tspan></text>
    <text
       id="text39"
       xml:space="preserve"
       transform="matrix(0.9512221,0,0,0.9512221,77.024347,260.73278)"
       clip-path="url(#clipPath40)"><tspan
         id="tspan39"
         style="font-variant:normal;font-weight:normal;font-size:16px;font-family:Arial;writing-mode:lr-tb;fill:#000000;fill-opacity:1;fill-rule:nonzero;stroke:none"
         x="0"
         y="0">frontWheel : Wheel [2]</tspan></text>
    <path
       id="path41"
       d="m 1608.7,15993.98 0.3,18.02"
       style="fill:none;stroke:#000000;stroke-width:1;stroke-linecap:butt;stroke-linejoin:miter;stroke-miterlimit:10;stroke-dasharray:none;stroke-opacity:1"
       transform="matrix(0.9512221,0,0,0.9512221,-1454.3095,-15051.564)"
       clip-path="url(#clipPath42)" />
    <path
       id="path43"
       d="m 1608.53,15982.99 3.32,5.44 -3.15,5.55 -3.32,-5.44 z"
       style="fill:#000000;fill-opacity:1;fill-rule:nonzero;stroke:#000000;stroke-width:1;stroke-linecap:butt;stroke-linejoin:miter;stroke-miterlimit:10;stroke-dasharray:none;stroke-opacity:1"
       transform="matrix(0.9512221,0,0,0.9512221,-1454.3095,-15051.564)"
       clip-path="url(#clipPath44)" />
    <path
       id="path45"
       d="M 1688.51,15993.99 V 16062"
       style="fill:none;stroke:#000000;stroke-width:1;stroke-linecap:butt;stroke-linejoin:miter;stroke-miterlimit:10;stroke-dasharray:none;stroke-opacity:1"
       transform="matrix(0.9512221,0,0,0.9512221,-1454.3095,-15051.564)"
       clip-path="url(#clipPath46)" />
    <path
       id="path47"
       d="m 1688.51,15982.99 3.24,5.5 -3.24,5.5 -3.24,-5.5 z"
       style="fill:#000000;fill-opacity:1;fill-rule:nonzero;stroke:#000000;stroke-width:1;stroke-linecap:butt;stroke-linejoin:miter;stroke-miterlimit:10;stroke-dasharray:none;stroke-opacity:1"
       transform="matrix(0.9512221,0,0,0.9512221,-1454.3095,-15051.564)"
       clip-path="url(#clipPath48)" />
    <path
       id="path49"
       d="m 1676.46,15910.91 -27.98,31.09"
       style="fill:none;stroke:#000000;stroke-width:1;stroke-linecap:butt;stroke-linejoin:miter;stroke-miterlimit:10;stroke-dasharray:none;stroke-opacity:1"
       transform="matrix(0.9512221,0,0,0.9512221,-1454.3095,-15051.564)"
       clip-path="url(#clipPath50)" />
    <path
       id="path51"
       d="m 1683.8199,15902.731 -1.2699,6.259 -6.09,1.92 1.28,-6.25 z"
       style="fill:#000000;fill-opacity:1;fill-rule:nonzero;stroke:#000000;stroke-width:1;stroke-linecap:butt;stroke-linejoin:miter;stroke-miterlimit:10;stroke-dasharray:none;stroke-opacity:1"
       transform="matrix(0.9512221,0,0,0.9512221,-1454.3095,-15051.564)"
       clip-path="url(#clipPath52)" />
    <path
       id="path53"
       d="M 1824.6899,15908.28 1879.51,15942"
       style="fill:none;stroke:#000000;stroke-width:1;stroke-linecap:butt;stroke-linejoin:miter;stroke-miterlimit:10;stroke-dasharray:none;stroke-opacity:1"
       transform="matrix(0.9512221,0,0,0.9512221,-1454.3095,-15051.564)"
       clip-path="url(#clipPath54)" />
    <path
       id="path55"
       d="m 1815.3199,15902.52 6.3801,0.12 2.9899,5.64 -6.3798,-0.13 z"
       style="fill:#000000;fill-opacity:1;fill-rule:nonzero;stroke:#000000;stroke-width:1;stroke-linecap:butt;stroke-linejoin:miter;stroke-miterlimit:10;stroke-dasharray:none;stroke-opacity:1"
       transform="matrix(0.9512221,0,0,0.9512221,-1454.3095,-15051.564)"
       clip-path="url(#clipPath56)" />
    <path
       id="path57"
       d="M 1537.04,15826.5 H 1742 v 14.96 c 0,2.78 -2.26,5.04 -5.04,5.04 H 1532 v -14.96 c 0,-2.78 2.26,-5.04 5.04,-5.04 z"
       style="fill:url(#linearGradient58);fill-opacity:1;fill-rule:nonzero;stroke:#000000;stroke-width:1;stroke-linecap:butt;stroke-linejoin:miter;stroke-miterlimit:10;stroke-dasharray:none;stroke-opacity:1"
       transform="matrix(0.9512221,0,0,0.9512221,-1454.3095,-15051.564)"
       clip-path="url(#clipPath58)" />
    <text
       id="text58"
       xml:space="preserve"
       transform="matrix(0.9512221,0,0,0.9512221,4.3896167,16.268702)"
       clip-path="url(#clipPath59)"><tspan
         id="tspan58"
         style="font-variant:normal;font-weight:normal;font-size:12px;font-family:Arial;writing-mode:lr-tb;fill:#000000;fill-opacity:1;fill-rule:nonzero;stroke:none"
         x="0"
         dx="0 0 0 0 0 0 0 0 0 0 0 0 0 0 0 0 0 0 0 0 -0.44531193"
         y="0">«view» vehiclePartsTree</tspan></text>
    <g
       id="g59" />
    <text
       id="text59"
       xml:space="preserve"
       transform="matrix(0.9512221,0,0,0.9512221,128.31602,16.268702)"
       clip-path="url(#clipPath60)"><tspan
         id="tspan59"
         style="font-variant:normal;font-weight:normal;font-size:12px;font-family:Arial;writing-mode:lr-tb;fill:#000000;fill-opacity:1;fill-rule:nonzero;stroke:none"
         x="0"
         dx="0 0 0 0 0 0 0 0 0 -0.44531259"
         y="0"> : PartsTree</tspan></text>
  </g>
</svg>
