<?xml version="1.0" encoding="UTF-8" standalone="no"?>
<!-- Created with Inkscape (http://www.inkscape.org/) -->

<svg
   version="1.1"
   id="svg1"
   width="254.71999"
   height="70.719994"
   viewBox="0 0 254.71999 70.719994"
   xmlns="http://www.w3.org/2000/svg"
   xmlns:svg="http://www.w3.org/2000/svg">
  <defs
     id="defs1">
    <clipPath
       clipPathUnits="userSpaceOnUse"
       id="clipPath2">
      <path
         d="M 0,0 H 795.01953 V 222 H 0 Z"
         transform="scale(0.31999999)"
         clip-rule="evenodd"
         id="path2" />
    </clipPath>
    <clipPath
       clipPathUnits="userSpaceOnUse"
       id="clipPath4">
      <path
         d="m 3.125,0 h 787.5 V 222 H 3.125 Z"
         transform="matrix(0.33783326,0,0,0.33783326,434.86725,7246.0001)"
         clip-rule="evenodd"
         id="path4" />
    </clipPath>
    <clipPath
       clipPathUnits="userSpaceOnUse"
       id="clipPath5">
      <path
         d="m 3.125,0 h 787.5 V 222 H 3.125 Z"
         transform="matrix(0.33783326,0,0,0.33783326,-85.992146,-18.499522)"
         clip-rule="evenodd"
         id="path5" />
    </clipPath>
    <clipPath
       clipPathUnits="userSpaceOnUse"
       id="clipPath6">
      <path
         d="m 3.125,0 h 787.5 V 222 H 3.125 Z"
         transform="matrix(0.33783326,0,0,0.33783326,-4.6327663,-33.499522)"
         clip-rule="evenodd"
         id="path6" />
    </clipPath>
    <clipPath
       clipPathUnits="userSpaceOnUse"
       id="clipPath7">
      <path
         d="m 3.125,0 h 787.5 V 222 H 3.125 Z"
         transform="matrix(0.33783326,0,0,0.33783326,-147.38276,-33.499522)"
         clip-rule="evenodd"
         id="path7" />
    </clipPath>
    <clipPath
       clipPathUnits="userSpaceOnUse"
       id="clipPath8">
      <path
         d="m 3.125,0 h 787.5 V 222 H 3.125 Z"
         transform="matrix(0.33783326,0,0,0.33783326,-192.07026,-33.499522)"
         clip-rule="evenodd"
         id="path8" />
    </clipPath>
    <clipPath
       clipPathUnits="userSpaceOnUse"
       id="clipPath9">
      <path
         d="m 3.125,0 h 787.5 V 222 H 3.125 Z"
         transform="matrix(0.33783326,0,0,0.33783326,-195.41402,-33.499522)"
         clip-rule="evenodd"
         id="path9" />
    </clipPath>
    <clipPath
       clipPathUnits="userSpaceOnUse"
       id="clipPath10">
      <path
         d="m 3.125,0 h 787.5 V 222 H 3.125 Z"
         transform="matrix(0.33783326,0,0,0.33783326,-4.6327663,-51.499522)"
         clip-rule="evenodd"
         id="path10" />
    </clipPath>
  </defs>
  <g
     id="g1">
    <path
       id="path1"
       d="M 0,0 H 254 V 71 H 0 Z"
       style="fill:#ffffff;fill-opacity:1;fill-rule:nonzero;stroke:none"
       clip-path="url(#clipPath2)" />
    <path
       id="path3"
       d="m 438,7247 h 262 v 60 H 438 Z"
       style="fill:#ffffff;fill-opacity:1;fill-rule:nonzero;stroke:#000000;stroke-width:1;stroke-linecap:butt;stroke-linejoin:miter;stroke-miterlimit:10;stroke-dasharray:none;stroke-opacity:1"
       transform="matrix(0.94721279,0,0,0.94721279,-411.91182,-6863.504)"
       clip-path="url(#clipPath4)" />
    <g
       id="g4" />
    <g
       id="g5" />
    <text
       id="text5"
       xml:space="preserve"
       transform="matrix(0.94721279,0,0,0.94721279,81.452861,17.522984)"
       clip-path="url(#clipPath5)"><tspan
         id="tspan5"
         style="font-style:italic;font-variant:normal;font-weight:normal;font-size:12px;font-family:Arial;writing-mode:lr-tb;fill:#000000;fill-opacity:1;fill-rule:nonzero;stroke:none"
         x="0"
         y="0"> frame concerns </tspan></text>
    <text
       id="text6"
       xml:space="preserve"
       transform="matrix(0.94721279,0,0,0.94721279,4.3882155,31.731176)"
       clip-path="url(#clipPath6)"><tspan
         id="tspan6"
         style="font-variant:normal;font-weight:normal;font-size:12px;font-family:Arial;writing-mode:lr-tb;fill:#000000;fill-opacity:1;fill-rule:nonzero;stroke:none"
         x="0"
         y="0">concern1 : Concern1 [1..*] </tspan></text>
    <text
       id="text7"
       xml:space="preserve"
       transform="matrix(0.94721279,0,0,0.94721279,139.60284,31.731176)"
       clip-path="url(#clipPath7)"><tspan
         id="tspan7"
         style="font-variant:normal;font-weight:700;font-size:12px;font-family:Arial;writing-mode:lr-tb;fill:#000000;fill-opacity:1;fill-rule:nonzero;stroke:none"
         x="0"
         y="0">ordered</tspan></text>
    <text
       id="text8"
       xml:space="preserve"
       transform="matrix(0.94721279,0,0,0.94721279,181.93141,31.731176)"
       clip-path="url(#clipPath8)"><tspan
         id="tspan8"
         style="font-variant:normal;font-weight:normal;font-size:12px;font-family:Arial;writing-mode:lr-tb;fill:#000000;fill-opacity:1;fill-rule:nonzero;stroke:none"
         x="0"
         y="0"> </tspan></text>
    <text
       id="text9"
       xml:space="preserve"
       transform="matrix(0.94721279,0,0,0.94721279,185.09866,31.731176)"
       clip-path="url(#clipPath9)"><tspan
         id="tspan9"
         style="font-variant:normal;font-weight:700;font-size:12px;font-family:Arial;writing-mode:lr-tb;fill:#000000;fill-opacity:1;fill-rule:nonzero;stroke:none"
         x="0"
         y="0">nonunique</tspan></text>
    <text
       id="text10"
       xml:space="preserve"
       transform="matrix(0.94721279,0,0,0.94721279,4.3882155,48.781006)"
       clip-path="url(#clipPath10)"><tspan
         id="tspan10"
         style="font-variant:normal;font-weight:700;font-size:14px;font-family:Arial;writing-mode:lr-tb;fill:#000000;fill-opacity:1;fill-rule:nonzero;stroke:none"
         x="0"
         y="0">...</tspan></text>
  </g>
</svg>
