<?xml version="1.0" encoding="UTF-8" standalone="no"?>
<!-- Created with Inkscape (http://www.inkscape.org/) -->

<svg
   version="1.1"
   id="svg1"
   width="416"
   height="272"
   viewBox="0 0 416 272"
   xmlns="http://www.w3.org/2000/svg"
   xmlns:svg="http://www.w3.org/2000/svg">
  <defs
     id="defs1">
    <clipPath
       clipPathUnits="userSpaceOnUse"
       id="clipPath2">
      <path
         d="M 0,0 H 1299.0234 V 849.02344 H 0 Z"
         transform="scale(0.31999999)"
         clip-rule="evenodd"
         id="path2" />
    </clipPath>
    <clipPath
       clipPathUnits="userSpaceOnUse"
       id="clipPath4">
      <path
         d="m 3.125,0 h 1293.75 V 846.875 H 3.125 Z"
         transform="matrix(0.33603997,0,0,0.33603997,36.897864,37.949875)"
         clip-rule="evenodd"
         id="path4" />
    </clipPath>
    <clipPath
       clipPathUnits="userSpaceOnUse"
       id="clipPath6">
      <path
         d="m 3.125,0 h 1293.75 V 846.875 H 3.125 Z"
         transform="matrix(0.33603997,0,0,0.33603997,36.897864,37.949875)"
         clip-rule="evenodd"
         id="path6" />
    </clipPath>
    <clipPath
       clipPathUnits="userSpaceOnUse"
       id="clipPath8">
      <path
         d="m 3.125,0 h 1293.75 V 846.875 H 3.125 Z"
         transform="matrix(0.33603997,0,0,0.33603997,36.897864,37.949875)"
         clip-rule="evenodd"
         id="path8" />
    </clipPath>
    <clipPath
       clipPathUnits="userSpaceOnUse"
       id="clipPath10">
      <path
         d="m 3.125,0 h 1293.75 V 846.875 H 3.125 Z"
         transform="matrix(0.33603997,0,0,0.33603997,36.897864,37.949875)"
         clip-rule="evenodd"
         id="path10" />
    </clipPath>
    <clipPath
       clipPathUnits="userSpaceOnUse"
       id="clipPath12">
      <path
         d="m 3.125,0 h 1293.75 V 846.875 H 3.125 Z"
         transform="matrix(0.33603997,0,0,0.33603997,36.897864,37.949875)"
         clip-rule="evenodd"
         id="path12" />
    </clipPath>
    <clipPath
       clipPathUnits="userSpaceOnUse"
       id="clipPath14">
      <path
         d="m 3.125,0 h 1293.75 V 846.875 H 3.125 Z"
         transform="matrix(0.33603997,0,0,0.33603997,36.897864,37.949875)"
         clip-rule="evenodd"
         id="path14" />
    </clipPath>
    <clipPath
       clipPathUnits="userSpaceOnUse"
       id="clipPath16">
      <path
         d="m 3.125,0 h 1293.75 V 846.875 H 3.125 Z"
         transform="matrix(0.33603997,0,0,0.33603997,36.897864,37.949875)"
         clip-rule="evenodd"
         id="path16" />
    </clipPath>
    <clipPath
       clipPathUnits="userSpaceOnUse"
       id="clipPath18">
      <path
         d="m 3.125,0 h 1293.75 V 846.875 H 3.125 Z"
         transform="matrix(0.33603997,0,0,0.33603997,36.897864,37.949875)"
         clip-rule="evenodd"
         id="path18" />
    </clipPath>
    <clipPath
       clipPathUnits="userSpaceOnUse"
       id="clipPath20">
      <path
         d="m 3.125,0 h 1293.75 V 846.875 H 3.125 Z"
         transform="matrix(0.33603997,0,0,0.33603997,36.897864,37.949875)"
         clip-rule="evenodd"
         id="path20" />
    </clipPath>
    <clipPath
       clipPathUnits="userSpaceOnUse"
       id="clipPath22">
      <path
         d="m 3.125,0 h 1293.75 V 846.875 H 3.125 Z"
         transform="matrix(0.33603997,0,0,0.33603997,36.897864,37.949875)"
         clip-rule="evenodd"
         id="path22" />
    </clipPath>
    <clipPath
       clipPathUnits="userSpaceOnUse"
       id="clipPath24">
      <path
         d="m 3.125,0 h 1293.75 V 846.875 H 3.125 Z"
         transform="matrix(0.33603997,0,0,0.33603997,36.897864,37.949875)"
         clip-rule="evenodd"
         id="path24" />
    </clipPath>
    <clipPath
       clipPathUnits="userSpaceOnUse"
       id="clipPath26">
      <path
         d="m 3.125,0 h 1293.75 V 846.875 H 3.125 Z"
         transform="matrix(0.33603997,0,0,0.33603997,36.897864,37.949875)"
         clip-rule="evenodd"
         id="path26" />
    </clipPath>
    <clipPath
       clipPathUnits="userSpaceOnUse"
       id="clipPath28">
      <path
         d="m 3.125,0 h 1293.75 V 846.875 H 3.125 Z"
         transform="matrix(0.33603997,0,0,0.33603997,36.897864,37.949875)"
         clip-rule="evenodd"
         id="path28" />
    </clipPath>
    <clipPath
       clipPathUnits="userSpaceOnUse"
       id="clipPath30">
      <path
         d="m 3.125,0 h 1293.75 V 846.875 H 3.125 Z"
         transform="matrix(0.33603997,0,0,0.33603997,36.897864,37.949875)"
         clip-rule="evenodd"
         id="path30" />
    </clipPath>
    <clipPath
       clipPathUnits="userSpaceOnUse"
       id="clipPath32">
      <path
         d="m 3.125,0 h 1293.75 V 846.875 H 3.125 Z"
         transform="matrix(0.33603997,0,0,0.33603997,36.897864,37.949875)"
         clip-rule="evenodd"
         id="path32" />
    </clipPath>
    <clipPath
       clipPathUnits="userSpaceOnUse"
       id="clipPath34">
      <path
         d="m 3.125,0 h 1293.75 V 846.875 H 3.125 Z"
         transform="matrix(0.33603997,0,0,0.33603997,36.897864,37.949875)"
         clip-rule="evenodd"
         id="path34" />
    </clipPath>
    <clipPath
       clipPathUnits="userSpaceOnUse"
       id="clipPath35">
      <path
         d="M 73.211929,99.839676 H 91.066955 V 144.47722 H 73.211929 Z"
         transform="matrix(0.33603997,0,0,0.33603997,-24.258385,-44.550124)"
         clip-rule="evenodd"
         id="path35" />
    </clipPath>
    <clipPath
       clipPathUnits="userSpaceOnUse"
       id="clipPath36">
      <path
         d="M 222.00377,99.839676 H 403.52979 V 144.47722 H 222.00377 Z"
         transform="matrix(0.33603997,0,0,0.33603997,-74.414635,-44.550124)"
         clip-rule="evenodd"
         id="path36" />
    </clipPath>
    <clipPath
       clipPathUnits="userSpaceOnUse"
       id="clipPath37">
      <path
         d="m 593.98334,99.839676 h 181.526 v 44.637544 h -181.526 z"
         transform="matrix(0.33603997,0,0,0.33603997,-199.41463,-44.550124)"
         clip-rule="evenodd"
         id="path37" />
    </clipPath>
    <clipPath
       clipPathUnits="userSpaceOnUse"
       id="clipPath38">
      <path
         d="M 965.96289,99.839676 H 1147.4889 V 144.47722 H 965.96289 Z"
         transform="matrix(0.33603997,0,0,0.33603997,-324.41464,-44.550124)"
         clip-rule="evenodd"
         id="path38" />
    </clipPath>
    <clipPath
       clipPathUnits="userSpaceOnUse"
       id="clipPath39">
      <path
         d="m 73.211929,159.3564 h 17.855026 v 44.63757 H 73.211929 Z"
         transform="matrix(0.33603997,0,0,0.33603997,-24.258385,-64.550123)"
         clip-rule="evenodd"
         id="path39" />
    </clipPath>
    <clipPath
       clipPathUnits="userSpaceOnUse"
       id="clipPath40">
      <path
         d="m 132.72867,159.3564 h 294.60782 v 44.63757 H 132.72867 Z"
         transform="matrix(0.33603997,0,0,0.33603997,-44.602135,-64.550123)"
         clip-rule="evenodd"
         id="path40" />
    </clipPath>
    <clipPath
       clipPathUnits="userSpaceOnUse"
       id="clipPath41">
      <path
         d="m 73.211929,242.67982 h 17.855026 v 44.63756 H 73.211929 Z"
         transform="matrix(0.33603997,0,0,0.33603997,-24.258385,-92.550123)"
         clip-rule="evenodd"
         id="path41" />
    </clipPath>
    <clipPath
       clipPathUnits="userSpaceOnUse"
       id="clipPath42">
      <path
         d="m 504.70825,221.84898 h 366.02789 v 86.29927 H 504.70825 Z"
         transform="matrix(0.33603997,0,0,0.33603997,-169.60213,-85.550123)"
         clip-rule="evenodd"
         id="path42" />
    </clipPath>
    <clipPath
       clipPathUnits="userSpaceOnUse"
       id="clipPath43">
      <path
         d="m 504.70825,221.84898 h 366.02789 v 86.29927 H 504.70825 Z"
         transform="matrix(0.33603997,0,0,0.33603997,-169.60213,-100.55012)"
         clip-rule="evenodd"
         id="path43" />
    </clipPath>
    <clipPath
       clipPathUnits="userSpaceOnUse"
       id="clipPath44">
      <path
         d="M 73.211929,326.00323 H 91.066955 V 370.6408 H 73.211929 Z"
         transform="matrix(0.33603997,0,0,0.33603997,-24.258385,-120.55012)"
         clip-rule="evenodd"
         id="path44" />
    </clipPath>
    <clipPath
       clipPathUnits="userSpaceOnUse"
       id="clipPath45">
      <path
         d="M 876.68781,326.00323 H 1105.8273 V 370.6408 H 876.68781 Z"
         transform="matrix(0.33603997,0,0,0.33603997,-294.60214,-120.55012)"
         clip-rule="evenodd"
         id="path45" />
    </clipPath>
    <clipPath
       clipPathUnits="userSpaceOnUse"
       id="clipPath46">
      <path
         d="m 73.211929,385.51996 h 17.855026 v 44.63757 H 73.211929 Z"
         transform="matrix(0.33603997,0,0,0.33603997,-24.258385,-140.55012)"
         clip-rule="evenodd"
         id="path46" />
    </clipPath>
    <clipPath
       clipPathUnits="userSpaceOnUse"
       id="clipPath47">
      <path
         d="m 876.68781,385.51996 h 336.26949 v 44.63757 H 876.68781 Z"
         transform="matrix(0.33603997,0,0,0.33603997,-294.60214,-140.55012)"
         clip-rule="evenodd"
         id="path47" />
    </clipPath>
    <clipPath
       clipPathUnits="userSpaceOnUse"
       id="clipPath48">
      <path
         d="m 73.211929,445.03674 h 17.855026 v 44.63751 H 73.211929 Z"
         transform="matrix(0.33603997,0,0,0.33603997,-24.258385,-160.55013)"
         clip-rule="evenodd"
         id="path48" />
    </clipPath>
    <clipPath
       clipPathUnits="userSpaceOnUse"
       id="clipPath49">
      <path
         d="m 876.68781,445.03674 h 336.26949 v 44.63751 H 876.68781 Z"
         transform="matrix(0.33603997,0,0,0.33603997,-294.60214,-160.55013)"
         clip-rule="evenodd"
         id="path49" />
    </clipPath>
    <clipPath
       clipPathUnits="userSpaceOnUse"
       id="clipPath50">
      <path
         d="m 73.211929,528.36017 h 17.855026 v 44.63751 H 73.211929 Z"
         transform="matrix(0.33603997,0,0,0.33603997,-24.258385,-188.55012)"
         clip-rule="evenodd"
         id="path50" />
    </clipPath>
    <clipPath
       clipPathUnits="userSpaceOnUse"
       id="clipPath51">
      <path
         d="m 504.70825,507.5293 h 366.02789 v 86.29926 H 504.70825 Z"
         transform="matrix(0.33603997,0,0,0.33603997,-169.60213,-181.55013)"
         clip-rule="evenodd"
         id="path51" />
    </clipPath>
    <clipPath
       clipPathUnits="userSpaceOnUse"
       id="clipPath52">
      <path
         d="m 504.70825,507.5293 h 366.02789 v 86.29926 H 504.70825 Z"
         transform="matrix(0.33603997,0,0,0.33603997,-169.60213,-196.55012)"
         clip-rule="evenodd"
         id="path52" />
    </clipPath>
    <clipPath
       clipPathUnits="userSpaceOnUse"
       id="clipPath53">
      <path
         d="M 73.211929,611.68359 H 91.066955 V 656.3211 H 73.211929 Z"
         transform="matrix(0.33603997,0,0,0.33603997,-24.258385,-216.55012)"
         clip-rule="evenodd"
         id="path53" />
    </clipPath>
    <clipPath
       clipPathUnits="userSpaceOnUse"
       id="clipPath54">
      <path
         d="M 876.68781,611.68359 H 1114.7548 V 656.3211 H 876.68781 Z"
         transform="matrix(0.33603997,0,0,0.33603997,-294.60214,-216.55012)"
         clip-rule="evenodd"
         id="path54" />
    </clipPath>
    <clipPath
       clipPathUnits="userSpaceOnUse"
       id="clipPath55">
      <path
         d="m 73.211929,671.20032 h 17.855026 v 44.63751 H 73.211929 Z"
         transform="matrix(0.33603997,0,0,0.33603997,-24.258385,-236.55013)"
         clip-rule="evenodd"
         id="path55" />
    </clipPath>
    <clipPath
       clipPathUnits="userSpaceOnUse"
       id="clipPath56">
      <path
         d="m 876.68781,671.20032 h 342.22129 v 44.63751 H 876.68781 Z"
         transform="matrix(0.33603997,0,0,0.33603997,-294.60214,-236.55013)"
         clip-rule="evenodd"
         id="path56" />
    </clipPath>
    <clipPath
       clipPathUnits="userSpaceOnUse"
       id="clipPath57">
      <path
         d="m 73.211929,730.71704 h 17.855026 v 44.63757 H 73.211929 Z"
         transform="matrix(0.33603997,0,0,0.33603997,-24.258385,-256.55012)"
         clip-rule="evenodd"
         id="path57" />
    </clipPath>
    <clipPath
       clipPathUnits="userSpaceOnUse"
       id="clipPath58">
      <path
         d="m 876.68781,730.71704 h 342.22129 v 44.63757 H 876.68781 Z"
         transform="matrix(0.33603997,0,0,0.33603997,-294.60214,-256.55012)"
         clip-rule="evenodd"
         id="path58" />
    </clipPath>
    <linearGradient
       x1="0"
       y1="0"
       x2="0"
       y2="1"
       gradientUnits="userSpaceOnUse"
       gradientTransform="matrix(230.00001,0,0,20,40,40)"
       spreadMethod="pad"
       id="linearGradient60">
      <stop
         style="stop-opacity:1;stop-color:#ffffff"
         offset="0"
         id="stop59" />
      <stop
         style="stop-opacity:1;stop-color:#ffffff"
         offset="1"
         id="stop60" />
    </linearGradient>
    <clipPath
       clipPathUnits="userSpaceOnUse"
       id="clipPath60">
      <path
         d="m 3.125,0 h 1293.75 V 846.875 H 3.125 Z"
         transform="matrix(0.33603997,0,0,0.33603997,36.897864,37.949875)"
         clip-rule="evenodd"
         id="path60" />
    </clipPath>
    <clipPath
       clipPathUnits="userSpaceOnUse"
       id="clipPath61">
      <path
         d="m 3.125,0 h 1293.75 V 846.875 H 3.125 Z"
         transform="matrix(0.31999999,0,0,0.31999999,-4.3715966,-15.744799)"
         clip-rule="evenodd"
         id="path61" />
    </clipPath>
  </defs>
  <g
     id="g1">
    <path
       id="path1"
       d="M 0,0 H 416 V 272 H 0 Z"
       style="fill:#ffffff;fill-opacity:1;fill-rule:nonzero;stroke:none"
       clip-path="url(#clipPath2)" />
    <path
       id="path3"
       d="m 45,40 h 420 c 0.66299,0 1.30078,0.126865 1.91336,0.380596 0.61258,0.253735 1.15329,0.615025 1.62216,1.083866 0.46881,0.468838 0.83008,1.009545 1.08383,1.622113 C 469.87311,43.69915 469.99997,44.336956 470,45 v 270 c -3e-5,0.66299 -0.12689,1.30081 -0.38065,1.91339 -0.25375,0.61255 -0.61502,1.15326 -1.08383,1.62213 -0.46887,0.46881 -1.00958,0.83008 -1.62216,1.08383 C 466.30078,319.87311 465.66299,319.99997 465,320 H 45 c -0.663044,-3e-5 -1.30085,-0.12689 -1.913425,-0.38065 -0.612568,-0.25375 -1.153275,-0.61502 -1.622113,-1.08383 -0.468845,-0.46887 -0.830131,-1.00958 -1.083866,-1.62213 C 40.126862,316.30081 39.999996,315.66299 40,315 V 45 c -4e-6,-0.663044 0.126862,-1.30085 0.380596,-1.913425 0.253735,-0.612568 0.615021,-1.153275 1.083866,-1.622113 0.468838,-0.468841 1.009545,-0.830131 1.622113,-1.083866 C 43.69915,40.126865 44.336956,40 45,40 Z"
       style="fill:#ffffff;fill-opacity:1;fill-rule:nonzero;stroke:#000000;stroke-width:1;stroke-linecap:butt;stroke-linejoin:miter;stroke-miterlimit:10;stroke-dasharray:none;stroke-opacity:1"
       transform="matrix(0.95226764,0,0,0.95226764,-35.136642,-36.138438)"
       clip-path="url(#clipPath4)" />
    <path
       id="path5"
       d="m 50,68.5 h 405 v 232 H 50 Z"
       style="fill:#ffffff;fill-opacity:1;fill-rule:nonzero;stroke:none"
       transform="matrix(0.95226764,0,0,0.95226764,-35.136642,-36.138438)"
       clip-path="url(#clipPath6)" />
    <path
       id="path7"
       d="m 50,68.5 h 405 v 232 H 50 v -232"
       style="fill:none;stroke:#000000;stroke-width:1;stroke-linecap:butt;stroke-linejoin:miter;stroke-miterlimit:10;stroke-dasharray:none;stroke-opacity:1"
       transform="matrix(0.95226764,0,0,0.95226764,-35.136642,-36.138438)"
       clip-path="url(#clipPath8)" />
    <path
       id="path9"
       d="M 50,88.5 H 80 205 330 455"
       style="fill:none;stroke:#000000;stroke-width:1;stroke-linecap:butt;stroke-linejoin:miter;stroke-miterlimit:10;stroke-dasharray:none;stroke-opacity:1"
       transform="matrix(0.95226764,0,0,0.95226764,-35.136642,-36.138438)"
       clip-path="url(#clipPath10)" />
    <path
       id="path11"
       d="M 50,108.5 H 80 205 330 455"
       style="fill:none;stroke:#000000;stroke-width:1;stroke-linecap:butt;stroke-linejoin:miter;stroke-miterlimit:10;stroke-dasharray:none;stroke-opacity:1"
       transform="matrix(0.95226764,0,0,0.95226764,-35.136642,-36.138438)"
       clip-path="url(#clipPath12)" />
    <path
       id="path13"
       d="M 50,144.5 H 80 205 330 455"
       style="fill:none;stroke:#000000;stroke-width:1;stroke-linecap:butt;stroke-linejoin:miter;stroke-miterlimit:10;stroke-dasharray:none;stroke-opacity:1"
       transform="matrix(0.95226764,0,0,0.95226764,-35.136642,-36.138438)"
       clip-path="url(#clipPath14)" />
    <path
       id="path15"
       d="M 50,164.5 H 80 205 330 455"
       style="fill:none;stroke:#000000;stroke-width:1;stroke-linecap:butt;stroke-linejoin:miter;stroke-miterlimit:10;stroke-dasharray:none;stroke-opacity:1"
       transform="matrix(0.95226764,0,0,0.95226764,-35.136642,-36.138438)"
       clip-path="url(#clipPath16)" />
    <path
       id="path17"
       d="M 50,184.5 H 80 205 330 455"
       style="fill:none;stroke:#000000;stroke-width:1;stroke-linecap:butt;stroke-linejoin:miter;stroke-miterlimit:10;stroke-dasharray:none;stroke-opacity:1"
       transform="matrix(0.95226764,0,0,0.95226764,-35.136642,-36.138438)"
       clip-path="url(#clipPath18)" />
    <path
       id="path19"
       d="M 50,204.5 H 80 205 330 455"
       style="fill:none;stroke:#000000;stroke-width:1;stroke-linecap:butt;stroke-linejoin:miter;stroke-miterlimit:10;stroke-dasharray:none;stroke-opacity:1"
       transform="matrix(0.95226764,0,0,0.95226764,-35.136642,-36.138438)"
       clip-path="url(#clipPath20)" />
    <path
       id="path21"
       d="M 50,240.5 H 80 205 330 455"
       style="fill:none;stroke:#000000;stroke-width:1;stroke-linecap:butt;stroke-linejoin:miter;stroke-miterlimit:10;stroke-dasharray:none;stroke-opacity:1"
       transform="matrix(0.95226764,0,0,0.95226764,-35.136642,-36.138438)"
       clip-path="url(#clipPath22)" />
    <path
       id="path23"
       d="M 50,260.5 H 80 205 330 455"
       style="fill:none;stroke:#000000;stroke-width:1;stroke-linecap:butt;stroke-linejoin:miter;stroke-miterlimit:10;stroke-dasharray:none;stroke-opacity:1"
       transform="matrix(0.95226764,0,0,0.95226764,-35.136642,-36.138438)"
       clip-path="url(#clipPath24)" />
    <path
       id="path25"
       d="M 50,280.5 H 80 205 330 455"
       style="fill:none;stroke:#000000;stroke-width:1;stroke-linecap:butt;stroke-linejoin:miter;stroke-miterlimit:10;stroke-dasharray:none;stroke-opacity:1"
       transform="matrix(0.95226764,0,0,0.95226764,-35.136642,-36.138438)"
       clip-path="url(#clipPath26)" />
    <path
       id="path27"
       d="m 80,68.5 v 20 20 36 20 20 20 36 20 20 20"
       style="fill:none;stroke:#000000;stroke-width:1;stroke-linecap:butt;stroke-linejoin:miter;stroke-miterlimit:10;stroke-dasharray:none;stroke-opacity:1"
       transform="matrix(0.95226764,0,0,0.95226764,-35.136642,-36.138438)"
       clip-path="url(#clipPath28)" />
    <path
       id="path29"
       d="m 205,68.5 v 20 20 36 20 20 20 36 20 20 20"
       style="fill:none;stroke:#000000;stroke-width:1;stroke-linecap:butt;stroke-linejoin:miter;stroke-miterlimit:10;stroke-dasharray:none;stroke-opacity:1"
       transform="matrix(0.95226764,0,0,0.95226764,-35.136642,-36.138438)"
       clip-path="url(#clipPath30)" />
    <path
       id="path31"
       d="m 330,68.5 v 20 20 36 20 20 20 36 20 20 20"
       style="fill:none;stroke:#000000;stroke-width:1;stroke-linecap:butt;stroke-linejoin:miter;stroke-miterlimit:10;stroke-dasharray:none;stroke-opacity:1"
       transform="matrix(0.95226764,0,0,0.95226764,-35.136642,-36.138438)"
       clip-path="url(#clipPath32)" />
    <path
       id="path33"
       d="m 50,68.5 h 405 v 20 H 50 Z"
       style="fill:#b3b3b3;fill-opacity:0.3;fill-rule:nonzero;stroke:none"
       transform="matrix(0.95226764,0,0,0.95226764,-35.136642,-36.138438)"
       clip-path="url(#clipPath34)" />
    <text
       id="text34"
       xml:space="preserve"
       transform="matrix(0.95226764,0,0,0.95226764,23.100475,42.423641)"
       clip-path="url(#clipPath35)"><tspan
         id="tspan34"
         style="font-variant:normal;font-weight:normal;font-size:12px;font-family:Arial;writing-mode:lr-tb;fill:#000000;fill-opacity:1;fill-rule:nonzero;stroke:none"
         x="0"
         y="0">#</tspan></text>
    <text
       id="text35"
       xml:space="preserve"
       transform="matrix(0.95226764,0,0,0.95226764,70.862649,42.423641)"
       clip-path="url(#clipPath36)"><tspan
         id="tspan35"
         style="font-variant:normal;font-weight:normal;font-size:12px;font-family:Arial;writing-mode:lr-tb;fill:#000000;fill-opacity:1;fill-rule:nonzero;stroke:none"
         x="0"
         y="0">Part-Level1</tspan></text>
    <text
       id="text36"
       xml:space="preserve"
       transform="matrix(0.95226764,0,0,0.95226764,189.8961,42.423641)"
       clip-path="url(#clipPath37)"><tspan
         id="tspan36"
         style="font-variant:normal;font-weight:normal;font-size:12px;font-family:Arial;writing-mode:lr-tb;fill:#000000;fill-opacity:1;fill-rule:nonzero;stroke:none"
         x="0"
         y="0">Part-Level2</tspan></text>
    <text
       id="text37"
       xml:space="preserve"
       transform="matrix(0.95226764,0,0,0.95226764,308.92956,42.423641)"
       clip-path="url(#clipPath38)"><tspan
         id="tspan37"
         style="font-variant:normal;font-weight:normal;font-size:12px;font-family:Arial;writing-mode:lr-tb;fill:#000000;fill-opacity:1;fill-rule:nonzero;stroke:none"
         x="0"
         y="0">Part-Level3</tspan></text>
    <text
       id="text38"
       xml:space="preserve"
       transform="matrix(0.95226764,0,0,0.95226764,23.100475,61.468993)"
       clip-path="url(#clipPath39)"><tspan
         id="tspan38"
         style="font-variant:normal;font-weight:normal;font-size:12px;font-family:Arial;writing-mode:lr-tb;fill:#000000;fill-opacity:1;fill-rule:nonzero;stroke:none"
         x="0"
         y="0">1</tspan></text>
    <text
       id="text39"
       xml:space="preserve"
       transform="matrix(0.95226764,0,0,0.95226764,42.47317,61.468993)"
       clip-path="url(#clipPath40)"><tspan
         id="tspan39"
         style="font-variant:normal;font-weight:normal;font-size:12px;font-family:Arial;writing-mode:lr-tb;fill:#000000;fill-opacity:1;fill-rule:nonzero;stroke:none"
         x="0"
         dx="0 0 0 0 0 0 0 0 0 0 0 0 0 -0.66210902"
         y="0">vehicle_b : Vehicle</tspan></text>
    <text
       id="text40"
       xml:space="preserve"
       transform="matrix(0.95226764,0,0,0.95226764,23.100475,88.132487)"
       clip-path="url(#clipPath41)"><tspan
         id="tspan40"
         style="font-variant:normal;font-weight:normal;font-size:12px;font-family:Arial;writing-mode:lr-tb;fill:#000000;fill-opacity:1;fill-rule:nonzero;stroke:none"
         x="0"
         y="0">2</tspan></text>
    <text
       id="text41"
       xml:space="preserve"
       transform="matrix(0.95226764,0,0,0.95226764,161.50662,81.466614)"
       clip-path="url(#clipPath42)"><tspan
         id="tspan41"
         style="font-variant:normal;font-weight:normal;font-size:12px;font-family:Arial;writing-mode:lr-tb;fill:#000000;fill-opacity:1;fill-rule:nonzero;stroke:none"
         x="0"
         y="0">rearAxleAssembly :</tspan></text>
    <text
       id="text42"
       xml:space="preserve"
       transform="matrix(0.95226764,0,0,0.95226764,161.50662,95.750628)"
       clip-path="url(#clipPath43)"><tspan
         id="tspan42"
         style="font-variant:normal;font-weight:normal;font-size:12px;font-family:Arial;writing-mode:lr-tb;fill:#000000;fill-opacity:1;fill-rule:nonzero;stroke:none"
         x="0"
         y="0">AxleAssembly</tspan></text>
    <text
       id="text43"
       xml:space="preserve"
       transform="matrix(0.95226764,0,0,0.95226764,23.100475,114.79598)"
       clip-path="url(#clipPath44)"><tspan
         id="tspan43"
         style="font-variant:normal;font-weight:normal;font-size:12px;font-family:Arial;writing-mode:lr-tb;fill:#000000;fill-opacity:1;fill-rule:nonzero;stroke:none"
         x="0"
         y="0">3</tspan></text>
    <text
       id="text44"
       xml:space="preserve"
       transform="matrix(0.95226764,0,0,0.95226764,280.54008,114.79598)"
       clip-path="url(#clipPath45)"><tspan
         id="tspan44"
         style="font-variant:normal;font-weight:normal;font-size:12px;font-family:Arial;writing-mode:lr-tb;fill:#000000;fill-opacity:1;fill-rule:nonzero;stroke:none"
         x="0"
         dx="0 0 0 0 0 0 0 0 0 0 0 -0.66210866"
         y="0">rearAxle : Axle</tspan></text>
    <text
       id="text45"
       xml:space="preserve"
       transform="matrix(0.95226764,0,0,0.95226764,23.100475,133.84133)"
       clip-path="url(#clipPath46)"><tspan
         id="tspan45"
         style="font-variant:normal;font-weight:normal;font-size:12px;font-family:Arial;writing-mode:lr-tb;fill:#000000;fill-opacity:1;fill-rule:nonzero;stroke:none"
         x="0"
         y="0">4</tspan></text>
    <text
       id="text46"
       xml:space="preserve"
       transform="matrix(0.95226764,0,0,0.95226764,280.54008,133.84133)"
       clip-path="url(#clipPath47)"><tspan
         id="tspan46"
         style="font-variant:normal;font-weight:normal;font-size:12px;font-family:Arial;writing-mode:lr-tb;fill:#000000;fill-opacity:1;fill-rule:nonzero;stroke:none"
         x="0"
         y="0">rearWheel[1] : Wheel</tspan></text>
    <text
       id="text47"
       xml:space="preserve"
       transform="matrix(0.95226764,0,0,0.95226764,23.100475,152.88669)"
       clip-path="url(#clipPath48)"><tspan
         id="tspan47"
         style="font-variant:normal;font-weight:normal;font-size:12px;font-family:Arial;writing-mode:lr-tb;fill:#000000;fill-opacity:1;fill-rule:nonzero;stroke:none"
         x="0"
         y="0">5</tspan></text>
    <text
       id="text48"
       xml:space="preserve"
       transform="matrix(0.95226764,0,0,0.95226764,280.54008,152.88669)"
       clip-path="url(#clipPath49)"><tspan
         id="tspan48"
         style="font-variant:normal;font-weight:normal;font-size:12px;font-family:Arial;writing-mode:lr-tb;fill:#000000;fill-opacity:1;fill-rule:nonzero;stroke:none"
         x="0"
         y="0">rearWheel[2] : Wheel</tspan></text>
    <text
       id="text49"
       xml:space="preserve"
       transform="matrix(0.95226764,0,0,0.95226764,23.100475,179.55018)"
       clip-path="url(#clipPath50)"><tspan
         id="tspan49"
         style="font-variant:normal;font-weight:normal;font-size:12px;font-family:Arial;writing-mode:lr-tb;fill:#000000;fill-opacity:1;fill-rule:nonzero;stroke:none"
         x="0"
         y="0">6</tspan></text>
    <g
       id="g50" />
    <text
       id="text50"
       xml:space="preserve"
       transform="matrix(0.95226764,0,0,0.95226764,161.50662,172.88431)"
       clip-path="url(#clipPath51)"><tspan
         id="tspan50"
         style="font-variant:normal;font-weight:normal;font-size:12px;font-family:Arial;writing-mode:lr-tb;fill:#000000;fill-opacity:1;fill-rule:nonzero;stroke:none"
         x="0"
         y="0">frontAxleAssembly : </tspan></text>
    <text
       id="text51"
       xml:space="preserve"
       transform="matrix(0.95226764,0,0,0.95226764,161.50662,187.16832)"
       clip-path="url(#clipPath52)"><tspan
         id="tspan51"
         style="font-variant:normal;font-weight:normal;font-size:12px;font-family:Arial;writing-mode:lr-tb;fill:#000000;fill-opacity:1;fill-rule:nonzero;stroke:none"
         x="0"
         y="0">AxleAssembly</tspan></text>
    <text
       id="text52"
       xml:space="preserve"
       transform="matrix(0.95226764,0,0,0.95226764,23.100475,206.21367)"
       clip-path="url(#clipPath53)"><tspan
         id="tspan52"
         style="font-variant:normal;font-weight:normal;font-size:12px;font-family:Arial;writing-mode:lr-tb;fill:#000000;fill-opacity:1;fill-rule:nonzero;stroke:none"
         x="0"
         y="0">7</tspan></text>
    <text
       id="text53"
       xml:space="preserve"
       transform="matrix(0.95226764,0,0,0.95226764,280.54008,206.21367)"
       clip-path="url(#clipPath54)"><tspan
         id="tspan53"
         style="font-variant:normal;font-weight:normal;font-size:12px;font-family:Arial;writing-mode:lr-tb;fill:#000000;fill-opacity:1;fill-rule:nonzero;stroke:none"
         x="0"
         dx="0 0 0 0 0 0 0 0 0 0 0 0 -0.66210866"
         y="0">frontAxle : Axle</tspan></text>
    <text
       id="text54"
       xml:space="preserve"
       transform="matrix(0.95226764,0,0,0.95226764,23.100475,225.25903)"
       clip-path="url(#clipPath55)"><tspan
         id="tspan54"
         style="font-variant:normal;font-weight:normal;font-size:12px;font-family:Arial;writing-mode:lr-tb;fill:#000000;fill-opacity:1;fill-rule:nonzero;stroke:none"
         x="0"
         y="0">8</tspan></text>
    <text
       id="text55"
       xml:space="preserve"
       transform="matrix(0.95226764,0,0,0.95226764,280.54008,225.25903)"
       clip-path="url(#clipPath56)"><tspan
         id="tspan55"
         style="font-variant:normal;font-weight:normal;font-size:12px;font-family:Arial;writing-mode:lr-tb;fill:#000000;fill-opacity:1;fill-rule:nonzero;stroke:none"
         x="0"
         y="0">frontWheel[1] : Wheel</tspan></text>
    <text
       id="text56"
       xml:space="preserve"
       transform="matrix(0.95226764,0,0,0.95226764,23.100475,244.30438)"
       clip-path="url(#clipPath57)"><tspan
         id="tspan56"
         style="font-variant:normal;font-weight:normal;font-size:12px;font-family:Arial;writing-mode:lr-tb;fill:#000000;fill-opacity:1;fill-rule:nonzero;stroke:none"
         x="0"
         y="0">9</tspan></text>
    <text
       id="text57"
       xml:space="preserve"
       transform="matrix(0.95226764,0,0,0.95226764,280.54008,244.30438)"
       clip-path="url(#clipPath58)"><tspan
         id="tspan57"
         style="font-variant:normal;font-weight:normal;font-size:12px;font-family:Arial;writing-mode:lr-tb;fill:#000000;fill-opacity:1;fill-rule:nonzero;stroke:none"
         x="0"
         y="0">frontWheel[2] : Wheel</tspan></text>
    <path
       id="path59"
       d="m 45,40 h 225 v 15 c 0,2.759998 -2.23999,5 -5,5 H 40 V 45 c 0,-2.759998 2.240002,-5 5,-5 z"
       style="fill:url(#linearGradient60);fill-opacity:1;fill-rule:nonzero;stroke:#000000;stroke-width:1;stroke-linecap:butt;stroke-linejoin:miter;stroke-miterlimit:10;stroke-dasharray:none;stroke-opacity:1"
       transform="matrix(0.95226764,0,0,0.95226764,-35.136642,-36.138438)"
       clip-path="url(#clipPath60)" />
    <g
       id="g60" />
    <text
       id="text60"
       xml:space="preserve"
       transform="translate(4.3715966,15.744799)"
       clip-path="url(#clipPath61)"><tspan
         id="tspan60"
         style="font-variant:normal;font-weight:normal;font-size:11.42px;font-family:Arial;writing-mode:lr-tb;fill:#000000;fill-opacity:1;fill-rule:nonzero;stroke:none"
         x="0"
         dx="0 0 0 0 0 0 0 0 0 0 0 0 0 0 0 0 0 0 0 0 -0.42378902 0 0 0 0 0 0 0 0 0 0 0 -0.42378902 0 0 0 -1.2657995"
         y="0">«view» vehiclePartsTree : PartsTreeTable</tspan></text>
  </g>
</svg>
