<?xml version="1.0" encoding="UTF-8" standalone="no"?>
<!-- Created with Inkscape (http://www.inkscape.org/) -->

<svg
   version="1.1"
   id="svg1"
   width="416"
   height="126.72"
   viewBox="0 0 416 126.72"
   xmlns="http://www.w3.org/2000/svg"
   xmlns:svg="http://www.w3.org/2000/svg">
  <defs
     id="defs1">
    <clipPath
       clipPathUnits="userSpaceOnUse"
       id="clipPath2">
      <path
         d="M 0,0 H 1299.0234 V 395.99609 H 0 Z"
         transform="scale(0.31999999)"
         clip-rule="evenodd"
         id="path2" />
    </clipPath>
    <clipPath
       clipPathUnits="userSpaceOnUse"
       id="clipPath4">
      <path
         d="m 3.125,0 h 1293.75 V 395.99609 H 3.125 Z"
         transform="matrix(0.33604952,0,0,0.33604952,36.891642,359)"
         clip-rule="evenodd"
         id="path4" />
    </clipPath>
    <clipPath
       clipPathUnits="userSpaceOnUse"
       id="clipPath6">
      <path
         d="m 3.125,0 h 1293.75 V 395.99609 H 3.125 Z"
         transform="matrix(0.33604952,0,0,0.33604952,36.891642,359)"
         clip-rule="evenodd"
         id="path6" />
    </clipPath>
    <clipPath
       clipPathUnits="userSpaceOnUse"
       id="clipPath8">
      <path
         d="m 3.125,0 h 1293.75 V 395.99609 H 3.125 Z"
         transform="matrix(0.33604952,0,0,0.33604952,36.891642,359)"
         clip-rule="evenodd"
         id="path8" />
    </clipPath>
    <clipPath
       clipPathUnits="userSpaceOnUse"
       id="clipPath10">
      <path
         d="m 3.125,0 h 1293.75 V 395.99609 H 3.125 Z"
         transform="matrix(0.33604952,0,0,0.33604952,36.891642,359)"
         clip-rule="evenodd"
         id="path10" />
    </clipPath>
    <clipPath
       clipPathUnits="userSpaceOnUse"
       id="clipPath12">
      <path
         d="m 3.125,0 h 1293.75 V 395.99609 H 3.125 Z"
         transform="matrix(0.33604952,0,0,0.33604952,36.891642,359)"
         clip-rule="evenodd"
         id="path12" />
    </clipPath>
    <clipPath
       clipPathUnits="userSpaceOnUse"
       id="clipPath14">
      <path
         d="m 3.125,0 h 1293.75 V 395.99609 H 3.125 Z"
         transform="matrix(0.33604952,0,0,0.33604952,36.891642,359)"
         clip-rule="evenodd"
         id="path14" />
    </clipPath>
    <clipPath
       clipPathUnits="userSpaceOnUse"
       id="clipPath16">
      <path
         d="m 3.125,0 h 1293.75 V 395.99609 H 3.125 Z"
         transform="matrix(0.33604952,0,0,0.33604952,36.891642,359)"
         clip-rule="evenodd"
         id="path16" />
    </clipPath>
    <clipPath
       clipPathUnits="userSpaceOnUse"
       id="clipPath18">
      <path
         d="m 3.125,0 h 1293.75 V 395.99609 H 3.125 Z"
         transform="matrix(0.33604952,0,0,0.33604952,36.891642,359)"
         clip-rule="evenodd"
         id="path18" />
    </clipPath>
    <clipPath
       clipPathUnits="userSpaceOnUse"
       id="clipPath20">
      <path
         d="m 3.125,0 h 1293.75 V 395.99609 H 3.125 Z"
         transform="matrix(0.33604952,0,0,0.33604952,36.891642,359)"
         clip-rule="evenodd"
         id="path20" />
    </clipPath>
    <clipPath
       clipPathUnits="userSpaceOnUse"
       id="clipPath22">
      <path
         d="m 3.125,0 h 1293.75 V 395.99609 H 3.125 Z"
         transform="matrix(0.33604952,0,0,0.33604952,36.891642,359)"
         clip-rule="evenodd"
         id="path22" />
    </clipPath>
    <clipPath
       clipPathUnits="userSpaceOnUse"
       id="clipPath23">
      <path
         d="M 73.228363,96.712036 H 91.082886 V 141.34827 H 73.228363 Z"
         transform="matrix(0.33604952,0,0,0.33604952,-24.264608,-43.500033)"
         clip-rule="evenodd"
         id="path23" />
    </clipPath>
    <clipPath
       clipPathUnits="userSpaceOnUse"
       id="clipPath24">
      <path
         d="M 165.47668,96.712036 H 474.95489 V 141.34827 H 165.47668 Z"
         transform="matrix(0.33604952,0,0,0.33604952,-55.905233,-43.500033)"
         clip-rule="evenodd"
         id="path24" />
    </clipPath>
    <clipPath
       clipPathUnits="userSpaceOnUse"
       id="clipPath25">
      <path
         d="M 713.01501,96.712036 H 1043.3235 V 141.34827 H 713.01501 Z"
         transform="matrix(0.33604952,0,0,0.33604952,-240.07711,-43.500033)"
         clip-rule="evenodd"
         id="path25" />
    </clipPath>
    <clipPath
       clipPathUnits="userSpaceOnUse"
       id="clipPath26">
      <path
         d="m 617.79095,156.22705 h 148.7876 v 44.63623 h -148.7876 z"
         transform="matrix(0.33604952,0,0,0.33604952,-207.24898,-63.500032)"
         clip-rule="evenodd"
         id="path26" />
    </clipPath>
    <clipPath
       clipPathUnits="userSpaceOnUse"
       id="clipPath27">
      <path
         d="m 1001.6629,156.22705 h 110.103 v 44.63623 h -110.103 z"
         transform="matrix(0.33604952,0,0,0.33604952,-337.07711,-63.500032)"
         clip-rule="evenodd"
         id="path27" />
    </clipPath>
    <clipPath
       clipPathUnits="userSpaceOnUse"
       id="clipPath28">
      <path
         d="m 73.228363,215.74207 h 17.854523 v 44.63635 H 73.228363 Z"
         transform="matrix(0.33604952,0,0,0.33604952,-24.264608,-83.500033)"
         clip-rule="evenodd"
         id="path28" />
    </clipPath>
    <clipPath
       clipPathUnits="userSpaceOnUse"
       id="clipPath29">
      <path
         d="m 132.74341,215.74207 h 300.55096 v 44.63635 H 132.74341 Z"
         transform="matrix(0.33604952,0,0,0.33604952,-44.608358,-83.500033)"
         clip-rule="evenodd"
         id="path29" />
    </clipPath>
    <clipPath
       clipPathUnits="userSpaceOnUse"
       id="clipPath30">
      <path
         d="M 683.25751,215.74207 H 701.112 v 44.63635 h -17.85449 z"
         transform="matrix(0.33604952,0,0,0.33604952,-229.60835,-83.500033)"
         clip-rule="evenodd"
         id="path30" />
    </clipPath>
    <clipPath
       clipPathUnits="userSpaceOnUse"
       id="clipPath31">
      <path
         d="m 73.228363,275.25708 h 17.854523 v 44.63635 H 73.228363 Z"
         transform="matrix(0.33604952,0,0,0.33604952,-24.264608,-103.50003)"
         clip-rule="evenodd"
         id="path31" />
    </clipPath>
    <clipPath
       clipPathUnits="userSpaceOnUse"
       id="clipPath32">
      <path
         d="m 132.74341,275.25708 h 261.86615 v 44.63635 H 132.74341 Z"
         transform="matrix(0.33604952,0,0,0.33604952,-44.608358,-103.50003)"
         clip-rule="evenodd"
         id="path32" />
    </clipPath>
    <clipPath
       clipPathUnits="userSpaceOnUse"
       id="clipPath33">
      <path
         d="m 1049.2749,275.25708 h 17.8545 v 44.63635 h -17.8545 z"
         transform="matrix(0.33604952,0,0,0.33604952,-352.10835,-103.50003)"
         clip-rule="evenodd"
         id="path33" />
    </clipPath>
    <linearGradient
       x1="0"
       y1="0"
       x2="0"
       y2="1"
       gradientUnits="userSpaceOnUse"
       gradientTransform="matrix(329.99999,0,0,20,40,359.99997)"
       spreadMethod="pad"
       id="linearGradient35">
      <stop
         style="stop-opacity:1;stop-color:#ffffff"
         offset="0"
         id="stop34" />
      <stop
         style="stop-opacity:1;stop-color:#ffffff"
         offset="1"
         id="stop35" />
    </linearGradient>
    <clipPath
       clipPathUnits="userSpaceOnUse"
       id="clipPath35">
      <path
         d="m 3.125,0 h 1293.75 V 395.99609 H 3.125 Z"
         transform="matrix(0.33604952,0,0,0.33604952,36.891642,359)"
         clip-rule="evenodd"
         id="path35" />
    </clipPath>
    <clipPath
       clipPathUnits="userSpaceOnUse"
       id="clipPath36">
      <path
         d="m 3.125,0 h 1293.75 V 395.99609 H 3.125 Z"
         transform="matrix(0.31999999,0,0,0.31999999,-4.3785374,-14.747685)"
         clip-rule="evenodd"
         id="path36" />
    </clipPath>
  </defs>
  <g
     id="g1">
    <path
       id="path1"
       d="M 0,0 H 416 V 127 H 0 Z"
       style="fill:#ffffff;fill-opacity:1;fill-rule:nonzero;stroke:none"
       clip-path="url(#clipPath2)" />
    <path
       id="path3"
       d="m 45,360 h 420 c 0.66299,0 1.30078,0.12686 1.91336,0.38058 0.61258,0.25373 1.15329,0.61503 1.62216,1.08387 0.46881,0.46884 0.83008,1.00952 1.08383,1.6221 0.25376,0.61258 0.38062,1.25039 0.38065,1.91345 v 120 c -3e-5,0.66302 -0.12689,1.30081 -0.38065,1.91336 -0.25375,0.61255 -0.61502,1.15326 -1.08383,1.62213 -0.46887,0.46884 -1.00958,0.83011 -1.62216,1.08383 C 466.30078,489.87308 465.66299,489.99997 465,490 H 45 c -0.663044,-3e-5 -1.30085,-0.12692 -1.913425,-0.38068 -0.612568,-0.25372 -1.153275,-0.61499 -1.622113,-1.08383 -0.468845,-0.46887 -0.830131,-1.00958 -1.083866,-1.62216 C 40.126862,486.30081 39.999996,485.66302 40,485 V 365 c -4e-6,-0.66306 0.126862,-1.30087 0.380596,-1.91345 0.253735,-0.61258 0.615021,-1.15326 1.083866,-1.6221 0.468838,-0.46884 1.009545,-0.83014 1.622113,-1.0839 C 43.69915,360.12686 44.336956,360 45,360 Z"
       style="fill:#ffffff;fill-opacity:1;fill-rule:nonzero;stroke:#000000;stroke-width:1;stroke-linecap:butt;stroke-linejoin:miter;stroke-miterlimit:10;stroke-dasharray:none;stroke-opacity:1"
       transform="matrix(0.95224057,0,0,0.95224057,-35.129718,-341.85436)"
       clip-path="url(#clipPath4)" />
    <path
       id="path5"
       d="m 50,388.5 h 405 v 80 H 50 Z"
       style="fill:#ffffff;fill-opacity:1;fill-rule:nonzero;stroke:none"
       transform="matrix(0.95224057,0,0,0.95224057,-35.129718,-341.85436)"
       clip-path="url(#clipPath6)" />
    <path
       id="path7"
       d="m 50,388.5 h 405 v 80 H 50 v -80"
       style="fill:none;stroke:#000000;stroke-width:1;stroke-linecap:butt;stroke-linejoin:miter;stroke-miterlimit:10;stroke-dasharray:none;stroke-opacity:1"
       transform="matrix(0.95224057,0,0,0.95224057,-35.129718,-341.85436)"
       clip-path="url(#clipPath8)" />
    <path
       id="path9"
       d="M 50,408.5 H 80 210 330 455"
       style="fill:none;stroke:#000000;stroke-width:1;stroke-linecap:butt;stroke-linejoin:miter;stroke-miterlimit:10;stroke-dasharray:none;stroke-opacity:1"
       transform="matrix(0.95224057,0,0,0.95224057,-35.129718,-341.85436)"
       clip-path="url(#clipPath10)" />
    <path
       id="path11"
       d="M 50,428.5 H 80 210 330 455"
       style="fill:none;stroke:#000000;stroke-width:1;stroke-linecap:butt;stroke-linejoin:miter;stroke-miterlimit:10;stroke-dasharray:none;stroke-opacity:1"
       transform="matrix(0.95224057,0,0,0.95224057,-35.129718,-341.85436)"
       clip-path="url(#clipPath12)" />
    <path
       id="path13"
       d="M 50,448.5 H 80 210 330 455"
       style="fill:none;stroke:#000000;stroke-width:1;stroke-linecap:butt;stroke-linejoin:miter;stroke-miterlimit:10;stroke-dasharray:none;stroke-opacity:1"
       transform="matrix(0.95224057,0,0,0.95224057,-35.129718,-341.85436)"
       clip-path="url(#clipPath14)" />
    <path
       id="path15"
       d="m 80,388.5 v 20 20 20 20"
       style="fill:none;stroke:#000000;stroke-width:1;stroke-linecap:butt;stroke-linejoin:miter;stroke-miterlimit:10;stroke-dasharray:none;stroke-opacity:1"
       transform="matrix(0.95224057,0,0,0.95224057,-35.129718,-341.85436)"
       clip-path="url(#clipPath16)" />
    <path
       id="path17"
       d="m 210,388.5 v 20 20 20 20"
       style="fill:none;stroke:#000000;stroke-width:1;stroke-linecap:butt;stroke-linejoin:miter;stroke-miterlimit:10;stroke-dasharray:none;stroke-opacity:1"
       transform="matrix(0.95224057,0,0,0.95224057,-35.129718,-341.85436)"
       clip-path="url(#clipPath18)" />
    <path
       id="path19"
       d="m 330,408.5 v 20 20 20"
       style="fill:none;stroke:#000000;stroke-width:1;stroke-linecap:butt;stroke-linejoin:miter;stroke-miterlimit:10;stroke-dasharray:none;stroke-opacity:1"
       transform="matrix(0.95224057,0,0,0.95224057,-35.129718,-341.85436)"
       clip-path="url(#clipPath20)" />
    <path
       id="path21"
       d="m 50,388.5 h 405 v 20 H 50 Z"
       style="fill:#b3b3b3;fill-opacity:0.3;fill-rule:nonzero;stroke:none"
       transform="matrix(0.95224057,0,0,0.95224057,-35.129718,-341.85436)"
       clip-path="url(#clipPath22)" />
    <text
       id="text22"
       xml:space="preserve"
       transform="matrix(0.95224057,0,0,0.95224057,23.105744,41.422496)"
       clip-path="url(#clipPath23)"><tspan
         id="tspan22"
         style="font-variant:normal;font-weight:normal;font-size:12px;font-family:Arial;writing-mode:lr-tb;fill:#000000;fill-opacity:1;fill-rule:nonzero;stroke:none"
         x="0"
         y="0">#</tspan></text>
    <text
       id="text23"
       xml:space="preserve"
       transform="matrix(0.95224057,0,0,0.95224057,53.235231,41.422496)"
       clip-path="url(#clipPath24)"><tspan
         id="tspan23"
         style="font-variant:normal;font-weight:normal;font-size:12px;font-family:Arial;writing-mode:lr-tb;fill:#000000;fill-opacity:1;fill-rule:nonzero;stroke:none"
         x="0"
         y="0">Logical Component</tspan></text>
    <text
       id="text24"
       xml:space="preserve"
       transform="matrix(0.95224057,0,0,0.95224057,228.61116,41.422496)"
       clip-path="url(#clipPath25)"><tspan
         id="tspan24"
         style="font-variant:normal;font-weight:normal;font-size:12px;font-family:Arial;writing-mode:lr-tb;fill:#000000;fill-opacity:1;fill-rule:nonzero;stroke:none"
         x="0"
         y="0">Physical Component</tspan></text>
    <text
       id="text25"
       xml:space="preserve"
       transform="matrix(0.95224057,0,0,0.95224057,197.35089,60.467307)"
       clip-path="url(#clipPath26)"><tspan
         id="tspan25"
         style="font-variant:normal;font-weight:normal;font-size:12px;font-family:Arial;writing-mode:lr-tb;fill:#000000;fill-opacity:1;fill-rule:nonzero;stroke:none"
         x="0"
         y="0">alternator</tspan></text>
    <text
       id="text26"
       xml:space="preserve"
       transform="matrix(0.95224057,0,0,0.95224057,320.9785,60.467307)"
       clip-path="url(#clipPath27)"><tspan
         id="tspan26"
         style="font-variant:normal;font-weight:normal;font-size:12px;font-family:Arial;writing-mode:lr-tb;fill:#000000;fill-opacity:1;fill-rule:nonzero;stroke:none"
         x="0"
         y="0">engine</tspan></text>
    <text
       id="text27"
       xml:space="preserve"
       transform="matrix(0.95224057,0,0,0.95224057,23.105744,79.512119)"
       clip-path="url(#clipPath28)"><tspan
         id="tspan27"
         style="font-variant:normal;font-weight:normal;font-size:12px;font-family:Arial;writing-mode:lr-tb;fill:#000000;fill-opacity:1;fill-rule:nonzero;stroke:none"
         x="0"
         y="0">1</tspan></text>
    <text
       id="text28"
       xml:space="preserve"
       transform="matrix(0.95224057,0,0,0.95224057,42.477888,79.512119)"
       clip-path="url(#clipPath29)"><tspan
         id="tspan28"
         style="font-variant:normal;font-weight:normal;font-size:12px;font-family:Arial;writing-mode:lr-tb;fill:#000000;fill-opacity:1;fill-rule:nonzero;stroke:none"
         x="0"
         y="0">electricalGenerator</tspan></text>
    <text
       id="text29"
       xml:space="preserve"
       transform="matrix(0.95224057,0,0,0.95224057,218.64239,79.512119)"
       clip-path="url(#clipPath30)"><tspan
         id="tspan29"
         style="font-variant:normal;font-weight:normal;font-size:12px;font-family:Arial;writing-mode:lr-tb;fill:#000000;fill-opacity:1;fill-rule:nonzero;stroke:none"
         x="0"
         y="0">↑</tspan></text>
    <text
       id="text30"
       xml:space="preserve"
       transform="matrix(0.95224057,0,0,0.95224057,23.105744,98.55693)"
       clip-path="url(#clipPath31)"><tspan
         id="tspan30"
         style="font-variant:normal;font-weight:normal;font-size:12px;font-family:Arial;writing-mode:lr-tb;fill:#000000;fill-opacity:1;fill-rule:nonzero;stroke:none"
         x="0"
         y="0">2</tspan></text>
    <text
       id="text31"
       xml:space="preserve"
       transform="matrix(0.95224057,0,0,0.95224057,42.477888,98.55693)"
       clip-path="url(#clipPath32)"><tspan
         id="tspan31"
         style="font-variant:normal;font-weight:normal;font-size:12px;font-family:Arial;writing-mode:lr-tb;fill:#000000;fill-opacity:1;fill-rule:nonzero;stroke:none"
         x="0"
         y="0">torqueGenerator</tspan></text>
    <text
       id="text32"
       xml:space="preserve"
       transform="matrix(0.95224057,0,0,0.95224057,335.29186,98.55693)"
       clip-path="url(#clipPath33)"><tspan
         id="tspan32"
         style="font-variant:normal;font-weight:normal;font-size:12px;font-family:Arial;writing-mode:lr-tb;fill:#000000;fill-opacity:1;fill-rule:nonzero;stroke:none"
         x="0"
         y="0">↑</tspan></text>
    <path
       id="path34"
       d="m 45,360 h 325 v 15 c 0,2.76001 -2.23999,5 -5,5 H 40 v -15 c 0,-2.76001 2.240002,-5 5,-5 z"
       style="fill:url(#linearGradient35);fill-opacity:1;fill-rule:nonzero;stroke:#000000;stroke-width:1;stroke-linecap:butt;stroke-linejoin:miter;stroke-miterlimit:10;stroke-dasharray:none;stroke-opacity:1"
       transform="matrix(0.95224057,0,0,0.95224057,-35.129718,-341.85436)"
       clip-path="url(#clipPath35)" />
    <g
       id="g35" />
    <text
       id="text35"
       xml:space="preserve"
       transform="translate(4.3785374,14.747685)"
       clip-path="url(#clipPath36)"><tspan
         id="tspan35"
         style="font-variant:normal;font-weight:normal;font-size:11.42px;font-family:Arial;writing-mode:lr-tb;fill:#000000;fill-opacity:1;fill-rule:nonzero;stroke:none"
         x="0"
         dx="0 0 0 0 0 0 0 0 0 0 0 0 0 0 0 0 0 0 0 0 0 0 -1.2657995 0 0 0 0 0 0 0 0 0 0 0 0 0 0 0 0 0 0 0 0 0 -0.63011724"
         y="0">«view» vehicleLogicalToPhysicalAllocation : AllocationMatrix</tspan></text>
  </g>
</svg>
