<?xml version="1.0" encoding="UTF-8" standalone="no"?>
<!-- Created with Inkscape (http://www.inkscape.org/) -->

<svg
   version="1.1"
   id="svg1"
   width="289.28"
   height="232"
   viewBox="0 0 289.28 232"
   xmlns="http://www.w3.org/2000/svg"
   xmlns:svg="http://www.w3.org/2000/svg">
  <defs
     id="defs1">
    <clipPath
       clipPathUnits="userSpaceOnUse"
       id="clipPath2">
      <path
         d="M 0,0 H 905 V 725.97656 H 0 Z"
         transform="scale(0.31999999)"
         clip-rule="evenodd"
         id="path2" />
    </clipPath>
    <clipPath
       clipPathUnits="userSpaceOnUse"
       id="clipPath4">
      <path
         d="m 3.125,3.125 h 900 v 718.75 h -900 z"
         transform="matrix(0.33836766,0,0,0.33836766,1119.8476,16304.885)"
         clip-rule="evenodd"
         id="path4" />
    </clipPath>
    <clipPath
       clipPathUnits="userSpaceOnUse"
       id="clipPath6">
      <path
         d="m 3.125,3.125 h 900 v 718.75 h -900 z"
         transform="matrix(0.33836766,0,0,0.33836766,1119.8476,16304.885)"
         clip-rule="evenodd"
         id="path6" />
    </clipPath>
    <clipPath
       clipPathUnits="userSpaceOnUse"
       id="clipPath8">
      <path
         d="m 3.125,3.125 h 900 v 718.75 h -900 z"
         transform="matrix(0.33836766,0,0,0.33836766,1119.8476,16304.885)"
         clip-rule="evenodd"
         id="path8" />
    </clipPath>
    <clipPath
       clipPathUnits="userSpaceOnUse"
       id="clipPath10">
      <path
         d="m 3.125,3.125 h 900 v 718.75 h -900 z"
         transform="matrix(0.33836766,0,0,0.33836766,1119.8476,16304.885)"
         clip-rule="evenodd"
         id="path10" />
    </clipPath>
    <clipPath
       clipPathUnits="userSpaceOnUse"
       id="clipPath12">
      <path
         d="m 3.125,3.125 h 900 v 718.75 h -900 z"
         transform="matrix(0.33836766,0,0,0.33836766,1119.8476,16304.885)"
         clip-rule="evenodd"
         id="path12" />
    </clipPath>
    <clipPath
       clipPathUnits="userSpaceOnUse"
       id="clipPath14">
      <path
         d="m 3.125,3.125 h 900 v 718.75 h -900 z"
         transform="matrix(0.33836766,0,0,0.33836766,1119.8476,16304.885)"
         clip-rule="evenodd"
         id="path14" />
    </clipPath>
    <clipPath
       clipPathUnits="userSpaceOnUse"
       id="clipPath15">
      <path
         d="m 3.125,3.125 h 900 v 718.75 h -900 z"
         transform="matrix(0.33836766,0,0,0.33836766,-51.136749,-85.613782)"
         clip-rule="evenodd"
         id="path15" />
    </clipPath>
    <clipPath
       clipPathUnits="userSpaceOnUse"
       id="clipPath16">
      <path
         d="m 3.125,3.125 h 900 v 718.75 h -900 z"
         transform="matrix(0.33836766,0,0,0.33836766,-63.80862,-104.61378)"
         clip-rule="evenodd"
         id="path16" />
    </clipPath>
    <clipPath
       clipPathUnits="userSpaceOnUse"
       id="clipPath18">
      <path
         d="m 3.125,3.125 h 900 v 718.75 h -900 z"
         transform="matrix(0.33836766,0,0,0.33836766,1119.8476,16304.885)"
         clip-rule="evenodd"
         id="path18" />
    </clipPath>
    <clipPath
       clipPathUnits="userSpaceOnUse"
       id="clipPath20">
      <path
         d="m 3.125,3.125 h 900 v 718.75 h -900 z"
         transform="matrix(0.33836766,0,0,0.33836766,1119.8476,16304.885)"
         clip-rule="evenodd"
         id="path20" />
    </clipPath>
    <clipPath
       clipPathUnits="userSpaceOnUse"
       id="clipPath22">
      <path
         d="m 3.125,3.125 h 900 v 718.75 h -900 z"
         transform="matrix(0.33836766,0,0,0.33836766,1119.8476,16304.885)"
         clip-rule="evenodd"
         id="path22" />
    </clipPath>
    <clipPath
       clipPathUnits="userSpaceOnUse"
       id="clipPath23">
      <path
         d="m 3.125,3.125 h 900 v 718.75 h -900 z"
         transform="matrix(0.33836766,0,0,0.33836766,-211.13675,-85.613782)"
         clip-rule="evenodd"
         id="path23" />
    </clipPath>
    <clipPath
       clipPathUnits="userSpaceOnUse"
       id="clipPath24">
      <path
         d="m 3.125,3.125 h 900 v 718.75 h -900 z"
         transform="matrix(0.33836766,0,0,0.33836766,-195.13675,-104.61378)"
         clip-rule="evenodd"
         id="path24" />
    </clipPath>
    <clipPath
       clipPathUnits="userSpaceOnUse"
       id="clipPath26">
      <path
         d="m 3.125,3.125 h 900 v 718.75 h -900 z"
         transform="matrix(0.33836766,0,0,0.33836766,1119.8476,16304.885)"
         clip-rule="evenodd"
         id="path26" />
    </clipPath>
    <clipPath
       clipPathUnits="userSpaceOnUse"
       id="clipPath28">
      <path
         d="m 3.125,3.125 h 900 v 718.75 h -900 z"
         transform="matrix(0.33836766,0,0,0.33836766,1119.8476,16304.885)"
         clip-rule="evenodd"
         id="path28" />
    </clipPath>
    <clipPath
       clipPathUnits="userSpaceOnUse"
       id="clipPath30">
      <path
         d="m 3.125,3.125 h 900 v 718.75 h -900 z"
         transform="matrix(0.33836766,0,0,0.33836766,1119.8476,16304.885)"
         clip-rule="evenodd"
         id="path30" />
    </clipPath>
    <clipPath
       clipPathUnits="userSpaceOnUse"
       id="clipPath31">
      <path
         d="m 3.125,3.125 h 900 v 718.75 h -900 z"
         transform="matrix(0.33836766,0,0,0.33836766,-45.46487,-183.61378)"
         clip-rule="evenodd"
         id="path31" />
    </clipPath>
    <clipPath
       clipPathUnits="userSpaceOnUse"
       id="clipPath32">
      <path
         d="m 3.125,3.125 h 900 v 718.75 h -900 z"
         transform="matrix(0.33836766,0,0,0.33836766,-58.13675,-202.61378)"
         clip-rule="evenodd"
         id="path32" />
    </clipPath>
    <clipPath
       clipPathUnits="userSpaceOnUse"
       id="clipPath33">
      <path
         d="M 137.87476,634.26172 H 318.1521 v 44.33203 H 137.87476 Z"
         transform="matrix(0.33836766,0,0,0.33836766,-46.793,-225.61378)"
         clip-rule="evenodd"
         id="path33" />
    </clipPath>
    <clipPath
       clipPathUnits="userSpaceOnUse"
       id="clipPath35">
      <path
         d="m 3.125,3.125 h 900 v 718.75 h -900 z"
         transform="matrix(0.33836766,0,0,0.33836766,1119.8476,16304.885)"
         clip-rule="evenodd"
         id="path35" />
    </clipPath>
    <clipPath
       clipPathUnits="userSpaceOnUse"
       id="clipPath37">
      <path
         d="m 3.125,3.125 h 900 v 718.75 h -900 z"
         transform="matrix(0.33836766,0,0,0.33836766,1119.8476,16304.885)"
         clip-rule="evenodd"
         id="path37" />
    </clipPath>
    <clipPath
       clipPathUnits="userSpaceOnUse"
       id="clipPath39">
      <path
         d="m 3.125,3.125 h 900 v 718.75 h -900 z"
         transform="matrix(0.33836766,0,0,0.33836766,1119.8476,16304.885)"
         clip-rule="evenodd"
         id="path39" />
    </clipPath>
    <clipPath
       clipPathUnits="userSpaceOnUse"
       id="clipPath40">
      <path
         d="m 3.125,3.125 h 900 v 718.75 h -900 z"
         transform="matrix(0.33836766,0,0,0.33836766,-206.46487,-183.61378)"
         clip-rule="evenodd"
         id="path40" />
    </clipPath>
    <clipPath
       clipPathUnits="userSpaceOnUse"
       id="clipPath41">
      <path
         d="m 3.125,3.125 h 900 v 718.75 h -900 z"
         transform="matrix(0.33836766,0,0,0.33836766,-209.793,-202.61378)"
         clip-rule="evenodd"
         id="path41" />
    </clipPath>
    <clipPath
       clipPathUnits="userSpaceOnUse"
       id="clipPath42">
      <path
         d="m 587.09033,634.26172 h 177.32178 v 44.33203 H 587.09033 Z"
         transform="matrix(0.33836766,0,0,0.33836766,-198.293,-225.61378)"
         clip-rule="evenodd"
         id="path42" />
    </clipPath>
    <clipPath
       clipPathUnits="userSpaceOnUse"
       id="clipPath44">
      <path
         d="m 3.125,3.125 h 900 v 718.75 h -900 z"
         transform="matrix(0.33836766,0,0,0.33836766,1119.8476,16304.885)"
         clip-rule="evenodd"
         id="path44" />
    </clipPath>
    <clipPath
       clipPathUnits="userSpaceOnUse"
       id="clipPath46">
      <path
         d="m 3.125,3.125 h 900 v 718.75 h -900 z"
         transform="matrix(0.33836766,0,0,0.33836766,1119.8476,16304.885)"
         clip-rule="evenodd"
         id="path46" />
    </clipPath>
    <clipPath
       clipPathUnits="userSpaceOnUse"
       id="clipPath48">
      <path
         d="m 3.125,3.125 h 900 v 718.75 h -900 z"
         transform="matrix(-0.33836766,0,0,-0.33836766,1387.2326,16707.114)"
         clip-rule="evenodd"
         id="path48" />
    </clipPath>
    <clipPath
       clipPathUnits="userSpaceOnUse"
       id="clipPath50">
      <path
         d="m 3.125,3.125 h 900 v 718.75 h -900 z"
         transform="matrix(-0.33836766,0,0,-0.33836766,1387.2326,16691.115)"
         clip-rule="evenodd"
         id="path50" />
    </clipPath>
    <linearGradient
       x1="0"
       y1="0"
       x2="0"
       y2="1"
       gradientUnits="userSpaceOnUse"
       gradientTransform="matrix(150,0,0,20.000001,1122.97,16308)"
       spreadMethod="pad"
       id="linearGradient52">
      <stop
         style="stop-opacity:1;stop-color:#ffffff"
         offset="0"
         id="stop51" />
      <stop
         style="stop-opacity:1;stop-color:#ffffff"
         offset="1"
         id="stop52" />
    </linearGradient>
    <clipPath
       clipPathUnits="userSpaceOnUse"
       id="clipPath52">
      <path
         d="m 3.125,3.125 h 900 v 718.75 h -900 z"
         transform="matrix(0.33836766,0,0,0.33836766,1119.8476,16304.885)"
         clip-rule="evenodd"
         id="path52" />
    </clipPath>
    <clipPath
       clipPathUnits="userSpaceOnUse"
       id="clipPath53">
      <path
         d="m 3.125,3.125 h 900 v 718.75 h -900 z"
         transform="matrix(0.33836766,0,0,0.33836766,-4.6523692,-16.613783)"
         clip-rule="evenodd"
         id="path53" />
    </clipPath>
    <clipPath
       clipPathUnits="userSpaceOnUse"
       id="clipPath54">
      <path
         d="m 3.125,3.125 h 900 v 718.75 h -900 z"
         transform="matrix(0.33836766,0,0,0.33836766,-45.339869,-16.613783)"
         clip-rule="evenodd"
         id="path54" />
    </clipPath>
    <clipPath
       clipPathUnits="userSpaceOnUse"
       id="clipPath56">
      <path
         d="m 3.125,3.125 h 900 v 718.75 h -900 z"
         transform="matrix(0.33836766,0,0,0.33836766,1119.8476,16304.885)"
         clip-rule="evenodd"
         id="path56" />
    </clipPath>
    <clipPath
       clipPathUnits="userSpaceOnUse"
       id="clipPath57">
      <path
         d="m 3.125,3.125 h 900 v 718.75 h -900 z"
         transform="matrix(0.33836766,0,0,0.33836766,-14.652369,-45.613782)"
         clip-rule="evenodd"
         id="path57" />
    </clipPath>
    <clipPath
       clipPathUnits="userSpaceOnUse"
       id="clipPath59">
      <path
         d="m 3.125,3.125 h 900 v 718.75 h -900 z"
         transform="matrix(0.33836766,0,0,0.33836766,1119.8476,16304.885)"
         clip-rule="evenodd"
         id="path59" />
    </clipPath>
    <clipPath
       clipPathUnits="userSpaceOnUse"
       id="clipPath60">
      <path
         d="m 3.125,3.125 h 900 v 718.75 h -900 z"
         transform="matrix(0.33836766,0,0,0.33836766,-164.65237,-45.613782)"
         clip-rule="evenodd"
         id="path60" />
    </clipPath>
  </defs>
  <g
     id="g1">
    <path
       id="path1"
       d="M 0,0 H 290 V 232 H 0 Z"
       style="fill:#ffffff;fill-opacity:1;fill-rule:nonzero;stroke:none"
       clip-path="url(#clipPath2)" />
    <path
       id="path3"
       d="m 1127.97,16308 h 290 c 0.6629,0 1.3006,0.126 1.9133,0.379 0.6124,0.253 1.1532,0.614 1.6221,1.084 0.4688,0.468 0.8301,1.009 1.0837,1.621 0.2538,0.612 0.3808,1.251 0.3809,1.916 v 229 c -10e-5,0.662 -0.1271,1.299 -0.3809,1.912 -0.2536,0.611 -0.6149,1.152 -1.0837,1.623 -0.4689,0.469 -1.0097,0.83 -1.6221,1.084 -0.6127,0.254 -1.2504,0.381 -1.9133,0.381 h -290 c -0.6631,0 -1.3009,-0.127 -1.9136,-0.381 -0.6125,-0.254 -1.1532,-0.615 -1.6221,-1.084 -0.4688,-0.471 -0.8302,-1.012 -1.084,-1.623 -0.2536,-0.613 -0.3804,-1.25 -0.3803,-1.912 v -229 c -10e-5,-0.665 0.1267,-1.304 0.3803,-1.916 0.2538,-0.612 0.6152,-1.153 1.084,-1.621 0.4689,-0.47 1.0096,-0.831 1.6221,-1.084 0.6127,-0.253 1.2505,-0.379 1.9136,-0.379 z"
       style="fill:#ffffff;fill-opacity:1;fill-rule:nonzero;stroke:#000000;stroke-width:1;stroke-linecap:butt;stroke-linejoin:miter;stroke-miterlimit:10;stroke-dasharray:none;stroke-opacity:1"
       transform="matrix(0.94571682,0,0,0.94571682,-1059.0587,-15419.804)"
       clip-path="url(#clipPath4)" />
    <path
       id="path5"
       d="m 1137.97,16338 h 120 c 0.6629,0 1.3008,0.126 1.9132,0.379 0.6125,0.254 1.1533,0.615 1.6222,1.085 0.4687,0.468 0.8301,1.008 1.0838,1.621 0.2538,0.612 0.3808,1.251 0.3808,1.915 v 109 c 0,0.662 -0.127,1.299 -0.3808,1.91 -0.2537,0.613 -0.6151,1.154 -1.0838,1.623 -0.4689,0.467 -1.0097,0.828 -1.6222,1.084 -0.6124,0.254 -1.2503,0.381 -1.9132,0.383 h -120 c -0.6631,0 -1.3009,-0.129 -1.9136,-0.383 -0.6125,-0.256 -1.1532,-0.617 -1.6221,-1.084 -0.4688,-0.469 -0.8302,-1.01 -1.084,-1.621 -0.2536,-0.613 -0.3804,-1.25 -0.3803,-1.912 v -109 c -10e-5,-0.664 0.1267,-1.303 0.3803,-1.915 0.2538,-0.613 0.6152,-1.153 1.084,-1.621 0.4689,-0.47 1.0096,-0.831 1.6221,-1.085 0.6127,-0.253 1.2505,-0.379 1.9136,-0.379 z"
       style="fill:#ffffff;fill-opacity:1;fill-rule:nonzero;stroke:#000000;stroke-width:1;stroke-linecap:butt;stroke-linejoin:miter;stroke-miterlimit:10;stroke-dasharray:none;stroke-opacity:1"
       transform="matrix(0.94571682,0,0,0.94571682,-1059.0587,-15419.804)"
       clip-path="url(#clipPath6)" />
    <path
       id="path7"
       d="m 1287.97,16338 h 120 c 0.6629,0 1.3006,0.126 1.9133,0.379 0.6124,0.254 1.1532,0.615 1.6221,1.085 0.4688,0.468 0.8301,1.008 1.0837,1.621 0.2538,0.612 0.3808,1.251 0.3809,1.915 v 109 c -10e-5,0.662 -0.1271,1.299 -0.3809,1.91 -0.2536,0.613 -0.6149,1.154 -1.0837,1.623 -0.4689,0.467 -1.0097,0.828 -1.6221,1.084 -0.6127,0.254 -1.2504,0.381 -1.9133,0.383 h -120 c -0.6632,0 -1.301,-0.129 -1.9136,-0.383 -0.6127,-0.256 -1.1533,-0.617 -1.6221,-1.084 -0.4688,-0.469 -0.8302,-1.01 -1.084,-1.621 -0.2536,-0.613 -0.3804,-1.25 -0.3803,-1.912 v -109 c -10e-5,-0.664 0.1267,-1.303 0.3803,-1.915 0.2538,-0.613 0.6152,-1.153 1.084,-1.621 0.4688,-0.47 1.0094,-0.831 1.6221,-1.085 0.6126,-0.253 1.2504,-0.379 1.9136,-0.379 z"
       style="fill:#ffffff;fill-opacity:1;fill-rule:nonzero;stroke:#000000;stroke-width:1;stroke-linecap:butt;stroke-linejoin:miter;stroke-miterlimit:10;stroke-dasharray:none;stroke-opacity:1"
       transform="matrix(0.94571682,0,0,0.94571682,-1059.0587,-15419.804)"
       clip-path="url(#clipPath8)" />
    <path
       id="path9"
       d="m 1165.83,16418.5 v -50 h 64.29 v 50"
       style="fill:none;stroke:#000000;stroke-width:1;stroke-linecap:butt;stroke-linejoin:miter;stroke-miterlimit:10;stroke-dasharray:none;stroke-opacity:1"
       transform="matrix(0.94571682,0,0,0.94571682,-1059.0587,-15419.804)"
       clip-path="url(#clipPath10)" />
    <path
       id="path11"
       d="m 1165.83,16418.5 v 20 h 64.29 v -20"
       style="fill:none;stroke:#000000;stroke-width:1;stroke-linecap:butt;stroke-linejoin:miter;stroke-miterlimit:10;stroke-dasharray:none;stroke-opacity:1"
       transform="matrix(0.94571682,0,0,0.94571682,-1059.0587,-15419.804)"
       clip-path="url(#clipPath12)" />
    <path
       id="path13"
       d="m 1165.83,16418.5 h 64.29"
       style="fill:none;stroke:#000000;stroke-width:1;stroke-linecap:butt;stroke-linejoin:miter;stroke-miterlimit:10;stroke-dasharray:none;stroke-opacity:1"
       transform="matrix(0.94571682,0,0,0.94571682,-1059.0587,-15419.804)"
       clip-path="url(#clipPath14)" />
    <text
       id="text14"
       xml:space="preserve"
       transform="matrix(0.94571682,0,0,0.94571682,48.360884,80.966394)"
       clip-path="url(#clipPath15)"><tspan
         id="tspan14"
         style="font-variant:normal;font-weight:normal;font-size:12px;font-family:Arial;writing-mode:lr-tb;fill:#000000;fill-opacity:1;fill-rule:nonzero;stroke:none"
         x="0"
         y="0">«part def»</tspan></text>
    <text
       id="text15"
       xml:space="preserve"
       transform="matrix(0.94571682,0,0,0.94571682,60.344885,98.935014)"
       clip-path="url(#clipPath16)"><tspan
         id="tspan15"
         style="font-variant:normal;font-weight:normal;font-size:12px;font-family:Arial;writing-mode:lr-tb;fill:#000000;fill-opacity:1;fill-rule:nonzero;stroke:none"
         x="0"
         y="0">Part1</tspan></text>
    <path
       id="path17"
       d="m 1389.04,16418.5 v -42.5 c 0,-5 -2.5,-7.5 -7.5,-7.5 h -67.14 c -5,0 -7.5,2.5 -7.5,7.5 v 42.5"
       style="fill:none;stroke:#000000;stroke-width:1;stroke-linecap:butt;stroke-linejoin:miter;stroke-miterlimit:10;stroke-dasharray:none;stroke-opacity:1"
       transform="matrix(0.94571682,0,0,0.94571682,-1059.0587,-15419.804)"
       clip-path="url(#clipPath18)" />
    <path
       id="path19"
       d="m 1306.9,16418.5 v 12.5 c 0,5 2.5,7.5 7.5,7.5 h 67.14 c 5,0 7.5,-2.5 7.5,-7.5 v -12.5"
       style="fill:none;stroke:#000000;stroke-width:1;stroke-linecap:butt;stroke-linejoin:miter;stroke-miterlimit:10;stroke-dasharray:none;stroke-opacity:1"
       transform="matrix(0.94571682,0,0,0.94571682,-1059.0587,-15419.804)"
       clip-path="url(#clipPath20)" />
    <path
       id="path21"
       d="m 1306.9,16418.5 h 82.14"
       style="fill:none;stroke:#000000;stroke-width:1;stroke-linecap:butt;stroke-linejoin:miter;stroke-miterlimit:10;stroke-dasharray:none;stroke-opacity:1"
       transform="matrix(0.94571682,0,0,0.94571682,-1059.0587,-15419.804)"
       clip-path="url(#clipPath22)" />
    <text
       id="text22"
       xml:space="preserve"
       transform="matrix(0.94571682,0,0,0.94571682,199.67558,80.966394)"
       clip-path="url(#clipPath23)"><tspan
         id="tspan22"
         style="font-variant:normal;font-weight:normal;font-size:12px;font-family:Arial;writing-mode:lr-tb;fill:#000000;fill-opacity:1;fill-rule:nonzero;stroke:none"
         x="0"
         y="0">«part»</tspan></text>
    <text
       id="text23"
       xml:space="preserve"
       transform="matrix(0.94571682,0,0,0.94571682,184.54411,98.935014)"
       clip-path="url(#clipPath24)"><tspan
         id="tspan23"
         style="font-variant:normal;font-weight:normal;font-size:12px;font-family:Arial;writing-mode:lr-tb;fill:#000000;fill-opacity:1;fill-rule:nonzero;stroke:none"
         x="0"
         y="0">part1 : Part1</tspan></text>
    <path
       id="path25"
       d="m 1159.4,16517 v -50 h 77.14 v 50"
       style="fill:none;stroke:#000000;stroke-width:1;stroke-linecap:butt;stroke-linejoin:miter;stroke-miterlimit:10;stroke-dasharray:none;stroke-opacity:1"
       transform="matrix(0.94571682,0,0,0.94571682,-1059.0587,-15419.804)"
       clip-path="url(#clipPath26)" />
    <path
       id="path27"
       d="m 1159.4,16517 v 20 h 77.14 v -20"
       style="fill:none;stroke:#000000;stroke-width:1;stroke-linecap:butt;stroke-linejoin:miter;stroke-miterlimit:10;stroke-dasharray:none;stroke-opacity:1"
       transform="matrix(0.94571682,0,0,0.94571682,-1059.0587,-15419.804)"
       clip-path="url(#clipPath28)" />
    <path
       id="path29"
       d="m 1159.4,16517 h 77.14"
       style="fill:none;stroke:#000000;stroke-width:1;stroke-linecap:butt;stroke-linejoin:miter;stroke-miterlimit:10;stroke-dasharray:none;stroke-opacity:1"
       transform="matrix(0.94571682,0,0,0.94571682,-1059.0587,-15419.804)"
       clip-path="url(#clipPath30)" />
    <text
       id="text30"
       xml:space="preserve"
       transform="matrix(0.94571682,0,0,0.94571682,42.996892,173.64664)"
       clip-path="url(#clipPath31)"><tspan
         id="tspan30"
         style="font-variant:normal;font-weight:normal;font-size:12px;font-family:Arial;writing-mode:lr-tb;fill:#000000;fill-opacity:1;fill-rule:nonzero;stroke:none"
         x="0"
         y="0">«action def»</tspan></text>
    <text
       id="text31"
       xml:space="preserve"
       transform="matrix(0.94571682,0,0,0.94571682,54.980902,191.61526)"
       clip-path="url(#clipPath32)"><tspan
         id="tspan31"
         style="font-variant:normal;font-weight:normal;font-size:12px;font-family:Arial;writing-mode:lr-tb;fill:#000000;fill-opacity:1;fill-rule:nonzero;stroke:none"
         x="0"
         y="0">Action1</tspan></text>
    <text
       id="text32"
       xml:space="preserve"
       transform="matrix(0.94571682,0,0,0.94571682,44.252927,213.36675)"
       clip-path="url(#clipPath33)"><tspan
         id="tspan32"
         style="font-style:italic;font-variant:normal;font-weight:normal;font-size:12px;font-family:Arial;writing-mode:lr-tb;fill:#000000;fill-opacity:1;fill-rule:nonzero;stroke:none"
         x="0"
         y="0">parameters</tspan></text>
    <path
       id="path34"
       d="m 1390.47,16517 v -42.5 c 0,-5 -2.5,-7.5 -7.5,-7.5 h -68.57 c -5,0 -7.5,2.5 -7.5,7.5 v 42.5"
       style="fill:none;stroke:#000000;stroke-width:1;stroke-linecap:butt;stroke-linejoin:miter;stroke-miterlimit:10;stroke-dasharray:none;stroke-opacity:1"
       transform="matrix(0.94571682,0,0,0.94571682,-1059.0587,-15419.804)"
       clip-path="url(#clipPath35)" />
    <path
       id="path36"
       d="m 1306.9,16517 v 12.5 c 0,5 2.5,7.5 7.5,7.5 h 68.57 c 5,0 7.5,-2.5 7.5,-7.5 v -12.5"
       style="fill:none;stroke:#000000;stroke-width:1;stroke-linecap:butt;stroke-linejoin:miter;stroke-miterlimit:10;stroke-dasharray:none;stroke-opacity:1"
       transform="matrix(0.94571682,0,0,0.94571682,-1059.0587,-15419.804)"
       clip-path="url(#clipPath37)" />
    <path
       id="path38"
       d="m 1306.9,16517 h 83.57"
       style="fill:none;stroke:#000000;stroke-width:1;stroke-linecap:butt;stroke-linejoin:miter;stroke-miterlimit:10;stroke-dasharray:none;stroke-opacity:1"
       transform="matrix(0.94571682,0,0,0.94571682,-1059.0587,-15419.804)"
       clip-path="url(#clipPath39)" />
    <text
       id="text39"
       xml:space="preserve"
       transform="matrix(0.94571682,0,0,0.94571682,195.2573,173.64664)"
       clip-path="url(#clipPath40)"><tspan
         id="tspan39"
         style="font-variant:normal;font-weight:normal;font-size:12px;font-family:Arial;writing-mode:lr-tb;fill:#000000;fill-opacity:1;fill-rule:nonzero;stroke:none"
         x="0"
         y="0">«action»</tspan></text>
    <text
       id="text40"
       xml:space="preserve"
       transform="matrix(0.94571682,0,0,0.94571682,198.40477,191.61526)"
       clip-path="url(#clipPath41)"><tspan
         id="tspan40"
         style="font-variant:normal;font-weight:normal;font-size:12px;font-family:Arial;writing-mode:lr-tb;fill:#000000;fill-opacity:1;fill-rule:nonzero;stroke:none"
         x="0"
         y="0">action1</tspan></text>
    <text
       id="text41"
       xml:space="preserve"
       transform="matrix(0.94571682,0,0,0.94571682,187.52903,213.36675)"
       clip-path="url(#clipPath42)"><tspan
         id="tspan41"
         style="font-style:italic;font-variant:normal;font-weight:normal;font-size:12px;font-family:Arial;writing-mode:lr-tb;fill:#000000;fill-opacity:1;fill-rule:nonzero;stroke:none"
         x="0"
         y="0">parameters</tspan></text>
    <path
       id="path43"
       d="m 1306.9,16502 h -58.24"
       style="fill:none;stroke:#000000;stroke-width:1;stroke-linecap:butt;stroke-linejoin:miter;stroke-miterlimit:10;stroke-dasharray:none;stroke-opacity:1"
       transform="matrix(0.94571682,0,0,0.94571682,-1059.0587,-15419.804)"
       clip-path="url(#clipPath44)" />
    <path
       id="path45"
       d="m 1237.66,16502 11,-5.5 v 11 z"
       style="fill:none;stroke:#000000;stroke-width:1;stroke-linecap:butt;stroke-linejoin:miter;stroke-miterlimit:10;stroke-dasharray:none;stroke-opacity:1"
       transform="matrix(0.94571682,0,0,0.94571682,-1059.0587,-15419.804)"
       clip-path="url(#clipPath46)" />
    <path
       id="path47"
       d="m 1255.54,16506 c -10e-5,0.264 -0.051,0.519 -0.1523,0.764 -0.1016,0.244 -0.2461,0.459 -0.4336,0.648 -0.1876,0.188 -0.4039,0.332 -0.6489,0.434 -0.245,0.101 -0.5,0.152 -0.7652,0.154 -0.2652,0 -0.5205,-0.05 -0.7655,-0.154 -0.245,-0.102 -0.4613,-0.246 -0.6488,-0.434 -0.1876,-0.189 -0.3321,-0.406 -0.4336,-0.65 -0.1015,-0.244 -0.1522,-0.498 -0.1521,-0.762 -10e-5,-0.268 0.051,-0.523 0.1521,-0.768 0.1015,-0.246 0.246,-0.463 0.4336,-0.648 0.1875,-0.188 0.4038,-0.332 0.6488,-0.434 0.245,-0.1 0.5003,-0.15 0.7655,-0.15 0.2652,0 0.5202,0.05 0.7652,0.15 0.245,0.102 0.4613,0.246 0.6489,0.434 0.1875,0.185 0.332,0.402 0.4336,0.648 0.1014,0.245 0.1522,0.5 0.1523,0.768 z"
       style="fill:#000000;fill-opacity:1;fill-rule:nonzero;stroke:none"
       transform="matrix(-0.94571682,0,0,-0.94571682,1311.9292,15800.199)"
       clip-path="url(#clipPath48)" />
    <path
       id="path49"
       d="m 1255.54,16498 c -10e-5,0.264 -0.051,0.519 -0.1523,0.764 -0.1016,0.244 -0.2461,0.461 -0.4336,0.65 -0.1876,0.186 -0.4039,0.33 -0.6489,0.432 -0.245,0.101 -0.5,0.152 -0.7652,0.154 -0.2652,0 -0.5205,-0.05 -0.7655,-0.154 -0.245,-0.102 -0.4613,-0.246 -0.6488,-0.432 -0.1876,-0.189 -0.3321,-0.406 -0.4336,-0.65 -0.1015,-0.245 -0.1522,-0.5 -0.1521,-0.764 -10e-5,-0.268 0.051,-0.523 0.1521,-0.768 0.1015,-0.244 0.246,-0.461 0.4336,-0.648 0.1875,-0.188 0.4038,-0.332 0.6488,-0.434 0.245,-0.1 0.5003,-0.15 0.7655,-0.15 0.2652,0 0.5202,0.05 0.7652,0.15 0.245,0.102 0.4613,0.246 0.6489,0.434 0.1875,0.187 0.332,0.404 0.4336,0.648 0.1014,0.245 0.1522,0.5 0.1523,0.768 z"
       style="fill:#000000;fill-opacity:1;fill-rule:nonzero;stroke:none"
       transform="matrix(-0.94571682,0,0,-0.94571682,1311.9292,15785.068)"
       clip-path="url(#clipPath50)" />
    <path
       id="path51"
       d="m 1127.97,16308 h 145 v 15 c 0,2.76 -2.24,5 -5,5 h -145 v -15 c 0,-2.76 2.24,-5 5,-5 z"
       style="fill:url(#linearGradient52);fill-opacity:1;fill-rule:nonzero;stroke:#000000;stroke-width:1;stroke-linecap:butt;stroke-linejoin:miter;stroke-miterlimit:10;stroke-dasharray:none;stroke-opacity:1"
       transform="matrix(0.94571682,0,0,0.94571682,-1059.0587,-15419.804)"
       clip-path="url(#clipPath52)" />
    <g
       id="g52" />
    <text
       id="text52"
       xml:space="preserve"
       transform="matrix(0.94571682,0,0,0.94571682,4.3998238,15.711934)"
       clip-path="url(#clipPath53)"><tspan
         id="tspan52"
         style="font-variant:normal;font-weight:normal;font-size:12px;font-family:Arial;writing-mode:lr-tb;fill:#000000;fill-opacity:1;fill-rule:nonzero;stroke:none"
         x="0"
         y="0">«view» </tspan></text>
    <text
       id="text53"
       xml:space="preserve"
       transform="matrix(0.94571682,0,0,0.94571682,42.878677,15.711934)"
       clip-path="url(#clipPath54)"><tspan
         id="tspan53"
         style="font-variant:normal;font-weight:normal;font-size:12px;font-family:Arial;writing-mode:lr-tb;fill:#000000;fill-opacity:1;fill-rule:nonzero;stroke:none"
         x="0"
         dx="0 0 0 0 0 0 0 0 0 -0.2167968"
         y="0">view1 : ViewDef1</tspan></text>
    <path
       id="path55"
       d="m 1137.97,16338 h 90 v 13 c 0,2.76 -2.24,5 -5,5 h -90 v -13 c 0,-2.76 2.24,-5 5,-5 z"
       style="fill:#ffffff;fill-opacity:1;fill-rule:nonzero;stroke:#000000;stroke-width:1;stroke-linecap:butt;stroke-linejoin:miter;stroke-miterlimit:10;stroke-dasharray:none;stroke-opacity:1"
       transform="matrix(0.94571682,0,0,0.94571682,-1059.0587,-15419.804)"
       clip-path="url(#clipPath56)" />
    <text
       id="text56"
       xml:space="preserve"
       transform="matrix(0.94571682,0,0,0.94571682,13.856992,43.137721)"
       clip-path="url(#clipPath57)"><tspan
         id="tspan56"
         style="font-variant:normal;font-weight:normal;font-size:12px;font-family:Arial;writing-mode:lr-tb;fill:#000000;fill-opacity:1;fill-rule:nonzero;stroke:none"
         x="0"
         y="0">«view» view1_1</tspan></text>
    <path
       id="path58"
       d="m 1287.97,16338 h 90 v 13 c 0,2.76 -2.24,5 -5,5 h -90 v -13 c 0,-2.76 2.24,-5 5,-5 z"
       style="fill:#ffffff;fill-opacity:1;fill-rule:nonzero;stroke:#000000;stroke-width:1;stroke-linecap:butt;stroke-linejoin:miter;stroke-miterlimit:10;stroke-dasharray:none;stroke-opacity:1"
       transform="matrix(0.94571682,0,0,0.94571682,-1059.0587,-15419.804)"
       clip-path="url(#clipPath59)" />
    <text
       id="text59"
       xml:space="preserve"
       transform="matrix(0.94571682,0,0,0.94571682,155.71452,43.137721)"
       clip-path="url(#clipPath60)"><tspan
         id="tspan59"
         style="font-variant:normal;font-weight:normal;font-size:12px;font-family:Arial;writing-mode:lr-tb;fill:#000000;fill-opacity:1;fill-rule:nonzero;stroke:none"
         x="0"
         y="0">«view» view1_2</tspan></text>
  </g>
</svg>
