<?xml version="1.0" encoding="UTF-8" standalone="no"?>
<!-- Created with Inkscape (http://www.inkscape.org/) -->

<svg
   version="1.1"
   id="svg1"
   width="190.71999"
   height="118.72"
   viewBox="0 0 190.71999 118.72"
   xmlns="http://www.w3.org/2000/svg"
   xmlns:svg="http://www.w3.org/2000/svg">
  <defs
     id="defs1">
    <clipPath
       clipPathUnits="userSpaceOnUse"
       id="clipPath2">
      <path
         d="M 0,0 H 593.99414 V 368.99414 H 0 Z"
         transform="scale(0.31999999)"
         clip-rule="evenodd"
         id="path2" />
    </clipPath>
    <clipPath
       clipPathUnits="userSpaceOnUse"
       id="clipPath4">
      <path
         d="m 3.125,0 h 587.5 V 368.75 H 3.125 Z"
         transform="matrix(0.33930213,0,0,0.33930213,696.87887,2077.9396)"
         clip-rule="evenodd"
         id="path4" />
    </clipPath>
    <clipPath
       clipPathUnits="userSpaceOnUse"
       id="clipPath5">
      <path
         d="m 3.125,0 h 587.5 V 368.75 H 3.125 Z"
         transform="matrix(0.33930213,0,0,0.33930213,-58.871129,-17.56037)"
         clip-rule="evenodd"
         id="path5" />
    </clipPath>
    <clipPath
       clipPathUnits="userSpaceOnUse"
       id="clipPath6">
      <path
         d="m 3.125,0 h 587.5 V 368.75 H 3.125 Z"
         transform="matrix(0.33930213,0,0,0.33930213,-17.668009,-37.56037)"
         clip-rule="evenodd"
         id="path6" />
    </clipPath>
    <clipPath
       clipPathUnits="userSpaceOnUse"
       id="clipPath8">
      <path
         d="m 3.125,0 h 587.5 V 368.75 H 3.125 Z"
         transform="matrix(0.33930213,0,0,0.33930213,696.87887,2077.9396)"
         clip-rule="evenodd"
         id="path8" />
    </clipPath>
    <clipPath
       clipPathUnits="userSpaceOnUse"
       id="clipPath9">
      <path
         d="m 3.125,0 h 587.5 V 368.75 H 3.125 Z"
         transform="matrix(0.33930213,0,0,0.33930213,-63.761759,-97.56037)"
         clip-rule="evenodd"
         id="path9" />
    </clipPath>
    <clipPath
       clipPathUnits="userSpaceOnUse"
       id="clipPath10">
      <path
         d="m 3.125,0 h 587.5 V 368.75 H 3.125 Z"
         transform="matrix(0.33930213,0,0,0.33930213,-26.855509,-117.56037)"
         clip-rule="evenodd"
         id="path10" />
    </clipPath>
    <clipPath
       clipPathUnits="userSpaceOnUse"
       id="clipPath12">
      <path
         d="m 3.125,0 h 587.5 V 368.75 H 3.125 Z"
         transform="matrix(0.33930213,0,0,0.33930213,696.87887,2077.9396)"
         clip-rule="evenodd"
         id="path12" />
    </clipPath>
    <clipPath
       clipPathUnits="userSpaceOnUse"
       id="clipPath14">
      <path
         d="m 3.125,0 h 587.5 V 368.75 H 3.125 Z"
         transform="matrix(0.33930213,0,0,0.33930213,696.87887,2077.9396)"
         clip-rule="evenodd"
         id="path14" />
    </clipPath>
    <clipPath
       clipPathUnits="userSpaceOnUse"
       id="clipPath15">
      <path
         d="m 3.125,0 h 587.5 V 368.75 H 3.125 Z"
         transform="matrix(0.33930213,0,0,0.33930213,-45.105509,-66.560371)"
         clip-rule="evenodd"
         id="path15" />
    </clipPath>
  </defs>
  <g
     id="g1">
    <path
       id="path1"
       d="M 0,0 H 190 V 118 H 0 Z"
       style="fill:#ffffff;fill-opacity:1;fill-rule:nonzero;stroke:none"
       clip-path="url(#clipPath2)" />
    <path
       id="path3"
       d="m 708,2080 h 179 c 0.52527,0 1.04547,0.051 1.56061,0.1538 0.5152,0.1023 1.01544,0.2539 1.50073,0.4548 0.48529,0.201 0.94635,0.4476 1.38312,0.7395 0.43677,0.2918 0.84088,0.6236 1.21234,0.9949 0.3714,0.3714 0.703,0.7754 0.99481,1.2122 0.29181,0.4367 0.53827,0.8977 0.73932,1.383 0.20099,0.4851 0.35278,0.9856 0.45526,1.501 0.10248,0.5151 0.15375,1.0354 0.15381,1.5608 v 24 c -6e-5,0.5251 -0.0513,1.0454 -0.15381,1.5605 -0.10248,0.5152 -0.25427,1.0154 -0.45532,1.5008 -0.20099,0.4851 -0.44745,0.9463 -0.73926,1.383 -0.29181,0.4368 -0.62341,0.8409 -0.99481,1.2124 -0.37146,0.3714 -0.77557,0.7029 -1.21234,0.9947 -0.43677,0.292 -0.89783,0.5385 -1.38312,0.7395 -0.48529,0.2009 -0.98553,0.3525 -1.50073,0.455 C 888.04547,2119.9487 887.52527,2120 887,2120 H 708 c -0.52533,0 -1.04559,-0.051 -1.56079,-0.1541 -0.5152,-0.1025 -1.01544,-0.2541 -1.50079,-0.455 -0.48536,-0.201 -0.94642,-0.4475 -1.38312,-0.7395 -0.43671,-0.2918 -0.84082,-0.6233 -1.21222,-0.9947 -0.37146,-0.3715 -0.70313,-0.7756 -0.99494,-1.2124 -0.2918,-0.4367 -0.53826,-0.8979 -0.73925,-1.383 -0.20105,-0.4854 -0.35279,-0.9856 -0.45526,-1.5008 -0.10248,-0.5151 -0.15369,-1.0354 -0.15363,-1.5605 v -24 c -6e-5,-0.5254 0.0512,-1.0457 0.15363,-1.5608 0.10247,-0.5154 0.25421,-1.0159 0.45526,-1.501 0.20099,-0.4853 0.44745,-0.9465 0.73925,-1.3833 0.29181,-0.4365 0.62348,-0.8405 0.99494,-1.2119 0.3714,-0.3713 0.77551,-0.7031 1.21222,-0.9949 0.4367,-0.2919 0.89776,-0.5385 1.38312,-0.7395 0.48535,-0.2009 0.98559,-0.3525 1.50079,-0.4548 C 706.95441,2080.0513 707.47467,2080 708,2080 Z"
       style="fill:#ffffff;fill-opacity:1;fill-rule:nonzero;stroke:#000000;stroke-width:1;stroke-linecap:butt;stroke-linejoin:miter;stroke-miterlimit:10;stroke-dasharray:none;stroke-opacity:1"
       transform="matrix(0.94311222,0,0,0.94311222,-657.23498,-1959.7302)"
       clip-path="url(#clipPath4)" />
    <text
       id="text4"
       xml:space="preserve"
       transform="matrix(0.94311222,0,0,0.94311222,55.522081,16.5614)"
       clip-path="url(#clipPath5)"><tspan
         id="tspan4"
         style="font-variant:normal;font-weight:normal;font-size:16px;font-family:Arial;writing-mode:lr-tb;fill:#000000;fill-opacity:1;fill-rule:nonzero;stroke:none"
         x="0"
         y="0">«viewpoint»</tspan></text>
    <text
       id="text5"
       xml:space="preserve"
       transform="matrix(0.94311222,0,0,0.94311222,16.662915,35.423644)"
       clip-path="url(#clipPath6)"><tspan
         id="tspan5"
         style="font-variant:normal;font-weight:normal;font-size:16px;font-family:Arial;writing-mode:lr-tb;fill:#000000;fill-opacity:1;fill-rule:nonzero;stroke:none"
         x="0"
         dx="0 0 0 0 0 0 0 0 0 0 0 0 0 0 -0.28906173"
         y="0">viewpoint1 : Viewpoint1</tspan></text>
    <path
       id="path7"
       d="m 726.03998,2160 h 144 c 0.52527,0 1.04547,0.051 1.56067,0.1538 0.51513,0.1025 1.01538,0.2542 1.50067,0.4551 0.48529,0.2009 0.94635,0.4475 1.38318,0.7392 0.43676,0.2918 0.84088,0.6236 1.21234,0.9949 0.3714,0.3714 0.703,0.7752 0.99481,1.2119 0.29181,0.4368 0.53827,0.898 0.73926,1.3833 0.20105,0.4854 0.35278,0.9856 0.45526,1.5008 0.10248,0.5151 0.15375,1.0354 0.15381,1.561 v 24 c -6e-5,0.5251 -0.0513,1.0452 -0.15381,1.5603 -0.10248,0.5154 -0.25421,1.0156 -0.45526,1.5007 -0.20099,0.4854 -0.44745,0.9466 -0.73932,1.3833 -0.29181,0.4368 -0.62335,0.8411 -0.99475,1.2124 -0.37146,0.3714 -0.77558,0.7029 -1.21234,0.9949 -0.43677,0.2918 -0.89783,0.5383 -1.38312,0.7393 -0.48529,0.2009 -0.98554,0.3528 -1.50067,0.4553 -0.5152,0.1025 -1.03546,0.1538 -1.56073,0.1538 h -144 c -0.52527,0 -1.04553,-0.051 -1.56073,-0.1538 -0.51526,-0.1025 -1.01557,-0.2544 -1.50086,-0.4553 -0.48529,-0.201 -0.94635,-0.4475 -1.38311,-0.7393 -0.43671,-0.292 -0.84082,-0.6235 -1.21222,-0.9949 -0.37146,-0.3713 -0.70313,-0.7756 -0.995,-1.2124 -0.29181,-0.4367 -0.53827,-0.8979 -0.73926,-1.383 -0.20099,-0.4854 -0.35272,-0.9856 -0.4552,-1.501 -0.10247,-0.5151 -0.15368,-1.0352 -0.15362,-1.5603 v -24 c -6e-5,-0.5256 0.0512,-1.0459 0.15362,-1.561 0.10248,-0.5152 0.25421,-1.0154 0.4552,-1.5008 0.20099,-0.4853 0.44745,-0.9465 0.73926,-1.3833 0.29187,-0.4367 0.62354,-0.8405 0.995,-1.2119 0.3714,-0.3713 0.77551,-0.7029 1.21228,-0.9946 0.4367,-0.292 0.89776,-0.5386 1.38311,-0.7395 0.4853,-0.2009 0.9856,-0.3526 1.5008,-0.4551 0.5152,-0.1025 1.03546,-0.1538 1.56073,-0.1538 z"
       style="fill:#ffffff;fill-opacity:1;fill-rule:nonzero;stroke:#000000;stroke-width:1;stroke-linecap:butt;stroke-linejoin:miter;stroke-miterlimit:10;stroke-dasharray:none;stroke-opacity:1"
       transform="matrix(0.94311222,0,0,0.94311222,-657.23498,-1959.7302)"
       clip-path="url(#clipPath8)" />
    <text
       id="text8"
       xml:space="preserve"
       transform="matrix(0.94311222,0,0,0.94311222,60.134494,92.010377)"
       clip-path="url(#clipPath9)"><tspan
         id="tspan8"
         style="font-variant:normal;font-weight:normal;font-size:16px;font-family:Arial;writing-mode:lr-tb;fill:#000000;fill-opacity:1;fill-rule:nonzero;stroke:none"
         x="0"
         y="0">«concern»</tspan></text>
    <text
       id="text9"
       xml:space="preserve"
       transform="matrix(0.94311222,0,0,0.94311222,25.327759,110.87262)"
       clip-path="url(#clipPath10)"><tspan
         id="tspan9"
         style="font-variant:normal;font-weight:normal;font-size:16px;font-family:Arial;writing-mode:lr-tb;fill:#000000;fill-opacity:1;fill-rule:nonzero;stroke:none"
         x="0"
         y="0">concern1 : Concern1</tspan></text>
    <path
       id="path11"
       d="m 797.5,2120 0.34003,37.76"
       style="fill:none;stroke:#000000;stroke-width:1;stroke-linecap:butt;stroke-linejoin:miter;stroke-miterlimit:10;stroke-dasharray:none;stroke-opacity:1"
       transform="matrix(0.94311222,0,0,0.94311222,-657.23498,-1959.7302)"
       clip-path="url(#clipPath12)" />
    <path
       id="path13"
       d="m 793.27002,2149.9199 4.57996,8.96 4.42004,-9.0398"
       style="fill:none;stroke:#000000;stroke-width:1;stroke-linecap:butt;stroke-linejoin:miter;stroke-miterlimit:10;stroke-dasharray:none;stroke-opacity:1"
       transform="matrix(0.94311222,0,0,0.94311222,-657.23498,-1959.7302)"
       clip-path="url(#clipPath14)" />
    <text
       id="text14"
       xml:space="preserve"
       transform="matrix(0.94311222,0,0,0.94311222,42.539557,62.773899)"
       clip-path="url(#clipPath15)"><tspan
         id="tspan14"
         style="font-variant:normal;font-weight:normal;font-size:12px;font-family:Arial;writing-mode:lr-tb;fill:#000000;fill-opacity:1;fill-rule:nonzero;stroke:none"
         x="0"
         y="0">«frame»</tspan></text>
  </g>
</svg>
