<?xml version="1.0" encoding="UTF-8" standalone="no"?>
<!-- Created with Inkscape (http://www.inkscape.org/) -->

<svg
   version="1.1"
   id="svg1"
   width="174.71999"
   height="110.72"
   viewBox="0 0 174.71999 110.72"
   xmlns="http://www.w3.org/2000/svg"
   xmlns:svg="http://www.w3.org/2000/svg">
  <defs
     id="defs1">
    <clipPath
       clipPathUnits="userSpaceOnUse"
       id="clipPath2">
      <path
         d="M 0,0 H 545.99609 V 345.01953 H 0 Z"
         transform="scale(0.31999999)"
         clip-rule="evenodd"
         id="path2" />
    </clipPath>
    <clipPath
       clipPathUnits="userSpaceOnUse"
       id="clipPath4">
      <path
         d="M 3.125,3.125 H 543.75 V 343.75 H 3.125 Z"
         transform="matrix(0.34173127,0,0,0.34173127,1131.8578,7237.8641)"
         clip-rule="evenodd"
         id="path4" />
    </clipPath>
    <clipPath
       clipPathUnits="userSpaceOnUse"
       id="clipPath6">
      <path
         d="M 3.125,3.125 H 543.75 V 343.75 H 3.125 Z"
         transform="matrix(0.34173127,0,0,0.34173127,1131.8578,7237.8641)"
         clip-rule="evenodd"
         id="path6" />
    </clipPath>
    <clipPath
       clipPathUnits="userSpaceOnUse"
       id="clipPath8">
      <path
         d="M 3.125,3.125 H 543.75 V 343.75 H 3.125 Z"
         transform="matrix(0.34173127,0,0,0.34173127,1131.8578,7237.8641)"
         clip-rule="evenodd"
         id="path8" />
    </clipPath>
    <clipPath
       clipPathUnits="userSpaceOnUse"
       id="clipPath9">
      <path
         d="M 3.125,3.125 H 543.75 V 343.75 H 3.125 Z"
         transform="matrix(0.34173127,0,0,0.34173127,-37.548332,-24.635949)"
         clip-rule="evenodd"
         id="path9" />
    </clipPath>
    <clipPath
       clipPathUnits="userSpaceOnUse"
       id="clipPath10">
      <path
         d="M 3.125,3.125 H 543.75 V 343.75 H 3.125 Z"
         transform="matrix(0.34173127,0,0,0.34173127,-45.110831,-43.63595)"
         clip-rule="evenodd"
         id="path10" />
    </clipPath>
    <clipPath
       clipPathUnits="userSpaceOnUse"
       id="clipPath11">
      <path
         d="m 197.93945,162.80664 h 146.31372 v 43.89258 H 197.93945 Z"
         transform="matrix(0.34173127,0,0,0.34173127,-67.954582,-66.63595)"
         clip-rule="evenodd"
         id="path11" />
    </clipPath>
    <clipPath
       clipPathUnits="userSpaceOnUse"
       id="clipPath12">
      <path
         d="M 25.289063,224.25781 H 297.43286 v 43.89453 H 25.289063 Z"
         transform="matrix(0.34173127,0,0,0.34173127,-8.6420816,-87.63595)"
         clip-rule="evenodd"
         id="path12" />
    </clipPath>
    <clipPath
       clipPathUnits="userSpaceOnUse"
       id="clipPath13">
      <path
         d="M 25.289063,285.70898 H 186.23438 v 43.89453 H 25.289063 Z"
         transform="matrix(0.34173127,0,0,0.34173127,-8.6420816,-108.63595)"
         clip-rule="evenodd"
         id="path13" />
    </clipPath>
  </defs>
  <g
     id="g1">
    <path
       id="path1"
       d="M 0,0 H 175 V 110 H 0 Z"
       style="fill:#ffffff;fill-opacity:1;fill-rule:nonzero;stroke:none"
       clip-path="url(#clipPath2)" />
    <path
       id="path3"
       d="m 1135,7291 v -50 h 180 v 50"
       style="fill:none;stroke:#000000;stroke-width:1;stroke-linecap:butt;stroke-linejoin:miter;stroke-miterlimit:10;stroke-dasharray:none;stroke-opacity:1"
       transform="matrix(0.93640828,0,0,0.93640828,-1059.881,-6777.5959)"
       clip-path="url(#clipPath4)" />
    <path
       id="path5"
       d="m 1135,7291 v 62 h 180 v -62"
       style="fill:none;stroke:#000000;stroke-width:1;stroke-linecap:butt;stroke-linejoin:miter;stroke-miterlimit:10;stroke-dasharray:none;stroke-opacity:1"
       transform="matrix(0.93640828,0,0,0.93640828,-1059.881,-6777.5959)"
       clip-path="url(#clipPath6)" />
    <path
       id="path7"
       d="m 1135,7291 h 180"
       style="fill:none;stroke:#000000;stroke-width:1;stroke-linecap:butt;stroke-linejoin:miter;stroke-miterlimit:10;stroke-dasharray:none;stroke-opacity:1"
       transform="matrix(0.93640828,0,0,0.93640828,-1059.881,-6777.5959)"
       clip-path="url(#clipPath8)" />
    <text
       id="text8"
       xml:space="preserve"
       transform="matrix(0.93640828,0,0,0.93640828,35.160569,23.069307)"
       clip-path="url(#clipPath9)"><tspan
         id="tspan8"
         style="font-variant:normal;font-weight:normal;font-size:16px;font-family:Arial;writing-mode:lr-tb;fill:#000000;fill-opacity:1;fill-rule:nonzero;stroke:none"
         x="0"
         y="0">«metadata def»</tspan></text>
    <text
       id="text9"
       xml:space="preserve"
       transform="matrix(0.93640828,0,0,0.93640828,42.242156,40.861065)"
       clip-path="url(#clipPath10)"><tspan
         id="tspan9"
         style="font-variant:normal;font-weight:normal;font-size:16px;font-family:Arial;writing-mode:lr-tb;fill:#000000;fill-opacity:1;fill-rule:nonzero;stroke:none"
         x="0"
         dx="0 -1.7734374"
         y="0">ToolMetadata</tspan></text>
    <text
       id="text10"
       xml:space="preserve"
       transform="matrix(0.93640828,0,0,0.93640828,63.633233,62.398455)"
       clip-path="url(#clipPath11)"><tspan
         id="tspan10"
         style="font-style:italic;font-variant:normal;font-weight:normal;font-size:12px;font-family:Arial;writing-mode:lr-tb;fill:#000000;fill-opacity:1;fill-rule:nonzero;stroke:none"
         x="0"
         y="0">attributes</tspan></text>
    <text
       id="text11"
       xml:space="preserve"
       transform="matrix(0.93640828,0,0,0.93640828,8.0925168,82.063029)"
       clip-path="url(#clipPath12)"><tspan
         id="tspan11"
         style="font-variant:normal;font-weight:normal;font-size:12px;font-family:Arial;writing-mode:lr-tb;fill:#000000;fill-opacity:1;fill-rule:nonzero;stroke:none"
         x="0"
         y="0">toolName : String</tspan></text>
    <text
       id="text12"
       xml:space="preserve"
       transform="matrix(0.93640828,0,0,0.93640828,8.0925168,101.7276)"
       clip-path="url(#clipPath13)"><tspan
         id="tspan12"
         style="font-variant:normal;font-weight:normal;font-size:12px;font-family:Arial;writing-mode:lr-tb;fill:#000000;fill-opacity:1;fill-rule:nonzero;stroke:none"
         x="0"
         y="0">uri : String</tspan></text>
  </g>
</svg>
