<?xml version="1.0" encoding="UTF-8" standalone="no"?>
<!-- Created with Inkscape (http://www.inkscape.org/) -->

<svg
   version="1.1"
   id="svg1"
   width="312"
   height="186.56"
   viewBox="0 0 312 186.56"
   xmlns="http://www.w3.org/2000/svg"
   xmlns:svg="http://www.w3.org/2000/svg">
  <defs
     id="defs1">
    <clipPath
       clipPathUnits="userSpaceOnUse"
       id="clipPath2">
      <path
         d="M 0,0 H 975 V 581.98242 H 0 Z"
         transform="scale(0.31999999)"
         clip-rule="evenodd"
         id="path2" />
    </clipPath>
    <clipPath
       clipPathUnits="userSpaceOnUse"
       id="clipPath4">
      <path
         d="m 3.125,3.125 h 968.75 V 581.25 H 3.125 Z"
         transform="matrix(0.33798549,0,0,0.33798549,1371.8829,7237.8873)"
         clip-rule="evenodd"
         id="path4" />
    </clipPath>
    <clipPath
       clipPathUnits="userSpaceOnUse"
       id="clipPath6">
      <path
         d="m 3.125,3.125 h 968.75 V 581.25 H 3.125 Z"
         transform="matrix(0.33798549,0,0,0.33798549,1371.8829,7237.8873)"
         clip-rule="evenodd"
         id="path6" />
    </clipPath>
    <clipPath
       clipPathUnits="userSpaceOnUse"
       id="clipPath8">
      <path
         d="m 3.125,3.125 h 968.75 V 581.25 H 3.125 Z"
         transform="matrix(0.33798549,0,0,0.33798549,1371.8829,7237.8873)"
         clip-rule="evenodd"
         id="path8" />
    </clipPath>
    <clipPath
       clipPathUnits="userSpaceOnUse"
       id="clipPath9">
      <path
         d="m 3.125,3.125 h 968.75 V 581.25 H 3.125 Z"
         transform="matrix(0.33798549,0,0,0.33798549,-109.50765,-82.612852)"
         clip-rule="evenodd"
         id="path9" />
    </clipPath>
    <clipPath
       clipPathUnits="userSpaceOnUse"
       id="clipPath10">
      <path
         d="m 3.125,3.125 h 968.75 V 581.25 H 3.125 Z"
         transform="matrix(0.33798549,0,0,0.33798549,-19.538898,-101.61285)"
         clip-rule="evenodd"
         id="path10" />
    </clipPath>
    <clipPath
       clipPathUnits="userSpaceOnUse"
       id="clipPath11">
      <path
         d="m 421.96191,336.14648 h 127.22412 v 44.38086 H 421.96191 Z"
         transform="matrix(0.33798549,0,0,0.33798549,-142.42952,-124.61285)"
         clip-rule="evenodd"
         id="path11" />
    </clipPath>
    <clipPath
       clipPathUnits="userSpaceOnUse"
       id="clipPath12">
      <path
         d="M 25.495117,398.2793 H 924.9419 v 44.38086 H 25.495117 Z"
         transform="matrix(0.33798549,0,0,0.33798549,-8.6170174,-145.61285)"
         clip-rule="evenodd"
         id="path12" />
    </clipPath>
    <clipPath
       clipPathUnits="userSpaceOnUse"
       id="clipPath13">
      <path
         d="M 25.495117,398.2793 H 924.9419 v 44.38086 H 25.495117 Z"
         transform="matrix(0.33798549,0,0,0.33798549,-174.97639,-145.61285)"
         clip-rule="evenodd"
         id="path13" />
    </clipPath>
    <clipPath
       clipPathUnits="userSpaceOnUse"
       id="clipPath14">
      <path
         d="M 25.495117,398.2793 H 924.9419 v 44.38086 H 25.495117 Z"
         transform="matrix(0.33798549,0,0,0.33798549,-202.99201,-145.61285)"
         clip-rule="evenodd"
         id="path14" />
    </clipPath>
    <clipPath
       clipPathUnits="userSpaceOnUse"
       id="clipPath15">
      <path
         d="M 25.495117,460.41211 H 741.50244 v 44.38086 H 25.495117 Z"
         transform="matrix(0.33798549,0,0,0.33798549,-8.6170174,-166.61285)"
         clip-rule="evenodd"
         id="path15" />
    </clipPath>
    <clipPath
       clipPathUnits="userSpaceOnUse"
       id="clipPath16">
      <path
         d="M 25.495117,522.54492 H 697.12158 v 44.38086 H 25.495117 Z"
         transform="matrix(0.33798549,0,0,0.33798549,-8.6170174,-187.61285)"
         clip-rule="evenodd"
         id="path16" />
    </clipPath>
    <clipPath
       clipPathUnits="userSpaceOnUse"
       id="clipPath18">
      <path
         d="m 3.125,3.125 h 968.75 V 581.25 H 3.125 Z"
         transform="matrix(0.33798549,0,0,0.33798549,1371.8829,7237.8873)"
         clip-rule="evenodd"
         id="path18" />
    </clipPath>
    <clipPath
       clipPathUnits="userSpaceOnUse"
       id="clipPath19">
      <path
         d="m 3.125,3.125 h 968.75 V 581.25 H 3.125 Z"
         transform="matrix(0.33798549,0,0,0.33798549,-138.86702,-18.612852)"
         clip-rule="evenodd"
         id="path19" />
    </clipPath>
    <clipPath
       clipPathUnits="userSpaceOnUse"
       id="clipPath20">
      <path
         d="m 3.125,3.125 h 968.75 V 581.25 H 3.125 Z"
         transform="matrix(0.33798549,0,0,0.33798549,-104.25765,-38.612852)"
         clip-rule="evenodd"
         id="path20" />
    </clipPath>
  </defs>
  <g
     id="g1">
    <path
       id="path1"
       d="M 0,0 H 312 V 186 H 0 Z"
       style="fill:#ffffff;fill-opacity:1;fill-rule:nonzero;stroke:none"
       clip-path="url(#clipPath2)" />
    <path
       id="path3"
       d="m 1375,7349 v -50 h 323 v 50"
       style="fill:none;stroke:#000000;stroke-width:1;stroke-linecap:butt;stroke-linejoin:miter;stroke-miterlimit:10;stroke-dasharray:none;stroke-opacity:1"
       transform="matrix(0.94678617,0,0,0.94678617,-1298.8798,-6852.7316)"
       clip-path="url(#clipPath4)" />
    <path
       id="path5"
       d="m 1375,7349 v 83 h 323 v -83"
       style="fill:none;stroke:#000000;stroke-width:1;stroke-linecap:butt;stroke-linejoin:miter;stroke-miterlimit:10;stroke-dasharray:none;stroke-opacity:1"
       transform="matrix(0.94678617,0,0,0.94678617,-1298.8798,-6852.7316)"
       clip-path="url(#clipPath6)" />
    <path
       id="path7"
       d="m 1375,7349 h 323"
       style="fill:none;stroke:#000000;stroke-width:1;stroke-linecap:butt;stroke-linejoin:miter;stroke-miterlimit:10;stroke-dasharray:none;stroke-opacity:1"
       transform="matrix(0.94678617,0,0,0.94678617,-1298.8798,-6852.7316)"
       clip-path="url(#clipPath8)" />
    <text
       id="text8"
       xml:space="preserve"
       transform="matrix(0.94678617,0,0,0.94678617,103.68033,78.216706)"
       clip-path="url(#clipPath9)"><tspan
         id="tspan8"
         style="font-variant:normal;font-weight:normal;font-size:16px;font-family:Arial;writing-mode:lr-tb;fill:#000000;fill-opacity:1;fill-rule:nonzero;stroke:none"
         x="0"
         y="0">«metadata def»</tspan></text>
    <text
       id="text9"
       xml:space="preserve"
       transform="matrix(0.94678617,0,0,0.94678617,18.499158,96.205643)"
       clip-path="url(#clipPath10)"><tspan
         id="tspan9"
         style="font-variant:normal;font-weight:normal;font-size:16px;font-family:Arial;writing-mode:lr-tb;fill:#000000;fill-opacity:1;fill-rule:nonzero;stroke:none"
         x="0"
         y="0">&lt;fm&gt; 'failure mode' :&gt; SemanticMetadata</tspan></text>
    <text
       id="text10"
       xml:space="preserve"
       transform="matrix(0.94678617,0,0,0.94678617,134.8503,117.98172)"
       clip-path="url(#clipPath11)"><tspan
         id="tspan10"
         style="font-style:italic;font-variant:normal;font-weight:normal;font-size:12px;font-family:Arial;writing-mode:lr-tb;fill:#000000;fill-opacity:1;fill-rule:nonzero;stroke:none"
         x="0"
         y="0">features</tspan></text>
    <text
       id="text11"
       xml:space="preserve"
       transform="matrix(0.94678617,0,0,0.94678617,8.1584729,137.86423)"
       clip-path="url(#clipPath12)"><tspan
         id="tspan11"
         style="font-variant:normal;font-weight:normal;font-size:12px;font-family:Arial;writing-mode:lr-tb;fill:#000000;fill-opacity:1;fill-rule:nonzero;stroke:none"
         x="0"
         dx="0 0 0 0 0 0 0 0 0 -0.66210914"
         y="0">:&gt;&gt; baseType = 'failure modes' </tspan></text>
    <text
       id="text12"
       xml:space="preserve"
       transform="matrix(0.94678617,0,0,0.94678617,165.66523,137.86423)"
       clip-path="url(#clipPath13)"><tspan
         id="tspan12"
         style="font-variant:normal;font-weight:700;font-size:12px;font-family:Arial;writing-mode:lr-tb;fill:#000000;fill-opacity:1;fill-rule:nonzero;stroke:none"
         x="0"
         y="0">meta</tspan></text>
    <text
       id="text13"
       xml:space="preserve"
       transform="matrix(0.94678617,0,0,0.94678617,192.19003,137.86423)"
       clip-path="url(#clipPath14)"><tspan
         id="tspan13"
         style="font-variant:normal;font-weight:normal;font-size:12px;font-family:Arial;writing-mode:lr-tb;fill:#000000;fill-opacity:1;fill-rule:nonzero;stroke:none"
         x="0"
         y="0"> SysML::StateUsage</tspan></text>
    <text
       id="text14"
       xml:space="preserve"
       transform="matrix(0.94678617,0,0,0.94678617,8.1584729,157.74674)"
       clip-path="url(#clipPath15)"><tspan
         id="tspan14"
         style="font-variant:normal;font-weight:normal;font-size:12px;font-family:Arial;writing-mode:lr-tb;fill:#000000;fill-opacity:1;fill-rule:nonzero;stroke:none"
         x="0"
         y="0">:&gt; annotatedElement : SysML::StateDefinition</tspan></text>
    <text
       id="text15"
       xml:space="preserve"
       transform="matrix(0.94678617,0,0,0.94678617,8.1584729,177.62925)"
       clip-path="url(#clipPath16)"><tspan
         id="tspan15"
         style="font-variant:normal;font-weight:normal;font-size:12px;font-family:Arial;writing-mode:lr-tb;fill:#000000;fill-opacity:1;fill-rule:nonzero;stroke:none"
         x="0"
         y="0">:&gt; annotatedElement : SysML::StateUsage</tspan></text>
    <path
       id="path17"
       d="m 1464.5,7241 h 144 c 0.5253,0 1.0454,0.051 1.5607,0.1538 0.515,0.1021 1.0152,0.2539 1.5006,0.4551 0.4852,0.2007 0.9463,0.4468 1.383,0.7383 0.4369,0.292 0.841,0.624 1.2124,0.9956 0.3714,0.3716 0.703,0.7754 0.9949,1.2124 0.2919,0.4365 0.5382,0.8974 0.7393,1.3823 0.201,0.4849 0.3528,0.9854 0.4553,1.5005 0.1024,0.5156 0.1537,1.0361 0.1538,1.562 v 24 c -10e-5,0.5254 -0.051,1.0454 -0.1538,1.5605 -0.1025,0.5152 -0.2543,1.0152 -0.4553,1.5 -0.2011,0.4854 -0.4474,0.9463 -0.7393,1.3833 -0.2919,0.4371 -0.6235,0.8409 -0.9949,1.2125 -0.3714,0.3715 -0.7755,0.7031 -1.2124,0.9946 -0.4366,0.2915 -0.8977,0.5381 -1.3829,0.7392 -0.4853,0.2007 -0.9856,0.3526 -1.5008,0.4556 -0.5152,0.1025 -1.0353,0.1538 -1.5606,0.1543 h -144 c -0.5254,-5e-4 -1.0458,-0.052 -1.561,-0.1543 -0.5153,-0.103 -1.0155,-0.2549 -1.5008,-0.4556 -0.4852,-0.2011 -0.9463,-0.4477 -1.3829,-0.7397 -0.4368,-0.2915 -0.8408,-0.6226 -1.2123,-0.9941 -0.3714,-0.3716 -0.703,-0.7754 -0.9949,-1.2125 -0.2918,-0.437 -0.5383,-0.8979 -0.7393,-1.3833 -0.2011,-0.4848 -0.3528,-0.9853 -0.4554,-1.5004 -0.1024,-0.5147 -0.1535,-1.0347 -0.1534,-1.5601 v -24 c -10e-5,-0.5259 0.051,-1.0464 0.1534,-1.562 0.1025,-0.5151 0.2542,-1.0156 0.4552,-1.5005 0.2011,-0.4849 0.4477,-0.9458 0.7395,-1.3823 0.2919,-0.437 0.6235,-0.8408 0.9949,-1.2124 0.3715,-0.3716 0.7755,-0.7036 1.2123,-0.9956 0.4368,-0.2915 0.8978,-0.5381 1.3831,-0.7388 0.4852,-0.2007 0.9854,-0.3525 1.5007,-0.4551 0.5153,-0.102 1.0355,-0.1533 1.5609,-0.1533 z"
       style="fill:#ffffff;fill-opacity:1;fill-rule:nonzero;stroke:#000000;stroke-width:1;stroke-linecap:butt;stroke-linejoin:miter;stroke-miterlimit:10;stroke-dasharray:none;stroke-opacity:1"
       transform="matrix(0.94678617,0,0,0.94678617,-1298.8798,-6852.7316)"
       clip-path="url(#clipPath18)" />
    <text
       id="text18"
       xml:space="preserve"
       transform="matrix(0.94678617,0,0,0.94678617,131.47737,17.622391)"
       clip-path="url(#clipPath19)"><tspan
         id="tspan18"
         style="font-variant:normal;font-weight:normal;font-size:16px;font-family:Arial;writing-mode:lr-tb;fill:#000000;fill-opacity:1;fill-rule:nonzero;stroke:none"
         x="0"
         y="0">«state»</tspan></text>
    <text
       id="text19"
       xml:space="preserve"
       transform="matrix(0.94678617,0,0,0.94678617,98.709699,36.558114)"
       clip-path="url(#clipPath20)"><tspan
         id="tspan19"
         style="font-variant:normal;font-weight:normal;font-size:16px;font-family:Arial;writing-mode:lr-tb;fill:#000000;fill-opacity:1;fill-rule:nonzero;stroke:none"
         x="0"
         y="0">'failure modes' [*]</tspan></text>
  </g>
</svg>
