<?xml version="1.0" encoding="UTF-8" standalone="no"?>
<!-- Created with Inkscape (http://www.inkscape.org/) -->

<svg
   version="1.1"
   id="svg1"
   width="448"
   height="145.28"
   viewBox="0 0 448 145.28"
   xmlns="http://www.w3.org/2000/svg"
   xmlns:svg="http://www.w3.org/2000/svg">
  <defs
     id="defs1">
    <clipPath
       clipPathUnits="userSpaceOnUse"
       id="clipPath2">
      <path
         d="M 0,0 H 1400.9766 V 455 H 0 Z"
         transform="scale(0.31999999)"
         clip-rule="evenodd"
         id="path2" />
    </clipPath>
    <clipPath
       clipPathUnits="userSpaceOnUse"
       id="clipPath4">
      <path
         d="m 3.125,0 h 1393.75 V 455 H 3.125 Z"
         transform="matrix(0.33586406,0,0,0.33586406,318.54274,-220)"
         clip-rule="evenodd"
         id="path4" />
    </clipPath>
    <clipPath
       clipPathUnits="userSpaceOnUse"
       id="clipPath5">
      <path
         d="m 3.125,0 h 1393.75 V 455 H 3.125 Z"
         transform="matrix(0.33586406,0,0,0.33586406,-343.64477,-62.499995)"
         clip-rule="evenodd"
         id="path5" />
    </clipPath>
    <clipPath
       clipPathUnits="userSpaceOnUse"
       id="clipPath6">
      <path
         d="m 3.125,0 h 1393.75 V 455 H 3.125 Z"
         transform="matrix(0.33586406,0,0,0.33586406,-322.31665,-81.499995)"
         clip-rule="evenodd"
         id="path6" />
    </clipPath>
    <clipPath
       clipPathUnits="userSpaceOnUse"
       id="clipPath7">
      <path
         d="m 3.125,0 h 1393.75 V 455 H 3.125 Z"
         transform="matrix(0.33586406,0,0,0.33586406,-325.86352,-100.5)"
         clip-rule="evenodd"
         id="path7" />
    </clipPath>
    <clipPath
       clipPathUnits="userSpaceOnUse"
       id="clipPath9">
      <path
         d="m 3.125,0 h 1393.75 V 455 H 3.125 Z"
         transform="matrix(0.33586406,0,0,0.33586406,318.54274,-220)"
         clip-rule="evenodd"
         id="path9" />
    </clipPath>
    <clipPath
       clipPathUnits="userSpaceOnUse"
       id="clipPath11">
      <path
         d="m 3.125,0 h 1393.75 V 455 H 3.125 Z"
         transform="matrix(0.33586406,0,0,0.33586406,318.54274,-220)"
         clip-rule="evenodd"
         id="path11" />
    </clipPath>
    <clipPath
       clipPathUnits="userSpaceOnUse"
       id="clipPath12">
      <path
         d="m 3.125,0 h 1393.75 V 455 H 3.125 Z"
         transform="matrix(0.33586406,0,0,0.33586406,-4.9572704,-67.499995)"
         clip-rule="evenodd"
         id="path12" />
    </clipPath>
    <clipPath
       clipPathUnits="userSpaceOnUse"
       id="clipPath13">
      <path
         d="m 3.125,0 h 1393.75 V 455 H 3.125 Z"
         transform="matrix(0.33586406,0,0,0.33586406,-4.9572704,-81.499995)"
         clip-rule="evenodd"
         id="path13" />
    </clipPath>
    <clipPath
       clipPathUnits="userSpaceOnUse"
       id="clipPath14">
      <path
         d="m 3.125,0 h 1393.75 V 455 H 3.125 Z"
         transform="matrix(0.33586406,0,0,0.33586406,-4.9572704,-96.499995)"
         clip-rule="evenodd"
         id="path14" />
    </clipPath>
    <clipPath
       clipPathUnits="userSpaceOnUse"
       id="clipPath15">
      <path
         d="m 3.125,0 h 1393.75 V 455 H 3.125 Z"
         transform="matrix(0.33586406,0,0,0.33586406,-4.9572704,-110.49999)"
         clip-rule="evenodd"
         id="path15" />
    </clipPath>
    <clipPath
       clipPathUnits="userSpaceOnUse"
       id="clipPath16">
      <path
         d="m 3.125,0 h 1393.75 V 455 H 3.125 Z"
         transform="matrix(0.33586406,0,0,0.33586406,-86.76977,-43.499995)"
         clip-rule="evenodd"
         id="path16" />
    </clipPath>
    <clipPath
       clipPathUnits="userSpaceOnUse"
       id="clipPath18">
      <path
         d="m 3.125,0 h 1393.75 V 455 H 3.125 Z"
         transform="matrix(0.33586406,0,0,0.33586406,318.54274,-220)"
         clip-rule="evenodd"
         id="path18" />
    </clipPath>
  </defs>
  <g
     id="g1">
    <path
       id="path1"
       d="M 0,0 H 448 V 146 H 0 Z"
       style="fill:#ffffff;fill-opacity:1;fill-rule:nonzero;stroke:none"
       clip-path="url(#clipPath2)" />
    <path
       id="path3"
       d="m 622.15997,-219 h 156 c 0.49243,2e-5 0.98017,0.0481 1.46314,0.14415 0.48297,0.0961 0.9519,0.23833 1.40692,0.42679 0.45496,0.18846 0.88715,0.41948 1.29657,0.69308 0.40948,0.27359 0.78833,0.58449 1.1366,0.9327 0.3482,0.34822 0.65911,0.72706 0.93274,1.13653 0.27355,0.40947 0.50457,0.84169 0.69305,1.29666 0.18848,0.45497 0.33075,0.92395 0.42676,1.40694 0.0961,0.48299 0.14416,0.9707 0.14422,1.46315 v 135 c -6e-5,0.492455 -0.0481,0.980186 -0.14416,1.463188 -0.0961,0.482994 -0.23834,0.951981 -0.42682,1.406952 -0.18848,0.454964 -0.4195,0.887184 -0.69312,1.296646 -0.27356,0.409462 -0.58447,0.7883 -0.93267,1.136521 -0.34827,0.34822 -0.72712,0.659126 -1.1366,0.932724 -0.40942,0.273597 -0.84161,0.504615 -1.29657,0.693069 -0.45502,0.188454 -0.92395,0.330719 -1.40692,0.426788 C 779.14014,-69.048035 778.6524,-69 778.15997,-69 h -156 c -0.49249,0 -0.98022,-0.04803 -1.46325,-0.144112 -0.48304,-0.09607 -0.95203,-0.238334 -1.40699,-0.426788 -0.45495,-0.188454 -0.88714,-0.419472 -1.29663,-0.693069 -0.40942,-0.273598 -0.78827,-0.584504 -1.13647,-0.932724 -0.34827,-0.348221 -0.65918,-0.727059 -0.9328,-1.136521 -0.27362,-0.409462 -0.50464,-0.841682 -0.69306,-1.296646 -0.18841,-0.454971 -0.33068,-0.923958 -0.42675,-1.406952 -0.096,-0.483002 -0.14405,-0.970733 -0.14405,-1.463188 v -135 c 0,-0.49245 0.048,-0.98016 0.14405,-1.46315 0.0961,-0.48299 0.23834,-0.95197 0.42675,-1.40694 0.18842,-0.45497 0.4195,-0.88719 0.69312,-1.29666 0.27356,-0.40947 0.58447,-0.78831 0.93274,-1.13653 0.3482,-0.34821 0.72705,-0.65911 1.13647,-0.93271 0.40949,-0.27359 0.84168,-0.50463 1.29663,-0.69309 0.45496,-0.18844 0.92395,-0.3307 1.40699,-0.42677 0.48303,-0.0961 0.97076,-0.14413 1.46325,-0.14415 z"
       style="fill:#ffffff;fill-opacity:1;fill-rule:nonzero;stroke:#000000;stroke-width:1;stroke-linecap:butt;stroke-linejoin:miter;stroke-miterlimit:10;stroke-dasharray:none;stroke-opacity:1"
       transform="matrix(0.95276639,0,0,0.95276639,-303.49682,209.60861)"
       clip-path="url(#clipPath4)" />
    <text
       id="text4"
       xml:space="preserve"
       transform="matrix(0.95276639,0,0,0.95276639,327.41319,59.547895)"
       clip-path="url(#clipPath5)"><tspan
         id="tspan4"
         style="font-variant:normal;font-weight:normal;font-size:16px;font-family:Arial;writing-mode:lr-tb;fill:#000000;fill-opacity:1;fill-rule:nonzero;stroke:none"
         x="0"
         y="0">«analysis»</tspan></text>
    <text
       id="text5"
       xml:space="preserve"
       transform="matrix(0.95276639,0,0,0.95276639,307.09247,77.650456)"
       clip-path="url(#clipPath6)"><tspan
         id="tspan5"
         style="font-variant:normal;font-weight:normal;font-size:16px;font-family:Arial;writing-mode:lr-tb;fill:#000000;fill-opacity:1;fill-rule:nonzero;stroke:none"
         x="0"
         y="0">vehicleAnalysis :</tspan></text>
    <text
       id="text6"
       xml:space="preserve"
       transform="matrix(0.95276639,0,0,0.95276639,310.47181,95.753018)"
       clip-path="url(#clipPath7)"><tspan
         id="tspan6"
         style="font-variant:normal;font-weight:normal;font-size:16px;font-family:Arial;writing-mode:lr-tb;fill:#000000;fill-opacity:1;fill-rule:nonzero;stroke:none"
         x="0"
         dx="0 -0.88281256"
         y="0">VehicleAnalysis</tspan></text>
    <path
       id="path8"
       d="m 321.66,-189 h 220.99997 l 19,19 v 76 H 321.66 Z"
       style="fill:#ffffff;fill-opacity:1;fill-rule:nonzero;stroke:#000000;stroke-width:1;stroke-linecap:butt;stroke-linejoin:miter;stroke-miterlimit:10;stroke-dasharray:none;stroke-opacity:1"
       transform="matrix(0.95276639,0,0,0.95276639,-303.49682,209.60861)"
       clip-path="url(#clipPath9)" />
    <path
       id="path10"
       d="m 542.65997,-189 v 19 h 19"
       style="fill:none;stroke:#000000;stroke-width:1;stroke-linecap:butt;stroke-linejoin:miter;stroke-miterlimit:10;stroke-dasharray:none;stroke-opacity:1"
       transform="matrix(0.95276639,0,0,0.95276639,-303.49682,209.60861)"
       clip-path="url(#clipPath11)" />
    <text
       id="text11"
       xml:space="preserve"
       transform="matrix(0.95276639,0,0,0.95276639,4.7231206,64.311727)"
       clip-path="url(#clipPath12)"><tspan
         id="tspan11"
         style="font-variant:normal;font-weight:normal;font-size:12px;font-family:Arial;writing-mode:lr-tb;fill:#000000;fill-opacity:1;fill-rule:nonzero;stroke:none"
         x="0"
         dx="0 -1.3300781"
         y="0">ToolMetadata</tspan></text>
    <g
       id="g12" />
    <text
       id="text12"
       xml:space="preserve"
       transform="matrix(0.95276639,0,0,0.95276639,4.7231206,77.650456)"
       clip-path="url(#clipPath13)"><tspan
         id="tspan12"
         style="font-variant:normal;font-weight:normal;font-size:12px;font-family:Arial;writing-mode:lr-tb;fill:#000000;fill-opacity:1;fill-rule:nonzero;stroke:none"
         x="0"
         dx="0 0 0 0 0 0 0 0 0 0 0 0 0 -1.3300776"
         y="0">  toolName=&quot;ToolX&quot;</tspan></text>
    <g
       id="g13" />
    <text
       id="text13"
       xml:space="preserve"
       transform="matrix(0.95276639,0,0,0.95276639,4.7231206,91.941952)"
       clip-path="url(#clipPath14)"><tspan
         id="tspan13"
         style="font-variant:normal;font-weight:normal;font-size:12px;font-family:Arial;writing-mode:lr-tb;fill:#000000;fill-opacity:1;fill-rule:nonzero;stroke:none"
         x="0"
         y="0">  toolURL=&quot;http : //.....&quot;</tspan></text>
    <g
       id="g14" />
    <text
       id="text14"
       xml:space="preserve"
       transform="matrix(0.95276639,0,0,0.95276639,4.7231206,105.28068)"
       clip-path="url(#clipPath15)"><tspan
         id="tspan14"
         style="font-variant:normal;font-weight:normal;font-size:12px;font-family:Arial;writing-mode:lr-tb;fill:#000000;fill-opacity:1;fill-rule:nonzero;stroke:none"
         x="0"
         dx="0 0 0 0 0 0 0 0 0 0 0 0 0 0 0 0 0 0 0 0 0 0 0 0 -0.66210854"
         y="0">  behaviorName=&quot;ComputeVehicleState&quot;</tspan></text>
    <text
       id="text15"
       xml:space="preserve"
       transform="matrix(0.95276639,0,0,0.95276639,82.671321,41.445333)"
       clip-path="url(#clipPath16)"><tspan
         id="tspan15"
         style="font-variant:normal;font-weight:normal;font-size:12px;font-family:Arial;writing-mode:lr-tb;fill:#000000;fill-opacity:1;fill-rule:nonzero;stroke:none"
         x="0"
         y="0">«metadata»</tspan></text>
    <path
       id="path17"
       d="m 561.54956,-132.48766 2.92596,-0.66247 0.22083,0.97531 -2.92596,0.66248 m 5.63104,-2.30027 2.92596,-0.66247 0.22083,0.97531 -2.92597,0.66247 m 5.63105,-2.30026 2.92596,-0.66247 0.22083,0.97531 -2.92597,0.66247 m 5.6311,-2.30027 2.92591,-0.66248 0.22082,0.97531 -2.9259,0.66248 m 5.63104,-2.30027 2.92591,-0.66247 0.22082,0.97531 -2.9259,0.66248 m 5.63104,-2.30027 2.92596,-0.66247 0.22083,0.97531 -2.92596,0.66248 m 5.63104,-2.30027 2.92596,-0.66247 0.22083,0.97531 -2.92597,0.66247 m 5.63105,-2.30026 2.92596,-0.66247 0.22082,0.97531 -2.92596,0.66247 m 5.6311,-2.30028 2.92591,-0.66247 0.22082,0.97531 -2.9259,0.66248 m 5.63104,-2.30027 0.33307,-0.0754 0.22083,0.97532 -0.33307,0.0754"
       style="fill:#000000;fill-opacity:1;fill-rule:nonzero;stroke:none"
       transform="matrix(0.95276639,0,0,0.95276639,-303.49682,209.60861)"
       clip-path="url(#clipPath18)" />
  </g>
</svg>
