<?xml version="1.0" encoding="UTF-8" standalone="no"?>
<!-- Created with Inkscape (http://www.inkscape.org/) -->

<svg
   version="1.1"
   id="svg1"
   width="152"
   height="93.440002"
   viewBox="0 0 152 93.440002"
   xmlns="http://www.w3.org/2000/svg"
   xmlns:svg="http://www.w3.org/2000/svg">
  <defs
     id="defs1">
    <clipPath
       clipPathUnits="userSpaceOnUse"
       id="clipPath2">
      <path
         d="M 0,0 H 476 V 291.01563 H 0 Z"
         transform="scale(0.31999999)"
         clip-rule="evenodd"
         id="path2" />
    </clipPath>
    <clipPath
       clipPathUnits="userSpaceOnUse"
       id="clipPath4">
      <path
         d="M 3.125,0 H 475 V 290.625 H 3.125 Z"
         transform="matrix(0.34303385,0,0,0.34303385,75.343972,-562.07197)"
         clip-rule="evenodd"
         id="path4" />
    </clipPath>
    <clipPath
       clipPathUnits="userSpaceOnUse"
       id="clipPath6">
      <path
         d="M 3.125,0 H 475 V 290.625 H 3.125 Z"
         transform="matrix(0.34303385,0,0,0.34303385,75.343972,-562.07197)"
         clip-rule="evenodd"
         id="path6" />
    </clipPath>
    <clipPath
       clipPathUnits="userSpaceOnUse"
       id="clipPath7">
      <path
         d="M 3.125,0 H 475 V 290.625 H 3.125 Z"
         transform="matrix(0.34303385,0,0,0.34303385,-5.1560253,-38.572041)"
         clip-rule="evenodd"
         id="path7" />
    </clipPath>
    <clipPath
       clipPathUnits="userSpaceOnUse"
       id="clipPath8">
      <path
         d="M 3.125,0 H 475 V 290.625 H 3.125 Z"
         transform="matrix(0.34303385,0,0,0.34303385,-5.1560253,-52.572041)"
         clip-rule="evenodd"
         id="path8" />
    </clipPath>
    <clipPath
       clipPathUnits="userSpaceOnUse"
       id="clipPath9">
      <path
         d="M 3.125,0 H 475 V 290.625 H 3.125 Z"
         transform="matrix(0.34303385,0,0,0.34303385,-61.85915,-52.572041)"
         clip-rule="evenodd"
         id="path9" />
    </clipPath>
    <clipPath
       clipPathUnits="userSpaceOnUse"
       id="clipPath10">
      <path
         d="M 3.125,0 H 475 V 290.625 H 3.125 Z"
         transform="matrix(0.34303385,0,0,0.34303385,-68.874775,-52.572041)"
         clip-rule="evenodd"
         id="path10" />
    </clipPath>
    <clipPath
       clipPathUnits="userSpaceOnUse"
       id="clipPath11">
      <path
         d="M 3.125,0 H 475 V 290.625 H 3.125 Z"
         transform="matrix(0.34303385,0,0,0.34303385,-5.1560253,-67.572041)"
         clip-rule="evenodd"
         id="path11" />
    </clipPath>
    <clipPath
       clipPathUnits="userSpaceOnUse"
       id="clipPath12">
      <path
         d="M 3.125,0 H 475 V 290.625 H 3.125 Z"
         transform="matrix(0.34303385,0,0,0.34303385,-61.85915,-67.572041)"
         clip-rule="evenodd"
         id="path12" />
    </clipPath>
    <clipPath
       clipPathUnits="userSpaceOnUse"
       id="clipPath13">
      <path
         d="M 3.125,0 H 475 V 290.625 H 3.125 Z"
         transform="matrix(0.34303385,0,0,0.34303385,-68.874775,-67.572041)"
         clip-rule="evenodd"
         id="path13" />
    </clipPath>
    <clipPath
       clipPathUnits="userSpaceOnUse"
       id="clipPath14">
      <path
         d="M 3.125,0 H 475 V 290.625 H 3.125 Z"
         transform="matrix(0.34303385,0,0,0.34303385,-5.1560253,-81.572041)"
         clip-rule="evenodd"
         id="path14" />
    </clipPath>
    <clipPath
       clipPathUnits="userSpaceOnUse"
       id="clipPath15">
      <path
         d="M 3.125,0 H 475 V 290.625 H 3.125 Z"
         transform="matrix(0.34303385,0,0,0.34303385,-61.85915,-81.572041)"
         clip-rule="evenodd"
         id="path15" />
    </clipPath>
    <clipPath
       clipPathUnits="userSpaceOnUse"
       id="clipPath16">
      <path
         d="M 3.125,0 H 475 V 290.625 H 3.125 Z"
         transform="matrix(0.34303385,0,0,0.34303385,-68.874775,-81.572041)"
         clip-rule="evenodd"
         id="path16" />
    </clipPath>
    <clipPath
       clipPathUnits="userSpaceOnUse"
       id="clipPath17">
      <path
         d="M 3.125,0 H 475 V 290.625 H 3.125 Z"
         transform="matrix(0.34303385,0,0,0.34303385,-44.968525,-14.572041)"
         clip-rule="evenodd"
         id="path17" />
    </clipPath>
  </defs>
  <g
     id="g1">
    <path
       id="path1"
       d="M 0,0 H 153 V 93 H 0 Z"
       style="fill:#ffffff;fill-opacity:1;fill-rule:nonzero;stroke:none"
       clip-path="url(#clipPath2)" />
    <path
       id="path3"
       d="m 78.5,-560 h 138 l 19,19 v 76 h -157 z"
       style="fill:#ffffff;fill-opacity:1;fill-rule:nonzero;stroke:#000000;stroke-width:1;stroke-linecap:butt;stroke-linejoin:miter;stroke-miterlimit:10;stroke-dasharray:none;stroke-opacity:1"
       transform="matrix(0.93285251,0,0,0.93285251,-70.284813,524.33025)"
       clip-path="url(#clipPath4)" />
    <path
       id="path5"
       d="m 216.5,-560 v 19 h 19"
       style="fill:none;stroke:#000000;stroke-width:1;stroke-linecap:butt;stroke-linejoin:miter;stroke-miterlimit:10;stroke-dasharray:none;stroke-opacity:1"
       transform="matrix(0.93285251,0,0,0.93285251,-70.284813,524.33025)"
       clip-path="url(#clipPath6)" />
    <text
       id="text6"
       xml:space="preserve"
       transform="matrix(0.93285251,0,0,0.93285251,4.8098111,35.982025)"
       clip-path="url(#clipPath7)"><tspan
         id="tspan6"
         style="font-variant:normal;font-weight:normal;font-size:12px;font-family:Arial;writing-mode:lr-tb;fill:#000000;fill-opacity:1;fill-rule:nonzero;stroke:none"
         x="0"
         y="0">MetadataDef1</tspan></text>
    <g
       id="g7" />
    <text
       id="text7"
       xml:space="preserve"
       transform="matrix(0.93285251,0,0,0.93285251,4.8098111,49.04196)"
       clip-path="url(#clipPath8)"><tspan
         id="tspan7"
         style="font-variant:normal;font-weight:normal;font-size:12px;font-family:Arial;writing-mode:lr-tb;fill:#000000;fill-opacity:1;fill-rule:nonzero;stroke:none"
         x="0"
         y="0">  attribute1</tspan></text>
    <text
       id="text8"
       xml:space="preserve"
       transform="matrix(0.93285251,0,0,0.93285251,57.705463,49.04196)"
       clip-path="url(#clipPath9)"><tspan
         id="tspan8"
         style="font-variant:normal;font-weight:700;font-size:12px;font-family:Arial;writing-mode:lr-tb;fill:#000000;fill-opacity:1;fill-rule:nonzero;stroke:none"
         x="0"
         y="0">=</tspan></text>
    <text
       id="text9"
       xml:space="preserve"
       transform="matrix(0.93285251,0,0,0.93285251,64.250007,49.04196)"
       clip-path="url(#clipPath10)"><tspan
         id="tspan9"
         style="font-variant:normal;font-weight:normal;font-size:12px;font-family:Arial;writing-mode:lr-tb;fill:#000000;fill-opacity:1;fill-rule:nonzero;stroke:none"
         x="0"
         y="0">value1</tspan></text>
    <g
       id="g10" />
    <text
       id="text10"
       xml:space="preserve"
       transform="matrix(0.93285251,0,0,0.93285251,4.8098111,63.034748)"
       clip-path="url(#clipPath11)"><tspan
         id="tspan10"
         style="font-variant:normal;font-weight:normal;font-size:12px;font-family:Arial;writing-mode:lr-tb;fill:#000000;fill-opacity:1;fill-rule:nonzero;stroke:none"
         x="0"
         y="0">  attribute2</tspan></text>
    <text
       id="text11"
       xml:space="preserve"
       transform="matrix(0.93285251,0,0,0.93285251,57.705463,63.034748)"
       clip-path="url(#clipPath12)"><tspan
         id="tspan11"
         style="font-variant:normal;font-weight:700;font-size:12px;font-family:Arial;writing-mode:lr-tb;fill:#000000;fill-opacity:1;fill-rule:nonzero;stroke:none"
         x="0"
         y="0">=</tspan></text>
    <text
       id="text12"
       xml:space="preserve"
       transform="matrix(0.93285251,0,0,0.93285251,64.250007,63.034748)"
       clip-path="url(#clipPath13)"><tspan
         id="tspan12"
         style="font-variant:normal;font-weight:normal;font-size:12px;font-family:Arial;writing-mode:lr-tb;fill:#000000;fill-opacity:1;fill-rule:nonzero;stroke:none"
         x="0"
         y="0">&quot;value2&quot;</tspan></text>
    <g
       id="g13" />
    <text
       id="text13"
       xml:space="preserve"
       transform="matrix(0.93285251,0,0,0.93285251,4.8098111,76.094683)"
       clip-path="url(#clipPath14)"><tspan
         id="tspan13"
         style="font-variant:normal;font-weight:normal;font-size:12px;font-family:Arial;writing-mode:lr-tb;fill:#000000;fill-opacity:1;fill-rule:nonzero;stroke:none"
         x="0"
         y="0">  attribute3</tspan></text>
    <text
       id="text14"
       xml:space="preserve"
       transform="matrix(0.93285251,0,0,0.93285251,57.705463,76.094683)"
       clip-path="url(#clipPath15)"><tspan
         id="tspan14"
         style="font-variant:normal;font-weight:700;font-size:12px;font-family:Arial;writing-mode:lr-tb;fill:#000000;fill-opacity:1;fill-rule:nonzero;stroke:none"
         x="0"
         y="0">=</tspan></text>
    <text
       id="text15"
       xml:space="preserve"
       transform="matrix(0.93285251,0,0,0.93285251,64.250007,76.094683)"
       clip-path="url(#clipPath16)"><tspan
         id="tspan15"
         style="font-variant:normal;font-weight:normal;font-size:12px;font-family:Arial;writing-mode:lr-tb;fill:#000000;fill-opacity:1;fill-rule:nonzero;stroke:none"
         x="0"
         y="0">&quot;http : //.....&quot;</tspan></text>
    <text
       id="text16"
       xml:space="preserve"
       transform="matrix(0.93285251,0,0,0.93285251,41.949001,13.593565)"
       clip-path="url(#clipPath17)"><tspan
         id="tspan16"
         style="font-variant:normal;font-weight:normal;font-size:12px;font-family:Arial;writing-mode:lr-tb;fill:#000000;fill-opacity:1;fill-rule:nonzero;stroke:none"
         x="0"
         y="0">«metadata»</tspan></text>
  </g>
</svg>
